<?xml version="1.0" encoding="utf-8"?>
<!-- Generator: Adobe Illustrator 21.1.0, SVG Export Plug-In . SVG Version: 6.00 Build 0)  -->
<svg version="1.1" id="Layer_1" xmlns="http://www.w3.org/2000/svg" xmlns:xlink="http://www.w3.org/1999/xlink" x="0px" y="0px"
	 viewBox="0 0 4000 3733.1" style="enable-background:new 0 0 4000 3733.1;" xml:space="preserve">
<style type="text/css">
	.st0{fill:#EE6E66;}
	.st1{clip-path:url(#SVGID_2_);fill:#009345;}
	.st2{clip-path:url(#SVGID_2_);fill:#D6DE23;}
	.st3{clip-path:url(#SVGID_2_);fill:#D09566;}
	.st4{clip-path:url(#SVGID_2_);fill:none;stroke:#231F20;stroke-width:4.0231;stroke-miterlimit:10;}
	.st5{clip-path:url(#SVGID_2_);fill:#231F20;}
	.st6{clip-path:url(#SVGID_4_);fill:#231F20;}
</style>
<rect class="st0" width="4000" height="3733.1"/>
<g>
	<defs>
		<rect id="SVGID_1_" x="1246.4" y="346" width="1561.1" height="1974.6"/>
	</defs>
	<clipPath id="SVGID_2_">
		<use xlink:href="#SVGID_1_"  style="overflow:visible;"/>
	</clipPath>
	<path class="st1" d="M2527.2,529.9c-1.1-5.9-3.5-11.5-6.8-16.7c3.1-0.9,6.2-1.8,9.3-2.9c-0.3,2.4-0.5,4.8-0.8,7.2
		C2528.5,521.9,2527.9,525.9,2527.2,529.9 M2464.7,623.1c-17.5,13.7-36,26.8-54.3,39.3c-15.6,10.6-29.1,12.9-46.1,14.5
		c54.6-27.7,101.7-68.4,147.8-108.1c1.6-1.4,3-2.7,4.3-4.1C2505.6,587,2488.4,604.5,2464.7,623.1 M2350.1,564.5
		c8.1-5.5,17.9-8.3,28.1-10.3c-15.9,11.8-32.3,22.8-49.6,32.6C2335.1,577.9,2342.1,570,2350.1,564.5 M2658,380.1
		c-10.9-43.8-65.2-43-88.2-11.5c-32,43.7-83.5,61.4-136,57c-16.7-1.4-33.4,10.2-41.7,23.9c-9.7,16.1-58.8,15.6-76.3,23.7
		c-27.5,12.7-45.2,33.5-62.7,57.5c-21.7,29.7-42.1,60.4-62.5,91c-14.2,21.4-30.5,42.3-37.8,66.1c-17.5,21.5-27,47.6-8.9,74.2
		c31.1,45.6,110,21.2,154.9,17.3c52.3-4.7,110.9-1.3,156.3-30.7c41.4-26.8,86.7-58.1,119.1-95.6c35.8-41.4,44.8-82.7,51.3-135.4
		C2631.7,466.7,2671.6,435.1,2658,380.1"/>
	<path class="st2" d="M2414.8,2003c-12.3,24.4-26.3,54.8-41.7,74.1c-15.6,19.5-30.7,29.1-55.3,35.7c-50.3,13.5-119.3,4.3-178.5-0.3
		c-69.7-5.3-138.8-1.7-208.6-1.1c-62.8,0.6-126.4-0.8-181.8-33.8c-53.3-31.7-94.1-84.2-134.2-131.2
		c-52.5-61.6-124.5-132.7-164.2-193.1c-1.3-2-2.3-5.8-3-7.9c0.4-4.6,0.9-14.8,0.9-16.3c1-22.6,3-45.3,6-67.7
		c5.7-42.2,15.4-83.8,26.3-124.9c6-22.6,4.6-42.7-1.9-60c-1.1-55.4-1.2-113.9,24.3-163.4c29.2-56.6,77.4-105.3,121.9-150
		c21.7-21.8,43.2-43.8,69.8-59.5c28.8-17,64.3-22.8,97-27.9c70-10.9,140.9-3.2,208.6-27.2c63-22.3,133.7-14.7,199.6-9.3
		c57.6,4.7,115.3,18.6,162.1,54.1c54.4,41.3,103.9,98.2,146.4,151.3c35.9,44.7,62.6,95.3,79.2,149.9c-11.7,74.6-23.3,149.1-35,223.7
		c-5.6,36-11.2,71.9-16.9,107.9c-1.6,10.5-3,21.2-4.5,32.1c-10,14.7-21,28.8-33,42.2c-25.4,28.6-34.8,67.6-24.2,102.1
		c-3.1,4.3-6.3,8.6-9.2,12.9C2445.8,1943.4,2430.1,1972.7,2414.8,2003 M2803.9,1456.5c-10.5-93.5-38.2-184.2-87.6-264.9
		c-45.9-74.9-108-142.2-170.6-203.4c-65.4-63.9-141.2-113.1-231.1-133.9c-84.7-19.6-181.3-26.6-268.1-19.8
		c-44.2,3.4-80.6,17.4-122.5,28.2c-39.2,10.1-83.2,5.7-123.7,10.5c-102.5,12.2-191.7,36.6-271.7,104.8
		c-70.9,60.5-140.1,137-189,216.4c-57.3,93-63,200.5-61.2,306.7c0.1,4.1,0.3,8,0.8,11.8c-20.2,79.4-37.6,166.7-31.6,246.9
		c7.4,98.4,87.8,167.9,148.2,238.8c111.8,131.3,217.9,276.8,400.2,304.8c86.3,13.3,171.8,6.4,258.5,6.5
		c76.8,0.1,153.6,14.6,230.4,9.5c86.8-5.7,172.1-33.4,230.9-100.8c52.7-60.4,77.7-136.6,122.9-201.8c28.4-41,54.5-80.2,70-128.3
		c6.3-19.6,10.6-39.8,14.1-60.3C2787.1,1716.4,2818.5,1587,2803.9,1456.5"/>
	<path class="st2" d="M2036.1,986.9c1.3-5,1.8-10.1,6.1-13.6c0.8-0.7,1.2-2,1.7-3.1c2.3-5.4,4-11.1,7.1-16
		c3.7-5.9,3.7-12.6,5.5-18.9c0.8-2.6,1.5-5.3,2.5-7.8c4-9.7,8.2-19.4,12.3-29c0.3-0.7,0.4-1.5,0.6-2.3c0.9-3.3,1.7-6.6,3-9.9
		c-0.6-2.7-3.4-5.2-0.1-9.1c0.2,1.5,0.4,2.3,0.5,3.5c4-1.6,7.8-3.5,11.8-4.6c6.6-1.9,13.2-3.8,19.9-5c14.6-2.5,29.4-4.7,44.1-6.8
		c4.8-0.7,9.7-1.1,14.6-1.4c6.6-0.5,13.3-0.6,19.9-1.2c11.3-1.1,22.4-2.8,33.7-3.8c9.5-0.8,19.1-0.5,28.6,1.4
		c5.7,1.1,11.6,1.8,17.4,2.3c9.5,0.8,19.1,1,28.6,2c3.3,0.4,6.8,1.9,9.6,3.9c7.1,4.9,13.9,10.2,20.7,15.4c7,5.3,13.9,10.6,20.8,16
		c6.1,4.9,11.7,10.4,18.2,14.7c9.5,6.4,18,14.2,28.1,20.1c11.3,6.5,22.5,13.3,32.7,21.5c7.4,6,15.7,10.8,23.6,16.3
		c9.1,6.4,18.1,12.9,27.3,19.3c3.5,2.5,7.3,4.5,10.7,7.1c4.6,3.5,9,7.4,13.4,11.2c2.3,2,4.4,4.4,6.8,6.4
		c10.3,8.8,20.5,17.5,30.9,26.1c5.4,4.5,11.2,8.5,16.6,13c15.4,12.9,28,28.3,40.9,43.6c6.7,7.9,13.6,15.6,20,23.7
		c4.7,6,8.7,12.5,13.2,18.6c2.9,3.9,5.9,7.7,9.1,11.4c5,5.8,10.1,11.4,15.1,17.2c2.3,2.7,4.5,5.4,6.4,8.3c4.7,7,9.1,14.1,13.8,21
		c5,7.5,10.1,14.8,15.3,22.2c10.2,14.3,21.1,28.2,29.2,43.9c1.4,2.8,3.5,5.2,5,7.9c5.3,9.1,10.7,18.2,15.7,27.5
		c2.5,4.6,4.2,9.7,6.2,14.6c3.3,8.3,6.7,16.6,9.8,25c3.9,10.4,8,20.8,11.2,31.5c4.4,14.8,7.6,30,12.1,44.7c4,13.1,4.8,26.5,5.1,40.1
		c0.2,10.6,0.5,21.1,0.2,31.7c-0.5,20.7-1,41.5-2.1,62.2c-0.7,13.4-2.2,26.9-3.8,40.3c-0.8,6.4-2.2,12.7-3.9,18.9
		c-4.5,16.4-9.3,32.7-14,49.1c-5.8,19.9-11.5,39.9-17.4,59.8c-4.8,16.1-9.7,32.2-16.6,47.6c-2.3,5.1-2.9,11-5,16.2
		c-4.9,12.3-10.2,24.5-15.4,36.7c-3.2,7.4-6.5,14.7-10,21.9c-4.6,9.3-9.5,18.4-14.4,27.5c-5.3,9.8-10.5,19.7-16,29.4
		c-2.5,4.4-5.5,8.5-8.3,12.7c-7.8,11.7-15.6,23.4-23.4,35.1c-0.6,1-1.6,1.7-2.3,2.7c-3.9,5.1-7.8,10.3-11.7,15.4
		c-1.2,1.6-2.3,3.2-3.7,4.6c-7.5,7.5-11.7,16.9-15.8,26.5c-6.6,15.6-13.1,31.3-20.4,46.7c-3.7,7.7-9,14.6-13.5,21.9
		c-5.1,8.1-9.8,16.4-15.3,24.2c-4.8,6.8-10.6,13-15.8,19.6c-1.6,2.1-2.7,4.6-3.8,7c-1.3,2.6-1.9,5.8-3.8,7.8
		c-2.5,2.6-1.9,4.7-0.4,7.2c-1.2,1.1-2.8,1.9-3.1,2.9c-1.1,4.5-2.3,8.6-7.5,10c-0.8,0.2-1.3,1.9-1.7,3c-1.8,5.1-4.4,9.7-8,13.7
		c-0.5,0.6-0.3,1.7-0.5,2.6c-0.2,0.7-0.3,1.8-0.8,2c-5.8,2.4-8,8.9-13.4,11.8c-1.4,0.8-2.5,2.9-2.9,4.6c-0.6,2.5-1.6,4.3-3.9,5.5
		c-4.1,2.3-8.2,4.8-9,10.1c-0.1,0.5-0.5,1.1-0.9,1.4c-3.5,2.4-6.9,4.8-10.5,7c-2.2,1.4-2.3,1.2-2,6c3.7,0.6,5.5-2.2,7.7-4.3
		c4.4-4.1,8.8-8.2,13.2-12.3c1.1-1.1,2.7-2.1,3.1-3.4c1.2-4.5,4.7-6.5,8-8.9c1.8-1.4,3.2-3.2,4.8-4.9c3.4-3.4,6.9-6.8,10.3-10.3
		c1.4-1.5,2.9-3,4.1-4.7c2.8-4,5.4-8,8.6-11.7c-1,4.4-2.5,8.4-5.3,12c-6.8,8.8-13.4,17.7-20.3,26.5c-5,6.3-10.3,12.3-15.5,18.3
		c-7.4,8.6-14.8,17.2-22.3,25.6c-3.1,3.5-6.6,6.5-10,9.8c-1.8,1.7-3.4,2.4-5.4,0.1c-1.8-2-2.6-3.6-0.5-6c1.9-2.2,3.3-4.8,5-7.2
		c2.3-3.3,4.2-6.9,8.2-8.8c4.4-2,3.1-6.1,2.5-10.5c-1,0.9-1.7,1.4-2.2,2c-3.8,4.4-7.5,8.8-11.2,13.3c-1.2,1.5-3.5,2.9-3.5,4.4
		c-0.1,5.3-3.8,7.7-7.4,9.6c-5.1,2.7-9.1,6.1-12.6,10.9c-2.3,3.2-6.8,5.3-10.7,6.8c-12.1,4.8-24.1,10-36.8,13.3
		c-5.3,1.4-10.2,3.8-15.4,5.4c-7.1,2.2-14.2,4.2-21.4,6c-11.9,3.1-23.9,6.1-35.9,8.9c-6.7,1.5-13.4,2.6-20.2,3.7
		c-15.6,2.5-31.3,4.9-47,7.2c-2.7,0.4-5.5-0.1-8.1,0.5c-14,3.2-28.3,2.8-42.5,4.2c-18.7,1.8-37.4,2.9-56.2,2.2
		c-15.1-0.5-30.2,0.1-45.2,0.2c-14.7,0.1-29.3,0.1-43.9,0.1c-10.6,0-21.1,0-31.7-0.2c-5-0.1-10.1-0.5-15.1-0.5
		c-6.4,0-12.8,0.7-19.3,0.6c-12.3-0.3-24.6-0.9-36.9-1.5c-5.5-0.3-10.8-0.1-16.3,1.2c-6.8,1.6-13.9,2.3-20.9,2.5
		c-13.1,0.4-26.2,0.2-39.3,0c-8.7-0.1-17.4-0.4-26.1-0.9c-4.9-0.3-9.7-1.2-14.5-1.8c-7.8-1-15.5-1.9-23.3-3
		c-8.5-1.2-17.1-2-25.5-3.8c-13.2-2.9-26.3-5.9-37.9-13.4c-9.4-6-18.4-12.4-25.9-20.8c-4.3-4.8-8.6-9.6-12.9-14.4
		c-0.7-0.7-1.5-1.4-1.8-2.3c-3.3-8.9-10.4-14.7-16.4-21.5c-2.4-2.6-3.7-6.1-5.4-8.9c-2-1.4-4.1-2.5-5.7-4.1
		c-5.5-5.2-9.9-11.4-15.7-16.5c-7.4-6.3-13.7-13.9-20.3-21c-8.8-9.4-17.1-19.2-27.3-27.3c-5.5-4.3-10.2-9.7-15.2-14.6
		c-4.9-4.7-9.9-9.4-14.7-14.2c-6.3-6.4-12.4-13-18.6-19.5c-2.4-2.5-5.1-4.9-7.5-7.4c-8.2-8.6-16.2-17.4-24.7-25.8
		c-11.6-11.5-23.6-22.7-35.4-34.1c-5.2-5-10.3-10.2-15.4-15.3c-4.6-4.5-8.8-9.4-13.7-13.5c-10.3-8.7-19.8-18.2-28.5-28.5
		c-7.1-8.3-14.7-16.2-21.5-24.7c-9.2-11.4-17.9-23.2-26.6-34.9c-4.3-5.8-8.4-11.8-12.1-18c-5.8-9.7-11.2-19.7-16.6-29.6
		c-2.8-5.1-5.3-10.5-7.8-15.8c-5.7-12.4-11-25.1-17.1-37.3c-8-15.8-12.6-32.8-19.3-49c-3.4-8.1-6.6-16.3-9.4-24.6
		c-3.3-10.2-6.3-20.5-9-30.9c-2.4-9.5-4.6-19-6.2-28.7c-1.9-12-3.1-24.1-4.3-36.1c-1-9.7-1.6-19.5-2.1-29.3
		c-0.3-6.2-0.2-12.5-0.3-18.7c-0.3-20.2-0.1-40.4,2.1-60.4c0.8-7.5,2.8-15,4.1-22.4c0.7-4,1.2-8.1,2.1-12.1
		c4.3-18.2,8.6-36.5,13.3-54.7c2.4-9.3,5.6-18.3,8.8-27.4c4.2-12,8.8-23.8,13-35.8c1.7-4.8,3-9.7,4.5-14.5c0.7-2.2,1.4-4.5,2.3-6.7
		c4.3-11.4,9.4-22.5,13-34.3c3-9.7,7.3-19,11-28.4c5.6-14.4,11.1-28.9,16.9-43.2c2.9-7,6.6-13.8,9.8-20.7c2.5-5.3,4.8-10.7,7.3-15.9
		c6.7-13.7,13.6-27.3,20.3-41c6.9-14.1,15-27.4,24-40.3c6.7-9.6,13-19.5,19.6-29.2c5.5-8.1,11.3-15.9,16.7-24
		c2.4-3.5,4.3-7.4,6.5-11.1c3-5,6.4-9.6,10.7-13.8c3.7-3.6,5.9-8.7,9.1-12.8c12.1-15.9,24.1-31.8,36.6-47.3c4-5,9.4-8.8,14.2-13
		c7-6.2,14.2-12.3,21.2-18.4c2.2-1.9,4.4-3.9,6.7-5.7c12.2-9.4,23.4-20.1,37.3-27.3c4.9-2.5,8.8-7.1,13.6-10
		c7.1-4.4,14.5-8.4,22-12.1c7.5-3.7,15.2-7,23-9.9c5.8-2.2,12-3.5,18-5.2c4.5-1.2,9.2-2.1,13.6-3.6c4.4-1.5,8.7-2.3,13.3-1.5
		c2.9,0.5,5.1-0.8,7.3-2.8c2.4-2.2,5.2-4.5,8.2-5.2c11.6-2.5,23-5.7,35-6.8c12-1.1,23.8-4.4,35.6-6.8c3.1-0.6,6.2-1,9.3-1.4
		c17.6-2.4,35.3-3.6,53.1-4.4c13.5-0.6,27-0.3,40.4-0.6c5.4-0.1,10.9,0.8,16.3,0.9c4.7,0.1,9.4,0,14.1-0.2c9.9-0.5,19.5,1,29.2,2.5
		c8.8,1.4,17.5,0.9,26.3-0.4c6.6-1,10.1,1.7,10.2,8.5c0.1,8.7-0.5,17.4-2.5,26c-1.4,6.2-1.2,12.8-1.8,19.2
		c-0.5,5.2-0.6,10.6-1.5,15.7c-1.7,9.8-3.3,19.6-2.6,29.6c0.2,2.7-0.4,5.4-0.5,8.1c-0.1,7.4-3.1,10.6-10.6,11
		c-2.1,0.1-4.3-0.3-6.4-0.4c-8.6-0.3-17.2-0.2-25.8-0.9c-17.8-1.4-35.5-2.6-53.2-4.9c-8-1.1-15.6-4.7-23.5-6.9
		c-17.8-4.9-33.5-13.7-47.8-25.2c-2.4-1.9-4.9-3.3-8-1.6c-3.4,1.8-5.5,4.3-5.2,8.4c0.3,4,2,7,5.1,9.5c12.5,9.9,26.3,17.5,41.2,22.9
		c4.7,1.7,10,2,14.7,3.7c21.2,7.4,43.3,8.4,65.3,10.1c9.5,0.7,19.2,0.2,28.7,1.2c7.3,0.8,14.3-0.6,21.5-1.1
		c7.3-0.5,14.8,0.2,22.2,0.4c2.9,0.1,5.8,0,8.8,0.1c9.6,0.4,19.1,1.4,28.7,1.3c8.8-0.1,17.5-1.4,26.3-2.1c7.2-0.6,14.5-0.8,21.6-1.7
		c10.9-1.3,21.7-2.9,32.5-4.7c9.2-1.5,18.2-4,27.6-4.8c5.8-0.5,11.4-3.7,17.1-5.8c2.2-0.8,4.3-1.8,6.6-2.4
		c22.2-5.5,44.2-11.7,65.1-21.1c4.6-2,9.4-3.3,14.2-4.9c2-0.7,11.1-11.4,11.2-13.5c0.2-2.8-1.7-4.9-4.8-4.3
		c-3.8,0.7-7.6,1.7-11.2,3.1c-4,1.5-7.7,3.9-11.6,5.5c-14.8,6.1-29.5,12.4-45.3,16.2c-11.6,2.7-22.9,6.6-34.3,9.9
		c-4.5,1.3-9,2.5-13.6,3.4c-5.9,1.2-11.9,2.1-17.9,2.9c-9.7,1.3-19.4,2.7-29.1,3.5c-10.3,0.8-20.7,1-31.1,1.6
		c-4.7,0.3-9.3,0.9-14,1.3C2044.2,988.4,2040,989.2,2036.1,986.9 M1634.9,2178.8c-0.6-2.2-0.7-3.6-1.4-4.6
		c-4.5-6.9-9-13.9-13.9-20.5c-5.6-7.6-12.5-14.3-16.4-23.1c-0.8-1.7-3.1-2.8-4.9-4c-0.5-0.3-1.8-0.1-2.1,0.4
		c-0.4,0.7-0.7,2.3-0.3,2.5c2.9,2.1,2.8,6.6,6.6,7.9c0.8,0.3,1.2,1.7,1.8,2.6c0.7,1.2,1.2,2.4,1.9,3.5c3.2,4.4,6.4,8.7,9.6,13.1
		c5.1,6.9,10.2,13.8,15.4,20.6C1631.7,2178,1633,2178.1,1634.9,2178.8 M1417.4,1886.2c-3.1,5,2.1,14.8,9.8,18.9
		C1426.7,1897.1,1420.9,1892.6,1417.4,1886.2 M1397.2,1865.8c2.1,1.4,3.3,2.3,4.4,3.1c0.3-0.4,0.9-0.9,0.8-1.3
		C1402.1,1865.6,1401.1,1864.4,1397.2,1865.8 M1906.5,2304c0,0.5,0.1,1,0.1,1.4c1.6-0.1,3.1-0.2,4.6-0.4c0-0.4-0.1-0.8-0.1-1.2
		C1909.6,2303.9,1908,2304,1906.5,2304 M2440.3,2128.7c-0.6,0.5-1,0.8-1.2,1.2c-0.1,0.2,0.3,0.8,0.5,0.8c0.5,0,0.9-0.3,1.4-0.5
		C2440.7,2129.9,2440.5,2129.4,2440.3,2128.7 M1894.1,2302.5c-0.3-0.1-0.8-0.5-0.9-0.4c-0.3,0.3-0.4,0.7-0.7,1.1
		c0.4,0,0.8,0.2,1,0.1C1893.8,2303.2,1893.9,2302.8,1894.1,2302.5"/>
	<path class="st3" d="M2021.9,711.6c-18.2-41.6-45.6-74.6-74.3-109.2c-26.2-31.6-40.2-50.4-77.2-42.7c-30.9-18.5-70.4,23.4-40.5,49
		c50.5,43.2,109.2,96.3,141.6,155.4c12.1,22,10.8,53.4,15.7,78.7c8.5,43.2,7.2,81.5-6.6,123.6c-13.3,40.3,46.6,54.2,62.1,17.1
		C2079.5,894.8,2059.1,796.7,2021.9,711.6"/>
	<path class="st1" d="M2289.7,766.5c-6-5.1-8.7-5.7-13.9-2.9c0.6,1.5,1.3,3.1,2.1,4.9c-3.2,1.9-6.2,1.5-9.2,0.4
		c-2-0.7-3.8-2-5.8-2.8c-3.8-1.7-7.6-2.1-10.7,1.4c-2.6,2.9-5.1,3.2-8.8,1.6c-6-2.6-12.4-4.4-18.7-6.5c-2.9-0.9-6.9,1.2-8.9,4.4
		c-3.6,5.7-4.5,6.2-10.7,3.6c-8.2-3.5-16.4-7.2-23.5-12.8c-2.1-1.6-3.4-3.5-3.7-6.3c-0.3-2.9-1.3-5.8-2.1-8.9c3.7,1.5,6.8,2.6,9.9,4
		c2.4,1.1,4,0.2,5.9-1.1c4.7-3.1,9.6-6,14.4-8.9c6.6-4,13.3-8,19.9-12.1c9.5-5.8,19-11.6,28.5-17.4c1.8-1.1,3.7-2.2,5.4-3.6
		c6-5,12.8-8.7,19.9-12.2c4.7-2.3,9.2-5,13.8-7.7c6.2-3.6,12.2-7.8,18.7-10.7c11.9-5.4,23.4-11.4,34.6-18.1
		c8.9-5.4,17.8-10.7,25.5-17.7c8.2-7.6,17.4-13.8,26.3-20.5c11.5-8.8,22.9-17.6,34.3-26.5c1.2-1,2.4-2,3.5-3.1
		c8.8-8.8,17.8-17.6,26.4-26.6c4.4-4.7,8.4-9.8,12.3-14.9c6.6-8.5,14.5-15.7,22.4-23c4.4-4.1,8.1-8.9,11.7-13.8
		c5.1-6.8,9.7-14.1,15-20.9c2.7-3.4,3.4-6.9,2.6-10.9c-1-5.2-6-7.4-10-4c-3.2,2.8-5.6,6.5-8.3,9.8c-8,9.9-15.8,19.9-24,29.6
		c-7.7,9.1-15.8,17.8-23.7,26.7c-8.5,9.6-16.7,19.4-26.1,28.3c-11.2,10.7-23.1,20.3-35.5,29.5c-13.7,10-26.6,21.1-40.3,31.1
		c-8.6,6.3-18,11.7-27.2,17.2c-8.1,4.7-16.5,8.8-24.8,13.3c-9.1,4.9-18.4,9.5-27.3,14.7c-11.4,6.6-23.9,10.8-35.5,16.7
		c-17.2,8.7-35.1,16.1-51.4,26.6c-5,3.2-10.4,5.8-15.9,8.8c0.2-3.4,0.3-7.2,0.6-10.9c0.9-12.9,1.8-25.8,3-38.6c0.6-6,1.8-12,2.7-18
		c0.4-2.7,2.2-3.3,4.8-3c7.3,0.8,9.3-1.1,10.4-8.2c0.9-6,2.4-11.9,3.7-17.8c0.2-0.9,0.6-2,1.2-2.6c4.3-4.2,4.4-9.6,5.5-15.1
		c1.6-7.6,4.5-14.9,7-22.7c1.7,0.5,3,0.8,4.2,1.3c5,2,7.4,1.6,11-2.3c3.3-3.6,5.9-7.4,6.7-12.7c0.8-5.3,2.8-10.5,4.6-15.6
		c0.7-2.1,2.6-3.7,3.7-5.3c3.1,1.2,5.5,2.8,8,3.1c4.7,0.5,9.7-3.4,11.2-8.7c2.1-7.6,4.7-15,8.8-21.7c5.5-8.8,11.4-17.3,17.1-26
		c1-1.6,2.4-3.1,4.3-2c1.5,0.9,2.9,2.4,3.7,4c0.6,1.1,0.1,2.7,0.5,4c0.9,3,2.9,3.7,5.8,2.5c5.5-2.3,9.2-5.7,11.3-11.7
		c1.7-4.9,5.1-9.2,8.1-13.5c2.1-3.1,3.5-3,6.1-0.5c2.3,2.2,4.4,4.4,6.7,6.6c1.6,1.6,3.4,1.9,5.2,0.4c3-2.4,6.1-4.8,8.9-7.5
		c2.8-2.7,5.3-5.8,7.8-8.7c3.1-3.6,6.1-7.1,11.7-6.5c1.9,0.2,2.9-1,4-2.7c2.6-4.3,5.1-8.6,9.5-11.7c2.6-1.9,4.4-4.9,6.7-7.3
		c1.6-1.7,3.4-3.3,6.7-1.6c-0.8,3-1.6,5.9-2.3,8.8c-0.4,1.7-1.1,3.4-1.2,5.1c-0.2,3.5,3,5.8,6.2,4.7c2-0.7,4.2-1.4,5.8-2.7
		c3.3-2.6,6.3-4.9,11-4.1c3.1,0.5,4.2-2.7,4.9-5c2-7.2,7.7-11.6,12.2-16.9c0.5-0.6,1.3-0.8,2.1-1.3c2,1.9,1.4,4,0.9,6
		c-0.4,1.9-1.5,3.8-1.4,5.6c0.1,2,0.7,4.5,2,5.6c1,0.9,3.9,0.6,5.3-0.3c3.6-2.3,6.7-5.3,10-8c2.1-1.7,4.4-3.2,6.5-4.8
		c1.8-1.4,4-2.7,5.2-4.6c2.9-4.7,7.8-6.9,11.2-10.4c2.8,0.9,2.7,2.4,2.6,4.4c-0.3,6.2,2.6,7.8,8.4,5.3c4.3-1.8,7.9-4.1,10.3-8.1
		c0.9-1.5,2.8-2.5,4.2-3.7c0.4,0.2,0.8,0.3,1.2,0.5c-0.2,2-0.3,4-0.7,6c-0.8,3.8-1.9,7.6-2.6,11.4c-0.6,3.7,0.8,5,4.6,4.8
		c3.6-0.2,6.6-2,8.4-4.8c5.9-9.1,13.6-16.5,21.6-23.7c3.1-2.8,6.4-5.6,11.2-6.4c0.3,4.4-1.2,7.9-3,11.4c-2.2,4.3-1.6,10.2,1.1,11.9
		c2.6,1.6,8.9-0.5,11.4-4.1c3.2-4.4,5.4-9.7,9.1-13.6c5.1-5.3,10.4-11,18.4-12.4c1.4-0.2,3.3-0.9,4-2c3.2-4.7,8.3-6.4,13-8.7
		c2.1-1.1,4.2-2,6.4-3c4.8-2.1,7.7-0.9,8.8,4.1c1.2,5.9,2.2,11.7,0.4,17.9c-2.7,9.8-4.4,19.9-6.9,29.7c-3.8,15.2-10.6,29-21.6,40.4
		c-2.6,2.7-5.4,5.1-7.7,7.9c-1.8,2.3-3.2,4.9-4.2,7.6c-1,3,0.1,5.7,2.9,7.6c1.9,1.3,3.8,2.8,5.5,4.4c2.2,2.1,2.2,3.5-0.5,5.1
		c-2.3,1.4-4.9,2.2-7.5,2.9c-6.7,1.7-11.1,6.9-10.3,12.9c0.3,2.4,1.6,4.7,2.7,7.9c-0.7,0.6-1.6,1.7-2.9,2.4
		c-5.6,3.5-6.6,7.9-3.1,13.7c0.9,1.5,1.6,3.1,2.2,4.8c1.4,4,3.9,7.1,7.2,9.8c2.4,1.9,4.5,4.4,6.3,6.9c1.5,2.1,1.1,4.1-1.6,5.1
		c-4.2,1.5-8.5,2.9-12.7,4.5c-7.6,3-9.3,7.7-5.7,14.8c1.3,2.6,2.6,5.2,4.2,8.3c-1.9,1.2-3.3,2.5-5,3.1c-4.6,1.6-9.2,3.1-13.9,4.4
		c-7.2,2.1-12,8.6-6.7,16.1c0.9,1.3,1.5,2.8,1.9,4.3c0.9,3.5-0.4,5.9-3.9,6.6c-4.4,0.9-8.3,1.9-10.1,6.8c-0.4,1.2-2.3,2-3.7,2.6
		c-5.6,2.6-8.7,6.5-7.8,12.9c0.4,2.7,0.7,5.4,1.2,8.1c1,4.6,0.3,6-4.4,7.1c-3.2,0.7-6.6,1-9.8,1.6c-7.6,1.3-11.6,7.4-9.9,14.8
		c0.5,2.1,1.3,4.1,1.6,6.2c0.5,3.8-0.3,5-4.2,5.6c-6.7,1-13.5,1.7-20.3,2.4c-1.6,0.2-3.1,0-4.7,0.2c-6.7,0.9-9.5,4.4-9.2,11.2
		c0.3,6-0.7,7.2-6.6,6c-5.3-1.1-10.6-2.8-15.6-4.8c-5.7-2.3-7.5-1.8-12.6,1.9c-5.3,3.8-7.6,8.4-8,14.8c-0.3,5.8-1.7,6.7-7.6,5.6
		c-3.2-0.6-6.4-1.7-9.2-3.4c-3.7-2.1-7-3.2-11-1c-1.6,0.9-3.7,1-5.7,1c-2.6,0.1-4.5,0.7-5.4,3.5c-0.9,2.8-3.1,4.1-5.9,4
		c-5.2-0.2-10.5-0.4-15.7-1.1c-3.2-0.4-5.9,0-8.3,1.9c-2.2,1.8-4.6,2.6-7.5,2.7c-4.6,0.2-5.6,1.6-5.5,6.2c0,0.6,0,1.2,0,1.7
		c0,0.2-0.2,0.4-0.7,1.4c-1.5,0.1-3.6,0.6-5.5,0.2c-4.2-0.9-8.4-2.1-12.4-3.4c-6-2-8-1.7-11.5,3.4c-2,3-4.7,4.6-8,5.6L2289.7,766.5z
		"/>
	<path class="st3" d="M1833.2,592.4c4.6-6.3,12.4-10.3,28.1-14.7c0.5,1.6,0.8,3.2,1.4,4.8c1.1,2.8,3.6,3.4,5.4,1.1
		c1.2-1.6,2.5-3.8,2.3-5.7c-0.4-7.4,4.7-10.3,10-12.9c3.4-1.7,7.2-0.3,8.1,3.3c3.2,12,11.2,21,19.1,29.8c9.9,11,20.1,21.7,30.3,32.5
		c4.2,4.4,8.8,8.4,12.9,12.8c3.2,3.4,6.2,7,8.7,10.9c5.4,8.4,10.3,17.1,15.5,25.5c4.5,7.3,9.7,14.2,13.9,21.7
		c3.7,6.6,6.5,13.7,9.6,20.7c1.4,3.2,2.8,6.5,3.9,9.8c2,5.9,3.9,11.9,5.5,17.9c2.6,9.6,5.1,19.2,7.6,28.9c1.3,5.1,2.5,10.3,3.5,15.4
		c1.8,8.6,3.4,17.3,5.1,25.9c1.5,7.5,2.7,14.8,1.9,22.6c-0.5,5-1.6,10.3,0.7,15.5c1.2,2.7,0.8,6.2,0.6,9.3c-0.5,7.8-1.4,15.5-2,23.3
		c-0.3,3.7,0.4,7.5-0.3,11.1c-1.2,6.8-2.3,13.5-0.4,20.3c0.3,1.2,0.2,2.9-0.3,4c-2.8,6.5-3,13.5-3.5,20.4c-0.2,2.3-0.2,4.7-0.3,7
		c-0.2,3.3,0.2,6.7-0.8,9.7c-2.6,8.2-5.8,16.1-8.8,24.5c-3.3,0.2-7.3,2.1-9.9-0.9c-2.6-3-0.4-6.8,0.9-10c1.2-2.9,1.9-5.4,0-8.3
		c-0.6-0.9-0.9-2.3-0.8-3.3c1.2-6.7,2.5-13.4,3.8-20.1c0.4-1.9,0.9-3.8,1.2-5.7c2.3-18.1,3.3-36.2,3.9-54.4
		c0.2-5.6-0.9-11.3-1.7-16.9c-1.2-8.1-2.5-16.1-4-24.2c-0.9-4.8-2.2-9.5-3.1-14.3c-4-22.9-13.5-43.6-23.8-64.1
		c-3-5.9-5.9-11.9-9-17.8c-2-3.8-4.3-7.5-6.4-11.2c-6.2-10.6-12.6-21.2-18.6-31.9c-5.3-9.4-11.5-18.1-18.4-26.4
		c-8.6-10.4-16.7-21.2-25.7-31.1c-6.5-7.2-12.8-14.7-21-20.3c-6.4-4.4-11.9-10.1-17.9-15.1c-6.8-5.6-13.8-10.8-21.6-15
		C1836.8,595.7,1835.1,593.9,1833.2,592.4"/>
	<path class="st4" d="M2405.8,2277.5c-0.5-1.1-0.9-2.2-1.7-4.1c1.9,0.2,2.9,0.3,4.6,0.5c-0.9,1.6-1.4,2.6-2,3.6H2405.8z"/>
	<path class="st5" d="M1634.9,2178.8c-1.9-0.7-3.2-0.8-3.7-1.5c-5.2-6.8-10.3-13.7-15.4-20.6c-3.2-4.4-6.5-8.7-9.6-13.1
		c-0.8-1.1-1.3-2.3-1.9-3.5c-0.5-0.9-1-2.4-1.8-2.6c-3.8-1.3-3.7-5.8-6.6-7.9c-0.4-0.2-0.1-1.8,0.3-2.5c0.2-0.4,1.6-0.7,2.1-0.4
		c1.8,1.2,4.2,2.2,4.9,4c3.9,8.9,10.8,15.5,16.4,23.1c4.9,6.6,9.3,13.6,13.9,20.5C1634.1,2175.3,1634.2,2176.6,1634.9,2178.8"/>
	<path class="st5" d="M1417.4,1886.2c3.6,6.4,9.3,10.9,9.8,18.9C1419.5,1901,1414.2,1891.2,1417.4,1886.2"/>
	<path class="st5" d="M1397.2,1865.8c3.9-1.3,4.9-0.2,5.3,1.8c0.1,0.4-0.5,0.9-0.8,1.3C1400.5,1868,1399.3,1867.2,1397.2,1865.8"/>
	<path class="st5" d="M1907.7,2304.2c0.6,0,1.3,0,1.9-0.1c0,0,0,0.1,0,0.1c-0.6,0-1.3,0.1-1.9,0.1
		C1907.8,2304.3,1907.7,2304.3,1907.7,2304.2"/>
	<path class="st4" d="M1907.7,2304.2c0.6,0,1.3,0,1.9-0.1c0,0,0,0.1,0,0.1c-0.6,0-1.3,0.1-1.9,0.1
		C1907.8,2304.3,1907.7,2304.3,1907.7,2304.2z"/>
	<path class="st5" d="M2440.3,2128.7c0.3,0.7,0.4,1.2,0.6,1.6c-0.5,0.2-0.9,0.4-1.4,0.5c-0.1,0-0.5-0.7-0.5-0.8
		C2439.3,2129.6,2439.7,2129.3,2440.3,2128.7"/>
	<path class="st5" d="M1893.4,2301.4c0,0.3,0,0.7-0.1,0.8c-0.1,0.1-0.1-0.1-0.2-0.1c0-0.4,0-0.9,0.1-1.1
		C1893.2,2300.9,1893.3,2301.3,1893.4,2301.4"/>
	<path class="st4" d="M1893.4,2301.4c0,0.3,0,0.7-0.1,0.8c-0.1,0.1-0.1-0.1-0.2-0.1c0-0.4,0-0.9,0.1-1.1
		C1893.2,2300.9,1893.3,2301.3,1893.4,2301.4z"/>
	<path class="st5" d="M1273.4,453.5c0-1.3,0-2.4,0-3.7c1.4,0.1,2.2,0.8,2.2,2.3C1275.7,453.4,1274.8,453.9,1273.4,453.5"/>
	<path class="st4" d="M1273.4,453.5c0-1.3,0-2.4,0-3.7c1.4,0.1,2.2,0.8,2.2,2.3C1275.7,453.4,1274.8,453.9,1273.4,453.5z"/>
	<path class="st5" d="M1807.1,960.9c13.8,25.3,42.8,34.8,69.3,40.6c39.8,8.8,79.7,9,120.2,7.5c46-1.7,92-3.5,138-4.9
		c18.1-0.5,36.2-0.4,53.3-7c20-7.7,35.7-23.8,57.6-26.8c5.9-0.8,5.6-10.2-0.3-9.3c-15.2,2.1-27.2,8.9-40.2,16.7
		c-17.8,10.5-34.6,15.9-55.3,16.7c-41.6,1.7-83.3,2.8-125,4.3c-43,1.5-86.3,4.7-129-2.8c-29.1-5.1-65.4-11.7-80.8-39.9
		C1812.2,950.6,1804.2,955.6,1807.1,960.9"/>
	<path class="st5" d="M1972.2,858.2c-84.2,2.7-169.6-2.3-251.4,21.5c-40.7,11.8-77.3,28.5-114.9,47.4
		c-29.5,14.8-57.9,19.9-76.6,49.3c-6.3,10-12,17.8-21.3,25.1c-5.4,4.2-10.4,7.7-14.6,13.3c-6.3,8.3-9.2,15.5-17.9,22.9
		c-8,6.8-17.5,12-26.1,18c-31.1,21.6-49.8,50.9-68.5,83.1c-20.9,35.9-34.3,75.2-55.3,111c-19.9,33.9-31.7,64.7-34.4,104.2
		c-2.8,41-8.7,82-13.6,122.9c-2.3,19.2-2.4,37.9-3.2,57.2c-1,24.2-9,46.2-12.4,69.9c-2.6,17.7-0.7,36-0.8,53.8
		c-0.1,21.2-0.7,42.4,1.8,63.5c4.2,36.2,18.9,69,36,100.8c17.9,33.2,36.8,61.8,64.9,87.3c14.8,13.5,30.1,26.5,43.6,41.5
		c14.3,16,26.2,34.1,40.7,50c12.2,13.3,26.6,24.3,40,36.4c16.8,15.2,30.1,33.2,44,50.9c11.1,14.2,19.3,29.7,29.4,44.5
		c11.2,16.3,28.7,26.6,38.6,44c8.7,15.4,13.3,32.1,23.3,46.9c9.3,13.6,20.1,26.4,31.9,37.8c24.3,23.5,50.2,31.7,82.4,39.9
		c39.5,10,79.4,18.3,120.3,16.2c20.1-1,40.2-3.5,60.4-3.7c22.2-0.2,44.3,3.1,66.4,4.4c44.1,2.5,89.1-2.3,133.2-3.6
		c38.9-1.1,77.8-0.3,116.7-1.1c72.6-1.5,152.5-7.9,215.7-47.5c53.1-33.3,82.6-93.3,113.4-145.6c7.7-13.1,16.1-25.7,24.2-38.5
		c10.9-17.3,16.1-37.2,25.4-55.3c8.7-17.1,15.8-34.8,24-52.1c9.4-19.8,24.2-37,32.7-57c6.4-15.1,7.4-30.5,16.2-45
		c10.5-17.4,21.9-33.9,31.2-52.1c17.9-35,31.1-72.2,43.5-109.4c13.1-38.9,25.8-76.8,29.8-117.9c3.9-40.6,1.4-81.1,1-121.7
		c-0.5-41.6,0.6-79.6-15.9-118.6c-6.6-15.6-11.6-33.1-19.9-47.8c-8.1-14.5-22.3-24.2-30.8-38.4c-18.8-31.4-26.5-70.7-52.2-98.1
		c-11.1-11.8-26.2-18.6-39.4-27.5c-19.4-13.1-37.3-28.4-56.1-42.2c-13.6-10-27.3-20.1-38.6-32.9c-15.7-17.8-22.1-38.5-31.4-59.7
		c-13.5-30.7-42.7-53.7-68.5-73.9c-27.4-21.5-56.7-45.1-87.2-61.9c-11.7-6.4-23.6-8.6-36.8-9c-26.4-0.8-51.8-4.3-77.9-7.8
		c-40.8-5.5-82-1.8-123-0.2c-6,0.2-5.7,9.6,0.3,9.3c43.9-1.7,87.4-5.2,131.1,1.6c18.4,2.9,36.8,5.4,55.4,6.1
		c21.2,0.9,37.1,1.7,55.2,13.6c31.3,20.7,62.5,42.8,91.3,67c13.3,11.2,26.4,23.1,37.6,36.3c13.5,16,18.1,35.6,26.7,54.1
		c13.4,28.8,37.4,47.7,62.2,66.2c15.5,11.5,30.4,23.7,46,35c14.4,10.4,32,18.1,44.6,30.7c26.5,26.4,34.3,66.7,52.8,98.3
		c7.5,12.8,19.6,21.5,27.8,33.6c10.7,15.7,17.1,38.5,24.3,56.2c16.2,39.9,12.1,81.5,13.3,123.6c1.1,40.2,2.6,80.5-2.7,120.5
		c-5.1,39-18.7,75.7-31.3,112.7c-13.1,38.5-27.4,76.8-47.3,112.3c-8.2,14.6-18.4,28-26.5,42.6c-8.1,14.6-8.4,30.9-15.9,45.5
		c-8.5,16.6-20.2,31.4-28.4,48.2c-9.3,19.2-17.6,38.9-27.1,58.1c-7.5,15.2-11.8,32-20.3,46.7c-7.8,13.5-17.1,26.2-25.1,39.5
		c-15.9,26.8-30.8,54.2-48.4,79.9c-18.4,27-40.3,52.6-68.8,69.3c-32.9,19.3-71.2,29.9-108.7,35.9c-73,11.6-147.3,6.6-220.9,8.9
		c-42.1,1.4-85,5.8-127.1,3.4c-19.8-1.1-39.5-4-59.3-4.4c-20.3-0.3-40.5,2-60.7,3.2c-40.3,2.5-78.9-4.4-118-13.9
		c-17.9-4.4-37.9-7.9-54.4-16.3c-15.5-7.8-28.6-20.4-40.2-33.1c-10.8-11.8-21.2-24.8-28.6-39c-8-15.2-12.1-31.9-23.2-45.4
		c-11.7-14.3-26-24.3-35.8-40.4c-10-16.3-20.4-31.4-32.2-46.5c-10.5-13.4-20.8-26.9-33.2-38.7c-13.1-12.4-27.8-23.1-40.3-36.1
		c-26.7-27.5-47.3-58.8-76.1-84.7c-56.4-50.8-105.2-124.8-111.2-202.6c-1.4-17.8-1-35.8-0.9-53.7c0.1-21.5-1.6-42.7,3-63.9
		c3.5-16.4,8.3-32.4,9.7-49.2c2-24.1,1.8-48,4.4-72.1c3.8-35.3,10-70.5,12.3-105.9c1.2-19.5,2.1-39.2,7.7-58.1
		c6.1-20.3,17.3-38.6,28-56.8c19.9-33.9,32.4-71.2,51.9-105.3c9.3-16.3,18.8-33.1,30.2-48.1c13.1-17.2,29.5-29.4,47.2-41.4
		c11.9-8.1,22.9-15.2,30.7-27.3c9.4-14.8,24-22.4,34.2-36.3c11-14.9,17.7-29,34.9-38c14.9-7.8,31.3-12.4,46.3-20
		c37.8-19.1,75.1-35.7,116-47.3c41.1-11.7,83.4-16.1,126-17.8c39.9-1.6,79.8-1.1,119.7-2.4C1978.6,867.4,1978.3,858.1,1972.2,858.2"
		/>
	<path class="st5" d="M2047.3,865c22.4-0.8,44.8-1.6,67.3-2.3c6-0.2,5.7-9.6-0.3-9.3c-22.4,0.8-44.8,1.6-67.3,2.3
		C2041,855.8,2041.3,865.2,2047.3,865"/>
	<path class="st5" d="M2041.3,987.7c-0.8-20.2-3.5-41.1-1.2-61.3c1.4-12.2,4.7-24.1,5.5-36.3c0.9-13.6,1.6-22.8,8.2-35.1
		c8.4-15.5,17.4-30.6,25.6-46.2c14.6-27.9,40.4-50.8,69.9-62.2c16.8-6.5,35.1-8.2,52.1-14.4c15.3-5.6,31.1-9.1,46.4-14.4
		c27.5-9.5,51.3-27.1,75.1-43.3c23.7-16.2,47.6-32.2,69.5-50.8c23.1-19.6,46.2-39.3,63.7-64.3c9.1-12.9,17.1-25.8,28.3-37
		c11.2-11.2,22.8-21.4,32.2-34.4c3.5-4.8-3.3-11.3-6.8-6.4c-9.3,13-20.9,23.1-32.2,34.4c-10.4,10.4-18.1,22-26.4,34
		c-20,29.1-47.1,52.6-74.4,74.6c-26.6,21.4-55.6,40.5-84.1,59.2c-29.8,19.5-61,27.7-94.1,39.5c-29.1,10.4-57.6,13.2-83.4,31.6
		c-25.4,18.2-38.4,40.5-53.2,67.1c-11.9,21.3-24.7,38.1-25.4,62.8c-0.5,15.8-5.2,31-6.3,46.7c-1.3,18.7,0.9,37.8,1.7,56.6
		C2032.2,994.1,2041.6,993.8,2041.3,987.7"/>
	<path class="st5" d="M2153.4,766.8c-0.8-19.8-2.9-39.8-2.3-59.6c0.5-16.9,3.2-48.2,22-55.2c13-4.8,15.7,1.1,21-13
		c6.4-17.1,7.9-35.6,14.3-52.7c-2.3,1-4.5,2-6.8,3c12.2,7,16.2,20.8,31.1,7.5c10.4-9.3,12-26.4,14.2-39.3c1.3-7.9,0.5-19.1,9-20.4
		c6.2-1,11.4,2.7,17.8-0.1c19.8-8.7,11.7-35.5,25.3-48.2c14.9-14,38.2-1.7,56-6.1c22.3-5.5,17.4-30.8,34-39
		c14.5-7.1,18.4,5.7,30.3,10.2c7.4,2.8,12.7-0.1,19.2-3.4c6.8-3.4,12.8-7.7,20.3-9.2c6.8-1.4,14.9,1.5,21.3-0.3
		c10.5-3,15-16.8,27.2-18.3c9.8-1.2,21.3,6.8,32.1,6.1c9.2-0.6,17.5-4.8,25.7-8.7c20-9.5,28.3-23.1,43.1-38.4
		c13.7-14.2,25-3.2,26.5,12.2c0.9,9.8-0.2,19.9-1.9,29.6c-3.6,20.8-17.2,37.4-21.4,57.6c-2.1,9.9,0.2,17.8,4,26.9
		c8.2,19.3,4.1,30.6-3.8,49.1c-0.8,1.9-1.9,5.4-3,7.2c-4.6,7.1-9.1,6.7-14.9,10.3c-6.3,4-11.2,8.3-13.5,15.9
		c-3.3,11.1,4.1,22.5,1.4,33.6c-3.6,14.8-23.3,22.9-34.4,31.3c-21.4,16.4-42.1,34.7-61.5,53.5c-10.8,10.5-20.1,22.7-32.1,32.1
		c-13.8,10.7-30.8,15.9-47.7,19.1c-33,6.4-67,4.8-100.4,4.8c-33.7,0-65.7,8.2-99.2,10.6c-13.2,0.9-28.5,5.4-41.5,2.2
		c-14.5-3.5-18.5-18.8-28.3-28.5c-4.3-4.2-10.7,2.6-6.4,6.8c13.8,13.5,15.7,29,37.6,31.4c21.4,2.3,47.9-2.3,69-5.9
		c29.8-5,57.9-7.5,88.1-7.3c27,0.1,54.2,0,80.9-4.8c23.6-4.2,44.5-12,62.1-28.6c19.5-18.3,37.7-37.6,57.8-55.4
		c11.9-10.5,24-20.9,37.1-29.9c8-5.5,17.3-10.2,22.9-18.4c4.2-6,5.9-12.8,5.7-20.1c-0.2-4.5-2.3-9.2-2-13.7
		c0.7-12.4,12.8-17,21.5-23.8c4.4-3.5,5.6-5.3,7.4-10.6c3.8-10.9,9.6-22.4,11.7-33.9c1.7-9.3,0.2-17.1-3.3-25.7
		c-7.2-17.5-6.2-29,2.1-45.8c11.5-23,26.3-65.5,9.9-89.8c-5.7-8.4-15.8-11.4-25.2-7.7c-8.4,3.3-13.9,11.4-19.2,18.2
		c-7.6,9.7-15,17.8-25.9,23.8c-13.2,7.2-26.3,13.4-41.5,10.3c-9.8-2-19.9-8.8-29.9-5.1c-8.7,3.2-11,13.4-19.1,16.8
		c-5.8,2.5-11.6,0.2-17.6,0.8c-5.2,0.5-8.2,2.1-13.2,4.6c-9.8,5-16.4,9.2-28.2,5.4c-3.1-1-7-4.3-10.2-5.8c-7.1-3.3-14-6.6-21.9-4
		c-8.2,2.7-12.4,9.6-15.4,17.3c-6.4,16.4-11.4,26.5-30.8,25.7c-17.5-0.7-35.5-4.8-49.3,9c-7.7,7.7-8.1,15.7-10.5,25.8
		c-2.7,11.3-6.4,19.3-18.7,19.5c-4.4,0-9.1-1.1-13.6-1.2c-1.5,0-3.3,1.1-4,2.5c-5.6,12-5.8,25.9-8.6,38.6c-1.5,6.8-3.6,19.6-11,22.6
		c-6.5,2.7-12.2-6.5-18.3-10c-2.9-1.6-5.7,0.3-6.8,3c-5.6,14.8-6.2,49.6-20.3,57.2c-9.1,4.9-15.8,2.4-22.7,11.9
		c-22.9,31.4-13.8,78.1-12.4,113.9C2144.3,773.1,2153.6,772.8,2153.4,766.8"/>
	<path class="st5" d="M1993,996.9c-1.2-38.1,12.1-72.6,13.7-110.2c1.3-31,9.3-63.6-3.2-93.7c-13.4-32.2-40.2-48.2-60.4-74.9
		c-18.6-24.7-35.1-51.2-55.9-74.2c-11.4-12.6-27.4-20-38.1-33.3c-2.8-3.5-7.8-7.6-10.2-11.1c-0.7-1-5.6-11.9-4.8-13.4
		c0.6-1.1,12.1-6.6,12.7-7c12.2-7.4,25.5-13.1,38.4-19.1c16.5-7.6,18.8,13.7,25.7,25.2c14.5,24.4,40.9,41.1,58.5,63.1
		c22.2,27.9,34.9,56.9,49,89.3c9.3,21.5,16.7,40.2,18.3,63.9c1.5,21.2,1.6,42.5,2.3,63.7c1.3,38.6,10.4,87.7-16.9,119.8
		c-3.9,4.6,2.9,11,6.8,6.4c20.4-24,21.9-55.2,20.8-85.2c-1.5-41.9,1.5-86.8-6.6-128c-3.7-18.9-12.6-34.8-19.6-52.6
		c-7-17.9-14-34.7-24-51.3c-8.4-13.9-18.6-28.4-29.7-40.4c-10.9-11.8-22.8-24.1-34.6-35.2c-14.7-13.8-19.3-27.9-28.1-45.2
		c-3.4-6.7-7.5-9.4-15-7.7c-6.3,1.4-10.8,6.2-16.2,9.2c-7.6,4.2-16.3,5.4-24,9.4c-6.6,3.4-12.6,8.2-19.1,11.8
		c-4.8,2.7-11.5,5.3-13.4,11.2c-2.6,7.8,3.7,12.4,9.1,16.7c7.1,5.7,11.9,11.4,18,17.9c8,8.3,18.3,13.6,26.8,21.2
		c29.6,26.3,46.7,64.6,72.6,94.2c14.3,16.3,31.2,26.1,42.1,45.8c12.6,22.8,16.2,53.3,12.6,79.4c-3.2,22.6-4.1,45.2-9.8,67.5
		c-5.8,22.8-8,43.6-7.2,67C1983.8,1003.3,1993.2,1002.9,1993,996.9"/>
</g>
<g>
	<defs>
		<rect id="SVGID_3_" x="369.7" y="2695.5" width="3314.4" height="534.8"/>
	</defs>
	<clipPath id="SVGID_4_">
		<use xlink:href="#SVGID_3_"  style="overflow:visible;"/>
	</clipPath>
	<path class="st6" d="M824.4,2870.4c0.3,0,0.5,0,0.8,0c0.3,6.2,0.3,12.6,1.3,18.7c0.4,2.4,3,5.7,5.1,6.1c2.2,0.5,6.4-1.1,7.5-3.1
		c6.4-11,15.3-20.7,18.6-33.6c4.3-16.9,0.4-25.6-15.5-32.7c-10.1-4.5-18.2,1.4-17.8,12.5C824.7,2849.1,824.4,2859.8,824.4,2870.4
		 M1147.8,2864.1c-0.5-11.4-4.4-20.2-13.7-26.9c-20-14.6-43.4-20.5-66.7-26.1c-10-2.4-16.5,4.1-16.6,15.5c-0.1,11,0.5,22.1,1.2,33.1
		c0.8,11.9,0.9,23.6-2.3,35.3c-1,3.5-2,7.4-1.6,10.9c2.1,16.7-2.6,33-3.3,49.5c-0.4,9.2,1.9,12.3,10.4,8.8
		c10.1-4.3,20.2-9.3,29.3-15.5c19.9-13.4,35.7-31.1,49.5-50.4C1141.3,2888.1,1147.2,2876.8,1147.8,2864.1 M950.8,2963.6
		c-1-21.1-1.9-42.2-2.9-63.2c-0.1-2.6-0.5-5.2-1.3-7.6c-2-5.9-6.8-8.4-12.2-5.1c-5,3-9.1,7.4-13.3,11.5c-2.4,2.3-4.3,5.1-6.2,7.8
		c-12.1,17-30,27.2-46.4,39.1c-6.4,4.7-14.5,7.2-21.8,10.7c-5,2.4-9.9,4.9-14.8,7.6c-8.1,4.4-12.8,10.7-12.7,20.4
		c0.1,4.8-0.9,9.6-2,14.3c-3.4,14.6-2.5,29.1-1.4,44c0.7,9,2.1,17.3,4.6,25.8c1.4,4.7,0.4,10.3-0.3,15.4c-2,13.4-4.9,26.7-6.4,40.2
		c-0.8,7.2,0.4,14.7,1.5,21.9c0.9,5.6-1,8.7-6.1,9.9c-15.4,3.7-30.9,7.4-46.3,10.9c-2.5,0.6-5.2,0.8-7.7,0.6
		c-8.9-0.7-15.4-5.8-17.2-14.4c-1.5-7.2-2.3-14.6-3.3-21.9c-0.7-5.1-1.2-10.3-1.7-15.4c-2.6-26.5-5.4-53-7.8-79.5
		c-1.1-12.5-1.3-25.1-2.2-37.6c-0.9-12.1-3.6-14.5-16-17c-2.9-0.6-6-1.3-8.3-3c-1.7-1.3-3.5-4.4-3.1-6.2c0.4-1.7,3.4-3.1,5.5-4
		c1.2-0.5,2.9,0.3,4.3,0.5c9,0.8,12.5-1.3,13-10.6c0.9-13.9,1.2-28,0.6-41.9c-0.8-21.4-2.5-42.8-4-64.3c-0.7-10-1.4-19.9-2.5-29.9
		c-1.2-10-6.2-14.6-16.3-16.6c-13.2-2.7-24.2-8.5-30.4-21.4c-2.3-4.9-1.9-8.4,2.6-11.4c1.2-0.8,2.4-1.9,3.7-2.4
		c14.9-5.7,29.8-10.7,46.3-8.9c9.8,1.1,19.9,0.4,29.8,0.6c5.9,0.1,11.8,0,17.7,0.6c28.3,3,56.7,5.8,84.9,9.5
		c19.4,2.6,38.6,6.8,57.9,9.8c4.5,0.7,9.7,0.7,13.9-0.9c23.4-9,47.6-13.5,72.7-13.3c16.6,0.2,33.3-0.6,49.9-0.1
		c19.2,0.6,38.6,0.9,57.6,3.4c16.7,2.2,32.9,7.2,49.1,12.8c22,7.7,39.4,21.3,57.4,34.8c2.4,1.8,4.7,3.7,7.3,5.1
		c4.8,2.5,7.9,1,8.8-4.3c0.6-3.3,0.7-6.7,0.4-10c-1.1-12.9-2.3-25.8-3.9-38.6c-1.3-10.6,1-14.2,11.4-16.3c1.5-0.3,2.9-0.5,4.4-0.5
		c21.3,0.3,42.9-1.8,63.7,5c7.3,2.4,15.1,3.7,22,6.9c3.5,1.6,7,5.8,8.1,9.5c3,10.6,2.5,21.5-3.9,31c-5.8,8.6-8.9,16.9-2.6,26.6
		c1.3,1.9,1.6,5.1,1.1,7.4c-1.8,8.3-4.2,16.5-6.5,24.6c-1.8,6.4-4.6,12.6-5.6,19.1c-3.3,20.4-5.7,41-8.9,61.5
		c-1.3,8.4-3.1,16.7-5.8,24.8c-4.3,13-6.3,26.4-3,39.4c4.3,16.8,2,33.2-0.6,49.5c-2.2,13.7-0.4,25.5,7.8,36.7
		c5.9,8.1,12.8,11.6,21.9,8c14.4-5.7,28.5-12.3,42.4-19c11.3-5.4,21.9-12.6,34.8-13.9c3.6-0.4,7.7-0.8,10.8,0.6
		c9.1,4.1,10.6,13.5,2.1,19.5c-11.7,8.2-24.2,15.9-37.3,21.4c-22.3,9.5-46.4,12.2-70.3,14.8c-12.4,1.3-25.1-0.3-37.6-1.3
		c-10.2-0.8-19.4-4.5-26.4-12.4c-1.5-1.6-3-3.4-4.9-4.4c-12.5-6.5-16-18.6-19.5-30.8c-5.4-18.8-5.3-38-4.3-57.3
		c0.8-15.5,2.5-31,3.4-46.5c1.7-27.7,3.1-55.4,4.6-83.1c0.1-1.8,0.2-3.8-0.4-5.5c-1.4-4.5-6.3-5.7-9.6-2.3c-0.8,0.8-1.5,1.7-1.9,2.7
		c-8.6,20.7-24.8,35.9-39,52.3c-9.3,10.7-20.2,20.9-32.3,28.3c-20.5,12.7-43.3,20.5-67.8,21.5c-6.3,0.3-12.5,1.3-18.8,1.6
		c-10,0.4-15.6,6.2-18.2,15.1c-1.3,4.5-1.8,9.4-2,14.2c-0.3,9.2-0.2,18.4-0.2,27.6c0,3.7,0.1,7.4,0.5,11.1
		c1.7,16.2,3.4,32.3,5.3,48.5c0.6,5.5,1.8,10.9,2.6,16.4c0.5,3.6,1.2,7.3,1,11c-0.4,5.7-4.3,9.4-9.8,10.5
		c-8.6,1.7-17.2,3.5-25.8,5.5c-11.4,2.6-22.2,0.4-32.2-4.9c-3-1.6-5.4-6.1-6.3-9.7c-1.9-7.9-3.1-16-4-24.1
		c-3.5-30.9-6.9-61.8-10.1-92.7c-1.9-18.4-3.5-36.8-5.2-55.2C949.7,2963.7,950.3,2963.6,950.8,2963.6"/>
	<path class="st6" d="M2357.3,3081.8c0,3.2-0.2,6.4,0,9.5c0.2,3.3,1,6.6,1,9.9c0,8.5-3.1,12-11.4,13.8c-7.9,1.7-15.8,4.2-23.8,5.3
		c-16.9,2.3-34.2-3.5-39.1-22.6c-2.8-10.7-4.7-21.7-5.8-32.8c-3.4-33.5-6.6-67-9.1-100.6c-2.5-32.8-4.4-65.7-5.8-98.6
		c-0.7-16.2,0.5-32.5,0.8-48.8c0.1-3.3-0.1-6.7-0.3-10c-0.5-8.4,0.9-11.5,8.4-14.8c4-1.8,8.4-3.4,12.7-3.7
		c22.4-1.5,44.4-0.4,64.8,10.5c0.7,0.3,1.3,1,1.9,1c13,1.6,13.9,10.6,13.9,21.1c0,20,1.5,39.9,1.1,59.9c-0.3,16.2-2.4,32.4-3.4,48.6
		c-0.3,4.5,0.6,9.1,1,15.5c3.6-2.3,5.8-3,6.9-4.6c10-13.7,20-27.4,29.7-41.3c4.8-7,9.4-14.2,13.2-21.8
		c10.1-20.3,26.6-35.5,41.4-51.9c4.4-4.9,11.9-7.2,18.3-9.9c6-2.5,10.8-5.6,14.4-11.4c5.9-9.7,12.6-12.2,23.5-9.9
		c2.2,0.5,4.4,1.8,6.4,1.6c12.4-1.3,20,8.1,29.3,13.4c7.4,4.3,6.7,12.1-0.8,18c-18.5,14.5-35.2,30.8-47.5,50.8
		c-22.4,36.4-39.8,75.3-51.3,116.5c-5.1,18.4-4.3,37.4-0.8,56.2c1.6,8.3,2.7,16.7,8.2,23.8c5.9,7.7,8.7,8.9,17.8,5.2
		c14.3-5.7,26.5-14.5,38.1-24.5c4.1-3.5,9-6.5,14-8.6c8.1-3.3,16.3-4.2,24.2,2c3.4,2.7,8,3.7,12,5.6c6.8,3.2,10.3,1.9,12-5.7
		c1.4-6.1,2.2-12.5,2.2-18.7c0.2-25.2,0.5-50.3-0.3-75.5c-0.8-27-2.4-54-4.2-81c-1.2-18.1-3.3-36.1-5.1-54.2
		c-0.2-1.8-0.4-3.7-0.3-5.5c0.3-11.8,0.8-23.6,1-35.4c0.2-12.8,2.7-16.4,15.5-16.2c20.1,0.3,39.7,4.3,58.2,12
		c5.6,2.3,10.2,7.4,14.6,11.7c1.9,1.9,3.1,5.3,3.2,8c0.2,23.7,0.2,47.4-0.2,71.1c-0.1,5.4-1.9,10.9-3,16.3c-0.6,2.9-2.2,5.8-2,8.6
		c0.2,3.4,0.8,7.6,2.9,9.9c3.2,3.5,6.8,0.5,9.7-1.8c8.7-6.9,18-13.2,25.7-21.1c18.3-18.8,35.8-38.4,53.4-57.7
		c3.5-3.8,6.1-8.3,9.4-12.3c3.1-3.7,7.2-5.1,12-4.2c11.5,2.2,23.1,4.4,34.6,6.9c2.8,0.6,5.4,2.4,7.9,4c8,5.4,9.2,11.1,3.2,18.5
		c-13.7,16.9-27.9,33.2-45.4,46.8c-12,9.4-24.2,19.2-32.4,33.1c-4.4,7.5-11.1,14.2-18.1,19.3c-18.7,13.6-31.6,32-44.4,50.6
		c-9.6,13.9-5.5,22.9,3.1,33.1c7.6,9.1,17.6,14.4,29.6,15.8c26.5,3.2,53.1,4.3,79.7,0.8c8.6-1.1,17-0.1,24.9,3.7
		c4.3,2,8.8,3.6,13.5,5.5c0.8,7.5-4.4,9.9-9.7,11.2c-5.3,1.3-11,1.7-16.5,2.4c-9.5,1.3-19,2.8-28.5,3.8c-4,0.4-8.1-0.4-12.1-0.6
		c-14-0.7-28.1-0.8-42.1-2.2c-14.3-1.4-28.6-4-42.9-6.1c-5.5-0.8-11.1-1.1-16.5-2c-5.3-0.8-8.7,1.5-10.6,6
		c-1.7,4.1-3.3,8.3-4.2,12.6c-2.9,14.1-5.6,28.3-8.2,42.4c-2.3,12.2-5.7,15.6-18,17.1c-5.5,0.7-11,1.4-16.6,1.4
		c-4.4,0-9-0.3-13.1-1.6c-8.9-2.8-11.6-7.1-11.1-16.6c0.4-8.9,1.4-17.7,1.7-26.6c0.2-7.4-0.2-7.7-5.6-14.4c-1.8,1.6-4.1,2.9-5.4,4.9
		c-5.9,8.9-14.4,14.9-23.6,19.8c-14,7.6-28.1,15.1-44.2,17.3c-3.3,0.4-6.6,1.1-9.9,1.2c-16.3,0.2-32.7,1.4-48.9-0.2
		c-14.9-1.5-29.9-5.2-44.1-9.9c-8.1-2.7-14.8-9.4-22.2-14.2c-3.2-2.1-6.5-4.1-9.8-6.2C2359.1,3080.6,2358.2,3081.2,2357.3,3081.8"/>
	<path class="st6" d="M3189.6,2967.8c5.5-5.5,5.9-11.4,6.4-17.3c2.6-33.2,4.7-66.4,8-99.6c2.5-24.6,6.5-49.1,9.9-73.7
		c0.6-4.4,1.6-8.7,2.6-13.1c4.4-19.2,6.2-20.4,25.3-19c6.3,0.4,12.7-0.4,18.8,0.7c4.8,0.9,9.9,3,13.7,6c4.5,3.6,8.2,8.5,11.3,13.5
		c1.5,2.4,2,6.6,1,9.2c-1.8,4.7-4.2,9.8-7.8,13.2c-5,4.8-7.4,10.6-10.6,16.3c-5.8,10.3-5.7,21.2-6.9,32.2
		c-2.2,20.2-4.3,40.4-6.5,60.6c-0.3,2.5-0.4,5.5-1.7,7.5c-4.8,7.1-5.7,14.3-2.3,22.1c-4.1,12.8,2,25.6,0.1,38.3
		c-2.1,14.8-3.3,29.2,0.3,44c1.3,5.3-0.4,11.7-2,17.3c-2.2,7.6-2.9,14.8-1.2,22.8c1.9,9.3,1.5,19,2,28.6c0.7,14.2,4.1,27.8,8.5,41.2
		c4.9,15.1,3,20.5-10.1,28.9c-5.6,3.6-11.5,6.7-17.5,9.6c-9.4,4.4-24-0.1-31.3-10.3c-4.3-5.9-7.2-12.8-10.4-19.4
		c-7.4-14.9-13.7-30.4-22-44.7c-13.5-23.3-28.2-45.9-42.5-68.8c-2-3.1-4-6.3-6.5-9c-4.1-4.5-7.9-3.4-9.6,2.6
		c-0.5,1.8-0.8,3.7-0.7,5.5c0.5,18.8,0.8,37.7,1.8,56.5c0.6,10.5-0.3,12.8-10.2,16.5c-10,3.7-19.9,7.7-29.9,11.4
		c-7.9,2.9-16.3,3.5-24.4,6.8c-6.9,2.9-16.6,2.8-23.8,0.4c-7.3-2.4-13.2-9.2-19.4-14.3c-1.6-1.3-2.8-3.7-3.1-5.7
		c-1.8-12.3-6.6-24.4-1.6-37.1c1.6-4,1.5-8.7,1.6-13.2c0.2-11.5,0.6-23,0.1-34.4c-0.3-6.9-1.9-13.9-3.4-20.7
		c-1.7-7.9-1.9-15.1,3.2-22.2c6.4-8.9,8.8-19,9.1-30.2c0.8-27,2.7-53.9,4.3-80.9c0.7-11.3,5.4-19.7,16.9-23.5c2.6-0.9,4.7-3.4,7.2-5
		c5.3-3.3,10.3-8.1,16-9.3c23.2-4.6,45.8-5.1,67.6,8.1c14.8,8.9,21.4,21.5,25.1,37.1c1.9,7.9,4.8,15.5,7.5,23.1
		c9.4,26.1,18.9,52.1,28.3,78.2C3182.3,2959.5,3184.2,2964.2,3189.6,2967.8"/>
	<path class="st6" d="M545.6,2873.7c-10.5,5.2-12.8,13.2-16.1,20.5c-7.1,15.8-12,32.3-17.6,48.7c-1.8,5.1-1.8,10.3,1.9,13.2
		c2.9,2.3,8.3,2.6,12.3,1.9c6.1-1,12-3.4,17.9-5.5c7.2-2.6,12-7.4,11.8-15.5c-0.2-7.3-0.7-14.7-1.6-21.9c-1.2-9.5-2.9-18.9-4.7-28.3
		C548.7,2882.6,547.1,2878.6,545.6,2873.7 M658.3,3221.1c-8,7.9-18.8,11.7-31.9,7.6c-4.4-1.4-7.2-3.3-8.3-7.7
		c-0.4-1.8-1.4-3.4-1.8-5.2c-4.9-21.2-9.9-42.4-14.5-63.7c-6.6-30.4-12.9-60.8-19.1-91.2c-4.1-19.8-7.7-39.8-11.7-59.6
		c-0.7-3.2-2-6.4-3.4-9.4c-2.6-5.6-7.7-8.1-13.6-6.5c-6.8,1.9-13.3,4.4-20.1,6.3c-8.5,2.3-17.1,4.4-25.7,6.3
		c-18.3,4.1-26.6,17.7-31.4,33.8c-7.6,25.2-15.8,50-30.4,72.2c-0.8,1.2-1.6,2.5-2.1,3.9c-3.2,10.2-6.5,20.3-9.5,30.5
		c-4.5,15-13.9,23.1-29.8,24.8c-7,0.7-13.9,1.4-20.9,2c-2.6,0.2-5.2,0.2-7.7-0.3c-6-1.3-7.6-3.5-6.1-9.4
		c3.8-14.7,7.5-29.4,12.1-43.8c7.2-22.5,15.3-44.8,22.9-67.1c2.7-8.1,5.5-16.1,7.7-24.3c2.9-11,1.5-14.2-7.9-20.4
		c-2.4-1.6-4.5-3.4-8.4-6.4c7.2-2.7,12.8-5.4,18.6-6.7c8.2-1.8,13.1-6.8,15.7-14.1c6.4-17.3,12.2-34.8,18.6-52.2
		c11.9-32.6,24-65.1,35.9-97.7c6.3-17.4,12.1-34.9,18.5-52.2c2.9-8,7.1-15.5,10-23.4c2.3-6.2,3.5-12.7,5.1-19.2
		c0.6-2.5,0.8-5.1,1.4-7.6c3.5-15,10.3-22.6,25.3-23.8c18.4-1.4,37.1-1.5,54.8,5.1c5.4,2,10.4,5.5,15,9.1c5.8,4.5,7.8,10.8,7.8,18.4
		c0.1,16.6,1.2,33.1,0,49.8c-1,13.1,2.7,26.4,3.6,39.7c0.6,8-0.3,16.2-0.4,24.3c-0.1,7.7-0.4,15.4,0,23.1
		c0.7,14.7,2.2,29.4,2.6,44.2c0.3,11.1,5.9,17.2,17.4,18.3c5.8,0.5,11.7,2,17.2,4c7.1,2.6,7.7,7.9,1.7,12.2c-3.3,2.3-7,4.1-10.7,5.8
		c-11.9,5.7-16.7,14.6-16,27.6c0.6,13.2,0.1,26.5,0.6,39.7c0.4,10.6,1.4,21.2,2.2,31.8c0.1,1.5,0.2,3,0.3,4.4
		c0.6,15.1,0.3,30.3,1.9,45.3c1.2,11.3,5,22.3,7.4,33.5c3.1,14.4,6.2,28.8,9.1,43.2c0.6,3.2,0.7,6.7,0.5,10
		C660,3197,659.2,3208.3,658.3,3221.1"/>
	<path class="st6" d="M2087.8,2910.1c0.3,0,0.6,0.1,0.9,0.1c0,2.6,0,5.2,0,7.8c0,3-0.3,5.9-0.1,8.9c0.6,10.7,5.5,13.5,14.1,7
		c9.9-7.6,20-15.5,28.1-24.9c7.1-8.2,13.7-17.4,15.3-29c0.9-6.6-0.7-12.2-6.9-14.8c-10.9-4.5-21.8-9-33.1-12.1
		c-7.6-2.1-11.1,0.9-12.2,8.7C2091.6,2877.8,2089.8,2894,2087.8,2910.1 M1951.3,2965.6c5.4-6.3,11.5-7.3,17.7-8.3
		c11.5-1.8,14.5-4.9,14.5-16.6c0-8.9-1-17.7-0.9-26.6c0-9.6,1-19.2,1-28.8c0.1-14.8,0.4-29.6-0.3-44.3c-0.5-10.3-4.9-13.2-15.8-10.8
		c-25.2,5.6-50.7,4.5-76.1,2.7c-4-0.3-8.1-1-11.9-2.4c-9.6-3.4-11.2-12.3-3.5-18.9c3.6-3.1,7.9-5.8,12.3-7.4
		c12.8-4.6,25.8-8.8,38.8-12.8c26.4-8,53.7-3.5,80.5-6.2c26.1-2.6,51.6,1.9,77.2,5.4c26.4,3.6,52.3,9.1,77.2,18.8
		c18.9,7.4,37.9,14.6,56.7,22.4c10.6,4.4,20.1,10.9,27.7,19.9c7.7,9.1,7.6,14.9,0.3,24.4c-6.1,7.9-11.9,16-17.4,24.3
		c-7.2,10.9-16.2,19.9-26,28.5c-28.5,25-63.9,32.9-99,41.8c-2.1,0.5-4.4,0.7-6.5,1.3c-11.1,3.4-15.2,8.5-15.2,20.3
		c0,13.3,0.9,26.6,1,39.9c0.1,7.8-0.7,15.5-1,23.3c-0.2,7.2-1,13.6-8.2,18.2c-5.3,3.4-4.7,10.5-3.1,15.4c4.3,13-0.8,25.6,0.1,38.4
		c0.5,7.3-4.5,12.2-12.1,11.3c-14.1-1.7-26.9,2.6-40.3,5.2c-16.3,3.2-27.3-5.4-29.2-22.2c-1.5-14-2.6-28-3.1-42.1
		c-1.1-28.8-1.8-57.7-2.5-86.5c-0.3-13-1.4-15-13.2-19.7c-3.4-1.4-7.1-2.1-10.5-3.5C1957.6,2968.8,1954.9,2967.3,1951.3,2965.6"/>
	<path class="st6" d="M1773.6,2768.9c-20.1,8.1-37.7,17.1-57.3,19.6c-11.3,1.5-22.9,0.6-34.3,1.2c-13.3,0.7-26.5,1.7-39.7,3
		c-15.5,1.4-30.9,2.9-46.3,5.1c-9.5,1.3-18.8,3.8-28.1,6.3c-8.5,2.3-13.1,8.4-12.7,17.3c0.6,14.2,0,28-5.3,41.5
		c-2.3,5.8,0.5,10.1,6.8,11.7c4.5,1.1,9.6,1.4,14.2,0.8c28-3.4,55.9-6.1,84.1-5.4c15.5,0.4,31.1,0,46.6,0.9c8.4,0.5,16.8,2.7,25,4.6
		c2.8,0.7,5.3,3,10.1,6c-4.9,2.3-7.2,4-9.7,4.6c-31,7-62.3,12.3-93.9,16c-24.2,2.8-48.2,7.3-72.2,11.5c-12.3,2.1-14.3,4.3-15.4,16.3
		c-0.9,9.9-0.8,19.9-1.1,29.9c-0.6,19.2-0.6,38.4-1.7,57.5c-0.9,15.5,0.1,30.2,8.9,43.6c5.1,7.7,9.1,16.1,14.5,23.6
		c5.1,7.1,8.4,7.1,14.3,1c3.8-4,7.4-8.4,10.1-13.2c6-10.6,11.9-21.3,16.8-32.5c5.8-13.3,15.1-23.6,25.5-33.1
		c1.9-1.7,6.6-2.4,8.9-1.3c10.6,5.1,16.6,20,14.9,32.1c-1.3,9-0.8,18.3-1.7,27.4c-0.5,5-0.9,10.6-3.4,14.8
		c-7.8,13.5-17.2,25.9-28.8,36.5c-6.6,6.1-14.3,9-23.1,9.6c-16.6,1.2-33.2,2.9-49.8,3.8c-28.1,1.5-48.2-11.1-60.7-36.2
		c-6-12-10.7-24.2-13.6-37.4c-3.1-14.1-8.5-27.6-11.2-41.8c-7.3-37.8-11.1-76.1-11.6-114.7c-0.3-24.4-1.4-48.8-2.3-73.2
		c-0.4-12.7-5.3-23.6-13.3-33.4c-7-8.6-6.5-10.9,1-18.6c3.2-3.3,6.1-7.5,7.6-11.8c2.2-6.5,6-9.9,12.7-10.3
		c18.8-1.2,37.6-2.8,56.2,1.7c15.7,3.8,31.3,3.6,47.3,0.7c13.8-2.5,27.9-3.3,41.9-4.4c26.2-2,52.3-4.7,78.5-5.2
		c23.2-0.4,46.8-0.5,68.8,9.1C1758.8,2757.6,1766.5,2760.8,1773.6,2768.9"/>
	<path class="st6" d="M3399,3015.9c-0.9-6.2-1.9-12.4-2.7-18.6c-1.8-13.5-8.2-25.2-13.6-37.4c-4.4-9.9-9.7-18.9-18.6-25.8
		c-8.1-6.3-10.3-6.4-14.5,2.9c-9.7,21.4-12.9,44-9.8,67.2c2.4,18.4,10,34.8,23.8,47.7c10,9.3,16.5,8.7,24.6-2.5
		C3395.4,3039.5,3399.2,3028.4,3399,3015.9 M3285.5,2993.8c0.5-35.9,12.6-67.9,29.9-98.8c15.6-27.8,33.3-54.2,54-78.2
		c10.7-12.4,21.8-25.1,36.4-33.7c5.7-3.4,10.7-3.9,16.7-1.2c6,2.6,12.4,4.6,18.6,6.7c8.8,2.9,12.6,9.4,9.3,18.1
		c-1.8,4.7-5.3,8.8-8.2,12.9c-1,1.5-2.7,2.6-4.3,3.5c-22.5,11.5-35.5,32.9-52.4,50.2c-2,2-3.8,6.8-2.8,8.6c1.5,2.6,5.8,5.1,8.8,4.9
		c12.9-0.8,25.8-2.4,38.6-4.2c32.3-4.5,64.6-8.3,97.2-8.7c18.8-0.3,37.7-1.1,56.4,0.1c24.3,1.6,48.5,4.8,72.7,8
		c9.7,1.3,18.3,5.7,24.5,14c6.2,8.3,3.3,18-6.4,21.3c-2.4,0.8-5,1.2-7.6,1.5c-1.8,0.2-3.8-0.2-5.5,0.2c-20.3,5.1-40.4-1.8-60.7-1.1
		c-17.7,0.6-35.4-0.6-53.1,0.2c-31.4,1.4-62.9,1.3-93.9,7.5c-6.1,1.2-12.4,1.9-18.5,3.1c-8.8,1.7-10.8,5.8-7.4,14
		c5.5,13.7,11.4,27.3,16.2,41.3c5.9,17.1,5.1,34.8,3.3,52.7c-1.3,12.8-5.3,23.8-14.5,32.6c-18.7,17.8-41.2,27.8-67.1,27.3
		c-8.5-0.2-17.1-4.2-25.2-7.6c-18.6-7.9-31.4-22.2-39.7-40.1c-5.5-12-9.6-24.7-13.5-37.4C3285.6,3005.9,3286,2999.7,3285.5,2993.8"
		/>
	<path class="st6" d="M2927.1,2839.3c-0.6,23.7-2.1,47.3-1.5,71c0.7,28.1,3.3,56.1,4.8,84.2c0.4,7,0.5,14.1-0.1,21
		c-1.8,20.9,3.1,41.3,5.1,61.8c0.4,3.7,1.7,7.8,0.4,10.9c-4.6,11.3-4.8,22.9-4.4,34.7c0.2,6-2.8,10.5-9.3,12.1
		c-2.5,0.6-4.9,1.7-7.1,3.1c-10,6.4-19.1,3.4-27.9-2.5c-4.8-3.2-5.8-8.2-6.5-13.5c-3.6-27.1-7.7-54.2-10.9-81.3
		c-4.6-39.7-8.8-79.4-12.8-119.1c-0.8-7.7,0.1-15.5,0.1-23.3c0-11.4-0.4-22.9,0-34.3c0.8-19.6,1.2-39.3,3.7-58.6
		c2.5-19.7,8-18.4,23.4-15.6c12.3,2.2,24.8,6.7,35.1,15.5c5.2,4.5,8.2,9.3,8.3,16.1c0,5.9,0,11.8,0,17.8
		C2927.4,2839.3,2927.3,2839.3,2927.1,2839.3"/>
</g>
</svg>
