<?xml version="1.0" encoding="utf-8"?>
<!-- Generator: Adobe Illustrator 21.1.0, SVG Export Plug-In . SVG Version: 6.00 Build 0)  -->
<svg version="1.1" id="Layer_1" xmlns="http://www.w3.org/2000/svg" xmlns:xlink="http://www.w3.org/1999/xlink" x="0px" y="0px"
	 viewBox="0 0 4000 3733.1" style="enable-background:new 0 0 4000 3733.1;" xml:space="preserve">
<style type="text/css">
	.st0{fill:#EE6E66;}
	.st1{fill:#D6DE23;}
	.st2{fill:#009345;}
	.st3{fill:#D09566;}
	.st4{fill:#231F20;}
</style>
<title>applepicking</title>
<rect class="st0" width="4000" height="3733.1"/>
<path class="st1" d="M3691.7,1464.9c-10.5-93.5-38.2-184.2-87.6-264.9c-45.9-74.9-108-142.2-170.6-203.4
	c-65.4-63.9-141.2-113.1-231.1-133.9c-84.7-19.6-181.3-26.6-268.1-19.8c-44.2,3.4-80.6,17.4-122.5,28.2c-11.5,2.9-23.3,4.8-35.2,5.7
	c-11.1,0.1-22.2,0-33.3,0.5c-14,0.6-28,1.5-41.8,3c-4.5,0.3-9,0.8-13.4,1.3c-102.5,12.2-191.7,36.6-271.7,104.8
	c-70.9,60.5-140.1,137-189,216.4c-57.3,93-63,200.5-61.2,306.7c0.1,3.9,0.3,7.7,0.8,11.6c0,0.3-0.1,0.6-0.1,0.8
	c-20.1,79.2-37.4,166.3-31.4,246.3c7.4,98.4,87.8,167.9,148.2,238.8c98.3,115.5,192.2,241.9,337.4,289.8c10.7,6,22.5,8.7,34.4,11.3
	c8.4,1.8,17,2.6,25.5,3.8c7.8,1.1,15.5,2,23.3,3c4.8,0.6,9.6,1.5,14.5,1.8c4.4,0.3,8.8,0.5,13.2,0.6c70,5.5,139.8,0.9,210.3,1
	c76.8,0.1,153.6,14.6,230.4,9.5c86.8-5.7,172.1-33.4,230.9-100.8c52.7-60.4,77.7-136.6,122.9-201.8c28.4-41,54.5-80.2,70-128.3
	c6.3-19.6,10.6-39.8,14.1-60.3C3674.9,1724.8,3706.3,1595.4,3691.7,1464.9z"/>
<path class="st2" d="M3545.8,388.5c-10.9-43.8-65.2-43-88.2-11.5c-22.7,31-55.2,48.9-91,55.1c-0.5-1-1.4-1.6-2.4-1.8
	c-1,1-2,1.9-3.1,2.7c-13.1,1.8-26.3,2.1-39.5,1c-14.2-1.2-28.4,7-37.5,18c-2.3-0.5-3.7,0.8-5,2.2c-2.3,2.4-4.1,5.4-6.7,7.3
	c-2.1,1.5-4,3.4-5.5,5.6c-18.7,7.2-50,8.4-63.3,14.5c-27.5,12.7-45.2,33.5-62.7,57.5c-21.7,29.7-42.1,60.4-62.5,91
	c-14.2,21.4-30.5,42.3-37.8,66.1c-17.5,21.5-27,47.6-8.9,74.2c31.1,45.6,110,21.2,154.9,17.3c52.3-4.7,110.9-1.3,156.3-30.7
	c41.4-26.8,86.7-58.1,119.1-95.6c35.8-41.4,44.8-82.7,51.3-135.4C3519.5,475.1,3559.4,443.5,3545.8,388.5z"/>
<path class="st3" d="M2909.7,720c-18.2-41.6-45.6-74.6-74.3-109.2c-26.2-31.6-40.2-50.4-77.2-42.7c-30.9-18.5-70.4,23.4-40.5,49
	c50.5,43.2,109.2,96.3,141.6,155.4c12.1,22,10.8,53.4,15.7,78.7c8.5,43.2,7.2,81.5-6.6,123.6c-13.3,40.3,46.6,54.2,62.1,17.1
	C2967.3,903.2,2946.9,805.1,2909.7,720z"/>
<path class="st4" d="M3679.7,1479.8c-0.5-41.6,0.6-79.6-15.9-118.6c-6.6-15.6-11.6-33.1-19.9-47.8c-8.1-14.5-22.3-24.2-30.8-38.4
	c-18.8-31.4-26.5-70.7-52.2-98.1c-11.1-11.8-26.2-18.6-39.4-27.5c-19.4-13.1-37.3-28.4-56.1-42.2c-13.6-10-27.3-20.1-38.6-32.9
	c-15.7-17.8-22.1-38.5-31.4-59.7c-13.5-30.7-42.7-53.7-68.5-73.9c-27.4-21.5-56.7-45.1-87.2-61.9c-11.7-6.4-23.6-8.6-36.8-9
	c-26.4-0.8-51.8-4.3-77.9-7.8c-40.8-5.5-82-1.8-123-0.2h-0.1c-20.2,0.7-40.3,1.4-60.6,2.1c0.1-0.2,0.2-0.3,0.2-0.5
	c8.4-15.5,17.4-30.6,25.6-46.2c11.7-21.9,29.2-40.2,50.7-52.8l0,0c13.8,13.5,15.7,29,37.6,31.4c21.4,2.3,47.9-2.3,69-5.9
	c29.1-5,58.6-7.5,88.1-7.3c27,0.1,54.2,0,80.9-4.8c23.6-4.2,44.5-12,62.1-28.6c19.5-18.3,37.7-37.6,57.8-55.4
	c11.9-10.5,24-20.9,37.1-29.9c8-5.5,17.3-10.2,22.9-18.4c4.1-5.9,6.1-13,5.7-20.1c-0.2-4.5-2.3-9.2-2-13.7
	c0.7-12.4,12.8-17,21.5-23.8c4.4-3.5,5.6-5.3,7.4-10.6c3.8-10.9,9.6-22.4,11.7-33.9c1.7-9.3,0.2-17.1-3.3-25.7
	c-7.2-17.5-6.2-29,2.1-45.8c11.5-23,26.3-65.5,9.9-89.8c-5.5-8.3-16-11.5-25.2-7.7c-8.4,3.3-13.9,11.4-19.2,18.2
	c-7.6,9.7-15,17.8-25.9,23.8c-13.2,7.2-26.3,13.4-41.5,10.3c-9.8-2-19.9-8.8-29.9-5.1c-8.7,3.2-11,13.4-19.1,16.8
	c-5.8,2.5-11.6,0.2-17.6,0.8c-5.2,0.5-8.2,2.1-13.2,4.6c-9.8,5-16.4,9.2-28.2,5.4c-3.1-1-7-4.3-10.2-5.8c-7.1-3.3-14-6.6-21.9-4
	c-8.2,2.7-12.4,9.6-15.4,17.3c-6.4,16.4-11.4,26.5-30.8,25.7c-17.5-0.7-35.5-4.8-49.3,9c-7.7,7.7-8.1,15.7-10.5,25.8
	c-2.7,11.3-6.4,19.3-18.7,19.5c-4.4,0-9.1-1.1-13.6-1.2c-1.7,0.1-3.2,1-4,2.5c-5.6,12-5.8,25.9-8.6,38.6c-1.5,6.8-3.6,19.6-11,22.6
	c-6.5,2.7-12.2-6.5-18.3-10c-2.9-1.6-5.7,0.3-6.8,3c-5.6,14.8-6.2,49.6-20.3,57.2c-9.1,4.9-15.8,2.4-22.7,11.9
	c-17.6,24.1-16.3,57.3-14.1,87.7c-9.7,3.6-18.9,8.4-27.4,14.3c-25.4,18.2-38.4,40.5-53.2,67.1c-4.5,8-9.1,15.3-13.1,22.7
	c-0.4-22.5-1.6-45-5.8-66.5c-3.7-18.9-12.6-34.8-19.6-52.6s-14-34.7-24-51.3c-8.4-13.9-18.6-28.4-29.7-40.4
	c-10.9-11.8-22.8-24.1-34.6-35.2c-14.7-13.8-19.3-27.9-28.1-45.2c-3.4-6.7-7.5-9.4-15-7.7c-6.3,1.4-10.8,6.2-16.2,9.2
	c-7.6,4.2-16.3,5.4-24,9.4c-6.6,3.4-12.6,8.2-19.1,11.8c-4.8,2.7-11.5,5.3-13.4,11.2c-2.6,7.8,3.7,12.4,9.1,16.7
	c7.1,5.7,11.9,11.4,18,17.9c8,8.3,18.3,13.6,26.8,21.2c29.6,26.3,46.7,64.6,72.6,94.2c14.3,16.3,31.2,26.1,42.1,45.8
	c12.6,22.8,16.2,53.3,12.6,79.4c-3.2,22.6-4.1,45.2-9.8,67.5c-5.7,21.9-8.1,44.4-7.2,67c0,1.2,0.5,2.3,1.3,3.1
	c-29.8,1-59.6,0.9-89.2-4.3c-29.1-5.1-65.4-11.7-80.8-39.9c-2.7-5.4-10.7-0.4-7.8,4.9c13.8,25.3,42.8,34.8,69.3,40.6
	c39.8,8.8,79.7,9,120.2,7.5c46-1.7,92-3.5,138-4.9c18.1-0.5,36.2-0.4,53.3-7c20-7.7,35.7-23.8,57.6-26.8c5.9-0.8,5.6-10.2-0.3-9.3
	c-15.2,2.1-27.2,8.9-40.2,16.7c-17.8,10.5-34.6,15.9-55.3,16.7c-41.6,1.7-83.3,2.8-125,4.3c-10.9,0.4-21.8,0.9-32.7,1.3
	c0.7-0.9,1.1-2,1-3.1c-1.2-38.1,12.1-72.6,13.7-110.2c1.3-31,9.3-63.6-3.2-93.7c-13.4-32.2-40.2-48.2-60.4-74.9
	c-18.6-24.7-35.1-51.2-55.9-74.2c-11.4-12.6-27.4-20-38.1-33.3c-2.8-3.5-7.8-7.6-10.2-11.1c-0.7-1-5.6-11.9-4.8-13.4
	c0.6-1.1,12.1-6.6,12.7-7c12.2-7.4,25.5-13.1,38.4-19.1c16.5-7.6,18.8,13.7,25.7,25.2c14.5,24.4,40.9,41.1,58.5,63.1
	c22.2,27.9,34.9,56.9,49,89.3c9.3,21.5,16.7,40.2,18.3,63.9c1.5,21.2,1.6,42.5,2.3,63.7c0,0.9,0.1,1.8,0.1,2.7
	c-1.5,5.5-2.4,11.2-2.5,16.9c-0.5,15.8-5.2,31-6.3,46.7c-0.9,13.2-0.1,26.7,0.8,40c-2.5,4.8-5.5,9.4-9,13.5c-3.9,4.6,2.9,11,6.8,6.4
	c1.1-1.3,2.1-2.6,3.1-3.9v0.6c0.2,6,9.6,5.7,9.3-0.4c-0.2-4.8-0.5-9.7-0.8-14.6c9.4-20.5,10-44,9.2-66.9
	c-0.5-13.2-0.5-26.7-0.6-40.3c0.1-0.3,0.2-0.7,0.3-1c21.7-0.8,43.4-1.5,65.1-2.2h0.1c43.8-1.7,87.3-5.2,130.9,1.6
	c18.4,2.9,36.8,5.4,55.4,6.1c21.2,0.9,37.1,1.7,55.2,13.6c31.3,20.7,62.5,42.8,91.3,67c13.3,11.2,26.4,23.1,37.6,36.3
	c13.5,16,18.1,35.6,26.7,54.1c13.4,28.8,37.4,47.7,62.2,66.2c15.5,11.5,30.4,23.7,46,35c14.4,10.4,32,18.1,44.6,30.7
	c26.5,26.4,34.3,66.7,52.8,98.3c7.5,12.8,19.6,21.5,27.8,33.6c10.7,15.7,17.1,38.5,24.3,56.2c16.2,39.9,12.1,81.5,13.3,123.6
	c1.1,40.2,2.6,80.5-2.7,120.5c-5.1,39-18.7,75.7-31.3,112.7c-13.1,38.5-27.4,76.8-47.3,112.3c-8.2,14.6-18.4,28-26.5,42.6
	s-8.4,30.9-15.9,45.5c-8.5,16.6-20.2,31.4-28.4,48.2c-9.3,19.2-17.6,38.9-27.1,58.1c-7.5,15.2-11.8,32-20.3,46.7
	c-7.8,13.5-17.1,26.2-25.1,39.5c-15.9,26.8-30.8,54.2-48.4,79.9c-18.4,27-40.3,52.6-68.8,69.3c-32.9,19.3-71.2,29.9-108.7,35.9
	c-73,11.6-147.3,6.6-220.9,8.9c-42.1,1.4-85,5.8-127.1,3.4c-19.8-1.1-39.5-4-59.3-4.4c-20.3-0.3-40.5,2-60.7,3.2
	c-40.3,2.5-78.9-4.4-118-13.9c-17.9-4.4-37.9-7.9-54.4-16.3c-15.5-7.8-28.6-20.4-40.2-33.1c-10.8-11.8-21.2-24.8-28.6-39
	c-8-15.2-12.1-31.9-23.2-45.4c-11.7-14.3-26-24.3-35.8-40.4c-9.8-16.1-20.6-31.6-32.2-46.5c-10.5-13.4-20.8-26.9-33.2-38.7
	c-13.1-12.4-27.8-23.1-40.3-36.1c-26.7-27.5-47.3-58.8-76.1-84.7c-56.4-50.8-105.2-124.8-111.2-202.6c-1.4-17.8-1-35.8-0.9-53.7
	c0.1-21.5-1.6-42.7,3-63.9c3.5-16.4,8.3-32.4,9.7-49.2c2-24.1,1.8-48,4.4-72.1c3.8-35.3,10-70.5,12.3-105.9
	c1.2-19.5,2.1-39.2,7.7-58.1c6.1-20.3,17.3-38.6,28-56.8c19.9-33.9,32.4-71.2,51.9-105.3c9.3-16.3,18.8-33.1,30.2-48.1
	c13.1-17.2,29.5-29.4,47.2-41.4c11.9-8.1,22.9-15.2,30.7-27.3c9.4-14.8,24-22.4,34.2-36.3c11-14.9,17.7-29,34.9-38
	c14.9-7.8,31.3-12.4,46.3-20c37.8-19.1,75.1-35.7,116-47.3c41.1-11.7,83.4-16.1,126-17.8c39.9-1.6,79.8-1.1,119.7-2.4
	c6.2,0.4,5.9-8.9-0.2-8.8c-84.2,2.7-169.6-2.3-251.4,21.5c-40.7,11.8-77.3,28.5-114.9,47.4c-29.5,14.8-57.9,19.9-76.6,49.3
	c-6.3,10-12,17.8-21.3,25.1c-5.4,4.2-10.4,7.7-14.6,13.3c-6.3,8.3-9.2,15.5-17.9,22.9c-8,6.8-17.5,12-26.1,18
	c-31.1,21.6-49.8,50.9-68.5,83.1c-20.9,35.9-34.3,75.2-55.3,111c-19.9,33.9-31.7,64.7-34.4,104.2c-2.8,41-8.7,82-13.6,122.9
	c-2.3,19.2-2.4,37.9-3.2,57.2c-1,24.2-9,46.2-12.4,69.9c-2.6,17.7-0.7,36-0.8,53.8c-0.1,21.2-0.7,42.4,1.8,63.5
	c4.2,36.2,18.9,69,36,100.8c17.9,33.2,36.8,61.8,64.9,87.3c14.8,13.5,30.1,26.5,43.6,41.5c14.3,16,26.2,34.1,40.7,50
	c12.2,13.3,26.6,24.3,40,36.4c16.8,15.2,30.1,33.2,44,50.9c11.1,14.2,19.3,29.7,29.4,44.5c11.2,16.3,28.7,26.6,38.6,44
	c8.7,15.4,13.3,32.1,23.3,46.9c9.3,13.6,20,26.3,31.9,37.8c24.3,23.5,50.2,31.7,82.4,39.9c39.5,10,79.4,18.3,120.3,16.2
	c20.1-1,40.2-3.5,60.4-3.7c22.2-0.2,44.3,3.1,66.4,4.4c44.1,2.5,89.1-2.3,133.2-3.6c38.9-1.1,77.8-0.3,116.7-1.1
	c72.6-1.5,152.5-7.9,215.7-47.5c53.1-33.3,82.6-93.3,113.4-145.6c7.7-13.1,16.1-25.7,24.2-38.5c10.9-17.3,16.1-37.2,25.4-55.3
	c8.7-17.1,15.8-34.8,24-52.1c9.4-19.8,24.2-37,32.7-57c6.4-15.1,7.4-30.5,16.2-45c10.5-17.4,21.9-33.9,31.2-52.1
	c17.9-35,31.1-72.2,43.5-109.4c13.1-38.9,25.8-76.8,29.8-117.9C3682.6,1560.9,3680.1,1520.4,3679.7,1479.8z M3038.9,715.6
	c0.5-16.9,3.2-48.2,22-55.2c13-4.8,15.7,1.1,21-13c5.6-15,7.5-31.2,12.2-46.5c8.9,7.1,13.6,15.7,26.4,4.3
	c10.4-9.3,12-26.4,14.2-39.3c1.3-7.9,0.5-19.1,9-20.4c6.2-1,11.4,2.7,17.8-0.1c19.8-8.7,11.7-35.5,25.3-48.2
	c14.9-14,38.2-1.7,56-6.1c22.3-5.5,17.4-30.8,34-39c14.5-7.1,18.4,5.7,30.3,10.2c7.4,2.8,12.7-0.1,19.2-3.4
	c6.8-3.4,12.8-7.7,20.3-9.2c6.8-1.4,14.9,1.5,21.3-0.3c10.5-3,15-16.8,27.2-18.3c9.8-1.2,21.3,6.8,32.1,6.1
	c9.2-0.6,17.5-4.8,25.7-8.7c20-9.5,28.3-23.1,43.1-38.4c13.7-14.2,25-3.2,26.5,12.2c0.9,9.8-0.2,19.9-1.9,29.6
	c-3.6,20.8-17.2,37.4-21.4,57.6c-2.1,9.9,0.2,17.8,4,26.9c8.2,19.3,4.1,30.6-3.8,49.1c-0.8,1.9-1.9,5.4-3,7.2
	c-4.6,7.1-9.1,6.7-14.9,10.3c-6.3,4-11.2,8.3-13.5,15.9c-3.3,11.1,4.1,22.5,1.4,33.6c-3.6,14.8-23.3,22.9-34.4,31.3
	c-21.5,16.6-42,34.5-61.5,53.5c-10.8,10.5-20.1,22.7-32.1,32.1c-13.8,10.7-30.8,15.9-47.7,19.1c-33,6.4-67,4.8-100.4,4.8
	c-33.7,0-65.7,8.2-99.2,10.6c-13.2,0.9-28.5,5.4-41.5,2.2c-4.9-1.2-9.2-3.9-12.5-7.8c0.8-0.9,1.2-2,1.1-3.2
	c-0.3-7.1-0.7-14.2-1.2-21.3c16-5.6,33.1-7.5,49.2-13.3c15.3-5.6,31.1-9.1,46.4-14.4c27.5-9.5,51.3-27.1,75.1-43.3
	s47.6-32.2,69.5-50.8c23.1-19.6,46.2-39.3,63.7-64.3c9.1-12.9,17.1-25.8,28.3-37s22.8-21.4,32.2-34.4c3.5-4.8-3.3-11.3-6.8-6.4
	c-9.3,13-20.9,23.1-32.2,34.4c-10.4,10.4-18.1,22-26.4,34c-20,29.1-47.1,52.6-74.4,74.6c-26.6,21.4-55.6,40.5-84.1,59.2
	c-29.8,19.5-61,27.7-94.1,39.5c-15.9,5.7-31.6,9.1-46.9,14C3039,735.7,3038.6,725.7,3038.9,715.6z M3031,757.6
	c0.2,3.2,0.4,6.3,0.6,9.3c-1.6-2.5-3.4-4.9-5.4-7.1C3027.8,759,3029.4,758.3,3031,757.6L3031,757.6z M2927,955
	c-0.1-6.7,0.2-13.5,0.9-20.2c0.4-3.1,0.8-6.2,1.4-9.4C2929.4,935.4,2928.6,945.3,2927,955L2927,955z"/>
<path d="M881.2,2348.4c14-15.5,25.1-30.7,39-42.8c21.2-18.4,45.8-30.4,74.6-34.6c16.1-2.4,30.4,0.5,45.3,3.9
	c10.7,2.4,18,10.3,25.5,17.6c2,1.9,2.9,5,4.9,6.9c9.6,9.4,18.1,19.3,19.2,33.6c0.1,1.4,1.3,3.4,2.5,4.1c15.3,8.3,7.5,22.6,10.7,34.8
	c-3.5,0.2-5.4,0.3-7.5,0.4c-0.2,1.1-0.4,2.3-0.6,3.5c-3.7,19.9-7.3,39.8-15,58.7c-0.9,2.2-2.1,4.3-3.3,6.4
	c-6.2,9.7-13.6,18.9-18.4,29.3c-4.1,9-10.4,15.3-17,22c-4.3,4.4-5.8,11.4-9,16.9c-1.8,3.1-4.1,7.5-6.8,8
	c-9.3,1.5-13.3,8.4-18.4,14.6c-6.2,7.4-13.9,13.7-19.3,21.6c-11.9,17.7-27.4,32-44,44.5c-9.7,7.3-18.2,15.2-26.7,23.6
	c-3,3-7,5.1-11,8c5.1,6.4,12.1,5.8,18.1,6.8c11.5,1.9,23.1,3.1,34.7,3.9c25,1.8,50,4,75.1,4.6c17.2,0.4,35,0.6,51.7-3
	c18-3.9,36-7.8,54.1-11.3c2.3-0.4,4.5-1.4,7.9-2.4c-0.9-8.2-1.7-16.2-2.8-24.1c-2-14-5.2-27.9-6.3-41.9c-2.6-35.2-5-70.4-6.2-105.6
	c-0.7-19,1.5-38.1,1.7-57.1c0.4-31.5,0.3-63.1,0.4-94.7c0-3.2,0.1-6.5,0.2-9.7c0.2-8.6,1.6-16.4,12.8-16.5c0.7,0,1.6-0.5,2.1-1.1
	c8.5-9.5,18.9-6.8,29.3-4.7c7.6,1.6,13.4,4.6,14.8,13.5c1.3,8.6,10.2,11.6,14.9,17.8c1.1,1.5,4.2,2.5,4.2,3.8
	c0.4,9.2,2.9,19.6-0.5,27.3c-2.6,6-3.7,11.7-4.5,17.7c-0.9,7.2-1.7,14.5-1.6,21.8c0.1,5.1,0.8,10.5,2.7,15.2
	c2.3,5.9,4.5,10.8-0.2,16.7c-1.2,1.5,0,7.1,1.7,8.1c4.8,3,3.6,6.7,3.1,10.7c-2.1,18.5-0.7,36.9,0.7,55.3c0.9,12.1,4.1,23.5,6.5,35.3
	c2.8,13.8,2.5,28.2,4.4,42.2c1.3,10.4,3.9,20.6,5.9,30.8c0.6,2.8,2.1,5.7,1.8,8.3c-1.5,10.8,4,19.7,8.4,28.6
	c4.9,10.1,11.6,19.4,18.1,29.8c8-7.2,11.2-16,14.4-24.5c9.9-26.6,16.8-54.1,23.5-81.6c5.5-22.4,11.5-44.7,17.3-67
	c3.8-14.5,7.7-28.9,11.4-43.3c4.9-19.1,10.3-38.1,14.3-57.4c4.5-22.2,7.6-44.7,11.5-67c3.1-17.5,3.4-35.6,10.7-53
	c3.3,0.3,6.8,0.9,10.2,0.8c2.7-0.1,6.1-0.5,7.8-2.1c2.5-2.6,3.9-6.7,8.5-5.1c5.2,1.8,11.6,0.9,15.1,6.6c1.3,2,4.2,3.5,4.5,5.5
	c1,6.2,5.1,7.7,11.1,7.6c0,3.8-0.9,7.2,0.3,9.8c0.9,2.2,4.2,3.4,6.9,5.3c-0.9,9.4-1.7,19.2-2.6,28.9c0.8,0.2,1.6,0.5,2.5,0.7
	c1.5-2.4,3.1-4.8,4.7-7.3c0.6,0.9,1.5,1.6,1.4,2.1c-1.3,5.4-3.2,10.7-4,16.2c-1.1,7.4-1.3,15-2,22.5c-0.3,3.1-0.4,6.5-1.7,9.3
	c-3.7,7.7-7.5,14.3-2.5,23.7c2.8,5.3,0.4,13.3,0.7,20.1c0.1,3.2,0.9,6.4,1.7,9.4c1.6,5.8,5.2,11.5,5,17.1c-0.5,10.7,4,21.3-0.2,32
	c-0.6,1.6,0.5,3.9,0.9,5.8c1,5.1,2.4,10.2,3.1,15.4c1,7.1,1.1,14.3,8.9,18.3c1.6,0.8,2.2,4.1,2.8,6.4c3.5,14.6,7.3,29.1,10.1,43.8
	c1.2,6.3,0.2,13,0.2,21.2c6.5,3.3,9.1,11.1,10.9,19.4c0.1,0.4,0.1,0.8,0.3,1.2c6.3,12.1,8.6,25.2,6.7,38.4
	c-1.6,11.2,2.4,19.7,9.3,27.7c1.2,1.5,1.9,3.4,3.2,5.6c-5.8,5-14.2,7.8-12.4,15.5c-5.8,4.3-10.2,8-15,11.1c-2.6,1.6-5.9,3.1-8.8,3
	c-10.6-0.4-21.1,1.1-31.6,1.7c-3.8,0.2-9.2-2.3-11.3-5.3c-6.7-9.5-13.8-19.3-18-30.1c-8.8-22.6-16-45.8-23.7-68.8
	c-2-6-3.1-12.2-6-18.3c-6.5,19.2-12.9,38.1-13.1,58.8c2.2,1.7,4.6,3.1,6.6,5.1c4.1,4,5.8,8.6,3,14.2c-5.4,10.9-10,22.1-19.3,30.7
	c-8,7.4-15,15.8-23.4,22.7c-5.1,4.2-12,6.2-18,9.4c-3.2,1.7-6.3,3.5-9.3,5.5c-4,2.5-7.5,6.4-11.9,7.6c-13.5,3.8-26.7,9.5-41.4,6.4
	c-5.1-1.1-10.5-1-15.8-1c-11.4,0.1-20.1-5.1-27.5-13.4c-13.2-14.7-22.8-31.2-27.5-50.6c-1.9-7.9-5.7-15.4-9.4-25
	c-6.9,9.4-12.6,16.5-17.5,24.1c-2.2,3.4-4.5,5.1-8.4,5.9c-7.4,1.5-14.7,3.6-22.9,5.6c2.5,1.5,3.7,2.3,6.4,3.9
	c-4.6,1.8-8.1,3.9-11.8,4.6c-12.2,2.3-24.6,4.1-36.9,6.3c-2.4,0.4-4.6,1.4-7,2.1c-7.8,2.4-15.4,4.8-23.8,2.6
	c-2.6-0.7-5.6,0.2-8.4,0.5c-3.2,0.4-6.5,1.7-9.6,1.3c-20.1-2.3-40,3.4-60,1.8c-8-0.7-16.1-0.9-24.2-1.7c-6.3-0.6-9,2-11.3,8.1
	c-3.5,9.3-9.1,17.9-13.9,26.7c-0.6,1-1.5,2.6-2.4,2.6c-9.5,0.5-13.4,8.7-18.3,14.5c-9.6,11.4-22.8,15.3-36.1,17.1
	c-6.3,0.9-14,0.6-20.4-0.9c-3.8-0.9-7.4-7.1-9.2-11.7c-8.3-21.7-13.3-44.2-14.5-67.4c-0.4-8.4-2.7-15.8-7.9-22.5
	c-2.1-2.7-3.5-6.5-3.8-9.9c-0.7-7.2-0.8-14.6-0.4-21.8c0.2-3.3,1.3-8,3.6-9.5c5.5-3.5,5.6-8.2,5.8-13.6c1.6-36.4,2.4-72.9,5.3-109.2
	c1.9-24.1,6.9-48,10.4-72c0.7-5.1,1.1-10.2,1.8-17.4c-8.7,1.2-15.9,1.5-22.7,3.3c-28.8,7.9-57.4,16.6-86.3,24.4
	c-14.8,4-30,6.3-45.1,9.6c-7.5,1.6-14.9,3.9-22.3,5.5c-19.7,4.4-39.5,8.5-59.2,12.9c-3.5,0.8-6.7,2.6-10.4,4
	c-1.4,23.9-4.7,47.6,1.8,71.2c11.9,6.4,12,6.4,9,19.4c-1.4-3.4-2.8-6.8-4.3-10.3c-4.7,5.7-4.7,5.7,0.4,27.3c2.8-0.6,5.7-1.1,9.7-1.9
	c-0.8,3.1-0.8,5.9-1.9,6.6c-6.6,3.7-6.2,9.6-6.1,15.7c0,5.8,1,10.8,5.1,15.6c2,2.4,1.2,7.2,1.7,11.9c1.8,1,4.6,2.5,7.5,4.1
	c2.6,10.4,0.5,21.7,8.1,31.2c2.6,3.3,0.4,10.4,0.4,16.4c3.2-1.1,5.2-1.8,9.4-3.2c-2.7,21.1-4.5,40.7-7.9,60.1
	c-1.2,6.9-5.8,13.2-9.4,19.5c-0.9,1.6-4.8,3.2-5.9,2.5c-5.2-3.2-8.2-0.2-11.7,2.8c-2.1,1.8-4.7,4.1-7.1,4.2c-8.9,0.1-13.8,6-19,11.6
	c-4,4.3-6.9,10-15,6.3c-2.3-1.1-7,3.1-10.6,4.8c-2.5,1.2-5.4,3.9-7.3,3.3c-7.5-2.4-14.9-2.3-22.6-1.2c-5.1,0.7-8.2-2.3-9.8-7.3
	c-4.7-15-11-29.7-13.9-45.1c-4.8-25.8-9-52-10.8-78.2c-2.7-39.1-7.4-78.2-5.5-117.6c0.6-13.2-1.2-26.5-1.9-40.4
	c-3.7-0.3-6.5-1-9.1-0.6c-6.4,1-12.8,2.2-19,4c-23.5,6.7-47.6,8.9-71.8,11.2c-8.5,0.8-16.6,2.1-25.1,0c-9.1-2.2-15.1-7.6-17.9-16.4
	c-1.2-3.8-2-7.9-2.7-11.9c-1.5-9.8-0.1-16.8,10.7-22.2c17.2-8.5,34.5-14.3,53.6-16.5c16.3-1.9,32.4-6.4,48.5-9.9
	c8.7-1.9,17.6-3.3,26-6.2c11.7-4,13.4-8.8,9.7-20.5c-3.9-11.9-6.8-24.2-11.4-35.9c-6.7-16.8-14.6-33.1-21.7-49.8
	c-2.8-6.6-6-13.5-7.1-20.5c-3.2-20.7,8.8-34.6,23.7-45.7c8-5.9,17.8-10,27.4-12.7c25.3-7.2,51.2-12.2,77.6-14.4
	c33.9-2.8,67.8-6.7,101.8-7.9c30.7-1,61.6,0.3,92.4,2.2c25.5,1.6,50.8,5.3,76.1,8.4c24.2,2.9,45.2,13.9,65.6,26.3
	c2,1.2,4.1,2.9,5.3,4.8c3.7,5.7,7,11.7,10.8,18.1c-2.3,1.8-4.9,3.5-7.1,5.7c-3.8,3.9-5.1,9.9-12,11.1c-10.1,1.8-19.7,3.3-29.6-1.3
	c-5.4-2.5-11.5-3.6-17.5-4.7c-25.4-4.7-51-8.6-76.9-9.1c-24.3-0.5-48.6-1.7-72.9-1.9c-12.5-0.1-25,1.1-37.5,1.6
	c-10.9,0.5-21.7,1-32.6,1.4c-7.7,0.3-15.5-0.4-23.1,0.6c-7.5,1-14.8,3.6-22.6,5.7c-0.3,4.2-0.6,8.2-0.9,12.9
	c2.1,0.1,3.9,0.2,6.9,0.4c0,30.8,0,61.7,0,93.2c11.6,3.2,22.8-1.3,34-3.7c3.6-0.8,6.9-2.8,10.5-3c33-2.3,64.1-13.5,95.9-20.8
	c30.8-7.1,61.1-16.1,91.8-23.3c16.9-4,34.2-6.8,51.5-8.6C863.4,2345.2,873.2,2347.7,881.2,2348.4z M906,2551.6
	c17-9.3,28.9-22.1,39.5-34.7c16.5-19.7,32-40.4,44.1-63.5c14.4-27.5,27.3-55.1,31.3-86.2c1.2-9.3,0-17.6-4.9-25.6
	c-6.4-10.3-17.9-15.2-29.1-10.5c-11.1,4.6-21.6,10.8-32.3,16.3c-0.7,0.4-1.5,0.9-1.9,1.5c-8,11.9-19.2,21.7-21.7,37
	c-1,6-4.7,10.6-9.5,15c-5.5,5-9.1,12.1-13.5,18.3c2.6,14-4.1,26.6-6.3,39.9c-2.1,12.7-2.2,25.1-0.8,37.9c1.4-3.5,2.7-7,4.1-10.5
	c0.8,0.2,1.7,0.3,2.5,0.5C902.7,2508,903.3,2529,906,2551.6z M638.1,2947.2c7.9-4.2,16.1-8.6,24.4-12.8c2.1-1.1,4.6-1.8,6.9-2.2
	c13.6-2.2,27.3-2.4,40.9,0.4c3.3,0.7,6,3.8,9,5.7c4,2.6,8.1,5,12.2,7.5c0.8-0.5,1.6-1.1,2.4-1.6c3.4,16.5,6.8,33,10.4,49.4
	c0.7,3.1,1.6,6.3,3.1,9.1c2.2,4.3,3,8.1,0.2,12.6c-3.1,5.1-1.4,10,1.1,15c3.3,6.8,6.1,13.9,8.5,19.6c0.3-2.4,0.7-6.5,1.1-10.7
	c0.8-0.1,1.5-0.3,2.3-0.4c0.8,4.3,1.9,8.6,2.3,12.9c1,11.7,1.3,23.5,2.5,35.2c2.6,24.2,5.8,48.3,8.3,72.5
	c1.7,16.1,2.6,32.3,3.9,48.4c1.9,22.6,3.8,45.1,5.7,67.6c0.7,8.8,1.3,17.7,1.8,26.5c0.2,3.9,0.1,3.9-7.5,7.8c0,5.5-0.1,11.2,0,16.8
	c0.1,5.3,0.6,10.1-4.4,14.3c-2.2,1.9-2.7,6.6-2.9,10.1c-0.4,9.7-0.1,19.4-0.1,29.1c-9.3,3.1-19,3.4-22.6,13.5
	c-8.5,2-12.6,10.1-19.7,14.1c-1,0.6-2.6,1.4-3.2,1c-7.7-4.8-8.4,2.6-10.9,6.5c-3.2-0.6-5.9-1.6-8.6-1.6
	c-13.9-0.1-21.7-7.4-24.5-20.5c-1.2-5.5-2.4-11.1-2.7-16.8c-1.4-26.3-2.1-52.7-4-78.9c-1.5-21.4-4.6-42.6-6.5-64
	c-3.2-35.5-6-71-9.2-106.5c-1.7-19-4-37.9-6.2-56.8c-0.4-3.8-1.6-7.5-2.9-13c-2.9,2.7-4.8,3.7-5.5,5.3c-3.5,7-6.6,14.2-10,21.2
	c-0.8,1.7-2.4,3.4-4.1,4.3c-14.9,7.5-25.4,19.1-33.4,33.5c-1.4,2.5-4.3,4.4-6.9,6c-5.6,3.7-11.6,7-17.2,10.8
	c-3.8,2.6-5.8,7.9-12.1,6.1c-0.9-0.3-3,3.7-4.5,5.8c-2,2.8-3.4,6.6-6.2,8.4c-11.8,7.7-23.4,16.2-36.2,21.9
	c-14.6,6.6-27.9,15.8-43.6,20.5c-12.3,3.7-23.6,10.4-35.3,15.9c-5.3,2.5-5.8,7.3-5.6,12.4c0.4,12.1,1,24.2,1.2,36.3
	c0.3,20.9,0.3,41.8,0.5,62.7c0,0.4-0.2,0.9,0,1.2c8,17.8-2.6,37.5,5.7,55.5c1.4,3.1-1.5,8.1-2.5,13c-3.7-1-6.3-1.6-9.6-2.5
	c-2.8,8.8-11,10.4-18.5,12.9c-9.5,3.1-17.9,7.3-22.6,17.7c-6.7-2.1-13-1.9-18.5,3.4c-1.6,1.5-5.6,1.7-8.1,1
	c-7.8-2-15.7-4.2-23.1-7.4c-3.2-1.4-6.3-5.2-7.4-8.6c-4.2-13.1-8.6-26.2-11-39.7c-4.3-24.7-7.2-49.6-10.5-74.5
	c-2-15.6-3.7-31.3-5.2-47c-0.4-4.6-1.9-7.3-6.7-8.7c-10-3.1-9.9-3.3-17.3-10.2c-1.4-10.5-2.6-20.2-3.9-30.1
	c15.4-7.1,22.3-21.1,22.8-37.5c0.7-24.2-0.8-48.4-1.1-72.6c-0.6-48.2,3.2-96.2,8.5-144.1c1.4-12.3,2.4-24.7,3.7-38.1
	c-12.7,0.3-24.1-0.9-35.2,4.5c-13.1,6.4-26.3,12.5-39.9,17.8c-19.6,7.7-39.7,13.9-60.9,15.4c-7.5,0.5-14.4,4.5-22.5,1.1
	c-12-5.1-16.7-15.6-10.7-27c4-7.5,7.5-15.3,11.8-22.6c2-3.3,4.9-6.6,8.3-8.3c12.5-6.6,25.1-13,38.1-18.6c14.4-6.2,29.4-11.1,44-16.9
	c25.7-10.1,53.1-10.2,79.8-13.6c10.3-1.3,21,0.3,31.5,0.8c28.4,1.4,56.4,5.1,83.5,14.2c5.3,1.8,11,2.4,16.4,3.7
	c13.3,3.2,26.5,6.4,39.7,9.9c10.5,2.9,21.2,5.6,31.3,9.6c24.8,9.9,49,21,72.1,34.4c7,4.1,14.7,7,21.2,11.6
	C622.6,2933.5,630.2,2940.6,638.1,2947.2z M426.7,3162.2c22-11.8,42-19.1,58.6-33.2c22.2-18.7,46.6-34.5,65.5-57.4
	c12.9-15.6,22.5-32.4,30.4-50.6c2.2-5,1.6-9.5-2.8-13.1c-6.6-5.3-12.8-11.3-20-15.7c-14.4-8.8-29.1-17.5-44.3-24.9
	c-19.6-9.6-39.7-18.1-59.8-26.5c-8-3.3-16.6-5.1-26.4-8.1c-0.7,7.6-1.4,13.5-1.8,19.4c-0.9,16.6-1.4,33.2-2.5,49.7
	c-1.1,15-2.4,29.8,0.2,44.8c1.4,8.3,1.4,16.9,1.3,25.4c-0.1,14.6-1.2,29.1-1,43.6C424.2,3130.2,425.6,3144.6,426.7,3162.2z
	 M779.6,3300.8c0.7-1.7,1.5-2.7,1.4-3.6c-0.1-0.5-1.5-0.9-2.4-1.3c-0.3,0.6-1,1.4-0.9,1.9C777.9,3298.7,778.7,3299.4,779.6,3300.8z
	 M1253.3,3404.8c1.2,0.6,3.9-0.9,5.5-1.9c9.8-6,19.5-12.2,29.2-18.4c1.3-0.8,3.1-1.7,3.6-3c4.9-12.6,11.9-24.3,13-38.4
	c0.8-11.1,3.8-22.1,6.1-35.2c-5.5-4.2-4.4-11.4-2.6-19.4c1.4-6.1,0.6-12.8,1.2-19.1c0.7-7.9,1.9-15.8,2.9-24.1
	c6.9,0,12.9-0.2,18.9,0c17.3,0.8,34.6,2.4,51.9,2.5c29.2,0.1,58.3-0.8,87.5-1.1c8.1-0.1,16.2-0.5,24.2,0.4
	c16.4,1.8,32.1-3.1,48.2-3.9c1.9-0.1,3.7-1.4,5.6-2.2c5.3-2.4,10.6-4.8,15.8-7.1c1.1,2.2,1.8,2.9,1.8,3.6c1,28.8,1.5,57.7-3.5,86.1
	c-2.1,12.1,0.2,23.3,0.8,34.8c0.3,6.7,3.6,9.6,9.5,7.8c7.2-2.2,12.6,0.2,18.5,3.7c9.8-7.5,20.6-8.8,33.3-5.1
	c-0.2-9.2,6.7-10.7,12.7-14.3c14.5-8.6,28.1-18.9,31-37.5c0.1-0.6,0.9-1.2,1.4-1.7c1.7,0.6,3.4,1.1,5,1.6c9-28.1,6.9-56.3,7.1-84.2
	c0.2-31.5-1.7-63-2.1-94.5c-0.4-30.8-0.1-61.6-0.3-92.5c-0.1-10.8-1.1-21.6-1.8-34.7c-2.7,5.3-4.2,8.3-7.1,13.9
	c-1.1-12.4-1.9-21.7-2.7-31c0.5-0.4,1.1-0.7,1.6-1.1c2.7,3.5,5.3,7,8.2,10.9c0-10.7,0-20.7,0-30.8c-0.9,0-1.8-0.1-2.7-0.1
	c-0.3,5.2-0.7,10.4-1.1,16.9c-2.3-1.7-4.3-2.5-4.4-3.5c-1-6.9-1.6-13.9-2.5-22.9c0.7,0.5-0.7-0.3-1.8-1.4
	c-3.8-4.1-4.4-11.8-12.7-10.9c-0.8,0.1-1.8-1.5-2.7-2.3c-9.4-9.7-20.8-14.7-34.4-14.9c-6.1-0.1-12.4,0.3-18.2-1.2
	c-8.7-2.2-15.4,4-23.4,4c-1.1,0-2.8,1.9-3.2,3.3c-3.5,12.3-9.7,24.5-8.1,37.4c1.8,14.8,3.6,29.5,3.3,44.5
	c-0.5,29.1,0.1,58.1,0.2,87.2c0.1,23.9,0.3,47.8,0.3,71.6c0,2.6-0.9,5.2-1.4,7.8c-2,0.2-3.4,0.6-4.4,0.3c-9.8-3.1-18.8-9.7-30-7.1
	c-1,0.2-2.2-1.1-3.4-1.1c-5.2-0.2-10.4-0.6-15.4,0c-3.5,0.5-6.7,3.5-10.2,3.8c-18.5,1.4-37,3.2-55.6,3.3
	c-23.4,0.1-46.9-1.6-70.3-2.1c-20.8-0.5-41.4-3.7-59.8-12.8c-18.3-9-30.2-26.9-10.6-44c18.3-15.9,36.8-31.5,56-46.3
	c22.7-17.5,46.2-34.1,69.5-50.9c22.2-16,44.5-31.9,66.8-47.7c7.8-5.6,16.4-10.1,23.8-16.3c10.5-8.8,20.2-18.5,30.1-27.8
	c-2.6-10.5-5.2-20.7-8-31.7c-18-10.3-36.1-3.6-53.7,5c-6.8,3.3-13.1,7.9-19.4,12.1c-18.7,12.5-37.3,25.3-56,37.7
	c-8.9,5.9-18.1,11.5-27.2,17.1c-11.3,7-23,13.4-34.1,20.8c-20.7,13.8-41.1,28.1-61.7,42.1c-1.8,1.2-4.2,1.6-7.8,2.9
	c-1.8-12.4-3.9-23.8-5.2-35.2c-1.4-12.3-1.4-24.8-7.4-36.3c-1-1.9-1-5-0.3-7.1c2.4-6.8,1-12.7-3.2-18.3c-1.1-1.5-1.5-3.7-1.8-5.7
	c-1-9.3-1.6-18.6-2.9-27.8c-2.3-15.8-10.9-29.4-19-42.2c-5.8-9.1-17.9-14.5-31-8.3c-5.3,2.5-11.6,2.8-18.5,4.3
	c-5,7.2-5.8,16.7-5.4,25.7c0.9,22.6,2.9,45.2,4.8,67.8c3.9,46,8.1,92,12.1,138c0.8,9,1.1,17.9-6.4,24.8c-7.7,7.1-10.9,15.9-8.9,26.4
	c0.4,1.9,0.3,4,0,6c-2.7,22,3,40.7,20.8,54.8c6.1,4.9,9.2,10.8,9.7,18.7c1.7,27.1,4.4,54.1,5.4,81.2c0.7,17.7,1,35.9-2.2,53.2
	c-2.3,12.3,0.1,24.1-1.2,36c-0.3,2.4,2,5.1,3.4,8.5C1235.9,3406.2,1244.2,3400.3,1253.3,3404.8z M1917.9,2996.9
	c14.2,23.5,26.9,48,40.2,72.1c18.8,34,37.2,68.3,56.5,102.1c13.4,23.5,27.6,46.6,42.2,69.4c12.7,19.7,26.7,38.7,40.1,57.9
	c5.5,8,10.6,16.3,16.9,23.6c2.8,3.3,8.1,4.5,12.2,6.7c4-5.6,8.4-1,12.7-0.7c6.4,0.4,12.8,0.7,19.2,0.3c3-0.2,6.5-1.2,8.8-3.1
	c9.3-7.7,17.9-16.2,30.8-17.8c1.9-0.2,3.9-1.2,5.6-2.1c5-2.7,9.1-10.3,7.3-15.2c-2.2-6-5.2-11.8-8.2-17.5c-3.4-6.4-8.3-12.2-10.5-19
	c-3.1-9.3-6.9-18.3-4.6-29.3c2.1-10.3,2.9-22.1-7.5-29.4c1.7-3.7,4.1-6.5,4.1-9.4c-0.3-14.9-1.3-29.8-2.1-44.6
	c-0.1-1.2-1.1-2.3-1.2-3.4c-0.5-8-2.1-16.2-0.7-23.8c0.7-3.7,1.2-6.5,0-10c-5.5-15.6-4.2-32-5-48c-0.2-4.7,0.6-8.7-2-13.6
	c-2.4-4.4-6.9-10.8,0.5-16.4c1.3-1-1.5-6.5-0.7-9.5c0.8-3.6,4-6.7,5-10.3c0.5-1.8-0.8-5.3-2.3-6.4c-7.5-5.3-5.8-11.6-3.2-18.4
	c1-2.6,1.3-5.5,1.5-8.3c0.5-9.2,0.8-18.3,1-27.5c0.1-6.6-0.7-13.3,0.1-19.9c1-8.4,2.7-16.7,4.9-24.9c1.7-6.3,0-9.9-5.7-12.7
	c-1.8-0.9-3.2-3.2-4.1-5.1c-2.1-4.4-3.1-9.4-5.9-13.3c-3.6-5.1-8.2-12.8-12.7-13c-8-0.4-17.4-3.7-25.1,3.7
	c-4.5,4.4-10.4,7.9-16.2,10.4c-5.1,2.1-8,5.3-9.2,10.3c-2,8.7-4.5,17.3-5.5,26.1c-1.6,13.7-2.5,27.4-3.1,41.2
	c-1.2,27.4-2.4,54.9-2.7,82.3c-0.2,19.8,1.1,39.6,1.6,59.4c0.1,3.8-0.6,7.5-1.1,13.6c-7.5-6.3-10.3-12.5-12.9-18.7
	c-4.3-10.3-7.2-21.5-12.8-31c-4.5-7.7-11.1-14-13.2-23.3c-0.5-2.1-5.4-3.2-8.5-4.9c0-4.2,0-8.5,0-12.9c-5-1.8-9.5-3.4-14.2-5.1
	c0.7-13.8-6.7-24.7-14.7-32.8c-8.1-8.3-13.9-17.4-19.2-27.1c-4-7.3-5.9-15.8-10.7-22.5c-7.9-11-17.1-21-32.1-23
	c-4.6-0.6-10.4-2.1-13.1-5.3c-6.8-8.2-15.8-9.9-24.9-10.5c-18.1-1.3-36.3-2.2-54.3,2.4c-12.9,3.3-23.7,9.7-33.9,17.5
	c-1.9,1.4-4.3,3.2-4.8,5.3c-3.1,12.5-13.6,20-20,30.1c-5,7.9-12.1,11-20.5,10.2c-13.1-1.2-24.9,0.9-36.9,6.7
	c-6.2,3-9.3,5.3-8.6,12.1c0.2,2.3,0.1,5.2-1,7.1c-4.8,8-2.3,16,0.1,23.5c7,21.7,10.6,44,14.3,66.4c4.1,24.4,8.4,48.7,12.7,73
	c4.3,23.9,8.8,47.8,13,71.7c1.5,8.8,2.2,17.7,3.8,26.5c7.4,40.6,15.2,81.1,22.5,121.7c2.6,14.3,7.1,17.2,20.3,11.1
	c3.2,1.9,6.6,4,10,6.1c5.7-3.3,11.1-6.3,16.9-9.6c2.1,1.9,4.2,3.9,6.5,5.9c1.2-2.3,2-4.2,3.1-5.8c8.8-12.1,25.2-7.1,35.7-15.8
	c1.5-1.2,4.5-0.5,6.8-0.6c1.1,0,2.3,0.1,3.3,0.2c6.7-11,8.3-22.2,7.5-34.9c-1.4-20.9-9.3-40.8-8.5-61.9c0-0.4-0.2-0.8-0.3-1.2
	c-6.2-18.5-8.6-37.8-11.2-57c-1.8-13.2-2.3-26.8-5.8-39.6c-4.1-14.9-7.9-29.6-9.7-45c-2.1-17.2-6.5-34.1-9.3-51.2
	c-3.4-20.4-6.1-40.9-9.2-61.3c-1.3-8.3-0.5-16.2,4.6-23.2c6-8.5,12.2-16.9,19.4-26.7C1897.2,2964.2,1908,2980.4,1917.9,2996.9z
	 M2438.6,3095.4c-2.1,5.5,1.3,7.8,4,10.9c9.3,10.6,18.2,21.5,27.2,32.3c2.6,3.1,5.4,5.9,7.9,9c4.7,5.9,9.3,11.8,13.7,18
	c8.1,11.6,4.8,24.9,4.5,37.1c4.2,3.1,7.7,5.8,11.2,8.4c13,9.6,9.4,22.2,5,34c-5.7,15.3-14.2,29.1-27.2,39.6c-1.3,1-2.4,2.3-3.9,2.9
	c-16.7,6.1-33.4,12.1-50.1,18c-8,2.8-15.9,6.3-24.1,7.7c-14,2.4-28,5.5-42.6,2.4c-6.2-1.3-12.9-0.3-19.4,0
	c-22.1,0.9-43.4-2.4-63.8-11.4c-4.8-2.1-10-3.2-14.7-5.3c-17.3-7.8-27.6-21.8-34.2-39.1c-8.2-21.2-10.4-43.1-8.3-65.6
	c3.2-34,11.3-66.9,23.8-98.7c8.8-22.4,21.6-42.5,35-62.3c36.5-53.9,78.6-103,127.6-146c16.7-14.7,33.5-29.3,50.8-43.3
	c6.4-5.2,13.1-9.6,23.1-7.8c6.9,1.3,14.8-1.9,22-3.8c4.1-1.1,6.9-0.8,9.7,2.4c5.1,5.9,13,10.3,7.6,20.5c-1,1.9,2.1,6,3.7,10
	c-3.7,12.1-15.2,19.1-24.4,27.9c-9.3,8.9-19.7,16.6-29.6,24.8c-2.1,1.7-4,3.7-6,5.6c-0.3,0.3-0.3,0.8-0.6,1
	c-13.4,10.2-18.8,26.6-29.9,38.5c-2.2,2.4-4.3,5.1-7,6.7c-15.5,8.6-27,21.4-37.6,35.2c-0.2,0.3-0.5,0.9-0.8,0.9
	c-14.7,1-12.9,15.1-19.4,23.2c1.7,1,2.7,2.1,3.6,2c21.8-1.6,43.5-3.7,65.3-4.9c14.1-0.8,28.2-0.4,42.3-0.5c23-0.2,46-0.6,69.1-0.4
	c19,0.2,38,1.3,56.9,1.7c16.1,0.4,32.4-0.7,48.4,0.8c11.8,1.1,23.5-0.8,35.6,1.6c14.6,2.8,30.3-0.2,45.5-0.6c4-0.1,8.1-0.2,12.1,0
	c20.1,1.3,40.2,2.1,60.2,4.4c22.4,2.5,45.1,0.4,67.2,4.1c15.4,2.6,31.3,3.1,45.8,12.8c14.5,9.6,31.9,14.9,48.1,21.9
	c11.2,4.8,13.2,8.7,11,20.2c-0.6,3.1,0.6,6.6,1.1,10.6c-4,0.7-8.5,1.2-12.7,2.3c-6.2,1.7-12.5,3.4-18.2,6.2
	c-7.8,3.8-15.3,7.1-24.3,5.6c-2.7-0.4-5.5,0.7-8.3,0.9c-3.2,0.3-6.5,1.1-9.6,0.5c-14-3-27.8-7.1-41.8-9.5c-14.7-2.5-29.7-4-44.6-5.2
	c-32.2-2.5-64.4-5.9-96.9-5.3c-30.3,0.5-60.7-1.6-91-2.3c-37.2-0.9-74.4-1.9-111.6-2.2c-27-0.2-54.1,0.5-81.2,0.8
	C2442.2,3094.6,2440.3,3095.1,2438.6,3095.4z M2317.8,3204.9c0.2,0.2,2.5,1.7,3,3.6c2.4,9.7,4,19.6,6.6,29.3
	c4.8,17.6,15.9,24.6,33.7,20.7c9.8-2.1,19.4-5.6,29-8.7c10.4-3.3,18.7-10,25.3-18.2c3.3-4,5.7-10.3,5.5-15.3
	c-0.3-7.9-2-16.4-5.3-23.5c-11.1-24-25.4-45.9-45.7-63.6c-7.9-6.9-15.4-14.4-22.8-21.9c-3.6-3.6-7.2-6.4-12.2-4.4
	C2323.3,3135.8,2319.1,3169.6,2317.8,3204.9z M1775,2708.6c5.5,1.9,13-1.7,19.5-3.3c2.6-0.6,4.7-3.2,7.3-3.6
	c3.7-0.5,5.3-2.2,7.2-5.3c2.4-3.9,5.8-7.6,9.6-10c8-5,12.8-10.5,12.9-20.9c0.2-12.5-5.1-25.5,1.7-37.8c0.7-1.2-0.1-3.2-0.3-4.8
	c-1.7-18.8-3.1-37.6-5.2-56.4c-1.9-17.3-3.9-34.6-6.7-51.8c-2.8-17.3,0.4-35.4-7.1-52c-0.4-0.9,0.2-2.3,0.6-3.4
	c2.8-8.2,0.7-15.7-2.5-23.3c-1.6-3.7-3.4-7.5-3.8-11.4c-1.2-10.9-1.6-21.8-2.6-32.7c-1-12.2-2.3-24.4-3.5-36.4
	c-2.3-0.3-4.1-0.6-5.9-0.8c-0.6-12.1-1.1-23.5-1.8-34.8c-0.7-11.3-1.8-22.6-2.2-34c-0.3-10.1,2.8-12.7,13.2-12.1
	c2.4,0.1,4.8,0.1,7.1-0.2c15.6-2.2,31.2-4.8,46.9-6.6c28.1-3.2,56.2-6,84.3-8.8c19.3-1.9,38.7-3.7,58-5.4c23-2,46-4.3,69-5.7
	c26.6-1.6,53.3-2.6,80-3c7.9-0.1,15.8,2.4,23.6,3.9c10.6,2,21.3,2.1,31-2.2c6.3-2.8,11.4-8.3,16.4-12.1c-1.5-4.6-2.7-8.8-4.3-12.8
	c-2.4-5.9-7.5-2.2-12.7-2.2c0.7-5.4,1.3-9.9,2.1-16.1c-7-4-14.4-11.1-22.8-12.5c-18.6-3.2-37.7-4.5-56.6-4.8
	c-22.7-0.4-45.4,1-68,1.8c-20.2,0.7-40.4,1.5-60.5,2.6c-9.3,0.5-18.5,2.3-27.7,2.9c-12.5,0.9-25,0.8-37.4,1.8
	c-20.9,1.8-41.7,4.3-62.5,6.3c-16.4,1.6-32.9,3-49.4,4.7c-15.3,1.6-30.5,3.4-45.7,5.2c-22.9,2.6-45.8,5-68.6,8.1
	c-14,1.9-27.8,5.4-41.8,7.3c-18.1,2.4-35.8,6-52.4,13.9c-3.2,1.5-6.6,3.5-8.7,6.2c-8.6,11.4-7.7,31.1,1.4,42.1
	c3.4,4.1,7.3,5.5,12.8,5.1c25-1.9,50-3.3,75-4.7c7.8-0.4,9.6,0.7,10.3,8.4c1.2,13.7,2,27.4,2.5,41.2c0.7,20.6,0.3,41.2,1.8,61.7
	c2.2,31.1,6,62,8.4,93.1c2.7,34.4,8,68.3,13.8,102.3c5.4,31.5,12.3,62.7,13.7,94.8c0.3,7.6,2,15.3,10.6,20.3
	C1761,2706.2,1767.2,2706,1775,2708.6z M802.4,3265.5c1.7,11.1,4.6,22.1,8.1,32.8c3.7,11.5,9.1,22.3,17.4,31.7
	c11.1,12.5,25.2,20.1,39.9,26.9c6.2,2.9,12.6,5.5,19.2,0c1.7-1.4,5.5-1.1,8.1-0.5c22,5.2,43.3,2.7,64.2-5.2c2.6-1,5.5-1.7,8.3-1.8
	c6-0.3,10.8-2.4,15.1-6.7c6.1-6,13.4-10.2,22.1-11.7c10.1-1.8,19.4-5.6,28-11.3c17.5-11.6,35.2-22.9,52.8-34.5
	c2-1.3,4.6-2.8,5.3-4.8c3.9-10.5,12-17.4,19.2-25.4c14.6-16.6,27.4-34.8,40.5-52.7c3.8-5.2,6.6-11.1,9.3-17c1.3-2.8,2.5-6.5,1.8-9.3
	c-0.9-3.5-3.2-7.4-6.1-9.6c-3.5-2.6-6.4,0.5-9.1,3.4c-8.3,8.8-16.6,17.8-25.6,25.9c-7.2,6.4-15.6,11.5-23.2,17.5
	c-31.2,24.5-63.1,48.1-98.3,66.7c-13.2,7-27.1,12.7-41,18.1c-4.5,1.8-11,2.5-15.2,0.6c-16.3-7.3-30.7-18-35.3-36
	c-3.4-13.4-14-24.6-11.9-39.6c0.1-0.6-0.5-1.8-1-2c-6.4-2.5-3.7-7.3-2.8-11.3c1.4-6.3,1.9-12.5,0.3-19c-0.8-3-0.8-6.6,0-9.7
	c3.8-15.3,7.4-30.8,12.3-45.7c4.3-13,9.6-25.8,15.6-38.1c6-12.4,8.4-26.8,19-36.9c0.7-0.6,0.4-2.3,0.5-3.5
	c0.8-7.7,4.8-13.8,10.9-18.2c5.8-4.2,10-9.3,12.2-16.2c0.7-2.3,1.8-4.7,3.4-6.3c12.8-12.9,24.2-27.4,39.8-37.2
	c2.6-1.6,6.6-3.7,8.7-2.7c7,3.2,15.7,2.9,21.3,6.7c9.5,6.5,15.8,2.3,22.9-2.1c5.7-3.5,6.9-8.8,5.1-15.7c-1.3-5.1-2-10.3-3.1-15.4
	c-0.5-2.3-0.7-4.9-2-6.8c-3.5-5.3-8.8-9.4-8-17c0.2-1.6-3.6-4.2-6-5.1c-2.9-1.1-6.4-1.3-9.6-1c-16,1.5-32,3.1-48,5
	c-5.1,0.6-10.4,1.9-15.2,3.7c-21.5,8.3-39,23.1-55.3,38.5c-17.9,16.9-33.4,36.4-46.3,57.5c-28.8,47.1-55,95.5-65.2,150.6
	c-3.1,16.7-5.5,33.4-7.4,45C799.8,3238.9,800.3,3252.3,802.4,3265.5z M1626.3,2633.2c0-3,0.3-6.1-0.1-9c-2.2-18.5-4.7-36.9-7-55.4
	c-0.7-5.6-3.3-12.5-1-16.5c3.8-6.6,1.7-12.5,1.8-18.8c0.2-10.4-4.9-20.4-2.7-31.1c0.3-1.6-1-4.8-2.3-5.2c-7.4-2.6-5.8-9.2-6.1-14.2
	c-1.1-18.6-0.8-37.3-2.3-55.8c-1.2-15.2,2.6-30.8-3.1-45.7c3.9-8.3,2.1-15.4-4.2-21.9c-0.7-0.8,0.2-3.1,0.3-4.7
	c0.6-13.2-3.3-26.2-1.6-39.5c0.4-3.6-1.4-7.9-3.4-11.3c-2.9-5-8-8.9-10.1-14.2c-2.3-5.6-5.8-8.1-11-10.1
	c-14.1-5.8-28.5-3.4-42.8-1.6c-3.1,0.4-6,2.5-9.1,3.1c-6.1,1.2-9.1,4.9-10.2,10.6c-2,11-5.7,22-1.4,33.4c1,2.6,1.1,5.6,1.1,8.4
	c0.4,25.5,1.2,51,1,76.4c-0.3,40.1,1.4,80.2,5.2,120.1c2.8,30.1,7.5,60.1,11.8,90.1c1.7,11.6,4.2,23.1,6.8,34.5
	c2.9,12.8,6.4,14.9,19.2,14.7c7-0.1,14,0.9,21.2,1.5c0.5-1.7,1-3.5,1-3.4c7.8-3.1,15.2-4.6,20.8-8.6c5.8-4.2,11.1-10.3,14.3-16.7
	c3.1-6.4,3.4-14.2,5.3-23.7c2.5,6.2,4.2,10.4,5.9,14.7C1624.6,2633.1,1625.4,2633.2,1626.3,2633.2z M2010.7,2951.1
	c-2.2-2.6-4.3-5.3-6.5-7.9c-0.4,0.3-0.9,0.7-1.3,1c1.9,2.9,3.8,5.7,5.7,8.6C2009.3,2952.2,2010,2951.7,2010.7,2951.1z
	 M1034.6,2521.2c0.2-0.3-0.5-1.3-0.8-1.9c-1.2,0.6-2.6,1.1-3.6,2c-0.3,0.3,0.4,1.8,0.9,3.8
	C1032.8,2523.3,1033.8,2522.4,1034.6,2521.2z M1043.2,2501.5c0.9-1.9,1.8-3.9,2.7-5.8c-0.6-0.3-1.3-0.7-1.9-1
	c-1,1.7-2.1,3.4-3.1,5.2C1041.7,2500.4,1042.4,2500.9,1043.2,2501.5z M2025.2,2976c-1.4-3.1-2-6.9-7.2-6.6c2.5,2.1,5,4.2,7.5,6.3
	C2025.5,2975.7,2025.2,2976,2025.2,2976z M2025.5,2975.8c-1.3,3.2-1.5,5.9,3.4,6.8c-1.2-2.2-2.5-4.4-3.7-6.5
	C2025.2,2976,2025.5,2975.7,2025.5,2975.8z"/>
</svg>
