<?xml version="1.0" encoding="utf-8"?>
<!-- Generator: Adobe Illustrator 21.1.0, SVG Export Plug-In . SVG Version: 6.00 Build 0)  -->
<svg version="1.1" id="Layer_1" xmlns="http://www.w3.org/2000/svg" xmlns:xlink="http://www.w3.org/1999/xlink" x="0px" y="0px"
	 viewBox="0 0 4685 2545.6" style="enable-background:new 0 0 4685 2545.6;" xml:space="preserve">
<style type="text/css">
	.st0{fill:#FFFFFF;}
</style>
<title>breadpudding</title>
<path d="M1598.5,1759.7c-8,1-12.9,0.5-16.8,2.2c-74.6,31.1-150.2,60.3-223.3,94.7c-39.6,18.6-75.3,45.7-112.4,69.7
	c-14.9,9.6-16.9,25-17,42.1c-0.1,37.9-0.4,76-4.2,113.7c-5.4,54.4-24,104.9-50.9,152.5c-16.9,29.9-41.4,52.4-71.3,67.3
	c-27.4,13.6-57.1,12.6-84-4.4c-15.1-9.6-23.5-22.9-26-41.9c-9.7-73.1,2.7-140.4,40.5-204.7c26.4-44.9,54.4-87.2,96.6-118.7
	c19.8-14.8,18.8-36.7,15.6-57.3c-8.1-52.8-6.7-105.6,2.3-157.6c11.6-67.2,38.4-128.9,82.8-181.7c40.6-48.4,90.5-84.9,147.5-111.9
	c22.5-10.7,34.1-26.2,37.4-53.2c5.9-48.4,18.6-95.9,27.4-144c22-120.4,43.5-240.9,65.1-361.4c6.3-35,12.7-69.9,18-105
	c2.8-18.9,3.2-38.1,5.2-63.4c-14.5,5.7-23.7,7.9-31.5,12.5c-38.8,23.4-77.8,46.6-115.5,71.7c-11.7,7.8-21,20.3-29.3,32.2
	c-27.2,39.1-51.6,80.4-80.6,118.1c-30.2,39.2-70.4,67.1-114.3,90.4c-40,21.3-82.6,30.9-126.6,33.1c-20.7,1-29.2,10.8-33.2,26.9
	c-16.3,65.3-34.4,130.4-46.8,196.4c-14.9,79.3-23.9,159.7-37.4,239.3c-3.4,19.7-11.7,40-22.9,56.6c-11.8,17.5-38.9,23.3-52.7,15.8
	c-19.4-10.5-20.6-27.9-17.7-47.7c9.9-67.8,17-136,28.7-203.4c18.7-108.5,40.3-216.5,60.3-324.8c1-5.4-1.3-11.3-2.5-20.5
	c-8.8,4.6-16.3,6.4-20.5,11.2c-30.4,34.3-70.6,55.5-111.9,68.4c-70.1,21.9-108.1,34.1-181.2-40c-8.1,12.7-17.2,24.1-23.3,36.9
	c-28.3,59.6-69.9,109.2-115,156.3c-25.5,26.7-57.6,43-92.4,50c-65.8,13.3-112.1-28-112.8-91c-0.5-44.2,12.8-85.7,30.9-124
	c39.6-84.1,79.8-168.6,128.7-247.4c34.4-55.4,68.4-112.8,117.9-158.6c24.5-22.7,51.9-32.1,82.1-34.8c22.3-2,34.2,16.8,42.2,35.1
	c7.3,16.7,13.8,32.1,28,46c9.9,9.7,12.8,31.9,10.7,47.4c-6.2,47.2-16.6,93.9-24.8,140.8c-2.7,15.6-4.8,31.4-5.3,47.2
	c-2.2,67,35.7,90.5,98,69.1c55.6-19.1,104.7-52.8,142.9-100c33.6-41.5,58.4-86.6,71.5-138.9c11.2-44.9,25.4-89.1,41.1-132.7
	c4.5-12.5,16.9-25.5,29-31.1c11.7-5.5,29.6-6.2,41.3-1.1c15.8,7,18.6,24.2,13.4,41.5c-8.7,29.2-16.8,58.5-25.1,87.8
	c-2.9,10.1-5.6,20.1-3.2,33.2c15.4-17.8,30.2-36.1,46.4-53.1c35.6-37.5,72.8-73.7,123.3-90.4c19.5-6.4,40.4-10.6,60.8-11.7
	c47.1-2.5,68.7,28.8,76.9,64.1c1.6,6.9,1.8,14,2.7,21.7c20.3,1.4,34-7.6,48.3-17.4c35.3-24.3,71.2-47.8,107.5-70.7
	c11.2-7.1,24-13.1,36.9-16c31.3-7.2,50.1,8.2,49.4,40.7c-0.4,18.2-4.1,36.4-7,54.5c-3.2,20.3-7.1,40.4-5.7,63.3
	c7.2-7.7,14.9-15,21.6-23.1c12.5-15.1,23.9-31.1,36.7-45.9c46.2-53.4,105.2-88,174.9-89.5c81.2-1.8,119.7,34,97.9,125.6
	c-20.4,85.4-66,160-126.6,224.9c-35.2,37.7-71.8,72.8-115.2,101.6c-39.2,26-77.6,33.7-121.2,16c-3.2-1.3-7.1-0.6-10.4-0.8
	c-29.6,44.4-67.9,263.7-58.7,337.5c8.4,2.6,17.5,5.9,26.8,8.4c50.1,13.2,74.7,48.8,83.1,96.9c6.9,39.2,1,77.7-11.8,115.4
	c-5.7,16.8-8.9,34.4-14.9,58.3c16.3-3.2,25.9-3.3,33.8-7c33.3-15.5,67.4-30,98.8-48.9c21.7-13.1,40.5-31.6,58.5-49.8
	c20-20.2,43.3-31,70.7-35.7c16.7-2.9,25.1,4.8,30,19.7c7.1,21.4,3.4,42.7-7.2,60.4c-35.5,59.1-63.8,121-82.6,187.3
	c-8.6,30.5-17.3,61.1-25.9,91.6c-0.7,2.4-1.7,5-1.3,7.2c2.5,12.7,1.5,28.9,9,37.2c11.1,12.3,27,4.4,40.7-2.5
	c49-24.6,88.2-61.2,125.8-100.2c77.9-80.7,129.5-177.7,174.2-279.1c9.8-22.1,24.2-40.1,51.7-39.8c29.9,0.4,43.2,16.8,35.4,45.4
	c-3.5,12.9-9.1,25.5-15.9,37c-28,47.4-58.3,93.6-73.2,147.5c-1.3,4.7-3.8,9.1-6.2,13.3c-44.8,78.7-65.7,165.4-83.9,253
	c-1.5,7.2-3.6,15-2.2,21.8c2.4,11.2,4.5,27,12.1,31.4c7.9,4.5,23.8,0.5,33.4-4.9c17-9.5,32.2-22.4,47.5-34.7
	c81-64.6,126.7-148.8,148.8-250.1c14-64.2,40.4-125.9,63.2-188.1c9.8-26.8,40.4-38.2,63.3-27.3c20.8,9.9,25.6,32.7,15.9,60.4
	c-10.4,29.9-20.2,60.2-26.5,91.1c-12.4,60.9-44.5,114.1-64.1,172c-7.3,21.6-11.3,44.9-12.5,67.7c-1.6,29.5,9.5,40,37.7,33.5
	c30.7-7.1,60.6-19,89.9-31.1c20.2-8.4,39.3-19.8,57.8-31.6c6.2-4,11.2-12.5,13.4-19.9c32.6-110.2,98.9-197.9,180-277
	c38-37.1,78.6-69.7,123.4-97.8c32.8-20.6,66.2-15.9,98.5-3.7c9,3.4,16.1,20.7,18,32.5c5.1,32.3-9.5,60.5-27.4,85.6
	c-69.4,97.1-146.3,187.4-244.9,256.7c-17,11.9-33.9,24-50.6,36.3c-22.3,16.4-21.8,41.5,1.8,57.3c30.2,20.2,65.3,20.8,99.1,17.9
	c99-8.5,191-41.8,279.1-86.1c20.7-10.4,39.6-24.4,59.4-36.7c12.6-7.8,19.6-18.6,16.6-33.9c-12.5-63.2,9.3-119.1,40-171.3
	c54.5-92.7,125.6-171.9,208.5-240.2c20.2-16.7,40.2-30.3,72.8-23.2c66.1,14.3,78.6,85.4,52.5,127.4
	c-32.2,51.9-68.8,101.2-106.1,149.7c-27.6,35.9-59,68.8-89.3,102.5c-15.5,17.3-32.4,33.3-48.7,49.8c-9.3,9.5-18.5,19-29.6,30.4
	c6.9,8,11,16.1,17.6,19.7c35.7,19.9,73.9,29.2,114.8,34.9c79,11.1,157,3.6,234.2-7.7c58.9-8.6,117.2-26.3,173.6-46.1
	c114.6-40.3,202.5-117.8,276.4-212c15.1-19.2,27.7-40.4,40.9-61c3.9-6.1,9.3-13.5,8.7-19.9c-3-32.5,21.8-48,40.5-66
	c19.7-19,50.4-16.6,66.2,1.7c13.1,15.1,7.9,37.4-10.2,58.7c-18.2,21.4-35.4,43.8-50.7,67.3c-53.4,81.8-116.9,153.9-197.4,209.9
	c-82.3,57.3-172.2,95.8-270.2,119.7c-84.3,20.6-169.7,24.9-255,28.8c-48.4,2.2-98.6-3.6-145.6-15.4c-38-9.6-72.4-33.5-114.8-54.2
	c-7.2,3.8-21.5,10.3-34.6,18.8c-101.4,65.6-213,104.4-331.7,121.9c-39.6,5.8-80.4,3.8-120.5-3.5c-28.6-5.2-47.9-23.4-66.6-42.7
	c-10.1-10.5-18.1-22.9-28.8-36.6c-32.5,14.4-65.4,30.1-99.1,43.5c-20.3,8.1-41.8,13.8-63.2,18.6c-36.4,8.3-68.2-0.6-92.7-30
	c-4.7-5.6-8.6-11.8-15.5-21.3c-21.1,19.7-37.2,36.1-54.7,50.7c-29.1,24.2-57.4,50.1-89.5,69.7c-18.8,11.5-44.1,16.1-66.6,16.8
	c-26.6,0.8-49.7-11.5-61.1-38.8c-14-33.7-19.5-68-10.7-104.1c6-24.5,11.1-49.1,16.6-73.7c-2.2-1.5-4.3-2.9-6.5-4.4
	c-8.6,5.7-17.2,11.5-25.8,17.2c-35.6,23.6-69.4,51-107.4,69.9c-44.6,22.2-98,20.2-123.8-17.6c-10.6-15.5-14.9-35.2-23.1-55.8
	c-20.5,4.7-30.9,25.6-46.5,39.5c-29.1,25.9-56.4,54.6-88.2,76.7c-20.2,14-46.8,23.9-71.3,25.9c-52.8,4.2-70.9-33-57.7-69
	c9.4-25.8,25.4-50.3,42.6-72.1c43.2-54.7,88.9-107.5,133.3-161.2C1594.1,1772,1595.1,1767.2,1598.5,1759.7z M1226.2,1851.4
	c20-11,36.3-21.3,53.6-29.2c67.6-31.1,135.5-61.8,203.5-92.1c14.8-6.6,22.8-15.8,25-32.7c2.6-20.5,8.5-40.6,13.5-60.8
	c6.9-27.2,15.1-54.1,21.4-81.5c11.7-51-14.9-86.2-66.1-83c-29.8,1.9-61.5,7.2-88.3,19.7C1265.6,1549.9,1197.9,1703.5,1226.2,1851.4z
	 M319.6,1162c3.5,36.2,15.7,48,48.3,38.6c16.8-4.9,33.5-14.9,46.9-26.3c76.3-65,115.7-153,151.1-243.8c15-38.5,14.2-78.9,19.2-118.6
	c3.5-27.6,1.7-56,0.2-84c-0.3-6.6-7.6-15.4-13.9-18.3c-4.2-1.9-14.2,3.1-18.5,7.8c-13.9,15.4-27.8,31.3-39.3,48.5
	c-57.1,85.6-111.3,173.2-152.3,267.8C343.7,1074.9,333.4,1119.2,319.6,1162z M1869.1,697.5c0.8-32.3-16.4-45.2-48.7-38.7
	c-40.7,8.2-75.4,29.2-103.1,59.9c-45.8,50.8-74.5,111.6-101.7,173.7c-12.3,28-14.5,53.4-5,81.4c9,26.6,17,31.8,43.3,19.2
	c20.8-9.9,42.3-21.3,58.6-37c57.9-55.7,105.5-119.3,135-194.8C1856.6,738.4,1863.3,714.9,1869.1,697.5z M3362.1,1488.9
	c-77.2,36.6-237,226.3-227.3,313c9.1-5.7,18-9.4,24.5-15.7c15.7-15.4,30-32.2,45.2-48c56.4-58.4,104.2-123.4,147.8-191.5
	C3362.7,1530.5,3372.1,1512.6,3362.1,1488.9z M1111.2,839.6c64.3-15.2,120.2-46.8,175-80.1c18.6-11.3,21.2-44.1,9.8-63.6
	c-9.4-16-20.9-19-48.3-8.6c-13.4,5.1-26.2,12.9-37.7,21.6c-13.5,10.3-26.2,22.1-37.5,34.9C1147.7,772.1,1123.8,801.2,1111.2,839.6z
	 M2608.6,1848.1c9.3-4.6,13.9-6,17.6-8.8c67.8-51.1,127.5-110.5,178.3-178.3c14.6-19.4,32.2-39.1,33.8-67.9
	C2760.5,1624.6,2629.2,1769.2,2608.6,1848.1z M1151.2,2018.2c-54.1,22.6-100.4,148-80,208.9c24.3-1.5,27.4-2.4,38.6-24.6
	C1138.4,2146,1154.8,2086.5,1151.2,2018.2z M1043.7,971c24.9,11.2,47.6,11.5,76.9-3.4c44-22.4,83.9-50.9,109.2-96.4
	C1166.5,900.5,1100.9,924.9,1043.7,971z M1699.8,1765.2c-56.1,64.3-127.3,116.6-162.6,198.1
	C1607.8,1911,1656.7,1840.7,1699.8,1765.2z"/>
<path d="M2478.1,938c27.8,22.4,56.7,21,84.1,19c70-5.2,138.3-19.4,202.4-49.2c52.1-24.2,106-45.4,155.2-74.6
	c78.5-46.5,138-113,179.1-194.9c5.2-10.4,5.8-23.3,7.1-35.2c2-17.4,9-31.1,26.6-35.7c17.5-4.5,34.7-2.5,46.9,12.8
	c11.1,14,10.3,30.1,2.6,44.9c-12.4,23.9-26.8,46.6-39.6,70.3c-32.6,60.5-80.1,106.9-132.3,150.9c-103.3,87-227.1,128.3-352.8,166
	c-27.9,8.4-57.8,10.6-86.9,14.9c-52.9,7.9-102.4-1.7-147.3-31.4c-11.2-7.4-20.7-8.3-33.9-2.7c-46.2,19.6-91.9,42-140.2,54.3
	c-57.1,14.6-116.1,27.5-173.2-8.6c-38-24-61.1-56-69.3-98.6c-12.7-66.1-6.8-132.4,5.7-197.7c19.5-102.5,50.9-201.8,83.6-300.8
	c19.2-58,37.5-116.3,56-174.5c8.5-26.6,25.7-37.6,49.3-31c22.9,6.4,33.6,30.6,24.2,56.6c-27.9,77.1-59.4,153.2-83.3,231.5
	c-32.5,106.5-64,213.8-66.3,326.6c-0.4,20.7-0.5,42.2,4.1,62.2c15.3,65.3,67.1,87.5,134.2,74.5c53.7-10.4,106-28.2,153.2-61
	c0.5-5.3,2.6-11.6,1.5-17.3c-17.8-94,16.8-176.6,58.5-256.4c27.3-52.4,66.9-96.7,109.6-137.4c26-24.8,55.8-44.6,94.4-43
	c8.5,0.4,17.2,1.2,25.5,3c34.1,7.5,45.5,21.7,43.9,56.7c-2.8,59.7-22.1,115.1-46,169.2C2617,787,2562.8,860.2,2492.9,922
	C2488.5,925.9,2484.8,930.7,2478.1,938z M2626.6,543.4c-29.6,5.9-43.3,11.2-56.9,27.5c-66.8,80-118.2,167.5-130.2,273.5
	c-1,8.4,2.3,17.3,3.9,27.7C2542.4,813.2,2636.5,629.9,2626.6,543.4z"/>
<path class="st0" d="M1226.2,1851.4c-28.3-147.9,39.4-301.4,162.7-359.5c26.7-12.6,58.4-17.9,88.3-19.7c51.2-3.2,77.8,32.1,66.1,83
	c-6.3,27.4-14.5,54.2-21.4,81.5c-5.1,20.1-10.9,40.3-13.5,60.8c-2.2,16.9-10.2,26.1-25,32.7c-68,30.3-135.9,60.9-203.5,92.1
	C1262.5,1830.1,1246.2,1840.3,1226.2,1851.4z"/>
<path class="st0" d="M319.6,1162c13.7-42.8,24.1-87.1,41.9-128.2c41-94.6,95.1-182.2,152.3-267.8c11.5-17.2,25.3-33.1,39.3-48.5
	c4.3-4.7,14.3-9.8,18.5-7.8c6.3,2.9,13.6,11.7,13.9,18.3c1.4,27.9,3.2,56.4-0.2,84c-5,39.6-4.2,80.1-19.2,118.6
	c-35.4,90.7-74.9,178.8-151.1,243.8c-13.5,11.5-30.1,21.5-46.9,26.3C335.3,1210.1,323.1,1198.3,319.6,1162z"/>
<path class="st0" d="M1869.1,697.5c-5.8,17.4-12.5,40.9-21.4,63.6c-29.5,75.6-77.1,139.2-135,194.8c-16.4,15.7-37.8,27.1-58.6,37
	c-26.4,12.6-34.3,7.4-43.3-19.2c-9.5-28.1-7.3-53.4,5-81.4c27.2-62.1,55.9-122.9,101.7-173.7c27.7-30.7,62.4-51.7,103.1-59.9
	C1852.7,652.3,1870,665.2,1869.1,697.5z"/>
<path class="st0" d="M3362.1,1488.9c9.9,23.7,0.6,41.7-9.8,57.8c-43.6,68.1-91.4,133.1-147.8,191.5c-15.3,15.8-29.5,32.6-45.2,48
	c-6.4,6.3-15.4,10-24.5,15.7C3125.1,1715.2,3284.9,1525.5,3362.1,1488.9z"/>
<path class="st0" d="M1111.2,839.6c12.6-38.4,36.5-67.5,61.3-95.8c11.2-12.8,24-24.6,37.5-34.9c11.4-8.7,24.3-16.5,37.7-21.6
	c27.4-10.4,39-7.5,48.3,8.6c11.4,19.5,8.9,52.3-9.8,63.6C1231.4,792.8,1175.4,824.4,1111.2,839.6z"/>
<path class="st0" d="M2608.6,1848.1c20.5-78.9,151.9-223.5,229.6-255c-1.6,28.8-19.2,48.5-33.8,67.9
	c-50.8,67.8-110.5,127.2-178.3,178.3C2622.6,1842.1,2617.9,1843.6,2608.6,1848.1z"/>
<path class="st0" d="M996.6,1924.5c3.6,68.3-12.8,127.8-41.4,184.4c-11.2,22.2-14.3,23-38.6,24.6
	C896.2,2072.4,942.5,1947.1,996.6,1924.5z"/>
<path class="st0" d="M1043.7,971c57.2-46.2,122.8-70.5,186-99.8c-25.2,45.5-65.1,74-109.2,96.4
	C1091.4,982.6,1068.7,982.2,1043.7,971z"/>
<path class="st0" d="M1545.2,1671.5c-43.1,75.5-92,145.8-162.6,198.1C1417.9,1788.1,1489.1,1735.8,1545.2,1671.5z"/>
<path class="st0" d="M2626.6,543.4c10,86.4-84.1,269.7-183.2,328.7c-1.6-10.5-4.9-19.3-3.9-27.7c12-106,63.5-193.5,130.2-273.5
	C2583.3,554.6,2597,549.3,2626.6,543.4z"/>
</svg>
