<svg xmlns="http://www.w3.org/2000/svg" viewBox="0 0 4000 3733.1"><title>applepicking</title><rect width="4000" height="3733.1" fill="#ee6e66"/><path d="M2803.9,1456.5c-10.5-93.5-38.2-184.2-87.6-264.9-45.9-74.9-108-142.2-170.6-203.4-65.4-63.9-141.2-113.1-231.1-133.9-84.7-19.6-181.3-26.6-268.1-19.8-44.2,3.4-80.6,17.4-122.5,28.2a219.38,219.38,0,0,1-35.17,5.71c-11.07.11-22.2,0-33.33.49-14,.63-28,1.52-41.83,3-4.49.34-9,.75-13.37,1.27-102.5,12.2-191.7,36.6-271.7,104.8-70.9,60.5-140.1,137-189,216.4-57.3,93-63,200.5-61.2,306.7a112.88,112.88,0,0,0,.78,11.59c0,.28-.09.56-.14.83-20.13,79.24-37.42,166.29-31.44,246.28,7.4,98.4,87.8,167.9,148.2,238.8,98.32,115.47,192.24,241.9,337.45,289.76,10.72,6,22.54,8.72,34.45,11.34,8.4,1.8,17,2.6,25.5,3.8,7.8,1.1,15.5,2,23.3,3,4.8.6,9.6,1.5,14.5,1.8q6.57.38,13.15.6c70,5.47,139.8.92,210.35,1,76.8.1,153.6,14.6,230.4,9.5,86.8-5.7,172.1-33.4,230.9-100.8,52.7-60.4,77.7-136.6,122.9-201.8,28.4-41,54.5-80.2,70-128.3,6.3-19.6,10.6-39.8,14.1-60.3C2787.1,1716.4,2818.5,1587,2803.9,1456.5Z" fill="#d6de23"/><path d="M2658,380.1c-10.9-43.8-65.2-43-88.2-11.5-22.71,31-55.25,48.92-91,55.14a3.37,3.37,0,0,0-2.4-1.84,30.16,30.16,0,0,1-3.12,2.71,178.61,178.61,0,0,1-39.48,1c-14.22-1.19-28.44,7-37.47,18-2.28-.49-3.72.83-5,2.22-2.3,2.4-4.1,5.4-6.7,7.3a24.34,24.34,0,0,0-5.54,5.56c-18.66,7.2-50,8.41-63.26,14.54-27.5,12.7-45.2,33.5-62.7,57.5-21.7,29.7-42.1,60.4-62.5,91-14.2,21.4-30.5,42.3-37.8,66.1-17.5,21.5-27,47.6-8.9,74.2,31.1,45.6,110,21.2,154.9,17.3,52.3-4.7,110.9-1.3,156.3-30.7,41.4-26.8,86.7-58.1,119.1-95.6,35.8-41.4,44.8-82.7,51.3-135.4C2631.7,466.7,2671.6,435.1,2658,380.1Z" fill="#009345"/><path d="M2021.9,711.6c-18.2-41.6-45.6-74.6-74.3-109.2-26.2-31.6-40.2-50.4-77.2-42.7-30.9-18.5-70.4,23.4-40.5,49,50.5,43.2,109.2,96.3,141.6,155.4,12.1,22,10.8,53.4,15.7,78.7,8.5,43.2,7.2,81.5-6.6,123.6-13.3,40.3,46.6,54.2,62.1,17.1C2079.5,894.8,2059.1,796.7,2021.9,711.6Z" fill="#d09566"/><path d="M2791.9,1471.4c-.5-41.6.6-79.6-15.9-118.6-6.6-15.6-11.6-33.1-19.9-47.8-8.1-14.5-22.3-24.2-30.8-38.4-18.8-31.4-26.5-70.7-52.2-98.1-11.1-11.8-26.2-18.6-39.4-27.5-19.4-13.1-37.3-28.4-56.1-42.2-13.6-10-27.3-20.1-38.6-32.9-15.7-17.8-22.1-38.5-31.4-59.7-13.5-30.7-42.7-53.7-68.5-73.9-27.4-21.5-56.7-45.1-87.2-61.9-11.7-6.4-23.6-8.6-36.8-9-26.4-.8-51.8-4.3-77.9-7.8-40.8-5.5-82-1.8-123-.2h-.09q-30.24,1.08-60.56,2.07c.09-.16.16-.32.25-.48,8.4-15.5,17.4-30.6,25.6-46.2A135.29,135.29,0,0,1,2130.06,756l0,0c13.8,13.5,15.7,29,37.6,31.4,21.4,2.3,47.9-2.3,69-5.9a500.47,500.47,0,0,1,88.1-7.3c27,.1,54.2,0,80.9-4.8,23.6-4.2,44.5-12,62.1-28.6,19.5-18.3,37.7-37.6,57.8-55.4,11.9-10.5,24-20.9,37.1-29.9,8-5.5,17.3-10.2,22.9-18.4a32.57,32.57,0,0,0,5.7-20.1c-.2-4.5-2.3-9.2-2-13.7.7-12.4,12.8-17,21.5-23.8,4.4-3.5,5.6-5.3,7.4-10.6,3.8-10.9,9.6-22.4,11.7-33.9,1.7-9.3.2-17.1-3.3-25.7-7.2-17.5-6.2-29,2.1-45.8,11.5-23,26.3-65.5,9.9-89.8a20.66,20.66,0,0,0-25.2-7.7c-8.4,3.3-13.9,11.4-19.2,18.2-7.6,9.7-15,17.8-25.9,23.8-13.2,7.2-26.3,13.4-41.5,10.3-9.8-2-19.9-8.8-29.9-5.1-8.7,3.2-11,13.4-19.1,16.8-5.8,2.5-11.6.2-17.6.8-5.2.5-8.2,2.1-13.2,4.6-9.8,5-16.4,9.2-28.2,5.4-3.1-1-7-4.3-10.2-5.8-7.1-3.3-14-6.6-21.9-4-8.2,2.7-12.4,9.6-15.4,17.3-6.4,16.4-11.4,26.5-30.8,25.7-17.5-.7-35.5-4.8-49.3,9-7.7,7.7-8.1,15.7-10.5,25.8-2.7,11.3-6.4,19.3-18.7,19.5-4.4,0-9.1-1.1-13.6-1.2a4.9,4.9,0,0,0-4,2.5c-5.6,12-5.8,25.9-8.6,38.6-1.5,6.8-3.6,19.6-11,22.6-6.5,2.7-12.2-6.5-18.3-10-2.9-1.6-5.7.3-6.8,3-5.6,14.8-6.2,49.6-20.3,57.2-9.1,4.9-15.8,2.4-22.7,11.9-17.61,24.14-16.3,57.33-14.11,87.65a119.67,119.67,0,0,0-27.39,14.35c-25.4,18.2-38.4,40.5-53.2,67.1-4.46,8-9.05,15.33-13.08,22.71-.39-22.54-1.6-45-5.82-66.51-3.7-18.9-12.6-34.8-19.6-52.6s-14-34.7-24-51.3c-8.4-13.9-18.6-28.4-29.7-40.4-10.9-11.8-22.8-24.1-34.6-35.2-14.7-13.8-19.3-27.9-28.1-45.2-3.4-6.7-7.5-9.4-15-7.7-6.3,1.4-10.8,6.2-16.2,9.2-7.6,4.2-16.3,5.4-24,9.4-6.6,3.4-12.6,8.2-19.1,11.8-4.8,2.7-11.5,5.3-13.4,11.2-2.6,7.8,3.7,12.4,9.1,16.7,7.1,5.7,11.9,11.4,18,17.9,8,8.3,18.3,13.6,26.8,21.2,29.6,26.3,46.7,64.6,72.6,94.2,14.3,16.3,31.2,26.1,42.1,45.8,12.6,22.8,16.2,53.3,12.6,79.4-3.2,22.6-4.1,45.2-9.8,67.5a229.67,229.67,0,0,0-7.2,67,4.47,4.47,0,0,0,1.27,3.11c-29.81.95-59.64.88-89.17-4.31-29.1-5.1-65.4-11.7-80.8-39.9-2.7-5.4-10.7-.4-7.8,4.9,13.8,25.3,42.8,34.8,69.3,40.6,39.8,8.8,79.7,9,120.2,7.5,46-1.7,92-3.5,138-4.9,18.1-.5,36.2-.4,53.3-7,20-7.7,35.7-23.8,57.6-26.8,5.9-.8,5.6-10.2-.3-9.3-15.2,2.1-27.2,8.9-40.2,16.7-17.8,10.5-34.6,15.9-55.3,16.7-41.6,1.7-83.3,2.8-125,4.3-10.9.38-21.81.87-32.73,1.27a4.36,4.36,0,0,0,1-3.07c-1.2-38.1,12.1-72.6,13.7-110.2,1.3-31,9.3-63.6-3.2-93.7-13.4-32.2-40.2-48.2-60.4-74.9-18.6-24.7-35.1-51.2-55.9-74.2-11.4-12.6-27.4-20-38.1-33.3-2.8-3.5-7.8-7.6-10.2-11.1-.7-1-5.6-11.9-4.8-13.4.6-1.1,12.1-6.6,12.7-7,12.2-7.4,25.5-13.1,38.4-19.1,16.5-7.6,18.8,13.7,25.7,25.2,14.5,24.4,40.9,41.1,58.5,63.1,22.2,27.9,34.9,56.9,49,89.3,9.3,21.5,16.7,40.2,18.3,63.9,1.5,21.2,1.6,42.5,2.3,63.7,0,.89.07,1.79.11,2.69a71.36,71.36,0,0,0-2.51,16.91c-.5,15.8-5.2,31-6.3,46.7-.92,13.22-.09,26.65.76,40a69.57,69.57,0,0,1-9,13.48c-3.9,4.6,2.9,11,6.8,6.4,1.08-1.27,2.1-2.57,3.07-3.88l0,.58c.2,6,9.6,5.7,9.3-.4-.19-4.84-.49-9.72-.81-14.61,9.37-20.53,10-44.05,9.21-66.89-.47-13.2-.5-26.69-.57-40.28.11-.33.23-.66.34-1q32.52-1.15,65.13-2.22h.11c43.83-1.7,87.26-5.18,130.89,1.61,18.4,2.9,36.8,5.4,55.4,6.1,21.2.9,37.1,1.7,55.2,13.6,31.3,20.7,62.5,42.8,91.3,67,13.3,11.2,26.4,23.1,37.6,36.3,13.5,16,18.1,35.6,26.7,54.1,13.4,28.8,37.4,47.7,62.2,66.2,15.5,11.5,30.4,23.7,46,35,14.4,10.4,32,18.1,44.6,30.7,26.5,26.4,34.3,66.7,52.8,98.3,7.5,12.8,19.6,21.5,27.8,33.6,10.7,15.7,17.1,38.5,24.3,56.2,16.2,39.9,12.1,81.5,13.3,123.6,1.1,40.2,2.6,80.5-2.7,120.5-5.1,39-18.7,75.7-31.3,112.7-13.1,38.5-27.4,76.8-47.3,112.3-8.2,14.6-18.4,28-26.5,42.6s-8.4,30.9-15.9,45.5c-8.5,16.6-20.2,31.4-28.4,48.2-9.3,19.2-17.6,38.9-27.1,58.1-7.5,15.2-11.8,32-20.3,46.7-7.8,13.5-17.1,26.2-25.1,39.5-15.9,26.8-30.8,54.2-48.4,79.9-18.4,27-40.3,52.6-68.8,69.3-32.9,19.3-71.2,29.9-108.7,35.9-73,11.6-147.3,6.6-220.9,8.9-42.1,1.4-85,5.8-127.1,3.4-19.8-1.1-39.5-4-59.3-4.4-20.3-.3-40.5,2-60.7,3.2-40.3,2.5-78.9-4.4-118-13.9-17.9-4.4-37.9-7.9-54.4-16.3-15.5-7.8-28.6-20.4-40.2-33.1-10.8-11.8-21.2-24.8-28.6-39-8-15.2-12.1-31.9-23.2-45.4-11.7-14.3-26-24.3-35.8-40.4a493.41,493.41,0,0,0-32.2-46.5c-10.5-13.4-20.8-26.9-33.2-38.7-13.1-12.4-27.8-23.1-40.3-36.1-26.7-27.5-47.3-58.8-76.1-84.7-56.4-50.8-105.2-124.8-111.2-202.6-1.4-17.8-1-35.8-.9-53.7.1-21.5-1.6-42.7,3-63.9,3.5-16.4,8.3-32.4,9.7-49.2,2-24.1,1.8-48,4.4-72.1,3.8-35.3,10-70.5,12.3-105.9,1.2-19.5,2.1-39.2,7.7-58.1,6.1-20.3,17.3-38.6,28-56.8,19.9-33.9,32.4-71.2,51.9-105.3,9.3-16.3,18.8-33.1,30.2-48.1,13.1-17.2,29.5-29.4,47.2-41.4,11.9-8.1,22.9-15.2,30.7-27.3,9.4-14.8,24-22.4,34.2-36.3,11-14.9,17.7-29,34.9-38,14.9-7.8,31.3-12.4,46.3-20,37.8-19.1,75.1-35.7,116-47.3,41.1-11.7,83.4-16.1,126-17.8,39.9-1.6,79.8-1.1,119.7-2.4,6.2.4,5.9-8.9-.2-8.8-84.2,2.7-169.6-2.3-251.4,21.5-40.7,11.8-77.3,28.5-114.9,47.4-29.5,14.8-57.9,19.9-76.6,49.3-6.3,10-12,17.8-21.3,25.1-5.4,4.2-10.4,7.7-14.6,13.3-6.3,8.3-9.2,15.5-17.9,22.9-8,6.8-17.5,12-26.1,18-31.1,21.6-49.8,50.9-68.5,83.1-20.9,35.9-34.3,75.2-55.3,111-19.9,33.9-31.7,64.7-34.4,104.2-2.8,41-8.7,82-13.6,122.9-2.3,19.2-2.4,37.9-3.2,57.2-1,24.2-9,46.2-12.4,69.9-2.6,17.7-.7,36-.8,53.8-.1,21.2-.7,42.4,1.8,63.5,4.2,36.2,18.9,69,36,100.8,17.9,33.2,36.8,61.8,64.9,87.3,14.8,13.5,30.1,26.5,43.6,41.5,14.3,16,26.2,34.1,40.7,50,12.2,13.3,26.6,24.3,40,36.4,16.8,15.2,30.1,33.2,44,50.9,11.1,14.2,19.3,29.7,29.4,44.5,11.2,16.3,28.7,26.6,38.6,44,8.7,15.4,13.3,32.1,23.3,46.9a245.55,245.55,0,0,0,31.9,37.8c24.3,23.5,50.2,31.7,82.4,39.9,39.5,10,79.4,18.3,120.3,16.2,20.1-1,40.2-3.5,60.4-3.7,22.2-.2,44.3,3.1,66.4,4.4,44.1,2.5,89.1-2.3,133.2-3.6,38.9-1.1,77.8-.3,116.7-1.1,72.6-1.5,152.5-7.9,215.7-47.5,53.1-33.3,82.6-93.3,113.4-145.6,7.7-13.1,16.1-25.7,24.2-38.5,10.9-17.3,16.1-37.2,25.4-55.3,8.7-17.1,15.8-34.8,24-52.1,9.4-19.8,24.2-37,32.7-57,6.4-15.1,7.4-30.5,16.2-45,10.5-17.4,21.9-33.9,31.2-52.1,17.9-35,31.1-72.2,43.5-109.4,13.1-38.9,25.8-76.8,29.8-117.9C2794.8,1552.5,2792.3,1512,2791.9,1471.4ZM2151.1,707.2c.5-16.9,3.2-48.2,22-55.2,13-4.8,15.7,1.1,21-13,5.63-15,7.47-31.16,12.18-46.46,8.85,7.09,13.6,15.7,26.42,4.26,10.4-9.3,12-26.4,14.2-39.3,1.3-7.9.5-19.1,9-20.4,6.2-1,11.4,2.7,17.8-.1,19.8-8.7,11.7-35.5,25.3-48.2,14.9-14,38.2-1.7,56-6.1,22.3-5.5,17.4-30.8,34-39,14.5-7.1,18.4,5.7,30.3,10.2,7.4,2.8,12.7-.1,19.2-3.4,6.8-3.4,12.8-7.7,20.3-9.2,6.8-1.4,14.9,1.5,21.3-.3,10.5-3,15-16.8,27.2-18.3,9.8-1.2,21.3,6.8,32.1,6.1,9.2-.6,17.5-4.8,25.7-8.7,20-9.5,28.3-23.1,43.1-38.4,13.7-14.2,25-3.2,26.5,12.2.9,9.8-.2,19.9-1.9,29.6-3.6,20.8-17.2,37.4-21.4,57.6-2.1,9.9.2,17.8,4,26.9,8.2,19.3,4.1,30.6-3.8,49.1-.8,1.9-1.9,5.4-3,7.2-4.6,7.1-9.1,6.7-14.9,10.3-6.3,4-11.2,8.3-13.5,15.9-3.3,11.1,4.1,22.5,1.4,33.6-3.6,14.8-23.3,22.9-34.4,31.3a709.7,709.7,0,0,0-61.5,53.5c-10.8,10.5-20.1,22.7-32.1,32.1-13.8,10.7-30.8,15.9-47.7,19.1-33,6.4-67,4.8-100.4,4.8-33.7,0-65.7,8.2-99.2,10.6-13.2.9-28.5,5.4-41.5,2.2a24.37,24.37,0,0,1-12.51-7.75,4.31,4.31,0,0,0,1.11-3.15c-.29-7.07-.74-14.17-1.17-21.28,16-5.63,33.15-7.48,49.17-13.32,15.3-5.6,31.1-9.1,46.4-14.4,27.5-9.5,51.3-27.1,75.1-43.3s47.6-32.2,69.5-50.8c23.1-19.6,46.2-39.3,63.7-64.3,9.1-12.9,17.1-25.8,28.3-37s22.8-21.4,32.2-34.4c3.5-4.8-3.3-11.3-6.8-6.4-9.3,13-20.9,23.1-32.2,34.4-10.4,10.4-18.1,22-26.4,34-20,29.1-47.1,52.6-74.4,74.6-26.6,21.4-55.6,40.5-84.1,59.2-29.8,19.5-61,27.7-94.1,39.5-15.91,5.69-31.64,9.11-46.86,14C2151.18,727.28,2150.8,717.21,2151.1,707.2Zm-7.88,41.94c.23,3.17.45,6.29.64,9.35a72,72,0,0,0-5.35-7.13Q2140.85,750.21,2143.22,749.14Zm-104,197.43a161.22,161.22,0,0,1,.89-20.17c.36-3.14.85-6.25,1.38-9.36A162.69,162.69,0,0,1,2039.21,946.57Z" fill="#231f20"/><path d="M824.4,2870.4h.8c.3,6.2.3,12.6,1.3,18.7.4,2.4,3,5.7,5.1,6.1s6.4-1.1,7.5-3.1c6.4-11,15.3-20.7,18.6-33.6,4.3-16.9.4-25.6-15.5-32.7-10.1-4.5-18.2,1.4-17.8,12.5.3,10.8,0,21.5,0,32.1m323.4-6.3c-.5-11.4-4.4-20.2-13.7-26.9-20-14.6-43.4-20.5-66.7-26.1-10-2.4-16.5,4.1-16.6,15.5-.1,11,.5,22.1,1.2,33.1.8,11.9.9,23.6-2.3,35.3-1,3.5-2,7.4-1.6,10.9,2.1,16.7-2.6,33-3.3,49.5-.4,9.2,1.9,12.3,10.4,8.8a171,171,0,0,0,29.3-15.5c19.9-13.4,35.7-31.1,49.5-50.4,7.3-10.2,13.2-21.5,13.8-34.2m-197,99.5c-1-21.1-1.9-42.2-2.9-63.2a27.52,27.52,0,0,0-1.3-7.6c-2-5.9-6.8-8.4-12.2-5.1-5,3-9.1,7.4-13.3,11.5a51.8,51.8,0,0,0-6.2,7.8c-12.1,17-30,27.2-46.4,39.1-6.4,4.7-14.5,7.2-21.8,10.7-5,2.4-9.9,4.9-14.8,7.6-8.1,4.4-12.8,10.7-12.7,20.4a58,58,0,0,1-2,14.3c-3.4,14.6-2.5,29.1-1.4,44a123.44,123.44,0,0,0,4.6,25.8c1.4,4.7.4,10.3-.3,15.4-2,13.4-4.9,26.7-6.4,40.2-.8,7.2.4,14.7,1.5,21.9.9,5.6-1,8.7-6.1,9.9-15.4,3.7-30.9,7.4-46.3,10.9a25.08,25.08,0,0,1-7.7.6c-8.9-.7-15.4-5.8-17.2-14.4-1.5-7.2-2.3-14.6-3.3-21.9-.7-5.1-1.2-10.3-1.7-15.4-2.6-26.5-5.4-53-7.8-79.5-1.1-12.5-1.3-25.1-2.2-37.6-.9-12.1-3.6-14.5-16-17-2.9-.6-6-1.3-8.3-3-1.7-1.3-3.5-4.4-3.1-6.2s3.4-3.1,5.5-4c1.2-.5,2.9.3,4.3.5,9,.8,12.5-1.3,13-10.6a390.54,390.54,0,0,0,.6-41.9c-.8-21.4-2.5-42.8-4-64.3-.7-10-1.4-19.9-2.5-29.9s-6.2-14.6-16.3-16.6c-13.2-2.7-24.2-8.5-30.4-21.4-2.3-4.9-1.9-8.4,2.6-11.4a21.23,21.23,0,0,1,3.7-2.4c14.9-5.7,29.8-10.7,46.3-8.9,9.8,1.1,19.9.4,29.8.6,5.9.1,11.8,0,17.7.6,28.3,3,56.7,5.8,84.9,9.5,19.4,2.6,38.6,6.8,57.9,9.8,4.5.7,9.7.7,13.9-.9a196.37,196.37,0,0,1,72.7-13.3c16.6.2,33.3-.6,49.9-.1,19.2.6,38.6.9,57.6,3.4,16.7,2.2,32.9,7.2,49.1,12.8,22,7.7,39.4,21.3,57.4,34.8a59.82,59.82,0,0,0,7.3,5.1c4.8,2.5,7.9,1,8.8-4.3a37.29,37.29,0,0,0,.4-10c-1.1-12.9-2.3-25.8-3.9-38.6-1.3-10.6,1-14.2,11.4-16.3a22,22,0,0,1,4.4-.5c21.3.3,42.9-1.8,63.7,5,7.3,2.4,15.1,3.7,22,6.9a16.89,16.89,0,0,1,8.1,9.5c3,10.6,2.5,21.5-3.9,31-5.8,8.6-8.9,16.9-2.6,26.6a10.49,10.49,0,0,1,1.1,7.4c-1.8,8.3-4.2,16.5-6.5,24.6-1.8,6.4-4.6,12.6-5.6,19.1-3.3,20.4-5.7,41-8.9,61.5a151.31,151.31,0,0,1-5.8,24.8c-4.3,13-6.3,26.4-3,39.4,4.3,16.8,2,33.2-.6,49.5-2.2,13.7-.4,25.5,7.8,36.7,5.9,8.1,12.8,11.6,21.9,8,14.4-5.7,28.5-12.3,42.4-19,11.3-5.4,21.9-12.6,34.8-13.9,3.6-.4,7.7-.8,10.8.6,9.1,4.1,10.6,13.5,2.1,19.5-11.7,8.2-24.2,15.9-37.3,21.4-22.3,9.5-46.4,12.2-70.3,14.8-12.4,1.3-25.1-.3-37.6-1.3-10.2-.8-19.4-4.5-26.4-12.4-1.5-1.6-3-3.4-4.9-4.4-12.5-6.5-16-18.6-19.5-30.8-5.4-18.8-5.3-38-4.3-57.3.8-15.5,2.5-31,3.4-46.5,1.7-27.7,3.1-55.4,4.6-83.1a14.5,14.5,0,0,0-.4-5.5c-1.4-4.5-6.3-5.7-9.6-2.3a8.3,8.3,0,0,0-1.9,2.7c-8.6,20.7-24.8,35.9-39,52.3-9.3,10.7-20.2,20.9-32.3,28.3-20.5,12.7-43.3,20.5-67.8,21.5-6.3.3-12.5,1.3-18.8,1.6-10,.4-15.6,6.2-18.2,15.1a60.81,60.81,0,0,0-2,14.2c-.3,9.2-.2,18.4-.2,27.6a103.06,103.06,0,0,0,.5,11.1c1.7,16.2,3.4,32.3,5.3,48.5.6,5.5,1.8,10.9,2.6,16.4.5,3.6,1.2,7.3,1,11-.4,5.7-4.3,9.4-9.8,10.5-8.6,1.7-17.2,3.5-25.8,5.5-11.4,2.6-22.2.4-32.2-4.9-3-1.6-5.4-6.1-6.3-9.7a195.37,195.37,0,0,1-4-24.1q-5.25-46.35-10.1-92.7c-1.9-18.4-3.5-36.8-5.2-55.2a5.37,5.37,0,0,1,1.9-.4m1406.5,118.2c0,3.2-.2,6.4,0,9.5.2,3.3,1,6.6,1,9.9,0,8.5-3.1,12-11.4,13.8-7.9,1.7-15.8,4.2-23.8,5.3-16.9,2.3-34.2-3.5-39.1-22.6a212.42,212.42,0,0,1-5.8-32.8c-3.4-33.5-6.6-67-9.1-100.6q-3.75-49.2-5.8-98.6c-.7-16.2.5-32.5.8-48.8.1-3.3-.1-6.7-.3-10-.5-8.4.9-11.5,8.4-14.8a38.55,38.55,0,0,1,12.7-3.7c22.4-1.5,44.4-.4,64.8,10.5.7.3,1.3,1,1.9,1,13,1.6,13.9,10.6,13.9,21.1,0,20,1.5,39.9,1.1,59.9-.3,16.2-2.4,32.4-3.4,48.6-.3,4.5.6,9.1,1,15.5,3.6-2.3,5.8-3,6.9-4.6,10-13.7,20-27.4,29.7-41.3a185.86,185.86,0,0,0,13.2-21.8c10.1-20.3,26.6-35.5,41.4-51.9,4.4-4.9,11.9-7.2,18.3-9.9,6-2.5,10.8-5.6,14.4-11.4,5.9-9.7,12.6-12.2,23.5-9.9,2.2.5,4.4,1.8,6.4,1.6,12.4-1.3,20,8.1,29.3,13.4,7.4,4.3,6.7,12.1-.8,18-18.5,14.5-35.2,30.8-47.5,50.8a455.74,455.74,0,0,0-51.3,116.5c-5.1,18.4-4.3,37.4-.8,56.2,1.6,8.3,2.7,16.7,8.2,23.8,5.9,7.7,8.7,8.9,17.8,5.2,14.3-5.7,26.5-14.5,38.1-24.5a54.39,54.39,0,0,1,14-8.6c8.1-3.3,16.3-4.2,24.2,2,3.4,2.7,8,3.7,12,5.6,6.8,3.2,10.3,1.9,12-5.7a84.55,84.55,0,0,0,2.2-18.7c.2-25.2.5-50.3-.3-75.5-.8-27-2.4-54-4.2-81-1.2-18.1-3.3-36.1-5.1-54.2a33.82,33.82,0,0,1-.3-5.5c.3-11.8.8-23.6,1-35.4.2-12.8,2.7-16.4,15.5-16.2a156.9,156.9,0,0,1,58.2,12c5.6,2.3,10.2,7.4,14.6,11.7a12.94,12.94,0,0,1,3.2,8c.2,23.7.2,47.4-.2,71.1-.1,5.4-1.9,10.9-3,16.3-.6,2.9-2.2,5.8-2,8.6.2,3.4.8,7.6,2.9,9.9,3.2,3.5,6.8.5,9.7-1.8,8.7-6.9,18-13.2,25.7-21.1,18.3-18.8,35.8-38.4,53.4-57.7,3.5-3.8,6.1-8.3,9.4-12.3a11.91,11.91,0,0,1,12-4.2c11.5,2.2,23.1,4.4,34.6,6.9,2.8.6,5.4,2.4,7.9,4,8,5.4,9.2,11.1,3.2,18.5-13.7,16.9-27.9,33.2-45.4,46.8-12,9.4-24.2,19.2-32.4,33.1-4.4,7.5-11.1,14.2-18.1,19.3-18.7,13.6-31.6,32-44.4,50.6-9.6,13.9-5.5,22.9,3.1,33.1a44,44,0,0,0,29.6,15.8c26.5,3.2,53.1,4.3,79.7.8a43.6,43.6,0,0,1,24.9,3.7c4.3,2,8.8,3.6,13.5,5.5.8,7.5-4.4,9.9-9.7,11.2s-11,1.7-16.5,2.4c-9.5,1.3-19,2.8-28.5,3.8-4,.4-8.1-.4-12.1-.6-14-.7-28.1-.8-42.1-2.2-14.3-1.4-28.6-4-42.9-6.1-5.5-.8-11.1-1.1-16.5-2s-8.7,1.5-10.6,6a71.67,71.67,0,0,0-4.2,12.6c-2.9,14.1-5.6,28.3-8.2,42.4-2.3,12.2-5.7,15.6-18,17.1a131.17,131.17,0,0,1-16.6,1.4,44,44,0,0,1-13.1-1.6c-8.9-2.8-11.6-7.1-11.1-16.6.4-8.9,1.4-17.7,1.7-26.6.2-7.4-.2-7.7-5.6-14.4-1.8,1.6-4.1,2.9-5.4,4.9-5.9,8.9-14.4,14.9-23.6,19.8-14,7.6-28.1,15.1-44.2,17.3-3.3.4-6.6,1.1-9.9,1.2-16.3.2-32.7,1.4-48.9-.2a208.5,208.5,0,0,1-44.1-9.9c-8.1-2.7-14.8-9.4-22.2-14.2-3.2-2.1-6.5-4.1-9.8-6.2-.9.5-1.8,1.1-2.7,1.7m832.3-114c5.5-5.5,5.9-11.4,6.4-17.3,2.6-33.2,4.7-66.4,8-99.6,2.5-24.6,6.5-49.1,9.9-73.7.6-4.4,1.6-8.7,2.6-13.1,4.4-19.2,6.2-20.4,25.3-19,6.3.4,12.7-.4,18.8.7a32.51,32.51,0,0,1,13.7,6c4.5,3.6,8.2,8.5,11.3,13.5a11.86,11.86,0,0,1,1,9.2c-1.8,4.7-4.2,9.8-7.8,13.2-5,4.8-7.4,10.6-10.6,16.3-5.8,10.3-5.7,21.2-6.9,32.2-2.2,20.2-4.3,40.4-6.5,60.6-.3,2.5-.4,5.5-1.7,7.5-4.8,7.1-5.7,14.3-2.3,22.1-4.1,12.8,2,25.6.1,38.3-2.1,14.8-3.3,29.2.3,44,1.3,5.3-.4,11.7-2,17.3-2.2,7.6-2.9,14.8-1.2,22.8,1.9,9.3,1.5,19,2,28.6.7,14.2,4.1,27.8,8.5,41.2,4.9,15.1,3,20.5-10.1,28.9a164.9,164.9,0,0,1-17.5,9.6c-9.4,4.4-24-.1-31.3-10.3-4.3-5.9-7.2-12.8-10.4-19.4-7.4-14.9-13.7-30.4-22-44.7-13.5-23.3-28.2-45.9-42.5-68.8a64.36,64.36,0,0,0-6.5-9c-4.1-4.5-7.9-3.4-9.6,2.6a17.33,17.33,0,0,0-.7,5.5c.5,18.8.8,37.7,1.8,56.5.6,10.5-.3,12.8-10.2,16.5s-19.9,7.7-29.9,11.4c-7.9,2.9-16.3,3.5-24.4,6.8-6.9,2.9-16.6,2.8-23.8.4s-13.2-9.2-19.4-14.3a9.78,9.78,0,0,1-3.1-5.7c-1.8-12.3-6.6-24.4-1.6-37.1,1.6-4,1.5-8.7,1.6-13.2.2-11.5.6-23,.1-34.4-.3-6.9-1.9-13.9-3.4-20.7-1.7-7.9-1.9-15.1,3.2-22.2,6.4-8.9,8.8-19,9.1-30.2.8-27,2.7-53.9,4.3-80.9.7-11.3,5.4-19.7,16.9-23.5,2.6-.9,4.7-3.4,7.2-5,5.3-3.3,10.3-8.1,16-9.3,23.2-4.6,45.8-5.1,67.6,8.1,14.8,8.9,21.4,21.5,25.1,37.1,1.9,7.9,4.8,15.5,7.5,23.1,9.4,26.1,18.9,52.1,28.3,78.2,1.5,4.9,3.4,9.6,8.8,13.2m-2644-94.1c-10.5,5.2-12.8,13.2-16.1,20.5-7.1,15.8-12,32.3-17.6,48.7-1.8,5.1-1.8,10.3,1.9,13.2,2.9,2.3,8.3,2.6,12.3,1.9,6.1-1,12-3.4,17.9-5.5,7.2-2.6,12-7.4,11.8-15.5-.2-7.3-.7-14.7-1.6-21.9-1.2-9.5-2.9-18.9-4.7-28.3-.8-4.2-2.4-8.2-3.9-13.1m112.7,347.4c-8,7.9-18.8,11.7-31.9,7.6-4.4-1.4-7.2-3.3-8.3-7.7-.4-1.8-1.4-3.4-1.8-5.2-4.9-21.2-9.9-42.4-14.5-63.7-6.6-30.4-12.9-60.8-19.1-91.2-4.1-19.8-7.7-39.8-11.7-59.6a46,46,0,0,0-3.4-9.4c-2.6-5.6-7.7-8.1-13.6-6.5-6.8,1.9-13.3,4.4-20.1,6.3-8.5,2.3-17.1,4.4-25.7,6.3-18.3,4.1-26.6,17.7-31.4,33.8-7.6,25.2-15.8,50-30.4,72.2a18.29,18.29,0,0,0-2.1,3.9c-3.2,10.2-6.5,20.3-9.5,30.5-4.5,15-13.9,23.1-29.8,24.8-7,.7-13.9,1.4-20.9,2a28.27,28.27,0,0,1-7.7-.3c-6-1.3-7.6-3.5-6.1-9.4,3.8-14.7,7.5-29.4,12.1-43.8,7.2-22.5,15.3-44.8,22.9-67.1,2.7-8.1,5.5-16.1,7.7-24.3,2.9-11,1.5-14.2-7.9-20.4-2.4-1.6-4.5-3.4-8.4-6.4,7.2-2.7,12.8-5.4,18.6-6.7,8.2-1.8,13.1-6.8,15.7-14.1,6.4-17.3,12.2-34.8,18.6-52.2,11.9-32.6,24-65.1,35.9-97.7,6.3-17.4,12.1-34.9,18.5-52.2,2.9-8,7.1-15.5,10-23.4,2.3-6.2,3.5-12.7,5.1-19.2.6-2.5.8-5.1,1.4-7.6,3.5-15,10.3-22.6,25.3-23.8,18.4-1.4,37.1-1.5,54.8,5.1,5.4,2,10.4,5.5,15,9.1,5.8,4.5,7.8,10.8,7.8,18.4.1,16.6,1.2,33.1,0,49.8-1,13.1,2.7,26.4,3.6,39.7.6,8-.3,16.2-.4,24.3-.1,7.7-.4,15.4,0,23.1.7,14.7,2.2,29.4,2.6,44.2.3,11.1,5.9,17.2,17.4,18.3a68.27,68.27,0,0,1,17.2,4c7.1,2.6,7.7,7.9,1.7,12.2a68.89,68.89,0,0,1-10.7,5.8c-11.9,5.7-16.7,14.6-16,27.6.6,13.2.1,26.5.6,39.7.4,10.6,1.4,21.2,2.2,31.8.1,1.5.2,3,.3,4.4.6,15.1.3,30.3,1.9,45.3,1.2,11.3,5,22.3,7.4,33.5,3.1,14.4,6.2,28.8,9.1,43.2a41.71,41.71,0,0,1,.5,10c-.8,10.9-1.6,22.2-2.5,35m1429.5-311c.3,0,.6.1.9.1v7.8c0,3-.3,5.9-.1,8.9.6,10.7,5.5,13.5,14.1,7,9.9-7.6,20-15.5,28.1-24.9,7.1-8.2,13.7-17.4,15.3-29,.9-6.6-.7-12.2-6.9-14.8-10.9-4.5-21.8-9-33.1-12.1-7.6-2.1-11.1.9-12.2,8.7-2.3,16-4.1,32.2-6.1,48.3m-136.5,55.5c5.4-6.3,11.5-7.3,17.7-8.3,11.5-1.8,14.5-4.9,14.5-16.6,0-8.9-1-17.7-.9-26.6,0-9.6,1-19.2,1-28.8.1-14.8.4-29.6-.3-44.3-.5-10.3-4.9-13.2-15.8-10.8-25.2,5.6-50.7,4.5-76.1,2.7a44.15,44.15,0,0,1-11.9-2.4c-9.6-3.4-11.2-12.3-3.5-18.9a40.77,40.77,0,0,1,12.3-7.4c12.8-4.6,25.8-8.8,38.8-12.8,26.4-8,53.7-3.5,80.5-6.2,26.1-2.6,51.6,1.9,77.2,5.4,26.4,3.6,52.3,9.1,77.2,18.8,18.9,7.4,37.9,14.6,56.7,22.4a71.71,71.71,0,0,1,27.7,19.9c7.7,9.1,7.6,14.9.3,24.4q-9.15,11.85-17.4,24.3c-7.2,10.9-16.2,19.9-26,28.5-28.5,25-63.9,32.9-99,41.8-2.1.5-4.4.7-6.5,1.3-11.1,3.4-15.2,8.5-15.2,20.3,0,13.3.9,26.6,1,39.9.1,7.8-.7,15.5-1,23.3-.2,7.2-1,13.6-8.2,18.2-5.3,3.4-4.7,10.5-3.1,15.4,4.3,13-.8,25.6.1,38.4.5,7.3-4.5,12.2-12.1,11.3-14.1-1.7-26.9,2.6-40.3,5.2-16.3,3.2-27.3-5.4-29.2-22.2-1.5-14-2.6-28-3.1-42.1-1.1-28.8-1.8-57.7-2.5-86.5-.3-13-1.4-15-13.2-19.7-3.4-1.4-7.1-2.1-10.5-3.5-2.9-1.2-5.6-2.7-9.2-4.4m-177.7-196.7c-20.1,8.1-37.7,17.1-57.3,19.6-11.3,1.5-22.9.6-34.3,1.2-13.3.7-26.5,1.7-39.7,3-15.5,1.4-30.9,2.9-46.3,5.1-9.5,1.3-18.8,3.8-28.1,6.3-8.5,2.3-13.1,8.4-12.7,17.3.6,14.2,0,28-5.3,41.5-2.3,5.8.5,10.1,6.8,11.7a39.91,39.91,0,0,0,14.2.8c28-3.4,55.9-6.1,84.1-5.4,15.5.4,31.1,0,46.6.9,8.4.5,16.8,2.7,25,4.6,2.8.7,5.3,3,10.1,6-4.9,2.3-7.2,4-9.7,4.6a902.39,902.39,0,0,1-93.9,16c-24.2,2.8-48.2,7.3-72.2,11.5-12.3,2.1-14.3,4.3-15.4,16.3-.9,9.9-.8,19.9-1.1,29.9-.6,19.2-.6,38.4-1.7,57.5-.9,15.5.1,30.2,8.9,43.6,5.1,7.7,9.1,16.1,14.5,23.6,5.1,7.1,8.4,7.1,14.3,1a68,68,0,0,0,10.1-13.2,356.4,356.4,0,0,0,16.8-32.5c5.8-13.3,15.1-23.6,25.5-33.1,1.9-1.7,6.6-2.4,8.9-1.3,10.6,5.1,16.6,20,14.9,32.1-1.3,9-.8,18.3-1.7,27.4-.5,5-.9,10.6-3.4,14.8a151.66,151.66,0,0,1-28.8,36.5c-6.6,6.1-14.3,9-23.1,9.6-16.6,1.2-33.2,2.9-49.8,3.8-28.1,1.5-48.2-11.1-60.7-36.2a159.47,159.47,0,0,1-13.6-37.4c-3.1-14.1-8.5-27.6-11.2-41.8a648.41,648.41,0,0,1-11.6-114.7c-.3-24.4-1.4-48.8-2.3-73.2-.4-12.7-5.3-23.6-13.3-33.4-7-8.6-6.5-10.9,1-18.6a33.69,33.69,0,0,0,7.6-11.8c2.2-6.5,6-9.9,12.7-10.3,18.8-1.2,37.6-2.8,56.2,1.7,15.7,3.8,31.3,3.6,47.3.7,13.8-2.5,27.9-3.3,41.9-4.4,26.2-2,52.3-4.7,78.5-5.2,23.2-.4,46.8-.5,68.8,9.1,7.7,3.5,15.4,6.7,22.5,14.8m1625.4,247c-.9-6.2-1.9-12.4-2.7-18.6-1.8-13.5-8.2-25.2-13.6-37.4-4.4-9.9-9.7-18.9-18.6-25.8-8.1-6.3-10.3-6.4-14.5,2.9a121.36,121.36,0,0,0-9.8,67.2c2.4,18.4,10,34.8,23.8,47.7,10,9.3,16.5,8.7,24.6-2.5a54.14,54.14,0,0,0,10.8-33.5m-113.5-22.1c.5-35.9,12.6-67.9,29.9-98.8,15.6-27.8,33.3-54.2,54-78.2,10.7-12.4,21.8-25.1,36.4-33.7,5.7-3.4,10.7-3.9,16.7-1.2s12.4,4.6,18.6,6.7c8.8,2.9,12.6,9.4,9.3,18.1-1.8,4.7-5.3,8.8-8.2,12.9a12.3,12.3,0,0,1-4.3,3.5c-22.5,11.5-35.5,32.9-52.4,50.2-2,2-3.8,6.8-2.8,8.6,1.5,2.6,5.8,5.1,8.8,4.9,12.9-.8,25.8-2.4,38.6-4.2,32.3-4.5,64.6-8.3,97.2-8.7,18.8-.3,37.7-1.1,56.4.1,24.3,1.6,48.5,4.8,72.7,8,9.7,1.3,18.3,5.7,24.5,14s3.3,18-6.4,21.3a37.89,37.89,0,0,1-7.6,1.5c-1.8.2-3.8-.2-5.5.2-20.3,5.1-40.4-1.8-60.7-1.1-17.7.6-35.4-.6-53.1.2-31.4,1.4-62.9,1.3-93.9,7.5-6.1,1.2-12.4,1.9-18.5,3.1-8.8,1.7-10.8,5.8-7.4,14,5.5,13.7,11.4,27.3,16.2,41.3,5.9,17.1,5.1,34.8,3.3,52.7-1.3,12.8-5.3,23.8-14.5,32.6-18.7,17.8-41.2,27.8-67.1,27.3-8.5-.2-17.1-4.2-25.2-7.6-18.6-7.9-31.4-22.2-39.7-40.1-5.5-12-9.6-24.7-13.5-37.4-1.7-5.6-1.3-11.8-1.8-17.7m-358.4-154.5c-.6,23.7-2.1,47.3-1.5,71,.7,28.1,3.3,56.1,4.8,84.2a147.12,147.12,0,0,1-.1,21c-1.8,20.9,3.1,41.3,5.1,61.8.4,3.7,1.7,7.8.4,10.9-4.6,11.3-4.8,22.9-4.4,34.7.2,6-2.8,10.5-9.3,12.1a23.61,23.61,0,0,0-7.1,3.1c-10,6.4-19.1,3.4-27.9-2.5-4.8-3.2-5.8-8.2-6.5-13.5-3.6-27.1-7.7-54.2-10.9-81.3q-6.9-59.55-12.8-119.1c-.8-7.7.1-15.5.1-23.3,0-11.4-.4-22.9,0-34.3.8-19.6,1.2-39.3,3.7-58.6,2.5-19.7,8-18.4,23.4-15.6,12.3,2.2,24.8,6.7,35.1,15.5,5.2,4.5,8.2,9.3,8.3,16.1v17.8h-.4" fill="#231f20"/></svg>