<svg xmlns="http://www.w3.org/2000/svg" viewBox="0 0 4196.72 2058.77"><path d="M2433.07,330.29c-6.93,17.36-12.57,30.88-32.58,33.74-20.31,2.9-30.66-8.07-35.81-24.32-4.38-13.67-6.42-28.55-6.81-42.94-.52-16,6.32-28.84,24.47-31.52,17.61-2.57,33.12,3.33,40.16,19.2,6.32,14.22,7.29,30.53,10.57,45.84m777.24-39.85c15.63,16.68,30.47,12.6,38.19-8.67,11.4-31.09-1.93-54.48-24.74-77.1-41.33,9.75-47.23,19.57-32.63,55.26A104.61,104.61,0,0,0,3210.31,290.44Zm65.46,509.4c-2.26-20-8.12-39.85-8.32-59.86-.55-61.42.45-122.9,1.53-184.29.57-28.16-10.16-49.16-34.35-63.57-12-7.11-24.18-6-30.85,5.3-7.3,12.31-11.29,26.83-14.92,40.84-4.84,18.28-4.82,38.38-12.3,55.4-39.46,90.24-104.15,158.75-188.06,209-36.69,22-76.25,32.8-118.86,16.3-3.5-1.36-7.32-2.45-11.17-3.53a132.29,132.29,0,0,1-25-25.66c-19.37-25.69-29.65-57.68-32.37-100.7-1.77-28.34-.52-57.58.68-85.85l0-.27c.26-6.23.53-12.46.76-18.67l0-1c.68-17.08,1.37-34.73-10-51.51A32.54,32.54,0,0,0,2766,517.32a27,27,0,0,0-22.66,11.75l-.09.13A85.07,85.07,0,0,0,2736.9,541q-32.27,68.65-64.44,137.22l-4.67,10q-33.23,70.77-66.47,141.54a6.05,6.05,0,0,1-11.45-1.59l-2.08-12.69c-4.95-30.14-10.06-61.3-15.59-91.86-4.82-26.91-10.1-51-16.14-73.5-4.18-15.59-17.33-25.41-35.18-26.26s-34.72,11.89-39.76,30.18a71.18,71.18,0,0,0-1.88,13l0,.61c-6.77,78.52-41.94,152.07-73,217a6.05,6.05,0,0,1-10.76.31c-10.29-18.72-11.3-39.82-3.27-68.41,16.64-59.22,17.47-118.73,16.07-169.14-.45-13.56-4.94-29.17-12.62-43.91a33.58,33.58,0,0,0-30.4-18,32.31,32.31,0,0,0-28.89,17.83c-6.86,14-15.39,31.34-17.39,49.19q-1,8.87-2.1,17.77c-4,33.28-8.14,67.69-5.08,101.37,3.83,42.54-2.38,78.89-19,110.78-17.61,19.42-35.17,37.73-51.62,54.69a404.4,404.4,0,0,1-30.2,28.2c-6.95,5.8-13.74,11.88-20.31,17.76-23.74,21.28-46.17,41.39-75.8,48.3-17.09,4-36.48,2.87-51.49,1.46-4.31-.38-11.51-1.88-11.37-7.7.39-15.42,3.81-36,17.93-46.29,26.38-19.17,41.85-44.87,56.81-69.73,9.09-15.1,17.68-29.37,28.35-41.78,8.16-9.34,10.19-20.42,5.85-32.07-3.37-9.07-9.73-16.29-12.79-19.76l-.13-.15c-14.35-15.88-32.9-18.1-49.63-5.94-3.58,2.6-7.28,5.11-11.2,7.76-14,9.51-28.55,19.34-38.46,33.91-18,26.42-34.4,56.41-53.09,97.23l-.78,1.71c-4.82,10.55-9,19.65-16.39,25C1967.56,983,1956.62,991.18,1946,999c-26.47,19.67-53.84,40-81.82,57.85-46.7,29.66-91.25,39.81-136.19,31-26.11-5.09-46.27-19.34-59.94-42.35-21.52-36.38-30.67-70.75-28-105.07.89-11.55,1.15-23.07,1.39-34.22.23-10.17.46-20.68,1.19-30.84,1.49-21.27-3.16-39.7-14.22-56.35-5.88-8.82-14.11-14.32-23.14-15.46-8.36-1.06-16.68,1.68-23.42,7.71-15.26,13.67-22.65,26.61-22,38.44,1.68,31.1-6.15,60.57-14.45,91.8-4.08,15.35-8.3,31.22-11.3,47.39-3.37,18.41-8.19,36.13-12.46,51-2.67,9.21-5.89,18.65-9,27.79-5.34,15.64-10.86,31.8-14.29,48.62-5.07,24.89-13.2,57-31.27,85.31-4.21-16-3.59-31.88-2.94-48.58.33-8.3.66-16.89.34-25.58-1.16-24.89,1.91-49.9,5.16-76.47,1.3-10.56,2.63-21.48,3.67-32.34.54-5.83.95-11.71,1.34-17.39v-.13c1-15,2-29.09,5.32-42.34,9.14-36.94,20.48-73.43,33.28-113.91,5.89-19,3.33-36-7.84-52q-4.15-5.84-8.25-11.51l-8.75-12.17-8.35.29c-26.75.95-43.55,17-48.58,46.57-2.28,13.61-4.36,27.46-6.37,40.89-2.83,18.92-5.76,38.48-9.29,57.42-3.42,18.09-7.35,37.2-14.46,54.52-18.9,46.15-46.81,88.75-83,126.63-5,5.28-10,10.66-14.88,15.87l-.35.39c-11.91,12.78-24.23,26-36.88,38.21-25.41,24.43-49.75,37.91-76.63,42.41-17,2.89-31,1.59-42.83-4a61.36,61.36,0,0,1-2-13.7c-.56-39.55,4.3-71.36,15.31-100.09,1.78-4.58,3.75-9.27,5.66-13.8,4.2-10,8.54-20.29,11.61-31.19l.78-2.82c9.33-33.44,18.14-65,35.83-93.43,8.2-13.12,3.82-35.3,2.28-41.78-2.33-9.87-7.08-22.83-16.42-28.53-15.12-9.24-35.68-19.17-60.77-13.8a302.31,302.31,0,0,1-35.64,5.82c-10.85,1-22,1.68-32.73,2.34-13.24.8-26.93,1.64-40.51,3.08-36.32,4-73.83,16.18-114.69,37.27a252.25,252.25,0,0,0-83.07,68.74l-1.89,2.42c-9.31,12-9.58,11.83-16.55,7.77l-15.61-9.11-4.32,17.55c-1.19,4.83-2.26,9.45-3.31,14-2.09,9-4,17.45-6.49,25.48l-3.78,12.35c-13.06,42.75-26.53,86.82-40.52,130.2-16.3,11.18-32.71,22-47.66,31.89l-4.42,2.92c-53.79,35.48-113.26,70-183.71,82.29-16.15,2.86-30.6-.84-42.93-11-4.07-3.36-7.91-10.87-7.61-14.89,3.39-36.79,13-66.27,29.37-90.2,15.72-23.1,33.41-45.75,50.53-67.66l.22-.29c5.13-6.57,10.44-13.36,15.57-20,10.37-13.3,19.58-30.16,9.45-54.42-5.21-12.46-14.92-35.66-45.15-30.64l-.51.09-.52,0a9.86,9.86,0,0,1-4.16-1.54c-14.56-10-28.86-8.17-43.43-5.22-.69.15-1.41.28-2.15.41-4.42,4.91-9.15,10.14-14.06,15.42-8.38,9-58.7,62.88-64.52,68.48-9.55,9.23-19.05,18.77-28.23,28-22.38,22.48-45.46,45.66-70.69,65.81-37.32,29.79-64.76,69.66-89.67,107.94-14.29,21.92-12.43,43.77,5.69,66.82C214,1357,239,1367.73,259.23,1358.59c25.66-11.57,45.67-22.61,63-34.76C338.47,1312.34,354,1299.46,369,1287c7.53-6.26,15.32-12.72,23.14-19l4.75-3.78,1.6,5.85c.23.83.5,1.64.79,2.42l.07.17c2.15,5.4,4.11,10.9,6.18,16.73,5.65,15.91,11.47,32.27,21.42,46,3.87,5.34,16.1,18.35,46.26,23.81,24.17,4.58,43.36,3.73,57.07-2.53,50.38-23,93.19-45.66,130.86-69.14,15.57-9.65,30.14-21,44.23-32.28-7.07,17.49-6.38,33.22,11.55,49.66,5.53,5.12,11.42,8.46,17.32,9.91a26.76,26.76,0,0,0,13.51-.08c5.77-1.57,16.22-6.74,21.34-23.7q4-13.22,8-26.47c12-39.79,24.43-80.93,35.73-121.65,16.28-58.47,43.44-105.94,83-145.11,23.88-23.64,45.68-38.41,68.59-46.49,5.34-1.88,10.62-3.84,15.73-5.72,23.54-8.7,45.78-16.92,69.6-17.6a20,20,0,0,0,4.67-.68,93.76,93.76,0,0,0,15.43-.63c2.21-.21,4.29-.42,6.28-.54l-.69,1-.48.66c-7.77,10.63-15.11,20.67-22.77,30.63-8.14,10.62-16.45,21.23-24.49,31.5-16.3,20.82-33.16,42.36-48.89,64.28-14.72,20.36-27.12,42.52-38,62.08q-2,3.47-3.91,6.93c-11.55,20.37-23.48,41.45-27.84,66.55-4.43,25.7,2.11,48.68,17.95,63.06,15.64,14.19,37.72,18.32,62.19,11.62,18.48-5.08,43.81-12,60.79-34.74,10.53-13.93,22.75-27.26,34.58-40.16l3.82-4.18c.4-.42.78-.85,1.14-1.27,2.15,13.34,4.29,26,7.68,38.9,1.55,5.75,4.32,10.59,7.25,15.72.48.83,1,1.66,1.43,2.51l.29.51.42.41c7.68,7.39,16.35,15.44,21.93,17.35,16.69,5.7,73.9,12.7,86.27,6.45a473.09,473.09,0,0,0,44.76-25.89c2.81-1.71,5.59-3.5,8.25-5.32a27.4,27.4,0,0,1,6.27-3.18l.45-.16.4-.26c5.41-3.53,10.77-7.33,15.94-11.28l.12-.1c2.67-2.21,5.49-4.66,8.62-7.48,12.6-9.16,23.49-20,34-30.45,5-5,10.13-10.07,15.32-14.85,16.3-15.18,34.42-32.06,47.66-53.91q.12,3.09.22,6.15l0,1.19c1.18,32.64,2.39,66.39,1.32,99.23-1,30.69,14.14,55,45,72.15,21.1,11.79,42.94,8.07,57-9.69q2.73-3.45,5.49-6.88l.11-.13c16.36-20.43,33.27-41.55,40.42-70.19,8-32.33,17-65.12,25.77-96.83,6.31-22.9,13.21-46.78,21-72.71,1.42,3.11,2.83,6.22,4.22,9.3,8.55,18.91,17.39,38.46,28.49,56.83,15.4,25.52,40.76,45.71,71.41,56.85,32.7,11.89,68.07,12.51,102.29,1.79,39.14-12.29,79.87-28.35,112.67-62.41l.23-.11.28-.15c29.29-15.42,52.7-34.1,71.37-57,.22,1.42.48,3,.88,4.7,6.46,28.36,27.6,51.84,58,64.43,33.41,13.84,70.42,11.35,99-6.65,42.15-26.54,76.2-50.77,105.41-82.76A211,211,0,0,0,2279,975.64c7.07-8,13.41-15,17.3-18.19,1.8-1.5,4.72-6,7.4-10.48a173.21,173.21,0,0,0,22.59-12.36,96.6,96.6,0,0,1,5.69,10.46c1.05,2.14,2.07,4.19,3,5.88a5.57,5.57,0,0,1,2.59,2.14c7.31,11.63,15.65,20.49,25.49,27.08,13.94,9.34,30.77,13.68,50,12.9l3.49-.14,2.19-2.72c2.2-2.74,4.6-5.38,7.14-8.18,6.19-6.82,12.58-13.88,16.29-22.61,13.09-30.84,25.49-63.27,37.88-99.14,2.39-6.9,4.51-14,6.56-20.79,4.5-15,8.76-29.17,15.76-43.13a6.06,6.06,0,0,1,11.37,1.59c6.94,37.29,13.49,72.47,12,108.26-1.61,36.77,9.82,66.18,35.95,92.6l4.53,4.57,5.31-3.64c3.66-2.52,7.47-4.74,11.52-7.08,9.28-5.39,18.88-11,24.82-19.79,10.47-15.67,18.09-33.25,25.46-50.25,1.71-4,3.46-8,5.22-12,5-11.27,9.72-22.85,14.25-34l.08-.19c3.8-9.41,7.74-19.13,11.85-28.61,18.62-43.18,36.89-85.43,55.73-127.44a6.06,6.06,0,0,1,11.34.79l6.87,23.57c4.69,16.11,9.13,31.35,13.54,46.58,12.38,42.55,41.28,74.85,88.34,98.72a156.82,156.82,0,0,0,28,10.9c8.26,3.84,16.47,6.11,24,5.84q3.9-.13,7.74-.35a177,177,0,0,0,41.58-2.13c22.79-3.8,42.65-11.12,55.61-16.28,5.92-2.36,12-4.72,17.84-7l.18-.07c4.72-1.84,61.18-40.43,86.2-60.94,16.39-13.44,30.84-29.61,48.42-41.27,23.69-15.67,41.39-7.58,51.93,18.83a106,106,0,0,0,17.87,29.05c9.15,10.58,20.13,19.57,36.16,12.42C3271.42,832.13,3278.1,820.24,3275.77,799.84ZM438.65,1108.77c-7.64,26.81-30.17,61.23-60.27,92.07-27.26,27.93-57.63,50.35-85.49,63.13l-15.48,7.1,10.7-13.25c5.29-6.55,10.11-13.46,14.77-20.14,6.74-9.67,13.08-18.75,20.69-26.88l.11-.12c1.84-1.8,3.58-3.4,5.34-4.89,22.14-18.68,43.57-39.14,62.48-57.19,5.19-4.94,9.24-10.43,13.15-15.74,2-2.67,3.77-5.13,5.72-7.53,7.78-9.67,14.6-17,22.56-21.19l8.29-4.38ZM1130.81,963c-11.31,41.71-24.11,89-47.76,130.38h0c-10.64,18.64-25.53,36.08-40,52.15s-31.31,30.84-47.36,44.64c-10.74,9.28-19.48,12.3-28.68,9.92a30.41,30.41,0,0,1,3.4-16.75c26.68-54.11,57.7-110.6,103.67-157.11,14.66-14.75,27.83-30.92,40.58-46.58q3.36-4.14,6.7-8.23a44.37,44.37,0,0,1,9.66-9.09C1130.92,962.59,1130.86,962.81,1130.81,963Z" fill="#231f20"/></svg>
