<?xml version="1.0" encoding="utf-8"?>
<!-- Generator: Adobe Illustrator 21.1.0, SVG Export Plug-In . SVG Version: 6.00 Build 0)  -->
<svg version="1.1" id="Layer_1" xmlns="http://www.w3.org/2000/svg" xmlns:xlink="http://www.w3.org/1999/xlink" x="0px" y="0px"
	 viewBox="0 0 4685 2545.6" style="enable-background:new 0 0 4685 2545.6;" xml:space="preserve">
<style type="text/css">
	.st0{fill:#FFFFFF;}
</style>
<title>breadpudding</title>
<path d="M855.9,1110.7c109.9-146.3,257.9-223.8,455.2-129.3c6.9-7.5,13.6-16.4,21.9-23.3c14.3-12.1,33.3-12.2,45.4-1.8
	c12.6,10.9,12.8,20.8,3.1,41.3c-48.9,103.1-86.5,209.6-90.7,324.9c-1.1,30.6,2.6,61.8,8,92c8.8,49.4,42.2,80.8,83.3,79
	c20.6-0.9,42.2-4.2,61.2-11.7c90.5-36,159.2-98.9,217.8-175.8c58.7-77,92-164.6,118.8-255.9c5.3-17.9,10.6-36,18-53.1
	c9.1-21,28.3-29.4,45-22c16.9,7.5,23.5,26.5,14.9,48.1c-32.5,82.1-54.5,167-71,253.6c-4.3,22.6-11.8,44.6-16.8,67.1
	c-2.7,12.3-3.3,25.1,0.2,39.6c5.1-6.5,12.1-12.3,15.1-19.7c28.4-68.3,67.2-130.7,104.5-194.2c39.1-66.8,85.8-127.5,135.7-185.9
	c21.3-24.9,45-48.4,76.6-61.5c17.2-7.2,33.4-4.9,45.1,7.2c12.1,12.6,8.6,24.8,1.8,39.1c-33.6,70.5-64,142.3-84.3,218
	c-24,89.5-40,179.9-32.2,273.1c0.7,8.8,1.3,17.7,3.5,26.2c9.3,35.7,36.7,70.4,87,62.7c20.4-3.1,41.4-7.2,60.3-15.1
	c52.9-22.2,101.6-51.8,146-88.6c21-17.4,24.9-41.3,27.8-64.9c7.7-64.8,34-122.9,65.4-178.2c20.4-36,46.8-69.4,75.4-99.4
	c15.7-16.5,40.3-27.4,62.9-33.9c50.4-14.5,79.8,3.1,103.6,56.7c-38.2,71.8-88.6,135.2-143,195.9c-31.4,35.1-61.8,71.1-93.1,106.3
	c-10.1,11.4-15.1,23.2-13.3,38.9c3,27.8,9.7,53.5,26.1,77.2c24.5,35.3,56.2,51.6,98.9,44c67.2-12,127.8-37.8,181.4-81.4
	c69.6-56.7,120.1-128.2,162.8-205.3c27-48.7,48-101,69.4-152.6c8.3-20,9.8-42.7,15.4-63.9c2.2-8.4,5.8-16.8,10.7-23.9
	c13.6-19.6,27-23,44.5-12.8c22.4,13.1,27.2,25.8,18.3,48.3c-20.7,52.5-33.4,107.1-40,163c-7.8,65.5-13.5,131.3-21.1,196.8
	c-3.1,26.7-2.1,52.2,6.6,78c3.9,11.7,5,26.9,0.9,38.2c-5.3,14.7-18.7,24.2-36.6,22.7c-19.1-1.6-33.5-12.1-35.2-33.1
	c-2.6-32.8-2.4-65.9-1.2-98.8c1.2-33,5.1-65.8,7.6-98.8c0.2-2-1.3-4.1-3.2-9.7c-5.9,5.8-11.9,9.8-15.2,15.3
	c-31.3,52-69.1,98.8-109.2,144.3c-28.4,32.1-62.3,56.9-98.4,76.8c-50.9,28.1-104.9,51.5-165.2,51.8
	c-98.7,0.6-142.7-45.4-170.2-113.8c-3.2-7.9-6.3-15.8-10.7-26.8c-12.4,6.6-23.1,11.7-33.1,17.7c-28.4,16.9-56.6,33.9-84.7,51.2
	c-38.8,23.9-83.2,30.2-126.5,33.6c-66.6,5.3-123.5-45-134.9-110.4c-9.5-54.1-4.3-107.8,5-160.7c12.1-69.2,27.4-137.8,43.7-206.2
	c6.7-28.3,19.6-55.2,27.3-84.1c-24.3,14.7-40.9,36.3-55.1,58.6c-39.5,62.1-78.8,124.5-114.6,188.7c-44.5,79.7-81.7,163.2-113.1,249
	c-11.3,31-21.6,62.3-33.4,93.1c-5.1,13.3-11.8,26.1-19.4,38.1c-9,14.3-23.4,19.3-40.1,18.1c-20.1-1.4-29.6-10-26.1-29.4
	c8.9-49.7,19.6-99.1,29.7-148.5c11.2-54.5,22.6-109,34-163.5c-2.3-1.2-4.6-2.5-6.9-3.7c-9.4,9.9-19.4,19.3-28.1,29.8
	c-56.1,67-123.1,119.4-204.5,152.4c-47.2,19.2-95.2,24.9-144.8,9.1c-30-9.6-53.7-27.6-65.6-56.2c-11.3-27.1-17.6-56.4-25.7-84.8
	c-2.5-9-3.6-18.4-6.8-35.1c-10.3,12.9-16.7,19.7-21.6,27.4c-32.6,50.9-63.6,102.9-97.9,152.6c-19.3,27.9-42.5,53.6-66.8,77.4
	c-22.3,21.9-49.8,36.1-83.2,33.3c-24.7-2.1-38.8-12.2-44.2-36.7c-3-13.6-4.4-28.8-1.7-42.3c10-49.7,26.9-97.4,49.3-142.7
	c33.5-68.1,70.1-134.5,114.2-196.6c32.4-45.6,63.1-92.3,96.8-136.9c19.7-26,43.8-48.8,68-75.3c-39.8-25.8-81.7-32.9-125.9-28
	c-76.7,8.6-135.6,47.8-181.4,108.5c-10.6,14.1-22.4,27.4-31.9,42.1c-22.9,35.3-38.3,73.2-45.7,115.4c-8.2,46.2-25.2,90.7-33.7,136.8
	c-12.3,67-20.5,134.7-30.3,202.1c-2.4,16.3-3.8,32.8-6.4,49.1c-2.4,15.1-10.1,27-25.7,31.2c-25.6,7-43-6.6-43.4-33.7
	c-0.3-26.1-0.1-52.3-0.1-83c-9.2,5.4-15.4,7.5-19.5,11.6c-29.2,28.8-61.6,53.2-98.3,71.6c-32.8,16.4-66.6,26.4-104.4,23
	c-52.2-4.8-84.1-35.1-105.5-79.1c-18.5-38-29-78.2-28-121c0.3-11.7-1.3-23.5-2.5-43.4c-8.7,10.9-13.1,14.8-15.4,19.6
	c-34.9,74.6-80.1,141.7-143,195.7c-26.3,22.6-56.1,39.1-89.9,46c-48.6,9.9-87.9-17.9-101.9-66.1c-10.6-36.4-8-72.3-0.5-107.9
	c26.7-127.3,76.3-245.6,145.4-355.5c33.9-53.9,68.4-107.7,105.7-159.3c30.5-42.3,70.1-74.4,118.9-96.6c41.6-18.9,77,3.1,95.5,37.6
	c15.4,28.7,15.6,60,11.6,90.4c-5.4,42-11,83.3-31.3,123.4c-25.2,49.9-37.6,106.3-39.7,162.6c-2.1,57.1,0.3,114.6,5,171.5
	c2.3,27.8,11.9,55.9,22.7,82c19.1,46.2,63.9,62.1,109.4,42.4c64-27.6,116.2-70.3,159.6-124.4c13.5-16.8,20.8-35.3,22.7-57.2
	c7.8-89.8,15.8-179.6,25.7-269.2c3.9-35.9,12.4-71.3,19.7-106.8c3.4-16.7,18.1-28.1,32.2-27.7c17.5,0.5,27.1,8,32.2,27.3
	c3.1,11.6,3.7,23.9,6.1,35.7C849.4,1092.3,852.2,1099.2,855.9,1110.7z M51,1534.5c1.3,0.2,2.5,0.5,3.8,0.7c0,14.3-0.1,28.6,0.1,42.9
	c0.1,4.4,0.7,8.8,1.7,13.1c7.4,33.3,26.7,44.4,60.5,37.5c30.2-6.2,50.1-26.6,70.1-46.9c46.6-47.4,82.6-101.9,111.5-162
	c35.2-72.9,62.8-147.5,72.1-228.5c8.4-73.3,23.5-145.2,53.2-213.4c9.9-22.6-9.5-45.4-34.2-41.3c-8.3,1.4-16.4,6.1-23.6,10.8
	c-35.6,23.1-62.1,55.2-88.4,87.9c-60.4,75.2-106,159.2-146.4,245.8c-25.4,54.5-43.5,112.6-62.5,170C59.9,1478,56.8,1506.7,51,1534.5
	z M976.4,1589.2c50.3-18.2,134.7-134.6,222-304.4c41.6-80.9,73.4-176.6,66.2-203.5c-6.5,4.8-13.3,8.3-18,13.6
	c-28.2,31.9-58,62.8-83.5,96.8c-72.7,97-132.5,201.5-175.6,315C977.7,1532.7,967.9,1559.8,976.4,1589.2z M2435,1334.1
	c2.8-0.7,6.9-0.5,8.4-2.4c46.1-56.9,92.3-113.8,137.5-171.5c5.8-7.5,6.2-19.3,9.3-29.7c-28.6-3.2-29.1-3.8-47.6,13.2
	c-54.9,50.2-86.9,114.4-110,183.7C2432,1328.9,2433.9,1331.2,2435,1334.1z"/>
<path d="M3397.4,1109.7c-10.1,18.8-23.3,36.7-29.8,56.6c-15.3,46.9-28.6,94.7-40.7,142.5c-17.8,70.1-33,140.9-51,210.9
	c-11.7,45.6-32.1,52.3-72,25.5c0-11.2-0.9-23.3,0.2-35.1c6-64.5,10.3-129.3,19.4-193.4c11.1-78.3,24.6-156.3,40.8-233.7
	c6.6-31.8,22.5-61.8,34.8-92.4c2.8-7,7-14.1,12.2-19.4c15-15.2,36.1-11.3,40.8,9.3c3.2,14,1,30.4-2.8,44.7
	c-6.5,24.3-16.5,47.6-24.1,71.6c-2.7,8.6-2.7,18.1,0.8,28.5c17.3-30.1,32.9-61.4,52.4-90.1c19.5-28.8,37.7-59.6,69.4-78
	c10.6-6.1,20.8-13.5,33.3-4.3c12.7,9.3,24.8,19.1,20.8,37.7c-2.8,12.8-4.5,26-8.2,38.5c-23.3,78.4-39.7,157.9-41.2,239.9
	c-0.8,44.3,4.9,87.4,21.5,129.3c23.6,59.3,72.2,94.9,135.7,97.3c63.7,2.4,120.4-16.6,175.3-48.2c82.3-47.4,144.9-113.9,194.9-192.6
	c16.1-25.3,25.9-55.8,33.1-85.2c11-45,21.8-89.6,44.3-130.6c4.6-8.4,6-18.8,8.4-28.3c5.4-21.6,19.7-33.3,40.7-38.6
	c21.5-5.4,40.8,8.5,39.7,30.2c-0.5,9.8-2.2,20-5.5,29.1c-20.4,55.6-41.6,110.9-62.4,166.3c-3.5,9.2-7.9,18.3-9.7,27.9
	c-15.3,81.1-28.9,162.6-23.7,245.6c2,31.5,8.1,62.7,12,92.3c34.8,8.5,41.3,16.3,41.3,44.7c0,21.9-13.1,39.5-32.6,44.1
	c-20.5,4.8-46.1-6.4-55.5-26.7c-7.4-15.8-14.2-32.6-17.3-49.7c-11.1-61.8-20.9-123.8-9.4-186.8c1-5.3,0.6-11,0.1-16.4
	c-0.3-3-2.3-5.9-5.6-13.8c-9.2,7.8-17.7,13.6-24.4,21c-50.5,56.3-109.7,102.2-177.7,134.4c-73.3,34.7-151.7,48.2-231.2,24.9
	c-74.2-21.7-118.6-74-141.1-148.1c-22.2-73.2-11.3-146-4.9-219.3c1.7-19.5,4.2-39,6.4-58.5C3402.4,1112.2,3399.9,1111,3397.4,1109.7
	z"/>
<path d="M4200.3,739.4c-0.5,15-22.6,39.4-34.9,38.5c-20.5-1.4-49.2-34-48.8-55.5c0.2-16.5,14.6-28.3,34-27.9
	C4172.3,695.1,4200.9,720.9,4200.3,739.4z"/>
<path d="M3012.2,888.4c-21.1-0.1-44.5-16.8-44.2-31.6c0.3-14,18.4-28.3,35.4-28c19.1,0.3,34.6,17.2,33.8,36.7
	C3036.5,882.4,3030,888.4,3012.2,888.4z"/>
<path class="st0" d="M51,1534.5c5.7-27.8,8.9-56.5,17.8-83.4c19-57.3,37.1-115.4,62.5-170c40.4-86.6,86-170.6,146.4-245.8
	c26.3-32.8,52.9-64.8,88.4-87.9c7.2-4.7,15.4-9.5,23.6-10.8c24.7-4.1,44,18.7,34.2,41.3c-29.8,68.2-44.8,140.1-53.2,213.4
	c-9.3,81-36.9,155.6-72.1,228.5c-28.9,60-64.9,114.6-111.5,162c-20,20.3-39.9,40.8-70.1,46.9c-33.8,6.9-53.1-4.2-60.5-37.5
	c-1-4.3-1.6-8.7-1.7-13.1c-0.2-14.3-0.1-28.6-0.1-42.9C53.6,1535,52.3,1534.7,51,1534.5z"/>
<path class="st0" d="M976.4,1589.2c-8.5-29.4,1.3-56.5,11.1-82.4c43-113.6,102.9-218.1,175.6-315c25.5-34,55.3-64.9,83.5-96.8
	c4.7-5.3,11.5-8.8,18-13.6c7.2,26.9-24.6,122.6-66.2,203.5C1111.1,1454.6,1026.7,1571,976.4,1589.2z"/>
<path class="st0" d="M2435,1334.1c-1.1-2.8-3-5.1-2.5-6.7c23-69.4,55.1-133.5,110-183.7c18.5-17,19.1-16.4,47.6-13.2
	c-3.1,10.5-3.4,22.3-9.3,29.7c-45.2,57.7-91.3,114.6-137.5,171.5C2441.9,1333.5,2437.8,1333.3,2435,1334.1z"/>
</svg>
