<?xml version="1.0" encoding="utf-8"?>
<!-- Generator: Adobe Illustrator 21.1.0, SVG Export Plug-In . SVG Version: 6.00 Build 0)  -->
<svg version="1.1" id="Layer_1" xmlns="http://www.w3.org/2000/svg" xmlns:xlink="http://www.w3.org/1999/xlink" x="0px" y="0px"
	 viewBox="0 0 7343.4 7343.1" style="enable-background:new 0 0 7343.4 7343.1;" xml:space="preserve">
<style type="text/css">
	.st0{fill:#231F20;}
	.st1{fill:#FFFFFF;}
	.st2{clip-path:url(#SVGID_2_);fill:#BBBDBF;}
	.st3{clip-path:url(#SVGID_2_);fill:#F1F1F2;}
	.st4{clip-path:url(#SVGID_2_);fill:#D6DE23;}
	.st5{clip-path:url(#SVGID_2_);fill:#A3B7D6;}
	.st6{clip-path:url(#SVGID_2_);fill:#231F20;}
	.st7{clip-path:url(#SVGID_2_);fill:#D91C5C;}
</style>
<path class="st0" d="M7793.3,4894.8c-0.1-0.9-0.3-1.7-0.1-1.8c0.8-0.5,1.6-0.8,2.5-1.2c0.1,0.6,0.5,1.7,0.3,1.8
	C7795.2,4894.2,7794.2,4894.4,7793.3,4894.8"/>
<path class="st0" d="M7811.6,4880.2c-0.7,0-1.2,0.1-1.6,0.1c0.2-0.6,0.3-1.3,0.6-1.7c0.2-0.2,0.9-0.1,1.3-0.1
	C7811.8,4879,7811.7,4879.6,7811.6,4880.2"/>
<path class="st0" d="M7803.1,4885.1c-0.4-0.2-0.8-0.3-1.2-0.4c0.2-0.5,0.4-1,0.6-1.5c0.3,0.3,0.8,0.5,0.9,0.8
	C7803.6,4884.2,7803.3,4884.7,7803.1,4885.1"/>
<path class="st0" d="M7785.8,4903.7c-0.1,0.2-0.3,0.3-0.4,0.5c-0.3-0.3-0.5-0.6-0.8-0.9c0,0,0.3-0.3,0.4-0.4
	C7785.2,4903.2,7785.5,4903.4,7785.8,4903.7"/>
<path class="st0" d="M7779.4,4909.2c0.1-0.2,0.3-0.3,0.4-0.5c0.1,0.3,0.2,0.6,0.3,1c-0.2,0.1-0.4,0.1-0.6,0.2
	C7779.5,4909.6,7779.5,4909.4,7779.4,4909.2"/>
<path class="st0" d="M5541.2,798.6c2.4,3.2,1.9,6.1,0.8,9.2C5537.1,804.6,5536.9,803,5541.2,798.6"/>
<path class="st0" d="M5996.5,587.2c4.7-3.7,5.7-3.4,9.9,2.8c-2.6,0.7-3.4-1.8-5-2.4C5999.9,587.1,5998.2,587.3,5996.5,587.2"/>
<path class="st0" d="M5414,468.1c-0.6-1.4-1.1-2.8-2-5c3.6,0.9,3.1,2.8,3.2,4.4C5414.8,467.7,5414.4,467.9,5414,468.1"/>
<path class="st0" d="M9677,3514.1c2.4,3.2,1.9,6.1,0.8,9.3C9672.9,3520.2,9672.7,3518.6,9677,3514.1"/>
<g>
	<path d="M1935.4,1803.2c-15.3,4.8-30.2,9.6-45.2,14.2c-17.6,5.3-35.2,10.4-52.8,15.7c-18.7,5.7-37.2,11.6-55.9,17.2
		c-15.9,4.8-31.9,9.7-48,13.7c-8.4,2.1-11.6,6.3-11.1,14.8c1,15.4,1.8,30.9,1.9,46.3c0.1,29-0.5,57.9-0.5,86.9
		c0,18.5,0.9,37,1.2,55.5c0.1,3.9-0.4,7.8-0.6,11.7c-0.9,0-1.7-0.1-2.6-0.1c-2.2-28-4.5-56-6.7-84c-0.7-0.2-1.4-0.4-2.1-0.6
		c-1.1,5.3-3,10.5-3.1,15.8c-0.4,29-1,58-0.2,87c0.9,35.4,3.4,70.7,4.6,106.1c1.2,33.6,1.3,67.3,2.7,100.9
		c0.3,7.8-0.4,14.2-3.4,21.7c-3.1,7.5-2.2,17.5-0.5,25.8c2,9.9,4.7,18.5,0.6,29.2c-2.2,5.7,2.9,14.5,5.3,21.7
		c1.1,3.2,3.7,5.9,7.6,11.7c-11.5,2.8-21.7,5.1-31.7,7.9c-6.6,1.8-12.8,4.9-19.3,6.8c-18.1,5.2-34.7,14.8-55.1,12.3
		c-27.7-3.4-39.2-20.8-46.5-45.2c-9.6-32.2-11.9-65.2-15.2-98c-3.6-35.5-3.6-71.3-5.3-107c-1-20.9-2.3-41.7-3.2-62.6
		c-1.5-38.4-2.8-76.8-4.3-115.2c0-1.3-1-2.5-2.3-5.6c-13.2,8.3-25.2,17.2-38.3,23.9c-10.1,5.2-21.6,7.6-32.5,11.2
		c-17.2,5.7-34.5,11.3-51.7,16.9c-17.1,5.6-34.2,11.3-51.4,16.6c-39.4,12.2-78.6,24.9-118.2,36.1c-18.4,5.2-37.7,7.1-56.6,10.8
		c-10.2,2-20.4,4.1-30.3,7.3c-2.2,0.7-4.2,6.8-3.7,9.9c4.9,28.7,10.4,57.4,15.8,86.1c1.2,6.2,3.4,12.2,3.8,18.4
		c0.3,4.6,4.3,10.4-4.4,14.1c-2.3,1-0.3,14.3,1.4,21.5c5.2,22.4,11.2,44.6,16.9,66.8c0.8,3.1,1.2,6.2,2.3,9.2
		c9.9,26.6,14.3,54.3,16.1,82.5c1,15.2-13,24.7-27.7,22.6c-6.8-1-14.5,3.5-21.6,6.1c-3.1,1.2-5.3,5.2-8.4,6.1
		c-14.1,4.1-27.1,9.8-39.3,18.5c-6.4,4.6-15.9,5.5-24.1,6.7c-14.8,2.1-35.8-12.7-39.9-27.4c-12.8-46.7-26.7-93.2-37.7-140.3
		c-6.4-27.4-8.1-55.9-12.4-83.9c-3.9-25.5-11.5-50.9-11.8-76.5c-0.3-21-13.1-26.7-26.1-36.1c-9.5-6.8-16.6-16.9-24.8-25.5
		c0.6-1,1.1-2,1.7-3c-3.9,1.3-8,2.1-11.6,3.9c-19,9.5-38.1,18.8-56.6,29.1c-14.5,8.1-28.2,17.7-42.1,26.7c-1.1,0.7-2.5,2.1-2.5,3.2
		c-0.8,19-10.6,39.3,8,55.6c1.9,1.7,2.8,4.9,3.3,7.5c5.4,25.3,10.7,50.5,16,75.8c0.3,1.3,0.7,3.3,0,4.1c-12.2,16,1.5,30.5,2.8,45.7
		c0.7,8.6,6.4,16,1.5,26.1c-2.4,5,3.9,14,5.4,21.3c4.6,22.9,7.7,46.2,13.5,68.8c4.7,18.1,13.2,35.3,18.5,53.3
		c4.2,14.5,13.7,27.2,12.6,43.8c-0.5,7.6,4.6,15.8,7.7,23.4c4.9,11.9,0.9,17-11.1,20.6c-12,3.6-23.3,10.1-34.2,16.6
		c-15,9-30.5,14.2-48.3,14.2c-27.7,0-36.1-20.2-44.1-40.5c-13.2-33.8-26.7-67.6-38-102c-10.5-32.1-18.4-65-27.3-97.6
		c-9.2-33.6-18.4-67.2-27.1-101c-3-11.8-4.7-23.9-7-35.8c-0.5-2.4-0.9-4.9-1.7-7.2c-5.2-13.8-5.2-13.6-19-8.1
		c-25.5,10.2-51.2,19.9-76.7,30.3c-10,4.1-16.3,11.2-18.3,23c-4.7,27.1-11,53.8-16.4,80.8c-2.7,13.3-4.7,26.8-7.1,40.1
		c-0.5,2.7-1.6,5.2-2.8,9c-3-2.5-5.2-4.4-7.6-6.4c-0.8,0.5-2.1,0.8-2.4,1.5c-1.4,3.2-2.9,6.4-3.6,9.7c-4.3,21.5-8.8,43-12.3,64.6
		c-3.6,22.4-6.1,45-9.2,67.5c-1.9,13.7-5.1,27.2-15.7,37.1c-3.6,3.3-8.7,5-13.2,7.4c-7.4,3.9-15.5,6.9-22.1,11.9
		c-10.6,8.1-21.2,10.5-34.3,7.4c-28.9-6.7-36.6-20.4-35.5-47.2c2.1-49.5,11.8-97.8,19.2-146.6c4.2-27.3,6.1-54.9,9.9-82.2
		c1.2-8.2,5.2-16.1,8.3-25.2c-5.5-1.1-9.5-2.9-13.4-2.5c-21.1,2.2-35.5-9.6-48.1-23.6c-14.7-16.2-7.8-37.5,12.8-43.6
		c18.9-5.6,37.7-11.4,56.5-17.4c9.6-3,16.1-8.7,18.5-19.4c6.4-28.6,13.4-57.1,20.6-85.4c2.7-10.7,6.8-21.1,10.1-31.8
		c8.8-28.7,17.2-57.5,26.4-86.1c4.7-14.6,11.5-28.5,16.4-43.1c6.6-19.6,12.1-39.6,18.6-59.3c6.2-18.5,13.1-36.7,19.7-55
		c6.8-18.9,13.6-37.9,20.6-56.7c4.5-12.1,9.3-24,13.9-36c1.7-4.4,3.4-8.9,4.8-12.5c-16.6,4.9-33.7,7.6-48.4,15.1
		c-15.6,8-27.6,1.5-41.1-2.8c-14.9-4.7-24.8-14.3-32.8-27.4c-14-23.2-21.4-48.9-30.4-74.1c-10.6-29.4-12.7-60.2-17.6-90.5
		c-5-30.7-7.5-61.8-10.5-92.7c-2.6-27.9-5.1-55.8-6.3-83.8c-1.3-31.4-1-62.9-1.4-94.4c-0.3-23.1-0.9-46.3-1.1-69.4
		c-0.1-14.9,0.7-29.9,0-44.8c-0.2-4.7-2.9-11.2-6.6-13.6c-8.2-5.4-17.8-8.4-26.5-12.9c-2.4-1.3-4.9-4-5.7-6.6
		c-1.8-6-2.5-12.3-4-18.4c-3.8-15.5,0.8-26.2,15.1-33.6c7.7-4,15.6-7.8,23.7-10.9c5.1-2,6.4-4.7,6.5-10.1c0.5-43.7,1.2-87.3,2.3-131
		c1.1-43.7,2.7-87.4,4-131.2c0.3-11.1-2.4-12.5-13.1-8.8c-4.5,1.5-9.5,1.2-14.2,2.3c-20.3,4.5-40.5,9.7-60.9,13.7
		c-7.8,1.5-16.1-0.6-24.1,0.3c-10.6,1.2-21.1,5-31.7,5.2c-14,0.3-28.7,1.3-40.8-8.5c-1.1-0.9-3.3-1-3.6-1.9
		c-5-13.3-15.4-24.5-13.3-40.6c2.9-22,17-36,33.7-46.8c9.3-6,22.1-6.5,33.3-9.4c23.5-6.1,47-12.7,70.7-17.9
		c22.3-4.9,44.8-8.6,67.3-12.5c20.9-3.6,41.9-6.8,62.9-9.9c14.8-2.2,29.7-4.6,44.6-5.8c29.9-2.3,59.8-4.1,89.7-5.7
		c29.4-1.5,58.7-3.2,88.1-3.6c21.8-0.3,43.6,1.7,65.3,2.3c24.1,0.7,48.2,0.6,72.2,1.5c16.7,0.6,33.4,1.8,50.1,3.7
		c28.3,3.2,56.8,5.9,84.8,11.3c19,3.7,37.4,10.9,55.5,17.9c13.5,5.2,27.1,11.1,38.9,19.2c25.1,17.4,43.4,43.6,40,76.9
		c-1,9.6-0.5,19.7-3.5,28.6c-6.6,19.3-14.3,38.5-23.1,56.9c-6,12.4-14.6,23.6-22.6,35c-2.4,3.5-6.4,6.1-10,8.5
		c-6.8,4.6-11.8,9.6-8.3,19.5c32.9-11.2,65.3-21,99.7-19c0-14.1,0.6-27.4-0.1-40.6c-0.9-17.4-4-34.7-4-52.1
		c-0.1-25.1,1.8-50.2,2.6-75.3c0.1-1.9-1.5-4.9-3.1-5.7c-8.7-4.3-18.1-7.4-26.6-12.2c-5.9-3.3-11.3-8-16-12.9
		c-14.5-15.2-8-47,10.3-56.6c17-8.9,35.2-10.1,53.5-12.2c31-3.4,61.9-6.9,92.9-10.4c31.4-3.5,62.7-7.1,94.1-10.6
		c28.2-3.1,56.4-5.9,84.6-8.9c23.5-2.5,46.9-6.3,70.5-7.5c40.8-2,81.8-2.8,122.7-3.3c22.9-0.3,45.9,0.2,68.7,2
		c21.4,1.7,42.7,5.5,64,8.5c10.4,1.4,20.8,2.8,31,4.8c8,1.6,12.2,0,11.6-9.2c-0.3-4.1,0.3-8.7,2-12.4c1.5-3.2,4.9-5.9,8.1-7.7
		c6.3-3.5,12.9-6.6,19.7-9.3c8.7-3.4,17.4-7.6,26.5-9c23-3.4,46.2-6.2,69.3-7.6c16.5-1,33.1,0.8,49.6,0.9
		c12.9,0.1,25.8-0.7,38.6-0.3c11.7,0.3,23.4,1.5,35.1,2.5c9,0.8,17.9,2.6,26.9,3.1c20.2,1.2,40.5,1.2,60.7,2.9
		c14.9,1.3,29.5,4.7,44.3,7.2c1.6,0.3,3.6,1.4,4.8,0.8c11.9-5.4,23.1,0.3,34.7,1.4c18.1,1.8,36.3,2.6,54.5,4.3c2.6,0.2,5,2.8,7.5,2
		c6.8,0.7,13.6,1.3,20.3,2.1c4,0.5,8,2.1,12,2.2c23.1,0.7,46,3.1,68.6,8.3c19.3,4.4,38.9,7.7,58.4,11.6c7.1,1.4,14.3,2.6,21.1,4.9
		c9.6,3.3,12.4,1.8,13.6-8.3c1.2-10.9,10.6-13.4,18.6-16.1c29-10.1,59.4-13.5,89.9-14.8c24.4-1,48.9-1.3,73.2-0.1
		c27.5,1.4,52.6,12.1,77.9,22.6c33.8,14,52.8,41.4,69.4,71.5c4.1,7.5,6,16.2,9.6,24c1.1,2.3,4.3,3.7,6.6,5.5
		c1.2-2.3,2.9-4.4,3.6-6.9c10-36.8,20.4-73.4,37.6-107.7c8.2-16.4,14.4-33.9,23.9-49.5c14.2-23.5,29.3-46.7,46.1-68.4
		c13.7-17.5,29.5-33.8,46.3-48.4c11-9.6,25.3-15.4,38.3-22.6c7.7-4.3,15.8-7.9,23.7-11.8c23.5-11.5,48.1-15.2,74-11.3
		c4.1,0.6,8.4,0.3,12.7,0.2c22.1-0.8,42.5,6.6,62.9,13.5c6.1,2,12.2,4.4,17.6,7.7c4.8,2.9,8.5,7.5,12.9,11.1c4,3.4,7.8,8,12.5,9.4
		c17.8,5.4,20.7,21.1,24.3,35.2c3.2,12.4,3.9,25.8,3.6,38.7c-0.3,14.1-2.6,28.4-9.9,38.9c-2.8-5-6.1-14.6-8.4-14.4
		c-8.9,0.9-4.4,9.8-5.8,15.3c-2.3,9.1-3.5,18.4-6.1,27.4c-3.9,13.4-7.6,27-13.1,39.7c-9.6,22-20,43.8-31,65.1
		c-23.7,46.1-55.9,86.2-90.2,124.7c-11.6,13.1-24.7,25.3-33.6,40.1c-5.4,9-13.4,12.7-19.9,19.2c-5.6,5.6-10.3,12.2-16.1,17.6
		c-4.4,4.1-9.9,7.2-15.1,10.5c-7.1,4.6-14.5,8.8-21.6,13.5c-8.1,5.3-16,11-24,16.5c-15.5,10.5-30.9,21.1-46.6,31.5
		c-3,2-7.2,2.4-10,4.5c-9.4,7.3-11.3,22.2-4.4,32c1.4,1.9,3.4,4.2,5.5,4.7c28.7,6.6,57.2,13.6,86.1,19c23.6,4.4,47.5,7.9,71.4,9.9
		c20.8,1.8,41.9,0.7,62.8,1.2c11.8,0.3,23.6,1.7,35.4,2c27.6,0.7,55.2,1.2,82.8,1.6c23.3,0.4,46.5,1.2,69.8,0.7
		c17.1-0.4,34.1-2.6,51.1-4c5.8-0.5,11.6-1.3,18.3-2.1c-3.6-15.7-6.9-30.2-10.1-44.8c-3.2-14.2-7.1-28.4-9.3-42.7
		c-6.2-40.6-11.8-81.3-17.1-122c-1.3-10.3-5.5-16.5-14.6-22.3c-9.6-6.1-17.3-15.8-18.4-28.5c-0.2-2.4-0.6-4.9-1.3-7.2
		c-4.8-15.9,3.2-29.8,19.5-31.6c8.1-0.9,9.4-3.7,9.3-11.3c-0.2-51.8,0.5-103.6,0.3-155.4c0-12.8-1.8-25.7-3.8-38.4
		c-0.5-3.1-4.6-7-7.8-8.1c-8.8-3.1-18.4-3.9-26.9-7.4c-10.8-4.5-23.6-8.4-30.7-16.7c-8.9-10.3-11.3-25.4-7.2-39.5
		c2.1-7.3,4.7-15.6,9.8-20.5c6.1-5.8,14.9-10.9,23.1-12c22-2.8,44.5-5.2,66.6-4.3c22.1,0.9,43.9,7.1,65.9,8.7
		c24.7,1.9,49.6,1.2,74.5,1.7c24,0.5,47.9,1.3,71.9,1.7c33.5,0.5,67,0.2,100.5,1.4c38.8,1.5,77.6,4,116.3,6.7
		c28.1,2,56.3,4.2,84.3,8c27.9,3.8,55.5,9.6,83.2,14.8c15,2.8,30.2,5.2,44.9,9.2c20.6,5.6,40.6,13.2,57.3,27.2
		c2.2,1.9,3.5,5.8,3.7,8.9c0.4,4.8-0.5,9.7-0.7,12.4c-7.3,6.8-13.7,12.7-22.3,20.7c-4.6-0.4-12.1,0.1-11.5,12
		c0.1,2.1-5.3,6.6-7.8,6.4c-19.1-1.8-38.1-4.3-57-7c-19-2.6-37.9-6.1-56.9-8.4c-18.7-2.3-37.4-4.1-56.2-5.3
		c-36.9-2.2-73.9-3.8-110.9-5.6c-31-1.5-62-3.1-93.1-4.4c-8.4-0.4-16.8,0.1-25.2,0.1c-32,0-64,0-95.9,0c0,16.1-0.2,30.3,0.1,44.4
		c0.5,23,1.6,46,1.8,69.1c0.3,23.5-0.2,47.1-0.1,70.6c0,6.3,3.9,8.5,9.9,7.8c20.5-2.4,41-5,61.5-7.2c18.2-2,36.5-3.6,54.7-5.5
		c35.5-3.7,70.9-7.3,106.4-11.3c19.9-2.2,39.7-5.4,59.7-7.5c17.4-1.8,34.8-2.8,52.2-4c32.4-2.2,64.7-4.6,97.1-6.5
		c27.8-1.6,55.5-0.9,83,4.5c7.2,1.4,14.6,1.3,21.9,2.1c6.6,0.7,9.7,3.9,6.7,10.7c-6.8,15.5-13.4,28.9-32.2,36.3
		c-33.4,13.2-68,15-102.5,19.8c-23.5,3.2-47.1,6-70.7,9c-1.4,0.2-3.1,0.2-4,1.1c-18.7,19-43.2,11.4-65.3,14.5
		c-12.4,1.8-24.6,4.4-37,6.4c-15.8,2.6-31.6,4.7-47.4,7.3c-23.5,3.8-46.9,8.5-70.5,11.7c-35.7,4.9-71.4,9-107.2,12.9
		c-8.6,0.9-11.8,3.5-11.8,12.9c0,35.4,5.3,70,12.8,104.4c4.7,21.5,10.1,42.9,15.1,64.3c0.6,2.5,0.8,5.1,1.2,7.7
		c-1,0.5-2.1,0.9-3.1,1.4c-2.6-4.5-5.2-9.1-7.8-13.6c-0.4,0.1-0.8,0.2-1.2,0.3c1.2,6.9,2.4,13.8,3.5,20.5c13.5,0.9,18.6,9.2,17,28.5
		c-2.4-4.8-4.1-8.3-5.9-11.9c-1,0-2,0-3,0c0,3.2-1,6.9,0.1,9.7c14.1,35.1,31.8,68.4,52.1,100.2c7.5,11.7,16.3,22.9,26.1,32.7
		c2.6,2.6,12.5,1.4,16.7-1.5c17.4-12.1,31.2-27.8,42.4-46c27.6-44.9,42.2-94.2,50.6-145.7c3-18.5,7.3-36.8,10.6-55.2
		c3.6-20.1,6.5-40.4,10-60.6c1.5-8.6,3.1-17.2,5.4-25.6c0.8-3,4.2-7.6,5.9-7.5c4.3,0.5,8.3,3.3,12.4,5.2c0.3,1.1,0.5,2.2,0.8,3.3
		c7.7-6.7,15.4-13.3,24.8-21.5c-1.5,20.4,14.4,28.3,22.1,41.3c4,6.8,4.2,16,5.1,24.3c1.2,11.1,2.1,11.8,12.5,5.9
		c0,9.4,0.7,18.5-0.1,27.3c-2.8,30-6.2,59.9-9.3,89.9c-0.5,5-2.5,9.6,4.1,13.4c5,2.9,2.2,8-8.1,12.6c-1.2,15.9-2.4,32.5-3.6,49.2
		c0.5-0.2,1-0.3,1.5-0.5c-1.1,2.2-2.4,4.3-3.4,6.6c-5.1,11.8-10.3,23.5-15.2,35.4c-2,4.8-3.2,10-4.7,15c-0.6,1.9-0.3,4.6-1.5,5.9
		c-5.1,5.5-12.6,10.5,1.2,14.8c1.2,0.4,1.8,8.4,0.1,11.3c-11.9,19.6-26.5,36.6-44.9,51c-19.4,15.1-39.9,22.7-64.3,23.6
		c-13,0.5-25.9,5.8-38.9,8.4c-4.7,1-9.9,1.1-14.7,0.3c-9.7-1.6-17.4-0.1-21.5,11.6c-15.5-14.5-34.1-7.7-51.1-10.8
		c-13.6-2.4-27.7-4.4-40.3-9.6c-47.2-19.8-78.9-57.3-106.4-98.6c-8.7-13-14.1-28.1-22.3-41.3c-2.7-4.4-11-9.9-14.4-8.6
		c-15.7,5.9-30.8,7.7-47.7,6.2c-19.2-1.7-38.9,2.5-58.4,2.8c-28.7,0.6-57.4,0.3-86-0.1c-30.3-0.4-60.5-1-90.8-2.1
		c-24.9-0.8-49.7-2.2-74.5-3.7c-20.5-1.3-41-3-61.5-4.8c-4.3-0.4-8.6-1.9-12.9-2.4c-21.3-2.2-42.7-4.2-66-6.4
		c1,11.5,1.5,22.2,3,32.7c2.4,17.7,5.6,35.2,8.1,52.9c0.4,2.8-1.1,5.9-1.2,8.9c-0.1,2.3,0.6,6.5,1.2,6.5c12.4,0.8,5.3,10,5.6,16.3
		c-1.9-2.4-3.7-4.9-6.8-8.9c-10.1,5.9-20.5,12-30.9,18.2c-2.1,1.2-4,3.5-6.1,3.8c-9.6,1.1-19.7,0.4-24.5,12.5
		c-0.8-6.2-1.5-10.7-2.1-15.2c-1.5,0-2.9,0-4.4,0c-0.5,4.5-1.4,9-1.5,13.5c-0.2,7.4-1.8,12-10.7,8c-2.3-1.1-5.5-1.1-8.1-0.7
		c-19.2,3.1-28-1.4-33.2-19.9c-4.2-14.8-6.3-30.1-8.8-45.3c-3.1-18.9-5.8-38-8.6-56.9c-2.5-16.8-5.1-33.6-7.3-50.5
		c-1.2-9.1-4.1-16.4-12.4-21.8c-11.3-7.5-21.7-16.3-32.3-24.8c-7-5.6-8.3-2.2-10.1,4.5c-6.4,23.4-13,46.7-20.5,69.7
		c-3,9-9.8,16.8-12.9,25.8c-7.6,22.1-16.8,43.3-29.8,62.8c-9.1,13.6-16.2,28.8-26.9,40.9c-12.5,14.2-27.7,26.2-46.3,32.4
		c-10.9,3.7-21.7,7.8-32.6,11.6c-10,3.5-20.7,5.7-29.8,10.9c-15.9,9-33.9,10.1-50.5,16.8c-33.5,13.5-66.1,8.3-95.1-13.6
		c-14-10.5-20.8-25.7-25.3-42.4c-7.7-28.9-3.9-57.2,3.7-85.2c8.1-29.7,16.8-59.2,26.2-88.6c8.1-25.3,17.1-50.3,26.4-75.2
		c17.5-47.2,36-94.1,53-141.5c7.7-21.6,12.9-44.2,18.9-66.5c1-3.6-0.1-7.7,0.3-11.4c0.9-8.1-3.4-11-10.5-10.9
		c-12.2,0.2-24.6-0.4-36.7,1.3c-25.8,3.7-51.3,8.9-77,13.1c-19.4,3.1-39.1,5-58.4,8.6c-14.3,2.7-28.2,7.8-42.5,10.8
		c-24.8,5.2-49.8,9.2-74.5,14.6c-42.3,9.3-84.5,19.3-126.7,28.9c-12.5,2.8-25.3,4.8-37.7,7.8c-7.7,1.9-15.4,4.4-22.5,8
		c-2.2,1.1-3.7,6.7-3.1,9.8c5.7,28.9,12.2,57.6,17.8,86.5c2.7,13.7,3.1,27.8,6.3,41.3c3.3,14.1,8.9,27.7,13.2,41.6
		c1.1,3.4,1.5,7.2,1.4,10.8c-0.3,7.7-2.1,15.4-1.5,22.9c1.5,18.7,3.8,37.3,6.4,55.8c0.7,5,3.6,9.7,5.3,14.6c0.9,2.4,1.5,5,2.1,7.5
		c1.6,6.5,2.8,13.1,4.7,19.5c2,6.6,6.5,13,6.6,19.6c0.3,22.7-1.2,45.4-1.1,68.1c0,6.4,1.6,14.5,5.7,18.7c7.7,7.9,4.1,15.4,2.7,23.4
		c-0.7,3.9-1.1,7.9-1.6,11.9c1.2,0.2,2.4,0.4,3.7,0.6c2.5-10.3,5-20.6,7.5-30.9c1.2,0.1,2.3,0.2,3.5,0.3
		c-1.1,10.2-1.7,20.4-3.3,30.5c-3.3,20.4-11.6,38.7-25.6,54.3c-1.4,1.6-2.6,4.2-4.2,4.6c-17.3,3.7-31.7,19.4-51.6,12.1
		c-1.6-0.6-4.8,0.8-6.2,2.2c-5.7,5.9-11.1,12.2-16.4,18.1c-9.4-6.4-10.6-5.7-11.8,4.6c-17.7,1.9-35.6,6.3-53.1,4.9
		c-12.6-1-26.3-7.5-36.5-15.4c-17.7-13.8-28.1-33.7-35.8-54.7c-8.3-22.7-16.9-45.2-24.3-68.2c-3.8-11.9-5.5-24.5-7.6-36.9
		c-6-35.9-12.4-71.8-17.4-107.9c-4.5-32.5-8.4-65.1-10.8-97.9c-2.1-28.4-1.7-57-2.5-85.5c-0.1-3.9-0.3-7.8-1-11.6
		c-1.3-7.5-5-9.3-11.9-5.4c-22.6,13-47.1,13.6-71.7,8.9c-15.8-3.1-22.8-15.7-25.2-30.1c-1.4-8.3-4.5-9.4-11-7.2
		c-10.8,3.6-21.5,7.7-32.5,11c-24.7,7.5-49.7,14.3-74.4,22.2c-14.3,4.6-27.9,11.5-42.3,16c-16.2,5.1-32.8,8.7-49.2,13.1
		c-7.4,2-14.7,4.4-22,6.7c-24.2,7.6-48.6,14.9-72.6,23.1c-14.2,4.9-14.7,9.2-11.2,23.9c2.6,10.6,2.1,22,2.8,33
		c0.9,12.9,1.1,26,2.7,38.8c4.3,33.8,7.3,68,14.5,101.2c7.1,32.9,17.6,65.3,28.8,97.2c6.9,19.8,17.4,38.6,27.2,57.3
		c5.5,10.5,11.4,11.5,18.5,1.8c13.5-18.5,26-37.9,37.3-57.9c9.4-16.6,16.3-34.5,24.4-51.8c0.4-1,0.7-2.4,1.5-2.7
		c19.4-8,18.3-27.7,24.9-43.1c2.1-4.9,6.3-8.9,9.4-13.4c5.9-8.5,13.2-16.4,16.9-25.7c3.2-8,4.8-9.8,12-4.3c3.3,2.5,8.3,2.6,12.4,4.3
		c3.1,1.3,6.3,3,8.6,5.3c6.6,6.6,16,12.8,18.3,20.8c3.6,12.9,3.5,27.2,2.8,40.9c-0.6,11.1-1.5,12.1,7.2,14.2
		c-0.8,7.2-1.7,14.4-2.6,21.6c1.4,0.3,2.9,0.7,4.3,1c4.6-11.9,9.3-23.8,13.9-35.6c0.5,0.1,1,0.3,1.6,0.4c-1.6,7.3-2.3,14.9-5,21.7
		c-9.4,23.6-19.5,46.9-29.4,70.3c-0.8,1.9-2.7,4.1-2.3,5.8c4.3,18.7-8.7,30.5-17,44.3c-0.4,0.6-0.5,1.3-1.4,3.6
		c3.8-1.9,6.5-3.3,9.3-4.7c0.5,0.4,1.1,0.8,1.6,1.2c-7,9-13.5,18.5-21.2,26.9c-8.1,8.9-16.2,17.4-23,27.6
		c-3.8,5.8-13.7,8.7-21.4,10.8c-13.8,3.8-28,5.8-41.9,8.9c-4.7,1-9.1,3-13.6,4.7c-0.6,0.2-1.2,1.4-1.6,1.3
		c-15.3-5.4-27.5,6.3-41.7,7.3c-15.4,1.1-30.7,2.7-46,4.8c-26.2,3.6-49.7-4.7-73-14.7c-31.3-13.4-51.3-37.8-68.5-66.4
		c-13.5-22.5-26.6-44.9-35-69.7c-5.2-15.4-10-31-15.8-49c-9.5,11.9-19.2,21.5-25.9,32.9c-10.7,18.1-23.3,34.5-37,50.3
		c-1.5,1.7-1.9,4.3-2.7,6.5c-1.1,2.9-1.3,6.4-3.1,8.6c-27.2,34.2-53.1,69.7-87.5,97.3c-18.3,14.7-36.8,29.6-56.4,42.4
		c-18.3,11.9-38.4,20.9-57.4,31.6c-5.4,3-9.8,8-15.4,10.9c-8.9,4.6-18.2,8.4-27.6,12c-25,9.6-50.1,19.3-75.3,28.4
		c-24.9,8.9-49.9,17.3-75,25.6c-10.1,3.3-20.7,5.2-30.7,8.8c-3.1,1.1-5.1,5.4-7.6,8.2c0.5,1,1.1,2.1,1.6,3.1
		c-11,0.9-22.1,1.3-33,2.9c-11.6,1.8-12.6,3.8-7.4,14.6c3.3,6.8,6.2,14.8,15.7,16c1.3,0.2,3.1,1.8,3.5,3.2
		c4,11.7,10.9,22.2,9.9,35.9c-0.6,8.8,4,18.4,7.7,27c0.9,2.2,7.3,2.1,11.6,3.1c-0.1,1.1-0.3,2.4-0.4,3.7
		c-2.3,17.6-0.7,19.2,16.6,16.7c21.4-3.2,43.3,6.5,52.8,23.8c1.9,3.4,2.2,7.8,2.6,11.8c1.6,15.1,2.7,30.3,4.3,45.5
		c1.5,13.9,3,27.8,5.4,41.5c1.5,8.3,5.2,16.2,7.1,24.5c3.4,15.3,6.6,30.6,9,46.1c2.9,18.7,4.5,37.6,7.6,56.3
		c3.2,19.6,7.4,39,11.2,58.4c0.2,1,0.3,2.1,0.4,3.1c0.9,17.6,1.7,18.3,18.1,10.7c24.7-11.5,48.8-24.3,73.9-35
		c14.8-6.3,30.7-10,46.2-14.4c6-1.7,12.5-1.7,18.7-3.1c8.6-1.9,8.7-9.2,8.6-15.9c-0.6-26-2.3-52.1-2.1-78.1
		c0.2-24.2,1.3-48.5,4.1-72.4c1.9-16.5,5-33.8,12.3-48.4c6.5-13,21.5-22,36.5-21.6c20.2,0.7,32.4-9.8,46.7-21.3
		c17.7-14.2,38.5-24.9,58.8-35.5c15.3-8.1,31.5-15,48-20.1c23.4-7.2,47.3-12.6,71.2-17.9c15-3.4,30.3-6.4,45.6-7.5
		c21.8-1.6,43.8-1.4,65.7-1.9c11.5-0.3,23-1.5,34.4-0.8c18.4,1,36.9,2.7,55.2,4.9c22.1,2.7,44.1,6.2,66.1,9.5
		c5.5,0.8,10.9,2.1,19.1,3.7c-2.6-12.6-4.5-23.3-7.1-33.9c-2.6-10.7-7.4-21.1-8.7-31.9c-1.1-9.6,1.1-19.5,2.3-29.3
		c0.4-3.4,2.2-6.5,3-9.9c1.4-6.1,4.1-9.6,11.2-10.3c7.7-0.7,15.3-3.1,22.6-5.5c21.3-7,42.2,6.6,63.4,0.8c2.7-0.7,6.1,0.8,9.2,1.6
		c12.1,3.2,25.6,4.2,35.9,10.4c12.5,7.5,30.8,5.7,37.7,22.8c0.8,1.9,7.5,0.9,9.1,3.1c3.4,4.6,6.6,10.2,7.5,15.7
		c2.9,18.3,4.9,36.7,6.9,55.1c1.7,16,3.1,32.1,4.2,48.2c0.8,11.5,1.5,23.1,1.6,34.6c0.1,13.5,4.4,16.6,17.3,13.7
		c25.1-5.7,50.4-11,75.7-15.5c20.6-3.6,41.4-6.7,62.2-8.2c13.7-1,27.7,0.6,41.4,2.2c6.7,0.8,8.7-1.7,8.2-7.2
		c-1-10.8-2.6-21.6-4.1-32.3c-0.2-1.3-0.6-3.3-1.5-3.8c-10.7-5.9-8.3-18.4-13.7-26.9c-1.3-2.1,0-6,0.5-9.1c0.8-4.5,3.4-9,2.9-13.2
		c-1.1-10.8,2.4-18,11.4-24.7c7-5.2,12.7-7.9,21.9-7.8c17.3,0.3,34.7-2.3,52-4.2c19.2-2.1,38.5-4.6,57.6-7.2
		c11.1-1.5,22-4.1,33.1-5.6c22.5-3,45.1-5.6,67.7-8.4c16.6-2,33.2-4.9,49.9-5.8c22.9-1.3,45.8-1.3,68.7-1.4c23.7,0,47.6-1.1,71,1.5
		c28.3,3.2,56.4,9,84.3,15.2c15,3.3,29.3,9.6,43.6,15.3c4,1.6,7.6,5.3,10.4,8.8c7.1,9,6.4,14-1.9,22.9c-1.2,1.2-1.9,2.8-3.3,5.1
		c2.3,1.4,4.1,3.2,6.2,3.7c8.9,2.1,17.9,4.1,26.9,5.5c14,2.2,28,4.4,42.1,5.2c3.2,0.2,8.1-5.1,9.8-8.9c9.1-21.1,16.4-43.1,26.3-63.8
		c11.6-24.1,23.6-48.5,38.8-70.4c19.7-28.4,42.1-55,64.8-81.1c9.7-11.1,23.8-18.3,34.6-28.6c6.9-6.5,13.2-12.1,22.5-15.7
		c15.2-5.9,28.9-15.6,44.1-21.3c17.5-6.6,35.7-12.1,54.1-15.3c22-3.9,44.4-6.2,66.7-6.8c14.4-0.4,29.1,2.8,43.4,5.7
		c21.7,4.3,43.9,7.9,64.7,15.2c25.3,8.8,50.6,18.9,73.5,32.5c31.3,18.5,49.9,47.6,53.8,84.5c1.5,14.4,4.3,29.4,1.7,43.3
		c-3.7,19.9-11.8,39-18,58.5c-2.6,8.3-5.2,16.5-7.8,24.8c-0.8,2.7-0.9,6-2.6,7.9c-16.2,18.1-21.6,42.4-35.4,61.7
		c-8.6,12.1-19.5,22.7-27.5,35.2c-13.3,20.7-27.6,40.3-47.1,55.6c-12.4,9.7-25.7,18.2-37.9,28c-10.6,8.5-19.8,18.9-30.5,27.3
		c-25.2,19.6-47.9,42.3-76.8,57.3c-18.1,9.4-33.8,23.4-51.3,34.1c-16.4,10.1-34,18.5-50.7,28.1c-13,7.4-25.4,15.8-38.4,23.4
		c-13.4,7.9-27.2,15.2-40.6,23.1c-3.4,2-6.2,5-11.7,9.6c10.9,0,18.5,0.4,26-0.1c25.8-1.6,51.6-3.7,77.4-5.1c29-1.5,58-1.8,87-3.6
		c14.7-0.9,29.2-4.4,43.9-5.6c20.2-1.8,40.5-2.5,60.7-3.7c26.3-1.5,52.7-3.1,79-4.4c15.7-0.8,31.5-1.1,47.3-1.4
		c28.9-0.5,57.9-1.2,86.8-1.1c27.7,0.2,55.3,1.3,83,2c21.6,0.5,43.2,0.7,64.7,1.7c11.9,0.5,23.7,3.4,35.6,3.3
		c13.7,0,27.6-3.8,41.2-2.8c15.9,1.1,31.7,4.7,47.2,8.5c12.7,3.1,25.4,7.1,37.3,12.6c15.3,7.1,30.1,15.6,44.4,24.6
		c5.2,3.3,8.9,9.3,12.3,14.7c1.2,1.9,0.4,6.2-1.1,8.3c-1,1.5-5.7,2.4-7,1.3c-7.4-6-12.9-4.8-18.6,2.4c-1.5,1.9-6.8,3.1-8.4,2
		c-7.3-5.3-12.1-1.1-18.1,2.4c-5,3-10.8,5.4-16.5,6.4c-14.2,2.4-28.8,2.9-42.8,5.8c-15.3,3.2-29.8,2-44.6-2.2c-31-8.9-63-6.6-94.6-8
		c-41.2-1.9-82.5-3-123.8-3.7c-17.4-0.3-34.8,1.3-52.3,1.9c-31.4,1.2-62.8,2-94.1,3.6c-28.1,1.4-56.2,3.9-84.3,5.6
		c-18.7,1.1-37.5,1.2-56.2,2.2c-43.5,2.3-87.1,5.2-130.6,7.4c-23,1.2-46.1,1.6-69.2,2.1c-7.5,0.1-15.1-1.6-22.3-0.6
		c-3.7,0.5-8.8,5-9.6,8.5c-1.9,8.1,0.2,17.3-2.6,24.9c-6.6,18.1-3.8,36.6-5.1,54.9c-1.4,18.2-1.5,36.5-2.1,54.7
		c-0.3,9.3-6.2,13.7-18.8,15.5c-6.7,0.9-13.1,3.8-19.7,5.5c-9.5,2.4-19,4.7-28.5,6.9c-8.6,2-15.7,5.5-17.1,15.6
		c-12.2-2.5-23.8-5.1-35.5-7.2c-10.1-1.8-20.1-11.1-20.4-21.6c-0.5-21.8,0.1-43.6,0-65.4c-0.1-32-0.1-63.9-0.6-95.9
		c-0.1-11.2-1.4-20.6-16.8-23.3c-8.5-1.5-14.4-12.7-14.5-23.1c-0.1-10.5-0.1-21.3,2.6-31.2c1.3-4.7,8.4-9.7,13.8-11
		c12-3,16.8-9.6,17.4-21.5c2.3-45.6,5.3-91.2-6.2-136.2c-6-23.3-11.1-46.8-17.3-70.1c-3.7-14-10.2-15.6-22.5-8.3
		c-14.9,8.9-30.4,16.7-45.3,25.6c-10.7,6.4-20.5,14.6-31.2,20.9c-31.6,18.5-63.7,36.2-95.3,54.7c-21,12.3-41.3,25.7-62.4,37.9
		c-10.2,5.9-21.5,9.8-32.2,14.9c-22.3,10.6-44.3,21.8-66.8,31.8c-10.9,4.9-22.5,8.6-34.1,11.1c-7.1,1.5-9.5,4.4-9.6,11.1
		c-0.1,26.9-2.5,54-0.2,80.6c3.2,37.1,9.7,74,15.1,110.9c2.1,14.5,4,29.3,7.9,43.4c2.6,9.4,7.8,18.5,13.5,26.5
		c4.6,6.5,9.8,0.9,14.3-2.3c31.7-22.6,58.9-49.6,79.7-82.7c11.8-18.9,23.2-38,33.7-57.7c7.9-14.8,18.9-25.1,34-32
		c4.7-2.2,8.7-7.3,11.3-12.1c3.6-6.6,10.8-8.6,15.9-2.8c3.2,3.7,4.9,9,8.6,11.8c5.3,4,12,9.4,17.7,8.9c7.8-0.7,11,2.4,12.1,8
		c2.3,11.9,4.5,24.1,4.5,36.2c0,7.3-2.8,15.4-6.5,21.9c-16.5,29.1-31.4,59.7-51.5,86.2c-20,26.4-42.3,52.1-71.2,70
		c-8.2,5.1-18,7.8-27.3,10.7c-24.8,7.8-48.6,19.3-75.4,20.3c-15.2,0.6-30.2,5-45.3,5.7c-22.3,1.1-41.9-8-59.6-20.5
		c-28.2-19.8-47.5-46.2-56.1-80.2c-5.1-20.2-14-39.6-18-60c-5.2-26-8-52.6-10.3-79.1c-2.9-32.4-4.6-65-5.8-97.5
		c-0.4-10.4-7.6-14.2-14-18c-9.4-5.5-11.6-14.6-14.3-23.4c-1.7-5.6-1.8-11.7-2.5-17.6c-0.9-7.6,8-16,19.5-16.4
		c7.9-0.3,11.4-4.2,11.4-10.7C1935.5,1869.1,1935.4,1836.8,1935.4,1803.2z M660.3,1388.3c1.5,0.7,2.9,1.4,4.4,2.1
		c-1.6,7.9-2.5,15.9-4.8,23.6c-3.1,10.3-8.5,20-10.5,30.5c-3.8,20.3-6.1,40.8-8.7,61.3c-1.7,12.9,14,33.9,26.9,33.8
		c8.5-0.1,17.3-4,25.3-7.6c25-11.2,51.1-20.9,74.3-35.1c27-16.4,52.4-35.9,76.9-55.9c33.5-27.4,62-59.9,87.9-94.4
		c12-16,21.6-33.9,32.9-50.4c19.2-28.2,31.9-59.4,42.3-91.7c3.6-11.1,1.4-18.7-9.1-22.2c-21.7-7.2-43.6-14-66-18.7
		c-16.6-3.4-33.9-3.4-50.9-4.5c-26.1-1.7-52.3-4-78.5-4.3c-26.5-0.3-53.1,1.2-79.6,2.5c-28.1,1.4-56.2,3.8-84.3,5.2
		c-8.7,0.4-10.3,4.7-10.4,12.2c-0.6,27.3-1.2,54.6-2.6,81.8c-1.3,25.8-3.4,51.5-5.2,77.3c-0.2,3-1.8,7.1-0.4,8.8
		c5.9,7.3-0.4,21.1,13,24.3c0.5,0.1,0.9,1.9,0.9,2.9c0.2,9,1.5,18.2,0.2,27c-1.4,9.6-0.1,12.4,9.3,13.2
		C649.6,1402.3,655,1395.3,660.3,1388.3z M2666.7,1914.5c1.3,0.4,2.7,0.8,4,1.2c7.7-4.8,15.2-9.6,23-14.3
		c20.1-12.1,41.1-22.8,60-36.5c27.4-19.7,53.3-41.5,79.7-62.5c10-7.9,19.5-16.4,29.3-24.5c34.6-28.5,61.7-63.9,90.7-97.7
		c21.2-24.7,38-52.1,52.5-80.9c8.6-17.2,14.9-36,19.2-54.7c4.2-18.4,0.5-37-13.2-51.1c-19.6-20.1-43-33.3-71.7-37.8
		c-55.3-8.7-100.7,8.1-137.9,49.1c-2.5,2.7-6.1,4.5-8.6,7.2c-7.9,8.4-20.6,13.2-19.6,28.3c0.3,4-3.3,8.7-6,12.5
		c-9.1,12.5-18.7,24.6-27.9,37.1c-2.7,3.6-4.6,7.7-7,11.8c-2.3-1.9-4-3.2-6.8-5.5c-4.4,9.1-8.2,17.1-12.1,25.1
		c0.9,0.4,1.7,0.8,2.6,1.2c4.7-1.9,9.4-3.9,14.1-5.8c1,0.9,2,1.7,3,2.6c-8.5,7.6-12.3,15.5-9.6,27.1c1.5,6.7-3.8,15-6.6,22.5
		c-1,2.6-3.4,4.6-6.6,8.9c0.8-6.6,1.2-10.5,1.6-14.4c-1.4-0.4-2.8-0.8-4.2-1.2c-3.3,8.5-7.1,16.8-9.8,25.4
		c-7.5,23.6-14.6,47.4-21.6,71.1c-2.9,10-5.5,20.2-7.2,30.4c-1.1,7,0.4,14.3-0.3,21.4c-0.7,7.4-3.3,14.6-3.5,21.9
		c-0.2,7.8,4.7,17.3,1.8,23.3C2658.1,1875.9,2672.8,1894.9,2666.7,1914.5z M1544.8,1916.8c-26.1,3.7-49.4,7.4-72.9,10.2
		c-24.2,2.9-48.4,7.3-69-12.8c-10-9.8-16.8-36.7-9.4-48.6c0.7-1.2,1.6-2.6,2.8-3.1c11.8-4.8,23.4-10.2,35.5-13.9
		c9.9-3,20.6-3.2,30.7-5.7c19.2-4.8,37.9-11.5,57.2-15.2c17.1-3.3,23-8.9,20.7-26.1c-0.2-1.4-0.4-2.8-0.5-4.2
		c-0.6-8.4-3.8-13.4-13.4-14.1c-7.5-0.6-15.8-2.2-21.8-6.2c-16.7-11.2-36.1-9.3-54.3-12.5c-16.8-3-34.2-3.8-51.3-4.4
		c-23.3-0.8-46.9-2.5-70.1-0.4c-34.8,3.2-67.1,15.8-97.6,32.6c-3.3,1.8-5.9,4.8-8.7,7.3c-8,7-15.5,14.6-24,20.9
		c-14,10.4-23.7,23.9-31,39.4c-3.7,7.9-6.1,16.4-9.7,24.4c-7.1,15.9-13.7,31.4-14.8,49.6c-2.1,33-2.4,65.6,2.2,98.4
		c1.6,11.6,6.6,14.7,16.6,12.8c28.4-5.5,57-10.5,85.1-17.1c31.6-7.4,62.8-16.3,94.1-24.7c26.8-7.1,54-13.3,80.4-21.8
		c37.2-12,75.9-15,114.1-21.2c5.6-0.9,8.9-2.3,9.1-7.4C1545.1,1941.3,1544.8,1929.5,1544.8,1916.8z M632.7,1061.4
		c12-1.2,22.7-2.7,33.4-3.1c23.1-0.9,45.6-3.1,65.9-16.4c8.9-5.9,20.6-7.4,30-12.8c21.3-12.2,42.3-25.1,62.8-38.7
		c8.8-5.8,16.5-13.6,23.8-21.4c13.4-14.3,28.8-27.6,38.5-44.2c11.8-20.1,24-40.6,29.3-64.1c2.5-10.9,4.2-21.4-6.3-28.6
		c-11.1-7.6-22.3-15.8-34.7-20.8c-32-13-65.9-17.3-100.4-17.7c-8.8-0.1-17.7-0.7-26.5-1.4c-11.7-1-23.4-3.4-35-3.1
		c-23,0.5-45.9,3.3-68.9,3.2c-11.4,0-10.5,4.4-9.8,12.7c1.1,13.5,1.1,27.2,0.8,40.8c-0.4,17.4-2,34.8-2.2,52.2
		c-0.3,24.7,0.5,49.5,0.4,74.2c0,17.4-0.8,34.9-1.1,52.3C632.6,1036.1,632.7,1047.8,632.7,1061.4z M1773.4,725.9
		c-0.5-1.2-1.1-2.5-1.6-3.7c-9.7,0.5-19.4,1.6-29,1.2c-27.8-1.1-55.5-4.9-83.3,0.6c-4.1,0.8-8.3,0.9-12.5,1.1
		c-26.8,0.9-53.7,1.4-80.5,2.8c-23.3,1.2-46.6,3.4-69.9,5.4c-24.6,2.1-49.3,3.8-73.8,7c-25.1,3.3-50,8.3-75,12.3
		c-15.3,2.5-16.3,2.7-16.1,18.5c0.1,18.4,1.5,36.7,1.9,55.1c0.4,18.2,0,36.4,0.4,54.7c0.3,10.9,3.6,13.1,14,10.2
		c21.7-6.2,43.4-12.4,65.1-18.9c30.9-9.4,61.8-18.9,92.7-28.6c23.3-7.3,46.5-14.8,69.6-22.7c17.4-5.9,34.8-11.6,51.7-18.8
		c23.3-9.9,46.4-20.6,69-31.9c24.1-12.1,47.6-25.4,71.3-38.4C1769.6,730.3,1771.4,727.8,1773.4,725.9z M2956.5,844.7
		c6.4-8,11.8-15,17.5-21.7c16.5-19.6,33.5-38.9,49.7-58.8c9-11,17.4-22.5,25-34.5c7.7-12.1,14.3-24.9,21-37.6
		c10.3-19.9,21.2-39.5,30-60c7.5-17.7,11.5-36.8,18.8-54.6c7.2-17.6,7.6-35.7,5.9-53.6c-0.7-7.4-8.3-14.9-14.3-20.8
		c-4.6-4.5-11.5-5.7-17.8-1c-5.8,4.3-11.6,8.6-17.5,12.6c-27.3,18.3-47.6,42.5-62.3,71.8c-5.3,10.6-11.8,20.5-17.1,31
		c-6.4,12.6-13,25.3-18.1,38.5c-5.1,13.2-8.6,26.9-12.3,40.6c-3.5,13.2-6.3,26.6-9.4,39.9c-1.6,6.8-2.7,13.6-4.7,20.3
		c-3.1,10.7-7.5,21.1-9.8,32c-2,9.7-1.4,19.9-2.8,29.7c-0.5,3.4-3.4,6.5-5.2,9.8c-1.6-0.6-3.2-1.2-4.7-1.8
		c6.7-34,11.9-68.4,20.5-101.9c8.6-33.5,20.7-66.2,31.2-99.2c-4.9,4.3-8.5,9.3-10.8,14.9c-9.6,23.5-19,47-28,70.7
		c-4.7,12.3-9.5,24.7-12.5,37.5c-5.3,22.7-9.7,45.6-13.8,68.5c-2.8,15.7-4.4,31.6-6.1,47.5c-0.3,2.6,1.3,6.4,3.3,7.9
		c1.3,1,5.4-0.7,7.5-2.2c8.3-5.9,16.2-12.4,24.5-18.4C2948.3,848.8,2953.1,846.6,2956.5,844.7z M2381.6,1681.6
		c-1.2-1.7-1.9-3.7-2.8-3.8c-6.3-0.9-12.7-1.9-19.1-1.9c-19.7,0.2-39.4,0-59,1.6c-24.7,2-49.2,5.4-73.8,8.6
		c-28.2,3.6-56.4,7.5-84.6,11.6c-11.9,1.7-15.3,7-15,19.6c0.1,5.9-1,11.9-1.6,17.9c-0.8,0-1.6,0-2.5,0c-1.3-5-2.6-9.9-3.9-14.9
		c-2.5,2-2.8,3.5-2.9,5.1c-0.9,22-1.9,44.1-2.4,66.1c-0.3,11.5-0.2,23,0.5,34.5c0.1,1.9,4.7,5.5,6.2,5.1c5.6-1.7,10.9-4.5,16.1-7.3
		c13.8-7.5,27.5-15.2,41.3-22.8c20.1-11,40.6-21.4,60.4-33.1c23.2-13.6,45.5-28.7,68.7-42.4c22.4-13.2,45.5-25.4,68.2-38.2
		C2377.7,1685.9,2379.4,1683.6,2381.6,1681.6z M2565.1,895.1c-0.8-0.5-1.5-0.9-2.3-1.4c-1.6,2.4-3.7,4.6-4.7,7.2
		c-2.4,6-4,12.3-6.4,18.4c-7.5,19.4-15,38.9-22.7,58.2c-4.1,10.3-9.1,20.3-12.5,30.9c-7.1,22.3-13.5,44.8-20,67.3
		c-3,10.3-6,20.6-8.3,31c-1.8,8.4-2.2,17.2-3.8,25.7c-1.8,9.2-4.7,18.2-6.4,27.5c-0.4,2.3,2.2,5.2,3.3,7.8c2.5-1.9,6.2-3.3,7.4-5.8
		c2.1-4.3,2.8-9.4,4-14.1c0.9,0.2,1.9,0.4,2.8,0.6c-1.7,15.6-8.3,31.1-1.1,48.3c5.8-4.2,10.4-9,13.9-14.5c15.9-25,31.9-50,47.1-75.5
		c24.8-41.5,35.9-88,45.5-134.5c7.1-34.6,3.7-69.7-0.8-104.5c-0.4-2.8-3.4-5.3-5.6-8.7c-13.6,19.6-13.3,44.6-30.8,60.1
		c-1-0.3-1.9-0.6-2.9-0.9C2562.3,910.4,2563.7,902.8,2565.1,895.1z M1039.2,966.8c-0.7-0.8-1.3-1.6-2-2.4c-3.5,1.2-8.3,1.4-10.3,3.8
		c-14.2,16.9-32.6,28.8-49.8,42.1c-9.9,7.6-19.8,15.1-29.5,22.8c-5.5,4.3-10.6,9.1-17.3,14.9c42.9,3.8,82.8,5.8,122.2,11.3
		c31.4,4.4,62.2,12.7,93.2,19.9c7.9,1.8,10.5,0.9,9.4-7.5c-1.6-12.1-2.2-24.4-4.1-36.5c-0.4-2.6-4-6.4-6.4-6.7
		c-12.4-1.2-25-1.4-37.5-1.8c-9.2-0.3-18.4-0.6-27.6-0.6c-26.3-0.2-45-16.6-48.2-42.6c-0.4-3,1.3-6.5,2.7-9.5
		C1035.2,971.4,1037.4,969.2,1039.2,966.8z M1947.4,700.3c-0.8,0.3-1.7,0.6-2.5,0.9c-0.1,1.3-0.4,2.6-0.1,3.8
		c3.9,14.3,5.9,28.6,1.5,43.4c-0.6,2.1,1.7,6.6,3.8,7.6c11.2,5.6,22.8,7.3,35.4,4c25.4-6.6,51-12.1,76.4-18.6
		c10-2.6,19.4-7.7,29.5-9.7c15-3,30.5-3.6,45.6-6.3c12.1-2.2,24-6,35.9-9c0-1.3,0-2.5,0-3.8c-34.4-5.8-69.3-7.5-104.1-9.7
		c-35.2-2.2-70.4-4.8-107-7.2c0,6.3-0.3,11,0.1,15.6c0.5,5.5,1.6,11,2.5,16.4c-1.3,0.3-2.5,0.6-3.8,0.8
		C1956.2,719.1,1951.8,709.7,1947.4,700.3z M2665.8,709.9c-1.3,0.6-2.6,1.2-3.9,1.8c6.1,13,13.4,25.7,18.1,39.2
		c8.9,25.3,16.3,51.1,24.5,76.6c2.3,7.3,7.4,14.4,7.5,21.6c0.6,30.6-0.1,61.3-0.3,91.9c0,1.7,1.2,3.3,2.2,6.1
		c1.6-3.2,2.6-5.1,4.7-9.3c-10.4,49.4-20.2,96.1-30,142.9c1.5,0.5,3.1,1,4.6,1.5c3.2-7.7,6.8-15.3,9.5-23.3
		c8.3-24.4,18.6-48.3,17.3-75c-0.6-12.3,9.4-21.3,21.5-20c10.6,1.1,13.1-1.7,10.7-11.9c-4.4-18.3-8.7-36.7-13.2-55
		c-0.6-2.5-2.3-4.7-3.5-7.1c-0.9,0.3-1.8,0.6-2.7,0.9c0,5.2,0,10.5,0,15.7c0,5.1,0,10.3,0,15.4
		C2726.1,845.9,2707.9,774,2665.8,709.9z M617.7,2156.9c1.1,1.1,2.1,2.2,3.2,3.2c10.1-6.3,24-10.5,29-19.6
		c4.7-8.5,1.1-22.5-4.8-31.4C628.4,2121.6,622.3,2138.9,617.7,2156.9z M2703.9,1648.3c5.9-1.3,9.9-2.2,14.3-3.2
		c-1.4-5.8-2.5-11-3.7-16.2c-1-0.2-1.9-0.4-2.9-0.6C2709.1,1634.7,2706.7,1641,2703.9,1648.3z M2987.9,600.7
		c1.5,0.7,2.9,1.4,4.4,2.1c4.1-8.2,8.3-16.5,12.4-24.7c-1-0.5-2-1-2.9-1.5C2997.1,584.7,2992.5,592.7,2987.9,600.7z M2476.7,1197.9
		c1,0,2,0,3,0c0-7.8,0-15.6,0-23.4c-1,0-2,0-3,0C2476.7,1182.3,2476.7,1190.1,2476.7,1197.9z M2808.3,744.8c1.4-0.4,2.8-0.8,4.1-1.2
		c-2.6-6.4-5.3-12.7-7.9-19.1c-1,0.4-2.1,0.8-3.1,1.3C2803.7,732.2,2806,738.5,2808.3,744.8z"/>
	<path d="M4800.2,799c0,3.5,0.5,5.7-0.1,7.5c-5.3,17.4-10.7,34.8-16.4,52.1c-0.7,2-3.1,3.6-4.9,5c-9.2,7.5-18.5,14.9-27.8,22.3
		c-2.4,2-4.7,4.2-7.3,5.8c-28.8,17.6-57.7,34.9-86.3,52.8c-2,1.3-3.1,7-2,9.6c2.5,6.4,6.6,12.2,10,18.2c9.9,17.4,20,34.8,29.7,52.3
		c5.6,10,10.9,20.1,15.9,30.3c4.8,9.8,2.2,20.9-4.4,29.2c-6.1,7.5-13.5,14.9-4.6,26.6c2.4,3.1-2.6,12.7-5.5,18.7
		c-5.5,11.1-10.4,23.1-18.3,32.3c-8.2,9.5-18.7,18.3-29.9,23.6c-11.6,5.4-42.7-10.9-50-22.9c-18.6-30.6-37.6-61.1-56.1-91.8
		c-4.1-6.9-6.5-14.7-10.3-21.8c-2.9-5.3-6.3-10.7-10.6-14.9c-2.1-2-8.2-2.7-10.2-1.1c-36.4,27.8-72.7,55.6-108.4,84.3
		c-20.9,16.8-39.7,36.3-61,52.4c-19,14.4-40,26.3-60.7,38.2c-7.7,4.4-17,7.6-25.8,7.9c-6.8,0.3-15.3-3.1-20.5-7.7
		c-10.8-9.5-20.6-20.4-29.4-31.8c-6.2-8.1-8.1-17.4-3.3-28.6c7.3-17.1,11.1-35.7,17.8-53.1c7.1-18.4,15-36.5,23.9-54.1
		c11.1-21.8,22.8-43.3,35.8-64c12.7-20.3,27-39.6,41.2-58.9c13.5-18.3,27.8-36.1,41.7-54c12.7-16.3,25-32.9,38.2-48.7
		c6.3-7.6,8-13.7,3.5-23.4c-9-19.5-15.9-39.9-24.1-59.8c-7.8-19-17.2-37.4-24-56.7c-7.9-22.4-13-45.8-11.6-69.9
		c2.1-35.8,14.6-67.7,35.8-96.7c20.6-28.2,46.2-50.5,75.6-68.7c4.4-2.7,9.5-4.4,14.4-5.9c21.6-6.4,43.2-13,65.1-18.6
		c4.6-1.2,10.4,0.8,15.3,2.3c10.5,3.2,20,7.1,31.9,7.3c9.7,0.2,21.7,10.4,28.2,19.4c6.8,9.5,10.7,22.6,11.7,34.5
		c2.4,27.8,4.4,56,2.6,83.7c-1.7,26.7-7.2,53.3-13.1,79.5c-3.5,15.6-12.5,29.9-16.5,45.5c-6.4,25.2-21.7,45.8-32.5,68.6
		c-3.6,7.6-10.1,13.8-13.1,21.5c-2.1,5.4-2.7,13.1-0.5,18.3c9.2,22,26.1,38.6,42.6,55.2c2.3,2.3,8.9,3.1,11.8,1.4
		c21.3-12.4,42.6-25,62.9-38.9c10.2-7,18.2-17.2,27.9-25.2c6.1-5.1,13.4-8.7,20.1-13c7.6-4.8,15.2-9.6,22.7-14.5
		c5.4-3.6,18.6,0.8,21.9,6.7c5.6,10.1,11.5,20.1,17.9,29.7c1.3,1.9,5.4,2.6,8.3,2.7C4789.7,800.3,4794.2,799.5,4800.2,799z
		 M4481.1,684.3c1.6,0,3.3-0.1,4.9-0.1c5.6-13.4,12-26.5,16.5-40.3c8-24.7,15.9-49.4,17.1-75.8c0.7-16.6,4-33.1,5.1-49.7
		c0.8-11.3-2-12.7-13-8.4c-16.7,6.5-28.5,19.6-37.5,33.9c-9.4,14.7-17.3,30.3-16.4,49.7c1.1,23.8,5.4,46.6,13.1,68.8
		C4473.4,670,4477.6,677,4481.1,684.3z M4455.9,908.9c-21.2,21.4-37.9,47-55.2,72.2c18.3-11.2,35.8-23,52.4-36
		c18.3-14.3,17.9-14.8,5.7-34.7C4458.7,910.1,4458.2,910.1,4455.9,908.9z"/>
	<path d="M3194.8,705.2c15.2-36,30.4-72,45.5-107.9c1,0.4,2,0.8,3,1.2c-8.4,38.8-21.4,75.6-44.5,108.3
		C3197.5,706.2,3196.1,705.7,3194.8,705.2z"/>
	<path d="M2026.3,935.5c3,22.4,6.1,44.8,9.1,67.2c-1.1,0.1-2.1,0.3-3.2,0.4c-7.9-21.8-10.6-44.3-9.4-67.5
		C2024,935.7,2025.2,935.6,2026.3,935.5z"/>
	<path d="M2919.6,976.9c0,8.4,0,16.8,0,25.1c-0.6,0-1.2,0-1.8,0c0-8.4,0-16.8,0-25.3C2918.4,976.8,2919,976.9,2919.6,976.9z"/>
	<path class="st1" d="M660.3,1388.3c-5.3,7-10.7,14-16.5,21.5c-9.4-0.8-10.7-3.7-9.3-13.2c1.3-8.8,0-18-0.2-27c0-1-0.4-2.8-0.9-2.9
		c-13.4-3.2-7.1-17-13-24.3c-1.4-1.7,0.2-5.8,0.4-8.8c1.8-25.8,3.9-51.5,5.2-77.3c1.3-27.2,2-54.5,2.6-81.8
		c0.2-7.5,1.7-11.8,10.4-12.2c28.1-1.4,56.2-3.8,84.3-5.2c26.5-1.3,53.1-2.8,79.6-2.5c26.2,0.3,52.3,2.6,78.5,4.3
		c17,1.1,34.3,1.1,50.9,4.5c22.3,4.6,44.3,11.4,66,18.7c10.6,3.5,12.7,11.1,9.1,22.2c-10.4,32.3-23.1,63.4-42.3,91.7
		c-11.3,16.6-20.8,34.4-32.9,50.4c-25.9,34.6-54.5,67-87.9,94.4c-24.5,20.1-49.9,39.5-76.9,55.9c-23.3,14.2-49.3,23.9-74.3,35.1
		c-8,3.6-16.8,7.5-25.3,7.6c-12.9,0.1-28.6-20.8-26.9-33.8c2.6-20.5,4.9-41.1,8.7-61.3c2-10.4,7.4-20.2,10.5-30.5
		c2.3-7.7,3.2-15.7,4.8-23.6C663.3,1389.7,661.8,1389,660.3,1388.3z"/>
	<path class="st1" d="M2666.7,1914.5c6.2-19.6-8.6-38.6,1.5-59.1c2.9-6-2-15.4-1.8-23.3c0.2-7.3,2.8-14.6,3.5-21.9
		c0.6-7.1-0.8-14.4,0.3-21.4c1.6-10.3,4.2-20.4,7.2-30.4c6.9-23.8,14.1-47.5,21.6-71.1c2.7-8.6,6.5-16.9,9.8-25.4
		c1.4,0.4,2.8,0.8,4.2,1.2c-0.4,3.9-0.9,7.8-1.6,14.4c3.2-4.2,5.6-6.3,6.6-8.9c2.7-7.4,8.1-15.8,6.6-22.5
		c-2.7-11.6,1.1-19.4,9.6-27.1c-1-0.9-2-1.7-3-2.6c-4.7,1.9-9.4,3.9-14.1,5.8c-0.9-0.4-1.7-0.8-2.6-1.2c3.9-8,7.7-16,12.1-25.1
		c2.9,2.3,4.5,3.6,6.8,5.5c2.4-4.1,4.3-8.2,7-11.8c9.2-12.4,18.8-24.6,27.9-37.1c2.7-3.7,6.2-8.4,6-12.5
		c-1-15.1,11.7-19.9,19.6-28.3c2.5-2.7,6.1-4.4,8.6-7.2c37.2-41.1,82.6-57.8,137.9-49.1c28.7,4.5,52,17.7,71.7,37.8
		c13.7,14,17.4,32.7,13.2,51.1c-4.3,18.8-10.6,37.6-19.2,54.7c-14.5,28.7-31.3,56.2-52.5,80.9c-29,33.8-56.1,69.2-90.7,97.7
		c-9.8,8.1-19.3,16.6-29.3,24.5c-26.4,21-52.3,42.8-79.7,62.5c-18.9,13.7-40,24.4-60,36.5c-7.7,4.7-15.3,9.5-23,14.3
		C2669.3,1915.3,2668,1914.9,2666.7,1914.5z M2699.6,1740.4c1.4,0.4,2.9,0.8,4.3,1.2c3.7-12.2,7.3-24.4,11-36.6
		c-1.3-0.4-2.7-0.7-4-1.1C2707.1,1716,2703.3,1728.2,2699.6,1740.4z"/>
	<path class="st1" d="M1544.8,1916.8c0,12.7,0.3,24.5-0.1,36.3c-0.2,5.1-3.5,6.5-9.1,7.4c-38.2,6.2-76.9,9.2-114.1,21.2
		c-26.4,8.5-53.6,14.7-80.4,21.8c-31.4,8.3-62.6,17.3-94.1,24.7c-28.2,6.6-56.7,11.6-85.1,17.1c-9.9,1.9-15-1.2-16.6-12.8
		c-4.6-32.8-4.3-65.4-2.2-98.4c1.2-18.3,7.7-33.7,14.8-49.6c3.6-8,6-16.5,9.7-24.4c7.3-15.4,17-29,31-39.4c8.5-6.3,16-13.9,24-20.9
		c2.9-2.5,5.5-5.5,8.7-7.3c30.5-16.9,62.9-29.4,97.6-32.6c23.1-2.1,46.7-0.5,70.1,0.4c17.2,0.6,34.5,1.4,51.3,4.4
		c18.2,3.3,37.6,1.3,54.3,12.5c6,4,14.4,5.6,21.8,6.2c9.6,0.8,12.8,5.7,13.4,14.1c0.1,1.4,0.3,2.8,0.5,4.2
		c2.3,17.2-3.6,22.8-20.7,26.1c-19.3,3.7-38.1,10.4-57.2,15.2c-10.1,2.5-20.8,2.8-30.7,5.7c-12.1,3.7-23.7,9.1-35.5,13.9
		c-1.2,0.5-2.1,1.9-2.8,3.1c-7.4,11.8-0.7,38.8,9.4,48.6c20.6,20,44.9,15.6,69,12.8C1495.3,1924.1,1518.7,1920.4,1544.8,1916.8z"/>
	<path class="st1" d="M632.7,1061.4c0-13.5-0.1-25.3,0-37c0.3-17.4,1-34.9,1.1-52.3c0.1-24.7-0.7-49.5-0.4-74.2
		c0.2-17.4,1.8-34.8,2.2-52.2c0.3-13.6,0.3-27.2-0.8-40.8c-0.7-8.2-1.6-12.7,9.8-12.7c23,0,45.9-2.8,68.9-3.2
		c11.6-0.2,23.3,2.2,35,3.1c8.8,0.7,17.7,1.3,26.5,1.4c34.4,0.4,68.3,4.8,100.4,17.7c12.4,5,23.6,13.1,34.7,20.8
		c10.5,7.2,8.8,17.6,6.3,28.6c-5.3,23.5-17.5,44-29.3,64.1c-9.7,16.6-25.1,29.9-38.5,44.2c-7.3,7.8-15,15.5-23.8,21.4
		c-20.5,13.6-41.5,26.5-62.8,38.7c-9.4,5.4-21,6.9-30,12.8c-20.3,13.3-42.8,15.5-65.9,16.4C655.4,1058.7,644.7,1060.2,632.7,1061.4z
		"/>
	<path class="st1" d="M1773.4,725.9c-2,2-3.8,4.5-6.2,5.8c-23.7,13-47.2,26.3-71.3,38.4c-22.6,11.4-45.7,22-69,31.9
		c-16.8,7.2-34.3,12.9-51.7,18.8c-23.1,7.8-46.3,15.3-69.6,22.7c-30.8,9.7-61.7,19.2-92.7,28.6c-21.6,6.5-43.3,12.8-65.1,18.9
		c-10.4,2.9-13.7,0.7-14-10.2c-0.4-18.2,0-36.4-0.4-54.7c-0.4-18.4-1.8-36.7-1.9-55.1c-0.1-15.8,0.8-16,16.1-18.5
		c25-4,49.9-9,75-12.3c24.5-3.2,49.2-4.9,73.8-7c23.3-2,46.6-4.1,69.9-5.4c26.8-1.4,53.7-1.8,80.5-2.8c4.2-0.1,8.4-0.2,12.5-1.1
		c27.7-5.5,55.5-1.7,83.3-0.6c9.6,0.4,19.3-0.8,29-1.2C1772.4,723.4,1772.9,724.6,1773.4,725.9z"/>
	<path class="st1" d="M2956.5,844.7c-3.5,1.9-8.2,4.1-12.4,7c-8.3,5.9-16.2,12.4-24.5,18.4c-2.1,1.5-6.2,3.1-7.5,2.2
		c-2-1.5-3.6-5.3-3.3-7.9c1.7-15.9,3.3-31.8,6.1-47.5c4-22.9,8.4-45.8,13.8-68.5c3-12.8,7.8-25.2,12.5-37.5
		c9-23.7,18.4-47.2,28-70.7c2.3-5.6,5.9-10.6,10.8-14.9c-10.5,33-22.6,65.7-31.2,99.2c-8.6,33.5-13.8,67.9-20.5,101.9
		c1.6,0.6,3.2,1.2,4.7,1.8c1.8-3.3,4.7-6.3,5.2-9.8c1.4-9.9,0.8-20,2.8-29.7c2.2-10.9,6.7-21.3,9.8-32c1.9-6.7,3.1-13.5,4.7-20.3
		c3.1-13.3,5.9-26.7,9.4-39.9c3.7-13.7,7.2-27.4,12.3-40.6c5.1-13.2,11.7-25.9,18.1-38.5c5.4-10.5,11.9-20.4,17.1-31
		c14.6-29.3,34.9-53.6,62.3-71.8c6-4,11.8-8.3,17.5-12.6c6.3-4.7,13.2-3.5,17.8,1c6,5.9,13.6,13.4,14.3,20.8
		c1.7,17.9,1.3,36.1-5.9,53.6c-7.3,17.8-11.3,36.9-18.8,54.6c-8.8,20.5-19.6,40.2-30,60c-6.6,12.7-13.3,25.5-21,37.6
		c-7.6,12-16,23.5-25,34.5c-16.2,19.9-33.1,39.2-49.7,58.8C2968.4,829.7,2962.9,836.7,2956.5,844.7z M3008.7,628.8
		c-1.8-0.7-3.7-1.5-5.5-2.2c-3.6,9.7-7.3,19.5-10.9,29.2c1.3,0.5,2.5,1,3.8,1.5C3000.3,647.8,3004.5,638.3,3008.7,628.8z"/>
	<path class="st1" d="M2381.6,1681.6c-2.2,2-3.9,4.3-6.2,5.6c-22.7,12.8-45.8,25-68.2,38.2c-23.2,13.7-45.5,28.8-68.7,42.4
		c-19.8,11.6-40.2,22-60.4,33.1c-13.8,7.5-27.4,15.3-41.3,22.8c-5.2,2.8-10.5,5.6-16.1,7.3c-1.5,0.5-6.1-3.1-6.2-5.1
		c-0.7-11.5-0.8-23-0.5-34.5c0.6-22,1.6-44.1,2.4-66.1c0.1-1.6,0.4-3.2,2.9-5.1c1.3,5,2.6,9.9,3.9,14.9c0.8,0,1.6,0,2.5,0
		c0.6-6,1.8-11.9,1.6-17.9c-0.3-12.6,3.1-17.8,15-19.6c28.2-4.1,56.3-8,84.6-11.6c24.6-3.2,49.1-6.6,73.8-8.6
		c19.6-1.6,39.3-1.4,59-1.6c6.4-0.1,12.8,1,19.1,1.9C2379.7,1677.9,2380.4,1679.8,2381.6,1681.6z"/>
	<path class="st1" d="M2565.1,895.1c-1.4,7.7-2.8,15.3-4.1,23c1,0.3,1.9,0.6,2.9,0.9c17.5-15.5,17.2-40.5,30.8-60.1
		c2.2,3.3,5.2,5.8,5.6,8.7c4.5,34.8,8,69.9,0.8,104.5c-9.6,46.6-20.7,93-45.5,134.5c-15.2,25.5-31.2,50.5-47.1,75.5
		c-3.5,5.5-8.2,10.3-13.9,14.5c-7.2-17.1-0.5-32.7,1.1-48.3c-0.9-0.2-1.9-0.4-2.8-0.6c-1.3,4.8-1.9,9.8-4,14.1
		c-1.3,2.5-4.9,3.9-7.4,5.8c-1.2-2.6-3.8-5.5-3.3-7.8c1.6-9.2,4.6-18.3,6.4-27.5c1.7-8.5,2-17.3,3.8-25.7c2.3-10.5,5.3-20.7,8.3-31
		c6.5-22.5,12.9-45,20-67.3c3.4-10.6,8.4-20.6,12.5-30.9c7.7-19.4,15.2-38.8,22.7-58.2c2.3-6.1,4-12.4,6.4-18.4
		c1-2.6,3.1-4.8,4.7-7.2C2563.6,894.2,2564.3,894.7,2565.1,895.1z"/>
	<path class="st1" d="M1039.2,966.8c-1.8,2.4-4,4.6-5.2,7.3c-1.4,3-3.1,6.4-2.7,9.5c3.2,26,21.9,42.3,48.2,42.6
		c9.2,0.1,18.4,0.3,27.6,0.6c12.5,0.4,25,0.6,37.5,1.8c2.4,0.2,6,4.1,6.4,6.7c1.8,12.1,2.5,24.4,4.1,36.5c1.1,8.4-1.5,9.4-9.4,7.5
		c-30.9-7.2-61.8-15.6-93.2-19.9c-39.4-5.5-79.3-7.5-122.2-11.3c6.7-5.8,11.8-10.6,17.3-14.9c9.7-7.7,19.7-15.2,29.5-22.8
		c17.2-13.3,35.6-25.2,49.8-42.1c2.1-2.4,6.8-2.6,10.3-3.8C1037.8,965.2,1038.5,966,1039.2,966.8z"/>
	<path class="st1" d="M1947.4,700.3c4.4,9.4,8.8,18.8,13.1,28.2c1.3-0.3,2.5-0.6,3.8-0.8c-0.9-5.5-2-10.9-2.5-16.4
		c-0.4-4.6-0.1-9.2-0.1-15.6c36.6,2.5,71.8,5,107,7.2c34.8,2.2,69.7,3.9,104.1,9.7c0,1.3,0,2.5,0,3.8c-12,3.1-23.8,6.9-35.9,9
		c-15.1,2.7-30.5,3.4-45.6,6.3c-10.1,2-19.5,7.1-29.5,9.7c-25.4,6.5-51,12-76.4,18.6c-12.6,3.3-24.2,1.5-35.4-4
		c-2.1-1-4.4-5.6-3.8-7.6c4.4-14.7,2.4-29-1.5-43.4c-0.3-1.2,0.1-2.5,0.1-3.8C1945.8,701,1946.6,700.6,1947.4,700.3z"/>
	<path class="st1" d="M2665.8,709.9c42.1,64.1,60.3,135.9,67,212c0-5.1,0-10.3,0-15.4c0-5.2,0-10.5,0-15.7c0.9-0.3,1.8-0.6,2.7-0.9
		c1.2,2.4,2.9,4.6,3.5,7.1c4.5,18.3,8.8,36.7,13.2,55c2.5,10.1,0,13-10.7,11.9c-12.2-1.3-22.1,7.7-21.5,20c1.4,26.7-9,50.6-17.3,75
		c-2.7,7.9-6.3,15.5-9.5,23.3c-1.5-0.5-3.1-1-4.6-1.5c9.8-46.7,19.6-93.5,30-142.9c-2.1,4.2-3.1,6.1-4.7,9.3
		c-1.1-2.8-2.2-4.5-2.2-6.1c0.1-30.6,0.9-61.3,0.3-91.9c-0.2-7.2-5.2-14.3-7.5-21.6c-8.2-25.5-15.6-51.3-24.5-76.6
		c-4.8-13.5-12-26.2-18.1-39.2C2663.2,711.1,2664.5,710.5,2665.8,709.9z"/>
	<path class="st1" d="M617.7,2156.9c4.6-18.1,10.8-35.4,27.4-47.7c5.9,8.9,9.5,22.9,4.8,31.4c-5,9.1-19,13.3-29,19.6
		C619.8,2159.1,618.7,2158,617.7,2156.9z"/>
	<path class="st1" d="M2703.9,1648.3c2.8-7.3,5.3-13.6,7.7-20c1,0.2,1.9,0.4,2.9,0.6c1.2,5.2,2.4,10.3,3.7,16.2
		C2713.7,1646.1,2709.8,1647,2703.9,1648.3z"/>
	<path class="st1" d="M2987.9,600.7c4.6-8,9.2-16.1,13.8-24.1c1,0.5,2,1,2.9,1.5c-4.1,8.2-8.3,16.5-12.4,24.7
		C2990.8,602.2,2989.4,601.4,2987.9,600.7z"/>
	<path class="st1" d="M2476.7,1197.9c0-7.8,0-15.6,0-23.4c1,0,2,0,3,0c0,7.8,0,15.6,0,23.4
		C2478.7,1197.9,2477.7,1197.9,2476.7,1197.9z"/>
	<path class="st1" d="M2808.3,744.8c-2.3-6.3-4.6-12.7-6.9-19c1-0.4,2.1-0.8,3.1-1.3c2.6,6.4,5.3,12.7,7.9,19.1
		C2811,744,2809.7,744.4,2808.3,744.8z"/>
	<path class="st1" d="M4481.1,684.3c-3.5-7.3-7.6-14.3-10.3-21.8c-7.7-22.3-12-45-13.1-68.8c-0.9-19.4,7-35,16.4-49.7
		c9.1-14.3,20.8-27.3,37.5-33.9c11-4.3,13.8-2.9,13,8.4c-1.1,16.6-4.4,33.1-5.1,49.7c-1.2,26.4-9.1,51.1-17.1,75.8
		c-4.4,13.8-10.9,26.9-16.5,40.3C4484.3,684.2,4482.7,684.2,4481.1,684.3z"/>
	<path class="st1" d="M4455.9,908.9c2.3,1.2,2.8,1.2,2.9,1.5c12.2,19.9,12.6,20.3-5.7,34.7c-16.6,13-34.1,24.8-52.4,36
		C4418,955.8,4434.7,930.3,4455.9,908.9z"/>
	<path d="M2699.6,1740.4c3.7-12.2,7.5-24.3,11.2-36.5c1.3,0.4,2.7,0.7,4,1.1c-3.7,12.2-7.3,24.4-11,36.6
		C2702.4,1741.2,2701,1740.8,2699.6,1740.4z"/>
	<path d="M3008.7,628.8c-4.2,9.5-8.4,19-12.7,28.4c-1.3-0.5-2.5-1-3.8-1.5c3.6-9.7,7.3-19.5,10.9-29.2
		C3005.1,627.3,3006.9,628.1,3008.7,628.8z"/>
</g>
<g>
	<defs>
		<rect id="SVGID_1_" x="1773.4" y="3091.3" width="5007.8" height="3932"/>
	</defs>
	<clipPath id="SVGID_2_">
		<use xlink:href="#SVGID_1_"  style="overflow:visible;"/>
	</clipPath>
	<path class="st2" d="M6596.1,6087.1c-24.1-18-65.2-20.5-86.4,5.1c-73.3,88.7-153.7,170.8-240,245.7
		c-75.6,49.4-154.3,94.7-233.3,138.3c-184.4,101.8-376,189.5-573.4,262.9c-11.9-5-25.7-6.2-40.9-1.7
		c-199.4,59.7-405.1,88-613.3,83.2c-208.1-4.8-416.1-30.9-623.2-50c-206.3-19.1-413.8-41.4-621.3-29.1c-128.8,7.6-256,29.7-383.8,47
		c-18.4-1.3-36.7-2.3-55.1-2.8c-62.6-1.6-120.9,10-179,24.7c-232.3,7.4-454.3-70.1-676.4-128.8c-14.9-4-28.3-2.9-39.7,1.5
		c-60.9-28.4-133.1,53-75.6,104.7c153.9,138.1,360.5,213.9,567.8,201.4c77.7-4.7,149.8-27.9,223.2-47.2
		c81.6-2.7,162.8-12,243.8-23.2c67.5,5.7,135.2,17.8,200.3,25.1c497.7,56.1,999.3,96.5,1500.3,72.2c139.8-6.8,280.8-16.4,419.4-36.7
		c54.8-8,120.8-32.3,160.8-75c324.6-84.1,628-244.2,881.3-463c17.6-11.8,35.1-23.8,52.3-36.2c85.6-62.1,164.7-135.5,209-233.3
		C6626.6,6142.1,6624.1,6108,6596.1,6087.1"/>
	<path class="st3" d="M6331.8,4975.2c-3.2,94.2-7.2,188.3-11.8,282.4c-0.7-0.2-1.4-0.4-2.1-0.5c-26.9-90.7-53.8-181.4-80.8-272.1
		c-18.9-63.9-77.2-105.9-142.2-104.3c26-23.1,51.4-46.7,76.5-70.4c56.4-53.2,112.7-106.6,168.9-160.1
		C6338.4,4758.6,6335.5,4866.9,6331.8,4975.2 M5933.3,5450.2c-4.4,0.5-8.7,1.1-13,1.9c9.1-18.4,14.6-39.6,15.1-63.3
		c2.1-90.4-31.9-177.8-92.2-244.8c-7.9-8.8-16.1-16.6-24.5-23.8c4-2.3,7.9-4.7,11.9-7c11.5-6.5,23.1-12.9,34.9-18.8
		c5.5-2.8,11-5.3,16.5-7.9c2.1-0.7,5.1-1.9,9.4-3.5c23-8.3,44.3-21.7,61.7-38.7C5945.3,5179.5,5938.6,5314.8,5933.3,5450.2
		 M4594.2,5560.4c-33.1-15-66.3-29.7-99.7-43.9c-218.1-92.8-441.7-168.2-668.6-232.5c35.7-1.6,71.3-3.2,107-4.8
		c78,2.6,155.9,5.1,233.9,7.5c156.4,4.8,313.2,5.6,468.9-12.8c51.6-6.1,103.1-13.5,154.5-21.1c162.7,63.3,328.2,118.6,496.1,165.8
		c6.9,108.8,13.2,217.6,16.5,326.8c0.4,12.5,0.7,25,1.1,37.5C5109.9,5606.1,4850.4,5571.9,4594.2,5560.4 M3811.9,6425.4
		c-33.7-3.1-67.5-6.2-101.2-9.4c6.1-7.2,11.7-14.9,16.8-22.8c33.8-3.6,67.6-17,90.1-41.2C3815.7,6376.5,3813.8,6401,3811.9,6425.4
		 M3314.8,5473.2c-2.2-0.4-4.3-0.9-6.5-1.2c-20.1-2.7-40.9-0.8-60.7,5.1c-8-18.7-18.9-35.3-33-48.9c58.9,12.9,117.7,26.1,176.3,39.9
		C3365.5,5469.6,3340.2,5471.3,3314.8,5473.2 M2989.2,5473.8c-20-3.3-39.9-6.9-59.9-10.2c-48-7.7-96.9-15.9-145.7-16
		c-103.7-0.2-215.1,32.5-280.6,117.2c-1.8,2.3-3.4,4.6-5.1,6.9c-54.7-5.7-115.5,22.2-142.2,71.8c-9.4-2.1-19.4-3.3-29.6-3.5
		c25.6-125.2,48-254,47.8-382.3c105.6,21.6,211.4,42.4,317.1,63.3c127.2,25.1,254.4,50.4,381.3,76.9
		C3036.4,5410.2,3008.3,5437.8,2989.2,5473.8 M3013.7,6341.6c1-4.4,2.2-8.8,3.2-13.2c7.9,5.6,15.9,11.1,23.9,16.5
		C3031.8,6343.8,3022.8,6342.7,3013.7,6341.6 M2709.2,6289.6c4.7-15.2,9.4-30.3,14.3-45.5c1.9,16.6,3.7,33.3,5.6,49.9
		C2722.5,6292.6,2715.9,6291.1,2709.2,6289.6 M6623.6,5363.1c-4.1-15-10.7-28.7-19-41c6.5-126.4,12-252.9,16.1-379.4
		c3.6-111.3,6.3-222.6,8.1-333.9c1.8-113.4,1.5-229-59.4-329.1c-49.1-80.6-158.1-93.6-226-29.1c-100.8,95.7-201.6,191.3-302.4,287
		c-45.8,43.5-91.2,87.4-138.2,129.5c-20.3,18.2-41,36.1-62.2,53.3c-3.2,2.6-6.4,5.1-9.6,7.7c-2.7,2-8,6-9.7,7.2
		c-12.9,9.1-25.7,18.2-38.9,26.9c-22.5,14.7-45.6,28.3-69.5,40.4c-6,3-12,5.9-18,8.8c-0.5,0.2-4.1,1.8-7.2,3.1
		c-3.4,1.3-7.3,2.7-7.8,2.9c-8.5,2.9-16.9,5.9-25.5,8.5c-51.2,15.9-105.4,29.1-151.4,58c-30.9,19.4-55.9,44-74.6,71.7
		c-4.9-0.3-9.8-0.7-14.7-1.1c-3.9-0.4-7-0.6-9.4-0.8c-2.7-0.5-6.7-1.3-12.8-2.3c-15-2.6-30.1-4.9-45.1-7.2
		c-9.8-1.5-19.6-2.9-29.5-4.3c-37-9.2-76-13.7-115.3-15.1c-231.8-26.3-465.9-21.7-698.6-11.4c-243.7,10.8-487.1,27.1-731.2,23.1
		c-247.9-4.1-495.5-22.5-742.9-37.4c-139.1-8.4-278.3-16.8-417.4-25.2c-136.8-8.2-273.9-19.9-411-15.7c-15.4-1.1-31.3,0.5-47,5.6
		c-0.7,0.2-1.4,0.5-2.1,0.8c-72.7,21.5-129.3,96.7-102.6,176.1c3.8,11.3,8.3,21.8,13.2,31.9c6.5,25.3,11.8,50.8,17.5,76.5
		c0.3,1.3,0.5,2.2,0.7,3.1c0.1,0.7,0.1,1.4,0.2,2.4c0.6,7.3,1.6,14.6,2.2,22c1.9,22,2.8,44.1,3.1,66.2c0.5,37.1-1.1,74.2-4.2,111.2
		c-1.5,17.4-3.3,34.8-5.4,52.2c-0.2,1.6-0.3,2.9-0.4,4c-0.1,0.8-0.2,1.5-0.4,2.6c-1.8,12.5-3.8,25-5.8,37.5
		c-25.7,156-67.4,308.9-92.5,465c-27.2,169.1-38.1,339.9-25.7,510.8c3.9,52.9,9.2,103.6,31.6,152.3c21,45.6,58.6,81.2,100.3,108.2
		c67.2,43.4,149.1,69.3,227.4,83.5c162.4,29.5,330.9,34.9,495.6,39.9c166,5,332.2,3.3,498-5.1c164.3-8.3,328.3-26.1,493-25.1
		c80,0.5,160,5.6,239.6,13.2c38.7,3.7,77.4,8,116,12.6c18,2.2,36.1,4.5,54.1,6.8c7.7,1,15.5,2,23.2,3c4.5,0.6,7.9,1,10.6,1.4
		c2.8,0.4,7,1,13,1.8c328.8,45.1,657.9,96.5,988.5,37.2c82-14.7,166.9-39.3,225.8-102.1c35.7-38.1,57-83.9,71.5-132.3
		c3.2-0.9,6.4-2,9.5-3.3c56-23.2,111.9-46.5,167.9-69.7c22.9,13.1,48.5,20.6,71.7,19.5c60-2.7,126.4-42.3,138.8-105.6
		c0.1-0.5,0.2-1,0.3-1.5c20.5-8.5,40.9-17,61.4-25.5c75.9-31.5,151.8-63,227.6-94.6c67.5-28.1,137.9-53.9,197.8-96.6
		c131.9-94.1,197.8-243.1,226.9-398.9C6671.6,5684.3,6666.8,5521.2,6623.6,5363.1"/>
	<path class="st4" d="M4258.6,6315.9c-3-3.2-6.1-6.4-9.2-9.5c3.4-4.3,6.8-8.6,10-13.1C4259.3,6300.9,4259,6308.4,4258.6,6315.9
		 M3516.4,6379.8c-20.3-3.4-41.1-10.3-48.3-17c-13.4-12.5-21.1-35-28-59.9c7.3,1.8,14.7,3.4,22.3,4.6c11.6,1.8,23.4,3.5,35.1,4.3
		c12.1,23.8,22.6,48.1,38.6,70.1C3528.6,6381.4,3521.6,6380.7,3516.4,6379.8 M2794.8,6186c-3.5-7.2-7.1-14.3-10.8-21.4
		c6.6,1.1,13.2,2.2,19.9,3.1C2800.4,6173.5,2797.4,6179.7,2794.8,6186 M5236,6175.2c-47-30.2-114.5-27.9-169-32.4
		c-57.3-4.8-114.8-7.3-172.3-7.7c-16.8-0.1-36.1,2.6-52.3-3.1c-1.1-1.2-2.4-2.8-3.4-5.1c3.6,7.9-4.8-7.1-8.5-13.6
		c1.2,0.5-6.3-22.4-6.2-21.6c-1-7.4-0.3-22.5,0.5-30c1.9-19.5,8-39.2,13.8-57.9c19.2-61.3,39.3-118.3,21.2-183.4
		c-39.6-142.9-252.7-166.3-296.6-12.9c-12.9,45.1-3,87.9,2.6,133.1c6.3,50.5,8,104-4.7,153.6c-6.6,25.7-16.5,49.5-24.3,73.3
		c-38.3-20.8-75.2-44.1-108.9-71.9c-1.1-0.9-2.2-1.8-3.4-2.7c12.9-20.6,20.5-43.8,24-69.4c10.3-76.9-7.2-157.1-75.3-202.2
		c-135.5-89.6-290.5,31.2-342.9,156.1c-28.2,67.1-33.9,140.5-60.6,207.8c-15.7,39.5-41.1,64.6-73.4,69.6c-33,5.2-69.6,1-102.5-3.5
		c-14-1.9-53.5-6.8-68.7-16.8c-39.3-25.9-82.1-96.3-89.7-147.5c-0.2-1.5-0.6-2.9-0.9-4.3c34.7-25,63.4-58.4,87.7-95.3
		c18.7-28.5,35.2-60.9,43.1-94.1c4.5-19,7.5-39.2,7.5-58.8c-0.3-7.8-0.8-15.6-1.4-23.4c-1.1-13.3-0.7-15.4,1-6.3
		c17.9-52.6-20.5-112.4-71.8-126.4c-56.3-15.5-108.5,19-126.4,71.8c-12,35.3,0,73-10.6,100.8c-7.4,19.4-26.3,49.4-44.6,63.1
		c-13.7,10.3-40.4,12.3-58.6,10.4c-16.7-1.8-33.7-6.4-49.9-10.9c0.4,0.1-7.5-2.1-14.7-4.2c-7.6-27.9-25.7-47.7-48.3-59.3
		c17.9-108.5,2.7-248.4-79.5-320.1c-122.5-106.9-329.3-45.5-358.1,120.3c-9.5,54.6,14.6,110.7,71.8,126.4
		c49.5,13.6,116.9-16.8,126.4-71.8c-0.1,0.4,2.6-12.6,3.7-18c0.3-0.9,0.8-1.9,1.3-2.9c0.5-0.4,7.6-3,10.3-4.5
		c1.8,0.6,3.7,1.5,5.1,2.2c2.3,2.8,6.6,7.3,6.1,5.9c5.2,9.6,7.8,24.5,8.5,31.4c3.8,35.1,12,96.5-5.9,128.6
		c-14.3,25.5-51,46-75.8,55.5c-62.7,24-170.3,29.7-215.1-6.9c-15.8-12.9-25.9-31.7-36.5-48.7c-1-1.5-6.4-8.9-10.8-15.8
		c0.5-2.1,1.2-4.8,1.9-8c28.7-41,31.9-113.3,30-160.9c-2.7-67.3-63.5-116.1-130.1-99.1c-65.5,16.6-111.4,57-165.2,94.6
		c-18.8,13.2-37.5,25.7-59.6,31.8c-33.4,9.2-63.8,12.8-91.1,37.5c-47.7,43.1-61.1,113.6-72.1,174.4c-12.1,66.3-18,136.7,3.7,202
		c19,57.1,53.1,103.8,94.2,147.1c15.8,16.7,32.4,32.7,47.8,49.7c12.6,14,22.8,25.7,29.3,40.7c18.2,42,5.8,109.6,37.9,158.7
		c20.6,31.5,53.9,52.8,90.1,62.5c23.9,6.4,50.9,2.9,73.3,3.1c0.1,0.7,0.3,1.5,0.4,2.2c9.1,49.6,66.3,80.6,112.8,73.6
		c52-7.8,81.8-46.1,88.5-96.1c0.1,0,0.1,0.1,0.2,0.1c-0.1,1.3,0.1,1.2,0.4,0.3c12.7,7.9,37.7,19.9,41.3,21.6
		c28.4,13.7,58.3,22.4,90.1,22.7c64.3,0.8,127-40.1,138.9-104.8c9.7-52.7-5.1-110.8-31.8-156.5c-3.8-6.5-8.1-12.8-12.6-19
		c20.9-15.5,43-29.2,67.4-38.5c6.3-2.4,18-2.9,22.3-4.2c15.9,28.9-7.4-15.9,10.3,15.1c12.6,22,21.5,65,32.9,98.6
		c33.4,99.1,100.2,174,205.8,196.2c90.1,19,198.8,20.5,286.9-8.6c50.9-16.8,101.2-43.2,130.6-90c3.4-5.4,6.4-11.1,9.1-16.9
		c52.8-2.3,107-14.5,152-42.5c3.1,1,6.3,1.8,9.6,2.4c51.4,9.4,80.8,49.1,109.8,100.1c19.9,34.9,35.4,77.3,64.3,106.2
		c40.2,40.2,105.3,47.7,151,12.4c40-30.9,59.8-91.1,71.6-148.8c16.5-0.5,33.4-4.7,50-12.4c16.7-7.8,20.8-12.8,34.7-8.4
		c17.5,5.6,34.6,18.6,50.9,27.1c56.7,29.7,115.1,55.8,174.3,80c110.5,45,219.4,88.7,334.7,33.2c98.1-47.2,186.8-139.7,206.3-249.5
		C5303.1,6295.4,5297.8,6215,5236,6175.2"/>
	<path class="st4" d="M6549.8,5360.4c-45.8-91.5-195-47.6-191.6,51.9c1.3,36.5,2,72.1-6.9,106.1c-7.3,28.2-22,51.1-32.7,58.4
		c-11.4,7.8-14,9.5-19,10.6c-0.2,0-0.4,0.1-0.5,0.1c2.5-15.7,4-33,4.1-50c0.3-56.6-30.4-109.2-82.5-132.2
		c-57.4-25.4-125.2-3.4-157.3,50.6c-24.1,40.5-26.2,92.6-31,138.3c-4.6,44.1-3.8,88.3-6.9,132.5c-1.2,17.9-0.5,17.4-7.2,36.7
		c2.5-7.2-1.1-1.7-2.8,2.9c-2.5,0-5.7,0.1-7.3,0.1c2.3-0.3-10.4-5.3-12.2-7.3c-18.7-20-21.9-39.2-31.8-69.3
		c-14.6-44.4-38.1-85.7-79.8-109.7c-102.4-59-226.8,23.4-231.5,135.8c-2.3,52.8,20.8,97.6,54.8,136.3c12.7,14.5,26.7,28.1,40.2,41.9
		c7.4,7.6,15.4,19.1,24.2,25.4c-3.9,6.2-7.8,13.8-9.4,16.5c-11.3,20-20.9,41.5-26.4,63.9c-13.4,54.5-2,113.5,38.8,153.6
		c43.3,42.5,101.8,42.4,158.4,45.4c57.3,3.1,114.6,6.1,172,9.2c51.7,2.8,96.2-42.5,102.1-91.8c14.8-12.9,26.9-27.4,37.9-44.4
		c0.9-1.4,3.8-5.6,6.1-9.2c1.4-1,2.7-1.9,3.1-2c92.4-36.6,95.5-144,16.4-190.1c-0.4-2.3-0.8-5.2-1.4-9c-1.7-11.1-6.1-21.3-12.3-30.3
		c12.4-12,24.3-20.1,42.6-29.3c12-6.1,43.9-15.2,52.3-16.2c38.5-4.6,76.8-0.9,114.7-12.5C6644.3,5718.8,6614.8,5490.2,6549.8,5360.4
		"/>
	<path class="st5" d="M6780.9,3401.3c-5.1-98.6-66.9-182.5-163.2-209.5c-52.9-14.8-110.6-18.4-165-25.8
		c-121.8-16.6-243.8-30.9-366.2-41.6c-459.7-40.1-921.8-36.9-1382.7-25.4c-75.4,1.9-150.7,4-226.1,6.2c-36.6-1.9-73.2-0.6-110.3,3.2
		c-0.5,0-1,0-1.6,0.1c0,0,0,0.1,0,0.1c-15.6,1.7-31.3,3.7-47,6.2c-34,5.4-62.5,24.4-83.8,50.3c-5.1,0.3-10.2,0.8-15.3,1.1
		c-52.4,2.9-105,3.5-157.4,0.3c-10.5-0.6-20.9-1.4-31.4-2.4c-3.8-0.3-28.6-3.8-31.3-4c-20.5-3.5-40.9-7.3-61.3-11.6
		c-114.7-24.2-228.6-51.4-346.5-54.8c-109.1-3.1-221.2,10.8-326.6,39c-218.4,58.4-395.5,187.7-570.6,324.9
		c-173.6,136.1-347,272.5-520.5,408.8c-97.4,76.5-211.7,146.7-285,248c-45.2,62.5-65.3,146.8-43,222c5.7,19.3,14.2,38.6,25.1,56.5
		c-17.7,17.5-34.2,37.8-49.3,61.3c-71.4,111.7-66.3,264.6,29.7,360.6c91.7,91.6,220.1,92.3,340.7,93.8c234.5,2.8,469,5.6,703.5,8.4
		c468.1,5.6,936.2,11.2,1404.3,16.8c433.1,5.2,881.9,30.7,1303.4-89.1c210.2-59.7,406.9-159,580.6-291.2
		c177.4-135.2,346.5-293.8,443.6-498.3c47.6-100.2,83.4-204.5,106.7-312.9c10.6-49.3,18.7-99,25.6-149
		C6768.4,3532.6,6784,3463.1,6780.9,3401.3"/>
	<path class="st6" d="M6056.6,3705.6c-0.8-0.9-1.5-1.6-2.2-2.4c0.5-0.4,1.1-1.2,1.6-1.1c0.6,0.1,1.4,0.8,1.6,1.4
		C6057.8,3703.9,6057.1,3704.6,6056.6,3705.6"/>
	<path class="st6" d="M1867.1,4430.5c-1-53.7,26.3-102.6,56-145.5c31-44.9,67.7-85.2,101.7-127.7c75.5-94.3,149.9-187.2,238.9-269.5
		c98.5-91.1,210-166.4,319.6-243.2c116.8-81.9,234.6-162.5,352.8-242.3c120.3-81.3,249.3-150.7,359.5-246.1
		c12-10.4-5.5-27.8-17.4-17.4c-101.2,87.6-218.9,152.6-330.2,226c-121.6,80.2-241.2,163.6-360.6,247
		c-110.2,77.1-223,152.5-323.3,242.5c-93.4,83.8-173.4,178.6-250.2,277.4c-67.2,86.4-173.6,180.1-171.5,298.9
		C1842.7,4446.4,1867.4,4446.4,1867.1,4430.5"/>
	<path class="st6" d="M3295.1,3151.5c222.7-0.1,445.4-4.1,668.1-6.5c108.6-1.2,217.4-3,326.1-1.5c109.2,1.4,218.1,8.6,326.9,17.8
		c107.5,9,214.8,19.9,322.3,28.7c108.4,8.9,217,11.5,325.7,10.2c218.8-2.7,438.1-18.7,656.7-4.2c238.8,15.7,472.6,70.4,710.2,96.3
		c15.8,1.7,15.6-23,0-24.7c-212.8-23.2-422.4-69.4-635.5-90.2c-216.4-21-433.9-8.4-650.7-3.4c-108.7,2.5-217.6,3.3-326.3-2.9
		c-107.9-6.2-215.6-17.9-323.3-27.6c-108.4-9.8-217-18.7-325.8-22.6c-109.5-4-219.3-2.3-328.9-1.3c-248.5,2.2-497,7.2-745.6,7.3
		C3279.3,3126.8,3279.2,3151.5,3295.1,3151.5"/>
	<path class="st6" d="M1848.5,4441.2c57.2,44,133,52.9,202.9,56.3c84,4.1,168.3,5.8,252.3,8.9c207.4,7.5,415.5,4.8,623.1,7.7
		c208.6,3,417.3,0.7,625.8,8.5c208.2,7.8,416.1,22.8,624,36.9c207.7,14.1,415.6,27.2,623.8,31.2c97.3,1.8,194.3,1.9,291.5,7.3
		c91.9,5.1,185,10.3,276.5-2.7c139.2-19.8,226.3-144,305.2-248.6c44.4-58.9,89.5-114.3,141.7-166.4c72-71.9,144.1-143.5,216.6-214.9
		c72.9-71.8,146-143.2,219.5-214.3c50.1-48.4,99.1-97,154.2-139.8c50.2-39,100.8-77.7,146.9-121.6c40.8-38.9,82.6-84,101.3-138.3
		c7.4-21.6,9.5-43.9,5.8-66.4c-2.5-15.6-26.3-9-23.8,6.6c8.7,54-30.2,105.3-64,143c-42.8,47.7-93,88.5-143.3,127.9
		c-42.9,33.7-85.5,66.4-124.9,104.2c-71.3,68.4-142.2,137.2-212.8,206.3c-70.8,69.3-141.4,139-211.6,208.9
		c-58.2,57.9-119.1,113.9-170.2,178.4c-43.7,55-83.9,112.7-129.2,166.4c-42,49.8-89.9,100.9-150.5,127.7
		c-35.4,15.7-75.2,19.3-113.5,22c-45.6,3.3-91.4,2.9-137,1.3c-91.6-3.2-182.9-10-274.6-10.3c-201.8-0.6-403.4-11.2-604.7-24.1
		c-203.3-13.1-406.4-28.7-609.9-39c-203.6-10.3-407.1-10.4-610.9-12.6c-202.7-2.2-405.4-6.6-608.1-7c-97.7-0.2-195-4.2-292.6-8.4
		c-73.3-3.1-147.9,1.4-220.2-14.1c-35.1-7.5-68.3-20.1-96.9-42.1C1848.4,4410.2,1836.1,4431.6,1848.5,4441.2"/>
	<path class="st6" d="M1862.6,4479.8c-71,77.3-95.5,185.3-43.5,279.9c56.1,102.3,167,135.4,275.1,151.5
		c135.8,20.2,273.9,15.3,410.5,8.2c142.7-7.4,284.5-14.5,427.5-11.9c322.2,5.9,644,32,966.5,19.1c320.2-12.8,640.5-30.3,961.1-28.8
		c78.9,0.4,157.8,1.9,236.6,5c36.1,1.4,72.7,1.7,108.5,6.6c26.3,3.6,52.4,9.2,78.8,12.2c43.7,5,86.7-2.6,109.1-44.6
		c29.5-55.5,24.7-125.2,32.2-185.8c4.6-37.3,14.1-72.9,33.3-105.5c8.1-13.7-13.2-26.1-21.3-12.5c-33.1,56.1-37.1,119.2-42.4,182.6
		c-4,47.3-7.1,130.5-66.5,141.3c-48.5,8.8-101.4-11.9-149.9-15.3c-75-5.3-150.6-6.5-225.8-7.7c-307.4-5.2-614.6,9.3-921.7,22.3
		c-153.4,6.5-306.5,11-460,7.8c-153.6-3.2-307.1-10.9-460.7-16.5c-143.5-5.2-287.2-9.2-430.7-2.5c-134.8,6.3-269.6,17.5-404.6,15
		c-65.7-1.2-131.6-5.4-196.5-16.7c-56.1-9.7-113.5-22.4-161.5-54.4c-85.8-57.1-126.6-165.9-83.6-262.4c11.5-25.9,28.1-49,47.2-69.8
		C1890.8,4485.5,1873.4,4468,1862.6,4479.8"/>
	<path class="st6" d="M5392.8,4922.6c322.5-45.8,565.5-279.6,785.9-500.4c55.9-56,111.4-112.3,168.7-166.8
		c28.5-27.2,57.5-53.9,87.1-79.8c27.8-24.3,57.9-46.3,85.2-71.1c121.3-110.2,93-292.5,119.5-438.3c12.2-67.1,36.6-131.5,49.4-198.6
		c10.3-54.1,25.6-139.1-23.7-179.8c-12.2-10-29.7,7.3-17.4,17.4c42.7,35.2,25.5,114.7,16.4,160.8c-11.6,58.9-31.1,115.7-44.5,174.1
		c-16.2,70.7-16.8,144.1-24.3,215.9c-7.7,74-22.5,152.8-72.9,210.7c-24.4,28-55.9,49.4-84.1,73.3c-28.4,24.1-56.1,49.1-83.3,74.5
		c-56.1,52.4-110.4,106.8-164.6,161.2c-109.5,109.9-219.1,221-342.7,315.1c-136.3,103.8-290,183.5-461.1,207.9
		C5370.6,4901,5377.2,4924.8,5392.8,4922.6"/>
	<path class="st6" d="M2049.4,4927.2c0.9,56.1,15.9,109.1,31.8,162.4c17.9,60.1,27.8,117,25.2,180c-2.8,69.7-12,138.9-22,207.8
		c-9.7,66.8-22.9,134.3-24.3,201.9c-1.4,67.9,0,132.7-19.6,198.6c-18.3,61.4-44.9,120.2-56.5,183.4c-11.9,64.9-10.6,131-9.6,196.7
		c0.9,57.5-2.1,115.6,4.2,172.8c5.6,50.2,18.8,100.2,49.8,140.9c30,39.4,71.1,70.9,114.3,94.6c89.9,49.2,192.6,67.1,292.1,86.2
		c56.2,10.8,111.9,23.9,168.4,32.5c61.1,9.3,122.7,15.2,184.4,18.5c130.2,6.9,260.6,2.4,390.6-5.7c129.7-8,259.1-19.8,388.8-28.2
		c133.2-8.7,266.8-12.3,400.2-15.1c275.5-5.9,551.8-6.3,827.2,6c181.3,8.1,367.5,77.9,548.6,30.9c39.8-10.3,78.5-27.8,109.9-54.7
		c35.4-30.3,51.5-74.4,57.8-119.4c6.8-48.4,4.3-97.3,7.3-145.9c4.3-67.9,9-135.7,11.7-203.7c5.7-138.4-1.9-275.1-16.2-412.8
		c-14.1-135.5-37-274.1-26.5-410.6c7.8-101.4,26-201.1,20.2-303.2c-4.1-73.5-11-154.7-44-221.7c-11.5-23.4-28.3-45.6-54.1-53.8
		c-15.2-4.8-21.7,19-6.6,23.8c26.7,8.5,40.2,41.1,48.7,65.2c12.9,36.3,19.8,74.7,24.6,112.8c10.2,80.3,9.9,160,1.1,240.5
		c-6.9,63.4-16.3,126.6-17.4,190.5c-1.2,66.6,6.3,133.7,12.8,200c13.2,133.7,31.4,267.2,34.7,401.6c3.2,129.1-8.6,257.3-14.6,386.1
		c-2.2,48,0.8,96.8-8.9,144.1c-9.9,48.2-34.7,84.4-77.2,109.3c-77.7,45.5-175.3,45.5-262.4,39.2c-93.3-6.7-185.1-24.8-277.8-36.3
		c-111.6-13.9-226-11.9-338.3-13.9c-134.5-2.3-269.1-2.7-403.6-1.2c-259,2.8-516.8,13.9-775,33.7c-249,19.1-502.6,38-750.6-1.5
		c-53.8-8.6-106.9-21.1-160.4-31.3c-49.2-9.4-98.5-18.6-147-31.4c-95.3-25.2-204.7-69.7-256.6-159.6
		c-26.3-45.4-32.8-99.1-34.7-150.6c-2.2-58.6-1.4-117.6-1.7-176.2c-0.4-66.9,3.5-132.9,22.7-197.3c17.5-58.5,42.8-114.7,54.8-174.8
		c12.6-63,5.7-127,10.1-190.7c4.8-68.1,18.4-135.9,27.8-203.4c8.9-64.6,16.4-129.4,17.9-194.7c1.3-56.5-9.8-109.5-25.8-163.4
		c-15.6-52.3-30.9-103.9-31.9-158.9C2073.8,4911.4,2049.1,4911.3,2049.4,4927.2"/>
	<path class="st6" d="M6519.6,4140.8c0.4,114.1,20.4,225.9,35.4,338.7c15.9,119.7,16.3,240.5,23.2,361
		c7.1,124.3,16.4,248.4,25,372.6c7.9,114.2,13,228.6,21.4,342.7c13.5,183.6,38.6,398.6-77,556.8c-55.1,75.5-131.7,133.4-210,182.9
		c-80.4,50.8-165.5,93.6-250,137.2c-109.4,56.4-217.1,116.3-325.8,174c-48.5,25.7-96,53.4-144.7,78.7c-38.6,20-93.6,44.8-127.7,4.7
		c-10.3-12.1-27.7,5.4-17.4,17.4c57.2,67.3,152.5,1.9,210.3-30.3c109.3-61,221.2-117.3,331-177.4
		c166.7-91.2,349.8-165.6,488.9-298.9c67.1-64.3,115-141.1,137.5-231.7c24.2-97.8,23.2-200.1,17.6-300
		c-13.3-235.9-31.1-471.6-46.7-707.3c-4.8-72.8-9.2-145.6-12.6-218.5c-3.2-68.4-4.1-136.9-11.1-205.1
		c-13.8-132.8-41.9-263.5-42.4-397.5C6544.2,4124.9,6519.5,4124.9,6519.6,4140.8"/>
	<path class="st6" d="M5477,6718.6c16.3,70.2,48.9,144.7,130.5,149.5c44.9,2.6,88.4-13.9,130.2-27.9c52.8-17.7,105.6-35.6,157.5-56
		c101.9-40.1,199.4-90.7,282.9-162.3c44.3-38,84.5-80.8,127.6-120.1c43.8-39.8,88-79.3,128.1-122.9c43.7-47.5,77.9-99.5,107.1-157
		c30.6-60.1,59.8-119.5,107.3-168.4c11.1-11.4-6.4-28.8-17.4-17.4c-77,79.1-106.3,187-171.5,274.1c-67.1,89.7-157.9,158.1-237.3,236
		c-39.2,38.5-78.7,75.2-124.2,106.4c-42.1,28.9-86.9,53.7-133.1,75.2c-49.5,23.1-100.7,42.6-152.2,60.7
		c-47.8,16.9-96.2,35.7-145.4,48c-35.4,8.8-76.8,13.3-108.1-9.4c-35.7-25.8-48.8-74.5-58.3-115.1
		C5497.2,6696.6,5473.4,6703.1,5477,6718.6"/>
	<path class="st6" d="M2140.4,6682.2c0.7,74.9,18.8,145.7,82.1,191.2c29.9,21.5,64.5,35.6,98.5,49.1c47.1,18.6,94.4,38.3,144,49
		c115.9,24.9,235.7,13.3,352.9,7.4c130-6.5,260.5-3.3,390.6-7c273.8-7.7,547.1-35.2,821.2-29.8c265.3,5.2,529.9,24.4,795.3,27.1
		c232.4,2.4,473,0.1,696.3-72.2c26.5-8.6,52.7-18.3,78.4-29.1c14.4-6,8.1-29.9-6.6-23.8c-213.2,89.1-450.5,100.4-678.7,100.8
		c-252.1,0.4-503.3-14.2-755.1-23.8c-135.3-5.1-270.8-7.3-406.1-0.6c-131.7,6.5-263.2,16-395,21.4c-131.8,5.4-263.7,8.8-395.7,9.3
		c-117.3,0.5-234.6,12.3-351.9,10.5c-65.9-1.1-132.3-7.8-194.9-29.5c-44.6-15.5-89.9-32.2-132.6-52.4c-33.6-15.9-66.5-36-87.4-67.6
		c-25.3-38.2-30.3-85.2-30.8-130C2164.9,6666.3,2140.3,6666.3,2140.4,6682.2"/>
	<path class="st6" d="M3526.9,3606.8c404.1,0.1,808,15.1,1212,21.7c114.8,1.9,229.6,3.1,344.3,3.1c15.9,0,15.9-24.7,0-24.7
		c-404.1-0.1-807.9-15.1-1211.8-21.7c-114.8-1.9-229.6-3.1-344.5-3.1C3511.1,3582.1,3511,3606.8,3526.9,3606.8"/>
	<path class="st6" d="M3524.6,3604.8c-76.7,154.4-224,272.4-248.5,450.8c-0.9,6.3,1.4,13.6,8.6,15.2c159.2,35,324.1,10.9,485.2,8.2
		c186.9-3.1,374.2-0.3,561.1-0.2c94.4,0,188.4,4.5,282.6,10.6c76,5,152.9,13.7,229.2,12.8c61.4-0.7,114.4-11.1,156.7-58.3
		c41.8-46.6,68.8-105.4,93.6-162.2c29.3-67,70.8-138.5,72.3-213.1c0.4-20.3-4.2-39.4-21.3-51.7c-20.9-14.9-48.4-21.4-71.2-32.9
		c-14.1-7.1-26.6,14.1-12.5,21.3c20.5,10.3,42.9,17,63,27.9c17.2,9.3,18.3,23.7,17.1,42.1c-4.3,65.5-39.8,127.3-65.5,186.6
		c-24.1,55.7-49.7,114.3-89.6,160.8c-17.3,20.1-37.7,38.1-63.6,45.8c-30.4,9-63.3,9.5-94.7,9.1c-73.8-0.8-147.9-8.5-221.5-13.3
		c-87.4-5.7-174.8-10.1-262.4-10.1c-177,0-353.9,0-530.9,0c-172.4,0-350.7,30.4-521-7.1c2.9,5.1,5.7,10.1,8.6,15.2
		c24.1-175.9,170.3-292.5,246-444.8C3552.9,3603.1,3531.6,3590.6,3524.6,3604.8"/>
	<path class="st6" d="M3258,4082.9c-0.3,46.3-15.7,108,25,142.5c34.6,29.3,92.2,19.5,133.7,17.4c61.4-3,122.7,5.3,184.1,7
		c77.4,2.1,154.9,0.6,232.3-1.4c314.3-8,628.7-5.1,942.9-20c25.5-1.2,51.1-1.1,76.6-2.6c24-1.4,51.5-2.6,73.5-13.6
		c61.1-30.7,36.5-98.3,53.3-151c4.8-15.2-19-21.7-23.8-6.6c-7.5,23.5-7.5,47.2-8.3,71.7c-0.8,25.8-6.8,51.3-32.1,63.9
		c-20.1,10-46.1,10.1-68,11.2c-20.5,1.1-41.1,1-61.6,1.8c-145.9,5.8-291.8,11-437.9,13.3c-143.9,2.2-287.9,1.5-431.8,5.1
		c-142.3,3.6-285.1,9.4-427.2-2.5c-52-4.3-104.2,5.3-155.9-0.2c-69.9-7.5-50.5-86.6-50.1-136.1C3282.8,4067,3258.1,4067,3258,4082.9
		"/>
	<path class="st6" d="M5128.8,3652.4c0.4,50.4,8.6,100.3,13.8,150.3c4.6,44,12.2,96.2-10.8,136.4c-20.6,35.9-55.9,60.7-80.8,93.3
		c-34.2,44.8-56.2,97.6-92.4,141.1c-10.1,12.1,7.3,29.7,17.4,17.4c36.4-43.8,58.8-96.3,92.8-141.6c26.9-35.8,65.9-62.2,86.8-102.5
		c21.3-40.9,16.8-89.7,12.6-134.2c-5.1-53.4-14.4-106.5-14.8-160.3C5153.4,3636.5,5128.7,3636.5,5128.8,3652.4"/>
	<path class="st6" d="M2748.8,6554c-58.1,3.3-121.3-3.1-171.2-35.6c-28.3-18.5-50.5-46-58.9-79c-9.5-37.4-1.8-76.6-1.4-114.5
		c0.7-57.8-17-108.2-69.4-136.3c-24.1-13-49.1-23.9-69.5-42.8c-19-17.6-31.2-41.4-40-65.5c-19.2-52.9-25.5-111.2-22.4-167.3
		c2.9-51.3,16.5-108.9,55.7-144.9c41.3-38,98.2-39.3,150.4-49c43.2-8.1,76-25.6,108.6-54.6c31.2-27.8,82.6-92.6,131.8-74.8
		c22,7.9,30.8,33,35.1,53.8c6.6,31.8,3.6,63.6-4.2,94.8c-13.2,52.6-40.3,110.2-22.2,164.9c17.4,52.3,72.5,87.2,124.1,99.2
		c103.3,24,212.5-32.6,274.1-114.2c53.4-70.8,72-180.6,16.3-256.5c-25.4-34.6-69.7-49.7-110.7-34.4c-42.7,16-43.5,59.6-56.6,96.5
		c-7.7,21.5-26.5,39.9-51.3,37.5c-24.2-2.3-26.5-32.9-26.7-51.9c-0.3-48.3,17.6-92.7,56.7-122.4c74-56.3,194-51.4,254.8,21.9
		c43.2,52.2,42.8,113.6,49.5,177.5c5,47.8,18.6,84.1,48.2,122.2c45.7,59,147.2,148.5,223.7,86.7c27.6-22.3,30.7-60.6,31.6-93.6
		c1.2-41.3-4.3-85.6,8.2-125.6c11.5-36.5,52-60.3,89.5-44.7c36.2,15.1,47.1,64.3,51.3,98.9c4.9,39.9,3.6,82.5-6.1,121.6
		c-11.8,47.5-51.5,77.4-85.6,109.4c-33.7,31.6-66.7,69.7-61.6,119.1c4.3,41.7,31.4,73.9,67.7,93c40.6,21.3,87.7,28.8,133,31.3
		c46.1,2.5,95.2,0.3,139.5-13.6c40.4-12.7,74.2-37.4,91-77.1c16.2-38.1,17.1-81,20.4-121.7c3.7-44.6,7.9-96.7,33.6-134.9
		c28.1-41.8,78.9-69.1,126.4-82.3c46.6-13,105.4-15.3,142.9,20.6c34.8,33.4,35.3,85.7,34.8,130.6c-0.6,43.7-5.3,91.1,11.2,132.7
		c15.4,38.9,51.1,62.5,91.7,69.1c72.9,11.9,97.9-55.8,104.6-115.6c8.6-77.7-3.3-155.7-0.6-233.6c1.3-38.7,12.4-69.1,44.4-94.2
		c43.8-34.4,112.1-44.9,153.6-1.1c37.8,40,42.1,106.8,34.9,158.5c-3.5,25-10.3,50.9-24,72.3c-14,21.9-34.7,38.8-52.5,57.3
		c-31.6,33-49,72.5-7.9,106.4c42.7,35.2,101.5,35.4,154.1,33.9c52.7-1.5,105.8-3.9,158.5-7.4c48.4-3.2,99.9-9.9,147.6,2.2
		c53.2,13.5,81.9,57.7,85.4,111.3c4,61.3-24.1,120.6-59.5,169c-73.5,100.4-200.9,182.1-329.8,159.3c-55.8-9.9-105.8-38.1-155.4-64.2
		c-48.3-25.4-97.5-47.8-149.3-65.3c-43.6-14.8-99.6-35.7-146.3-25.1c-22.6,5.1-43.4,19.9-52.8,41.4c-9.1,20.9-7.4,44.1-11.3,66.1
		c-4.5,25.9-22.7,59.3-48.8,69c-22,8.1-41.1-11.1-53.6-26.8c-32.2-40.3-46.7-90.2-69.2-135.7c-20.3-41.1-57.4-54.6-99.5-66.4
		c-62.1-17.4-129.3-25.2-190.2,1c-32.5,14-59.2,36.3-84.6,60.7c-22.8,21.8-45.3,41.8-76.2,51.2c-47.1,14.5-100.2,13.6-149,12.7
		c-53.3-1.1-107.7-4.7-159.9-16.2c-47.9-10.5-91.5-33.6-108.2-82.3c-28.6-83.3,0.5-200.6-97.1-247.1
		c-100.3-47.8-184.4,83.4-156.9,171c13.5,43.1,44.8,79.4,55.9,123.2c5.1,20,1.2,37.2-15.6,50.1c-21.9,16.8-57.9,28.8-85.7,26.2
		c-37-3.4-48.6-48.9-73.1-70.8c-23.7-21.2-80.2-43.5-106.5-15.2c-22.8,24.5-8.3,66.9-18.4,96.3c-8,23.4-33.4,51.2-59,36.2
		c-22.9-13.5-39.1-39-58.1-57.3c-11.4-11-28.9,6.4-17.4,17.4c29.4,28.3,68.1,91.1,116.6,62.4c43.9-25.9,45.4-69.5,48.2-114.2
		c1.3-19.9,5.9-30.1,27.8-28c24,2.4,45.1,12.8,60.4,31.4c22.6,27.6,35.5,61.7,75.6,66.1c42.2,4.6,109.2-16.7,127.2-59
		c16.4-38.3-10.2-81.1-27.8-114.1c-25.5-48-45.1-95.4-17.3-147.8c28.8-54.1,93.2-80.4,140.5-31.6c67.2,69.5,21,182.4,81.1,256
		c30.5,37.3,78.6,51.5,124.3,59.3c54.5,9.3,110.1,12.9,165.3,12.8c46.2-0.1,97.4-0.4,141.4-16.3c66.1-24,101-92.1,168.1-115.2
		c64.3-22.1,142-7.4,203.3,18.4c42.8,18,52.4,63.6,70.1,102.5c18.1,39.7,43.3,96.3,87.8,112.3c47.2,17,89.9-35.8,100.3-76.5
		c5.9-23,2.3-48.8,11.5-70.8c10.9-25.9,39.6-31.3,64.7-29.3c51.5,4,103.1,23.5,150.9,42.2c107.9,42.1,206.1,125.9,328.1,116.8
		c124.7-9.3,236.4-91,302.8-194.1c51.9-80.6,85.5-227.8-20.1-283.8c-42-22.3-92.7-21.7-139-19.3c-51.4,2.7-102.9,4.9-154.3,8
		c-53.7,3.2-123,13.3-172.7-12.8c-24.2-12.7-45.5-32.6-28.9-59.6c13.5-21.8,35.3-38.4,52.7-56.9c36.1-38.6,50.4-87.1,52.7-139.2
		c2.2-51-7.3-109.4-42.8-148.5c-68.4-75.3-210.8-29.1-236.2,65.5c-8.1,30-6,63.3-5.2,94c1.2,41.8,3.7,83.7,3.4,125.5
		c-0.3,48.7,0.8,159.2-73.4,151.8c-115.5-11.5-82.3-146.6-88.9-225.7c-3.7-44.6-18.5-87.6-57-113.8c-40.1-27.4-93-27.6-138.7-17.1
		c-48.7,11.2-97,35.6-132.3,71.3c-33.6,34-46.2,79.2-52.8,125.4c-6.4,44.7-4.9,90.9-15.6,134.8c-11,45.7-40.4,74.7-85.4,88.2
		c-45.8,13.8-96.4,15-143.8,11.1c-45.3-3.7-97.6-13.3-132.9-44.2c-40.2-35.3-36.6-88.2-3.8-127c32.7-38.7,78.1-66.3,104.6-110.3
		c19.6-32.6,23.7-73.9,24.9-111.1c1.4-42-2.4-86.8-19.8-125.5c-15.1-33.6-43.7-59-82.1-58.4c-40,0.7-73.3,22.8-87.3,60.4
		c-14.4,38.7-10.8,82.5-11.1,123c-0.3,35.3,1.3,80.9-35.8,98.5c-43.5,20.7-94.6-12.2-126.8-39.6c-34-29-70-68.2-83.9-111.7
		c-17.4-54.9-6.9-115.1-24.7-170.3c-16.2-50.4-52.3-95.5-100.6-118.2c-80.4-37.8-190.9-22.7-251.2,45.3
		c-31.1,35.1-44.4,81.7-41.6,128.2c2.7,45,29.8,79.7,78.1,63.3c45.3-15.5,47.5-58.6,60.7-97.6c16.7-49,79.8-47.4,109.1-10.4
		c27.2,34.5,34.4,87.2,29.1,129.7c-6.7,53.6-38.6,102.1-77.6,138.1c-41.4,38.1-95.5,65.9-152,71.1c-57.5,5.3-126.7-15.5-159.2-66.7
		c-34.1-53.8,1.4-121.5,14.4-176.4c11.5-48.5,14.8-116.7-22.4-156c-31.4-33.2-78.6-20.2-112.1,2.5c-41.5,28.2-71.9,73.3-117.9,94.9
		c-48,22.6-104.1,17.1-153.6,35.4c-45.5,16.8-79.4,48.9-98.5,93.6c-21.7,50.8-26,107.3-22.2,161.9c3.8,54,14.5,111.5,42.7,158.5
		c13.1,21.8,30.7,39,51.8,53c21,14,45.2,22.4,65.9,36.8c62.2,43.3,32.8,132.7,37.8,195.5c10.3,129.9,148.3,169.7,258.7,163.5
		C2764.6,6577.7,2764.7,6553.1,2748.8,6554"/>
	<path class="st6" d="M6118,6173.2c-72.8,7.5-148.5,20.3-221.3,6.6c-34.8-6.5-68.7-19.8-94.8-44.3c-26.2-24.6-53.6-67.1-49.6-104.6
		c3.1-29,27.5-52.4,42-76.2c16.6-27.3,33.9-64.9,26.1-97.6c-6.4-26.8-30.5-40.4-52.8-53.1c-34-19.3-65.5-42.8-82.9-79.1
		c-18.1-37.8,0.2-69,32.4-91c31.6-21.6,75.8-43.2,115.3-36.2c67,12,88.8,91.4,116,143.2c19.9,37.9,68.7,101.9,116.5,59.3
		c40.2-35.9,18.5-116.6,9.9-161.2c-10.9-56-30.7-113.4,1.3-166.3c23.7-39.2,76.8-70.6,122-48.1c54.1,27,46.6,99,52.9,149.4
		c6.1,48.4,26.4,105.4,85.6,98.9c64.3-7.1,80.7-70.7,87.2-125.7c3.8-32.2,4.1-64.5,4.5-96.9c0.4-28.4-2.5-59,2-87.1
		c1.6-9.9,2.8-16.4,13.7-15.2c18.8,2.1,40.9,18.5,54.2,31.2c29.6,28.3,45.6,70,57.6,108.2c24.2,77.6,45.5,175.2-26.9,233.7
		c-64,51.8-154,25.3-227.5,48.8c-48.7,15.6-86.4,59.3-56.5,108.7c20.4,33.8,85.2,78.5,63.8,123.8c-14,29.7-60.2,16.9-82,38.9
		c-13.7,13.8-17.1,32.2-22.8,49.9c-5.5,17-16.2,33.5-24.2,49.5c-17.3,34.4-37.7,55.5-78.3,57.2c-15.8,0.7-15.9,25.3,0,24.7
		c36.8-1.5,66.5-15.4,86.9-46.5c19-29,33.2-62,43.8-94.6c8.6-26.2,21.9-29.2,45.8-34.1c16.3-3.4,33-8,44.5-20.9
		c17.3-19.5,18.2-48.2,8.6-71.3c-9.8-23.6-27.9-42.7-44.2-61.9c-13.1-15.5-35.3-38.3-27.7-60.7c11-32.5,55.8-42.7,85.1-46.4
		c40.2-5.1,80.9-4.1,120.9-11.6c83.9-15.7,140.9-82.3,138.4-168.3c-1.2-40.5-10.7-81.4-22.4-120.1c-12-39.8-28-80.5-54.9-112.8
		c-19.2-23.1-56.4-52.1-88.4-50.5c-26.4,1.3-31.7,28.5-33.1,49.9c-4,64.7,3.1,130.2-8.8,194.3c-5.2,28.1-14.1,66.2-44.1,77.3
		c-30.3,11.3-55.1,0-66.7-29.3c-21.8-55.2-4.1-118.2-34-171.3c-25.4-45-77.1-61.6-124.9-43.9c-53.4,19.9-88,71.6-92.9,127.4
		c-2.4,27.4,4.6,55,10,81.6c7.2,34.9,15.1,70,17.6,105.6c1.5,21.1,4.8,59.4-18.3,70.8c-29.9,14.7-54.7-24.3-66.8-45.4
		c-31.3-54.4-47.1-120.9-105.8-154.3c-31.1-17.7-67-16.5-100.2-5.3c-37,12.5-77.5,33-101.2,65c-48.6,65.3,19.2,140.4,74.7,173.2
		c24.6,14.5,56.8,26.1,53.7,60c-3.7,40-30.4,71.1-51.2,103.4c-16.6,26-22.9,53.4-14.4,83.5c10.4,37.2,33.8,72.9,64.1,96.9
		c59,46.9,139.5,50.5,211.5,46.1c37-2.3,73.9-7,110.8-10.8C6133.6,6196.2,6133.8,6171.5,6118,6173.2"/>
	<path class="st7" d="M2285.2,4260.9c-5.3,0-5.3,8.2,0,8.2C2290.5,4269.1,2290.5,4260.9,2285.2,4260.9"/>
	<path class="st3" d="M5348.4,5561.7c38-26.4,64.3-69.6,62.1-117.2c-3.5-78-63.2-143.9-143.9-143.9c-25.9,0-51.4,8-73.6,21.5
		c-4.7-6-9.3-12-14.1-18c-98.5-121.4-231.8-240.1-397-164.7c-55,25.1-102,68.4-155.8,96.9c-12.9,6.8-25.9,13.3-39.2,19.5
		c-5,2.4-10.1,4.7-15.2,6.9c-1.1,0.4-2.3,0.9-4,1.5c-15.7,5.9-31.6,10.9-47.5,16.2c-0.3,0.1-3.9,1-7.3,1.9c-4.7,0-14.5,0.8-17,1
		c-7.9-1.9-15.7-3.7-23.5-6c-13.4-3.8-26.7-8.3-40-12.6c-33.9-10.8-68.1-20.7-102.6-29.4c-64.1-16.2-129-28.7-194.5-37.7
		c-141.7-19.6-283.5-26.9-426.2-14.5c-76,6.6-152,17.3-226.9,32.1c-26.1,5.1-52,10.7-78.2,15.2c-6,1-12.1,2.1-18.2,3
		c-0.9,0-1.8,0-3.1,0c-15.2,0.1-30.4,2.3-45.7,2.1c-6.1-0.1-12.4-0.9-18.5-0.8c-3.9-1.3-18.5-6.1-24.5-7.5c-2.8-1.7-6.2-3.7-9.2-5.3
		c-8.2-6.2-28.1-20.3-26.2-18.9c-8.2-6.2-16.2-12.1-25.2-17.1c-67.9-37.5-146.6-38.4-219.5-15.1c-24.8,7.9-48.7,18.1-73.7,25.4
		c-4.2,1.2-8.7,2.1-13,3.3c-3.6-0.3-7.2-0.4-7.6,0c-3.1-0.8-6.2-1.7-9.3-2.5c-75.5-18.9-141.6-10.2-215.7,9.2
		c-5.2,1.4-11,2.3-16.3,3.9c-33.2-19.6-62.2-40.3-99-54.2c-90.6-34-210.3-4.7-257.1,85.8c-19.3,37.3-28,78.5-26,120.4
		c-0.6,0.3-1.2,0.6-1.7,0.9c-26.2,15.9-47.5,37.4-64.6,62.8c-39.7,59.1-32.9,121.9-5.9,183.9c30.2,69.3,136.9,90.3,196.9,51.6
		c28.6-18.5,47.6-41.8,58.2-67.7c5-2.5,10.1-5.2,15-8.3c39-24.1,68.4-62.7,82.6-106.2c73.7,28.1,143.2,17.6,219.6-2.4
		c4.2-1.1,8.4-2.2,12.7-3.3c5-1,8.3-1.7,10.3-2.2c0.5,0,1,0,1.4-0.1c0.2,0.1,0.3,0.1,0.5,0.1c32,8.7,66.4,17.3,99.7,17
		c58.8-0.5,109.3-20.2,163.8-38.2c6.4-2.1,12.9-3.9,19.4-5.7c9.5,7.4,18.9,14.8,28.6,21.8c57.1,37.6,123.8,53.3,191.3,56.7
		c61,3.1,123.1-8.5,182.7-19.8c27.3-5.2,54.5-11.1,81.8-16.1c15-2.7,30.1-5.1,45.1-7.6c7.5-1.1,12.1-1.8,14.1-2.1
		c7.7-1,15.5-1.9,23.2-2.7c121.3-13.3,244-13.7,365.4-1.5c12.5,1.3,25.1,2.7,37.6,4.2c1,0.3,30.3,4.6,30,4.5
		c25.1,4.1,50.1,8.7,75,13.9c64.4,13.3,127.4,31.1,190.2,50.9c58.9,18.6,117.1,27.9,177.2,21c34.3,48,92.2,68,154.9,56.3
		c5.4-1,9-1.7,11.3-2.3c1.6-0.1,3.3-0.2,5.3-0.4c13.9-1,27.6-1.7,41.5-1.8c11.6,0,23.1,0.4,34.7,1.2c6,0.4,15.8,1.6,18.3,1.8
		c24.5,4.3,48.8,10.5,72.4,18.3c2,0.7,16.3,6.3,22.5,8.5c6.8,3.5,22.6,11.4,25.6,13c22.4,12.3,43.2,26.7,64.1,41.3
		c3.4,2.4,5.5,3.8,6.9,4.8c1.4,1.2,3.9,3.2,8.2,6.5c9.1,7.2,18.2,14.4,27.3,21.6c48,37.5,95.5,75.2,150.1,102.7
		c55.4,27.9,129.6,26.2,174.4-22.5c47.2-51.4,48.8-112.6,22.5-174.4C5374.6,5614.9,5361.9,5588.1,5348.4,5561.7"/>
	<path class="st3" d="M6317,4653.6c-101.6-32.9-202.4,51.7-222.7,147.1c-2.7,12.4-4.2,24.8-7.5,37c-0.9,3.6-2,7.2-3.1,10.7
		c-5.9,8.8-11.2,18.5-16.8,27.7c-3.4,3.9-6.9,7.7-10.5,11.4c-8.3,8.6-17.5,16.2-26.2,24.4c-3.9,2.8-7.9,5.5-11.9,8.1
		c-21.5,14.2-44,26.1-67.2,37.2c-56.8,27.2-110.7,53.3-157.4,96.8c-57.8,53.8-83.8,120.4-93.2,197.2c-7.5,60.7,44.9,119.5,102.8,138
		c-23,53.5,3.3,130.3,79.3,130.3c92.9,0,111.7-115.3,56.2-161.7c23.2-21.8,38.6-51.8,46.1-86.7c0.4-0.6,0.9-1.1,1.4-1.8
		c1.7-2.2,2.8-3.8,3.8-5.1c0.8-0.8,1.7-1.5,2.8-2.6c2.7-2.5,4.6-4.4,5.9-5.7c1.2-0.7,2.4-1.4,3.9-2.3c12.1-7.2,24.1-14.2,36.6-20.6
		c34.6-17.7,69.8-33,103.4-52.1c28.3,71.4,97.5,104.9,173.1,90c107.6-21.3,117.2-129.7,120-217.8c1.9-62.3,3.9-124.7,5.8-187
		C6444.2,4771.7,6415.2,4685.4,6317,4653.6"/>
	<path class="st4" d="M3502.3,6262.5c-116.4,0-116.6,180.9,0,180.9C3618.7,6443.4,3618.9,6262.5,3502.3,6262.5"/>
	<path class="st4" d="M2805.5,6072.9c-116.4,0-116.6,180.9,0,180.9C2921.9,6253.8,2922.1,6072.9,2805.5,6072.9"/>
</g>
</svg>
