<svg xmlns="http://www.w3.org/2000/svg" viewBox="0 0 7350 7350"><title>beforeafter</title><path d="M6396,5788.36c-24.1-18-65.2-20.5-86.4,5.1a2079.45,2079.45,0,0,1-240,245.7c-75.6,49.4-154.3,94.7-233.3,138.3a4252.35,4252.35,0,0,1-573.4,262.9c-11.9-5-25.7-6.2-40.9-1.7-199.4,59.7-405.1,88-613.3,83.2s-416.1-30.9-623.2-50c-206.3-19.1-413.8-41.4-621.3-29.1-128.8,7.6-256,29.7-383.8,47-18.4-1.3-36.7-2.3-55.1-2.8-62.6-1.6-120.9,10-179,24.7-232.3,7.4-454.3-70.1-676.4-128.8-14.9-4-28.3-2.9-39.7,1.5-60.9-28.4-133.1,53-75.6,104.7,153.9,138.1,360.5,213.9,567.8,201.4,77.7-4.7,149.8-27.9,223.2-47.2,81.6-2.7,162.8-12,243.8-23.2,67.5,5.7,135.2,17.8,200.3,25.1,497.7,56.1,999.3,96.5,1500.3,72.2,139.8-6.8,280.8-16.4,419.4-36.7,54.8-8,120.8-32.3,160.8-75,324.6-84.1,628-244.2,881.3-463,17.6-11.8,35.1-23.8,52.3-36.2,85.6-62.1,164.7-135.5,209-233.3,13.7-29.8,11.2-63.9-16.8-84.8" fill="#bbbdbf"/><path d="M6580.76,3102.56c-5.1-98.6-66.9-182.5-163.21-209.5-52.89-14.8-110.6-18.4-165-25.8-121.79-16.6-243.79-30.9-366.2-41.6-459.7-40.1-921.8-36.9-1382.69-25.4q-113.1,2.85-226.11,6.2a715.07,715.07,0,0,0-110.29,3.2,9.15,9.15,0,0,0-1.6.1v.1c-15.61,1.7-31.3,3.7-47,6.2-34,5.4-62.5,24.4-83.8,50.3-5.1.3-10.2.8-15.3,1.1-52.4,2.9-105,3.5-157.4.3-10.5-.6-20.9-1.4-31.4-2.4-3.8-.3-28.6-3.8-31.3-4-20.5-3.5-40.9-7.3-61.3-11.6-114.7-24.2-228.6-51.4-346.5-54.8-109.1-3.1-221.2,10.8-326.6,39-218.4,58.4-395.5,187.7-570.6,324.9Q2234.06,3363,1974,3567.66c-97.4,76.5-211.7,146.7-285,248-45.2,62.5-65.3,146.8-43,222a240.44,240.44,0,0,0,25.1,56.5,357.27,357.27,0,0,0-49.3,61.3c-71.4,111.7-66.3,264.6,29.7,360.6,91.7,91.6,220.1,92.3,340.7,93.8l703.5,8.4,1404.3,16.8c433.1,5.2,881.9,30.7,1303.4-89.1,210.2-59.7,406.9-159,580.6-291.2,177.4-135.2,346.5-293.8,443.6-498.3a1425.31,1425.31,0,0,0,106.7-312.9c10.6-49.3,18.7-99,25.6-149,8.4-60.7,24-130.2,20.9-192" fill="#a3b7d6"/><path d="M6423.46,5064.36a138.53,138.53,0,0,0-19-41q9.75-189.6,16.1-379.4,5.4-166.95,8.1-333.9c1.8-113.4,1.5-229-59.4-329.1-49.1-80.6-158.1-93.6-226-29.1q-151.2,143.55-302.4,287c-45.8,43.5-91.2,87.4-138.2,129.5-20.3,18.2-41,36.1-62.2,53.3-3.2,2.6-6.4,5.1-9.6,7.7-2.7,2-8,6-9.7,7.2-12.9,9.1-25.71,18.2-38.9,26.9a730.42,730.42,0,0,1-69.5,40.4c-6,3-12,5.9-18,8.8-.5.2-4.1,1.8-7.21,3.1-3.39,1.3-7.29,2.7-7.79,2.9-8.5,2.9-16.9,5.9-25.5,8.5-51.21,15.9-105.4,29.1-151.4,58a249.76,249.76,0,0,0-74.6,71.7c-4.9-.3-9.8-.7-14.71-1.1-3.89-.4-7-.6-9.39-.8-2.71-.5-6.71-1.3-12.8-2.3-15-2.6-30.1-4.9-45.1-7.2-9.8-1.5-19.6-2.9-29.5-4.3-37-9.2-76-13.7-115.3-15.1-231.8-26.3-465.9-21.7-698.6-11.4-243.7,10.8-487.1,27.1-731.2,23.1-247.9-4.1-495.5-22.5-742.9-37.4l-417.4-25.2c-136.8-8.2-273.9-19.9-411-15.7a123.12,123.12,0,0,0-47,5.6,18,18,0,0,0-2.1.8c-72.7,21.5-129.3,96.7-102.6,176.1a271.19,271.19,0,0,0,13.19,31.9c6.5,25.3,11.81,50.8,17.5,76.5.31,1.3.5,2.2.7,3.1.11.7.11,1.4.2,2.4.6,7.3,1.6,14.6,2.2,22,1.9,22,2.8,44.1,3.1,66.2.5,37.1-1.1,74.2-4.2,111.2q-2.25,26.1-5.39,52.2c-.2,1.6-.3,2.9-.4,4-.1.8-.2,1.5-.4,2.6-1.8,12.5-3.8,25-5.8,37.5-25.7,156-67.4,308.9-92.5,465-27.2,169.1-38.1,339.9-25.7,510.8,3.9,52.9,9.2,103.6,31.6,152.3,21,45.6,58.6,81.2,100.3,108.2,67.2,43.4,149.1,69.3,227.4,83.5,162.39,29.5,330.89,34.9,495.6,39.9q249,7.5,498-5.1c164.3-8.3,328.3-26.1,493-25.1,80,.5,160,5.6,239.6,13.2,38.7,3.7,77.4,8,116,12.6,18,2.2,36.1,4.5,54.1,6.8l23.2,3c4.5.6,7.9,1,10.6,1.4s7,1,13,1.8c328.8,45.1,657.9,96.5,988.5,37.2,82-14.7,166.9-39.3,225.8-102.1,35.7-38.1,57-83.9,71.5-132.3a82.17,82.17,0,0,0,9.5-3.3q84-34.8,167.9-69.7c22.9,13.1,48.5,20.6,71.7,19.5,60-2.7,126.4-42.3,138.8-105.6.1-.5.2-1,.29-1.5,20.5-8.5,40.9-17,61.4-25.5q113.85-47.25,227.6-94.6c67.5-28.1,137.9-53.9,197.8-96.6,131.9-94.1,197.8-243.1,226.9-398.9C6471.46,5385.56,6466.66,5222.46,6423.46,5064.36Z" fill="#f1f1f2"/><path d="M5091.66,6062.66c-19.5,109.8-108.2,202.3-206.3,249.5-115.3,55.5-224.2,11.8-334.7-33.2-59.2-24.2-117.6-50.3-174.3-80-16.3-8.5-33.4-21.5-50.9-27.1-13.9-4.4-18,.6-34.7,8.4s-33.5,11.9-50,12.4c-11.8,57.7-31.6,117.9-71.6,148.8-45.7,35.3-110.8,27.8-151-12.4-28.9-28.9-44.4-71.3-64.3-106.2-29-51-58.4-90.7-109.8-100.1a74.84,74.84,0,0,1-9.6-2.4c-45,28-99.2,40.2-152,42.5a152.52,152.52,0,0,1-9.1,16.9c-29.4,46.8-79.7,73.2-130.6,90-88.1,29.1-196.8,27.6-286.9,8.6-105.6-22.2-172.4-97.1-205.8-196.2-11.4-33.6-20.3-76.6-32.9-98.6-17.7-31,5.6,13.8-10.3-15.1-4.3,1.3-16,1.8-22.3,4.2-24.4,9.3-46.5,23-67.4,38.5,4.5,6.2,8.8,12.5,12.6,19,26.7,45.7,41.5,103.8,31.8,156.5-11.9,64.7-74.6,105.6-138.9,104.8-31.8-.3-61.7-9-90.1-22.7-3.6-1.7-28.6-13.7-41.3-21.6-.3.9-.5,1-.4-.3-.1,0-.1-.1-.2-.1-6.7,50-36.5,88.3-88.5,96.1-46.5,7-103.7-24-112.8-73.6-.1-.7-.3-1.5-.4-2.2-22.4-.2-49.4,3.3-73.3-3.1-36.2-9.7-69.5-31-90.1-62.5-32.1-49.1-19.7-116.7-37.9-158.7-6.5-15-16.7-26.7-29.3-40.7-15.4-17-32-33-47.8-49.7-41.1-43.3-75.2-90-94.2-147.1-21.7-65.3-15.8-135.7-3.7-202,11-60.8,24.4-131.3,72.1-174.4,27.3-24.7,57.7-28.3,91.1-37.5,22.1-6.1,40.8-18.6,59.6-31.8,53.8-37.6,99.7-78,165.2-94.6,66.6-17,127.4,31.8,130.1,99.1,1.9,47.6-1.3,119.9-30,160.9-.7,3.2-1.4,5.9-1.9,8,4.4,6.9,9.8,14.3,10.8,15.8,10.6,17,20.7,35.8,36.5,48.7,44.8,36.6,152.4,30.9,215.1,6.9,24.8-9.5,61.5-30,75.8-55.5,17.9-32.1,9.7-93.5,5.9-128.6-.7-6.9-3.3-21.8-8.5-31.4.5,1.4-3.8-3.1-6.1-5.9a41.06,41.06,0,0,0-5.1-2.2c-2.7,1.5-9.8,4.1-10.3,4.5a23.76,23.76,0,0,0-1.3,2.9c-1.1,5.4-3.8,18.4-3.7,18-9.5,55-76.9,85.4-126.4,71.8-57.2-15.7-81.3-71.8-71.8-126.4,28.8-165.8,235.6-227.2,358.1-120.3,82.2,71.7,97.4,211.6,79.5,320.1,22.6,11.6,40.7,31.4,48.3,59.3,7.2,2.1,15.1,4.3,14.7,4.2,16.2,4.5,33.2,9.1,49.9,10.9,18.2,1.9,44.9-.1,58.6-10.4,18.3-13.7,37.2-43.7,44.6-63.1,10.6-27.8-1.4-65.5,10.6-100.8,17.9-52.8,70.1-87.3,126.4-71.8,51.3,14,89.7,73.8,71.8,126.4-1.7-9.1-2.1-7-1,6.3.6,7.8,1.1,15.6,1.4,23.4,0,19.6-3,39.8-7.5,58.8-7.9,33.2-24.4,65.6-43.1,94.1-24.3,36.9-53,70.3-87.7,95.3.3,1.4.7,2.8.9,4.3,7.6,51.2,50.4,121.6,89.7,147.5,15.2,10,54.7,14.9,68.7,16.8,32.9,4.5,69.5,8.7,102.5,3.5,32.3-5,57.7-30.1,73.4-69.6,26.7-67.3,32.4-140.7,60.6-207.8,52.4-124.9,207.4-245.7,342.9-156.1,68.1,45.1,85.6,125.3,75.3,202.2-3.5,25.6-11.1,48.8-24,69.4,1.2.9,2.3,1.8,3.4,2.7,33.7,27.8,70.6,51.1,108.9,71.9,7.8-23.8,17.7-47.6,24.3-73.3,12.7-49.6,11-103.1,4.7-153.6-5.6-45.2-15.5-88-2.6-133.1,43.9-153.4,257-130,296.6,12.9,18.1,65.1-2,122.1-21.2,183.4-5.8,18.7-11.9,38.4-13.8,57.9-.8,7.5-1.5,22.6-.5,30-.1-.8,7.4,22.1,6.2,21.6,3.7,6.5,12.1,21.5,8.5,13.6a18,18,0,0,0,3.4,5.1c16.2,5.7,35.5,3,52.3,3.1q86.25.6,172.3,7.7c54.5,4.5,122,2.2,169,32.4C5097.66,5916.26,5103,5996.66,5091.66,6062.66Zm1258-1001c-45.8-91.5-195-47.6-191.61,51.9,1.3,36.5,2,72.1-6.89,106.1-7.3,28.2-22,51.1-32.71,58.4-11.4,7.8-14,9.5-19,10.6a4.33,4.33,0,0,0-.5.1,336.19,336.19,0,0,0,4.1-50c.3-56.6-30.39-109.2-82.5-132.2-57.39-25.4-125.2-3.4-157.29,50.6-24.1,40.5-26.21,92.6-31,138.3-4.6,44.1-3.8,88.3-6.9,132.5-1.2,17.9-.5,17.4-7.2,36.7,2.5-7.2-1.11-1.7-2.8,2.9-2.5,0-5.7.1-7.3.1,2.3-.3-10.4-5.3-12.2-7.3-18.7-20-21.9-39.2-31.8-69.3-14.6-44.4-38.1-85.7-79.8-109.7-102.4-59-226.8,23.4-231.5,135.8-2.3,52.8,20.8,97.6,54.8,136.3,12.7,14.5,26.7,28.1,40.2,41.9,7.4,7.6,15.4,19.1,24.2,25.4-3.9,6.2-7.8,13.8-9.4,16.5-11.3,20-20.9,41.5-26.4,63.9-13.4,54.5-2,113.5,38.8,153.6,43.3,42.5,101.8,42.4,158.4,45.4q85.95,4.65,172,9.2c51.7,2.8,96.2-42.5,102.1-91.8,14.8-12.9,26.9-27.4,37.9-44.4.9-1.4,3.8-5.6,6.1-9.2a19.69,19.69,0,0,1,3.1-2c92.4-36.6,95.5-144,16.4-190.1-.4-2.3-.8-5.2-1.4-9a72.8,72.8,0,0,0-12.3-30.3c12.4-12,24.3-20.1,42.6-29.3,12-6.1,43.9-15.2,52.3-16.2,38.5-4.6,76.8-.9,114.7-12.5C6444.16,5420.06,6414.66,5191.46,6349.66,5061.66Z" fill="#d6de23"/><path d="M5978.55,4123.46c55.9-56,111.4-112.3,168.71-166.8,28.5-27.2,57.5-53.9,87.1-79.8,27.8-24.3,57.9-46.3,85.2-71.1,121.3-110.2,93-292.5,119.5-438.3,12.2-67.1,36.6-131.5,49.4-198.6,10.3-54.1,25.6-139.1-23.7-179.8a13.12,13.12,0,0,0-5.28-2.66l0-.14c-1.49-9.31-10.55-10.71-17.1-7a12.93,12.93,0,0,0-11.39-10.38c-212.8-23.2-422.4-69.4-635.5-90.2-216.4-21-433.9-8.4-650.7-3.4-108.7,2.5-217.6,3.3-326.3-2.9-107.9-6.2-215.6-17.9-323.3-27.6-108.4-9.8-217-18.7-325.8-22.6-109.5-4-219.3-2.3-328.9-1.3-248.5,2.2-497,7.2-745.6,7.3a11.16,11.16,0,0,0-11.43,9.05,12.73,12.73,0,0,0-5.37,2.85c-101.2,87.6-218.9,152.6-330.2,226-121.6,80.2-241.2,163.6-360.6,247-110.2,77.1-223,152.5-323.3,242.5-93.4,83.8-173.4,178.6-250.2,277.4-67.2,86.4-173.6,180.1-171.5,298.9a11.38,11.38,0,0,0,4.87,9.53,12.93,12.93,0,0,0,1.23,1.07c57.2,44,133,52.9,202.9,56.3,84,4.1,168.3,5.8,252.3,8.9,207.4,7.5,415.5,4.8,623.1,7.7,208.6,3,417.3.7,625.8,8.5,208.2,7.8,416.1,22.8,624,36.9,207.71,14.1,415.6,27.2,623.8,31.2,97.3,1.8,194.3,1.9,291.5,7.3,91.9,5.1,185,10.3,276.5-2.7a268.81,268.81,0,0,0,66.54-18.48c-31.19,55.19-35.15,116.94-40.33,179-4,47.3-7.1,130.5-66.5,141.3-48.5,8.8-101.4-11.9-149.9-15.3-75-5.3-150.6-6.5-225.8-7.7-307.4-5.2-614.6,9.3-921.7,22.3-153.4,6.5-306.5,11-460,7.8s-307.1-10.9-460.7-16.5c-143.5-5.2-287.2-9.2-430.7-2.5-134.8,6.3-269.6,17.5-404.6,15-65.7-1.2-131.6-5.4-196.5-16.7-56.1-9.7-113.5-22.4-161.5-54.4-85.8-57.1-126.6-165.9-83.6-262.4,11.5-25.9,28.1-49,47.2-69.8,10.5-11.4-6.9-28.9-17.7-17.1-71,77.3-95.5,185.3-43.5,279.9,56.1,102.3,167,135.4,275.1,151.5,135.8,20.2,273.9,15.3,410.5,8.2,142.7-7.4,284.5-14.5,427.5-11.9,322.2,5.9,644,32,966.5,19.1,320.2-12.8,640.5-30.3,961.1-28.8,78.89.4,157.79,1.9,236.6,5,36.1,1.4,72.7,1.7,108.5,6.6,26.29,3.6,52.4,9.2,78.79,12.2,43.71,5,86.71-2.6,109.11-44.6.6-1.13,1.16-2.28,1.73-3.42-1.8,6,.28,13.38,8,15.82a45.54,45.54,0,0,1,10.62,5q-13.29,2.37-26.71,4.29c-15.8,2.3-9.2,26.1,6.4,23.9q20.52-2.91,40.62-6.84c7.9,12.31,13.48,26.66,17.77,38.84,12.9,36.3,19.8,74.7,24.61,112.8,10.2,80.3,9.89,160,1.1,240.5-6.9,63.4-16.3,126.6-17.4,190.5-1.2,66.6,6.3,133.7,12.8,200,13.2,133.7,31.39,267.2,34.7,401.6,3.2,129.1-8.6,257.3-14.6,386.1-2.21,48,.79,96.8-8.9,144.1-9.9,48.2-34.7,84.4-77.2,109.3-77.71,45.5-175.3,45.5-262.4,39.2-93.3-6.7-185.1-24.8-277.8-36.3-111.6-13.9-226-11.9-338.3-13.9q-201.75-3.45-403.6-1.2c-259,2.8-516.8,13.9-775,33.7-249,19.1-502.6,38-750.6-1.5-53.8-8.6-106.9-21.1-160.4-31.3-49.2-9.4-98.5-18.6-147-31.4-95.3-25.2-204.7-69.7-256.6-159.6-26.3-45.4-32.8-99.1-34.7-150.6-2.2-58.6-1.4-117.6-1.7-176.2-.4-66.9,3.5-132.9,22.7-197.3,17.5-58.5,42.8-114.7,54.8-174.8,12.6-63,5.7-127,10.1-190.7,4.8-68.1,18.4-135.9,27.8-203.4,8.9-64.6,16.4-129.4,17.9-194.7,1.3-56.5-9.8-109.5-25.8-163.4-15.6-52.3-30.9-103.9-31.9-158.9,0-15.8-24.7-15.9-24.4,0,.9,56.1,15.9,109.1,31.8,162.4,17.9,60.1,27.8,117,25.2,180-2.8,69.7-12,138.9-22,207.8-9.7,66.8-22.9,134.3-24.3,201.9-1.4,67.9,0,132.7-19.6,198.6-18.3,61.4-44.9,120.2-56.5,183.4-11.9,64.9-10.6,131-9.6,196.7.9,57.5-2.1,115.6,4.2,172.8,5.6,50.2,18.8,100.2,49.8,140.9,30,39.4,71.1,70.9,114.3,94.6,2.57,1.41,5.16,2.79,7.75,4.14-5.33.83-10.1,4.74-10,11.76.7,74.9,18.8,145.7,82.1,191.2,29.9,21.5,64.5,35.6,98.5,49.1,47.1,18.6,94.4,38.3,144,49,115.9,24.9,235.7,13.3,352.9,7.4,130-6.5,260.5-3.3,390.6-7,273.8-7.7,547.1-35.2,821.2-29.8,265.3,5.2,529.9,24.4,795.3,27.1,232.4,2.4,473,.1,696.3-72.2,26.5-8.6,52.7-18.3,78.39-29.1.3-.12.57-.26.84-.4q3.42.39,7,.6c44.9,2.6,88.4-13.9,130.2-27.9,52.8-17.7,105.6-35.6,157.5-56,101.9-40.1,199.4-90.7,282.9-162.3,44.3-38,84.5-80.8,127.6-120.1,43.8-39.8,88-79.3,128.1-122.9,43.7-47.5,77.9-99.5,107.1-157,30.6-60.1,59.8-119.5,107.3-168.4,11.1-11.4-6.4-28.8-17.4-17.4a367.91,367.91,0,0,0-29.42,34.33,456.18,456.18,0,0,0,38.31-101.23c24.21-97.8,23.21-200.1,17.61-300-13.3-235.9-31.11-471.6-46.71-707.3-4.79-72.8-9.2-145.6-12.6-218.5-3.2-68.4-4.1-136.9-11.1-205.1-13.8-132.8-41.9-263.5-42.4-397.5-.29-15.9-25-15.9-24.89,0,.4,114.1,20.4,225.9,35.4,338.7,15.9,119.7,16.3,240.5,23.2,361,7.1,124.3,16.4,248.4,25,372.6,7.9,114.2,13,228.6,21.4,342.7,13.5,183.6,38.6,398.6-77,556.8-55.1,75.5-131.7,133.4-210,182.9-80.4,50.8-165.5,93.6-250,137.2-109.4,56.4-217.1,116.3-325.8,174-48.5,25.7-96,53.4-144.7,78.7-38.6,20-93.6,44.8-127.7,4.7l-.22-.23c11.37-22.39,18-47.34,21.51-72.57,6.8-48.4,4.3-97.3,7.3-145.9,4.3-67.9,9-135.7,11.7-203.7,5.71-138.4-1.89-275.1-16.2-412.8-14.1-135.5-37-274.1-26.5-410.6,7.8-101.4,26-201.1,20.2-303.2-4.1-73.5-11-154.7-44-221.7q-2.21-4.5-4.69-8.92C5548.61,4545.82,5773.38,4329,5978.55,4123.46Zm-496.39,2255c109.29-61,221.2-117.3,331-177.4,166.7-91.2,349.79-165.6,488.89-298.9a535.21,535.21,0,0,0,54.55-60.67c-31.68,56.95-58,117.27-97.44,170-67.1,89.7-157.9,158.1-237.3,236-39.2,38.5-78.7,75.2-124.2,106.4-42.1,28.9-86.9,53.7-133.1,75.2-49.5,23.1-100.7,42.6-152.2,60.7-47.8,16.9-96.2,35.7-145.4,48-35.4,8.8-76.8,13.3-108.1-9.4-30.09-21.74-44.12-59.74-53.48-95.45C5361.61,6453.93,5434.58,6405,5482.16,6378.46ZM5362,6557.7c-205.06,77.82-430.5,88.08-647.71,88.46-252.1.4-503.3-14.2-755.1-23.8-135.3-5.1-270.8-7.3-406.1-.6-131.7,6.5-263.2,16-395,21.4s-263.7,8.8-395.7,9.3c-117.3.5-234.6,12.3-351.9,10.5-65.9-1.1-132.3-7.8-194.9-29.5-44.6-15.5-89.9-32.2-132.6-52.4-33.6-15.9-66.5-36-87.4-67.6-25.3-38.2-30.3-85.2-30.8-130a12.63,12.63,0,0,0-1-5c84.65,41.05,179.11,57.67,270.87,75.28,56.2,10.8,111.9,23.9,168.4,32.5,61.1,9.3,122.7,15.2,184.4,18.5,130.2,6.9,260.6,2.4,390.6-5.7,129.7-8,259.1-19.8,388.8-28.2,133.2-8.7,266.8-12.3,400.2-15.1,275.5-5.9,551.8-6.3,827.2,6,181.29,8.1,367.5,77.9,548.6,30.9,39.8-10.3,78.5-27.8,109.9-54.7a144.31,144.31,0,0,0,22.95-24.95c.36.37.73.72,1.09,1.09a12.62,12.62,0,0,0,.06,5.76C5289.72,6475.25,5312.74,6533.31,5362,6557.7Zm-132.8-2302c-35.4,15.7-75.21,19.3-113.5,22-45.61,3.3-91.4,2.9-137,1.3-91.61-3.2-182.9-10-274.61-10.3-201.79-.6-403.39-11.2-604.7-24.1-203.3-13.1-406.4-28.7-609.9-39s-407.1-10.4-610.9-12.6c-202.7-2.2-405.39-6.6-608.1-7-97.7-.2-195-4.2-292.6-8.4-73.3-3.1-147.9,1.4-220.2-14.1-32.58-7-63.53-18.34-90.68-37.54,1-51.41,27.36-98.32,56-139.66,31-44.9,67.7-85.2,101.7-127.7,75.5-94.3,149.9-187.2,238.9-269.5,98.5-91.1,210-166.4,319.6-243.2q175.2-122.85,352.8-242.3c120.3-81.3,249.3-150.7,359.5-246.1a11.7,11.7,0,0,0,3.39-4.71c221.4-.14,442.8-4.1,664.21-6.49,108.6-1.2,217.4-3,326.1-1.5,109.2,1.4,218.1,8.6,326.9,17.8,107.5,9,214.8,19.9,322.3,28.7,108.4,8.9,217,11.5,325.7,10.2,218.8-2.7,438.1-18.7,656.7-4.2,238.8,15.7,472.6,70.4,710.2,96.3a12,12,0,0,0,4.74-.38c8.5,53.88-30.31,105.05-64,142.68-42.8,47.7-93,88.5-143.3,127.9-42.9,33.7-85.5,66.4-124.9,104.2q-106.95,102.6-212.8,206.3-106.2,103.95-211.6,208.9c-58.2,57.9-119.1,113.9-170.2,178.4-43.7,55-83.9,112.7-129.2,166.4C5337.66,4177.76,5289.76,4228.86,5229.16,4255.66Zm418.2,136.4c-121.09,92.21-255.9,165.4-404.45,197.7-9.16-10.29-20.3-18.56-34-22.9-5.61-1.77-10,.36-12.62,4,25.4-54.21,21.35-120.45,28.53-178.39,4.6-37.3,14.1-72.9,33.3-105.5,4.31-7.3.28-14.22-5.64-17.05,92.61-46.5,159.28-140.21,220.93-221.95,44.4-58.9,89.5-114.3,141.71-166.4q108-107.85,216.6-214.9,109.35-107.7,219.5-214.3c50.1-48.4,99.1-97,154.2-139.8,50.2-39,100.8-77.7,146.9-121.6,40.8-38.9,82.6-84,101.3-138.3a139.65,139.65,0,0,0,6.89-31.29c25.38,39.41,11.18,105.48,3.21,145.89-11.6,58.9-31.1,115.7-44.5,174.1-16.21,70.7-16.8,144.1-24.3,215.9-7.7,74-22.5,152.8-72.9,210.7-24.4,28-55.9,49.4-84.1,73.3-28.4,24.1-56.1,49.1-83.3,74.5-56.1,52.4-110.4,106.8-164.6,161.2C5880.56,4186.86,5771,4298,5647.36,4392.06Zm-679.31-878.2c-2.87-30.05-7.07-60-10.26-90.06a247.5,247.5,0,0,0,7.47-53.94c.4-20.3-4.2-39.4-21.3-51.7-20.9-14.9-48.4-21.4-71.2-32.9-14.1-7.1-26.6,14.1-12.5,21.3,1.06.54,2.13,1.06,3.21,1.57-397.56-.56-794.84-15.18-1192.22-21.67q-172.2-2.85-344.5-3.1c-14.68,0-15.79,21.32-3.12,24.33-76.93,153.6-223.26,271.4-247.67,449.17-.9,6.3,1.4,13.6,8.6,15.2,159.2,35,324.1,10.9,485.2,8.2,186.9-3.1,374.2-.3,561.1-.2,94.4,0,188.4,4.5,282.6,10.6,76,5,152.9,13.7,229.2,12.8,39.32-.45,75.18-4.89,107-20.42-1.83,14.63-2,29.42-2.51,44.52-.8,25.8-6.8,51.3-32.1,63.9-20.1,10-46.1,10.1-68,11.2-20.5,1.1-41.1,1-61.6,1.8-145.9,5.8-291.8,11-437.9,13.3-143.9,2.2-287.9,1.5-431.8,5.1-142.3,3.6-285.1,9.4-427.2-2.5-52-4.3-104.2,5.3-155.9-.2-69.9-7.5-50.5-86.6-50.1-136.1.1-15.8-24.6-15.8-24.7.1-.3,46.3-15.7,108,25,142.5,34.6,29.3,92.2,19.5,133.7,17.4,61.4-3,122.7,5.3,184.1,7,77.4,2.1,154.9.6,232.3-1.4,314.3-8,628.7-5.1,942.9-20,25.5-1.2,51.1-1.1,76.6-2.6,24-1.4,51.5-2.6,73.5-13.6,14.08-7.08,23.61-16.12,30.14-26.48,2.72,8.11,12.91,13.52,19.76,5.18,36.4-43.8,58.8-96.3,92.8-141.6,26.89-35.8,65.89-62.2,86.79-102.5C4976.75,3607.16,4972.25,3558.36,4968.05,3513.86Zm-246.39,255.9c-30.4,9-63.3,9.5-94.7,9.1-73.8-.8-147.9-8.5-221.5-13.3-87.4-5.7-174.8-10.1-262.4-10.1h-530.9c-168.82,0-343.29,29.14-510.37-4.86,29.29-168.73,170.14-283.31,244-431.84a12.42,12.42,0,0,0,.34-10.67c397.64.56,795.1,15.17,1192.66,21.67q172.18,2.85,344.29,3.1c7.52,0,11.48-5.52,11.89-11.34a284.15,284.15,0,0,1,28.32,12.94,33.63,33.63,0,0,1,11,9,11.11,11.11,0,0,0-5.57,10.2c.17,22.58,1.92,45.07,4.26,67.51-12.69,49.18-38.27,96.33-58.06,142-24.1,55.7-49.7,114.3-89.6,160.8C4768,3744.06,4747.56,3762.06,4721.66,3769.76Zm210-129.4c-20.61,35.9-55.9,60.7-80.8,93.3-32,42-53.38,91-85.72,132.77,9.1-31.22,3.85-69,13.38-101.56a170.86,170.86,0,0,0,20.84-19.71c41.8-46.6,68.8-105.4,93.6-162.2,14.69-33.6,32.45-68.32,46.69-104,1,8.33,1.94,16.66,2.8,25C4947.05,3548,4954.66,3600.16,4931.66,3640.36Zm-2383,2614.9c-58.1,3.3-121.3-3.1-171.2-35.6-28.3-18.5-50.5-46-58.9-79-9.5-37.4-1.8-76.6-1.4-114.5.7-57.8-17-108.2-69.4-136.3-24.1-13-49.1-23.9-69.5-42.8-19-17.6-31.2-41.4-40-65.5-19.2-52.9-25.5-111.2-22.4-167.3,2.9-51.3,16.5-108.9,55.7-144.9,41.3-38,98.2-39.3,150.4-49,43.2-8.1,76-25.6,108.6-54.6,31.2-27.8,82.6-92.6,131.8-74.8,22,7.9,30.8,33,35.1,53.8,6.6,31.8,3.6,63.6-4.2,94.8-13.2,52.6-40.3,110.2-22.2,164.9,17.4,52.3,72.5,87.2,124.1,99.2,103.3,24,212.5-32.6,274.1-114.2,53.4-70.8,72-180.6,16.3-256.5-25.4-34.6-69.7-49.7-110.7-34.4-42.7,16-43.5,59.6-56.6,96.5-7.7,21.5-26.5,39.9-51.3,37.5-24.2-2.3-26.5-32.9-26.7-51.9-.3-48.3,17.6-92.7,56.7-122.4,74-56.3,194-51.4,254.8,21.9,43.2,52.2,42.8,113.6,49.5,177.5,5,47.8,18.6,84.1,48.2,122.2,45.7,59,147.2,148.5,223.7,86.7,27.6-22.3,30.7-60.6,31.6-93.6,1.2-41.3-4.3-85.6,8.2-125.6,11.5-36.5,52-60.3,89.5-44.7,36.2,15.1,47.1,64.3,51.3,98.9,4.9,39.9,3.6,82.5-6.1,121.6-11.8,47.5-51.5,77.4-85.6,109.4-33.7,31.6-66.7,69.7-61.6,119.1,4.3,41.7,31.4,73.9,67.7,93,40.6,21.3,87.7,28.8,133,31.3,46.1,2.5,95.2.3,139.5-13.6,40.4-12.7,74.2-37.4,91-77.1,16.2-38.1,17.1-81,20.4-121.7,3.7-44.6,7.9-96.7,33.6-134.9,28.1-41.8,78.9-69.1,126.4-82.3,46.6-13,105.4-15.3,142.9,20.6,34.8,33.4,35.3,85.7,34.8,130.6-.6,43.7-5.3,91.1,11.2,132.7,15.4,38.9,51.1,62.5,91.7,69.1,72.9,11.9,97.9-55.8,104.6-115.6,8.6-77.7-3.3-155.7-.6-233.6,1.3-38.7,12.4-69.1,44.4-94.2,43.8-34.4,112.1-44.9,153.6-1.1,37.8,40,42.1,106.8,34.9,158.5-3.5,25-10.3,50.9-24,72.3-14,21.9-34.7,38.8-52.5,57.3-31.6,33-49,72.5-7.9,106.4,42.7,35.2,101.5,35.4,154.1,33.9s105.8-3.9,158.5-7.4c48.4-3.2,99.9-9.9,147.6,2.2,53.2,13.5,81.9,57.7,85.4,111.3,4,61.3-24.1,120.6-59.5,169-73.5,100.4-200.9,182.1-329.8,159.3-55.8-9.9-105.8-38.1-155.4-64.2-48.3-25.4-97.5-47.8-149.3-65.3-43.6-14.8-99.6-35.7-146.3-25.1-22.6,5.1-43.4,19.9-52.8,41.4-9.1,20.9-7.4,44.1-11.3,66.1-4.5,25.9-22.7,59.3-48.8,69-22,8.1-41.1-11.1-53.6-26.8-32.2-40.3-46.7-90.2-69.2-135.7-20.3-41.1-57.4-54.6-99.5-66.4-62.1-17.4-129.3-25.2-190.2,1-32.5,14-59.2,36.3-84.6,60.7-22.8,21.8-45.3,41.8-76.2,51.2-47.1,14.5-100.2,13.6-149,12.7-53.3-1.1-107.7-4.7-159.9-16.2-47.9-10.5-91.5-33.6-108.2-82.3-28.6-83.3.5-200.6-97.1-247.1-100.3-47.8-184.4,83.4-156.9,171,13.5,43.1,44.8,79.4,55.9,123.2,5.1,20,1.2,37.2-15.6,50.1-21.9,16.8-57.9,28.8-85.7,26.2-37-3.4-48.6-48.9-73.1-70.8-23.7-21.2-80.2-43.5-106.5-15.2-22.8,24.5-8.3,66.9-18.4,96.3-8,23.4-33.4,51.2-59,36.2-22.9-13.5-39.1-39-58.1-57.3-11.4-11-28.9,6.4-17.4,17.4,29.4,28.3,68.1,91.1,116.6,62.4,43.9-25.9,45.4-69.5,48.2-114.2,1.3-19.9,5.9-30.1,27.8-28,24,2.4,45.1,12.8,60.4,31.4,22.6,27.6,35.5,61.7,75.6,66.1,42.2,4.6,109.2-16.7,127.2-59,16.4-38.3-10.2-81.1-27.8-114.1-25.5-48-45.1-95.4-17.3-147.8,28.8-54.1,93.2-80.4,140.5-31.6,67.2,69.5,21,182.4,81.1,256,30.5,37.3,78.6,51.5,124.3,59.3,54.5,9.3,110.1,12.9,165.3,12.8,46.2-.1,97.4-.4,141.4-16.3,66.1-24,101-92.1,168.1-115.2,64.3-22.1,142-7.4,203.3,18.4,42.8,18,52.4,63.6,70.1,102.5,18.1,39.7,43.3,96.3,87.8,112.3,47.2,17,89.9-35.8,100.3-76.5,5.9-23,2.3-48.8,11.5-70.8,10.9-25.9,39.6-31.3,64.7-29.3,51.5,4,103.1,23.5,150.9,42.2,107.9,42.1,206.1,125.9,328.1,116.8,124.7-9.3,236.4-91,302.8-194.1,51.9-80.6,85.5-227.8-20.1-283.8-42-22.3-92.7-21.7-139-19.3-51.4,2.7-102.9,4.9-154.3,8-53.7,3.2-123,13.3-172.7-12.8-24.2-12.7-45.5-32.6-28.9-59.6,13.5-21.8,35.3-38.4,52.7-56.9,36.1-38.6,50.4-87.1,52.7-139.2,2.2-51-7.3-109.4-42.8-148.5-68.4-75.3-210.8-29.1-236.2,65.5-8.1,30-6,63.3-5.2,94,1.2,41.8,3.7,83.7,3.4,125.5-.3,48.7.8,159.2-73.4,151.8-115.5-11.5-82.3-146.6-88.9-225.7-3.7-44.6-18.5-87.6-57-113.8-40.1-27.4-93-27.6-138.7-17.1-48.7,11.2-97,35.6-132.3,71.3-33.6,34-46.2,79.2-52.8,125.4-6.4,44.7-4.9,90.9-15.6,134.8-11,45.7-40.4,74.7-85.4,88.2-45.8,13.8-96.4,15-143.8,11.1-45.3-3.7-97.6-13.3-132.9-44.2-40.2-35.3-36.6-88.2-3.8-127s78.1-66.3,104.6-110.3c19.6-32.6,23.7-73.9,24.9-111.1,1.4-42-2.4-86.8-19.8-125.5-15.1-33.6-43.7-59-82.1-58.4-40,.7-73.3,22.8-87.3,60.4-14.4,38.7-10.8,82.5-11.1,123-.3,35.3,1.3,80.9-35.8,98.5-43.5,20.7-94.6-12.2-126.8-39.6-34-29-70-68.2-83.9-111.7-17.4-54.9-6.9-115.1-24.7-170.3-16.2-50.4-52.3-95.5-100.6-118.2-80.4-37.8-190.9-22.7-251.2,45.3-31.1,35.1-44.4,81.7-41.6,128.2,2.7,45,29.8,79.7,78.1,63.3,45.3-15.5,47.5-58.6,60.7-97.6,16.7-49,79.8-47.4,109.1-10.4,27.2,34.5,34.4,87.2,29.1,129.7-6.7,53.6-38.6,102.1-77.6,138.1-41.4,38.1-95.5,65.9-152,71.1-57.5,5.3-126.7-15.5-159.2-66.7-34.1-53.8,1.4-121.5,14.4-176.4,11.5-48.5,14.8-116.7-22.4-156-31.4-33.2-78.6-20.2-112.1,2.5-41.5,28.2-71.9,73.3-117.9,94.9-48,22.6-104.1,17.1-153.6,35.4-45.5,16.8-79.4,48.9-98.5,93.6-21.7,50.8-26,107.3-22.2,161.9,3.8,54,14.5,111.5,42.7,158.5,13.1,21.8,30.7,39,51.8,53s45.2,22.4,65.9,36.8c62.2,43.3,32.8,132.7,37.8,195.5,10.3,129.9,148.3,169.7,258.7,163.5,15.9-.8,16-25.4.1-24.5m3369.2-380.8c-72.8,7.5-148.5,20.3-221.3,6.6-34.8-6.5-68.7-19.8-94.8-44.3s-53.6-67.1-49.6-104.6c3.1-29,27.5-52.4,42-76.2,16.6-27.3,33.9-64.9,26.1-97.6-6.4-26.8-30.5-40.4-52.8-53.1-34-19.3-65.5-42.8-82.9-79.1-18.1-37.8.2-69,32.4-91,31.6-21.6,75.8-43.2,115.3-36.2,67,12,88.8,91.4,116,143.2,19.9,37.9,68.7,101.9,116.5,59.3,40.2-35.9,18.5-116.6,9.9-161.2-10.9-56-30.7-113.4,1.3-166.3,23.7-39.2,76.8-70.6,122-48.1,54.1,27,46.6,99,52.9,149.4,6.1,48.4,26.4,105.4,85.6,98.9,64.3-7.1,80.7-70.7,87.2-125.7,3.8-32.2,4.1-64.5,4.5-96.9.4-28.4-2.5-59,2-87.1,1.6-9.9,2.8-16.4,13.7-15.2,18.8,2.1,40.9,18.5,54.2,31.2,29.6,28.3,45.6,70,57.6,108.2,24.2,77.6,45.5,175.2-26.9,233.7-64,51.8-154,25.3-227.5,48.8-48.7,15.6-86.4,59.3-56.5,108.7,20.4,33.8,85.2,78.5,63.8,123.8-14,29.7-60.2,16.9-82,38.9-13.7,13.8-17.1,32.2-22.8,49.9-5.5,17-16.2,33.5-24.2,49.5-17.3,34.4-37.7,55.5-78.3,57.2-15.8.7-15.9,25.3,0,24.7,36.8-1.5,66.5-15.4,86.9-46.5,19-29,33.2-62,43.8-94.6,8.6-26.2,21.9-29.2,45.8-34.1,16.3-3.4,33-8,44.5-20.9,17.3-19.5,18.2-48.2,8.6-71.3-9.8-23.6-27.9-42.7-44.2-61.9-13.1-15.5-35.3-38.3-27.7-60.7,11-32.5,55.8-42.7,85.1-46.4,40.2-5.1,80.9-4.1,120.9-11.6,83.9-15.7,140.9-82.3,138.4-168.3-1.2-40.5-10.7-81.4-22.4-120.1-12-39.8-28-80.5-54.9-112.8-19.2-23.1-56.4-52.1-88.4-50.5-26.4,1.3-31.7,28.5-33.1,49.9-4,64.7,3.1,130.2-8.8,194.3-5.2,28.1-14.1,66.2-44.1,77.3-30.3,11.3-55.1,0-66.7-29.3-21.8-55.2-4.1-118.2-34-171.3-25.4-45-77.1-61.6-124.9-43.9-53.4,19.9-88,71.6-92.9,127.4-2.4,27.4,4.6,55,10,81.6,7.2,34.9,15.1,70,17.6,105.6,1.5,21.1,4.8,59.4-18.3,70.8-29.9,14.7-54.7-24.3-66.8-45.4-31.3-54.4-47.1-120.9-105.8-154.3-31.1-17.7-67-16.5-100.2-5.3-37,12.5-77.5,33-101.2,65-48.6,65.3,19.2,140.4,74.7,173.2,24.6,14.5,56.8,26.1,53.7,60-3.7,40-30.4,71.1-51.2,103.4-16.6,26-22.9,53.4-14.4,83.5,10.4,37.2,33.8,72.9,64.1,96.9,59,46.9,139.5,50.5,211.5,46.1,37-2.3,73.9-7,110.8-10.8,15.8-1.4,16-26.1.2-24.4" fill="#231f20"/><path d="M5145.83,1333.52c-6,.5-10.5,1.3-14.8.7-2.9-.1-7-.8-8.3-2.7-6.4-9.6-12.3-19.6-17.9-29.7-3.3-5.9-16.5-10.3-21.9-6.7-7.5,4.9-15.1,9.7-22.7,14.5-6.7,4.3-14,7.9-20.1,13-9.7,8-17.7,18.2-27.9,25.2-20.3,13.9-41.6,26.5-62.9,38.9-2.9,1.7-9.5.9-11.8-1.4-16.5-16.6-33.4-33.2-42.6-55.2-2.2-5.2-1.6-12.9.5-18.3,3-7.7,9.5-13.9,13.1-21.5,10.8-22.8,26.1-43.4,32.5-68.6,4-15.6,13-29.9,16.5-45.5,5.9-26.2,11.4-52.8,13.1-79.5,1.8-27.7-.2-55.9-2.6-83.7-1-11.9-4.9-25-11.7-34.5-6.5-9-18.5-19.2-28.2-19.4-11.9-.2-21.4-4.1-31.9-7.3-4.9-1.5-10.7-3.5-15.3-2.3-21.9,5.6-43.5,12.2-65.1,18.6-4.9,1.5-10,3.2-14.4,5.9-29.4,18.2-55,40.5-75.6,68.7-21.2,29-33.7,60.9-35.8,96.7-1.4,24.1,3.7,47.5,11.6,69.9,6.8,19.3,16.2,37.7,24,56.7,8.2,19.9,15.1,40.3,24.1,59.8,4.5,9.7,2.8,15.8-3.5,23.4-13.2,15.8-25.5,32.4-38.2,48.7-13.9,17.9-28.2,35.7-41.7,54-14.2,19.3-28.5,38.6-41.2,58.9-13,20.7-24.7,42.2-35.8,64-8.9,17.6-16.8,35.7-23.9,54.1-6.7,17.4-10.5,36-17.8,53.1-4.8,11.2-2.9,20.5,3.3,28.6a227.17,227.17,0,0,0,29.4,31.8c5.2,4.6,13.7,8,20.5,7.7,8.8-.3,18.1-3.5,25.8-7.9,20.7-11.9,41.7-23.8,60.7-38.2,21.3-16.1,40.1-35.6,61-52.4,35.7-28.7,72-56.5,108.4-84.3,2-1.6,8.1-.9,10.2,1.1,4.3,4.2,7.7,9.6,10.6,14.9,3.8,7.1,6.2,14.9,10.3,21.8,18.5,30.7,37.5,61.2,56.1,91.8,7.3,12,38.4,28.3,50,22.9,11.2-5.3,21.7-14.1,29.9-23.6,7.9-9.2,12.8-21.2,18.3-32.3,2.9-6,7.9-15.6,5.5-18.7-8.9-11.7-1.5-19.1,4.6-26.6,6.6-8.3,9.2-19.4,4.4-29.2q-7.5-15.3-15.9-30.3c-9.7-17.5-19.8-34.9-29.7-52.3-3.4-6-7.5-11.8-10-18.2-1.1-2.6,0-8.3,2-9.6,28.6-17.9,57.5-35.2,86.3-52.8a66.3,66.3,0,0,0,7.3-5.8c9.3-7.4,18.6-14.8,27.8-22.3,1.8-1.4,4.2-3,4.9-5,5.7-17.3,11.1-34.7,16.4-52.1C5146.33,1339.22,5145.83,1337,5145.83,1333.52Zm-347.1,146.1a551.19,551.19,0,0,1-52.4,36c17.3-25.3,34-50.8,55.2-72.2,2.3,1.2,2.8,1.2,2.9,1.5C4816.63,1464.82,4817,1465.22,4798.73,1479.62Zm71.5-426.6c-1.1,16.6-4.4,33.1-5.1,49.7-1.2,26.4-9.1,51.1-17.1,75.8-4.4,13.8-10.9,26.9-16.5,40.3a38.44,38.44,0,0,0-4.8,0c-3.5-7.3-7.6-14.3-10.3-21.8a243,243,0,0,1-13.1-68.8c-.9-19.4,7-35,16.4-49.7,9.1-14.3,20.8-27.3,37.5-33.9C4868.23,1040.32,4871,1041.72,4870.23,1053Zm-440.5,172.3c-7.3-.8-14.7-.7-21.9-2.1-27.5-5.4-55.2-6.1-83-4.5-32.4,1.9-64.7,4.3-97.1,6.5-17.4,1.2-34.8,2.2-52.2,4-20,2.1-39.8,5.3-59.7,7.5-35.5,4-70.9,7.6-106.4,11.3-18.2,1.9-36.5,3.5-54.7,5.5-20.5,2.2-41,4.8-61.5,7.2-6,.7-9.9-1.5-9.9-7.8-.1-23.5.4-47.1.1-70.6-.2-23.1-1.3-46.1-1.8-69.1-.3-14.1-.1-28.3-.1-44.4h95.9c8.4,0,16.8-.5,25.2-.1,31.1,1.3,62.1,2.9,93.1,4.4,37,1.8,74,3.4,110.9,5.6q28.2,1.8,56.2,5.3c19,2.3,37.9,5.8,56.9,8.4s37.9,5.2,57,7c2.5.2,7.9-4.3,7.8-6.4-.6-11.9,6.9-12.4,11.5-12,8.6-8,15-13.9,22.3-20.7.2-2.7,1.1-7.6.7-12.4-.2-3.1-1.5-7-3.7-8.9-16.7-14-36.7-21.6-57.3-27.2-14.7-4-29.9-6.4-44.9-9.2-27.7-5.2-55.3-11-83.2-14.8s-56.2-6-84.3-8c-38.7-2.7-77.5-5.2-116.3-6.7-33.5-1.2-67-.9-100.5-1.4-24-.4-47.9-1.2-71.9-1.7-24.9-.5-49.8.2-74.5-1.7-22-1.6-43.8-7.8-65.9-8.7s-44.6,1.5-66.6,4.3c-8.2,1.1-17,6.2-23.1,12-5.1,4.9-7.7,13.2-9.8,20.5-4.1,14.1-1.7,29.2,7.2,39.5,7.1,8.3,19.9,12.2,30.7,16.7,8.5,3.5,18.1,4.3,26.9,7.4,3.2,1.1,7.3,5,7.8,8.1,2,12.7,3.8,25.6,3.8,38.4.2,51.8-.5,103.6-.3,155.4.1,7.6-1.2,10.4-9.3,11.3-16.3,1.8-24.3,15.7-19.5,31.6a35.1,35.1,0,0,1,1.3,7.2c1.1,12.7,8.8,22.4,18.4,28.5,9.1,5.8,13.3,12,14.6,22.3,5.3,40.7,10.9,81.4,17.1,122,2.2,14.3,6.1,28.5,9.3,42.7,3.2,14.6,6.5,29.1,10.1,44.8-6.7.8-12.5,1.6-18.3,2.1-17,1.4-34,3.6-51.1,4-23.3.5-46.5-.3-69.8-.7q-41.4-.6-82.8-1.6c-11.8-.3-23.6-1.7-35.4-2-20.9-.5-42,.6-62.8-1.2a716.61,716.61,0,0,1-71.4-9.9c-28.9-5.4-57.4-12.4-86.1-19-2.1-.5-4.1-2.8-5.5-4.7-6.9-9.8-5-24.7,4.4-32,2.8-2.1,7-2.5,10-4.5,15.7-10.4,31.1-21,46.6-31.5,8-5.5,15.9-11.2,24-16.5,7.1-4.7,14.5-8.9,21.6-13.5,5.2-3.3,10.7-6.4,15.1-10.5,5.8-5.4,10.5-12,16.1-17.6,6.5-6.5,14.5-10.2,19.9-19.2,8.9-14.8,22-27,33.6-40.1,34.3-38.5,66.5-78.6,90.2-124.7,11-21.3,21.4-43.1,31-65.1,5.5-12.7,9.2-26.3,13.1-39.7,2.6-9,3.8-18.3,6.1-27.4,1.4-5.5-3.1-14.4,5.8-15.3,2.3-.2,5.6,9.4,8.4,14.4,7.3-10.5,9.6-24.8,9.9-38.9.3-12.9-.4-26.3-3.6-38.7-3.6-14.1-6.5-29.8-24.3-35.2-4.7-1.4-8.5-6-12.5-9.4-4.4-3.6-8.1-8.2-12.9-11.1a83.87,83.87,0,0,0-17.6-7.7c-20.4-6.9-40.8-14.3-62.9-13.5-4.3.1-8.6.4-12.7-.2a122.77,122.77,0,0,0-74,11.3c-7.9,3.9-16,7.5-23.7,11.8-13,7.2-27.3,13-38.3,22.6a353.1,353.1,0,0,0-46.3,48.4c-16.8,21.7-31.9,44.9-46.1,68.4-9.5,15.6-15.7,33.1-23.9,49.5-17.2,34.3-27.6,70.9-37.6,107.7-.7,2.5-2.4,4.6-3.6,6.9-2.3-1.8-5.5-3.2-6.6-5.5-3.6-7.8-5.5-16.5-9.6-24-16.6-30.1-35.6-57.5-69.4-71.5-25.3-10.5-50.4-21.2-77.9-22.6-24.3-1.2-48.8-.9-73.2.1-30.5,1.3-60.9,4.7-89.9,14.8-8,2.7-17.4,5.2-18.6,16.1-1.2,10.1-4,11.6-13.6,8.3-6.8-2.3-14-3.5-21.1-4.9-19.5-3.9-39.1-7.2-58.4-11.6-22.6-5.2-45.5-7.6-68.6-8.3-4-.1-8-1.7-12-2.2-6.7-.8-13.5-1.4-20.3-2.1-2.5.8-4.9-1.8-7.5-2-18.2-1.7-36.4-2.5-54.5-4.3-11.6-1.1-22.8-6.8-34.7-1.4-1.2.6-3.2-.5-4.8-.8-14.8-2.5-29.4-5.9-44.3-7.2-20.2-1.7-40.5-1.7-60.7-2.9-9-.5-17.9-2.3-26.9-3.1-11.7-1-23.4-2.2-35.1-2.5-12.8-.4-25.7.4-38.6.3-16.5-.1-33.1-1.9-49.6-.9-23.1,1.4-46.3,4.2-69.3,7.6-9.1,1.4-17.8,5.6-26.5,9a169,169,0,0,0-19.7,9.3c-3.2,1.8-6.6,4.5-8.1,7.7a26.18,26.18,0,0,0-2,12.4c.6,9.2-3.6,10.8-11.6,9.2-10.2-2-20.6-3.4-31-4.8-21.3-3-42.6-6.8-64-8.5-22.8-1.8-45.8-2.3-68.7-2-40.9.5-81.9,1.3-122.7,3.3-23.6,1.2-47,5-70.5,7.5-28.2,3-56.4,5.8-84.6,8.9-31.4,3.5-62.7,7.1-94.1,10.6-31,3.5-61.9,7-92.9,10.4-18.3,2.1-36.5,3.3-53.5,12.2-18.3,9.6-24.8,41.4-10.3,56.6a70.82,70.82,0,0,0,16,12.9c8.5,4.8,17.9,7.9,26.6,12.2,1.6.8,3.2,3.8,3.1,5.7-.8,25.1-2.7,50.2-2.6,75.3,0,17.4,3.1,34.7,4,52.1.7,13.2.1,26.5.1,40.6-34.4-2-66.8,7.8-99.7,19-3.5-9.9,1.5-14.9,8.3-19.5,3.6-2.4,7.6-5,10-8.5,8-11.4,16.6-22.6,22.6-35a529.3,529.3,0,0,0,23.1-56.9c3-8.9,2.5-19,3.5-28.6,3.4-33.3-14.9-59.5-40-76.9-11.8-8.1-25.4-14-38.9-19.2-18.1-7-36.5-14.2-55.5-17.9-28-5.4-56.5-8.1-84.8-11.3-16.7-1.9-33.4-3.1-50.1-3.7-24-.9-48.1-.8-72.2-1.5-21.7-.6-43.5-2.6-65.3-2.3-29.4.4-58.7,2.1-88.1,3.6-29.9,1.6-59.8,3.4-89.7,5.7-14.9,1.2-29.8,3.6-44.6,5.8-21,3.1-42,6.3-62.9,9.9-22.5,3.9-45,7.6-67.3,12.5-23.7,5.2-47.2,11.8-70.7,17.9-11.2,2.9-24,3.4-33.3,9.4-16.7,10.8-30.8,24.8-33.7,46.8-2.1,16.1,8.3,27.3,13.3,40.6.3.9,2.5,1,3.6,1.9,12.1,9.8,26.8,8.8,40.8,8.5,10.6-.2,21.1-4,31.7-5.2,8-.9,16.3,1.2,24.1-.3,20.4-4,40.6-9.2,60.9-13.7,4.7-1.1,9.7-.8,14.2-2.3,10.7-3.7,13.4-2.3,13.1,8.8-1.3,43.8-2.9,87.5-4,131.2s-1.8,87.3-2.3,131c-.1,5.4-1.4,8.1-6.5,10.1a230.52,230.52,0,0,0-23.7,10.9c-14.3,7.4-18.9,18.1-15.1,33.6,1.5,6.1,2.2,12.4,4,18.4a12.69,12.69,0,0,0,5.7,6.6c8.7,4.5,18.3,7.5,26.5,12.9,3.7,2.4,6.4,8.9,6.6,13.6.7,14.9-.1,29.9,0,44.8.2,23.1.8,46.3,1.1,69.4.4,31.5.1,63,1.4,94.4,1.2,28,3.7,55.9,6.3,83.8,3,30.9,5.5,62,10.5,92.7,4.9,30.3,7,61.1,17.6,90.5,9,25.2,16.4,50.9,30.4,74.1,8,13.1,17.9,22.7,32.8,27.4,13.5,4.3,25.5,10.8,41.1,2.8,14.7-7.5,31.8-10.2,48.4-15.1-1.4,3.6-3.1,8.1-4.8,12.5-4.6,12-9.4,23.9-13.9,36-7,18.8-13.8,37.8-20.6,56.7-6.6,18.3-13.5,36.5-19.7,55-6.5,19.7-12,39.7-18.6,59.3-4.9,14.6-11.7,28.5-16.4,43.1-9.2,28.6-17.6,57.4-26.4,86.1-3.3,10.7-7.4,21.1-10.1,31.8-7.2,28.3-14.2,56.8-20.6,85.4-2.4,10.7-8.9,16.4-18.5,19.4q-28.2,9-56.5,17.4c-20.6,6.1-27.5,27.4-12.8,43.6,12.6,14,27,25.8,48.1,23.6,3.9-.4,7.9,1.4,13.4,2.5-3.1,9.1-7.1,17-8.3,25.2-3.8,27.3-5.7,54.9-9.9,82.2-7.4,48.8-17.1,97.1-19.2,146.6-1.1,26.8,6.6,40.5,35.5,47.2,13.1,3.1,23.7.7,34.3-7.4,6.6-5,14.7-8,22.1-11.9,4.5-2.4,9.6-4.1,13.2-7.4,10.6-9.9,13.8-23.4,15.7-37.1,3.1-22.5,5.6-45.1,9.2-67.5,3.5-21.6,8-43.1,12.3-64.6a51.76,51.76,0,0,1,3.6-9.7c.3-.7,1.6-1,2.4-1.5,2.4,2,4.6,3.9,7.6,6.4,1.2-3.8,2.3-6.3,2.8-9,2.4-13.3,4.4-26.8,7.1-40.1,5.4-27,11.7-53.7,16.4-80.8,2-11.8,8.3-18.9,18.3-23,25.5-10.4,51.2-20.1,76.7-30.3,13.8-5.5,13.8-5.7,19,8.1a58,58,0,0,1,1.7,7.2c2.3,11.9,4,24,7,35.8,8.7,33.8,17.9,67.4,27.1,101,8.9,32.6,16.8,65.5,27.3,97.6,11.3,34.4,24.8,68.2,38,102,8,20.3,16.4,40.5,44.1,40.5,17.8,0,33.3-5.2,48.3-14.2,10.9-6.5,22.2-13,34.2-16.6s16-8.7,11.1-20.6c-3.1-7.6-8.2-15.8-7.7-23.4,1.1-16.6-8.4-29.3-12.6-43.8-5.3-18-13.8-35.2-18.5-53.3-5.8-22.6-8.9-45.9-13.5-68.8-1.5-7.3-7.8-16.3-5.4-21.3,4.9-10.1-.8-17.5-1.5-26.1-1.3-15.2-15-29.7-2.8-45.7.7-.8.3-2.8,0-4.1-5.3-25.3-10.6-50.5-16-75.8-.5-2.6-1.4-5.8-3.3-7.5-18.6-16.3-8.8-36.6-8-55.6,0-1.1,1.4-2.5,2.5-3.2,13.9-9,27.6-18.6,42.1-26.7,18.5-10.3,37.6-19.6,56.6-29.1,3.6-1.8,7.7-2.6,11.6-3.9-.6,1-1.1,2-1.7,3,8.2,8.6,15.3,18.7,24.8,25.5,13,9.4,25.8,15.1,26.1,36.1.3,25.6,7.9,51,11.8,76.5,4.3,28,6,56.5,12.4,83.9,11,47.1,24.9,93.6,37.7,140.3,4.1,14.7,25.1,29.5,39.9,27.4,8.2-1.2,17.7-2.1,24.1-6.7,12.2-8.7,25.2-14.4,39.3-18.5,3.1-.9,5.3-4.9,8.4-6.1,7.1-2.6,14.8-7.1,21.6-6.1,14.7,2.1,28.7-7.4,27.7-22.6-1.8-28.2-6.2-55.9-16.1-82.5-1.1-3-1.5-6.1-2.3-9.2-5.7-22.2-11.7-44.4-16.9-66.8-1.7-7.2-3.7-20.5-1.4-21.5,8.7-3.7,4.7-9.5,4.4-14.1-.4-6.2-2.6-12.2-3.8-18.4-5.4-28.7-10.9-57.4-15.8-86.1-.5-3.1,1.5-9.2,3.7-9.9,9.9-3.2,20.1-5.3,30.3-7.3,18.9-3.7,38.2-5.6,56.6-10.8,39.6-11.2,78.8-23.9,118.2-36.1,17.2-5.3,34.3-11,51.4-16.6s34.5-11.2,51.7-16.9c10.9-3.6,22.4-6,32.5-11.2,13.1-6.7,25.1-15.6,38.3-23.9,1.3,3.1,2.3,4.3,2.3,5.6,1.5,38.4,2.8,76.8,4.3,115.2.9,20.9,2.2,41.7,3.2,62.6,1.7,35.7,1.7,71.5,5.3,107,3.3,32.8,5.6,65.8,15.2,98,7.3,24.4,18.8,41.8,46.5,45.2,20.4,2.5,37-7.1,55.1-12.3,6.5-1.9,12.7-5,19.3-6.8,10-2.8,20.2-5.1,31.7-7.9-3.9-5.8-6.5-8.5-7.6-11.7-2.4-7.2-7.5-16-5.3-21.7,4.1-10.7,1.4-19.3-.6-29.2-1.7-8.3-2.6-18.3.5-25.8s3.7-13.9,3.4-21.7c-1.4-33.6-1.5-67.3-2.7-100.9-1.2-35.4-3.7-70.7-4.6-106.1-.8-29-.2-58,.2-87,.1-5.3,2-10.5,3.1-15.8l2.1.6c2.2,28,4.5,56,6.7,84,.9,0,1.7.1,2.6.1.2-3.9.7-7.8.6-11.7-.3-18.5-1.2-37-1.2-55.5,0-29,.6-57.9.5-86.9-.1-15.4-.9-30.9-1.9-46.3-.5-8.5,2.7-12.7,11.1-14.8,16.1-4,32.1-8.9,48-13.7,18.7-5.6,37.2-11.5,55.9-17.2,17.6-5.3,35.2-10.4,52.8-15.7,15-4.6,29.9-9.4,45.2-14.2,0,33.6.1,65.9.2,98.2,0,6.5-3.5,10.4-11.4,10.7-11.5.4-20.4,8.8-19.5,16.4.69,5.9.8,12,2.5,17.6,2.7,8.8,4.9,17.9,14.3,23.4,6.4,3.8,13.6,7.6,14,18,1.2,32.5,2.9,65.1,5.8,97.5,2.3,26.5,5.1,53.1,10.3,79.1,4,20.4,12.9,39.8,18,60,8.6,34,27.9,60.4,56.1,80.2,17.7,12.5,37.3,21.6,59.6,20.5,15.1-.7,30.1-5.1,45.3-5.7,26.79-1,50.6-12.5,75.4-20.3,9.3-2.9,19.1-5.6,27.3-10.7,28.9-17.9,51.2-43.6,71.2-70s35-57.1,51.5-86.2c3.7-6.5,6.5-14.6,6.5-21.9,0-12.1-2.2-24.3-4.5-36.2-1.11-5.6-4.3-8.7-12.11-8-5.69.5-12.39-4.9-17.69-8.9-3.71-2.8-5.41-8.1-8.61-11.8-5.09-5.8-12.29-3.8-15.89,2.8-2.61,4.8-6.61,9.9-11.31,12.1a70,70,0,0,0-34,32c-10.5,19.7-21.89,38.8-33.69,57.7-20.81,33.1-48,60.1-79.7,82.7-4.5,3.2-9.7,8.8-14.3,2.3-5.7-8-10.9-17.1-13.5-26.5-3.9-14.1-5.8-28.9-7.9-43.4-5.41-36.9-11.91-73.8-15.1-110.9-2.31-26.6.09-53.7.19-80.6.11-6.7,2.5-9.6,9.61-11.1a172,172,0,0,0,34.1-11.1c22.5-10,44.5-21.2,66.8-31.8,10.7-5.1,22-9,32.2-14.9,21.1-12.2,41.4-25.6,62.4-37.9,31.6-18.5,63.7-36.2,95.3-54.7,10.7-6.3,20.5-14.5,31.2-20.9,14.9-8.9,30.4-16.7,45.3-25.6,12.3-7.3,18.8-5.7,22.5,8.3,6.2,23.3,11.3,46.8,17.3,70.1,11.5,45,8.5,90.6,6.2,136.2-.6,11.9-5.4,18.5-17.4,21.5-5.4,1.3-12.5,6.3-13.8,11-2.71,9.9-2.71,20.7-2.6,31.2s6,21.6,14.5,23.1c15.4,2.7,16.7,12.1,16.8,23.3.5,32,.5,63.9.6,95.9.1,21.8-.5,43.6,0,65.4.3,10.5,10.3,19.8,20.4,21.6,11.7,2.1,23.3,4.7,35.5,7.2,1.4-10.1,8.5-13.6,17.1-15.6q14.25-3.3,28.5-6.9c6.6-1.7,13-4.6,19.7-5.5,12.6-1.8,18.5-6.2,18.8-15.5.6-18.2.7-36.5,2.1-54.7s-1.5-36.8,5.1-54.9c2.8-7.6.7-16.8,2.6-24.9.8-3.5,5.9-8,9.6-8.5,7.2-1,14.8.7,22.3.6,23.1-.5,46.2-.9,69.2-2.1,43.5-2.2,87.1-5.1,130.6-7.4,18.7-1,37.5-1.1,56.2-2.2,28.1-1.7,56.2-4.2,84.3-5.6,31.3-1.6,62.7-2.4,94.1-3.6,17.5-.6,34.9-2.2,52.3-1.9,41.3.7,82.6,1.8,123.8,3.7,31.6,1.4,63.6-.9,94.6,8,14.8,4.2,29.3,5.4,44.6,2.2,14-2.9,28.6-3.4,42.8-5.8a49.7,49.7,0,0,0,16.5-6.4c6-3.5,10.8-7.7,18.1-2.4,1.6,1.1,6.9-.1,8.4-2,5.7-7.2,11.2-8.4,18.6-2.4,1.3,1.1,6,.2,7-1.3,1.5-2.1,2.3-6.4,1.1-8.3-3.4-5.4-7.1-11.4-12.3-14.7a400.5,400.5,0,0,0-44.4-24.6,204.71,204.71,0,0,0-37.3-12.6c-15.5-3.8-31.3-7.4-47.2-8.5-13.6-1-27.5,2.8-41.2,2.8-11.9.1-23.7-2.8-35.6-3.3-21.5-1-43.1-1.2-64.7-1.7-27.7-.7-55.3-1.8-83-2-28.9-.1-57.9.6-86.8,1.1-15.8.3-31.6.6-47.3,1.4-26.3,1.3-52.7,2.9-79,4.4-20.2,1.2-40.5,1.9-60.7,3.7-14.7,1.2-29.2,4.7-43.9,5.6-29,1.8-58,2.1-87,3.6-25.8,1.4-51.6,3.5-77.4,5.1-7.5.5-15.1.1-26,.1,5.5-4.6,8.3-7.6,11.7-9.6,13.4-7.9,27.2-15.2,40.6-23.1,13-7.6,25.4-16,38.4-23.4,16.7-9.6,34.3-18,50.7-28.1,17.5-10.7,33.2-24.7,51.3-34.1,28.9-15,51.6-37.7,76.8-57.3,10.7-8.4,19.9-18.8,30.5-27.3,12.2-9.8,25.5-18.3,37.9-28,19.5-15.3,33.8-34.9,47.1-55.6,8-12.5,18.9-23.1,27.5-35.2,13.8-19.3,19.2-43.6,35.4-61.7,1.7-1.9,1.8-5.2,2.6-7.9,2.6-8.3,5.2-16.5,7.8-24.8,6.2-19.5,14.3-38.6,18-58.5,2.6-13.9-.2-28.9-1.7-43.3-3.9-36.9-22.5-66-53.8-84.5-22.9-13.6-48.2-23.7-73.5-32.5-20.8-7.3-43-10.9-64.7-15.2-14.3-2.9-29-6.1-43.4-5.7a452.84,452.84,0,0,0-66.7,6.8c-18.4,3.2-36.6,8.7-54.1,15.3-15.2,5.7-28.9,15.4-44.1,21.3-9.3,3.6-15.6,9.2-22.5,15.7-10.8,10.3-24.9,17.5-34.6,28.6-22.7,26.1-45.1,52.7-64.8,81.1-15.2,21.9-27.2,46.3-38.8,70.4-9.9,20.7-17.2,42.7-26.3,63.8-1.7,3.8-6.6,9.1-9.8,8.9-14.1-.8-28.1-3-42.1-5.2-9-1.4-18-3.4-26.9-5.5-2.1-.5-3.9-2.3-6.2-3.7,1.4-2.3,2.1-3.9,3.3-5.1,8.3-8.9,9-13.9,1.9-22.9-2.8-3.5-6.4-7.2-10.4-8.8-14.3-5.7-28.6-12-43.6-15.3-27.9-6.2-56-12-84.3-15.2-23.4-2.6-47.3-1.5-71-1.5-22.9.1-45.8.1-68.7,1.4-16.7.9-33.3,3.8-49.9,5.8-22.6,2.8-45.2,5.4-67.7,8.4-11.1,1.5-22,4.1-33.1,5.6-19.1,2.6-38.4,5.1-57.6,7.2-17.3,1.9-34.7,4.5-52,4.2-9.2-.1-14.9,2.6-21.9,7.8-9,6.7-12.5,13.9-11.4,24.7.5,4.2-2.1,8.7-2.9,13.2-.5,3.1-1.8,7-.5,9.1,5.4,8.5,3,21,13.7,26.9.9.5,1.3,2.5,1.5,3.8,1.5,10.7,3.1,21.5,4.1,32.3.5,5.5-1.5,8-8.2,7.2-13.7-1.6-27.7-3.2-41.4-2.2-20.8,1.5-41.6,4.6-62.2,8.2-25.3,4.5-50.6,9.8-75.7,15.5-12.9,2.9-17.2-.2-17.3-13.7-.1-11.5-.8-23.1-1.6-34.6-1.1-16.1-2.5-32.2-4.2-48.2-2-18.4-4-36.8-6.9-55.1-.9-5.5-4.1-11.1-7.5-15.7-1.6-2.2-8.3-1.2-9.1-3.1-6.9-17.1-25.2-15.3-37.7-22.8-10.3-6.2-23.8-7.2-35.9-10.4-3.1-.8-6.5-2.3-9.2-1.6-21.2,5.8-42.1-7.8-63.4-.8-7.3,2.4-14.9,4.8-22.6,5.5-7.1.7-9.8,4.2-11.2,10.3-.8,3.4-2.6,6.5-3,9.9-1.2,9.8-3.4,19.7-2.3,29.3,1.3,10.8,6.1,21.2,8.7,31.9s4.5,21.3,7.1,33.9c-8.2-1.6-13.6-2.9-19.1-3.7-22-3.3-44-6.8-66.1-9.5-18.3-2.2-36.8-3.9-55.2-4.9-11.4-.7-22.9.5-34.4.8-21.9.5-43.9.3-65.7,1.9-15.3,1.1-30.6,4.1-45.6,7.5-23.9,5.3-47.8,10.7-71.2,17.9a280,280,0,0,0-48,20.1c-20.3,10.6-41.1,21.3-58.8,35.5-14.3,11.5-26.5,22-46.7,21.3-15-.4-30,8.6-36.5,21.6-7.3,14.6-10.4,31.9-12.3,48.4a671.36,671.36,0,0,0-4.1,72.4c-.2,26,1.5,52.1,2.1,78.1.1,6.7,0,14-8.6,15.9-6.2,1.4-12.7,1.4-18.7,3.1-15.5,4.4-31.4,8.1-46.2,14.4-25.1,10.7-49.2,23.5-73.9,35-16.4,7.6-17.2,6.9-18.1-10.7-.1-1-.2-2.1-.4-3.1-3.8-19.4-8-38.8-11.2-58.4-3.1-18.7-4.7-37.6-7.6-56.3-2.4-15.5-5.6-30.8-9-46.1-1.9-8.3-5.6-16.2-7.1-24.5-2.4-13.7-3.9-27.6-5.4-41.5-1.6-15.2-2.7-30.4-4.3-45.5-.4-4-.7-8.4-2.6-11.8-9.5-17.3-31.4-27-52.8-23.8-17.3,2.5-18.9.9-16.6-16.7.1-1.3.3-2.6.4-3.7-4.3-1-10.7-.9-11.6-3.1-3.7-8.6-8.3-18.2-7.7-27,1-13.7-5.9-24.2-9.9-35.9a5.3,5.3,0,0,0-3.5-3.2c-9.5-1.2-12.4-9.2-15.7-16-5.2-10.8-4.2-12.8,7.4-14.6,10.9-1.6,22-2,33-2.9-.5-1-1.1-2.1-1.6-3.1,2.5-2.8,4.5-7.1,7.6-8.2,10-3.6,20.6-5.5,30.7-8.8,25.1-8.3,50.1-16.7,75-25.6,25.2-9.1,50.3-18.8,75.3-28.4a270.64,270.64,0,0,0,27.6-12c5.6-2.9,10-7.9,15.4-10.9,19-10.7,39.1-19.7,57.4-31.6,19.6-12.8,38.1-27.7,56.4-42.4,34.4-27.6,60.3-63.1,87.5-97.3,1.8-2.2,2-5.7,3.1-8.6.8-2.2,1.2-4.8,2.7-6.5,13.7-15.8,26.3-32.2,37-50.3,6.7-11.4,16.4-21,25.9-32.9,5.8,18,10.6,33.6,15.8,49,8.4,24.8,21.5,47.2,35,69.7,17.2,28.6,37.2,53,68.5,66.4,23.3,10,46.8,18.3,73,14.7,15.3-2.1,30.6-3.7,46-4.8,14.2-1,26.4-12.7,41.7-7.3.4.1,1-1.1,1.6-1.3,4.5-1.7,8.9-3.7,13.6-4.7,13.9-3.1,28.1-5.1,41.9-8.9,7.7-2.1,17.6-5,21.4-10.8,6.8-10.2,14.9-18.7,23-27.6,7.7-8.4,14.2-17.9,21.2-26.9-.5-.4-1.1-.8-1.6-1.2-2.8,1.4-5.5,2.8-9.3,4.7a29.26,29.26,0,0,1,1.4-3.6c8.3-13.8,21.3-25.6,17-44.3-.4-1.7,1.5-3.9,2.3-5.8,9.9-23.4,20-46.7,29.4-70.3,2.7-6.8,3.4-14.4,5-21.7-.6-.1-1.1-.3-1.6-.4-4.6,11.8-9.3,23.7-13.9,35.6-1.4-.3-2.9-.7-4.3-1,.9-7.2,1.8-14.4,2.6-21.6-8.7-2.1-7.8-3.1-7.2-14.2.7-13.7.8-28-2.8-40.9-2.3-8-11.7-14.2-18.3-20.8a27,27,0,0,0-8.6-5.3c-4.1-1.7-9.1-1.8-12.4-4.3-7.2-5.5-8.8-3.7-12,4.3-3.7,9.3-11,17.2-16.9,25.7-3.1,4.5-7.3,8.5-9.4,13.4-6.6,15.4-5.5,35.1-24.9,43.1-.8.3-1.1,1.7-1.5,2.7-8.1,17.3-15,35.2-24.4,51.8a594.55,594.55,0,0,1-37.3,57.9c-7.1,9.7-13,8.7-18.5-1.8-9.8-18.7-20.3-37.5-27.2-57.3-11.2-31.9-21.7-64.3-28.8-97.2-7.2-33.2-10.2-67.4-14.5-101.2-1.6-12.8-1.8-25.9-2.7-38.8-.7-11-.2-22.4-2.8-33-3.5-14.7-3-19,11.2-23.9,24-8.2,48.4-15.5,72.6-23.1,7.3-2.3,14.6-4.7,22-6.7,16.4-4.4,33-8,49.2-13.1,14.4-4.5,28-11.4,42.3-16,24.7-7.9,49.7-14.7,74.4-22.2,11-3.3,21.7-7.4,32.5-11,6.5-2.2,9.6-1.1,11,7.2,2.4,14.4,9.4,27,25.2,30.1,24.6,4.7,49.1,4.1,71.7-8.9,6.9-3.9,10.6-2.1,11.9,5.4a74.63,74.63,0,0,1,1,11.6c.8,28.5.4,57.1,2.5,85.5,2.4,32.8,6.3,65.4,10.8,97.9,5,36.1,11.4,72,17.4,107.9,2.1,12.4,3.8,25,7.6,36.9,7.4,23,16,45.5,24.3,68.2,7.7,21,18.1,40.9,35.8,54.7,10.2,7.9,23.9,14.4,36.5,15.4,17.5,1.4,35.4-3,53.1-4.9,1.2-10.3,2.4-11,11.8-4.6,5.3-5.9,10.7-12.2,16.4-18.1,1.4-1.4,4.6-2.8,6.2-2.2,19.9,7.3,34.3-8.4,51.6-12.1,1.6-.4,2.8-3,4.2-4.6,14-15.6,22.3-33.9,25.6-54.3,1.6-10.1,2.2-20.3,3.3-30.5l-3.5-.3-7.5,30.9c-1.3-.2-2.5-.4-3.7-.6.5-4,.9-8,1.6-11.9,1.4-8,5-15.5-2.7-23.4-4.1-4.2-5.7-12.3-5.7-18.7-.1-22.7,1.4-45.4,1.1-68.1-.1-6.6-4.6-13-6.6-19.6-1.9-6.4-3.1-13-4.7-19.5a64.08,64.08,0,0,0-2.1-7.5c-1.7-4.9-4.6-9.6-5.3-14.6-2.6-18.5-4.9-37.1-6.4-55.8-.6-7.5,1.2-15.2,1.5-22.9a32.75,32.75,0,0,0-1.4-10.8c-4.3-13.9-9.9-27.5-13.2-41.6-3.2-13.5-3.6-27.6-6.3-41.3-5.6-28.9-12.1-57.6-17.8-86.5-.6-3.1.9-8.7,3.1-9.8a105.78,105.78,0,0,1,22.5-8c12.4-3,25.2-5,37.7-7.8,42.2-9.6,84.4-19.6,126.7-28.9,24.7-5.4,49.7-9.4,74.5-14.6,14.3-3,28.2-8.1,42.5-10.8,19.3-3.6,39-5.5,58.4-8.6,25.7-4.2,51.2-9.4,77-13.1,12.1-1.7,24.5-1.1,36.7-1.3,7.1-.1,11.4,2.8,10.5,10.9-.4,3.7.7,7.8-.3,11.4-6,22.3-11.2,44.9-18.9,66.5-17,47.4-35.5,94.3-53,141.5-9.3,24.9-18.3,49.9-26.4,75.2q-14.1,44.1-26.2,88.6c-7.6,28-11.4,56.3-3.7,85.2,4.5,16.7,11.3,31.9,25.3,42.4,29,21.9,61.6,27.1,95.1,13.6,16.6-6.7,34.6-7.8,50.5-16.8,9.1-5.2,19.8-7.4,29.8-10.9,10.9-3.8,21.7-7.9,32.6-11.6,18.6-6.2,33.8-18.2,46.3-32.4,10.7-12.1,17.8-27.3,26.9-40.9,13-19.5,22.2-40.7,29.8-62.8,3.1-9,9.9-16.8,12.9-25.8,7.5-23,14.1-46.3,20.5-69.7,1.8-6.7,3.1-10.1,10.1-4.5,10.6,8.5,21,17.3,32.3,24.8,8.3,5.4,11.2,12.7,12.4,21.8,2.2,16.9,4.8,33.7,7.3,50.5,2.8,18.9,5.5,38,8.6,56.9,2.5,15.2,4.6,30.5,8.8,45.3,5.2,18.5,14,23,33.2,19.9,2.6-.4,5.8-.4,8.1.7,8.9,4,10.5-.6,10.7-8,.1-4.5,1-9,1.5-13.5h4.4c.6,4.5,1.3,9,2.1,15.2,4.8-12.1,14.9-11.4,24.5-12.5,2.1-.3,4-2.6,6.1-3.8,10.4-6.2,20.8-12.3,30.9-18.2,3.1,4,4.9,6.5,6.8,8.9-.3-6.3,6.8-15.5-5.6-16.3-.6,0-1.3-4.2-1.2-6.5.1-3,1.6-6.1,1.2-8.9-2.5-17.7-5.7-35.2-8.1-52.9-1.5-10.5-2-21.2-3-32.7,23.3,2.2,44.7,4.2,66,6.4,4.3.5,8.6,2,12.9,2.4,20.5,1.8,41,3.5,61.5,4.8,24.8,1.5,49.6,2.9,74.5,3.7,30.3,1.1,60.5,1.7,90.8,2.1,28.6.4,57.3.7,86,.1,19.5-.3,39.2-4.5,58.4-2.8,16.9,1.5,32-.3,47.7-6.2,3.4-1.3,11.7,4.2,14.4,8.6,8.2,13.2,13.6,28.3,22.3,41.3,27.5,41.3,59.2,78.8,106.4,98.6,12.6,5.2,26.7,7.2,40.3,9.6,17,3.1,35.6-3.7,51.1,10.8,4.1-11.7,11.8-13.2,21.5-11.6a40.33,40.33,0,0,0,14.7-.3c13-2.6,25.9-7.9,38.9-8.4,24.4-.9,44.9-8.5,64.3-23.6a186.65,186.65,0,0,0,44.9-51c1.7-2.9,1.1-10.9-.1-11.3-13.8-4.3-6.3-9.3-1.2-14.8,1.2-1.3.9-4,1.5-5.9,1.5-5,2.7-10.2,4.7-15,4.9-11.9,10.1-23.6,15.2-35.4,1-2.3,2.3-4.4,3.4-6.6-.5.2-1,.3-1.5.5,1.2-16.7,2.4-33.3,3.6-49.2,10.3-4.6,13.1-9.7,8.1-12.6-6.6-3.8-4.6-8.4-4.1-13.4,3.1-30,6.5-59.9,9.3-89.9.8-8.8.1-17.9.1-27.3-10.4,5.9-11.3,5.2-12.5-5.9-.9-8.3-1.1-17.5-5.1-24.3-7.7-13-23.6-20.9-22.1-41.3-9.4,8.2-17.1,14.8-24.8,21.5-.3-1.1-.5-2.2-.8-3.3-4.1-1.9-8.1-4.7-12.4-5.2-1.7-.1-5.1,4.5-5.9,7.5-2.3,8.4-3.9,17-5.4,25.6-3.5,20.2-6.4,40.5-10,60.6-3.3,18.4-7.6,36.7-10.6,55.2-8.4,51.5-23,100.8-50.6,145.7-11.2,18.2-25,33.9-42.4,46-4.2,2.9-14.1,4.1-16.7,1.5a196.18,196.18,0,0,1-26.1-32.7,606.66,606.66,0,0,1-52.1-100.2c-1.1-2.8-.1-6.5-.1-9.7h3c1.8,3.6,3.5,7.1,5.9,11.9,1.6-19.3-3.5-27.6-17-28.5-1.1-6.7-2.3-13.6-3.5-20.5l1.2-.3c2.6,4.5,5.2,9.1,7.8,13.6,1-.5,2.1-.9,3.1-1.4-.4-2.6-.6-5.2-1.2-7.7-5-21.4-10.4-42.8-15.1-64.3-7.5-34.4-12.8-69-12.8-104.4,0-9.4,3.2-12,11.8-12.9,35.8-3.9,71.5-8,107.2-12.9,23.6-3.2,47-7.9,70.5-11.7,15.8-2.6,31.6-4.7,47.4-7.3,12.4-2,24.6-4.6,37-6.4,22.1-3.1,46.6,4.5,65.3-14.5.9-.9,2.6-.9,4-1.1,23.6-3,47.2-5.8,70.7-9,34.5-4.8,69.1-6.6,102.5-19.8,18.8-7.4,25.4-20.8,32.2-36.3C4439.43,1229.22,4436.33,1226,4429.73,1225.32Zm-1175.3,173.6c1.7-15.9,3.3-31.8,6.1-47.5,4-22.9,8.4-45.8,13.8-68.5,3-12.8,7.8-25.2,12.5-37.5,9-23.7,18.4-47.2,28-70.7a39.88,39.88,0,0,1,10.8-14.9c-10.5,33-22.6,65.7-31.2,99.2s-13.8,67.9-20.5,101.9c1.6.6,3.2,1.2,4.7,1.8,1.8-3.3,4.7-6.3,5.2-9.8,1.4-9.9.8-20,2.8-29.7,2.2-10.9,6.7-21.3,9.8-32,1.9-6.7,3.1-13.5,4.7-20.3,3.1-13.3,5.9-26.7,9.4-39.9,3.7-13.7,7.2-27.4,12.3-40.6s11.7-25.9,18.1-38.5c5.4-10.5,11.9-20.4,17.1-31,14.6-29.3,34.9-53.6,62.3-71.8,6-4,11.8-8.3,17.5-12.6,6.3-4.7,13.2-3.5,17.8,1,6,5.9,13.6,13.4,14.3,20.8,1.7,17.9,1.3,36.1-5.9,53.6-7.3,17.8-11.3,36.9-18.8,54.6-8.8,20.5-19.6,40.2-30,60-6.6,12.7-13.3,25.5-21,37.6a352,352,0,0,1-25,34.5c-16.2,19.9-33.1,39.2-49.7,58.8-5.5,6.8-11,13.8-17.4,21.8a128,128,0,0,0-12.4,7c-8.3,5.9-16.2,12.4-24.5,18.4-2.1,1.5-6.2,3.1-7.5,2.2A10.07,10.07,0,0,1,3254.43,1398.92ZM3012,2366.62c.2-7.3,2.8-14.6,3.5-21.9.6-7.1-.8-14.4.3-21.4a227.54,227.54,0,0,1,7.2-30.4q10.35-35.7,21.6-71.1c2.7-8.6,6.5-16.9,9.8-25.4l4.2,1.2c-.4,3.9-.9,7.8-1.6,14.4,3.2-4.2,5.6-6.3,6.6-8.9,2.7-7.4,8.1-15.8,6.6-22.5-2.7-11.6,1.1-19.4,9.6-27.1-1-.9-2-1.7-3-2.6-4.7,1.9-9.4,3.9-14.1,5.8-.9-.4-1.7-.8-2.6-1.2,3.9-8,7.7-16,12.1-25.1,2.9,2.3,4.5,3.6,6.8,5.5,2.4-4.1,4.3-8.2,7-11.8,9.2-12.4,18.8-24.6,27.9-37.1,2.7-3.7,6.2-8.4,6-12.5-1-15.1,11.7-19.9,19.6-28.3,2.5-2.7,6.1-4.4,8.6-7.2,37.2-41.1,82.6-57.8,137.9-49.1,28.7,4.5,52,17.7,71.7,37.8,13.7,14,17.4,32.7,13.2,51.1a243.32,243.32,0,0,1-19.2,54.7c-14.5,28.7-31.3,56.2-52.5,80.9-29,33.8-56.1,69.2-90.7,97.7-9.8,8.1-19.3,16.6-29.3,24.5-26.4,21-52.3,42.8-79.7,62.5-18.9,13.7-40,24.4-60,36.5-7.7,4.7-15.3,9.5-23,14.3a17.3,17.3,0,0,1-4.2-.9c6.2-19.6-8.6-38.6,1.5-59.1C3016.73,2383.92,3011.83,2374.52,3012,2366.62Zm-552.4-40.7c.6-22,1.6-44.1,2.4-66.1.1-1.6.4-3.2,2.9-5.1,1.3,5,2.6,9.9,3.9,14.9h2.5c.6-6,1.8-11.9,1.6-17.9-.3-12.6,3.1-17.8,15-19.6,28.2-4.1,56.3-8,84.6-11.6,24.6-3.2,49.1-6.6,73.8-8.6,19.6-1.6,39.3-1.4,59-1.6,6.4-.1,12.8,1,19.1,1.9.9.2,1.6,2.1,2.8,3.9-2.2,2-3.9,4.3-6.2,5.6-22.7,12.8-45.8,25-68.2,38.2-23.2,13.7-45.5,28.8-68.7,42.4-19.8,11.6-40.2,22-60.4,33.1-13.8,7.5-27.4,15.3-41.3,22.8-5.2,2.8-10.5,5.6-16.1,7.3-1.5.5-6.1-3.1-6.2-5.1C2459.43,2348.92,2459.33,2337.42,2459.63,2325.92Zm-970.9,142.7c1.2-18.3,7.7-33.7,14.8-49.6,3.6-8,6-16.5,9.7-24.4,7.3-15.4,17-29,31-39.4,8.5-6.3,16-13.9,24-20.9,2.9-2.5,5.5-5.5,8.7-7.3,30.5-16.9,62.9-29.4,97.6-32.6,23.1-2.1,46.7-.5,70.1.4,17.2.6,34.5,1.4,51.3,4.4,18.2,3.3,37.6,1.3,54.3,12.5,6,4,14.4,5.6,21.8,6.2,9.6.8,12.8,5.7,13.4,14.1.1,1.4.3,2.8.5,4.2,2.3,17.2-3.6,22.8-20.7,26.1-19.3,3.7-38.1,10.4-57.2,15.2-10.1,2.5-20.8,2.8-30.7,5.7-12.1,3.7-23.7,9.1-35.5,13.9-1.2.5-2.1,1.9-2.8,3.1-7.4,11.8-.7,38.8,9.4,48.6,20.6,20,44.9,15.6,69,12.8,23.5-3,46.9-6.7,73-10.3,0,12.7.3,24.5-.1,36.3-.2,5.1-3.5,6.5-9.1,7.4-38.2,6.2-76.9,9.2-114.1,21.2-26.4,8.5-53.6,14.7-80.4,21.8-31.4,8.3-62.6,17.3-94.1,24.7-28.2,6.6-56.7,11.6-85.1,17.1-9.9,1.9-15-1.2-16.6-12.8C1486.33,2534.22,1486.63,2501.62,1488.73,2468.62Zm-510.4-909.7c.3-17.4,1-34.9,1.1-52.3.1-24.7-.7-49.5-.4-74.2.2-17.4,1.8-34.8,2.2-52.2a396.83,396.83,0,0,0-.8-40.8c-.7-8.2-1.6-12.7,9.8-12.7,23,0,45.9-2.8,68.9-3.2,11.6-.2,23.3,2.2,35,3.1,8.8.7,17.7,1.3,26.5,1.4,34.4.4,68.3,4.8,100.4,17.7,12.4,5,23.6,13.1,34.7,20.8,10.5,7.2,8.8,17.6,6.3,28.6-5.3,23.5-17.5,44-29.3,64.1-9.7,16.6-25.1,29.9-38.5,44.2-7.3,7.8-15,15.5-23.8,21.4-20.5,13.6-41.5,26.5-62.8,38.7-9.4,5.4-21,6.9-30,12.8-20.3,13.3-42.8,15.5-65.9,16.4-10.7.5-21.4,2-33.4,3.2C978.33,1582.42,978.23,1570.62,978.33,1558.92Zm12.4,1084.8c5.9,8.9,9.5,22.9,4.8,31.4-5,9.1-19,13.3-29,19.6-1.1-1.1-2.2-2.2-3.2-3.3C967.93,2673.32,974.13,2656,990.73,2643.72Zm362.3-904.9c-10.4,32.3-23.1,63.4-42.3,91.7-11.3,16.6-20.8,34.4-32.9,50.4-25.9,34.6-54.5,67-87.9,94.4-24.5,20.1-49.9,39.5-76.9,55.9-23.3,14.2-49.3,23.9-74.3,35.1-8,3.6-16.8,7.5-25.3,7.6-12.9.1-28.6-20.8-26.9-33.8,2.6-20.5,4.9-41.1,8.7-61.3,2-10.4,7.4-20.2,10.5-30.5,2.3-7.7,3.2-15.7,4.8-23.6a37.06,37.06,0,0,1-4.6-1.9c-5.3,7-10.7,14-16.5,21.5-9.4-.8-10.7-3.7-9.3-13.2,1.3-8.8,0-18-.2-27,0-1-.4-2.8-.9-2.9-13.4-3.2-7.1-17-13-24.3-1.4-1.7.2-5.8.4-8.8,1.8-25.8,3.9-51.5,5.2-77.3,1.3-27.2,2-54.5,2.6-81.8.2-7.5,1.7-11.8,10.4-12.2,28.1-1.4,56.2-3.8,84.3-5.2,26.5-1.3,53.1-2.8,79.6-2.5,26.2.3,52.3,2.6,78.5,4.3,17,1.1,34.3,1.1,50.9,4.5,22.3,4.6,44.3,11.4,66,18.7C1354.53,1720.12,1356.63,1727.72,1353,1738.82Zm759.8-472.6c-23.7,13-47.2,26.3-71.3,38.4-22.6,11.4-45.7,22-69,31.9-16.8,7.2-34.3,12.9-51.7,18.8-23.1,7.8-46.3,15.3-69.6,22.7q-46.2,14.55-92.7,28.6-32.4,9.75-65.1,18.9c-10.4,2.9-13.7.7-14-10.2-.4-18.2,0-36.4-.4-54.7s-1.8-36.7-1.9-55.1c-.1-15.8.8-16,16.1-18.5,25-4,49.9-9,75-12.3,24.5-3.2,49.2-4.9,73.8-7,23.3-2,46.6-4.1,69.9-5.4,26.8-1.4,53.7-1.8,80.5-2.8a65.3,65.3,0,0,0,12.5-1.1c27.7-5.5,55.5-1.7,83.3-.6,9.6.4,19.3-.8,29-1.2a21.78,21.78,0,0,1,1.8,3.8C2117,1262.42,2115.23,1264.92,2112.83,1266.22Zm405.6-15.3c-12,3.1-23.8,6.9-35.9,9-15.1,2.7-30.5,3.4-45.6,6.3-10.1,2-19.5,7.1-29.5,9.7-25.4,6.5-51,12-76.4,18.6-12.6,3.3-24.2,1.5-35.4-4-2.1-1-4.4-5.6-3.8-7.6,4.4-14.7,2.4-29-1.5-43.4-.3-1.2.1-2.5.1-3.8a15.78,15.78,0,0,0,2.6-.9c4.4,9.4,8.8,18.8,13.1,28.2,1.3-.3,2.5-.6,3.8-.8-.9-5.5-2-10.9-2.5-16.4-.4-4.6-.1-9.2-.1-15.6,36.6,2.5,71.8,5,107,7.2,34.8,2.2,69.7,3.9,104.1,9.7Zm428.3,255.7c-9.6,46.6-20.7,93-45.5,134.5-15.2,25.5-31.2,50.5-47.1,75.5a54.5,54.5,0,0,1-13.9,14.5c-7.2-17.1-.5-32.7,1.1-48.3l-2.8-.6c-1.3,4.8-1.9,9.8-4,14.1-1.3,2.5-4.9,3.9-7.4,5.8-1.2-2.6-3.8-5.5-3.3-7.8,1.6-9.2,4.6-18.3,6.4-27.5,1.7-8.5,2-17.3,3.8-25.7,2.3-10.5,5.3-20.7,8.3-31,6.5-22.5,12.9-45,20-67.3,3.4-10.6,8.4-20.6,12.5-30.9,7.7-19.4,15.2-38.8,22.7-58.2,2.3-6.1,4-12.4,6.4-18.4,1-2.6,3.1-4.8,4.7-7.2a8,8,0,0,0,2.1,1.5c-1.4,7.7-2.8,15.3-4.1,23,1,.3,1.9.6,2.9.9,17.5-15.5,17.2-40.5,30.8-60.1,2.2,3.3,5.2,5.8,5.6,8.7C2950.43,1436.92,2953.93,1472,2946.73,1506.62Zm140.4-8.2c-12.2-1.3-22.1,7.7-21.5,20,1.4,26.7-9,50.6-17.3,75-2.7,7.9-6.3,15.5-9.5,23.3-1.5-.5-3.1-1-4.6-1.5,9.8-46.7,19.6-93.5,30-142.9-2.1,4.2-3.1,6.1-4.7,9.3-1.1-2.8-2.2-4.5-2.2-6.1.1-30.6.9-61.3.3-91.9-.2-7.2-5.2-14.3-7.5-21.6-8.2-25.5-15.6-51.3-24.5-76.6-4.8-13.5-12-26.2-18.1-39.2l3.9-1.8c42.1,64.1,60.3,135.9,67,212v-31.1l2.7-.9c1.2,2.4,2.9,4.6,3.5,7.1,4.5,18.3,8.8,36.7,13.2,55C3100.33,1496.62,3097.83,1499.52,3087.13,1498.42Z"/><rect width="7350" height="7350" fill="none"/></svg>