<?xml version="1.0" encoding="utf-8"?>
<!-- Generator: Adobe Illustrator 21.1.0, SVG Export Plug-In . SVG Version: 6.00 Build 0)  -->
<svg version="1.1" id="Layer_1" xmlns="http://www.w3.org/2000/svg" xmlns:xlink="http://www.w3.org/1999/xlink" x="0px" y="0px"
	 viewBox="0 0 4924.4 2683.6" style="enable-background:new 0 0 4924.4 2683.6;" xml:space="preserve">
<style type="text/css">
	.st0{fill:#231F20;}
	.st1{fill:none;stroke:#231F20;stroke-width:25.3954;stroke-miterlimit:10;}
	.st2{fill:#FFFFFF;}
	.st3{fill:none;stroke:#231F20;stroke-width:25.6358;stroke-miterlimit:10;}
</style>
<g>
	<path class="st0" d="M2985,1551.1c-9-7.9-13.5-14-19.5-16.1c-2.7-0.9-12.1,6.9-11.7,9.7c1.1,6.9,6,13.3,9.4,19.8
		C2969,1560.9,2974.7,1557.4,2985,1551.1 M4210.1,1620.7c-2.2-3-4.4-6-6.6-9.1c-8.2,4.3-17.9,7.2-23.9,13.6c-3.9,4-2.4,13.2-3.4,20
		c5.3-0.7,12.2,0.3,15.6-2.6C4198.8,1636.4,4204,1628.1,4210.1,1620.7 M2322.6,1814.2c40.8-26.8,84.6-76.1,96.8-106.6
		c8.9-22.3-0.2-48.1-24.5-67.5c-23.4,47.9-47.1,95.4-69.6,143.4C2321.7,1791.3,2323.5,1801.6,2322.6,1814.2 M2824.1,1742.6
		c12.5-1,19.6,0.4,24.6-2.3c36.2-19.6,58.2-52.5,74-88.4c8.2-18.7,4.7-40.5-21.2-53.6C2861.4,1637.6,2816.3,1671.8,2824.1,1742.6
		 M4207.5,1544c64-31.5,104-76.4,133.4-131.7c3.7-7,5-15.9,5.1-23.9c0.1-10-0.6-21-17.5-24.8c-53.5,35.2-81.6,93.5-116.1,146.2
		C4207.7,1516.8,4209.6,1528.1,4207.5,1544 M2446.5,1246.8c-17.3,63.2-27.1,126-21.4,190c0.9,10.1,2,21.5,7.3,29.5
		c20.8,31.8,25.5,63.3,9.4,99.2c-8,17.8,1.2,34.3,20.3,49.4c31.5-57.4,40.2-116.3,35.5-175.4
		C2492.4,1373.4,2489.8,1305,2446.5,1246.8 M1593.5,1801.7c0,30.8-1.9,53.9,0.8,76.3c1.3,10.8,9,24.9,18,29.8
		c20.4,11.3,44,13.1,65.6,1.6c99.9-53.2,145.1-158.7,145.6-257.3c0.1-26.8-15-47.2-30.6-66.2c-16.8-20.4-39.4-23.7-61.1-8.5
		c-33.9,23.7-66.7,49-91,83.8C1609.5,1706,1577.9,1750.3,1593.5,1801.7 M2921,1437c48,9,48,9,84,46.3c11.2-29.6,26.1-55.2,32-86.3
		c11.6-60.6,29.7-120,42.7-180.5c12.2-56.6,15.3-114.5,14.4-172.4c-0.5-26.5-5.2-52.7-26.1-73.9c-35.3,14.4-59.4,35.5-78.8,67.8
		c-36,60.2-51.9,126.1-64.7,193C2911.7,1298.2,2905.6,1366,2921,1437 M4687.7,1809.3c-25.3-16.9-51.9-36.3-80-53
		c-20.3-12-43.5-14.3-66-5.2c-29.4,11.9-55.5,29.1-71.3,57.5c-15.1,27.1-30.5,54.4-41.9,83.2c-48.4,121.2-69.1,247.5-60,377.6
		c6.3,90.1,28.8,175.5,86,249c38.8,49.9,98.6,66,154.7,37c50-25.8,76.9-73.8,108.8-116.8c17.3-66.3,36-132.8,31.7-201.9
		c-3.8-61.8-7-123.5-16.5-185.4C4720.9,1971.3,4706.5,1892.1,4687.7,1809.3 M2769.3,1718.7c-200.4,83.9-200.2,49.8-300,14.7
		c-22.5,17.6-35.8,44-54.5,65.8c-20.2,23.5-41,46.5-62.2,69.1c-14.6,15.6-31.5,26.3-54.4,25.8c-24.1-0.5-37-16.2-51.2-35
		c-40-0.4-83.4,1.8-103.8-50c-24.5,17.3-28.4,38.5-35.6,56.4c-9.4,23.6-21.8,44.8-39.5,62.7c-21.8,22.2-44,22-63.3-3
		c-9.6-12.6-16.1-28.7-20.1-44.3c-18.2-70.6-20.7-143.4-29.2-215.4c-4.6-38.9-13.3-77.5-23.3-115.3c-6.4-24.1-22-31.8-47.4-31.2
		c-21,0.5-40.9,4.7-57.6,18.6c103.9,142.2-3.5,416-226.2,432.4c-1.2,13.5-4.6,27.7-3.2,41.4c8.6,82.5,18.5,164.8,27.7,247.2
		c1.8,16.5,3.8,33.1,3.7,49.6c-0.2,18.6-18.5,27.3-36,18.9c-16.3-7.8-26.2-19.9-28.9-37.7c-11-73.7-22.8-147.4-32.4-221.3
		c-4-30.6-2.9-61.8-5-92.7c-2.2-33-6.3-65.9-7.9-99c-0.9-18.5-1-37.8,3-55.7c16-72.7,30.8-145.7,59.5-215.1
		c24.2-58.6,65.6-98.2,128.6-102.5c46.9-3.2,88.4-18.9,131.3-33.3c17.2-5.8,36.4-8.1,54.7-8c43.6,0.3,64.5,15.6,78.5,56.5
		c14.2,41.3,22.1,83.9,26.1,127.6c6.1,68.1,9.6,136.7,30.7,207.4c9.3-4.5,20.4-6.4,24.7-12.7c9.2-13.6,17.6-28.8,21.5-44.6
		c15.7-63.7,41.5-125.6,32.9-193.8c-2-16,0.8-33.4,5.5-49c2.4-8.2,12.7-16.5,21.3-19.7c12.6-4.7,24.2,1.3,31.7,13.1
		c12.9,20.2,15,40.9,11.6,65.2c-5.1,36.7-5.7,74.3-4.9,111.4c0.7,31.5,2.8,31.4,31.6,66.7c43.3-10.9,67.5-44.6,88-80.3
		c32.2-56,52.6-116.7,61.1-181c3.2-24.6,6.4-48.3,17.1-71.9c9-19.9,9.6-44.2,11.2-66.8c5.1-72.3,8.4-144.7,13.4-216.9
		c1.4-20.6,5.7-41.1,9.8-61.5c4-19.8,13.7-28.7,27.5-27.7c14.2,1,22.4,10.1,27.1,22.2c8.4,21.1,17.9,42,23.4,63.8
		c18.7,74.2,45.9,146.4,54.7,223c6.4,56,5.4,111.4-11,166.3c-11.2,37.5-19.2,75.9-28.5,113.2c19.9,24.2,43,34.9,71.3,38.3
		c51.5,6.2,98.1-6.6,143.2-30.6c70.8-37.7,116.9-97.5,153.8-166.3c9.1-17,11.8-33.6,9.3-53.5c-8.1-65.9-10.4-133-1.2-198.3
		c8.7-61.1,31.5-120.1,46.1-180.5c11-45.4,35-83.8,60.4-121.7c16.7-25,40.6-41.6,68-52.4c29.5-11.6,54.9,0.2,63,31.3
		c6.2,23.8,10.2,49.2,9.3,73.7c-3.4,84.9-6.8,170-15.4,254.5c-4.6,45-20.8,88.8-30.2,133.4c-16.4,77.6-51.2,148.4-80.1,220.8
		c36,52.5,84.4,71.4,137.9,52.8c88.2-30.7,142.5-87.7,149.9-185.6c2.9-38.8,15.6-77,26.4-114.8c4.4-15.5,14.5-29.9,24.1-43.3
		c11.7-16.3,38.4-12,44.9,7.8c4.3,13.2,6.7,28.4,4.9,42c-7.7,55.6-18.9,110.6-43,161.9c-13.9,29.6-19.3,58.6-0.9,89.6
		c5.3-3.4,12-5.5,15.1-10c45.2-64.5,90.5-129,110.5-206.9c1-4,2-8.2,3.7-11.9c6.4-13.8,21.5-21.9,35.6-18.9
		c13.4,2.9,23,11.5,24.3,24.9c2.4,24.8,3.5,49.7,3.8,74.5c0.6,43.4,0.2,86.9,0.2,130.3c14.2,6.3,17.4-5.4,22.8-13.2
		c61.2-88.6,122.3-177.2,183.5-265.8c2.3-3.4,4.7-6.8,7.5-9.8c10.6-11,29-5.8,35.7,8.7c7.5,16.4,4,32.2,0.6,48.6
		c-7.1,34.5-15.2,69-18.8,103.9c-3.8,37.1-1.9,74.3,16.2,109c23.7,45.4,60.8,67.1,111.3,64.6c71.3-3.6,139-20.4,202.3-54.9
		c21-11.4,35.8-24.9,46.5-47.1c26.2-54.1,56.8-106.1,83.6-159.9c18.1-36.4,45.4-64.4,75.5-89.5c35.8-29.9,67.2-21.1,89.7,22.2
		c1.9,3.6,2,8.3,4.3,11.6c2.1,3.1,6,5,12.1,9.9c9-5.7,18.9-12.7,29.3-18.5c54-30,105.4-16.1,137.4,37.7
		c27.7,46.4,52.1,94.4,69.3,145.8c33.6,100.3,71.1,199.2,86.7,304.8c13.6,92.3,32.1,183.9,45.6,276.2
		c12.4,84.5,13.5,169.6,0.7,254.3c-10,66.1-27.5,129.2-68.2,184.8c-27,37-63.2,58.4-103.3,76.3c-15.9,7.1-31.6,8.7-48.5,4.7
		c-10.1-2.4-20.4-4.2-30.7-5c-56.9-4.4-95.2-37.7-123.5-83.1c-52-83-75.5-174.1-73.2-272.2c2.9-121.1,23.2-239.2,59.5-354.4
		c18.8-59.7,50-113.8,88.7-162.9c29.4-37.2,70-50.6,116.4-45.2c20.3,2.4,40.2,7.9,60.8,12.1c10.4-12.4-1.2-23.4-4.5-33.4
		c-25.4-78.8-54.7-156.1-94.5-229c-2-3.6-3.4-7.6-5.5-11.1c-46.1-79-96.2-64.4-144.8-13.8c-31.2,32.5-54.5,73-78.5,111.7
		c-26.3,42.2-50.7,85.7-73.6,129.8c-17.6,34-49.7,49-79.8,66.6c-13.7,8-38-0.9-48.9-17.7c-9.9-15.3-16.4-32.8-25.4-51.6
		c-10.2,2.5-21.1,2.8-29.4,7.5c-42.6,23.8-90.1,31.4-136.6,41.5c-51.9,11.3-103.2,11-148.9-22.5c-36.4-26.8-62.3-60.2-67.8-106.6
		c-3.6-30.7-7.3-61.5-11.7-98.9c-9.7,8.3-16.5,12-20.3,17.8c-26.3,39.5-52,79.3-77.7,119.2c-12.3,19-23.6,38.7-36.1,57.6
		c-12.5,18.9-24.3,38.9-39.7,55.3c-8.8,9.3-24.2,12.4-37.9,18.8c-21.4-30.3-25.8-59.1-19-91.2c9.7-46.2,5.8-92.8,5.7-144
		c-31.5,25.2-41.9,57.2-57.5,85.9c-16.8,30.9-34.5,61.4-53.4,91.1c-6.3,9.9-17.6,16.7-26.8,24.9c-36.7-4.6-55.8-26.5-65.7-58
		c-20.4,0.5-28.8,17.4-42.6,25.4c-25,14.4-49,30.8-74.6,44.1c-35.1,18.2-71.2,16.8-108,2.6c-28.6-11-53.2-33.1-89.7-33.6
		c-6.9,7.9-14.9,16.8-22.6,26c-18.6,22.2-37.2,44.4-55.6,66.7c-15.5,18.6-36.9,26.5-59.3,31.8c-32.8,7.8-61.5-16.7-60.5-51.4
		C2764.8,1753.9,2767.1,1739.9,2769.3,1718.7"/>
	<path class="st1" d="M2985,1551.1c-9-7.9-13.5-14-19.5-16.1c-2.7-0.9-12.1,6.9-11.7,9.7c1.1,6.9,6,13.3,9.4,19.8
		C2969,1560.9,2974.7,1557.4,2985,1551.1z M4210.1,1620.7c-2.2-3-4.4-6-6.6-9.1c-8.2,4.3-17.9,7.2-23.9,13.6c-3.9,4-2.4,13.2-3.4,20
		c5.3-0.7,12.2,0.3,15.6-2.6C4198.8,1636.4,4204,1628.1,4210.1,1620.7z M2322.6,1814.2c40.8-26.8,84.6-76.1,96.8-106.6
		c8.9-22.3-0.2-48.1-24.5-67.5c-23.4,47.9-47.1,95.4-69.6,143.4C2321.7,1791.3,2323.5,1801.6,2322.6,1814.2z M2824.1,1742.6
		c12.5-1,19.6,0.4,24.6-2.3c36.2-19.6,58.2-52.5,74-88.4c8.2-18.7,4.7-40.5-21.2-53.6C2861.4,1637.6,2816.3,1671.8,2824.1,1742.6z
		 M4207.5,1544c64-31.5,104-76.4,133.4-131.7c3.7-7,5-15.9,5.1-23.9c0.1-10-0.6-21-17.5-24.8c-53.5,35.2-81.6,93.5-116.1,146.2
		C4207.7,1516.8,4209.6,1528.1,4207.5,1544z M2446.5,1246.8c-17.3,63.2-27.1,126-21.4,190c0.9,10.1,2,21.5,7.3,29.5
		c20.8,31.8,25.5,63.3,9.4,99.2c-8,17.8,1.2,34.3,20.3,49.4c31.5-57.4,40.2-116.3,35.5-175.4
		C2492.4,1373.4,2489.8,1305,2446.5,1246.8z M1593.5,1801.7c0,30.8-1.9,53.9,0.8,76.3c1.3,10.8,9,24.9,18,29.8
		c20.4,11.3,44,13.1,65.6,1.6c99.9-53.2,145.1-158.7,145.6-257.3c0.1-26.8-15-47.2-30.6-66.2c-16.8-20.4-39.4-23.7-61.1-8.5
		c-33.9,23.7-66.7,49-91,83.8C1609.5,1706,1577.9,1750.3,1593.5,1801.7z M2921,1437c48,9,48,9,84,46.3c11.2-29.6,26.1-55.2,32-86.3
		c11.6-60.6,29.7-120,42.7-180.5c12.2-56.6,15.3-114.5,14.4-172.4c-0.5-26.5-5.2-52.7-26.1-73.9c-35.3,14.4-59.4,35.5-78.8,67.8
		c-36,60.2-51.9,126.1-64.7,193C2911.7,1298.2,2905.6,1366,2921,1437z M4687.7,1809.3c-25.3-16.9-51.9-36.3-80-53
		c-20.3-12-43.5-14.3-66-5.2c-29.4,11.9-55.5,29.1-71.3,57.5c-15.1,27.1-30.5,54.4-41.9,83.2c-48.4,121.2-69.1,247.5-60,377.6
		c6.3,90.1,28.8,175.5,86,249c38.8,49.9,98.6,66,154.7,37c50-25.8,76.9-73.8,108.8-116.8c17.3-66.3,36-132.8,31.7-201.9
		c-3.8-61.8-7-123.5-16.5-185.4C4720.9,1971.3,4706.5,1892.1,4687.7,1809.3z M2769.3,1718.7c-200.4,83.9-200.2,49.8-300,14.7
		c-22.5,17.6-35.8,44-54.5,65.8c-20.2,23.5-41,46.5-62.2,69.1c-14.6,15.6-31.5,26.3-54.4,25.8c-24.1-0.5-37-16.2-51.2-35
		c-40-0.4-83.4,1.8-103.8-50c-24.5,17.3-28.4,38.5-35.6,56.4c-9.4,23.6-21.8,44.8-39.5,62.7c-21.8,22.2-44,22-63.3-3
		c-9.6-12.6-16.1-28.7-20.1-44.3c-18.2-70.6-20.7-143.4-29.2-215.4c-4.6-38.9-13.3-77.5-23.3-115.3c-6.4-24.1-22-31.8-47.4-31.2
		c-21,0.5-40.9,4.7-57.6,18.6c103.9,142.2-3.5,416-226.2,432.4c-1.2,13.5-4.6,27.7-3.2,41.4c8.6,82.5,18.5,164.8,27.7,247.2
		c1.8,16.5,3.8,33.1,3.7,49.6c-0.2,18.6-18.5,27.3-36,18.9c-16.3-7.8-26.2-19.9-28.9-37.7c-11-73.7-22.8-147.4-32.4-221.3
		c-4-30.6-2.9-61.8-5-92.7c-2.2-33-6.3-65.9-7.9-99c-0.9-18.5-1-37.8,3-55.7c16-72.7,30.8-145.7,59.5-215.1
		c24.2-58.6,65.6-98.2,128.6-102.5c46.9-3.2,88.4-18.9,131.3-33.3c17.2-5.8,36.4-8.1,54.7-8c43.6,0.3,64.5,15.6,78.5,56.5
		c14.2,41.3,22.1,83.9,26.1,127.6c6.1,68.1,9.6,136.7,30.7,207.4c9.3-4.5,20.4-6.4,24.7-12.7c9.2-13.6,17.6-28.8,21.5-44.6
		c15.7-63.7,41.5-125.6,32.9-193.8c-2-16,0.8-33.4,5.5-49c2.4-8.2,12.7-16.5,21.3-19.7c12.6-4.7,24.2,1.3,31.7,13.1
		c12.9,20.2,15,40.9,11.6,65.2c-5.1,36.7-5.7,74.3-4.9,111.4c0.7,31.5,2.8,31.4,31.6,66.7c43.3-10.9,67.5-44.6,88-80.3
		c32.2-56,52.6-116.7,61.1-181c3.2-24.6,6.4-48.3,17.1-71.9c9-19.9,9.6-44.2,11.2-66.8c5.1-72.3,8.4-144.7,13.4-216.9
		c1.4-20.6,5.7-41.1,9.8-61.5c4-19.8,13.7-28.7,27.5-27.7c14.2,1,22.4,10.1,27.1,22.2c8.4,21.1,17.9,42,23.4,63.8
		c18.7,74.2,45.9,146.4,54.7,223c6.4,56,5.4,111.4-11,166.3c-11.2,37.5-19.2,75.9-28.5,113.2c19.9,24.2,43,34.9,71.3,38.3
		c51.5,6.2,98.1-6.6,143.2-30.6c70.8-37.7,116.9-97.5,153.8-166.3c9.1-17,11.8-33.6,9.3-53.5c-8.1-65.9-10.4-133-1.2-198.3
		c8.7-61.1,31.5-120.1,46.1-180.5c11-45.4,35-83.8,60.4-121.7c16.7-25,40.6-41.6,68-52.4c29.5-11.6,54.9,0.2,63,31.3
		c6.2,23.8,10.2,49.2,9.3,73.7c-3.4,84.9-6.8,170-15.4,254.5c-4.6,45-20.8,88.8-30.2,133.4c-16.4,77.6-51.2,148.4-80.1,220.8
		c36,52.5,84.4,71.4,137.9,52.8c88.2-30.7,142.5-87.7,149.9-185.6c2.9-38.8,15.6-77,26.4-114.8c4.4-15.5,14.5-29.9,24.1-43.3
		c11.7-16.3,38.4-12,44.9,7.8c4.3,13.2,6.7,28.4,4.9,42c-7.7,55.6-18.9,110.6-43,161.9c-13.9,29.6-19.3,58.6-0.9,89.6
		c5.3-3.4,12-5.5,15.1-10c45.2-64.5,90.5-129,110.5-206.9c1-4,2-8.2,3.7-11.9c6.4-13.8,21.5-21.9,35.6-18.9
		c13.4,2.9,23,11.5,24.3,24.9c2.4,24.8,3.5,49.7,3.8,74.5c0.6,43.4,0.2,86.9,0.2,130.3c14.2,6.3,17.4-5.4,22.8-13.2
		c61.2-88.6,122.3-177.2,183.5-265.8c2.3-3.4,4.7-6.8,7.5-9.8c10.6-11,29-5.8,35.7,8.7c7.5,16.4,4,32.2,0.6,48.6
		c-7.1,34.5-15.2,69-18.8,103.9c-3.8,37.1-1.9,74.3,16.2,109c23.7,45.4,60.8,67.1,111.3,64.6c71.3-3.6,139-20.4,202.3-54.9
		c21-11.4,35.8-24.9,46.5-47.1c26.2-54.1,56.8-106.1,83.6-159.9c18.1-36.4,45.4-64.4,75.5-89.5c35.8-29.9,67.2-21.1,89.7,22.2
		c1.9,3.6,2,8.3,4.3,11.6c2.1,3.1,6,5,12.1,9.9c9-5.7,18.9-12.7,29.3-18.5c54-30,105.4-16.1,137.4,37.7
		c27.7,46.4,52.1,94.4,69.3,145.8c33.6,100.3,71.1,199.2,86.7,304.8c13.6,92.3,32.1,183.9,45.6,276.2
		c12.4,84.5,13.5,169.6,0.7,254.3c-10,66.1-27.5,129.2-68.2,184.8c-27,37-63.2,58.4-103.3,76.3c-15.9,7.1-31.6,8.7-48.5,4.7
		c-10.1-2.4-20.4-4.2-30.7-5c-56.9-4.4-95.2-37.7-123.5-83.1c-52-83-75.5-174.1-73.2-272.2c2.9-121.1,23.2-239.2,59.5-354.4
		c18.8-59.7,50-113.8,88.7-162.9c29.4-37.2,70-50.6,116.4-45.2c20.3,2.4,40.2,7.9,60.8,12.1c10.4-12.4-1.2-23.4-4.5-33.4
		c-25.4-78.8-54.7-156.1-94.5-229c-2-3.6-3.4-7.6-5.5-11.1c-46.1-79-96.2-64.4-144.8-13.8c-31.2,32.5-54.5,73-78.5,111.7
		c-26.3,42.2-50.7,85.7-73.6,129.8c-17.6,34-49.7,49-79.8,66.6c-13.7,8-38-0.9-48.9-17.7c-9.9-15.3-16.4-32.8-25.4-51.6
		c-10.2,2.5-21.1,2.8-29.4,7.5c-42.6,23.8-90.1,31.4-136.6,41.5c-51.9,11.3-103.2,11-148.9-22.5c-36.4-26.8-62.3-60.2-67.8-106.6
		c-3.6-30.7-7.3-61.5-11.7-98.9c-9.7,8.3-16.5,12-20.3,17.8c-26.3,39.5-52,79.3-77.7,119.2c-12.3,19-23.6,38.7-36.1,57.6
		c-12.5,18.9-24.3,38.9-39.7,55.3c-8.8,9.3-24.2,12.4-37.9,18.8c-21.4-30.3-25.8-59.1-19-91.2c9.7-46.2,5.8-92.8,5.7-144
		c-31.5,25.2-41.9,57.2-57.5,85.9c-16.8,30.9-34.5,61.4-53.4,91.1c-6.3,9.9-17.6,16.7-26.8,24.9c-36.7-4.6-55.8-26.5-65.7-58
		c-20.4,0.5-28.8,17.4-42.6,25.4c-25,14.4-49,30.8-74.6,44.1c-35.1,18.2-71.2,16.8-108,2.6c-28.6-11-53.2-33.1-89.7-33.6
		c-6.9,7.9-14.9,16.8-22.6,26c-18.6,22.2-37.2,44.4-55.6,66.7c-15.5,18.6-36.9,26.5-59.3,31.8c-32.8,7.8-61.5-16.7-60.5-51.4
		C2764.8,1753.9,2767.1,1739.9,2769.3,1718.7z"/>
</g>
<path class="st2" d="M1593.5,1801.7c-15.5-51.5,16-95.7,47.2-140.5c24.2-34.7,57-60,90.9-83.7c21.7-15.2,44.3-11.9,61.1,8.5
	c15.7,19,30.8,39.4,30.6,66.2c-0.5,98.6-45.7,204.1-145.5,257.3c-21.6,11.5-45.2,9.7-65.6-1.5c-9-5-16.7-19-18-29.8
	C1591.6,1855.6,1593.5,1832.5,1593.5,1801.7"/>
<path class="st1" d="M1593.5,1801.7c-15.5-51.5,16-95.7,47.2-140.5c24.2-34.7,57-60,90.9-83.7c21.7-15.2,44.3-11.9,61.1,8.5
	c15.7,19,30.8,39.4,30.6,66.2c-0.5,98.6-45.7,204.1-145.5,257.3c-21.6,11.5-45.2,9.7-65.6-1.5c-9-5-16.7-19-18-29.8
	C1591.6,1855.6,1593.5,1832.5,1593.5,1801.7z"/>
<path class="st2" d="M2446.5,1246.8c43.2,58.2,45.9,126.6,51,192.8c4.6,59.1-4,117.9-35.5,175.4c-19.1-15.1-28.3-31.6-20.3-49.4
	c16.1-35.9,11.5-67.4-9.3-99.2c-5.3-8-6.4-19.5-7.3-29.5C2419.4,1372.8,2429.2,1310.1,2446.5,1246.8"/>
<path class="st1" d="M2446.5,1246.8c43.2,58.2,45.9,126.6,51,192.8c4.6,59.1-4,117.9-35.5,175.4c-19.1-15.1-28.3-31.6-20.3-49.4
	c16.1-35.9,11.5-67.4-9.3-99.2c-5.3-8-6.4-19.5-7.3-29.5C2419.4,1372.8,2429.2,1310.1,2446.5,1246.8z"/>
<path class="st2" d="M2322.6,1814.2c1-12.6-0.9-22.9,2.7-30.7c22.4-48,46.1-95.5,69.5-143.4c24.4,19.4,33.5,45.2,24.6,67.5
	C2407.2,1738.1,2363.3,1787.4,2322.6,1814.2"/>
<path class="st1" d="M2322.6,1814.2c1-12.6-0.9-22.9,2.7-30.7c22.4-48,46.1-95.5,69.5-143.4c24.4,19.4,33.5,45.2,24.6,67.5
	C2407.2,1738.1,2363.3,1787.4,2322.6,1814.2z"/>
<g>
	<path class="st0" d="M1367.4,691.7c-82,3.5-117.5,24.2-150.7,83.4C1273.2,761.3,1318.2,736.6,1367.4,691.7 M315.9,881.8
		c42.2-34,82.5-66.1,122.4-98.7c8-6.5,15.6-14.1,21.7-22.4c2.9-4,2.1-10.8,3.3-18.8c-16.4,0-32-3.6-44.7,0.9
		c-17.4,6.1-32.7,18.1-48.7,27.9c-23.1,14.2-28.4,40.8-41.8,61.7C319.6,845.3,307.9,859.4,315.9,881.8 M1718.6,829.3
		c-50.5,19.5-80.1,49.7-113.5,73.3c-18,12.8-29.9,33.9-18.4,59.1c39.1-7.2,43.5-9.1,67.6-30.1
		C1682.8,906.8,1704.3,877.4,1718.6,829.3 M2418.2,727.8c-47.7,13.4-79.1,48.3-111.7,79.3c-11.9,11.3-14.6,33.8-18.4,51.9
		c-2.9,13.7,11.7,29.7,26.1,29.8c58.3,0.2,112-11.1,148.5-66.2C2450.2,790,2445.9,754.1,2418.2,727.8 M238.5,1185.5
		c6.7,1.1,11.2,3.3,14.8,2.3c70.8-20.1,137.4-48.3,192.9-98.5c55.3-50,96.7-109.4,115.7-181.9c11.9-45.1,14.5-90.5-29.9-125.9
		c-32.9,9.8-64.9,23.1-88.7,44.8c-66.3,60.2-130.3,123.3-179.7,199c-5.6,8.6-12.4,17.8-14.2,27.5c-6.6,36.7-11.9,73.7-16.5,110.7
		C232,1170.8,236.7,1178.8,238.5,1185.5 M2510.7,784.4c34.7-45.7,69.7-84.9,97-128.8c54.8-88.2,85.6-185.8,99.7-288.6
		c8.4-61.4,2.3-121-22.8-178.2c-9.1-20.7-21-28-43.8-26.5c-28.8,1.9-52.8,16-73.2,33.5c-59.9,51.2-89.3,120.3-104.2,195.7
		c-6.5,32.7-7.8,66.5-11,99.9c-1.9,20.5-6.4,41.3,2.6,60.8c4.8,1.7,8.6,3.2,12.5,4.5c42.3,13.5,53.8,37.2,35,74.2
		c-5.6,11.1-12.2,22-19.9,31.7c-11.6,14.6-14,30.4-8.5,47.3C2481.7,733.4,2484.3,759.4,2510.7,784.4 M2843.1,884
		c1.5,7.4,4.3,12.9,2.7,14.8c-28.4,35.1-64.3,60.3-108.2,70.2c-56.1,12.7-108.3-1.6-155-33.7c-29.1-20-56.1-43.3-87.3-67.6
		c-12.7,10.3-25.1,20.5-37.8,30.3c-43.8,33.9-90.4,59.7-148.7,56.5c-39.1-2.2-63.7-17.8-74.7-54.1c-4.2-13.8-5-28.6-8-47.3
		c-11.8,2.9-23.5,4.2-33.8,8.6c-55.8,23.8-110.1,51.4-167.1,71.8c-49.7,17.8-101.4,20.3-153.1-0.1c-28.6-11.3-52.3-24.7-66.2-53.3
		c-5.2-10.7-15.2-19-25.7-31.6c-20.8,30.4-38,58.4-58.2,84.2c-21.9,27.9-46.2,54.1-70.4,80.1c-6.8,7.3-16.5,13.1-25.9,16.6
		c-41.9,15.5-71.1,7.2-100.3-27.8c-6.5-7.9-11.2-17.3-16-24.9c-20.6-6.4-33.2,6.5-47.6,14.3c-42.2,23-83.7,47.4-126.8,68.5
		c-46.3,22.6-96.1,27.7-147.2,22.3c-74.9-8-123.5-71.3-110.6-145.4c3.9-22.4,15-44,4.6-70.9c-9.7-2.6-21.2-7.4-33.1-8.4
		c-55.2-4.9-106.5-21.1-153.8-50c-5.4-3.3-11.1-5.9-16.8-8.5c-49.9-22.8-63.7-19.3-75.1,41.3c-3.4,18.2-3.3,37.9-0.4,56.2
		c12.3,76.2-5.9,149.9-16.3,224.2c-1.2,8.3-11.5,18.2-19.9,21.8c-14,6.1-29.2,3-40.3-8.9c-12.2-12.9-16.2-28.3-13.8-46.3
		c8.6-64.2,16.6-128.5,24.7-192.8c4.6-36.6-2-70.1-22.3-101.9c-29.5-46.2-51.1-53.4-112.8-30.6c2.5,11.6,2.9,24.5,7.9,35.3
		c24,52.1,13.9,103.1-6.1,152.6c-18,44.8-41.6,86.8-77.1,121.1c-22.6,21.8-43,45.9-65.8,67.4c-22.9,21.6-47.7,39.2-80,47.4
		c-27.9,7-53.9,21.9-80.7,33.4c-24.7,10.6-49.3,21.3-86.2,37.3c-11.2,9-7.7,37.2-17.7,59.7c-13,29-37.4,35.9-58.9,13.7
		c-6.3-6.5-9.6-18.2-9.9-27.7c-0.3-10,3.4-20.8,7.4-30.3c13.3-31.9,15.5-64.7,12.4-98.7c-8.8-98.5,5-196.6,6.6-294.9
		c22.6-68.1-0.3-137,3.7-205.5c1-16.7-1.5-33.8,1.5-50c11.2-60.8,5.5-120.7-4.5-180.9c-2.3-14.1-2.4-29.2-0.3-43.3
		c2.7-17.9,23-25.2,39.5-16.6c21.9,11.5,30.4,33,24.8,53.1C194.3,522.8,201,613.4,197.1,703c-4.1,92.1-3.2,184.3-4,276.5
		c-0.1,10.1,3.1,20.3,4.6,29.4c13,3.4,17.6-2.9,20.3-11.4c5-15.9,11.5-31.7,14.1-48.1c10.1-63.4,41.7-118.6,70.8-173.6
		c24.8-47,67.7-79.2,120.3-94.3c31.9-9.1,63.6-1.9,91.2,13.3c28.1,15.5,53.7,16.8,83.8,7.1c36.3-11.7,75-15.6,109.5,5.7
		c20.7,12.8,37.7,31.4,56.9,47.8c1.2-0.1,4.1,0.6,5-0.4c36.8-44.8,79-35.8,123.3-13.5c31.7,15.9,65.1,28.7,96.1,45.7
		c25.4,13.9,52.2,12.9,79.2,15.4c36.5,3.4,61.7-7.3,84.6-39.3c26.5-37,62.3-67.3,105.3-87.4c24.6-11.5,47-27.5,71.3-39.7
		c37.7-19,73.2-11.7,95.7,17.9c14.7,19.5,15.1,38.1-0.2,57.3c-6.5,8-14.4,15.2-22.7,21.4c-62.4,46.8-128.5,86.6-204.4,107.5
		c-25.5,7.1-44.5,19.7-56.7,44.9c-42.2,87.3,15.3,149.6,91,144.2c31-2.2,63.7-5.6,91.8-17.5c71.2-30.2,140.9-64.5,201.7-113.7
		c11.2-9,20.7-20.5,29.5-32c23-29.9,46.5-59.5,67.2-90.9c30.9-46.9,73.6-79.8,120.7-107.7c21.8-12.9,41.7-24.8,51.2-51.7
		c8.2-23.2,36.8-22.6,48.3-1.1c15.5,28.7,22.9,56.9,4.3,88.9c-27,46.5-13.2,94.4,7.3,138.2c12.7,27.3,41.6,40,71.6,46.1
		c44.6,9.1,88.9,4.1,129.6-13.2c65.4-27.8,129.1-59.8,192.9-91.2c10.5-5.2,19.7-15.6,26.1-25.8c37.8-60.3,77.8-118.9,130.7-164.1
		c1.5-54.2,2-104.4,4.5-154.6c4.1-83.4,29.6-159.8,76.5-229.2c19.9-29.4,37.4-60,66.6-82.4c34.4-26.4,72.9-32.1,113-24.7
		c14.8,2.7,30.1,15.1,40.2,27.1c17.5,20.7,29.3,45,36,72.3c12.9,51.8,13.3,103.6,8,156.1c-9.5,92.6-38.4,180.3-72,266.2
		c-11.2,28.7-29.7,55.3-48.4,80.3c-24.8,33.2-42.3,71.9-77.5,98c-20,14.8-19.2,38.6,0.1,54.5c76.1,62.6,152.8,93.5,241.2,43.7
		c10.9-6.1,22.2-11.5,33.7-16.5C2830.1,882.8,2834.8,884,2843.1,884"/>
	<path class="st3" d="M1367.4,691.7c-82,3.5-117.5,24.2-150.7,83.4C1273.2,761.3,1318.2,736.6,1367.4,691.7z M315.9,881.8
		c42.2-34,82.5-66.1,122.4-98.7c8-6.5,15.6-14.1,21.7-22.4c2.9-4,2.1-10.8,3.3-18.8c-16.4,0-32-3.6-44.7,0.9
		c-17.4,6.1-32.7,18.1-48.7,27.9c-23.1,14.2-28.4,40.8-41.8,61.7C319.6,845.3,307.9,859.4,315.9,881.8z M1718.6,829.3
		c-50.5,19.5-80.1,49.7-113.5,73.3c-18,12.8-29.9,33.9-18.4,59.1c39.1-7.2,43.5-9.1,67.6-30.1
		C1682.8,906.8,1704.3,877.4,1718.6,829.3z M2418.2,727.8c-47.7,13.4-79.1,48.3-111.7,79.3c-11.9,11.3-14.6,33.8-18.4,51.9
		c-2.9,13.7,11.7,29.7,26.1,29.8c58.3,0.2,112-11.1,148.5-66.2C2450.2,790,2445.9,754.1,2418.2,727.8z M238.5,1185.5
		c6.7,1.1,11.2,3.3,14.8,2.3c70.8-20.1,137.4-48.3,192.9-98.5c55.3-50,96.7-109.4,115.7-181.9c11.9-45.1,14.5-90.5-29.9-125.9
		c-32.9,9.8-64.9,23.1-88.7,44.8c-66.3,60.2-130.3,123.3-179.7,199c-5.6,8.6-12.4,17.8-14.2,27.5c-6.6,36.7-11.9,73.7-16.5,110.7
		C232,1170.8,236.7,1178.8,238.5,1185.5z M2510.7,784.4c34.7-45.7,69.7-84.9,97-128.8c54.8-88.2,85.6-185.8,99.7-288.6
		c8.4-61.4,2.3-121-22.8-178.2c-9.1-20.7-21-28-43.8-26.5c-28.8,1.9-52.8,16-73.2,33.5c-59.9,51.2-89.3,120.3-104.2,195.7
		c-6.5,32.7-7.8,66.5-11,99.9c-1.9,20.5-6.4,41.3,2.6,60.8c4.8,1.7,8.6,3.2,12.5,4.5c42.3,13.5,53.8,37.2,35,74.2
		c-5.6,11.1-12.2,22-19.9,31.7c-11.6,14.6-14,30.4-8.5,47.3C2481.7,733.4,2484.3,759.4,2510.7,784.4z M2843.1,884
		c1.5,7.4,4.3,12.9,2.7,14.8c-28.4,35.1-64.3,60.3-108.2,70.2c-56.1,12.7-108.3-1.6-155-33.7c-29.1-20-56.1-43.3-87.3-67.6
		c-12.7,10.3-25.1,20.5-37.8,30.3c-43.8,33.9-90.4,59.7-148.7,56.5c-39.1-2.2-63.7-17.8-74.7-54.1c-4.2-13.8-5-28.6-8-47.3
		c-11.8,2.9-23.5,4.2-33.8,8.6c-55.8,23.8-110.1,51.4-167.1,71.8c-49.7,17.8-101.4,20.3-153.1-0.1c-28.6-11.3-52.3-24.7-66.2-53.3
		c-5.2-10.7-15.2-19-25.7-31.6c-20.8,30.4-38,58.4-58.2,84.2c-21.9,27.9-46.2,54.1-70.4,80.1c-6.8,7.3-16.5,13.1-25.9,16.6
		c-41.9,15.5-71.1,7.2-100.3-27.8c-6.5-7.9-11.2-17.3-16-24.9c-20.6-6.4-33.2,6.5-47.6,14.3c-42.2,23-83.7,47.4-126.8,68.5
		c-46.3,22.6-96.1,27.7-147.2,22.3c-74.9-8-123.5-71.3-110.6-145.4c3.9-22.4,15-44,4.6-70.9c-9.7-2.6-21.2-7.4-33.1-8.4
		c-55.2-4.9-106.5-21.1-153.8-50c-5.4-3.3-11.1-5.9-16.8-8.5c-49.9-22.8-63.7-19.3-75.1,41.3c-3.4,18.2-3.3,37.9-0.4,56.2
		c12.3,76.2-5.9,149.9-16.3,224.2c-1.2,8.3-11.5,18.2-19.9,21.8c-14,6.1-29.2,3-40.3-8.9c-12.2-12.9-16.2-28.3-13.8-46.3
		c8.6-64.2,16.6-128.5,24.7-192.8c4.6-36.6-2-70.1-22.3-101.9c-29.5-46.2-51.1-53.4-112.8-30.6c2.5,11.6,2.9,24.5,7.9,35.3
		c24,52.1,13.9,103.1-6.1,152.6c-18,44.8-41.6,86.8-77.1,121.1c-22.6,21.8-43,45.9-65.8,67.4c-22.9,21.6-47.7,39.2-80,47.4
		c-27.9,7-53.9,21.9-80.7,33.4c-24.7,10.6-49.3,21.3-86.2,37.3c-11.2,9-7.7,37.2-17.7,59.7c-13,29-37.4,35.9-58.9,13.7
		c-6.3-6.5-9.6-18.2-9.9-27.7c-0.3-10,3.4-20.8,7.4-30.3c13.3-31.9,15.5-64.7,12.4-98.7c-8.8-98.5,5-196.6,6.6-294.9
		c22.6-68.1-0.3-137,3.7-205.5c1-16.7-1.5-33.8,1.5-50c11.2-60.8,5.5-120.7-4.5-180.9c-2.3-14.1-2.4-29.2-0.3-43.3
		c2.7-17.9,23-25.2,39.5-16.6c21.9,11.5,30.4,33,24.8,53.1C194.3,522.8,201,613.4,197.1,703c-4.1,92.1-3.2,184.3-4,276.5
		c-0.1,10.1,3.1,20.3,4.6,29.4c13,3.4,17.6-2.9,20.3-11.4c5-15.9,11.5-31.7,14.1-48.1c10.1-63.4,41.7-118.6,70.8-173.6
		c24.8-47,67.7-79.2,120.3-94.3c31.9-9.1,63.6-1.9,91.2,13.3c28.1,15.5,53.7,16.8,83.8,7.1c36.3-11.7,75-15.6,109.5,5.7
		c20.7,12.8,37.7,31.4,56.9,47.8c1.2-0.1,4.1,0.6,5-0.4c36.8-44.8,79-35.8,123.3-13.5c31.7,15.9,65.1,28.7,96.1,45.7
		c25.4,13.9,52.2,12.9,79.2,15.4c36.5,3.4,61.7-7.3,84.6-39.3c26.5-37,62.3-67.3,105.3-87.4c24.6-11.5,47-27.5,71.3-39.7
		c37.7-19,73.2-11.7,95.7,17.9c14.7,19.5,15.1,38.1-0.2,57.3c-6.5,8-14.4,15.2-22.7,21.4c-62.4,46.8-128.5,86.6-204.4,107.5
		c-25.5,7.1-44.5,19.7-56.7,44.9c-42.2,87.3,15.3,149.6,91,144.2c31-2.2,63.7-5.6,91.8-17.5c71.2-30.2,140.9-64.5,201.7-113.7
		c11.2-9,20.7-20.5,29.5-32c23-29.9,46.5-59.5,67.2-90.9c30.9-46.9,73.6-79.8,120.7-107.7c21.8-12.9,41.7-24.8,51.2-51.7
		c8.2-23.2,36.8-22.6,48.3-1.1c15.5,28.7,22.9,56.9,4.3,88.9c-27,46.5-13.2,94.4,7.3,138.2c12.7,27.3,41.6,40,71.6,46.1
		c44.6,9.1,88.9,4.1,129.6-13.2c65.4-27.8,129.1-59.8,192.9-91.2c10.5-5.2,19.7-15.6,26.1-25.8c37.8-60.3,77.8-118.9,130.7-164.1
		c1.5-54.2,2-104.4,4.5-154.6c4.1-83.4,29.6-159.8,76.5-229.2c19.9-29.4,37.4-60,66.6-82.4c34.4-26.4,72.9-32.1,113-24.7
		c14.8,2.7,30.1,15.1,40.2,27.1c17.5,20.7,29.3,45,36,72.3c12.9,51.8,13.3,103.6,8,156.1c-9.5,92.6-38.4,180.3-72,266.2
		c-11.2,28.7-29.7,55.3-48.4,80.3c-24.8,33.2-42.3,71.9-77.5,98c-20,14.8-19.2,38.6,0.1,54.5c76.1,62.6,152.8,93.5,241.2,43.7
		c10.9-6.1,22.2-11.5,33.7-16.5C2830.1,882.8,2834.8,884,2843.1,884z"/>
	<path class="st2" d="M2510.7,784.4c-26.4-25-29-51-36.7-74.6c-5.5-16.9-3.1-32.7,8.5-47.3c7.7-9.7,14.3-20.6,19.9-31.7
		c18.8-36.9,7.3-60.7-35-74.2c-3.9-1.3-7.7-2.7-12.5-4.5c-9-19.5-4.5-40.3-2.6-60.8c3.2-33.4,4.5-67.1,11-99.9
		c14.9-75.4,44.3-144.4,104.2-195.7c20.5-17.5,44.5-31.6,73.2-33.5c22.8-1.6,34.8,5.8,43.8,26.5c25.1,57.2,31.2,116.8,22.8,178.2
		c-14.1,102.8-44.9,200.4-99.7,288.6C2580.4,699.6,2545.5,738.8,2510.7,784.4"/>
	<path class="st3" d="M2510.7,784.4c-26.4-25-29-51-36.7-74.6c-5.5-16.9-3.1-32.7,8.5-47.3c7.7-9.7,14.3-20.6,19.9-31.7
		c18.8-36.9,7.3-60.7-35-74.2c-3.9-1.3-7.7-2.7-12.5-4.5c-9-19.5-4.5-40.3-2.6-60.8c3.2-33.4,4.5-67.1,11-99.9
		c14.9-75.4,44.3-144.4,104.2-195.7c20.5-17.5,44.5-31.6,73.2-33.5c22.8-1.6,34.8,5.8,43.8,26.5c25.1,57.2,31.2,116.8,22.8,178.2
		c-14.1,102.8-44.9,200.4-99.7,288.6C2580.4,699.6,2545.5,738.8,2510.7,784.4z"/>
	<path class="st2" d="M238.5,1185.5c-1.8-6.7-6.5-14.7-5.6-22c4.6-37,9.8-74,16.5-110.7c1.8-9.7,8.5-18.9,14.2-27.5
		c49.4-75.7,113.3-138.8,179.7-199c23.8-21.7,55.8-35,88.7-44.8c44.4,35.3,41.8,80.7,29.9,125.9c-19,72.5-60.4,131.9-115.8,181.9
		c-55.4,50.1-122.1,78.4-192.9,98.5C249.6,1188.8,245.2,1186.7,238.5,1185.5"/>
	<path class="st3" d="M238.5,1185.5c-1.8-6.7-6.5-14.7-5.6-22c4.6-37,9.8-74,16.5-110.7c1.8-9.7,8.5-18.9,14.2-27.5
		c49.4-75.7,113.3-138.8,179.7-199c23.8-21.7,55.8-35,88.7-44.8c44.4,35.3,41.8,80.7,29.9,125.9c-19,72.5-60.4,131.9-115.8,181.9
		c-55.4,50.1-122.1,78.4-192.9,98.5C249.6,1188.8,245.2,1186.7,238.5,1185.5z"/>
	<path class="st2" d="M2418.2,727.8c27.7,26.4,32,62.2,44.5,94.8c-36.5,55.1-90.1,66.4-148.5,66.2c-14.4-0.1-29-16-26.1-29.8
		c3.8-18,6.5-40.5,18.4-51.9C2339.1,776,2370.4,741.1,2418.2,727.8"/>
	<path class="st3" d="M2418.2,727.8c27.7,26.4,32,62.2,44.5,94.8c-36.5,55.1-90.1,66.4-148.5,66.2c-14.4-0.1-29-16-26.1-29.8
		c3.8-18,6.5-40.5,18.4-51.9C2339.1,776,2370.4,741.1,2418.2,727.8z"/>
	<path class="st2" d="M1718.7,829.3c-14.3,48.2-35.8,77.5-64.3,102.4c-24.1,21-28.5,22.9-67.6,30.1c-11.6-25.2,0.3-46.3,18.4-59.1
		C1638.5,878.9,1668.1,848.8,1718.7,829.3"/>
	<path class="st3" d="M1718.7,829.3c-14.3,48.2-35.8,77.5-64.3,102.4c-24.1,21-28.5,22.9-67.6,30.1c-11.6-25.2,0.3-46.3,18.4-59.1
		C1638.5,878.9,1668.1,848.8,1718.7,829.3z"/>
	<path class="st2" d="M1367.4,691.7c-49.1,44.9-94.1,69.7-150.7,83.4C1249.8,715.9,1285.3,695.2,1367.4,691.7"/>
	<path class="st3" d="M1367.4,691.7c-49.1,44.9-94.1,69.7-150.7,83.4C1249.8,715.9,1285.3,695.2,1367.4,691.7z"/>
</g>
</svg>
