<svg xmlns="http://www.w3.org/2000/svg" viewBox="0 0 4000 3733.1"><rect width="4000" height="3733.1" fill="#f6921e"/><path d="M2145.2,3171.7l.8-.2-.5-.8Zm29.6-261.5.2-1.1-1,.4Zm-906.3,79.9-.2,1.1,1-.3Zm574.2-7-1.8-1.5c-.3.4-.8,1-.7,1.1.5.6,1.2,1,1.8,1.6a7.46,7.46,0,0,0,.7-1.2m627.6-2.9c.4-.1,1.1-.1,1.1-.2a19.42,19.42,0,0,0-.2-2.4c-.4.1-1.1.1-1.1.2a19.42,19.42,0,0,0,.2,2.4m-680.6,105.5c0-.5-.1-.9-.1-1.4a9.68,9.68,0,0,0-2.4.8,4.5,4.5,0,0,0,.2,1.4,15.55,15.55,0,0,1,2.3-.8m-162.9-113.8a12.56,12.56,0,0,0-1.3,2.3c-.1.3.7,1.1.8,1.1a1.73,1.73,0,1,0,.5-3.4m565.3-60.3c-.6.6-1.3,1.2-1.9,1.8.4.3,1,.9,1.1.8a16.18,16.18,0,0,0,1.9-1.8c-.3-.2-.7-.5-1.1-.8m-194.3,82.9c.2,0,.3-.1.5-.1v-8.3a7.57,7.57,0,0,0-1.5.1c.4,2.7.7,5.5,1,8.3m-722.3-35.3c1.4-1.3,3-2.1,3.3-3.2a3.63,3.63,0,0,0-2.1-3.1c-2-.5-4.3.1-4.1,2.8.1,1.1,1.7,2.1,2.9,3.5m1015-2.5c2.7-1.2,4.8-2.9,5.2-6.1.1-.4-.1-1.2-.4-1.3-.8-.3-2.1-.7-2.5-.3-2.2,1.7-4.9,3.5-2.3,7.7m164.8,24.4c3.6-7.7,3.8-10.6.6-11.7a2.2,2.2,0,0,0-1.4.1c-3.2,1.8-3.1,3.8.8,11.6M1686,2906.9c-5,.1-8.2,1-9.3,4.9-.4,1.3,1.1,3.5,2.4,4.6.7.6,3.5.1,3.9-.6,1.2-2.5,1.8-5.3,3-8.9M1818.8,3035c10-6.7,10-6.7,12-15.9-5.3,3.6-8.7,7.5-12,15.9m449.2-9.5c1.7-3,3.2-4.6,3.3-6.3.3-3.9,2.3-8.3-2.1-11.4a1.41,1.41,0,0,0-1.4.1c-4.3,3.3-1.4,7.6-1.5,11.5,0,1.4.8,2.8,1.7,6.1m8.1,74.7c-6.5-1.2-10.5-.2-13.3,3.3-1.2,1.5-1.6,3.8-1.9,5.8-.4,3.1,1.5,4.7,4.4,5.1,4.1.6,7.4-.8,8.9-4.6,1.1-2.8,1.2-5.9,1.9-9.6m-320.5,157.6c-.3-7.4-.8-12.9-6.6-14.6s-10.7,1-14.5,5.5c1.1,1.5,1.6,2.7,2.4,3,5.7,1.9,11.3,3.7,18.7,6.1m-112-258.7c4-.6,6.3-.4,6.7-1.1,8.2-15.4,22.9-28.3,19.2-50.6-3.8,9.7-6.5,18-10.3,25.6-4.1,8.2-9.4,15.9-15.6,26.1m610.5-41.4c7.9-2.1,9.9-3.1,10.6-5.6,3.2-11.9,7.7-23.7,3.7-36.4-1.1-3.5-1.6-7.1-2.5-10.6-.2-.8-1.2-1.4-2-2.3-2.6,3.1-5.2,6.2-7.9,9.4,2,2.2,3.7,4,6,6.5-8.4,11-4.2,24.6-7.9,39m-900.8,42.1c-11.8.3-19.7,5.4-26.2,13.6-6.4,8-12.5,16.5-19.8,23.6-10.3,10.1-20.6,20.5-33.8,27.2-1.2.6-2,2.1-3.6,4.1,3.2,1.6,5.7,3.3,8.4,4,18,4.8,36,9.8,52.7,18.3,5,2.6,9.8,5.8,15,8,2.5,1.1,5.6.6,8.3.8,2.4-14.6,1.7-84.1-1-99.6M2376,2892.9c-3.2,2.9-5.8,5.3-8.5,7.7-2.3,2-4.9,3.9-7.1,6-2.6,2.5-4.8,5.4-7.4,7.8-2.3,2.1-5.3,3.4-7.5,5.6s-3.6,4.9-5.3,7.4c-6.5-8.1,2.3-13,3-20.6-2.3,0-5.2-.6-5.6.1-3.3,6.7-9.2,11-14,16.4a36.06,36.06,0,0,0-7.2,11.8,25.94,25.94,0,0,1-9.6,13.7c-5.4,4-7.8,9.6-8.1,16.1-.2,4,0,8,0,12.1,6-.5,3-8.7,9.3-9.7,1.6,7.6,0,14.5-3.2,21-2.1,4.1-6,4.3-10.2.8-.4-.3-.5-.9-.9-1.3-3.8-3.3-3.9-3.3-10,.8-.2,7.7,3.6,13.4,8.7,17.6.8,7.1-5.9,11.6-4.4,19.3,5.5-.8,10.6-1.4,15.6-2.2,6.2-1,12.5-3.5,18.4-2.9,16.2,1.7,32.1-2,48.2-1.9,3,0,5.9-.9,9.4-1.5a109.79,109.79,0,0,0,2-11.1q3.15-36.45,6-73.1c.4-5.7.3-11.4.4-17.1.1-9.6-5.5-16-12-22.8m-918,97.5c-2.5-2.1-4.5-4.6-7.1-6-7.8-4.2-15.6-8.4-23.7-11.8-33.3-13.9-68.4-21.1-103.9-26.5-2-.3-4,0-7.1,0-.5,3.8-1.4,7.3-1.2,10.7.2,4.1,1.9,8.2,1.9,12.3,0,19.2-.5,38.4-.7,57.6-.1,10.7-1.2,21.5.7,33,4.6.4,8.6,1,12.6,1a121.72,121.72,0,0,0,17.1-1c24.2-3.5,48.1-8,67.8-24.3,2-1.6,4.6-2.5,6.7-4,6.7-4.9,13.7-9.5,19.9-14.9,7.8-7.1,14.4-15.1,17-26.1m614,230c3.6-2.7,6.3-4.2,8.4-6.4a285.28,285.28,0,0,0,31.2-40.7c4.4-7,8-14.5,12.7-21.2,2.8-4.1,4.5-9.5,9.8-11.5,12.4,6.5,12.4,6.5,14.3,17.9.2,1,.2,2.1.5,3.1.8,2.9,5.1,4.7,7.7,2.9a35.22,35.22,0,0,0,5.7-5.2c15.8-18,24.8-39.2,30.7-63-10.1-4.7-15.7-12.8-17.5-24.8,2-5.1,4.4-11.2,7-17.9-6.1-1.3-10.1,2-14.5,2.6-27.3,3.8-53.1,14.7-81,16-9.7.4-19.4,3.3-29.1,5.2a11.37,11.37,0,0,0-2.9,1.7c-2.7,4.6-2,9.7-1.4,14.9,1.3,10.8,3.2,21.5.6,32.5-.7,2.9.3,6.1.5,9.2,1.3,15.5,4.3,30.7,4.9,46.4a73.08,73.08,0,0,0,12.4,38.3m-23.4-202.2c3.4.6,5,1.2,6.4,1.1,21.1-2.8,42.4-5.2,63.4-8.9a149.54,149.54,0,0,1,55.8,1c3.3.7,5.8,2.8,5.8,6.4.1,3-2.2,4.7-4.9,5.2-7.2,1.2-14.4,2.1-21.6,3.4-2.3.4-5.3.9-4.4,5.3,6.3,1,12.3,5,19.4,1.8a9.57,9.57,0,0,1,10.3,1.8c8,6.6,17.7,5.3,26.9,5.8,10.5.6,18.1-3.9,21.5-14.3a17.8,17.8,0,0,1,1.2-2.9c7.6-17.6,15-35.3,25.3-51.6,3.6-5.7,5.7-11.9,3.9-19.5h-9.7c-6.8.1-13.6.7-20.3.1-10.9-1-21.7-2.8-32.5-4.4-17.6-2.5-35.1-4.3-52.9-3-30.7,2.1-61.3,4-92,6.1-2.9.2-5.8,1.6-10.4,2.9,2.3,21.4,3.9,42.4,8.8,63.7m-400.9-74.6c3.4,14,7,27.5,9.9,41.2,1.2,6,1,12.3,1.1,18.5.1,4.1-.9,8.4-.3,12.4,2.5,16.4,4.6,32.9,4,49.5a41.27,41.27,0,0,0,.8,9.3c1.3,7.1,6.7,10.4,13.8,8.1a51.82,51.82,0,0,0,11-5.6c8.7-5.3,17.3-10.7,26.6-15,8-3.7,16.1-7.5,23.2-12.5,6.7-4.7,12.6-10.8,18.4-16.6,21.4-21.4,37-40.7,52.3-67.3a126.43,126.43,0,0,0,14.6-41c2.4-13.3-.7-24.9-12.2-33.1-8.5-6-17.1-12-27.4-14.4-3.9-.9-8.6-1.7-12.2-.4-10.7,4-22.1,7.4-31.2,13.9-13.4,9.6-28,18.2-37.6,32.4-1.3,1.9-3.3,4.2-6.9,2.3.5-2.6,1.1-5.3,2-10-3.8,3-6.2,4.8-8.5,6.8-3.5,3-6.9,6.3-10.6,9.1-1,.8-2.9.3-4.3.5-2.1-3.7-4.1-7-6.4-10.8-4.1,6.3-4.5,6.5-3,8.7,3.3,4.8,6,9.6,5.3,15.2-3.3,3-6.1,5.2-10.5,1.8-.9-4.4-1.9-9.2-3.5-16.6-3.2,5.7-5.4,9-8.4,13.6m-331.2,320.8c4.2.7,8.1,1.8,12.1,1.9,12,.3,23.8-1,35.7-2.5,30-3.5,57.4-14.3,83.8-28.2,15-7.9,27-19.6,37.2-32.8,6-7.7,10.8-16.5,15-25.4,6.3-13.3,2.9-22.9-8.8-32.7a47.44,47.44,0,0,0-19.2-9.8c-3.5-.9-6.8-2.5-10.4-3.4-14.6-3.8-29-8.4-43.8-10.8-26.7-4.4-53.8-5-80.8-5.3-5-.1-10.1,1.1-15.6,1.7-.5,3.5-.9,5.9-1.2,8.4-1,8.2-1.1,16.7-3.4,24.6a80.5,80.5,0,0,0-2.8,26.2c1.1,27,1.3,54,1.2,81,.1,2.2.6,4.2,1,7.1m495-188.9-.4-.3c-1.3,2.7-2.1,5.8-4,8-9.2,11.1-22.8,16.2-34.9,22.8-8.4,4.5-17,10.2-27.1,11.2-1,.1-1.8.9-2.7,1.5-2.7,1.7-3.5,5.9-1.2,8.2s4.4,4.7,7,6.1c9.9,5,17.6,12.9,25.8,20.1,12.5,11,25.9,20.8,39.5,30.5a418.73,418.73,0,0,0,43.8,27c8.7,4.7,17.7,8.7,26.6,12.9,5.4,2.6,11,2.8,16.8,1.4a73.48,73.48,0,0,1,40,1.3c2.3.7,4.8.5,6.7.7,3.6-4.8,1.4-8.8.8-12.8-2.5-19.1-5.4-38.1-7.4-57.2-1.9-18.1-2.8-36.3-4.2-54.4-.5-6.1-.6-12.4-4.5-18.7-24.8-.5-49.3-4-73-13.6-.6-5.5-1.2-10.7-1.6-15.8a4.36,4.36,0,0,1,.7-3c4.6-5.5,8.2-13,14.2-15.9,8-3.8,16.6-7.8,26.6-7,9.1.6,18.5,1.3,27.4-.6,3.2-16,0-47.3-6.9-68.8-12.2-1.9-24.8-3.9-37.1-5.9-.9,1.7-1.9,2.8-1.7,3.5,1.7,6.1.6,11-4.7,15.1-2,1.5-3.3,4-4.6,6.3-13.3,24.1-31.4,45.1-44.8,69.2a17.92,17.92,0,0,1-6.4,6.7c-7.2,4-9.2,10.7-10.6,17.8-.4,2-.8,4.1-1.3,6.1-1.9-.3-3.9-.7-5.8-1.1,0,.4-.1.7-.1,1.1h5.9a17.83,17.83,0,0,1,3.2-2.4M2239.2,2921a7.37,7.37,0,0,0,1.4-.4,5.3,5.3,0,0,0,1-.6c-.9.4-1.8.7-2.7,1.1a22.18,22.18,0,0,0-.6-4.5c-.2-.5-1.6-.6-2.5-.9-.1.8-.7,2-.3,2.5a14.45,14.45,0,0,0,3.7,2.8m-770,6.8h10.2c8.9,10.8,18.7,20.4,34.5,19.7,1.8-.1,4.1,1.2,5.5,2.5,6,5.6,13.5,10.1,13.9,19.5,11.2-2.2,12.4-.8,15.7,15.6,3,.4,3.2-2,3.4-3.9.7-6.7,2.1-13.5,1.7-20.1-.6-8.5-.2-16.6,2.6-25.1,2.8-2.3,6.1-4.8,9.2-7.5,10.4-9.1,21.4-12.1,34.3-5.2,6.3,3.4,12.9,6,20.9,9.7,13.3-1.8,23.3-10.7,30.1-23.9.9-1.8,2.1-3.9,3.7-5a128,128,0,0,0,19.7-16.4c5.9-5.8,13.6-11.1,22.5-13.5,3.7-1,6.9-4.6,9.9-7.4,4.4-4.1,9.1-6.6,15.3-6.5,6.8.1,13.5-.5,19.3-4.9,1.8-1.3,4.9-1.5,7.4-1.3,12.4,1,12.4,1.1,21.3-4.5,6,1.2,6.5,11.6,14.9,9-.2-1.9-.5-3.8-.7-5.8a50.84,50.84,0,0,1,22.4,6.3,40.88,40.88,0,0,0,14.6,5c11.8,1.2,21.3,7.6,31.5,12.5,4.9,2.4,4.8,2.7,11.8,1.7,6.8,9.1,15.7,17.4,16.8,30.2a31.93,31.93,0,0,0,2,7.5c1.1,3.2,5.1,5,7.6,3,6.6-5.2,13.8-8.9,22.3-8.4,1.9-7.6-1.4-12.7-2.6-18.1-2.3-10.3-2-19.6,8.2-25.9a2.91,2.91,0,0,0,1.1-1.1c4.9-10.4,14.2-10.7,23.9-10.4,4.9.2,9.2,1.2,12.9,4.6,2.3,2.1,4.8,4,7.6,6.3,3.3-1.1,6.7-2.3,10.9-3.8a60.16,60.16,0,0,1,6.8,5.3c3.8,3.7,8.4,3.7,13.1,3.3,10.5-.9,15.6,1,21,8.6,15.8,22.4,13.8,17.9,35.6,18.1,12,.1,23.8,0,35.8-2,8.1-1.3,16.6-.7,24.9-.3,17.1.7,34.4-1.6,51.5,1.5,5.1.9,10.4.7,15.6.8,24.1.6,47,7.7,69.4,13.5,1.8,4.7,3.3,8.5,4.7,12.1,7.3,1,13.9,1.8,20.8,2.7,9.7-5.8,13.9-16.4,20.3-25.1,8-10.9,15.2-22.1,25.7-31.1,6.9-5.9,14.4-11.5,17.7-21.3,2.2-6.6,9.1-5.2,15.2-3.4,3.4-8.6,11.5-9,19-10.5,7.8-1.6,15.3-1.4,22.3,4.4.5-4.7.8-7.6,1.1-10.5,18.1,1.3,18.1,1.3,25.7,7.6,10.5-2.8,10.5-2.8,20.3,6.8,3.2-1.7,6.7-3.5,10.2-5.4,1.6.8,3.4,1.1,4.2,2.2,3.6,4.9,8.5,7.3,14.2,8.8,9.9,2.8,17.7,8.2,21.4,18.5,1.6,4.4,3.5,8.9,6.3,12.5,11.8,15.1,11.1,31.9,7.2,49.1a49.52,49.52,0,0,0-1.1,12.2,181,181,0,0,1-1.3,26.5c-.9,7.3-1.6,14.3-.4,21.7.6,3.2-1.1,7-2.2,10.3-3.2,10,.5,15.9,11.1,17.4,9.7,1.3,19.6.9,29.3,5.1-2.6,3.4-4.9,6.5-7.3,9.6-2.9,3.8-6.8,4.8-10.7,2.1-2-1.4-3.4-3.6-5.1-5.5-5,2.3-6,5.9-4.9,11,4.9,3.4,10.7,2.5,16.2,1.8,10.4-1.3,19.4,2.3,28.3,6.9,1.3.7,2.8,2.1,3,3.4.3,1.8,0,5-.9,5.3a77.41,77.41,0,0,1-13.4,3.4c-13.4,2.1-26.8,3.9-40.1,6-1.4.2-2.7,1.4-5.1,2.8-1.9,13.2-4.1,27-5.8,40.8-1.2,9.3-1.7,18.6-2.5,27.9-.1,1.6-.6,3.3,0,4.6,4.9,10.8,1.6,21.7.2,32.3-1.8,14.1-1.2,28.1.3,42.1,1.2,11.7,1.2,22.4-7.3,32.1-3.5,4-4,10.5-5.7,15.2-14.4,8.2-29.9,5.1-44.6,6.8-8.4.9-17.1-3.1-25.9-3.7-8.2-.6-16.3-2.9-25.7-4.6-7.2-8.5-9.3-19.6-9-31.1.8-29.7,2.2-59.3,3-89,.5-18.7.6-37.5.7-56.2,0-2.4-1.2-4.8-2.1-8.1-8.7,1.2-16.9,2.2-25,3.6-9.7,1.7-19.5,3.2-29,5.8-7.9,2.2-15.5,5.9-22.9,8.8-1.7,11.7-2.2,23-8.1,33.1a3.69,3.69,0,0,0-.7,1.4c-5.1,17.9-10.5,35.8-15.1,53.9-1.7,6.6-3.2,12.9-6.9,18.9-3.5,5.7-5.9,12.2-8.7,18.3-2.4,5.2-6,7.9-12.1,8.1-8.8.3-17.4,2.3-26.3.2-3.4-.8-7.2.4-10.8.5-3,.1-6.3.6-9-.5-3.8-1.4-6.9,0-10.3.3-9.7.8-19,4.9-29.1,2.6-4.5-1-9.2,1.1-12.5,6.5,2.6,1.2,5.9,1.8,7.4,3.7,2.7,3.4,3.5,8.3,1,11.8-4.2,5.9-5.8,13.3-11.7,18.3a23.76,23.76,0,0,0-7.3,11.6c-2,9.3-8.5,14-15.8,18.2-5.4,3.1-10.9,5.9-16.4,8.8a56.23,56.23,0,0,1-25.4,6.7c-7.3.1-14.6,1.2-21.8,1-9.9-.3-19.9-.4-29.5-2.4-12.1-2.5-24.7-2.5-36.4-7.9-8.5-3.9-15.1-9.1-19.6-17-2.5-4.5-4.6-9.3-7.1-13.8-2-3.6-3.9-7.4-6.6-10.5-2.2-2.6-5.5-2.6-8.6-.9-.4.3-1,.4-1.3.8-7.7,10.6-19.6,10.5-30.8,12.5-30.3,5.3-60.2,2-90.1-3.2-4.1-.7-8-2.3-11.9-3.6-2.9-1-5.7-2.5-8.7-3.3-24.4-6.4-46.8-16.6-67.2-31.6-7.5-5.5-16.2-9.3-23.9-14.7-16.1-11.4-32.4-22.6-46.7-36.3-1-.9-2.8-1-4.1-1.5-4.2,2.6-3.4,6.7-2.8,9.9,4.3,21.7.7,43.6,2.7,65.4.5,5-1.2,10.3-2.3,15.3a10.58,10.58,0,0,1-3.2,5.1c-7.7,7.3-15.8,13.4-27.7,11.2-5.5-1-11.5-1.3-16,3.9-.8.9-2.9,1-4.3.8a69.34,69.34,0,0,1-12.1-1.9c-8.7-2.5-17.4-1.8-26.2-.5s-12.4-1.1-15.1-9.6-4.2-17-2.5-26.1a83.68,83.68,0,0,0,.4-29.1c-1.7-.2-3.2-.8-3.6-.4-8,8-18.2,13.6-24.8,23.2-2.8,4.1-7.5,7.2-11.8,9.9-21.3,13.2-44.4,23-67.6,32.2-17,6.8-35.3,9.2-53.3,11.6-25.3,3.5-50.7,5.3-76.1,7.7a105.08,105.08,0,0,0-19.8,3.9,384.73,384.73,0,0,1-49.8,11c-7.5,1.1-15.2.5-22.9,2.2-10.3,2.3-16.8-3.1-21.3-13.6a58.77,58.77,0,0,1-5.2-22.6c-.6-32.8-1.7-65.6-2.2-98.4-.3-20.3.2-40.6.1-60.8-.1-18.2-.8-36.4-.6-54.6.3-28.1,1-56.2,1.5-84.3.3-14.6.6-29.2.8-43.7,0-1.4-.9-2.9-1.6-4.7-2-.3-4.1-1.2-6-.9-12.8,2.1-25.7,4.2-38.5,6.8-16.8,3.4-33.5,7.5-50.4,10.9-13.7,2.7-21.6-3.6-23.2-17.9-.2-2.1-.2-4.2-.3-6,.5-1.2.7-2.2,1.2-3.1,7.1-12.4,17.1-20.7,31.7-22.5,24.8-10.3,51-14.3,77.2-18.8,4-.7,8-1.9,11.8-2.8,3.5-6.8,2.4-15.6,10.6-18.8,9.2-3.7,15.5-15.2,28.4-10.2,1.5,2.7,3.3,5.9,5.3,9.4,1.3-.7,3.2-1.2,3.6-2.2,1.5-3.8,3.7-6.2,9.5-6.4,2.7,2.7,6.1,6.3,9.8,10,8.4.4,17.6.3,26.6,1.6a23.49,23.49,0,0,1,12.5,5.9c5,4.9,10.9,6.4,17,6.5,19.4.3,37.9,6,57.1,7.9,10.8,1.1,21.3,4.6,31.9,7.2,7.1,1.7,14.1,3.8,21.1,5.7,12.2,3.1,23.9,7.2,32.1,16.8m1186.4,95.3c-.1-.5-.2-1-.3-1.4-.2.4-.6.8-.6,1.2s.2.9.3,1.4l.6-1.2m302.9,151.7c-.8,1.1-1.5,2.2-2.3,3.3.4.2,1.1.8,1.1.7a38.48,38.48,0,0,0,2.7-3c-.3-.2-.7-.5-1.5-1M2655,2999c2.8-3.3,3.8-4,3.9-4.8,1.6-15.4,1.6-31,6.5-45.9.3-.9,0-2.1.2-3.1,1.3-7.6,2.8-15.2,4.1-22.8.6-3.5,2.2-7.2,1.6-10.5a33.29,33.29,0,0,1,.1-13.7c.6-2.9-.3-6.2-1-9.2-1.3-5.6-3.3-6.3-12-4.8-4.1,8.5,1.3,16,3.3,23.9-3.9,6.4-6.7,12.9-4,20.6.8,2.2-.4,5-.8,7.5-.6,3.5-1.7,7-1.8,10.5-.3,12.9-.4,25.9-.4,38.8-.1,3.5.1,7.1.3,13.5m46.4,130.9a15.16,15.16,0,0,1,4,14c-1,5.4.5,11.2,1,16.9.7,7.7,2,15.5,2.4,23.2s1.3,15.2-2.9,22.7c-3.2,5.7,2.2,11.9,8.8,10.3,14.7-3.3,29.6-6.5,43.6-11.7,20.5-7.5,40.3-16.7,60.4-25.4,14.8-6.4,29.1-13.7,42.5-22.9,12.9-8.9,25.2-18.3,37.2-28.3,10.6-8.9,18.5-19.6,26.1-30.8,6.1-9,6.5-18.2.5-27.7-7.4-11.9-14.6-23.9-24.4-34-2.9-3-6.5-5.8-8-9.4-3.7-8.8-11.2-13.4-17.9-19.1-3.1-2.7-6.8-4.8-9.9-7.5-6.9-6.2-13.6-12.8-20.5-19.1-6.7-6-12.4-13.1-21.3-16.9a26.12,26.12,0,0,1-12.3-11.6c-3.2-6.7-7.5-9.3-14.3-9.6a21.63,21.63,0,0,1-17-9.9c-3.7-6-8.5-7-14-9-8.1-3-15-8.6-23.8-10.3a8,8,0,0,1-4.9-3.5c-4.9-9.2-14.7-10.7-22-15.2-10.6,5.1-11.1,5.1-12.2,13.1-1.6,12.4-2.4,24.9-3.4,37.3a8.91,8.91,0,0,0,.6,4.6c2.2,4.5,1.6,9,1.2,13.7a65.57,65.57,0,0,0,.3,14c2.1,15.5,2.6,31,2.7,46.6.1,27,.3,54,0,81.1-.2,7.6-1.6,15.2-2.5,24.4m284.7,18.5c2.5-1.4,5.4-2.6,4-6.4-.1-.3-.9-.8-1.2-.6-3.6,1.5-2.8,4.5-2.5,7.3a12.18,12.18,0,0,0-2.7,0c-.5.2-.8,1.1-1.2,1.7.4-.2.9-.3,1.3-.5.8-.5,1.5-1,2.3-1.5m-71.5,66.3c1.6-1.1,3.1-2.1,4.6-3.2.3-.2.2-.9.3-1.3-.8-.1-2.1-.5-2.3-.2-.9,1.6-1.6,3.3-2.4,4.9-1,.1-2,.1-3,.2a27,27,0,0,1,2.8-.4m-425.5-386.1c2.3-13.2,12.9-18.5,20.9-25.6,3.4-3,9.8-3.4,14.9-3.4,12.4.1,25-1.5,37.2,2.7,4.3,1.5,9.2,1.4,14,2,2.3,2.8,4.3,5.9,6.8,8.4a14.3,14.3,0,0,0,6.6,3.8c6,.9,12.1,1,19,1.5-4.7-7-14.5-1.5-19-9.2,3.7-2.4,7.9-2.1,11.5-1.4,11.2,2.1,22.4,4.4,33.4,7.4,8.4,2.3,9,3.3,16.5,11.9a37.44,37.44,0,0,0,5.5-.4,39.74,39.74,0,0,0,5.8-2c3.9,2.7,7.4,6.2,11.5,7.5,3.4,1.1,7.7-.5,12.5-.9-.7,4.1-1.3,7.4-2,11.8,3,.4,5.4.7,7.6.9a12.43,12.43,0,0,0,2-2.8c2.3-7.6,4.5-9.9,10.1-8.6,4.4,1,9.3,2.6,12.7,5.4,6.7,5.5,14.4,8.1,22.3,10.8,6.8,2.4,13.6,5,20.4,7.5l12.9,4.8c1.4.5,3.2.6,4.4,1.5,14.2,10.9,31.3,16,46.6,24.7,29.9,17,58.7,35.7,86.9,55.2,3.8,2.6,7.2,5.9,10.9,8.8,4.1,3.1,8.5,5.9,12.5,9.2,9.1,7.5,20.2,13,25.7,24.3.9,1.7,2.5,4,4.1,4.3,7.4,1.6,11,7.8,15.6,12.5a208,208,0,0,1,26.5,32.4c8.5,12.9,15.5,27,27,37.8a6.14,6.14,0,0,1,1.8,2.5c3.4,15,10.5,29.4,5.2,45.7-2.5,7.8-7.1,13.8-12.1,19.7-4,4.8-8.1,9.6-12.9,13.4-6.5,5.1-13.3,10-20.7,13.3-3.3,1.5-6.2,2.5-8.7,5.5-2.2,2.7-5.3,4.8-8.3,6.9-6,4.1-11.7,10.2-18.3,11.5-7.1,1.4-11.6,6.6-18.1,8.2-4.7,1.2-8.2,4.4-10.9,8.5.9,2.3,1.7,4.6,2.6,6.9a22.15,22.15,0,0,1-11.5,10.3c-12.5,5.1-25,10-37.7,14.6-2.8,1-6.1.7-9.2,1.1-3.6.6-7.6.4-10.6,2.1-15.1,8.2-33,9.2-47.6,18.7a6.5,6.5,0,0,1-2.8,1.3c-21.7,1.9-42.2,10.3-64,11.6-9.7.6-19.3,3.8-29,5.9-3,.7-6.1,2.3-9,2-12.6-1.1-24.8,2.5-37.2,3.1-10.9.6-21.8.2-32.7-.2-2.9-.1-5.8-2-8.8-3-7.9-2.8-15.7-5.6-24.3-2.9-2.3.7-5.1.1-7.7-.1-6.1-.5-12.2-1.1-19.8-1.7-.9-2-2.2-5.1-3.6-8.3-10-.3-10.2-.5-6-8.9-1.6-1.9-3.3-3.7-5.7-6.5,10.7-6.1,21.9-9.7,32.2-12.8,2.7-7.1-.2-12.5-1.3-18-1.4-7.1-3.1-14.2-4-21.4-7-53.3-8.2-107-10.2-160.6-.7-18.7,1-37.5,1.6-56.2.3-7.8.4-15.6,1.1-23.4,2.3-26.5,4.9-52.9,7.3-79.3.3-3.6.9-7.3,1.1-10.9.7-10.5-1-12.4-11.6-14.2-25.1-4.3-50.2-9.1-75.4-12.9-9-1.3-14.1-5.5-16.5-14.3" fill="#231f20"/><path d="M3100,1561.2c7.6-31.1,16.4-63.1,28.4-92.6,29.6-72.9,78.4-135.9,103.9-211,26.6-78.4,29.3-170.5,23.6-252.7-5.7-81.8-27.2-160.5-83.3-222.8-23.5-26.1-65-53.4-83.5-69.5-24.3-21.2-45.7-45.4-67.1-69.5-43.4-49-87.3-96.4-143-132-84.4-53.9-185.1-61-281.1-41.7-71,14.2-137.5,44.6-208.5,58.9-74,14.9-151.1,16.1-226.2,23.5-194,19.1-387.1,46.5-580,74.1-185.3,26.6-365.3,54.9-534.8,139.2C977.8,800.2,958.1,900,996,964.7c42,71.8,128.8,87.5,199.6,52.3,118.3-58.8,253.3-78.8,382.7-97.9q70.48-10.36,141-20.4l.57.27,2.15,1,1,.47,2.11,1,1.07.5,2.1.94,1,.43c1,.45,2,.88,3,1.31,12.3,5.1,24.4,10.9,36.7,16.1,14.5,6.1,29.3,11.7,43.9,17.7,5,2,9.8,4.7,14.6,7.2,4.3,2.2,8.4,5,12.8,6.9,9,3.7,18.4,6.7,27.4,10.6,13.8,5.9,27.5,12.1,41,18.7,11.3,5.5,22.5,11.1,33.3,17.6,17.3,10.4,34.2,21.5,51.2,32.5q3.24,2.1,6.5,4.15l1.66,1,2.51,1.59c5.3,3.34,10.6,6.67,15.82,10.11h0c3.3,10.41,6.63,21,10.71,31.7,15.6,40.9,35.7,77.1,57.8,114.6,66.2,112.2,53,248.9,44.6,379.6-.24,3.63-.29,7.25-.18,10.84q-11.52,9.87-23.58,19.1l-.5.39q-4,3.12-8.14,6.17a22.8,22.8,0,0,0-4.7,5.5c-4.2,6.1-7.8,12.6-12.4,18.3-7.8,9.8-14.1,20.2-15.2,33s-1.9,25.8-2.4,38.7c-.7,18.6-1.3,37.3-1.3,56,0,16.4,1.5,32.9,1.3,49.4-.4,34.6,1.5,69.2-.9,103.8-1.6,23.3-1.6,46.7-1.9,70-.3,22.5-.2,44.9.2,67.4.4,20,1.4,40,2.1,60a99.32,99.32,0,0,1,0,12.2c-1,11.8-2.5,23.5-3.3,35.3-1.8,25.7-1.5,51.6-6.7,77a28.16,28.16,0,0,0-.2,5.8c0,6.8-.1,13.7,0,20.5,0,1.77,0,3.54,0,5.31,0,.81,0,1.62,0,2.44v3.31q-13.93,57-28,114c-22.3,89.6,43.6,187.2,140.7,184.6,155.7-4.1,288.8-73.3,421.7-147.4,52.1-29.1,104.3-58.8,152.7-75.6,70.8-24.6,144.7-37.6,214.3-66,88.7-36.1,173.9-91.5,203.5-188.1,24.3-79.3,2.3-178.8-4.9-259.8-3.2-35.3-5.8-71.6-14.8-105.9-10.9-41.3-34.2-69.8-53.4-105.2a65.62,65.62,0,0,1,1.8-7.9C3094.1,1599.9,3095.5,1579.6,3100,1561.2Zm-720.85,648.31v0c.17-2.62.34-5.24.53-7.86a1.15,1.15,0,0,0,0-.19q.3-4,.61-8c2.51,3.8,5.18,7.44,7.9,11C2385.21,2206.16,2382.19,2207.84,2379.15,2209.51Z" fill="#c89260"/><path d="M2203.6,1400c-4.8-13.5-6.9-27.3-8.2-41.4-1.5-16-2.4-32.1-8.4-47.3a147,147,0,0,1-5.9-18.1c-3.9-15.3-11.5-28.9-18.9-42.5-8.8-16.1-19.2-31.2-28.9-46.7-1.5-2.4-2.5-5-3.9-7.4-3.2-5.8-5.7-11.9-11.1-16.4-4-3.2-7.1-7.6-10.3-11.7-8.3-10.6-16.2-21.5-24.8-31.8-5.8-7-12.4-13.3-18.9-19.7-10.3-10.1-20.3-20.5-31.2-29.9a309.81,309.81,0,0,0-29.7-22.6c-13.7-9.3-27.7-18.4-41.9-27-19.9-12.1-39.8-24-60.2-35.2-20.6-11.3-42.4-20.3-64.5-28.4-3.7-1.4-7.5-2.2-11-3.8-8-3.7-15.8-8-23.9-11.6-16.2-7.1-32.6-13.9-48.8-21-12.7-5.5-25.1-11.8-38-16.7-15.5-6-31.4-11-47.1-16.3-4.7-1.6-9.5-3.1-14.2-4.6-6.6-2-13.3-3.9-19.8-6.1-6-2-11.8-4.8-17.9-6.6q-25.2-7.35-50.4-14.3c-9.1-2.5-18.4-4.1-27.5-6.6-37.6-10.5-75.2-21.3-112.8-31.7a254.45,254.45,0,0,0-25.9-5.7c-13.1-2.3-26.3-3.8-39.3-6.3-15.2-2.9-30.2-7.1-45.5-9.6-8.1-1.3-16.5-.4-24.8-.5h-5.8c-7.2.1-14.4.4-21.6.2-8-.2-16.1,0-23.9-1.4-1.12-.21-2.23-.44-3.34-.69-35.8-38-91.37-52.06-146.46-42.41-84.2,14.8-161.4,1.3-236.6,53.3-86,59.5-127.8,159.2-94.5,261,14.5,44.3,44.6,75.2,65.5,115.5,9,17.3,20.3,57.2,23,73.9,12.8,80.1,5.6,165.6,5.3,246.3-.8,178.2-9,358.2-1.9,536.2,2.35,58.78,16.46,111.89,44.68,156.76,2.64,16.7,13.71,28.27,26.22,38.64a161.13,161.13,0,0,0,13,9.58,286.16,286.16,0,0,0,54.9,41.22c70.1,40.9,145.7,75,219.1,109.6,155,73.1,316.2,140.4,485.7,170.5,90.2,16,213.8,44,298.2-4.8,95.6-55.3,92.3-189.3,81.8-284.9-6.73-61.64-21.18-124.1-35.1-186.87-.2-8-.61-15.9-.3-23.83,1.4-36.6,3.1-73.1,4.7-109.7.8-17.7,1.5-35.5,2-53.2.9-29.7,1.8-59.4,2.3-89,.5-31.8-.1-63.7,1-95.6.6-16.8,3.7-33.6,5.3-50.4.13-1.38.26-2.75.38-4.13,12.17-23.75,25.2-47.41,37.12-72.27q5.74-12,11.12-24.11c3.5-1.88,7-3.83,10.28-6,15.2-9.8,28.1-22.5,40.5-35.6,2.3-2.4,4.4-5.4,7.2-6.9,9.4-4.9,16-12.4,22.3-20.7,15.4-20.3,24.7-42.5,24.4-68.3a58.1,58.1,0,0,1,.7-8.3C2208.6,1423.8,2207.8,1411.6,2203.6,1400ZM1760,2178.6q1.61,7.41,3.25,14.86a11.84,11.84,0,0,1-3-5,25,25,0,0,1-.77-12.09C1759.69,2177.14,1759.84,2177.87,1760,2178.6Zm323.37-958.92q-2.38-3.3-4.83-6.57A44.61,44.61,0,0,1,2083.37,1219.68Z" fill="#fbe6cc"/><path d="M1025,1103.62c-2.65,3.09-3,8.13,1.61,10.58,2.4,1.2,7,4.5,5.3,7.9-1.5,3.1-5.7.6-7.8-.8C1015.52,1115.61,1015,1105.66,1025,1103.62Zm740.82,1075.85c-.07.21-.15.41-.21.63l-.3,1.4v.9l-.3-.2c.7.7,0,.3,1.2.9a10.56,10.56,0,0,0,2.48.65A8.21,8.21,0,0,0,1765.81,2179.47Zm208-481.77a7.68,7.68,0,0,0-2.11.47,7,7,0,0,1,0,6.73,15.13,15.13,0,0,0-1.9,8.6l.4,1.6,1,1.7,1.1.5h.3l.7-.3c1.2-.5,2.9-2.8,3.8-4.4,2.1-3.7,3.6-9.8.7-13.3A4.35,4.35,0,0,0,1973.8,1697.7Zm-160.16-311.07c2-5.45,1.41-9.78-5-12.63a6.77,6.77,0,0,1-.66-.33,11.85,11.85,0,0,0-4.14,1.53c-3.12,2-4.22,5.22-4.47,8.59A39.49,39.49,0,0,0,1813.64,1386.63ZM985.49,880.15c-9-.56-19.53-4.57-20.69-13.85-1.5-11.7,18.2-16.5,26.7-15.6,8.1.9,16.9,7,17.6,15.7.9,9.9-10.1,10.8-17.4,10.2A5.86,5.86,0,0,0,985.49,880.15ZM979.4,2061.29a6.39,6.39,0,0,1,4.6-3.89c24-6.3,5.4-47.9-9.3-37.9-6.5,4.3-5.3,17.3-4.1,23.7S974.31,2056.87,979.4,2061.29ZM1001,2245.9l-1.38-.08-.58-.12c-1.3-.2-2.5-.5-3.8-.8s-2.5-.7-3.8-1.1l-1.8-.6,0,0-.36-.18a32.39,32.39,0,0,1-3.2-1.7l-.49-.32.79-.28a55,55,0,0,1,7-1.7,5.11,5.11,0,0,0,.79-.22c1.39,1.28,2.74,2.57,4,3.92l2,2.2.8.9Zm56.24-416.1c-2.5,6.2-13.8,7.5-19.4,6.4-2.4-.4-4.5-1.6-5.3-2.9a5.33,5.33,0,0,1-.4-4.1,8,8,0,0,1,3.5-4.4c2.8-1.7,6-1.7,9.2-1.3a6,6,0,0,0,5.11-1.72C1054.43,1823.27,1058.72,1825.81,1057.2,1829.8ZM1415,1099.2c-1.3-21.1,16.6-39.7,37-43.3,19.2-3.3,38,15.2,29.5,34.7-8.06,18.55-54.34,32-68.91,14.18A6,6,0,0,0,1415,1099.2ZM989.8,1573c4.31-12.93,21.08-18.66,33.6-18,7.24,13.09,1.12,37.43-14,40.64C998.3,1598,986.4,1583.4,989.8,1573Zm268.34-75.92c-3.75-29-27.22-59.87-18.84-88.18,3.2-10.8,10.7-11.3,21.1-9.5,18.9,3.4,31.6,14.9,35.6,33.9C1302.44,1464.05,1275.63,1477.37,1258.14,1497.08Zm-5.34,705.72c2.39,19.95-17.76,22-32.47,18.41,4.12-16.7-.9-28.15-19.13-29.91-3.1-.3-14.5.3-13.3-5.8s20.7-6.3,24.7-6.4C1228.6,2178.6,1250.5,2183.6,1252.8,2202.8Zm508.1-1126.2c-.8-1.2-.8-1.3-1.2-3.4-.2-1-.2.3-.1-1.5,0-.3.3-3,0-1.4.4-2.3.1-2,1.3-3.5l.09-.12.31-.28a1.08,1.08,0,0,0,.15-.14,5.42,5.42,0,0,0,.75-.36c-1.2.7,1.2.3-.1.1,1.7.3.4-.2,1.6.2l.09,0a8,8,0,0,0,.11,2.47,20.91,20.91,0,0,1-.38,10.45A8,8,0,0,1,1760.9,1076.6Zm-408.5,672.5a4.39,4.39,0,0,1-1.7,4.5,9.19,9.19,0,0,1-6.2,2c-5.5.1-15.1-3.2-15.1-9.1,0-3.91,3.58-5.67,7.62-6.11a5,5,0,0,0,1.08.31c4,.5,8.3,1.3,11.5,4A8.38,8.38,0,0,1,1352.4,1749.1Zm-72.7-836.8c-1.9-5-10.1-23.6-4.6-28.4,3.4-2.9,12.3.9,15.6,2.3,8.7,3.6,15.6,11.4,19.6,19.9,8.17,17.55-7.66,22.41-22,26.17C1285.16,925.71,1282.16,919.09,1279.7,912.3ZM1538.2,1930c.8-12.3,4.9-25.3,9.3-36.7,7.7-20.1,17.5-34,40.6-35.9,12.9-1,26,1.1,38.9.6,26.1-.9,49-13.5,69.3-29.3,8.3-6.5,16.5-18.5,25.9-23,17.7-8.6,15.4,14.9,15.6,28.6.2,16.2-1.4,32.4-.4,48.6.7,10.5,4.8,23.6,2,34-9.1,34.4-41.43,20-67.43,6.81,1.44,0,2.91,0,4.43.09,9.2.6,9.1-13.7,0-14.3a54.74,54.74,0,0,0-25.57,4c-.7-.28-1.38-.54-2-.77-5.19-1.85-8.6,2.32-8.68,6.65a119.68,119.68,0,0,0-15.92,13.35c-20.6,19.9-33.7,31.3-64.6,23.5C1544.3,1952.3,1537.2,1946.3,1538.2,1930ZM1793,2442.9c-2.82-14.46,25.72-17.32,45.22-17.71,1.69,12.22,6.12,23.67,10.12,35.37-8-.8-16-1.49-23.84-3C1816,2456.1,1795,2453.5,1793,2442.9Zm273.3-1169c-12.84,14.79-32,23.15-49.45,33-.74-20-4.56-35-19.25-51.76-35.7-40.9,12.9-64.6,50.5-55.8C2080.5,1206.9,2086.7,1250.5,2066.3,1273.9ZM1549,2412.57c-1,6.65-6.91,8.95-15.73,7.63-8.6-1.2-21.2-5.9-24.2-14.9-4.1-12.2,3.9-18.4,15.1-15.9,11,2.5,21.8,10.8,24.5,22.1A8.36,8.36,0,0,0,1549,2412.57Z" fill="#9a8479"/><path d="M3247,1197.2c-3.8-91.5,7.7-187-21.4-275.5-24-73.1-70.9-141.9-122.9-198.1-25.95-28-54.41-52.74-84.17-75.83-22.85-27.07-49.41-50.75-81-69.07-4.19-2.46-8.6-.05-10.08,3.63q-8.05-5.57-16.12-11.13c-33.1-22.9-66.7-46-106.2-55.8-42.6-10.6-85.5-15.6-127.9-27.7-36.6-10.5-73.1-7.4-109.7,1.4-45.8,11.1-90.2,22.1-136.7,30.1-50.4,8.7-100.4,19.6-150.5,29.7-16.53,3.35-33,6.88-49.55,10-21.82-.45-43.88,3.39-65.46,5.55l-.89-.13v.23a7.33,7.33,0,0,0-5.64,3.3,280.71,280.71,0,0,1-37.86-1c-46.5-4.6-84.6-2.2-129.6,10.9-49.2,14.3-99,18.9-149.2,28.1-49.3,9.1-97.7,22-146.4,33.8-18.54,4.5-37.28,7.68-56.09,10.34A77.93,77.93,0,0,0,1617.7,645c-5.59-.36-7.82,4.52-6.8,8.68-22.33,2.75-44.69,5.33-66.9,9-50.1,8.3-97.4,28-148.3,32.1q-6.89.56-13.7,1.07-4.76-1.82-9.5-3.67c-4.58-1.81-7.77,1.26-8.48,5-39,2.95-76.56,6.14-115.92,15.37-54.5,12.7-108.3,29.1-163.5,38.8-43.3,7.6-89,9.5-126.4,35.1-5.32,3.62-3.29,10.9,1,13C916.19,814,875.51,837.55,851.4,876.9c-42.8,69.7-19.9,161.4,12.2,230.3,23.8,51.2,54.7,103.8,60.6,161.1,5.5,53.6-14.6,105.1-24.5,157-19.7,104.2-3.1,212.6-14.8,317.7-6,54.2-19,107.4-22.8,161.9-3.8,53.1.7,106.9,3.6,159.9,1.9,34.6,3.66,69.15,4.18,103.74-.36-.41-.71-.83-1.08-1.24-6.1-6.9-16.2,3.2-10.1,10.1A173.23,173.23,0,0,1,870,2191.64q0,15.92-.53,31.86c-.4,9.1,13.9,9.1,14.2-.1q.16-5.13.27-10.25c14.37,23.91,27,48.38,50.33,67.45,34.6,28.4,73.6,50.7,114,69.7,39.6,18.7,80.6,34.3,121.4,50,44.4,17.1,87.7,37.1,132.1,54.1,53.4,20.4,107.8,36.8,160.2,60,43.5,19.2,87.6,37.7,133.6,50.1,95.3,25.6,196.7,21.2,294.3,16.6,36.5-1.7,75.6,1.8,111.5-5.6,23-4.78,36-15.53,43.63-34.41,21.79,35.55,71.5,33.9,112.07,24.61a406.74,406.74,0,0,0,45.16-13.43c1,8.21,14.24,7.89,14.24-1,0-1.39,0-2.78-.05-4.17,8.8-3.27,17.57-6.63,26.35-9.93,18.14-6.88,36.43-13.33,54.82-19.49,3.5,3.54,11.45,2.16,12.58-4.16,20.57-6.73,41.27-13.12,62-19.34a7.93,7.93,0,0,0,2.3-.68q12.53-3.75,25.08-7.43,38.31-11.22,76.47-22.95c16.45,19.35,43.6,1.22,57.81-18.29,55.92-18.18,111.39-37.74,166.12-59.56,46.33-18.47,91.15-39.57,135.62-61.45,52.18-4.4,107.1-31.13,149.78-59.75,13.86-9.28,23-19.2,28.79-30,43.26-24.67,83.56-55.88,100.56-101.63,19.67-27.61,36.42-55.23,38.55-92,3.7-66.6-11.4-135.6-26.7-199.9-28.7-120.6-80.3-260.4-43.2-384.4,9.3-31,29.9-53.8,51.3-77,18.5-20,34.5-41.5,51.8-62.5,27-32.75,61.65-67.75,57.15-113.34A6.24,6.24,0,0,0,3247,1197.2Zm-680-693c20.5-5.2,41.4-9.4,62.6-9.1a126.76,126.76,0,0,1,16.63,1.35,6,6,0,0,0,1.47,7.75c95.7,88.6,157.1,205.4,207.6,324,25.2,59.2,47.8,119.5,71.3,179.5,26.1,66.8,56.1,132.2,79.7,199.9,24.8,71,38.4,142.9,35.2,218.3-3.3,76.7-20.7,151.3-32.6,226.9-23.5,149.5-19.3,301.9-6.4,452.2,2.6,30.4,8.2,61.6,7.8,92.1a62,62,0,0,1-5.49,25.93c-16.87,9.45-34,17.86-50,25.77-39.93,19.71-79.3,40.31-119.08,60.11-.1-.07-.22-.13-.32-.21-9.2-7.1-6.1-39.9-5.7-50,2.6-59.8,25.2-117.1,35-175.8,13-77.9,26.1-155.8,46-232.3,36.9-142.3,84.9-278.1,82.8-427.4-1.9-131.9-35.2-269.6-86.6-390.7-28.4-67-65-130.4-110.5-187.2-50.9-63.5-112.6-116.4-174.2-169-37.7-32.2-65.9-72.8-101-107.6-15-14.9-36.45-35.72-59.16-40.86C2497.15,520.66,2532.17,513,2567,504.2Zm-272.2,56.5c45-9.15,90.09-17.52,135-26.39a8,8,0,0,0,.06,7c25.8,54.2,65.1,115.6,112.8,153.2,25.3,20,56.2,30.8,82.5,49.1,33.1,22.9,56.8,56.6,79.6,89.2,40.8,58.4,88,112.5,117.7,178,32.6,71.8,33.8,150,56.5,224.4,25,82.1,34.4,161.1,25,246.8-9.2,84.1-34.9,156.5-72.6,231.9-32.9,65.7-62.8,130.7-81.5,202-19.3,73.5-30,149-37.3,224.5-5.9,60.9,13.8,116.1,14.7,176.3.4,29.7-17.6,38.1-42.6,50.3-19.54,9.49-44.24,22.57-67,24.7-13-160.79,24-316.74,72-469.2,23-73.1,46.4-146,74.8-217.1,25.5-63.8,53-127.3,70.2-194,35.7-138.3,8.2-277.2-46.1-406.9-55.4-132.3-133.6-253.9-243.8-346.9-60.9-51.3-130-90.7-192.9-139.3-24.86-19.19-51.17-41.58-81.38-52.42C2278.67,564.09,2286.78,562.33,2294.8,560.7Zm-58.07,12.44A110.18,110.18,0,0,1,2253,575.5c37.1,8.3,68.8,37.4,98.1,60.1,54.7,42.4,115.1,76.4,169,120,111.3,90,191,207.3,248.2,337.7,59.6,136.1,89.6,281.7,49,427.3-17.7,63.5-44.1,124.1-68.4,185.2-26.5,66.5-48.3,134.7-70,202.9-50.6,159.2-90.3,322.1-75.1,490.3a8.43,8.43,0,0,0,2.49,5.33q-31,10.64-62.27,20.66c5-15.6,3.21-30.82-.62-48.49-9.7-45-13.5-87-13.7-133.2-.4-88.2,11.2-168.2,43.9-250.2,14.6-36.7,28.4-74.7,46-110.1,19.3-38.6,43.3-74.8,60.6-114.5,13.6-31.1,22.3-63.8,30.8-96.6,11-42.4,25.4-82.7,39.4-124,24.9-73.6,42.5-152.8,39.9-231-2.8-84.6-43.6-160.2-81.2-233.9-19-37.2-33.6-76.3-52.7-113.3-16.5-31.8-38.2-54.9-66.5-76.5-79.1-60.3-152.5-127.6-229.8-190.3-38.3-31.1-78.8-60.2-115.9-92.6-13.43-11.71-25.62-22.84-39.31-31.32C2215.52,577.32,2226.15,575.31,2236.73,573.14ZM2019.3,584.8c48.6-12.4,92.3,0,141-1.4,6.34-.18,12.71-.6,19.09-1.19,29.86,10,51.79,36.53,76.31,55.79,34.5,27.2,69,54.4,103.1,82.1,62.1,50.6,120.2,106.8,183.6,155.5,31.6,24.3,66.9,45.2,89.1,79.2,18.2,27.8,29.2,59.5,42.9,89.6,31.2,68.8,73,133.2,92.2,207.1,20.7,79.8,6.7,166-14.8,244.2-9.9,35.8-23.6,70-35.4,105.1-12.7,38-20.5,77.5-32.2,115.8-21.6,70.8-66.7,129.8-94,198.1-27.5,68.7-59.8,137-68.9,211.1-4.8,39-5.9,78.5-5.7,117.7.2,37-.6,74.7,7.7,110.9,6.07,26.26,15,52.65,3.41,76.13q-21.8,6.94-43.62,13.73c-3.8-8.72-5.68-20.59-6.69-30.36-4.3-41.8-1.6-83.9-.4-125.8,2.2-75.1-2.5-146.6,18.9-219.7,43.7-149.6,122.4-289.2,188.4-429.8,27.7-59.1,50.9-120.2,55.9-185.9,5.3-69.5-5.3-142.4-25.4-208.9-22.5-74.5-62.5-139.4-96.6-208.7-36.4-74-76.6-134.1-145.5-181.5-31.6-21.7-65.6-39-98.5-58.6-38.2-22.7-70.9-52.8-105.8-80-60.3-47.1-137-74.4-189.3-131.3-6.2-7.2-16.2,2.9-10,9.7,48.8,53.1,118.4,78.8,175.6,120.9,28.4,20.9,54.7,44.5,82.9,65.8,33.3,25.1,70.4,43.2,105.8,64.8,32.1,19.6,63.2,41.3,89.8,68,32.3,32.3,54,71,74.1,111.5,35.1,70.9,76.9,138.3,101.1,214.2s36.5,161,24.6,240.3c-11.6,77.1-48.4,146.3-81.6,215.9-36.5,76.6-73.8,153.2-107.7,231-30.8,70.7-61.2,145.5-68.7,222.9-5.7,58.7-2,118.5-3.6,177.4-1.05,37.32-6.27,86.38,7.86,122.77l-35.44,11c-2.82-36.15-10.64-71.69-11.92-108-1.5-41.4,2-83,4.2-124.3,4.2-81.7,8.5-164.8,30.4-244,21.7-78.4,60.9-151.7,89.7-227.7,29.1-76.9,69-147.2,101.4-222.4,29.2-67.8,31.2-133.6,20.4-206-10.7-72.1-27.4-137.8-63-201.9-69-124.9-175-219.1-284.6-307.6-30.1-24.3-61.1-48.2-95.1-66.9-26.5-14.6-54.6-23.2-82.7-33.8-55.6-21.1-140.1-53.7-163.9-113.8a7.37,7.37,0,0,0-6.7-4.81C1987.13,594.22,2003.07,589,2019.3,584.8Zm-273,56.8q23.7-5.86,47.51-11.22a7.05,7.05,0,0,0,1.69,5.52c42.9,51,99.7,82.3,161.2,105.8,74.1,28.3,149.7,51.1,220.1,88.4s125.8,85.1,175.5,146.9c20.4,25.3,40.1,51.2,62,75.3,23.6,26,51.3,47.2,76.3,71.7,112.2,110.2,98.1,295.7,22.2,423.2-17.7,29.8-38.9,57.3-56.9,87-20.6,33.9-31.6,69.5-44.6,106.7-25.2,72-57.3,141.9-74.6,216.4-19.2,82.6-19.3,173.4-12.1,257.5,7.73,89.73,38.52,176.21,39.37,266.64q-26.52,8.45-52.93,17.22c2-70.75-21.69-139.87-32.94-209.16-14.3-87.8-26.1-173.8-21.7-262.9,3.9-78.8,16.4-157.3,41.7-232.2,26.8-79.7,73.7-148.6,106.7-225.4,54-125.8,94.3-296.8,14.9-420.9-41.6-65-112.8-100.6-171.1-148.5-59.9-49.2-117.8-100.4-182.9-142.6-74.8-48.5-156.2-87-241.8-111.8-44.6-13-87.2-23.9-124.2-53.7-13.47-10.87-26.65-22.9-41.23-32C1687.87,654.39,1717.2,648.8,1746.3,641.6ZM2034,2530.7c-7.7,25.8-27.4,31.1-52.2,33.4-36.8,3.4-74.8,2.2-111.8,3.8-48.1,2.1-96.4,3.3-144.5.9-51-2.5-101.1-9.6-149.9-25.1-46.3-14.7-90.1-35.2-134.7-54.1-44.1-18.8-90.4-31.8-135.2-48.9-41.5-15.9-82-34.7-123.5-50.8-84.9-32.8-175.1-64.5-244.8-125.2-24.56-21.33-36.23-50.65-53.25-76.94-.49-89.06-12-177.93-8.65-267,2-52.2,13.6-103.3,20.8-155,6.7-47.9,8.1-96.1,8.5-144.3.4-51.6-.6-103.5,3.7-155,4.2-50.3,22-97.9,28.6-147.8,12.5-94.8-45.3-169.6-76.1-254.3C832,984.6,832.6,888,910.4,838c53.3-34.3,120.8-43.6,182.8-48.4,37.1-2.9,74.5-4.7,111.7-2,53.3,3.8,98.7,20.6,147.4,41.2,37.9,16.1,78.4,19.8,119.1,22,49.6,2.7,96.5,9.3,144.7,21.7,85.3,21.9,160,56.1,233.8,104.1,71.1,46.2,151.4,85.1,206,152,30.8,37.7,54.9,81.8,82.5,121.9,26.6,38.6,40.6,80.8,45.4,127.2,3.9,37.4,5.7,82.1-12.2,116.3s-51.1,62.1-77.5,89.8c-15.7,16.4-31.9,32.7-37.3,55.5-8.2,35-3.3,74.6-4.1,110.1-2.4,101.2-3.7,201.7-.1,303,3.5,100.9,7.9,202.1,2.1,303.1-2.4,41.9-8.3,83.2-12.6,124.9-1.08,10.68-2.08,21.56-3.93,32.23a6.76,6.76,0,0,0-1.77,6.47c.09.4.19.78.28,1.18C2035.91,2523.79,2035,2527.27,2034,2530.7Zm17.2-11.82c6.93-33,8.92-68.3,12.4-101.58,5.6-52.1,7.5-104.6,7.8-157,.5-106.1-6.3-212-7.9-318.1-.8-53.5.7-107,2.3-160.5.8-27.1,1.5-54.1,1.6-81.2.1-19.5-1.6-40.8,3.4-59.9,8.3-31.5,42.2-56,63.6-78.7,24.4-25.9,50.3-52.5,59.2-87.9,17.8-70.8,3-157.1-35.2-218.6-48.1-77.7-96.6-154.2-171.7-208.2-35.9-25.8-74.2-47.9-111.7-71.4-38.4-24.1-75.2-49.6-116.4-68.9-79.4-37.3-170.4-63.2-258-68.8-56.8-3.6-107.6-6.9-160.3-30.4-38.9-17.3-79.3-28.9-121.7-33.3-70.9-7.3-148.2-1.7-217.9,13.7-10.41,2.29-20.93,5-31.39,8.15,33.25-20.85,73.2-23.59,111.29-29.75,45.8-7.4,90.5-20.2,135.4-31.4,46.2-11.6,92.8-23.6,140.6-24.6q11-.25,21.78-.85c78.45,29.9,159.38,52.38,240.22,74.75,81.5,22.5,167.6,42,243.5,79.9,66,32.9,126.1,78.2,188.6,117.1s116.4,93.3,164.8,148.4c48.7,55.3,76.9,123.5,95,194.5,19,74.4,25.9,156.2-15.3,223.7-75,123.2-122,272.8-135.6,416a1545.8,1545.8,0,0,0,.4,287.8c9.17,96.26,38.92,188.78,41.94,285.75C2152,2555.81,2068.32,2580.85,2051.2,2518.88Zm166.1,12.92-1.22.46c-3.18-81.2-24-159.2-36.68-239.26-14.6-92.6-13-190.8-8.7-284.3,7.8-166.7,64.1-324.1,145.6-468.2,33-58.4,26.6-134.1,13.2-197.6-13.7-65.2-37.4-134.2-76.1-189.1-84.2-119.4-213.1-199.7-335.3-274.6-78.6-48.1-166.8-72.5-254.9-97.2-84.36-23.66-169.24-45.83-251.75-75.26a414.79,414.79,0,0,0,58-11.14c54.74-14.77,110.49-23.08,166.14-32.28,28.3,10.43,50.38,37.95,75.16,54.08,27.8,18.2,59.2,27.5,90.9,36.3,75.3,21.1,147.1,50.6,214.8,89.8,71.9,41.7,135.2,93.7,198.8,146.9,26.3,22,52.7,43.8,80.3,64.1,32.1,23.7,66.1,43.2,92.1,74,107.5,127.7,56.5,324.2-7.4,460.3-31.9,67.9-71.9,130.2-96,201.8-22.5,66.8-35,136.6-40.3,206.7-6.6,86.2.3,169.8,13.9,254.9,13,81.76,42.75,167.9,38.77,251.32C2270,2512.51,2243.57,2521.87,2217.3,2531.8Zm160.89-54.87c-1.77-82.48-28.18-161.27-37.39-242.83-9-79.1-9.6-165.3,3.8-243.9,13.4-78.9,46.6-152.5,73.9-227.1,14.1-38.6,24.3-77.9,45-113.7,20.5-35.5,46.3-67.7,66.6-103.5,61.9-109,85.3-273.5,12-382.9-38.1-56.8-97.3-95.3-140.8-147.8-44.2-53.5-84.4-110-141.4-151-69.2-49.7-148.3-82.3-228-110.8-83.06-29.67-165.82-56.79-224.93-125.9,25.21-5.4,50.55-10.18,76-14,22.6-3.4,45.6-4.9,68-9.8,5-1.09,10-2.33,15-3.66a5.66,5.66,0,0,0-2,7.16c18.1,45.6,65.9,73.7,107.6,94.8,49.8,25.2,105.5,37.8,153.6,65.9,62.5,36.5,119.3,86.6,173.6,134.2,55.6,48.6,106.9,102.9,149.9,163,42.2,58.9,77.7,124.7,92.8,196.1,17.3,81.9,30,168.4-.5,248.5-27.8,73.2-70.2,139.9-98.5,213.2-29.3,75.8-65.2,149.8-91.4,226.7-28,82.3-34.5,170.4-39.1,256.6-2.3,43.2-5.4,86.6-5.4,130,0,43.11,9.55,85.14,12.34,128Q2398.55,2470.51,2378.19,2476.93Zm119.37-20.47,7.6-2.4A17.69,17.69,0,0,1,2497.56,2456.46ZM2724.71,2360c.67-.56,1.35-1.12,2-1.68,29.1-25.1,10.6-81.6,5.3-113.6-4.1-24.5-9.1-49.3-8.2-74.3,1.8-46.6,9.2-94.2,16.5-140.2,13.8-85.9,35.7-170.1,73.1-249,31.7-66.8,70-131.4,88.5-203.6,20.5-79.9,26.9-168.7,14.8-250.3-5.4-36.2-16.8-70.3-27.1-105.2-12.1-40.9-15.8-82.9-24.6-124.5-15.7-74.4-50-140.9-96-201.1s-84.6-135.2-151.6-174.6c-38.9-22.8-72.7-40.8-102.3-76-27-32.13-50.93-67.18-69.65-104.72,35-9.17,80.83,53.07,99,73.92,32.3,37.2,64.7,68.5,102.2,100.8,110.5,95.3,199.5,202.5,254.1,339.1,51,127.6,83.1,271.8,77.8,409.5-5.9,153.3-63.4,293.1-95.8,441.1-17.1,78.1-25.7,158-45.2,235.5-13.8,54.92-34,118.27-14.88,174.29-27.76,13.64-55.76,26.81-84.32,38.91C2733.78,2356.22,2729.24,2358.1,2724.71,2360Zm237.59-98.38c-21.47,12.36-44,23.69-67.19,32.64q27-13.48,54.09-26.84c6.23-3.06,12.64-6.17,19.13-9.37C2966.36,2259.22,2964.36,2260.41,2962.3,2261.6Zm119-376.9c2.3-41,2.6-82.1,4.6-123.1.34-7,.76-13.95,1.09-20.95q2.79,11.26,5.51,22.15c17.6,71,37.4,141.8,44.1,214.9,3.3,36.1,7.2,75.9-9,109.6a181.76,181.76,0,0,1-13.53,23c-3.49-1.07-7.65.15-8.77,4.7a120.33,120.33,0,0,1-4.12,13.06c-3.82,5-7.69,10-11.48,15.05C3069.62,2059,3076.57,1970.3,3081.3,1884.7Zm-7.4-445.4c-26,65.75-20.29,142.48-6.33,215.55-3.51,1.54-6.19,5.73-4.07,10.25,17.8,37.2,8.1,84.1,7.5,124-.6,41.5-3.3,82.9-5.5,124.3-4.4,82.5-8.2,167.4,14.2,247.9a7.65,7.65,0,0,0,1,2.18c-15.79,19.75-36.76,35.88-59.19,49.75,3.16-16.2,2-34.38-.09-55.23-15.4-159.4-24.2-321-2.1-480.2,10.2-73.7,27.7-146.2,34.2-220.4,6.4-73.4-.2-144.6-21.2-215.2-21-70.8-52.3-137.9-79.6-206.3-23.9-59.8-46.2-120.2-70.7-179.9-50.59-123.48-110.4-247-204.83-342.81,56.48,22.09,86.95,82.24,119.33,131.81,49.8,76.2,107.5,146.7,155.2,224.5,47.1,76.8,81.4,157.9,101.6,245.8,19.4,84.2,27.6,171,62.7,250.8.94,2.12,3.39,3.39,5.79,3.55C3102.47,1391.06,3084.12,1413.38,3073.9,1439.3Zm112.4-175c-1.48,36.73-32.13,66.57-60.91,87.31-36.78-88.2-42.48-185.54-67.49-277.21-23.5-86.2-62.7-164.3-110.8-239.2-48.6-75.8-105.7-145.7-153.7-221.8-24-38.07-50-78.06-87.33-101.67,36.93,8.94,75.8,9.89,111.73,22.37,41.9,14.5,78.3,44.2,114.3,69.2l5.61,3.9c70.81,136.22,122.17,279.59,171.59,424.7,17.8,52.3,42.8,101.8,60.5,154.1C3178.1,1210.6,3187.4,1238,3186.3,1264.3Zm25.8-3.6c-5.08,7.6-10.57,14.9-16.25,22.06a108.45,108.45,0,0,0,1.85-47.36c-11.1-64.2-42.9-123.8-66.3-184-29.7-76.5-52.4-155.6-82.5-232.1-26-66.36-54.68-131.59-86.78-195.19,15.17,10.53,30.25,21.16,45,32.34,46.46,54.7,77.11,124,103.53,189.75,43.7,108.9,80.8,219.8,113.1,332.5C3232.7,1210.2,3230.1,1233.6,3212.1,1260.7Zm9.3-134.3c-10.9-35.3-20.1-71-31-106.3-17.8-57.9-40.6-114.1-63-170.3-20.83-52.32-43.92-106.83-74.79-155.33a633.52,633.52,0,0,1,141.19,188c42.53,86.37,37.17,180.82,38,274.3C3228.3,1146.65,3224.54,1136.57,3221.4,1126.4ZM992.8,879.8c-9.4,1.7-26.5-1.5-28-13.5-1.5-11.7,18.2-16.5,26.7-15.6,8.1.9,16.9,7,17.6,15.7.9,9.9-10.1,10.8-17.4,10.2-9.1-.7-9.1,13.6,0,14.3,12.5,1,26.7-3.1,30.7-16.4,3.4-11.4-2.4-23.6-11.4-30.7-12.2-9.5-28.5-8.9-42-2.7-13.2,6-22.8,19.2-16.4,33.7,7.4,16.7,27.4,21.8,44,18.9,9-1.7,5.2-15.5-3.8-13.9M1293,942.1c-4.7-9.8-9.6-19.6-13.3-29.8-1.9-5-10.1-23.6-4.6-28.4,3.4-2.9,12.3.9,15.6,2.3,8.7,3.6,15.6,11.4,19.6,19.9,10.7,23-19.8,24.2-34.2,29.7-8.5,3.3-4.8,17.1,3.8,13.7,19.1-7.4,51.6-9.9,46.8-38.9-3.6-21.9-25.9-42-48.5-41.7-39.3.5-5.1,64.5,2.5,80.3,4,8.4,16.3,1.2,12.3-7.1m122,157.1c-1.3-21.1,16.6-39.7,37-43.3,19.2-3.3,38,15.2,29.5,34.7-9,20.7-65.6,35-72.6,6.7-2.2-8.9-16-5.1-13.7,3.8,11.3,45.2,96.9,26.4,102.1-14.7,3.4-26.7-19.7-48.5-45.8-44.8-27.6,3.9-52.4,28.9-50.6,57.5.4,9.2,14.7,9.3,14.1.1m-387.8-10.1c-11,.8-21.8,6.3-24,18-2.2,11.9,6.2,23.1,16.5,28.1,9.3,4.5,21,2.8,25.2-7.6s-1.9-20.9-11.1-25.7c-8.1-4.3-15.3,8-7.2,12.3,2.4,1.2,7,4.5,5.3,7.9-1.5,3.1-5.7.6-7.8-.8-9.2-6.1-9.1-17.1,3.2-18,9-.6,9-14.8-.1-14.2m751.6-30.4c-6-4.7-13.3-8.8-21.2-6.4-6.1,1.8-10.3,7.4-11.7,13.5-3.4,14.7,6.9,27.7,21.7,28.7a6.93,6.93,0,0,0,6.1-3.5c5-8,5.7-17.1,3.9-26.1s-15.5-5.2-13.7,3.8a19.92,19.92,0,0,1-2.5,15.1c2.1-1.2,4.1-2.3,6.2-3.5a8,8,0,0,1-6.7-3.7c-.8-1.2-.8-1.3-1.2-3.4-.2-1-.2.3-.1-1.5,0-.3.3-3,0-1.4.4-2.3.1-2,1.3-3.5s-1,.9.4-.4c.8-.7-.8.4.9-.5-1.2.7,1.2.3-.1.1,1.7.3.4-.2,1.6.2a15.26,15.26,0,0,1,5.2,2.7c3.1,2.4,7.1,2.9,10.1,0,2.3-2.5,2.9-7.8-.2-10.2M2017,1317.6c.1-25.7-2.2-42.9-19.4-62.5-35.7-40.9,12.9-64.6,50.5-55.8,32.4,7.6,38.6,51.2,18.2,74.6-17.1,19.7-45.4,28-66,43.5-7.2,5.4-.1,17.8,7.2,12.3,26.8-20.1,69.5-30.9,80.9-66.1,8.8-27.2,2.3-62.2-25.7-74.5-25.4-11.2-68.5-8.2-86.1,15.9-8.7,11.9-9.9,29.6-3.6,42.9,3.4,7.1,9.3,11.7,14.5,17.3,14.7,16.1,15.3,31.5,15.2,52.5,0,9,14.3,9.1,14.3-.1m-340.6,591.9c-22.4-1.5-36.6,8.1-52.2,23.2-20.6,19.9-33.7,31.3-64.6,23.5-15.3-3.9-22.4-9.9-21.4-26.2.8-12.3,4.9-25.3,9.3-36.7,7.7-20.1,17.5-34,40.6-35.9,12.9-1,26,1.1,38.9.6,26.1-.9,49-13.5,69.3-29.3,8.3-6.5,16.5-18.5,25.9-23,17.7-8.6,15.4,14.9,15.6,28.6.2,16.2-1.4,32.4-.4,48.6.7,10.5,4.8,23.6,2,34-12.2,46.1-66.1,4.5-90.6-4.2-8.7-3.1-12.4,10.7-3.8,13.8,25.3,9,48.2,31.1,76.8,24.7,20.2-4.5,31.9-18.2,32.4-38.8.3-14.2-2.9-28.5-3-42.8-.1-20.1,2.2-40.1-1-60.1-1.9-11.9-5.3-28.1-20.6-25.8-6.6,1-12.9,7.9-17.5,12-17.5,15.5-33.9,31.4-55.7,40.8-30.3,13.2-67.7-3.4-96,13.9-25.3,15.4-53.2,85.3-28.2,109.7,13.5,13.2,46.2,15.6,63.4,11.7,33.2-7.4,42.4-50.6,80.8-48,9.2.6,9.1-13.7,0-14.3m-417.8-403c1.3-31.6-28.6-66.2-19.3-97.6,3.2-10.8,10.7-11.3,21.1-9.5,18.9,3.4,31.6,14.9,35.6,33.9,7.9,37.7-34.2,49.2-47.8,78.4-3.8,8.2,8.4,15.5,12.3,7.2,9.4-20.3,30.2-28.5,42.3-46.4,9.2-13.5,10.4-30.2,6.2-45.8-7.2-26.6-37.3-50.3-66.2-41.3-45.4,14.2,2.7,93,1.5,121-.4,9.2,13.9,9.2,14.3.1m-234.4,34.1c-18.8-1.3-42.2,9.2-48.1,28.5-5.5,18.1,10.2,39.4,28.9,40.8,32.3,2.5,48.1-51.3,24.3-70.1-7.1-5.6-17.3,4.4-10.1,10.1,13.1,10.3,7.6,42-9.8,45.7-11.1,2.4-23-12.2-19.6-22.6,4.4-13.2,21.8-18.9,34.4-18,9.2.6,9.1-13.7,0-14.4m20.7,268.6c-11.5-1.1-23.9,5-26.7,16.9s5.5,21.9,17,24c13,2.4,31.9-2.6,35.9-17,4.3-15.4-11.4-24.9-24.4-26.7-3.8-.5-7.6.9-8.8,5-1,3.3,1.2,8.2,5,8.8,4.6.6,16.7,3.3,14.3,9.6s-13.8,7.5-19.4,6.4c-2.4-.4-4.5-1.6-5.3-2.9a5.33,5.33,0,0,1-.4-4.1,8,8,0,0,1,3.5-4.4c2.8-1.7,6-1.7,9.2-1.3,9.2.8,9.1-13.4.1-14.3M983.6,2064c-8-3.6-11.5-12.7-13-20.8-1.2-6.4-2.4-19.4,4.1-23.7,14.7-10,33.3,31.6,9.3,37.9-8.9,2.3-5.1,16.1,3.8,13.7,35.8-9.4,23.8-72.7-12.5-66.8-31.6,5.1-22.2,61.8,1.1,72,8.3,3.6,15.5-8.6,7.2-12.3m6.3,161.6c-7.4,1.4-17.8,4.1-20,12.5-1.9,7.3,4.5,13.1,10.3,16.2a51.71,51.71,0,0,0,19.6,5.8c6.5.6,14.7-.9,16.9-8.1,3-9.8-7.5-19-13.9-24.6a7.41,7.41,0,0,0-10.1,0c-2.6,2.6-2.9,7.5,0,10.1,1.9,1.7,3.7,3.4,5.4,5.2l2,2.2.8.9c1.2,1.4-.5-.7,0,0a40.5,40.5,0,0,0,2.1,3.5c.1.1-.6-1.9-.3-.7l.2.6c0,1.7,0-2-.1-.4,0,1.2.5-2.2.1-.7l.5-1.1.7-.9c-1,1.1.7-.4.6-.4-1.3.9.3-.1.5-.1l-1.2.3-.7.1c-.8.3,2.1-.1.9-.1s-2.1.1-3.2,0l-1.7-.1c-1.7-.1,1.9.3-.3-.1-1.3-.2-2.5-.5-3.8-.8s-2.5-.7-3.8-1.1l-1.8-.6c-1.9-.7,1.4.7-.4-.2a32.39,32.39,0,0,1-3.2-1.7l-1.4-.9-.6-.4c-1.2-.7,1,1,.5.4l-1-.9c-1.2-1.1-.1-.6.1.3l-.6-1c.1.1.6,2,.3.5-.2-.7.2,2.3.2,1.1s-.3,1.6-.2,1.2c.4-1.5-1,1.8-.2.5.4-.6-1.2,1.8-.1.2l-.6.4.7-.5,2.1-1.1s-1.9.7-.3.1l1.4-.5a55,55,0,0,1,7-1.7c3.8-.7,5.9-5.3,5-8.8s-4.6-5.4-8.4-4.6m230.1-3.1c4.7-17.4-.1-29.4-18.8-31.2-3.1-.3-14.5.3-13.3-5.8s20.7-6.3,24.7-6.4c16-.5,37.9,4.5,40.2,23.7,2.7,22.5-23.3,22.2-37.8,16.8-8.6-3.2-12.3,10.6-3.8,13.7,17.1,6.3,39.2,6.9,50.5-9.9,9.4-14,5.8-32.6-5.7-44.2-13.7-13.8-33.9-15.8-52.2-13.7-14.7,1.6-38.9,10.7-27.4,30,4.2,7.2,12.1,8.9,19.7,9.7,10.9,1.1,13.5,1,10.1,13.5-2.4,8.9,11.4,12.7,13.8,3.8m563.9-34.3c-1-12.2-6.6-22.4-19.5-24.6-3.2-.5-6.3.4-8.1,3.3-3.6,6.1-6.7,13.5-4.2,20.6,2.9,7.9,11.1,10.2,18.7,10.8,9.1.7,9.1-13.6,0-14.3a15.65,15.65,0,0,1-4.6-.9c-1.2-.6-.5-.2-1.2-.9l.3.2v-.9l.3-1.4a25.3,25.3,0,0,1,2.8-6c-2.7,1.1-5.4,2.2-8,3.3,6.5,1.1,8.5,4.3,9.1,10.8.9,9,15.1,9.1,14.4,0m69.6,223c-21.4-.6-77-1.5-74.9,31.8,2,31.8,57.9,30.2,79.9,33,4.6.6,8.1-5,6.9-9-5.1-17.1-13.6-33.4-13.6-51.7,0-9.2-14.3-9.2-14.3,0,0,19.7,8.7,36.9,14.1,55.4l6.9-9c-11.3-1.5-22.8-2-34-4.1-8.5-1.5-29.5-4.1-31.5-14.7-3.8-19.5,49.4-17.9,60.6-17.6,9.1.4,9-13.8-.1-14.1m-291.2-3.6c-4.3-18.2-23.1-31.8-41.3-33.1-20-1.4-30.9,15.8-25.7,34.5,4.5,16.2,25,24.9,40.4,25.7,20.3,1.1,31-13.6,26.6-32.9-2-8.9-15.8-5.2-13.7,3.8,2.7,12-3.9,16.3-15.3,14.6-8.6-1.2-21.2-5.9-24.2-14.9-4.1-12.2,3.9-18.4,15.1-15.9,11,2.5,21.8,10.8,24.5,22.1,2,8.8,15.7,5,13.6-3.9m-214.5-680.8c-10.7-2.5-23.7-.9-29.8,9.4-5.3,9-2.5,20,5.5,26.3,8.3,6.6,21.2,9.4,31.1,5.1a19.56,19.56,0,0,0,11.8-20.7c-1.8-12-13.4-18.5-24.5-20-3.8-.5-7.6.9-8.8,5-1,3.3,1.2,8.2,5,8.8,4,.5,8.3,1.3,11.5,4a8.38,8.38,0,0,1,2.8,4.4,4.39,4.39,0,0,1-1.7,4.5,9.19,9.19,0,0,1-6.2,2c-5.5.1-15.1-3.2-15.1-9.1,0-6.2,9-7,14.6-5.7,8.9,1.9,12.7-11.9,3.8-14M1587,1516.2c-4.4-4.6-9.5-9.1-15.9-10.3-6.9-1.2-12.8,1.9-17.7,6.5a7.11,7.11,0,0,0-1.1,8.6c3.8,5.9,8.9,11.5,16.1,12.8s13.8-2.3,18.6-7.6c6.2-6.7-3.8-16.8-10.1-10.1-1.5,1.6-3.4,3.9-5.8,3.7-2.9-.2-5.2-4-6.6-6.1-.4,2.9-.7,5.8-1.1,8.6,1.9-1.7,3.6-3.2,6.2-2.3,2.9,1.1,5.3,3.9,7.3,6.1,6.4,6.8,16.5-3.3,10.1-9.9m235.9-155.3c-10.5-2.8-22.8-2.6-30.9,5.5a23.91,23.91,0,0,0-6.6,13.7c-.4,3-.9,7,0,10,1.1,3.5,4.2,4.9,7.3,6.2a56.63,56.63,0,0,0,19.1,4.4c2.6.2,6,.4,8.5-.4,3.8-1.2,5.1-4.8,6.5-8.2,4.7-12.2,1.5-24.9-11-30.4-8.3-3.7-15.6,8.6-7.2,12.3,7.7,3.4,7.1,8.9,3.6,15.9,2.1-1.2,4.1-2.3,6.2-3.5a38.92,38.92,0,0,1-22.5-4.2c1.2,2.1,2.3,4.1,3.5,6.1-.4-4.8-.1-10.2,4.4-13.1s10.5-1.8,15.3-.5c8.9,2.3,12.7-11.4,3.8-13.8m136.6,336.7c-4.7,9.3-6.3,22.2,2.4,29.9s20.2,3.2,26.1-5.5c6.4-9.4,8.1-23,.4-32.1s-20.6-7.4-29.3-.7c-3.1,2.3-4.7,6.1-2.6,9.7,1.8,3,6.7,4.9,9.8,2.6,2.2-1.7,4.7-3.6,7.5-3.8a4.35,4.35,0,0,1,4,1.6c2.9,3.5,1.4,9.6-.7,13.3-.9,1.6-2.6,3.9-3.8,4.4l-.7.3h-.3l-1.1-.5-1-1.7-.4-1.6a15.13,15.13,0,0,1,1.9-8.6c4.2-8.2-8.1-15.5-12.2-7.3" fill="#231f20"/></svg>
