<svg xmlns="http://www.w3.org/2000/svg" viewBox="0 0 4685 2545.62"><title>breadpudding</title><path d="M4789.66,2095.86c-6.84-46.77-15.08-94.06-23.05-139.79-7.79-44.69-15.84-90.89-22.55-136.43-13.38-90.56-43-177.21-71.61-261-5.15-15.06-10.47-30.64-15.61-46-15.73-47-38.12-94.14-70.43-148.26-17.4-29.25-40.91-48.63-68-56s-57-2.66-86.49,13.73c-7.51,4.19-14.51,8.8-21.28,13.25l-1.32.88c-.87-.64-1.7-1.26-2.11-1.63-.2-.53-.49-1.6-.7-2.4a36.37,36.37,0,0,0-2.83-7.86c-13.65-26.26-30.69-41.61-50.66-45.61-18.77-3.77-38.44,2.8-58.44,19.51-38,31.72-62.32,60.58-78.74,93.59-12.31,24.73-25.71,49.58-38.67,73.61-15.14,28.08-30.8,57.12-45,86.44-8.87,18.4-20.78,30.41-41.14,41.46-59.09,32.21-123.48,49.66-196.85,53.37-45.42,2.25-77.94-16.66-99.41-57.79-14.41-27.62-19.12-60-14.83-101.83,2.89-28,8.9-56.49,14.72-84.06,1.31-6.19,2.61-12.39,3.88-18.56l.21-1c3.46-16.69,7.39-35.62-1.71-55.53a37.54,37.54,0,0,0-27.66-21.5,31.94,31.94,0,0,0-28.71,9.32l-.14.14a89.19,89.19,0,0,0-8.68,11.28q-46.2,66.88-92.35,133.76-45.37,65.74-90.77,131.48,0-8.13,0-16.25c.08-30.57.17-62.18-.26-93.25-.34-27.47-1.6-52.19-3.86-75.58-1.78-18.33-14.59-31.82-34.3-36.09-19.89-4.23-40.82,6.69-49.78,26a75.16,75.16,0,0,0-4.31,13.44l-.15.6c-19.34,75.35-64.42,139.74-108,202-7.49-19.47-5.14-40,7.14-66.13,26.44-56.28,37.12-115.27,44.1-165.63,1.88-14.21,0-31.11-5.43-47.63a38.55,38.55,0,0,0-31-26.09,37.28,37.28,0,0,0-36.26,14.85c-9.29,13-20.85,29.1-26,47.21q-2.45,8.56-5,17.14c-9.49,32.43-19.31,66-21.87,100.19-3.42,45.27-17.06,81.51-41.7,110.78-23.3,27.68-55.91,48.54-99.71,63.79-57,19.82-95.9-10.83-119.36-42.52,6-14.9,12.34-29.92,18.48-44.51,23.06-54.82,46.9-111.5,59.67-172,3.42-16.18,7.86-32.69,12.15-48.66,7.5-27.88,15.26-56.72,18.26-86.07,8.63-84.76,12.09-171.25,15.44-254.89l0-.43c.86-23.34-2.41-49.37-9.7-77.37-4.82-18.49-15-32.15-29.43-39.49s-32.44-7.53-50.52-.42c-32.17,12.68-57,31.91-73.89,57.14-25.13,37.51-50.64,78.11-62.19,125.79-5.32,22-11.89,44.3-18.24,65.88-11.05,37.54-22.47,76.35-28.09,115.83-8.49,60.23-8.11,126.18,1.17,201.65,2.23,17.7-.14,31.43-7.89,45.92-19.91,37.12-40.36,67.34-62.51,92.4-25.7,29.07-53.85,51.54-86.07,68.69-47.61,25.34-90.74,34.61-135.71,29.2-24.85-3-43.27-12-58.91-29,2.38-9.72,4.7-19.55,7-29.12,6-25.43,12.22-51.72,19.8-77.1,15.31-51.26,18.95-105.72,11.44-171.38-6.14-53.48-21.17-105.19-35.71-155.2-6.6-22.73-13.44-46.24-19.29-69.46-4.55-18-11.64-35.33-18.5-52-1.79-4.36-3.63-8.87-5.39-13.28-9.11-23.41-25.71-29.36-38-30.22-9.84-.72-33.53,1.54-40.87,37.86l-.71,3.53c-3.9,19.35-7.93,39.37-9.31,59.59-2.44,35.21-4.5,71-6.5,105.65-2.11,36.48-4.28,74.2-6.9,111.23q-.27,3.88-.52,7.81c-1.25,19.23-2.55,39.11-9.57,54.65-11.65,25.68-15,51-18.13,75.48a477.47,477.47,0,0,1-59.52,176.34c-20.25,35.27-40.64,61.22-72.5,72.07l-1.08-1.32c-21.77-26.51-21.77-26.51-22.31-51.1-1-44.88.5-78.62,4.77-109.37,4.19-29.89,0-52.65-13.45-73.77-11.31-17.78-29.26-24.75-46.85-18.19-11.6,4.32-25.27,15.29-29,27.94-4.1,13.61-8.46,34.07-5.94,54.25,6.33,50.17-6.85,96.52-20.8,145.59-4,14.22-8.22,28.92-11.83,43.58-3,12.07-9.4,25.3-19.6,40.39-.82.82-3.33,1.93-5.89,2.93-14.91-55.62-19.58-110.92-24.11-164.52-.74-8.85-1.52-18-2.32-27-4.44-48.42-13.18-91.13-26.74-130.55-8.07-23.58-18.47-39.36-32.72-49.66s-32.67-15.26-57.72-15.43c-21.32-.1-41.67,2.88-58.81,8.66q-7.12,2.4-14.19,4.81c-38,12.92-73.86,25.13-113.93,27.86-63.22,4.32-111.45,42.47-139.47,110.32-26.86,64.93-41.87,133.56-56.38,199.93-1.26,5.76-2.52,11.53-3.78,17.25-4.46,20-4.17,41.07-3.29,59.08.92,19.1,2.68,38.31,4.38,56.89,1.28,13.9,2.59,28.27,3.53,42.36.79,11.66,1.13,23.68,1.45,35.3.54,19,1.09,38.74,3.63,58.18,7.08,54.53,15.49,109.77,23.61,163.2,2.91,19.13,5.92,38.9,8.83,58.36,3.26,21.49,15.36,37.39,36,47.25,13,6.25,27.33,5.91,38.29-.9,10-6.2,15.76-16.88,15.9-29.37.09-15.87-1.65-31.68-3.33-47l-.45-4.12c-3.22-28.84-6.58-58.14-9.83-86.48-6-52.63-12.28-107.05-17.86-160.6-.81-8,.37-16.61,1.62-25.76l.36-2.65c102.27-11.33,190.27-77.16,236.82-177.82,21.23-45.91,31.76-95.24,30.44-142.65-1.26-45-13.27-86.34-34.88-120.36,10.66-5.89,23.55-8.78,40.31-9.18,24.28-.58,31,7.21,34.82,21.76,11.77,44.48,19.07,80.56,23,113.54,2.33,19.75,4.25,40,6.1,59.52,4.91,51.87,10,105.5,23.41,157.54,3.45,13.46,10.12,32.86,22.35,48.91,11.67,15.12,24.92,23.22,39.37,24.08,14.71.88,29.18-5.83,43-19.91,17.59-17.79,31.41-39.68,42.25-66.89,1.31-3.25,2.5-6.57,3.66-9.79,3.91-10.86,7.66-21.28,16.05-30.82,24.55,41.31,66.76,41.87,101.58,42.12,12.66,16.44,28.87,34.46,57.25,35,24.13.51,44.42-9,63.94-29.8,22.68-24.18,43.15-46.92,62.58-69.52,7.08-8.26,13.36-17,19.44-25.55,9-12.57,17.53-24.53,28-34.09,13.57,5,25.35,10,35.92,14.4,31.45,13.25,56.3,23.71,94.89,21,35-2.47,81-15.94,151.57-44.59a290.92,290.92,0,0,0-2.37,29.69c-.57,20.93,7.83,40,23.06,52.42,14.64,11.91,34,16.14,53.06,11.61,22.24-5.27,47.49-13.66,66.17-36.08,18.37-22.26,37.27-44.81,55.55-66.63,5.44-6.5,11-12.81,16.37-18.91.67-.76,1.34-1.51,2-2.26,19.07,1.64,34.8,10,51.36,18.86,9,4.82,18.36,9.8,28.27,13.61,42.72,16.48,82.56,15.41,118.43-3.18,16-8.32,31.48-17.86,46.43-27.09,9.37-5.77,19-11.75,28.68-17.29,5.83-3.38,10.46-7.63,14.94-11.74,5.05-4.62,8.9-8,13.07-10,5.62,13.78,13,24.86,22.31,33.66,13,12.25,29.83,19.74,50,22.27l5.72.72,4.31-3.84c2.5-2.23,5.25-4.4,8.16-6.7,7.55-6,15.36-12.15,20.9-20.86,18-28.35,35.66-58.39,53.85-91.86,3.52-6.49,6.81-13.16,10-19.61,7.19-14.63,14.12-28.73,24.05-41.69,0,1,0,2.07,0,3.1.71,37.6,1.38,73.11-5.86,107.61-7.93,37.45-1.24,69.59,21,101.15l6.12,8.68,9.63-4.5c3.83-1.79,7.88-3.32,12.17-4.94,10.58-4,21.51-8.11,29.61-16.67,13.22-14.08,23.75-30.36,33.94-46.1,2.36-3.65,4.71-7.29,7.09-10.89,6.9-10.42,13.48-21.17,19.85-31.56,5.3-8.64,10.77-17.57,16.34-26.16,26-40.34,51.45-79.78,77.48-118.89,1.12,9.42,2.19,18.45,3.23,27.24,2,16.66,3.85,32.42,5.7,48.16,5.39,45.47,29.23,83.2,72.9,115.35,33.29,24.4,68.62,31.7,100.52,31.7,21.68,0,41.79-3.37,58.59-7,6.27-1.36,12.69-2.71,18.9-4,40.65-8.51,82.69-17.3,121.26-38.85,3.68-2.09,9.31-3.05,15.27-4.07l.56-.1c1.16,2.56,2.29,5.09,3.41,7.59,5.77,12.89,11.22,25.06,18.65,36.54,10.69,16.48,30,26.47,47.31,26.47a36.8,36.8,0,0,0,18.65-4.72c3.57-2.09,7.26-4.19,10.83-6.22,27.84-15.86,56.63-32.27,73.83-65.49,24.36-46.92,48.27-89.09,73.12-129,3-4.79,5.94-9.62,8.91-14.45,20.43-33.25,41.56-67.65,68-95.14,26.17-27.25,49.48-39.87,69.29-37.52,19.14,2.28,37.77,18.74,55.38,48.92l.08.13a49.76,49.76,0,0,1,2.34,4.73c.84,1.84,1.79,3.92,2.91,5.92,34.06,62.4,63.79,134.47,93.58,226.9a63.6,63.6,0,0,0,4.47,9.79c1,1.84,1.71,3.32,2.26,4.53l-6.58-1.49c-13.91-3.14-28.31-6.39-42.92-8.12-52.93-6.16-97.14,11.1-127.84,49.95-42.29,53.65-72.85,109.82-90.84,166.94-37,117.4-57.21,237.82-60.08,357.92-2.39,101.9,22.88,195.85,75.11,279.22,34.7,55.66,78.3,84.79,133.3,89a185.86,185.86,0,0,1,28.76,4.7,89.56,89.56,0,0,0,20.7,2.49,86.91,86.91,0,0,0,35.9-8c36.45-16.27,77.83-38.55,108.37-80.39,46.59-63.65,62.15-135.19,70.51-190.4C4802.87,2271.08,4802.64,2184.26,4789.66,2095.86Zm-81.14,328.82-2.19,8.34c-5.33,7.25-10.56,14.66-15.64,21.85-25.24,35.75-49.09,69.52-87.32,89.25-49.62,25.65-102.83,12.81-138.85-33.52-26.44-34-46.08-71.4-60-114.39-12.35-38.06-20-79.83-23.32-127.7-8.85-126.45,11-251.61,59.14-372,10.66-26.93,25.31-53.21,39.47-78.62l1.72-3.08c12.54-22.54,33.18-39,65-51.9a59.88,59.88,0,0,1,54.75,4.35c19.28,11.45,38,24.31,56.08,36.74,6.59,4.52,12.87,8.84,19.14,13.07,16.74,74.32,31.22,151.65,44.22,236.2,8.59,56,12.05,113,15.4,168.2q.48,8,1,16.06C4741,2300.84,4724.47,2363.8,4708.52,2424.68ZM4333.3,1388.24c-.09,7.44-1.38,13.87-3.61,18.1-27.31,51.36-61.91,88.54-107.83,115.52.23-2.3.56-4.2,1.08-5l.08-.13c7-10.63,13.73-21.59,20.28-32.19,25.47-41.26,49.59-80.33,87.22-107C4333.16,1379.15,4333.37,1381.78,4333.3,1388.24ZM2911.08,1646.79c-17.83,40.51-39.53,66.66-68.28,82.26a41.82,41.82,0,0,1-6.87.4c-1.08-49.84,28.32-77.92,62-110.08l5.34-5.11C2916.74,1624.53,2915.24,1637.3,2911.08,1646.79Zm89.47-186.22c-24-24-32.39-27.46-68.84-34.47-7.77-39.49-13-97,5.26-192.71,11.34-59.27,26.51-127.64,63.11-188.85,16.54-27.53,36.67-46,64.52-59,11.21,14.38,16.31,32.53,16.8,58.77,1,66.2-3.45,120.07-14.11,169.53-5.69,26.48-12.51,53.3-19.1,79.23-8.41,33.1-17.11,67.33-23.67,101.57-3.72,19.64-11.41,37.2-19.56,55.8C3003.5,1453.77,3002,1457.14,3000.55,1460.57Zm-592.94,242.31c-8.49,21.22-37.19,57.19-70.06,84.4,16.48-35.1,33.91-70.58,50.77-104.91q5.13-10.45,10.27-20.92C2409.36,1674.77,2412.84,1689.79,2407.61,1702.88ZM2443,1459.29c-3.63-5.47-4.52-15.53-5.24-23.62-4.31-48.35.07-98.89,13.78-157.21,24.6,46.23,28.58,98.63,32.45,149.55.32,4.17.63,8.33,1,12.5,4.5,56.51-4.15,106.92-26.41,153.54-10.13-12.25-6.66-20-5.14-23.35C2470.48,1532.57,2467.1,1496.15,2443,1459.29Zm-771.06,438.9c-16.69,8.89-35.68,8.36-53.56-1.54-4.35-2.37-10.5-12.14-11.46-20.17-1.76-14.57-1.44-30-1.07-47.89.18-8.46.36-17.21.36-26.89v-1.88l-.55-1.81c-13.62-44.86,14.57-85.19,44.4-127.88l1.16-1.66c24.22-34.68,58-59.82,87.87-80.67,6.83-4.78,13.48-7.16,19.84-7.16,8.71,0,16.87,4.46,24.17,13.32,14.65,17.84,27.8,35.72,27.71,58.08-.25,49.57-12,97.93-34.06,139.83C1752.25,1838.42,1717,1874.2,1671.93,1898.19ZM2857.25,887.52c-.57-1.95-1.16-4-1.59-6.07l-2.08-10.27H2843.1c-2.4,0-4.46-.11-6.44-.22-5-.28-10.1-.57-15.21,1.93-13,5.66-24.27,11.19-34.54,16.94-39,21.95-76.91,28.17-116,19-34-8-70.23-28.07-110.77-61.41-6.69-5.52-10.28-12.1-10.12-18.53.16-5.84,3.44-11.29,9.51-15.78,26.64-19.76,43.53-45.74,59.87-70.88,6.77-10.42,13.17-20.26,20.26-29.74,19.07-25.5,38.33-53.24,50.07-83.31,30.27-77.39,62.59-169.93,72.81-269.58,6.23-61.7,3.59-112.7-8.3-160.44-7.3-29.73-20.3-55.81-38.64-77.5-5.31-6.31-24.44-27.21-47.68-31.46-47-8.66-88.38.47-123.13,27.14-26.32,20.19-43.56,46.32-60.23,71.59-3,4.54-6.1,9.23-9.19,13.8-48,71-74.48,150.37-78.68,235.74-1.73,34.68-2.5,68.91-3.31,105.14-.32,14.35-.65,29.12-1,44.11C2337.85,635.62,2297.29,697,2263.44,751c-6.22,9.92-13.85,17.62-20.9,21.11l-21.86,10.77c-55.45,27.36-112.79,55.65-170.39,80.13a205.54,205.54,0,0,1-122,12.44c-33-6.71-53.46-19.45-62.54-39-17.92-38.28-32.86-83.22-7.83-126.33,23.29-40.06,10-75.25-4.08-101.39-8.07-15.09-23.53-24.08-39.36-22.87-14.94,1.13-27,10.76-32.33,25.75-8,22.67-24.61,32.5-45.64,44.94-36.12,21.39-88.35,56.24-124.87,111.67-17.36,26.33-37.18,52-56.36,76.79l-10.32,13.38c-8.07,10.55-17,21.46-27.38,29.83-63.19,51.12-135.87,85.23-198.64,111.86-26.94,11.41-59.4,14.51-87.71,16.51-33.87,2.42-63.58-10.13-79.47-33.57-16.44-24.25-16.12-57,.92-92.25,9.65-19.94,24.18-31.34,48.56-38.13,67.43-18.57,133.75-53.4,208.67-109.59a140.21,140.21,0,0,0,25-23.59l.07-.09c18.64-23.39,18.79-48.64.38-73-13-17.17-30.32-28.24-49.93-32-19.46-3.74-40.8-.14-61.72,10.4-11.57,5.81-22.7,12.44-33.47,18.85-12.74,7.58-24.78,14.75-37.51,20.7a283.67,283.67,0,0,0-110.29,91.55c-19.7,27.52-40.16,37-73,34-5.25-.49-10.49-.85-15.56-1.19-20.84-1.42-40.53-2.77-58.66-12.69-18.34-10.06-37.59-18.72-56.21-27.1-13.35-6-27.15-12.22-40.29-18.81-39.28-19.77-89.3-36-132.59,9.59-3.52-3.17-7-6.39-10.43-9.54-12.76-11.79-26-24-41.21-33.41-32.74-20.21-72-22.5-120.16-7-27.69,8.92-49.72,7.09-73.69-6.13C486.79,665,451.9,660,419.66,669.18c-28.1,8.07-53.3,20.64-74.89,37.38a194.24,194.24,0,0,0-53.2,63.25q-3.69,7-7.41,13.94C257.05,834.63,229,887.23,219.44,947.39c-1.72,10.85-5.39,21.61-9.27,33-1.06,3.12-2.15,6.32-3.2,9.53a56.46,56.46,0,0,1-1.05-10.32c.2-23.42.3-47.21.39-70.23.27-67.52.55-137.33,3.6-205.82,1-23.08,1.31-46.52,1.61-69.19.86-65,1.76-132.26,19.33-196.23,7.49-26.88-5-54.16-31.23-67.91-12.43-6.48-26.92-6.76-38.76-.74a35.71,35.71,0,0,0-19.34,26.82,155.25,155.25,0,0,0,.34,47.29c8.68,52.29,16,114.16,4.54,176.47-2.08,11.19-1.84,22.28-1.61,33,.14,6.47.27,12.59-.09,18.58-1.54,26.39.77,52.8,3,78.33,3.76,43,7.3,83.6-6.07,123.88l-.61,1.87,0,2c-.55,34.18-2.64,69-4.66,102.78-3.78,63.2-7.69,128.55-1.88,193.49,3.32,36.45-.32,65.87-11.45,92.57-4.12,9.77-8.79,22.65-8.4,35.67.35,11.14,4.08,26.5,13.5,36.22,10.78,11.13,23.19,17,35.57,17a39,39,0,0,0,6.72-.59c15.66-2.75,29-14.76,37.53-33.84,5.17-11.63,7.1-23.87,8.8-34.66,1-6.23,2.56-16.25,4.57-19.48l18.47-8c25.51-11.07,45.66-19.81,65.41-28.28,8.25-3.54,16.47-7.42,24.42-11.16,18.53-8.74,36-17,54.37-21.6,30.38-7.71,56.79-23.28,85.64-50.49,12.28-11.58,23.94-24,35.21-35.93,9.94-10.55,20.21-21.46,30.71-31.58C568.57,1047.88,594,1008,615.58,954.3c12-29.75,18.52-54.88,20.45-79.11,2.37-29.83-2.4-57.19-14.6-83.68-2.64-5.7-3.73-12.88-4.89-20.48l-.15-1c23.6-8,39-9.94,50.51-6.71,12.28,3.46,23,13.81,37,35.74,18.06,28.29,24.73,58.84,20.38,93.4l-3.39,27c-6.84,54.35-13.9,110.55-21.3,165.73-3,22.46,2.79,41.57,17.14,56.73,14.64,15.7,35.63,20.26,54.72,11.94,12-5.15,25.61-18.44,27.54-31.8,2.1-15,4.57-30.27,7-45,9.55-59.11,19.43-120.24,9.31-182.94a154,154,0,0,1,.34-51.82c1.77-9.43,7.17-38.13,16.21-42.81,7.15-3.71,24.72,3.38,41,10.8A145.18,145.18,0,0,1,888.22,818c47.88,29.25,101.49,46.69,159.41,51.83,7,.59,14.27,2.91,21.33,5.14l2.75.87c3.66,14.08.45,26.66-3.19,41-1.43,5.6-2.91,11.39-4,17.36-6.8,39.06,1.86,77,24.37,106.88,22.77,30.19,57.39,49.18,97.51,53.47,58.62,6.19,109-1.51,154.19-23.54,30.51-14.93,60.57-31.7,89.64-47.92,12.33-6.87,25.08-14,37.63-20.82,3.3-1.79,6.4-3.74,9.39-5.62,9.55-6,15.92-9.7,24-8.67.48.8,1,1.63,1.45,2.47,3.57,6.09,7.61,13,12.86,19.36,16.48,19.76,33.42,31.86,51.79,37,18.53,5.17,39.07,3.42,62.82-5.37,12.14-4.52,23.08-11.58,30.81-19.88,22.69-24.37,48.41-52,71.11-80.93,14.24-18.19,26.89-37.23,40.27-57.4q4.53-6.84,9.24-13.89c5.72,6.18,10.23,11.16,12.77,16.39,16.27,33.47,44.71,48.44,73,59.62,51.4,20.29,105.94,20.37,162.12.25,37.71-13.5,74.63-30.27,110.33-46.5,18.8-8.54,38.24-17.38,57.49-25.58,5.26-2.25,11.45-3.62,18-5,.15,1.1.29,2.19.43,3.27,1.49,11.31,2.89,22,6,32.33,12.1,39.93,40.31,60.59,86.27,63.18,29.24,1.6,57.19-3.41,85.46-15.33,22.68-9.55,45.49-23.48,71.77-43.82,10.16-7.84,20.29-16.07,30.11-24,7.15,5.65,14.12,11.25,20.92,16.72,20,16.06,38.87,31.22,59,45,53,36.45,108.57,48.44,165.08,35.64,44.58-10,83.37-35.14,115.29-74.57C2861,900.48,2858.84,893,2857.25,887.52ZM2492.64,670.57a199.11,199.11,0,0,0,21.29-33.86c10.75-21.17,12.92-39.74,6.46-55.21-6.93-16.58-22.93-28.68-48.91-37-2.06-.69-4.11-1.45-6.49-2.33l-.18-.06c-3.82-12-2.31-25.31-.73-39.36.38-3.32.76-6.76,1.08-10.15.86-9,1.6-18.19,2.31-27.06,1.91-23.76,3.89-48.34,8.51-71.58,7.88-39.88,19-73.78,34.09-103.63,17-33.73,38.56-61.47,65.88-84.82,22.18-19,43.67-29,65.69-30.44,17.3-1.14,24.29,3.1,31.22,18.86,23.23,52.93,30.37,109,21.84,171.31-7.15,52.16-18.6,101.76-34,147.41a656.48,656.48,0,0,1-63.85,136.16c-18.06,29-39.69,56.14-62.59,84.82-8,10-16.16,20.25-24.38,30.82-11.1-14.35-15.15-29-19.38-44.26-1.3-4.67-2.64-9.5-4.18-14.28C2482,692.69,2484,681.45,2492.64,670.57Zm-44.26,150.2c-14.91,20.58-33.4,34.9-56.34,43.7-20.79,8-45.53,11.62-77.75,11.51-3.4,0-7.68-2.51-10.65-6.2-2.27-2.83-3.45-6-3-8.15.57-2.71,1.12-5.52,1.68-8.38,2.73-14.08,5.83-30,13-36.86,3.94-3.75,7.92-7.6,11.76-11.32,26.84-26,52.29-50.7,87.37-62.69,14.41,16.39,20.73,36.78,27.38,58.24C2443.9,807.23,2446,814,2448.38,820.77Zm-752.12,32.9c-11.71,27.12-27.6,48.45-50.38,68.27-19.73,17.19-23.73,19.89-50.45,25.08-2.77-16.72,9-28.19,17.07-33.95,9-6.35,17.81-13.25,26.35-19.92C1656.29,879.51,1674.17,865.55,1696.26,853.67ZM1246.64,752.78c10.2-12.89,20.91-22.12,33.36-29.08,12.84-7.17,28.15-12.18,47.52-15.35C1301.32,728.16,1275.27,742.47,1246.64,752.78ZM250.9,1175.16c-.69-.14-1.74-.4-2.62-.62l-.06-.16c-1.2-3.14-2.83-7.44-2.6-9.3C250.73,1124,256.09,1088,262,1055.14c1.09-5.86,5.64-12.72,10-19.35.78-1.18,1.55-2.34,2.29-3.49C324,956.23,389,892.9,451.94,835.77c17.83-16.26,42.45-29,77.12-40,34.66,31.29,30.43,70.47,20.44,108.34-17.21,65.67-53.81,123.12-111.9,175.64C390.59,1122.31,333,1151.75,250.9,1175.16ZM329.39,854.5a104.66,104.66,0,0,1,7.08-11.56c.79-1.17,1.57-2.34,2.33-3.49l.09-.13a202.6,202.6,0,0,0,11.78-22.15c7.13-14.9,13.3-27.78,25.93-35.54,4.45-2.73,8.84-5.61,13.09-8.4,11.26-7.4,21.89-14.39,33.19-18.35a35,35,0,0,1,11.49-1.53c3.9,0,8.18.3,12.76.62l1.8.13a113.14,113.14,0,0,1-18.74,19.07c-27.36,22.36-54.48,44.13-83.18,67.18Q338.24,847.39,329.39,854.5Z" transform="translate(-114.57 -87.03)" fill="#231f20"/></svg>