<?xml version="1.0" encoding="utf-8"?>
<!-- Generator: Adobe Illustrator 21.1.0, SVG Export Plug-In . SVG Version: 6.00 Build 0)  -->
<svg version="1.1" id="Layer_1" xmlns="http://www.w3.org/2000/svg" xmlns:xlink="http://www.w3.org/1999/xlink" x="0px" y="0px"
	 viewBox="0 0 176.1 139.5" style="enable-background:new 0 0 176.1 139.5;" xml:space="preserve">
<style type="text/css">
	.st0{fill:#EE4036;}
	.st1{fill:#A56942;}
	.st2{fill:#FFE78F;}
	.st3{fill:#F3AC75;}
	.st4{fill:#8BC540;}
	.st5{fill:#F7DEBA;}
	.st6{fill:#231F20;}
</style>
<title>loader</title>
<path class="st0" d="M145.2,91.8l-37.8,1.8c-6.3,0.3-12.6,0.6-18.9,0.9c-3,0.1-6,0.3-9,0.4c-1.1,0.1-2.3,0.2-3.4,0.5
	c-0.5-0.4-1.1-0.6-1.8-0.7c-16.8-0.5-33.6-0.5-50.4,0c-0.4,0-0.8,0.1-1.2,0.3c-0.4-0.2-0.8-0.3-1.2-0.5c-3.3-1.6-6.3,3.4-3,5
	c14.9,7,31.1,6.4,46.8,3.2c0.2,0.7,0.6,1.3,1.2,1.8c11,8,25.4,7.4,38.3,6.2c7.6-0.7,15.2-1.8,22.7-3.5c7.3-1.6,12.9-5.9,19-9.9
	C148.8,95.7,148.3,91.7,145.2,91.8"/>
<path class="st1" d="M162.1,73.6c-0.2-2.6-3-3.7-4.9-2.1c-0.7,0.5-1.5,0.9-2.3,1c-0.3-1.1-0.7-2.1-1.5-3c-2.2-2.4-5.8-1.8-7.6,0.7
	c-1,1.3-1.3,2.8-1.2,4.4c0,0.1,0,0.3,0,0.4c-0.4-0.2-0.8-0.4-1.3-0.6c-3.3-1.2-6.7-2-10.2-2.4c-2.8-0.3-7.3-0.5-8,3
	c-0.2,1-0.1,1.7,0.3,2.3c-1.7,0.9-3.1,2.4-5.2,2.9l-0.1,0c-1.4-0.8-2.7-2.4-3.9-3.2c-0.3-0.8-0.6-1.7-1.2-2.3
	c-2.1-2.2-4.6-0.9-6.5,0.8c-1.2,0.5-2.2,1.4-2.5,3c-0.1,0.5-0.1,1,0.1,1.4c-0.2,0.2-0.4,0.4-0.6,0.6c-0.6,0.7-1.1,1.6-1.7,1.1
	c-0.6-0.5-1.1-1.8-1.5-2.5c-0.6-1-1.3-2-2.3-2.8c-1.1-0.9-3-1.4-4.1,0c-0.5,0.6-0.9,1.2-1.2,1.8c-1.3,0.5-1.9,1.9-1.7,3.2
	c-0.1,0.2-0.2,0.4-0.3,0.6c-0.7-0.4-1.3-0.8-2-1.1c-1.7-0.8-3.5-1-5.4-0.7c-3.2,0.4-6.4,1.8-9.1,3.6c-1.3,0.9-2.6,1.9-3.7,3
	c-1.1,1-2,2.3-3.2,3.3c-2.2,1.7-3.6-1.7-4.8-3.2c-1.7-2.2-3.8-3.7-6.3-4.7c-0.2-0.3-0.5-0.5-0.8-0.6c-1.9-0.9-3.8-1.3-5.8-1
	c-0.1,0-0.2,0-0.2,0c-1.3-0.1-2.5-0.2-3.8-0.2l-0.3-0.1c-3.9-1.4-8.9,0-12.6,1.2c-0.1,0-0.2,0.1-0.3,0.1c-2.9,0.4-5.8,1.1-8.5,2.3
	c-3.1,1.3-6.1,3.7-9.6,3.8c-0.6,0-1.3,0.2-1.8,0.6c-1.1,0.3-1.9,1.2-1.9,2.6c0,1.9,0.8,3.3,1.9,4.3c0.6,0.6,1.5,1.1,2.4,1.3
	c1.5,0.6,3.3,0.8,4.9,0.8c2.4,0.1,4.9,0,7.3-0.1c1.1,0,2.3,0,3.4,0c3.1,0,6.1-0.2,9.1-0.6c10.7-0.3,21.3,0.3,32,0.7
	c11.5,0.4,23-0.3,34.5-1.1c11.2-0.8,22.7-1.2,33.8-2.7c5.1-0.7,10.3-2.1,14.2-5.6C160.3,84.4,162.4,78.9,162.1,73.6z"/>
<path class="st2" d="M90.5,76.5c1-2.6-2.1-3.9-4.1-3.4c-1.4,0.3-2,1.4-3.2,2.1c-1.3,0.8-3,1.2-4.4,1.8c1.8-4.1-2.5-5.3-5.6-4
	c-3.2,1.2-4.4,2.9-7.8,1c-1.3-0.7,0-2.3-1.7-0.4c-0.4,0.5-0.6,1.6-1.1,2c-0.2,0.1-3.5,1.7-3.6,1.7c-2,0.4-2.5-0.6-2.9-1.9
	c-0.6-1.7-0.4-3.7-2.9-3.9c-1.4-0.1-2.9,1-3.9,1.7c-1,0.7-2.9,2.2-4.3,1.3c-0.2-0.1-0.5-1.9-0.9-2.4c-0.9-1.1-2.3-1.6-3.8-1.4
	c-2.5,0.4-4.8,5.9-6.7,4.8c-2.2-1.4,1.4-6.2-2.3-7.2c-3.1-0.8-3.5,2.2-4.4,4.2c-1.1,2.4-5.3,6.4-5.5,1.5c-0.1-2.3,0.5-6.4-3.5-5
	c-1.6,0.6-2.3,2.6-3.4,3.7c-0.9,0.8-1.9,1.3-2.6,2.3c-2.2,3.1-9.9,18.4-3.9,19.4c2.5,0.4,2-1.3,3.3-2.3c1.1-0.9,2.8-2.3,4-3.1
	c2.1-1.4,5-2,7.4-2.8c2.4-0.8,4.9-1.5,7.3-2.2c2.4-0.7,5-0.6,7.2-1.5c0.4-0.1,0.4-0.7,0.9-0.9c0.8-0.3,2-0.3,2.9-0.4
	c2.1-0.3,4.2-0.4,6.3-0.3c3.6,0.2,7.4,0.8,10.8,2.2c2.3,1,2.4,1.7,3.8,3.6c0.3,0.5,2.7,3.5,2.4,2.5c1,2.9,3.5,3.1,5.5,1.3
	c1-0.9,1.5-2,2.4-3c0.5-0.5,1-0.9,1.6-1.2c1.4-0.6,1.3-0.2,2.7-0.2c3.7-0.1,5.4-1.3,8.2-3.5C86.5,80.8,89.4,79.3,90.5,76.5z"/>
<path class="st3" d="M151,61.2c-6,3.8-13.8,5.2-20.7,6.4c-8.3,1.4-16.5,1.6-24.9,1.8c-8,0.1-16,0.2-24-0.1
	c-4.6-0.1-9.2-0.4-13.9-0.7c-0.5,0.1-1,0.2-1.5,0.2c-1.9,0.3-3.8,0.1-5.7,0.3c-1.5,0.1-3.1,0.2-4.6,0c-1.4-0.2-2.7-0.2-4-0.5
	c-2.8-0.5-5.7-0.9-8.6-1.2c-1.6-0.2-3.3,0-4.9-0.2c-2.5-0.3-4.9-1.3-7.3-1.6c-1.2-0.1-2.4-0.4-3.6-0.4c-1.1,0-2.3,0.1-3.3-0.4
	c-0.3-0.2-0.6-0.4-0.9-0.7c-0.5-0.3-0.8-0.3-1.4-0.5c-0.7-0.2-1.2-0.8-1.7-1.2c-0.6-0.5-1.1-1.1-1.7-1.5c-0.8-0.6-1.7-0.9-2.5-1.7
	c-0.5-0.5-1.1-0.9-1.5-1.4c-0.6-1-1.2-1.9-1.7-3c-0.4-0.8-0.5-1.8-0.8-2.6c0-0.1-0.1-0.2-0.1-0.3c-0.1,0-0.2-0.1-0.2-0.1
	c-1.1-1.3-1.3-2.7-1-4.1c0.1-0.8,0.3-1.5,0.8-2.2c0.1-0.1,0.1-0.2,0.2-0.3c0.2-0.3,0.3-0.6,0.5-0.8c0-0.1,0.1-0.2,0.1-0.4
	c0-0.1,0-0.1,0-0.2c0.1-0.3,0.2-0.6,0.3-0.9l0.1-0.1c0-0.1,0.1-0.1,0.2-0.2c0.2-0.6,0.5-1.2,1-1.7l0,0c0,0,0.1-0.1,0.1-0.1
	c0.4-0.4,1-0.8,1.5-1c0.1-0.2,0.3-0.5,0.5-0.7c1-1,2.2-1.9,3.3-3c0.3-0.3,0.5-0.6,0.7-0.8c0.2-0.4,0.4-0.8,0.7-1.1
	c1.9-3.2,4.3-6.3,7.2-8.7c5.6-4.7,12.2-7.4,19-9.8c0.6-0.2,1.2-0.4,1.8-0.6c0.4-0.2,0.8-0.5,1.2-0.8c0.9-0.6,1.9-1.2,2.9-1.6
	c0.8-0.3,1.6-0.3,2.3-0.6c0.7-0.2,1.4-0.6,2.2-0.9c1.1-0.4,2.2-0.7,3.4-1.2c0.6-0.3,1.3-0.5,1.9-0.7c0.6-0.3,1.3-0.6,1.9-1
	c3.8-2,8-5.1,12.4-5.2c1.4-0.1,2.8,0.3,4.1,0.6c0.5,0,1,0,1.5,0c0.4,0,0.8,0,1.2-0.1c0.1,0,0.7-0.1,1-0.1c0.2,0,0.4,0,0.4-0.1
	c0.5-0.1,1-0.2,1.5-0.2c4.7-0.7,9-1,13.7-0.1c3.2,0.6,6.3,1.7,9.1,3.3c2.6,0,5.2-0.1,7.7,0.6c2.4,0.7,4.3,2.7,6.7,3.5
	c0.8,0.3,1.6,0.4,2.4,0.8c0.7,0.3,1.4,0.7,2,1.1c2.1,0.4,4.2,0.8,6.2,1.6c4.2,1.5,7.8,3.7,11.1,6.7c5.6,4.9,11.3,11.1,13.8,18.1
	C162.2,47.7,158.5,56.4,151,61.2z M157.2,122c0.4-4,0.7-8,1.1-12c0.2-2.5-3.3-4-5-2.1l-1.6,1.8c-0.1-0.1-0.1-0.1-0.2-0.2
	c-0.6-0.4-0.6-0.4-1.3,0c-0.6,0.4-1.2,0.8-1.9,1.1c-1.2,0.6-2.5,1.2-3.8,1.8c-0.1,0.1-0.2,0.1-0.3,0.1c-0.5,0.1-1,0.2-1.5,0.3
	c-1.3,0.3-2.6,0.6-3.9,1.1c-1.6,0.5-3.1,1.2-4.8,1.6c-1.4,0.3-2.8,0.7-4.2,1c-0.8,0.2-1.7,0.2-2.5,0.4c-1.4,0.3-2.8,0.4-4.2,0.6
	c-0.7,0.1-1.3,0.1-2,0.2c-0.9,0.1-1.8,0.3-2.7,0.4c-1.9,0.1-3.8,0.2-5.7,0.4c-1.3,0.1-2.6,0.2-3.8,0.3c-1,0.1-2,0.1-3,0.2
	c-1.5,0.1-3,0.2-4.5,0.2c-1,0-1.9,0.1-2.9,0.1c-0.9,0-1.8-0.1-2.7-0.1c-0.8-0.1-1.6-0.1-2.4-0.2c-1-0.1-1.9-0.1-2.9-0.2
	c-0.5,0-1,0-1.5-0.1c-1.4-0.1-2.8-0.3-4.1-0.4c-1.1-0.1-2.2,0-3.3-0.1c-1.2-0.1-2.4-0.1-3.7-0.1c-1.5,0-2.9-0.1-4.4-0.1
	c-0.6,0-1.3-0.1-1.9-0.1c-1-0.1-1.9-0.1-2.9-0.2c-1-0.1-1.9-0.1-2.8-0.2c-0.4-0.5-0.9-0.9-1.5-1.1c-3.6-1.8-8.6-1-12.5,0.1l-0.5,0
	c-0.3,0-0.5,0-0.8,0c-0.9-0.1-1.7-0.1-2.6-0.2c-1.3-0.1-2.5-0.1-3.7-0.2c-1,0-2-0.1-3-0.2c-1.1-0.1-2.3-0.1-3.4-0.2
	c-1-0.1-2.1-0.2-3.1-0.3c-1.2-0.1-2.5-0.1-3.7-0.2c-1.4-0.1-2.8-0.3-4.3-0.4l-1.8-0.2c-0.7-0.1-1.3-0.2-2-0.2
	c-1-0.1-1.9-0.1-2.9-0.2c-0.8,0-1.6-0.1-2.5-0.1c-0.2,0-0.4,0-0.7-0.1c-1-0.1-2.1-0.3-3.1-0.4c-1.2-0.1-2,0.9-1.7,2.1
	c0.2,0.7,0.2,1.5,0.2,2.2c0,0.1,0,0.2,0,0.3c0.1,1.2,0.3,2.5,0.4,3.7c0.1,0.8,0.1,1.6,0.2,2.4c0.1,1.3,0.3,2.5,0.5,3.8
	c0.1,0.9,0.3,1.7,0.6,2.5c0.3,0.9,0.6,1.8,1,2.7c0.3,0.7,0.7,1.2,1.4,1.5c1.2,0.5,2.4,0.9,3.7,1.2c1.4,0.2,2.8,0.4,4.2,0.3
	c0.8-0.1,1.6,0.1,2.4,0.1c0.2,0,0.3,0,0.5,0c0.3,0,0.7,0,1,0c0.7,0,1.3,0.1,2,0.1c1.4,0,2.9-0.1,4.3-0.1c0.7,0,1.5-0.1,2.2-0.1
	c1.5-0.1,3.1-0.1,4.6-0.1c0.5,0,1.1,0,1.6,0c1.1,0,2.2-0.1,3.2-0.1c1.3,0,2.6,0.1,3.9,0.1c0.7,0,1.5,0,2.2,0c1.4,0,2.8,0.1,4.2,0.1
	c1.2,0,2.4,0,3.6,0.1c1.2,0,2.4,0.1,3.7,0.2c1.2,0,2.4,0.1,3.6,0.1c0.8,0,1.5,0,2.3,0c1.9,0.1,3.8,0.2,5.6,0.3c0.7,0,1.4,0,2,0
	c2.2,0.2,4.4,0.2,6.6,0.2c0.9,0,1.7,0,2.5,0c0.6,0,1.2,0.1,1.8,0.2c1.5,0.1,2.9,0.2,4.4,0.2c0.9,0,1.9,0,2.8,0
	c1.4,0,2.7-0.1,4.1-0.1c1.3,0,2.6,0.2,3.9,0.1c1-0.1,2-0.1,2.9-0.1c8.8,0.7,17.6,0.8,26.4-0.4c3.6-0.5,7.2-1.3,10.7-2.3
	c2.5-0.7,5.3-1.5,7.7-2.8c0.1,0,0.2-0.1,0.3-0.1c0,0,0.1,0,0.1-0.1c0.4-0.2,0.9-0.5,1.3-0.8C156.2,128.6,156.8,125.5,157.2,122
	L157.2,122z"/>
<path class="st4" d="M171.2,59.1c-0.7,0.2-1.5,0.4-2.2,0.6c-0.2,0.3-0.4,0.6-0.6,0.9c-0.7,0.8-1.6,1.3-2.6,1.8
	c-0.6,0.3-1.2,0.4-1.8,0.5c-0.1,0-0.3,0-0.4,0.1c-0.8,0.2-1.6,0.3-2.3,0.2c-0.5,0.3-1,0.6-1.4,0.9c0.2,0.4,0.3,0.8,0.4,1.2
	c0.7,2.8-1.2,5.3-3.7,6.3c-3,1.2-5.7,0.1-8.6-0.9c-0.9-0.3-2.5-0.9-3.2,0.1c-0.6,0.9-0.2,2.8-0.1,3.8c0.1,0.9-0.6,2.1-1.5,2.5
	c-4.3,1.8-7.6-0.3-11.5-2.1c-1.3-0.6-2.6-1.2-4-0.4c-1.3,0.7-2.3,2-3.4,3c-0.1,0.5-0.4,1-0.8,1.4c-0.6,0.7-1.5,1.1-2.4,1.3
	c-0.1,0-0.2,0-0.3,0.1c-0.9,0.5-1.9,0.5-2.9,0.3c-0.5-0.1-1-0.3-1.5-0.6c-0.4-0.2-0.5-0.6-0.6-0.9c0-0.1,0-0.1-0.1-0.2
	c-1.1-0.5-2.2-1.2-3.2-1.9c-1.3-1-2.1-1.9-3.5-0.9c-0.8,0.6-1.6,1.2-2.4,1.9c-0.4,0.8-0.8,1.6-1.2,2.4c-0.5,0.9-1.2,1.5-2.2,1.6
	c-0.4,0.1-0.9,0.1-1.3,0c-2.2,1.2-4.7-0.6-4.3-3.2c0.2-1-1.8-1.1-2.3-0.9c-1.4,0.6-2.1,2.1-2.7,3.3c-1.4,3.1-6,0.7-5.3-2.3
	c0-0.1,0-0.2,0.1-0.3c0-0.2,0-0.5,0-0.7c-0.3-1.5-2.5-1.9-3.3-0.2c-1.2,2.3-1.2,5-4.3,5.5c-0.4,0.1-0.9,0.1-1.3,0
	c-0.2,0-0.5,0-0.7,0c-0.5,0-0.7-0.2-0.9-0.6c0-0.1-0.1-0.2-0.1-0.3c-0.6-0.7-0.9-1.6-0.6-2.6c0.4-1.3,0.9-2.9,0.7-4.3
	c-0.1-0.5-0.5-1.8-1.3-1.7c-0.6,0.1-1.6,1.4-2.2,1.7c-1,0.5-2,0.8-3.2,0.8c-0.5,0-0.9-0.1-1.4-0.2c0,0,0,0,0,0
	c-0.5,0.4-0.9,0.8-1.6,0.9C67.1,77,67,77,66.8,77c-0.6,0.1-0.8,0-1-0.6c-0.1-0.4-0.2-0.7-0.2-1.1c0-0.1,0-0.1,0-0.2
	c-0.6-0.1-1.3-0.2-1.8,0c-1.8,0.4-3,2.6-3.9,4c-0.8,1.2-2.4,1.6-3.6,1.2l-0.3,0.2c-0.4,0.2-0.6,0.2-0.9-0.2
	c-0.1-0.2-0.2-0.5-0.3-0.8c-0.4-1.2-0.6-2.5-0.7-3.7c-0.1-0.3-0.3-0.6-0.4-0.8c-0.6-0.8-0.9-0.5-1.6,0c-1.9,1.3-3.8,2.2-6.1,1.4
	c0,0,0,0,0,0c-0.4,0.4-0.7,0.8-1.1,1.2c-0.3,0.3-0.6,0.3-1,0.3c-0.3,0-0.5-0.3-0.5-0.6c0,0,0,0,0,0c0-0.5,0.1-0.9,0.1-1.4
	c0-0.3,0.1-0.6,0.1-0.9c-1.2-0.9-2.4-2-3.9-2.3c-0.3-0.1-0.7-0.1-1,0c-0.2,0.2-0.3,0.4-0.4,0.7c-0.2,0.3-0.4,0.6-0.8,0.7
	c-0.1,0-0.1,0.1-0.2,0.1c0.1,0.5,0.1,1,0.2,1.5c0.1,1-0.5,2-1.4,2.4c-0.1,0.1-0.1,0.2-0.2,0.2c-0.3,0.3-0.5,0.6-0.8,0.9
	c0,0-0.1,0.1-0.1,0.1c-0.5,0.4-1,0.9-1.5,1.2c-0.6,0.4-1.3,0.3-1.9,0.1c-0.3-0.1-0.6-0.5-0.6-0.9c0-0.5,0-1,0.1-1.5
	c0-0.5,0.1-1,0.2-1.5c0.1-0.3,0.2-0.6,0.2-0.9c-0.3-0.8-0.4-1.7-0.3-2.6c-0.5-1.4-1.4-2.5-2.6-3.4c-0.2-0.1-0.3-0.2-0.5-0.3
	c-0.3,0.4-0.7,0.8-0.8,1c-0.7,1.1-1.3,2.3-1.7,3.6c-1.2,3.5-6.7,1.9-5.6-1.6c0.3-0.8,0.6-1.6,1-2.5c0-0.1,0-0.2,0-0.3
	c-0.1-0.6-1.1-1.2-1.7-1.1c-0.6,0.1-0.9,0.4-1.4,0.7c-0.5,0.4-0.9,0.7-1.3,1.2c-0.2,0.2-0.5,0.5-0.7,0.8c-0.5,0.7-1.3,0.9-2,1.1
	c-0.2,0.1-0.5,0.1-0.7,0.2c-0.6,0.1-1-0.3-0.9-0.9l0.4-2.4c0.1-0.7,0.3-1.4,0.4-2.1c0.1-0.6,0.2-1.3,0.3-1.9c0-0.9-0.4-1.7-1.1-2.2
	c-0.1-0.1-0.3-0.2-0.5-0.2c-0.7,0-1.5,0.1-2.2,0.3c-0.4,0.1-0.7,0.2-1.1,0.3l-0.1,0c-0.3,0.1-0.6,0.1-0.9,0.2
	c-0.3,0.1-0.7,0.1-1,0.2c-0.6,0.2-1.2,0.2-1.7-0.1c-0.2-0.1-0.4-0.2-0.7-0.3c-0.8-0.2-1.2-0.9-1.4-1.6c-0.1-0.2,0-0.6,0.1-0.8
	c0.4-0.8,1-1.3,1.7-1.8C5,59.2,5.3,59,5.7,58.8c0.1-0.1,0.2-0.2,0.2-0.3c4.2-4.7,10-1.2,14.2,1.4c4.9,3,10.6,4.7,16.3,5.6
	C47.5,67.2,58.8,65.9,70,66c11.5,0.1,23.1,1.1,34.6,0.8c11.3-0.3,22.4-2.2,33.4-4.9c4.9-1.2,10-2.2,14.8-3.9
	c0.2-0.2,0.4-0.4,0.6-0.6c0.4-0.4,0.7-0.9,1.1-1.4c0.2-0.3,0.5-0.5,0.7-0.7c0.1-0.1,0.2-0.3,0.2-0.4c0.1-0.4,0.3-0.6,0.6-0.9
	c0.7-0.6,1.4-1.1,2.1-1.7c1-0.8,2.1-1.7,3.1-2.5c0.4-0.3,0.8-0.7,1.3-0.9c0.5-0.3,1-0.5,1.6-0.7c1.9-2,5.8-0.5,4.9,2.6
	c0,0.1-0.1,0.2-0.1,0.3c1.7,0.7,3.1,2,4,3.6C173.8,56.5,173,58.6,171.2,59.1z M161.7,104.1c-6.3,4.1-13.3,7.1-20.5,9.1
	c-0.3,0.9-1,1.7-1.9,1.9c-3.6,1-7.4,1.3-11.2,0.8c-1.2,0.6-2.6,0.8-3.8,0.4l0,0c-1.6,0.2-3.2,0.4-4.8,0.5c-1.2,0.1-2.3,0.1-3.5,0.2
	c-1.6,1.1-3.6,1.5-5.5,1.2c-0.6-0.1-1.2-0.3-1.8-0.5c-0.8,0-1.6,0.1-2.5,0.1c-1,0-1.9,0.1-2.8,0.1c-0.9,0-1.8,0.1-2.7,0.1
	c-0.2,0-0.4,0-0.5,0l-1.2,0c-13.1,0.3-26-0.6-39.1-1.6c-8.4-0.6-16.9-1.1-25.3-1c-2.7,0-5.8,0.5-8.5-0.4c-0.3,0.2-0.7,0.3-1,0.4
	c-2.1,0.5-4.2-0.5-5.5-2.1c-0.3,0.3-0.6,0.5-1,0.6c-3.4,1.6-6.2-1.9-8.5-3.9c-1-0.9-1.1-2-0.7-2.9c-0.1-0.2-0.2-0.4-0.2-0.6
	c-0.1-0.3-0.2-0.7-0.1-1c0.1-0.3,0.2-0.5,0.6-0.4c0.3,0,0.7,0.1,1,0.2c0.2,0.1,0.4,0.1,0.6,0.2c1-0.4,2.1-0.2,2.9,0.6
	c0.4,0.3,1.3,0.9,2,1.5c0.3-1.4,0.7-2.7,1.9-3.8c1.7-1.5,4.1-0.8,4.8,1.3c0,0.1,0.1,0.2,0.1,0.3c0-0.1,0.1-0.1,0.1-0.2
	c0.7-1.2,2.5-1.8,3.8-1.1c2.2-1.5,4.8,0.7,4.4,3.2c0.2-1.1-0.1,0,0.5-0.1c0.5-0.1,0.7,0.1,1.3-0.3c1.3-0.8,2-2.5,2.7-3.8
	c1.3-2.4,5.7-1.4,5.4,1.5c-0.1,1.4,0.7,2.8,2.3,2.7c1,0,2.1-0.6,3.1-0.7c1.1-0.1,2.1-0.1,3.1,0.3c1.4,0.5,2.4,2,4,1.6
	c0.8-0.2,1.6-0.7,1.9-1.5c0.1-0.8,0.3-1.6,0.6-2.3c1.2-2.7,5.4-1.2,5.4,1.5c0,0.7-0.1,1.4-0.3,2.1c0.2,0.3,0.5,0.5,0.8,0.5
	c0.8,0,0.9-0.8,1-1.4c0.7-2.4,1.9-4.5,4.7-4.6c2.3-0.1,3.4,2.5,2.5,4.4c-0.3,0.6,0.5,1.4,1.1,1.6c1.3,0.5,3.3-0.4,4.7-0.5
	c1.7-0.2,3.4,0,4.9,1c1.1,0.7,1.8,2.3,3.1,2.6c1.4,0.3,2.9-0.5,4.1-1c1.7-0.7,3.3-1.5,5.1-1.8c3.5-0.6,6,1.2,9.3,1.9
	c1.5,0.4,2.2-0.7,3.7-0.9c1.7-0.3,2.9,0.4,4.1,1.5c1.1-0.1,2.2-0.2,3.3-0.3c0.6-0.7,1.3-1.5,2.1-1.9c1.5-0.7,3-0.4,4.5,0.2
	c0.2,0.1,1,0.3,0.8,0.4c0.3-0.2,0.6-0.6,0.8-0.8l0.1-0.1c0.3-0.9,0.9-1.7,1.8-2.2c0.5-0.5,1.2-0.8,1.8-1c0.8-0.4,1.6-0.6,2.5-0.6
	c1.2,0,2.6,0.9,2.8,2.1c0,0,0,0,0,0.1c0.2,0,0.3,0.1,0.5,0c0.6-0.1,1-0.4,1.5-0.8c0.2-0.2,0.4-0.4,0.6-0.6c0-0.2,0.1-0.4,0.1-0.5
	c0.5-1.8,2.2-3,4.1-3.2c1.6-1,3.8,0.2,4.3,1.9c0,0.1,0.1,0.1,0.1,0.2c0,0,0,0,0,0c0.2-0.2,0.4-0.4,0.6-0.6c0.2-0.6,0.4-1.1,0.6-1.7
	c0.2-0.4,0.4-0.8,0.6-1.2c0.2-0.4,0.4-0.7,0.6-1.1c0.2-0.3,0.4-0.5,0.7-0.6c0.1-0.1,0.3-0.1,0.4,0.1c0,0,0,0,0,0
	c0.2,0.2,0.3,0.4,0.4,0.7c0.1,0.2,0.1,0.4,0.2,0.6c1.1-0.7,2.4-1,3.7-0.9c0.1,0,0.1,0,0.2,0c0.2-0.5,0.5-0.9,0.6-1.4
	c0.3-0.8,0.8-1.4,1.3-2c0.4-0.4,0.9-0.6,1.4-0.6c0.4,0,0.6,0.2,0.6,0.6c0,0.2,0,0.4,0,0.5c0.8,0,1.6,0.3,2.1,0.8
	c0.9,0.9,2,1.3,3.2,1.1c0.3-0.2,0.6-0.3,0.9-0.5c0.5-0.3,1.1-0.6,1.6-0.9c0.2-0.1,0.4-0.2,0.7-0.2c0.4-0.1,0.6,0.1,0.6,0.5
	c0,0.3-0.1,0.6-0.2,0.9c-0.1,0.3-0.2,0.6-0.4,0.8C163.4,100.8,163.4,103,161.7,104.1L161.7,104.1z M141.6,104.8c0-0.2,0-0.2-0.1-0.2
	l0,0C141.6,104.7,141.6,104.7,141.6,104.8L141.6,104.8z"/>
<path class="st5" d="M65.4,56.8c0,0.2,0,0.6-0.2,0.9c-0.6,1.1-1.1,2.1-1.8,3.1c-0.8,1-1.6,0.7-1.9-0.4c-0.3-0.8-0.3-1.7,0-2.5
	c0.3-0.9,0.4-1.8,0.6-2.7c0.2-0.6,0.4-1.2,0.7-1.8c0.2-0.3,0.5-0.8,0.8-0.8c0.3,0,0.7,0.4,0.9,0.7C65,54.3,65.4,55.4,65.4,56.8
	 M115.8,55.4c0,0.2,0,0.3,0,0.5c0.2,2.6-1.4,4.1-3.3,5.4c-0.6,0.4-1.3,0-1.4-0.8c-0.1-0.8,0-1.6,0.5-2.3c1-1.5,1.9-3.1,2.9-4.7
	c0.1-0.2,0.4-0.4,0.6-0.4c0.2,0,0.5,0.3,0.5,0.5C115.7,54.2,115.8,54.8,115.8,55.4C115.8,55.4,115.8,55.4,115.8,55.4 M35.9,50.5
	c0-0.2-0.1-0.3-0.2-0.5c0.1-0.2,0.2-0.3,0.3-0.5c0.4-0.8,0.5-1.5-0.1-2.3c-0.1,0.1-0.3,0.1-0.3,0.2c-0.3,0.5-0.8,0.8-1.3,1.1
	c-0.2,0.1-0.4,0.2-0.6,0.4c-0.1,0.1-0.2,0.2-0.3,0.4c-0.3,0.1-0.6,0.4-0.8,0.7c0,0.1-0.1,0.2-0.1,0.2c-0.1,0.1-0.2,0.1-0.2,0.2
	c-0.4,0.3-0.6,0.7-0.7,1.2c0,0.2-0.1,0.3-0.1,0.5c-0.1,0.2-0.2,0.4-0.2,0.6c-0.2,0.5,0,0.9,0.2,1.4c0.3,0.5,0.6,0.5,1.1,0.3
	c0,0,0,0,0,0l0,0c1.1,0.6,2.5,0.1,3-0.9C36,52.4,36,51.5,35.9,50.5L35.9,50.5z M35.9,32.6C35.9,32.6,35.9,32.6,35.9,32.6
	c0-0.3,0-0.7-0.1-1c-0.2-0.5-0.6-1-1.1-1.2c-0.3-0.4-0.6-0.7-1-1c-0.2,0.4-0.4,0.7-0.5,1c0,0,0,0.1,0,0.1c-0.8,0.3-1.5,1-1.8,1.8
	c-0.3,0.8-0.2,1.8,0.3,2.5c0.1,0.1,0.2,0.3,0.3,0.4c-0.2,1.1-0.1,1.1,1.1,1.7c0.1-0.1,0.2-0.2,0.4-0.3c0,0,0.1,0,0.1,0.1
	c0.9,0.5,2,0.2,2.5-0.6C36.9,34.9,36.8,33.5,35.9,32.6L35.9,32.6z M59,26.7C59,26.6,58.9,26.6,59,26.7c-0.1-0.2-0.1-0.2-0.1-0.3
	c-0.1-0.5-0.4-0.9-0.9-1.2c-0.3-0.2-0.7-0.4-1-0.6c-0.5-0.3-1-0.3-1.5,0.1c-0.3,0.3-0.6,0.6-0.9,0.9c-0.4,0.2-0.7,0.4-1,0.7
	c-0.3,0.3-0.5,0.7-0.6,1.2c-0.1,0.1-0.2,0.3-0.2,0.4c-0.1,0.2,0,0.4,0.1,0.6c0.2,0.2,0.5,0.3,0.7,0.4c0.1,0.1,0.2,0.2,0.3,0.3
	c1.3,0.9,3.1,0.9,4.4,0.1C59.1,28.6,59.6,27.5,59,26.7L59,26.7z M77,14.1c0.4-0.5,0.6-1.1,0.4-1.8c-0.3-1.1-1.3-1.5-2.3-1.3
	c-1,0.1-1.9,0.9-2.3,1.9c-0.5,1.1-0.4,2.2-0.3,3.4c0.1,1,1.4,1.6,2.3,1.3c1.3-0.4,2.4-1.7,2.2-3.1C77.1,14.4,77.1,14.3,77,14.1
	 M94.5,18.2c-0.2-0.1-0.3-0.1-0.5-0.2c-0.1-0.4-0.4-0.5-0.9-0.4c-1,0.1-1.5,0.5-1.6,1.6c-0.1,0.1-0.2,0.3-0.2,0.4l-0.6,1.4
	c-0.2,0.4,0,1.1,0.2,1.4c0.1,0.2,0.2,0.3,0.4,0.4c0,0.4,0,0.7-0.1,1.1c0.6-0.1,1.1-0.3,1.6-0.6c0.6-0.1,1.1-0.4,1.4-0.9
	c0.3-0.6,0.7-1.2,1-1.8C95.6,19.9,95.3,18.7,94.5,18.2L94.5,18.2z M121.2,20.1c0-0.3-0.1-0.5-0.4-0.7l-0.1-0.7
	c-0.1-1-0.8-1.9-1.8-1.9c-0.3,0-0.6,0.1-0.9,0.2c-0.4-0.1-0.8,0.1-1.3,0.7c-0.6,0.8-0.7,1.8-0.7,2.8c0.1,1.9,1.1,3.5,1.9,5.4
	c0.9-0.8,2-1.1,2.4-2.1C120.9,22.7,121.3,21.4,121.2,20.1z M127.6,44.6c0.7-2.2,0.1-4.6-1.5-6.2c-1.5-1.5-3.8,0.4-3,2h0
	c-0.4,0.2-0.3,0.6-0.1,0.9c0.1,0.3,0.3,0.5,0.5,0.7c0,0.1,0,0.2,0,0.3c0,0.4,0.1,0.9,0.1,1.3c0.1,1,0.5,1.9,1.1,2.7
	c0.5,0.6,1,0.6,1.6,0.1c0.2-0.3,0.4-0.6,0.6-0.9C127.2,45.4,127.5,45,127.6,44.6L127.6,44.6z M91.9,46.8c0-0.2,0-0.3-0.1-0.5
	c0.3-1.1,0.3-2.3-0.2-3.2c-0.1-0.1-0.2-0.2-0.4-0.4c-0.4,0.5-0.8,1-1.2,1.5c0,0-0.1,0-0.1,0l-0.2,0.1c-0.2,0-0.4-0.1-0.5-0.1
	c-0.5,0-1,0.2-1.3,0.5c-0.4,0.3-0.6,0.8-0.6,1.3c0,0.4,0.1,0.8,0.4,1.2c-0.2,0.4-0.2,0.8-0.2,1.2c0,0.5,0.2,0.7,0.7,0.7
	c0.7,0,1.4-0.1,2-0.5c0.4,0,0.8-0.2,1.1-0.5C91.7,47.7,91.9,47.3,91.9,46.8L91.9,46.8z M74.7,39.3c0-0.6,0-1.2,0-1.8
	c0-0.5-0.2-1-0.6-1.4c0.1-0.5,0.2-1,0.3-1.4c0.1-0.3-0.1-0.7-0.2-1.2c-0.3,0.3-0.6,0.4-0.7,0.7c-0.3,0.5-0.6,1-0.9,1.5
	c-0.8,0.1-1.5,0.7-1.6,1.5c-0.8,0.1-1.5,0.5-1.7,1.3c-0.2,0.9,0.2,2,1.2,2.3c0.1,0.1,0.2,0.2,0.3,0.3c0.6,0.6,1.4,0.9,2.3,0.6
	C74.1,41.4,74.6,40.4,74.7,39.3z"/>
<path class="st6" d="M34.7,30c0,1.3-0.2,2.6,0.2,3.9c0.2,0.7,0.5,2.1-0.7,1.8c-0.5-0.1-1-0.5-1.4-0.9c-0.5-0.4-1.2-1-0.9-1.7
	c0.2-0.4,0.8-0.9,1.1-1.2c0.8-0.9,1.5-1.5,2.7-1.8c0.7-0.1,0.4-1.2-0.3-1c-1.9,0.4-2.8,1.6-4.1,3c-1.3,1.3-0.4,2.7,0.8,3.7
	c0.9,0.8,2.4,1.7,3.4,0.6c0.6-0.6,0.7-1.4,0.4-2.2c-0.4-1.4-0.4-2.7-0.4-4.2C35.8,29.3,34.7,29.3,34.7,30 M53.4,28.9
	c-0.2-1.8,2.8-4.5,4.5-3c1.1,0.9,1.1,3-0.5,3.1c-1.2,0.1-2.4-0.2-3.6-0.2c-0.7,0-0.7,1,0,1c1.6,0.1,4.1,0.8,5.4-0.4
	c1.1-1.1,0.6-3.3-0.4-4.3c-2.2-2.1-6.6,1.1-6.3,3.8C52.5,29.6,53.5,29.6,53.4,28.9 M91.4,24.7c0-1.8-0.7-5.5,1.5-6.4
	c1.5-0.7,2.1,1.9,1.8,3c-0.4,1.3-2.3,1.9-3.3,2.7c-0.5,0.4,0.2,1.2,0.7,0.8c1.4-1.2,3.6-1.7,3.7-3.8c0.1-1.3-0.4-3.6-2-3.8
	c-3.9-0.6-3.4,5.4-3.4,7.6C90.3,25.4,91.4,25.4,91.4,24.7 M117.9,24.1c0-1.3-0.2-2.6-0.3-3.9c-0.1-1.1-0.5-3.6,1.7-2.3
	c0.4,0.3,0.9,0.9,1.2,1.3c0.8,1.2,0.7,2.3-0.5,3.3c-0.8,0.6-1.4,1.4-2.1,2.1c-0.5,0.5,0.2,1.2,0.7,0.8c0.8-0.8,1.5-1.6,2.4-2.3
	c0.6-0.5,1-1.1,1.2-1.9c0.2-1.6-1.3-3.7-2.6-4.4c-0.9-0.5-2.5-0.2-2.9,0.8c-0.3,0.7-0.1,1.6-0.1,2.3c0.1,1.4,0.3,2.8,0.4,4.2
	C116.9,24.8,118,24.8,117.9,24.1 M122.7,39.3c0,2.1-0.3,4.9,1.1,6.7c0.8,1,2,1.3,3.1,0.5c1.3-1.1,1.8-3.2,1.5-4.8
	c-0.4-2.2-2-2.7-3.5-4c-0.5-0.4-1.3,0.3-0.8,0.7c0.7,0.6,1.5,1,2.2,1.6c1.1,1,1.3,2.7,0.8,4.1c-0.2,0.8-0.9,2.2-2.1,1.7
	c-0.7-0.3-0.9-1.4-1.1-2c-0.4-1.5-0.3-3-0.2-4.5C123.7,38.6,122.7,38.6,122.7,39.3 M112.5,54.4c-0.8,1.4-2.8,4.5-1.1,5.9
	c1.2,1,2.9,0.1,3.5-1c1-1.6,2.5-6.7-0.7-6.8c-0.7,0-0.7,1,0,1c1.7,0.1,0.6,3.5,0.3,4.3c-0.3,0.7-0.7,1.7-1.6,1.8
	c-2.4,0.4,0.1-4,0.5-4.7C113.8,54.4,112.9,53.9,112.5,54.4 M90.2,43.1c0,1.2,0.6,2.1,0.8,3.2c0.2,0.8,0.3,2.1-0.7,2.3
	c-0.4,0.1-1.2-0.1-1.5-0.3c-0.9-0.5-1.5-2.9-0.3-3.4c0.4-0.2,1-0.2,1.4-0.4c0.5-0.3,0.9-0.7,1.2-1.1c0.5-0.5-0.3-1.2-0.7-0.8
	c-0.4,0.5-0.8,0.9-1.5,1.1c-0.4,0.1-0.8,0.1-1.1,0.3c-0.6,0.3-0.9,0.8-1,1.5c-0.2,1.3,0.2,3.2,1.5,3.8c1.1,0.5,3,0.7,3.6-0.6
	c0.9-1.8-0.7-3.8-0.7-5.6C91.3,42.5,90.2,42.5,90.2,43.1 M73.4,35c0,1.3,0.1,2.6,0.1,3.9c0,0.8,0,1.6-0.8,1.9
	c-0.5,0.2-1.2,0.1-1.7-0.2c-1-0.8-0.4-2.4,0.3-3.2c0.9-1,2-1.6,3-2.5c0.5-0.5-0.2-1.2-0.7-0.8c-1.4,1.3-3.2,2.1-3.9,3.9
	c-0.5,1.4-0.3,2.9,1.1,3.6c1.1,0.5,2.5,0.4,3.3-0.6c0.5-0.6,0.5-1.4,0.5-2.2c0-1.3-0.1-2.6-0.1-3.9C74.5,34.3,73.4,34.3,73.4,35
	 M62.6,53.4c1.5,1.1,2.2,2.9,2.3,4.7c0.1,1.1-0.2,1.7-1.3,1.9c-0.7,0.1-1.3,0-1.6-0.6c-0.9-1.6-0.3-4.7,0.9-6
	c0.4-0.5-0.3-1.3-0.7-0.8c-1.5,1.8-2.8,7.2,0.2,8.3c1.8,0.7,3.7-0.3,3.7-2.2c0.1-2.4-0.9-4.7-2.8-6.2C62.6,52.1,62.1,53,62.6,53.4
	 M34.6,47.6c0,1.5,1.2,3,0.8,4.5c-0.2,0.9-0.9,1.5-1.8,1.7c-0.5,0.1-1.5,0.2-1.8-0.3c-0.3-0.8,0.7-2,1.1-2.6c0.5-0.7,1-1.4,1.7-2
	c0.5-0.5-0.3-1.2-0.7-0.8c-1.1,1.1-4.6,5-2.4,6.5c1.2,0.8,3.2,0.2,4.2-0.8c1.8-1.9,0-4,0-6.1C35.6,47,34.5,46.9,34.6,47.6
	 M75.1,11.1c-1.7,0.9-2.7,2.1-2.9,4.1c-0.1,1.4,0.1,3.1,1.9,3.2c3.1,0,3.1-4.7,3.1-6.7c0-0.7-1-0.7-1.1,0c0,1.6,0.1,4.1-1.1,5.3
	c-0.4,0.4-1.2,0.6-1.6,0.1c-0.3-0.4-0.2-1.2-0.2-1.6c0.2-1.6,1-2.5,2.4-3.3C76.3,11.6,75.7,10.7,75.1,11.1 M11.7,114.6
	c-0.1,2.7-0.4,5.6,0.5,8.2c0.4,1.2,0.9,2.3,1.4,3.4c0.6,1.5,0.7,3.1,1.4,4.6c0.9,2.1,1.2,4,3.5,5c1.9,0.8,4.1,1,6.1,1.3
	c3.1,0.3,6.5,0.2,9.6,0.2c3,0,6.1-0.6,9.1-0.8c3.4-0.2,6.7-0.8,10.1-0.8c3.4,0,6.9,0.1,10.3,0.1c3.3,0,6.7-0.1,10,0.3
	c1.5,0.2,2.9,0.2,4.4,0.2c1.8,0,3.5,0.5,5.2,1c6.1,1.6,12.7,0.9,18.9,1c6.7,0.1,13.4-0.4,20.2-0.2c1.5,0,3,0.2,4.4-0.2
	c1.6-0.4,3.1-1.1,4.7-1.5c3.1-0.7,6.1-1.7,9.2-2.4c1.8-0.4,3.4-0.9,5.2-1.4c1.7-0.4,3.5-0.1,5.2-0.6c1.9-0.6,3-1.3,3.6-3.2
	c1.3-3.4,0.8-7.2,0.8-10.8c0-3.3-0.7-7.7,1.3-10.6c0.4-0.6-0.5-1.1-0.9-0.5c-1.3,1.8-1.4,3.9-1.4,6c0,3.2,0,6.4,0,9.5
	c0,2.7,0.2,6.9-2.7,8.2c-1.2,0.6-2.5,0.6-3.8,0.7c-1.6,0.1-3,0.6-4.5,1c-2.8,0.8-5.7,1.3-8.5,2.1c-1.4,0.4-2.8,0.7-4.2,1
	c-1.5,0.4-2.9,1-4.3,1.4c-2.9,0.7-6.3,0.1-9.4,0.2c-3.2,0.1-6.4,0.2-9.7,0.2c-6.2,0.1-12.7,0.2-18.9-0.1c-2.9-0.2-5.6-1.2-8.5-1.7
	c-1.1-0.2-2.1-0.2-3.2-0.2c-1.8,0-3.6-0.4-5.4-0.5c-6.1-0.5-12.3-0.1-18.5-0.2c-5.7-0.1-11.5,1.1-17.2,1.5c-3.4,0.3-7,0.1-10.4-0.1
	c-2.2-0.1-6.5-0.4-8-2.2c-0.6-0.7-0.7-1.7-1-2.5c-0.3-0.8-0.7-1.5-0.9-2.4c-0.3-1.3-0.8-2.6-1.3-3.9c-1.5-3.5-1.5-6.7-1.4-10.5
	C12.8,113.9,11.7,113.9,11.7,114.6 M163.4,99.6c-0.8-2.3-3.8-1.1-5.3-0.4c-0.5,0.2-1.9,1.2-2.5,1.1c-0.7-0.1-0.4-0.9-0.4-1.4
	c0-0.7,0.2-1.8-0.4-2.3c-1.4-1.3-3.7,1.4-4.3,2.5c-0.3,0.6-0.5,2-1.1,2.4c-0.8,0.5-0.8-0.6-1.2-1.2c-0.5-0.8-1.3-1.3-2.3-1.1
	c-2.4,0.5-2.4,4.8-3.6,6.4c-0.1,0.2-0.2,0.4-0.3,0.6c-0.5-0.1-1-0.3-1.5-0.5c-0.1-0.1-0.2-0.6-0.3-0.7c-0.4-0.5-0.6-1-1.1-1.4
	l0.1-0.1c1.1-1.1,2.4-1.7,3.4-3c1.1-1.4,2.5-2.5,3.5-3.9c0.4-0.6,0.6-1.1,0.9-1.7c0.6-1.2,1.3-1.8,2.2-2.7c0.2-0.2,0.2-0.5,0-0.7
	c0,0,0,0,0,0l0.1,0c2.5-0.7,5-1.5,6.8-3.4c2-2.1,2.1-5.1,3.5-7.5c1.4-2.4,1.9-4.9,2.2-7.7c0.2-2.1-0.4-4-1.8-5.6
	c-0.1-0.1-0.2-0.1-0.3-0.2c0,0,0-0.1-0.1-0.1c-0.2-0.3-0.6-0.6-0.8-0.9c-0.9-1.1-1.2-2.4,0.5-3c1.3-0.5,3.3,0.4,4.7,0.2
	c2.9-0.3,4.9-3.2,7-4.9c1.4-1.1,2.5-2.8,1.3-4.4c-0.6-0.7-1.5-1.2-2.3-1.7c-0.4-0.3-1.1-0.5-1.4-1c-0.6-0.9,0-1.4,0.3-2.3
	c0.8-1.8-0.5-3.3-2.4-2.7c-3.1,0.9-5.1,3.7-8.4,4c0.1-0.4,0.2-0.8,0.2-1.1c0.5-2.9,0-5.7-0.2-8.6c-0.2-2.5-1.4-3.8-3-5.7
	c-1.8-2.1-3.4-4.3-4.9-6.7c-0.5-0.9-0.9-1.9-1.5-2.8c-0.9-1.2-2.2-2.1-3.3-3c-2.1-1.8-4.3-3.3-6.5-5c-2.3-1.8-4.6-2.4-7.2-3.5
	c-2.8-1.2-6-1.4-8.7-2.9c-2.4-1.3-4.5-3-7.1-4c-1.4-0.5-2.9-0.7-4.3-1.2c-1.7-0.6-3.4-1.1-5.2-1.6C100.6,2.9,94.1,3.6,88,3.5
	c-5.9-0.1-12-0.7-17.4,2.2c-4.8,2.6-10.2,3.3-15,5.8c-5.3,2.7-11,4.5-16.1,7.7c-2.5,1.6-4.8,3.5-7.3,5.1c-2.3,1.5-4.8,2.7-6.7,4.7
	c-2.1,2.2-3.8,4.7-6,6.8c-1.1,1-2.1,2.1-3.1,3.1c-1,1-2.1,1.7-2.9,2.8c-1.1,1.6-2.2,3.4-2.9,5.2c-0.3-0.3-1,0-0.9,0.5
	c0.5,2.9,1.2,5.4,2.5,8.1c0.2,0.4,0.4,0.8,0.5,1.2c-0.1-0.2-0.2-0.2-0.4-0.2c-1.3,0-2.6-0.3-3.9-0.1c-1.3,0.3-2.3,1.3-3.2,2.2
	c-1.3,1.2-2.4,3.5-0.6,4.8c2,1.4,7.3-1.1,7.7,1.9c0.3,2-1.3,5.2-0.1,7c1.3,2.1,3.4,0.2,4.2-1.1c0.6-1,2.8-3.6,3.4-1.5
	c0.3,1-0.1,2.3,0.1,3.4c0.3,1.7,1.4,4.8,3.8,4.1c0.8-0.2,1.1-1,1.4-1.7c0.9-1.7,1.8-3.4,2.9-5c0.7-1.1,2.4-2.4,3.2-0.8
	c0.3,0.5,0.2,1.3,0.2,1.8c0,1.8,0,3.5-0.1,5.3c0,1.3,0.7,3.2,2.1,3.5c-0.5,0.1-1.1,0.1-1.6,0.2c-1.6,0.2-2.8,0.9-4.1,1.6
	c-1.8,1.1-3.6,2-5.5,2.8c-3.4,1.6-7,1.6-9.9,4.3c-1.2,1.1-2.2,2.4-3.4,3.4c0,0-1.1,0.9-1.2,0.8c-1-0.2-0.7-1.1-0.6-1.8
	c0.1-1,0-2.1,0-3.1c0.2-5.5,2.9-10.2,5.1-15.1c0.3-0.7-0.6-1.2-0.9-0.6c-1.8,3.9-3.8,7.7-4.8,11.9C6.1,87,6,88.8,6,90.7
	c0,1.3-0.3,2.7,0.2,4c0.1,0.2,0.3,0.3,0.5,0.3c1.9,0,3.4-1.7,4.7-3c1.1-1.1,2.2-2.4,3.6-3.2c1.5-0.9,3.4-1,5.1-1.6
	c3-0.9,5.9-2.6,8.6-4.2c1.9-1.1,3.5-1.3,5.6-1.4c1.9-0.1,3.6-0.8,5.5-0.9c3.5-0.3,7.2,0,10.7,0c1.6,0,3.1-0.1,4.7,0.1
	c2,0.2,3.2,1.3,4.8,2.5c1.4,1.1,2.4,2,3.4,3.5c1,1.5,1.9,3.3,3,4.7c1.1,1.4,2.2,1.1,3.2-0.2c1.2-1.4,1.9-3.1,3.3-4.4
	c1.3-1.2,3-1.2,4.5-2c0.9-0.5,1.7-0.9,2.6-1.3c0.8,0.1,1.6,0,2.4-0.5c0.4-0.3,0.8-0.6,1-1.1c1.5-0.7,3.3-1.8,4.7-1.7
	c0.7,0,0.7-1,0-1c-1.3,0-2.3,0.6-3.4,1.2c-0.3,0.1-0.5,0.2-0.8,0.4c0.1-0.2,0.1-0.5,0.2-0.8c0.5-1.7,1.1-4.3,2.3-5.8
	c1.9,1.9,1.9,5.2,3.9,7.1c1.4,1.3,3.2,1.7,4.4,0c1.3-1.9,1.4-4.3,2.4-6.3c1.1-2.1,2.5,0.1,3.1,1.4c0.7,1.4,1.5,2.6,2.6,3.7
	c1.5,1.4,2.7,1.4,3.9-0.3c0.7-1.1,0.9-2.2,1.9-3c0.4-0.3,0.9-0.6,1.3-1c1.6-1.2,3.2-1.2,4.5,0.4c0.9,1.2,1,2.6,2.1,3.7
	c0.9,0.9,2.1,1.4,3.4,1.5c2.9,0.4,4.1-1.6,5.5-3.8c0.8-1.3,0.6-3.3,2-4.2c1.3-0.8,4.2-1.6,5.6-1.6c1.9,0,2.7,1.7,4.2,2.5
	c1.4,0.7,2.8,1.2,4.2,1.9c2,1,3.3,0,3.8-2.1c0.3-1.1,0-2.5,0.5-3.6c1.1-2.4,4.4-0.1,6,0.7c1.2,0.6,2.4,0.9,3.7,0.9
	c1.2,0,2.8,0.2,3.9-0.5c0.7-0.5,1.1-1.2,1.2-2c0.8,1.8,0.4,3.7,0,5.8c-0.2,1.3-0.3,2.4-1,3.6c-0.5,1-1.1,1.8-1.5,2.8
	c-1,2.7-1.4,5.2-4,6.9c-2.2,1.4-4.8,1.8-7.2,2.6c-2.5,0.9-4.7,1-7.4,0.9c-2.7-0.1-5,0.4-7.7,0.9c-2.8,0.5-5.5,0.1-8.2,0.1
	c-2.6,0-5,0.8-7.6,1.2c-5.7,0.9-11.5-0.1-17.2,1c-5.8,1.2-11.5,1-17.4,0.6c-5.4-0.4-11.1,0.3-16.5-0.4c-0.1-0.3-0.4-0.4-0.7-0.3
	c0,0,0,0,0,0l-0.2,0.1c-2.1-0.4-3.9-1-6-1.1c-2.8-0.1-5.5-0.5-8.3-0.5c-2.9,0-5.8,0.1-8.7,0.4c-3.3,0.4-6.6,0.3-10,0.3
	c-4.2-0.1-16.1,2.7-16.1-4.3c0-0.7-1.1-0.7-1.1,0c0,4.4,4.4,5.7,8.2,5.7c2.7,0,5.5-0.3,8.2-0.3c0,0.2,0.2,0.4,0.4,0.4
	c3.1,0.5,6,2,9.1,2.5c1.3,0.2,2.4,0.8,3.7,1c1.3,0.2,2.5,0,3.8,0c3.1,0,6.2,0.2,9.3-0.3c2.7-0.4,5.2-1.5,7.6-2.7
	c0.9,0.1,1.9,0.2,2.8,0.3c3.4,0.1,6.8,0,10.1,0.1c1.1,0,2.1,0.1,3.2,0.1c-2.5,1.3-5.2,2.1-7.9,3.1c-2.3,0.8-4.3,1.9-6.4,3.1
	c-1.9,1-4.2,1.4-6.3,1.8c-0.2-1-0.7-1.8-2-0.7c-0.4,0.3-0.7,0.8-1,1.2c-2.6,0.2-5.3-0.1-7.8-0.1c-2.9,0-5.8,0.2-8.6-0.6
	c0-0.1-0.1-0.2-0.1-0.3c-0.3-0.8-0.7-2.8-1.7-3.2c-1.2-0.5-2.3,0.8-3.2,2.1c-0.8,0-1.7,0-2.5,0c-3,0.1-5.8-0.8-8.5-2
	c-2.3-1.1-4.1-3-6.3-4.4c-0.6-0.4-1.1,0.5-0.5,0.9c2.2,1.3,3.9,3.3,6.3,4.4c0.9,0.4,1.9,0.8,2.9,1.2c-0.6,0.8-0.9,2.3-1.1,2.9
	c-0.3,1-0.7,2.2-1.8,1.6c-0.8-0.4-1.5-1.6-2.1-2.3c-0.8-0.9-2-2.3-3.3-1.8c-2,0.8-0.2,4.9-2.2,4.9c-1.4,0-4.9-5-6.4-2.6
	c-0.5,0.7,0.3,1.8,0.7,2.4c0.8,1,2,2.2,2.6,3.5c-0.6,0.1-0.6,1.1,0.1,1h0.2c0,0.1,0,0.2,0,0.3c0.1,0.6,1.2,0.6,1.2-0.1
	c0-0.1,0-0.2,0-0.3c0.9,0,1.8,0.1,2.8,0.6c0.7,0.3,1.4,0.6,2.2,0.7c2.3,0.3,4.6,0.4,6.9,0.8c4.6,0.7,9.1,0.8,13.7,0.8
	c4.9,0,9.8,0.5,14.7,0.6c2.5,0,5,0,7.5,0.1c2.9,0.1,5.5,0.7,8.3,1.1c4.6,0.7,9.2-0.1,13.8,0.5c2,0.3,4,0.9,6,1.1
	c2.5,0.3,5.2,0.3,7.8,0.2c4.4-0.1,8.7-1,13.1-0.9c1,0,2,0.1,3-0.1c1.2-0.2,2.3-0.6,3.5-0.7c2.1-0.1,4.3-0.3,6.4-0.3
	c4.8,0,9.4-0.2,14-1.7c4.1-1.4,8.4-2.9,12.3-4.7c3.6-1.7,6.5-4.6,9.8-6.8C161.2,103.3,164.1,101.7,163.4,99.6L163.4,99.6z
	 M11.8,52.4c-0.4-1-0.6-2-0.8-3c0-0.1,0.1-0.1,0.1-0.2c0.9-6.1,6.4-9.9,10.5-13.9c1.9-1.9,3.2-4.2,5.1-6c2.1-2,4.7-3.2,7-4.8
	c4.5-3.2,9-6.2,14.1-8.5c2.3-1,4.7-1.9,7-2.9c2.6-1.2,4.8-2.2,7.6-2.9c1.2-0.3,2.2-1,3.4-1.3c1.1-0.3,2.1-0.6,3.2-1
	c3.1-1.4,5.7-2.9,9.2-3.2c5.8-0.4,11.9,0,17.7,0.1c2.9,0,5.9-0.3,8.7,0.4c3,0.7,5.9,1.8,8.9,2.5c2.8,0.7,5.1,1.9,7.5,3.5
	c2.4,1.6,4.8,1.9,7.5,2.8c1.2,0.4,2.3,0.9,3.4,1.3c1.4,0.5,2.8,0.8,4.1,1.6c2.4,1.4,4.6,3.3,6.8,5c2.1,1.6,4.6,3.3,5.9,5.7
	c1.1,2,2.2,4.1,3.7,6c1.5,1.9,4.6,4.2,4.8,6.7c0.2,2.8,0.7,5.6,0.3,8.4c-0.3,2.5-1.3,5.2-2.6,7.4c-1.5,2.5-4.8,1.6-7.2,2.1
	c-1.3,0.3-2.5,0.7-3.8,1.1c-0.8,0.2-1.5,0.4-2.4,0.4c-0.5,0-1-0.1-1.5,0c-2.5,0.5-4.8,2.3-7.1,3.2c-2.8,1.1-5.5,1.6-8.5,1.6
	c-2.9,0-5.5,0.4-8.3,0.8c-2.9,0.4-5.7,0.8-8.5,1.3c-3.2,0.6-6.3,0.7-9.6,0.6c-2.5-0.1-5.1-0.3-7.6,0.2c-3.2,0.6-6.2,0.5-9.4,0.5
	c-6.7-0.1-13.3,2.1-19.9,0.6c-3.3-0.8-6.6-1-9.9-1.5c-3.1-0.4-6.2-0.1-9.4-0.3c-1.8-0.1-3.5-0.6-5.3-0.8c-1.5-0.2-2.9,0-4.4-0.1
	c-3.7-0.2-6.8-2.6-10-4.3c-1.5-0.7-3-1.3-4.4-2c-1.4-0.6-3.1-1.1-3.8-2.6C13.2,55.3,12.4,53.9,11.8,52.4z M44.5,79.6
	c-3.3,0-6.5,0.3-9.7,0.7c0.7-0.4,1.1-1.3,1.5-2c0.9-1.7,1.8-3.6,3.2-5c0.4-0.4,0.9-0.9,1.4-1c1-0.3,2.5,0.7,2.8,1.7
	c0.2,0.4-0.2,1.1-0.1,1.5c0.2,0.9,0.8,1.2,1.6,1.4c3.1,0.7,4.6-2.4,6.7-4c0.2-0.2,0.9-0.8,1.2-0.8c0.2,0,0.1-0.9,0.2,0.6
	c0,0.8,0.2,1.6,0.5,2.4c0.4,1.2,0.7,2.8,1.3,3.9c0.2,0.3,0.4,0.6,0.7,0.8l0,0C52,79.2,48.1,79.6,44.5,79.6z M70.5,87.7
	c-0.5,0.7-0.9,1.4-1.4,2.1c-0.2,0.3-0.7,1.2-0.9,1.2c-0.7,0.1-1.6-1-1.9-1.4c-1.2-1.5-2-3.3-3.2-4.9c-1-1.3-2.4-2.1-3.7-3.1
	c-0.6-0.5-1.3-0.9-2-1.3c1.4-0.1,2.9-0.9,4-1.5c1-0.5,1.6-1.2,2-2.3c0.2-0.6,0.7-2.7,1.6-2.6c1,0,0.7,1.1,0.9,1.7
	c0.9,2.8,4.2,1.1,5.8,0.2c1.4-0.8,2.6-3.1,4.4-2.5c2,0.8,1,5.2,1.1,6.9c0,1.2,0.5,2.1,1.3,2.7C75.6,84.4,72.6,84.9,70.5,87.7z
	 M156.7,71.1c-1.9,0.2-3.6-0.3-5.3-1.1c-1.3-0.6-2.6-1.4-4-1.6c-1.5-0.2-2.5,0.2-2.9,1.7c-0.3,1.1-0.2,2.3-0.4,3.4
	c-0.3,1.4-1,2.1-2.5,1.7c-0.6-0.2-1.1-0.7-1.7-1c-1.5-0.7-2.8-1.1-4.1-2.2c-0.8-0.7-1.6-1.2-2.6-1.2c-1.4-0.1-2.7,0.4-4,0.9
	c-0.9,0.3-2,0.5-2.8,1.1c-0.8,0.5-1,1.2-1.2,2.1c-0.4,1.6-1.1,2.9-2,4.2c-1.7,2.3-5.2,1.4-6.4-0.8c-0.8-1.3-1-2.3-2.1-3.4
	c-1.6-1.5-3-1.5-4.8-0.2c-0.8,0.5-1.9,1.1-2.5,1.8c-0.8,0.9-0.7,2.4-1.7,3.2c-1.8,1.3-3.8-2.3-4.4-3.7c-0.4-0.9-0.9-2.1-1.7-2.7
	c-1.5-1.1-2.7,0.3-3.3,1.5c-0.5,0.9-0.7,1.9-1,2.9c-0.1,0.4-0.3,0.9-0.4,1.3c-0.1,0.4-0.3,0.9-0.5,1.3c-0.4,0.6-1.7,1.1-2.5,0.9
	c-1.6-0.4-2.3-3.4-2.9-4.8c-0.5-1.2-1-2.4-2-3.2c-0.2-0.2-0.5-0.2-0.7,0c-1.9,1.6-2.4,5-3.1,7.2c-0.1,0.2-0.2,0.6-0.3,0.9
	c-0.9,0.4-1.8,0.8-2.7,1.2c-0.6-0.2-1.2-0.7-1.4-1.6c-0.1-0.6,0-1.4,0-2c0-1.6,0.4-3.6,0-5.1c-0.4-1.5-2.4-1.6-3.8-1.3
	c-0.9,0.2-1.3,0.9-2,1.5c-0.7,0.7-1.4,1.2-2.3,1.6c-0.3,0.1-0.7,0.4-1,0.5c-0.7,0.1-2.1-0.6-2.3-1.2c-0.2-0.6,0.1-1.2-0.4-1.8
	c-0.5-0.5-1.1-0.3-1.7-0.1c-0.8,0.4-1.4,1-1.8,1.8c-0.4,0.8-0.5,1.5-1,2.2c-0.6,0.8-1.6,1.3-2.5,1.7c-1.1,0.5-1.2,0.9-2.4,0.6
	c-1.2-0.3-1-0.7-1.5-1.8c-0.2-0.5-0.3-1.2-0.5-1.7c-0.3-0.9-0.6-1.7-0.6-2.6c-0.1-0.5,0-1.2-0.4-1.7c-1.1-1.4-3,0.7-3.9,1.5
	c-1.1,1-2.5,3.2-4.2,2.9c-2.1-0.3-0.9-1.9-1.5-3.1c-0.8-1.9-3.4-2.1-5-1c-0.9,0.6-1.5,1.6-2.1,2.4c-1,1.3-1.5,3.2-2.5,4.4
	c-1.1,1.3-2.4,0.3-2.6-1.3c-0.1-0.7,0.1-1.5,0.1-2.2c0-1.4,0.1-2.9,0-4.4c-0.1-1.4-0.6-2.8-2.2-2.8c-2.2,0-3.6,2.9-4.6,4.4
	c-0.7,1.1-1.4,4.3-3.2,3.7c-1.6-0.5-1.7-3.4-1.7-4.8c0-1.2,0.5-3.5-1.3-3.7c-0.8-0.1-1.7,0.6-2.3,1.1c-0.5,0.4-0.9,0.9-1.3,1.3
	c-0.4,0.5-1.9,3.6-2.9,1.7c-0.5-0.8,0.1-2.8,0.1-3.7c0.1-1.2,0.5-2.7,0-3.9C12.3,61.9,9.1,63,7.3,63c-1.5,0-3.2-0.6-2.2-2.5
	c0.4-0.7,1.1-1.2,1.7-1.7c1.8-1.6,3.3-1.2,5.5-1.1c0.4,0,0.6-0.5,0.5-0.8c0.3,0.6,0.6,1.2,1,1.7c0.8,0.8,2,1,3,1.5
	c2.9,1.3,5.6,2.6,8.4,4.1c2.5,1.4,4.7,2.4,7.6,2.5c1.7,0,3.3,0,5.1,0.4c1.5,0.3,2.9,0.6,4.4,0.6c3.5,0.1,6.8,0,10.2,0.5
	c1.6,0.2,3.2,0.2,4.8,0.5c1.7,0.2,3.4,0.8,5.1,1.1c2.6,0.5,5.5,0.5,8.2,0.1c3.4-0.5,6.7-1,10.1-1c2.9,0,5.9,0.4,8.8-0.2
	c3.4-0.7,6.7-0.5,10.2-0.4c2.9,0.1,5.8-0.2,8.6-0.8c3.2-0.6,6.4-0.9,9.7-1.5c3.4-0.6,6.8-0.3,10.2-0.7c2.6-0.3,5.2-1.3,7.5-2.4
	c1.2-0.6,2.3-1.4,3.6-1.9c1.5-0.6,3.1-0.3,4.7-0.7c1.2-0.4,2.5-0.7,3.8-1.1c1.3-0.4,2.7-0.2,4-0.4c1.5-0.3,3.1-0.5,3.9-1.9
	c0.9-1.7,1.7-3.5,2.3-5.3c2.4-0.1,4.2-1.2,6.2-2.5c0.5-0.3,1-0.6,1.5-0.9c0.8-0.4,1.3-0.8,2-0.1c0.9,0.9,0.1,1.1-0.2,2.1
	c-0.1,0.4-0.2,0.7-0.1,1.1c0.3,1.3,1.7,2,2.7,2.6c0.9,0.6,2,1.1,1.8,2.4c-0.3,1.5-2.4,2.4-3.5,3.3c-1.2,1.2-2.2,2.6-4,3
	c-1.7,0.3-3.4-0.2-5.1-0.2c-1.7,0.1-2.6,0.9-2.4,2.7c0.1,0.8,0.5,1.4,1,2C159.6,68.6,159.9,70.8,156.7,71.1z M56,98.2
	c-3.2,0.5-6.4,0.2-9.7,0.2c-4.4,0.1-8.5-1.7-12.7-2.8c2.2,0,4.4,0,6.5-0.2c6.3-0.8,12.5-0.4,18.8,0c1.1,0.1,2.1,0.5,3.2,0.8
	C60.2,97.1,58.2,97.9,56,98.2L56,98.2z M85.1,97.3c-1.1,0-2.2,0.1-3.3,0.2c-0.2,0-0.5,0-0.7,0.1c0.1-0.1,0.1-0.3,0-0.5
	C82.4,97.1,83.8,97.2,85.1,97.3L85.1,97.3z M80.8,99.8c0,0,0.1-0.1,0.1-0.1l0.1-0.1c0.4-0.3,0.5-0.6,0.5-0.9c0.1,0,0.2,0,0.2,0h0
	c1.2-0.1,2.4-0.1,3.6-0.2c1.9-0.1,3.5-0.1,4.9-0.1c1,0,2,0,3,0c0.6,0,1.2,0,1.8,0l0.9,0c0.8,0,1.7,0,2.5,0c0.7,0,1.3,0,2,0.1
	c0.8,0,1.6,0.1,2.4,0.1c1.1,0,2.2,0,3.2,0l0.8,0l0.7,0c0.4,0,0.9,0,1.3,0c0.5,0,1,0,1.5,0c0.9,0,1.8,0,2.6,0c0.4,0,0.7,0,1.1,0
	c0.4,0,0.8,0,1.2,0c0.7,0,1.4-0.1,2-0.2c0.2,0,0.5-0.1,0.7-0.1c0.3,0,0.6-0.1,1-0.1c0.7-0.1,1.5-0.2,2.2-0.2c0.5,0,1.1-0.1,1.6-0.1
	c0.4,0,0.8,0,1.2,0c0.2,0,0.4,0,0.6,0l0.2,0l1-0.1c0.5,0,1-0.1,1.5-0.1c0.2,0,0.5-0.1,0.7-0.1c0.3,0,0.7-0.1,1-0.1c0.3,0,0.7,0,1,0
	c-0.1,0.1-0.2,0.3-0.4,0.3c-0.5,0.2-0.7,0.7-0.9,1c-0.2,0.5-0.6,0.8-1.1,1.2l0,0c-0.1,0-0.1,0.1-0.2,0.1c0,0-0.1,0-0.1,0.1l-0.1,0
	c-1.1,0.9-2.5,1.3-3.7,1.7c-0.5,0.1-1,0.3-1.4,0.5c-0.4,0.1-0.7,0.3-1.1,0.4c-1,0.3-2,0.5-3.1,0.7c-0.6,0.1-1.3,0.1-1.9,0.2
	c-0.6,0.1-1.3,0.2-1.9,0.2c-1.1,0.1-2.4,0.2-3.9,0.4c-0.5,0-1,0.1-1.6,0.1c-0.8,0.1-1.7,0.1-2.6,0.2c-1.4,0.1-2.7,0.2-4.1,0.2
	c-0.4,0-0.8,0-1.2,0c-0.9,0-1.8,0-2.7,0c-0.3,0-0.7,0-1,0c-1.2,0-2.4,0-3.5-0.2c-0.5-0.1-1-0.1-1.4-0.1c-0.3,0-0.5,0-0.8,0
	c-0.2,0-0.5,0-0.7-0.1c-0.2,0-0.4-0.1-0.6-0.1c-0.3,0-0.7,0-1-0.1c-0.6,0-1.1-0.1-1.7-0.1c-0.6-0.1-1.1-0.2-1.6-0.3
	c-0.3-0.1-0.6-0.1-0.9-0.2h0c-0.1,0-0.2,0-0.3,0c-0.8,0-1.5-0.2-2.3-0.4c-0.2-0.1-0.4-0.1-0.7-0.2c-0.6-0.1-1.2-0.3-1.7-0.6
	c-0.4-0.2-0.7-0.3-1.1-0.4l-0.3-0.1l-0.1,0c0.2-0.2,0.5-0.3,0.7-0.5l0.2-0.1C79.8,100.8,80.4,100.4,80.8,99.8L80.8,99.8z
	 M68.4,102.7c1.4-0.7,2.9-1.3,4.4-1.8c2.4-0.8,5-1.7,7.3-2.8l0.1,0.3c0,0,0,0.1,0,0.1c0,0.1,0,0.1,0.1,0.2l0,0
	c-0.1,0.1-0.3,0.2-0.4,0.3l0,0c-0.3,0.4-0.7,0.7-1.2,1.1l-0.2,0.1c-0.5,0.3-0.9,0.6-1.4,1l-0.7,0.5l0.4,0.5c0.2,0.3,0.6,0.5,0.9,0.6
	c0.2,0.1,0.3,0.1,0.5,0.1l0.3,0.1c0.3,0.1,0.6,0.2,0.9,0.3c0.6,0.3,1.3,0.5,1.9,0.6c0.2,0.1,0.4,0.1,0.6,0.2
	c0.9,0.2,1.7,0.5,2.7,0.4c0,0,0.1,0,0.1,0c0.3,0,0.5,0.1,0.8,0.1c0.6,0.1,1.1,0.2,1.7,0.3c0.6,0.1,1.2,0.1,1.7,0.1
	c0.3,0,0.6,0,1,0.1c0.2,0,0.4,0,0.5,0.1c0.3,0,0.5,0.1,0.8,0.1c0.3,0,0.6,0,0.8,0c0.4,0,0.9,0,1.3,0.1c1.2,0.2,2.5,0.2,3.7,0.2
	c0.3,0,0.7,0,1,0c0.9,0,1.9,0,2.8,0c0.4,0,0.8,0,1.2,0c1.4,0,2.8,0,4.2-0.2c0.8-0.1,1.7-0.1,2.5-0.2c0.5,0,1.1-0.1,1.6-0.1
	c1.5-0.1,2.8-0.2,3.9-0.4c0.6-0.1,1.3-0.1,1.9-0.2s1.3-0.2,1.9-0.2c1.1-0.1,2.2-0.4,3.3-0.7c0.4-0.1,0.8-0.3,1.2-0.4
	c0.5-0.2,0.9-0.3,1.3-0.5c1.4-0.4,2.8-0.9,4.1-1.9l0.1,0c0.1-0.1,0.2-0.1,0.3-0.2c0.5-0.4,1.2-0.9,1.5-1.7c0.1-0.2,0.2-0.3,0.3-0.4
	c0.7-0.3,0.9-0.8,1.1-1.2c0-0.1,0.1-0.1,0.1-0.2c0.2-0.4,0.1-0.7,0-0.9s-0.3-0.4-0.8-0.4c-0.5,0-1.1,0-1.7,0c-0.4,0-0.7,0.1-1.1,0.1
	c-0.2,0-0.5,0.1-0.7,0.1c-0.5,0-1,0.1-1.5,0.1c-0.4,0-0.7,0.1-1.1,0.1l-0.2,0c-0.2,0-0.4,0-0.6,0c-0.4,0-0.8,0-1.2,0
	c-0.6,0-1.1,0-1.7,0.1c-0.8,0.1-1.5,0.1-2.3,0.2l-1,0.1c-0.2,0-0.5,0.1-0.7,0.1c-0.7,0.1-1.3,0.2-1.9,0.2c-0.4,0-0.7,0-1.1,0
	c-0.4,0-0.8,0-1.2,0c-0.9,0-1.7,0-2.6,0c-0.5,0-1,0-1.5,0c-0.5,0-0.9,0-1.4,0l-0.7,0l-0.8,0c-1,0-2.1,0.1-3.1,0
	c-0.8,0-1.6,0-2.3-0.1c-0.7,0-1.3-0.1-2-0.1c-0.9,0-1.7,0-2.6,0h-0.2c3.1-0.5,6-1.1,9.2-1.2c3.2,0,6.4,0.1,9.5-0.3
	c3.2-0.4,6.3-1.4,9.6-1.4c3,0.1,5.8,0.3,8.8-0.3c3.2-0.6,6.1-0.5,9.4-0.6c2.1,0,3.9-0.7,5.8-1.3c-0.9,0.8-1.6,1.6-2.1,2.7
	c-0.7,1.6-2,2.4-3.1,3.7c-1.3,1.5-2.8,3.2-4.5,4.6c-0.7-0.4-1.4-0.5-2.1,0c-0.8,0.6-1.2,1.5-1.7,2.4c-1.8,0.8-3.7,1.4-5.6,1.9
	c-0.3-0.4-0.6-0.9-1-1.3c-2-1.6-4.2,0.7-5.4,2.2c-1.8,0.2-3.7,0.6-5.5,0.9c-0.2-0.2-0.5-0.3-1-0.3c-0.9,0-1.5,0.4-2,0.9
	c-0.4,0.1-0.7,0.1-1.1,0.2c-1.9,0.3-3.8,0.5-5.8,0.6c-0.7-0.8-1.5-1.3-2.5-1c-0.6,0.2-1.1,0.6-1.6,1.1c-0.8,0-1.7,0-2.5,0
	c-1.3,0-2.7,0-4,0c-0.3-0.4-0.6-0.7-1-1c-1.1-0.8-2.4-0.8-3.7-0.3c-0.8,0.3-1.5,0.7-2,1.3c-0.4,0-0.8-0.1-1.2-0.1
	c-2.7-0.3-5.6-0.3-8.2-1c-0.4-0.6-0.8-1.1-1.5-1.4c-0.7-0.3-1.5-0.2-2.2,0c-1.3-0.6-2.6-1.2-3.8-1.9c-1.5-0.9-2.8-1.9-4.4-2.6
	c-0.3-0.1-0.6,0.1-0.6,0.4c-0.3-0.3-0.8-0.5-1.4-0.3C67.1,103.4,67.7,103,68.4,102.7L68.4,102.7z M133.7,107.1
	c-0.1,0.1-0.1,0.2-0.2,0.2c-0.3,0.3-0.8,0.9-1.2,1c-0.4,0-0.8,0-1.2,0c-0.6,0.2-1,0.2-1.4-0.1C131,108.1,132.4,107.6,133.7,107.1
	L133.7,107.1z M128.1,107.7c-1.3,0.3-2.6,0.4-3.9,0.6c1-1.1,2.2-2.1,3.5-1C127.8,107.3,127.9,107.5,128.1,107.7L128.1,107.7z
	 M121.8,109.5c-1,1.3-2.2,2.8-3.5,1.2c-0.1-0.2-0.3-0.4-0.4-0.6c0.4-0.1,0.7-0.2,1.1-0.3C119.9,109.8,120.8,109.6,121.8,109.5
	L121.8,109.5z M113.1,111.2c-0.4,0.6-0.8,1.2-1.4,1.7c-1.5,1.3-2.5,0.2-3.6-1.1C109.8,111.7,111.4,111.5,113.1,111.2L113.1,111.2z
	 M105.3,110.8H105C105.1,110.8,105.2,110.8,105.3,110.8L105.3,110.8z M102.1,111.8c-0.3,0.2-0.6,0.4-0.9,0.5
	c-1.4,0.6-2.7,0.5-3.7-0.6c1.3,0,2.7,0,4,0L102.1,111.8z M95.3,110.8c-1.3,0-2.6,0-3.9,0C92.6,110.1,94.1,109.9,95.3,110.8
	L95.3,110.8z M88.9,111.7c-0.1,0.1-0.2,0.2-0.3,0.3c-1.2,1.1-5.2,1.3-6.4,0.2c-0.4-0.3-0.7-0.7-0.9-1.2c2.5,0.4,5.1,0.4,7.5,0.7
	L88.9,111.7z M75.4,108.8l-0.2,0.1c-0.6,0.4-1.1,0.8-1.7,1.2c-2,1-3.6-0.2-4.1-2.1c-0.2-0.8-0.4-2.2-0.9-3.2
	c1.9,0.8,3.5,2.2,5.4,3.2C74.3,108.2,74.8,108.5,75.4,108.8L75.4,108.8z M65.2,104.5c0.1,0,0.2-0.1,0.3-0.1c-0.6,0.5-1,1.3-1.2,2.1
	c-0.2,0.7-0.1,1.5-0.4,2.2c-0.5,1.2-0.9,2.2-2.4,2c-1.1-0.1-1.2-1-1.5-2.3c-0.1-0.5-0.3-1.1-0.4-1.6c0-0.2-0.1-0.5-0.1-0.8
	C61.5,105.6,63.4,105.2,65.2,104.5z M56,106.2c-0.1,0.2-0.2,0.4-0.4,0.6c-0.6,1-1.8,3-3,3.1c-1.2,0.1-1.7-1.2-2.2-2
	c-0.4-0.7-0.9-1.3-1.3-1.6C51.3,106.3,53.7,106.3,56,106.2L56,106.2z M45.9,106.3c-0.3,0.2-0.6,0.4-0.9,0.6
	c-1.5,1.3-2.7,1.5-3.9-0.2c-0.2-0.3-0.4-0.6-0.5-0.9C42.3,106.2,44.1,106.3,45.9,106.3L45.9,106.3z M36.8,102.8c1.4-1,1.6,0.4,2,1.5
	c-0.9-0.3-1.7-0.7-2.6-0.8C36.3,103.2,36.6,103,36.8,102.8L36.8,102.8z M30.7,104.4c1.3,0.1,2.5,0,3.8,0c-0.3,0.6-0.6,1.1-0.8,1.4
	c-0.4,0.6-0.8,1.5-1.4,1.9c-2,1.4-3.1-1.7-3.4-2.9c-0.1-0.2-0.1-0.4-0.2-0.7C29.4,104.2,30,104.3,30.7,104.4L30.7,104.4z
	 M161.8,101.4c-0.5,0.7-1.5,1.3-2.2,1.8c-4,2.7-7.5,6-12.1,7.8c-5.4,2.1-11,4.7-16.8,5.4c-2.6,0.3-5.1,0.2-7.7,0.1c-1,0-2,0.1-3,0.2
	c-1.5,0.2-3,0-4.5,0.4c-2.6,0.6-5.2,0.2-7.8,0.5c-2.6,0.3-5.2,0.5-7.8,0.7c-2.8,0.2-5.7,0.1-8.5,0c-2.8-0.1-5.4-1-8.2-1.3
	c-2.8-0.3-5.7-0.1-8.5-0.1c-2.8,0-5.4-0.7-8.1-1.1c-5.9-0.9-12.1-0.3-18.1-0.5c-3.1-0.1-6.1-0.5-9.2-0.5c-3.2,0-6.4-0.1-9.6-0.4
	c-3-0.3-6-0.5-8.9-1c-1.5-0.2-2.7-0.6-4.2-1.1c-1-0.3-1.9-0.4-2.8-0.4c-0.4-1.2-1.2-2.2-2-3.1c-0.5-0.6-2.7-3.2-0.2-1.8
	c1,0.5,1.7,1.5,2.7,2.1c0.8,0.4,2.1,1.1,3,0.4c0.9-0.7,0.5-2.2,0.5-3.2c0.2-4.1,3.6,1.2,4.8,2.1c1.7,1.3,3,0.2,3.6-1.6
	c0.2-0.5,0.3-1,0.5-1.5c0.1-0.3,0.2-0.9,0.5-1.2c0.7-0.6,0.6,0.2,0.8,0.8c0.5,1.5,1.1,3.3,2.7,4c2.4,1.1,3.6-2.3,4.9-4.5
	c1.3,0.2,2.5,0.7,3.7,1.1c0.2,0.4,0.4,0.8,0.6,1.2c0.8,1.3,2,2.7,3.7,2.4c2.2-0.4,3.3-4.5,5.6-1.2c0.7,1,1.1,2.6,2.6,3
	c1.5,0.3,2.8-1,3.7-2c0.5-0.6,0.9-1.4,1.4-2.1c0.1-0.2,0.2-0.5,0.4-0.7c0.5,0,0.9-0.1,1.4-0.1c0.5,1.4,0.3,3.2,1.2,4.4
	c0.9,1.2,2.4,1.5,3.6,0.6c1.4-1,1.8-2.5,2.1-4.1c0.2-0.8,1-3.6,2.5-1.1c0.2,0.4,0.2,1.1,0.3,1.5c0.2,0.9,0.4,1.7,0.9,2.5
	c0.8,1.2,2,1.9,3.4,1.7c1.5-0.2,3-1.6,4.3-2c0.5,0.2,1,0.5,1.6,0.7c0.5,0.2,1,0.4,1.5,0.5c0.1,0.1,0.1,0.2,0.2,0.3
	c0.9,1.5,1.7,2.7,3.6,2.8c1.4,0.1,3.7,0.4,5-0.5c0.6-0.4,0.9-1.1,1.4-1.6c2.1,0.1,4.1,0.1,6.2,0.1c1,1.2,1.7,2.2,3.6,2
	c1.5-0.2,2.9-1,3.9-2c1.1,0,2.1,0,3.1,0c0.2,0.3,0.4,0.6,0.6,0.9c0.6,0.7,1.2,1.3,2,1.6c2.6,1,3.5-1.9,5-3.3c0.7-0.1,1.3-0.3,2-0.4
	c1,0.7,1.6,2.7,3.1,2.4c1.5-0.3,2.6-2.4,3.4-3.5l0.1-0.1c0.6-0.1,1.2-0.1,1.8-0.2c1.2-0.2,2.5-0.4,3.7-0.6c0.2,0.3,0.5,0.7,0.7,0.9
	c1.5,1.3,2.8,0.4,4.1-0.7c0.9-0.8,1.4-1.6,2-2.5c1-0.5,2-1.1,2.8-1.9c0.5,0.4,0.9,1.2,1.4,2.1c0.6,1.1,1.6,1.8,2.7,0.9
	c1.4-1.2,1.8-3.8,2.5-5.5c0.1-0.4,0.4-1.2,0.8-1.4c1.5-0.8,1.7,0.7,2.1,1.4c0.3,0.6,0.6,1,1.2,1.1c0.2,0.1,0.4,0,0.5-0.1
	c1.3-1.3,2-5.4,4.1-5.4c0.9,0,0.5,1.1,0.5,1.9c0,0.6,0,1.2,0.3,1.8c0.1,0.2,0.3,0.3,0.5,0.3c1.7,0,3-1.1,4.5-1.7
	c0.4-0.2,0.9-0.4,1.4-0.4C162,99.4,162.5,100.5,161.8,101.4L161.8,101.4z"/>
</svg>
