<?xml version="1.0" encoding="utf-8"?>
<!-- Generator: Adobe Illustrator 21.1.0, SVG Export Plug-In . SVG Version: 6.00 Build 0)  -->
<svg version="1.1" id="Layer_1" xmlns="http://www.w3.org/2000/svg" xmlns:xlink="http://www.w3.org/1999/xlink" x="0px" y="0px"
	 viewBox="0 0 4000 3121.2" style="enable-background:new 0 0 4000 3121.2;" xml:space="preserve">
<style type="text/css">
	.st0{clip-path:url(#SVGID_2_);fill:#BBBDBF;}
	.st1{clip-path:url(#SVGID_4_);fill:#BBBDBF;}
	.st2{clip-path:url(#SVGID_6_);fill:#EC1C24;}
	.st3{clip-path:url(#SVGID_8_);fill:#EC1C24;}
	.st4{clip-path:url(#SVGID_10_);fill:#EC1C24;}
	.st5{clip-path:url(#SVGID_12_);fill:#231F20;}
	.st6{clip-path:url(#SVGID_14_);fill:#231F20;}
	.st7{clip-path:url(#SVGID_16_);fill:#EC1C24;}
	.st8{clip-path:url(#SVGID_18_);fill:#EC1C24;}
	.st9{clip-path:url(#SVGID_20_);fill:#231F20;}
	.st10{clip-path:url(#SVGID_22_);fill:#231F20;}
	.st11{clip-path:url(#SVGID_24_);fill:#231F20;}
	.st12{clip-path:url(#SVGID_26_);fill:#231F20;}
	.st13{clip-path:url(#SVGID_28_);fill:#231F20;}
	.st14{clip-path:url(#SVGID_30_);fill:#231F20;}
	.st15{clip-path:url(#SVGID_32_);fill:#231F20;}
	.st16{clip-path:url(#SVGID_34_);fill:#231F20;}
	.st17{clip-path:url(#SVGID_36_);fill:#231F20;}
	.st18{clip-path:url(#SVGID_38_);fill:#231F20;}
	.st19{clip-path:url(#SVGID_40_);fill:#231F20;}
	.st20{clip-path:url(#SVGID_42_);fill:#231F20;}
	.st21{clip-path:url(#SVGID_44_);fill:#231F20;}
	.st22{clip-path:url(#SVGID_46_);fill:#231F20;}
	.st23{clip-path:url(#SVGID_48_);fill:#231F20;}
	.st24{clip-path:url(#SVGID_50_);fill:#231F20;}
	.st25{clip-path:url(#SVGID_52_);fill:#231F20;}
	.st26{clip-path:url(#SVGID_54_);fill:#231F20;}
	.st27{clip-path:url(#SVGID_56_);fill:#231F20;}
	.st28{clip-path:url(#SVGID_58_);fill:#231F20;}
	.st29{fill:#FFFFFF;}
	.st30{fill:#FAAF40;}
	.st31{clip-path:url(#SVGID_60_);fill:#D0D2D3;}
	.st32{clip-path:url(#SVGID_62_);fill:#D0D2D3;}
	.st33{clip-path:url(#SVGID_64_);fill:#D0D2D3;}
	.st34{clip-path:url(#SVGID_66_);fill:#D0D2D3;}
	.st35{clip-path:url(#SVGID_68_);fill:#FFE78F;}
	.st36{clip-path:url(#SVGID_70_);fill:#FFE78F;}
	.st37{clip-path:url(#SVGID_72_);fill:#BBBDBF;}
	.st38{clip-path:url(#SVGID_74_);fill:#FFE78F;}
	.st39{clip-path:url(#SVGID_76_);fill:#231F20;}
	.st40{clip-path:url(#SVGID_78_);fill:#231F20;}
	.st41{clip-path:url(#SVGID_80_);fill:#231F20;}
	.st42{clip-path:url(#SVGID_82_);fill:#FFFFFF;}
	.st43{clip-path:url(#SVGID_84_);fill:#FFE78F;}
	.st44{clip-path:url(#SVGID_86_);fill:#231F20;}
	.st45{clip-path:url(#SVGID_88_);fill:#231F20;}
	.st46{clip-path:url(#SVGID_90_);fill:#231F20;}
	.st47{clip-path:url(#SVGID_92_);fill:#231F20;}
	.st48{clip-path:url(#SVGID_94_);fill:#231F20;}
	.st49{clip-path:url(#SVGID_96_);fill:#FFEDBA;}
	.st50{clip-path:url(#SVGID_98_);fill:#FFEDBA;}
	.st51{clip-path:url(#SVGID_100_);fill:#FFEDBA;}
</style>
<g>
	<g>
		<g>
			<g>
				<g>
					<g>
						<defs>
							<rect id="SVGID_1_" x="4687.8" y="4431.3" width="2444.5" height="1913.8"/>
						</defs>
						<clipPath id="SVGID_2_">
							<use xlink:href="#SVGID_1_"  style="overflow:visible;"/>
						</clipPath>
						<path class="st0" d="M5268,5629.2c23.6-10.6,50.8-4.5,75.7-4c16.5,0.3,28.9-18.4,27.4-33.5c-1.8-18.1-16.9-27.1-33.5-27.4
							c-31.3-0.6-61.5-5.7-91.2,7.6c-15.1,6.8-24,23.3-17.9,39.4C5234.1,5626.1,5252.8,5636,5268,5629.2"/>
					</g>
				</g>
			</g>
		</g>
	</g>
	<g>
		<g>
			<g>
				<g>
					<g>
						<defs>
							<rect id="SVGID_3_" x="4687.8" y="4431.3" width="2444.5" height="1913.8"/>
						</defs>
						<clipPath id="SVGID_4_">
							<use xlink:href="#SVGID_3_"  style="overflow:visible;"/>
						</clipPath>
						<path class="st1" d="M5472.7,6079.4c5.2-31,6.4-62.8,4-94.7c6.2-36.6,3.8-74.5-1-115c-1.5-13-2.2-26-3.4-39.1
							c-0.1-0.7-0.1-1.2-0.2-1.8c0.1-0.4,0.1-0.6,0.2-1c0.6-3.9,1.2-7.7,1.8-11.6c0.4,0.6,4.4-11.9,5.3-14.1
							c0.5-1.1,0.8-2.1,1.1-2.9c0.8-0.7,1.8-1.7,3.1-3.1c5.2-5.6,10-11.9,15.1-17.6c0.1-0.1,0.1-0.1,0.2-0.2c2.8-2.5,5.7-5,8.7-7.3
							c58.6-48.3,126-87.4,188.8-130c69.5-47.3,138.8-95.1,207.9-143.2c268-186.5,534.6-375.3,800-565.5
							c146.8-105.2,290.9-217.2,406.8-356.8c24-29,26.3-78.1,2.4-108.1c-25.5-32-64.6-43.4-103.6-31.1
							c-190.6,60-365.5,156.9-524.2,277.6c-161.5,122.8-316.9,253.6-476.3,379.2c-158.3,124.8-319.4,245.8-486.9,358.1
							c-76.5,51.3-152.8,104.3-216.1,171.8c-28-39.1-64.1-69.9-110.6-89.8c-54.8-23.4-117.5-30.3-176.1-19.6
							c-112.3,20.4-233.8,85.1-294.1,185c-60.5,100.2-41.1,216.7,9.2,316.9c55.3,110.3,127.9,210.8,235.9,274.3
							c91.7,53.9,209.5,69,310.1,31.5C5385,6282.1,5454.5,6187.6,5472.7,6079.4"/>
					</g>
				</g>
			</g>
		</g>
	</g>
	<g>
		<g>
			<g>
				<g>
					<g>
						<defs>
							<rect id="SVGID_5_" x="4687.8" y="4431.3" width="2444.5" height="1913.8"/>
						</defs>
						<clipPath id="SVGID_6_">
							<use xlink:href="#SVGID_5_"  style="overflow:visible;"/>
						</clipPath>
						<path class="st2" d="M5081.3,5994c-33.1-23.1-53-58.1-50.7-92.5c0.6-8.9,2.2-16.8,4.6-23.9c27.2-4.5,42.2-23.7,46.4-45.5
							c8.5-3.5,17.4-6.4,26-9.1c25.2-7.8,40.5-12.8,65-14.1c-4.5,0.2,4.7,2.9,3.1,0.9c7.4,6.5,12.2,20.3,15.8,29
							c15.8,37.6,24.1,80.8,11.7,119.8c-9,28.2-29.3,51.9-53.6,63.2C5123.8,6017.7,5097,6005,5081.3,5994 M5291.4,6093.6
							c33.1-34.2,45.8-88.7,49.7-135c4.9-58.1-3.3-116.1-24-169.6c78.6-20.6,150.7-66.6,215.4-114.5
							c105.4-78.1,208.5-159.3,313.3-238.2c216.1-162.5,434.4-322.3,654.6-479.3c123.9-88.3,248.4-175.7,373.6-262.2
							c64.8-44.8-7.1-143.8-71.9-99c-436.6,301.8-865.7,614.5-1286.6,937.8c-89.2,68.5-183.2,147.1-301.2,144.8
							c-11.6-0.2-21.6,3.4-29.7,9.4c-6.7-0.7-13.6-1.1-20.5-0.9c-38.3,0.8-80.6,13.9-116.3,27.1c-38.6,14.2-76.3,37.4-100.5,71.3
							c-15.5,12.6-28.3,28.6-37.6,47c-20.8,41-17.8,88.3-6.5,131.5c18.9,72,70.4,140.7,139.5,171c42.2,18.6,86.8,20,128.2,8.1
							C5215.8,6141.7,5258.6,6127.4,5291.4,6093.6"/>
					</g>
				</g>
			</g>
		</g>
	</g>
	<g>
		<g>
			<g>
				<g>
					<g>
						<defs>
							<rect id="SVGID_7_" x="4687.8" y="4431.3" width="2444.5" height="1913.8"/>
						</defs>
						<clipPath id="SVGID_8_">
							<use xlink:href="#SVGID_7_"  style="overflow:visible;"/>
						</clipPath>
						<path class="st3" d="M5323,5957.1c16.6-70.3,40.7-126.2,87.3-181c50.9-60-44.7-136.5-95.7-76.4
							c-59.9,70.6-91.4,148.9-112.5,238.2c-7.6,32.2,19.9,65.1,50.9,70C5287.7,6013.4,5315.4,5989.3,5323,5957.1"/>
					</g>
				</g>
			</g>
		</g>
	</g>
	<g>
		<g>
			<g>
				<g>
					<g>
						<defs>
							<rect id="SVGID_9_" x="4687.8" y="4431.3" width="2444.5" height="1913.8"/>
						</defs>
						<clipPath id="SVGID_10_">
							<use xlink:href="#SVGID_9_"  style="overflow:visible;"/>
						</clipPath>
						<path class="st4" d="M5156.3,5980.8c46.3,63.7,145.4-8.1,99-71.9C5209.1,5845.2,5110,5917,5156.3,5980.8"/>
					</g>
				</g>
			</g>
		</g>
	</g>
	<g>
		<g>
			<g>
				<g>
					<g>
						<defs>
							<rect id="SVGID_11_" x="4687.8" y="4431.3" width="2444.5" height="1913.8"/>
						</defs>
						<clipPath id="SVGID_12_">
							<use xlink:href="#SVGID_11_"  style="overflow:visible;"/>
						</clipPath>
						<path class="st5" d="M4743,5722.8c48.2-35.1,86.6-82,136-115.5c43.4-29.4,96.3-44.8,147.5-53.3c49.6-8.2,101-9.7,150.6-0.4
							c41.8,7.9,79.6,29.4,122.5,32.6c83.7,6.2,151-54,214-100.1c99.2-72.6,197.6-146.1,295.1-220.8
							c198.8-152.2,400.5-300.4,602.8-447.7c98.3-71.6,195.1-146.3,295.5-214.9c80-54.7,172.3-97.2,266-123.4
							c44-12.3,89.1-15.8,126.9,15.1c37.4,30.6,18.5,69.8-7.5,100.7c-33.4,39.6-74.7,73.8-113.6,107.9
							c-44.7,39.2-91.1,76.6-139.7,110.9c-99,69.9-206,128-309.6,190.8c-103.7,62.9-200.7,135.5-303.4,199.8
							c-105.2,65.9-205.7,135.7-303.8,211.9c-94.6,73.5-192.2,143.2-286.7,216.8c-72.2,56.3-156.2,121.8-176.2,216.1
							c-18.1,85.3,10.3,168.1,10.8,253.2c0.3,48.2-19.3,89.2-54.9,121.3c-40.9,36.8-89.7,74.7-140.3,96.8
							c-38.9,17-78.1,16.7-118.9,7.4c-46.8-10.7-93.8-24.9-138.2-43.1c-89.8-36.8-159.6-98.2-214.8-177.5
							c-61.1-87.8-84.5-192.6-68.3-298.5c7.8-50.9,24.2-100.7,50.5-145c3.3-5.6-6-9.7-9.3-4.1c-50.9,85.9-67.3,193.3-50,291.2
							c17,96.1,71.5,181.4,140.9,248.8c67.8,65.9,152.4,100.2,241.9,126.1c37,10.7,75.3,22.2,114.3,18.9
							c44.1-3.7,82.7-26.8,118.4-51.2c40.2-27.5,86.4-58.2,113.6-99.7c20.7-31.7,27-68.7,24.7-106c-5.8-92.9-36.7-190.9,3.8-280.5
							c23.6-52.3,71.6-93.7,114.3-130.1c47.5-40.5,98.4-76.5,148.7-113.2c104.5-76.4,204-159.4,308.8-235.3
							c105.9-76.6,220.7-139.6,327.1-215.7c104.2-74.5,216.2-136.5,325.7-202.6c109.1-65.9,210.7-139,305.3-224.5
							c34.1-30.8,72.5-61.8,99-99.8c14.5-20.8,26.3-47.1,15.6-72.2c-12.8-30-51.8-50.1-82.8-53.4c-36.4-3.8-73.9,8-107.8,19.9
							c-43.9,15.5-89.1,32-131,52.2c-51,24.5-98.1,56.2-143.9,89.4c-213.3,154.6-426.2,309.9-637.3,467.3
							c-105.3,78.5-209.3,158.8-314.1,237.9c-51.6,39-103.5,77.5-155.6,115.8c-47,34.6-93.2,72.5-143.4,102.5
							c-37.7,22.5-78.8,36.1-123,29.9c-47.1-6.6-89.1-30-137-35.3c-92.1-10.3-201.5,6.7-279.3,59.4c-49.4,33.5-87.8,80.4-136,115.5
							C4731.7,5718.4,4737.7,5726.7,4743,5722.8"/>
					</g>
				</g>
			</g>
		</g>
	</g>
	<g>
		<g>
			<g>
				<g>
					<g>
						<defs>
							<rect id="SVGID_13_" x="4687.8" y="4431.3" width="2444.5" height="1913.8"/>
						</defs>
						<clipPath id="SVGID_14_">
							<use xlink:href="#SVGID_13_"  style="overflow:visible;"/>
						</clipPath>
						<path class="st6" d="M5265.8,5670.5c-38.7,17.4-81.5,18.2-121.8,30.1c-39.4,11.7-79.9,30.5-114.1,53.3
							c-55.4,36.9-81.9,103.3-84,168.2c-2.2,66.3,21.5,139.7,71.1,185.7c49.5,45.9,123.5,46.7,186,33
							c62.9-13.9,115.3-46.6,129.4-112.5c7.6-35.6,6.8-72.6,15.4-108c10.7-44.1,36.9-86.2,63.1-122.6
							c109.5-152.3,275.1-261.2,421.2-375.1c154.4-120.5,313.2-235.1,466.9-356.4c76.9-60.7,154-121.4,234.3-177.6
							c78.7-55.1,160.4-100.3,245-145.3c37.5-20,103.4-67.7,68.3-118c-35-50-105.5-1.1-139.1,23.8c-35.8,26.5-68,57.5-101.4,86.9
							c-35.4,31-73.1,59.4-111.2,86.9c-78.5,56.8-160.6,108.1-242.6,159.6c-168.5,105.8-328.8,223.8-488.8,341.7
							c-77.7,57.3-157.4,112.4-231.8,174c-37.4,31-74.3,62.9-113.3,91.8c-37.2,27.6-77,55.9-122.1,68.5
							c-40.2,11.2-81.6,14.3-119.5,33.1c-5.8,2.9-2.3,12.5,3.6,9.5c35.3-17.5,73.8-21.5,111.5-31c37.1-9.4,69.5-28.4,101.1-49.6
							c73.8-49.6,137.7-112.1,208.9-165c144.8-107.6,290-215.2,437.7-318.8c148.4-104.1,306-194.2,453.3-299.8
							c69.2-49.6,130.5-106.4,196.1-160.3c28.9-23.8,66.9-56.6,105.2-61.7c34.9-4.7,60.7,24.8,47.5,58.6
							c-15.2,38.9-63.8,59.3-98.5,76.1c-36.5,17.7-71.8,37.7-106.4,58.9c-74.8,45.7-146.2,97-215.9,150
							c-71.5,54.4-141.4,110.8-212.2,166c-70.9,55.3-144,107.7-215.8,161.8c-141.7,106.8-285.7,213.6-420.4,329.3
							c-60.5,52-119.6,107.6-166.8,172.3c-23.1,31.6-43.5,65.7-58.2,102c-11.8,28.9-15,59.2-18.3,90c-3.8,35.6-7.5,74.3-32.3,102.3
							c-25.4,28.8-65.5,43-102.3,50.2c-75.6,14.8-153.6,3.6-198.2-65.3c-42.2-65.1-53.1-150.1-24.5-222.8
							c30.4-77.3,114.2-120,191.6-137.8c35.7-8.2,72.3-11.1,106-26.2C5275.4,5677.3,5271.8,5667.8,5265.8,5670.5"/>
					</g>
				</g>
			</g>
		</g>
	</g>
	<g>
		<g>
			<g>
				<g>
					<g>
						<defs>
							<rect id="SVGID_15_" x="4687.8" y="4431.3" width="2444.5" height="1913.8"/>
						</defs>
						<clipPath id="SVGID_16_">
							<use xlink:href="#SVGID_15_"  style="overflow:visible;"/>
						</clipPath>
						<path class="st7" d="M5183.2,5847.5c-71.7-52.7-159.9,93.5-97.7,115.7c21.1,7.6,48-4.6,65.8-15.4
							c25.1-15.3,42.2-43.8,47.7-72.4c11.3-58.7-44-88.7-92.5-61.6c-35.6,19.9-95,89-27.7,110.6c15.5,5,25.9-18.3,10.2-23.4
							c-44.1-14.2,21.3-63.8,42.2-70.9c27-9.2,46.6,9.6,43.2,36.7c-3.2,25.5-19.2,50.3-42,62.2c-7.8,4-32.6,17.5-41,8.5
							c-6.9-7.4,2.6-26.7,6-33.6c11.7-23.6,41.8-57.2,69.7-36.7C5180.5,5877.1,5196.5,5857.2,5183.2,5847.5"/>
					</g>
				</g>
			</g>
		</g>
	</g>
	<g>
		<g>
			<g>
				<g>
					<g>
						<defs>
							<rect id="SVGID_17_" x="4687.8" y="4431.3" width="2444.5" height="1913.8"/>
						</defs>
						<clipPath id="SVGID_18_">
							<use xlink:href="#SVGID_17_"  style="overflow:visible;"/>
						</clipPath>
						<path class="st8" d="M5130.9,5820.3c-49.8,18.3-111.9,60.8-106.5,120.9c1.5,16.8,17.1,28.5,33.5,27.4
							c71.3-4.9,131.8-60.3,157.8-124.6c8.2-20.2-7.5-46.4-31.1-42.7c-71.4,11-153.6,97.9-143.5,173.4c2.6,19.3,22.3,33,41.2,25.6
							c35.2-13.8,63.7-35.7,89.1-63.5c-15.9-12.7-31.9-25.4-47.8-38.2c-16.2,18.8-28.8,39.9-38.1,62.8c-10.5,26,13.8,47.6,38.8,41
							c8.2-2.2,16.4-3,24.5-6.1c-11.6-15.9-23.1-31.8-34.7-47.7c-25.4,38.6-8.3,70,21.1,99.5c12.7-15.9,25.5-31.9,38.2-47.8
							c-21.5-16.5-42.7-34-61.2-53.8c-10-10.8-20.7-22.9-27.4-36.1c-3.8-7.6-5.9-14.8-3.8-16.6c-15.6-4.7-31.1-9.3-46.6-14
							c16.2,32.8,12.4,73.2,41.4,99.4c25.4,23,59.7,27.3,91.9,19.5c59.7-14.3,120-61.5,137.5-121.6c6.7-23-21.5-40.7-41-33.4
							c-27.9,10.4-50.5,26.4-61.9,54.7c-14.7,36.4,41.3,61.3,56.1,24.6c5.3-13.2,14.6-17.2,27.4-22c-13.7-11.1-27.3-22.3-41-33.4
							c-9.8,33.4-55.6,61.4-86.6,70.6c-15.3,4.5-35,6.3-45.1-9c-12.9-19.5-10.9-49.5-21.5-71c-7.9-16.1-30.3-28.3-46.6-14
							c-77.4,68.1,37.2,163.4,90.2,204c32,24.5,65.4-20.5,38.2-47.8c-3.2-3.2-6.9-6.4-9.1-10.3c-2.8-5.1-1.8-3.9-2.3-3.2
							c15.8-24-4.5-59.3-34.7-47.7c-7.8,3-16.3,3.9-24.4,6.1c12.9,13.6,25.9,27.3,38.8,40.9c7.5-18.6,16.8-34.1,29.9-49.3
							c25.8-30-21.4-67-47.8-38.2c-18,19.6-37.9,34.6-62.8,44.3c13.7,8.5,27.5,17.1,41.2,25.6c-5.5-40.9,49.5-100.4,88.7-106.4
							c-10.4-14.3-20.7-28.5-31.1-42.8c-18.1,44.7-57.7,84.9-107.8,88.3c11.2,9.1,22.3,18.3,33.5,27.4
							c-2.5-27.6,46.1-49.8,67.1-57.5C5189.5,5864,5167.9,5806.7,5130.9,5820.3"/>
					</g>
				</g>
			</g>
		</g>
	</g>
	<g>
		<g>
			<g>
				<g>
					<g>
						<defs>
							<rect id="SVGID_19_" x="4687.8" y="4431.3" width="2444.5" height="1913.8"/>
						</defs>
						<clipPath id="SVGID_20_">
							<use xlink:href="#SVGID_19_"  style="overflow:visible;"/>
						</clipPath>
						<path class="st9" d="M5458.8,5728.2c7.7,11.8,17,21.9,28,30.7c5.1,4.1,11.5-3.9,6.4-8c-10.3-8.2-18.9-17.7-26.1-28.7
							C5463.4,5716.7,5455.2,5722.7,5458.8,5728.2"/>
					</g>
				</g>
			</g>
		</g>
	</g>
	<g>
		<g>
			<g>
				<g>
					<g>
						<defs>
							<rect id="SVGID_21_" x="4687.8" y="4431.3" width="2444.5" height="1913.8"/>
						</defs>
						<clipPath id="SVGID_22_">
							<use xlink:href="#SVGID_21_"  style="overflow:visible;"/>
						</clipPath>
						<path class="st10" d="M5511.9,5673.1c6.4,11,14.8,20.1,25.4,27.1c5.4,3.6,11.9-4.3,6.4-8c-9.9-6.6-17.6-14.8-23.5-25.1
							C5516.9,5661.5,5508.7,5667.5,5511.9,5673.1"/>
					</g>
				</g>
			</g>
		</g>
	</g>
	<g>
		<g>
			<g>
				<g>
					<g>
						<defs>
							<rect id="SVGID_23_" x="4687.8" y="4431.3" width="2444.5" height="1913.8"/>
						</defs>
						<clipPath id="SVGID_24_">
							<use xlink:href="#SVGID_23_"  style="overflow:visible;"/>
						</clipPath>
						<path class="st11" d="M5584.7,5614.8c5.4,8.7,12.5,15.4,21.3,20.6c5.6,3.3,9.7-6,4.1-9.3c-7.2-4.3-12.8-10.2-17.2-17.2
							C5589.5,5603.2,5581.3,5609.2,5584.7,5614.8"/>
					</g>
				</g>
			</g>
		</g>
	</g>
	<g>
		<g>
			<g>
				<g>
					<g>
						<defs>
							<rect id="SVGID_25_" x="4687.8" y="4431.3" width="2444.5" height="1913.8"/>
						</defs>
						<clipPath id="SVGID_26_">
							<use xlink:href="#SVGID_25_"  style="overflow:visible;"/>
						</clipPath>
						<path class="st12" d="M5641.4,5557.1c7.9,11.5,17.3,21.7,28,30.7c5,4.2,11.4-3.8,6.4-8c-10.1-8.4-18.7-17.9-26.1-28.7
							C5646,5545.7,5637.7,5551.7,5641.4,5557.1"/>
					</g>
				</g>
			</g>
		</g>
	</g>
	<g>
		<g>
			<g>
				<g>
					<g>
						<defs>
							<rect id="SVGID_27_" x="4687.8" y="4431.3" width="2444.5" height="1913.8"/>
						</defs>
						<clipPath id="SVGID_28_">
							<use xlink:href="#SVGID_27_"  style="overflow:visible;"/>
						</clipPath>
						<path class="st13" d="M5706,5510.2c6.7,10.7,15.1,19.7,25.4,27.1c5.3,3.8,11.7-4.1,6.4-8c-9.6-6.9-17.3-15.1-23.5-25.1
							C5710.8,5498.6,5702.6,5504.7,5706,5510.2"/>
					</g>
				</g>
			</g>
		</g>
	</g>
	<g>
		<g>
			<g>
				<g>
					<g>
						<defs>
							<rect id="SVGID_29_" x="4687.8" y="4431.3" width="2444.5" height="1913.8"/>
						</defs>
						<clipPath id="SVGID_30_">
							<use xlink:href="#SVGID_29_"  style="overflow:visible;"/>
						</clipPath>
						<path class="st14" d="M5779.4,5467.9c7.4,9.4,16.6,16.7,27.5,21.6c6,2.7,10.1-6.7,4.1-9.3c-9.3-4.1-17.1-10.2-23.3-18.2
							C5783.6,5456.7,5775.3,5462.7,5779.4,5467.9"/>
					</g>
				</g>
			</g>
		</g>
	</g>
	<g>
		<g>
			<g>
				<g>
					<g>
						<defs>
							<rect id="SVGID_31_" x="4687.8" y="4431.3" width="2444.5" height="1913.8"/>
						</defs>
						<clipPath id="SVGID_32_">
							<use xlink:href="#SVGID_31_"  style="overflow:visible;"/>
						</clipPath>
						<path class="st15" d="M5822.8,5429.2c6.5,13.8,17.1,23.1,32,26.7c6.4,1.6,7.9-8.5,1.6-10.1c-11.2-2.7-19.2-9.9-24.1-20.2
							C5829.5,5419.7,5820,5423.2,5822.8,5429.2"/>
					</g>
				</g>
			</g>
		</g>
	</g>
	<g>
		<g>
			<g>
				<g>
					<g>
						<defs>
							<rect id="SVGID_33_" x="4687.8" y="4431.3" width="2444.5" height="1913.8"/>
						</defs>
						<clipPath id="SVGID_34_">
							<use xlink:href="#SVGID_33_"  style="overflow:visible;"/>
						</clipPath>
						<path class="st16" d="M5879.2,5378.9c6.1,8.4,12.2,16.7,18.2,25.1c3.9,5.3,12.1-0.7,8.3-6c-6.1-8.4-12.2-16.7-18.2-25.1
							C5883.6,5367.6,5875.3,5373.6,5879.2,5378.9"/>
					</g>
				</g>
			</g>
		</g>
	</g>
	<g>
		<g>
			<g>
				<g>
					<g>
						<defs>
							<rect id="SVGID_35_" x="4687.8" y="4431.3" width="2444.5" height="1913.8"/>
						</defs>
						<clipPath id="SVGID_36_">
							<use xlink:href="#SVGID_35_"  style="overflow:visible;"/>
						</clipPath>
						<path class="st17" d="M5938.2,5347c5.4,8.7,12.5,15.4,21.3,20.6c5.6,3.3,9.7-6,4.1-9.3c-7.2-4.3-12.8-10.2-17.2-17.2
							C5943,5335.4,5934.8,5341.4,5938.2,5347"/>
					</g>
				</g>
			</g>
		</g>
	</g>
	<g>
		<g>
			<g>
				<g>
					<g>
						<defs>
							<rect id="SVGID_37_" x="4687.8" y="4431.3" width="2444.5" height="1913.8"/>
						</defs>
						<clipPath id="SVGID_38_">
							<use xlink:href="#SVGID_37_"  style="overflow:visible;"/>
						</clipPath>
						<path class="st18" d="M6003.8,5293.9c6.1,8.4,12.2,16.7,18.2,25.1c3.9,5.3,12.1-0.7,8.3-6c-6.1-8.4-12.2-16.7-18.2-25.1
							C6008.2,5282.5,5999.9,5288.5,6003.8,5293.9"/>
					</g>
				</g>
			</g>
		</g>
	</g>
	<g>
		<g>
			<g>
				<g>
					<g>
						<defs>
							<rect id="SVGID_39_" x="4687.8" y="4431.3" width="2444.5" height="1913.8"/>
						</defs>
						<clipPath id="SVGID_40_">
							<use xlink:href="#SVGID_39_"  style="overflow:visible;"/>
						</clipPath>
						<path class="st19" d="M6078.2,5245.3c6.2,9.2,13.8,17,22.8,23.5c5.3,3.8,11.7-4.1,6.4-8c-8.3-6-15.2-13-20.9-21.5
							C6082.8,5233.9,6074.5,5239.9,6078.2,5245.3"/>
					</g>
				</g>
			</g>
		</g>
	</g>
	<g>
		<g>
			<g>
				<g>
					<g>
						<defs>
							<rect id="SVGID_41_" x="4687.8" y="4431.3" width="2444.5" height="1913.8"/>
						</defs>
						<clipPath id="SVGID_42_">
							<use xlink:href="#SVGID_41_"  style="overflow:visible;"/>
						</clipPath>
						<path class="st20" d="M6128.4,5208.8c6.1,11.2,14.6,20.3,25.4,27.1c5.5,3.4,11.9-4.5,6.4-8c-10.1-6.4-17.8-14.6-23.5-25.1
							C6133.5,5197.1,6125.3,5203.1,6128.4,5208.8"/>
					</g>
				</g>
			</g>
		</g>
	</g>
	<g>
		<g>
			<g>
				<g>
					<g>
						<defs>
							<rect id="SVGID_43_" x="4687.8" y="4431.3" width="2444.5" height="1913.8"/>
						</defs>
						<clipPath id="SVGID_44_">
							<use xlink:href="#SVGID_43_"  style="overflow:visible;"/>
						</clipPath>
						<path class="st21" d="M6180.6,5159.9c6.1,8.4,12.2,16.7,18.2,25.1c3.9,5.3,12.1-0.7,8.3-6c-6.1-8.4-12.2-16.7-18.2-25.1
							C6185,5148.6,6176.7,5154.6,6180.6,5159.9"/>
					</g>
				</g>
			</g>
		</g>
	</g>
	<g>
		<g>
			<g>
				<g>
					<g>
						<defs>
							<rect id="SVGID_45_" x="4687.8" y="4431.3" width="2444.5" height="1913.8"/>
						</defs>
						<clipPath id="SVGID_46_">
							<use xlink:href="#SVGID_45_"  style="overflow:visible;"/>
						</clipPath>
						<path class="st22" d="M6228.2,5119.9c6.9,9.6,13.9,19.1,20.9,28.7c3.9,5.3,12.1-0.7,8.3-6c-6.9-9.6-13.9-19.1-20.9-28.7
							C6232.6,5108.5,6224.3,5114.5,6228.2,5119.9"/>
					</g>
				</g>
			</g>
		</g>
	</g>
	<g>
		<g>
			<g>
				<g>
					<g>
						<defs>
							<rect id="SVGID_47_" x="4687.8" y="4431.3" width="2444.5" height="1913.8"/>
						</defs>
						<clipPath id="SVGID_48_">
							<use xlink:href="#SVGID_47_"  style="overflow:visible;"/>
						</clipPath>
						<path class="st23" d="M6274.8,5086c6.7,10.7,15.1,19.7,25.4,27.1c5.3,3.8,11.7-4.1,6.4-8c-9.6-6.9-17.3-15.1-23.5-25.1
							C6279.6,5074.4,6271.4,5080.4,6274.8,5086"/>
					</g>
				</g>
			</g>
		</g>
	</g>
	<g>
		<g>
			<g>
				<g>
					<g>
						<defs>
							<rect id="SVGID_49_" x="4687.8" y="4431.3" width="2444.5" height="1913.8"/>
						</defs>
						<clipPath id="SVGID_50_">
							<use xlink:href="#SVGID_49_"  style="overflow:visible;"/>
						</clipPath>
						<path class="st24" d="M6317.9,5054.7c7.7,11.8,17,21.9,28,30.7c5.1,4.1,11.5-3.9,6.4-8c-10.3-8.2-18.9-17.7-26.1-28.7
							C6322.5,5043.2,6314.3,5049.2,6317.9,5054.7"/>
					</g>
				</g>
			</g>
		</g>
	</g>
	<g>
		<g>
			<g>
				<g>
					<g>
						<defs>
							<rect id="SVGID_51_" x="4687.8" y="4431.3" width="2444.5" height="1913.8"/>
						</defs>
						<clipPath id="SVGID_52_">
							<use xlink:href="#SVGID_51_"  style="overflow:visible;"/>
						</clipPath>
						<path class="st25" d="M6380.8,4998c8.7,14.1,20.5,24.8,35.3,32.3c5.9,3,9.9-6.4,4.1-9.3c-13.3-6.7-23.4-16.4-31.2-29
							C6385.6,4986.4,6377.4,4992.4,6380.8,4998"/>
					</g>
				</g>
			</g>
		</g>
	</g>
	<g>
		<g>
			<g>
				<g>
					<g>
						<defs>
							<rect id="SVGID_53_" x="4687.8" y="4431.3" width="2444.5" height="1913.8"/>
						</defs>
						<clipPath id="SVGID_54_">
							<use xlink:href="#SVGID_53_"  style="overflow:visible;"/>
						</clipPath>
						<path class="st26" d="M6439.2,4950.1c7.2,12.2,16.5,22.4,28,30.7c5.3,3.8,11.7-4.1,6.4-8c-10.8-7.7-19.4-17.2-26.1-28.7
							C6444.2,4938.4,6435.9,4944.5,6439.2,4950.1"/>
					</g>
				</g>
			</g>
		</g>
	</g>
	<g>
		<g>
			<g>
				<g>
					<g>
						<defs>
							<rect id="SVGID_55_" x="4687.8" y="4431.3" width="2444.5" height="1913.8"/>
						</defs>
						<clipPath id="SVGID_56_">
							<use xlink:href="#SVGID_55_"  style="overflow:visible;"/>
						</clipPath>
						<path class="st27" d="M6495.7,4914.6c7.7,11.8,17,21.9,28,30.7c5.1,4.1,11.5-3.9,6.4-8c-10.3-8.2-18.9-17.7-26.1-28.7
							C6500.3,4903.1,6492.1,4909.1,6495.7,4914.6"/>
					</g>
				</g>
			</g>
		</g>
	</g>
	<g>
		<g>
			<g>
				<g>
					<g>
						<defs>
							<rect id="SVGID_57_" x="4687.8" y="4431.3" width="2444.5" height="1913.8"/>
						</defs>
						<clipPath id="SVGID_58_">
							<use xlink:href="#SVGID_57_"  style="overflow:visible;"/>
						</clipPath>
						<path class="st28" d="M6556.6,4870.3c8.7,12,17.4,23.9,26.1,35.9c3.9,5.3,12.1-0.7,8.3-6c-8.7-12-17.4-23.9-26.1-35.9
							C6561,4859,6552.8,4864.9,6556.6,4870.3"/>
					</g>
				</g>
			</g>
		</g>
	</g>
</g>
<path class="st29" d="M3307.9,3757.6c0.3,0.6,0.6,1,0.8,1.6c0,0.2-0.6,0.5-0.9,0.7c-0.3-0.5-0.7-0.9-1-1.5
	C3306.7,3758.4,3307.4,3758,3307.9,3757.6"/>
<path class="st30" d="M3311,3745.4l-7.9,5.5l-0.4,0.3c-6.5,4.3-3.7,10.4-3.4,11c0.5,1,1.1,1.8,1.5,2.4l4.9,6.8l6.7-4.5
	c5.3-3.2,4.7-7.9,4.4-9.3c-0.4-1.6-1-2.8-1.4-3.5L3311,3745.4z M3307.9,3757.6c0.3,0.6,0.6,1,0.8,1.6c0,0.2-0.6,0.5-0.9,0.7
	c-0.3-0.5-0.7-0.9-1-1.5C3306.7,3758.4,3307.4,3758,3307.9,3757.6"/>
<g>
	<g>
		<defs>
			<rect id="SVGID_59_" x="-3046.7" y="179.8" width="6950.8" height="2693.2"/>
		</defs>
		<clipPath id="SVGID_60_">
			<use xlink:href="#SVGID_59_"  style="overflow:visible;"/>
		</clipPath>
		<path class="st31" d="M1433.6,2751.1c-59.3-3.2-118.5-7.3-177.9-9.1c-28.4-1-57,2.2-85.4,3.4c-39.8,1.8-79.7,3.5-119.5,4.9
			c-25.2,1-50.5,2.2-75.5,1.8c-58.6-1.2-117.7,1.2-175.5-5.9c-89.9-11-180-14-270.3-17c-70.8-2.4-141.2-11.4-211.8-16.8
			c-36.5-2.8-72.8-5.7-109.6-4.1c-60.9,2.8-122.2,2-183.4,0.8c-20.1-0.4-40-6.5-59.9-9.7c-73-11.6-145.9-23.7-219.1-34.7
			c-53-8.1-106.5-14.2-159.5-22.7c-30.4-4.7-60.1-12.8-90.3-18.3c-18.3-3.4-37.1-4.9-55.4-7.5c-32.1-4.3-64.3-9.3-96.4-13.2
			c-47.5-5.9-94.8-11.6-142.4-17c-49.7-5.5-99.2-13.6-149.5-15.8c-26.4-1.2-52.4-8.1-78.9-11.6c-37.1-4.9-74.1-9.3-111.2-14
			c-44.4-5.5-88.7-11.2-133.1-17c-5.7-0.8-11.2-1.8-17-2.4c-35.5-3.9-71.2-7.5-106.5-12c-12-1.6-23.5-6.3-35.3-9.3
			c-46.5-11.8-92.9-23.9-139.4-34.7c-22.9-5.3-46.3-8.5-69.4-12.4c-41.8-7.1-83.8-12.4-125.2-21.1c-46.9-9.9-94.6-13.8-142-20.5
			c-33.7-4.5-66.8-13.4-100.6-17c-46.5-4.9-89.9-23.1-135.7-29c-60.1-7.9-117.3-26.4-175.1-42.4c-89.5-24.6-176.7-56.2-259.7-98.4
			c-32.5-16.6-67.8-27.4-101.2-42c-38.6-17-77.1-34.1-111.2-59.7c-23.5-17.5-48.1-33.1-71.4-50.9c-32.7-25-44.4-59-54-95.2
			c-3-11-3.7-22.5-5.1-33.7c-4.3-33.5,3.7-64.7,18.5-94.4c1.2-2.2,3-4.1,3.5-6.5c6.9-28.8,28.8-41.8,51.9-57.2
			c29.2-19.7,54.4-46.1,78.7-72c13.6-14.4,27.2-27.2,44-37.9c13.6-8.7,27.6-17.9,38.1-29.8c30.6-34.5,69.8-55,110.8-73.3
			c34.9-15.4,69.4-32.3,105.1-45.5c44.8-16.6,89.3-34.3,136.6-43.8c20.7-4.1,42.6-8.9,61.1-22.5c10.1-7.5,24.1-9.7,36.5-13.4
			c51.3-15.4,102.7-30.2,154.2-45.2c7.9-2.2,15.8-5.1,23.7-5.5c51.9-3.4,103.5-8.7,155.8-3c23.5,2.6,47.3,1.2,70.8,2.2
			c29.8,1.4,34.1,7.3,43,36.3c13,42.8,9.1,87,13.2,130.3c1.8,19.5-2.6,42.2-27.4,55c-28.4,14.6-34.3,41-23.3,73.3
			c7.7,22.3,15.2,44.6,22.3,66.8c4.1,12.6,1.4,18.3-12,20.9c-34.3,6.3-69.4,9.5-103.3,17.9c-25.6,6.5-51.5,16.4-73.9,30.4
			c-22.7,14-35.9,38.3-37.3,65.7c-1,16.8,0,34.9,5.5,50.5c15.4,43.8,36.3,84,74.7,113.8c45.5,35.3,94.4,65.9,142.2,97.8
			c17.7,11.8,40.2,16.8,60.7,24.4c40.8,15.4,84,18.5,126.8,23.7c33.9,4.1,67.6,8.3,101.5,12.6c1.6,0.2,3.2,0.6,4.7,0.6
			c53.8-1,103.9,17.7,155.8,28c45.3,8.9,91.9,14.8,138,15.8c59.2,1.4,118.5-4.9,177.9-5.3c30-0.2,59.9,4.7,89.9,8.3
			c34.7,3.9,69.4,9.3,104.1,13.2c40.4,4.3,81,8.1,121.5,11.8c49.3,4.5,98.6,9.1,147.9,13.6c4.9,0.4,10.1,0.4,14.6,2
			c43.4,14.2,88.5,11,132.9,15c25,2.2,49.7,5.5,74.9,3.9c10.5-0.6,21.1,1,31.5,0c62.7-6.3,124.6,0.6,186.7,9.1
			c40.8,5.5,81.8,12.2,123.8,10.3c33.1-1.6,66.6,3,100,5.9c58.4,5.1,116.7,10.8,175.1,16.6c20.3,2,40.4,4.9,60.5,7.3
			c8.1,1,16.2,1.8,24.3,1.8c57-0.6,114-2,170.8-2c31,0,61.9,2,92.9,3.5c6.3,0.4,12.4,3.4,18.7,4.5c5.5,1,11.6,3.2,16.6,1.8
			c42.6-12.2,86-5.5,129-6.5c32.5-0.6,65.3,2.2,97.8,0.8c30.8-1.2,61.5-5.5,92.1-8.9c28.4-3.2,56.4-8.1,84.8-9.9
			c79.7-5.1,159.1-12,239.2-9.9c46.1,1.4,92.3-2,138.6-7.9c51.3-6.5,103.7-10.5,154.2,11.2c15.6,6.7,35.3,5.5,53,4.9
			c24.3-0.8,48.7-4.3,73-7.1c32.5-3.7,64.7-3.5,97.2,2.2c63.5,11,128.4,17.4,191.7,3.9c39.4-8.3,79.3-6.3,118.7-12.6
			c6.9-1.2,14.6,1,21.9,1.8c15.4,1.6,30.8,3.4,45.4-4.5c2.8-1.6,6.3-2.4,9.5-2.4c43-1,86.4-4.7,129-1.6c82,6.1,164,14.6,246.3,9.5
			c24.3-1.6,48.1-7.7,72-12.4c21.5-4.1,43.4-8.1,64.5-14c42.2-11.8,87-10.3,128.2-28c16-6.9,35.5-4.9,52.4-9.9
			c22.7-6.5,44.2-16.4,66.6-23.5c17.7-5.7,36.3-8.9,54.2-14c21.1-6.1,41.8-13.4,62.5-20.1c3-1,6.7-2.4,8.5-4.7
			c16.6-21.9,35.3-42.6,48.7-66.1c21.1-37.1,18.1-79.7,23.9-120.7c5.9-42.2-11.6-73.5-29.4-107.5c-33.9-65.3-86.2-108.8-153.4-136.2
			c-5.1-2.2-10.1-5.3-14-9.3c-10.1-9.7-10.1-14.6-0.4-24.4c2.8-3,5.7-5.9,9.3-7.9c29.2-15.8,54.2-37.7,81.6-56
			c14.4-9.7,27-20.3,35.7-35.9c8.7-15.6,17.9-31,28-45.7c3.9-5.7,9.7-12.6,15.8-14.2c39.4-9.5,79.3-20.1,120.1-5.3
			c2.4,0.8,4.5,1.8,7.1,2c33.9,4.1,67.8,8.1,101.5,12.4c10.5,1.4,20.7,3.9,31,6.1c19.1,4.3,38.1,9.3,57.2,13
			c23.3,4.7,45.7,9.5,65.9,24.1c10.8,7.9,25.4,10.1,38.3,15.6c35.1,15.2,69.8,30.8,104.9,46.1c1.4,0.6,3.2,1.4,4.1,2.4
			c42.8,45.3,102.5,72.8,135.7,128.4c2.6,4.1,6.5,7.9,7.5,12.4c9.7,43.6,21.5,87,10.3,132.5c-9.1,36.3-17.7,72.4-36.1,105.7
			c-6.1,11-8.1,24.6-11.8,37.1c-2.2,6.9-2.6,15-6.3,20.9c-14.6,22.1-30.4,43.6-45.5,65.3c-5.1,7.3-9.9,15-15.4,21.9
			c-23.9,30.2-54.6,53-83.4,77.9c-20.9,17.9-43.6,33.9-65.7,50.5c-8.3,6.3-17.5,11.4-26,17.5c-20.5,14.6-40.8,29.4-61.3,44
			c-34.3,24.6-68.2,49.7-103.1,73.3c-15.4,10.5-32.3,18.7-49.1,26.4c-39.2,17.7-78.5,34.9-118.1,51.5c-11.2,4.7-23.5,6.9-35.1,10.5
			c-6.9,2.2-14.2,4.1-20.7,7.5c-55.2,29.8-113.8,52.1-173.5,70.6c-38.6,12-79.3,17-119.1,24.6c-29.4,5.5-58.8,10.6-88.5,15.2
			c-13.6,2-27.6,0.4-41.2,2.6c-68.4,11-137.4,11.4-206.4,12c-4.1,0-8.5-0.8-12.2,0.2c-46.5,12.8-94.2-2.6-141,6.1
			c-4.7,0.8-9.9-0.2-14.6-1.2c-46.7-11-93.9-6.5-141-3.2c-12.2,0.8-24.4,1.6-36.7,2c-57.6,1.6-115.3,3.4-173.1,4.3
			c-48.7,0.8-97.6-0.2-146.5,1.4c-70.8,2.4-141.4,6.1-212.2,10.1c-20.9,1.2-41.6,5.9-62.7,7.3c-25.2,1.6-50.5,1-75.7,1.2
			c-16.4,0.2-32.5,0-48.9,0C1433.6,2749.7,1433.6,2750.3,1433.6,2751.1"/>
	</g>
</g>
<g>
	<g>
		<defs>
			<rect id="SVGID_61_" x="-3046.7" y="179.8" width="6950.8" height="2693.2"/>
		</defs>
		<clipPath id="SVGID_62_">
			<use xlink:href="#SVGID_61_"  style="overflow:visible;"/>
		</clipPath>
		<path class="st32" d="M-1480.2,2022.9c-37.7-10.6-36.3-6.5-24.3-3.2c6.7,1,13.8,1.8,20.5,3
			C-1482.6,2022.7-1481.4,2022.7-1480.2,2022.9"/>
	</g>
	<g>
		<defs>
			<rect id="SVGID_63_" x="-3046.7" y="179.8" width="6950.8" height="2693.2"/>
		</defs>
		<clipPath id="SVGID_64_">
			<use xlink:href="#SVGID_63_"  style="overflow:visible;"/>
		</clipPath>
		<path class="st33" d="M3692.9,1653c-102.1-51.1-210.2-56.8-321.8-71c-83.2-10.6-166.6-21.3-249.8-31.9
			c-68.4-8.7-159.1,38.8-205.5,85.2c-50.5,50.5-88.3,133.1-85.2,205.5c3.4,75.1,28,153.2,85.2,205.5c40.6,37.5,82.8,58.2,130.5,71
			c-13.6,6.7-27.2,13.4-41,20.1c-9.7,3.7-19.5,7.7-29.4,11.2c-24.1,8.9-48.5,17-73,24.4c-52.6,16-106.1,28.6-160.3,38.3
			c3.7-0.2,7.7-0.2,12-0.4c-11,0.4-23.1,2.8-33.9,3.9c-28.4,3-56.8,4.7-85.4,5.9c-64.3,2.4-128.2-1.2-192.2-5.3
			c-149.7-9.9-291.2-7.3-439.5,21.7c-57.4,11.2-114.4,24.6-172.1,34.7c-4.7,0.8-12.6,3-21.3,5.1c-1,0-6.9,0.6-21.1,2.2
			c-33.3,3.9-66.8,7.5-100.2,10.3c-134.3,11-269.1,12.2-403.6,7.3c-258.1-9.7-514.6-42-771-73c-272.7-32.9-545.6-65.7-818.3-98.6
			c-264.2-31.7-528.6-67.4-794.4-83.6c-127.2-7.7-254.7-9.3-381.9-18.1c2.6,0.8,5.1,1.4,8.1,2.4c-3.7-1-7.7-2-11.6-2.6
			c-2.2-0.2-4.1-0.2-6.3-0.4c-5.1-0.4-10.3-1.4-14.2-2.6c-2.4-0.4-4.9-0.6-7.1-1.2c-32.7-5.9-65.3-13.4-97.6-21.3
			c-65.7-16.2-130.7-35.1-195.8-53.4c-68-19.1-136.1-38.3-204.3-57.4c38.4-8.9,77.3-17,116.3-23.9c67.8-12,140.2-76.3,173.7-133.7
			c36.5-62.3,51.9-154.2,29.4-224c-52.3-161.3-196.8-231.5-357.5-202.9c-134.9,23.9-267.2,59.9-394.9,109.8
			c-139.8,54.4-283.7,115.7-409.1,199.5c-111.4,74.5-197.2,180.2-195.4,321.8c1.8,133.1,84,255.5,203.5,311.7
			c145.9,68.8,314.5,99.4,469.3,143c302.7,85.2,608.1,194.8,923.4,219.3c141.2,11,282.9,9.7,424.3,20.1
			c151,11.2,301.3,28.2,451.7,46.1c300.1,35.7,600.2,72.2,900.3,108.2c292.2,35.1,584.6,75.7,878.6,91.9
			c309.4,17,613.2-5.1,916.5-68.6c10.6-2.2,71.4-7.7,89.3-14.8c2.2-0.2,4.3-0.4,6.5-0.6c13.6-0.8,27.4-1.2,41.2-1.2
			c79.3-1,158.1,6.9,237.2,11.2c147.1,8.1,294.2-5.1,438.3-34.7c301.1-61.5,597.4-219.3,814.1-437.7c89.7-90.5,157.3-207,156.4-338
			C3903.1,1847.5,3818.7,1716.1,3692.9,1653 M1772.4,2281c4.3,0.4,26.8-2.6,35.1-3.9C1793.9,2280.4,1779.3,2283.2,1772.4,2281
			 M3263.2,1979.2c-9.9,7.9-18.9,15.8-26.2,24.3c-0.2,0.2-0.4,0.2-0.6,0.4C3251,1985.7,3260.5,1979.2,3263.2,1979.2 M3434,2173.4
			C3434.2,2173.4,3434.2,2173.4,3434,2173.4C3458.6,2179.3,3469.1,2192.1,3434,2173.4"/>
	</g>
</g>
<g>
	<g>
		<defs>
			<rect id="SVGID_65_" x="-3046.7" y="179.8" width="6950.8" height="2693.2"/>
		</defs>
		<clipPath id="SVGID_66_">
			<use xlink:href="#SVGID_65_"  style="overflow:visible;"/>
		</clipPath>
		<path class="st34" d="M2736.8,2212.2c2-0.4,3.9-0.8,6.1-1.2C2680,2213.4,2714.5,2216,2736.8,2212.2"/>
	</g>
	<g>
		<defs>
			<rect id="SVGID_67_" x="-3046.7" y="179.8" width="6950.8" height="2693.2"/>
		</defs>
		<clipPath id="SVGID_68_">
			<use xlink:href="#SVGID_67_"  style="overflow:visible;"/>
		</clipPath>
		<path class="st35" d="M2589.7,338.9c-34.7-0.8-39.2,1.6-32.3,2.6c10.6-1.4,21.3-2.4,31.5-2.6
			C2589.3,339.1,2589.5,338.9,2589.7,338.9"/>
	</g>
	<g>
		<defs>
			<rect id="SVGID_69_" x="-3046.7" y="179.8" width="6950.8" height="2693.2"/>
		</defs>
		<clipPath id="SVGID_70_">
			<use xlink:href="#SVGID_69_"  style="overflow:visible;"/>
		</clipPath>
		<path class="st36" d="M2854.9,552.8c16.2,13.4,16.2,13.4,31.5,8.5C2874.8,542.4,2874.2,542.2,2854.9,552.8 M-1408.6,557.5
			c15.4-22.9,35.3-22.3,51.5-26.4c38.6-10.1,74.9-26,111.4-41.6c44-18.7,84.4-45.2,131.1-58.4c17.7-5.1,33.7-16,51.1-22.9
			c11.2-4.5,23.1-7.5,35.1-10.1c20.9-4.3,40.4-11,59.3-21.7c41.8-23.7,84.4-45.5,126.4-68.8c18.9-10.5,39.4-9.7,59.5-9.3
			c23.5,0.4,46.9,2.4,70.2,4.3c42.2,3.5,84.2,8.5,126.4,11.6c62.3,4.7,124.8,8.9,187.1,12.6c47.1,3,94.2,4.5,141.4,7.5
			c13,0.8,25.6,5.3,38.4,5.9c26.8,1.4,53.6,0.6,80.4,1.8c39,1.8,78.1,4.7,116.9,6.5c51.1,2.2,102.3,3.7,153.4,5.5
			c21.9,0.8,44,2.4,65.9,2.6c27.6,0.2,55.2-0.8,82.8-0.6c23.7,0,47.1,0.8,70.8,1.8c49.9,2,98.8-9.7,148.5-11.4
			c66.6-2.4,133.5-1.6,200.1-2c19.5-0.2,39,0,58.6,1c21.9,1,43.6,3.2,65.5,4.1c39,1.6,78.1,4.3,117.1,3.7
			c118.5-1.6,235.8,11.2,352.9,26.2c32.1,4.1,64.9,3.5,97.2,6.7c60.7,6.1,121.1,13.8,182.2,17.5c69,4.1,137.4,14.2,206.4,19.9
			c45.3,3.7,91.1,3.2,136.4,5.9c43,2.6,86,7.5,129,10.6c29,2.2,58.2,3.4,87.3,4.1c7.1,0.2,15-1,21.3-4.1c33.5-16,69-17.2,105.1-16
			c70.8,2.2,141.6,4.7,212.4,6.1c46.3,1,92.9,0,139.2,0.8c16.2,0.2,32.5,2.6,48.5,4.7c43.6,5.7,87,12.4,130.5,17.9
			c32.9,4.1,66.6,4.7,97,21.1c5.5,3,12.6,2.6,18.9,4.5c10.1,3.2,20.5,5.9,29.8,10.6c13.6,6.9,18.3,17.5,15,32.5
			c-3.9,17.2-12.2,31.9-27.4,41.8c-12.2,7.9-20.7,19.1-30.2,30c-17.5,20.3-39.6,39.6-63.7,50.7c-45.3,21.1-94.1,35.3-140.6,54.2
			c-37.5,15.2-73.7,33.3-111.2,49.1c-9.3,3.9-20.5,5.5-30.8,5.3c-15.4-0.6-30.6-4.3-45.9-5.7c-29.2-2.4-58.4-4.1-87.7-5.7
			c-62.5-3.2-125-7.7-187.5-8.7c-47.9-0.8-96,3-143.9,4.5c-20.3,0.6-40.8,0.4-61.1,1c-14.6,0.4-29.2,1.6-43.8,2.6
			c-4.9,0.4-9.9,1.4-14.6,1.4c-53.6-1.2-107.3-3.2-160.9-3.4c-26.8-0.2-53.8,1.8-80.4,4.7c-37.7,4.3-74.7,0.6-112.2-1.6
			c-8.9-0.6-18.5-3.4-26.6-0.8c-35.1,10.6-69.6,1.2-104.3-0.2c-12.2-0.6-24.6-3.4-36.5-2c-63.1,7.7-124.6-8.1-186.9-11.6
			c-69-3.9-138.2-7.1-206.8-16c-71-9.1-143.3-5.3-213.3-23.5c-10.1-2.6-21.1-1.8-31.5-2.6c-45.4-3.4-90.9-6.1-136.2-10.5
			c-33.9-3.4-67.6-9.1-101.3-13.4c-17.7-2.4-35.7-5.9-53.4-5.3c-57.6,2-113.2-13.6-170-16.8c-42.2-2.4-84.6-5.7-126.8-8.1
			c-51.7-2.8-103.7-3.5-155.2-7.7c-35.5-3-70.6-12.4-106.3-15.4c-42-3.5-84.4-2.8-126.6-4.9c-23.5-1.2-46.7-5.1-70.2-6.7
			c-12-0.8-25.4-2.2-36.5,1.6c-36.5,12.6-72.6,3.4-108.8,1.4c-20.1-1-40.4,1.4-60.7,1.4c-19.5,0-39-1-58.4-1.8
			c-15.4-0.6-31.2-2.6-46.3-1.2c-52.6,4.7-103.7-8.7-155.8-10.6c-41.4-1.6-82.8-1.6-124.2-2.4c-7.3-0.2-14.6-1.2-21.9-1.6
			c-37.3-2.2-74.7-4.1-112-6.7c-32.5-2.2-64.9-4.7-97.4-6.9c-33.3-2.4-66.4-4.9-99.8-6.5c-47.1-2.2-94.2-4.1-141.2-4.9
			c-25.8-0.4-51.9,1.8-77.9,2.4C-1391.7,561.1-1398.4,559.1-1408.6,557.5"/>
	</g>
	<g>
		<defs>
			<rect id="SVGID_71_" x="-3046.7" y="179.8" width="6950.8" height="2693.2"/>
		</defs>
		<clipPath id="SVGID_72_">
			<use xlink:href="#SVGID_71_"  style="overflow:visible;"/>
		</clipPath>
		<path class="st37" d="M-1228.4,2019.2c-12-11-45.4-20.7-62.5-17.7C-1275.9,2025.1-1253.6,2031.4-1228.4,2019.2 M-591.9,2024.9
			c-7.7,0-15.4-0.2-22.9,0c-33.1,1.4-66.3,3.7-99.6,4.3c-35.5,0.4-71,3.2-106.5-0.6c-14.4-1.6-29.2,1.2-43.8,1
			c-39.8-0.6-79.5-2.2-119.3-2.8c-7.1-0.2-14.6,1.6-21.5,3.7c-12,3.9-23.5,4.7-35.5-0.6c-10.8-4.7-21.7-4.5-31.2,5.3
			c5.3,10.3,14.2,8.5,21.9,8.9c32.5,1.6,65.1,3,97.4,4.3c4.1,0.2,8.1,0,12.2,0c33.1-1.4,66.3-3.2,99.4-3.9c10.5-0.2,20.9,2,31.5,2.6
			c11.2,0.4,22.7,0.4,33.9,0c13-0.4,25.8-1.8,38.8-2.6c19.5-1.2,38.8-2.6,58.4-3.2c20.1-0.8,40.2-6.1,60.5,0.6
			C-607.3,2045.6-597.8,2040.7-591.9,2024.9 M-533.6,2032.6c12.6,1.2,24.4,3,36.3,3c71,0.4,141.8-2.4,212.4-9.5
			c40-4.1,79.7-0.6,119.3,4.3c24.8,3.2,50.3,3.2,75.5,3.9c51.3,1.6,102.3,3.5,153.4,10.3c57,7.5,115.1,9.7,172.7,8.5
			c52.4-1,103.7,4.3,155.4,9.9c38.8,4.1,77.7,7.7,116.5,11.6c30.8,3,61.5,5.9,92.3,9.3c52.4,5.7,104.9,12,157.5,17.7
			c33.1,3.7,66.6,5.5,99.6,11.2c63.7,11,128.2,9.1,192.2,13.8c47.7,3.4,95.8,3.4,143.7,2.2c61.7-1.8,123.4-6.9,185.3-9.3
			c20.1-0.8,40.4,3.2,60.7,3.7c35.9,1,71.8,1.2,107.5,1.6c5.7,0,11.4-0.6,17.2,0c54.8,5.5,109-1.4,163.3-5.7
			c23.5-1.8,47.3-3.9,70.8-2.4c38.6,2.8,76.1-2.8,114.2-7.3c66.3-7.9,132.5-16.2,199.5-14.8c36.5,0.8,73-3.4,109.6-5.7
			c29.2-1.8,58.6-2.6,87.3-6.3c29-3.5,57.4-13,86.4-14.4c34.7-1.6,66.8-11.6,100-19.1c11.8-2.8,24.3-4.1,36.3-4.5
			c29-0.8,49.1-15,63.7-38.8c5.9-9.7,10.8-20.1,17.7-29.2c5.7-7.7,12.8-15.6,20.9-19.9c35.9-19.1,67.6-45.7,106.9-58.6
			c15.4-5.1,30.6-11,45.9-15.8c12.4-3.9,19.9-11.2,26.4-22.9c12-21.7,30.8-37.9,56-42.8c8.1-1.6,18.1,0,25.8,3.4
			c50.9,22.9,96.6,54.4,139.2,89.7c19.5,16.2,32.3,40.4,47.7,61.3c4.7,6.5,7.3,14.4,11.2,21.5c8.9,16,9.7,32.3,3.9,49.5
			c-8.5,24.6-16.6,49.5-25,74.1c-11,31.9-35.5,51.5-62.5,69.2c-25.6,16.8-55.6,17.5-83.4,25.2c-43.8,12-88.7,20.3-132.7,31.7
			c-17.9,4.7-34.7,13.4-52.3,20.1c-6.9,2.6-14,5.7-21.1,5.7c-26.2,0.4-51.5,5.9-76.7,12.4c-61.7,16-124.8,10.5-187.3,9.1
			c-52.8-1.2-105.5-7.5-158.3-8.9c-29.2-0.8-58.4,4.1-87.5,5.7c-28.4,1.6-57,1.6-85.4,3.9c-59.2,4.7-118.1,11.8-177.5,15.4
			c-44.8,2.8-89.5,2.4-134.5,2c-38.8-0.4-77.5-5.1-116.7-3.9c-38.3,1.2-76.5-3.4-114.8-3.9c-48.9-0.8-97.8-2.8-146.5,0.6
			c-84.6,5.7-169.2,5.7-253.8,9.1c-47.9,2-95.8,5.9-143.7,9.5c-48.5,3.5-97.4,5.3-145.5,12.2c-38.3,5.5-76.1,7.9-114.4,6.7
			c-68.2-2.2-136.4-4.9-204.7-7.7c-43.2-1.6-86.2-3.7-129.3-4.5c-24.4-0.4-48.7,2.2-73.2,2c-19.3-0.2-38.6-3-58-4.3
			c-52.1-3.9-103.9-7.7-156-11.6c-3.4-0.2-6.5-1.2-9.7-1.4c-49.5-3.7-98.8-7.3-148.3-11.2c-8.1-0.6-16-2.6-23.9-4.1
			c-5.5-1.2-11-3.7-16.6-4.3c-57.6-4.5-115-9.1-172.5-12.6c-60.1-3.7-120.3-6.5-180.4-9.5c-8.9-0.4-17.9,0.2-26.8-0.4
			c-15.4-1-30.6-2.6-45.9-3.9c-12.2-1.2-24.3-2.6-36.5-3.5c-95.8-7.5-191.9-11.4-287.1-25.8c-57.8-8.7-116.3-12.8-174.7-17.5
			c-43.8-3.5-87.7-4.1-131.7-6.9c-81.2-5.3-162.3-10.8-243.3-17.5c-22.7-1.8-44.8-8.1-67.2-12c-45.5-8.1-90.9-17.4-137.6-18.7
			c-57.2-1.6-112.6-15.2-166-34.5c-24.3-8.7-47.3-21.9-69.4-35.3c-45.2-27.4-90.9-54.4-123.6-97.6c-16.2-21.3-32.7-42.6-38.3-70.2
			c-4.3-21.7-1.8-35.9,17.2-46.1c31.7-17.4,61.5-39.8,101-39.4c16,0.2,31.9-5.7,47.9-8.7c12.2-2.4,21.5,1.4,30.8,10.5
			c10.3,10.3,22.9,18.1,34.3,27.2c12.6,10.1,24.8,20.5,37.7,30.6c5.7,4.3,11.8,8.5,18.3,11.4c17.2,7.5,34.5,14.2,51.7,21.3
			c3.7,1.6,7.3,4.1,11,4.9c31.9,6.5,63.7,12.6,95.8,18.7c9.7,1.8,20.3,0.8,28.8,4.9c24.8,12.2,50.3,9.5,76.5,8.7
			c48.1-1.4,96.2,0,144.3-0.6c31.7-0.4,63.5-2.6,95.2-3.9c4.1-0.2,8.3-0.8,12.2,0c40.6,8.1,81,5.5,121.7,0c5.5-0.8,11.4-1,17.2-0.4
			c56.8,5.7,113.6-1.2,170.4-0.6c60.9,0.6,121.9,1,182.4,5.9c41,3.4,81.6,14.2,122.2,22.3c7.5,1.6,14.2,6.5,20.3,9.3
			C-507.3,2019.8-534.7,2008.9-533.6,2032.6"/>
	</g>
	<g>
		<defs>
			<rect id="SVGID_73_" x="-3046.7" y="179.8" width="6950.8" height="2693.2"/>
		</defs>
		<clipPath id="SVGID_74_">
			<use xlink:href="#SVGID_73_"  style="overflow:visible;"/>
		</clipPath>
		<path class="st38" d="M2674.3,1700c3.9-58.4,6.1-117.1,12.2-175.3c4.3-41-0.4-81-3.7-121.7c-1.8-21.1-2.6-42.4-2.4-63.5
			c0.4-52.1-3.5-104.1,3.2-156.2c1.4-10.3-0.8-21.1-0.6-31.5c0.4-21.9,1.6-43.8,1.6-65.5c0-14.6-2.6-29.4-2.2-43.8
			c1.8-59.2-16.8-115.7-22.7-173.9c-1.2-11.6-9.1-22.5-12.2-34.3c-2-7.1-3.7-16.6-0.8-22.5c7.7-15.4,19.3-28,35.9-35.1
			c66.4-28.6,132.5-58.2,199.1-85.8c23.5-9.7,41.8-23.9,57.2-43.8c7.9-10.1,18.7-18.1,29.6-25c16.4-10.6,31-6.3,35.9,13
			c9.9,37.7,18.7,75.9,24.1,114.6c4.5,32.7,3.7,66.3,4.7,99.6c2,57.6,0.4,115.5,6.1,172.7c4.1,42.2,4.7,83.6,2.6,126
			c-1.8,34.7,5.7,69.6,7.9,104.5c1.2,17.7-0.4,35.5-1,53.4c-0.2,4.9-2,9.7-1.6,14.6c4.9,62.7,0.2,125-3.7,187.5
			c-1,17,0.6,34.1,2.8,51.1c2.6,20.3-2,36.5-18.1,49.9c-17.4,14.6-33.3,30.8-50.1,45.7c-14.4,12.8-28.2,27.4-44.6,37.3
			c-25.4,15.4-50.1,33.7-80.4,38.8c-13.6,2.2-23.7,6.3-30.8,19.9c-8.9,16.4-22.3,29.4-39.2,39c-24.8,13.8-48.3,29.8-72.8,44.4
			c-4.7,3-10.3,5.1-15.8,5.9c-14.6,2.2-22.3-3-23.3-17.7c-1.2-15.4-0.2-31,0.6-46.3c1.4-25,3.4-50.3,5.1-75.3
			C2675.8,1700,2675.1,1700,2674.3,1700"/>
	</g>
	<g>
		<defs>
			<rect id="SVGID_75_" x="-3046.7" y="179.8" width="6950.8" height="2693.2"/>
		</defs>
		<clipPath id="SVGID_76_">
			<use xlink:href="#SVGID_75_"  style="overflow:visible;"/>
		</clipPath>
		<path class="st39" d="M2854.9,552.8c19.1-10.8,19.9-10.6,31.5,8.5C2871.2,566.2,2871.2,566.2,2854.9,552.8"/>
	</g>
	<g>
		<defs>
			<rect id="SVGID_77_" x="-3046.7" y="179.8" width="6950.8" height="2693.2"/>
		</defs>
		<clipPath id="SVGID_78_">
			<use xlink:href="#SVGID_77_"  style="overflow:visible;"/>
		</clipPath>
		<path class="st40" d="M-591.9,2024.9c-5.9,15.8-15.4,20.7-26.4,17.2c-20.3-6.7-40.4-1.4-60.5-0.6c-19.5,0.8-38.8,2-58.4,3.2
			c-13,0.8-25.8,2.2-38.8,2.8c-11.2,0.4-22.7,0.4-33.9,0c-10.5-0.4-21.1-2.8-31.5-2.6c-33.1,0.8-66.3,2.6-99.4,3.9
			c-4.1,0.2-8.1,0.2-12.2,0c-32.5-1.4-65.1-2.8-97.4-4.5c-7.7-0.4-16.6,1.6-21.9-8.9c9.5-9.9,20.3-10.3,31.2-5.3
			c12,5.3,23.5,4.3,35.7,0.6c6.9-2.2,14.4-3.9,21.5-3.9c39.8,0.6,79.5,2.2,119.3,2.8c14.6,0.2,29.4-2.6,43.8-1
			c35.5,3.7,71,1,106.5,0.6c33.1-0.4,66.4-2.8,99.6-4.3C-607.3,2024.7-599.6,2024.9-591.9,2024.9"/>
	</g>
	<g>
		<defs>
			<rect id="SVGID_79_" x="-3046.7" y="179.8" width="6950.8" height="2693.2"/>
		</defs>
		<clipPath id="SVGID_80_">
			<use xlink:href="#SVGID_79_"  style="overflow:visible;"/>
		</clipPath>
		<path class="st41" d="M-1228.4,2019.2c-25,12.2-47.3,5.9-62.5-17.7C-1273.9,1998.7-1240.4,2008-1228.4,2019.2"/>
	</g>
</g>
<g>
	<g>
		<defs>
			<rect id="SVGID_81_" x="-3046.7" y="179.8" width="6950.8" height="2693.2"/>
		</defs>
		<clipPath id="SVGID_82_">
			<use xlink:href="#SVGID_81_"  style="overflow:visible;"/>
		</clipPath>
		<path class="st42" d="M-639.8,739.5c-17.4,14.8-20.3,14.8-40.6,2C-666.9,730.3-653.2,738.2-639.8,739.5"/>
	</g>
	<g>
		<defs>
			<rect id="SVGID_83_" x="-3046.7" y="179.8" width="6950.8" height="2693.2"/>
		</defs>
		<clipPath id="SVGID_84_">
			<use xlink:href="#SVGID_83_"  style="overflow:visible;"/>
		</clipPath>
		<path class="st43" d="M3115.3,740.3c0.2-1.6,0.4-3.2,0.8-4.9c0.6,3,1.2,3.9,1.2,1.8C3116.5,753.3,3103.3,829.1,3115.3,740.3
			 M2611,971.2c0.8,1.4,1.6,2.8,2.4,3.9c2.6,9.7,7.3,23.3,9.3,29.6c0.6,19.1,1,37.9,0,57c-3.5,10.8-4.1,26.2-6.5,36.5
			c-0.2,1.2-0.8,2.4-1,3.5c-0.8-11-1.4-22.1-2.2-33.1c-2.6-36.3-3-73-8.3-108.8C2607,963.7,2609,967.5,2611,971.2 M3179.8,835.8
			c-13.4-48.9-34.1-97-58.4-142.2c0.6-6.1,1.2-12.2,1.4-18.3c8.9-204.9-167.8-341.9-355.5-355.5c-53.4-3.9-107.3,7.3-159.5,16.2
			c-5.9,1-12,2-17.9,3c1.6,0,2.8,0,4.5,0c-1.8,0-3.5,0-5.1,0c-3.7,0.6-7.7,1.2-11.4,2c-7.9,1.4-16,1.2-20.1,0.6
			c-15,2-30,4.5-44.2,5.5c-94.8,7.7-190.1,8.5-285.1,5.3c-385.5-13.4-768.8-79.9-1152.9-112c-388.8-32.5-778.8-51.3-1169-56
			c-187.5-2.2-381.9-13.6-568.5,9.5c-134.3,16.6-242.9,54-366.9,108.1c-85.6,37.3-170.8,76.1-256.1,114
			c-34.9,15.6-69.8,30.2-103.5,46.3c-33.1-3.5-66.3-0.8-96.2,11.2c-121.9,49.5-224.2,120.9-285.5,241.7
			c-54.6,107.9-75.9,225.4-70.8,345.8c3.9,91.5,15.2,181.2,9.7,272.9c-0.6,11-5.9,56-4.9,54.8c-1.8,10.5-3.5,20.7-4.5,25.2
			c-8.9,45.4-20.3,90.3-34.3,134.5c-47.7,150-49.1,300.5,70.6,420c112.6,112.2,271.7,91.5,415.4,89.9c193.8-2,387.6-0.2,581.3,5.7
			c391,11.6,781.2,39.4,1169.8,82.6c192,21.3,384.7,44.2,578.3,34.5c189.5-9.5,376.4-44.2,565.1-61.1c94.1-8.5,188.5-12.2,282.7-6.7
			c93.3,5.5,186.7,19.7,280.4,10.6c215.9-20.9,411.7-115.3,597.2-223.6c173.3-101,329.9-239.8,422.9-420.2
			C3189.3,1285.5,3238.6,1051.5,3179.8,835.8"/>
	</g>
</g>
<g>
	<g>
		<defs>
			<rect id="SVGID_85_" x="-3046.7" y="179.8" width="6950.8" height="2693.2"/>
		</defs>
		<clipPath id="SVGID_86_">
			<use xlink:href="#SVGID_85_"  style="overflow:visible;"/>
		</clipPath>
		<path class="st44" d="M-1401.7,604.5c-71-1.6-147.7-4.9-212.4,27.8c-31.2,15.8-66.3,32.9-89.7,59.3c-25.2,28.4-34.1,68.4-44,103.9
			c-22.9,82.4-40.2,153.8-30.4,240.7c10.6,92.5,14.2,184.9,22.7,277.6c8.7,95.2,10.3,198.9,4.5,294.8
			c-2.2,38.1-20.1,73.9-23.7,112.6c-3.2,33.5-2.4,64.9,15.4,94.4c35.5,59.3,98.2,97.8,165.2,109c42.2,7.1,87.9,6.7,130.5,4.5
			c48.9-2.6,93.5-19.1,142.8-18.5c100.2,1.2,201.5-5.1,301.7,0.8c100.8,5.9,201.1,14.6,301.1,27.6c95.6,12.6,191.7,13.4,287.7,19.9
			c94.1,6.3,179,58.2,272.5,72c189.3,27.6,378.4,6.3,567.9-0.4c35.9-1.4,64.3,10.3,98.6,14.4c48.3,5.9,100.4-1.4,149.3,0.4
			c110.2,3.9,219.1,17.9,329.7,18.3c99.8,0.2,198-4.7,297.3-9.5c95.2-4.5,191.1,1.8,286.1,5.7c107.1,4.3,214.1,4.7,321.4,9.1
			c42,1.8,84,1.6,125.4-6.5c21.7-4.3,42.8-11.2,64.9-14.8c32.3-5.1,44.6-2.2,73.2,8.7c74.1,28.4,168.4,21.9,244.7,5.3
			c80.6-17.5,148.5-51.1,199.5-117.9c21.3-27.8,41.2-60.1,54.2-92.7c17-42,12-86.6,22.9-129.7c22.1-87.9,30-183.6,33.5-274.1
			c2-48.9,0.2-98.2,0.2-147.1c0-47.5,8.1-97.2,4.9-144.3c-2.6-38.4-3.7-81-10.1-118.7c-5.9-35.7-19.9-71.4-29.2-106.3
			c-9.1-34.1-6.5-68.8-22.3-101.3c-14.4-29.4-36.5-40.6-66.3-53.4c-80.8-34.9-182.8-20.5-267.8-11.4c-46.3,4.9-91.5,15.8-138.2,17.2
			c-53,1.6-106.1-0.4-159.1,0c-103.9,1-207.6-5.3-311.7-5.3c-201.1,0-401.6-4.9-602.8-4.7c-104.5,0.2-217.5,11.4-319.6-16.8
			c-40-11-77.3-24.4-119.1-28.8c-50.9-5.3-102.3-8.3-153.4-12.4c-96.2-7.9-193.2-19.3-288.3-34.7c-90.9-14.6-181-23.1-272.5-33.5
			c-94.2-10.8-190.1-6.1-284.7-11.8c-96.6-5.7-193.6-1.2-290.4-5.1c-47.5-2-94.2-9.5-141.8-9.9c-55.2-0.6-110.4,1.6-165.8,1.8
			c-91.9,0.2-182.2-34.3-272.3-53.4c-30.8-6.5-60.9-13-92.1-6.5c-37.3,7.9-68,33.3-103.9,40.2c-14.8,2.8-8.5,25.4,6.3,22.7
			c33.1-6.3,57.2-28,89.7-36.3c47.9-12.4,94.2,3,141.4,13c39.6,8.5,79.5,16.2,117.9,29.4c38.8,13.2,71.8,14.8,113.2,14.6
			c95.2-0.2,188.3-1.4,283.1,6.5c93.5,7.7,188.1-3.9,281.4,3.4c179.2,14.2,359.8,9.5,537.5,41.2c79.7,14.2,159.3,21.1,239.6,31.5
			c94.6,12.4,192.6,11,286.3,28c38.6,6.9,74.3,23.3,113.2,30c43.6,7.5,88.1,10.5,132.3,11.4c93.1,2.2,186.5-0.4,279.6-0.6
			c187.7-0.6,375.2,6.1,563.1,4.7c99.4-0.8,198.4,4.3,297.9,4.7c43.4,0.2,86.8,2.4,129.9-1.6c49.5-4.3,97.6-14.8,147.3-18.1
			c82-5.5,243.9-31.7,276.2,73c9.7,31.2,10.1,66.3,19.5,98.6c12.4,42.6,22.5,82.8,25,127.2c2.2,36.7,9.7,73.5,6.7,110.2
			c-3.7,47.3-3.7,94.1-3.9,141.6c-0.2,90.7-6.3,179-14.6,269.3c-3.9,44.4-13.8,86.4-23.9,129.5c-11,47.5-6.1,89.3-30.2,134.9
			c-47.5,90.5-117.3,144.9-216.9,168c-46.1,10.6-92.9,13-140,12.4c-23.9-0.2-49.1-0.4-72.2-6.5c-18.3-4.9-34.1-18.1-52.3-21.9
			c-28.8-6.1-65.5,4.3-93.3,10.8c-51.1,11.6-99.8,15.8-152,13.6c-98-4.1-196.2-1.8-294-7.5c-90.3-5.3-180.6-8.1-271.1-8.1
			c-93.7,0-187.1,10.3-281,10.5c-99.4,0-198.6-0.6-297.5-10.8c-45.5-4.7-90.9-7.9-136.8-8.3c-21.3-0.2-42.8-0.4-64.1,0
			c-25.8,0.4-46.7-6.9-71.2-11.8c-28.4-5.9-59.9-3-88.7-0.8c-48.1,3.5-96.2,2.4-144.3,7.7c-87.9,9.9-178,7.1-266.4,3.5
			c-93.1-3.7-182-15.6-269.1-48.7c-35.1-13.4-71.8-26.2-109-31.7c-42.4-6.1-85-2.8-127.6-6.3c-91.5-7.7-182.4-17.9-273.7-27.2
			c-91.1-9.3-183.2-18.3-274.7-18.1c-94.2,0.2-193.4-9.1-287.1,0.2c-39,3.9-74.9,17.9-115,18.9c-51.9,1.2-106.1,2-155.2-16.4
			c-37.1-14-66.3-37.3-91.7-67.4c-34.7-41-29.6-90.9-19.5-140.4c3.9-19.3,13-37.7,16.2-57.2c2.8-17.4,0.2-36.3,0-53.6
			c-0.6-47.1-0.6-94.6,0.2-142c1.8-88.1-10.8-174.7-14.6-262.6c-3.5-82.8-20.9-165.6-12.8-249c4.1-43.4,21.1-82.6,32.1-124.2
			c15.8-59.3,38.6-95.2,93.1-125.6c71.8-40.2,148.1-41.8,228.7-40.2C-1386.5,628.3-1386.5,604.9-1401.7,604.5"/>
	</g>
	<g>
		<defs>
			<rect id="SVGID_87_" x="-3046.7" y="179.8" width="6950.8" height="2693.2"/>
		</defs>
		<clipPath id="SVGID_88_">
			<use xlink:href="#SVGID_87_"  style="overflow:visible;"/>
		</clipPath>
		<path class="st45" d="M-1541.7,613.3c23.9-8.3,40.8-24.1,58.4-41.8c28.2-28.4,71.4-39,108.2-53.2c75.5-29.2,155.4-41.6,224.8-85
			c69.8-43.4,139.4-96,221.6-112.2c70.2-13.8,140-50.7,213.3-41.4c32.9,4.1,65.9,18.5,100,22.9c40.6,5.1,82.6,0.4,123.4,3.7
			c96.6,7.7,193.4,7.9,290,15.2c177.5,13.2,355.5,17.2,533.6,17.7c373.1,1.2,749.7-17.5,1121.7,14.8c92.3,8.1,189.9,7.5,279.6,31.9
			c38.6,10.5,75.7,25,115.3,32.1c41.6,7.3,84.6,0,125.4,9.7c72.2,17.2,143.1-7.5,215.5-11.4c93.9-5.1,188.5-2.2,282.6-2.6
			c98-0.2,192.8,18.7,289.8,26.8c48.9,4.1,99,3.7,147.3,11.2c22.1,3.5,52.8,8.1,72,20.7c12.6,8.3,34.5,35.7,30.2,53.8
			c-1.6,7.1-22.9,20.9-28.2,24.8c-29.6,22.5-64.7,36.3-91.9,61.7c-29.6,27.8-63.9,57.6-99.6,77.3c-39.8,22.1-84.8,31.7-125.2,52.3
			c-28.2,14.2-67.2,27.4-88.5,51.5c-3.2,3.7-4.9,9.9-1.8,14.2c1.2,1.6,2.2,3.2,3.4,4.7c8.7,12.2,29,0.4,20.3-11.8
			c3.9,5.7,96.4-46.5,102.9-49.1c36.1-14.6,73.5-25.6,107.3-45.5c27.2-16.2,53.6-36.9,77.7-57c31.9-26.6,63.3-47.5,97.6-71
			c39.4-26.8,76.7-61.1,36.9-106.1c-45.2-51.3-137.4-45.7-198.8-51.5c-86.8-8.1-172.9-18.5-259.7-27.2
			c-100-10.1-202.3-3.7-302.7-3.9c-42,0-86.2-0.2-127.8,5.5c-45.4,6.3-89.9,21.3-136.4,13c-15.4-2.8-28.8-8.3-44.6-9.7
			c-22.9-2-45.7,1.6-68.8-0.2c-50.1-3.9-95.8-22.5-143.7-35.7c-83.6-23.1-173.3-22.9-259.3-30.4c-95.4-8.5-191.1-12.2-286.7-14.4
			c-200.7-4.5-401.1-4.1-602-3.2c-99,0.6-198,0.8-296.7,0.4c-97.2-0.6-194.8-7.5-291.8-6.5c-92.9,1-184.4-12.6-277-14
			c-101.7-1.4-202.5-13.2-304.2-14.6c-47.1-0.8-86-17.7-131.1-24.4c-29.8-4.3-70,1.8-99.6,5.1c-15.2,1.8-27.8,8.1-41.4,14.2
			c-25,11.4-49.1,16.8-76.1,21.7c-43.8,7.9-80.6,26.2-120.9,44.2c-43.6,19.3-80.6,51.7-121.3,76.3c-47.1,28.6-99,41.8-151.4,56.6
			c-43.6,12.2-85,31.7-127.2,47.5c-16.2,6.1-26,8.3-39,19.3c-20.7,17.5-33.9,40.2-61.3,49.7C-1562,595.4-1556.1,618.3-1541.7,613.3"
			/>
	</g>
	<g>
		<defs>
			<rect id="SVGID_89_" x="-3046.7" y="179.8" width="6950.8" height="2693.2"/>
		</defs>
		<clipPath id="SVGID_90_">
			<use xlink:href="#SVGID_89_"  style="overflow:visible;"/>
		</clipPath>
		<path class="st46" d="M3018.3,529.1c-28.8,47.1-5.1,115.5,11.6,162.9c12.8,35.7,32.3,68.4,39.2,106.1c7.7,41.2,3.5,83.6,6.3,125.4
			c9.9,150.2-1.8,300.5-5.7,450.9c-2,75.1-11.2,146.5-33.9,217.9c-14.2,44.8-31.4,60.9-69.2,87.2c-28.8,19.9-56.2,42.4-85.8,61.5
			c-101.5,65.9-210.2,119.1-306.6,190.9c-12,8.9-0.2,29.4,11.8,20.3c95.8-71.4,204.7-125.6,306.4-190.9
			c23.3-14.8,45.7-31.9,68.4-47.5c22.3-15.4,50.1-30.4,68.4-50.9c43.2-48.1,47.5-130.7,57-190.9c12.4-77.7,8.1-158.9,11.2-237.6
			c3.2-77.7,4.7-155.2,5.5-233.1c0.4-36.7-4.7-73-5.7-109.6c-0.8-33.3,0.4-66.8-5.7-99.8c-7.1-37.9-26.2-70.4-39.2-106.1
			c-14.6-40-38.8-103.9-14-144.7C3046.3,528.2,3026,516.3,3018.3,529.1"/>
	</g>
	<g>
		<defs>
			<rect id="SVGID_91_" x="-3046.7" y="179.8" width="6950.8" height="2693.2"/>
		</defs>
		<clipPath id="SVGID_92_">
			<use xlink:href="#SVGID_91_"  style="overflow:visible;"/>
		</clipPath>
		<path class="st47" d="M-1768.9,1372.3c-81,0.8-161.5-4.7-242.5-4.7c-34.9,0-76.3-6.3-110.6,0.2c-32.9,6.3-65.3,26.4-97.4,36.3
			c-33.3,10.3-60.1,24.1-91.1,38.4c-32.3,15-60.5,22.1-90.1,44.8c-13.4,10.3-26,22.9-40.6,31.5c-19.3,11.4-39.8,12.4-60.3,19.3
			c-34.5,11.8-68.4,29.6-101.5,45c-36.1,16.8-66.6,41.2-100.4,61.7c-37.1,22.7-73.2,44-109.6,68c-51.1,33.9-107.9,62.9-126.2,126.4
			c-16.8,57.8-19.9,141.6,3.4,198c26.8,65.1,94.4,89.7,149.9,124.4c139.2,87,280,147.3,445.4,161.1c94.4,7.9,178,29.6,264.2,70.4
			c74.3,35.1,149.5,54.8,230.7,68.2c88.9,14.6,179.6,18.3,268,34.5c84.6,15.4,165.6,51.9,250.2,64.5
			c85.8,12.8,173.5,17.2,260.1,21.5c92.5,4.7,182,24.3,273.3,39.6c82.6,13.8,167,21.5,250.6,26.4c88.3,5.1,176.5,18.9,264.4,28.8
			c44,4.9,85,19.3,128.6,26c39,5.9,78.7,4.1,118.1,5.1c91.9,2.8,181.4,23.9,273.3,23.1c93.5-0.8,184.4,12,277.2,17.7
			c40.8,2.6,95.6-9.9,128.4,15c25.6,19.5,53,26.8,84.6,33.5c162.3,35.1,338.5,19.7,503.6,19.7c95.6,0,191.5,2.2,287.1-0.6
			c88.1-2.6,174.9-18.1,262.8-19.5c92.5-1.4,184.8,0.2,277.2-2.6c44.2-1.2,88.1,0.2,132.3-0.8c43.2-1,85-11.2,128.2-11.2
			c180.2,0,360.8-2.8,540.8-14.6c76.7-4.9,154.6,1.8,225-34.5c73-37.5,145.3-78.3,214.9-121.3c70.4-43.6,142-89.9,208.4-139.2
			c27.2-20.1,56.8-36.5,83.8-56.8c31.9-23.9,56.8-52.8,85.6-79.7c55.4-51.7,103.3-107.3,140.4-174.3c15.4-28,34.7-57.4,47.3-86.6
			c12.4-28.4,13.8-64.5,18.1-95c7.5-53.6,16.2-112.8-12.6-162.3c-36.9-63.1-111.4-87.9-170-124c-132.3-81.6-276.4-141-434.6-135.3
			c-70,2.6-138.2-14.6-206.2,4.5c-14.6,4.1-8.3,26.8,6.3,22.7c68-19.1,143.5-2.8,214.1-4.1c79.7-1.6,154.8,15.2,229.5,42.2
			c41,14.8,81.8,30.6,119.3,52.8c33.7,19.9,65.5,43,100.4,60.7c74.9,38.4,141,83.6,137.8,176.9c-1,32.3-8.1,65.7-13,97.4
			c-6.1,40.2-19.5,64.1-37.3,98.8c-33.3,65.5-74.1,136.2-129.5,185.3c-24.4,21.7-45.9,45.9-69.8,68c-31.4,29.2-68.2,50.1-103.1,74.5
			c-61.3,43-123.4,84.6-185.9,126.2c-62.1,41.4-128,79.9-194.4,113.8c-36.9,18.7-70.4,42.6-111,53.2c-44.8,11.8-91.9,7.7-137.4,10.5
			c-167.8,10.1-336.6,18.5-504.8,17.7c-75.3-0.4-149.1,10.5-224,9.9c-88.1-0.8-176.3,5.1-264.6,4.3c-167.4-1.6-332.4,20.3-500,19.7
			c-83.6-0.4-167.4-0.4-251-0.4c-84,0-169.4,4.7-253.2-2.6c-72-6.3-177.7,2.6-233.5-50.1c-15.6-14.6-16.8-14-38.8-14.2
			c-46.3-0.6-91.9-0.2-138-4.3c-83.8-7.5-165.2-15.2-249.4-14.8c-85.8,0.4-170-19.7-255.9-22.9c-35.9-1.4-72.2,0.6-108.1-3.2
			c-41.4-4.3-80.8-19.1-122.1-25.2c-78.3-11.4-158.9-21.9-237.8-28.8c-80.8-7.1-162.3-10.3-242.9-19.7
			c-82.6-9.7-162.7-31.5-244.7-44.2c-79.5-12.2-162.7-7.9-242.9-15.4c-42-3.9-87-5.3-127.8-16.4c-38.8-10.5-77.5-22.5-116.3-33.1
			c-159.3-43.6-326.1-40.4-485.8-83c-75.9-20.3-143.5-61.1-217.9-85.8c-73.7-24.4-145.3-27.6-221.6-36.7
			c-160.1-18.9-309.2-96.4-441.3-184.9c-36.1-24.3-72-47.7-85.6-91.5c-12.2-39.4-8.5-85.6-4.9-126.4
			c7.9-93.5,76.1-123.2,144.3-173.7c31.7-23.5,67.4-38.6,100.4-60.1c37.7-24.6,72.8-47.5,114.4-65.1c32.5-13.8,62.1-26.2,96-35.1
			c26.4-6.9,46.5-23.1,67.6-39.6c31.7-25,60.7-35.1,96.8-50.5c33.1-14.2,62.9-31.7,98.6-42.2c28.6-8.5,56-24.3,85-30.4
			c41.8-8.9,89.5-2.8,132.3-2.8c73.3,0,145.5,5.5,218.9,4.7C-1753.9,1395.5-1753.9,1372.1-1768.9,1372.3"/>
	</g>
	<g>
		<defs>
			<rect id="SVGID_93_" x="-3046.7" y="179.8" width="6950.8" height="2693.2"/>
		</defs>
		<clipPath id="SVGID_94_">
			<use xlink:href="#SVGID_93_"  style="overflow:visible;"/>
		</clipPath>
		<path class="st48" d="M-1783.3,1796.6c-36.7,1.6-76.5,16.4-109.8,30.6c-25.4,10.8-59,30-75.1,53.2c-39.8,57.4-1.6,172.7,39,220.8
			c22.1,26.2,59,29.6,90.1,40.4c45.2,16,85.6,39,130.3,56c44.4,17,83.6,32.1,128.8,45.4c51.1,15,101.7,24.8,154.4,32.5
			c104.9,15.2,214.1,15.4,319.8,13.6c53.2-1,105.9-9.1,159.1-10.8c61.5-2,123.2-0.4,184.9-0.8c117.1-0.8,234.2-3.5,351.4,2.8
			c115.7,6.1,231.7,17.7,347.6,19.9c112.6,2.2,227.9-0.2,339.9,11.2c111,11.4,213.1,57.8,325.3,61.7c55.2,2,110.8,0.2,166,0
			c49.1,0,97.8,6.9,146.9,10.6c113,8.9,227.5,3.4,340.9,3.4c230.7,0,461,4.7,691.7,4.7c115.3,0,230.7-1.6,346-3.9
			c104.1-2.2,212,9.1,314.9-11.8c104.7-21.3,187.5-84.6,282-130.3c47.5-22.9,99.6-39,148.1-60.3c35.3-15.6,69.2-35.5,86-71.6
			c20.3-43.6,17-93.5,15.4-140c-1.2-36.7-21.3-53.2-50.9-75.9c-73.2-56.4-180.8-122.1-275.6-121.1c-15.2,0.2-15.2,23.7,0,23.5
			c86.6-0.8,184,59.5,252.4,109.6c19.9,14.6,44.6,31,50.7,56c4.3,18.3,2,45.2,1.4,64.1c-2,59-22.5,102.3-77.3,129
			c-72.4,35.1-148.7,58.2-219.5,97c-89.1,49.1-170.6,95.8-274.3,105.3c-95.4,8.9-193,1.4-288.7,3.7c-103.5,2.6-206.8,3.2-310.4,3.2
			c-202.7,0-405-4.7-607.7-4.7c-102.3,0-204.5-0.6-306.8,0c-45.4,0.4-89.7-2.8-134.9-4.5c-41.2-1.8-80.1-9.7-121.5-9.7
			c-104.1,0.2-209.2,6.5-310.5-20.3c-92.5-24.6-179.6-44.4-275.8-46.3c-203.9-3.9-406.8-16.6-610.3-26.8
			c-104.7-5.3-209.6-3.4-314.3-2.6c-101.7,0.8-203.5-2.4-304.8,7.7c-107.1,10.6-222.2,7.3-329.5-2.6
			c-101.9-9.5-205.3-29.8-299.3-70.2c-24.6-10.6-50.5-17.9-74.3-30.6c-17.4-9.1-32.7-20.5-51.3-27c-54.4-19.3-111-23.9-138.4-81.4
			c-25.2-53.2-51.7-138.6,7.5-177.9c37.1-24.4,96.2-50.1,140.8-51.9C-1768.1,1819.7-1768.1,1796-1783.3,1796.6"/>
	</g>
	<g>
		<defs>
			<rect id="SVGID_95_" x="-3046.7" y="179.8" width="6950.8" height="2693.2"/>
		</defs>
		<clipPath id="SVGID_96_">
			<use xlink:href="#SVGID_95_"  style="overflow:visible;"/>
		</clipPath>
		<path class="st49" d="M2495,1228.3c-6.3-51.1-16-98.2-46.1-141.2c-34.3-48.9-83.4-72.4-137.8-92.7
			c-198.9-74.3-417-102.1-628.4-108.4c-211-6.3-420.2,14.4-629.8,34.3c-204.5,19.3-411.5,31.7-606.9-43
			C387.8,855.1,319.4,902,304,958c-17.9,65.1,22.1,119.7,80.6,142c361.6,138,763.7,25,1137.1,16.4c186.5-4.3,373.8,5.9,555.8,49.3
			c45.4,10.8,90.1,23.5,134.3,38.1c15,4.9,36.5,9.1,50.7,18.5c0.4,2,0.6,4.1,0.4,6.9c-1.8,37.7,8.9,78.7,8.1,117.3
			c-1,49.9-8.1,97-19.9,145.3c-35.1,144.3,187.3,205.8,222.6,61.3C2499.8,1446.8,2508.6,1337.4,2495,1228.3"/>
	</g>
	<g>
		<defs>
			<rect id="SVGID_97_" x="-3046.7" y="179.8" width="6950.8" height="2693.2"/>
		</defs>
		<clipPath id="SVGID_98_">
			<use xlink:href="#SVGID_97_"  style="overflow:visible;"/>
		</clipPath>
		<path class="st50" d="M77.5,863.2c-113.2,0-113.4,175.9,0,175.9C190.7,1039,190.9,863.2,77.5,863.2"/>
	</g>
	<g>
		<defs>
			<rect id="SVGID_99_" x="-3046.7" y="179.8" width="6950.8" height="2693.2"/>
		</defs>
		<clipPath id="SVGID_100_">
			<use xlink:href="#SVGID_99_"  style="overflow:visible;"/>
		</clipPath>
		<path class="st51" d="M-95.2,1694.4c-266.8-47.7-536.3-96.4-808.2-94.8c-129.7,0.8-257.9,17.9-386.9,30.4
			c-34.5,3.4-69.2,6.3-103.9,8.1c-2.8,0.2-13-0.2-23.3-0.2c2.8-25.6-3.5-62.5-3.5-84c-0.2-32.9-0.2-66.1-0.4-99
			c-0.6-113.2-176.5-113.4-175.9,0c0.6,115.7-38.8,316.1,109.8,354.7c64.9,17,142,1.8,207.4-4.7c76.1-7.5,152-17.2,228.3-23.1
			c306.4-24.1,609.3,28.4,909.8,82.2c46.7,8.5,94.8-12.6,108.2-61.5C-22.1,1760.1-48.1,1702.9-95.2,1694.4"/>
	</g>
</g>
</svg>
