<svg id="Layer_1" data-name="Layer 1" xmlns="http://www.w3.org/2000/svg" xmlns:xlink="http://www.w3.org/1999/xlink" viewBox="0 0 4000 2188.6"><defs><style>.cls-1{fill:none;}.cls-2{clip-path:url(#clip-path);}.cls-3{fill:#d0d2d3;}.cls-4{fill:#ffe78f;}.cls-5{fill:#bbbdbf;}.cls-6{fill:#231f20;}.cls-7{fill:#fff;}.cls-8{fill:#ffedba;}</style><clipPath id="clip-path"><rect class="cls-1" x="-1689.99" y="62.1" width="5327.92" height="2064.4"/></clipPath></defs><title>butter</title><g class="cls-2"><path class="cls-3" d="M1744.32,2033.09c-45.49-2.42-90.83-5.59-136.33-7-21.76-.76-43.68,1.66-65.44,2.57-30.53,1.36-61.06,2.72-91.59,3.78-19.35.76-38.69,1.66-57.89,1.36-44.89-.91-90.23.91-134.51-4.53-68.92-8.46-138-10.73-207.21-13-54.26-1.81-108.21-8.77-162.32-12.85-28-2.12-55.77-4.38-84-3.17-46.7,2.12-93.71,1.51-140.56.6-15.42-.3-30.68-5-45.95-7.41-55.92-8.92-111.84-18.14-167.91-26.6-40.66-6.2-81.61-10.88-122.27-17.38-23.28-3.63-46.1-9.82-69.22-14.06-14.06-2.57-28.41-3.78-42.47-5.74-24.64-3.32-49.27-7.1-73.91-10.13-36.42-4.53-72.7-8.92-109.12-13-38.09-4.23-76-10.43-114.56-12.09-20.25-.91-40.2-6.2-60.46-8.92-28.41-3.78-56.83-7.1-85.24-10.73q-51-6.35-102-13c-4.38-.6-8.61-1.36-13-1.81-27.2-3-54.56-5.74-81.61-9.22-9.22-1.21-18-4.84-27.05-7.1-35.67-9.07-71.19-18.29-106.85-26.6-17.53-4.08-35.52-6.5-53.2-9.52-32-5.44-64.23-9.52-96-16.17-36-7.56-72.55-10.58-108.82-15.72-25.84-3.48-51.24-10.28-77.08-13-35.67-3.78-68.92-17.68-104-22.22-46.1-6-89.93-20.25-134.21-32.49-68.62-18.89-135.42-43.07-199-75.42-24.94-12.7-52-21-77.53-32.19-29.62-13-59.1-26.15-85.24-45.79-18-13.45-36.88-25.39-54.71-39-25.09-19.19-34-45.19-41.41-73-2.27-8.46-2.87-17.23-3.93-25.84-3.33-25.69,2.87-49.57,14.21-72.4.91-1.66,2.27-3.17,2.72-5,5.29-22.07,22.07-32,39.75-43.83,22.37-15.11,41.71-35.37,60.3-55.17,10.43-11,20.86-20.86,33.7-29,10.43-6.65,21.16-13.75,29.17-22.82,23.43-26.45,53.5-42.17,84.94-56.22,26.75-11.79,53.2-24.79,80.56-34.91,34.31-12.7,68.47-26.3,104.74-33.55,15.87-3.17,32.65-6.8,46.85-17.23,7.71-5.74,18.44-7.41,28-10.28,39.3-11.79,78.74-23.12,118.19-34.61,6-1.66,12.09-3.93,18.14-4.23,39.75-2.57,79.35-6.65,119.4-2.27,18,2,36.27.91,54.26,1.66,22.82,1.06,26.15,5.59,32.95,27.81,10,32.8,7,66.65,10.13,99.9,1.36,15-2,32.34-21,42.17-21.76,11.18-26.3,31.44-17.83,56.22,5.89,17.08,11.64,34.16,17.08,51.24,3.17,9.67,1.06,14.06-9.22,16-26.3,4.84-53.2,7.25-79.2,13.75-19.65,5-39.45,12.54-56.68,23.28-17.38,10.73-27.51,29.32-28.57,50.33-.76,12.85,0,26.75,4.23,38.69,11.79,33.55,27.81,64.38,57.28,87.21,34.91,27.05,72.4,50.48,109,75,13.6,9.07,30.83,12.85,46.55,18.74,31.29,11.79,64.38,14.21,97.18,18.14,26,3.17,51.84,6.35,77.84,9.67a29.73,29.73,0,0,0,3.63.45c41.26-.76,79.65,13.6,119.4,21.46,34.76,6.8,70.43,11.34,105.8,12.09,45.34,1.06,90.83-3.78,136.33-4.08,23-.15,45.95,3.63,68.92,6.35,26.6,3,53.2,7.1,79.8,10.13,31,3.32,62.12,6.2,93.1,9.07l113.35,10.43c3.78.3,7.71.3,11.18,1.51,33.25,10.88,67.86,8.46,101.87,11.49,19.19,1.66,38.09,4.23,57.43,3,8-.45,16.17.76,24.18,0,48.06-4.84,95.52.45,143.13,7,31.29,4.23,62.72,9.37,94.91,7.86,25.39-1.21,51.08,2.27,76.63,4.53,44.74,3.93,89.47,8.31,134.21,12.7,15.57,1.51,31,3.78,46.4,5.59a153.8,153.8,0,0,0,18.59,1.36c43.68-.45,87.36-1.51,130.89-1.51,23.73,0,47.46,1.51,71.19,2.72,4.84.3,9.52,2.57,14.36,3.48,4.23.76,8.92,2.42,12.7,1.36,32.65-9.37,65.9-4.23,98.84-5,24.94-.45,50,1.66,75,.6,23.58-.91,47.16-4.23,70.58-6.8,21.76-2.42,43.23-6.2,65-7.56,61.06-3.93,122-9.22,183.33-7.56,35.37,1.06,70.73-1.51,106.25-6,39.3-5,79.5-8,118.19,8.61,11.94,5.14,27.05,4.23,40.66,3.78,18.59-.6,37.33-3.32,55.92-5.44,24.94-2.87,49.57-2.72,74.51,1.66,48.67,8.46,98.39,13.3,146.91,3,30.23-6.35,60.76-4.84,91-9.67,5.29-.91,11.18.76,16.78,1.36,11.79,1.21,23.58,2.57,34.76-3.48a15.19,15.19,0,0,1,7.25-1.81c32.95-.76,66.2-3.63,98.84-1.21,62.87,4.69,125.75,11.18,188.77,7.25,18.59-1.21,36.88-5.89,55.17-9.52,16.47-3.17,33.25-6.2,49.42-10.73,32.34-9.07,66.65-7.86,98.24-21.46,12.24-5.29,27.2-3.78,40.2-7.56,17.38-5,33.85-12.54,51.08-18,13.6-4.38,27.81-6.8,41.56-10.73,16.17-4.69,32-10.28,47.91-15.42,2.27-.76,5.14-1.81,6.5-3.63,12.7-16.78,27.05-32.65,37.33-50.63,16.17-28.41,13.9-61.06,18.29-92.5,4.53-32.34-8.92-56.37-22.52-82.37-26-50-66-83.43-117.59-104.44a34.07,34.07,0,0,1-10.73-7.1c-7.71-7.41-7.71-11.18-.3-18.74a30.16,30.16,0,0,1,7.1-6c22.37-12.09,41.56-28.87,62.57-42.92,11-7.41,20.71-15.57,27.36-27.51s13.75-23.73,21.46-35.06c3-4.38,7.41-9.67,12.09-10.88,30.23-7.25,60.76-15.42,92-4.08a22.35,22.35,0,0,0,5.44,1.51c26,3.17,52,6.2,77.84,9.52,8,1.06,15.87,3,23.73,4.69,14.66,3.32,29.17,7.1,43.83,10,17.83,3.63,35.06,7.25,50.48,18.44,8.31,6,19.5,7.71,29.32,11.94,26.9,11.64,53.5,23.58,80.41,35.37a10.88,10.88,0,0,1,3.17,1.81c32.8,34.76,78.59,55.77,104,98.39,2,3.17,5,6,5.74,9.52,7.41,33.4,16.47,66.65,7.86,101.56-7,27.81-13.6,55.47-27.66,81-4.69,8.46-6.2,18.89-9.07,28.41-1.66,5.29-2,11.49-4.84,16-11.18,16.93-23.28,33.4-34.91,50-3.93,5.59-7.56,11.49-11.79,16.78-18.29,23.12-41.87,40.66-63.93,59.7-16,13.75-33.4,26-50.33,38.69-6.35,4.84-13.45,8.77-20,13.45-15.72,11.18-31.29,22.52-47,33.7-26.3,18.89-52.29,38.09-79,56.22-11.79,8-24.79,14.36-37.63,20.25-30.08,13.6-60.15,26.75-90.53,39.45-8.61,3.63-18,5.29-26.9,8-5.29,1.66-10.88,3.17-15.87,5.74-42.32,22.82-87.21,39.9-133,54.11-29.62,9.22-60.76,13-91.29,18.89-22.52,4.23-45,8.16-67.86,11.64-10.43,1.51-21.16.3-31.59,2-52.44,8.46-105.34,8.77-158.24,9.22-3.17,0-6.5-.6-9.37.15-35.67,9.82-72.24-2-108.06,4.69-3.63.6-7.56-.15-11.18-.91-35.82-8.46-71.94-5-108.06-2.42-9.37.6-18.74,1.21-28.11,1.51-44.13,1.21-88.42,2.57-132.7,3.32-37.33.6-74.81-.15-112.3,1.06-54.26,1.81-108.37,4.69-162.62,7.71-16,.91-31.89,4.53-48.06,5.59-19.35,1.21-38.69.76-58,.91-12.54.15-24.94,0-37.48,0,0,0,0,.45,0,1.06"/></g><g class="cls-2"><path class="cls-3" d="M3476.06,1191.41c-78.29-39.14-161.11-43.53-246.66-54.41l-191.49-24.48c-52.44-6.65-122,29.77-157.49,65.29-38.69,38.69-67.71,102-65.29,157.49,2.57,57.58,21.46,117.43,65.29,157.49,31.13,28.72,63.48,44.59,100.05,54.41-10.43,5.14-20.86,10.28-31.44,15.42-7.41,2.87-15,5.89-22.52,8.61-18.44,6.8-37.18,13-55.92,18.74a1068,1068,0,0,1-122.88,29.32c2.87-.15,5.89-.15,9.22-.3-8.46.3-17.68,2.12-26,3-21.76,2.27-43.53,3.63-65.44,4.53-49.27,1.81-98.24-.91-147.36-4.08-114.71-7.56-223.23-5.59-336.89,16.63-44,8.61-87.66,18.89-131.94,26.6-3.63.6-9.67,2.27-16.32,3.93-.76,0-5.29.45-16.17,1.66-25.54,3-51.24,5.74-76.78,7.86-102.93,8.46-206.3,9.37-309.38,5.59-197.84-7.41-394.47-32.19-590.95-55.92q-313.54-37.86-627.22-75.57C210,1528.9,7.29,1501.54-196.44,1489.15c-97.48-5.89-195.27-7.1-292.75-13.9,2,.6,3.93,1.06,6.2,1.81a84.88,84.88,0,0,0-8.92-2c-1.66-.15-3.17-.15-4.84-.3a53.88,53.88,0,0,1-10.88-2c-1.81-.3-3.78-.45-5.44-.91-25.09-4.53-50-10.28-74.81-16.32-50.33-12.39-100.2-26.9-150.08-41q-78.21-22-156.58-44c29.47-6.8,59.25-13,89.17-18.29,52-9.22,107.46-58.49,133.15-102.47,28-47.76,39.75-118.19,22.52-171.69-40.05-123.63-150.84-177.44-274-155.52-103.38,18.29-204.79,45.95-302.73,84.18-107.16,41.71-217.49,88.72-313.61,153-85.39,57.13-151.14,138.14-149.78,246.66,1.36,102,64.38,195.87,156,238.95,111.84,52.75,241.07,76.17,359.71,109.58,232,65.29,466.11,149.32,707.78,168.07,108.21,8.46,216.88,7.41,325.25,15.42,115.77,8.61,230.94,21.61,346.26,35.37q345,41,690.1,83c224,26.9,448.12,58,673.47,70.43,237.14,13,470-3.93,702.49-52.6,8.16-1.66,54.71-5.89,68.47-11.34l5-.45c10.43-.6,21-.91,31.59-.91,60.76-.76,121.21,5.29,181.82,8.61,112.75,6.2,225.5-3.93,336-26.6,230.79-47.16,457.95-168.07,624-335.53,68.77-69.37,120.61-158.7,119.85-259.05-.76-109-65.44-209.63-161.87-258M2004,1672.78c3.32.3,20.55-2,26.9-3-10.43,2.57-21.61,4.69-26.9,3m1142.76-231.39c-7.56,6-14.51,12.09-20.1,18.59-.15.15-.3.15-.45.3,11.18-13.9,18.44-18.89,20.55-18.89m130.89,148.87h0c18.89,4.53,26.9,14.36,0,0"/></g><g class="cls-2"><path class="cls-3" d="M2743.2,1620c1.51-.3,3-.6,4.69-.91-48.21,1.81-21.76,3.78-4.69.91"/></g><g class="cls-2"><path class="cls-4" d="M2630.45,184.07c-26.6-.6-30.08,1.21-24.79,2a223.25,223.25,0,0,1,24.18-2c.3.15.45,0,.6,0"/></g><g class="cls-2"><path class="cls-4" d="M2833.73,348.06c12.39,10.28,12.39,10.28,24.18,6.5-8.92-14.51-9.37-14.66-24.18-6.5m-3268.06,3.63c11.79-17.53,27.05-17.08,39.45-20.25,29.62-7.71,57.43-20,85.39-31.89,33.7-14.36,64.69-34.61,100.51-44.74,13.6-3.93,25.84-12.24,39.14-17.53a161.5,161.5,0,0,1,26.9-7.71,155.45,155.45,0,0,0,45.49-16.63C-65.4,194.8-32.76,178-.57,160.19c14.51-8,30.23-7.41,45.64-7.1,18,.3,36,1.81,53.81,3.33,32.34,2.72,64.54,6.5,96.88,8.92,47.76,3.63,95.67,6.8,143.43,9.67,36.12,2.27,72.24,3.48,108.37,5.74,10,.6,19.65,4.08,29.47,4.53,20.55,1.06,41.11.45,61.66,1.36,29.93,1.36,59.85,3.63,89.62,5,39.14,1.66,78.44,2.87,117.59,4.23,16.78.6,33.7,1.81,50.48,2,21.16.15,42.32-.6,63.48-.45,18.14,0,36.12.6,54.26,1.36,38.24,1.51,75.72-7.41,113.81-8.77,51.08-1.81,102.32-1.21,153.41-1.51,15-.15,29.93,0,44.89.76,16.78.76,33.4,2.42,50.18,3.17,29.93,1.21,59.85,3.33,89.78,2.87,90.83-1.21,180.76,8.61,270.54,20.1,24.64,3.17,49.72,2.72,74.51,5.14,46.55,4.69,92.8,10.58,139.65,13.45,52.9,3.17,105.34,10.88,158.24,15.26,34.76,2.87,69.83,2.42,104.59,4.53,32.95,2,65.9,5.74,98.84,8.16,22.22,1.66,44.59,2.57,67,3.17a35.44,35.44,0,0,0,16.32-3.17c25.69-12.24,52.9-13.15,80.56-12.24,54.26,1.66,108.52,3.63,162.78,4.69,35.52.76,71.19,0,106.7.6,12.39.15,24.94,2,37.18,3.63,33.4,4.38,66.65,9.52,100.05,13.75,25.24,3.17,51.08,3.63,74.36,16.17,4.23,2.27,9.67,2,14.51,3.48,7.71,2.42,15.72,4.53,22.82,8.16,10.43,5.29,14.06,13.45,11.49,24.94-3,13.15-9.37,24.48-21,32-9.37,6-15.87,14.66-23.12,23-13.45,15.57-30.38,30.38-48.82,38.84-34.76,16.17-72.09,27.05-107.76,41.56-28.72,11.64-56.53,25.54-85.24,37.63-7.1,3-15.72,4.23-23.58,4.08-11.79-.45-23.43-3.33-35.22-4.38-22.37-1.81-44.74-3.17-67.26-4.38-47.91-2.42-95.82-5.89-143.73-6.65-36.73-.6-73.6,2.27-110.33,3.48-15.57.45-31.29.3-46.85.76-11.18.3-22.37,1.21-33.55,2-3.78.3-7.56,1.06-11.18,1.06-41.11-.91-82.22-2.42-123.33-2.57a525.4,525.4,0,0,0-61.66,3.63c-28.87,3.33-57.28.45-86-1.21-6.8-.45-14.21-2.57-20.4-.6-26.9,8.16-53.35.91-80-.15-9.37-.45-18.89-2.57-28-1.51-48.36,5.89-95.52-6.2-143.28-8.92-52.9-3-105.95-5.44-158.54-12.24-54.41-7-109.88-4.08-163.53-18-7.71-2-16.17-1.36-24.18-2-34.76-2.57-69.67-4.69-104.44-8-26-2.57-51.84-7-77.69-10.28-13.6-1.81-27.36-4.53-41-4.08-44.13,1.51-86.75-10.43-130.28-12.85-32.34-1.81-64.84-4.38-97.18-6.2-39.6-2.12-79.5-2.72-118.95-5.89-27.2-2.27-54.11-9.52-81.46-11.79-32.19-2.72-64.69-2.12-97-3.78-18-.91-35.82-3.93-53.81-5.14-9.22-.6-19.5-1.66-28,1.21-28,9.67-55.62,2.57-83.43,1.06-15.42-.76-31,1.06-46.55,1.06-15,0-29.93-.76-44.74-1.36-11.79-.45-23.88-2-35.52-.91-40.35,3.63-79.5-6.65-119.4-8.16-31.74-1.21-63.48-1.21-95.22-1.81-5.59-.15-11.18-.91-16.78-1.21-28.57-1.66-57.28-3.17-85.85-5.14-24.94-1.66-49.72-3.63-74.66-5.29-25.54-1.81-50.93-3.78-76.48-5-36.12-1.66-72.24-3.17-108.21-3.78-19.8-.3-39.75,1.36-59.7,1.81-4.84-.6-10-2.12-17.83-3.33"/></g><g class="cls-2"><path class="cls-5" d="M-296.19,1472.07c-9.22-8.46-34.76-15.87-47.91-13.6,11.49,18.14,28.57,23,47.91,13.6m487.87,4.38c-5.89,0-11.79-.15-17.53,0-25.39,1.06-50.78,2.87-76.32,3.32-27.2.3-54.41,2.42-81.61-.45-11-1.21-22.37.91-33.55.76-30.53-.45-60.91-1.66-91.44-2.12-5.44-.15-11.18,1.21-16.47,2.87-9.22,3-18,3.63-27.2-.45-8.31-3.63-16.63-3.48-23.88,4.08,4.08,7.86,10.88,6.5,16.78,6.8,24.94,1.21,49.88,2.27,74.66,3.32,3.17.15,6.2,0,9.37,0,25.39-1.06,50.78-2.42,76.17-3,8-.15,16,1.51,24.18,2,8.61.3,17.38.3,26,0,10-.3,19.8-1.36,29.77-2,15-.91,29.77-2,44.74-2.42,15.42-.6,30.83-4.69,46.4.45,8.16,2.72,15.42-1.06,20-13.15m44.74,5.89c9.67.91,18.74,2.27,27.81,2.27A1539.83,1539.83,0,0,0,427,1477.36c30.68-3.17,61.06-.45,91.44,3.32,19,2.42,38.54,2.42,57.89,3,39.3,1.21,78.44,2.72,117.59,7.86,43.68,5.74,88.26,7.41,132.4,6.5,40.2-.76,79.5,3.32,119.1,7.56,29.77,3.17,59.55,5.89,89.32,8.92,23.58,2.27,47.16,4.53,70.73,7.1,40.2,4.38,80.41,9.22,120.76,13.6,25.39,2.87,51.08,4.23,76.32,8.61,48.82,8.46,98.24,7,147.36,10.58,36.58,2.57,73.45,2.57,110.18,1.66,47.31-1.36,94.61-5.29,142.07-7.1,15.42-.6,31,2.42,46.55,2.87,27.51.76,55,.91,82.37,1.21,4.38,0,8.77-.45,13.15,0,42,4.23,83.58-1.06,125.14-4.38,18-1.36,36.27-3,54.26-1.81,29.62,2.12,58.34-2.12,87.51-5.59,50.78-6,101.56-12.39,153-11.34,28,.6,55.92-2.57,84-4.38,22.37-1.36,44.89-2,67-4.84,22.22-2.72,44-10,66.2-11,26.6-1.21,51.24-8.92,76.63-14.66a144.33,144.33,0,0,1,27.81-3.48c22.22-.6,37.63-11.49,48.82-29.77,4.53-7.41,8.31-15.42,13.6-22.37,4.38-5.89,9.82-11.94,16-15.26,27.51-14.66,51.84-35.06,81.92-44.89,11.79-3.93,23.43-8.46,35.22-12.09,9.52-3,15.27-8.61,20.25-17.53,9.22-16.63,23.58-29,42.92-32.8,6.2-1.21,13.9,0,19.8,2.57,39,17.53,74.06,41.71,106.7,68.77,15,12.39,24.79,31,36.58,47,3.63,5,5.59,11,8.61,16.47,6.8,12.24,7.41,24.79,3,37.94-6.5,18.89-12.7,37.94-19.19,56.83-8.46,24.48-27.2,39.45-47.91,53-19.65,12.85-42.62,13.45-63.93,19.35-33.55,9.22-68,15.57-101.72,24.33-13.75,3.63-26.6,10.28-40.05,15.42-5.29,2-10.73,4.38-16.17,4.38-20.1.3-39.45,4.53-58.79,9.52-47.31,12.24-95.67,8-143.58,7-40.51-.91-80.86-5.74-121.36-6.8-22.37-.6-44.74,3.17-67.11,4.38-21.76,1.21-43.68,1.21-65.44,3-45.34,3.63-90.53,9.07-136,11.79-34.31,2.12-68.62,1.81-103.08,1.51-29.77-.3-59.4-3.93-89.47-3-29.32.91-58.64-2.57-88-3-37.48-.6-75-2.12-112.3.45-64.84,4.38-129.68,4.38-194.51,7-36.73,1.51-73.45,4.53-110.18,7.25-37.18,2.72-74.66,4.08-111.54,9.37a502,502,0,0,1-87.66,5.14c-52.29-1.66-104.59-3.78-156.88-5.89-33.1-1.21-66-2.87-99.15-3.48-18.74-.3-37.33,1.66-56.07,1.51-14.81-.15-29.62-2.27-44.43-3.32-39.9-3-79.65-5.89-119.55-8.92-2.57-.15-5-.91-7.41-1.06-37.94-2.87-75.72-5.59-113.66-8.61-6.2-.45-12.24-2-18.29-3.17-4.23-.91-8.46-2.87-12.7-3.32-44.13-3.48-88.11-7-132.25-9.67-46.1-2.87-92.19-5-138.29-7.25-6.8-.3-13.75.15-20.55-.3-11.79-.76-23.43-2-35.22-3-9.37-.91-18.59-2-28-2.72-73.45-5.74-147.06-8.77-220.06-19.8-44.28-6.65-89.17-9.82-133.91-13.45-33.55-2.72-67.26-3.17-101-5.29-62.27-4.08-124.39-8.31-186.5-13.45-17.38-1.36-34.31-6.2-51.54-9.22-34.91-6.2-69.67-13.3-105.49-14.36-43.83-1.21-86.3-11.64-127.26-26.45-18.59-6.65-36.27-16.78-53.2-27.05-34.61-21-69.67-41.71-94.76-74.81-12.39-16.32-25.09-32.65-29.32-53.81-3.33-16.63-1.36-27.51,13.15-35.37,24.33-13.3,47.16-30.53,77.38-30.23,12.24.15,24.48-4.38,36.73-6.65,9.37-1.81,16.47,1.06,23.58,8,7.86,7.86,17.53,13.9,26.3,20.86,9.67,7.71,19,15.72,28.87,23.43a75.36,75.36,0,0,0,14.06,8.77c13.15,5.74,26.45,10.88,39.6,16.32,2.87,1.21,5.59,3.17,8.46,3.78,24.48,5,48.82,9.67,73.45,14.36,7.41,1.36,15.57.6,22.07,3.78,19,9.37,38.54,7.25,58.64,6.65,36.88-1.06,73.76,0,110.63-.45,24.33-.3,48.67-2,73-3,3.17-.15,6.35-.6,9.37,0,31.13,6.2,62.12,4.23,93.25,0a54.53,54.53,0,0,1,13.15-.3c43.53,4.38,87.06-.91,130.58-.45,46.7.45,93.4.76,139.8,4.53,31.44,2.57,62.57,10.88,93.71,17.08,5.74,1.21,10.88,5,15.57,7.1-.6,14.81-21.61,6.5-20.71,24.64"/></g><g class="cls-2"><path class="cls-4" d="M2695.28,1227.38c3-44.74,4.69-89.78,9.37-134.36,3.32-31.44-.3-62.12-2.87-93.25-1.36-16.17-2-32.49-1.81-48.67.3-39.9-2.72-79.8,2.42-119.7,1.06-7.86-.6-16.17-.45-24.18.3-16.78,1.21-33.55,1.21-50.18,0-11.18-2-22.52-1.66-33.55,1.36-45.34-12.85-88.72-17.38-133.3-.91-8.92-7-17.23-9.37-26.3-1.51-5.44-2.87-12.7-.6-17.23,5.89-11.79,14.81-21.46,27.51-26.9,50.93-21.92,101.56-44.59,152.65-65.75a103.37,103.37,0,0,0,43.83-33.55c6-7.71,14.36-13.9,22.67-19.19,12.54-8.16,23.73-4.84,27.51,10,7.56,28.87,14.36,58.19,18.44,87.81,3.48,25.09,2.87,50.78,3.63,76.32,1.51,44.13.3,88.57,4.69,132.4a643.75,643.75,0,0,1,2,96.58c-1.36,26.6,4.38,53.35,6,80.1.91,13.6-.3,27.2-.76,41-.15,3.78-1.51,7.41-1.21,11.18,3.78,48.06.15,95.82-2.87,143.73-.76,13,.45,26.15,2.12,39.14,2,15.57-1.51,28-13.9,38.24-13.3,11.18-25.54,23.58-38.39,35.06-11,9.82-21.61,21-34.16,28.57-19.5,11.79-38.39,25.84-61.66,29.77-10.43,1.66-18.14,4.84-23.58,15.26-6.8,12.54-17.08,22.52-30.08,29.93-19,10.58-37,22.82-55.77,34a31.75,31.75,0,0,1-12.09,4.53c-11.18,1.66-17.08-2.27-17.83-13.6-.91-11.79-.15-23.73.45-35.52,1.06-19.19,2.57-38.54,3.93-57.73a2.71,2.71,0,0,0-2-.6"/></g><g class="cls-2"><path class="cls-6" d="M2833.73,348.06c14.66-8.31,15.27-8.16,24.18,6.5-11.64,3.78-11.64,3.78-24.18-6.5"/></g><g class="cls-2"><path class="cls-6" d="M191.68,1476.45c-4.53,12.09-11.79,15.87-20.25,13.15-15.57-5.14-31-1.06-46.4-.45-15,.6-29.77,1.51-44.74,2.42-10,.6-19.8,1.66-29.77,2.12-8.61.3-17.38.3-26,0-8-.3-16.17-2.12-24.18-2-25.39.6-50.78,2-76.17,3-3.17.15-6.2.15-9.37,0-24.94-1.06-49.88-2.12-74.66-3.48-5.89-.3-12.7,1.21-16.78-6.8,7.25-7.56,15.57-7.86,23.88-4.08,9.22,4.08,18,3.32,27.36.45a56.56,56.56,0,0,1,16.47-3c30.53.45,60.91,1.66,91.44,2.12,11.18.15,22.52-2,33.55-.76,27.2,2.87,54.41.76,81.61.45,25.39-.3,50.93-2.12,76.32-3.32,5.89,0,11.79.15,17.68.15"/></g><g class="cls-2"><path class="cls-7" d="M155,491.18c-13.3,11.34-15.57,11.34-31.13,1.51,10.43-8.61,20.86-2.57,31.13-1.51"/></g><g class="cls-2"><path class="cls-4" d="M3033.38,491.79c.15-1.21.3-2.42.6-3.78.45,2.27.91,3,.91,1.36-.6,12.39-10.73,70.43-1.51,2.42m-386.61,177c.6,1.06,1.21,2.12,1.81,3,2,7.41,5.59,17.83,7.1,22.67.45,14.66.76,29,0,43.68-2.72,8.31-3.17,20.1-5,28-.15.91-.6,1.81-.76,2.72-.6-8.46-1.06-16.93-1.66-25.39-2-27.81-2.27-55.92-6.35-83.43,1.81,3,3.33,5.89,4.84,8.77m436-103.83c-10.28-37.48-26.15-74.36-44.74-109,.45-4.69.91-9.37,1.06-14.06,6.8-157-128.62-262.07-272.5-272.5-41-3-82.22,5.59-122.27,12.39l-13.75,2.27h-.45c-2.87.45-5.89.91-8.77,1.51A54.75,54.75,0,0,1,2606,186c-11.49,1.51-23,3.48-33.85,4.23-72.7,5.89-145.7,6.5-218.55,4.08-295.47-10.28-589.29-61.21-883.7-85.85Q1022.79,71.1,573.76,65.58C430,63.92,281,55.15,138,72.83,35.1,85.53-48.17,114.25-143.24,155.66-208.83,184.22-274.13,214-339.57,243c-26.75,11.94-53.5,23.12-79.35,35.52-25.39-2.72-50.78-.6-73.76,8.61-93.4,37.94-171.84,92.65-218.85,185.3-41.87,82.67-58.19,172.75-54.26,265.1,3,70.13,11.64,138.9,7.41,209.18-.45,8.46-4.53,42.92-3.78,42-1.36,8-2.72,15.87-3.48,19.35a936.32,936.32,0,0,1-26.3,103.08c-36.58,115-37.63,230.33,54.11,321.92,86.3,86,208.27,70.13,318.45,68.92q222.85-2.27,445.56,4.38,449.56,13.38,896.7,63.33c147.21,16.32,294.87,33.85,443.29,26.45,145.24-7.25,288.52-33.85,433.16-46.85,72.09-6.5,144.49-9.37,216.73-5.14,71.49,4.23,143.13,15.11,214.92,8.16,165.5-16,315.58-88.42,457.8-171.39,132.85-77.38,252.85-183.78,324.19-322.08,77.08-149.17,114.87-328.57,69.83-493.92"/></g><g class="cls-2"><path class="cls-6" d="M-429,387.65c-54.41-1.21-113.2-3.78-162.78,21.31-23.88,12.09-50.78,25.24-68.77,45.49-19.35,21.76-26.15,52.44-33.7,79.65-17.53,63.18-30.83,117.89-23.28,184.54,8.16,70.88,10.88,141.77,17.38,212.8a1544.09,1544.09,0,0,1,3.48,226c-1.66,29.17-15.42,56.68-18.14,86.3-2.42,25.69-1.81,49.72,11.79,72.4,27.2,45.49,75.27,75,126.65,83.58,32.34,5.44,67.41,5.14,100.05,3.48,37.48-2,71.64-14.66,109.42-14.21,76.78.91,154.46-3.93,231.24.6,77.23,4.53,154.16,11.18,230.79,21.16C168.41,1420.38,242,1421,315.62,1426c72.09,4.84,137.23,44.59,208.87,55.17,145.09,21.16,290,4.84,435.28-.3,27.51-1.06,49.27,7.86,75.57,11,37,4.53,76.93-1.06,114.41.3,84.49,3,167.91,13.75,252.7,14.06,76.48.15,151.74-3.63,227.92-7.25,73-3.48,146.45,1.36,219.3,4.38,82.07,3.32,164.14,3.63,246.36,7,32.19,1.36,64.38,1.21,96.12-5,16.63-3.32,32.8-8.61,49.72-11.34,24.79-3.93,34.16-1.66,56.07,6.65,56.83,21.76,129.07,16.78,187.56,4.08,61.82-13.45,113.81-39.14,153-90.38,16.32-21.31,31.59-46.1,41.56-71,13-32.19,9.22-66.35,17.53-99.45,16.93-67.41,23-140.71,25.69-210.08,1.51-37.48.15-75.27.15-112.75,0-36.42,6.2-74.51,3.78-110.63-2-29.47-2.87-62.12-7.71-91-4.53-27.36-15.27-54.71-22.37-81.46-7-26.15-5-52.75-17.08-77.69-11-22.52-28-31.13-50.78-41-62-26.75-140.1-15.72-205.25-8.77-35.52,3.78-70.13,12.09-105.95,13.15-40.66,1.21-81.31-.3-122,0-79.65.76-159.15-4.08-238.95-4.08-154.16,0-307.87-3.78-462-3.63-80.1.15-166.71,8.77-245-12.85-30.68-8.46-59.25-18.74-91.29-22.07-39-4.08-78.44-6.35-117.59-9.52-73.76-6-148.12-14.81-221-26.6-69.67-11.18-138.74-17.68-208.87-25.69-72.24-8.31-145.7-4.69-218.24-9.07-74.06-4.38-148.42-.91-222.63-3.93-36.42-1.51-72.24-7.25-108.67-7.56-42.32-.45-84.64,1.21-127.11,1.36-70.43.15-139.65-26.3-208.72-41-23.58-5-46.7-10-70.58-5-28.57,6-52.14,25.54-79.65,30.83-11.34,2.12-6.5,19.5,4.84,17.38,25.39-4.84,43.83-21.46,68.77-27.81,36.73-9.52,72.24,2.27,108.37,10,30.38,6.5,60.91,12.39,90.38,22.52,29.77,10.13,55,11.34,86.75,11.18,73-.15,144.34-1.06,217,5,71.64,5.89,144.19-3,215.67,2.57,137.38,10.88,275.83,7.25,412,31.59,61.06,10.88,122.12,16.17,183.63,24.18C1035.79,491,1110.9,490,1182.69,503c29.62,5.29,57,17.83,86.75,23,33.4,5.74,67.56,8,101.41,8.77,71.34,1.66,143-.3,214.31-.45,143.88-.45,287.62,4.69,431.65,3.63,76.17-.6,152,3.33,228.37,3.63,33.25.15,66.5,1.81,99.6-1.21,37.94-3.33,74.81-11.34,112.9-13.9,62.87-4.23,187-24.33,211.74,55.92,7.41,23.88,7.71,50.78,15,75.57,9.52,32.65,17.23,63.48,19.19,97.48,1.66,28.11,7.41,56.37,5.14,84.49-2.87,36.27-2.87,72.09-3,108.52-.15,69.52-4.84,137.23-11.18,206.45-3,34-10.58,66.2-18.29,99.3-8.46,36.42-4.69,68.47-23.12,103.38-36.42,69.37-89.93,111.09-166.25,128.77-35.37,8.16-71.19,10-107.31,9.52-18.29-.15-37.63-.3-55.32-5-14.06-3.78-26.15-13.9-40.05-16.78-22.07-4.69-50.18,3.32-71.49,8.31a431.67,431.67,0,0,1-116.53,10.43c-75.12-3.17-150.38-1.36-225.35-5.74q-103.83-6.12-207.81-6.2c-71.79,0-143.43,7.86-215.37,8-76.17,0-152.2-.45-228.07-8.31-34.91-3.63-69.67-6-104.89-6.35-16.32-.15-32.8-.3-49.12,0-19.8.3-35.82-5.29-54.56-9.07-21.76-4.53-45.95-2.27-68-.6-36.88,2.72-73.76,1.81-110.63,5.89-67.41,7.56-136.48,5.44-204.19,2.72-71.34-2.87-139.5-11.94-206.3-37.33-26.9-10.28-55-20.1-83.58-24.33-32.49-4.69-65.14-2.12-97.79-4.84-70.13-5.89-139.8-13.75-209.78-20.86-69.83-7.1-140.41-14.06-210.54-13.9-72.24.15-148.27-7-220.06.15-29.93,3-57.43,13.75-88.11,14.51-39.75.91-81.31,1.51-118.95-12.54-28.41-10.73-50.78-28.57-70.28-51.69-26.6-31.44-22.67-69.67-15-107.61,3-14.81,10-28.87,12.39-43.83,2.12-13.3.15-27.81,0-41.11-.45-36.12-.45-72.55.15-108.82,1.36-67.56-8.31-133.91-11.18-201.32-2.72-63.48-16-127-9.82-190.89,3.17-33.25,16.17-63.33,24.64-95.22,12.09-45.49,29.62-73,71.34-96.27,55-30.83,113.5-32,175.32-30.83,11.94-.45,11.94-18.44.3-18.74"/></g><g class="cls-2"><path class="cls-6" d="M-536.35,394.46c18.29-6.35,31.29-18.44,44.74-32,21.61-21.76,54.71-29.93,83-40.81,57.89-22.37,119.1-31.89,172.3-65.14,53.5-33.25,106.85-73.6,169.88-86,53.81-10.58,107.31-38.84,163.53-31.74,25.24,3.17,50.48,14.21,76.63,17.53,31.13,3.93,63.33.3,94.61,2.87,74.06,5.89,148.27,6,222.32,11.64,136,10.13,272.5,13.15,409,13.6,286,.91,574.63-13.45,859.82,11.34,70.73,6.2,145.55,5.74,214.31,24.48,29.62,8,58,19.19,88.42,24.64,31.89,5.59,64.84,0,96.12,7.41,55.32,13.15,109.73-5.74,165.19-8.77,71.94-3.93,144.49-1.66,216.58-2,75.12-.15,147.81,14.36,222.17,20.55,37.48,3.17,75.87,2.87,112.9,8.61,16.93,2.72,40.51,6.2,55.17,15.87,9.67,6.35,26.45,27.36,23.12,41.26-1.21,5.44-17.53,16-21.61,19-22.67,17.23-49.57,27.81-70.43,47.31-22.67,21.31-49,44.13-76.32,59.25-30.53,16.93-65,24.33-96,40.05-21.61,10.88-51.54,21-67.86,39.45-2.42,2.87-3.78,7.56-1.36,10.88.91,1.21,1.66,2.42,2.57,3.63,6.65,9.37,22.22.3,15.57-9.07,3,4.38,73.91-35.67,78.89-37.63,27.66-11.18,56.37-19.65,82.22-34.91,20.86-12.39,41.11-28.26,59.55-43.68,24.48-20.4,48.52-36.42,74.81-54.41,30.23-20.55,58.79-46.85,28.26-81.31-34.61-39.3-105.34-35.06-152.35-39.45-66.5-6.2-132.55-14.21-199-20.86-76.63-7.71-155.07-2.87-232-3-32.19,0-66-.15-97.94,4.23-34.76,4.84-68.92,16.32-104.59,10-11.79-2.12-22.07-6.35-34.16-7.41-17.53-1.51-35.06,1.21-52.75-.15-38.39-3-73.45-17.23-110.18-27.36-64.08-17.68-132.85-17.53-198.75-23.28-73.15-6.5-146.45-9.37-219.75-11-153.86-3.48-307.41-3.17-461.42-2.42q-113.81.68-227.46.3c-74.51-.45-149.32-5.74-223.68-5-71.19.76-141.31-9.67-212.35-10.73-78-1.06-155.22-10.13-233.21-11.18-36.12-.6-65.9-13.6-100.51-18.74-22.82-3.33-53.65,1.36-76.32,3.93C13.64,125.58,4,130.42-6.46,135.1c-19.19,8.77-37.63,12.85-58.34,16.63-33.55,6-61.82,20.1-92.65,33.85-33.4,14.81-61.82,39.6-92.95,58.49-36.12,21.92-75.87,32-116.07,43.38-33.4,9.37-65.14,24.33-97.48,36.42-12.39,4.69-20,6.35-29.93,14.81-15.87,13.45-26,30.83-47,38.09-11,3.93-6.5,21.46,4.53,17.68"/></g><g class="cls-2"><path class="cls-6" d="M2959,329.92c-22.07,36.12-3.93,88.57,8.92,124.84,9.82,27.36,24.79,52.44,30.08,81.31,5.89,31.59,2.72,64.08,4.84,96.12,7.56,115.17-1.36,230.33-4.38,345.65-1.51,57.58-8.61,112.3-26,167-10.88,34.31-24,46.7-53,66.8-22.07,15.26-43.07,32.49-65.75,47.16-77.84,50.48-161.11,91.29-235,146.3-9.22,6.8-.15,22.52,9.07,15.57,73.45-54.71,156.88-96.27,234.87-146.3,17.83-11.34,35.06-24.48,52.44-36.42,17.08-11.79,38.39-23.28,52.44-39,33.1-36.88,36.42-100.2,43.68-146.3,9.52-59.55,6.2-121.82,8.61-182.12,2.42-59.55,3.63-118.95,4.23-178.65.3-28.11-3.63-55.92-4.38-84-.6-25.54.3-51.24-4.38-76.48-5.44-29-20.1-54-30.08-81.31-11.18-30.68-29.77-79.65-10.73-110.94,6-10-9.52-19-15.42-9.22"/></g><g class="cls-2"><path class="cls-6" d="M-710.46,976.19c-62.12.6-123.78-3.63-185.9-3.63-26.75,0-58.49-4.84-84.79.15-25.24,4.84-50,20.25-74.66,27.81-25.54,7.86-46.1,18.44-69.83,29.47-24.79,11.49-46.4,16.93-69.07,34.31-10.28,7.86-20,17.53-31.13,24.18-14.81,8.77-30.53,9.52-46.25,14.81-26.45,9.07-52.44,22.67-77.84,34.46-27.66,12.85-51.08,31.59-76.93,47.31-28.41,17.38-56.07,33.7-84,52.14-39.14,26-82.67,48.21-96.73,96.88-12.85,44.28-15.26,108.52,2.57,151.74,20.55,49.88,72.4,68.77,114.86,95.37,106.7,66.65,214.62,112.9,341.42,123.48,72.4,6,136.48,22.67,202.53,54,57,26.9,114.56,42,176.83,52.29,68.16,11.18,137.69,14.06,205.4,26.45,64.84,11.79,127,39.75,191.79,49.42,65.75,9.82,133,13.15,199.35,16.47,70.88,3.63,139.5,18.59,209.48,30.38,63.33,10.58,128,16.47,192.1,20.25,67.71,3.93,135.27,14.51,202.68,22.07,33.7,3.78,65.14,14.81,98.54,20,29.93,4.53,60.3,3.17,90.53,3.93,70.43,2.12,139,18.29,209.48,17.68,71.64-.6,141.31,9.22,212.5,13.6,31.29,2,73.3-7.56,98.39,11.49,19.65,15,40.66,20.55,64.84,25.69,124.39,26.9,259.5,15.11,386,15.11,73.3,0,146.76,1.66,220.06-.45,67.56-2,134.06-13.9,201.47-15,70.88-1.06,141.62.15,212.5-2,33.85-.91,67.56.15,101.41-.6,33.1-.76,65.14-8.61,98.24-8.61,138.14,0,276.58-2.12,414.57-11.18,58.79-3.78,118.49,1.36,172.45-26.45,55.92-28.72,111.39-60,164.74-92.95,54-33.4,108.82-68.92,159.75-106.7,20.86-15.42,43.53-28,64.23-43.53,24.48-18.29,43.53-40.51,65.59-61.06,42.47-39.6,79.2-82.22,107.61-133.61,11.79-21.46,26.6-44,36.27-66.35,9.52-21.76,10.58-49.42,13.9-72.85,5.74-41.11,12.39-86.45-9.67-124.39-28.26-48.36-85.39-67.41-130.28-95.07-101.41-62.57-211.9-108.06-333.11-103.68-53.65,2-105.95-11.18-158.09,3.48-11.18,3.17-6.35,20.55,4.84,17.38,52.14-14.66,110-2.12,164.14-3.17,61.06-1.21,118.64,11.64,175.92,32.34,31.44,11.34,62.72,23.43,91.44,40.51,25.84,15.26,50.18,32.95,76.93,46.55,57.43,29.47,108.06,64.08,105.65,135.57-.76,24.79-6.2,50.33-10,74.66-4.69,30.83-15,49.12-28.56,75.72-25.54,50.18-56.83,104.44-99.3,142.07-18.74,16.63-35.22,35.22-53.5,52.14-24,22.37-52.29,38.39-79,57.13-47,32.95-94.61,64.84-142.52,96.73a1498.66,1498.66,0,0,1-149,87.21c-28.26,14.36-54,32.65-85.09,40.81-34.31,9.07-70.43,5.89-105.34,8-128.62,7.71-258,14.21-386.91,13.6-57.73-.3-114.26,8-171.69,7.56-67.56-.6-135.12,3.93-202.83,3.32-128.32-1.21-254.82,15.57-383.29,15.11q-96.12-.45-192.4-.3c-64.38,0-129.83,3.63-194.06-2-55.17-4.84-136.18,2-178.95-38.39-11.94-11.18-12.85-10.73-29.77-10.88-35.52-.45-70.43-.15-105.8-3.32-64.23-5.74-126.65-11.64-191.19-11.34-65.75.3-130.28-15.11-196.18-17.53-27.51-1.06-55.32.45-82.82-2.42-31.74-3.32-62-14.66-93.55-19.35-60-8.77-121.82-16.78-182.27-22.07-62-5.44-124.39-7.86-186.2-15.11-63.33-7.41-124.69-24.18-187.56-33.85-60.91-9.37-124.69-6-186.2-11.79-32.19-3-66.65-4.08-97.94-12.54-29.77-8-59.4-17.23-89.17-25.39-122.12-33.4-250-31-372.4-63.63-58.19-15.57-110-46.85-167-65.75-56.53-18.74-111.39-21.16-169.88-28.11-122.72-14.51-237-73.91-338.25-141.77-27.66-18.59-55.17-36.58-65.59-70.13-9.37-30.23-6.5-65.59-3.78-96.88,6-71.64,58.34-94.46,110.63-133.15,24.33-18,51.69-29.62,76.93-46.1,28.87-18.89,55.77-36.42,87.66-49.88,24.94-10.58,47.61-20.1,73.6-26.9,20.25-5.29,35.67-17.68,51.84-30.38,24.33-19.19,46.55-26.9,74.21-38.69,25.39-10.88,48.21-24.33,75.57-32.34,21.92-6.5,42.92-18.59,65.14-23.28,32-6.8,68.62-2.12,101.41-2.12,56.22,0,111.54,4.23,167.76,3.63,12.09,0,12.09-18,.6-17.83"/></g><g class="cls-2"><path class="cls-6" d="M-721.49,1301.43c-28.11,1.21-58.64,12.54-84.18,23.43-19.5,8.31-45.19,23-57.58,40.81-30.53,44-1.21,132.4,29.93,169.27,16.93,20.1,45.19,22.67,69.07,31,34.61,12.24,65.59,29.93,99.9,42.92,34,13,64.08,24.64,98.69,34.76,39.14,11.49,78,19,118.34,24.94,80.41,11.64,164.14,11.79,245.15,10.43,40.81-.76,81.16-7,122-8.31,47.16-1.51,94.46-.3,141.77-.6,89.78-.6,179.55-2.72,269.33,2.12,88.72,4.69,177.59,13.6,266.46,15.26,86.3,1.66,174.72-.15,260.56,8.61,85.09,8.77,163.38,44.28,249.38,47.31,42.32,1.51,84.94.15,127.26,0,37.63,0,75,5.29,112.6,8.16,86.6,6.8,174.41,2.57,261.32,2.57,176.83,0,353.36,3.63,530.19,3.63,88.42,0,176.83-1.21,265.25-3,79.8-1.66,162.47,7,241.37-9.07,80.25-16.32,143.73-64.84,216.13-99.9,36.42-17.53,76.32-29.93,113.5-46.25,27.05-11.94,53-27.2,65.9-54.86,15.57-33.4,13-71.64,11.79-107.31-.91-28.11-16.32-40.81-39-58.19-56.07-43.23-138.59-93.55-211.29-92.8-11.64.15-11.64,18.14,0,18,66.35-.6,141,45.64,193.46,84,15.27,11.18,34.16,23.73,38.84,42.92,3.32,14.06,1.51,34.61,1.06,49.12-1.51,45.19-17.23,78.44-59.25,98.84-55.47,26.9-114,44.59-168.22,74.36-68.31,37.63-130.73,73.45-210.23,80.71-73.15,6.8-148,1.06-221.27,2.87-79.35,2-158.54,2.42-237.89,2.42-155.37,0-310.44-3.63-465.81-3.63-78.44,0-156.73-.45-235.17,0-34.76.3-68.77-2.12-103.38-3.48-31.59-1.36-61.36-7.41-93.1-7.41-79.8.15-160.36,5-238-15.57-70.88-18.89-137.69-34-211.44-35.52-156.28-3-311.8-12.7-467.77-20.55-80.25-4.08-160.66-2.57-240.91-2-78,.6-156-1.81-233.66,5.89-82.07,8.16-170.33,5.59-252.55-2-78.14-7.25-157.33-22.82-229.43-53.81-18.89-8.16-38.69-13.75-57-23.43-13.3-7-25.09-15.72-39.3-20.71-41.71-14.81-85.09-18.29-106.1-62.42-19.35-40.81-39.6-106.25,5.74-136.33,28.41-18.74,73.76-38.39,107.91-39.75,11.34.15,11.34-18-.3-17.53"/></g><g class="cls-2"><path class="cls-8" d="M2557.9,865.85c-4.84-39.14-12.24-75.27-35.37-108.21-26.3-37.48-63.93-55.47-105.65-71-152.5-57-319.66-78.29-481.68-83.13-161.72-4.84-322.08,11-482.73,26.3-156.73,14.81-315.43,24.33-465.2-32.95-44.59-17.08-97,18.89-108.82,61.82-13.75,49.88,16.93,91.74,61.82,108.82,277.19,105.8,585.36,19.19,871.61,12.54,143-3.33,286.56,4.53,426.06,37.78q52.14,12.47,102.93,29.17c11.49,3.78,28,7,38.84,14.21a19.17,19.17,0,0,1,.3,5.29c-1.36,28.87,6.8,60.3,6.2,89.93-.76,38.24-6.2,74.36-15.27,111.39-26.9,110.63,143.58,157.79,170.63,47,19.95-81.46,26.75-165.34,16.32-248.92"/></g><g class="cls-2"><path class="cls-8" d="M704.8,585.95c-86.75,0-86.9,134.82,0,134.82,86.75,0,86.9-134.82,0-134.82"/></g><g class="cls-2"><path class="cls-8" d="M572.4,1223.15c-204.49-36.58-411.1-73.91-619.52-72.7-99.45.6-197.69,13.75-296.53,23.28-26.45,2.57-53,4.84-79.65,6.2-2.12.15-10-.15-17.83-.15,2.12-19.65-2.72-47.91-2.72-64.38-.15-25.24-.15-50.63-.3-75.87-.45-86.75-135.27-86.9-134.82,0,.45,88.72-29.77,242.27,84.18,271.9,49.72,13,108.82,1.36,159-3.63,58.34-5.74,116.53-13.15,175-17.68,234.87-18.44,467,21.76,697.35,63,35.82,6.5,72.7-9.67,83-47.16,8.92-32.49-11-76.32-47.16-82.82"/></g></svg>