<?xml version="1.0" encoding="utf-8"?>
<!-- Generator: Adobe Illustrator 21.1.0, SVG Export Plug-In . SVG Version: 6.00 Build 0)  -->
<svg version="1.1" id="Layer_1" xmlns="http://www.w3.org/2000/svg" xmlns:xlink="http://www.w3.org/1999/xlink" x="0px" y="0px"
	 viewBox="0 0 4312.4 3121.2" style="enable-background:new 0 0 4312.4 3121.2;" xml:space="preserve">
<style type="text/css">
	.st0{clip-path:url(#SVGID_2_);fill:#BBBDBF;}
	.st1{clip-path:url(#SVGID_4_);fill:#BBBDBF;}
	.st2{clip-path:url(#SVGID_6_);fill:#EC1C24;}
	.st3{clip-path:url(#SVGID_8_);fill:#EC1C24;}
	.st4{clip-path:url(#SVGID_10_);fill:#EC1C24;}
	.st5{clip-path:url(#SVGID_12_);fill:#231F20;}
	.st6{clip-path:url(#SVGID_14_);fill:#231F20;}
	.st7{clip-path:url(#SVGID_16_);fill:#EC1C24;}
	.st8{clip-path:url(#SVGID_18_);fill:#EC1C24;}
	.st9{clip-path:url(#SVGID_20_);fill:#231F20;}
	.st10{clip-path:url(#SVGID_22_);fill:#231F20;}
	.st11{clip-path:url(#SVGID_24_);fill:#231F20;}
	.st12{clip-path:url(#SVGID_26_);fill:#231F20;}
	.st13{clip-path:url(#SVGID_28_);fill:#231F20;}
	.st14{clip-path:url(#SVGID_30_);fill:#231F20;}
	.st15{clip-path:url(#SVGID_32_);fill:#231F20;}
	.st16{clip-path:url(#SVGID_34_);fill:#231F20;}
	.st17{clip-path:url(#SVGID_36_);fill:#231F20;}
	.st18{clip-path:url(#SVGID_38_);fill:#231F20;}
	.st19{clip-path:url(#SVGID_40_);fill:#231F20;}
	.st20{clip-path:url(#SVGID_42_);fill:#231F20;}
	.st21{clip-path:url(#SVGID_44_);fill:#231F20;}
	.st22{clip-path:url(#SVGID_46_);fill:#231F20;}
	.st23{clip-path:url(#SVGID_48_);fill:#231F20;}
	.st24{clip-path:url(#SVGID_50_);fill:#231F20;}
	.st25{clip-path:url(#SVGID_52_);fill:#231F20;}
	.st26{clip-path:url(#SVGID_54_);fill:#231F20;}
	.st27{clip-path:url(#SVGID_56_);fill:#231F20;}
	.st28{clip-path:url(#SVGID_58_);fill:#231F20;}
	.st29{fill:#FFFFFF;}
	.st30{fill:#FAAF40;}
	.st31{clip-path:url(#SVGID_60_);fill:#D0D2D3;}
	.st32{clip-path:url(#SVGID_62_);fill:#D0D2D3;}
	.st33{clip-path:url(#SVGID_64_);fill:#D0D2D3;}
	.st34{clip-path:url(#SVGID_66_);fill:#D0D2D3;}
	.st35{clip-path:url(#SVGID_68_);fill:#FFE78F;}
	.st36{clip-path:url(#SVGID_70_);fill:#FFE78F;}
	.st37{clip-path:url(#SVGID_72_);fill:#BBBDBF;}
	.st38{clip-path:url(#SVGID_74_);fill:#FFE78F;}
	.st39{clip-path:url(#SVGID_76_);fill:#231F20;}
	.st40{clip-path:url(#SVGID_78_);fill:#231F20;}
	.st41{clip-path:url(#SVGID_80_);fill:#231F20;}
	.st42{clip-path:url(#SVGID_82_);fill:#FFFFFF;}
	.st43{clip-path:url(#SVGID_84_);fill:#FFE78F;}
	.st44{clip-path:url(#SVGID_86_);fill:#231F20;}
	.st45{clip-path:url(#SVGID_88_);fill:#231F20;}
	.st46{clip-path:url(#SVGID_90_);fill:#231F20;}
	.st47{clip-path:url(#SVGID_92_);fill:#231F20;}
	.st48{clip-path:url(#SVGID_94_);fill:#231F20;}
	.st49{clip-path:url(#SVGID_96_);fill:#FFEDBA;}
	.st50{clip-path:url(#SVGID_98_);fill:#FFEDBA;}
	.st51{clip-path:url(#SVGID_100_);fill:#FFEDBA;}
</style>
<g>
	<g>
		<g>
			<g>
				<g>
					<g>
						<g>
							<defs>
								<rect id="SVGID_1_" x="4687.8" y="4431.3" width="2444.5" height="1913.8"/>
							</defs>
							<clipPath id="SVGID_2_">
								<use xlink:href="#SVGID_1_"  style="overflow:visible;"/>
							</clipPath>
							<path class="st0" d="M5268,5629.2c23.6-10.6,50.8-4.5,75.7-4c16.5,0.3,28.9-18.4,27.4-33.5c-1.8-18.1-16.9-27.1-33.5-27.4
								c-31.3-0.6-61.5-5.7-91.2,7.6c-15.1,6.8-24,23.3-17.9,39.4C5234.1,5626.1,5252.8,5636,5268,5629.2"/>
						</g>
					</g>
				</g>
			</g>
		</g>
	</g>
	<g>
		<g>
			<g>
				<g>
					<g>
						<g>
							<defs>
								<rect id="SVGID_3_" x="4687.8" y="4431.3" width="2444.5" height="1913.8"/>
							</defs>
							<clipPath id="SVGID_4_">
								<use xlink:href="#SVGID_3_"  style="overflow:visible;"/>
							</clipPath>
							<path class="st1" d="M5472.7,6079.4c5.2-31,6.4-62.8,4-94.7c6.2-36.6,3.8-74.5-1-115c-1.5-13-2.2-26-3.4-39.1
								c-0.1-0.7-0.1-1.2-0.2-1.8c0.1-0.4,0.1-0.6,0.2-1c0.6-3.9,1.2-7.7,1.8-11.6c0.4,0.6,4.4-11.9,5.3-14.1
								c0.5-1.1,0.8-2.1,1.1-2.9c0.8-0.7,1.8-1.7,3.1-3.1c5.2-5.6,10-11.9,15.1-17.6c0.1-0.1,0.1-0.1,0.2-0.2c2.8-2.5,5.7-5,8.7-7.3
								c58.6-48.3,126-87.4,188.8-130c69.5-47.3,138.8-95.1,207.9-143.2c268-186.5,534.6-375.3,800-565.5
								c146.8-105.2,290.9-217.2,406.8-356.8c24-29,26.3-78.1,2.4-108.1c-25.5-32-64.6-43.4-103.6-31.1
								c-190.6,60-365.5,156.9-524.2,277.6c-161.5,122.8-316.9,253.6-476.3,379.2c-158.3,124.8-319.4,245.8-486.9,358.1
								c-76.5,51.3-152.8,104.3-216.1,171.8c-28-39.1-64.1-69.9-110.6-89.8c-54.8-23.4-117.5-30.3-176.1-19.6
								c-112.3,20.4-233.8,85.1-294.1,185c-60.5,100.2-41.1,216.7,9.2,316.9c55.3,110.3,127.9,210.8,235.9,274.3
								c91.7,53.9,209.5,69,310.1,31.5C5385,6282.1,5454.5,6187.6,5472.7,6079.4"/>
						</g>
					</g>
				</g>
			</g>
		</g>
	</g>
	<g>
		<g>
			<g>
				<g>
					<g>
						<g>
							<defs>
								<rect id="SVGID_5_" x="4687.8" y="4431.3" width="2444.5" height="1913.8"/>
							</defs>
							<clipPath id="SVGID_6_">
								<use xlink:href="#SVGID_5_"  style="overflow:visible;"/>
							</clipPath>
							<path class="st2" d="M5081.3,5994c-33.1-23.1-53-58.1-50.7-92.5c0.6-8.9,2.2-16.8,4.6-23.9c27.2-4.5,42.2-23.7,46.4-45.5
								c8.5-3.5,17.4-6.4,26-9.1c25.2-7.8,40.5-12.8,65-14.1c-4.5,0.2,4.7,2.9,3.1,0.9c7.4,6.5,12.2,20.3,15.8,29
								c15.8,37.6,24.1,80.8,11.7,119.8c-9,28.2-29.3,51.9-53.6,63.2C5123.8,6017.7,5097,6005,5081.3,5994 M5291.4,6093.6
								c33.1-34.2,45.8-88.7,49.7-135c4.9-58.1-3.3-116.1-24-169.6c78.6-20.6,150.7-66.6,215.4-114.5
								c105.4-78.1,208.5-159.3,313.3-238.2c216.1-162.5,434.4-322.3,654.6-479.3c123.9-88.3,248.4-175.7,373.6-262.2
								c64.8-44.8-7.1-143.8-71.9-99c-436.6,301.8-865.7,614.5-1286.6,937.8c-89.2,68.5-183.2,147.1-301.2,144.8
								c-11.6-0.2-21.6,3.4-29.7,9.4c-6.7-0.7-13.6-1.1-20.5-0.9c-38.3,0.8-80.6,13.9-116.3,27.1c-38.6,14.2-76.3,37.4-100.5,71.3
								c-15.5,12.6-28.3,28.6-37.6,47c-20.8,41-17.8,88.3-6.5,131.5c18.9,72,70.4,140.7,139.5,171c42.2,18.6,86.8,20,128.2,8.1
								C5215.8,6141.7,5258.6,6127.4,5291.4,6093.6"/>
						</g>
					</g>
				</g>
			</g>
		</g>
	</g>
	<g>
		<g>
			<g>
				<g>
					<g>
						<g>
							<defs>
								<rect id="SVGID_7_" x="4687.8" y="4431.3" width="2444.5" height="1913.8"/>
							</defs>
							<clipPath id="SVGID_8_">
								<use xlink:href="#SVGID_7_"  style="overflow:visible;"/>
							</clipPath>
							<path class="st3" d="M5323,5957.1c16.6-70.3,40.7-126.2,87.3-181c50.9-60-44.7-136.5-95.7-76.4
								c-59.9,70.6-91.4,148.9-112.5,238.2c-7.6,32.2,19.9,65.1,50.9,70C5287.7,6013.4,5315.4,5989.3,5323,5957.1"/>
						</g>
					</g>
				</g>
			</g>
		</g>
	</g>
	<g>
		<g>
			<g>
				<g>
					<g>
						<g>
							<defs>
								<rect id="SVGID_9_" x="4687.8" y="4431.3" width="2444.5" height="1913.8"/>
							</defs>
							<clipPath id="SVGID_10_">
								<use xlink:href="#SVGID_9_"  style="overflow:visible;"/>
							</clipPath>
							<path class="st4" d="M5156.3,5980.8c46.3,63.7,145.4-8.1,99-71.9C5209.1,5845.2,5110,5917,5156.3,5980.8"/>
						</g>
					</g>
				</g>
			</g>
		</g>
	</g>
	<g>
		<g>
			<g>
				<g>
					<g>
						<g>
							<defs>
								<rect id="SVGID_11_" x="4687.8" y="4431.3" width="2444.5" height="1913.8"/>
							</defs>
							<clipPath id="SVGID_12_">
								<use xlink:href="#SVGID_11_"  style="overflow:visible;"/>
							</clipPath>
							<path class="st5" d="M4743,5722.8c48.2-35.1,86.6-82,136-115.5c43.4-29.4,96.3-44.8,147.5-53.3c49.6-8.2,101-9.7,150.6-0.4
								c41.8,7.9,79.6,29.4,122.5,32.6c83.7,6.2,151-54,214-100.1c99.2-72.6,197.6-146.1,295.1-220.8
								c198.8-152.2,400.5-300.4,602.8-447.7c98.3-71.6,195.1-146.3,295.5-214.9c80-54.7,172.3-97.2,266-123.4
								c44-12.3,89.1-15.8,126.9,15.1c37.4,30.6,18.5,69.8-7.5,100.7c-33.4,39.6-74.7,73.8-113.6,107.9
								c-44.7,39.2-91.1,76.6-139.7,110.9c-99,69.9-206,128-309.6,190.8c-103.7,62.9-200.7,135.5-303.4,199.8
								c-105.2,65.9-205.7,135.7-303.8,211.9c-94.6,73.5-192.2,143.2-286.7,216.8c-72.2,56.3-156.2,121.8-176.2,216.1
								c-18.1,85.3,10.3,168.1,10.8,253.2c0.3,48.2-19.3,89.2-54.9,121.3c-40.9,36.8-89.7,74.7-140.3,96.8
								c-38.9,17-78.1,16.7-118.9,7.4c-46.8-10.7-93.8-24.9-138.2-43.1c-89.8-36.8-159.6-98.2-214.8-177.5
								c-61.1-87.8-84.5-192.6-68.3-298.5c7.8-50.9,24.2-100.7,50.5-145c3.3-5.6-6-9.7-9.3-4.1c-50.9,85.9-67.3,193.3-50,291.2
								c17,96.1,71.5,181.4,140.9,248.8c67.8,65.9,152.4,100.2,241.9,126.1c37,10.7,75.3,22.2,114.3,18.9
								c44.1-3.7,82.7-26.8,118.4-51.2c40.2-27.5,86.4-58.2,113.6-99.7c20.7-31.7,27-68.7,24.7-106c-5.8-92.9-36.7-190.9,3.8-280.5
								c23.6-52.3,71.6-93.7,114.3-130.1c47.5-40.5,98.4-76.5,148.7-113.2c104.5-76.4,204-159.4,308.8-235.3
								c105.9-76.6,220.7-139.6,327.1-215.7c104.2-74.5,216.2-136.5,325.7-202.6c109.1-65.9,210.7-139,305.3-224.5
								c34.1-30.8,72.5-61.8,99-99.8c14.5-20.8,26.3-47.1,15.6-72.2c-12.8-30-51.8-50.1-82.8-53.4c-36.4-3.8-73.9,8-107.8,19.9
								c-43.9,15.5-89.1,32-131,52.2c-51,24.5-98.1,56.2-143.9,89.4c-213.3,154.6-426.2,309.9-637.3,467.3
								c-105.3,78.5-209.3,158.8-314.1,237.9c-51.6,39-103.5,77.5-155.6,115.8c-47,34.6-93.2,72.5-143.4,102.5
								c-37.7,22.5-78.8,36.1-123,29.9c-47.1-6.6-89.1-30-137-35.3c-92.1-10.3-201.5,6.7-279.3,59.4c-49.4,33.5-87.8,80.4-136,115.5
								C4731.7,5718.4,4737.7,5726.7,4743,5722.8"/>
						</g>
					</g>
				</g>
			</g>
		</g>
	</g>
	<g>
		<g>
			<g>
				<g>
					<g>
						<g>
							<defs>
								<rect id="SVGID_13_" x="4687.8" y="4431.3" width="2444.5" height="1913.8"/>
							</defs>
							<clipPath id="SVGID_14_">
								<use xlink:href="#SVGID_13_"  style="overflow:visible;"/>
							</clipPath>
							<path class="st6" d="M5265.8,5670.5c-38.7,17.4-81.5,18.2-121.8,30.1c-39.4,11.7-79.9,30.5-114.1,53.3
								c-55.4,36.9-81.9,103.3-84,168.2c-2.2,66.3,21.5,139.7,71.1,185.7c49.5,45.9,123.5,46.7,186,33
								c62.9-13.9,115.3-46.6,129.4-112.5c7.6-35.6,6.8-72.6,15.4-108c10.7-44.1,36.9-86.2,63.1-122.6
								c109.5-152.3,275.1-261.2,421.2-375.1c154.4-120.5,313.2-235.1,466.9-356.4c76.9-60.7,154-121.4,234.3-177.6
								c78.7-55.1,160.4-100.3,245-145.3c37.5-20,103.4-67.7,68.3-118c-35-50-105.5-1.1-139.1,23.8c-35.8,26.5-68,57.5-101.4,86.9
								c-35.4,31-73.1,59.4-111.2,86.9c-78.5,56.8-160.6,108.1-242.6,159.6c-168.5,105.8-328.8,223.8-488.8,341.7
								c-77.7,57.3-157.4,112.4-231.8,174c-37.4,31-74.3,62.9-113.3,91.8c-37.2,27.6-77,55.9-122.1,68.5
								c-40.2,11.2-81.6,14.3-119.5,33.1c-5.8,2.9-2.3,12.5,3.6,9.5c35.3-17.5,73.8-21.5,111.5-31c37.1-9.4,69.5-28.4,101.1-49.6
								c73.8-49.6,137.7-112.1,208.9-165c144.8-107.6,290-215.2,437.7-318.8c148.4-104.1,306-194.2,453.3-299.8
								c69.2-49.6,130.5-106.4,196.1-160.3c28.9-23.8,66.9-56.6,105.2-61.7c34.9-4.7,60.7,24.8,47.5,58.6
								c-15.2,38.9-63.8,59.3-98.5,76.1c-36.5,17.7-71.8,37.7-106.4,58.9c-74.8,45.7-146.2,97-215.9,150
								c-71.5,54.4-141.4,110.8-212.2,166c-70.9,55.3-144,107.7-215.8,161.8c-141.7,106.8-285.7,213.6-420.4,329.3
								c-60.5,52-119.6,107.6-166.8,172.3c-23.1,31.6-43.5,65.7-58.2,102c-11.8,28.9-15,59.2-18.3,90c-3.8,35.6-7.5,74.3-32.3,102.3
								c-25.4,28.8-65.5,43-102.3,50.2c-75.6,14.8-153.6,3.6-198.2-65.3c-42.2-65.1-53.1-150.1-24.5-222.8
								c30.4-77.3,114.2-120,191.6-137.8c35.7-8.2,72.3-11.1,106-26.2C5275.4,5677.3,5271.8,5667.8,5265.8,5670.5"/>
						</g>
					</g>
				</g>
			</g>
		</g>
	</g>
	<g>
		<g>
			<g>
				<g>
					<g>
						<g>
							<defs>
								<rect id="SVGID_15_" x="4687.8" y="4431.3" width="2444.5" height="1913.8"/>
							</defs>
							<clipPath id="SVGID_16_">
								<use xlink:href="#SVGID_15_"  style="overflow:visible;"/>
							</clipPath>
							<path class="st7" d="M5183.2,5847.5c-71.7-52.7-159.9,93.5-97.7,115.7c21.1,7.6,48-4.6,65.8-15.4
								c25.1-15.3,42.2-43.8,47.7-72.4c11.3-58.7-44-88.7-92.5-61.6c-35.6,19.9-95,89-27.7,110.6c15.5,5,25.9-18.3,10.2-23.4
								c-44.1-14.2,21.3-63.8,42.2-70.9c27-9.2,46.6,9.6,43.2,36.7c-3.2,25.5-19.2,50.3-42,62.2c-7.8,4-32.6,17.5-41,8.5
								c-6.9-7.4,2.6-26.7,6-33.6c11.7-23.6,41.8-57.2,69.7-36.7C5180.5,5877.1,5196.5,5857.2,5183.2,5847.5"/>
						</g>
					</g>
				</g>
			</g>
		</g>
	</g>
	<g>
		<g>
			<g>
				<g>
					<g>
						<g>
							<defs>
								<rect id="SVGID_17_" x="4687.8" y="4431.3" width="2444.5" height="1913.8"/>
							</defs>
							<clipPath id="SVGID_18_">
								<use xlink:href="#SVGID_17_"  style="overflow:visible;"/>
							</clipPath>
							<path class="st8" d="M5130.9,5820.3c-49.8,18.3-111.9,60.8-106.5,120.9c1.5,16.8,17.1,28.5,33.5,27.4
								c71.3-4.9,131.8-60.3,157.8-124.6c8.2-20.2-7.5-46.4-31.1-42.7c-71.4,11-153.6,97.9-143.5,173.4c2.6,19.3,22.3,33,41.2,25.6
								c35.2-13.8,63.7-35.7,89.1-63.5c-15.9-12.7-31.9-25.4-47.8-38.2c-16.2,18.8-28.8,39.9-38.1,62.8c-10.5,26,13.8,47.6,38.8,41
								c8.2-2.2,16.4-3,24.5-6.1c-11.6-15.9-23.1-31.8-34.7-47.7c-25.4,38.6-8.3,70,21.1,99.5c12.7-15.9,25.5-31.9,38.2-47.8
								c-21.5-16.5-42.7-34-61.2-53.8c-10-10.8-20.7-22.9-27.4-36.1c-3.8-7.6-5.9-14.8-3.8-16.6c-15.6-4.7-31.1-9.3-46.6-14
								c16.2,32.8,12.4,73.2,41.4,99.4c25.4,23,59.7,27.3,91.9,19.5c59.7-14.3,120-61.5,137.5-121.6c6.7-23-21.5-40.7-41-33.4
								c-27.9,10.4-50.5,26.4-61.9,54.7c-14.7,36.4,41.3,61.3,56.1,24.6c5.3-13.2,14.6-17.2,27.4-22c-13.7-11.1-27.3-22.3-41-33.4
								c-9.8,33.4-55.6,61.4-86.6,70.6c-15.3,4.5-35,6.3-45.1-9c-12.9-19.5-10.9-49.5-21.5-71c-7.9-16.1-30.3-28.3-46.6-14
								c-77.4,68.1,37.2,163.4,90.2,204c32,24.5,65.4-20.5,38.2-47.8c-3.2-3.2-6.9-6.4-9.1-10.3c-2.8-5.1-1.8-3.9-2.3-3.2
								c15.8-24-4.5-59.3-34.7-47.7c-7.8,3-16.3,3.9-24.4,6.1c12.9,13.6,25.9,27.3,38.8,40.9c7.5-18.6,16.8-34.1,29.9-49.3
								c25.8-30-21.4-67-47.8-38.2c-18,19.6-37.9,34.6-62.8,44.3c13.7,8.5,27.5,17.1,41.2,25.6c-5.5-40.9,49.5-100.4,88.7-106.4
								c-10.4-14.3-20.7-28.5-31.1-42.8c-18.1,44.7-57.7,84.9-107.8,88.3c11.2,9.1,22.3,18.3,33.5,27.4
								c-2.5-27.6,46.1-49.8,67.1-57.5C5189.5,5864,5167.9,5806.7,5130.9,5820.3"/>
						</g>
					</g>
				</g>
			</g>
		</g>
	</g>
	<g>
		<g>
			<g>
				<g>
					<g>
						<g>
							<defs>
								<rect id="SVGID_19_" x="4687.8" y="4431.3" width="2444.5" height="1913.8"/>
							</defs>
							<clipPath id="SVGID_20_">
								<use xlink:href="#SVGID_19_"  style="overflow:visible;"/>
							</clipPath>
							<path class="st9" d="M5458.8,5728.2c7.7,11.8,17,21.9,28,30.7c5.1,4.1,11.5-3.9,6.4-8c-10.3-8.2-18.9-17.7-26.1-28.7
								C5463.4,5716.7,5455.2,5722.7,5458.8,5728.2"/>
						</g>
					</g>
				</g>
			</g>
		</g>
	</g>
	<g>
		<g>
			<g>
				<g>
					<g>
						<g>
							<defs>
								<rect id="SVGID_21_" x="4687.8" y="4431.3" width="2444.5" height="1913.8"/>
							</defs>
							<clipPath id="SVGID_22_">
								<use xlink:href="#SVGID_21_"  style="overflow:visible;"/>
							</clipPath>
							<path class="st10" d="M5511.9,5673.1c6.4,11,14.8,20.1,25.4,27.1c5.4,3.6,11.9-4.3,6.4-8c-9.9-6.6-17.6-14.8-23.5-25.1
								C5516.9,5661.5,5508.7,5667.5,5511.9,5673.1"/>
						</g>
					</g>
				</g>
			</g>
		</g>
	</g>
	<g>
		<g>
			<g>
				<g>
					<g>
						<g>
							<defs>
								<rect id="SVGID_23_" x="4687.8" y="4431.3" width="2444.5" height="1913.8"/>
							</defs>
							<clipPath id="SVGID_24_">
								<use xlink:href="#SVGID_23_"  style="overflow:visible;"/>
							</clipPath>
							<path class="st11" d="M5584.7,5614.8c5.4,8.7,12.5,15.4,21.3,20.6c5.6,3.3,9.7-6,4.1-9.3c-7.2-4.3-12.8-10.2-17.2-17.2
								C5589.5,5603.2,5581.3,5609.2,5584.7,5614.8"/>
						</g>
					</g>
				</g>
			</g>
		</g>
	</g>
	<g>
		<g>
			<g>
				<g>
					<g>
						<g>
							<defs>
								<rect id="SVGID_25_" x="4687.8" y="4431.3" width="2444.5" height="1913.8"/>
							</defs>
							<clipPath id="SVGID_26_">
								<use xlink:href="#SVGID_25_"  style="overflow:visible;"/>
							</clipPath>
							<path class="st12" d="M5641.4,5557.1c7.9,11.5,17.3,21.7,28,30.7c5,4.2,11.4-3.8,6.4-8c-10.1-8.4-18.7-17.9-26.1-28.7
								C5646,5545.7,5637.7,5551.7,5641.4,5557.1"/>
						</g>
					</g>
				</g>
			</g>
		</g>
	</g>
	<g>
		<g>
			<g>
				<g>
					<g>
						<g>
							<defs>
								<rect id="SVGID_27_" x="4687.8" y="4431.3" width="2444.5" height="1913.8"/>
							</defs>
							<clipPath id="SVGID_28_">
								<use xlink:href="#SVGID_27_"  style="overflow:visible;"/>
							</clipPath>
							<path class="st13" d="M5706,5510.2c6.7,10.7,15.1,19.7,25.4,27.1c5.3,3.8,11.7-4.1,6.4-8c-9.6-6.9-17.3-15.1-23.5-25.1
								C5710.8,5498.6,5702.6,5504.7,5706,5510.2"/>
						</g>
					</g>
				</g>
			</g>
		</g>
	</g>
	<g>
		<g>
			<g>
				<g>
					<g>
						<g>
							<defs>
								<rect id="SVGID_29_" x="4687.8" y="4431.3" width="2444.5" height="1913.8"/>
							</defs>
							<clipPath id="SVGID_30_">
								<use xlink:href="#SVGID_29_"  style="overflow:visible;"/>
							</clipPath>
							<path class="st14" d="M5779.4,5467.9c7.4,9.4,16.6,16.7,27.5,21.6c6,2.7,10.1-6.7,4.1-9.3c-9.3-4.1-17.1-10.2-23.3-18.2
								C5783.6,5456.7,5775.3,5462.7,5779.4,5467.9"/>
						</g>
					</g>
				</g>
			</g>
		</g>
	</g>
	<g>
		<g>
			<g>
				<g>
					<g>
						<g>
							<defs>
								<rect id="SVGID_31_" x="4687.8" y="4431.3" width="2444.5" height="1913.8"/>
							</defs>
							<clipPath id="SVGID_32_">
								<use xlink:href="#SVGID_31_"  style="overflow:visible;"/>
							</clipPath>
							<path class="st15" d="M5822.8,5429.2c6.5,13.8,17.1,23.1,32,26.7c6.4,1.6,7.9-8.5,1.6-10.1c-11.2-2.7-19.2-9.9-24.1-20.2
								C5829.5,5419.7,5820,5423.2,5822.8,5429.2"/>
						</g>
					</g>
				</g>
			</g>
		</g>
	</g>
	<g>
		<g>
			<g>
				<g>
					<g>
						<g>
							<defs>
								<rect id="SVGID_33_" x="4687.8" y="4431.3" width="2444.5" height="1913.8"/>
							</defs>
							<clipPath id="SVGID_34_">
								<use xlink:href="#SVGID_33_"  style="overflow:visible;"/>
							</clipPath>
							<path class="st16" d="M5879.2,5378.9c6.1,8.4,12.2,16.7,18.2,25.1c3.9,5.3,12.1-0.7,8.3-6c-6.1-8.4-12.2-16.7-18.2-25.1
								C5883.6,5367.6,5875.3,5373.6,5879.2,5378.9"/>
						</g>
					</g>
				</g>
			</g>
		</g>
	</g>
	<g>
		<g>
			<g>
				<g>
					<g>
						<g>
							<defs>
								<rect id="SVGID_35_" x="4687.8" y="4431.3" width="2444.5" height="1913.8"/>
							</defs>
							<clipPath id="SVGID_36_">
								<use xlink:href="#SVGID_35_"  style="overflow:visible;"/>
							</clipPath>
							<path class="st17" d="M5938.2,5347c5.4,8.7,12.5,15.4,21.3,20.6c5.6,3.3,9.7-6,4.1-9.3c-7.2-4.3-12.8-10.2-17.2-17.2
								C5943,5335.4,5934.8,5341.4,5938.2,5347"/>
						</g>
					</g>
				</g>
			</g>
		</g>
	</g>
	<g>
		<g>
			<g>
				<g>
					<g>
						<g>
							<defs>
								<rect id="SVGID_37_" x="4687.8" y="4431.3" width="2444.5" height="1913.8"/>
							</defs>
							<clipPath id="SVGID_38_">
								<use xlink:href="#SVGID_37_"  style="overflow:visible;"/>
							</clipPath>
							<path class="st18" d="M6003.8,5293.9c6.1,8.4,12.2,16.7,18.2,25.1c3.9,5.3,12.1-0.7,8.3-6c-6.1-8.4-12.2-16.7-18.2-25.1
								C6008.2,5282.5,5999.9,5288.5,6003.8,5293.9"/>
						</g>
					</g>
				</g>
			</g>
		</g>
	</g>
	<g>
		<g>
			<g>
				<g>
					<g>
						<g>
							<defs>
								<rect id="SVGID_39_" x="4687.8" y="4431.3" width="2444.5" height="1913.8"/>
							</defs>
							<clipPath id="SVGID_40_">
								<use xlink:href="#SVGID_39_"  style="overflow:visible;"/>
							</clipPath>
							<path class="st19" d="M6078.2,5245.3c6.2,9.2,13.8,17,22.8,23.5c5.3,3.8,11.7-4.1,6.4-8c-8.3-6-15.2-13-20.9-21.5
								C6082.8,5233.9,6074.5,5239.9,6078.2,5245.3"/>
						</g>
					</g>
				</g>
			</g>
		</g>
	</g>
	<g>
		<g>
			<g>
				<g>
					<g>
						<g>
							<defs>
								<rect id="SVGID_41_" x="4687.8" y="4431.3" width="2444.5" height="1913.8"/>
							</defs>
							<clipPath id="SVGID_42_">
								<use xlink:href="#SVGID_41_"  style="overflow:visible;"/>
							</clipPath>
							<path class="st20" d="M6128.4,5208.8c6.1,11.2,14.6,20.3,25.4,27.1c5.5,3.4,11.9-4.5,6.4-8c-10.1-6.4-17.8-14.6-23.5-25.1
								C6133.5,5197.1,6125.3,5203.1,6128.4,5208.8"/>
						</g>
					</g>
				</g>
			</g>
		</g>
	</g>
	<g>
		<g>
			<g>
				<g>
					<g>
						<g>
							<defs>
								<rect id="SVGID_43_" x="4687.8" y="4431.3" width="2444.5" height="1913.8"/>
							</defs>
							<clipPath id="SVGID_44_">
								<use xlink:href="#SVGID_43_"  style="overflow:visible;"/>
							</clipPath>
							<path class="st21" d="M6180.6,5159.9c6.1,8.4,12.2,16.7,18.2,25.1c3.9,5.3,12.1-0.7,8.3-6c-6.1-8.4-12.2-16.7-18.2-25.1
								C6185,5148.6,6176.7,5154.6,6180.6,5159.9"/>
						</g>
					</g>
				</g>
			</g>
		</g>
	</g>
	<g>
		<g>
			<g>
				<g>
					<g>
						<g>
							<defs>
								<rect id="SVGID_45_" x="4687.8" y="4431.3" width="2444.5" height="1913.8"/>
							</defs>
							<clipPath id="SVGID_46_">
								<use xlink:href="#SVGID_45_"  style="overflow:visible;"/>
							</clipPath>
							<path class="st22" d="M6228.2,5119.9c6.9,9.6,13.9,19.1,20.9,28.7c3.9,5.3,12.1-0.7,8.3-6c-6.9-9.6-13.9-19.1-20.9-28.7
								C6232.6,5108.5,6224.3,5114.5,6228.2,5119.9"/>
						</g>
					</g>
				</g>
			</g>
		</g>
	</g>
	<g>
		<g>
			<g>
				<g>
					<g>
						<g>
							<defs>
								<rect id="SVGID_47_" x="4687.8" y="4431.3" width="2444.5" height="1913.8"/>
							</defs>
							<clipPath id="SVGID_48_">
								<use xlink:href="#SVGID_47_"  style="overflow:visible;"/>
							</clipPath>
							<path class="st23" d="M6274.8,5086c6.7,10.7,15.1,19.7,25.4,27.1c5.3,3.8,11.7-4.1,6.4-8c-9.6-6.9-17.3-15.1-23.5-25.1
								C6279.6,5074.4,6271.4,5080.4,6274.8,5086"/>
						</g>
					</g>
				</g>
			</g>
		</g>
	</g>
	<g>
		<g>
			<g>
				<g>
					<g>
						<g>
							<defs>
								<rect id="SVGID_49_" x="4687.8" y="4431.3" width="2444.5" height="1913.8"/>
							</defs>
							<clipPath id="SVGID_50_">
								<use xlink:href="#SVGID_49_"  style="overflow:visible;"/>
							</clipPath>
							<path class="st24" d="M6317.9,5054.7c7.7,11.8,17,21.9,28,30.7c5.1,4.1,11.5-3.9,6.4-8c-10.3-8.2-18.9-17.7-26.1-28.7
								C6322.5,5043.2,6314.3,5049.2,6317.9,5054.7"/>
						</g>
					</g>
				</g>
			</g>
		</g>
	</g>
	<g>
		<g>
			<g>
				<g>
					<g>
						<g>
							<defs>
								<rect id="SVGID_51_" x="4687.8" y="4431.3" width="2444.5" height="1913.8"/>
							</defs>
							<clipPath id="SVGID_52_">
								<use xlink:href="#SVGID_51_"  style="overflow:visible;"/>
							</clipPath>
							<path class="st25" d="M6380.8,4998c8.7,14.1,20.5,24.8,35.3,32.3c5.9,3,9.9-6.4,4.1-9.3c-13.3-6.7-23.4-16.4-31.2-29
								C6385.6,4986.4,6377.4,4992.4,6380.8,4998"/>
						</g>
					</g>
				</g>
			</g>
		</g>
	</g>
	<g>
		<g>
			<g>
				<g>
					<g>
						<g>
							<defs>
								<rect id="SVGID_53_" x="4687.8" y="4431.3" width="2444.5" height="1913.8"/>
							</defs>
							<clipPath id="SVGID_54_">
								<use xlink:href="#SVGID_53_"  style="overflow:visible;"/>
							</clipPath>
							<path class="st26" d="M6439.2,4950.1c7.2,12.2,16.5,22.4,28,30.7c5.3,3.8,11.7-4.1,6.4-8c-10.8-7.7-19.4-17.2-26.1-28.7
								C6444.2,4938.4,6435.9,4944.5,6439.2,4950.1"/>
						</g>
					</g>
				</g>
			</g>
		</g>
	</g>
	<g>
		<g>
			<g>
				<g>
					<g>
						<g>
							<defs>
								<rect id="SVGID_55_" x="4687.8" y="4431.3" width="2444.5" height="1913.8"/>
							</defs>
							<clipPath id="SVGID_56_">
								<use xlink:href="#SVGID_55_"  style="overflow:visible;"/>
							</clipPath>
							<path class="st27" d="M6495.7,4914.6c7.7,11.8,17,21.9,28,30.7c5.1,4.1,11.5-3.9,6.4-8c-10.3-8.2-18.9-17.7-26.1-28.7
								C6500.3,4903.1,6492.1,4909.1,6495.7,4914.6"/>
						</g>
					</g>
				</g>
			</g>
		</g>
	</g>
	<g>
		<g>
			<g>
				<g>
					<g>
						<g>
							<defs>
								<rect id="SVGID_57_" x="4687.8" y="4431.3" width="2444.5" height="1913.8"/>
							</defs>
							<clipPath id="SVGID_58_">
								<use xlink:href="#SVGID_57_"  style="overflow:visible;"/>
							</clipPath>
							<path class="st28" d="M6556.6,4870.3c8.7,12,17.4,23.9,26.1,35.9c3.9,5.3,12.1-0.7,8.3-6c-8.7-12-17.4-23.9-26.1-35.9
								C6561,4859,6552.8,4864.9,6556.6,4870.3"/>
						</g>
					</g>
				</g>
			</g>
		</g>
	</g>
</g>
<path class="st29" d="M3307.9,3757.6c0.3,0.6,0.6,1,0.8,1.6c0,0.2-0.6,0.5-0.9,0.7c-0.3-0.5-0.7-0.9-1-1.5
	C3306.7,3758.4,3307.4,3758,3307.9,3757.6"/>
<path class="st30" d="M3311,3745.4l-7.9,5.5l-0.4,0.3c-6.5,4.3-3.7,10.4-3.4,11c0.5,1,1.1,1.8,1.5,2.4l4.9,6.8l6.7-4.5
	c5.3-3.2,4.7-7.9,4.4-9.3c-0.4-1.6-1-2.8-1.4-3.5L3311,3745.4z M3307.9,3757.6c0.3,0.6,0.6,1,0.8,1.6c0,0.2-0.6,0.5-0.9,0.7
	c-0.3-0.5-0.7-0.9-1-1.5C3306.7,3758.4,3307.4,3758,3307.9,3757.6"/>
<g>
	<g>
		<g>
			<defs>
				
					<rect id="SVGID_59_" x="-272.3" y="672.4" transform="matrix(0.904 -0.4275 0.4275 0.904 -473.2519 1013.3157)" width="4584.6" height="1776.4"/>
			</defs>
			<clipPath id="SVGID_60_">
				<use xlink:href="#SVGID_59_"  style="overflow:visible;"/>
			</clipPath>
			<path class="st31" d="M2964.6,2007.5c-36.3,14.8-72.7,29.1-108.6,44.7c-17.2,7.4-33.4,17.4-50,26.1
				c-23.2,12.3-46.5,24.6-69.9,36.6c-14.7,7.7-29.5,15.6-44.5,22.4c-35.3,15.8-69.8,33.9-106.3,46c-56.7,18.8-111.3,42.4-166,66.1
				c-42.9,18.5-87.4,33-131,49.7c-22.6,8.6-45,17.1-66.5,28.5c-35.5,18.8-72.3,35.6-109.1,52.2c-12.1,5.4-25.7,7.4-38.5,11.1
				c-46.8,13.7-93.7,27-140.4,41.1c-33.9,10.1-67.5,21.6-101.5,31.4c-19.5,5.8-39.4,9.3-59,14.5c-11.9,3.1-23.5,7.5-35.1,11.1
				c-20.4,6.5-41,12.6-61.2,19.3c-30,9.9-59.8,19.8-89.7,30c-31.2,10.7-63,19.9-93.6,32.7c-16.1,6.7-33.5,9.9-50.3,15.3
				c-23.5,7.5-46.8,15.3-70.3,23c-28,9.2-56,18.3-84.2,27.4c-3.6,1.1-7.2,2.1-10.8,3.4c-22.3,7.7-44.6,15.6-66.9,22.9
				c-7.6,2.4-15.8,2.9-23.7,4.4c-31.1,6.1-62.1,11.9-92.9,18.6c-15.1,3.3-30,8-44.9,12.2c-26.9,7.6-53.5,16.2-80.6,22.7
				c-30.8,7.3-60.3,18.4-90.5,27.8c-21.4,6.8-43.6,10.8-64.8,18.2c-29.1,10.2-60.1,11.6-89.1,21c-38.1,12.2-77.4,17.3-116.4,24.1
				c-60.3,10.6-121.2,16.3-182.6,14.6c-24.1-0.7-48.2,2.8-72.2,3.5c-27.8,0.7-55.6,1.4-83.1-4.2c-18.9-3.8-38-6.2-56.9-10.2
				c-26.5-5.7-43.1-22.7-59-41.5c-4.9-5.7-8.6-12.4-12.5-18.7c-12-18.8-16-39.6-15.6-61.5c0.1-1.7,0.6-3.3,0.3-4.9
				c-4-19.1,5.4-33,14.8-48.7c11.9-20,19.4-42.8,26.6-65.1c4-12.4,8.5-23.9,15.6-35c5.7-9,11.4-18.5,14.3-28.5
				c8.5-29.2,26.1-52.5,45.4-74.9c16.5-19,32.3-38.8,49.8-56.8c22-22.5,43.6-45.6,69.1-64.6c11.2-8.3,22.9-17.3,30.1-30.6
				c3.9-7.3,11.6-12.6,18-18.3c26.2-23.6,52.7-47,79.2-70.4c4.1-3.5,8-7.5,12.6-10c30-16.7,59.3-34.4,92.1-45.7
				c14.7-5.1,28.5-12.6,42.8-18.7c18.2-7.6,22.4-5.3,35.9,9.5c19.8,21.9,30,49.3,44.6,74c6.6,11.1,10.3,25.9-0.8,40.5
				c-12.8,16.7-8.9,34.1,6.8,50.3c10.9,11.1,21.6,22.3,32.1,33.5c6,6.4,6,10.5-1.3,15.8c-18.7,13.4-38.7,25.2-56.5,39.8
				c-13.4,11.1-26.1,24.3-35.5,39c-9.6,14.7-10.6,33-3.7,49.7c4.1,10.3,9.8,20.8,17.5,28.6c21.5,21.8,45.3,39.9,76.6,46.8
				c37.1,8.2,74.9,12.7,112.4,18.2c13.9,2,28.7-1.3,43.1-2.6c28.7-2.3,55.3-12.7,82.3-21.6c21.4-7.1,42.6-14.1,64.1-21.1
				c1-0.3,2.1-0.5,3-1c31.8-15.8,66.9-18.7,100.8-27.2c29.5-7.5,59-17.1,86.7-29.5c35.7-15.9,69.3-36.3,104.6-53.3
				c17.8-8.6,37-14.1,55.9-20.4c21.8-7.5,44-14,65.8-21.5c25.3-8.8,50.6-18,75.8-27.2c30.7-11.2,61.4-22.4,92-33.6
				c3-1.1,6.1-2.6,9.3-2.9c29.9-3.8,55.9-18.4,83.5-28.5c15.5-5.7,31.2-10.7,45.8-18.8c6.1-3.3,12.9-5.4,18.8-8.9
				c35.6-21.4,74.5-34.8,113.9-47.2c25.9-8.2,52.2-15.8,76.7-28.8c19.3-10.3,40.6-17,61.3-24.7c36.3-13.4,72.6-26.5,109.1-39.5
				c12.7-4.5,25.5-8.5,38.1-12.7c5.1-1.7,10.2-3.5,15-5.8c33.8-16.4,67.4-33.3,101.3-49.4c18.5-8.7,37.5-16.3,56.4-24.1
				c3.9-1.5,8.4-1.5,12.4-2.6c3.6-1,7.8-1.4,10.4-3.6c22-19.3,49.7-27.5,75.1-40.2c19.2-9.5,39.6-17.1,58.5-27.1
				c18-9.4,35.1-20.6,52.4-31.3c16-9.9,31.3-20.7,47.8-29.8c46.1-25.5,91.5-52,139.8-73.3c27.9-12.2,54.5-27.2,80.4-43.8
				c28.8-18.3,58.9-35.5,95.1-36.8c11.2-0.4,22.6-6.7,33-12c14.3-7.3,27.8-16.3,41.5-24.8c18.3-11.4,37.6-20.3,58.6-26.1
				c41-11.3,81.5-25.8,115.4-51.7c21.2-16.1,45.5-26.1,67.2-41c3.8-2.7,9-3.5,13.6-5.1c9.6-3.4,19.3-6.7,25.8-15.5
				c1.2-1.7,3.1-3.2,5-4.1c25.4-12.7,50.2-27.2,76.5-37.3c50.6-19.5,101.9-37.5,149.5-63.8c14-7.8,26.5-18.2,39.4-27.7
				c11.7-8.5,23.6-17.1,34.5-26.5c21.8-18.9,49-30.7,68.5-52.8c7.6-8.6,19.8-12.9,28.5-20.7c11.7-10.3,21.7-22.2,33.1-32.8
				c8.9-8.4,19.1-15.5,28.4-23.6c10.9-9.6,21.1-19.8,31.6-29.6c1.5-1.4,3.3-3.3,3.7-5.2c3.7-17.7,9-35.4,10.4-53.1
				c2.1-28.1-11.7-52.6-19.8-78.7c-8.4-26.8-27.6-40.6-47.8-55.8c-38.6-29.4-82.1-40.6-129.9-38c-3.7,0.1-7.5-0.3-11-1.6
				c-8.8-2.9-10.1-5.9-7.1-14.4c0.8-2.6,1.7-5.1,3.3-7.3c13-17.7,21.7-37.8,32.9-56.4c5.9-9.8,10.4-19.7,11.2-31.5
				c0.8-11.8,1.9-23.5,3.8-35.1c0.7-4.5,2.2-10.2,5.4-12.9c20.8-16.8,41.6-34.3,70.1-37c1.7-0.2,3.2-0.2,4.8-0.8
				c21.4-7.1,42.7-14.3,64-21.2c6.7-2.1,13.4-3.5,20.2-5.1c12.6-2.8,25.3-5.2,37.8-8.4c15.2-3.8,29.9-7.2,46.1-4.2
				c8.7,1.7,18-1.1,27.2-1.5c25.2-0.8,50.3-1.3,75.5-2.1c1,0,2.3-0.1,3.1,0.3c38.3,14.9,81.6,14.5,117.1,38.3c2.7,1.7,6.1,2.9,8,5.3
				c18.1,23.3,37.4,45.8,43.5,76.1c4.8,24.2,9.9,48.2,8.3,73.2c-0.5,8.3,2.1,17,3.4,25.4c0.6,4.7,2.7,9.7,2.1,14.2
				c-2.5,17.3-5.8,34.6-8.7,51.8c-1,5.8-1.7,11.7-3,17.4c-5.7,24.7-17.6,47-27.8,70c-7.4,16.6-16.4,32.5-24.9,48.6
				c-3.2,6.1-7.2,11.7-10.6,17.8c-8.1,14.5-16,29-24.1,43.5c-13.5,24.3-26.7,48.9-40.8,72.8c-6.2,10.6-14,20.3-21.8,29.6
				c-18.4,21.6-37,42.9-55.9,64c-5.4,6-12.1,10.7-18,16.2c-3.5,3.3-7.3,6.4-10.2,10.3c-24.5,33.3-53.2,63.2-83.5,91
				c-19.6,18-42.5,32.5-64.1,48.3c-16,11.6-32.1,22.9-48.5,34c-7.5,5-16.3,8-23.8,13.2c-37.7,25.8-78.7,45.5-119.7,65.4
				c-2.4,1.2-5.3,1.9-7.2,3.6c-24.1,20.7-56.9,25-82.4,43.4c-2.6,1.8-6,2.7-9,3.4c-30.9,6.6-57.8,22.6-85,37.8
				c-7,3.9-14.1,7.8-21.3,11.5c-33.9,17.2-67.8,34.5-102,51.4c-28.8,14.2-58.3,27.4-87,42.1c-41.5,21.4-82.6,43.5-123.7,65.9
				c-12.1,6.6-23.1,15.2-35.3,22c-14.6,8.1-29.8,14.8-44.8,22.1c-9.7,4.7-19.4,9.2-29.2,13.8
				C2964.2,2006.7,2964.3,2007,2964.6,2007.5"/>
		</g>
	</g>
</g>
<g>
	<g>
		<g>
			<defs>
				
					<rect id="SVGID_61_" x="-272.3" y="672.4" transform="matrix(0.904 -0.4275 0.4275 0.904 -473.2519 1013.3157)" width="4584.6" height="1776.4"/>
			</defs>
			<clipPath id="SVGID_62_">
				<use xlink:href="#SVGID_61_"  style="overflow:visible;"/>
			</clipPath>
			<path class="st32" d="M1021.8,2394.9c-25.5,4.3-23.5,6.4-15.4,4.9c4.3-1.3,8.7-2.8,13.1-4
				C1020.3,2395.4,1021,2395.1,1021.8,2394.9"/>
		</g>
	</g>
	<g>
		<g>
			<defs>
				
					<rect id="SVGID_63_" x="-272.3" y="672.4" transform="matrix(0.904 -0.4275 0.4275 0.904 -473.2519 1013.3157)" width="4584.6" height="1776.4"/>
			</defs>
			<clipPath id="SVGID_64_">
				<use xlink:href="#SVGID_63_"  style="overflow:visible;"/>
			</clipPath>
			<path class="st33" d="M4002.1,715.7c-75.3-1.7-141.4,25.4-211.9,48.4c-52.6,17.1-105.3,34.3-157.9,51.4
				c-43.2,14.1-83.9,68-98.5,108.7c-15.9,44.4-15.1,104.3,7.1,146.6c23.2,43.8,59.9,83.5,108.7,98.5c34.8,10.9,65.8,11.4,97.8,5.5
				c-6.2,7.8-12.4,15.7-18.8,23.5c-4.7,4.9-9.5,10.1-14.4,15c-11.9,12.1-24.1,23.8-36.6,35.1c-26.9,24.4-55.2,47-84.8,68
				c2.1-1.2,4.5-2.3,7-3.6c-6.4,3.3-13,8.2-19.1,11.9c-16.1,9.8-32.5,18.8-49.3,27.6c-37.7,19.6-76.8,35.4-116.1,51
				c-92.1,36.3-175.7,77.8-255.9,136.9c-31.1,22.9-61.3,46.9-92.8,69.2c-2.6,1.8-6.7,5.3-11.3,9c-0.6,0.3-3.9,2.3-12,7.3
				c-18.8,11.7-37.7,23.3-56.8,34.4c-77,44.4-157,83.2-238.6,118.2c-156.6,67-318.7,120.1-480.3,173.9
				c-171.9,57.3-343.9,114.7-515.7,171.9c-166.5,55.6-334.2,108.9-497.3,174.1c-78,31.3-154.5,66.3-232.8,96.9
				c1.8-0.3,3.4-0.6,5.5-0.9c-2.5,0.4-5.2,1-7.6,1.7c-1.4,0.5-2.5,1-3.9,1.5c-3.2,1.2-6.5,2.1-9.2,2.5c-1.5,0.4-3.1,1-4.6,1.3
				c-21.2,5.7-42.7,10.4-64.2,14.8c-43.7,8.9-87.8,15.9-131.8,23.4c-45.9,7.8-92,15.5-138,23.4c20.4-16.1,41.3-31.9,62.6-47
				c37-26.3,62.1-85,65.9-128.7c4.2-47.4-12.5-106.6-45.6-141.9c-76.7-81.4-182.6-82.5-270.4-20.2
				c-73.7,52.3-142.4,111.1-204.5,176.8c-68,71.9-136.5,149-187.7,234.3c-45.4,75.8-66.8,163.1-25.8,247
				c38.6,78.9,122.1,128.7,209.2,128.5c106.4-0.1,215.6-29.4,320.2-47.1c204.5-34.5,417.5-55.3,612.4-129.6
				c87.3-33.3,171.4-74,258.7-107.7c93.2-35.9,187.6-68.1,282.3-99.9c189-63.3,378.2-126.2,567.3-189.3
				c184.1-61.5,369.9-119.7,549.8-192.9c189.3-77.1,364.2-175.9,527.1-299.3c5.7-4.3,40.4-24.7,49.1-34c1.3-0.7,2.5-1.5,3.7-2.2
				c7.9-4.3,16-8.4,24.2-12.3c47-23,96.2-40.5,144.6-60.2c90-36.6,174-86,251.6-144.3c162.2-121.6,294.4-299.2,362-490.5
				c28-79.3,35.4-167.8-2-245.6C4182.3,772.4,4094.9,717.9,4002.1,715.7 M3034,1631.7c2.7-1,15.2-9.1,19.8-12.2
				C3046.7,1625.3,3038.8,1631,3034,1631.7 M3837.9,1031.4c-3.7,7.5-6.8,14.8-8.8,21.9c-0.1,0.2-0.2,0.2-0.2,0.4
				C3832.4,1038.7,3836.3,1032.1,3837.9,1031.4 M3994.5,1099C3994.6,1099,3994.6,1099,3994.5,1099
				C4010.8,1095.6,4020.7,1100.3,3994.5,1099"/>
		</g>
	</g>
</g>
<g>
	<g>
		<g>
			<defs>
				
					<rect id="SVGID_65_" x="-272.3" y="672.4" transform="matrix(0.904 -0.4275 0.4275 0.904 -473.2519 1013.3157)" width="4584.6" height="1776.4"/>
			</defs>
			<clipPath id="SVGID_66_">
				<use xlink:href="#SVGID_65_"  style="overflow:visible;"/>
			</clipPath>
			<path class="st34" d="M3589.7,1318.7c1.1-0.8,2.1-1.6,3.3-2.4C3556.2,1335.5,3577.5,1327.3,3589.7,1318.7"/>
		</g>
	</g>
	<g>
		<g>
			<defs>
				
					<rect id="SVGID_67_" x="-272.3" y="672.4" transform="matrix(0.904 -0.4275 0.4275 0.904 -473.2519 1013.3157)" width="4584.6" height="1776.4"/>
			</defs>
			<clipPath id="SVGID_68_">
				<use xlink:href="#SVGID_67_"  style="overflow:visible;"/>
			</clipPath>
			<path class="st35" d="M2973.8,243.2c-20.9,9.3-22.9,12-18.5,10.7c5.9-3.8,12-7.4,18-10.4C2973.6,243.4,2973.7,243.3,2973.8,243.2
				"/>
		</g>
	</g>
	<g>
		<g>
			<defs>
				
					<rect id="SVGID_69_" x="-272.3" y="672.4" transform="matrix(0.904 -0.4275 0.4275 0.904 -473.2519 1013.3157)" width="4584.6" height="1776.4"/>
			</defs>
			<clipPath id="SVGID_70_">
				<use xlink:href="#SVGID_69_"  style="overflow:visible;"/>
			</clipPath>
			<path class="st36" d="M3192.2,296c13.4,3.4,13.4,3.4,21.2-3.8C3201.2,284.2,3200.7,284.2,3192.2,296 M651.3,1500.9
				c2.7-18,14.8-23.3,23.3-30.3c20.2-16.9,37.3-36.6,54.7-56.2c21-23.6,37.6-50.7,61.7-71.8c9.1-8,15.6-19,24-28.1
				c5.4-5.8,11.7-11,18.1-15.9c11.2-8.5,21-18,29.2-29.7c18.2-25.9,37.5-50.9,56-76.7c8.3-11.6,20.8-16.9,32.9-22.3
				c14.1-6.4,28.6-11.8,43.1-17.2c26.1-9.8,52.6-18.7,78.6-28.7c38.5-14.8,76.9-29.9,115.1-45.2c28.9-11.5,57.4-23.9,86.4-35.4
				c8-3.2,16.8-4.1,24.6-7.3c16.4-6.7,32.1-14.8,48.4-21.6c23.8-9.9,47.9-19.2,71.5-29.1c31.1-13.1,62-26.6,93-40
				c13.3-5.7,26.9-11,40-17c16.5-7.7,32.7-16,49.2-23.7c14.1-6.7,28.3-12.8,42.7-18.9c30.3-12.9,56.2-33.6,85.3-48.7
				c39-20.2,79.2-38.6,118.8-57.6c11.6-5.6,23.3-11,35.2-15.9c13.3-5.6,26.9-10.4,40.2-16c23.7-10,47.8-19.5,70.9-30.8
				c70.2-34.4,143.8-59.8,217.8-83.9c20.3-6.6,39.7-16.2,59.8-23.4c37.9-13.5,76.1-25.9,113.6-40.9c42.3-17,85.9-30.3,128.7-46.3
				c28.1-10.6,55.2-23.8,83-34.9c26.4-10.6,53.4-19.8,79.9-30.1c17.9-6.9,35.7-14.4,53.2-22.2c4.3-1.9,8.7-4.8,11.5-8.5
				c15.5-19,36.3-29.7,58.2-39.2c42.8-18.7,85.8-37.1,128.4-56.3c27.9-12.5,55.4-26.2,83.2-38.8c9.7-4.4,20.1-7.6,30.2-10.9
				c27.6-8.9,55.4-17.1,82.9-26.1c20.8-6.8,41-16,63.8-14.8c4.1,0.2,8.2-2,12.5-2.6c6.9-0.9,13.9-2.3,20.8-2.1
				c10.1,0.3,15.8,5.3,18.1,15.1c2.5,11.4,1.7,22.5-4.6,32.7c-5,8.2-7,17.2-9.5,26.4c-4.7,17-12.4,34.8-23.7,48.2
				c-21.1,25.4-46.2,47.6-68.6,72c-18.1,19.6-34.6,40.6-52.5,60.6c-4.4,4.9-10.7,9.1-16.9,11.8c-9.4,4-19.5,6.1-29,9.5
				c-18.1,6.8-36,14-53.9,21.3c-38.2,15.7-76.7,30.7-114.3,47.7c-28.8,13-56.4,28.9-84.5,43.3c-11.9,6.1-24.2,11.7-36.2,17.8
				c-8.6,4.4-17,9.2-25.4,13.9c-2.8,1.6-5.5,3.6-8.3,5c-32.3,14.4-64.9,28.3-96.9,43.3c-16,7.4-31.6,16.2-46.6,25.5
				c-21.3,13.2-44.4,21.4-67.4,30.7c-5.5,2.2-12,3.2-16.1,7c-17.9,16.2-41.2,20.3-62.2,29.3c-7.4,3.1-15.6,4.9-22.3,9.1
				c-35.5,22.4-76.6,30.3-114.7,45.8c-42.2,17.1-84.4,34.7-127.8,48.8c-44.9,14.6-86.9,37.2-133.8,46.1c-6.8,1.3-13.1,4.9-19.5,7.3
				c-28,10.8-55.9,22-84.2,32.1c-21.2,7.5-42.9,13.6-64.2,20.6c-11.2,3.6-23,6.5-33.3,11.9c-33.8,17.4-71.3,23.8-106.1,37.9
				c-25.8,10.5-52.1,20.5-77.9,30.9c-31.6,12.9-62.8,27.2-94.7,39.2c-22,8.2-45.6,12.5-67.7,20.8c-26,9.8-51.1,22.1-76.9,32.8
				c-14.4,5.9-29.3,10.1-43.7,15.8c-7.4,2.9-15.8,5.9-21.3,11.2c-18.2,17.8-42.3,22.5-64.5,31.5c-12.3,5.1-23.7,12.2-35.8,17.9
				c-11.6,5.5-23.5,10.4-35.3,15.4c-9.4,4-19.3,7.2-27.9,12.3c-30,17.6-64.3,24.1-95.9,37.6c-25.1,10.7-49.8,22.4-74.7,33.6
				c-4.4,1.9-9,3.4-13.5,5.2c-22.9,9.2-45.7,18.6-68.7,27.6c-20,7.9-40,15.5-60,23.3c-20.5,8-41,15.8-61.3,24.3
				c-28.7,12-57.3,24.1-85.6,36.9c-15.5,7-30.4,15.7-45.8,23.4C662.4,1498.3,657.8,1499,651.3,1500.9"/>
		</g>
	</g>
	<g>
		<g>
			<defs>
				
					<rect id="SVGID_71_" x="-272.3" y="672.4" transform="matrix(0.904 -0.4275 0.4275 0.904 -473.2519 1013.3157)" width="4584.6" height="1776.4"/>
			</defs>
			<clipPath id="SVGID_72_">
				<use xlink:href="#SVGID_71_"  style="overflow:visible;"/>
			</clipPath>
			<path class="st37" d="M1170.9,2321.7c-10.3-3.2-32.9,0.5-42.3,7.1C1144.2,2338.6,1159.3,2336.1,1170.9,2321.7 M1552,2145.6
				c-4.6,2.2-9.2,4.2-13.7,6.5c-19.3,10.2-38.5,20.9-58.2,30.6c-21.1,10.2-41.4,21.9-63.7,29.7c-9,3.1-17.1,8.9-25.8,12.9
				c-23.9,10.9-48,21.1-71.9,32c-4.3,1.9-8.3,5.1-11.8,8.3c-6.1,5.7-12.7,9.4-21.3,9.7c-7.8,0.2-14.2,3.4-17.1,12
				c6.1,4.6,10.9,1.1,15.6-0.9c19.8-8.2,39.7-16.6,59.3-24.9c2.5-1,4.8-2.3,7.3-3.4c19.3-10.2,38.6-20.6,58.2-30.4
				c6.2-3.1,13-4.7,19.5-7.3c6.8-2.9,13.6-6.2,20.2-9.6c7.6-3.9,14.9-8.3,22.4-12.5c11.3-6.2,22.4-12.5,33.9-18.4
				c11.8-6.1,22.3-15,36.2-16.7C1548.7,2162.3,1553,2156.7,1552,2145.6 M1589,2133.8c7.9-2.8,15.4-5.1,22.5-8.4
				c42.4-19.8,83.9-41.4,124-65.6c22.7-13.7,47.4-22.8,72.3-31.1c15.7-5.1,30.9-12.3,46.1-19c31-13.5,62-26.8,94.4-37.1
				c36.1-11.6,71.4-26.7,105.4-43.6c31-15.4,63-26.7,95.5-37.9c24.3-8.5,48.5-17.3,72.7-25.9c19.2-6.9,38.3-13.8,57.7-20.5
				c32.9-11.4,65.9-22.4,98.9-33.9c20.8-7.1,41.3-15.5,62.5-21.4c41.1-11.4,79-30.7,118.5-46c29.4-11.4,58.1-25,86.3-39.2
				c36.3-18.5,71.6-38.9,107.9-57.8c11.8-6.1,25-9.5,37.2-14.9c21.7-9.5,43.2-19.5,64.6-29.4c3.4-1.6,6.6-3.6,10.3-4.8
				c34.2-12.2,64.6-31.6,95.8-49.4c13.5-7.7,27.1-15.7,41.5-21.4c23.8-9.2,44.6-23.1,66-36.6c37.3-23.4,74.4-47,114.8-65.1
				c22-9.8,42.6-22.6,63.7-34.3c16.9-9.3,34.2-18.1,50.3-28.4c16.3-10.3,30.6-23.9,47.5-32.9c20.2-10.7,36.6-25.8,54.2-39.6
				c6.2-5,13.3-9.3,20.4-12.9c17.1-8.7,25-22.8,27-41.1c0.8-7.4,0.8-15,2.3-22.4c1.2-6.2,3.2-12.9,6.9-17.8
				c16-21.5,27.4-46.3,47.2-65.1c7.7-7.4,15.1-15.2,22.9-22.4c6.3-5.8,8.7-12.3,9.3-21.1c1-16.3,7.7-31.3,21.3-41.3
				c4.4-3.2,10.8-5.1,16.3-5.2c36.8-0.7,72.9,5.2,108.3,14.2c16.2,4.2,30.7,15,45.7,23.1c4.6,2.6,8.4,6.5,12.7,9.7
				c9.8,7,14.9,16.5,16.3,28.4c1.9,17.1,4.1,34.2,6,51.2c2.4,22.1-6.6,40.7-17.8,58.9c-10.5,17.2-28.2,26.1-42.6,38.5
				c-22.7,19.5-47.2,37.1-70.2,56.3c-9.3,7.8-16.9,17.8-25.5,26.7c-3.4,3.5-6.7,7.3-11,9.3c-15.5,7.6-29,18-42.2,29
				c-32.3,26.9-71.5,41.4-109.1,58.2c-31.8,14.2-65,25.3-96.9,39.3c-17.6,7.8-33.7,18.9-50.6,28.1c-16.5,9-33.5,17-49.8,26.4
				c-34,19.5-67.1,40.3-101.5,59.2c-25.9,14.3-52.7,26.7-79.6,39.1c-23.2,10.7-47.6,18.8-70.7,30.6c-22.5,11.5-46.6,19.5-69.6,30
				c-29.4,13.3-59.1,25.9-87.2,41.7c-48.8,27.3-99.3,51.1-148.8,77c-28,14.7-55.5,30.5-83,46.2c-27.9,15.8-56.6,30.6-83.3,48.3
				c-21.3,14.1-43.1,26.2-66.3,36.3c-41.3,17.9-82.7,35.5-124.2,53.1c-26.2,11.2-52.4,22.1-78.4,33.8c-14.7,6.6-28.4,15-43.1,21.8
				c-11.6,5.3-23.9,9.1-35.8,13.8c-32.2,12.4-64.1,24.7-96.3,37.1c-2.1,0.8-4.2,1.1-6.2,1.9c-30.6,11.8-61,23.5-91.6,35.1
				c-5,1.9-10.3,3-15.4,4.3c-3.6,0.8-7.6,0.9-11.1,2.1c-35.6,13.6-71.1,27-106.4,41.1c-36.9,14.7-73.6,30-110.2,45.2
				c-5.4,2.3-10.6,5.2-16.1,7.3c-9.5,3.7-19,7.1-28.5,10.6c-7.6,2.7-15.2,5.3-22.8,8.2c-59.2,22.5-117.6,47.3-178.5,65.6
				c-36.9,11.1-73,25.2-109.1,38.8c-27.1,10.3-53.4,22.3-80.5,33c-49.9,19.7-99.8,39.3-150,58.2c-14,5.3-29,7.8-43.5,11.8
				c-29.4,8-59.1,15.3-87.3,27.6c-34.6,15.2-71.4,22.7-108.7,26.2c-16.9,1.7-34.4,0.3-51.3-1.5c-34.7-3.6-69.5-6.8-101.2-23.3
				c-15.7-8.1-31.5-16.2-42.6-31.1c-8.7-11.7-11.2-20.9-2.7-32.3c14-19.3,25.4-41.1,49.1-52c9.6-4.4,17.4-12.4,26.1-18.7
				c6.6-4.9,13.2-5.2,21.3-2.4c9,3.2,18.8,4.3,28.1,6.5c10.4,2.5,20.6,5.2,31.1,7.6c4.6,1,9.4,1.7,14.1,1.6
				c12.4-0.4,24.6-1.3,36.8-1.9c2.7-0.1,5.5,0.4,7.9-0.2c20.9-5.1,41.5-10.4,62.4-15.9c6.3-1.7,12.3-5.2,18.6-5.2
				c18.2,0.3,32.7-8.5,48.1-16.4c28.3-14.4,57.4-27.1,85.9-41c18.8-9.2,37.1-19.5,55.7-29.2c2.4-1.3,4.7-2.8,7.3-3.4
				c26.5-6.6,49.8-19.6,72.6-34.3c3.1-2,6.5-3.8,10.1-5.1c35.5-12.6,67.4-32.7,101.4-48.4c36.5-16.8,73-33.8,110.4-47.9
				c25.4-9.5,52.7-14.5,79.2-21.2c4.9-1.2,10.3-0.1,14.7-0.2C1601.1,2118.7,1581.6,2119.9,1589,2133.8"/>
		</g>
	</g>
	<g>
		<g>
			<defs>
				
					<rect id="SVGID_73_" x="-272.3" y="672.4" transform="matrix(0.904 -0.4275 0.4275 0.904 -473.2519 1013.3157)" width="4584.6" height="1776.4"/>
			</defs>
			<clipPath id="SVGID_74_">
				<use xlink:href="#SVGID_73_"  style="overflow:visible;"/>
			</clipPath>
			<path class="st38" d="M3408,1030.9c-14.1-35.9-29.4-71.5-42.2-108c-9-25.7-23.1-48.2-36.5-71.5c-7-12.1-13.5-24.5-19.3-37.2
				c-14.5-31.2-31.4-61.1-42.1-94c-2.1-6.5-6.4-12.4-9.2-18.6c-5.9-13.2-11.4-26.6-17.5-39.5c-4.1-8.7-9.8-16.8-13.7-25.5
				c-15.6-35.8-42.6-64.3-62.6-97.3c-4-6.6-11.8-10.9-16.9-17c-3.2-3.7-6.9-8.9-6.8-13.2c0.2-11.4,3.6-22.1,11.5-31.1
				c31.5-35.8,62.6-72.1,94.5-107.3c11.3-12.4,18.2-26,21.8-42.2c1.9-8.2,6-16.1,10.6-23.3c6.8-10.9,16.7-12.5,25.1-2.4
				c16.5,19.7,32.6,40,46.7,61.5c11.9,18.2,20.9,38.5,30.9,58.1c17.4,33.8,32.8,68.8,52.3,101.3c14.3,24,26.4,48.5,37.1,74.4
				c8.7,21.2,23,39.9,34.2,60.1c5.7,10.2,9.8,21.3,14.5,32.1c1.3,3,1.5,6.3,3.2,9.2c20.6,36,35.4,74.5,50.7,112.8
				c4.2,10.4,10,20.2,16.1,29.7c7.3,11.4,9.1,22.3,3.3,34.9c-6.3,13.6-11.2,27.8-17,41.4c-5,11.7-9.1,24.3-16.1,34.8
				c-10.8,16.3-20.4,34.2-37,45.8c-7.5,5.1-12.4,10.4-12.8,20.6c-0.7,12.3-5,23.8-12.4,34.3c-10.9,15.2-20.4,31.4-30.9,47
				c-2,3.1-4.7,5.9-7.8,8c-8.1,5.4-14.1,4.5-18.9-4c-5.1-8.8-8.9-18.4-12.7-27.8c-6.2-15.3-12.2-31-18.2-46.3
				C3408.9,1030.5,3408.5,1030.7,3408,1030.9"/>
		</g>
	</g>
	<g>
		<g>
			<defs>
				
					<rect id="SVGID_75_" x="-272.3" y="672.4" transform="matrix(0.904 -0.4275 0.4275 0.904 -473.2519 1013.3157)" width="4584.6" height="1776.4"/>
			</defs>
			<clipPath id="SVGID_76_">
				<use xlink:href="#SVGID_75_"  style="overflow:visible;"/>
			</clipPath>
			<path class="st39" d="M3192.2,296c8.3-11.8,8.9-11.9,21.2-3.8C3205.7,299.4,3205.7,299.4,3192.2,296"/>
		</g>
	</g>
	<g>
		<g>
			<defs>
				
					<rect id="SVGID_77_" x="-272.3" y="672.4" transform="matrix(0.904 -0.4275 0.4275 0.904 -473.2519 1013.3157)" width="4584.6" height="1776.4"/>
			</defs>
			<clipPath id="SVGID_78_">
				<use xlink:href="#SVGID_77_"  style="overflow:visible;"/>
			</clipPath>
			<path class="st40" d="M1552,2145.6c0.9,11.1-3.3,16.7-10.9,17.7c-14,1.7-24.5,10.6-36.2,16.7c-11.4,6-22.6,12.1-33.9,18.4
				c-7.5,4.1-14.8,8.6-22.3,12.6c-6.6,3.4-13.4,6.6-20.2,9.6c-6.4,2.7-13.4,4.3-19.5,7.3c-19.5,9.8-38.8,20.2-58.2,30.4
				c-2.4,1.3-4.8,2.4-7.3,3.4c-19.8,8.3-39.6,16.7-59.3,24.8c-4.7,1.9-9.4,5.6-15.6,0.9c2.9-8.6,9.2-11.9,17.1-12
				c8.6-0.2,15.2-4.1,21.5-9.7c3.5-3.3,7.5-6.4,11.7-8.4c23.9-10.9,48-21.1,71.9-32c8.8-4,16.8-9.8,25.8-12.9
				c22.2-7.8,42.6-19.4,63.7-29.7c19.6-9.6,38.8-20.4,58.2-30.6C1542.8,2149.8,1547.5,2147.8,1552,2145.6"/>
		</g>
	</g>
	<g>
		<g>
			<defs>
				
					<rect id="SVGID_79_" x="-272.3" y="672.4" transform="matrix(0.904 -0.4275 0.4275 0.904 -473.2519 1013.3157)" width="4584.6" height="1776.4"/>
			</defs>
			<clipPath id="SVGID_80_">
				<use xlink:href="#SVGID_79_"  style="overflow:visible;"/>
			</clipPath>
			<path class="st41" d="M1170.9,2321.7c-11.5,14.3-26.5,16.9-42.3,7.1C1138,2322.3,1160.6,2318.4,1170.9,2321.7"/>
		</g>
	</g>
</g>
<g>
	<g>
		<g>
			<defs>
				
					<rect id="SVGID_81_" x="-272.3" y="672.4" transform="matrix(0.904 -0.4275 0.4275 0.904 -473.2519 1013.3157)" width="4584.6" height="1776.4"/>
			</defs>
			<clipPath id="SVGID_82_">
				<use xlink:href="#SVGID_81_"  style="overflow:visible;"/>
			</clipPath>
			<path class="st42" d="M1161,1392.7c-6.2,13.7-7.9,14.5-23.6,12.6C1142.3,1394.8,1152.7,1395.7,1161,1392.7"/>
		</g>
	</g>
	<g>
		<g>
			<defs>
				
					<rect id="SVGID_83_" x="-272.3" y="672.4" transform="matrix(0.904 -0.4275 0.4275 0.904 -473.2519 1013.3157)" width="4584.6" height="1776.4"/>
			</defs>
			<clipPath id="SVGID_84_">
				<use xlink:href="#SVGID_83_"  style="overflow:visible;"/>
			</clipPath>
			<path class="st43" d="M3400.4,334.3c-0.3-1-0.7-2-0.9-3.1c1.2,1.6,1.8,2,1.2,0.7C3404.7,341.8,3418.3,390.7,3400.4,334.3
				 M3164.8,614.2c0.9,0.6,1.7,1.2,2.5,1.6c4.3,5.1,10.9,11.8,13.9,15c5.7,11.2,11.3,22.3,16.1,34c1,7.4,4.9,16.8,6.4,23.6
				c0.2,0.8,0.2,1.7,0.4,2.4c-3.6-6.3-7.1-12.8-10.6-19.1c-11.8-20.9-22.4-42.7-35.6-62.5C3160.3,610.9,3162.5,612.6,3164.8,614.2
				 M3465.8,373.1c-21.8-25.4-47.7-48.2-74.9-68.3c-1.4-3.8-2.7-7.6-4.3-11.3c-52.5-124.7-196.5-156.6-312.2-111.7
				c-32.9,12.7-61.9,34.6-90.5,54.6c-3.2,2.3-6.6,4.6-9.8,6.8c1-0.5,1.7-0.8,2.7-1.3c-1.1,0.5-2.1,1-3,1.4c-2,1.4-4.3,2.9-6.2,4.4
				c-4.3,3.1-9.2,5.2-11.8,6c-8.4,5.4-16.6,11.1-24.8,15.7c-54.4,31.3-111,58.7-168.5,83.5c-233.6,100.7-480.9,169.1-719,258.3
				c-241,90.2-478.8,189-712.8,296.2c-112.4,51.6-231.6,99.6-336.3,166c-75.4,47.8-129.6,100.7-188.3,167.9
				c-40.5,46.4-80.4,93.5-120.6,140.2c-16.4,19.1-33.1,37.7-48.7,56.8c-20.7,7.2-39.8,18.2-54.2,33.8
				c-58.7,63.9-99.6,135.3-102.1,224.6c-2.1,79.7,18.3,155.8,55.3,226.2c28.1,53.5,60.2,103.8,82.7,160c2.7,6.7,12.3,35.1,12.5,34.1
				c1.9,6.8,3.7,13.3,4.4,16.3c7.5,29.6,13.4,59.6,17.5,89.9c13.9,102.9,55.5,193,160.5,230.5c98.8,35.2,187.8-22,273-63.5
				c115-55.8,231.1-109.4,348.2-160.5c236.4-103.3,476.9-196.8,720.8-280.6c120.5-41.4,241.9-82.1,354.6-142.5
				c110.3-59.1,212-132.5,319.7-195.8c53.7-31.6,109-60.4,166.7-83.7c57.2-23,116.9-40.9,170.2-72.7
				c122.8-73.3,213-184.8,293.1-301.7c74.9-109.1,129.1-236,133.7-369.8C3598.2,638.6,3561.6,485.1,3465.8,373.1"/>
		</g>
	</g>
</g>
<g>
	<g>
		<g>
			<defs>
				
					<rect id="SVGID_85_" x="-272.3" y="672.4" transform="matrix(0.904 -0.4275 0.4275 0.904 -473.2519 1013.3157)" width="4584.6" height="1776.4"/>
			</defs>
			<clipPath id="SVGID_86_">
				<use xlink:href="#SVGID_85_"  style="overflow:visible;"/>
			</clipPath>
			<path class="st44" d="M668.7,1527c-42.8,19.1-89.5,38.7-118.8,76.5c-14.1,18.2-30.3,38.3-36.8,60.7c-7,24-1,50.4,3.1,74.4
				c9.6,55.6,19.4,103,49.7,152.1c32.4,52.2,60.6,106.2,91.8,159.1c32,54.3,62.2,115.7,85.8,174.5c9.4,23.3,8.9,49.7,17.6,73.8
				c7.5,20.9,16.9,39.4,35.8,51.9c37.9,25.3,86.1,30.6,129.2,18.4c27.2-7.7,54.3-20.8,79.1-34.1c28.4-15.3,50.4-37.8,79.9-51.3
				c60.1-27.5,118.7-59.9,180.1-84.6c61.8-24.9,124-48,187.3-68.4c60.6-19.4,118.1-46.1,177.2-69.3c57.9-22.8,123.1-15.8,182.8-33.9
				c120.7-36.9,227.4-102.9,338.5-160.4c21-11,41.2-12,62.9-19.2c30.5-10.1,59.5-29.1,89.1-41.9c66.8-28.7,135.7-51.1,201.8-82.1
				c59.6-28,116.7-58.6,174.6-89.5c55.5-29.5,114.5-52.8,172.2-77.3c65.1-27.6,129-57.6,194.2-85.2c25.6-10.8,50.5-22.7,72.9-39.2
				c11.7-8.7,22.4-18.7,34.5-27.1c17.8-12.1,26-13.9,46.1-15.5c52.2-4,106.6-34.4,147.4-65.8c43.1-33.2,74.1-72.3,85.7-126.6
				c4.9-22.6,7.6-47.5,6.2-70.6c-1.7-29.8-17.3-55-22.9-83.8c-11.6-58.6-33.9-117.9-57.3-172.9c-12.6-29.7-27.6-58.6-41.4-87.8
				c-13.4-28.3-22.6-60.2-37.8-87.4c-12.4-22.2-25-47.3-39.5-67.9c-13.6-19.6-32-37-47.4-55.2c-15-17.8-23.3-39.2-41.9-54.1
				c-16.9-13.5-33.2-13.9-54.6-13.1c-58,2-114.8,39.3-162.9,68.7c-26.2,16-50.1,35.2-77.6,49.2c-31.2,15.9-63.4,29.7-94.9,44.9
				c-61.7,29.9-125.3,55.4-187.4,84.7c-119.9,56.7-240.8,110.3-360.8,167.2c-62.3,29.6-126.5,68.1-195.3,80.1
				c-27,4.7-53,7.2-79.1,16.4c-31.8,11.2-63.3,23.9-95,35.9c-59.6,22.4-120.6,43-181.7,60.6c-58.3,16.9-114.4,37.3-171.9,56.9
				c-59.2,20.1-115.1,50-173.1,73.2c-59.2,23.8-115.8,53.9-174.6,78.8c-28.9,12.2-58.8,20.9-87.3,34.1
				c-33.1,15.2-65.4,32.1-98.4,47.8c-54.7,26-118.3,30.9-177.4,44.9c-20.2,4.8-40,9.4-56.8,22.1c-20,15.2-31.2,39-50.6,53.3
				c-8,5.8,2.1,17.5,10.2,11.8c18-13.1,26.2-32.8,43.3-46.9c25.1-20.9,57-24.8,88-32.1c26-6.1,52-12.8,78.6-15.7
				c26.9-3.1,47-11.4,71.6-23.2c56.7-27,111.9-53.9,170.6-75.9c57.9-21.8,111.1-55.4,168.8-77.3c110.9-42.1,217.2-95.8,332.1-127
				c51.5-14,100.9-32.3,151.8-48.8c59.9-19.3,117.9-47.7,178.6-64c25-6.8,50.9-7.1,76-14c28.1-7.8,55.5-18.6,82.1-30.5
				c56.1-24.9,111.1-52.8,166.6-79.2c111.8-53.3,225.4-102.2,337.1-156c59-28.5,119.5-53.4,179-81.2c25.9-12.1,52.4-23,77-37.6
				c28.3-16.5,54-36.3,82.7-52.3c47.3-26.4,136.5-87.7,185.3-34.3c14.6,15.9,24.7,36.7,39.4,53.3c19.4,21.9,36.8,43,50.8,68.8
				c11.7,21.3,26.5,41.1,35.1,63.8c11.1,29.2,24.3,57.2,37.6,85.5c25.5,54.1,46.7,108.5,67.2,164.7c10.2,27.6,16.1,55.4,22.3,84
				c6.8,31.4,21.5,55,20,89c-2.8,67.4-29.1,119.5-82,161.3c-24.5,19.3-51.7,33.9-80,46.9c-14.3,6.6-29.4,13.6-44.9,16.5
				c-12.3,2.2-25.4-1.2-37.4,1.7c-18.9,4.5-37.8,21-52.6,32.7c-27.2,21.3-55.1,37.6-86.8,51c-59.6,25.2-117.5,54.2-177.4,78.4
				c-55.3,22.3-110,46.1-163.9,71.6c-55.9,26.4-108.7,58.9-164.6,85.5c-59.3,28-118.6,55.6-180.4,77.4c-28.5,10-56.4,20.9-83.9,33.6
				c-12.8,5.9-25.6,11.8-38.2,18.1c-15.3,7.5-29.8,9.1-45.8,13c-18.6,4.5-36.6,15.1-53.1,24.5c-27.7,15.6-56.7,28.6-83.9,45.3
				c-49.6,30.7-104.1,54.4-157.9,77.2c-56.6,24-112.9,42-174.2,46.8c-24.7,1.9-50.2,4.6-73.9,11.8c-27,8.3-51.5,22.3-77.9,32.2
				c-56.7,21.2-113.8,40.8-170.9,61c-56.9,20.1-114.4,40.7-168.9,66.7c-56.1,26.7-117.9,49.1-171.1,81.1
				c-22.2,13.3-39.6,31.8-63.2,43.7c-30.6,15.3-62.7,31.1-97.2,34c-26.1,2.1-50.1-3.5-73.7-14.3c-32.3-14.7-43.3-45.9-51.2-78.2
				c-3.1-12.6-2.9-26.1-6.5-38.7c-3.2-11.2-10.1-21.7-15.1-32c-13.6-27.9-27-56.2-39.9-84.7c-23.8-53-55.7-101.1-82.7-152.5
				c-25.4-48.4-59.2-92.9-77.8-144.9c-9.8-27-10.7-55.2-15.9-83.1c-7.3-39.8-3.8-67.6,20.1-101.1c31.5-44.2,76.5-66.7,125-88.5
				C684.5,1536.9,677.9,1522.9,668.7,1527"/>
		</g>
	</g>
	<g>
		<g>
			<defs>
				
					<rect id="SVGID_87_" x="-272.3" y="672.4" transform="matrix(0.904 -0.4275 0.4275 0.904 -473.2519 1013.3157)" width="4584.6" height="1776.4"/>
			</defs>
			<clipPath id="SVGID_88_">
				<use xlink:href="#SVGID_87_"  style="overflow:visible;"/>
			</clipPath>
			<path class="st45" d="M587.7,1571.7c11.9-11.7,17.5-25.9,23-41.4c8.8-24.9,31.6-43.4,49.5-62.2c36.8-38.7,80.9-68.6,110.1-114.1
				c29.4-45.6,56.1-96.5,100.5-129.4c38-28,69.2-69.7,115.5-84.8c20.8-6.8,44.5-7.6,66.1-14.5c25.6-8.4,49.4-23.1,74.6-32.6
				c59.8-22.6,117.5-49.8,177.2-72.7c109.6-42.2,216.8-90,323.2-139.9c222.8-104.5,442.1-221.8,673-307.5
				c57.3-21.2,115.3-49.1,175.7-59.8c26-4.6,52.2-6.4,77.8-13.4c26.9-7.4,50.4-23.9,77.5-29.6c47.9-10.1,83.2-44.8,125.3-67.6
				c54.6-29.5,111.8-54.5,167.8-81.2c58.4-27.8,120.2-43.2,180.4-65.7c30.3-11.3,60.1-25.7,91-34.9c14.2-4.1,33.8-10.1,48.8-8
				c9.9,1.4,30.6,11.6,33.2,23.6c1,4.7-7.8,18.9-9.8,22.7c-11.3,21.8-28.3,39.9-37.4,62.7c-9.8,24.9-21.9,52.4-37.6,74.2
				c-17.5,24.4-41.6,42.8-59.9,66.5c-12.8,16.4-32.3,35.3-38.2,55.7c-0.9,3.1-0.1,7.3,2.9,9c1.2,0.6,2.2,1.3,3.4,1.8
				c8.6,4.8,17.4-7.9,8.8-12.8c3.9,2.3,44.4-54.9,47.5-58.3c17.4-18.9,36.6-36,51.2-57.4c11.7-17.3,21.6-37.1,30.3-55.9
				c11.5-24.9,24.4-46.2,38.2-69.9c15.9-27.1,28.5-58.1-7.9-73.7c-41.4-17.8-94.8,11.5-133.1,25.3c-54,19.6-108.3,37.7-162.5,57
				c-62.5,22.2-121.7,54.8-181.6,83c-25,11.8-51.5,24.2-74.7,39.3c-25.3,16.6-47.6,38-77.7,46.2c-10,2.7-19.5,3.2-29.3,6.8
				c-14.2,5.3-26.8,13.8-41.1,19.3c-31,11.8-63.5,13.6-95.8,19.2c-56.4,9.8-109.8,35.2-163.2,55c-59.3,21.8-117.4,46.6-175,72.3
				c-120.9,53.9-240.3,110.6-359.9,167.8c-58.9,28.3-117.8,56.3-176.8,83.9c-58.1,27-118.3,50.5-175.8,78.4
				c-55.1,26.8-113.5,44.5-169.1,69.8c-61,27.8-124.5,49.2-185.5,77.1c-28.3,12.8-56.3,13.7-85.1,22.4c-19,5.8-41.2,20.8-58,31.1
				c-8.6,5.4-14.3,12.7-20.7,20.1c-11.7,13.8-24.5,23.9-39.3,34.4c-23.9,17.1-40.7,38.3-59.6,60.4c-20.6,23.8-33.5,53.6-50.8,79.7
				c-20,30.3-47.2,52.8-74.3,76.4c-22.6,19.6-41.7,42.9-62.5,64.2c-7.9,8.2-13.2,12.3-17.8,22.5c-7.4,16.3-8.9,33.5-22.5,46.9
				C570.5,1566.8,580.5,1578.8,587.7,1571.7"/>
		</g>
	</g>
	<g>
		<g>
			<defs>
				
					<rect id="SVGID_89_" x="-272.3" y="672.4" transform="matrix(0.904 -0.4275 0.4275 0.904 -473.2519 1013.3157)" width="4584.6" height="1776.4"/>
			</defs>
			<clipPath id="SVGID_90_">
				<use xlink:href="#SVGID_89_"  style="overflow:visible;"/>
			</clipPath>
			<path class="st46" d="M3283,235.8c-3.9,36.2,29.5,70.3,52.8,93.9c17.7,17.7,38.5,31.7,53.3,52.2c16.2,22.4,25.7,48.9,39.1,73
				c48.3,86.8,83.7,179.7,123.7,270.5c20,45.3,34.6,90.5,41.2,139.5c4.2,30.7-1.6,45.2-16.7,71.5c-11.6,20-21.6,41.1-33.8,60.9
				c-41.9,67.9-91.8,130.3-129,200.3c-4.6,8.7,8.2,17.6,12.8,8.8c37-69.6,86.6-132.6,128.9-200.2c9.7-15.4,18.3-31.9,27.4-47.6
				c9-15.5,21.3-32.3,26.4-49.6c12.2-40.9-8.5-91.3-19.8-129.9c-14.5-49.8-40-97-60.3-144.8c-20-47.2-41-93.9-62.4-140.5
				c-10.1-22-23.4-42.2-34.3-63.7c-9.9-19.6-18.6-39.9-31.5-57.9c-14.9-20.6-35.5-34.6-53.3-52.2c-20-19.7-52.4-51-49.1-82.3
				C3299.4,227.3,3284,226,3283,235.8"/>
		</g>
	</g>
	<g>
		<g>
			<defs>
				
					<rect id="SVGID_91_" x="-272.3" y="672.4" transform="matrix(0.904 -0.4275 0.4275 0.904 -473.2519 1013.3157)" width="4584.6" height="1776.4"/>
			</defs>
			<clipPath id="SVGID_92_">
				<use xlink:href="#SVGID_91_"  style="overflow:visible;"/>
			</clipPath>
			<path class="st47" d="M666.2,2088.4c-48.1,23.3-97.6,42.7-145.9,65.6c-20.8,9.8-47.3,17.8-65.9,31.3
				c-17.8,13-31.5,34.2-47.8,49.1c-17,15.5-29,31.3-43.5,48.6c-15,18.1-29.8,30.2-41.1,52.1c-5.1,9.9-9,21-15.3,30.2
				c-8.3,12.2-20.2,18.6-30.5,28.5c-17.2,16.8-32.4,36.9-47.8,55.5c-16.8,20.2-28.1,43.3-42.5,65.1c-15.7,24-31.2,46.9-46.2,71.5
				c-20.9,34.6-46.6,67.9-39.6,111c6.3,39.2,28.1,90,57.9,117.1c34.3,31.3,81.6,26.9,124.5,31.9c107.5,12.6,208.5,8.9,311-29.5
				c58.5-21.9,114.5-32.5,177.4-32.5c54.2,0,104.6-9.5,156.8-24.4c57.1-16.4,112.3-39.7,169.5-55c54.8-14.7,113.4-15.7,167.4-32.1
				c54.8-16.6,108.3-38.7,161.2-60.5c56.5-23.3,115.4-36.8,174.1-53.4c53.1-15.1,105.6-34.3,156.9-54.9
				c54.1-21.9,110.6-38.5,165.8-57.4c27.6-9.5,56.1-12.5,84-20.8c24.9-7.5,48.1-19.7,71.9-30.3c55.6-24.2,114.9-36.9,169.5-63.3
				c55.5-26.8,113.3-44.8,170.3-67.6c25.1-10,54.2-32.9,80.8-27.3c20.8,4.4,39.2,1,59.9-3.9c106.7-24.8,207.4-83.7,305.8-130.2
				c57-27,114.8-52.7,171-81.3c51.8-26.4,99.2-60.1,151.2-85.7c54.8-26.9,110.2-52,164.6-79.7c26-13.2,52.6-24.7,78.7-37.8
				c25.5-12.8,47.5-30.6,73.3-42.8c107.4-50.8,214.3-103.4,318.4-161.2c44.4-24.5,92.7-42.5,124.4-84c33-42.9,64.6-87.7,93.9-132.9
				c29.7-45.8,59.3-93.6,85-141.8c10.6-19.7,23.6-37.8,34-57.5c12.3-23.2,19-47.5,28.6-71.7c18.5-46.4,31.3-93.1,34.6-143.5
				c1.3-21,4.5-44,3.8-65c-0.6-20.4-10-42.4-16-61.8c-10.6-34.1-22.1-71.8-53.3-93.2c-39.8-27.2-91.2-21-136.3-26
				c-101.9-11.4-204.6-6.1-297.3,41.9c-41,21.3-86.5,30.3-121.7,60.8c-7.5,6.6,2.6,18.3,10.2,11.8c35.2-30.6,84.8-42.1,126.5-62.8
				c47.1-23.4,96.6-34.6,148.7-39.5c28.6-2.7,57.4-4.8,86-2.2c25.7,2.4,51.2,7.2,77,7.9c55.5,1.8,107.6,10.1,132,66.6
				c8.5,19.5,13.7,41.5,19.7,61.7c7.7,25.7,6.4,43.7,5.6,69.4c-1.4,48.4-5.8,102.1-25,147c-8.4,19.8-14.4,40.3-22.4,60.2
				c-10.5,26.3-26.5,49.1-40.5,73.5c-24.4,42.9-49.7,85.2-75.3,127.7c-25.4,42.2-53.8,83.7-83.8,122.7c-16.7,21.6-30,45.3-51.2,63
				c-23.4,19.7-52.6,30.5-79,45c-97.2,53.3-195.5,105.9-296,152.9c-45,21-85.9,48.3-130.8,69.1c-52.8,24.4-103.7,52.8-156.6,77.2
				c-100.3,46.2-192.5,105.8-292.6,152.7c-50,23.3-99.9,47-149.8,70.5c-50.1,23.7-99.7,50.6-151.7,69.8
				c-44.7,16.5-105.2,51.7-153.4,36c-13.4-4.3-14-3.6-27.1,2.5c-27.8,12.7-54.9,25.8-83.5,36.3c-52.1,19.2-102.8,37.5-152.9,61.5
				c-51,24.4-106.9,36.2-159,58.5c-21.8,9.3-42.9,20.7-65.4,28.6c-25.9,9.1-53.6,11.4-79.9,19.4c-49.9,15.3-100.9,31.7-149.9,49.9
				c-50.2,18.5-99.7,39.6-150.4,56.7c-52,17.5-105.9,27.1-158.4,42.6c-50.8,15.1-99.2,41.2-149.2,59.3
				c-26.1,9.5-53.4,21.4-80.8,26.3c-26.1,4.7-52.6,8.4-78.7,13.1c-107.3,18.9-205.8,67.9-313.1,87.5c-51,9.3-102.8,4-154.1,10.3
				c-50.8,6.2-94.4,24.5-142.5,40.6c-100.8,33.9-211.6,29.7-315.3,14.2c-28.4-4.3-56.4-8.1-76.8-30.4c-18.4-20.1-29.2-48.6-38.6-74
				c-21.7-58,10.6-94.9,37.1-144.3c12.3-23,29.3-42,42.9-64.1c15.5-25.3,30-48.9,49.9-71.1c15.5-17.4,29.6-33.1,47.3-48
				c13.8-11.6,21.2-26.9,29.1-42.7c11.9-23.8,26.3-38,43.5-57.4c15.7-17.8,28.6-36.6,46.9-53c14.7-13.1,26.5-30.3,42.1-42.1
				c22.4-17.1,52.6-26.9,78.1-39c43.7-20.7,88.3-37.7,131.9-58.9C681.7,2098,675.1,2084,666.2,2088.4"/>
		</g>
	</g>
	<g>
		<g>
			<defs>
				
					<rect id="SVGID_93_" x="-272.3" y="672.4" transform="matrix(0.904 -0.4275 0.4275 0.904 -473.2519 1013.3157)" width="4584.6" height="1776.4"/>
			</defs>
			<clipPath id="SVGID_94_">
				<use xlink:href="#SVGID_93_"  style="overflow:visible;"/>
			</clipPath>
			<path class="st48" d="M777.3,2345.4c-21.4,11.3-41,31.3-56.8,49.2c-12.1,13.6-26.7,34.5-29.8,52.9
				c-7.5,45.4,47.7,103.4,85.5,120.7c20.6,9.4,43.5,1,65.1-1.3c31.5-3.2,62-0.9,93.5-3.3c31.3-2.4,58.9-4.4,89.6-9.2
				c34.7-5.5,67.6-13.9,101.2-24.2c66.8-20.5,132-51.2,194.5-82.1c31.4-15.6,60.6-35.3,91.8-51.3c36.1-18.5,73.3-35,110-52.6
				c69.6-33.5,138.7-68.1,210.3-97.4c70.7-29,143.1-54.8,212.9-86.1c67.8-30.4,135.8-64.4,205.8-89.2
				c69.4-24.5,143.4-25.6,211.4-54.9c33.5-14.4,66.1-31.1,99-46.8c29.3-13.8,60.3-23.5,90.6-35.1c69.9-26.6,136.6-62.1,204.2-94.1
				c137.6-65,276.2-127.2,413.8-192.2c68.8-32.5,137.1-66,205.2-99.9c61.5-30.7,129-54.3,184.4-95.8
				c56.4-42.2,87.9-103.3,131.4-157.2c21.9-27,48.4-51.3,71.3-77.7c16.7-19.3,31.3-40.7,31.1-66.9c-0.2-31.7-16.2-60.5-30.3-87.8
				c-11.1-21.5-27.7-25.7-51.8-30.9c-59.6-13-142.2-21.8-198.5,5.5c-9,4.4-2.4,18.4,6.6,14c51.4-24.9,126.5-16.4,181.4-5.8
				c16,3.1,35.3,5.9,46,19.1c7.7,9.7,13.9,26.4,18.9,37.8c15.4,35.7,15.4,67.3-9.7,98.7c-33.3,41.3-72.3,76.6-103.5,119.7
				c-39.3,54.4-74.7,105.2-133.9,140.1c-54.4,32.2-114.7,55.3-171.1,83.6c-61,30.7-122.4,60.2-184.2,89.4
				c-120.9,57.2-242.8,111.4-363.7,168.5c-61,28.8-122.1,57.3-182.9,86.5c-27,13-54.3,23.6-81.7,35.4
				c-25.1,10.5-50.5,16.8-75.2,28.5c-62,29.5-122.9,62.9-190.9,75.4c-62.1,11.4-119.6,24.2-177.5,50.2
				c-122.7,55.2-247.2,104.8-371.5,156.1c-63.9,26.4-125.9,57.1-188.1,87.1c-60.4,29.2-122,55.9-179.6,90.5
				c-60.9,36.5-130.4,67-197.2,91.4c-63.4,23.1-130.8,40.1-198.3,42.5c-17.7,0.6-35.2,3.6-52.9,2.7c-12.9-0.5-25.3-3-38.2-1.6
				c-37.9,3.8-72.9,17-105.5-9.5c-30-24.6-69.9-68.1-45.7-108.2c15.2-25,43.2-57,69.3-70.6C792.8,2354.9,786.2,2340.8,777.3,2345.4"
				/>
		</g>
	</g>
	<g>
		<g>
			<defs>
				
					<rect id="SVGID_95_" x="-272.3" y="672.4" transform="matrix(0.904 -0.4275 0.4275 0.904 -473.2519 1013.3157)" width="4584.6" height="1776.4"/>
			</defs>
			<clipPath id="SVGID_96_">
				<use xlink:href="#SVGID_95_"  style="overflow:visible;"/>
			</clipPath>
			<path class="st49" d="M3168.1,800.2c-18.2-28.7-37.2-54-67.3-71.2c-34.2-19.5-70.1-19.7-108.3-16.4
				c-139.5,11.8-277.4,56.7-405.3,112.5c-127.6,55.7-246.5,127.1-365.9,198c-116.5,69.2-236.4,134.9-374,145.5
				c-41,3.2-68.5,50.4-61.9,88.2c7.7,43.9,46.9,65.1,88.1,61.9c254.5-19.7,462.4-200.4,682.7-310.8
				c110-55.1,224.6-101.9,345.3-127.3c30.1-6.4,60.4-11.4,90.8-15.1c10.3-1.3,24.3-4.9,35.4-3.3c0.8,1.1,1.5,2.3,2.2,4
				c9.6,23,27.5,44.4,37.9,67.7c13.5,30,22.5,60.1,29.1,92.3c19.8,95.9,169.7,69.9,150-26.2C3232.6,929.2,3207,861.5,3168.1,800.2"
				/>
		</g>
	</g>
	<g>
		<g>
			<defs>
				
					<rect id="SVGID_97_" x="-272.3" y="672.4" transform="matrix(0.904 -0.4275 0.4275 0.904 -473.2519 1013.3157)" width="4584.6" height="1776.4"/>
			</defs>
			<clipPath id="SVGID_98_">
				<use xlink:href="#SVGID_97_"  style="overflow:visible;"/>
			</clipPath>
			<path class="st50" d="M1623.6,1264.2c-67.5,31.9-18,136.9,49.6,104.9C1740.7,1337.1,1691.3,1232.2,1623.6,1264.2"/>
		</g>
	</g>
	<g>
		<g>
			<defs>
				
					<rect id="SVGID_99_" x="-272.3" y="672.4" transform="matrix(0.904 -0.4275 0.4275 0.904 -473.2519 1013.3157)" width="4584.6" height="1776.4"/>
			</defs>
			<clipPath id="SVGID_100_">
				<use xlink:href="#SVGID_99_"  style="overflow:visible;"/>
			</clipPath>
			<path class="st51" d="M1755,1808.5c-172.5,46.8-347,93.7-508.6,171.4c-77.1,37-148.7,83.4-222.1,127.2
				c-19.6,11.8-39.5,23.3-59.7,34.1c-1.6,0.9-7.8,3.5-13.9,6.5c-5.5-16.1-19.7-36.3-25.8-49.1c-9.4-19.6-18.8-39.4-28.2-58.9
				c-32.3-67.3-137.2-17.9-104.9,49.6c33,68.8,66,199.4,165.5,180.5c43.5-8.2,85.2-39,122.3-61.3c43.3-25.9,85.8-53.1,129.6-78.1
				c175.9-100.8,371.3-154.9,565.7-207.5c30.2-8.1,53-34.2,47.2-67.2C1817.1,1827.1,1785.5,1800.3,1755,1808.5"/>
		</g>
	</g>
</g>
</svg>
