<?xml version="1.0" encoding="utf-8"?>
<!-- Generator: Adobe Illustrator 21.1.0, SVG Export Plug-In . SVG Version: 6.00 Build 0)  -->
<svg version="1.1" id="Layer_1" xmlns="http://www.w3.org/2000/svg" xmlns:xlink="http://www.w3.org/1999/xlink" x="0px" y="0px"
	 viewBox="0 0 4312.4 1681.7" style="enable-background:new 0 0 4312.4 1681.7;" xml:space="preserve">
<style type="text/css">
	.st0{clip-path:url(#SVGID_2_);fill:#BBBDBF;}
	.st1{clip-path:url(#SVGID_4_);fill:#BBBDBF;}
	.st2{clip-path:url(#SVGID_6_);fill:#EC1C24;}
	.st3{clip-path:url(#SVGID_8_);fill:#EC1C24;}
	.st4{clip-path:url(#SVGID_10_);fill:#EC1C24;}
	.st5{clip-path:url(#SVGID_12_);fill:#231F20;}
	.st6{clip-path:url(#SVGID_14_);fill:#231F20;}
	.st7{clip-path:url(#SVGID_16_);fill:#EC1C24;}
	.st8{clip-path:url(#SVGID_18_);fill:#EC1C24;}
	.st9{clip-path:url(#SVGID_20_);fill:#231F20;}
	.st10{clip-path:url(#SVGID_22_);fill:#231F20;}
	.st11{clip-path:url(#SVGID_24_);fill:#231F20;}
	.st12{clip-path:url(#SVGID_26_);fill:#231F20;}
	.st13{clip-path:url(#SVGID_28_);fill:#231F20;}
	.st14{clip-path:url(#SVGID_30_);fill:#231F20;}
	.st15{clip-path:url(#SVGID_32_);fill:#231F20;}
	.st16{clip-path:url(#SVGID_34_);fill:#231F20;}
	.st17{clip-path:url(#SVGID_36_);fill:#231F20;}
	.st18{clip-path:url(#SVGID_38_);fill:#231F20;}
	.st19{clip-path:url(#SVGID_40_);fill:#231F20;}
	.st20{clip-path:url(#SVGID_42_);fill:#231F20;}
	.st21{clip-path:url(#SVGID_44_);fill:#231F20;}
	.st22{clip-path:url(#SVGID_46_);fill:#231F20;}
	.st23{clip-path:url(#SVGID_48_);fill:#231F20;}
	.st24{clip-path:url(#SVGID_50_);fill:#231F20;}
	.st25{clip-path:url(#SVGID_52_);fill:#231F20;}
	.st26{clip-path:url(#SVGID_54_);fill:#231F20;}
	.st27{clip-path:url(#SVGID_56_);fill:#231F20;}
	.st28{clip-path:url(#SVGID_58_);fill:#231F20;}
	.st29{fill:#FFFFFF;}
	.st30{fill:#FAAF40;}
	.st31{clip-path:url(#SVGID_60_);fill:#D0D2D3;}
	.st32{clip-path:url(#SVGID_62_);fill:#D0D2D3;}
	.st33{clip-path:url(#SVGID_64_);fill:#D0D2D3;}
	.st34{clip-path:url(#SVGID_66_);fill:#D0D2D3;}
	.st35{clip-path:url(#SVGID_68_);fill:#FFE78F;}
	.st36{clip-path:url(#SVGID_70_);fill:#FFE78F;}
	.st37{clip-path:url(#SVGID_72_);fill:#BBBDBF;}
	.st38{clip-path:url(#SVGID_74_);fill:#FFE78F;}
	.st39{clip-path:url(#SVGID_76_);fill:#231F20;}
	.st40{clip-path:url(#SVGID_78_);fill:#231F20;}
	.st41{clip-path:url(#SVGID_80_);fill:#231F20;}
	.st42{clip-path:url(#SVGID_82_);fill:#FFFFFF;}
	.st43{clip-path:url(#SVGID_84_);fill:#FFE78F;}
	.st44{clip-path:url(#SVGID_86_);fill:#231F20;}
	.st45{clip-path:url(#SVGID_88_);fill:#231F20;}
	.st46{clip-path:url(#SVGID_90_);fill:#231F20;}
	.st47{clip-path:url(#SVGID_92_);fill:#231F20;}
	.st48{clip-path:url(#SVGID_94_);fill:#231F20;}
	.st49{clip-path:url(#SVGID_96_);fill:#FFEDBA;}
	.st50{clip-path:url(#SVGID_98_);fill:#FFEDBA;}
	.st51{clip-path:url(#SVGID_100_);fill:#FFEDBA;}
</style>
<g>
	<g>
		<g>
			<g>
				<g>
					<g>
						<g>
							<defs>
								<rect id="SVGID_1_" x="4687.8" y="3784.1" width="2444.5" height="1913.8"/>
							</defs>
							<clipPath id="SVGID_2_">
								<use xlink:href="#SVGID_1_"  style="overflow:visible;"/>
							</clipPath>
							<path class="st0" d="M5268,4982c23.6-10.6,50.8-4.5,75.7-4c16.5,0.3,28.9-18.4,27.4-33.5c-1.8-18.1-16.9-27.1-33.5-27.4
								c-31.3-0.6-61.5-5.7-91.2,7.6c-15.1,6.8-24,23.3-17.9,39.4C5234.1,4978.9,5252.8,4988.8,5268,4982"/>
						</g>
					</g>
				</g>
			</g>
		</g>
	</g>
	<g>
		<g>
			<g>
				<g>
					<g>
						<g>
							<defs>
								<rect id="SVGID_3_" x="4687.8" y="3784.1" width="2444.5" height="1913.8"/>
							</defs>
							<clipPath id="SVGID_4_">
								<use xlink:href="#SVGID_3_"  style="overflow:visible;"/>
							</clipPath>
							<path class="st1" d="M5472.7,5432.2c5.2-31,6.4-62.8,4-94.7c6.2-36.6,3.8-74.5-1-115c-1.5-13-2.2-26-3.4-39.1
								c-0.1-0.7-0.1-1.2-0.2-1.8c0.1-0.4,0.1-0.6,0.2-1c0.6-3.9,1.2-7.7,1.8-11.6c0.4,0.6,4.4-11.9,5.3-14.1
								c0.5-1.1,0.8-2.1,1.1-2.9c0.8-0.7,1.8-1.7,3.1-3.1c5.2-5.6,10-11.9,15.1-17.6c0.1-0.1,0.1-0.1,0.2-0.2c2.8-2.5,5.7-5,8.7-7.3
								c58.6-48.3,126-87.4,188.8-130c69.5-47.3,138.8-95.1,207.9-143.2c268-186.5,534.6-375.3,800-565.5
								c146.8-105.2,290.9-217.2,406.8-356.8c24-29,26.3-78.1,2.4-108.1c-25.5-32-64.6-43.4-103.6-31.1
								c-190.6,60-365.5,156.9-524.2,277.6c-161.5,122.8-316.9,253.6-476.3,379.2c-158.3,124.8-319.4,245.8-486.9,358.1
								c-76.5,51.3-152.8,104.3-216.1,171.8c-28-39.1-64.1-69.9-110.6-89.8c-54.8-23.4-117.5-30.3-176.1-19.6
								c-112.3,20.4-233.8,85.1-294.1,185c-60.5,100.2-41.1,216.7,9.2,316.9c55.3,110.3,127.9,210.8,235.9,274.3
								c91.7,53.9,209.5,69,310.1,31.5C5385,5634.9,5454.5,5540.4,5472.7,5432.2"/>
						</g>
					</g>
				</g>
			</g>
		</g>
	</g>
	<g>
		<g>
			<g>
				<g>
					<g>
						<g>
							<defs>
								<rect id="SVGID_5_" x="4687.8" y="3784.1" width="2444.5" height="1913.8"/>
							</defs>
							<clipPath id="SVGID_6_">
								<use xlink:href="#SVGID_5_"  style="overflow:visible;"/>
							</clipPath>
							<path class="st2" d="M5081.3,5346.8c-33.1-23.1-53-58.1-50.7-92.5c0.6-8.9,2.2-16.8,4.6-23.9c27.2-4.5,42.2-23.7,46.4-45.5
								c8.5-3.5,17.4-6.4,26-9.1c25.2-7.8,40.5-12.8,65-14.1c-4.5,0.2,4.7,2.9,3.1,0.9c7.4,6.5,12.2,20.3,15.8,29
								c15.8,37.6,24.1,80.8,11.7,119.8c-9,28.2-29.3,51.9-53.6,63.2C5123.8,5370.5,5097,5357.8,5081.3,5346.8 M5291.4,5446.4
								c33.1-34.2,45.8-88.7,49.7-135c4.9-58.1-3.3-116.1-24-169.6c78.6-20.6,150.7-66.6,215.4-114.5
								c105.4-78.1,208.5-159.3,313.3-238.2c216.1-162.5,434.4-322.3,654.6-479.3c123.9-88.3,248.4-175.7,373.6-262.2
								c64.8-44.8-7.1-143.8-71.9-99c-436.6,301.8-865.7,614.5-1286.6,937.8c-89.2,68.5-183.2,147.1-301.2,144.8
								c-11.6-0.2-21.6,3.4-29.7,9.4c-6.7-0.7-13.6-1.1-20.5-0.9c-38.3,0.8-80.6,13.9-116.3,27.1c-38.6,14.2-76.3,37.4-100.5,71.3
								c-15.5,12.6-28.3,28.6-37.6,47c-20.8,41-17.8,88.3-6.5,131.5c18.9,72,70.4,140.7,139.5,171c42.2,18.6,86.8,20,128.2,8.1
								C5215.8,5494.5,5258.6,5480.2,5291.4,5446.4"/>
						</g>
					</g>
				</g>
			</g>
		</g>
	</g>
	<g>
		<g>
			<g>
				<g>
					<g>
						<g>
							<defs>
								<rect id="SVGID_7_" x="4687.8" y="3784.1" width="2444.5" height="1913.8"/>
							</defs>
							<clipPath id="SVGID_8_">
								<use xlink:href="#SVGID_7_"  style="overflow:visible;"/>
							</clipPath>
							<path class="st3" d="M5323,5309.9c16.6-70.3,40.7-126.2,87.3-181c50.9-60-44.7-136.5-95.7-76.4
								c-59.9,70.6-91.4,148.9-112.5,238.2c-7.6,32.2,19.9,65.1,50.9,70C5287.7,5366.2,5315.4,5342.1,5323,5309.9"/>
						</g>
					</g>
				</g>
			</g>
		</g>
	</g>
	<g>
		<g>
			<g>
				<g>
					<g>
						<g>
							<defs>
								<rect id="SVGID_9_" x="4687.8" y="3784.1" width="2444.5" height="1913.8"/>
							</defs>
							<clipPath id="SVGID_10_">
								<use xlink:href="#SVGID_9_"  style="overflow:visible;"/>
							</clipPath>
							<path class="st4" d="M5156.3,5333.6c46.3,63.7,145.4-8.1,99-71.9C5209.1,5198,5110,5269.8,5156.3,5333.6"/>
						</g>
					</g>
				</g>
			</g>
		</g>
	</g>
	<g>
		<g>
			<g>
				<g>
					<g>
						<g>
							<defs>
								<rect id="SVGID_11_" x="4687.8" y="3784.1" width="2444.5" height="1913.8"/>
							</defs>
							<clipPath id="SVGID_12_">
								<use xlink:href="#SVGID_11_"  style="overflow:visible;"/>
							</clipPath>
							<path class="st5" d="M4743,5075.6c48.2-35.1,86.6-82,136-115.5c43.4-29.4,96.3-44.8,147.5-53.3c49.6-8.2,101-9.7,150.6-0.4
								c41.8,7.9,79.6,29.4,122.5,32.6c83.7,6.2,151-54,214-100.1c99.2-72.6,197.6-146.1,295.1-220.8
								c198.8-152.2,400.5-300.4,602.8-447.7c98.3-71.6,195.1-146.3,295.5-214.9c80-54.7,172.3-97.2,266-123.4
								c44-12.3,89.1-15.8,126.9,15.1c37.4,30.6,18.5,69.8-7.5,100.7c-33.4,39.6-74.7,73.8-113.6,107.9
								c-44.7,39.2-91.1,76.6-139.7,110.9c-99,69.9-206,128-309.6,190.8c-103.7,62.9-200.7,135.5-303.4,199.8
								c-105.2,65.9-205.7,135.7-303.8,211.9c-94.6,73.5-192.2,143.2-286.7,216.8c-72.2,56.3-156.2,121.8-176.2,216.1
								c-18.1,85.3,10.3,168.1,10.8,253.2c0.3,48.2-19.3,89.2-54.9,121.3c-40.9,36.8-89.7,74.7-140.3,96.8
								c-38.9,17-78.1,16.7-118.9,7.4c-46.8-10.7-93.8-24.9-138.2-43.1c-89.8-36.8-159.6-98.2-214.8-177.5
								c-61.1-87.8-84.5-192.6-68.3-298.5c7.8-50.9,24.2-100.7,50.5-145c3.3-5.6-6-9.7-9.3-4.1c-50.9,85.9-67.3,193.3-50,291.2
								c17,96.1,71.5,181.4,140.9,248.8c67.8,65.9,152.4,100.2,241.9,126.1c37,10.7,75.3,22.2,114.3,18.9
								c44.1-3.7,82.7-26.8,118.4-51.2c40.2-27.5,86.4-58.2,113.6-99.7c20.7-31.7,27-68.7,24.7-106c-5.8-92.9-36.7-190.9,3.8-280.5
								c23.6-52.3,71.6-93.7,114.3-130.1c47.5-40.5,98.4-76.5,148.7-113.2c104.5-76.4,204-159.4,308.8-235.3
								c105.9-76.6,220.7-139.6,327.1-215.7c104.2-74.5,216.2-136.5,325.7-202.6c109.1-65.9,210.7-139,305.3-224.5
								c34.1-30.8,72.5-61.8,99-99.8c14.5-20.8,26.3-47.1,15.6-72.2c-12.8-30-51.8-50.1-82.8-53.4c-36.4-3.8-73.9,8-107.8,19.9
								c-43.9,15.5-89.1,32-131,52.2c-51,24.5-98.1,56.2-143.9,89.4c-213.3,154.6-426.2,309.9-637.3,467.3
								c-105.3,78.5-209.3,158.8-314.1,237.9c-51.6,39-103.5,77.5-155.6,115.8c-47,34.6-93.2,72.5-143.4,102.5
								c-37.7,22.5-78.8,36.1-123,29.9c-47.1-6.6-89.1-30-137-35.3c-92.1-10.3-201.5,6.7-279.3,59.4c-49.4,33.5-87.8,80.4-136,115.5
								C4731.7,5071.2,4737.7,5079.5,4743,5075.6"/>
						</g>
					</g>
				</g>
			</g>
		</g>
	</g>
	<g>
		<g>
			<g>
				<g>
					<g>
						<g>
							<defs>
								<rect id="SVGID_13_" x="4687.8" y="3784.1" width="2444.5" height="1913.8"/>
							</defs>
							<clipPath id="SVGID_14_">
								<use xlink:href="#SVGID_13_"  style="overflow:visible;"/>
							</clipPath>
							<path class="st6" d="M5265.8,5023.3c-38.7,17.4-81.5,18.2-121.8,30.1c-39.4,11.7-79.9,30.5-114.1,53.3
								c-55.4,36.9-81.9,103.3-84,168.2c-2.2,66.3,21.5,139.7,71.1,185.7c49.5,45.9,123.5,46.7,186,33
								c62.9-13.9,115.3-46.6,129.4-112.5c7.6-35.6,6.8-72.6,15.4-108c10.7-44.1,36.9-86.2,63.1-122.6
								c109.5-152.3,275.1-261.2,421.2-375.1c154.4-120.5,313.2-235.1,466.9-356.4c76.9-60.7,154-121.4,234.3-177.6
								c78.7-55.1,160.4-100.3,245-145.3c37.5-20,103.4-67.7,68.3-118c-35-50-105.5-1.1-139.1,23.8c-35.8,26.5-68,57.5-101.4,86.9
								c-35.4,31-73.1,59.4-111.2,86.9c-78.5,56.8-160.6,108.1-242.6,159.6c-168.5,105.8-328.8,223.8-488.8,341.7
								c-77.7,57.3-157.4,112.4-231.8,174c-37.4,31-74.3,62.9-113.3,91.8c-37.2,27.6-77,55.9-122.1,68.5
								c-40.2,11.2-81.6,14.3-119.5,33.1c-5.8,2.9-2.3,12.5,3.6,9.5c35.3-17.5,73.8-21.5,111.5-31c37.1-9.4,69.5-28.4,101.1-49.6
								c73.8-49.6,137.7-112.1,208.9-165c144.8-107.6,290-215.2,437.7-318.8c148.4-104.1,306-194.2,453.3-299.8
								c69.2-49.6,130.5-106.4,196.1-160.3c28.9-23.8,66.9-56.6,105.2-61.7c34.9-4.7,60.7,24.8,47.5,58.6
								c-15.2,38.9-63.8,59.3-98.5,76.1c-36.5,17.7-71.8,37.7-106.4,58.9c-74.8,45.7-146.2,97-215.9,150
								c-71.5,54.4-141.4,110.8-212.2,166c-70.9,55.3-144,107.7-215.8,161.8c-141.7,106.8-285.7,213.6-420.4,329.3
								c-60.5,52-119.6,107.6-166.8,172.3c-23.1,31.6-43.5,65.7-58.2,102c-11.8,28.9-15,59.2-18.3,90c-3.8,35.6-7.5,74.3-32.3,102.3
								c-25.4,28.8-65.5,43-102.3,50.2c-75.6,14.8-153.6,3.6-198.2-65.3c-42.2-65.1-53.1-150.1-24.5-222.8
								c30.4-77.3,114.2-120,191.6-137.8c35.7-8.2,72.3-11.1,106-26.2C5275.4,5030.1,5271.8,5020.6,5265.8,5023.3"/>
						</g>
					</g>
				</g>
			</g>
		</g>
	</g>
	<g>
		<g>
			<g>
				<g>
					<g>
						<g>
							<defs>
								<rect id="SVGID_15_" x="4687.8" y="3784.1" width="2444.5" height="1913.8"/>
							</defs>
							<clipPath id="SVGID_16_">
								<use xlink:href="#SVGID_15_"  style="overflow:visible;"/>
							</clipPath>
							<path class="st7" d="M5183.2,5200.3c-71.7-52.7-159.9,93.5-97.7,115.7c21.1,7.6,48-4.6,65.8-15.4
								c25.1-15.3,42.2-43.8,47.7-72.4c11.3-58.7-44-88.7-92.5-61.6c-35.6,19.9-95,89-27.7,110.6c15.5,5,25.9-18.3,10.2-23.4
								c-44.1-14.2,21.3-63.8,42.2-70.9c27-9.2,46.6,9.6,43.2,36.7c-3.2,25.5-19.2,50.3-42,62.2c-7.8,4-32.6,17.5-41,8.5
								c-6.9-7.4,2.6-26.7,6-33.6c11.7-23.6,41.8-57.2,69.7-36.7C5180.5,5229.9,5196.5,5210,5183.2,5200.3"/>
						</g>
					</g>
				</g>
			</g>
		</g>
	</g>
	<g>
		<g>
			<g>
				<g>
					<g>
						<g>
							<defs>
								<rect id="SVGID_17_" x="4687.8" y="3784.1" width="2444.5" height="1913.8"/>
							</defs>
							<clipPath id="SVGID_18_">
								<use xlink:href="#SVGID_17_"  style="overflow:visible;"/>
							</clipPath>
							<path class="st8" d="M5130.9,5173.1c-49.8,18.3-111.9,60.8-106.5,120.9c1.5,16.8,17.1,28.5,33.5,27.4
								c71.3-4.9,131.8-60.3,157.8-124.6c8.2-20.2-7.5-46.4-31.1-42.7c-71.4,11-153.6,97.9-143.5,173.4c2.6,19.3,22.3,33,41.2,25.6
								c35.2-13.8,63.7-35.7,89.1-63.5c-15.9-12.7-31.9-25.4-47.8-38.2c-16.2,18.8-28.8,39.9-38.1,62.8c-10.5,26,13.8,47.6,38.8,41
								c8.2-2.2,16.4-3,24.5-6.1c-11.6-15.9-23.1-31.8-34.7-47.7c-25.4,38.6-8.3,70,21.1,99.5c12.7-15.9,25.5-31.9,38.2-47.8
								c-21.5-16.5-42.7-34-61.2-53.8c-10-10.8-20.7-22.9-27.4-36.1c-3.8-7.6-5.9-14.8-3.8-16.6c-15.6-4.7-31.1-9.3-46.6-14
								c16.2,32.8,12.4,73.2,41.4,99.4c25.4,23,59.7,27.3,91.9,19.5c59.7-14.3,120-61.5,137.5-121.6c6.7-23-21.5-40.7-41-33.4
								c-27.9,10.4-50.5,26.4-61.9,54.7c-14.7,36.4,41.3,61.3,56.1,24.6c5.3-13.2,14.6-17.2,27.4-22c-13.7-11.1-27.3-22.3-41-33.4
								c-9.8,33.4-55.6,61.4-86.6,70.6c-15.3,4.5-35,6.3-45.1-9c-12.9-19.5-10.9-49.5-21.5-71c-7.9-16.1-30.3-28.3-46.6-14
								c-77.4,68.1,37.2,163.4,90.2,204c32,24.5,65.4-20.5,38.2-47.8c-3.2-3.2-6.9-6.4-9.1-10.3c-2.8-5.1-1.8-3.9-2.3-3.2
								c15.8-24-4.5-59.3-34.7-47.7c-7.8,3-16.3,3.9-24.4,6.1c12.9,13.6,25.9,27.3,38.8,40.9c7.5-18.6,16.8-34.1,29.9-49.3
								c25.8-30-21.4-67-47.8-38.2c-18,19.6-37.9,34.6-62.8,44.3c13.7,8.5,27.5,17.1,41.2,25.6c-5.5-40.9,49.5-100.4,88.7-106.4
								c-10.4-14.3-20.7-28.5-31.1-42.8c-18.1,44.7-57.7,84.9-107.8,88.3c11.2,9.1,22.3,18.3,33.5,27.4
								c-2.5-27.6,46.1-49.8,67.1-57.5C5189.5,5216.8,5167.9,5159.5,5130.9,5173.1"/>
						</g>
					</g>
				</g>
			</g>
		</g>
	</g>
	<g>
		<g>
			<g>
				<g>
					<g>
						<g>
							<defs>
								<rect id="SVGID_19_" x="4687.8" y="3784.1" width="2444.5" height="1913.8"/>
							</defs>
							<clipPath id="SVGID_20_">
								<use xlink:href="#SVGID_19_"  style="overflow:visible;"/>
							</clipPath>
							<path class="st9" d="M5458.8,5081c7.7,11.8,17,21.9,28,30.7c5.1,4.1,11.5-3.9,6.4-8c-10.3-8.2-18.9-17.7-26.1-28.7
								C5463.4,5069.5,5455.2,5075.5,5458.8,5081"/>
						</g>
					</g>
				</g>
			</g>
		</g>
	</g>
	<g>
		<g>
			<g>
				<g>
					<g>
						<g>
							<defs>
								<rect id="SVGID_21_" x="4687.8" y="3784.1" width="2444.5" height="1913.8"/>
							</defs>
							<clipPath id="SVGID_22_">
								<use xlink:href="#SVGID_21_"  style="overflow:visible;"/>
							</clipPath>
							<path class="st10" d="M5511.9,5025.9c6.4,11,14.8,20.1,25.4,27.1c5.4,3.6,11.9-4.3,6.4-8c-9.9-6.6-17.6-14.8-23.5-25.1
								C5516.9,5014.3,5508.7,5020.3,5511.9,5025.9"/>
						</g>
					</g>
				</g>
			</g>
		</g>
	</g>
	<g>
		<g>
			<g>
				<g>
					<g>
						<g>
							<defs>
								<rect id="SVGID_23_" x="4687.8" y="3784.1" width="2444.5" height="1913.8"/>
							</defs>
							<clipPath id="SVGID_24_">
								<use xlink:href="#SVGID_23_"  style="overflow:visible;"/>
							</clipPath>
							<path class="st11" d="M5584.7,4967.6c5.4,8.7,12.5,15.4,21.3,20.6c5.6,3.3,9.7-6,4.1-9.3c-7.2-4.3-12.8-10.2-17.2-17.2
								C5589.5,4956,5581.3,4962,5584.7,4967.6"/>
						</g>
					</g>
				</g>
			</g>
		</g>
	</g>
	<g>
		<g>
			<g>
				<g>
					<g>
						<g>
							<defs>
								<rect id="SVGID_25_" x="4687.8" y="3784.1" width="2444.5" height="1913.8"/>
							</defs>
							<clipPath id="SVGID_26_">
								<use xlink:href="#SVGID_25_"  style="overflow:visible;"/>
							</clipPath>
							<path class="st12" d="M5641.4,4909.9c7.9,11.5,17.3,21.7,28,30.7c5,4.2,11.4-3.8,6.4-8c-10.1-8.4-18.7-17.9-26.1-28.7
								C5646,4898.5,5637.7,4904.5,5641.4,4909.9"/>
						</g>
					</g>
				</g>
			</g>
		</g>
	</g>
	<g>
		<g>
			<g>
				<g>
					<g>
						<g>
							<defs>
								<rect id="SVGID_27_" x="4687.8" y="3784.1" width="2444.5" height="1913.8"/>
							</defs>
							<clipPath id="SVGID_28_">
								<use xlink:href="#SVGID_27_"  style="overflow:visible;"/>
							</clipPath>
							<path class="st13" d="M5706,4863c6.7,10.7,15.1,19.7,25.4,27.1c5.3,3.8,11.7-4.1,6.4-8c-9.6-6.9-17.3-15.1-23.5-25.1
								C5710.8,4851.4,5702.6,4857.5,5706,4863"/>
						</g>
					</g>
				</g>
			</g>
		</g>
	</g>
	<g>
		<g>
			<g>
				<g>
					<g>
						<g>
							<defs>
								<rect id="SVGID_29_" x="4687.8" y="3784.1" width="2444.5" height="1913.8"/>
							</defs>
							<clipPath id="SVGID_30_">
								<use xlink:href="#SVGID_29_"  style="overflow:visible;"/>
							</clipPath>
							<path class="st14" d="M5779.4,4820.7c7.4,9.4,16.6,16.7,27.5,21.6c6,2.7,10.1-6.7,4.1-9.3c-9.3-4.1-17.1-10.2-23.3-18.2
								C5783.6,4809.5,5775.3,4815.5,5779.4,4820.7"/>
						</g>
					</g>
				</g>
			</g>
		</g>
	</g>
	<g>
		<g>
			<g>
				<g>
					<g>
						<g>
							<defs>
								<rect id="SVGID_31_" x="4687.8" y="3784.1" width="2444.5" height="1913.8"/>
							</defs>
							<clipPath id="SVGID_32_">
								<use xlink:href="#SVGID_31_"  style="overflow:visible;"/>
							</clipPath>
							<path class="st15" d="M5822.8,4782c6.5,13.8,17.1,23.1,32,26.7c6.4,1.6,7.9-8.5,1.6-10.1c-11.2-2.7-19.2-9.9-24.1-20.2
								C5829.5,4772.5,5820,4776,5822.8,4782"/>
						</g>
					</g>
				</g>
			</g>
		</g>
	</g>
	<g>
		<g>
			<g>
				<g>
					<g>
						<g>
							<defs>
								<rect id="SVGID_33_" x="4687.8" y="3784.1" width="2444.5" height="1913.8"/>
							</defs>
							<clipPath id="SVGID_34_">
								<use xlink:href="#SVGID_33_"  style="overflow:visible;"/>
							</clipPath>
							<path class="st16" d="M5879.2,4731.7c6.1,8.4,12.2,16.7,18.2,25.1c3.9,5.3,12.1-0.7,8.3-6c-6.1-8.4-12.2-16.7-18.2-25.1
								C5883.6,4720.4,5875.3,4726.4,5879.2,4731.7"/>
						</g>
					</g>
				</g>
			</g>
		</g>
	</g>
	<g>
		<g>
			<g>
				<g>
					<g>
						<g>
							<defs>
								<rect id="SVGID_35_" x="4687.8" y="3784.1" width="2444.5" height="1913.8"/>
							</defs>
							<clipPath id="SVGID_36_">
								<use xlink:href="#SVGID_35_"  style="overflow:visible;"/>
							</clipPath>
							<path class="st17" d="M5938.2,4699.8c5.4,8.7,12.5,15.4,21.3,20.6c5.6,3.3,9.7-6,4.1-9.3c-7.2-4.3-12.8-10.2-17.2-17.2
								C5943,4688.2,5934.8,4694.2,5938.2,4699.8"/>
						</g>
					</g>
				</g>
			</g>
		</g>
	</g>
	<g>
		<g>
			<g>
				<g>
					<g>
						<g>
							<defs>
								<rect id="SVGID_37_" x="4687.8" y="3784.1" width="2444.5" height="1913.8"/>
							</defs>
							<clipPath id="SVGID_38_">
								<use xlink:href="#SVGID_37_"  style="overflow:visible;"/>
							</clipPath>
							<path class="st18" d="M6003.8,4646.7c6.1,8.4,12.2,16.7,18.2,25.1c3.9,5.3,12.1-0.7,8.3-6c-6.1-8.4-12.2-16.7-18.2-25.1
								C6008.2,4635.3,5999.9,4641.3,6003.8,4646.7"/>
						</g>
					</g>
				</g>
			</g>
		</g>
	</g>
	<g>
		<g>
			<g>
				<g>
					<g>
						<g>
							<defs>
								<rect id="SVGID_39_" x="4687.8" y="3784.1" width="2444.5" height="1913.8"/>
							</defs>
							<clipPath id="SVGID_40_">
								<use xlink:href="#SVGID_39_"  style="overflow:visible;"/>
							</clipPath>
							<path class="st19" d="M6078.2,4598.1c6.2,9.2,13.8,17,22.8,23.5c5.3,3.8,11.7-4.1,6.4-8c-8.3-6-15.2-13-20.9-21.5
								C6082.8,4586.7,6074.5,4592.7,6078.2,4598.1"/>
						</g>
					</g>
				</g>
			</g>
		</g>
	</g>
	<g>
		<g>
			<g>
				<g>
					<g>
						<g>
							<defs>
								<rect id="SVGID_41_" x="4687.8" y="3784.1" width="2444.5" height="1913.8"/>
							</defs>
							<clipPath id="SVGID_42_">
								<use xlink:href="#SVGID_41_"  style="overflow:visible;"/>
							</clipPath>
							<path class="st20" d="M6128.4,4561.6c6.1,11.2,14.6,20.3,25.4,27.1c5.5,3.4,11.9-4.5,6.4-8c-10.1-6.4-17.8-14.6-23.5-25.1
								C6133.5,4549.9,6125.3,4555.9,6128.4,4561.6"/>
						</g>
					</g>
				</g>
			</g>
		</g>
	</g>
	<g>
		<g>
			<g>
				<g>
					<g>
						<g>
							<defs>
								<rect id="SVGID_43_" x="4687.8" y="3784.1" width="2444.5" height="1913.8"/>
							</defs>
							<clipPath id="SVGID_44_">
								<use xlink:href="#SVGID_43_"  style="overflow:visible;"/>
							</clipPath>
							<path class="st21" d="M6180.6,4512.7c6.1,8.4,12.2,16.7,18.2,25.1c3.9,5.3,12.1-0.7,8.3-6c-6.1-8.4-12.2-16.7-18.2-25.1
								C6185,4501.4,6176.7,4507.4,6180.6,4512.7"/>
						</g>
					</g>
				</g>
			</g>
		</g>
	</g>
	<g>
		<g>
			<g>
				<g>
					<g>
						<g>
							<defs>
								<rect id="SVGID_45_" x="4687.8" y="3784.1" width="2444.5" height="1913.8"/>
							</defs>
							<clipPath id="SVGID_46_">
								<use xlink:href="#SVGID_45_"  style="overflow:visible;"/>
							</clipPath>
							<path class="st22" d="M6228.2,4472.7c6.9,9.6,13.9,19.1,20.9,28.7c3.9,5.3,12.1-0.7,8.3-6c-6.9-9.6-13.9-19.1-20.9-28.7
								C6232.6,4461.3,6224.3,4467.3,6228.2,4472.7"/>
						</g>
					</g>
				</g>
			</g>
		</g>
	</g>
	<g>
		<g>
			<g>
				<g>
					<g>
						<g>
							<defs>
								<rect id="SVGID_47_" x="4687.8" y="3784.1" width="2444.5" height="1913.8"/>
							</defs>
							<clipPath id="SVGID_48_">
								<use xlink:href="#SVGID_47_"  style="overflow:visible;"/>
							</clipPath>
							<path class="st23" d="M6274.8,4438.8c6.7,10.7,15.1,19.7,25.4,27.1c5.3,3.8,11.7-4.1,6.4-8c-9.6-6.9-17.3-15.1-23.5-25.1
								C6279.6,4427.2,6271.4,4433.2,6274.8,4438.8"/>
						</g>
					</g>
				</g>
			</g>
		</g>
	</g>
	<g>
		<g>
			<g>
				<g>
					<g>
						<g>
							<defs>
								<rect id="SVGID_49_" x="4687.8" y="3784.1" width="2444.5" height="1913.8"/>
							</defs>
							<clipPath id="SVGID_50_">
								<use xlink:href="#SVGID_49_"  style="overflow:visible;"/>
							</clipPath>
							<path class="st24" d="M6317.9,4407.5c7.7,11.8,17,21.9,28,30.7c5.1,4.1,11.5-3.9,6.4-8c-10.3-8.2-18.9-17.7-26.1-28.7
								C6322.5,4396,6314.3,4402,6317.9,4407.5"/>
						</g>
					</g>
				</g>
			</g>
		</g>
	</g>
	<g>
		<g>
			<g>
				<g>
					<g>
						<g>
							<defs>
								<rect id="SVGID_51_" x="4687.8" y="3784.1" width="2444.5" height="1913.8"/>
							</defs>
							<clipPath id="SVGID_52_">
								<use xlink:href="#SVGID_51_"  style="overflow:visible;"/>
							</clipPath>
							<path class="st25" d="M6380.8,4350.8c8.7,14.1,20.5,24.8,35.3,32.3c5.9,3,9.9-6.4,4.1-9.3c-13.3-6.7-23.4-16.4-31.2-29
								C6385.6,4339.2,6377.4,4345.2,6380.8,4350.8"/>
						</g>
					</g>
				</g>
			</g>
		</g>
	</g>
	<g>
		<g>
			<g>
				<g>
					<g>
						<g>
							<defs>
								<rect id="SVGID_53_" x="4687.8" y="3784.1" width="2444.5" height="1913.8"/>
							</defs>
							<clipPath id="SVGID_54_">
								<use xlink:href="#SVGID_53_"  style="overflow:visible;"/>
							</clipPath>
							<path class="st26" d="M6439.2,4302.9c7.2,12.2,16.5,22.4,28,30.7c5.3,3.8,11.7-4.1,6.4-8c-10.8-7.7-19.4-17.2-26.1-28.7
								C6444.2,4291.2,6435.9,4297.3,6439.2,4302.9"/>
						</g>
					</g>
				</g>
			</g>
		</g>
	</g>
	<g>
		<g>
			<g>
				<g>
					<g>
						<g>
							<defs>
								<rect id="SVGID_55_" x="4687.8" y="3784.1" width="2444.5" height="1913.8"/>
							</defs>
							<clipPath id="SVGID_56_">
								<use xlink:href="#SVGID_55_"  style="overflow:visible;"/>
							</clipPath>
							<path class="st27" d="M6495.7,4267.4c7.7,11.8,17,21.9,28,30.7c5.1,4.1,11.5-3.9,6.4-8c-10.3-8.2-18.9-17.7-26.1-28.7
								C6500.3,4255.9,6492.1,4261.9,6495.7,4267.4"/>
						</g>
					</g>
				</g>
			</g>
		</g>
	</g>
	<g>
		<g>
			<g>
				<g>
					<g>
						<g>
							<defs>
								<rect id="SVGID_57_" x="4687.8" y="3784.1" width="2444.5" height="1913.8"/>
							</defs>
							<clipPath id="SVGID_58_">
								<use xlink:href="#SVGID_57_"  style="overflow:visible;"/>
							</clipPath>
							<path class="st28" d="M6556.6,4223.1c8.7,12,17.4,23.9,26.1,35.9c3.9,5.3,12.1-0.7,8.3-6c-8.7-12-17.4-23.9-26.1-35.9
								C6561,4211.8,6552.8,4217.7,6556.6,4223.1"/>
						</g>
					</g>
				</g>
			</g>
		</g>
	</g>
</g>
<path class="st29" d="M3307.9,3110.4c0.3,0.6,0.6,1,0.8,1.6c0,0.2-0.6,0.5-0.9,0.7c-0.3-0.5-0.7-0.9-1-1.5
	C3306.7,3111.2,3307.4,3110.8,3307.9,3110.4"/>
<path class="st30" d="M3311,3098.2l-7.9,5.5l-0.4,0.3c-6.5,4.3-3.7,10.4-3.4,11c0.5,1,1.1,1.8,1.5,2.4l4.9,6.8l6.7-4.5
	c5.3-3.2,4.7-7.9,4.4-9.3c-0.4-1.6-1-2.8-1.4-3.5L3311,3098.2z M3307.9,3110.4c0.3,0.6,0.6,1,0.8,1.6c0,0.2-0.6,0.5-0.9,0.7
	c-0.3-0.5-0.7-0.9-1-1.5C3306.7,3111.2,3307.4,3110.8,3307.9,3110.4"/>
<g>
	<g>
		<g>
			<defs>
				
					<rect id="SVGID_59_" x="51.5" y="23.4" transform="matrix(0.9999 -1.099624e-02 1.099624e-02 0.9999 -9.2006 24.0408)" width="4260.1" height="1650.7"/>
			</defs>
			<clipPath id="SVGID_60_">
				<use xlink:href="#SVGID_59_"  style="overflow:visible;"/>
			</clipPath>
			<path class="st31" d="M2805.7,1592.5c-36.4-1.6-72.7-3.7-109.1-4.4c-17.4-0.4-34.9,1.7-52.3,2.7c-24.4,1.4-48.8,2.7-73.2,3.8
				c-15.4,0.8-30.9,1.7-46.3,1.6c-35.9-0.3-72.1,1.5-107.6-2.4c-55.2-6.1-110.4-7.4-165.8-8.6c-43.4-1-86.6-6-129.9-8.9
				c-22.4-1.5-44.7-3-67.2-1.8c-37.3,2.1-74.9,2-112.4,1.7c-12.3-0.1-24.6-3.7-36.8-5.5c-44.8-6.6-89.6-13.5-134.5-19.8
				c-32.5-4.6-65.4-8-97.9-12.8c-18.7-2.7-36.9-7.4-55.5-10.6c-11.2-2-22.8-2.8-34-4.2c-19.7-2.4-39.5-5.3-59.2-7.4
				c-29.2-3.3-58.2-6.5-87.4-9.5c-30.5-3-60.9-7.7-91.7-8.7c-16.2-0.6-32.2-4.6-48.4-6.6c-22.8-2.8-45.5-5.2-68.2-7.8
				c-27.2-3.1-54.4-6.3-81.7-9.5c-3.5-0.5-6.9-1-10.4-1.4c-21.8-2.2-43.7-4.1-65.4-6.6c-7.4-0.9-14.4-3.7-21.7-5.5
				c-28.6-6.9-57.1-14-85.7-20.3c-14.1-3.1-28.4-4.9-42.6-7.1c-25.7-4.1-51.4-7-76.9-12.1c-28.8-5.8-58.1-7.8-87.2-11.6
				c-20.7-2.5-41-7.8-61.8-9.7c-28.5-2.7-55.3-13.6-83.4-16.9c-36.9-4.4-72.1-15.4-107.6-24.8c-55-14.5-108.7-33.3-159.8-58.6
				c-20-10-41.7-16.3-62.3-25.1c-23.8-10.2-47.5-20.4-68.6-35.8c-14.5-10.6-29.7-20-44.1-30.7c-20.2-15.1-27.6-35.9-33.7-58
				c-1.9-6.7-2.4-13.8-3.4-20.6c-2.9-20.5,1.8-39.7,10.7-58c0.7-1.4,1.8-2.5,2.1-4c4-17.7,17.4-25.8,31.4-35.4
				c17.8-12.3,33-28.6,47.7-44.7c8.2-8.9,16.5-16.9,26.7-23.5c8.3-5.4,16.8-11.2,23.1-18.5c18.5-21.3,42.4-34.2,67.4-45.7
				c21.3-9.7,42.3-20.3,64.1-28.6c27.3-10.5,54.5-21.6,83.4-27.8c12.7-2.7,26-5.7,37.3-14.2c6.1-4.7,14.7-6.1,22.3-8.5
				c31.3-9.8,62.7-19.2,94.2-28.7c4.8-1.4,9.6-3.2,14.5-3.5c31.8-2.4,63.4-6,95.5-2.9c14.4,1.4,29,0.4,43.4,0.9
				c18.3,0.7,20.9,4.2,26.6,22c8.3,26.1,6.2,53.3,9,79.8c1.2,11.9-1.3,25.9-16.4,33.9c-17.3,9.1-20.7,25.4-13.8,45.1
				c4.9,13.6,9.6,27.2,14.1,40.8c2.6,7.7,1,11.2-7.2,12.9c-21,4.1-42.5,6.3-63.2,11.7c-15.6,4.2-31.5,10.4-45.1,19.1
				c-13.8,8.7-21.7,23.7-22.4,40.5c-0.5,10.3,0.2,21.4,3.7,30.9c9.7,26.7,22.8,51.2,46.5,69.2c28.1,21.3,58.3,39.8,87.8,59
				c10.9,7.1,24.8,10,37.4,14.5c25.1,9.2,51.6,10.8,77.9,13.7c20.8,2.3,41.5,4.6,62.3,7c1,0.1,2,0.3,2.9,0.3
				c33-1,63.8,10.1,95.7,16.1c27.8,5.1,56.4,8.5,84.7,8.8c36.3,0.5,72.6-3.8,109-4.4c18.4-0.3,36.7,2.5,55.2,4.5
				c21.3,2.2,42.6,5.2,63.9,7.4c24.8,2.4,49.7,4.4,74.5,6.4c30.2,2.4,60.5,4.9,90.7,7.3c3,0.2,6.2,0.2,9,1.1
				c26.7,8.4,54.3,6.1,81.6,8.3c15.3,1.2,30.5,3,45.9,1.9c6.4-0.4,12.9,0.5,19.3-0.2c38.4-4.3,76.4-0.5,114.5,4.3
				c25,3.1,50.2,6.9,75.9,5.5c20.3-1.2,40.8,1.4,61.3,2.9c35.8,2.7,71.6,5.8,107.4,9c12.5,1.1,24.8,2.7,37.1,4.1
				c5,0.6,9.9,1,14.9,0.9c34.9-0.8,69.9-2,104.7-2.4c19-0.2,37.9,0.8,57,1.5c3.9,0.2,7.6,2,11.5,2.6c3.4,0.6,7.1,1.9,10.2,1
				c26-7.8,52.7-4,79-4.9c19.9-0.6,40,0.9,59.9-0.2c18.9-0.9,37.7-3.8,56.4-6.1c17.4-2.2,34.5-5.3,51.9-6.6
				c48.8-3.7,97.4-8.4,146.5-7.7c28.3,0.5,56.6-1.8,84.9-5.8c31.4-4.3,63.5-7.1,94.6,5.8c9.6,4,21.7,3.1,32.5,2.6
				c14.9-0.7,29.8-3,44.7-4.8c19.9-2.5,39.6-2.6,59.6,0.7c39,6.3,78.8,9.8,117.5,1.1c24.1-5.4,48.6-4.4,72.7-8.5
				c4.2-0.8,9,0.5,13.4,1c9.4,0.9,18.9,1.9,27.8-3.1c1.7-1,3.8-1.5,5.8-1.5c26.3-0.9,52.9-3.5,79-1.9c50.3,3.2,100.6,7.8,151,4.2
				c14.9-1.1,29.4-5,44-8.1c13.1-2.7,26.5-5.3,39.4-9c25.8-7.5,53.2-6.9,78.4-18c9.8-4.3,21.7-3.2,32-6.4
				c13.9-4.1,27-10.3,40.7-14.9c10.8-3.6,22.2-5.7,33.1-8.9c12.9-3.9,25.5-8.5,38.2-12.7c1.8-0.6,4.1-1.5,5.2-2.9
				c10-13.5,21.3-26.3,29.4-40.8c12.7-22.9,10.6-49,13.8-74.1c3.3-25.9-7.6-45-18.7-65.7c-21.2-39.8-53.6-66.1-94.9-82.4
				c-3.1-1.3-6.2-3.2-8.6-5.6c-6.3-5.9-6.3-8.9-0.4-15c1.7-1.9,3.5-3.7,5.6-4.9c17.8-9.9,33-23.5,49.6-34.9
				c8.8-6,16.4-12.6,21.6-22.2c5.2-9.6,10.8-19.1,16.9-28.2c2.4-3.5,5.9-7.8,9.6-8.8c24.1-6.1,48.5-12.9,73.6-4.1
				c1.5,0.5,2.8,1.1,4.4,1.2c20.8,2.3,41.6,4.5,62.3,6.9c6.4,0.8,12.7,2.3,19,3.5c11.7,2.5,23.4,5.4,35.1,7.6
				c14.3,2.7,28.1,5.5,40.5,14.3c6.7,4.8,15.6,6,23.6,9.3c21.6,9.1,43,18.4,64.6,27.5c0.9,0.4,2,0.8,2.5,1.4
				c26.5,27.5,63.3,43.9,84,77.8c1.6,2.5,4,4.8,4.7,7.5c6.2,26.7,13.8,53.2,7.2,81.1c-5.3,22.3-10.4,44.5-21.4,65
				c-3.7,6.8-4.8,15.1-7,22.8c-1.3,4.2-1.5,9.2-3.7,12.9c-8.8,13.6-18.3,26.9-27.4,40.3c-3.1,4.5-6,9.3-9.3,13.5
				c-14.4,18.7-33.1,32.8-50.6,48.3c-12.7,11.1-26.5,21.1-39.9,31.4c-5,3.9-10.6,7.1-15.8,10.9c-12.5,9.1-24.8,18.3-37.3,27.4
				c-20.9,15.3-41.5,30.9-62.7,45.6c-9.4,6.5-19.7,11.7-29.9,16.5c-23.9,11.1-47.9,21.9-72,32.4c-6.8,3-14.4,4.4-21.4,6.7
				c-4.2,1.4-8.7,2.6-12.6,4.7c-33.6,18.6-69.4,32.7-105.9,44.4c-23.6,7.6-48.5,11-72.8,15.9c-18,3.6-36,6.9-54.1,9.9
				c-8.3,1.3-16.9,0.4-25.2,1.9c-41.8,7.2-84.1,7.9-126.4,8.7c-2.5,0-5.2-0.4-7.5,0.2c-28.4,8.2-57.7-1-86.4,4.7
				c-2.9,0.5-6.1-0.1-9-0.6c-28.7-6.4-57.6-3.4-86.4-1c-7.5,0.6-14.9,1.1-22.5,1.5c-35.3,1.4-70.6,2.9-106.1,3.8
				c-29.8,0.8-59.8,0.5-89.8,1.8c-43.4,1.9-86.6,4.7-130,7.6c-12.8,0.9-25.5,3.9-38.4,4.9c-15.4,1.2-30.9,1-46.4,1.2
				c-10,0.2-19.9,0.2-30,0.3C2805.7,1591.6,2805.7,1592,2805.7,1592.5"/>
		</g>
	</g>
</g>
<g>
	<g>
		<g>
			<defs>
				
					<rect id="SVGID_61_" x="51.5" y="23.4" transform="matrix(0.9999 -1.099624e-02 1.099624e-02 0.9999 -9.2006 24.0408)" width="4260.1" height="1650.7"/>
			</defs>
			<clipPath id="SVGID_62_">
				<use xlink:href="#SVGID_61_"  style="overflow:visible;"/>
			</clipPath>
			<path class="st32" d="M1015.1,1165.9c-23.2-6.2-22.3-3.7-14.9-1.8c4.1,0.6,8.5,1,12.6,1.7
				C1013.6,1165.7,1014.3,1165.7,1015.1,1165.9"/>
		</g>
	</g>
	<g>
		<g>
			<defs>
				
					<rect id="SVGID_63_" x="51.5" y="23.4" transform="matrix(0.9999 -1.099624e-02 1.099624e-02 0.9999 -9.2006 24.0408)" width="4260.1" height="1650.7"/>
			</defs>
			<clipPath id="SVGID_64_">
				<use xlink:href="#SVGID_63_"  style="overflow:visible;"/>
			</clipPath>
			<path class="st33" d="M4183,904.3c-62.9-30.6-129.2-33.4-197.7-41.3C3934.2,857,3883,851,3832,845.1
				c-42-4.9-97.2,24.9-125.4,53.6c-30.6,31.3-53.2,82.2-50.8,126.5c2.6,46,18.2,93.7,53.6,125.4c25.1,22.7,51.1,35.1,80.5,42.6
				c-8.3,4.2-16.6,8.4-25,12.6c-5.9,2.3-11.9,4.9-17.9,7.1c-14.7,5.6-29.6,10.7-44.6,15.4c-32.1,10.2-64.8,18.2-98,24.6
				c2.3-0.1,4.7-0.2,7.4-0.3c-6.7,0.3-14.1,1.9-20.7,2.6c-17.4,2-34.8,3.3-52.3,4.2c-39.4,1.9-78.6,0.1-117.8-2
				c-91.8-5.1-178.5-2.5-269.2,16.3c-35.1,7.3-69.9,15.8-105.2,22.4c-2.9,0.5-7.7,1.9-13,3.3c-0.6,0-4.2,0.4-12.9,1.5
				c-20.4,2.6-40.9,5-61.3,7c-82.2,7.6-164.8,9.3-247.3,7.2c-158.2-4.2-315.7-22.3-473-39.5c-167.3-18.3-334.8-36.6-502.2-54.9
				c-162.1-17.6-324.4-37.7-487.4-45.9c-78-3.9-156.2-4-234.2-8.5c1.6,0.5,3.1,0.8,5,1.4c-2.3-0.6-4.7-1.2-7.1-1.5
				c-1.3-0.1-2.5-0.1-3.9-0.2c-3.1-0.2-6.3-0.8-8.7-1.5c-1.5-0.2-3-0.3-4.4-0.7c-20.1-3.4-40.1-7.8-60-12.4
				c-40.4-9.5-80.3-20.6-120.4-31.4c-41.8-11.2-83.7-22.6-125.6-33.8c23.5-5.7,47.3-10.9,71.1-15.4c41.5-7.8,85.4-47.7,105.6-83.1
				c21.9-38.4,30.8-94.9,16.5-137.5C850,751.5,761,709.5,662.7,728.1c-82.5,15.6-163.4,38.5-241.3,70
				c-85.3,34.3-173.1,72.8-249.4,125c-67.8,46.4-119.6,111.8-117.6,198.5c2,81.6,53.2,156,126.8,189.7
				c89.9,41.2,193.4,58.8,288.6,84.5c186.1,50.2,374,115.3,567.4,128.2c86.6,5.8,173.4,4,260.2,9.5c92.6,5.8,184.8,15.3,277.1,25.2
				c184.2,19.9,368.3,40.2,552.5,60.2c179.3,19.5,358.8,42.5,539.1,50.4c189.7,8.3,375.8-7.3,561.2-48.2c6.5-1.4,43.7-5.2,54.6-9.7
				c1.3-0.1,2.6-0.3,4-0.4c8.3-0.6,16.8-0.9,25.2-1c48.6-1.1,96.9,3.2,145.4,5.3c90.2,4,180.3-5.1,268.4-24.2
				c184.1-39.7,364.6-138.4,496-273.7c54.4-56.1,95-127.9,93.6-208.2C4313.1,1022.1,4260.5,942.1,4183,904.3 M3010.2,1302.1
				c2.6,0.2,16.4-1.8,21.5-2.6C3023.4,1301.6,3014.4,1303.4,3010.2,1302.1 M3921.8,1107.1c-6,4.9-11.5,9.8-15.9,15.1
				c-0.1,0.1-0.2,0.1-0.4,0.2C3914.4,1111.2,3920.2,1107.1,3921.8,1107.1 M4027.8,1225C4027.9,1225,4027.9,1225,4027.8,1225
				C4042.9,1228.4,4049.4,1236.2,4027.8,1225"/>
		</g>
	</g>
</g>
<g>
	<g>
		<g>
			<defs>
				
					<rect id="SVGID_65_" x="51.5" y="23.4" transform="matrix(0.9999 -1.099624e-02 1.099624e-02 0.9999 -9.2006 24.0408)" width="4260.1" height="1650.7"/>
			</defs>
			<clipPath id="SVGID_66_">
				<use xlink:href="#SVGID_65_"  style="overflow:visible;"/>
			</clipPath>
			<path class="st34" d="M3600.8,1253.4c1.2-0.3,2.4-0.5,3.7-0.8C3566,1254.6,3587.1,1255.9,3600.8,1253.4"/>
		</g>
	</g>
	<g>
		<g>
			<defs>
				
					<rect id="SVGID_67_" x="51.5" y="23.4" transform="matrix(0.9999 -1.099624e-02 1.099624e-02 0.9999 -9.2006 24.0408)" width="4260.1" height="1650.7"/>
			</defs>
			<clipPath id="SVGID_68_">
				<use xlink:href="#SVGID_67_"  style="overflow:visible;"/>
			</clipPath>
			<path class="st35" d="M3498,106.4c-21.3-0.3-24,1.2-19.8,1.8c6.5-0.9,13-1.6,19.3-1.8C3497.8,106.5,3497.9,106.4,3498,106.4"/>
		</g>
	</g>
	<g>
		<g>
			<defs>
				
					<rect id="SVGID_69_" x="51.5" y="23.4" transform="matrix(0.9999 -1.099624e-02 1.099624e-02 0.9999 -9.2006 24.0408)" width="4260.1" height="1650.7"/>
			</defs>
			<clipPath id="SVGID_70_">
				<use xlink:href="#SVGID_69_"  style="overflow:visible;"/>
			</clipPath>
			<path class="st36" d="M3662,235.7c10,8.1,10,8.1,19.4,5C3674.1,229.2,3673.7,229,3662,235.7 M1049.1,267.3
				c9.3-14.1,21.5-13.9,31.4-16.5c23.6-6.5,45.7-16.4,68-26.2c26.8-11.8,51.4-28.3,80-36.7c10.8-3.2,20.5-10,31.2-14.4
				c6.8-2.8,14.1-4.8,21.4-6.4c12.8-2.8,24.7-7,36.2-13.7c25.5-14.8,51.4-28.5,77-43c11.5-6.6,24.1-6.2,36.4-6.1
				c14.4,0.1,28.8,1.2,43.1,2.2c25.9,1.9,51.7,4.6,77.5,6.3c38.2,2.5,76.5,4.6,114.8,6.5c28.9,1.5,57.8,2.1,86.7,3.6
				c8,0.4,15.7,3.1,23.6,3.4c16.4,0.7,32.9,0,49.3,0.6c23.9,0.8,47.9,2.4,71.7,3.2c31.3,1,62.7,1.6,94,2.3c13.4,0.3,27,1.2,40.4,1.1
				c16.9-0.1,33.8-0.9,50.7-0.9c14.5-0.2,28.9,0.2,43.4,0.6c30.6,0.9,60.5-6.6,90.9-8c40.8-1.9,81.8-1.9,122.6-2.6
				c11.9-0.3,23.9-0.3,35.9,0.2c13.4,0.5,26.7,1.7,40.2,2.1c23.9,0.7,47.9,2.1,71.8,1.5c72.6-1.8,144.6,5.3,216.5,13.7
				c19.7,2.3,39.8,1.7,59.6,3.5c37.2,3.3,74.3,7.6,111.8,9.5c42.3,2,84.3,7.8,126.6,10.8c27.8,2,55.9,1.3,83.6,2.7
				c26.4,1.3,52.8,4,79.1,5.6c17.8,1.2,35.7,1.7,53.5,1.9c4.4,0.1,9.2-0.7,13-2.7c20.4-10,42.2-11,64.3-10.5
				c43.4,0.9,86.8,1.9,130.2,2.3c28.4,0.3,56.9-0.6,85.3-0.4c9.9,0,19.9,1.4,29.8,2.6c26.8,3.2,53.4,7,80.1,10.1
				c20.2,2.3,40.8,2.4,59.6,12.3c3.4,1.8,7.7,1.5,11.6,2.6c6.2,1.9,12.6,3.5,18.3,6.3c8.4,4.1,11.3,10.6,9.4,19.8
				c-2.3,10.6-7.3,19.6-16.5,25.8c-7.4,4.9-12.6,11.8-18.3,18.6c-10.6,12.6-24,24.5-38.7,31.5c-27.6,13.2-57.4,22.3-85.8,34.2
				c-22.9,9.6-44.9,20.9-67.8,30.8c-5.7,2.5-12.5,3.5-18.8,3.5c-9.4-0.3-18.8-2.4-28.2-3.2c-17.9-1.3-35.8-2.1-53.8-2.9
				c-38.3-1.5-76.7-3.9-115-4.1c-29.4-0.2-58.8,2.5-88.2,3.7c-12.4,0.5-25,0.5-37.4,1c-8.9,0.3-17.9,1.2-26.8,1.9
				c-3,0.3-6.1,0.9-8.9,1c-32.9-0.4-65.8-1.2-98.6-1c-16.4,0.1-33,1.5-49.2,3.4c-23.1,2.9-45.8,0.9-68.8-0.2
				c-5.5-0.3-11.4-2-16.3-0.3c-21.4,6.7-42.6,1.2-63.9,0.6c-7.5-0.3-15.1-1.9-22.4-1c-38.6,5.1-76.4-4.1-114.6-5.8
				c-42.3-1.9-84.7-3.4-126.8-8.4c-43.6-5.1-87.9-2.3-130.9-13c-6.2-1.5-12.9-1-19.3-1.4c-27.8-1.8-55.8-3.1-83.5-5.5
				c-20.8-1.9-41.5-5.1-62.2-7.5c-10.9-1.4-21.9-3.4-32.8-2.9c-35.3,1.6-69.5-7.6-104.3-9.2c-25.9-1.2-51.9-2.9-77.8-4.1
				c-31.7-1.4-63.6-1.4-95.2-3.7c-21.8-1.6-43.4-7.1-65.3-8.7c-25.8-1.9-51.7-1.1-77.6-2.1c-14.4-0.6-28.7-2.8-43.1-3.6
				c-7.4-0.4-15.6-1.2-22.4,1.2c-22.3,8-44.5,2.6-66.7,1.6c-12.3-0.5-24.8,1.1-37.2,1.3c-12,0.1-23.9-0.4-35.8-0.7
				c-9.4-0.3-19.1-1.4-28.4-0.4c-32.2,3.2-63.6-4.6-95.6-5.4c-25.4-0.7-50.8-0.4-76.1-0.6c-4.5-0.1-9-0.6-13.4-0.8
				c-22.9-1.1-45.8-2-68.7-3.4c-19.9-1.1-39.8-2.4-59.7-3.6c-20.4-1.2-40.7-2.6-61.2-3.3c-28.9-1-57.8-1.9-86.6-2.1
				c-15.8-0.1-31.8,1.5-47.7,2C1059.5,269.4,1055.3,268.2,1049.1,267.3"/>
		</g>
	</g>
	<g>
		<g>
			<defs>
				
					<rect id="SVGID_71_" x="51.5" y="23.4" transform="matrix(0.9999 -1.099624e-02 1.099624e-02 0.9999 -9.2006 24.0408)" width="4260.1" height="1650.7"/>
			</defs>
			<clipPath id="SVGID_72_">
				<use xlink:href="#SVGID_71_"  style="overflow:visible;"/>
			</clipPath>
			<path class="st37" d="M1169.4,1161.9c-7.4-6.7-28-12.4-38.4-10.4C1140.3,1165.8,1154,1169.5,1169.4,1161.9 M1559.5,1161.1
				c-4.7,0.1-9.4,0-14,0.2c-20.3,1.1-40.6,2.7-61,3.3c-21.8,0.5-43.5,2.4-65.3,0.3c-8.8-0.9-17.9,0.9-26.8,0.9
				c-24.4-0.1-48.7-0.8-73.1-0.9c-4.4-0.1-8.9,1.1-13.2,2.4c-7.3,2.5-14.4,3-21.8-0.1c-6.7-2.8-13.3-2.6-19.1,3.5
				c3.3,6.3,8.8,5.1,13.5,5.3c19.9,0.8,39.9,1.4,59.7,2c2.5,0.1,5-0.1,7.5-0.1c20.3-1.1,40.6-2.4,60.9-3.1
				c6.4-0.2,12.8,1.1,19.3,1.4c6.9,0.2,13.9,0.1,20.8-0.2c8-0.3,15.8-1.3,23.8-1.9c11.9-0.9,23.8-1.9,35.8-2.4
				c12.3-0.6,24.6-4,37.1,0C1550.2,1173.9,1556,1170.8,1559.5,1161.1 M1595.3,1165.4c7.7,0.7,15,1.7,22.3,1.6
				c43.5-0.2,86.9-2.4,130.1-7.3c24.5-2.8,48.8-0.9,73.1,1.8c15.2,1.8,30.8,1.6,46.3,1.9c31.5,0.6,62.7,1.5,94.1,5.3
				c35,4.2,70.6,5.2,105.9,4c32.1-1,63.6,1.9,95.3,5c23.8,2.3,47.7,4.2,71.5,6.3c18.9,1.6,37.7,3.2,56.6,5.1
				c32.2,3.1,64.4,6.6,96.6,9.8c20.3,2,40.9,2.9,61.1,6.2c39.1,6.3,78.6,4.7,117.9,7.2c29.3,1.8,58.7,1.4,88.1,0.4
				c37.8-1.5,75.6-5.1,113.5-6.9c12.3-0.6,24.8,1.7,37.2,1.9c22,0.4,44,0.3,65.9,0.3c3.5,0,7-0.4,10.5-0.1c33.6,3,66.8-1.6,100-4.6
				c14.4-1.3,29-2.7,43.4-1.9c23.7,1.5,46.6-2.2,69.9-5.2c40.6-5.3,81.1-10.8,122.2-10.4c22.4,0.2,44.7-2.6,67.1-4.2
				c17.9-1.3,35.9-2,53.5-4.4c17.7-2.3,35.1-8.4,52.9-9.4c21.3-1.2,40.9-7.6,61.2-12.4c7.2-1.8,14.9-2.7,22.2-3
				c17.8-0.7,30-9.5,38.8-24.2c3.6-6,6.5-12.4,10.7-18c3.4-4.8,7.7-9.6,12.7-12.3c21.9-11.9,41.1-28.5,65.1-36.6
				c9.4-3.2,18.7-6.9,28-10c7.6-2.5,12.1-7,16-14.2c7.2-13.4,18.6-23.4,34-26.6c5-1,11.1-0.1,15.8,1.9c31.3,13.7,59.6,32.7,85.9,54
				c12.1,9.8,20.1,24.5,29.6,37.2c2.9,4,4.6,8.8,7,13.1c5.6,9.7,6.2,19.7,2.7,30.3c-5,15.1-9.8,30.4-14.8,45.6
				c-6.5,19.6-21.4,31.8-37.8,42.8c-15.6,10.5-34,11.1-50.9,16c-26.8,7.6-54.2,13-81.1,20.3c-10.9,3-21.2,8.4-31.9,12.7
				c-4.2,1.6-8.5,3.6-12.9,3.6c-16.1,0.4-31.5,4-46.9,8.1c-37.7,10.2-76.4,7.3-114.7,6.8c-32.4-0.4-64.7-3.9-97.1-4.4
				c-17.9-0.3-35.8,2.9-53.6,4.1c-17.4,1.2-34.9,1.4-52.3,3c-36.2,3.3-72.3,8-108.7,10.6c-27.4,2-54.8,2.1-82.4,2.1
				c-23.8,0-47.5-2.6-71.5-1.6c-23.5,1-46.9-1.6-70.4-1.6c-30-0.2-60-1.1-89.8,1.4c-51.8,4.1-103.7,4.6-155.5,7.3
				c-29.3,1.5-58.7,4.3-88,6.8c-29.7,2.5-59.7,3.9-89.1,8.5c-23.4,3.6-46.6,5.4-70.1,4.9c-41.8-0.9-83.6-2.1-125.5-3.3
				c-26.5-0.7-52.9-1.7-79.3-1.9c-15-0.1-29.8,1.7-44.8,1.7c-11.8,0-23.7-1.6-35.6-2.2c-32-2-63.7-4-95.7-6.1c-2.1-0.1-4-0.7-6-0.8
				c-30.4-1.9-60.6-3.8-91-5.9c-5-0.3-9.8-1.5-14.7-2.4c-3.4-0.7-6.8-2.2-10.2-2.5c-35.3-2.4-70.5-4.8-105.8-6.6
				c-36.9-1.9-73.8-3.2-110.6-4.6c-5.5-0.2-11,0.2-16.4-0.1c-9.4-0.5-18.8-1.4-28.2-2.1c-7.5-0.7-14.9-1.4-22.4-1.9
				c-58.8-4-117.7-5.7-176.1-13.9c-35.5-4.9-71.4-7.1-107.2-9.5c-26.9-1.8-53.8-1.9-80.8-3.3c-49.8-2.7-99.5-5.5-149.2-9.1
				c-13.9-1-27.5-4.7-41.3-6.9c-27.9-4.7-55.8-10.1-84.5-10.5c-35.1-0.6-69.1-8.6-102-20c-15-5.2-29.1-13.1-42.8-21.2
				c-27.9-16.5-56.1-32.7-76.4-59c-10.1-12.9-20.3-25.9-23.9-42.8c-2.8-13.3-1.3-22,10.2-28.4c19.3-10.9,37.4-24.8,61.6-24.8
				c9.8,0,19.5-3.7,29.3-5.7c7.5-1.6,13.2,0.7,18.9,6.2c6.4,6.2,14.2,10.9,21.2,16.4c7.8,6.1,15.3,12.4,23.3,18.5
				c3.5,2.6,7.3,5.1,11.3,6.9c10.6,4.5,21.2,8.5,31.8,12.7c2.3,1,4.5,2.5,6.8,2.9c19.6,3.8,39.1,7.3,58.8,10.8
				c6,1,12.4,0.4,17.7,2.8c15.3,7.3,30.9,5.5,46.9,4.8c29.5-1.2,59-0.6,88.4-1.3c19.4-0.5,38.9-2,58.3-3c2.5-0.2,5.1-0.5,7.5-0.1
				c24.9,4.7,49.7,2.8,74.6-0.8c3.4-0.5,7-0.7,10.5-0.4c34.8,3.1,69.6-1.5,104.4-1.5c37.3,0,74.7-0.2,111.8,2.4
				c25.2,1.8,50.1,8.2,75,12.8c4.6,0.9,8.7,3.9,12.5,5.6C1611.3,1157.4,1594.4,1150.9,1595.3,1165.4"/>
		</g>
	</g>
	<g>
		<g>
			<defs>
				
					<rect id="SVGID_73_" x="51.5" y="23.4" transform="matrix(0.9999 -1.099624e-02 1.099624e-02 0.9999 -9.2006 24.0408)" width="4260.1" height="1650.7"/>
			</defs>
			<clipPath id="SVGID_74_">
				<use xlink:href="#SVGID_73_"  style="overflow:visible;"/>
			</clipPath>
			<path class="st38" d="M3559,940c2-35.8,2.9-71.8,6.3-107.5c2.4-25.2-0.8-49.6-3.1-74.6c-1.2-12.9-1.9-26-1.9-38.9
				c-0.1-31.9-2.8-63.8,0.9-95.8c0.8-6.3-0.6-12.9-0.6-19.3c0.1-13.4,0.7-26.9,0.5-40.2c-0.1-8.9-1.8-18-1.6-26.8
				c0.7-36.3-11.1-70.8-15.1-106.4c-0.8-7.1-5.7-13.7-7.7-20.9c-1.3-4.3-2.4-10.1-0.6-13.8c4.6-9.5,11.6-17.3,21.8-21.8
				c40.5-18,80.8-36.6,121.4-53.9c14.3-6.1,25.5-14.9,34.8-27.2c4.8-6.2,11.3-11.2,18-15.5c10-6.6,19-4.1,22.1,7.7
				c6.3,23,12,46.4,15.5,70.1c3,20,2.7,40.6,3.6,61c1.6,35.3,1,70.8,4.9,105.8c2.8,25.8,3.4,51.2,2.4,77.2c-0.9,21.3,4,42.6,5.5,64
				c0.9,10.8,0,21.8-0.3,32.7c-0.1,3-1.2,6-0.9,9c3.4,38.4,1,76.6-1,114.9c-0.5,10.4,0.6,20.9,2.1,31.3c1.7,12.4-1,22.4-10.8,30.7
				c-10.6,9.1-20.2,19.1-30.4,28.3c-8.7,7.9-17.1,17-27.1,23.2c-15.5,9.6-30.5,21-49,24.3c-8.3,1.4-14.5,4-18.7,12.4
				c-5.3,10.1-13.5,18.2-23.8,24.2c-15.1,8.6-29.4,18.6-44.3,27.7c-2.9,1.9-6.3,3.2-9.6,3.7c-8.9,1.4-13.7-1.7-14.4-10.7
				c-0.8-9.4-0.3-19,0.1-28.4c0.7-15.3,1.7-30.8,2.6-46.2C3559.9,939.9,3559.5,940,3559,940"/>
		</g>
	</g>
	<g>
		<g>
			<defs>
				
					<rect id="SVGID_75_" x="51.5" y="23.4" transform="matrix(0.9999 -1.099624e-02 1.099624e-02 0.9999 -9.2006 24.0408)" width="4260.1" height="1650.7"/>
			</defs>
			<clipPath id="SVGID_76_">
				<use xlink:href="#SVGID_75_"  style="overflow:visible;"/>
			</clipPath>
			<path class="st39" d="M3662,235.7c11.6-6.7,12.1-6.6,19.4,5C3672,243.8,3672,243.8,3662,235.7"/>
		</g>
	</g>
	<g>
		<g>
			<defs>
				
					<rect id="SVGID_77_" x="51.5" y="23.4" transform="matrix(0.9999 -1.099624e-02 1.099624e-02 0.9999 -9.2006 24.0408)" width="4260.1" height="1650.7"/>
			</defs>
			<clipPath id="SVGID_78_">
				<use xlink:href="#SVGID_77_"  style="overflow:visible;"/>
			</clipPath>
			<path class="st40" d="M1559.5,1161.1c-3.5,9.7-9.3,12.8-16.1,10.7c-12.5-4-24.8-0.6-37.1,0c-11.9,0.6-23.8,1.5-35.8,2.4
				c-8,0.6-15.8,1.5-23.8,2c-6.9,0.3-13.9,0.4-20.8,0.2c-6.4-0.2-13-1.6-19.3-1.4c-20.3,0.7-40.6,2-60.9,3.1c-2.5,0.2-5,0.2-7.5,0.1
				c-19.9-0.6-39.9-1.3-59.7-2.1c-4.7-0.2-10.2,1.1-13.5-5.3c5.8-6.1,12.4-6.4,19.1-3.5c7.4,3.2,14.4,2.5,21.9,0.1
				c4.2-1.4,8.8-2.5,13.2-2.5c24.4,0.1,48.7,0.8,73.1,0.9c8.9,0,18-1.8,26.8-0.9c21.8,2,43.5,0.1,65.3-0.4c20.3-0.5,40.7-2.2,61-3.3
				C1550,1161.1,1554.8,1161.1,1559.5,1161.1"/>
		</g>
	</g>
	<g>
		<g>
			<defs>
				
					<rect id="SVGID_79_" x="51.5" y="23.4" transform="matrix(0.9999 -1.099624e-02 1.099624e-02 0.9999 -9.2006 24.0408)" width="4260.1" height="1650.7"/>
			</defs>
			<clipPath id="SVGID_80_">
				<use xlink:href="#SVGID_79_"  style="overflow:visible;"/>
			</clipPath>
			<path class="st41" d="M1169.4,1161.9c-15.2,7.6-28.9,3.9-38.4-10.4C1141.3,1149.6,1161.9,1155.1,1169.4,1161.9"/>
		</g>
	</g>
</g>
<g>
	<g>
		<g>
			<defs>
				
					<rect id="SVGID_81_" x="51.5" y="23.4" transform="matrix(0.9999 -1.099624e-02 1.099624e-02 0.9999 -9.2006 24.0408)" width="4260.1" height="1650.7"/>
			</defs>
			<clipPath id="SVGID_82_">
				<use xlink:href="#SVGID_81_"  style="overflow:visible;"/>
			</clipPath>
			<path class="st42" d="M1521.5,373.6c-10.6,9.2-12.3,9.2-24.9,1.5C1504.8,368.2,1513.2,372.9,1521.5,373.6"/>
		</g>
	</g>
	<g>
		<g>
			<defs>
				
					<rect id="SVGID_83_" x="51.5" y="23.4" transform="matrix(0.9999 -1.099624e-02 1.099624e-02 0.9999 -9.2006 24.0408)" width="4260.1" height="1650.7"/>
			</defs>
			<clipPath id="SVGID_84_">
				<use xlink:href="#SVGID_83_"  style="overflow:visible;"/>
			</clipPath>
			<path class="st43" d="M3822.8,348.8c0.1-1,0.2-2,0.5-3c0.4,1.8,0.8,2.4,0.7,1.1C3823.6,356.8,3816.1,403.3,3822.8,348.8
				 M3515.3,493.7c0.5,0.9,1,1.7,1.5,2.4c1.7,5.9,4.6,14.2,5.9,18.1c0.5,11.7,0.9,23.2,0.4,34.9c-2.1,6.6-2.3,16.1-3.7,22.4
				c-0.1,0.7-0.5,1.5-0.6,2.2c-0.6-6.7-1-13.5-1.6-20.3c-1.8-22.2-2.3-44.7-5.8-66.6C3512.8,489.2,3514.1,491.5,3515.3,493.7
				 M3863,406.9c-8.5-29.9-21.6-59.2-36.7-86.8c0.3-3.7,0.7-7.5,0.7-11.2c4.1-125.6-105.1-208.4-220.3-215.5
				c-32.8-2-65.7,5.2-97.6,11c-3.6,0.7-7.3,1.3-10.9,2c1,0,1.7,0,2.8,0c-1.1,0-2.1,0-3.1,0c-2.3,0.4-4.7,0.8-7,1.3
				c-4.8,0.9-9.8,0.8-12.3,0.5c-9.2,1.3-18.4,3-27.1,3.7c-58,5.4-116.4,6.5-174.7,5.2c-236.3-5.6-471.7-43.8-707.3-60.9
				c-238.5-17.3-477.6-26.2-716.8-26.4c-114.9-0.1-234.1-5.8-348.3,9.7c-82.2,11.1-148.5,34.7-224.1,68.7
				c-52.2,23.4-104.2,47.8-156.2,71.6c-21.3,9.8-42.6,19-63.1,29.1c-20.3-1.9-40.6,0-58.9,7.5c-74.4,31.2-136.6,75.6-173.3,150.1
				c-32.7,66.5-45,138.7-41.1,212.4c3,56.1,10.5,110.9,7.8,167.2c-0.3,6.7-3.2,34.4-2.6,33.6c-1,6.4-2,12.7-2.6,15.5
				c-5.1,27.9-11.8,55.5-20.1,82.7c-28.2,92.3-28.1,184.5,46.1,256.9c69.8,68,167.1,54.2,255.2,52.3c118.8-2.5,237.5-2.7,356.3-0.4
				c239.7,4.5,479,18.9,717.5,42.7c117.8,11.8,236.1,24.5,354.6,17.2c116.1-7.1,230.4-29.6,345.9-41.3c57.6-5.8,115.4-8.7,173.2-6
				c57.2,2.7,114.6,10.8,171.9,4.6c132.2-14.3,251.5-73.4,364.5-141.1c105.5-63.1,200.6-149.2,256.3-260.4
				C3871.8,682.5,3900.5,538.7,3863,406.9"/>
		</g>
	</g>
</g>
<g>
	<g>
		<g>
			<defs>
				
					<rect id="SVGID_85_" x="51.5" y="23.4" transform="matrix(0.9999 -1.099624e-02 1.099624e-02 0.9999 -9.2006 24.0408)" width="4260.1" height="1650.7"/>
			</defs>
			<clipPath id="SVGID_86_">
				<use xlink:href="#SVGID_85_"  style="overflow:visible;"/>
			</clipPath>
			<path class="st44" d="M1053.6,296c-43.5-0.5-90.6-2-130,18.5c-19,9.9-40.4,20.6-54.6,36.9c-15.3,17.6-20.4,42.1-26.3,64
				c-13.5,50.7-23.6,94.5-17,147.7c7.1,56.6,9.9,113.2,15.8,170c6,58.3,7.7,121.8,4.7,180.6c-1.1,23.4-11.8,45.4-13.8,69.2
				c-1.7,20.6-1,39.8,10.1,57.8c22.2,36.1,60.8,59.3,102,65.7c25.9,4.1,53.9,3.5,80,1.9c30-1.9,57.2-12.3,87.4-12.3
				c61.4,0.1,123.5-4.5,184.9-1.5c61.8,2.9,123.3,7.6,184.7,14.9c58.7,7.1,117.6,6.9,176.5,10.3c57.7,3.2,110.1,34.5,167.5,42.3
				c116.2,15.6,231.9,1.3,348-4.1c22-1.1,39.5,5.9,60.5,8.2c29.6,3.3,61.5-1.5,91.5-0.8c67.6,1.6,134.4,9.5,202.2,9
				c61.2-0.6,121.3-4.2,182.1-7.8c58.3-3.4,117.1-0.2,175.4,1.6c65.7,1.9,131.2,1.4,197,3.4c25.8,0.8,51.5,0.4,76.8-4.8
				c13.3-2.8,26.2-7.2,39.7-9.5c19.8-3.3,27.3-1.6,44.9,4.8c45.6,16.9,103.4,12.3,150,1.6c49.3-11.3,90.7-32.3,121.5-73.6
				c12.9-17.2,24.8-37.1,32.6-57.2c10.1-25.9,6.8-53.2,13.2-79.6c13-54,17.1-112.7,18.7-168.2c0.9-30-0.5-60.2-0.9-90.2
				c-0.3-29.1,4.3-59.6,2-88.5c-1.9-23.5-2.8-49.6-7-72.7c-3.9-21.8-12.7-43.6-18.6-65c-5.8-20.8-4.4-42.1-14.3-61.9
				c-9-17.9-22.6-24.6-41-32.3c-49.8-20.8-112.2-11.3-164.2-5.2c-28.3,3.3-56,10.3-84.6,11.5c-32.5,1.3-65,0.5-97.5,1.1
				c-63.7,1.3-127.3-1.8-191.1-1.1c-123.2,1.4-246.2-0.3-369.5,1.2c-64,0.8-133.2,8.5-196-8.1c-24.6-6.5-47.5-14.4-73.2-16.8
				c-31.2-2.9-62.8-4.4-94.1-6.6c-59-4.2-118.5-10.5-176.9-19.3c-55.8-8.3-111.1-12.9-167.2-18.7c-57.8-6-116.5-2.5-174.6-5.3
				c-59.2-2.8-118.7,0.6-178-1.2c-29.1-0.9-57.8-5.2-87-5.1c-33.8,0-67.6,1.7-101.6,2.2c-56.3,0.7-111.9-19.8-167.2-30.9
				c-18.9-3.8-37.4-7.6-56.5-3.4c-22.8,5.1-41.5,20.9-63.4,25.3c-9.1,1.8-5,15.6,4,13.9c20.2-4.1,34.9-17.5,54.7-22.9
				c29.3-7.9,57.8,1.2,86.7,7c24.3,4.9,48.8,9.4,72.5,17.2c23.9,7.8,44.1,8.6,69.5,8.2c58.3-0.8,115.4-2.1,173.5,2.1
				c57.4,4.1,115.3-3.7,172.5,0.2c109.9,7.5,220.6,3.4,329.7,21.6c48.9,8.2,97.8,11.9,147.1,17.7c58.1,7,118.1,5.4,175.7,15.2
				c23.7,4,45.7,13.8,69.6,17.6c26.8,4.3,54.1,5.8,81.2,6.1c57.1,0.7,114.3-1.5,171.4-2.3c115-1.6,230,1.2,345.1-0.9
				c60.9-1.2,121.6,1.3,182.6,0.9c26.6-0.2,53.2,0.9,79.6-1.9c30.3-3,59.7-9.7,90.2-12.1c50.2-3.9,149.3-21.1,169.8,42.9
				c6.2,19.1,6.6,40.6,12.6,60.3c7.9,26,14.3,50.6,16.2,77.8c1.6,22.5,6.4,45,4.8,67.5c-1.9,29-1.6,57.7-1.4,86.8
				c0.5,55.6-2.7,109.7-7.1,165.1c-2.1,27.2-7.9,53-13.8,79.5c-6.4,29.2-3.1,54.8-17.6,82.9c-28.5,55.8-70.9,89.6-131.8,104.4
				c-28.2,6.8-56.8,8.6-85.7,8.5c-14.6,0-30.1,0.1-44.3-3.5c-11.2-2.9-21-10.9-32.2-13.1c-17.7-3.5-40.1,3.1-57.1,7.2
				c-31.2,7.5-61.1,10.4-93.1,9.4c-60.1-1.9-120.3,0.2-180.2-2.6c-55.4-2.6-110.7-3.7-166.2-3.1c-57.4,0.6-114.6,7.6-172.1,8.3
				c-60.9,0.7-121.7,1-182.4-4.6c-27.9-2.6-55.8-4.2-83.9-4.2c-13.1,0-26.2,0-39.3,0.4c-15.8,0.4-28.7-3.9-43.7-6.8
				c-17.4-3.4-36.7-1.4-54.4,0.1c-29.5,2.5-58.9,2.1-88.4,5.7c-53.8,6.7-109,5.6-163.2,3.9c-57.1-1.6-111.6-8.3-165.2-28
				c-21.6-8-44.2-15.6-67-18.7c-26-3.5-52.1-1.1-78.2-3c-56.1-4.1-111.9-9.7-167.9-14.8c-55.9-5.1-112.4-10-168.5-9.2
				c-57.7,0.8-118.6-4.3-176,2.1c-23.9,2.7-45.8,11.5-70.4,12.4c-31.8,1.1-65,1.9-95.2-9c-22.8-8.3-40.9-22.4-56.7-40.7
				c-21.5-24.9-18.8-55.5-12.9-85.9c2.3-11.9,7.7-23.2,9.5-35.2c1.6-10.7-0.1-22.2-0.4-32.8c-0.7-28.9-1-58-0.8-87
				c0.5-54-7.8-107-10.7-160.8c-2.7-50.7-13.9-101.3-9.5-152.5c2.2-26.6,12.4-50.8,18.8-76.3c9.3-36.4,23-58.6,56.2-77.6
				c43.7-25.1,90.5-26.6,139.9-26.2C1063.1,310.5,1062.9,296.2,1053.6,296"/>
		</g>
	</g>
	<g>
		<g>
			<defs>
				
					<rect id="SVGID_87_" x="51.5" y="23.4" transform="matrix(0.9999 -1.099624e-02 1.099624e-02 0.9999 -9.2006 24.0408)" width="4260.1" height="1650.7"/>
			</defs>
			<clipPath id="SVGID_88_">
				<use xlink:href="#SVGID_87_"  style="overflow:visible;"/>
			</clipPath>
			<path class="st45" d="M967.9,302.4c14.6-5.2,24.8-15,35.5-26c17.1-17.6,43.5-24.4,66-33.3c46.1-18.4,95-26.5,137.2-53.6
				c42.5-27.1,84.8-59.8,135.1-70.3c42.9-8.9,85.5-32,130.4-26.8c20.2,2.3,40.5,10.9,61.4,13.4c24.9,2.9,50.6-0.3,75.7,1.4
				c59.3,4.1,118.6,3.5,177.8,7.4c108.9,6.9,218,8.1,327.1,7.3c228.7-1.8,459.3-15.8,687.5,1.5c56.6,4.3,116.4,3.3,171.6,17.7
				c23.7,6.2,46.6,14.8,70.9,18.9c25.5,4.2,51.8-0.6,76.9,5.1c44.4,10.1,87.6-5.6,132-8.4c57.5-3.8,115.5-2.6,173.2-3.5
				c60.1-0.8,118.3,10.2,177.8,14.5c30,2.2,60.7,1.6,90.3,5.9c13.6,2,32.4,4.6,44.3,12.2c7.8,5,21.4,21.6,18.9,32.8
				c-0.9,4.4-13.9,13-17.1,15.4c-18,14-39.4,22.7-55.9,38.4c-18,17.2-38.8,35.7-60.5,48c-24.2,13.8-51.8,20-76.4,32.9
				c-17.2,8.9-41,17.2-53.9,32.2c-1.9,2.3-2.9,6.1-1,8.7c0.7,1,1.4,1.9,2.1,2.9c5.4,7.4,17.8,0,12.4-7.4
				c2.4,3.5,58.8-29.1,62.7-30.8c22-9.2,44.9-16.2,65.5-28.6c16.6-10.1,32.6-23,47.2-35.5c19.4-16.5,38.5-29.5,59.3-44.2
				c24-16.7,46.6-38,21.9-65.3c-28-31.1-84.5-27.1-122.2-30.2c-53.3-4.4-106.1-10.2-159.3-14.9c-61.4-5.5-124-0.9-185.5-0.4
				c-25.7,0.3-52.8,0.5-78.3,4.2c-27.8,4.2-55,13.7-83.5,8.9c-9.5-1.6-17.7-4.9-27.4-5.6c-14-1.1-28,1.3-42.2,0.3
				c-30.7-2.1-58.9-13.1-88.3-20.9c-51.4-13.6-106.4-12.9-159.1-16.9c-58.5-4.6-117.2-6.2-175.8-6.9c-123-1.4-245.8,0.2-369,2.1
				c-60.7,1-121.3,1.8-181.8,2.2c-59.6,0.3-119.4-3.3-178.9-2c-56.9,1.2-113.1-6.5-169.9-6.7c-62.3-0.2-124.2-6.7-186.5-6.9
				c-28.9-0.2-52.8-10.3-80.5-14.1c-18.3-2.4-42.9,1.6-61,3.8c-9.3,1.2-17,5.2-25.3,9c-15.2,7.2-30,10.6-46.5,13.8
				c-26.8,5.1-49.2,16.6-73.8,27.9c-26.6,12.1-49,32.2-73.8,47.6c-28.7,17.8-60.4,26.3-92.4,35.7c-26.6,7.8-51.9,20-77.6,30
				c-9.9,3.8-15.9,5.3-23.8,12.1c-12.6,10.9-20.5,24.9-37.2,30.9C955.3,291.5,959.1,305.5,967.9,302.4"/>
		</g>
	</g>
	<g>
		<g>
			<defs>
				
					<rect id="SVGID_89_" x="51.5" y="23.4" transform="matrix(0.9999 -1.099624e-02 1.099624e-02 0.9999 -9.2006 24.0408)" width="4260.1" height="1650.7"/>
			</defs>
			<clipPath id="SVGID_90_">
				<use xlink:href="#SVGID_89_"  style="overflow:visible;"/>
			</clipPath>
			<path class="st46" d="M3761.9,220c-17.3,29.1-2.3,70.8,8.2,99.8c8.1,21.8,20.3,41.7,24.7,64.8c5,25.2,2.7,51.2,4.7,76.8
				c7.1,92,0.9,184.2-0.5,276.4c-0.7,46-5.9,89.9-19.3,133.8c-8.4,27.6-18.8,37.5-41.8,53.9c-17.5,12.4-34.2,26.4-52.2,38.3
				c-61.8,41.1-128,74.4-186.6,119.1c-7.3,5.5,0.1,18,7.4,12.4c58.2-44.4,124.6-78.4,186.5-119.1c14.2-9.2,27.8-19.9,41.6-29.6
				c13.6-9.6,30.5-19,41.6-31.7c26.2-29.8,28.2-80.4,33.6-117.4c7.1-47.7,3.9-97.4,5.3-145.7c1.4-47.6,1.8-95.1,1.8-142.9
				c0-22.5-3.4-44.7-4.2-67.1c-0.7-20.4-0.2-40.9-4.2-61.1c-4.6-23.2-16.5-43-24.7-64.8c-9.2-24.4-24.5-63.4-9.6-88.6
				C3779.1,219.3,3766.6,212.1,3761.9,220"/>
		</g>
	</g>
	<g>
		<g>
			<defs>
				
					<rect id="SVGID_91_" x="51.5" y="23.4" transform="matrix(0.9999 -1.099624e-02 1.099624e-02 0.9999 -9.2006 24.0408)" width="4260.1" height="1650.7"/>
			</defs>
			<clipPath id="SVGID_92_">
				<use xlink:href="#SVGID_91_"  style="overflow:visible;"/>
			</clipPath>
			<path class="st47" d="M833.7,769.1c-49.6,1-99-1.8-148.7-1.2c-21.4,0.2-46.8-3.3-67.8,0.9c-20.1,4.1-39.8,16.6-59.4,22.9
				c-20.3,6.5-36.7,15.2-55.6,24.1c-19.7,9.4-36.9,14-54.9,28.1c-8.1,6.4-15.8,14.2-24.7,19.6c-11.8,7.1-24.3,7.9-36.8,12.2
				c-21.1,7.5-41.7,18.6-61.9,28.3c-22,10.5-40.5,25.7-61.1,38.5c-22.6,14.2-44.6,27.5-66.7,42.4c-31.1,21.1-65.7,39.3-76.5,78.3
				c-9.9,35.5-11.2,86.9,3.4,121.3c16.9,39.7,58.5,54.3,92.7,75.2c85.9,52.4,172.6,88.4,274.1,95.7c57.9,4.2,109.3,16.9,162.4,41.4
				c45.8,21,92,32.6,141.8,40.2c54.6,8.3,110.2,10,164.5,19.3c52,8.9,101.8,30.7,153.8,37.8c52.7,7.3,106.4,9.4,159.5,11.4
				c56.7,2.3,111.7,13.7,167.8,22.4c50.7,7.9,102.5,12.1,153.8,14.5c54.1,2.5,108.3,10.4,162.2,15.9c27,2.7,52.2,11.3,79,15.1
				c23.9,3.4,48.3,2,72.4,2.3c56.3,1.1,111.3,13.4,167.7,12.3c57.3-1.1,113.1,6.1,170,9c25,1.3,58.5-6.7,78.8,8.3
				c15.8,11.8,32.7,16.1,52.1,20c99.7,20.4,207.6,9.8,308.8,8.7c58.6-0.6,117.4,0.1,175.9-2.3c54-2.2,107.1-12.3,160.9-13.7
				c56.7-1.5,113.3-1.1,169.9-3.5c27.1-1,54-0.5,81.1-1.4c26.5-0.9,52-7.4,78.5-7.7c110.4-1.2,221.1-4.1,331.3-12.6
				c47-3.5,94.8,0.1,137.7-22.7c44.5-23.5,88.5-49,130.9-75.8c42.9-27.2,86.4-56.1,126.8-86.7c16.5-12.5,34.6-22.8,51-35.4
				c19.4-14.9,34.5-32.7,51.9-49.4c33.6-32.1,62.6-66.5,84.9-107.8c9.2-17.3,20.9-35.4,28.4-53.4c7.4-17.5,8-39.6,10.5-58.3
				c4.2-32.9,9.2-69.2-8.8-99.4c-23-38.4-68.9-53.1-105-74.8c-81.6-49.1-170.3-84.6-267.3-80c-42.9,2.1-84.8-8-126.3,4.1
				c-8.9,2.6-4.9,16.5,4,13.9c41.5-12.2,87.9-2.7,131.2-4c48.8-1.5,95,8.3,140.9,24.3c25.2,8.8,50.3,18.2,73.5,31.6
				c20.8,12,40.4,25.9,61.9,36.5c46.2,23,87,50.3,85.6,107.5c-0.4,19.8-4.5,40.3-7.3,59.8c-3.5,24.7-11.5,39.4-22.2,60.8
				c-20,40.4-44.5,84-78.1,114.4c-14.8,13.5-27.8,28.4-42.3,42.1c-19,18.1-41.5,31.2-62.7,46.4c-37.3,26.8-75.1,52.7-113.1,78.6
				c-37.8,25.8-77.9,49.8-118.4,71.1c-22.5,11.7-42.9,26.6-67.7,33.4c-27.4,7.5-56.3,5.3-84.1,7.4c-102.8,7.3-206.2,13.6-309.3,14.2
				c-46.2,0.3-91.3,7.4-137.2,7.6c-54,0.1-108,4.3-162.1,4.4c-102.6,0.1-203.6,14.7-306.3,15.4c-51.2,0.3-102.6,0.9-153.8,1.4
				c-51.5,0.6-103.8,4-155.2,0.1c-44.2-3.4-108.9,2.8-143.4-29.1c-9.7-8.8-10.4-8.5-23.9-8.4c-28.4-0.1-56.3,0.5-84.6-1.7
				c-51.4-4-101.3-8.2-152.9-7.4c-52.6,0.8-104.3-10.9-157-12.3c-22-0.6-44.2,0.9-66.3-1.2c-25.4-2.4-49.6-11.2-75-14.6
				c-48.1-6.5-97.5-12.4-145.9-16c-49.6-3.8-99.5-5.2-149-10.4c-50.7-5.4-99.9-18.2-150.3-25.4c-48.8-6.9-99.8-3.7-149-7.8
				c-25.8-2.1-53.4-2.7-78.4-9.2c-23.8-6.2-47.6-13.3-71.5-19.5c-97.9-25.6-200.1-22.6-298.3-47.6c-46.7-11.9-88.4-36.5-134.1-51.1
				c-45.3-14.5-89.2-15.9-136.1-21c-98.2-10.5-190.1-57-271.7-110.3c-22.3-14.6-44.4-28.7-53.1-55.5c-7.7-24.1-5.8-52.4-3.9-77.4
				c4.2-57.4,45.8-76,87.3-107.4c19.3-14.6,41-24.1,61.1-37.5c22.9-15.3,44.3-29.6,69.7-40.7c19.8-8.7,37.9-16.5,58.6-22.2
				c16.1-4.4,28.3-14.5,41.2-24.7c19.3-15.5,37-21.9,59-31.6c20.2-8.9,38.3-19.9,60.1-26.5c17.5-5.4,34.2-15.3,51.9-19.2
				c25.6-5.7,54.8-2.3,81.1-2.6c44.9-0.5,89.2,2.4,134.2,1.4C843.1,783.2,842.9,768.8,833.7,769.1"/>
		</g>
	</g>
	<g>
		<g>
			<defs>
				
					<rect id="SVGID_93_" x="51.5" y="23.4" transform="matrix(0.9999 -1.099624e-02 1.099624e-02 0.9999 -9.2006 24.0408)" width="4260.1" height="1650.7"/>
			</defs>
			<clipPath id="SVGID_94_">
				<use xlink:href="#SVGID_93_"  style="overflow:visible;"/>
			</clipPath>
			<path class="st48" d="M827.8,1029.2c-22.5,1.2-46.8,10.6-67.1,19.5c-15.5,6.8-36,18.8-45.7,33.1c-24,35.4,0.2,105.9,25.4,135.1
				c13.7,15.9,36.4,17.7,55.5,24.2c27.8,9.5,52.7,23.3,80.2,33.4c27.3,10.1,51.5,19.1,79.2,27c31.4,8.8,62.5,14.5,94.8,18.9
				c64.4,8.6,131.3,8,196.1,6.2c32.6-1,64.8-6.3,97.4-7.7c37.7-1.6,75.5-1.1,113.3-1.7c71.8-1.3,143.5-3.7,215.4-0.7
				c70.9,3,142.1,9.3,213.2,9.9c69,0.6,139.7-1.7,208.4,4.6c68.1,6.2,131,34,199.8,35.6c33.8,0.9,67.9-0.6,101.7-1.1
				c30.1-0.3,60,3.6,90.1,5.5c69.3,4.7,139.4,0.6,208.9-0.2c141.4-1.6,282.6-0.2,423.9-1.8c70.7-0.8,141.4-2.5,212-4.7
				c63.8-2,130,4.1,192.9-9.4c64-13.8,114.3-53.1,171.9-81.8c29-14.4,60.8-24.6,90.4-38c21.5-9.8,42.2-22.2,52.2-44.5
				c12.1-26.9,9.8-57.4,8.5-85.9c-1-22.5-13.4-32.5-31.7-46.2c-45.2-34.1-111.6-73.6-169.7-72.4c-9.3,0.2-9.2,14.6,0.2,14.4
				c53.1-1.1,113.2,35.2,155.4,65.5c12.3,8.8,27.5,18.7,31.4,34c2.8,11.2,1.5,27.7,1.3,39.3c-0.8,36.2-13.1,62.8-46.5,79.6
				c-44.1,22-90.7,36.7-133.9,60.9c-54.3,30.7-103.9,59.9-167.4,66.4c-58.4,6.1-118.3,2.2-176.9,4.2c-63.4,2.3-126.7,3.4-190.2,4.1
				c-124.2,1.4-248.2-0.2-372.5,1.2c-62.7,0.7-125.3,1-188,2.1c-27.8,0.6-55-1.1-82.7-1.8c-25.3-0.8-49.2-5.4-74.5-5.1
				c-63.8,0.8-128.2,5.4-190.4-10.3c-56.9-14.5-110.4-26-169.3-26.5c-125-1-249.4-7.4-374.2-12.3c-64.2-2.5-128.5-0.7-192.6,0.5
				c-62.3,1.2-124.7-0.1-186.7,6.8c-65.6,7.2-136.1,6-202,0.6c-62.5-5.1-126-16.9-183.9-41c-15.1-6.3-31.1-10.6-45.7-18.3
				c-10.7-5.5-20.2-12.3-31.6-16.2c-33.5-11.5-68.2-13.9-85.4-49c-15.8-32.4-32.6-84.6,3.4-109.1c22.6-15.2,58.6-31.4,85.9-32.8
				C837.3,1043.3,837.1,1028.7,827.8,1029.2"/>
		</g>
	</g>
	<g>
		<g>
			<defs>
				
					<rect id="SVGID_95_" x="51.5" y="23.4" transform="matrix(0.9999 -1.099624e-02 1.099624e-02 0.9999 -9.2006 24.0408)" width="4260.1" height="1650.7"/>
			</defs>
			<clipPath id="SVGID_96_">
				<use xlink:href="#SVGID_95_"  style="overflow:visible;"/>
			</clipPath>
			<path class="st49" d="M3446,652.1c-4.2-31.3-10.5-60.1-29.2-86.2c-21.4-29.7-51.6-43.8-85.1-55.9
				c-122.4-44.2-256.3-59.8-385.9-62.2c-129.4-2.4-257.4,11.7-385.7,25.3c-125.2,13.2-252,22.2-372.2-22.3
				c-35.8-13.2-77.4,16-86.5,50.4c-10.5,40,14.4,73.2,50.4,86.5c222.5,82.1,468.2,10.2,697,2.4c114.3-3.9,229.1,1.1,341,26.5
				c27.9,6.3,55.4,13.8,82.6,22.4c9.2,2.9,22.4,5.3,31.2,11c0.3,1.2,0.4,2.5,0.3,4.2c-0.8,23.1,6,48.2,5.8,71.8
				c-0.3,30.6-4.3,59.5-11.2,89.2c-20.5,88.7,116.2,124.9,136.8,36.1C3450.4,786,3455,718.9,3446,652.1"/>
		</g>
	</g>
	<g>
		<g>
			<defs>
				
					<rect id="SVGID_97_" x="51.5" y="23.4" transform="matrix(0.9999 -1.099624e-02 1.099624e-02 0.9999 -9.2006 24.0408)" width="4260.1" height="1650.7"/>
			</defs>
			<clipPath id="SVGID_98_">
				<use xlink:href="#SVGID_97_"  style="overflow:visible;"/>
			</clipPath>
			<path class="st50" d="M1961.9,444.6c-69.4,0.8-68.3,108.6,1.2,107.8C2032.5,551.6,2031.4,443.9,1961.9,444.6"/>
		</g>
	</g>
	<g>
		<g>
			<defs>
				
					<rect id="SVGID_99_" x="51.5" y="23.4" transform="matrix(0.9999 -1.099624e-02 1.099624e-02 0.9999 -9.2006 24.0408)" width="4260.1" height="1650.7"/>
			</defs>
			<clipPath id="SVGID_100_">
				<use xlink:href="#SVGID_99_"  style="overflow:visible;"/>
			</clipPath>
			<path class="st51" d="M1861.7,955.2c-163.8-27.4-329.3-55.5-496-52.7c-79.5,1.4-157.9,12.7-236.9,21.2
				c-21.1,2.3-42.4,4.3-63.6,5.7c-1.7,0.1-8,0-14.3,0c1.5-15.7-2.6-38.3-2.7-51.5c-0.3-20.2-0.6-40.5-0.9-60.7
				c-1.1-69.4-108.9-68.3-107.8,1.2c1.1,70.9-21.6,194,69.7,216.6c39.9,10,87,0.1,127.1-4.3c46.6-5.1,93-11.6,139.8-15.7
				c187.6-16.8,373.6,13.3,558.1,44.2c28.7,4.9,58-8.4,65.9-38.4C1906.9,995,1890.6,960.1,1861.7,955.2"/>
		</g>
	</g>
</g>
</svg>
