<svg xmlns="http://www.w3.org/2000/svg" viewBox="0 0 4000 3733.1"><title>cookout</title><rect width="4000" height="3733.1" fill="#d6de23"/><path d="M2392.3,1869.6c-3.8,2.6-6.4,4.4-9.6,6.7,3.1,3,5.7,5.4,8.2,7.9-3.2,11.3-.7,20.2,8.3,27.9,3.6,3.1,5.4,8.6,7.2,13.3s4.2,8.3,10.5,10.1c2.1-5.4,5.2-10.2,5.8-15.4,1.7-14.2,1.5-28.6,3.6-42.6,3.9-26.5,5.3-53.3,12.7-79.2,3.3-11.6-.8-14.9-12.6-11.9a19.16,19.16,0,0,1-3.2.9c-10.1,1.8-20.2,3.7-30.3,5.3-7.2,1.2-14.6,1.7-21.8,3-6.6,1.1-8.1,3.8-5,10,6.6,13.4,9.1,28.6,18.2,40.9,1.1,1.4,2.4,3.6,2,5-1.9,7.1,2,12.3,6,18.1M2258.2,2035c7,2.3,11-1.7,15-5.5,20.6-19.2,26.6-44.4,27.9-70.9,1.5-32.7-7.2-64-15.9-95.2a39.5,39.5,0,0,0-1.6-5.2c-1.7-3.8-4.7-4.7-8-2.2a17,17,0,0,0-5.1,5.6c-4.9,9.9-9.4,19.8-14,29.8-.7,1.6-.7,3.6-1.1,5.4-2.9,13.6-6,27.2-8.8,40.9a116,116,0,0,0-2.6,18.5c-.3,9.2.9,18.4.6,27.5-.6,18.6,8.4,34.5,13.6,51.3m-350.1-208c11-13.4,20-27.4,22.1-44.9a8.33,8.33,0,0,1,.7-3.2c6.8-12.9,6.4-26,2.2-39.6-3.2-10.4.8-20.4,7.6-27.6,3.9-4.2,11.8-5.9,18-6.3,20.6-1.3,41.3.4,61.1,6,9.7,2.7,18.3,9.1,27.8,12.8,19.2,7.4,23,23.9,23.3,41s-2.6,34.5-11.2,50.1a6.56,6.56,0,0,0-.8,2.1c-3,22.4-17.4,38.4-30.6,55.2a29.27,29.27,0,0,0-3.5,5.6c-7,15.2-18.1,27.3-29.7,39.1-8.7,8.9-16.8,18.5-25.5,27.4-14.4,14.7-28.8,29.4-43.6,43.6-12.8,12.3-13.1,15,1.6,24.5a88.51,88.51,0,0,0,21.9,10c20.9,6.4,42.5,8.2,64.4,7.8,15.1-.3,30.2.6,45.3.9,16.9.4,33.8.8,50.8.9,3.8,0,7.7-1.6,12.7-2.7-1.7-4.7-2.8-8.5-4.4-12.2-8.9-21.1-10.8-43.1-10.8-65.7,0-18,7.8-33.3,13.2-49.5,5-15,9.7-30.1,14.8-45,3.2-9.4,6.9-18.6,10.5-27.9.5-1.3,1.3-3,2.4-3.5,10.2-4.2,11.5-14.7,16.2-22.8,8.5-14.6,16-29.6,24.9-43.9,7.4-11.9,16-22.9,24.2-34.3,1.3-1.8,2.6-4.1,4.4-4.8,16.3-7,31.6-17.9,51-14.2,9.3,1.7,18.7,1.7,27.9,5.6,5.6,2.4,13.1.1,19,3.8,1.5.9,3.1,1.8,5.2,3-2.6,3.4-4.8,6.2-7.8,10.2,11.7,8.6,21.9,18.3,38.9,14.5s32.2-12.5,48.4-18.3c6.9-8.8,18-9.7,26.9-14.6,12.7-6.8,26.7-12.2,36.6-23.9,8.1-9.6,18.7-13.6,31.6-11.2,7.5,1.4,15.3,1,22.9,1.9a20.69,20.69,0,0,1,9.1,3.2c5.1,3.6,10.6,4.4,16.6,5,4.9.4,9.7,2.5,14.4,4.1,4.2,1.4,9,2.1,12.2,4.8,5.1,4.2,9.4,9,16.6,9.4a4.37,4.37,0,0,1,2.9,3c.8,7.4,4.8,14.1,1.7,22.4-4.4,12-6.9,24.7-10.4,37-4.9,17.3-10.3,34.5-14.7,52-5.1,20.6-9,41.6-14,62.2-6.7,27.6-6.7,56-10.2,84-.7,5.4-.2,11-.8,16.5-.4,4.1.3,8.2,4.5,8.7,2.5.3,6.7-2,8.1-4.3a254.75,254.75,0,0,0,15.3-28.1c8.7-19.4,17-39.1,24.9-58.9,6.1-15.4,11.2-31.1,17.2-46.6,4-10.3,8.5-20.3,12.9-30.4a5.7,5.7,0,0,1,1.9-2.6c9.7-5.8,10.2-16,10.9-25.3,2-26.4,3.2-52.8,4.4-79.2.5-10.2,4-18.5,12.2-24.8,6.4-4.9,13-6.2,20.7-3.9,10.5,3.1,21,6.3,31.7,8.5,4,.8,8.6-.6,12.9-1.4,3.9-.8,7.7-3,11.6-3.1,14-.5,27.9-.3,41.9-.4,13.6,0,27.2,0,40.8.1,20.6.1,41.2.5,61.8.3,18.4-.1,36.8-.9,55.2-1.3,29.8-.5,59.6-.7,89.4-1.3,18.4-.4,36.7-1.3,55.1-2a578,578,0,0,1,95.7,4.7c12.7,1.7,25.6,1.8,38.4,3.2,33.3,3.6,66,10.7,98.7,17.3,14.9,3,28.2,8.9,37.1,23.2,5.4,8.6,12.9,15.8,16.5,25.6a24.6,24.6,0,0,1,1.7,6.3c.7,6.6-.9,8.9-7.7,9.3-10.3.6-20.6,1.2-30.9.4-21.6-1.7-43.1-4.9-64.8-6.4-20.5-1.4-41.2-1.5-61.8-1.9-17.3-.3-34.6-.8-51.9-.2-20.2.6-40.3,2.2-60.5,3.3-11,.6-22,1-33.1,1.6-8.6.4-9.7,1.5-11.1,10.2a48.53,48.53,0,0,0-.8,5.5c-1.1,19.4-1.8,38.8-3.2,58.2-1,14.3-2.9,28.5-4.4,42.8-1.6,14.9-4.9,29.9-4.4,44.8.7,20.7-1.5,41.1-3.5,61.6-1.1,11.3-1.4,22.7-2,34a18.29,18.29,0,0,0-.2,3.3c1.3,24.9,1.8,49.9,4.4,74.7,1.6,15.2,6,30.1,9.8,45,2.3,9.2.5,14.4-8.5,17-6.3,1.8-13.3,4.1-19.4,2.9-12.7-2.3-24.4,1.6-35.5,5.1-14.8,4.8-25.4-.7-34.8-9.9-10.2-10-15.8-22.3-17-37.2-1.1-12.7-5.5-25.1-7.6-37.7s-3.7-25.5-4.7-38.2c-2.2-29.7-4.5-59.4-5.5-89.2-.8-23.5-.1-47,.9-70.5,1-24.2,3.3-48.3,4.7-72.4.8-13.9.5-27.9,1.5-41.8.7-9.4-2.3-11.7-11.2-12.5-16.8-1.5-33.7-2.5-50.5-4.2-14.3-1.5-28.5-3.5-42.6-5.7-9.8-1.6-19.4-4-29.2-5.9-8-1.6-12,1.1-13.4,8.9-.6,3.6-.8,7.3-1.1,11-1.1,16.5-3,33-2.8,49.4.2,12.7,3.1,25.4,4.8,38.1.3,2.2,2.1,4.6,1.4,6.3-3.2,8.3-.8,16.7-1.2,25.1-.6,14.2-.8,28,5.3,41.8,5.8,13.3,9,27.9,12.6,42.1,9.9,39,30.7,70.4,63.9,93.3,3,2.1,6.3,4,8.9,6.5,4.8,4.5,3.1,12.4-3.3,14a28.14,28.14,0,0,1-12.9.2c-9.5-2.4-18.7-4.2-27.7,1.2a7.82,7.82,0,0,1-4.3,1c-16.6-.2-33.5-.2-49-6.4-10-4.1-19.4-10.6-27.8-17.5-16.3-13.4-28.8-30.2-39.9-48.2-6.2-9.9-13.1-19.5-20.1-28.8-1.7-2.3-6.2-5-7.9-4.2-2.8,1.3-5.8,5.1-6,8.1-.5,7.5-4.7,14.6-1.1,22.7,1.2,2.7-1.3,8-3.6,11a31.4,31.4,0,0,0-6.8,18,44.09,44.09,0,0,1-9.7,24.2c-8.6,11.1-16.8,22.3-28.5,30.4-9,6.3-19.1,9.2-29.5,11.6-6.4,1.4-12.9,2.3-19.3,3.9-9.6,2.4-18.7,5.9-29,1.7-4.7-1.9-11-1.1-16.3,0-17.4,3.4-31.9-2.9-44.9-13.4a96,96,0,0,1-29.9-41.5c-4.6-12-9.6-23.8-12-36.5a67.5,67.5,0,0,0-2.9-9c-6.4-.5-9.1,2.6-10.5,7.2-6,19.3-17.8,35.3-28.9,51.8a11.45,11.45,0,0,1-3,3.2c-13.6,9.3-27.1,18.8-41,27.7-3.5,2.3-8.4,4.2-12.4,3.7-15.4-1.7-29.9,4.1-45,4.2-16.9.2-33.7.1-50.6-.3-6.2-.1-12.4-1.5-18.6-2.1-15.6-1.5-28.5-9.1-41.5-17-3-1.9-6.5-4-9.9-4.2-10.3-.6-20.9-2-30.8.1-19.4,4.1-38.7,3.1-58.2,3.2-50.9.2-101.4-5-152.1-8.9-5.5-.4-10.9-1.8-16.4-2.6-12.6-1.7-18.1,2.4-18.8,15.1-.4,7.7.6,15.4,1.1,23.1.5,7.3,1.5,14.6,1.7,22,.3,10.9-4.4,15.4-15.6,14.6-11.5-.8-22.4,0-33.4,4.9-8.5,3.9-18.1,5.9-27.4,7.3a79.79,79.79,0,0,1-23.9-.2c-3.7-.6-6.9-4.7-10-7.7-2.3-2.2-3.4-6.7-5.9-7.5-10.3-3.3-11.5-11.9-12.6-20.2-1.4-10.9-1.9-22-2.5-33-1.3-27.9-2.7-55.9-3.6-83.8-.4-12.5.3-25,.4-37.5,0-21-.2-41.9-.1-62.9,0-11.8,0-23.6.6-35.3,1.6-36,3-72,5.5-108,1.7-25.3,4.2-50.5,8-75.5a190,190,0,0,1,13.4-45.1c2.2-5.1,5.8-7,11.1-7.4,23.4-2,46.3,1.8,68.7,7.2,12.3,2.9,26.3,5.5,35.1,16.6,4,5,8.8,11.1,9.2,17,1.8,26.6,5.1,53.4-1.5,80-2.3,9.2-1.8,19-2.5,28.6-.6,7.3-1.3,14.5-1.6,21.8.2,5.3,2.9,8.7,7.5,11.1m-708.2,166.2c12.5,2.6,14.9,1.5,18.1-7.4,7.6-21.1,8.9-43.1,9.3-65.2a60.22,60.22,0,0,1,1.1-12c2.7-11.4,1.7-22.5-2.3-33.5-1.3-3.7-2.9-7-7.3-7.1s-7.5,1.9-9.6,6c-5,9.4-5.9,19.5-6.1,29.9,0,5-1.5,10-2.1,15-1.1,9.1-2.1,18.1-2.8,27.2-.3,3.9.5,7.9.6,11.8.4,11.8.7,23.4,1.1,35.3m398.8-84.6c.5-5.3-1.8-22.5-3.9-29.5-6.6-21.9-19.9-40-32.6-58.4a158.93,158.93,0,0,0-12.9-16.5c-5.8-6.4-12.2-5.1-15.4,2.9a92.05,92.05,0,0,0-3.6,12.7c-2.8,11.7-5.2,23.4-8.1,35.1-3.4,13.8-10,27-9.4,41.7a12.66,12.66,0,0,1-1.7,6.3c-4.9,8.2-5.4,17.5-5.7,26.4-.7,22.2,0,44.4-2.8,66.5-.1,1.1-.2,2.5.4,3.2,7.8,8.7,3.9,21.2,10.1,30.7,5.2,7.9,7.7,17.4,12.7,25.5,7.3,12,14.1,12.7,25.1,4.1a16.11,16.11,0,0,0,4-3.8c8.7-14.5,18-28.6,25.4-43.7,4.8-9.7,6.7-20.9,9.9-31.4a180.22,180.22,0,0,0,7.8-47.7c0-7.6.3-14.9.7-24.1m-545.4,90.8c-4,1.6-6.5,1.9-7.9,3.4-6,6.4-13.1,12.4-17.1,19.9-7.2,13.3-17.7,23.5-28,33.9-12.4,12.5-25.6,24.1-38.1,36.5-7.5,7.5-13.8,16.2-21.4,23.6-20,19.5-39.7,39.5-63.4,54.7-18.3,11.7-38.1,19.3-59.6,21.9-13.9,1.7-27.9,2.3-41.8,3.2-20.4,1.4-40.4-1.5-60.3-5.6-11.4-2.4-22.7-5.1-33.7-10.1-12.3-5.5-18.2-15.4-24.6-25.6-3.9-6.2-6.4-13.3-10.4-19.3a61.29,61.29,0,0,1-10.7-37.4c.8-21.2.3-42.5,1.1-63.7.4-9.9,2.6-19.7,3.4-29.6.6-6.9-.6-13.9.5-20.7,1.4-9,4.2-17.8,6.4-26.7,3.1-12.9,5.8-25.8,9.3-38.6,4.5-16.3,9-32.7,14.9-48.5,6.1-16.4,14.6-31.9,20.6-48.4,9.9-27.2,26.3-50.6,42.4-74.2,5.3-7.8,12.7-14.1,19.3-20.9,5.8-6.1,11.3-12.7,18.1-17.6,8.8-6.4,18.3-12.6,28.3-16.6,12.6-5,26.4-6.9,39.1-11.5,19.2-6.9,38.9-7.6,58.8-6.1a181,181,0,0,1,19.6,2.5,56.24,56.24,0,0,1,25,11c9.5,7.5,19.9,13.9,29.6,21.3,7,5.3,12.2,12.7,18.3,18.6,12.3,11.7,16.5,28.6,28.9,40,4.7,4.3,6,12.4,8.5,18.8,2.3,5.8,3.7,11.9,6.3,17.5,5.1,11.3,4,18.6-6.5,25.2-7,4.5-14.9,8.5-22.9,10.2-12.1,2.6-24.8,3-37.2,4.3-12.8,1.3-25.6,1.8-38.3,3.7-18.3,2.7-35.1-1-50.9-10-9.3-5.3-16.6-20.2-14.1-30.9,1.7-7.3-1.8-13-4-19-1.6-4.5-5.6-3.6-9.1-1.1-10.7,7.5-16.7,18.3-21.3,30.1-3.7,9.2-8.1,17.9-14.8,25.4a31.8,31.8,0,0,0-5.5,9.4c-6.1,15.7-12.6,31.3-17.7,47.3-5.8,18.2-15,35.3-16.9,54.6-.6,6.2-1.7,12.3-2.2,18.6-.6,8.4-.3,16.6-3.9,24.7-2.3,5.4-1.4,12.3-2.1,18.5-1.6,15-3.4,29.9-4.8,44.9a43.71,43.71,0,0,0,1,13c2.1,10,5.3,19.9,6.8,30,2.3,15,13.5,20.2,25.8,11a68.56,68.56,0,0,0,9.7-9c14.2-15.3,29.1-30,40.8-47.7,6.2-9.3,15.2-16.9,23.2-25,16.3-16.4,32.8-32.7,49.3-48.9,10.7-10.5,20.9-21.4,35.1-27.8,7.9-3.6,14.4-10,21.7-15,2.7-1.8,5.7-4.5,8.7-4.5,15.8-.2,30-7.2,45.2-9.8,8.3-1.4,16.7-2.5,25.1-3.5,4.9-.6,8-2.5,9.1-7.9,4.4-21.6,8.7-43.2,13.8-64.6a132,132,0,0,1,9.4-25.7c8.3-17.6,17-34.9,26.2-52.1a60.26,60.26,0,0,1,26.5-25.4c6.6-3.3,11.9-6.7,13-14.9.6-4.3,4.7-6.7,8.5-9.3,11.9-8.1,25.5-4.1,38.2-6.5,8.6-1.6,17.6-.6,26.3-1.6,18.1-2.2,33.3,3.1,46.2,15.8,5.2,5.1,11.1,9.7,16.4,14.8a73.44,73.44,0,0,1,9.5,10.6c9.7,14.2,19.2,28.5,28.7,42.8,13.1,19.7,22.9,41.1,31.2,63.1,3.3,8.8,4,18.6,6.5,27.8a43.26,43.26,0,0,0,5.7,13c3.4,5,8.9,4.2,11.2-1.3,1.7-4,2.5-8.5,3.4-12.8,5.6-26.6,12.1-53,23.7-77.8,5.6-12,11.2-24,16.1-36.2,6.2-15.7,18.9-26,29.8-37.9,3.4-3.8,7.5-7.1,10.6-11.1,11.9-15.5,28.1-18.1,45.6-14.8,7.8,1.5,15.1,2.1,22.9.7a99.17,99.17,0,0,1,15.4-1.5c3.2-.1,7-.2,9.7,1.2,8.5,4.3,17.1,8.7,24.9,14,11.5,7.8,22.8,16,33.7,24.7,5.1,4,9,9.5,13.4,14.3,1.2,1.3,2.2,3,3.7,4.1,15.5,11.5,28,25.8,39.4,41.3,7.6,10.4,15.4,20.6,22.6,31.2,4.3,6.4,7.6,13.4,11.3,20.1a20.88,20.88,0,0,1,1.9,4c6.8,24.3,17.5,48.1,15.1,73.9-2.1,21.9-.2,44.1-5.1,65.7-1.7,7.5-3.2,15.1-5.3,22.6a159,159,0,0,1-40.7,68.5c-12.2,12.2-25.5,24.8-42.4,31.1a169.58,169.58,0,0,1-29.6,8.5c-14.1,2.4-28.4,3.3-42.7,4.9-12.4,1.4-24.8,2.9-37.2,4.2-5.5.6-11.1,1.2-16.5.6a230.82,230.82,0,0,1-50.5-11.4,29.19,29.19,0,0,1-6.8-3.5c-3.7-2.4-7-5.5-11-7.4-23.9-11-33.7-33.8-45.6-54.7-8.5-14.8-12.6-31.3-15.4-48.1-.2-1.1-.1-2.4-.8-3.2-1.8-2.4-3.6-6-6.1-6.6-4-1.1-6.1,2.6-8,6.1-8.2,15.1-15.9,30.6-25.5,44.9a196.7,196.7,0,0,1-38,42.4,68,68,0,0,1-40.7,15.6c-25.3.9-49.3,8.1-74.1,11.5-8.7,1.2-17.5,2.2-26.3,3.2a14.49,14.49,0,0,1-5.5-.2c-26.2-7.4-51.4-17-67-41-10-15.4-18.6-31.7-20.4-50.7-.9-9.8-2.9-19.5-4.9-29.2-.8-4.6-3-8.8-5.1-14.2" fill="#231f20"/><path d="M1489.71,1019.74l-340.79,16c-56.83,2.6-113.57,5.37-170.4,8-27.13,1.3-54.34,2.44-81.5,3.87-10.23.56-21.15,1.46-30.74,4.81a25.42,25.42,0,0,0-15.81-5.89q-227.65-7.14-455.24,0a26.41,26.41,0,0,0-10.4,2.35c-3.53-1.47-7-3.06-10.49-4.66-30.24-14.17-57.16,30.48-26.67,44.74,134.41,62.78,281.08,57.53,422.49,29.09a29.09,29.09,0,0,0,11.15,15.89c99.07,71.89,229.61,67.23,345.47,55.9,68.52-6.66,137.44-16.2,204.69-31.44,65.52-14.82,116.21-52.92,171.07-89.75,19.75-13.51,15-50.11-12.83-48.89" fill="#ee4036"/><path d="M1642.19,855.16c-1.47-23.35-26.73-33.56-44.46-18.81a42.94,42.94,0,0,1-20.65,9.29c-2.94-9.69-6.47-19.4-13.28-27-19.66-21.76-52.38-16.19-68.87,6-8.83,11.74-11.69,25.35-10.55,39.88a36.22,36.22,0,0,0,.34,3.68,75.85,75.85,0,0,0-11.38-5.4,379.67,379.67,0,0,0-92-21.95c-24.93-2.67-65.89-4.59-72.08,27.47-1.69,8.86-.54,15.68,2.64,21.18-15.49,8.5-28.19,22-46.89,26.37l-1.16.25c-12.93-6.81-24.6-21.39-35.1-29.16-2.64-7.45-5.71-14.88-11.13-20.46-19.18-19.73-41.08-8-58.51,7.18-11.14,4.11-20,12.86-22.6,26.69a27.78,27.78,0,0,0,.68,12.86q-2.52,2.91-5,5.84c-5.3,6.36-9.48,14.53-15.19,10.18s-9.65-16.53-13.34-22.63c-5.61-9.32-11.92-18.3-20.38-25.14-10-8.09-27.19-12.15-36.88-.4a100.88,100.88,0,0,0-11.08,16.7c-11.94,4.52-17,17.46-15.14,29.09a29.81,29.81,0,0,0-2.79,5.07c-6-3.19-11.7-6.94-17.81-9.75-15.42-7.05-31.5-8.74-48.26-6.66C922.43,919.1,893.57,932,869.52,948A232,232,0,0,0,835.78,975c-9.77,9.42-17.87,21.13-28.58,29.53-19.62,15.25-32.78-15.6-43.16-29.09-15.19-19.68-34.51-33.46-57.19-42.81a20,20,0,0,0-7.22-5.85c-17.22-7.65-33.94-11.7-52.77-9a13.57,13.57,0,0,0-2.15.42c-11.43-1-23-1.47-34.68-1.38l-2.71-.91c-35.06-12.22-80.38-.32-114,11.24-.82.3-1.81.68-2.5,1-26.31,4-52.24,9.86-76.75,20.47-28,12.14-54.85,33.84-86.45,34.36a26.28,26.28,0,0,0-16.08,5.24c-9.51,2.86-17.23,10.68-17.14,23.58.11,17.13,7,29.55,17.58,38.41,5.5,5.7,13.14,9.53,21.58,12.08,13.83,5.09,29.48,7.24,43.76,7.54,22,.46,43.9.06,65.83-.75,10.34.19,20.68.32,31,.32,27.57,0,54.75-2.22,82-5.62,96.34-3,192.06,2.67,288.46,6.36,104.11,4,207.23-2.31,311-10.12,101.54-7.57,204.49-10.8,305.39-24.15,46.39-6.11,92.7-19.25,128.46-50.94C1625.93,953,1645.22,903.32,1642.19,855.16Z" fill="#a56942"/><path d="M995.6,881.56c9-23.57-19-34.91-37.2-30.55-12.82,3.07-18.49,12.82-28.85,19.19-11.55,7.11-27,10.57-39.4,16.47,15.85-37.06-22.56-47.51-51-36.44-28.84,11.23-39.84,26-70.15,8.78-11.67-6.65-.09-21.14-15.55-3.48-3.92,4.48-5.33,14.67-9.91,18.27-1.43,1.12-31.95,15-32.53,15.13-18.23,3.52-22.32-5.83-26.5-17.61-5.44-15.39-3.7-33.19-26.26-35.6-12.24-1.31-26.34,8.82-35.49,15s-26.14,20.35-39,11.38c-1.77-1.23-4.85-17.54-8-21.43-8.39-10.3-20.88-14.44-34-12.49-22.33,3.31-43.66,53.53-60.62,43.32-20.22-12.15,12.9-56.11-21-65.4-27.68-7.58-32,20.2-39.9,37.92-9.49,21.35-47.63,58.09-49.64,13.07-.91-20.47,4.88-57.39-31.88-44.71-14.67,5.06-20.41,23.36-30.74,33.17-7.8,7.4-17.07,11.5-23.85,21-20,27.88-89.78,166.49-35.14,175.31,22.45,3.63,18-11.42,29.38-20.82,9.45-7.79,25-20.54,35.9-27.85,18.78-12.64,45.22-18.16,66.37-25.4,21.76-7.44,44.29-13.13,66.34-19.66,21.43-6.36,44.74-5.19,65-13.44,3.19-1.3,3.39-6.34,8.2-8.3,7.19-2.92,17.84-2.85,25.82-3.89a312.42,312.42,0,0,1,57-2.42c32.59,1.66,67.22,7.46,97.31,20.21,20.45,8.66,22.13,15.57,34.16,32.73,3.13,4.47,24.59,31.34,21.76,22.75,8.8,26.45,31.47,27.77,49.89,11.6,8.82-7.74,13.12-18.52,21.77-26.65,4.42-4.15,9-8.17,14.58-10.53,12.56-5.3,11.36-1.68,24.16-2.17,33.61-1.26,48.67-11.38,73.84-31.76C959.6,920.72,986,906.74,995.6,881.56ZM670.08,898.24m201.75,28.84" fill="#ffe78f"/><path d="M1541.94,743.3c-53.91,34.45-124.42,47-186.59,57.39-74.64,12.47-149.3,14.79-224.78,16.12-72.26,1.13-144.56,1.53-216.72-.6C872.18,815,830.39,813,788.64,810c-4.59.7-9.15,1.53-13.75,2.2-16.94,2.59-34.3,1.32-51.41,2.28-13.89.76-28.07,1.56-41.91,0-12.29-1.42-24.24-2.15-36.49-4.13-25.7-4.21-51.31-7.83-77.27-10.41-14.57-1.48-29.53-.08-43.92-2.06-22.48-3.13-43.83-11.74-66.22-14.27-11.05-1.29-21.79-3.47-32.84-3.47-9.75,0-20.67.9-29.65-4-2.92-1.55-5.54-4-8.33-5.94-4.72-3-7.6-3-12.67-4.12-6.41-1.44-10.61-6.85-15.25-11-5-4.38-9.87-9.46-15.15-13.38-7.43-5.64-15.68-8.41-22.29-15.21-4.16-4.26-10.26-7.88-13.56-12.56a184,184,0,0,1-15.18-27c-3.17-7.21-4.28-15.87-6.93-23.33-.33-1-.61-1.93-.85-2.89a3.22,3.22,0,0,1-2.23-1.11c-10.24-11.49-12-24.45-9.25-37.3a42.78,42.78,0,0,1,6.76-19.57c.61-.93,1.26-1.82,1.88-2.74,1.38-2.55,2.85-5.06,4.37-7.51.34-1.05.66-2.11,1-3.16a9.38,9.38,0,0,1,.11-2,46.79,46.79,0,0,1,2.85-8.54l.78-.95c.43-.54.89-1.06,1.36-1.57A35,35,0,0,1,301.41,561l.06-.1a3,3,0,0,1,.95-.91A47.7,47.7,0,0,1,316,550.76a33.23,33.23,0,0,1,4.37-6c9.34-9.43,20.23-17.49,29.52-26.79,2.45-2.42,4.34-5.1,6.64-7.46,2-3.48,4-6.91,5.94-10.31,17.11-29.1,38.81-56.95,64.93-78.73,50.61-42.13,109.92-66.61,171.67-88.13q8.1-2.8,16.22-5.57c3.7-2.24,7.39-4.5,11.05-6.83,8.22-5.23,16.82-11.2,26.24-14.46,6.84-2.41,14.27-2.77,21.07-5.05,6.62-2.21,12.81-5.69,19.48-8,10.24-3.56,20.34-6.31,30.36-10.51a160.82,160.82,0,0,1,17.44-6.17q8.57-4.35,17.14-8.77c34.71-17.9,72.28-45.55,112.34-46.93,12.21-.47,25.18,2.75,37.26,5.67,4.47-.07,9.07.34,13.54.27,3.44,0,6.83-.27,10.36-.52,1-.08,6.23-.62,8.9-.86,1.8-.25,3.43-.42,3.61-.5,4.55-.75,9.24-1.46,13.93-2.17,42.6-6.39,81.25-8.68,123.83-.93,28.56,5.23,56.52,15.56,82.16,29.42,23.51.05,46.82-1.33,69.74,5.67,21.74,6.6,38.65,24.57,60.3,31.42,7.52,2.39,14.14,4,21.27,7.58,6.23,3.09,12.35,6.38,18.45,9.74,19,3.31,37.82,7.53,55.92,14,38.15,13.69,70,33.69,100.37,60.33,50.44,44.1,101.6,100.17,124.81,163.4C1643.46,621.45,1609.74,700,1541.94,743.3Zm55.84,548.93q4.9-54.29,10-108.51c1.88-22.66-30-35.68-44.72-19.33l-14.26,15.91c-.59-.51-1.18-1-1.79-1.45-5.29-3.92-5.8-3.66-11.65.08a170.15,170.15,0,0,1-17,10c-11.23,5.66-22.84,10.75-34.29,16.19a9.41,9.41,0,0,1-2.75.93c-4.43.8-8.81,1.46-13.11,2.3a247,247,0,0,0-34.79,9.59c-14.27,4.91-28.25,11.07-43.22,14.18-12.51,2.65-25,6.16-37.58,8.93-7.43,1.64-15.17,2-22.52,3.85-12.34,3-25.2,3.25-37.71,5-5.89.87-11.82,1-17.67,1.77-8.08,1-16.2,2.55-24.46,3.2-17.24,1.35-34.6,2.22-51.93,3.4-11.6.81-23.17,1.92-34.65,2.77-8.81.61-17.75,1.17-26.65,1.61-13.45.76-26.74,1.43-40.15,2.07-8.59.39-17.19.79-25.79.75-8,0-16.12-.7-24.24-1.29-7.31-.46-14.7-1.09-22.13-1.59-8.68-.63-17.5-1.31-26.22-1.82-4.6-.4-9.24-.25-13.84-.65-12.55-1.08-25-2.54-37.43-3.45-10.1-.68-20.12-.34-30.13-1.27-11-1-22.14-.73-33.14-.86-13.28-.19-26.48-.62-39.67-1.06-5.68-.19-11.44-1-17.2-1.35-8.72-.51-17.49-.89-26.21-1.39s-17.16-1-25.72-1.46A42.86,42.86,0,0,0,761.91,1239c-32.38-16.61-77.88-9.38-112.8.94l-4.59-.42c-2.36-.22-4.68-.15-6.92-.33-7.82-.63-15.47-1.34-23.21-1.8-11.26-.65-22.48-1-33.65-1.46-8.9-.42-17.75-1-26.65-1.39-10.31-.47-20.67-.81-31-1.58-9.41-.6-18.74-1.88-28.15-2.47-11.22-.77-22.52-.86-33.74-1.63-12.89-.91-25.74-2.37-38.55-3.54l-16.25-1.61c-6.1-.62-12.07-1.63-18.09-2.08-8.64-.76-17.36-1.27-26.09-1.77-7.48-.38-14.83-.71-22.26-1.21-2-.09-4-.36-6-.58-9.36-1.15-18.6-2.68-28.06-3.15-11-.56-17.85,8.28-15.54,18.92a84.23,84.23,0,0,1,2.12,20.14,24.14,24.14,0,0,0,.12,3c1.28,11.14,2.55,22.29,3.57,33.34.67,7.37.75,14.83,1.6,22.11,1.32,11.44,2.76,22.93,4.55,34.25a164,164,0,0,0,5,22.68,250.39,250.39,0,0,0,8.65,24.19c2.39,6.09,6.26,11.25,12.7,13.85,10.74,4.32,21.39,8.48,32.95,10.36,12.55,1.94,25.14,3.75,37.91,2.9,7.22-.57,14.57.61,21.79.9a38.89,38.89,0,0,0,4.47-.07c2.92-.16,5.85-.32,8.86-.31,6,.15,11.82.69,17.75.54,13-.33,26.09-.79,39-1.3,6.7-.32,13.45-1.19,20.25-1.33,13.79-.51,27.76-.66,41.61-.87,4.72,0,9.49.34,14.27.23,9.8-.13,19.6-.69,29.31-.57,11.86.13,23.68.82,35.63,1.13,6.71.11,13.46.09,20.29.25,12.68.26,25.19.61,37.7,1,10.78.35,21.53.39,32.27.86,11,.43,22.14,1.16,33.19,1.59s21.83.77,32.66,1c7,.07,13.93,0,20.85.3,17,.71,34,1.59,51,2.3,6.1.2,12.25-.17,18.39.33,19.9,1.41,39.63,2,59.53,1.74,7.65-.15,15.22,0,22.83.39,5.37.23,10.78,1.19,16.28,1.47,13.37.78,26.57,2.08,40.06,1.62,8.43-.31,16.77.07,25.28-.07,12.2,0,24.41-.51,36.62-.54,11.78,0,23.64,1.38,35.63.7,8.88-.52,17.74-.74,26.59-.89,79.47,6,159.12,6.89,238.45-4a665.85,665.85,0,0,0,97-20.52c22.83-6.71,48.06-13.91,69.72-25.48a26.5,26.5,0,0,0,2.58-1.35c.36-.21.71-.44,1.06-.67,3.91-2.23,7.71-4.6,11.33-7.16C1589.35,1352.25,1594.81,1324.09,1597.78,1292.23Z" fill="#f3ac75"/><path d="M1724.21,724.75q-10,2.54-19.72,5.65a42.4,42.4,0,0,1-5.79,8.34c-6.24,7.47-14.59,11.81-23.4,15.84-5.25,2.38-10.58,3.3-16.21,4.27a19.75,19.75,0,0,0-3.83.71c-7.21,2.13-14,2.36-20.65,2.23q-6.57,3.93-13,8.17a47.05,47.05,0,0,1,3.86,10.73c5.89,25.13-10.56,48-33.35,56.93-27.1,10.6-51.54.52-77.62-7.68-8.16-2.6-22.81-8.1-28.76,1-5.55,8.42-1.67,25-.73,34.19.89,8-5.57,19.12-13.1,22.3-39,16.3-68.94-2.75-103.82-19.34-12-5.75-23.88-10.89-36.23-4-11.73,6.48-20.83,17.8-31,27.08-.78,4.83-3.51,8.94-6.87,12.48-5.81,6.19-13.25,9.54-21.38,11.52a10.81,10.81,0,0,0-2.36.64c-8.35,4.33-17.16,4.94-26,3.11a56.87,56.87,0,0,1-13.32-5.2c-3.35-1.55-4.42-5.2-5.79-8.37-.23-.56-.44-1.13-.66-1.69a153.53,153.53,0,0,1-29-17.58c-11.47-8.57-19-17.38-31.76-8-7.27,5.37-14.33,11.14-21.3,17.08-3.15,7.5-7.45,14.44-11.25,21.69-4.31,8.12-10.89,13.2-20,14.4a67.76,67.76,0,0,1-11.58.41c-19.77,11.15-42.64-5.65-38.41-29.22,1.69-9.29-16.45-9.53-20.92-7.75-12.3,5-19.24,18.81-24.2,30.15-12.25,27.88-54.6,6.63-47.6-20.58a22.31,22.31,0,0,0,.54-2.88c-.06-2.08-.24-4.22-.23-6.32-3-13.54-22.16-17-30-1.5-10.52,20.6-10.81,44.93-39.19,50a29.94,29.94,0,0,1-11.72-.17,47.54,47.54,0,0,1-6.2.14c-4.3,0-6.36-1.56-7.78-5.47a22.31,22.31,0,0,1-.89-3.11c-5.34-5.94-7.86-14.3-5.3-23.68,3.33-12,8.29-26.36,6.11-39.09-.89-4.59-4.87-15.78-11.67-15.21-5.46.45-14.8,12.45-20,15.43a58.17,58.17,0,0,1-28.47,7A55.92,55.92,0,0,1,801,877.5c-.14.11-.27.23-.41.33-4.26,3.29-8.31,7.64-14.29,8.34-1.33.13-2.62.55-3.82.72-5.63.53-6.84-.16-8.59-5.61a36.32,36.32,0,0,1-1.75-10.16c0-.62-.07-1.25-.1-1.87-5.75-1.13-11.33-1.46-16.57-.16-16.09,3.87-27.07,23.32-35.39,36.1-6.88,10.57-21.5,14.38-32.83,10.49l-3,2.05c-3.18,2.21-5.8,1.9-7.9-1.66a27,27,0,0,1-2.87-6.83,140.46,140.46,0,0,1-5.93-33.78,28.42,28.42,0,0,0-4-7.55c-5.58-7.3-7.73-4.31-14.44.29-17.32,11.93-33.88,19.93-55.11,12.75-.06.07-.12.15-.19.22-3.27,3.76-6.63,7.34-9.85,11-2.54,2.86-5.85,2.89-9.25,2.32a4.74,4.74,0,0,1-4.46-5.07,97.15,97.15,0,0,1,1.26-12.72c.41-2.72.72-5.42.9-8.1-11.13-8.41-21.63-17.89-35.54-21.12a29.8,29.8,0,0,0-8.78-.22,30.71,30.71,0,0,0-4,6.21c-1.42,2.95-3.23,5.77-6.84,6.69a4,4,0,0,0-1.62.89A117.36,117.36,0,0,1,517.2,875a22.39,22.39,0,0,1-12.46,21.82,14.91,14.91,0,0,1-1.89,2.06c-2.36,2.78-4.69,5.43-6.93,8.24a5,5,0,0,1-.82,1.16c-4.39,3.67-8.6,7.67-13.38,10.78-5.33,3.49-11.44,2.44-17.32,1.18-3.1-.62-5.2-4.18-5.32-7.65a104.94,104.94,0,0,1,.45-13.28,103.87,103.87,0,0,1,2.12-13.14c.66-2.82,1.41-5.63,2.16-8.44a56.29,56.29,0,0,1-3-23.56,65.05,65.05,0,0,0-23.42-30.6c-1.42-.9-2.71-1.76-4.17-2.54-2.58,3.42-6.11,7.52-7,8.8a148.65,148.65,0,0,0-15.08,32.49C400.6,894,350.29,879.82,360.86,848c2.3-7,5.16-14.82,8.59-22.71a26.22,26.22,0,0,0-.43-2.83c-1.32-5.45-9.82-10.45-15.46-9.92-5,.45-8.55,3.27-12.17,5.91a121.65,121.65,0,0,0-11.7,10.49,60.63,60.63,0,0,0-6.12,7.09c-4.56,6.32-11.44,8-18.15,10-2.07.59-4.22,1-6.24,1.47-5.46,1.31-9.41-2.74-8.41-8.26l3.9-21.83c1.13-6.33,2.51-12.58,3.59-18.79A151.84,151.84,0,0,0,300.61,781c.36-8.31-3.42-15-9.73-20.13a7.22,7.22,0,0,0-4.42-1.77A85.54,85.54,0,0,0,267,762c-3.25.95-6.53,1.74-9.8,2.48l-.9.2c-2.83.63-5.66,1.23-8.48,1.87a77.48,77.48,0,0,0-9.15,2.06c-5.25,2-10.37,1.37-15.35-.88a51.31,51.31,0,0,0-6-2.29c-7-2.21-10.56-7.84-12.75-14.14-.72-2.11,0-5.27,1.09-7.5,3.32-6.88,9-12,14.94-16.26a37.05,37.05,0,0,1,9.78-5.14,31.49,31.49,0,0,1,2.22-2.82c37.93-42.82,90.07-11,128.16,12.24,44.49,27.25,95.49,42.4,146.8,50.23,100.13,15.39,202.49,4.1,303.24,5.27,104.19,1.19,208.37,9.65,312.65,7.15,102.39-2.42,201.8-20.27,301.17-44.43,44.23-10.75,90.19-19.93,133.15-35.41,1.79-1.77,3.56-3.58,5.27-5.46,3.57-3.8,6.63-8.2,10.11-12.17,2.07-2.31,4.48-4.35,6.55-6.66a7.87,7.87,0,0,0,2.11-3.72c.48-3.55,2.67-5.81,5.38-7.9,6.46-5.11,12.78-10.27,19.24-15.39,9.42-7.54,18.8-15,28.35-22.46,3.71-2.9,7.36-6.1,11.66-8.22a123.67,123.67,0,0,1,14-6.08c16.92-17.85,52.38-4.88,44.36,23.83-.3.9-.52,2-.82,2.86a72.84,72.84,0,0,1,36.27,32.92C1748.06,700.77,1741,720,1724.21,724.75Zm-85.67,406.19A673.36,673.36,0,0,1,1453.12,1213a24.91,24.91,0,0,1-17.39,17.58,250.86,250.86,0,0,1-101.06,7.22c-10.5,5.66-23.36,7.24-34.69,3.42l-.26-.09c-14.37,1.68-28.79,3.22-43.21,4.46-10.59.9-21.22,1.21-31.79,1.91a69.22,69.22,0,0,1-49.55,10.45,64.05,64.05,0,0,1-16.36-4.86c-7.43.28-14.84.54-22.32.85-8.6.39-17.2.79-25.66,1.22-8,.44-16.21.84-24.25,1.28-1.59,0-3.35.16-4.94.19l-10.62-.36c-117.88,2.66-235-5.38-353.26-14-76.16-5.62-152.36-10.25-228.61-9.18-24.51.33-52.54,4.76-76.47-3.43a42.07,42.07,0,0,1-9.2,3.48c-19.26,4.81-38.12-4.39-49.92-19.22a38.84,38.84,0,0,1-8.95,5.71c-30.84,14-56.28-17.36-77.06-35.35-9.41-8.13-10.24-18.21-6.27-26.59-.73-1.82-1.4-3.66-2-5.48a14,14,0,0,1-.51-9.17c.69-2.91,2.07-4.45,4.95-4a52,52,0,0,1,9.11,1.92c1.8.52,3.61,1.11,5.4,1.76a26.19,26.19,0,0,1,26.57,5.13c3.35,2.84,11.72,8.23,17.86,13.44,2.94-13,6.4-24.57,17.16-34,15.53-13.34,36.93-7,43.61,12,.26.94.56,1.75.81,2.7.35-.6.65-1.07,1-1.67,6.12-10.94,23-16.4,34.32-9.89,19.83-13.33,42.89,6.43,39.42,29.12,1.43-9.81-1.08.21,4.73-1.27,4.85-1.22,6.1,1,11.78-2.61,11.44-7.58,18.08-22.63,24.42-34.21,11.8-21.89,51.08-12.4,48.51,13.6-1.23,13,6.36,25,20.59,24.49,9.29-.3,19-5.32,28.3-6.48,9.75-1.29,18.74-.7,28.06,2.72,12.37,4.59,22.07,18,36,14.84,7.48-1.77,14.28-6.63,17.39-13.3a70.1,70.1,0,0,1,5.53-20.71c10.65-24.42,49.18-10.6,48.51,13.6a67.08,67.08,0,0,1-3.08,19c1.54,2.66,4.63,4.56,7.43,4.35,6.75-.44,7.7-7.12,9.13-12.21,6.39-22,17-40.42,42.39-41.17,20.59-.65,31.13,22.61,22.21,39.32-2.93,5.3,4.93,12.66,9.48,14.48,12,4.59,30.22-3.27,42.43-4.59,15.52-1.78,31,0,44.35,8.92,10,6.63,16,21.22,27.82,23.5,12.29,2.27,26.18-4.48,37-9.28,15-6.67,29.93-13.93,46.36-16.7,31.21-5.36,54.57,10.5,83.66,17.43,13.8,3.35,20.13-6.09,33.37-8.35,15.22-2.6,26.51,3.91,37,13.72,10.14-.73,20.16-1.5,30.22-2.41,5.55-6.27,11.37-13.74,18.72-17.27,13.77-6.37,27.26-3.83,40.53,1.92,1.89.78,9.24,2.39,7,3.92,2.58-1.7,5.3-5.5,7.15-7.59l.6-.69a38.67,38.67,0,0,1,15.77-19.91,44.78,44.78,0,0,1,16.45-9.25,50.72,50.72,0,0,1,22.33-5.32c10.49,0,23.42,8.45,25,19.42.09.17,0,.43.09.6a10.37,10.37,0,0,0,4.34.32c5.76-.92,9.2-3.48,13.51-7.32,1.85-1.63,3.64-3.29,5.4-5a49.35,49.35,0,0,1,1.11-4.86c4.67-16.27,20.25-26.92,36.6-28.61,14.68-8.56,34.57,1.93,38.38,17.23.38.54.75,1.09,1.1,1.64a2.79,2.79,0,0,1,.25-.17,58.3,58.3,0,0,1,5.82-5.72c1.82-5.1,3.58-10.21,5.61-15.11a115.88,115.88,0,0,1,5.52-10.43c1.81-3.25,3.66-6.62,5.34-9.92,1.43-3,4-4.22,6.63-5.62a2.6,2.6,0,0,1,3.87.87,26.9,26.9,0,0,1,3.47,5.88c.65,1.82,1.21,3.64,1.73,5.47a62,62,0,0,1,33.31-8.54c.61,0,1.21.06,1.8.1,1.88-4.1,4.19-8.07,5.74-12.28,2.54-7.15,7.45-12.78,12.1-18.5,3.19-3.93,7.92-5.2,12.9-5.09,4,.18,5,1.39,5.5,5.42a20.28,20.28,0,0,1-.06,4.93c7.17.12,14.41,2.78,19.25,7.52,8.41,8.27,18.1,11.36,29.17,9.61,2.6-1.44,5.21-2.87,7.79-4.32,4.82-2.81,9.85-5.4,14.84-7.87a20.28,20.28,0,0,1,6.15-1.64c3.79-.59,5.5.7,5.24,4.47a24.6,24.6,0,0,1-1.43,7.67,63.87,63.87,0,0,1-3.29,7.62C1653.92,1100.83,1654.23,1120.85,1638.54,1130.94Zm-180.9,6.08c.18-1.41-.1-1.88-.64-1.77l-.26.28C1457.05,1136,1457.35,1136.51,1457.64,1137Z" fill="#8bc540"/><path d="M769.45,704.22c-.22,1.5.08,5.31-1.43,8.09-5,9.45-9.91,19.24-16.5,27.74-6.8,8.71-14.49,6.41-17.62-3.93a36,36,0,0,1,.08-22.83c2.54-8,3.24-16.48,5.4-24.61a91.69,91.69,0,0,1,5.87-16.17c1.6-3,4.57-7.18,7.19-7.3s6.27,3.54,8,6.42c5.49,9.27,8.61,19.61,9,32.59m454.83-12.89a33.68,33.68,0,0,0,0,4.15c1.52,23.22-12.6,37-30.15,48.29-5.85,3.74-11.87.29-12.33-6.86-.55-7.33.32-14.18,4.54-20.76,9-13.84,17.15-28.38,25.85-42.31,1-1.79,3.92-3.54,5.72-3.36s4.43,2.63,4.81,4.48c1.2,5.4,1.36,10.88,2.09,16.41-.26-.09-.43,0-.56,0m-721.5-44.8a11.3,11.3,0,0,0-1.82-4.42c.84-1.54,1.7-3.08,2.56-4.61,4-7.1,4.88-13.22-1-20.36-1.24.73-2.53,1.15-2.92,1.88-2.76,4.78-7.4,7.08-12.09,9.5a14.55,14.55,0,0,0-5.34,3.92c-.85,1.08-1.71,2.16-2.57,3.23a16.23,16.23,0,0,0-7.46,6.54,15.42,15.42,0,0,0-.86,2.14c-.6.51-1.38,1.11-2,1.62a23.74,23.74,0,0,0-6.68,10.9,19.71,19.71,0,0,0-.73,4.59c-.79,1.62-1.53,3.28-2.2,5-1.94,4.92-.4,8.44,1.79,12.17,2.48,4.13,5.71,4.78,9.92,2.49.14-.07.26-.15.39-.23l.21.14c9.84,5.74,22.27,1.2,27.27-8.54C503.57,664.23,504,655.66,502.78,646.53Zm.44-161.28a.81.81,0,0,0-.47-.3,13.62,13.62,0,0,0-.21-8.36,19.21,19.21,0,0,0-9.47-11.07,41.67,41.67,0,0,0-8.59-9.43c-1.64,3.16-3.41,5.85-4.36,8.68-.08.24-.15.49-.24.74-7.56,3.15-13.37,8.64-15.94,16.67-2.34,7.36-1.79,16,2.59,22.59a18.78,18.78,0,0,0,2.89,3.42c-1.53,9.71-.79,9.92,10,15.35,1.13-.85,2.21-1.75,3.25-2.7.26.17.52.34.79.49,8,4.27,18.18,2.25,23-5.82C512.26,506.15,511.33,493.12,503.22,485.25Zm208.41-53.62a2.56,2.56,0,0,1-.47-.73,16.41,16.41,0,0,0-.68-2c-.49-4.56-3.89-8-8.24-10.67-3-1.85-5.88-3.83-9-5.73-4.76-2.89-9.28-3.12-13.54,1-2.81,2.7-5.7,5.33-8.54,8a43.29,43.29,0,0,0-8.93,6,14.19,14.19,0,0,0-5,10.42c-.7,1.21-1.37,2.44-2,3.65a6.22,6.22,0,0,0,.8,5.7,28.46,28.46,0,0,0,6.32,3.8,19.44,19.44,0,0,0,3.09,2.79c11.34,8.1,28.36,8.25,40,.58C712.77,449.58,716.7,439.62,711.63,431.63Zm163-113a18.79,18.79,0,0,0,3.89-15.83C876,293.19,867,289.6,858,290.85c-9.33,1.29-17.21,8.49-21,16.79-4.79,10-3.77,20.16-2.33,30.79,1.11,8.66,12.84,14.32,20.53,11.91,11.87-3.73,21.82-14.95,20.33-28a31.46,31.46,0,0,0-.9-3.73m157.1,37.12a18.22,18.22,0,0,0-4.54-1.7c-1.2-3.4-3.91-4.35-7.79-3.87-9.22,1.16-13.19,4.5-14.45,14.48a22.86,22.86,0,0,0-2.08,4l-5.18,12.83c-1.51,3.63-.4,9.72,1.53,12.94a19.17,19.17,0,0,0,3.15,3.76q-.3,4.74-.63,9.66a29.24,29.24,0,0,0,14-5.17,16.17,16.17,0,0,0,12.51-7.92q4.58-7.89,9.17-15.77C1041.92,371,1039.74,360,1031.71,355.7ZM1273,372.55c-.17-2.62-1-4.88-3.2-5.94l-.69-6.37c-1-8.61-6.86-17.16-16.7-16.9a18.65,18.65,0,0,0-8.12,2.25c-3.65-1.31-7.32.69-11.32,6.07-5.64,7.39-6.64,16.34-6.18,25.21,1,17.48,10.31,32,17.47,49.16,8.47-6.87,18.45-9.65,22.12-19.28C1270.86,395.85,1273.92,384.59,1273,372.55Zm58.41,221.36a55.44,55.44,0,0,0-13.85-56.09c-13.73-13.68-34.38,3.74-27.47,18.5l-.12,0c-3.21,1.68-2.76,5.37-1.32,8.15a37.63,37.63,0,0,0,4.63,6.68c.11.9.23,1.79.38,2.68.3,3.9.64,7.8,1.09,11.7a51.49,51.49,0,0,0,10.2,24.72c4.25,5.71,9.4,5.73,14.18.48a29.26,29.26,0,0,0,5.26-8A16.79,16.79,0,0,0,1331.36,593.91Zm-322.75,19.45a31.25,31.25,0,0,0-.58-4.14c2.86-9.72,2.5-20.53-1.7-29.19-.51-1-1.5-1.94-3.39-4-3.64,4.57-7.21,9-10.71,13.43a4.49,4.49,0,0,0-.8.21l-1.61.62a29.76,29.76,0,0,0-4.78-.71c-4.08-.23-9,2-11.95,4.84a16.55,16.55,0,0,0-5,11.76,17.67,17.67,0,0,0,3.63,10.55A22.4,22.4,0,0,0,970,627.82c.34,4.54,1.63,6.26,6,6.15,6.27,0,12.39-1,17.68-4.17a16.39,16.39,0,0,0,10-4.68C1006.58,622,1008.86,617.73,1008.61,613.36ZM853.28,546.27c.26-5.49.05-10.84,0-16.28a17.41,17.41,0,0,0-5.54-12.46c1-4.29,1.92-8.6,2.87-12.87.52-2.82-.86-6-1.54-10.8-3.14,2.94-5.37,4.05-6.45,6q-4,6.71-7.88,13.42c-7.35,1-13.61,6.43-14.77,13.82-6.92.53-13.33,4.23-15.1,11.64-1.86,7.66,2,18.25,10.5,20.39a21,21,0,0,0,2.36,2.36c5.62,5,12.93,8.06,20.58,5.78C847.88,564.45,852.79,555.82,853.28,546.27Z" fill="#f7deba"/><path d="M492.29,461.86c-.1,11.82-1.45,23.94,2,35.39,2,6.39,4.32,19.17-6.68,16.47-4.77-1.18-8.89-4.71-12.37-8-4.16-3.83-10.52-9.25-8.06-15.71,1.47-3.93,7.41-7.94,10.2-11.14,7.41-8.37,13.26-13.83,24.66-16.14,6-1.26,3.49-10.39-2.53-9.13-16.94,3.44-25.33,14.76-36.66,26.67S459.61,504.87,470,514c7.94,7.1,21.81,14.91,31.11,5.61,5.38-5.34,5.91-12.88,4-19.95-3.42-12.87-3.4-24.43-3.38-37.71.18-6.08-9.41-6.16-9.46,0m169.24-9.65c-1.7-15.86,25.72-40.21,40.36-27.43,9.66,8.39,10.1,26.68-4.64,28.3-10.88,1.2-22-1.42-32.84-1.76-6.1-.2-6.16,9.36,0,9.42,14.18.49,36.65,7.47,48.36-3.87,10.29-10.12,5.54-29.71-3.9-38.75-20.22-19.22-59.16,10-56.79,34.05.6,5.91,10.14,6.12,9.46,0m342.72-38.31c-.07-16.45-5.86-50,13.1-58.17,13.94-6,19.45,16.83,16.38,26.8-3.62,11.64-21.17,16.88-30,24.21-4.6,3.88,2,10.68,6.61,6.8,12.4-10.41,32.09-15.21,33.28-34.1.66-11.78-3.78-32.27-18-34.47-35.37-5.75-31.06,48.84-31.05,68.85.08,6.16,9.54,6.2,9.59.08m239.59-5.14c0-11.86-2-23.52-3-35.31-.8-10-4.34-32.31,15.2-20.88,4,2.32,8.2,8,10.77,11.9,7.17,10.7,6,21-4.29,29.42-7.1,5.75-12.53,12.93-19.33,19.07-4.56,4.18,2.22,10.89,6.61,6.79,7.45-6.78,13.82-14.21,21.48-20.77,5.42-4.61,9.38-9.56,10.38-16.8,1.91-14.64-11.47-33.29-23.89-39.89-8.41-4.4-22.3-1.93-26.18,7.48-2.46,6-1,14.82-.51,21.12.89,12.72,3,25.15,3.17,37.92.17,5.91,9.71,6.12,9.63-.05m42.67,136.78c-.25,19.06-2.69,44.24,10.31,60.18,7.21,8.86,18.21,12,27.55,4.27,11.88-9.72,15.77-28.55,13.08-43.17-3.62-19.51-17.76-24-31.24-35.94-4.55-4-11.35,2.61-6.8,6.57,6.1,5.34,13.83,8.79,19.8,14.09,10,9.08,11.4,24.55,7.55,36.82-2.24,7.11-7.93,20.19-18.67,15-6.06-2.89-8.49-12.29-9.91-17.9-3.2-13.08-2.32-26.79-2.13-40.15,0-5.7-9.36-5.86-9.54.22M1194.93,682.6c-7.63,12.86-25.72,40.21-9.66,53.47,10.91,8.95,25.75,1.08,32-9.39,8.62-14.53,22.44-60.31-6.74-61.41-6.11-.2-6.12,9.23,0,9.42,15.3.58,5.59,31.17,2.4,38.95-2.68,6.67-6.26,15.18-14.42,16.44-21.89,3.21.52-35.68,4.57-42.61,3.1-5.38-5.06-10.13-8.12-4.87M993.4,580.53c0,10.58,5,19,7,29.08,1.46,7.2,2.56,18.85-6.34,20.58-3.7.75-10.53-.69-13.67-2.46-8.54-4.87-13.2-26-2.49-30.55,4-1.78,8.64-1.38,12.68-3.59,4.26-2.43,7.66-6.14,11-9.6,4.35-4.39-2.44-11.1-6.61-6.79-4,4.1-7.45,8.07-13.17,9.71-3.31.89-6.83.7-10,2.36-5,2.6-7.88,7.64-8.88,13.16-2.16,11.56,2.16,28.58,13.54,34,9.75,4.71,27.11,6.41,32.59-5.18,8-16.46-6.06-34.47-6.08-50.62-.12-6-9.53-6.2-9.58-.08M841.81,507c0,11.87.91,23.74.51,35.6-.22,7.07.19,14.35-7.33,17.54-4.47,1.78-11.22.94-15-1.91-9.32-7.27-3.75-21.69,2.88-29,7.79-8.66,18.5-14.49,26.89-22.38,4.44-4.22-2.22-10.89-6.61-6.8-12.18,11.48-28.82,19.17-35.08,35.63-4.66,12.15-2.91,26.17,9.8,32.3,9.49,4.62,23,3.3,29.67-5.45,4.3-5.55,4.1-13.05,4.19-19.73.28-11.91-.48-23.74-.51-35.6.18-6.08-9.4-6.17-9.41-.17M744.05,673.1c13.4,10.08,20,25.87,20.92,42.32.63,9.65-1.4,15.68-12,16.83-6.23.62-11.3-.08-14.69-5.79-8.49-14-2.43-42.25,7.73-54.12,4-4.65-2.65-11.32-6.61-6.79-13.69,16-25.15,65,1.61,75,15.81,5.89,33.32-2.65,33.77-19.79.55-21.67-8.28-42.78-25.71-55.79-5.11-3.57-9.85,4.55-5,8.16M491.12,621c.37,13.41,10.5,26.81,7.3,40.17-1.91,7.79-8.06,13.29-15.76,15.27-4.08,1.06-13.8,2.22-15.9-3.06-2.57-6.86,6.3-18.31,9.75-23.44a122.9,122.9,0,0,1,14.9-17.84c4.3-4.27-2.31-11.07-6.61-6.8-10.33,10.24-41.72,44.69-21.62,58.3,11.08,7.59,29.31,2,37.71-7.17,16-17.63.31-35.9-.23-55.22-.2-6.21-9.79-6.29-9.54-.21M857.24,290.89c-15.31,8.42-24.31,19-26.22,36.6-1.35,12.55,1.07,28.37,16.81,28.51,27.85.37,27.61-42,27.93-60.89.06-6.12-9.4-6.16-9.45,0-.19,14.22,1.32,37-9.78,47.85-3.83,3.71-10.84,5.78-14.7.63-2.79-3.65-1.8-10.46-1.49-14.79,1.48-14.64,9-22.84,21.62-29.73,5.42-2.89.58-11.09-4.72-8.15M285,1225.43c-.47,24.84-3.26,50.19,4.23,74.43,3.3,10.68,8,20.68,12.3,30.85,5.74,13.64,6.7,28.25,12.4,41.6,8.18,19.18,11.13,36,32,44.89,16.84,7.09,37.3,9.4,55.31,11.31,28.1,3,58.54,1.69,86.86,1.5,27.47-.19,54.81-5.56,82.24-7.34,30.65-2,60.49-7.09,91.22-6.75,30.91.25,61.94,1,92.84.8,30-.18,60.14-1.35,90,3,13.54,2,26.39,1.73,40,2.17,16.07.4,31.33,4.53,46.75,8.58,55.13,14.4,114.5,8.51,171,9.07,60.6.67,121.26-3.5,182-1.93,13.37.35,26.65,1.39,39.81-1.9,14.4-3.59,27.82-9.79,42.31-13.2,27.95-6.74,55.43-15.07,83.5-21.34,16-3.5,31.14-8.11,46.87-12.24,15.4-4,31.64-1.08,47-5.77,17.07-5.12,26.71-12,32.84-29,11.3-31.05,7.14-64.74,7.44-97.21.17-29.51-6.22-69.81,11.44-95.44,3.4-5-4.71-9.87-8.12-4.87-11.37,16.32-12.3,34.86-12.45,54.1q-.51,43.11-.25,86.06c.09,24.46,1.63,62.12-24.22,73.71-11.14,5-22.66,5.52-34.56,5.94-14.53.55-26.79,5.42-40.72,9.31-25.29,6.93-51.21,11.49-76.54,18.55-12.51,3.5-25.15,6.11-37.75,9.44-13.33,3.38-25.81,9.32-39.22,12.53-26.49,6.23-57.26,1.31-84.55,1.85-29.14.48-58.2,1.57-87.43,1.88-56.44.59-114.51,2.2-171-.94-26.3-1.56-50.49-11.12-76.27-15.08-9.67-1.53-19-1.53-28.63-1.48-16.63,0-32.62-3.26-49.12-4.52-55.14-4.12-111.33-.87-166.65-1.47-51.75-.55-103.64,9.57-155,13.86-30.27,2.54-63.49,1.08-93.92-.59-20.29-1.1-58.41-3.35-72.57-19.69-5.37-6.23-6-15.57-8.61-23s-6.17-13.64-8.18-21.32a252.54,252.54,0,0,0-12.07-35.34c-13.63-32-13.24-60.46-12.68-94.55-.12-6.47-9.7-6.55-9.75-.43m1368.73-135c-7.32-20.89-34.2-10.07-48-3.7-4.26,2-17.56,11.24-22.37,10.19-6.14-1.35-3.6-8.07-3.25-13,.27-5.91,2-15.75-3.15-20.49-12.79-11.44-33.8,12.21-38.63,22.3-2.63,5.68-4.62,18.44-10.17,21.72-7.57,4.59-7.22-5-10.91-10.67-4.67-7-11.67-11.35-20.44-9.59-21.89,4.5-22.11,43.14-32.49,57.79-.91,1.84-1.81,3.68-2.72,5.51-4.42-1.34-8.81-2.82-13.23-4.16-1-.9-2-5.23-3-6.74-3.19-4.38-5.83-8.93-9.82-12.73l.89-.84c10.33-9.81,22-15.59,30.9-27,9.65-12.47,22.17-22.4,31.52-34.83,3.87-5.12,5-9.75,7.67-15.13,5.34-10.78,11.76-16.19,20.15-24.08a4.33,4.33,0,0,0,.18-6.31l.56-.16c22.44-6.16,45.11-13.83,61.38-31.07,18.12-19.33,18.68-45.72,31.17-67.94,12.41-22,17.21-43.93,20.13-69.24,2.18-18.84-3.56-36.34-16.44-50.52a4.31,4.31,0,0,0-2.43-1.44c-.17-.29-.35-.57-.53-.85-2.1-3.13-5-5.54-7.38-8.34-8.32-9.8-11.23-21.63,4.12-27.18,11.27-4.07,30.17,3.29,42.64,2,26.31-2.72,44.14-28.87,63.63-44.17,12.44-9.67,22.91-25.44,11.36-39.75-5.49-6.7-13.78-10.63-20.87-15.16-3.9-2.46-9.53-4.92-12.23-8.83-5.41-7.82-.07-13,3-20.42,7-16.51-4.69-29.58-21.8-24.76-28.33,8-45.93,33-76,35.71.82-3.46,1.52-6.91,2.06-10.3,4.34-26.55-.18-51.49-2-77.68-1.56-22.66-12.81-34-27.44-51.08-16.57-19.43-31.07-38.59-44-60.66-4.93-8.37-7.84-17.64-13.93-25.12-8.37-10.52-19.83-18.67-30.14-27.27-18.76-15.89-39.2-30.19-58.69-45.17-20.66-15.81-41.62-22.14-65-31.87-25.39-10.69-54.49-12.9-78.5-26-21.86-11.79-40.19-26.81-63.74-35.73-12.58-4.8-25.86-6.27-38.67-10.43-15.63-5.12-30.84-10.23-46.87-14.19-53.71-13.5-111.79-7.6-167-8-53.34-.51-108.36-6.3-156.88,19.81-43,23.26-92.07,29.75-135.73,52.07-47.83,24.48-99.34,40.3-145,69.08-22.76,14.34-43.59,31.48-66.22,46.3C448.85,423.82,426.56,435,409.35,453c-19,19.76-34,42.28-54.16,61.22-9.69,9.17-18.86,18.94-28.41,28.16-8.78,8.62-19.41,15.47-26.64,25.47-10.31,14.06-20.07,30.3-25.8,47.32-2.82-2.53-8.76,0-7.85,4.93,4.82,26.2,10.38,48.92,22.29,72.79,1.73,3.38,3.27,7.13,4.93,10.87a4.37,4.37,0,0,0-3.82-2.21c-11.48-.44-23.68-3-35.07-.66-11.87,2.44-20.7,12-29.26,20-11.41,10.88-22.1,32-5.09,43.29,18.29,12.15,65.74-10.32,69.61,17,2.6,18.3-11.5,46.56-1.25,63.44,11.66,19.06,30.95,1.41,38.1-10.05,5.64-9.1,25.27-32.92,30.79-13.07,2.48,8.84-.76,21,.78,30.55,2.51,15.13,13,43.36,34.67,37.23,7.31-2.11,9.77-9.43,12.83-15.54A359.49,359.49,0,0,1,432.24,829c6.51-9.52,21.4-21.37,28.94-7.12,2.4,4.38,1.49,11.36,1.57,16.24.36,16-.43,32-.63,47.93-.22,11.8,6.11,28.46,18.78,31.5q-7.26.84-14.57,1.63c-14,1.45-25.54,7.7-37.41,14.85-16,9.62-32.65,17.73-49.39,25.68-31,14.7-63.5,14.78-89.46,39.05-10.61,9.93-19.65,21.5-30.84,30.68.24-.22-9.46,7.78-11,7.41-9.19-1.66-6-10.3-5.73-15.79.57-9.37,0-18.72.25-28,1.36-49.26,26.61-92.34,46.1-136.21,2.54-5.86-5.57-10.74-8-5.13-15.83,35.53-34.36,69.3-43.05,107.52-3.85,17-4.43,33.22-4.54,50.61-.06,12.13-3,24.28,1.75,35.74a4.52,4.52,0,0,0,4.08,2.37c17.63.07,31-15.3,42.21-26.95,9.9-10.24,19.67-21.81,32.15-29,13.89-8,30.53-9.31,45.75-14,27-8.5,53-23.17,77.21-37.6,16.86-10,31.65-11.36,50.69-12.52,16.86-1.05,32.81-7.11,49.79-8.54,32-2.66,64.78-.22,96.84,0,14,.14,28.29-.91,42.21.77,17.66,2.08,29.21,11.68,42.87,22.27,12.36,9.73,21.64,18,30.51,31.27,9.14,13.78,17.2,29.5,27.45,42.52,9.53,12.2,19.59,9.58,28.81-1.6,10.5-12.9,16.84-28.34,29.54-39.64,11.88-10.58,27.22-11,41-17.79C884,953,891.71,949,899.52,945.1c6.81,1.31,14.44,0,21.89-4.63a26.29,26.29,0,0,0,9.36-9.8c13.07-6.16,30-15.85,42.08-15.61,6.15.06,6.16-9.36,0-9.43-11.69-.22-20.56,5.66-30.79,10.5-2.3,1.11-4.61,2.18-6.93,3.24.63-2.19,1.25-4.45,2-6.77,4.61-15.28,9.57-39.13,21-52,17.13,17.3,17.06,47.13,35.59,64.09,12.28,11.27,29.16,15.24,39.42.11,11.58-17,12.43-39.1,22-56.89,10.17-19.15,22.52.86,28,12.28,6,12.45,13.33,23.91,23.72,33.12,13.69,12.18,24.52,12.82,34.86-3,6.21-9.48,8.2-20.1,17.1-27,3.88-3,8-5.75,11.92-8.56,14.63-11.08,29.16-11.2,40.66,3.24,8.28,10.36,9.21,23.81,19.08,33.28,8.11,7.87,19.2,12.45,30.33,13.91,26.43,3.32,36.73-14.5,49.26-34.29,7.41-11.79,5-29.88,17.76-37.88,11.28-7.07,37.55-14.37,50.19-14,16.8.36,24.56,15.26,38.31,22.17,12.37,6.3,25.56,11,38.05,17.37,18.17,9.11,29.53-.35,34.2-18.93,2.47-9.88.12-23,4.05-32.07,9.57-22.06,39.5-.57,54,6.17,11.08,5,21.56,8,33.73,8.49,10.91.38,25.53,2.16,35.12-4.19,6.3-4.25,9.57-11.06,10.37-18.33,7.5,16.32,3.84,33.61.41,52.82-2,11.6-3.12,22.09-8.81,32.6-4.61,8.59-10.17,16.15-13.53,25.31-8.85,24.6-12.36,46.56-36.5,62-19.79,12.77-43.17,15.77-64.93,23.3-22.45,7.88-42.79,8.62-66.55,8-24.2-.57-45.49,3.85-69.26,8-25,4.31-49.26.57-74.28.73-23.08.38-45.44,7.14-68.49,10.82-51.5,8.11-103.89-.79-155,9.28-52.84,10.38-103.6,9-157.2,5-49-3.66-100,2.9-148.63-3.61a4.84,4.84,0,0,0-6.61-2.31l-2.08,1c-19-3.27-34.88-9.25-54.35-9.83-25-.82-49.81-4.18-75-4.49-26.56-.36-52.39.52-78.7,3.67-30,3.78-59.93,2.85-90,2.3-38.09-.66-144.93,24-145-38.49.05-6.12-9.53-6.2-9.45,0,.07,39.88,40.07,51.48,73.9,51.14,24.83-.34,49.34-2.93,74.15-3.06a3.73,3.73,0,0,0,3.35,3.41c28.14,4.61,54.09,17.9,81.93,23,11.48,2.15,21.74,7,33.17,8.87s23,.31,34.39.14c28.11-.4,56,2,84-2.32,24.42-3.78,46.7-13.86,68.8-24.44a207.35,207.35,0,0,0,25.28,2.36c30.43.81,61,.37,91.43.75,9.58.11,19.16.48,28.74,1-22.48,11.42-47.17,19.4-70.91,27.56-20.77,7.16-38.71,17.41-57.76,27.58-16.83,8.92-37.51,12.23-56.92,15.76-2.06-9.17-6.35-16-18.06-6.55a39,39,0,0,0-9,11.16c-23.24,2.23-47.61-1.1-70.58-1.2-25.91-.06-52.52,1.94-77.81-5.06-.31-.75-.63-1.51-.93-2.27-2.91-7.55-6.24-25.39-15.26-28.85-11.24-4.46-21,6.92-28.48,19.12-7.62-.28-15.27.28-22.82.34-26.87.54-52.82-6.76-77.09-18.21-21.05-9.94-36.71-27.35-56.51-39.29-5.16-3.45-10.07,4.76-4.83,8,19.8,11.94,35.64,29.69,56.73,39.5a256.86,256.86,0,0,0,25.93,10.42c-5.52,7.54-8,20.47-9.95,26.53-2.94,9.16-6.18,19.64-16.7,14.24-7.6-3.84-13.65-14.45-19.14-20.72-7.17-8.13-17.72-20.68-30.11-15.84-18.41,7.38-1.91,44.5-19.66,44.39-12.85-.18-44.43-45-58-23.8-4.26,6.71,2.6,16.59,6.21,21.66,6.92,9.38,18,19.83,23.22,31.53-5.42.74-5.39,9.53.62,9.35l2.1,0a26.42,26.42,0,0,1,.21,2.95c1.07,5.36,10.48,5.52,10.41-.65,0-.77-.07-1.54-.14-2.31,8.36.2,16,1.21,25,5.11,6.66,2.81,12.8,5,19.89,6.12,20.76,3.12,41.43,3.93,62.15,6.76,41.21,5.86,82.6,6.92,124.12,7.17,44.1.26,88.11,4.64,132.43,5.11,22.56.3,45.22.35,67.74.78,26.09.49,49.85,6.2,75.29,9.9,41.34,5.9,83.18-1.17,124.35,4.39,18.26,2.43,35.88,8.06,54.23,9.81,23,2.32,47.15,2.71,70.27,2.2,39.42-.74,78.85-8.77,118.22-7.67,9,.17,18,.63,27-.49,10.66-1.41,20.9-5.83,31.69-6.34,19.21-.83,38.65-2.72,57.94-2.52,43.63.39,84.47-1.59,126.1-15.73,36.94-12.58,75.38-26.22,110.65-42.79,32.91-15.5,58.56-41.87,88.85-61.54C1634.29,1123.94,1660.31,1109.26,1653.72,1090.47ZM285.9,664.31c-3.25-8.78-5.19-17.95-6.83-27.16a4.37,4.37,0,0,0,.64-1.78c8.37-55.19,58.07-89,94.91-125.65,16.83-16.77,28.9-37.72,46-54.1,18.72-17.7,42.72-28.91,63.59-43.61,41-28.92,81.36-56.35,127.29-76.9,20.78-9.3,42.24-17.23,63.18-26.61,23.14-10.36,43.7-19.88,68.17-26.08,10.79-2.65,19.65-9,30.49-11.74,9.76-2.58,19.44-5.32,28.68-9.36,28.39-12.31,51.15-26.22,83-28.67,52.83-4,107.15,0,160.2.59,26.17.23,53.08-2.57,78.56,3.57,27.2,6.57,53.41,16.1,80.48,22.64,25.09,6,46.18,17.53,67.31,31.92,21.73,14.74,43,17.3,67.32,25.07,10.48,3.38,20.54,8.05,30.8,12.07,12.42,4.89,25,7.55,36.78,14.37,21.6,12.55,41.48,30.23,61.79,44.92,19.36,14.09,41.52,30.11,52.88,51.36,9.86,18.46,20.28,37.39,33.24,53.89,13.55,17.28,41.51,37.82,43.37,60.45,2.07,25.41,6,50.44,3,76-2.57,22.57-11.89,46.86-23.35,66.44-13.14,22.43-42.92,14.13-64.76,19.36-11.4,2.74-22.49,6.72-33.89,9.46-7.52,1.9-13.93,3.46-21.66,3.86-4.65.15-8.56-.59-13.16.29-22.31,4.06-43.35,21-64.43,29-25.16,9.54-49.58,14.33-76.57,14.39-26.14.07-49.35,3.41-75.15,7.16s-51.11,7-76.57,11.82c-29.32,5.71-56.92,6.28-86.7,5.27-22.87-.69-45.86-3.14-68.35,1.44-28.46,5.71-56.4,4.75-85.28,4.46-60.22-.54-119.69,18.89-179.59,5-29.95-6.93-59.31-9.23-89.78-13.34-28.15-3.75-56.26-.78-84.5-2.56-16.29-1-31.84-5.56-48.09-7.6-13.19-1.72-26.26-.4-39.5-1.14-33.74-2.06-61.26-23.46-90.51-38.44-13.1-6.69-26.67-12-40.12-18.07-12.67-5.83-27.84-10.22-34.4-23.14C298,690.53,290.87,677.69,285.9,664.31ZM581.2,909.48c-29.91-.25-58.52,3.1-87.58,6.53,6.54-3.58,10-12.13,13.06-18.31,7.85-15.64,16.38-32.49,28.73-45.33,3.32-3.46,8.1-7.85,12.74-9.29,8.73-2.92,22.39,6.38,25.55,14.88,1.46,3.77-1.6,9.46-.83,13.57,1.41,7.76,6.77,11,14.34,12.83,27.63,6.57,41.46-21.77,60.1-35.79,1.93-1.49,8.09-7.42,10.79-6.94,2,.39.83-8,1.54,5.23a77.65,77.65,0,0,0,4.1,21.52c3.85,11.15,5.9,25.13,11.47,35.43a25.68,25.68,0,0,0,5.92,7.5l-.39-.07C648.56,906.28,613.69,909.69,581.2,909.48Zm234.24,73.06c-4.61,6-8.4,12.61-12.53,18.93-1.77,2.69-6.12,10.51-8.1,10.85-6.71,1.17-14.39-8.84-17.56-12.62-11-13.11-18.19-30-28.61-43.77-8.75-11.51-21.64-19.27-33-28.23a87.17,87.17,0,0,0-17.85-11.4c12.5-.73,26.49-8.33,36.45-13.63,9.25-4.89,14.16-10.95,18-20.53,2.25-5.82,6-24,14.44-23.72,8.68.21,6.39,10,8.1,15.16,7.83,24.92,38.24,10,52.56,2,12.22-6.89,23.43-28.27,39.67-22.38,18.47,6.93,9.3,47,9.45,62.33.08,10.46,4.78,19.28,11.88,24.61C861.22,953.15,834.47,957.52,815.44,982.54ZM1594,833c-17,1.56-32.49-2.35-47.7-9.61-11.51-5.44-23.06-12.47-35.87-14.49-13.19-2.15-23,2-26.62,15.19-2.77,9.92-1.37,20.68-3.62,30.78-2.76,12.5-8.75,18.77-22.8,14.9-5.24-1.47-10.3-6.46-15.42-8.75-13.74-6.05-24.91-10-36.63-19.9-7.47-6.37-14-10.55-23.84-11-12.68-.7-24.6,4-36.51,7.86-8.38,2.75-18.23,4.3-25.59,9.54-7,4.94-9,10.84-10.81,18.93-3.24,14.34-9.71,25.88-18.45,37.8-15.29,20.71-46.53,12.92-58.1-7.26-7-12.06-8.57-20.59-19.13-30.57-14.64-13.64-27.45-13.09-43.41-1.89-6.76,4.73-17,9.87-22.59,16-7.19,7.72-6.69,22-15.34,28.55-15.75,11.85-34.06-20.74-40-33-3.95-8.33-7.76-18.75-15.27-24.57-13.18-10.29-24.16,2.31-29.94,13.94-4.09,8.33-6.68,17.32-9.36,26.13-1.21,4-2.51,7.87-4,11.81-1.34,3.55-2.55,8.43-4.53,11.33-3.53,5.39-15.53,9.92-22.19,8.4-14.7-3.66-21.24-30.72-26.59-42.95-4.54-10.38-9-21.45-18.19-28.68-2.14-1.72-4.51-1.95-6.7-.12-16.92,14.46-21.39,44.81-28.25,64.79-.71,2.13-1.53,5.32-2.66,8.24-8.28,3.56-16.6,7-24.83,10.75-5.85-1.66-10.85-6.13-12.83-14.26-1.29-5.15.36-12.6.41-17.87.36-14.3,3.61-32.5-.32-46.39-3.85-13.72-22-14.82-34.16-11.92-8.55,2-12,8-17.73,13.9-6.19,6.49-13,10.36-20.91,14.4-2.58,1.27-5.89,3.87-8.64,4.37-6.71,1.18-18.69-5-21.13-11-2.19-5.45,1.26-11-4-15.78-4.85-4.35-10.31-3-15.69-.71-7.61,3.44-12.56,9.21-16.06,16.6s-4.31,13.27-9.31,20c-5.34,7.34-14.09,11.53-22.67,14.94-10.33,4.1-10.6,8.2-21.55,5.61-10.37-2.45-8.71-6.07-13.68-16.46-2.19-4.59-2.74-10.63-4.37-15.61-2.86-8.11-5-15-5.85-23.54-.51-4.88-.33-10.54-3.46-14.88-9.48-12.76-27.44,6.49-34.88,13.7-9.51,9.09-22.26,28.66-37.48,26.54-18.73-2.73-8.27-16.78-13.2-28.15-7.45-17.08-30.79-18.93-44.86-9.09-7.74,5.54-13.56,14.3-19,21.9-8.62,12-13.2,28.56-22.54,39.71-10.08,12-21.8,3-23.41-11.88-.59-6.34.49-13.4.5-19.83.06-13,1.11-26.34-.12-39.32-1.18-12.26-5.51-25.43-19.86-25.4-20,.14-32.49,25.79-41.32,40.1-6,9.83-12.78,38.85-28.68,33.65-14.47-4.73-15.73-30.87-15.54-43.37.23-10.5,4.22-31.73-11.43-33.42-7.65-.71-15.31,5.42-20.56,9.94a76.92,76.92,0,0,0-11.53,12.12c-3.41,4.57-17.16,32.24-26.5,15.66-4.12-7.38.63-25.35,1.16-33.75.83-11,4.12-24.18.09-34.82-7.84-20.21-37.16-10.65-53.63-10.75-13.32-.06-29.17-5.39-20-22.32,3.45-6.41,10-10.92,15.46-15.66,16.35-14.07,30.1-11,50-10.16,3.79-.42,5.25-4.25,4.35-7.15,2.45,5.46,5.22,10.81,9.27,14.87,7,7.22,18.51,9.37,27.36,13.34,25.77,11.67,51,23.59,75.86,37.23,22.76,12.51,42.52,21.59,68.82,22.29,15.52.36,30.05.25,45.56,3.18,13.24,2.45,25.87,5,39.32,5.51,31.16,1.19,61.21.15,92.28,4.18,14.44,1.85,28.88,2,43.24,4.11,15.6,2.24,30.51,7,46,9.9,23.85,4.6,49.85,4.49,73.67,1.07,30.35-4.51,60.84-9,91.57-8.64,25.87.28,53.55,3.3,79.09-1.82,31.13-6.39,60.74-4.43,92.38-3.37a330.83,330.83,0,0,0,78-6.76c28.89-5.71,58.17-8.29,87.19-13.53,30.83-5.49,61.21-2.41,92-6.49,23.43-3.12,46.49-11.94,67.82-21.62,11.14-5,21.08-12.34,32.47-16.79,13.72-5.39,28-2.29,42.09-6.56,11.23-3.51,23-6.55,34.4-9.72,11.87-3.29,24.46-1.49,36.42-3.75,13.63-2.56,28.07-4.56,35.1-17.34a244.09,244.09,0,0,0,20.44-47.82c22-.86,37.64-11.25,56-22.9,4.56-2.9,9.08-5.66,13.81-8.22,7.49-3.91,11.32-7.62,18.19-1.17,8.28,7.79.8,9.56-2.09,18.59-1.21,3.59-1.77,6.12-1,9.93,2.31,11.49,15.41,17.75,24.47,23.23,7.94,5,18.47,10.35,16.52,21.27-2.34,13.36-22.08,21.29-31.21,30.08-10.8,10.36-20.23,23.91-35.8,27.1-15,3.11-30.56-2.13-45.64-1.64-15.26.59-23.66,8-21.4,24,1.11,7.37,4.15,12.4,8.87,18C1619.51,810.82,1622.41,830.37,1594,833Zm-909.74,244.9c-29.15,4.34-58,1.36-87.26,2.23-39.78,1.19-76.27-15.23-114.2-25.7,19.71.28,39.37.12,58.88-2.2,57-6.84,112.58-3.28,169.44,0,10,.59,19.4,4.53,29,7.26C722.25,1067.7,704,1075,684.25,1077.85Zm263.13-8.38c-10,.37-20.06.85-30.11,1.44-2.16.06-4.24.29-6.28.52a4.31,4.31,0,0,0,.22-4.23C923.27,1067.91,935.33,1068.75,947.38,1069.47Zm-38.57,22.75a12.92,12.92,0,0,1,1.18-1l.84-.67c3.38-2.9,4.84-5.26,4.61-8.15.75-.06,1.5-.1,2.23-.12h.21c10.75-.64,21.6-1.15,32.23-1.53,17.18-.62,31.32-1,44.53-1.28,9.14-.18,18.46-.24,27.48-.3,5.27,0,10.54-.07,15.83-.13l8.43-.16c7.52-.16,15.29-.32,22.91-.23,5.94.12,12,.4,17.93.67,7,.32,14.32.65,21.47.73,9.69.21,19.46-.06,28.91-.32l6.78-.18,6.11-.14c3.94-.09,8-.19,12-.18,4.41,0,8.91.08,13.26.16,7.81.13,15.88.26,23.93,0,3.36-.14,6.73-.09,10.28,0,3.37.06,6.84.11,10.39,0,6.13-.24,12.24-1,18.16-1.66,2.09-.24,4.17-.49,6.26-.71,2.89-.31,5.77-.64,8.65-1,6.59-.74,13.41-1.51,20-2,4.91-.33,9.94-.51,14.81-.69,3.54-.13,7.07-.26,10.49-.44,1.95-.06,3.81-.24,5.62-.4l1.63-.15,9.4-.81c4.45-.37,9-.76,13.58-1.2,2.23-.24,4.46-.54,6.61-.83,3.07-.43,6-.82,8.92-1s5.94-.3,8.77-.33a7,7,0,0,1-3.2,3c-4.11,1.84-6.72,6.09-8.22,9.4-1.9,4.37-5.46,7.31-10.29,11l-.15.12a12.67,12.67,0,0,1-1.62,1c-.33.18-.65.36-1,.55l-.52.35c-10.28,7.78-22.35,12.06-33.85,15.53-4.41,1.31-8.67,2.93-12.78,4.49-3.38,1.28-6.57,2.49-9.77,3.53a141.94,141.94,0,0,1-27.65,6c-5.79.58-11.62,1.33-17.26,2s-11.32,1.45-17,2c-10.25,1-21.4,2-35.08,3.15-4.67.37-9.45.68-14.09,1-7.63.49-15.52,1-23.33,1.81a286.18,286.18,0,0,1-36.6,1.57q-5.53,0-11,0c-8.13,0-16.54.06-24.74-.24-3.09-.09-6.18-.15-9.27-.21-10.53-.21-21.42-.43-31.9-1.79a109.09,109.09,0,0,0-13-.74c-2.33,0-4.75-.07-7.07-.2-2.12-.12-4.23-.39-6.46-.69-1.74-.23-3.54-.46-5.41-.63-2.93-.25-5.87-.44-8.82-.64-5-.33-10.07-.67-15.06-1.28s-9.68-1.44-14.79-2.39c-2.57-.48-5.15-1-7.72-1.38l-.11,0a7.7,7.7,0,0,0-2.69-.28c-6.81.17-13.45-1.52-20.8-3.57-2-.55-4-1.07-6-1.58a92.75,92.75,0,0,1-15.66-5,57.1,57.1,0,0,0-10.08-3.19l-2.56-.65-.45-.1c2.08-1.47,4.13-2.9,6.19-4.32l1.75-1.22C899.77,1101.25,905,1097.58,908.81,1092.22Zm-112.39,26.21a287.24,287.24,0,0,1,39.44-16.16c22.06-7.37,44.83-15.18,65.86-25.47l.72,2.34c.12.4.2.71.27,1a9,9,0,0,0,.63,1.86l-.43.33a16.91,16.91,0,0,0-3.24,3.12l-.14.18c-2.61,3.77-6.67,6.59-11,9.58l-1.74,1.22c-4.06,2.78-8.07,5.63-12.32,8.66l-6.51,4.64,4,4.71a18.34,18.34,0,0,0,8.38,5.71,26.51,26.51,0,0,0,4.67,1.08l2.4.61a48.85,48.85,0,0,1,8.11,2.5,103.29,103.29,0,0,0,17.57,5.65c1.94.49,3.87,1,5.78,1.51,7.91,2.21,15.7,4.18,24,4,.25.06.55.12.9.17,2.45.41,4.91.87,7.36,1.32,5.08,1,10.34,1.93,15.55,2.5s10.52,1,15.63,1.34c2.88.19,5.75.38,8.59.62,1.61.14,3.21.35,4.9.58,2.35.3,4.77.62,7.32.77s5.09.18,7.54.22a97.91,97.91,0,0,1,11.68.63c11.13,1.45,22.34,1.67,33.18,1.89,3.06.06,6.12.12,9.13.2,8.38.31,16.91.28,25.16.25,3.64,0,7.3,0,10.9,0a296.25,296.25,0,0,0,37.94-1.63c7.53-.79,15.31-1.29,22.83-1.77,4.67-.3,9.5-.61,14.26-1,13.77-1.11,25-2.11,35.33-3.17,5.79-.58,11.62-1.33,17.26-2s11.32-1.44,17-2a152.9,152.9,0,0,0,30-6.43c3.54-1.15,7-2.47,10.37-3.74,4.1-1.56,8-3,12-4.23,12.43-3.75,25.54-8.42,37.17-17.14l.5-.29a21.89,21.89,0,0,0,3.12-2c4.71-3.59,10.55-8,13.72-15.36a9.33,9.33,0,0,1,2.5-3.66c5.89-2.65,8.27-7.27,10.18-11,.32-.61.64-1.24,1-1.88,2.09-3.83,1-6.72.2-8.1s-2.88-3.72-7.3-3.74c-4.25,0-9.83-.06-15.21.34-3.3.23-6.53.67-9.65,1.1-2.15.3-4.19.57-6.2.78-4.43.43-9,.82-13.39,1.19-3.15.26-6.32.53-9.46.81l-1.67.15c-1.72.16-3.34.31-5.06.37-3.47.18-6.94.31-10.42.44-5,.18-10.07.37-15.23.71-6.82.55-13.73,1.33-20.4,2.08l-8.6,1c-2.13.23-4.25.48-6.38.73-6,.7-11.59,1.37-17.23,1.59-3.24.1-6.58,0-9.81,0-3.55,0-7.23-.1-10.87,0-7.73.27-15.65.13-23.31,0-4.4-.08-9-.15-13.44-.16-4.09,0-8.25.09-12.27.18l-6.07.14-6.85.18c-9.31.26-18.94.53-28.41.32-7-.07-14.2-.4-21.14-.72-6-.27-12.13-.55-18.27-.68-7.85-.09-15.72.07-23.33.23l-2.21,0c27.85-4.17,54.35-10.2,82.81-10.6,28.84-.44,57.38,1.3,86-2.36,28.93-3.69,57.1-12.79,86.46-12.2,27.38.49,52.69,2.43,79.65-3.07,28.76-5.76,55.45-4.92,84.56-5.28,18.63-.31,35.3-6.61,52.66-12.09-7.9,7.36-14.27,14-18.68,24.52-6.26,14.75-18,22-28,33.73-11.67,13.88-25.39,29-40.54,41.82-5.86-3.24-12.36-4.07-18.58.44-6.85,5-11.11,13.53-15.54,21.82a253.41,253.41,0,0,1-50.77,16.79c-2.89-4-5.13-8.42-9.33-11.62-18.5-14-37.61,6.22-48.74,20.1-16.73,1.9-33.07,5.09-49.41,8.47-2.14-1.45-4.89-2.33-9-2.31-7.85,0-13.61,3.29-18.45,7.93-3.26.63-6.53,1.26-9.8,1.85a364.74,364.74,0,0,1-52.09,5.26c-6.6-6.92-13.8-12-22.74-9.28-5.45,1.66-9.85,5.44-14.13,9.62-7.54-.07-15.11-.19-22.72-.3-12.09-.19-24.21,0-36.34.19a42,42,0,0,0-9.26-9.23c-10.17-6.86-21.87-7.07-33.13-3a51.85,51.85,0,0,0-18.52,11.61c-3.74-.24-7.47-.52-11.2-.89-24.11-2.45-50.25-2.75-74.27-8.56-3.4-5.33-7.49-10.06-13.94-12.82s-13.24-2.17-19.61-.08c-11.5-5.39-23.33-10.49-34.06-17-13.35-8.06-25.2-17.62-39.85-23.54-3-1.35-5.18.88-5.52,3.51-3.1-2.93-7.1-4.24-12.34-2.78C785.13,1124.94,790.53,1121.35,796.42,1118.43Zm589.45,39.82c-.64.76-1.31,1.49-2,2.18-2.75,2.64-7.32,8.11-10.63,9.42-3.74,0-7.35.1-11.13.26-5.3,2.17-9.45,1.92-12.37-.77A271.89,271.89,0,0,0,1385.87,1158.25Zm-50.7,4.66c-11.82,2.32-23.75,4-35.59,5.27,8.73-10,20.22-19.1,31.84-9.25A24.8,24.8,0,0,1,1335.17,1162.91Zm-56.84,16.88c-8.65,12.06-19.5,25.36-31.59,11.24a47.22,47.22,0,0,1-3.61-5q4.81-1.12,9.64-2.29A204,204,0,0,1,1278.33,1179.79Zm-78.68,15.31c-3.86,5.38-7.62,10.87-12.25,15-13.17,11.55-22.52,1.37-32.14-10A377.56,377.56,0,0,0,1199.65,1195.1Zm-69.79-4H1127A7.25,7.25,0,0,1,1129.86,1191.12Zm-29.58,9.52a33.26,33.26,0,0,1-7.78,4.94c-13,5.74-24.16,4.65-33.55-5,12-.17,24-.29,36,0Zm-61.13-9.48c-11.71.15-23.43.2-35.11-.16C1015.29,1184.71,1028.57,1183.05,1039.15,1191.16Zm-57.88,8c-1,1-2,1.94-3.1,2.93-10.59,9.73-46.48,11.94-58.16,1.44a44.26,44.26,0,0,1-8.28-10.72c22.16,4,46.07,4,67.35,6.16Zm-121.6-25.92-2.2,1.26c-5.38,3.19-10.16,7.58-15.71,10.43-17.85,9.14-32.06-1.93-37.15-19.21-2.07-7.23-3.84-19.93-8.36-28.69,17.3,7.41,31.37,20.21,48.29,28.55C849.56,1168.08,854.6,1170.69,859.67,1173.28ZM768,1134c.89-.35,1.75-.74,2.61-1.12-5.61,4.63-8.73,11.82-10.63,18.57-1.82,6.24-1.27,13.57-3.9,19.69-4.74,10.69-8.48,19.47-21.39,17.95-10.32-1.22-11.07-9.3-13.38-20.79-1-4.76-2.39-9.52-3.29-14.11-.39-1.94-.68-4.45-1-7.16A221.56,221.56,0,0,0,768,1134Zm-83.73,15.94c-1.06,2-2.11,4-3.22,5.82-5.21,8.68-16,26.75-27.5,27.61-10.75.81-15.59-10.82-19.88-18.54q-5.49-9.69-12-14.49C642.61,1150.46,663.51,1150.88,684.22,1149.94Zm-91.3.54a59.2,59.2,0,0,0-7.94,5.84c-13.52,11.6-24.48,13.49-35-1.76-1.68-2.47-3.24-5-4.69-7.68C560.91,1150.15,576.93,1150.56,592.92,1150.48Zm-81.74-31.55c12.24-8.65,14.85,3.33,18.14,13.45-7.8-2.87-15.49-6-23.76-7.49A26,26,0,0,1,511.18,1118.93Zm-55.29,14.26c11.43,1,22.83-.33,34.23-.18-2.78,5.1-5.11,9.65-6.91,12.37-3.45,5.13-7.24,13.85-12.28,17.3C453,1175,443.06,1147,440.32,1136.82c-.48-1.89-.95-4-1.59-6.19A147.7,147.7,0,0,0,455.89,1133.19Zm1183.88-26.41c-4.82,6.66-13.42,11.34-20.26,15.9-36.49,24-67.69,54.52-108.81,70.55-49,19-99.14,42.66-151.84,48.36-23.09,2.52-46.25,1.45-69.46,1.35A183.07,183.07,0,0,0,1262,1245c-13.84,1.92-26.69,0-40.45,3.4-23.73,5.73-46.51,1.78-70.37,4.47-23.43,2.69-46.56,4.06-70,6-25.28,2.22-51.15,1.08-76.42-.13s-49-9.06-74-11.6c-25.53-2.59-51.24-.8-76.86-1s-48.47-6-73.35-9.67c-53.59-7.88-109.35-2.49-163.46-4.12-27.81-.92-55.49-4.37-83.39-4.61-28.92-.16-57.42-1.17-86.26-3.73-26.77-2.29-53.76-4.8-80.32-8.58-13.84-1.94-24.75-5.33-37.77-9.71-8.8-3-17-3.41-25.61-3.39-3.67-10.41-11.23-19.94-18-28.27-4.12-5.24-24.46-28.79-1.57-16.24,8.59,4.75,15.32,13.73,24.43,18.65,7.39,4,19.07,10.27,26.86,3.75,8-6.61,4.54-19.91,4.85-28.51,1.6-37.18,32.31,10.58,42.87,18.84,15.59,12.1,26.82,1.74,32.48-14.65,1.55-4.62,2.59-9.41,4.1-13.9,1-3.08,2-8.35,4.44-10.65,6.24-5.76,5.76,1.65,7.47,7.22,4.41,13.34,10.19,29.43,24.67,35.87,22,9.66,32.81-20.58,43.83-40.83,12,1.64,22.24,6.64,33.72,10.26a117.17,117.17,0,0,0,5.82,10.9c7.25,11.72,18.06,24.36,33.58,21.29,19.65-3.82,29.46-40.24,50.74-10.51,6.6,9.37,10.28,23.6,23.17,26.65,13.15,3.14,25.72-9.06,32.95-18.2,4.65-5.72,8.4-12.18,12.15-18.63,1.14-1.89,2.1-4.1,3.2-6.15,4.07-.3,8.14-.65,12.19-1.09,4.26,12.6,2.79,28.89,10.78,39.9,7.85,10.78,21.39,13.62,32.1,5.65,12.27-9.16,15.9-22.94,18.62-36.59,1.56-7.62,8.73-32.35,22.54-9.85,2.06,3.26,1.79,9.6,2.56,13.29,1.67,7.84,3.76,15.69,8.05,22.56,6.78,10.57,18.29,16.87,31,15,13.64-2.06,26.66-14,39.19-18.46,4.65,2.23,9.31,4.35,14,6.2a109.77,109.77,0,0,0,13.74,4.48c.56.82,1.12,1.66,1.68,2.57,8.53,13.87,15.35,24.31,32.67,25.7,13,1.08,33.44,3.39,44.67-4.4,5.38-3.76,8.5-9.49,13-14.18,18.62,1.14,37.3,1,56,.69,8.72,10.63,15.67,20.24,32.49,18.17,13.39-1.62,25.91-8.84,35.4-18.07,9.47.06,18.88,0,28.27-.34,2,2.58,3.86,5.54,5.77,7.76,5.19,5.89,10.9,11.53,18.37,14.47,23.24,9.19,31.77-17.47,45.31-30.25,6-1.2,12.07-2.5,18.07-3.84,8.71,6.48,14.11,24.43,27.89,22.07,13.12-2.31,23.37-21.71,31-31.45l.54-.69c5.34-.5,10.69-1,16.06-1.73,11.14-1.41,22.32-3.2,33.39-5.51a35.27,35.27,0,0,0,6.71,8.28c13.74,11.62,25.74,3.23,36.93-6.58,8.19-7,12.93-14.21,18.45-22.17a111.58,111.58,0,0,0,25.3-17.13c4.69,3.35,8.49,11.16,12.89,19.35,5.35,10.09,14.46,16.72,24.79,7.77,12.39-10.83,16.68-34.68,22.63-49.39,1.25-3.29,3.24-10.91,6.85-12.7,13.47-6.75,15.08,6.36,18.77,12.89,2.87,5.11,5.15,8.59,10.77,10.19a4.9,4.9,0,0,0,4.69-1.13c11.45-11.44,18.16-48.47,36.86-48.61,8.51-.14,4.33,9.74,4.19,17-.18,5.66-.14,10.67,2.43,15.82a4.8,4.8,0,0,0,4.08,2.37c15.09-.07,27.39-10.21,41-15.34,3.78-1.44,8.17-3.4,12.21-3.47C1641.13,1088.24,1645.89,1098.41,1639.77,1106.78Z" fill="#231f20"/><path d="M3328.19,2500.55a78.19,78.19,0,0,0-16.06-16.89c-12.14-37-50-67.71-91.17-73.55-61.42-8.7-129.56,7-189.47,19-117.52,23.24-231.21,61-348.39,85.47-58.74,12.21-117.71,16.56-176.06,35.93-26.77,8.93-52,21.42-77.23,33.62-23.48,11.38-42.21,19.46-69.39,28.16-95.51,30.73-197.84,39.1-291.3,76.45-28.55,11.37-56.59,24.61-82,41.33-25.09,16.51-40.94,35.07-65.67,47.22,1.07-.66-9.23,3.4-9.91,3.71-6.85,2.42-13.78,4.53-20.57,6.66-11.92,3.74-23.8,7.33-35.32,12-32.17,13.12-56.6,30.8-75.58,59.18a44,44,0,0,0-7,26.88,51.15,51.15,0,0,0-4.88,23.78c1.11,28,28.41,55.72,59.1,52.62q221.36-22.89,441.5-54.15c135.72-19.33,273.39-39.88,393-108.71a50.79,50.79,0,0,0,16.76-15.72c58.87-14.84,118.08-29.17,176.69-44.94a2965.61,2965.61,0,0,0,442-156.56C3329.58,2567.66,3350.73,2533.08,3328.19,2500.55Z" fill="#f3ac75"/><path d="M3748.67,2657.87c3.89-42.71-10.39-86.67-37.31-120.26-64.66-80.61-169.43-97.67-268.23-71.45-99.63,26.48-177.15,94.27-265.86,141.3-34.41,18.26-71.12,32.81-108.82,45.52l-3.8,1.15c-13.74,4.31-27.42,8.83-41.12,13.11q-6.34,1.91-12.7,3.78c-6,1.56-12.07,2.85-17.92,4.58q-9.57,2.88-19.06,6.09c-24.86,7-49.7,14-74.15,21.28-197,58.75-389.62,131.39-589.66,181-96.25,23.79-189.23,41.18-288.32,48.15a32.09,32.09,0,0,0-3.61.29c-1.84-.67-3.69-1.35-5.57-1.89-42.68-13.38-96.69-13.32-139.75,3.75-1.06-.07-2.3,0-3.36-.1-47.78-2.34-98.7-5.77-140.19,20.77-37.46,11.29-70.53,33.23-88.84,68.84-22.9,44.58-15.29,97.94,20.78,131.68,6.08,16.36,16.28,30.79,29.34,43.87,8.8,8.75,18.77,16.42,28.42,24.16,6,4.78,12.09,9.87,18.81,13.47a256.76,256.76,0,0,0,29.83,13.09c9.09,3.36,18.56,5.75,27.89,8.71a55.75,55.75,0,0,1,5.74,2.52c-2.93.72-4.18,1.49-5.21,1.28-4.52-1.08-9-2.45-13.48-3.67a15.06,15.06,0,0,0-1,1.85c2,.85,3.86,2,6,2.72,4.73,1.56,9.36,3.55,14.21,4.55,9.26,1.92,18.52,3.83,27.94,5,6.27.85,12.76.71,19.19.86,8.55.29,17.13.44,25.63.28,3.87-.09,7.48-1.12,11.26-1.51,6.59-.56,13.26-.81,19.88-1.51,22.9-2.64,46-5.4,68.82-8.5,8.72-1.15,16.7-5.85,19.47-13.39,3-7.75,7.55-15.19,9.45-23.43,27.83-17.63,49.85-43.69,58.42-74.67a88,88,0,0,0,2.07-39.21c1.47-1.81,3-3.56,4.61-5.27,3.8.36,7.64.62,11.45.73,46.93,1.28,95.71-13.14,141.73-21.48,53.57-9.74,107-19.66,160.58-29.4,103.65-19,206.61-39.8,307.28-70.2,193.06-58.24,378.63-140,578.31-176.36,13.46-2.39,37.49-3.92,50.78-6.93,3.32,5.11,6.27,10.44,9.2,15.92,19.47,37.23,43.09,70,86.92,81.61,1.43,2.53,2.93,5,4.6,7.5,1.42,1.91,3.58,3.24,5.09,4.73,2.94-1.45,5.49-3.88,7.07-3.4,5.23,1.37,9-1,13.41-2.84,1.65-.69,3.33-1.33,5-2,39.7-1.14,79-20,110.55-41.27,41.16-27.79,82.43-57.48,120.73-89C3718.09,2744,3744.26,2704.9,3748.67,2657.87Zm-1923.6,609.47c-2.47-.66-4.82-1.14-7.17-1.63,3-2.47,5.46-2.41,7.61-.34Z" fill="#d68076"/><path d="M3479.49,3189.38a24.06,24.06,0,0,1,1.27-3.57c21.62-54.77,1-108.89-21.34-161.15-4.22-11.06-8.92-22-14-32.71-3.4-8.2-6.63-16.34-9.52-24.42-12.87-35.84-24.2-72.4-33.61-109.31-9.68-37.69-17.57-73.84-57.48-92.7-34.76-16.47-75.3-9.94-110.69,1.05-38.67,11.92-77.26,24.17-115.85,36.41q-211.11,66.26-422.07,132.43-6.41,2.82-12.81,5.69-28.58,13.32-56.68,27.53c-26.95,13.65-53.15,28.68-81.16,40.32a207.89,207.89,0,0,1-30.8,10c-16.53,4-33.59,7.73-50.54,9.43-12.1,1.21-24.61.9-36.78,1.4-9.21.38-18.83.13-28.19.8-8.24,2.27-16.35,5-24.61,7.21a290.77,290.77,0,0,1-36.43,7.09c-12.24,1.67-25,0-37.1-1.25-33.28,5.7-68.08,9.2-101.55,15.71-26.08,5.11-51.38,13.26-74.36,25.52-15.59-1.19-32.14,2.6-45.09,10.62-14.45,8.94-27.61,25.66-30.89,42.2q-41.17,68.42-82.26,136.79c-14.43,23.87-28.75,47.91-43.19,71.77-16.22,27-31.47,53.84-29.51,86.25,3.41,60.15,59.48,98.87,113,117.9a326.51,326.51,0,0,0,156.34,14.87c27.08-4.15,50.67-13.29,76.9-19.82,7.64-1.82,14.18.56,26.49,1.93a500.55,500.55,0,0,0,51.19,2.89c56.67-.25,113.71-7.65,170.26-12.2,115.54-9.63,231.39-18.61,345.86-37.16,129.78-21,256-54.38,377.67-102.88a72.54,72.54,0,0,0,18.22-10.54c21.27-4.32,42.29-9.56,62.5-17.34a360.85,360.85,0,0,0,57.07-28.78,66.09,66.09,0,0,0,25.74-14.6l18.87-16.91c25.62-20.23,49.74-42.68,73.3-65.4C3482.68,3230,3486.08,3208,3479.49,3189.38Z" fill="#f3ac75"/><path d="M3421.81,2589.72a8.56,8.56,0,0,0-3.86.05,37.18,37.18,0,0,0-17.84,6.31c-42,27.61-97.72,19.36-145.86,25.5-28.05,3.65-55.31,10-80,23.91-12,6.82-21.84,16.43-32.76,24.65-11.79,8.63-22.6,9.5-37.26,9.72-31,.52-59.63,1.11-87.72,15.23-22.2,11.19-40.55,28.5-58.82,44.79-16.33,14.48-32.43,28-55.57,28.95-31.88,1.53-61.27-3.21-92.45,6.13-51.76,15.43-89.78,56-140.33,72.81-25,8.42-51.71,7.62-77.63,11.41-34.18,4.9-58.78,16.49-85.67,36.9-19.31,14.74-40.67,11.22-63.74,7.78-32-4.69-63.23-8.18-95,.17-28.93,7.59-55,23.89-80.15,39.06-20.81,12.52-42.51,25.59-67.61,27.79-30.1,2.49-45.76-26.41-74-32.38-34.81-7.34-74.63,10.4-104.06,27-28.39,16.12-48.79,38.46-72,60.37-2.93,2.78-11.76,7.16-10.43,8.76-4.24-2.35-5.65-12.53-5.18-16,3.21-19.1-7.2-38.51-27.86-43.07-18.61-4.14-41.68,7.47-44.92,26.72-9.64,57.31,38.45,124,104.94,98.52,30-11.52,46-38.3,69.67-57.46a181.34,181.34,0,0,1,37-23c8.44-4,27.64-13.47,35.49-12.14,7.09,1.31,21.35,15.91,29.1,20.46,14.71,8.49,31,12.6,48,13.74,1.88.14,3.77.24,5.65.3a60.46,60.46,0,0,0,17.44,3.73c11.23.7,22.58.83,33.34-2.56,7.94-2.49,16.55-3.81,23.39-9.62a278.92,278.92,0,0,1,22.64-16.57,51.66,51.66,0,0,0,9.12-7.78c18.16-10.83,35.61-22.84,55-31.2,20.2-8.71,39.35-8.73,59.43-6.53.78.68,1.57,1.34,2.35,2,5.41,4.66,10.73,9.74,16.36,14.14a17.77,17.77,0,0,0,8,3c7,1.15,14.15,2,21.22,2.76a22.67,22.67,0,0,0,8.56-.45c10.4-3.16,20.75-6.77,31.19-10.08a38.72,38.72,0,0,0,17.41-11.28,108.65,108.65,0,0,0,14.62-6c12.84-6.5,22.67-16.71,34.44-24.6,11.06-7.46,24.79-10.38,38.06-11.91,30.49-3.59,61.82-4.06,91.06-14.39,27.91-9.88,52.92-25.36,77.64-40.91,21.15-13.34,43.48-28.5,68.89-33.43,33.13-6.43,66.63,4,99.82-6.09,27.08-8.27,49.1-26.15,69.67-44.47,15.73-13.87,32.32-32.27,54-37.08,16.84-3.76,35-1.18,52.15-2.07,19.64-1.11,38.28-5.37,55.45-14.66,14.54-7.92,25.53-20.55,39.76-29.12,12.26-7.35,26.54-11.33,40.77-13.71,31.49-5.3,63.54-5.38,94.75-8.5a70.09,70.09,0,0,0,20.7,6.08c4.51.49,8.93.67,13.47,1,3,.19,6.12.83,9,.24,9.64-1.84,16.76-8.19,24.54-13.37,2.32-1.44,4.07-3.73,5.93-5.85,3-3.56,5.72-7.28,8.75-10.71,3.46-1.9,6.88-3.94,10.27-6.17C3472.54,2635.38,3452.05,2591.26,3421.81,2589.72Z" fill="#e7b654"/><path d="M3720,2579.51c-.48-21.19-5.84-48.7-17.24-67.13-15.5-25.48-39.65-20.73-65.42-28.56-14-4.21-26.66-10.07-41.41-12.23-15.92-2.4-29.12-1.15-44.8.19-7.39.69-14.83-.41-22.22.28-10.37,1-20.44,4-30.59,6.07-20.65,4.3-41.65,8.07-62.51,11.88-9.46,1.73-19.62,2.44-28.6,5.45-6.5,2.2-9.77,5.81-15.08,9.58-16.31,11.54-38.93,17.61-59,21.73-1.84-15.23-9.78-33.32-16.2-44.48a124.84,124.84,0,0,0-46.28-46c-19.68-11-45.86-10.21-67.79-11.2-28.18-1.24-57.82,8.13-85.15,13.4-64.11,12.14-128.45,22.6-192.35,35.22-29.62,5.84-56.29,12.28-83.76,24.31-29.7,13-63.52,18.45-95.19,25.19-30.86,6.61-61.51,14.3-92.43,20.45-13.37,2.7-26.93,6.24-40.5,7.72-17.34,1.88-35.19.55-52.76,1.35-30.81,1.6-58.54,11.37-87.08,22-12.76,4.74-25.76,8.54-38.6,13-14.65,4.95-27.61,13.33-42,19.07-22.14,8.9-43.7,14.77-66.32,19.59a4.07,4.07,0,0,0-4.54-2.06c-25.9,4.39-49.72,11.12-75,18-25.67,6.79-50.95,14.56-74.9,26-11.85,5.52-23.5,8.72-36,12.2-16.91,4.77-31.19,12.88-48.89,16.31-12.86,2.51-25.71,5.61-37.65,10.81-12.62,5.51-22.8,15.21-35.78,19.61-13.5,4.59-23.84,6.14-36.66,13.23-12.5,7-25.45,12.6-38.63,18.58-26.38,12-51.49,27.87-76.23,42.82-37.21,22.56-78,48.51-82.67,94.15-1.46,14.75-2.91,34.22,12.35,43,3.69,2.09,7.8,2.94,11.85,4.07,8.73,2.25,15.85,5.49,24,8.8,11.14,4.51,23.18,5.67,35.13,5.92,58.89.8,119.7-4.2,177.48-15.58,60.5-11.84,121.72-22.81,181.47-37.46,63-15.47,127.57-22.79,189.9-40.75,28.47-8.28,58.92-8.93,87.13-17.41,13.19-3.92,25.57-11.1,38.47-15.81,13.73-5,27.6-9.2,41.19-14.21,14.92-5.48,30-6.93,45.32-10.71s29.79-9.34,44.84-14.05c26.11-8,52.79-12.41,78.48-22,28.89-10.85,55.14-22.25,85.67-28,14.32-2.8,28-8.23,42.09-11.37,14.59-3.33,29.72-4.93,44.44-7.5,25.41-4.19,50-10.18,72-23.34,24.53-14.7,52.17-20.64,78.82-31.07,28.66-11.2,57.57-24.85,84.83-38.69a215.2,215.2,0,0,0,28-16.49c9.87-7,15.9-17.37,27.23-22,27.07-10.94,54.67-20.14,82.42-29.31,13.93-4.5,37.72-7,40.19-24.15.1-.74.15-1.51.21-2.27a213.9,213.9,0,0,0,68.52-27.06c14.09-8.6,32.74-9.47,49-12.6,17.37-3.35,35-6.36,52.25-10,27.13-5.75,58.81-9.83,86.7-6.58,15.42,1.86,28,6.95,42.29,11.68,13.47,4.4,28.18,3.31,41.5,7.68,28.06,9.34,31.54,43.83,35.69,67.85,4.74,27.53-6.68,58.51-17.89,83.78-5.38,12.31-8.44,25.25-14.78,37.07-7.72,14.49-15.88,29.62-25.27,43.32-15.77,23-35.69,44.55-53.07,66.48-23.79,29.9-50,62.12-83.87,81.66-16.43,9.45-32.4,20.31-51.43,24.2-14.89,3.11-28.91,7.64-43.37,11.33-2.08-13.18-4.48-26.34-10-38.59-7.62-16.76-19.17-33.16-29.88-48.5-9.59-13.49-19.47-32.49-32.79-43.06-5.1-4-11.63-5-16.83-8.63-5.72-4-7.82-11.06-13.19-15.27-11-8.61-27.26-5.33-40-3.39-37.43,5.7-72.19,18-108.14,29.45-18.05,5.72-36.43,8.12-54.2,14.63-22.31,8.23-44.76,16.42-66.41,25.82-39.7,17.18-78,34.06-121,42.73-40.12,8.09-81.37,10.94-118.63,28.91-16.91,8.16-33.67,16.35-50.43,24.55-21.25,10.36-42.95,11.78-65.09,18.57-34.82,10.51-68.51,32.47-98.57,51.93-7.21,4.71-13.35,10.81-20.56,15.52-10.1,6.62-20.8,7.66-32.48,9.67-21.15,3.75-42.27,8.09-63.3,12-44.82,8.44-89.88,19.35-135.07,25.36-40.14,5.43-82.78,4.89-123.11,5-18.17.09-35.93,4.53-53.74,7.79-17.66,3.29-36.56,4.55-53.3,11.27-14.39,5.88-24.41,16.94-36.44,26-14.62,11-15.87,23.42-24.86,38.09-9.25,15.2-25.09,26.83-35.2,41.71-9.06,13.61-16.16,30.15-22.14,45.14-5.91,14.71-8.35,27.63-29.23,28.77-8.08.4-16.29-1.44-24.48-2-22-1.58-44.27,1.92-66.11,2.58-18.12.53-36.16,2.12-54.24,1.78-23.74-.48-38.15-11-57.26-22.45-31.74-18.94-65.46-38-89.39-66.39-11.19-13.23-12.65-36.84-15.67-53.54-3.68-19.93-.57-35.81,8.55-53.84,4.89-9.47,11.94-16.86,10.66-27.6-.65-6-3.24-10.26.28-16.32,4.3-7.52,13.72-11.77,19.1-18.62,10.61-13,20.66-33.79,38.19-39.91,8.84-3,20.76-3.38,30.08-5.15,10.76-2,21.68-4.08,32.59-6.1,5.77-1,4-9.36-1.67-8.31-19.76,3.74-40.1,6.62-59.8,10.81-15,3.24-22.89,13.57-32.44,24.58-4.18,4.89-7.44,9.82-11.24,15.08-4.94,7-11.5,11.5-17.34,17.66-7,7.12-9.64,12.77-7.86,22,2.71,14-7.41,25.47-13,38.17-6,13.21-7.55,24.7-6.18,39.15a322.5,322.5,0,0,0,8.89,49.48c3.49,13.25,13.73,22.45,23.58,32,10.46,10.27,23.2,18.65,34.86,27.7,15.07,11.66,31.56,19.05,47.42,29.26,11.3,7.2,21.92,15.44,35.35,18.66,17.4,4,37.24,2.67,55,1.76,17.3-1,34.5-1.58,51.69-2.75,12.67-.93,25-1.91,37.89-.88,9.07.69,18.07,2.4,27.2,1.48a41.19,41.19,0,0,0,9.37-2.05c-10.63,20.25-21.84,40.26-30.51,61.26-7.35,17.66-13.29,33.84-23.46,50.33-7.11,11.81-15.9,25.63-19.32,38.79s1.44,29.21,5.08,41.76c4.45,15.82,11.38,19.9,22.89,31,9.48,9.18,14.73,16.61,28,21.13,9.72,3.33,18.74,5.63,27.81,10.46,7.58,3.92,14.49,8.74,22.86,11.21,6.08,1.7,12.33,1.95,18.6,2.81,8.65,1.19,16.6,4.16,25,5.89,18.09,3.73,37.38,5.5,55.65,8.39,38,6.08,78.5,5.29,116.69,3.74,6.38-.31,12.42-1.87,18.57-3.25,10.07-2.35,16.56-.42,26.37.43,7.54.67,13.79-1.14,21.32-1.8,12.41-1.12,25.71.59,38.11,1.53,37,2.61,73.83,2.11,110-5.47,17.93-3.82,35.79-8.69,54-11.85,22.24-3.82,42.92-2.06,65.06.74,19.28,2.51,39.83,9,59.22,8.25,21.1-.81,43.63-8,64.51-11.91,14.94-2.81,28.61-5.45,42.62-11,21.42-8.41,45.73-10.47,68.34-13.91,18.81-2.91,38.14-5.41,56.75-9.53,20.1-4.55,38.43-14.93,58.19-20.73,41.87-12.45,86.94-17.9,130-26,19.28-3.69,38.61-6.19,56.86-13.48,21.31-8.58,43.9-14,66.29-19.8,38.74-10.15,73.71-28.89,112.56-38.86,17.8-4.59,32.76-6.81,49-15.27s30-16.24,43.24-28.83c12.69-12,27.6-20.12,40.6-31.45,13.57-11.8,31.06-19.11,43.87-31.65,8.9-8.79,12.24-18.87,14.46-30.8,3.59-18.73,7-36.47,12.9-54.72,11.2-34.12,7.72-67.29,1.5-101.91-3-16.71-5.54-33.6-11.49-49.58-6.79-18.36-20.79-30.69-29.91-47.62A185.24,185.24,0,0,1,3422,2929c-.36-2.06-.69-4.14-1-6.21,13.56-3.62,26.64-8.29,40.83-10.79,18.43-3.28,32.37-11.9,48.19-20.73,30.26-16.91,53.28-39.3,75.65-64.92s41.29-53.73,63.74-79c20.44-23.22,35.12-52.93,45.08-81.56C3704.16,2638.2,3720.62,2609.44,3720,2579.51Zm-423-27.59c-13.78,4.53-27.42,9.09-41.21,13.62-12.12,4-24.25,8-36,12.93-7.31,3.07-17.73,5.64-23.91,10.56-9.17,7.25-14.26,16.23-25,22.86-11.43,7.08-23.68,13-36,18.53-25.55,11.69-50.7,24.35-77,34.11-22.13,8.11-46.09,12.75-66.1,25.14-25.22,15.74-52.86,21.69-82.19,26.25-26.47,4.13-51.55,12.38-77.76,17.44a331.12,331.12,0,0,0-71.39,22c-26.13,11.57-53.15,17.49-80.87,24.46-26.92,6.83-52.05,16.69-79.5,21.79-23.43,4.31-46.88,14.22-69.19,22.44-14.27,5.32-27.33,12.8-42.4,16.18-13.9,3-28,4.84-42.08,7.24-28.95,4.94-56.5,14.6-85.12,20.78-28.94,6.27-58.39,10.66-87.43,16s-57.46,13.36-86.4,19.63c-55.61,12-111.92,23.65-167.9,33.19a678.87,678.87,0,0,1-89.38,9.57c-26.64.84-55.05,4.72-81.51,1.32-13.6-1.78-24.55-9.2-37.66-12.5-20-5-23.47-16.05-22.4-33.83,1.51-25.21,13.88-45.37,33.39-61.7,41.26-34.4,93.09-59.7,141.93-82.65,11.86-5.52,22.63-13.77,35.2-17.67s22.08-5.17,33.37-12.28c12.72-8,23.6-14,38.39-18.19,11.64-3.2,23.75-4.39,35.27-7.76,14.49-4.24,27-11.25,41.79-14.83,11.22-2.7,20.88-7.34,31.19-12.15,23.7-11,50.14-19.15,75.66-25.24,10.57-2.53,19.94-5.91,30.23-9.24a123.49,123.49,0,0,1,17.09-4,4.17,4.17,0,0,0,5.15,3.54c24.91-4.74,49.39-8.24,72.89-17.69,26.21-10.53,50.85-23,77.77-31.89,27.93-9.28,55-22.14,84.41-26.53,28.5-4.3,57.37,0,85.8-5.3s56.31-11.68,84.37-18.13c27.88-6.34,57.64-10.08,84.94-18.61,12.09-3.84,24.81-6.38,36.64-10.43,12-4.15,22.77-10.93,34.66-15.26,29.31-10.62,62.6-14.37,93.25-20,59.36-10.9,118.93-21.32,178.21-32.54,28.28-5.37,54-10.1,82.92-8.25,13.82.79,29,1.57,41.62,7.86,11.47,5.76,22.19,14.9,30.72,24.19,14.85,16,27.81,40.94,29.05,63a4.61,4.61,0,0,0,0,4.23C3323,2546.87,3308.68,2548.17,3297,2551.92ZM3428,2977.41c7.6,16.17,19.13,27.84,28,43,10.81,18.31,13.82,39.88,17.55,60.26a452.57,452.57,0,0,1,6.54,50.33c1.53,23.33-5.7,43.22-12.62,65.1-4.27,13.57-5.17,27.84-8,41.72-5,24.79-22.18,33-42.09,46.33-6.5,4.27-11.24,9.63-17.21,14.3-6.93,5.5-15.44,8.46-22.51,13.94-16.45,13-28,27.41-47.56,37.09-17.5,8.77-32.76,13-51.65,17.65a371.66,371.66,0,0,0-55.92,18.85c-19.89,8.43-38.66,15.32-59.72,20.71-18.63,4.86-38.53,8.57-56.51,15.33-41.51,15.62-85.61,21.56-129.3,29.8-20.41,3.9-41.1,7-61.07,12.32-18,5-34.79,12.44-52.26,19s-37.61,7.87-56,11c-21.77,3.77-43.78,5.87-65.13,11.19-15.45,3.75-29.38,10.31-45,13.29-21.83,4-43.62,9.28-65.51,12.88-21.08,3.46-41.77-3-62.67-5.86-18.81-2.56-37.82-5.6-57-3.94-18.52,1.63-36.67,6.44-54.82,10.51-8.43,2-17,3.86-25.54,5.5-11.24,2.1-22.08,1-33.31,2.41-19.44,2.33-36.8,3.61-56.39,1.78-19.15-1.74-38.32-3.34-57.29-1.06-8.54,1-15.37-2.14-23.62-2.37-7.31-.32-14.26,2.52-21.18,3.89-17.25,3.52-40.33,4.22-57.74,3-19.21-1.46-38.59-1.48-57.74-3.22-19-1.71-38.37-5.85-57.5-8.33-15.25-2-30.47-6.14-45.77-8.56-18.42-2.92-34.2-16.21-52.23-21.55-15.86-4.75-26.15-16.46-37.87-27.29-12.62-11.61-20-37.62-17.86-54.73.92-8.22,7.73-16,11.12-23.52,4.15-8.88,9-16.87,14.13-25.25,9.08-15.09,13.24-32.23,20.32-48,11.12-24.84,25-48.36,36.86-72.73a29.74,29.74,0,0,0,1.61-3.37c3.35-7,6.52-14.06,9.39-21.26a3.67,3.67,0,0,0-.17-3.38c2.58-5.36,5.36-10.67,7.9-16,8.84-18.83,21.51-33.47,35.91-48.94,11.36-12.26,13-30.51,24.88-41.62,12.51-11.88,29.72-26.17,46.26-31.31,19.74-6.4,41.68-8.21,62.06-12,38.25-7.3,78.06-4.39,117-7.12,19.22-1.35,37.86-1.48,56.83-5.09,22.62-4.18,45.17-8.67,67.8-12.85,41.26-7.7,82.48-15.86,124-23.23,16-2.88,25.86-6.9,38.22-16.74,16.84-13.34,36.61-23.27,55.09-34.36,15.13-9.12,30.71-17.55,47.55-23.37,20-6.93,41.29-7.11,60.89-15.6,38.33-16.58,72.47-38.44,114.3-46.62,40.24-7.92,80-14.32,119.39-26.1,39.23-11.66,76.09-32.67,114.39-47,36.32-13.74,74.81-19.36,111.14-32.51,20.94-7.63,39.82-13.61,62-17.15,8.31-1.38,18.17-4.21,26.65-2.91,14.86,2.34,15.91,12.73,26,19.38,6,3.9,13.37,5.56,18.9,10.39,7.19,6.35,11.66,16.57,17.47,24.26,13.19,17.32,25.89,35.43,36.36,54.56,7.64,13.74,11.38,28.73,14.38,44l-.92.22c-5.51,1.22-3.87,9.67,1.67,8.31l.83-.2C3417.07,2942.51,3420.14,2960.65,3428,2977.41ZM1882.24,3081.92c14.46,18.48,39.43,25.11,62.73,23.43,27.23-2,51.77-17.49,68.25-38.13,22.67-28.36,47.71-59,86.46-65.79,20.79-3.52,30.89,4.9,43.29,19.56,7.65,9.1,18.22,18.22,30.5,21.05,13.47,3.07,29.57-2.89,42.59-5.37,18.64-3.53,37.82-6.06,56.24-10.66,32.3-8.23,42.55-34,66-53.49,16.11-13.5,41.17-21,60.87-10.75,11.29,5.88,20.82,15.51,33.39,19.14,12,3.51,27.51,4.21,40,5,14.85,1,32-2.68,45.89-7,32-9.76,42.44-46.56,65.65-67,22.81-20.07,41.54-10.3,66.67-3.05,15.48,4.38,32.17,4.72,48.23,3.76,10.31-.67,19.52-3.34,27.44-9.82,4.33-3.53,7.9-7.81,11.45-11.95,7.44-8.49,14.26-12.84,22.86-19.62,13.58-10.47,25-23.6,38.37-34.56,5.65-4.58,11-9.37,16.64-13.82,10.31-8.2,18.15-8.2,30.37-10.55,9-1.82,20.1-6.62,29.46-5.13,7.41,1.24,11.49,6.36,16.25,11.18,7,7.06,13.42,12.21,24.18,12.22,12.3,0,28.32-4.19,40.31-6.87,11.51-2.64,19.14-9.18,26.32-17.88,9-10.53,13-21.51,19.47-33.3,10.35-18.66,35.53-31.46,56.18-35.75,13.7-2.78,24.72-3.89,37.81,2.2,3.63,1.64,6.91,3.49,11,4.48,14.25,3.68,33.49,1.61,47.44-2.3,11-3,17.38-8.21,24.24-16.83,11.64-14.85,26.91-26,43.2-36.22,17-10.65,37.89-18,58.47-15.8,19.38,2.08,37,11.46,56.2,14.84,9.32,1.63,18.83,1.09,28.2,1.84,8.89.81,17.56,3.33,26.45,4.14,12.23,1,24.55-.39,33.59-9.15,8.33-8.31,12.26-20.33,16.31-30.85,5.23-13.67,11.49-27.87,12.19-42.62.89-21.8-16.13-39.18-39.92-30.52-9.37,3.38-12.08,9.31-15,18.15-1.89,5.66-3.36,11.55-6.25,16.85-7.53,14.38-18.94,17.92-34.4,19.6-17.66,2-35.25-1.23-52.85-.29-18.83,1-35.15,5.13-54.2,3-36.39-4.42-57.89,14.6-80.68,39.4-4.05,4.32-7.84,8.85-11.92,13.32-13.14,14.69-23.58,10.47-38.84,5.84a117.44,117.44,0,0,0-41.84-4.8c-29.21,1.94-68.81,5-90.6,26-8.83,8.51-15,19-23.09,28.13-13.2,15-31.71,21.34-51,26.21-17.26,4.26-37,7.85-54.66,3.62-13.43-3.22-20.48-8.8-34.8-6-13,2.48-21.33,8-30.2,17.37-15.35,16.3-33.81,25.18-53.15,36.67a103.57,103.57,0,0,0-29.47,25c-7.6,9.2-15,11.81-26.42,14.9-8.86,2.45-17.78,7.25-26.79,8.34-16.79,2.14-28.35-9.39-44.11-9.11-17.64.49-39.12,2.25-56.15,6.85-31.81,8.77-54.37,33.91-73.65,58.11-16.9,21.14-42.48,19.25-63.37,4.76-5.2-3.58-8.71-5.78-14.75-7.62a242.27,242.27,0,0,1-25.89-8.73c-27.64-11.17-50.51.93-71.79,17.63q-21.27,16.62-43.27,32.37c-17.06,12.26-43.93,16.15-64.6,19.85-20.21,3.65-31.13,4.34-48.91-7.59-13.75-9.33-27-17.38-42.77-23.29-14.19-5.29-24.57-3.59-39.16-.26-17.64,3.88-29.48,6.6-44,17.17a249.36,249.36,0,0,0-36.33,32.32c-8.33,9.18-27.77,34.05-42.33,31.3a1.52,1.52,0,0,0,0-.21c-5.61-23-20.78-49.28-45.6-58-22.24-7.83-33.72,9.71-36,28.71-1.51,13.56,2.93,26,5.36,39.17C1872.48,3058.23,1873.38,3070.66,1882.24,3081.92Zm-5.69-89.08c8.07-14.71,21.48-10,32.27-1.9,15.13,11.39,24,27.24,28.36,44.95a5.44,5.44,0,0,0,1.07,2.06,4.34,4.34,0,0,0,2.7,4.47c22.71,9.85,44.29-22.57,57.43-36.53,11.12-11.87,23.55-22,36.87-31.33,13.51-9.46,44-17.91,61-14.7,16.38,3.09,31.6,12.72,44.94,21.82,10.16,6.82,20,14.9,33,15.65,12.14.74,25-3.24,36.89-5.36,16.18-2.86,34.8-7,49.41-13.85,28.08-13.38,47.38-43.17,76.32-54.9a52.23,52.23,0,0,1,37.76-.31c5.92,2.4,10.74,5.61,17,7.19,7.84,2.06,14.39,2.38,21.48,7.09,4.56,3,8.4,6.46,13.59,8.71,27.14,11.35,48.71,5,65.73-16.67,10.59-13.6,22-26,36.16-36.35,18.23-13.34,37.15-18.14,59.68-19.83,7.53-.66,15.22-2,22.81-2.23,9.91-.31,15.45,3.78,24.44,6.23,12.57,3.63,23.23,2.73,35.53-1.37,12.28-3.95,27.88-5.6,38.06-14,4-3.31,6.9-7.43,10.26-11.45,8.06-9.85,16.37-15.36,27.54-21.9,13.09-7.63,28.35-13.92,40.06-23.6,13.59-11.2,20.57-25.84,40.37-28.39,13.63-1.76,25.53,6.89,39.29,8,15.11,1.21,30.54-1.07,45.13-4.4,24.69-5.82,46.18-14.51,62.23-33.91,8.05-9.84,14.75-21.15,25.39-28.83,15.78-11.35,38.18-12.48,57-15.38,19.57-2.89,37.91-4.42,57.21.75,11.31,3.07,22,10.43,33.91,6.56,10.94-3.5,18.2-15.28,25.19-23.13,13.32-14.8,30-34.82,50.37-40,16.46-4.13,32.44,2.12,49,1,18.24-1.1,35.18-5.28,53.72-4.25,21.6,1.07,52.86,3.68,68.26-14.23,7.54-8.92,8.36-20.11,13.5-30,7.47-14.09,22-16.41,31.45-4.42,9.12,11.47,4.81,25.18.36,38.13-4.08,12-8.23,25-14.56,36.08-13.38,23.94-37.23,13.71-59.26,11.81-20.1-1.64-37.52-4.2-56.81-10.1-13.94-4.36-27.72-8.09-42.49-6.71-30.27,2.6-55.29,20.15-78.06,38-10.27,8.06-16.36,22.14-27.6,28.38-16,8.93-42.85,8.56-59.35,1.9-11-4.48-17.94-7.09-30.09-5.76-15.3,1.7-31.25,4.9-44.44,13-10.48,6.24-23.27,15.25-30.26,25.17-7.76,11.23-10.78,24-19.71,35-11.91,14.65-24.31,15.78-42.12,19-7.54,1.39-16.93,5.5-24.71,3.16-7.19-2.23-10.95-8.76-15.86-13.61-17.36-16.56-40.3-5.51-61.38-2.05-13.58,2.22-17.75,7.11-27.85,15.79-12.56,10.68-26,20.59-37.92,31.85-9.94,9.31-22,16.55-31.17,26.46-14.36,15.33-21.84,24-44.67,24.26-18.06.26-33.57-1.91-50.59-7.64-14.29-4.87-27.65-9.1-42.57-3.62-28,10.15-41.46,40.11-58.63,61.06-22.48,27.51-65.05,23.89-97.23,19.9-16-2-26.78-13.64-40.48-20.45-10.62-5.44-21.64-6.39-33.38-4.09-25.74,5-41.11,20.72-57,39.56-13,15.31-25.82,25.2-46.21,29.7-17.81,4-35.94,6.59-53.77,10-20.74,4-38.78,8.95-55.94-7.13-8.37-7.92-13.45-18.85-23.77-25-18-10.94-44.85-3.06-62.49,5-13.19,6-22.19,15.92-31.73,26.2-10.52,11.25-20.84,20.18-30.08,32.58-20.81,27.57-57.31,44.23-92.28,33.47-16.11-5-29-16.62-33.12-32.66-3.87-15-8.83-34-8.6-49.42C1873.11,3005.4,1873.67,2998.14,1876.55,2992.84Zm-142.88,104-4.42.84A64.09,64.09,0,0,0,1748,3107c5.49,1.57,2.6,9.68-2.9,8.1-10.43-3-19-8.77-27.08-15.31l-5.23,1c-2.67,17.14-3.75,34-.35,51.53,1,5.36-7.75,7.1-8.63,1.46-3.47-17.76-2.66-33.74.07-51.3l-27.09,5.16c-5.62,1.05-7.3-7.26-1.67-8.31l30.13-5.74c.2-1.4.41-2.79.62-4.19a152.5,152.5,0,0,0-16.95-13.19c-4.7-3,.3-10.26,5-7.08a128.59,128.59,0,0,1,13.92,10.72c.19-.7.39-1.41.61-2.12,2.8-9,8.61-17.1,6.7-27.08-1.1-5.39,7.57-7,8.67-1.61,2.56,13.27-5.43,24.89-8.42,37.44,1.64,1.43,3.28,2.85,4.94,4.25l11.69-2.23c16.06-3,31.4-10.33,47.42-12.48,5.55-.77,7.37,7.57,1.67,8.31C1765.39,3086.42,1749.59,3093.78,1733.67,3096.83Z" fill="#231f20"/></svg>