<?xml version="1.0" encoding="utf-8"?>
<!-- Generator: Adobe Illustrator 21.1.0, SVG Export Plug-In . SVG Version: 6.00 Build 0)  -->
<svg version="1.1" id="Layer_1" xmlns="http://www.w3.org/2000/svg" xmlns:xlink="http://www.w3.org/1999/xlink" x="0px" y="0px"
	 viewBox="0 0 4000 3733.1" style="enable-background:new 0 0 4000 3733.1;" xml:space="preserve">
<style type="text/css">
	.st0{fill:#9FDD26;}
	.st1{fill:#231F20;}
	.st2{fill:#EE4036;}
	.st3{fill:#A56942;}
	.st4{fill:#FFE78F;}
	.st5{fill:#F3AC75;}
	.st6{fill:#8BC540;}
	.st7{fill:#F7DEBA;}
	.st8{fill:#D68076;}
	.st9{fill:#E7B654;}
</style>
<title>cookout</title>
<rect class="st0" width="4000" height="3733.1"/>
<path class="st1" d="M2392.3,1869.6c-3.8,2.6-6.4,4.4-9.6,6.7c3.1,3,5.7,5.4,8.2,7.9c-3.2,11.3-0.7,20.2,8.3,27.9
	c3.6,3.1,5.4,8.6,7.2,13.3s4.2,8.3,10.5,10.1c2.1-5.4,5.2-10.2,5.8-15.4c1.7-14.2,1.5-28.6,3.6-42.6c3.9-26.5,5.3-53.3,12.7-79.2
	c3.3-11.6-0.8-14.9-12.6-11.9c-1,0.4-2.1,0.7-3.2,0.9c-10.1,1.8-20.2,3.7-30.3,5.3c-7.2,1.2-14.6,1.7-21.8,3c-6.6,1.1-8.1,3.8-5,10
	c6.6,13.4,9.1,28.6,18.2,40.9c1.1,1.4,2.4,3.6,2,5C2384.4,1858.6,2388.3,1863.8,2392.3,1869.6 M2258.2,2035c7,2.3,11-1.7,15-5.5
	c20.6-19.2,26.6-44.4,27.9-70.9c1.5-32.7-7.2-64-15.9-95.2c-0.4-1.8-0.9-3.5-1.6-5.2c-1.7-3.8-4.7-4.7-8-2.2
	c-2.1,1.5-3.8,3.4-5.1,5.6c-4.9,9.9-9.4,19.8-14,29.8c-0.7,1.6-0.7,3.6-1.1,5.4c-2.9,13.6-6,27.2-8.8,40.9
	c-1.4,6.1-2.2,12.3-2.6,18.5c-0.3,9.2,0.9,18.4,0.6,27.5C2244,2002.3,2253,2018.2,2258.2,2035 M1908.1,1827
	c11-13.4,20-27.4,22.1-44.9c0-1.1,0.3-2.2,0.7-3.2c6.8-12.9,6.4-26,2.2-39.6c-3.2-10.4,0.8-20.4,7.6-27.6c3.9-4.2,11.8-5.9,18-6.3
	c20.6-1.3,41.3,0.4,61.1,6c9.7,2.7,18.3,9.1,27.8,12.8c19.2,7.4,23,23.9,23.3,41s-2.6,34.5-11.2,50.1c-0.4,0.6-0.7,1.4-0.8,2.1
	c-3,22.4-17.4,38.4-30.6,55.2c-1.4,1.7-2.5,3.6-3.5,5.6c-7,15.2-18.1,27.3-29.7,39.1c-8.7,8.9-16.8,18.5-25.5,27.4
	c-14.4,14.7-28.8,29.4-43.6,43.6c-12.8,12.3-13.1,15,1.6,24.5c6.8,4.3,14.2,7.7,21.9,10c20.9,6.4,42.5,8.2,64.4,7.8
	c15.1-0.3,30.2,0.6,45.3,0.9c16.9,0.4,33.8,0.8,50.8,0.9c3.8,0,7.7-1.6,12.7-2.7c-1.7-4.7-2.8-8.5-4.4-12.2
	c-8.9-21.1-10.8-43.1-10.8-65.7c0-18,7.8-33.3,13.2-49.5c5-15,9.7-30.1,14.8-45c3.2-9.4,6.9-18.6,10.5-27.9c0.5-1.3,1.3-3,2.4-3.5
	c10.2-4.2,11.5-14.7,16.2-22.8c8.5-14.6,16-29.6,24.9-43.9c7.4-11.9,16-22.9,24.2-34.3c1.3-1.8,2.6-4.1,4.4-4.8
	c16.3-7,31.6-17.9,51-14.2c9.3,1.7,18.7,1.7,27.9,5.6c5.6,2.4,13.1,0.1,19,3.8c1.5,0.9,3.1,1.8,5.2,3c-2.6,3.4-4.8,6.2-7.8,10.2
	c11.7,8.6,21.9,18.3,38.9,14.5s32.2-12.5,48.4-18.3c6.9-8.8,18-9.7,26.9-14.6c12.7-6.8,26.7-12.2,36.6-23.9
	c8.1-9.6,18.7-13.6,31.6-11.2c7.5,1.4,15.3,1,22.9,1.9c3.2,0.3,6.4,1.4,9.1,3.2c5.1,3.6,10.6,4.4,16.6,5c4.9,0.4,9.7,2.5,14.4,4.1
	c4.2,1.4,9,2.1,12.2,4.8c5.1,4.2,9.4,9,16.6,9.4c1.4,0.4,2.5,1.6,2.9,3c0.8,7.4,4.8,14.1,1.7,22.4c-4.4,12-6.9,24.7-10.4,37
	c-4.9,17.3-10.3,34.5-14.7,52c-5.1,20.6-9,41.6-14,62.2c-6.7,27.6-6.7,56-10.2,84c-0.7,5.4-0.2,11-0.8,16.5
	c-0.4,4.1,0.3,8.2,4.5,8.7c2.5,0.3,6.7-2,8.1-4.3c5.7-9,10.8-18.4,15.3-28.1c8.7-19.4,17-39.1,24.9-58.9
	c6.1-15.4,11.2-31.1,17.2-46.6c4-10.3,8.5-20.3,12.9-30.4c0.4-1,1-1.9,1.9-2.6c9.7-5.8,10.2-16,10.9-25.3c2-26.4,3.2-52.8,4.4-79.2
	c0.5-10.2,4-18.5,12.2-24.8c6.4-4.9,13-6.2,20.7-3.9c10.5,3.1,21,6.3,31.7,8.5c4,0.8,8.6-0.6,12.9-1.4c3.9-0.8,7.7-3,11.6-3.1
	c14-0.5,27.9-0.3,41.9-0.4c13.6,0,27.2,0,40.8,0.1c20.6,0.1,41.2,0.5,61.8,0.3c18.4-0.1,36.8-0.9,55.2-1.3
	c29.8-0.5,59.6-0.7,89.4-1.3c18.4-0.4,36.7-1.3,55.1-2c32-1.1,64,0.5,95.7,4.7c12.7,1.7,25.6,1.8,38.4,3.2
	c33.3,3.6,66,10.7,98.7,17.3c14.9,3,28.2,8.9,37.1,23.2c5.4,8.6,12.9,15.8,16.5,25.6c0.8,2,1.4,4.1,1.7,6.3c0.7,6.6-0.9,8.9-7.7,9.3
	c-10.3,0.6-20.6,1.2-30.9,0.4c-21.6-1.7-43.1-4.9-64.8-6.4c-20.5-1.4-41.2-1.5-61.8-1.9c-17.3-0.3-34.6-0.8-51.9-0.2
	c-20.2,0.6-40.3,2.2-60.5,3.3c-11,0.6-22,1-33.1,1.6c-8.6,0.4-9.7,1.5-11.1,10.2c-0.4,1.8-0.6,3.7-0.8,5.5
	c-1.1,19.4-1.8,38.8-3.2,58.2c-1,14.3-2.9,28.5-4.4,42.8c-1.6,14.9-4.9,29.9-4.4,44.8c0.7,20.7-1.5,41.1-3.5,61.6
	c-1.1,11.3-1.4,22.7-2,34c-0.2,1.1-0.2,2.2-0.2,3.3c1.3,24.9,1.8,49.9,4.4,74.7c1.6,15.2,6,30.1,9.8,45c2.3,9.2,0.5,14.4-8.5,17
	c-6.3,1.8-13.3,4.1-19.4,2.9c-12.7-2.3-24.4,1.6-35.5,5.1c-14.8,4.8-25.4-0.7-34.8-9.9c-10.2-10-15.8-22.3-17-37.2
	c-1.1-12.7-5.5-25.1-7.6-37.7s-3.7-25.5-4.7-38.2c-2.2-29.7-4.5-59.4-5.5-89.2c-0.8-23.5-0.1-47,0.9-70.5c1-24.2,3.3-48.3,4.7-72.4
	c0.8-13.9,0.5-27.9,1.5-41.8c0.7-9.4-2.3-11.7-11.2-12.5c-16.8-1.5-33.7-2.5-50.5-4.2c-14.3-1.5-28.5-3.5-42.6-5.7
	c-9.8-1.6-19.4-4-29.2-5.9c-8-1.6-12,1.1-13.4,8.9c-0.6,3.6-0.8,7.3-1.1,11c-1.1,16.5-3,33-2.8,49.4c0.2,12.7,3.1,25.4,4.8,38.1
	c0.3,2.2,2.1,4.6,1.4,6.3c-3.2,8.3-0.8,16.7-1.2,25.1c-0.6,14.2-0.8,28,5.3,41.8c5.8,13.3,9,27.9,12.6,42.1
	c9.9,39,30.7,70.4,63.9,93.3c3,2.1,6.3,4,8.9,6.5c4.8,4.5,3.1,12.4-3.3,14c-4.2,1.1-8.6,1.1-12.9,0.2c-9.5-2.4-18.7-4.2-27.7,1.2
	c-1.3,0.7-2.8,1.1-4.3,1c-16.6-0.2-33.5-0.2-49-6.4c-10-4.1-19.4-10.6-27.8-17.5c-16.3-13.4-28.8-30.2-39.9-48.2
	c-6.2-9.9-13.1-19.5-20.1-28.8c-1.7-2.3-6.2-5-7.9-4.2c-2.8,1.3-5.8,5.1-6,8.1c-0.5,7.5-4.7,14.6-1.1,22.7c1.2,2.7-1.3,8-3.6,11
	c-4.1,5.1-6.5,11.4-6.8,18c-0.7,8.9-4.1,17.3-9.7,24.2c-8.6,11.1-16.8,22.3-28.5,30.4c-9,6.3-19.1,9.2-29.5,11.6
	c-6.4,1.4-12.9,2.3-19.3,3.9c-9.6,2.4-18.7,5.9-29,1.7c-4.7-1.9-11-1.1-16.3,0c-17.4,3.4-31.9-2.9-44.9-13.4
	c-13.5-10.9-23.9-25.2-29.9-41.5c-4.6-12-9.6-23.8-12-36.5c-0.8-3.1-1.7-6.1-2.9-9c-6.4-0.5-9.1,2.6-10.5,7.2
	c-6,19.3-17.8,35.3-28.9,51.8c-0.8,1.2-1.8,2.3-3,3.2c-13.6,9.3-27.1,18.8-41,27.7c-3.5,2.3-8.4,4.2-12.4,3.7
	c-15.4-1.7-29.9,4.1-45,4.2c-16.9,0.2-33.7,0.1-50.6-0.3c-6.2-0.1-12.4-1.5-18.6-2.1c-15.6-1.5-28.5-9.1-41.5-17
	c-3-1.9-6.5-4-9.9-4.2c-10.3-0.6-20.9-2-30.8,0.1c-19.4,4.1-38.7,3.1-58.2,3.2c-50.9,0.2-101.4-5-152.1-8.9
	c-5.5-0.4-10.9-1.8-16.4-2.6c-12.6-1.7-18.1,2.4-18.8,15.1c-0.4,7.7,0.6,15.4,1.1,23.1c0.5,7.3,1.5,14.6,1.7,22
	c0.3,10.9-4.4,15.4-15.6,14.6c-11.5-0.8-22.4,0-33.4,4.9c-8.5,3.9-18.1,5.9-27.4,7.3c-7.9,1.1-16,1.1-23.9-0.2
	c-3.7-0.6-6.9-4.7-10-7.7c-2.3-2.2-3.4-6.7-5.9-7.5c-10.3-3.3-11.5-11.9-12.6-20.2c-1.4-10.9-1.9-22-2.5-33
	c-1.3-27.9-2.7-55.9-3.6-83.8c-0.4-12.5,0.3-25,0.4-37.5c0-21-0.2-41.9-0.1-62.9c0-11.8,0-23.6,0.6-35.3c1.6-36,3-72,5.5-108
	c1.7-25.3,4.2-50.5,8-75.5c2.6-15.5,7.1-30.7,13.4-45.1c2.2-5.1,5.8-7,11.1-7.4c23.4-2,46.3,1.8,68.7,7.2
	c12.3,2.9,26.3,5.5,35.1,16.6c4,5,8.8,11.1,9.2,17c1.8,26.6,5.1,53.4-1.5,80c-2.3,9.2-1.8,19-2.5,28.6c-0.6,7.3-1.3,14.5-1.6,21.8
	C1900.8,1821.2,1903.5,1824.6,1908.1,1827 M1199.9,1993.2c12.5,2.6,14.9,1.5,18.1-7.4c7.6-21.1,8.9-43.1,9.3-65.2c0-4,0.3-8,1.1-12
	c2.7-11.4,1.7-22.5-2.3-33.5c-1.3-3.7-2.9-7-7.3-7.1s-7.5,1.9-9.6,6c-5,9.4-5.9,19.5-6.1,29.9c0,5-1.5,10-2.1,15
	c-1.1,9.1-2.1,18.1-2.8,27.2c-0.3,3.9,0.5,7.9,0.6,11.8C1199.2,1969.7,1199.5,1981.3,1199.9,1993.2 M1598.7,1908.6
	c0.5-5.3-1.8-22.5-3.9-29.5c-6.6-21.9-19.9-40-32.6-58.4c-3.9-5.8-8.2-11.3-12.9-16.5c-5.8-6.4-12.2-5.1-15.4,2.9
	c-1.5,4.1-2.7,8.4-3.6,12.7c-2.8,11.7-5.2,23.4-8.1,35.1c-3.4,13.8-10,27-9.4,41.7c0,2.2-0.6,4.4-1.7,6.3
	c-4.9,8.2-5.4,17.5-5.7,26.4c-0.7,22.2,0,44.4-2.8,66.5c-0.1,1.1-0.2,2.5,0.4,3.2c7.8,8.7,3.9,21.2,10.1,30.7
	c5.2,7.9,7.7,17.4,12.7,25.5c7.3,12,14.1,12.7,25.1,4.1c1.5-1,2.9-2.3,4-3.8c8.7-14.5,18-28.6,25.4-43.7c4.8-9.7,6.7-20.9,9.9-31.4
	c4.7-15.5,7.4-31.5,7.8-47.7C1598,1925.1,1598.3,1917.8,1598.7,1908.6 M1053.3,1999.4c-4,1.6-6.5,1.9-7.9,3.4
	c-6,6.4-13.1,12.4-17.1,19.9c-7.2,13.3-17.7,23.5-28,33.9c-12.4,12.5-25.6,24.1-38.1,36.5c-7.5,7.5-13.8,16.2-21.4,23.6
	c-20,19.5-39.7,39.5-63.4,54.7c-18.3,11.7-38.1,19.3-59.6,21.9c-13.9,1.7-27.9,2.3-41.8,3.2c-20.4,1.4-40.4-1.5-60.3-5.6
	c-11.4-2.4-22.7-5.1-33.7-10.1c-12.3-5.5-18.2-15.4-24.6-25.6c-3.9-6.2-6.4-13.3-10.4-19.3c-7.5-11-11.3-24.1-10.7-37.4
	c0.8-21.2,0.3-42.5,1.1-63.7c0.4-9.9,2.6-19.7,3.4-29.6c0.6-6.9-0.6-13.9,0.5-20.7c1.4-9,4.2-17.8,6.4-26.7
	c3.1-12.9,5.8-25.8,9.3-38.6c4.5-16.3,9-32.7,14.9-48.5c6.1-16.4,14.6-31.9,20.6-48.4c9.9-27.2,26.3-50.6,42.4-74.2
	c5.3-7.8,12.7-14.1,19.3-20.9c5.8-6.1,11.3-12.7,18.1-17.6c8.8-6.4,18.3-12.6,28.3-16.6c12.6-5,26.4-6.9,39.1-11.5
	c19.2-6.9,38.9-7.6,58.8-6.1c6.6,0.5,13.1,1.3,19.6,2.5c9.1,1.6,17.7,5.3,25,11c9.5,7.5,19.9,13.9,29.6,21.3
	c7,5.3,12.2,12.7,18.3,18.6c12.3,11.7,16.5,28.6,28.9,40c4.7,4.3,6,12.4,8.5,18.8c2.3,5.8,3.7,11.9,6.3,17.5
	c5.1,11.3,4,18.6-6.5,25.2c-7,4.5-14.9,8.5-22.9,10.2c-12.1,2.6-24.8,3-37.2,4.3c-12.8,1.3-25.6,1.8-38.3,3.7
	c-18.3,2.7-35.1-1-50.9-10c-9.3-5.3-16.6-20.2-14.1-30.9c1.7-7.3-1.8-13-4-19c-1.6-4.5-5.6-3.6-9.1-1.1
	c-10.7,7.5-16.7,18.3-21.3,30.1c-3.7,9.2-8.1,17.9-14.8,25.4c-2.4,2.8-4.2,6-5.5,9.4c-6.1,15.7-12.6,31.3-17.7,47.3
	c-5.8,18.2-15,35.3-16.9,54.6c-0.6,6.2-1.7,12.3-2.2,18.6c-0.6,8.4-0.3,16.6-3.9,24.7c-2.3,5.4-1.4,12.3-2.1,18.5
	c-1.6,15-3.4,29.9-4.8,44.9c-0.3,4.4,0,8.7,1,13c2.1,10,5.3,19.9,6.8,30c2.3,15,13.5,20.2,25.8,11c3.5-2.7,6.8-5.7,9.7-9
	c14.2-15.3,29.1-30,40.8-47.7c6.2-9.3,15.2-16.9,23.2-25c16.3-16.4,32.8-32.7,49.3-48.9c10.7-10.5,20.9-21.4,35.1-27.8
	c7.9-3.6,14.4-10,21.7-15c2.7-1.8,5.7-4.5,8.7-4.5c15.8-0.2,30-7.2,45.2-9.8c8.3-1.4,16.7-2.5,25.1-3.5c4.9-0.6,8-2.5,9.1-7.9
	c4.4-21.6,8.7-43.2,13.8-64.6c2.2-8.9,5.4-17.5,9.4-25.7c8.3-17.6,17-34.9,26.2-52.1c6-11,15.2-19.9,26.5-25.4
	c6.6-3.3,11.9-6.7,13-14.9c0.6-4.3,4.7-6.7,8.5-9.3c11.9-8.1,25.5-4.1,38.2-6.5c8.6-1.6,17.6-0.6,26.3-1.6
	c18.1-2.2,33.3,3.1,46.2,15.8c5.2,5.1,11.1,9.7,16.4,14.8c3.5,3.2,6.7,6.8,9.5,10.6c9.7,14.2,19.2,28.5,28.7,42.8
	c13.1,19.7,22.9,41.1,31.2,63.1c3.3,8.8,4,18.6,6.5,27.8c1.2,4.6,3.1,9,5.7,13c3.4,5,8.9,4.2,11.2-1.3c1.7-4,2.5-8.5,3.4-12.8
	c5.6-26.6,12.1-53,23.7-77.8c5.6-12,11.2-24,16.1-36.2c6.2-15.7,18.9-26,29.8-37.9c3.4-3.8,7.5-7.1,10.6-11.1
	c11.9-15.5,28.1-18.1,45.6-14.8c7.8,1.5,15.1,2.1,22.9,0.7c5.1-0.9,10.2-1.4,15.4-1.5c3.2-0.1,7-0.2,9.7,1.2
	c8.5,4.3,17.1,8.7,24.9,14c11.5,7.8,22.8,16,33.7,24.7c5.1,4,9,9.5,13.4,14.3c1.2,1.3,2.2,3,3.7,4.1c15.5,11.5,28,25.8,39.4,41.3
	c7.6,10.4,15.4,20.6,22.6,31.2c4.3,6.4,7.6,13.4,11.3,20.1c0.8,1.3,1.4,2.6,1.9,4c6.8,24.3,17.5,48.1,15.1,73.9
	c-2.1,21.9-0.2,44.1-5.1,65.7c-1.7,7.5-3.2,15.1-5.3,22.6c-7.5,25.9-21.5,49.5-40.7,68.5c-12.2,12.2-25.5,24.8-42.4,31.1
	c-9.6,3.7-19.5,6.6-29.6,8.5c-14.1,2.4-28.4,3.3-42.7,4.9c-12.4,1.4-24.8,2.9-37.2,4.2c-5.5,0.6-11.1,1.2-16.5,0.6
	c-17.2-1.9-34.1-5.7-50.5-11.4c-2.4-0.9-4.7-2-6.8-3.5c-3.7-2.4-7-5.5-11-7.4c-23.9-11-33.7-33.8-45.6-54.7
	c-8.5-14.8-12.6-31.3-15.4-48.1c-0.2-1.1-0.1-2.4-0.8-3.2c-1.8-2.4-3.6-6-6.1-6.6c-4-1.1-6.1,2.6-8,6.1
	c-8.2,15.1-15.9,30.6-25.5,44.9c-10.5,15.9-23.3,30.2-38,42.4c-11.5,9.5-25.8,15-40.7,15.6c-25.3,0.9-49.3,8.1-74.1,11.5
	c-8.7,1.2-17.5,2.2-26.3,3.2c-1.8,0.3-3.7,0.2-5.5-0.2c-26.2-7.4-51.4-17-67-41c-10-15.4-18.6-31.7-20.4-50.7
	c-0.9-9.8-2.9-19.5-4.9-29.2C1057.6,2009,1055.4,2004.8,1053.3,1999.4"/>
<path class="st2" d="M1489.7,1019.7l-340.8,16c-56.8,2.6-113.6,5.4-170.4,8c-27.1,1.3-54.3,2.4-81.5,3.9
	c-10.2,0.6-21.2,1.5-30.7,4.8c-4.4-3.7-10-5.8-15.8-5.9c-151.8-4.8-303.5-4.8-455.2,0c-3.6,0.1-7.1,0.9-10.4,2.3
	c-3.5-1.5-7-3.1-10.5-4.7c-30.2-14.2-57.2,30.5-26.7,44.7c134.4,62.8,281.1,57.5,422.5,29.1c1.8,6.4,5.7,12,11.2,15.9
	c99.1,71.9,229.6,67.2,345.5,55.9c68.5-6.7,137.4-16.2,204.7-31.4c65.5-14.8,116.2-52.9,171.1-89.8
	C1522.3,1055.1,1517.5,1018.5,1489.7,1019.7"/>
<path class="st3" d="M1642.2,855.2c-1.5-23.3-26.7-33.6-44.5-18.8c-5.9,4.9-13.1,8.1-20.7,9.3c-2.9-9.7-6.5-19.4-13.3-27
	c-19.7-21.8-52.4-16.2-68.9,6c-8.8,11.7-11.7,25.3-10.6,39.9c0.1,1.2,0.2,2.5,0.3,3.7c-3.6-2.1-7.4-3.9-11.4-5.4
	c-29.6-11.1-60.5-18.5-92-22c-24.9-2.7-65.9-4.6-72.1,27.5c-1.7,8.9-0.5,15.7,2.6,21.2c-15.5,8.5-28.2,22-46.9,26.4l-1.2,0.2
	c-12.9-6.8-24.6-21.4-35.1-29.2c-2.6-7.5-5.7-14.9-11.1-20.5c-19.2-19.7-41.1-8-58.5,7.2c-11.1,4.1-20,12.9-22.6,26.7
	c-0.8,4.3-0.6,8.7,0.7,12.9c-1.7,1.9-3.3,3.9-5,5.8c-5.3,6.4-9.5,14.5-15.2,10.2s-9.7-16.5-13.3-22.6c-5.6-9.3-11.9-18.3-20.4-25.1
	c-10-8.1-27.2-12.2-36.9-0.4c-4.2,5.2-8,10.8-11.1,16.7c-11.9,4.5-17,17.5-15.1,29.1c-1.1,1.6-2,3.3-2.8,5.1
	c-6-3.2-11.7-6.9-17.8-9.8c-15.4-7-31.5-8.7-48.3-6.7c-28.9,3.6-57.8,16.5-81.8,32.5c-12.1,7.9-23.4,17-33.7,27
	c-9.8,9.4-17.9,21.1-28.6,29.5c-19.6,15.2-32.8-15.6-43.2-29.1c-15.2-19.7-34.5-33.5-57.2-42.8c-1.9-2.5-4.4-4.5-7.2-5.8
	c-17.2-7.7-33.9-11.7-52.8-9c-0.7,0.1-1.4,0.2-2.2,0.4c-11.4-1-23-1.5-34.7-1.4l-2.7-0.9c-35.1-12.2-80.4-0.3-114,11.2
	c-0.8,0.3-1.8,0.7-2.5,1c-26.3,4-52.2,9.9-76.8,20.5c-28,12.1-54.9,33.8-86.5,34.4c-5.8-0.1-11.4,1.8-16.1,5.2
	c-9.5,2.9-17.2,10.7-17.1,23.6c0.1,17.1,7,29.5,17.6,38.4c5.5,5.7,13.1,9.5,21.6,12.1c13.8,5.1,29.5,7.2,43.8,7.5
	c22,0.5,43.9,0.1,65.8-0.8c10.3,0.2,20.7,0.3,31,0.3c27.6,0,54.8-2.2,82-5.6c96.3-3,192.1,2.7,288.5,6.4c104.1,4,207.2-2.3,311-10.1
	c101.5-7.6,204.5-10.8,305.4-24.2c46.4-6.1,92.7-19.2,128.5-50.9C1625.9,953,1645.2,903.3,1642.2,855.2z"/>
<path class="st4" d="M995.6,881.6c9-23.6-19-34.9-37.2-30.5c-12.8,3.1-18.5,12.8-28.8,19.2c-11.5,7.1-27,10.6-39.4,16.5
	c15.8-37.1-22.6-47.5-51-36.4c-28.8,11.2-39.8,26-70.2,8.8c-11.7-6.7-0.1-21.1-15.5-3.5c-3.9,4.5-5.3,14.7-9.9,18.3
	c-1.4,1.1-32,15-32.5,15.1c-18.2,3.5-22.3-5.8-26.5-17.6c-5.4-15.4-3.7-33.2-26.3-35.6c-12.2-1.3-26.3,8.8-35.5,15
	s-26.1,20.3-39,11.4c-1.8-1.2-4.8-17.5-8-21.4c-8.4-10.3-20.9-14.4-34-12.5c-22.3,3.3-43.7,53.5-60.6,43.3
	c-20.2-12.2,12.9-56.1-21-65.4c-27.7-7.6-32,20.2-39.9,37.9c-9.5,21.3-47.6,58.1-49.6,13.1c-0.9-20.5,4.9-57.4-31.9-44.7
	c-14.7,5.1-20.4,23.4-30.7,33.2c-7.8,7.4-17.1,11.5-23.9,21c-20,27.9-89.8,166.5-35.1,175.3c22.4,3.6,18-11.4,29.4-20.8
	c9.5-7.8,25-20.5,35.9-27.8c18.8-12.6,45.2-18.2,66.4-25.4c21.8-7.4,44.3-13.1,66.3-19.7c21.4-6.4,44.7-5.2,65-13.4
	c3.2-1.3,3.4-6.3,8.2-8.3c7.2-2.9,17.8-2.8,25.8-3.9c18.9-2.5,38-3.4,57-2.4c32.6,1.7,67.2,7.5,97.3,20.2
	c20.5,8.7,22.1,15.6,34.2,32.7c3.1,4.5,24.6,31.3,21.8,22.8c8.8,26.5,31.5,27.8,49.9,11.6c8.8-7.7,13.1-18.5,21.8-26.7
	c4.4-4.2,9-8.2,14.6-10.5c12.6-5.3,11.4-1.7,24.2-2.2c33.6-1.3,48.7-11.4,73.8-31.8C959.6,920.7,986,906.7,995.6,881.6z"/>
<path class="st5" d="M1541.9,743.3c-53.9,34.5-124.4,47-186.6,57.4c-74.6,12.5-149.3,14.8-224.8,16.1c-72.3,1.1-144.6,1.5-216.7-0.6
	c-41.7-1.2-83.5-3.2-125.2-6.2c-4.6,0.7-9.2,1.5-13.8,2.2c-16.9,2.6-34.3,1.3-51.4,2.3c-13.9,0.8-28.1,1.6-41.9,0
	c-12.3-1.4-24.2-2.2-36.5-4.1c-25.7-4.2-51.3-7.8-77.3-10.4c-14.6-1.5-29.5-0.1-43.9-2.1c-22.5-3.1-43.8-11.7-66.2-14.3
	c-11-1.3-21.8-3.5-32.8-3.5c-9.8,0-20.7,0.9-29.6-4c-2.9-1.5-5.5-4-8.3-5.9c-4.7-3-7.6-3-12.7-4.1c-6.4-1.4-10.6-6.8-15.2-11
	c-5-4.4-9.9-9.5-15.1-13.4c-7.4-5.6-15.7-8.4-22.3-15.2c-4.2-4.3-10.3-7.9-13.6-12.6c-5.8-8.6-10.9-17.6-15.2-27
	c-3.2-7.2-4.3-15.9-6.9-23.3c-0.3-1-0.6-1.9-0.9-2.9c-0.9-0.1-1.7-0.5-2.2-1.1c-10.2-11.5-12-24.5-9.2-37.3c0.6-7,2.9-13.7,6.8-19.6
	c0.6-0.9,1.3-1.8,1.9-2.7c1.4-2.5,2.9-5.1,4.4-7.5c0.3-1,0.7-2.1,1-3.2c0-0.7,0-1.3,0.1-2c0.7-2.9,1.6-5.8,2.9-8.5l0.8-1
	c0.4-0.5,0.9-1.1,1.4-1.6c1.6-5.8,4.6-11,8.8-15.3l0.1-0.1c0.2-0.4,0.6-0.7,1-0.9c4-3.8,8.6-7,13.6-9.2c1.2-2.2,2.7-4.2,4.4-6
	c9.3-9.4,20.2-17.5,29.5-26.8c2.5-2.4,4.3-5.1,6.6-7.5c2-3.5,4-6.9,5.9-10.3c17.1-29.1,38.8-57,64.9-78.7
	c50.6-42.1,109.9-66.6,171.7-88.1c5.4-1.9,10.8-3.7,16.2-5.6c3.7-2.2,7.4-4.5,11-6.8c8.2-5.2,16.8-11.2,26.2-14.5
	c6.8-2.4,14.3-2.8,21.1-5c6.6-2.2,12.8-5.7,19.5-8c10.2-3.6,20.3-6.3,30.4-10.5c5.7-2.4,11.5-4.4,17.4-6.2
	c5.7-2.9,11.4-5.8,17.1-8.8c34.7-17.9,72.3-45.6,112.3-46.9c12.2-0.5,25.2,2.8,37.3,5.7c4.5-0.1,9.1,0.3,13.5,0.3
	c3.4,0,6.8-0.3,10.4-0.5c1-0.1,6.2-0.6,8.9-0.9c1.8-0.2,3.4-0.4,3.6-0.5c4.5-0.8,9.2-1.5,13.9-2.2c42.6-6.4,81.2-8.7,123.8-0.9
	c28.6,5.2,56.5,15.6,82.2,29.4c23.5,0.1,46.8-1.3,69.7,5.7c21.7,6.6,38.7,24.6,60.3,31.4c7.5,2.4,14.1,4,21.3,7.6
	c6.2,3.1,12.3,6.4,18.4,9.7c19,3.3,37.8,7.5,55.9,14c38.2,13.7,70,33.7,100.4,60.3c50.4,44.1,101.6,100.2,124.8,163.4
	C1643.5,621.5,1609.7,700,1541.9,743.3z M1597.8,1292.2c3.3-36.2,6.6-72.4,10-108.5c1.9-22.7-30-35.7-44.7-19.3l-14.3,15.9
	c-0.6-0.5-1.2-1-1.8-1.4c-5.3-3.9-5.8-3.7-11.7,0.1c-5.5,3.7-11.1,7-17,10c-11.2,5.7-22.8,10.8-34.3,16.2c-0.9,0.5-1.8,0.8-2.8,0.9
	c-4.4,0.8-8.8,1.5-13.1,2.3c-11.8,2.3-23.4,5.5-34.8,9.6c-14.3,4.9-28.2,11.1-43.2,14.2c-12.5,2.7-25,6.2-37.6,8.9
	c-7.4,1.6-15.2,2-22.5,3.8c-12.3,3-25.2,3.2-37.7,5c-5.9,0.9-11.8,1-17.7,1.8c-8.1,1-16.2,2.6-24.5,3.2c-17.2,1.3-34.6,2.2-51.9,3.4
	c-11.6,0.8-23.2,1.9-34.7,2.8c-8.8,0.6-17.8,1.2-26.7,1.6c-13.4,0.8-26.7,1.4-40.2,2.1c-8.6,0.4-17.2,0.8-25.8,0.8
	c-8,0-16.1-0.7-24.2-1.3c-7.3-0.5-14.7-1.1-22.1-1.6c-8.7-0.6-17.5-1.3-26.2-1.8c-4.6-0.4-9.2-0.2-13.8-0.7
	c-12.5-1.1-25-2.5-37.4-3.4c-10.1-0.7-20.1-0.3-30.1-1.3c-11-1-22.1-0.7-33.1-0.9c-13.3-0.2-26.5-0.6-39.7-1.1
	c-5.7-0.2-11.4-1-17.2-1.3c-8.7-0.5-17.5-0.9-26.2-1.4s-17.2-1-25.7-1.5c-3.7-4.3-8.2-7.8-13.2-10.3c-32.4-16.6-77.9-9.4-112.8,0.9
	l-4.6-0.4c-2.4-0.2-4.7-0.2-6.9-0.3c-7.8-0.6-15.5-1.3-23.2-1.8c-11.3-0.7-22.5-1-33.7-1.5c-8.9-0.4-17.8-1-26.7-1.4
	c-10.3-0.5-20.7-0.8-31-1.6c-9.4-0.6-18.7-1.9-28.1-2.5c-11.2-0.8-22.5-0.9-33.7-1.6c-12.9-0.9-25.7-2.4-38.5-3.5l-16.2-1.6
	c-6.1-0.6-12.1-1.6-18.1-2.1c-8.6-0.8-17.4-1.3-26.1-1.8c-7.5-0.4-14.8-0.7-22.3-1.2c-2-0.1-4-0.4-6-0.6c-9.4-1.2-18.6-2.7-28.1-3.2
	c-11-0.6-17.9,8.3-15.5,18.9c1.5,6.6,2.2,13.4,2.1,20.1c0,1,0,2,0.1,3c1.3,11.1,2.5,22.3,3.6,33.3c0.7,7.4,0.8,14.8,1.6,22.1
	c1.3,11.4,2.8,22.9,4.5,34.2c1.1,7.7,2.8,15.2,5,22.7c2.5,8.2,5.4,16.3,8.6,24.2c2.4,6.1,6.3,11.2,12.7,13.8
	c10.7,4.3,21.4,8.5,33,10.4c12.5,1.9,25.1,3.8,37.9,2.9c7.2-0.6,14.6,0.6,21.8,0.9c1.5,0.1,3,0,4.5-0.1c2.9-0.2,5.9-0.3,8.9-0.3
	c6,0.2,11.8,0.7,17.8,0.5c13-0.3,26.1-0.8,39-1.3c6.7-0.3,13.5-1.2,20.2-1.3c13.8-0.5,27.8-0.7,41.6-0.9c4.7,0,9.5,0.3,14.3,0.2
	c9.8-0.1,19.6-0.7,29.3-0.6c11.9,0.1,23.7,0.8,35.6,1.1c6.7,0.1,13.5,0.1,20.3,0.2c12.7,0.3,25.2,0.6,37.7,1
	c10.8,0.3,21.5,0.4,32.3,0.9c11,0.4,22.1,1.2,33.2,1.6s21.8,0.8,32.7,1c7,0.1,13.9,0,20.8,0.3c17,0.7,34,1.6,51,2.3
	c6.1,0.2,12.2-0.2,18.4,0.3c19.9,1.4,39.6,2,59.5,1.7c7.7-0.2,15.2,0,22.8,0.4c5.4,0.2,10.8,1.2,16.3,1.5
	c13.4,0.8,26.6,2.1,40.1,1.6c8.4-0.3,16.8,0.1,25.3-0.1c12.2,0,24.4-0.5,36.6-0.5c11.8,0,23.6,1.4,35.6,0.7
	c8.9-0.5,17.7-0.7,26.6-0.9c79.5,6,159.1,6.9,238.4-4c32.8-4.4,65.2-11.3,97-20.5c22.8-6.7,48.1-13.9,69.7-25.5
	c0.9-0.4,1.7-0.9,2.6-1.3c0.4-0.2,0.7-0.4,1.1-0.7c3.9-2.2,7.7-4.6,11.3-7.2C1589.3,1352.2,1594.8,1324.1,1597.8,1292.2
	L1597.8,1292.2z"/>
<path class="st6" d="M1724.2,724.8c-6.7,1.7-13.2,3.6-19.7,5.7c-1.6,3-3.5,5.8-5.8,8.3c-6.2,7.5-14.6,11.8-23.4,15.8
	c-5.2,2.4-10.6,3.3-16.2,4.3c-1.3,0.1-2.6,0.3-3.8,0.7c-7.2,2.1-14,2.4-20.7,2.2c-4.4,2.6-8.7,5.3-13,8.2c1.7,3.4,3,7,3.9,10.7
	c5.9,25.1-10.6,48-33.3,56.9c-27.1,10.6-51.5,0.5-77.6-7.7c-8.2-2.6-22.8-8.1-28.8,1c-5.6,8.4-1.7,25-0.7,34.2
	c0.9,8-5.6,19.1-13.1,22.3c-39,16.3-68.9-2.8-103.8-19.3c-12-5.8-23.9-10.9-36.2-4c-11.7,6.5-20.8,17.8-31,27.1
	c-0.8,4.8-3.5,8.9-6.9,12.5c-5.8,6.2-13.2,9.5-21.4,11.5c-0.8,0.1-1.6,0.3-2.4,0.6c-8.3,4.3-17.2,4.9-26,3.1
	c-4.6-1.2-9.1-2.9-13.3-5.2c-3.3-1.5-4.4-5.2-5.8-8.4c-0.2-0.6-0.4-1.1-0.7-1.7c-10.3-4.8-20-10.7-29-17.6c-11.5-8.6-19-17.4-31.8-8
	c-7.3,5.4-14.3,11.1-21.3,17.1c-3.2,7.5-7.4,14.4-11.2,21.7c-4.3,8.1-10.9,13.2-20,14.4c-3.8,0.5-7.7,0.6-11.6,0.4
	c-19.8,11.2-42.6-5.7-38.4-29.2c1.7-9.3-16.4-9.5-20.9-7.8c-12.3,5-19.2,18.8-24.2,30.2c-12.2,27.9-54.6,6.6-47.6-20.6
	c0.2-0.9,0.4-1.9,0.5-2.9c-0.1-2.1-0.2-4.2-0.2-6.3c-3-13.5-22.2-17-30-1.5c-10.5,20.6-10.8,44.9-39.2,50c-3.9,0.7-7.9,0.7-11.7-0.2
	c-2.1,0.2-4.1,0.2-6.2,0.1c-4.3,0-6.4-1.6-7.8-5.5c-0.4-1-0.7-2.1-0.9-3.1c-5.3-5.9-7.9-14.3-5.3-23.7c3.3-12,8.3-26.4,6.1-39.1
	c-0.9-4.6-4.9-15.8-11.7-15.2c-5.5,0.5-14.8,12.5-20,15.4c-8.7,4.7-18.5,7.1-28.5,7c-4.3-0.1-8.5-0.8-12.7-1.9
	c-0.1,0.1-0.3,0.2-0.4,0.3c-4.3,3.3-8.3,7.6-14.3,8.3c-1.3,0.1-2.6,0.5-3.8,0.7c-5.6,0.5-6.8-0.2-8.6-5.6c-1.1-3.3-1.7-6.7-1.8-10.2
	c0-0.6-0.1-1.2-0.1-1.9c-5.8-1.1-11.3-1.5-16.6-0.2c-16.1,3.9-27.1,23.3-35.4,36.1c-6.9,10.6-21.5,14.4-32.8,10.5l-3,2
	c-3.2,2.2-5.8,1.9-7.9-1.7c-1.3-2.1-2.2-4.4-2.9-6.8c-3.3-11-5.3-22.3-5.9-33.8c-0.9-2.7-2.3-5.2-4-7.5c-5.6-7.3-7.7-4.3-14.4,0.3
	c-17.3,11.9-33.9,19.9-55.1,12.8c-0.1,0.1-0.1,0.2-0.2,0.2c-3.3,3.8-6.6,7.3-9.8,11c-2.5,2.9-5.8,2.9-9.2,2.3
	c-2.6-0.1-4.6-2.4-4.5-5c0,0,0,0,0-0.1c0.1-4.3,0.6-8.5,1.3-12.7c0.4-2.7,0.7-5.4,0.9-8.1c-11.1-8.4-21.6-17.9-35.5-21.1
	c-2.9-0.5-5.9-0.6-8.8-0.2c-1.6,1.9-2.9,4-4,6.2c-1.4,3-3.2,5.8-6.8,6.7c-0.6,0.2-1.2,0.5-1.6,0.9c0.8,4.6,1.3,9.3,1.6,13.9
	c0.7,9.1-4.2,17.8-12.5,21.8c-0.6,0.7-1.2,1.4-1.9,2.1c-2.4,2.8-4.7,5.4-6.9,8.2c-0.2,0.4-0.5,0.8-0.8,1.2
	c-4.4,3.7-8.6,7.7-13.4,10.8c-5.3,3.5-11.4,2.4-17.3,1.2c-3.1-0.6-5.2-4.2-5.3-7.7c-0.1-4.4,0-8.9,0.5-13.3
	c0.4-4.4,1.1-8.8,2.1-13.1c0.7-2.8,1.4-5.6,2.2-8.4c-2.7-7.6-3.7-15.6-3-23.6c-4.5-12.3-12.7-23-23.4-30.6c-1.4-0.9-2.7-1.8-4.2-2.5
	c-2.6,3.4-6.1,7.5-7,8.8c-6.3,10.2-11.4,21.1-15.1,32.5c-10.5,31.7-60.8,17.5-50.3-14.3c2.3-7,5.2-14.8,8.6-22.7
	c-0.1-1-0.2-1.9-0.4-2.8c-1.3-5.5-9.8-10.5-15.5-9.9c-5,0.5-8.5,3.3-12.2,5.9c-4.1,3.2-8,6.7-11.7,10.5c-2.2,2.2-4.3,4.6-6.1,7.1
	c-4.6,6.3-11.4,8-18.1,10c-2.1,0.6-4.2,1-6.2,1.5c-5.5,1.3-9.4-2.7-8.4-8.3l3.9-21.8c1.1-6.3,2.5-12.6,3.6-18.8
	c1.1-5.8,1.9-11.7,2.4-17.6c0.4-8.3-3.4-15-9.7-20.1c-1.2-1.1-2.8-1.7-4.4-1.8c-6.6,0.2-13.1,1.2-19.5,2.9c-3.2,1-6.5,1.7-9.8,2.5
	l-0.9,0.2c-2.8,0.6-5.7,1.2-8.5,1.9c-3.1,0.5-6.1,1.2-9.1,2.1c-5.2,2-10.4,1.4-15.4-0.9c-2-0.9-4-1.7-6-2.3
	c-7-2.2-10.6-7.8-12.8-14.1c-0.7-2.1,0-5.3,1.1-7.5c3.3-6.9,9-12,14.9-16.3c3-2.2,6.3-3.9,9.8-5.1c0.7-1,1.4-1.9,2.2-2.8
	c37.9-42.8,90.1-11,128.2,12.2c44.5,27.2,95.5,42.4,146.8,50.2c100.1,15.4,202.5,4.1,303.2,5.3c104.2,1.2,208.4,9.7,312.6,7.2
	c102.4-2.4,201.8-20.3,301.2-44.4c44.2-10.8,90.2-19.9,133.2-35.4c1.8-1.8,3.6-3.6,5.3-5.5c3.6-3.8,6.6-8.2,10.1-12.2
	c2.1-2.3,4.5-4.3,6.6-6.7c1-1,1.8-2.3,2.1-3.7c0.5-3.5,2.7-5.8,5.4-7.9c6.5-5.1,12.8-10.3,19.2-15.4c9.4-7.5,18.8-15,28.3-22.5
	c3.7-2.9,7.4-6.1,11.7-8.2c4.5-2.3,9.2-4.3,14-6.1c16.9-17.8,52.4-4.9,44.4,23.8c-0.3,0.9-0.5,2-0.8,2.9
	c15.5,6.5,28.3,18.1,36.3,32.9C1748.1,700.8,1741,720,1724.2,724.8z M1638.5,1130.9c-57.3,36.6-119.8,64.2-185.4,82.1
	c-2.3,8.5-8.9,15.2-17.4,17.6c-32.8,9.3-67.2,11.7-101.1,7.2c-10.5,5.7-23.4,7.2-34.7,3.4l-0.3-0.1c-14.4,1.7-28.8,3.2-43.2,4.5
	c-10.6,0.9-21.2,1.2-31.8,1.9c-14.6,9.6-32.3,13.4-49.6,10.4c-5.6-0.9-11.1-2.5-16.4-4.9c-7.4,0.3-14.8,0.5-22.3,0.8
	c-8.6,0.4-17.2,0.8-25.7,1.2c-8,0.4-16.2,0.8-24.2,1.3c-1.6,0-3.3,0.2-4.9,0.2l-10.6-0.4c-117.9,2.7-235-5.4-353.3-14
	c-76.2-5.6-152.4-10.2-228.6-9.2c-24.5,0.3-52.5,4.8-76.5-3.4c-2.9,1.5-6,2.7-9.2,3.5c-19.3,4.8-38.1-4.4-49.9-19.2
	c-2.7,2.3-5.7,4.2-9,5.7c-30.8,14-56.3-17.4-77.1-35.3c-9.4-8.1-10.2-18.2-6.3-26.6c-0.7-1.8-1.4-3.7-2-5.5
	c-1.2-2.9-1.4-6.1-0.5-9.2c0.7-2.9,2.1-4.4,5-4c3.1,0.4,6.1,1,9.1,1.9c1.8,0.5,3.6,1.1,5.4,1.8c9.1-3.4,19.4-1.4,26.6,5.1
	c3.4,2.8,11.7,8.2,17.9,13.4c2.9-13,6.4-24.6,17.2-34c15.5-13.3,36.9-7,43.6,12c0.3,0.9,0.6,1.8,0.8,2.7c0.4-0.6,0.6-1.1,1-1.7
	c6.1-10.9,23-16.4,34.3-9.9c19.8-13.3,42.9,6.4,39.4,29.1c1.4-9.8-1.1,0.2,4.7-1.3c4.9-1.2,6.1,1,11.8-2.6
	c11.4-7.6,18.1-22.6,24.4-34.2c11.8-21.9,51.1-12.4,48.5,13.6c-1.2,13,6.4,25,20.6,24.5c9.3-0.3,19-5.3,28.3-6.5
	c9.8-1.3,18.7-0.7,28.1,2.7c12.4,4.6,22.1,18,36,14.8c7.5-1.8,14.3-6.6,17.4-13.3c0.8-7.1,2.6-14.1,5.5-20.7
	c10.7-24.4,49.2-10.6,48.5,13.6c-0.1,6.4-1.1,12.8-3.1,19c1.5,2.7,4.6,4.6,7.4,4.3c6.8-0.4,7.7-7.1,9.1-12.2
	c6.4-22,17-40.4,42.4-41.2c20.6-0.7,31.1,22.6,22.2,39.3c-2.9,5.3,4.9,12.7,9.5,14.5c12,4.6,30.2-3.3,42.4-4.6
	c15.5-1.8,31,0,44.3,8.9c10,6.6,16,21.2,27.8,23.5c12.3,2.3,26.2-4.5,37-9.3c15-6.7,29.9-13.9,46.4-16.7
	c31.2-5.4,54.6,10.5,83.7,17.4c13.8,3.3,20.1-6.1,33.4-8.3c15.2-2.6,26.5,3.9,37,13.7c10.1-0.7,20.2-1.5,30.2-2.4
	c5.6-6.3,11.4-13.7,18.7-17.3c13.8-6.4,27.3-3.8,40.5,1.9c1.9,0.8,9.2,2.4,7,3.9c2.6-1.7,5.3-5.5,7.2-7.6l0.6-0.7
	c2.9-8.2,8.4-15.2,15.8-19.9c4.8-4.2,10.4-7.4,16.4-9.2c6.9-3.5,14.6-5.3,22.3-5.3c10.5,0,23.4,8.4,25,19.4c0.1,0.2,0,0.4,0.1,0.6
	c1.4,0.4,2.9,0.5,4.3,0.3c5.8-0.9,9.2-3.5,13.5-7.3c1.8-1.6,3.6-3.3,5.4-5c0.3-1.6,0.7-3.3,1.1-4.9c4.7-16.3,20.2-26.9,36.6-28.6
	c14.7-8.6,34.6,1.9,38.4,17.2c0.4,0.5,0.8,1.1,1.1,1.6c0.1-0.1,0.2-0.1,0.2-0.2c1.8-2,3.7-4,5.8-5.7c1.8-5.1,3.6-10.2,5.6-15.1
	c1.7-3.6,3.5-7,5.5-10.4c1.8-3.2,3.7-6.6,5.3-9.9c1.4-3,4-4.2,6.6-5.6c1.1-0.9,2.8-0.6,3.6,0.5c0.1,0.1,0.2,0.2,0.2,0.4
	c1.4,1.8,2.6,3.8,3.5,5.9c0.7,1.8,1.2,3.6,1.7,5.5c10.1-5.9,21.6-8.9,33.3-8.5c0.6,0,1.2,0.1,1.8,0.1c1.9-4.1,4.2-8.1,5.7-12.3
	c2.5-7.2,7.4-12.8,12.1-18.5c3.2-3.9,7.9-5.2,12.9-5.1c4,0.2,5,1.4,5.5,5.4c0.2,1.6,0.2,3.3-0.1,4.9c7.2,0.1,14.4,2.8,19.2,7.5
	c8.4,8.3,18.1,11.4,29.2,9.6c2.6-1.4,5.2-2.9,7.8-4.3c4.8-2.8,9.8-5.4,14.8-7.9c2-0.9,4-1.4,6.2-1.6c3.8-0.6,5.5,0.7,5.2,4.5
	c-0.1,2.6-0.5,5.2-1.4,7.7c-0.9,2.6-2,5.2-3.3,7.6C1653.9,1100.8,1654.2,1120.8,1638.5,1130.9L1638.5,1130.9z M1457.6,1137
	c0.2-1.4-0.1-1.9-0.6-1.8l-0.3,0.3C1457.1,1136,1457.3,1136.5,1457.6,1137L1457.6,1137z"/>
<path class="st7" d="M769.5,704.2c-0.2,1.5,0.1,5.3-1.4,8.1c-5,9.5-9.9,19.2-16.5,27.7c-6.8,8.7-14.5,6.4-17.6-3.9
	c-2.5-7.4-2.4-15.4,0.1-22.8c2.5-8,3.2-16.5,5.4-24.6c1.4-5.6,3.4-11,5.9-16.2c1.6-3,4.6-7.2,7.2-7.3s6.3,3.5,8,6.4
	C765.9,680.9,769.1,691.2,769.5,704.2 M1224.3,691.3c-0.1,1.4-0.1,2.8,0,4.2c1.5,23.2-12.6,37-30.2,48.3c-5.8,3.7-11.9,0.3-12.3-6.9
	c-0.6-7.3,0.3-14.2,4.5-20.8c9-13.8,17.2-28.4,25.8-42.3c1-1.8,3.9-3.5,5.7-3.4s4.4,2.6,4.8,4.5c1.2,5.4,1.4,10.9,2.1,16.4
	C1224.5,691.3,1224.4,691.4,1224.3,691.3 M502.7,646.6c-0.3-1.6-0.9-3.1-1.8-4.4c0.8-1.5,1.7-3.1,2.6-4.6c4-7.1,4.9-13.2-1-20.4
	c-1.2,0.7-2.5,1.2-2.9,1.9c-2.8,4.8-7.4,7.1-12.1,9.5c-2.1,0.9-3.9,2.2-5.3,3.9c-0.9,1.1-1.7,2.2-2.6,3.2c-3.1,1.3-5.7,3.6-7.5,6.5
	c-0.3,0.7-0.6,1.4-0.9,2.1c-0.6,0.5-1.4,1.1-2,1.6c-3.2,3-5.5,6.7-6.7,10.9c-0.4,1.5-0.7,3-0.7,4.6c-0.8,1.6-1.5,3.3-2.2,5
	c-1.9,4.9-0.4,8.4,1.8,12.2c2.5,4.1,5.7,4.8,9.9,2.5c0.1-0.1,0.3-0.2,0.4-0.2l0.2,0.1c9.8,5.7,22.3,1.2,27.3-8.5
	C503.6,664.2,504,655.7,502.7,646.6L502.7,646.6z M503.2,485.3c-0.1-0.2-0.3-0.3-0.5-0.3c0.8-2.7,0.7-5.7-0.2-8.4
	c-1.6-4.8-5-8.8-9.5-11.1c-2.4-3.6-5.3-6.7-8.6-9.4c-1.6,3.2-3.4,5.9-4.4,8.7c-0.1,0.2-0.1,0.5-0.2,0.7c-7.6,3.1-13.4,8.6-15.9,16.7
	c-2.3,7.4-1.8,16,2.6,22.6c0.8,1.3,1.8,2.4,2.9,3.4c-1.5,9.7-0.8,9.9,10,15.3c1.1-0.8,2.2-1.8,3.2-2.7c0.3,0.2,0.5,0.3,0.8,0.5
	c8,4.3,18.2,2.2,23-5.8C512.3,506.1,511.3,493.1,503.2,485.3L503.2,485.3z M711.6,431.7c-0.2-0.2-0.4-0.5-0.5-0.7
	c-0.2-0.7-0.4-1.3-0.7-2c-0.5-4.6-3.9-8-8.2-10.7c-3-1.9-5.9-3.8-9-5.7c-4.8-2.9-9.3-3.1-13.5,1c-2.8,2.7-5.7,5.3-8.5,8
	c-3.2,1.6-6.2,3.6-8.9,6c-3.1,2.6-4.9,6.4-5,10.4c-0.7,1.2-1.4,2.4-2,3.6c-0.7,1.9-0.4,4,0.8,5.7c1.9,1.5,4.1,2.8,6.3,3.8
	c0.9,1,2,2,3.1,2.8c11.3,8.1,28.4,8.2,40,0.6C712.8,449.6,716.7,439.6,711.6,431.7L711.6,431.7z M874.6,318.7
	c3.6-4.4,5.1-10.2,3.9-15.8c-2.5-9.7-11.5-13.2-20.5-12c-9.3,1.3-17.2,8.5-21,16.8c-4.8,10-3.8,20.2-2.3,30.8
	c1.1,8.7,12.8,14.3,20.5,11.9c11.9-3.7,21.8-15,20.3-28C875.3,321.1,875,319.8,874.6,318.7 M1031.7,355.7c-1.4-0.8-3-1.3-4.5-1.7
	c-1.2-3.4-3.9-4.4-7.8-3.9c-9.2,1.2-13.2,4.5-14.5,14.5c-0.8,1.3-1.5,2.6-2.1,4l-5.2,12.8c-1.5,3.6-0.4,9.7,1.5,12.9
	c0.9,1.4,1.9,2.6,3.2,3.8c-0.2,3.2-0.4,6.4-0.6,9.7c5-0.5,9.9-2.3,14-5.2c5.2-0.5,9.9-3.4,12.5-7.9c3.1-5.3,6.1-10.5,9.2-15.8
	C1041.9,371,1039.7,360,1031.7,355.7L1031.7,355.7z M1273,372.5c-0.2-2.6-1-4.9-3.2-5.9l-0.7-6.4c-1-8.6-6.9-17.2-16.7-16.9
	c-2.8,0.1-5.6,0.9-8.1,2.2c-3.7-1.3-7.3,0.7-11.3,6.1c-5.6,7.4-6.6,16.3-6.2,25.2c1,17.5,10.3,32,17.5,49.2
	c8.5-6.9,18.4-9.6,22.1-19.3C1270.9,395.9,1273.9,384.6,1273,372.5z M1331.4,593.9c6.3-19.8,0.9-41.5-13.8-56.1
	c-13.7-13.7-34.4,3.7-27.5,18.5h-0.1c-3.2,1.7-2.8,5.4-1.3,8.2c1.3,2.4,2.8,4.6,4.6,6.7c0.1,0.9,0.2,1.8,0.4,2.7
	c0.3,3.9,0.6,7.8,1.1,11.7c1.2,9,4.7,17.5,10.2,24.7c4.2,5.7,9.4,5.7,14.2,0.5c2.2-2.4,4-5.1,5.3-8
	C1327.7,600.7,1330.1,597.6,1331.4,593.9L1331.4,593.9z M1008.7,613.4c-0.1-1.4-0.3-2.8-0.6-4.1c2.9-9.7,2.5-20.5-1.7-29.2
	c-0.5-1-1.5-1.9-3.4-4c-3.6,4.6-7.2,9-10.7,13.4c-0.3,0-0.5,0.1-0.8,0.2l-1.6,0.6c-1.6-0.4-3.2-0.6-4.8-0.7c-4.1-0.2-9,2-12,4.8
	c-3.2,3.1-5,7.3-5,11.8c0,3.8,1.3,7.5,3.6,10.5c-1.5,3.5-2.1,7.3-1.8,11.1c0.3,4.5,1.6,6.3,6,6.2c6.3,0,12.4-1,17.7-4.2
	c3.8-0.4,7.3-2,10-4.7C1006.6,622,1008.9,617.7,1008.7,613.4L1008.7,613.4z M853.3,546.3c0.3-5.5,0-10.8,0-16.3
	c-0.1-4.7-2.1-9.2-5.5-12.5c1-4.3,1.9-8.6,2.9-12.9c0.5-2.8-0.9-6-1.5-10.8c-3.1,2.9-5.4,4-6.5,6c-2.7,4.5-5.3,8.9-7.9,13.4
	c-7.3,1-13.6,6.4-14.8,13.8c-6.9,0.5-13.3,4.2-15.1,11.6c-1.9,7.7,2,18.2,10.5,20.4c0.7,0.8,1.5,1.6,2.4,2.4
	c5.6,5,12.9,8.1,20.6,5.8C847.9,564.5,852.8,555.8,853.3,546.3z"/>
<path class="st1" d="M492.3,461.9c-0.1,11.8-1.5,23.9,2,35.4c2,6.4,4.3,19.2-6.7,16.5c-4.8-1.2-8.9-4.7-12.4-8
	c-4.2-3.8-10.5-9.2-8.1-15.7c1.5-3.9,7.4-7.9,10.2-11.1c7.4-8.4,13.3-13.8,24.7-16.1c6-1.3,3.5-10.4-2.5-9.1
	c-16.9,3.4-25.3,14.8-36.7,26.7s-3.2,24.6,7.1,33.7c7.9,7.1,21.8,14.9,31.1,5.6c5.4-5.3,5.9-12.9,4-20c-3.4-12.9-3.4-24.4-3.4-37.7
	C501.9,455.9,492.3,455.8,492.3,461.9 M661.5,452.3c-1.7-15.9,25.7-40.2,40.4-27.4c9.7,8.4,10.1,26.7-4.6,28.3
	c-10.9,1.2-22-1.4-32.8-1.8c-6.1-0.2-6.2,9.4,0,9.4c14.2,0.5,36.7,7.5,48.4-3.9c10.3-10.1,5.5-29.7-3.9-38.8
	c-20.2-19.2-59.2,10-56.8,34C652.7,458.2,662.2,458.4,661.5,452.3 M1004.2,413.9c-0.1-16.5-5.9-50,13.1-58.2
	c13.9-6,19.4,16.8,16.4,26.8c-3.6,11.6-21.2,16.9-30,24.2c-4.6,3.9,2,10.7,6.6,6.8c12.4-10.4,32.1-15.2,33.3-34.1
	c0.7-11.8-3.8-32.3-18-34.5c-35.4-5.8-31.1,48.8-31,68.9C994.6,420,1004.1,420.1,1004.2,413.9 M1243.7,408.8c0-11.9-2-23.5-3-35.3
	c-0.8-10-4.3-32.3,15.2-20.9c4,2.3,8.2,8,10.8,11.9c7.2,10.7,6,21-4.3,29.4c-7.1,5.8-12.5,12.9-19.3,19.1c-4.6,4.2,2.2,10.9,6.6,6.8
	c7.4-6.8,13.8-14.2,21.5-20.8c5.4-4.6,9.4-9.6,10.4-16.8c1.9-14.6-11.5-33.3-23.9-39.9c-8.4-4.4-22.3-1.9-26.2,7.5
	c-2.5,6-1,14.8-0.5,21.1c0.9,12.7,3,25.1,3.2,37.9C1234.3,414.8,1243.9,415,1243.7,408.8 M1286.4,545.6
	c-0.2,19.1-2.7,44.2,10.3,60.2c7.2,8.9,18.2,12,27.6,4.3c11.9-9.7,15.8-28.5,13.1-43.2c-3.6-19.5-17.8-24-31.2-35.9
	c-4.6-4-11.3,2.6-6.8,6.6c6.1,5.3,13.8,8.8,19.8,14.1c10,9.1,11.4,24.5,7.6,36.8c-2.2,7.1-7.9,20.2-18.7,15
	c-6.1-2.9-8.5-12.3-9.9-17.9c-3.2-13.1-2.3-26.8-2.1-40.2C1296,539.7,1286.6,539.5,1286.4,545.6 M1194.9,682.6
	c-7.6,12.9-25.7,40.2-9.7,53.5c10.9,9,25.8,1.1,32-9.4c8.6-14.5,22.4-60.3-6.7-61.4c-6.1-0.2-6.1,9.2,0,9.4
	c15.3,0.6,5.6,31.2,2.4,39c-2.7,6.7-6.3,15.2-14.4,16.4c-21.9,3.2,0.5-35.7,4.6-42.6C1206.2,682.1,1198,677.3,1194.9,682.6
	 M993.4,580.5c0,10.6,5,19,7,29.1c1.5,7.2,2.6,18.8-6.3,20.6c-3.7,0.8-10.5-0.7-13.7-2.5c-8.5-4.9-13.2-26-2.5-30.5
	c4-1.8,8.6-1.4,12.7-3.6c4.3-2.4,7.7-6.1,11-9.6c4.3-4.4-2.4-11.1-6.6-6.8c-4,4.1-7.5,8.1-13.2,9.7c-3.3,0.9-6.8,0.7-10,2.4
	c-5,2.6-7.9,7.6-8.9,13.2c-2.2,11.6,2.2,28.6,13.5,34c9.8,4.7,27.1,6.4,32.6-5.2c8-16.5-6.1-34.5-6.1-50.6
	C1002.9,574.6,993.4,574.4,993.4,580.5 M841.8,507c0,11.9,0.9,23.7,0.5,35.6c-0.2,7.1,0.2,14.3-7.3,17.5c-4.5,1.8-11.2,0.9-15-1.9
	c-9.3-7.3-3.8-21.7,2.9-29c7.8-8.7,18.5-14.5,26.9-22.4c4.4-4.2-2.2-10.9-6.6-6.8c-12.2,11.5-28.8,19.2-35.1,35.6
	c-4.7,12.2-2.9,26.2,9.8,32.3c9.5,4.6,23,3.3,29.7-5.5c4.3-5.5,4.1-13,4.2-19.7c0.3-11.9-0.5-23.7-0.5-35.6
	C851.4,501.1,841.8,501,841.8,507 M744,673.1c13.4,10.1,20,25.9,20.9,42.3c0.6,9.7-1.4,15.7-12,16.8c-6.2,0.6-11.3-0.1-14.7-5.8
	c-8.5-14-2.4-42.2,7.7-54.1c4-4.7-2.7-11.3-6.6-6.8c-13.7,16-25.2,65,1.6,75c15.8,5.9,33.3-2.7,33.8-19.8
	c0.5-21.7-8.3-42.8-25.7-55.8C744,661.4,739.2,669.5,744,673.1 M491.1,621c0.4,13.4,10.5,26.8,7.3,40.2c-1.9,7.8-8.1,13.3-15.8,15.3
	c-4.1,1.1-13.8,2.2-15.9-3.1c-2.6-6.9,6.3-18.3,9.8-23.4c4.4-6.4,9.4-12.4,14.9-17.8c4.3-4.3-2.3-11.1-6.6-6.8
	c-10.3,10.2-41.7,44.7-21.6,58.3c11.1,7.6,29.3,2,37.7-7.2c16-17.6,0.3-35.9-0.2-55.2C500.5,615,490.9,614.9,491.1,621 M857.2,290.9
	c-15.3,8.4-24.3,19-26.2,36.6c-1.3,12.5,1.1,28.4,16.8,28.5c27.8,0.4,27.6-42,27.9-60.9c0.1-6.1-9.4-6.2-9.5,0
	c-0.2,14.2,1.3,37-9.8,47.9c-3.8,3.7-10.8,5.8-14.7,0.6c-2.8-3.6-1.8-10.5-1.5-14.8c1.5-14.6,9-22.8,21.6-29.7
	C867.4,296.2,862.5,288,857.2,290.9 M285,1225.4c-0.5,24.8-3.3,50.2,4.2,74.4c3.3,10.7,8,20.7,12.3,30.8
	c5.7,13.6,6.7,28.2,12.4,41.6c8.2,19.2,11.1,36,32,44.9c16.8,7.1,37.3,9.4,55.3,11.3c28.1,3,58.5,1.7,86.9,1.5
	c27.5-0.2,54.8-5.6,82.2-7.3c30.7-2,60.5-7.1,91.2-6.8c30.9,0.2,61.9,1,92.8,0.8c30-0.2,60.1-1.3,90,3c13.5,2,26.4,1.7,40,2.2
	c16.1,0.4,31.3,4.5,46.8,8.6c55.1,14.4,114.5,8.5,171,9.1c60.6,0.7,121.3-3.5,182-1.9c13.4,0.3,26.7,1.4,39.8-1.9
	c14.4-3.6,27.8-9.8,42.3-13.2c27.9-6.7,55.4-15.1,83.5-21.3c16-3.5,31.1-8.1,46.9-12.2c15.4-4,31.6-1.1,47-5.8
	c17.1-5.1,26.7-12,32.8-29c11.3-31.1,7.1-64.7,7.4-97.2c0.2-29.5-6.2-69.8,11.4-95.4c3.4-5-4.7-9.9-8.1-4.9
	c-11.4,16.3-12.3,34.9-12.4,54.1c-0.3,28.7-0.4,57.4-0.2,86.1c0.1,24.5,1.6,62.1-24.2,73.7c-11.1,5-22.7,5.5-34.6,5.9
	c-14.5,0.6-26.8,5.4-40.7,9.3c-25.3,6.9-51.2,11.5-76.5,18.6c-12.5,3.5-25.2,6.1-37.8,9.4c-13.3,3.4-25.8,9.3-39.2,12.5
	c-26.5,6.2-57.3,1.3-84.6,1.8c-29.1,0.5-58.2,1.6-87.4,1.9c-56.4,0.6-114.5,2.2-171-0.9c-26.3-1.6-50.5-11.1-76.3-15.1
	c-9.7-1.5-19-1.5-28.6-1.5c-16.6,0-32.6-3.3-49.1-4.5c-55.1-4.1-111.3-0.9-166.7-1.5c-51.8-0.6-103.6,9.6-155,13.9
	c-30.3,2.5-63.5,1.1-93.9-0.6c-20.3-1.1-58.4-3.3-72.6-19.7c-5.4-6.2-6-15.6-8.6-23s-6.2-13.6-8.2-21.3
	c-3.1-12.1-7.2-23.9-12.1-35.3c-13.6-32-13.2-60.5-12.7-94.6C294.7,1219.4,285.1,1219.3,285,1225.4 M1653.8,1090.5
	c-7.3-20.9-34.2-10.1-48-3.7c-4.3,2-17.6,11.2-22.4,10.2c-6.1-1.3-3.6-8.1-3.2-13c0.3-5.9,2-15.8-3.2-20.5
	c-12.8-11.4-33.8,12.2-38.6,22.3c-2.6,5.7-4.6,18.4-10.2,21.7c-7.6,4.6-7.2-5-10.9-10.7c-4.7-7-11.7-11.3-20.4-9.6
	c-21.9,4.5-22.1,43.1-32.5,57.8c-0.9,1.8-1.8,3.7-2.7,5.5c-4.4-1.3-8.8-2.8-13.2-4.2c-1-0.9-2-5.2-3-6.7c-3.2-4.4-5.8-8.9-9.8-12.7
	l0.9-0.8c10.3-9.8,22-15.6,30.9-27c9.7-12.5,22.2-22.4,31.5-34.8c3.9-5.1,5-9.8,7.7-15.1c5.3-10.8,11.8-16.2,20.2-24.1
	c1.8-1.6,2-4.3,0.4-6.1c-0.1-0.1-0.1-0.1-0.2-0.2l0.6-0.2c22.4-6.2,45.1-13.8,61.4-31.1c18.1-19.3,18.7-45.7,31.2-67.9
	c12.4-22,17.2-43.9,20.1-69.2c2.2-18.8-3.6-36.3-16.4-50.5c-0.6-0.7-1.5-1.2-2.4-1.4c-0.2-0.3-0.3-0.6-0.5-0.8
	c-2.1-3.1-5-5.5-7.4-8.3c-8.3-9.8-11.2-21.6,4.1-27.2c11.3-4.1,30.2,3.3,42.6,2c26.3-2.7,44.1-28.9,63.6-44.2
	c12.4-9.7,22.9-25.4,11.4-39.8c-5.5-6.7-13.8-10.6-20.9-15.2c-3.9-2.5-9.5-4.9-12.2-8.8c-5.4-7.8-0.1-13,3-20.4
	c7-16.5-4.7-29.6-21.8-24.8c-28.3,8-45.9,33-76,35.7c0.8-3.5,1.5-6.9,2.1-10.3c4.3-26.5-0.2-51.5-2-77.7
	c-1.6-22.7-12.8-34-27.4-51.1c-16.6-19.4-31.1-38.6-44-60.7c-4.9-8.4-7.8-17.6-13.9-25.1c-8.4-10.5-19.8-18.7-30.1-27.3
	c-18.8-15.9-39.2-30.2-58.7-45.2c-20.7-15.8-41.6-22.1-65-31.9c-25.4-10.7-54.5-12.9-78.5-26c-21.9-11.8-40.2-26.8-63.7-35.7
	c-12.6-4.8-25.9-6.3-38.7-10.4c-15.6-5.1-30.8-10.2-46.9-14.2c-53.7-13.5-111.8-7.6-167-8c-53.3-0.5-108.4-6.3-156.9,19.8
	c-43,23.3-92.1,29.8-135.7,52.1c-47.8,24.5-99.3,40.3-145,69.1c-22.8,14.3-43.6,31.5-66.2,46.3c-20.7,13.5-43,24.7-60.2,42.7
	c-19,19.8-34,42.3-54.2,61.2c-9.7,9.2-18.9,18.9-28.4,28.2c-8.8,8.6-19.4,15.5-26.6,25.5c-10.3,14.1-20.1,30.3-25.8,47.3
	c-2.8-2.5-8.8,0-7.9,4.9c4.8,26.2,10.4,48.9,22.3,72.8c1.7,3.4,3.3,7.1,4.9,10.9c-0.8-1.4-2.2-2.2-3.8-2.2
	c-11.5-0.4-23.7-3-35.1-0.7c-11.9,2.4-20.7,12-29.3,20c-11.4,10.9-22.1,32-5.1,43.3c18.3,12.2,65.7-10.3,69.6,17
	c2.6,18.3-11.5,46.6-1.2,63.4c11.7,19.1,31,1.4,38.1-10c5.6-9.1,25.3-32.9,30.8-13.1c2.5,8.8-0.8,21,0.8,30.5
	c2.5,15.1,13,43.4,34.7,37.2c7.3-2.1,9.8-9.4,12.8-15.5c7.7-15.5,16.4-30.5,26.2-44.7c6.5-9.5,21.4-21.4,28.9-7.1
	c2.4,4.4,1.5,11.4,1.6,16.2c0.4,16-0.4,32-0.6,47.9c-0.2,11.8,6.1,28.5,18.8,31.5c-4.8,0.6-9.7,1.1-14.6,1.6
	c-14,1.5-25.5,7.7-37.4,14.8c-16,9.6-32.6,17.7-49.4,25.7c-31,14.7-63.5,14.8-89.5,39c-10.6,9.9-19.6,21.5-30.8,30.7
	c0.2-0.2-9.5,7.8-11,7.4c-9.2-1.7-6-10.3-5.7-15.8c0.6-9.4,0-18.7,0.2-28c1.4-49.3,26.6-92.3,46.1-136.2c2.5-5.9-5.6-10.7-8-5.1
	c-15.8,35.5-34.4,69.3-43.1,107.5c-3.9,17-4.4,33.2-4.5,50.6c-0.1,12.1-3,24.3,1.8,35.7c0.8,1.5,2.4,2.4,4.1,2.4
	c17.6,0.1,31-15.3,42.2-27c9.9-10.2,19.7-21.8,32.1-29c13.9-8,30.5-9.3,45.8-14c27-8.5,53-23.2,77.2-37.6
	c16.9-10,31.6-11.4,50.7-12.5c16.9-1,32.8-7.1,49.8-8.5c32-2.7,64.8-0.2,96.8,0c14,0.1,28.3-0.9,42.2,0.8
	c17.7,2.1,29.2,11.7,42.9,22.3c12.4,9.7,21.6,18,30.5,31.3c9.1,13.8,17.2,29.5,27.5,42.5c9.5,12.2,19.6,9.6,28.8-1.6
	c10.5-12.9,16.8-28.3,29.5-39.6c11.9-10.6,27.2-11,41-17.8c7.9-4.2,15.6-8.2,23.4-12.1c6.8,1.3,14.4,0,21.9-4.6
	c3.9-2.4,7.2-5.8,9.4-9.8c13.1-6.2,30-15.8,42.1-15.6c6.2,0.1,6.2-9.4,0-9.4c-11.7-0.2-20.6,5.7-30.8,10.5c-2.3,1.1-4.6,2.2-6.9,3.2
	c0.6-2.2,1.2-4.5,2-6.8c4.6-15.3,9.6-39.1,21-52c17.1,17.3,17.1,47.1,35.6,64.1c12.3,11.3,29.2,15.2,39.4,0.1
	c11.6-17,12.4-39.1,22-56.9c10.2-19.2,22.5,0.9,28,12.3c6,12.5,13.3,23.9,23.7,33.1c13.7,12.2,24.5,12.8,34.9-3
	c6.2-9.5,8.2-20.1,17.1-27c3.9-3,8-5.8,11.9-8.6c14.6-11.1,29.2-11.2,40.7,3.2c8.3,10.4,9.2,23.8,19.1,33.3
	c8.1,7.9,19.2,12.5,30.3,13.9c26.4,3.3,36.7-14.5,49.3-34.3c7.4-11.8,5-29.9,17.8-37.9c11.3-7.1,37.6-14.4,50.2-14
	c16.8,0.4,24.6,15.3,38.3,22.2c12.4,6.3,25.6,11,38.1,17.4c18.2,9.1,29.5-0.3,34.2-18.9c2.5-9.9,0.1-23,4.1-32.1
	c9.6-22.1,39.5-0.6,54,6.2c11.1,5,21.6,8,33.7,8.5c10.9,0.4,25.5,2.2,35.1-4.2c6.3-4.2,9.6-11.1,10.4-18.3
	c7.5,16.3,3.8,33.6,0.4,52.8c-2,11.6-3.1,22.1-8.8,32.6c-4.6,8.6-10.2,16.2-13.5,25.3c-8.8,24.6-12.4,46.6-36.5,62
	c-19.8,12.8-43.2,15.8-64.9,23.3c-22.4,7.9-42.8,8.6-66.6,8c-24.2-0.6-45.5,3.9-69.3,8c-25,4.3-49.3,0.6-74.3,0.7
	c-23.1,0.4-45.4,7.1-68.5,10.8c-51.5,8.1-103.9-0.8-155,9.3c-52.8,10.4-103.6,9-157.2,5c-49-3.7-100,2.9-148.6-3.6
	c-1.1-2.4-4-3.5-6.4-2.4c-0.1,0-0.1,0.1-0.2,0.1l-2.1,1c-19-3.3-34.9-9.2-54.3-9.8c-25-0.8-49.8-4.2-75-4.5
	c-26.6-0.4-52.4,0.5-78.7,3.7c-30,3.8-59.9,2.8-90,2.3c-38.1-0.7-144.9,24-145-38.5c0-6.1-9.5-6.2-9.5,0
	c0.1,39.9,40.1,51.5,73.9,51.1c24.8-0.3,49.3-2.9,74.1-3.1c0.1,1.8,1.6,3.2,3.4,3.4c28.1,4.6,54.1,17.9,81.9,23
	c11.5,2.2,21.7,7,33.2,8.9s23,0.3,34.4,0.1c28.1-0.4,56,2,84-2.3c24.4-3.8,46.7-13.9,68.8-24.4c8.4,1.3,16.8,2.1,25.3,2.4
	c30.4,0.8,61,0.4,91.4,0.8c9.6,0.1,19.2,0.5,28.7,1c-22.5,11.4-47.2,19.4-70.9,27.6c-20.8,7.2-38.7,17.4-57.8,27.6
	c-16.8,8.9-37.5,12.2-56.9,15.8c-2.1-9.2-6.3-16-18.1-6.6c-3.7,3.1-6.7,6.9-9,11.2c-23.2,2.2-47.6-1.1-70.6-1.2
	c-25.9-0.1-52.5,1.9-77.8-5.1c-0.3-0.8-0.6-1.5-0.9-2.3c-2.9-7.6-6.2-25.4-15.3-28.8c-11.2-4.5-21,6.9-28.5,19.1
	c-7.6-0.3-15.3,0.3-22.8,0.3c-26.9,0.5-52.8-6.8-77.1-18.2c-21-9.9-36.7-27.3-56.5-39.3c-5.2-3.4-10.1,4.8-4.8,8
	c19.8,11.9,35.6,29.7,56.7,39.5c8.4,3.9,17.1,7.4,25.9,10.4c-5.5,7.5-8,20.5-10,26.5c-2.9,9.2-6.2,19.6-16.7,14.2
	c-7.6-3.8-13.6-14.4-19.1-20.7c-7.2-8.1-17.7-20.7-30.1-15.8c-18.4,7.4-1.9,44.5-19.7,44.4c-12.9-0.2-44.4-45-58-23.8
	c-4.3,6.7,2.6,16.6,6.2,21.7c6.9,9.4,18,19.8,23.2,31.5c-5.4,0.7-5.4,9.5,0.6,9.3h2.1c0.1,1,0.2,2,0.2,2.9
	c1.1,5.4,10.5,5.5,10.4-0.7c0-0.8-0.1-1.5-0.1-2.3c8.4,0.2,16,1.2,25,5.1c6.7,2.8,12.8,5,19.9,6.1c20.8,3.1,41.4,3.9,62.1,6.8
	c41.2,5.9,82.6,6.9,124.1,7.2c44.1,0.3,88.1,4.6,132.4,5.1c22.6,0.3,45.2,0.3,67.7,0.8c26.1,0.5,49.8,6.2,75.3,9.9
	c41.3,5.9,83.2-1.2,124.3,4.4c18.3,2.4,35.9,8.1,54.2,9.8c23,2.3,47.2,2.7,70.3,2.2c39.4-0.7,78.8-8.8,118.2-7.7
	c9,0.2,18,0.6,27-0.5c10.7-1.4,20.9-5.8,31.7-6.3c19.2-0.8,38.7-2.7,57.9-2.5c43.6,0.4,84.5-1.6,126.1-15.7
	c36.9-12.6,75.4-26.2,110.7-42.8c32.9-15.5,58.6-41.9,88.8-61.5c12.6-8.3,38.6-23,32-41.8L1653.8,1090.5z M285.9,664.3
	c-3.2-8.8-5.2-18-6.8-27.2c0.3-0.5,0.6-1.1,0.6-1.8c8.4-55.2,58.1-89,94.9-125.6c16.8-16.8,28.9-37.7,46-54.1
	c18.7-17.7,42.7-28.9,63.6-43.6c41-28.9,81.4-56.4,127.3-76.9c20.8-9.3,42.2-17.2,63.2-26.6c23.1-10.4,43.7-19.9,68.2-26.1
	c10.8-2.6,19.7-9,30.5-11.7c9.8-2.6,19.4-5.3,28.7-9.4c28.4-12.3,51.2-26.2,83-28.7c52.8-4,107.2,0,160.2,0.6
	c26.2,0.2,53.1-2.6,78.6,3.6c27.2,6.6,53.4,16.1,80.5,22.6c25.1,6,46.2,17.5,67.3,31.9c21.7,14.7,43,17.3,67.3,25.1
	c10.5,3.4,20.5,8,30.8,12.1c12.4,4.9,25,7.5,36.8,14.4c21.6,12.5,41.5,30.2,61.8,44.9c19.4,14.1,41.5,30.1,52.9,51.4
	c9.9,18.5,20.3,37.4,33.2,53.9c13.6,17.3,41.5,37.8,43.4,60.5c2.1,25.4,6,50.4,3,76c-2.6,22.6-11.9,46.9-23.3,66.4
	c-13.1,22.4-42.9,14.1-64.8,19.4c-11.4,2.7-22.5,6.7-33.9,9.5c-7.5,1.9-13.9,3.5-21.7,3.9c-4.7,0.2-8.6-0.6-13.2,0.3
	c-22.3,4.1-43.3,21-64.4,29c-25.2,9.5-49.6,14.3-76.6,14.4c-26.1,0.1-49.3,3.4-75.2,7.2s-51.1,7-76.6,11.8
	c-29.3,5.7-56.9,6.3-86.7,5.3c-22.9-0.7-45.9-3.1-68.3,1.4c-28.5,5.7-56.4,4.8-85.3,4.5c-60.2-0.5-119.7,18.9-179.6,5
	c-30-6.9-59.3-9.2-89.8-13.3c-28.2-3.8-56.3-0.8-84.5-2.6c-16.3-1-31.8-5.6-48.1-7.6c-13.2-1.7-26.3-0.4-39.5-1.1
	c-33.7-2.1-61.3-23.5-90.5-38.4c-13.1-6.7-26.7-12-40.1-18.1c-12.7-5.8-27.8-10.2-34.4-23.1C298,690.5,290.9,677.7,285.9,664.3z
	 M581.2,909.5c-29.9-0.2-58.5,3.1-87.6,6.5c6.5-3.6,10-12.1,13.1-18.3c7.8-15.6,16.4-32.5,28.7-45.3c3.3-3.5,8.1-7.8,12.7-9.3
	c8.7-2.9,22.4,6.4,25.5,14.9c1.5,3.8-1.6,9.5-0.8,13.6c1.4,7.8,6.8,11,14.3,12.8c27.6,6.6,41.5-21.8,60.1-35.8
	c1.9-1.5,8.1-7.4,10.8-6.9c2,0.4,0.8-8,1.5,5.2c0.3,7.3,1.7,14.6,4.1,21.5c3.8,11.2,5.9,25.1,11.5,35.4c1.5,2.8,3.5,5.4,5.9,7.5
	l-0.4-0.1C648.6,906.3,613.7,909.7,581.2,909.5z M815.4,982.5c-4.6,6-8.4,12.6-12.5,18.9c-1.8,2.7-6.1,10.5-8.1,10.8
	c-6.7,1.2-14.4-8.8-17.6-12.6c-11-13.1-18.2-30-28.6-43.8c-8.8-11.5-21.6-19.3-33-28.2c-5.5-4.5-11.5-8.3-17.8-11.4
	c12.5-0.7,26.5-8.3,36.5-13.6c9.2-4.9,14.2-11,18-20.5c2.2-5.8,6-24,14.4-23.7c8.7,0.2,6.4,10,8.1,15.2c7.8,24.9,38.2,10,52.6,2
	c12.2-6.9,23.4-28.3,39.7-22.4c18.5,6.9,9.3,47,9.5,62.3c0.1,10.5,4.8,19.3,11.9,24.6C861.2,953.2,834.5,957.5,815.4,982.5z
	 M1594,833c-17,1.6-32.5-2.3-47.7-9.6c-11.5-5.4-23.1-12.5-35.9-14.5c-13.2-2.2-23,2-26.6,15.2c-2.8,9.9-1.4,20.7-3.6,30.8
	c-2.8,12.5-8.8,18.8-22.8,14.9c-5.2-1.5-10.3-6.5-15.4-8.8c-13.7-6-24.9-10-36.6-19.9c-7.5-6.4-14-10.5-23.8-11
	c-12.7-0.7-24.6,4-36.5,7.9c-8.4,2.8-18.2,4.3-25.6,9.5c-7,4.9-9,10.8-10.8,18.9c-3.2,14.3-9.7,25.9-18.4,37.8
	c-15.3,20.7-46.5,12.9-58.1-7.3c-7-12.1-8.6-20.6-19.1-30.6c-14.6-13.6-27.4-13.1-43.4-1.9c-6.8,4.7-17,9.9-22.6,16
	c-7.2,7.7-6.7,22-15.3,28.5c-15.8,11.8-34.1-20.7-40-33c-3.9-8.3-7.8-18.8-15.3-24.6c-13.2-10.3-24.2,2.3-29.9,13.9
	c-4.1,8.3-6.7,17.3-9.4,26.1c-1.2,4-2.5,7.9-4,11.8c-1.3,3.5-2.6,8.4-4.5,11.3c-3.5,5.4-15.5,9.9-22.2,8.4
	c-14.7-3.7-21.2-30.7-26.6-43c-4.5-10.4-9-21.5-18.2-28.7c-2.1-1.7-4.5-2-6.7-0.1c-16.9,14.5-21.4,44.8-28.2,64.8
	c-0.7,2.1-1.5,5.3-2.7,8.2c-8.3,3.6-16.6,7-24.8,10.8c-5.8-1.7-10.8-6.1-12.8-14.3c-1.3-5.2,0.4-12.6,0.4-17.9
	c0.4-14.3,3.6-32.5-0.3-46.4c-3.8-13.7-22-14.8-34.2-11.9c-8.5,2-12,8-17.7,13.9c-6.2,6.5-13,10.4-20.9,14.4
	c-2.6,1.3-5.9,3.9-8.6,4.4c-6.7,1.2-18.7-5-21.1-11c-2.2-5.5,1.3-11-4-15.8c-4.8-4.3-10.3-3-15.7-0.7c-7.6,3.4-12.6,9.2-16.1,16.6
	s-4.3,13.3-9.3,20c-5.3,7.3-14.1,11.5-22.7,14.9c-10.3,4.1-10.6,8.2-21.5,5.6c-10.4-2.5-8.7-6.1-13.7-16.5
	c-2.2-4.6-2.7-10.6-4.4-15.6c-2.9-8.1-5-15-5.8-23.5c-0.5-4.9-0.3-10.5-3.5-14.9c-9.5-12.8-27.4,6.5-34.9,13.7
	c-9.5,9.1-22.3,28.7-37.5,26.5c-18.7-2.7-8.3-16.8-13.2-28.2c-7.5-17.1-30.8-18.9-44.9-9.1c-7.7,5.5-13.6,14.3-19,21.9
	c-8.6,12-13.2,28.6-22.5,39.7c-10.1,12-21.8,3-23.4-11.9c-0.6-6.3,0.5-13.4,0.5-19.8c0.1-13,1.1-26.3-0.1-39.3
	c-1.2-12.3-5.5-25.4-19.9-25.4c-20,0.1-32.5,25.8-41.3,40.1c-6,9.8-12.8,38.8-28.7,33.7c-14.5-4.7-15.7-30.9-15.5-43.4
	c0.2-10.5,4.2-31.7-11.4-33.4c-7.6-0.7-15.3,5.4-20.6,9.9c-4.3,3.6-8.1,7.7-11.5,12.1c-3.4,4.6-17.2,32.2-26.5,15.7
	c-4.1-7.4,0.6-25.3,1.2-33.8c0.8-11,4.1-24.2,0.1-34.8c-7.8-20.2-37.2-10.7-53.6-10.8c-13.3-0.1-29.2-5.4-20-22.3
	c3.4-6.4,10-10.9,15.5-15.7c16.3-14.1,30.1-11,50-10.2c3.8-0.4,5.2-4.2,4.4-7.2c2.5,5.5,5.2,10.8,9.3,14.9c7,7.2,18.5,9.4,27.4,13.3
	c25.8,11.7,51,23.6,75.9,37.2c22.8,12.5,42.5,21.6,68.8,22.3c15.5,0.4,30,0.2,45.6,3.2c13.2,2.5,25.9,5,39.3,5.5
	c31.2,1.2,61.2,0.2,92.3,4.2c14.4,1.8,28.9,2,43.2,4.1c15.6,2.2,30.5,7,46,9.9c23.8,4.6,49.8,4.5,73.7,1.1c30.3-4.5,60.8-9,91.6-8.6
	c25.9,0.3,53.5,3.3,79.1-1.8c31.1-6.4,60.7-4.4,92.4-3.4c26.2,0.8,52.4-1.4,78-6.8c28.9-5.7,58.2-8.3,87.2-13.5
	c30.8-5.5,61.2-2.4,92-6.5c23.4-3.1,46.5-11.9,67.8-21.6c11.1-5,21.1-12.3,32.5-16.8c13.7-5.4,28-2.3,42.1-6.6
	c11.2-3.5,23-6.5,34.4-9.7c11.9-3.3,24.5-1.5,36.4-3.8c13.6-2.6,28.1-4.6,35.1-17.3c8.5-15.2,15.3-31.2,20.4-47.8
	c22-0.9,37.6-11.2,56-22.9c4.6-2.9,9.1-5.7,13.8-8.2c7.5-3.9,11.3-7.6,18.2-1.2c8.3,7.8,0.8,9.6-2.1,18.6c-1.2,3.6-1.8,6.1-1,9.9
	c2.3,11.5,15.4,17.8,24.5,23.2c7.9,5,18.5,10.3,16.5,21.3c-2.3,13.4-22.1,21.3-31.2,30.1c-10.8,10.4-20.2,23.9-35.8,27.1
	c-15,3.1-30.6-2.1-45.6-1.6c-15.3,0.6-23.7,8-21.4,24c1.1,7.4,4.2,12.4,8.9,18C1619.5,810.8,1622.4,830.4,1594,833z M684.3,1077.9
	c-29.2,4.3-58,1.4-87.3,2.2c-39.8,1.2-76.3-15.2-114.2-25.7c19.7,0.3,39.4,0.1,58.9-2.2c57-6.8,112.6-3.3,169.4,0
	c10,0.6,19.4,4.5,29,7.3C722.2,1067.7,704,1075,684.3,1077.9L684.3,1077.9z M947.4,1069.5c-10,0.4-20.1,0.8-30.1,1.4
	c-2.2,0.1-4.2,0.3-6.3,0.5c0.8-1.3,0.9-2.9,0.2-4.2C923.3,1067.9,935.3,1068.8,947.4,1069.5L947.4,1069.5z M908.8,1092.3
	c0.4-0.4,0.8-0.7,1.2-1l0.8-0.7c3.4-2.9,4.8-5.3,4.6-8.2c0.8-0.1,1.5-0.1,2.2-0.1h0.2c10.8-0.6,21.6-1.2,32.2-1.5
	c17.2-0.6,31.3-1,44.5-1.3c9.1-0.2,18.5-0.2,27.5-0.3c5.3,0,10.5-0.1,15.8-0.1l8.4-0.2c7.5-0.2,15.3-0.3,22.9-0.2
	c5.9,0.1,12,0.4,17.9,0.7c7,0.3,14.3,0.7,21.5,0.7c9.7,0.2,19.5-0.1,28.9-0.3l6.8-0.2l6.1-0.1c3.9-0.1,8-0.2,12-0.2
	c4.4,0,8.9,0.1,13.3,0.2c7.8,0.1,15.9,0.3,23.9,0c3.4-0.1,6.7-0.1,10.3,0c3.4,0.1,6.8,0.1,10.4,0c6.1-0.2,12.2-1,18.2-1.7
	c2.1-0.2,4.2-0.5,6.3-0.7c2.9-0.3,5.8-0.6,8.7-1c6.6-0.7,13.4-1.5,20-2c4.9-0.3,9.9-0.5,14.8-0.7c3.5-0.1,7.1-0.3,10.5-0.4
	c1.9-0.1,3.8-0.2,5.6-0.4l1.6-0.2l9.4-0.8c4.4-0.4,9-0.8,13.6-1.2c2.2-0.2,4.5-0.5,6.6-0.8c3.1-0.4,6-0.8,8.9-1s5.9-0.3,8.8-0.3
	c-0.7,1.3-1.8,2.4-3.2,3c-4.1,1.8-6.7,6.1-8.2,9.4c-1.9,4.4-5.5,7.3-10.3,11l-0.2,0.1c-0.5,0.4-1.1,0.7-1.6,1
	c-0.3,0.2-0.7,0.4-1,0.6l-0.5,0.3c-10.3,7.8-22.3,12.1-33.8,15.5c-4.4,1.3-8.7,2.9-12.8,4.5c-3.4,1.3-6.6,2.5-9.8,3.5
	c-9,2.9-18.3,4.9-27.7,6c-5.8,0.6-11.6,1.3-17.3,2s-11.3,1.4-17,2c-10.2,1-21.4,2-35.1,3.2c-4.7,0.4-9.4,0.7-14.1,1
	c-7.6,0.5-15.5,1-23.3,1.8c-12.2,1.3-24.4,1.8-36.6,1.6c-3.7,0-7.4,0-11,0c-8.1,0-16.5,0.1-24.7-0.2c-3.1-0.1-6.2-0.2-9.3-0.2
	c-10.5-0.2-21.4-0.4-31.9-1.8c-4.3-0.5-8.7-0.8-13-0.7c-2.3,0-4.8-0.1-7.1-0.2c-2.1-0.1-4.2-0.4-6.5-0.7c-1.7-0.2-3.5-0.5-5.4-0.6
	c-2.9-0.2-5.9-0.4-8.8-0.6c-5-0.3-10.1-0.7-15.1-1.3s-9.7-1.4-14.8-2.4c-2.6-0.5-5.2-1-7.7-1.4h-0.1c-0.9-0.3-1.8-0.3-2.7-0.3
	c-6.8,0.2-13.5-1.5-20.8-3.6c-2-0.6-4-1.1-6-1.6c-5.4-1.2-10.6-2.9-15.7-5c-3.3-1.4-6.6-2.4-10.1-3.2l-2.6-0.7l-0.5-0.1
	c2.1-1.5,4.1-2.9,6.2-4.3l1.8-1.2C899.8,1101.2,905,1097.6,908.8,1092.3L908.8,1092.3z M796.4,1118.5c12.7-6.4,25.9-11.8,39.4-16.2
	c22.1-7.4,44.8-15.2,65.9-25.5l0.7,2.3c0.1,0.4,0.2,0.7,0.3,1c0.1,0.6,0.4,1.3,0.6,1.9l-0.4,0.3c-1.2,0.9-2.3,1.9-3.2,3.1l-0.1,0.2
	c-2.6,3.8-6.7,6.6-11,9.6l-1.7,1.2c-4.1,2.8-8.1,5.6-12.3,8.7l-6.5,4.6l4,4.7c2.2,2.7,5.1,4.6,8.4,5.7c1.5,0.5,3.1,0.9,4.7,1.1
	l2.4,0.6c2.8,0.6,5.5,1.4,8.1,2.5c5.7,2.4,11.6,4.3,17.6,5.7c1.9,0.5,3.9,1,5.8,1.5c7.9,2.2,15.7,4.2,24,4c0.2,0.1,0.5,0.1,0.9,0.2
	c2.5,0.4,4.9,0.9,7.4,1.3c5.1,1,10.3,1.9,15.5,2.5s10.5,1,15.6,1.3c2.9,0.2,5.8,0.4,8.6,0.6c1.6,0.1,3.2,0.3,4.9,0.6
	c2.3,0.3,4.8,0.6,7.3,0.8s5.1,0.2,7.5,0.2c3.9,0,7.8,0.2,11.7,0.6c11.1,1.4,22.3,1.7,33.2,1.9c3.1,0.1,6.1,0.1,9.1,0.2
	c8.4,0.3,16.9,0.3,25.2,0.2c3.6,0,7.3,0,10.9,0c12.7,0.3,25.3-0.3,37.9-1.6c7.5-0.8,15.3-1.3,22.8-1.8c4.7-0.3,9.5-0.6,14.3-1
	c13.8-1.1,25-2.1,35.3-3.2c5.8-0.6,11.6-1.3,17.3-2s11.3-1.4,17-2c10.2-1.1,20.2-3.3,30-6.4c3.5-1.2,7-2.5,10.4-3.7
	c4.1-1.6,8-3,12-4.2c12.4-3.8,25.5-8.4,37.2-17.1l0.5-0.3c1.1-0.6,2.1-1.2,3.1-2c4.7-3.6,10.6-8,13.7-15.4c0.5-1.4,1.4-2.7,2.5-3.7
	c5.9-2.7,8.3-7.3,10.2-11c0.3-0.6,0.6-1.2,1-1.9c2.1-3.8,1-6.7,0.2-8.1s-2.9-3.7-7.3-3.7c-4.2,0-9.8-0.1-15.2,0.3
	c-3.3,0.2-6.5,0.7-9.7,1.1c-2.2,0.3-4.2,0.6-6.2,0.8c-4.4,0.4-9,0.8-13.4,1.2c-3.2,0.3-6.3,0.5-9.5,0.8l-1.7,0.2
	c-1.7,0.2-3.3,0.3-5.1,0.4c-3.5,0.2-6.9,0.3-10.4,0.4c-5,0.2-10.1,0.4-15.2,0.7c-6.8,0.6-13.7,1.3-20.4,2.1l-8.6,1
	c-2.1,0.2-4.2,0.5-6.4,0.7c-6,0.7-11.6,1.4-17.2,1.6c-3.2,0.1-6.6,0-9.8,0c-3.6,0-7.2-0.1-10.9,0c-7.7,0.3-15.7,0.1-23.3,0
	c-4.4-0.1-9-0.2-13.4-0.2c-4.1,0-8.2,0.1-12.3,0.2l-6.1,0.1l-6.8,0.2c-9.3,0.3-18.9,0.5-28.4,0.3c-7-0.1-14.2-0.4-21.1-0.7
	c-6-0.3-12.1-0.6-18.3-0.7c-7.8-0.1-15.7,0.1-23.3,0.2h-2.2c27.8-4.2,54.3-10.2,82.8-10.6c28.8-0.4,57.4,1.3,86-2.4
	c28.9-3.7,57.1-12.8,86.5-12.2c27.4,0.5,52.7,2.4,79.7-3.1c28.8-5.8,55.4-4.9,84.6-5.3c18.6-0.3,35.3-6.6,52.7-12.1
	c-7.9,7.4-14.3,14-18.7,24.5c-6.3,14.8-18,22-28,33.7c-11.7,13.9-25.4,29-40.5,41.8c-5.9-3.2-12.4-4.1-18.6,0.4
	c-6.8,5-11.1,13.5-15.5,21.8c-16.3,7.4-33.3,13-50.8,16.8c-2.9-4-5.1-8.4-9.3-11.6c-18.5-14-37.6,6.2-48.7,20.1
	c-16.7,1.9-33.1,5.1-49.4,8.5c-2.1-1.4-4.9-2.3-9-2.3c-7.8,0-13.6,3.3-18.4,7.9c-3.3,0.6-6.5,1.3-9.8,1.8c-17.2,3-34.6,4.8-52.1,5.3
	c-6.6-6.9-13.8-12-22.7-9.3c-5.4,1.7-9.8,5.4-14.1,9.6c-7.5-0.1-15.1-0.2-22.7-0.3c-12.1-0.2-24.2,0-36.3,0.2
	c-2.6-3.5-5.7-6.7-9.3-9.2c-10.2-6.9-21.9-7.1-33.1-3c-6.9,2.5-13.2,6.5-18.5,11.6c-3.7-0.2-7.5-0.5-11.2-0.9
	c-24.1-2.4-50.2-2.8-74.3-8.6c-3.4-5.3-7.5-10.1-13.9-12.8s-13.2-2.2-19.6-0.1c-11.5-5.4-23.3-10.5-34.1-17
	c-13.3-8.1-25.2-17.6-39.8-23.5c-3-1.3-5.2,0.9-5.5,3.5c-3.1-2.9-7.1-4.2-12.3-2.8C785.1,1124.9,790.5,1121.3,796.4,1118.5
	L796.4,1118.5z M1385.9,1158.3c-0.6,0.8-1.3,1.5-2,2.2c-2.8,2.6-7.3,8.1-10.6,9.4c-3.7,0-7.3,0.1-11.1,0.3
	c-5.3,2.2-9.4,1.9-12.4-0.8C1362,1166.5,1374.1,1162.8,1385.9,1158.3L1385.9,1158.3z M1335.2,1163c-11.8,2.3-23.8,4-35.6,5.3
	c8.7-10,20.2-19.1,31.8-9.2C1332.8,1160.1,1334.1,1161.5,1335.2,1163L1335.2,1163z M1278.3,1179.8c-8.7,12.1-19.5,25.4-31.6,11.2
	c-1.3-1.6-2.5-3.3-3.6-5c3.2-0.7,6.4-1.5,9.6-2.3C1261.2,1181.9,1269.7,1180.6,1278.3,1179.8L1278.3,1179.8z M1199.7,1195.2
	c-3.9,5.4-7.6,10.9-12.2,15c-13.2,11.6-22.5,1.4-32.1-10C1170.2,1199.3,1185,1197.7,1199.7,1195.2L1199.7,1195.2z M1129.9,1191.2
	h-2.9C1127.9,1191,1128.9,1190.9,1129.9,1191.2L1129.9,1191.2z M1100.3,1200.7c-2.4,2-5,3.7-7.8,4.9c-13,5.7-24.2,4.7-33.6-5
	c12-0.2,24-0.3,36,0L1100.3,1200.7z M1039.2,1191.2c-11.7,0.2-23.4,0.2-35.1-0.2C1015.3,1184.7,1028.6,1183.1,1039.2,1191.2
	L1039.2,1191.2z M981.3,1199.2c-1,1-2,1.9-3.1,2.9c-10.6,9.7-46.5,11.9-58.2,1.4c-3.3-3.1-6.1-6.7-8.3-10.7c22.2,4,46.1,4,67.3,6.2
	L981.3,1199.2z M859.7,1173.3l-2.2,1.3c-5.4,3.2-10.2,7.6-15.7,10.4c-17.8,9.1-32.1-1.9-37.2-19.2c-2.1-7.2-3.8-19.9-8.4-28.7
	c17.3,7.4,31.4,20.2,48.3,28.6C849.6,1168.1,854.6,1170.7,859.7,1173.3L859.7,1173.3z M768,1134c0.9-0.3,1.8-0.7,2.6-1.1
	c-5.6,4.6-8.7,11.8-10.6,18.6c-1.8,6.2-1.3,13.6-3.9,19.7c-4.7,10.7-8.5,19.5-21.4,17.9c-10.3-1.2-11.1-9.3-13.4-20.8
	c-1-4.8-2.4-9.5-3.3-14.1c-0.4-1.9-0.7-4.4-1-7.2C734.5,1144.7,751.6,1140.4,768,1134z M684.3,1149.9c-1.1,2-2.1,4-3.2,5.8
	c-5.2,8.7-16,26.8-27.5,27.6c-10.8,0.8-15.6-10.8-19.9-18.5c-3.7-6.5-7.7-11.3-12-14.5C642.6,1150.5,663.5,1150.9,684.3,1149.9
	L684.3,1149.9z M593,1150.5c-2.8,1.7-5.5,3.7-7.9,5.8c-13.5,11.6-24.5,13.5-35-1.8c-1.7-2.5-3.2-5-4.7-7.7
	C560.9,1150.2,576.9,1150.6,593,1150.5L593,1150.5z M511.2,1118.9c12.2-8.7,14.8,3.3,18.1,13.4c-7.8-2.9-15.5-6-23.8-7.5
	C507.1,1122.6,509,1120.6,511.2,1118.9L511.2,1118.9z M455.9,1133.2c11.4,1,22.8-0.3,34.2-0.2c-2.8,5.1-5.1,9.7-6.9,12.4
	c-3.5,5.1-7.2,13.8-12.3,17.3c-18,12.3-27.9-15.7-30.7-25.9c-0.5-1.9-1-4-1.6-6.2C444.4,1131.8,450.1,1132.7,455.9,1133.2
	L455.9,1133.2z M1639.8,1106.8c-4.8,6.7-13.4,11.3-20.3,15.9c-36.5,24-67.7,54.5-108.8,70.6c-49,19-99.1,42.7-151.8,48.4
	c-23.1,2.5-46.2,1.4-69.5,1.3c-9.2,0-18.4,0.7-27.5,2.1c-13.8,1.9-26.7,0-40.4,3.4c-23.7,5.7-46.5,1.8-70.4,4.5
	c-23.4,2.7-46.6,4.1-70,6c-25.3,2.2-51.2,1.1-76.4-0.1s-49-9.1-74-11.6c-25.5-2.6-51.2-0.8-76.9-1s-48.5-6-73.3-9.7
	c-53.6-7.9-109.3-2.5-163.5-4.1c-27.8-0.9-55.5-4.4-83.4-4.6c-28.9-0.2-57.4-1.2-86.3-3.7c-26.8-2.3-53.8-4.8-80.3-8.6
	c-13.8-1.9-24.8-5.3-37.8-9.7c-8.8-3-17-3.4-25.6-3.4c-3.7-10.4-11.2-19.9-18-28.3c-4.1-5.2-24.5-28.8-1.6-16.2
	c8.6,4.8,15.3,13.7,24.4,18.7c7.4,4,19.1,10.3,26.9,3.8c8-6.6,4.5-19.9,4.9-28.5c1.6-37.2,32.3,10.6,42.9,18.8
	c15.6,12.1,26.8,1.7,32.5-14.7c1.5-4.6,2.6-9.4,4.1-13.9c1-3.1,2-8.3,4.4-10.7c6.2-5.8,5.8,1.7,7.5,7.2
	c4.4,13.3,10.2,29.4,24.7,35.9c22,9.7,32.8-20.6,43.8-40.8c12,1.6,22.2,6.6,33.7,10.3c1.7,3.7,3.7,7.4,5.8,10.9
	c7.2,11.7,18.1,24.4,33.6,21.3c19.7-3.8,29.5-40.2,50.7-10.5c6.6,9.4,10.3,23.6,23.2,26.7c13.2,3.1,25.7-9.1,33-18.2
	c4.7-5.7,8.4-12.2,12.2-18.6c1.1-1.9,2.1-4.1,3.2-6.2c4.1-0.3,8.1-0.7,12.2-1.1c4.3,12.6,2.8,28.9,10.8,39.9
	c7.8,10.8,21.4,13.6,32.1,5.7c12.3-9.2,15.9-22.9,18.6-36.6c1.6-7.6,8.7-32.3,22.5-9.8c2.1,3.3,1.8,9.6,2.6,13.3
	c1.7,7.8,3.8,15.7,8,22.6c6.8,10.6,18.3,16.9,31,15c13.6-2.1,26.7-14,39.2-18.5c4.7,2.2,9.3,4.3,14,6.2c4.5,1.8,9.1,3.3,13.7,4.5
	c0.6,0.8,1.1,1.7,1.7,2.6c8.5,13.9,15.3,24.3,32.7,25.7c13,1.1,33.4,3.4,44.7-4.4c5.4-3.8,8.5-9.5,13-14.2c18.6,1.1,37.3,1,56,0.7
	c8.7,10.6,15.7,20.2,32.5,18.2c13.4-1.6,25.9-8.8,35.4-18.1c9.5,0.1,18.9,0,28.3-0.3c2,2.6,3.9,5.5,5.8,7.8
	c5.2,5.9,10.9,11.5,18.4,14.5c23.2,9.2,31.8-17.5,45.3-30.2c6-1.2,12.1-2.5,18.1-3.8c8.7,6.5,14.1,24.4,27.9,22.1
	c13.1-2.3,23.4-21.7,31-31.4l0.5-0.7c5.3-0.5,10.7-1,16.1-1.7c11.1-1.4,22.3-3.2,33.4-5.5c1.8,3.1,4.1,5.9,6.7,8.3
	c13.7,11.6,25.7,3.2,36.9-6.6c8.2-7,12.9-14.2,18.4-22.2c9.2-4.5,17.7-10.3,25.3-17.1c4.7,3.3,8.5,11.2,12.9,19.3
	c5.3,10.1,14.5,16.7,24.8,7.8c12.4-10.8,16.7-34.7,22.6-49.4c1.2-3.3,3.2-10.9,6.8-12.7c13.5-6.8,15.1,6.4,18.8,12.9
	c2.9,5.1,5.2,8.6,10.8,10.2c1.7,0.5,3.4,0,4.7-1.1c11.4-11.4,18.2-48.5,36.9-48.6c8.5-0.1,4.3,9.7,4.2,17
	c-0.2,5.7-0.1,10.7,2.4,15.8c0.9,1.5,2.4,2.3,4.1,2.4c15.1-0.1,27.4-10.2,41-15.3c3.8-1.4,8.2-3.4,12.2-3.5
	C1641.1,1088.2,1645.9,1098.4,1639.8,1106.8L1639.8,1106.8z"/>
<path class="st5" d="M3328.2,2500.6c-4.5-6.4-9.9-12.1-16.1-16.9c-12.1-37-50-67.7-91.2-73.6c-61.4-8.7-129.6,7-189.5,19
	c-117.5,23.2-231.2,61-348.4,85.5c-58.7,12.2-117.7,16.6-176.1,35.9c-26.8,8.9-52,21.4-77.2,33.6c-23.5,11.4-42.2,19.5-69.4,28.2
	c-95.5,30.7-197.8,39.1-291.3,76.4c-28.6,11.4-56.6,24.6-82,41.3c-25.1,16.5-40.9,35.1-65.7,47.2c1.1-0.7-9.2,3.4-9.9,3.7
	c-6.8,2.4-13.8,4.5-20.6,6.7c-11.9,3.7-23.8,7.3-35.3,12c-32.2,13.1-56.6,30.8-75.6,59.2c-5.2,8-7.6,17.4-7,26.9
	c-3.5,7.4-5.2,15.6-4.9,23.8c1.1,28,28.4,55.7,59.1,52.6c147.6-15.3,294.7-33.3,441.5-54.1c135.7-19.3,273.4-39.9,393-108.7
	c6.7-3.9,12.4-9.3,16.8-15.7c58.9-14.8,118.1-29.2,176.7-44.9c151.2-40.4,299-92.8,442-156.6
	C3329.6,2567.7,3350.7,2533.1,3328.2,2500.6z"/>
<path class="st8" d="M3748.7,2657.9c3.9-42.7-10.4-86.7-37.3-120.3c-64.7-80.6-169.4-97.7-268.2-71.4
	c-99.6,26.5-177.1,94.3-265.9,141.3c-34.4,18.3-71.1,32.8-108.8,45.5l-3.8,1.1c-13.7,4.3-27.4,8.8-41.1,13.1
	c-4.2,1.3-8.5,2.5-12.7,3.8c-6,1.6-12.1,2.9-17.9,4.6c-6.4,1.9-12.7,3.9-19.1,6.1c-24.9,7-49.7,14-74.1,21.3
	c-197,58.8-389.6,131.4-589.7,181c-96.2,23.8-189.2,41.2-288.3,48.1c-1.2,0-2.4,0.1-3.6,0.3c-1.8-0.7-3.7-1.4-5.6-1.9
	c-42.7-13.4-96.7-13.3-139.8,3.8c-1.1-0.1-2.3,0-3.4-0.1c-47.8-2.3-98.7-5.8-140.2,20.8c-37.5,11.3-70.5,33.2-88.8,68.8
	c-22.9,44.6-15.3,97.9,20.8,131.7c6.1,16.4,16.3,30.8,29.3,43.9c8.8,8.8,18.8,16.4,28.4,24.2c6,4.8,12.1,9.9,18.8,13.5
	c9.7,5,19.6,9.4,29.8,13.1c9.1,3.4,18.6,5.8,27.9,8.7c2,0.7,3.9,1.6,5.7,2.5c-2.9,0.7-4.2,1.5-5.2,1.3c-4.5-1.1-9-2.4-13.5-3.7
	c-0.4,0.6-0.7,1.2-1,1.9c2,0.9,3.9,2,6,2.7c4.7,1.6,9.4,3.6,14.2,4.6c9.3,1.9,18.5,3.8,27.9,5c6.3,0.9,12.8,0.7,19.2,0.9
	c8.6,0.3,17.1,0.4,25.6,0.3c3.9-0.1,7.5-1.1,11.3-1.5c6.6-0.6,13.3-0.8,19.9-1.5c22.9-2.6,46-5.4,68.8-8.5
	c8.7-1.1,16.7-5.9,19.5-13.4c3-7.8,7.6-15.2,9.4-23.4c27.8-17.6,49.9-43.7,58.4-74.7c3.6-12.7,4.3-26.2,2.1-39.2
	c1.5-1.8,3-3.6,4.6-5.3c3.8,0.4,7.6,0.6,11.4,0.7c46.9,1.3,95.7-13.1,141.7-21.5c53.6-9.7,107-19.7,160.6-29.4
	c103.6-19,206.6-39.8,307.3-70.2c193.1-58.2,378.6-140,578.3-176.4c13.5-2.4,37.5-3.9,50.8-6.9c3.3,5.1,6.3,10.4,9.2,15.9
	c19.5,37.2,43.1,70,86.9,81.6c1.4,2.5,2.9,5,4.6,7.5c1.4,1.9,3.6,3.2,5.1,4.7c2.9-1.4,5.5-3.9,7.1-3.4c5.2,1.4,9-1,13.4-2.8
	c1.6-0.7,3.3-1.3,5-2c39.7-1.1,79-20,110.6-41.3c41.2-27.8,82.4-57.5,120.7-89C3718.1,2744,3744.3,2704.9,3748.7,2657.9z
	 M1825.1,3267.3c-2.5-0.7-4.8-1.1-7.2-1.6c3-2.5,5.5-2.4,7.6-0.3L1825.1,3267.3z"/>
<path class="st5" d="M3479.5,3189.4c0.3-1.2,0.8-2.4,1.3-3.6c21.6-54.8,1-108.9-21.3-161.1c-4.2-11.1-8.9-22-14-32.7
	c-3.4-8.2-6.6-16.3-9.5-24.4c-12.9-35.8-24.2-72.4-33.6-109.3c-9.7-37.7-17.6-73.8-57.5-92.7c-34.8-16.5-75.3-9.9-110.7,1.1
	c-38.7,11.9-77.3,24.2-115.9,36.4c-140.7,44.2-281.4,88.3-422.1,132.4c-4.3,1.9-8.5,3.8-12.8,5.7c-19.1,8.9-37.9,18.1-56.7,27.5
	c-26.9,13.6-53.1,28.7-81.2,40.3c-10,4.1-20.3,7.5-30.8,10c-16.5,4-33.6,7.7-50.5,9.4c-12.1,1.2-24.6,0.9-36.8,1.4
	c-9.2,0.4-18.8,0.1-28.2,0.8c-8.2,2.3-16.4,5-24.6,7.2c-12,3.1-24.1,5.5-36.4,7.1c-12.2,1.7-25,0-37.1-1.2
	c-33.3,5.7-68.1,9.2-101.6,15.7c-26.1,5.1-51.4,13.3-74.4,25.5c-15.6-1.2-32.1,2.6-45.1,10.6c-14.4,8.9-27.6,25.7-30.9,42.2
	c-27.4,45.6-54.9,91.2-82.3,136.8c-14.4,23.9-28.8,47.9-43.2,71.8c-16.2,27-31.5,53.8-29.5,86.2c3.4,60.1,59.5,98.9,113,117.9
	c50.1,17.6,103.8,22.7,156.3,14.9c27.1-4.1,50.7-13.3,76.9-19.8c7.6-1.8,14.2,0.6,26.5,1.9c17,1.8,34.1,2.8,51.2,2.9
	c56.7-0.2,113.7-7.6,170.3-12.2c115.5-9.6,231.4-18.6,345.9-37.2c129.8-21,256-54.4,377.7-102.9c6.6-2.6,12.7-6.2,18.2-10.5
	c21.3-4.3,42.3-9.6,62.5-17.3c19.8-7.9,38.9-17.5,57.1-28.8c9.6-2.9,18.4-7.9,25.7-14.6l18.9-16.9c25.6-20.2,49.7-42.7,73.3-65.4
	C3482.7,3230,3486.1,3208,3479.5,3189.4z"/>
<path class="st9" d="M3421.8,2589.7c-1.3-0.3-2.6-0.3-3.9,0.1c-6.4,0.5-12.5,2.7-17.8,6.3c-42,27.6-97.7,19.4-145.9,25.5
	c-28.1,3.6-55.3,10-80,23.9c-12,6.8-21.8,16.4-32.8,24.6c-11.8,8.6-22.6,9.5-37.3,9.7c-31,0.5-59.6,1.1-87.7,15.2
	c-22.2,11.2-40.6,28.5-58.8,44.8c-16.3,14.5-32.4,28-55.6,28.9c-31.9,1.5-61.3-3.2-92.4,6.1c-51.8,15.4-89.8,56-140.3,72.8
	c-25,8.4-51.7,7.6-77.6,11.4c-34.2,4.9-58.8,16.5-85.7,36.9c-19.3,14.7-40.7,11.2-63.7,7.8c-32-4.7-63.2-8.2-95,0.2
	c-28.9,7.6-55,23.9-80.1,39.1c-20.8,12.5-42.5,25.6-67.6,27.8c-30.1,2.5-45.8-26.4-74-32.4c-34.8-7.3-74.6,10.4-104.1,27
	c-28.4,16.1-48.8,38.5-72,60.4c-2.9,2.8-11.8,7.2-10.4,8.8c-4.2-2.4-5.7-12.5-5.2-16c3.2-19.1-7.2-38.5-27.9-43.1
	c-18.6-4.1-41.7,7.5-44.9,26.7c-9.6,57.3,38.4,124,104.9,98.5c30-11.5,46-38.3,69.7-57.5c11.4-9.1,23.8-16.8,37-23
	c8.4-4,27.6-13.5,35.5-12.1c7.1,1.3,21.4,15.9,29.1,20.5c14.7,8.5,31,12.6,48,13.7c1.9,0.1,3.8,0.2,5.6,0.3
	c5.6,2.1,11.5,3.4,17.4,3.7c11.2,0.7,22.6,0.8,33.3-2.6c7.9-2.5,16.6-3.8,23.4-9.6c7.3-5.9,14.8-11.4,22.6-16.6
	c3.3-2.2,6.4-4.8,9.1-7.8c18.2-10.8,35.6-22.8,55-31.2c20.2-8.7,39.4-8.7,59.4-6.5c0.8,0.7,1.6,1.3,2.4,2
	c5.4,4.7,10.7,9.7,16.4,14.1c2.4,1.6,5.1,2.7,8,3c7,1.1,14.1,2,21.2,2.8c2.9,0.4,5.8,0.2,8.6-0.4c10.4-3.2,20.8-6.8,31.2-10.1
	c6.7-2.1,12.7-6,17.4-11.3c5-1.6,9.9-3.6,14.6-6c12.8-6.5,22.7-16.7,34.4-24.6c11.1-7.5,24.8-10.4,38.1-11.9
	c30.5-3.6,61.8-4.1,91.1-14.4c27.9-9.9,52.9-25.4,77.6-40.9c21.1-13.3,43.5-28.5,68.9-33.4c33.1-6.4,66.6,4,99.8-6.1
	c27.1-8.3,49.1-26.1,69.7-44.5c15.7-13.9,32.3-32.3,54-37.1c16.8-3.8,35-1.2,52.1-2.1c19.6-1.1,38.3-5.4,55.4-14.7
	c14.5-7.9,25.5-20.6,39.8-29.1c12.3-7.4,26.5-11.3,40.8-13.7c31.5-5.3,63.5-5.4,94.8-8.5c6.5,3.1,13.5,5.1,20.7,6.1
	c4.5,0.5,8.9,0.7,13.5,1c3,0.2,6.1,0.8,9,0.2c9.6-1.8,16.8-8.2,24.5-13.4c2.3-1.4,4.1-3.7,5.9-5.9c3-3.6,5.7-7.3,8.8-10.7
	c3.5-1.9,6.9-3.9,10.3-6.2C3472.5,2635.4,3452.1,2591.3,3421.8,2589.7z"/>
<path class="st1" d="M3720,2579.5c-0.5-21.2-5.8-48.7-17.2-67.1c-15.5-25.5-39.6-20.7-65.4-28.6c-14-4.2-26.7-10.1-41.4-12.2
	c-15.9-2.4-29.1-1.1-44.8,0.2c-7.4,0.7-14.8-0.4-22.2,0.3c-10.4,1-20.4,4-30.6,6.1c-20.6,4.3-41.6,8.1-62.5,11.9
	c-9.5,1.7-19.6,2.4-28.6,5.4c-6.5,2.2-9.8,5.8-15.1,9.6c-16.3,11.5-38.9,17.6-59,21.7c-1.8-15.2-9.8-33.3-16.2-44.5
	c-11.1-19.2-27-35-46.3-46c-19.7-11-45.9-10.2-67.8-11.2c-28.2-1.2-57.8,8.1-85.1,13.4c-64.1,12.1-128.4,22.6-192.4,35.2
	c-29.6,5.8-56.3,12.3-83.8,24.3c-29.7,13-63.5,18.4-95.2,25.2c-30.9,6.6-61.5,14.3-92.4,20.4c-13.4,2.7-26.9,6.2-40.5,7.7
	c-17.3,1.9-35.2,0.6-52.8,1.4c-30.8,1.6-58.5,11.4-87.1,22c-12.8,4.7-25.8,8.5-38.6,13c-14.6,4.9-27.6,13.3-42,19.1
	c-22.1,8.9-43.7,14.8-66.3,19.6c-0.9-1.6-2.7-2.5-4.5-2.1c-25.9,4.4-49.7,11.1-75,18c-25.7,6.8-50.9,14.6-74.9,26
	c-11.9,5.5-23.5,8.7-36,12.2c-16.9,4.8-31.2,12.9-48.9,16.3c-12.9,2.5-25.7,5.6-37.6,10.8c-12.6,5.5-22.8,15.2-35.8,19.6
	c-13.5,4.6-23.8,6.1-36.7,13.2c-12.5,7-25.4,12.6-38.6,18.6c-26.4,12-51.5,27.9-76.2,42.8c-37.2,22.6-78,48.5-82.7,94.1
	c-1.5,14.8-2.9,34.2,12.3,43c3.7,2.1,7.8,2.9,11.8,4.1c8.7,2.2,15.8,5.5,24,8.8c11.1,4.5,23.2,5.7,35.1,5.9
	c58.9,0.8,119.7-4.2,177.5-15.6c60.5-11.8,121.7-22.8,181.5-37.5c63-15.5,127.6-22.8,189.9-40.8c28.5-8.3,58.9-8.9,87.1-17.4
	c13.2-3.9,25.6-11.1,38.5-15.8c13.7-5,27.6-9.2,41.2-14.2c14.9-5.5,30-6.9,45.3-10.7s29.8-9.3,44.8-14.1c26.1-8,52.8-12.4,78.5-22
	c28.9-10.9,55.1-22.2,85.7-28c14.3-2.8,28-8.2,42.1-11.4c14.6-3.3,29.7-4.9,44.4-7.5c25.4-4.2,50-10.2,72-23.3
	c24.5-14.7,52.2-20.6,78.8-31.1c28.7-11.2,57.6-24.9,84.8-38.7c9.7-4.8,19.1-10.3,28-16.5c9.9-7,15.9-17.4,27.2-22
	c27.1-10.9,54.7-20.1,82.4-29.3c13.9-4.5,37.7-7,40.2-24.1c0.1-0.7,0.1-1.5,0.2-2.3c24.2-5,47.4-14.1,68.5-27.1
	c14.1-8.6,32.7-9.5,49-12.6c17.4-3.4,35-6.4,52.2-10c27.1-5.8,58.8-9.8,86.7-6.6c15.4,1.9,28,6.9,42.3,11.7
	c13.5,4.4,28.2,3.3,41.5,7.7c28.1,9.3,31.5,43.8,35.7,67.9c4.7,27.5-6.7,58.5-17.9,83.8c-5.4,12.3-8.4,25.2-14.8,37.1
	c-7.7,14.5-15.9,29.6-25.3,43.3c-15.8,23-35.7,44.6-53.1,66.5c-23.8,29.9-50,62.1-83.9,81.7c-16.4,9.4-32.4,20.3-51.4,24.2
	c-14.9,3.1-28.9,7.6-43.4,11.3c-2.1-13.2-4.5-26.3-10-38.6c-7.6-16.8-19.2-33.2-29.9-48.5c-9.6-13.5-19.5-32.5-32.8-43.1
	c-5.1-4-11.6-5-16.8-8.6c-5.7-4-7.8-11.1-13.2-15.3c-11-8.6-27.3-5.3-40-3.4c-37.4,5.7-72.2,18-108.1,29.4
	c-18.1,5.7-36.4,8.1-54.2,14.6c-22.3,8.2-44.8,16.4-66.4,25.8c-39.7,17.2-78,34.1-121,42.7c-40.1,8.1-81.4,10.9-118.6,28.9
	c-16.9,8.2-33.7,16.4-50.4,24.6c-21.2,10.4-42.9,11.8-65.1,18.6c-34.8,10.5-68.5,32.5-98.6,51.9c-7.2,4.7-13.4,10.8-20.6,15.5
	c-10.1,6.6-20.8,7.7-32.5,9.7c-21.1,3.8-42.3,8.1-63.3,12c-44.8,8.4-89.9,19.4-135.1,25.4c-40.1,5.4-82.8,4.9-123.1,5
	c-18.2,0.1-35.9,4.5-53.7,7.8c-17.7,3.3-36.6,4.6-53.3,11.3c-14.4,5.9-24.4,16.9-36.4,26c-14.6,11-15.9,23.4-24.9,38.1
	c-9.2,15.2-25.1,26.8-35.2,41.7c-9.1,13.6-16.2,30.1-22.1,45.1c-5.9,14.7-8.3,27.6-29.2,28.8c-8.1,0.4-16.3-1.4-24.5-2
	c-22-1.6-44.3,1.9-66.1,2.6c-18.1,0.5-36.2,2.1-54.2,1.8c-23.7-0.5-38.2-11-57.3-22.4c-31.7-18.9-65.5-38-89.4-66.4
	c-11.2-13.2-12.7-36.8-15.7-53.5c-3.7-19.9-0.6-35.8,8.6-53.8c4.9-9.5,11.9-16.9,10.7-27.6c-0.7-6-3.2-10.3,0.3-16.3
	c4.3-7.5,13.7-11.8,19.1-18.6c10.6-13,20.7-33.8,38.2-39.9c8.8-3,20.8-3.4,30.1-5.1c10.8-2,21.7-4.1,32.6-6.1c5.8-1,4-9.4-1.7-8.3
	c-19.8,3.7-40.1,6.6-59.8,10.8c-15,3.2-22.9,13.6-32.4,24.6c-4.2,4.9-7.4,9.8-11.2,15.1c-4.9,7-11.5,11.5-17.3,17.7
	c-7,7.1-9.6,12.8-7.9,22c2.7,14-7.4,25.5-13,38.2c-6,13.2-7.6,24.7-6.2,39.1c1.7,16.7,4.6,33.2,8.9,49.5c3.5,13.2,13.7,22.4,23.6,32
	c10.5,10.3,23.2,18.6,34.9,27.7c15.1,11.7,31.6,19.1,47.4,29.3c11.3,7.2,21.9,15.4,35.3,18.7c17.4,4,37.2,2.7,55,1.8
	c17.3-1,34.5-1.6,51.7-2.8c12.7-0.9,25-1.9,37.9-0.9c9.1,0.7,18.1,2.4,27.2,1.5c3.2-0.3,6.3-1,9.4-2.1
	c-10.6,20.2-21.8,40.3-30.5,61.3c-7.3,17.7-13.3,33.8-23.5,50.3c-7.1,11.8-15.9,25.6-19.3,38.8s1.4,29.2,5.1,41.8
	c4.4,15.8,11.4,19.9,22.9,31c9.5,9.2,14.7,16.6,28,21.1c9.7,3.3,18.7,5.6,27.8,10.5c7.6,3.9,14.5,8.7,22.9,11.2
	c6.1,1.7,12.3,1.9,18.6,2.8c8.7,1.2,16.6,4.2,25,5.9c18.1,3.7,37.4,5.5,55.6,8.4c38,6.1,78.5,5.3,116.7,3.7
	c6.4-0.3,12.4-1.9,18.6-3.2c10.1-2.4,16.6-0.4,26.4,0.4c7.5,0.7,13.8-1.1,21.3-1.8c12.4-1.1,25.7,0.6,38.1,1.5
	c37,2.6,73.8,2.1,110-5.5c17.9-3.8,35.8-8.7,54-11.9c22.2-3.8,42.9-2.1,65.1,0.7c19.3,2.5,39.8,9,59.2,8.2
	c21.1-0.8,43.6-8,64.5-11.9c14.9-2.8,28.6-5.4,42.6-11c21.4-8.4,45.7-10.5,68.3-13.9c18.8-2.9,38.1-5.4,56.8-9.5
	c20.1-4.6,38.4-14.9,58.2-20.7c41.9-12.4,86.9-17.9,130-26c19.3-3.7,38.6-6.2,56.9-13.5c21.3-8.6,43.9-14,66.3-19.8
	c38.7-10.1,73.7-28.9,112.6-38.9c17.8-4.6,32.8-6.8,49-15.3s30-16.2,43.2-28.8c12.7-12,27.6-20.1,40.6-31.4
	c13.6-11.8,31.1-19.1,43.9-31.6c8.9-8.8,12.2-18.9,14.5-30.8c3.6-18.7,7-36.5,12.9-54.7c11.2-34.1,7.7-67.3,1.5-101.9
	c-3-16.7-5.5-33.6-11.5-49.6c-6.8-18.4-20.8-30.7-29.9-47.6c-9.3-17.4-15.8-36.1-19.2-55.5c-0.4-2.1-0.7-4.1-1-6.2
	c13.6-3.6,26.6-8.3,40.8-10.8c18.4-3.3,32.4-11.9,48.2-20.7c30.3-16.9,53.3-39.3,75.6-64.9s41.3-53.7,63.7-79
	c20.4-23.2,35.1-52.9,45.1-81.6C3704.2,2638.2,3720.6,2609.4,3720,2579.5z M3297,2551.9c-13.8,4.5-27.4,9.1-41.2,13.6
	c-12.1,4-24.2,8-36,12.9c-7.3,3.1-17.7,5.6-23.9,10.6c-9.2,7.2-14.3,16.2-25,22.9c-11.4,7.1-23.7,13-36,18.5
	c-25.6,11.7-50.7,24.4-77,34.1c-22.1,8.1-46.1,12.8-66.1,25.1c-25.2,15.7-52.9,21.7-82.2,26.2c-26.5,4.1-51.6,12.4-77.8,17.4
	c-24.6,4.6-48.5,12-71.4,22c-26.1,11.6-53.1,17.5-80.9,24.5c-26.9,6.8-52.1,16.7-79.5,21.8c-23.4,4.3-46.9,14.2-69.2,22.4
	c-14.3,5.3-27.3,12.8-42.4,16.2c-13.9,3-28,4.8-42.1,7.2c-28.9,4.9-56.5,14.6-85.1,20.8c-28.9,6.3-58.4,10.7-87.4,16
	s-57.5,13.4-86.4,19.6c-55.6,12-111.9,23.6-167.9,33.2c-29.5,5.2-59.4,8.4-89.4,9.6c-26.6,0.8-55.1,4.7-81.5,1.3
	c-13.6-1.8-24.6-9.2-37.7-12.5c-20-5-23.5-16.1-22.4-33.8c1.5-25.2,13.9-45.4,33.4-61.7c41.3-34.4,93.1-59.7,141.9-82.6
	c11.9-5.5,22.6-13.8,35.2-17.7s22.1-5.2,33.4-12.3c12.7-8,23.6-14,38.4-18.2c11.6-3.2,23.8-4.4,35.3-7.8c14.5-4.2,27-11.2,41.8-14.8
	c11.2-2.7,20.9-7.3,31.2-12.1c23.7-11,50.1-19.1,75.7-25.2c10.6-2.5,19.9-5.9,30.2-9.2c5.6-1.7,11.3-3.1,17.1-4
	c0.3,2.3,2.4,3.9,4.6,3.6c0.2,0,0.3-0.1,0.5-0.1c24.9-4.7,49.4-8.2,72.9-17.7c26.2-10.5,50.9-23,77.8-31.9
	c27.9-9.3,55-22.1,84.4-26.5c28.5-4.3,57.4,0,85.8-5.3s56.3-11.7,84.4-18.1c27.9-6.3,57.6-10.1,84.9-18.6
	c12.1-3.8,24.8-6.4,36.6-10.4c12-4.1,22.8-10.9,34.7-15.3c29.3-10.6,62.6-14.4,93.2-20c59.4-10.9,118.9-21.3,178.2-32.5
	c28.3-5.4,54-10.1,82.9-8.2c13.8,0.8,29,1.6,41.6,7.9c11.5,5.8,22.2,14.9,30.7,24.2c14.9,16,27.8,40.9,29.1,63
	c-0.7,1.3-0.7,2.9,0,4.2C3323,2546.9,3308.7,2548.2,3297,2551.9z M3428,2977.4c7.6,16.2,19.1,27.8,28,43
	c10.8,18.3,13.8,39.9,17.6,60.3c3.1,16.6,5.3,33.4,6.5,50.3c1.5,23.3-5.7,43.2-12.6,65.1c-4.3,13.6-5.2,27.8-8,41.7
	c-5,24.8-22.2,33-42.1,46.3c-6.5,4.3-11.2,9.6-17.2,14.3c-6.9,5.5-15.4,8.5-22.5,13.9c-16.4,13-28,27.4-47.6,37.1
	c-17.5,8.8-32.8,13-51.6,17.6c-19.1,4.8-37.8,11.1-55.9,18.9c-19.9,8.4-38.7,15.3-59.7,20.7c-18.6,4.9-38.5,8.6-56.5,15.3
	c-41.5,15.6-85.6,21.6-129.3,29.8c-20.4,3.9-41.1,7-61.1,12.3c-18,5-34.8,12.4-52.3,19s-37.6,7.9-56,11
	c-21.8,3.8-43.8,5.9-65.1,11.2c-15.4,3.8-29.4,10.3-45,13.3c-21.8,4-43.6,9.3-65.5,12.9c-21.1,3.5-41.8-3-62.7-5.9
	c-18.8-2.6-37.8-5.6-57-3.9c-18.5,1.6-36.7,6.4-54.8,10.5c-8.4,2-17,3.9-25.5,5.5c-11.2,2.1-22.1,1-33.3,2.4
	c-19.4,2.3-36.8,3.6-56.4,1.8c-19.1-1.7-38.3-3.3-57.3-1.1c-8.5,1-15.4-2.1-23.6-2.4c-7.3-0.3-14.3,2.5-21.2,3.9
	c-17.2,3.5-40.3,4.2-57.7,3c-19.2-1.5-38.6-1.5-57.7-3.2c-19-1.7-38.4-5.9-57.5-8.3c-15.2-2-30.5-6.1-45.8-8.6
	c-18.4-2.9-34.2-16.2-52.2-21.6c-15.9-4.8-26.2-16.5-37.9-27.3c-12.6-11.6-20-37.6-17.9-54.7c0.9-8.2,7.7-16,11.1-23.5
	c4.2-8.9,9-16.9,14.1-25.2c9.1-15.1,13.2-32.2,20.3-48c11.1-24.8,25-48.4,36.9-72.7c0.6-1.1,1.1-2.2,1.6-3.4
	c3.3-7,6.5-14.1,9.4-21.3c0.5-1.1,0.4-2.3-0.2-3.4c2.6-5.4,5.4-10.7,7.9-16c8.8-18.8,21.5-33.5,35.9-48.9
	c11.4-12.3,13-30.5,24.9-41.6c12.5-11.9,29.7-26.2,46.3-31.3c19.7-6.4,41.7-8.2,62.1-12c38.2-7.3,78.1-4.4,117-7.1
	c19.2-1.4,37.9-1.5,56.8-5.1c22.6-4.2,45.2-8.7,67.8-12.9c41.3-7.7,82.5-15.9,124-23.2c16-2.9,25.9-6.9,38.2-16.7
	c16.8-13.3,36.6-23.3,55.1-34.4c15.1-9.1,30.7-17.6,47.6-23.4c20-6.9,41.3-7.1,60.9-15.6c38.3-16.6,72.5-38.4,114.3-46.6
	c40.2-7.9,80-14.3,119.4-26.1c39.2-11.7,76.1-32.7,114.4-47c36.3-13.7,74.8-19.4,111.1-32.5c20.9-7.6,39.8-13.6,62-17.1
	c8.3-1.4,18.2-4.2,26.6-2.9c14.9,2.3,15.9,12.7,26,19.4c6,3.9,13.4,5.6,18.9,10.4c7.2,6.4,11.7,16.6,17.5,24.3
	c13.2,17.3,25.9,35.4,36.4,54.6c7.6,13.7,11.4,28.7,14.4,44l-0.9,0.2c-5.5,1.2-3.9,9.7,1.7,8.3l0.8-0.2
	C3417.1,2942.5,3420.1,2960.6,3428,2977.4z M1882.2,3081.9c14.5,18.5,39.4,25.1,62.7,23.4c27.2-2,51.8-17.5,68.2-38.1
	c22.7-28.4,47.7-59,86.5-65.8c20.8-3.5,30.9,4.9,43.3,19.6c7.6,9.1,18.2,18.2,30.5,21.1c13.5,3.1,29.6-2.9,42.6-5.4
	c18.6-3.5,37.8-6.1,56.2-10.7c32.3-8.2,42.6-34,66-53.5c16.1-13.5,41.2-21,60.9-10.8c11.3,5.9,20.8,15.5,33.4,19.1
	c12,3.5,27.5,4.2,40,5c14.9,1,32-2.7,45.9-7c32-9.8,42.4-46.6,65.6-67c22.8-20.1,41.5-10.3,66.7-3.1c15.5,4.4,32.2,4.7,48.2,3.8
	c10.3-0.7,19.5-3.3,27.4-9.8c4.3-3.5,7.9-7.8,11.4-11.9c7.4-8.5,14.3-12.8,22.9-19.6c13.6-10.5,25-23.6,38.4-34.6
	c5.6-4.6,11-9.4,16.6-13.8c10.3-8.2,18.1-8.2,30.4-10.6c9-1.8,20.1-6.6,29.5-5.1c7.4,1.2,11.5,6.4,16.2,11.2
	c7,7.1,13.4,12.2,24.2,12.2c12.3,0,28.3-4.2,40.3-6.9c11.5-2.6,19.1-9.2,26.3-17.9c9-10.5,13-21.5,19.5-33.3
	c10.4-18.7,35.5-31.5,56.2-35.8c13.7-2.8,24.7-3.9,37.8,2.2c3.6,1.6,6.9,3.5,11,4.5c14.2,3.7,33.5,1.6,47.4-2.3
	c11-3,17.4-8.2,24.2-16.8c11.6-14.9,26.9-26,43.2-36.2c17-10.6,37.9-18,58.5-15.8c19.4,2.1,37,11.5,56.2,14.8
	c9.3,1.6,18.8,1.1,28.2,1.8c8.9,0.8,17.6,3.3,26.4,4.1c12.2,1,24.6-0.4,33.6-9.1c8.3-8.3,12.3-20.3,16.3-30.9
	c5.2-13.7,11.5-27.9,12.2-42.6c0.9-21.8-16.1-39.2-39.9-30.5c-9.4,3.4-12.1,9.3-15,18.1c-1.9,5.7-3.4,11.6-6.2,16.9
	c-7.5,14.4-18.9,17.9-34.4,19.6c-17.7,2-35.2-1.2-52.9-0.3c-18.8,1-35.1,5.1-54.2,3c-36.4-4.4-57.9,14.6-80.7,39.4
	c-4.1,4.3-7.8,8.9-11.9,13.3c-13.1,14.7-23.6,10.5-38.8,5.8c-13.5-4.1-27.7-5.7-41.8-4.8c-29.2,1.9-68.8,5-90.6,26
	c-8.8,8.5-15,19-23.1,28.1c-13.2,15-31.7,21.3-51,26.2c-17.3,4.3-37,7.9-54.7,3.6c-13.4-3.2-20.5-8.8-34.8-6
	c-13,2.5-21.3,8-30.2,17.4c-15.4,16.3-33.8,25.2-53.1,36.7c-11.3,6.4-21.3,14.9-29.5,25c-7.6,9.2-15,11.8-26.4,14.9
	c-8.9,2.4-17.8,7.2-26.8,8.3c-16.8,2.1-28.4-9.4-44.1-9.1c-17.6,0.5-39.1,2.2-56.1,6.9c-31.8,8.8-54.4,33.9-73.6,58.1
	c-16.9,21.1-42.5,19.2-63.4,4.8c-5.2-3.6-8.7-5.8-14.8-7.6c-8.8-2.4-17.4-5.3-25.9-8.7c-27.6-11.2-50.5,0.9-71.8,17.6
	c-14.2,11.1-28.6,21.9-43.3,32.4c-17.1,12.3-43.9,16.1-64.6,19.9c-20.2,3.6-31.1,4.3-48.9-7.6c-13.8-9.3-27-17.4-42.8-23.3
	c-14.2-5.3-24.6-3.6-39.2-0.3c-17.6,3.9-29.5,6.6-44,17.2c-13.1,9.6-25.3,20.4-36.3,32.3c-8.3,9.2-27.8,34.1-42.3,31.3
	c0-0.1,0-0.1,0-0.2c-5.6-23-20.8-49.3-45.6-58c-22.2-7.8-33.7,9.7-36,28.7c-1.5,13.6,2.9,26,5.4,39.2
	C1872.5,3058.2,1873.4,3070.7,1882.2,3081.9z M1876.6,2992.8c8.1-14.7,21.5-10,32.3-1.9c15.1,11.4,24,27.2,28.4,44.9
	c0.2,0.8,0.6,1.5,1.1,2.1c-0.2,1.9,0.9,3.7,2.7,4.5c22.7,9.9,44.3-22.6,57.4-36.5c11.1-11.9,23.6-22,36.9-31.3
	c13.5-9.5,44-17.9,61-14.7c16.4,3.1,31.6,12.7,44.9,21.8c10.2,6.8,20,14.9,33,15.6c12.1,0.7,25-3.2,36.9-5.4
	c16.2-2.9,34.8-7,49.4-13.9c28.1-13.4,47.4-43.2,76.3-54.9c12.1-4.8,25.6-4.9,37.8-0.3c5.9,2.4,10.7,5.6,17,7.2
	c7.8,2.1,14.4,2.4,21.5,7.1c4.6,3,8.4,6.5,13.6,8.7c27.1,11.4,48.7,5,65.7-16.7c10.6-13.6,22-26,36.2-36.4
	c18.2-13.3,37.1-18.1,59.7-19.8c7.5-0.7,15.2-2,22.8-2.2c9.9-0.3,15.4,3.8,24.4,6.2c12.6,3.6,23.2,2.7,35.5-1.4
	c12.3-3.9,27.9-5.6,38.1-14c4-3.3,6.9-7.4,10.3-11.4c8.1-9.9,16.4-15.4,27.5-21.9c13.1-7.6,28.4-13.9,40.1-23.6
	c13.6-11.2,20.6-25.8,40.4-28.4c13.6-1.8,25.5,6.9,39.3,8c15.1,1.2,30.5-1.1,45.1-4.4c24.7-5.8,46.2-14.5,62.2-33.9
	c8.1-9.8,14.8-21.1,25.4-28.8c15.8-11.4,38.2-12.5,57-15.4c19.6-2.9,37.9-4.4,57.2,0.8c11.3,3.1,22,10.4,33.9,6.6
	c10.9-3.5,18.2-15.3,25.2-23.1c13.3-14.8,30-34.8,50.4-40c16.5-4.1,32.4,2.1,49,1c18.2-1.1,35.2-5.3,53.7-4.2
	c21.6,1.1,52.9,3.7,68.3-14.2c7.5-8.9,8.4-20.1,13.5-30c7.5-14.1,22-16.4,31.4-4.4c9.1,11.5,4.8,25.2,0.4,38.1
	c-4.1,12-8.2,25-14.6,36.1c-13.4,23.9-37.2,13.7-59.3,11.8c-20.1-1.6-37.5-4.2-56.8-10.1c-13.9-4.4-27.7-8.1-42.5-6.7
	c-30.3,2.6-55.3,20.1-78.1,38c-10.3,8.1-16.4,22.1-27.6,28.4c-16,8.9-42.9,8.6-59.4,1.9c-11-4.5-17.9-7.1-30.1-5.8
	c-15.3,1.7-31.2,4.9-44.4,13c-10.5,6.2-23.3,15.2-30.3,25.2c-7.8,11.2-10.8,24-19.7,35c-11.9,14.6-24.3,15.8-42.1,19
	c-7.5,1.4-16.9,5.5-24.7,3.2c-7.2-2.2-10.9-8.8-15.9-13.6c-17.4-16.6-40.3-5.5-61.4-2.1c-13.6,2.2-17.8,7.1-27.9,15.8
	c-12.6,10.7-26,20.6-37.9,31.9c-9.9,9.3-22,16.6-31.2,26.5c-14.4,15.3-21.8,24-44.7,24.3c-18.1,0.3-33.6-1.9-50.6-7.6
	c-14.3-4.9-27.6-9.1-42.6-3.6c-28,10.1-41.5,40.1-58.6,61.1c-22.5,27.5-65.1,23.9-97.2,19.9c-16-2-26.8-13.6-40.5-20.4
	c-10.6-5.4-21.6-6.4-33.4-4.1c-25.7,5-41.1,20.7-57,39.6c-13,15.3-25.8,25.2-46.2,29.7c-17.8,4-35.9,6.6-53.8,10
	c-20.7,4-38.8,8.9-55.9-7.1c-8.4-7.9-13.4-18.9-23.8-25c-18-10.9-44.9-3.1-62.5,5c-13.2,6-22.2,15.9-31.7,26.2
	c-10.5,11.2-20.8,20.2-30.1,32.6c-20.8,27.6-57.3,44.2-92.3,33.5c-16.1-5-29-16.6-33.1-32.7c-3.9-15-8.8-34-8.6-49.4
	C1873.1,3005.4,1873.7,2998.1,1876.6,2992.8L1876.6,2992.8z M1733.7,3096.8l-4.4,0.8c5.7,4.1,12,7.3,18.8,9.3
	c5.5,1.6,2.6,9.7-2.9,8.1c-10.4-3-19-8.8-27.1-15.3l-5.2,1c-2.7,17.1-3.8,34-0.3,51.5c1,5.4-7.8,7.1-8.6,1.5
	c-3.5-17.8-2.7-33.7,0.1-51.3l-27.1,5.2c-5.6,1.1-7.3-7.3-1.7-8.3l30.1-5.7c0.2-1.4,0.4-2.8,0.6-4.2c-5.3-4.8-11-9.2-16.9-13.2
	c-4.7-3,0.3-10.3,5-7.1c4.9,3.3,9.5,6.8,13.9,10.7c0.2-0.7,0.4-1.4,0.6-2.1c2.8-9,8.6-17.1,6.7-27.1c-1.1-5.4,7.6-7,8.7-1.6
	c2.6,13.3-5.4,24.9-8.4,37.4c1.6,1.4,3.3,2.9,4.9,4.2l11.7-2.2c16.1-3,31.4-10.3,47.4-12.5c5.6-0.8,7.4,7.6,1.7,8.3
	C1765.4,3086.4,1749.6,3093.8,1733.7,3096.8L1733.7,3096.8z"/>
</svg>
