<svg xmlns="http://www.w3.org/2000/svg" viewBox="0 0 3629.13 1279.75"><title>croutons</title><path d="M3676.47,499.56c-25.49-40.36-57.15-65.26-96.78-76.12-33.61-9.22-69.54-10.51-109.88-4l-11.93,1.94c-48.67,7.87-98.88,16-146.3,42.3-3.26-6.34-6.31-12.45-9.31-18.44-9.32-18.64-17.36-34.73-27.55-50.14-34-51.14-97-74.86-156.79-59-35.59,9.36-66.35,26.61-91.43,51.27-34.61,34.12-79.55,79.75-120.19,130.2C2860.87,574,2806.67,638,2738.25,684.34,2722.47,695,2704,707.1,2684.58,715c-14.06,5.75-26.85,6.28-37,1.53-9.88-4.62-17.44-14.36-21.84-28.15-6.45-20.36-8.12-43.06-8.86-60.54-.72-18,0-36.54.77-54.5.36-8.89.74-18.08.93-27.19.65-31-7.57-54.35-26.66-75.72l-7.06-7.9-8.55,6.26c-2.72,2-5.7,3.8-8.84,5.72-7.68,4.68-15.61,9.51-20.65,17.59-12.7,20.22-22.89,41.93-32.75,62.93l-.43.92c-19.83,42.21-39.52,84.81-60.36,129.9l-14.34,31c-4.58-13.69-8.54-25.62-11.86-37.79-16.1-59.66-45.22-117.18-91.64-181-27.77-38.06-64.79-63.86-113.17-78.87l-7.58-2.35-10.51,13.05c-7.19,8.92-14,17.35-18.7,23.27l-4.21,5.28,2.48,6.28c3.72,9.44,7.28,18.52,10.75,27.33,10.4,26.48,20.22,51.49,30.2,75.9,26.66,65.35,35.58,137.15,26.51,213.43-2.19,18.7-12.39,38.17-21.77,54.93-4.51,8-8.83,12.68-16.45,12.51-.84-4.57-1.74-9.15-2.62-13.64-3.21-16.38-6.53-33.31-7.4-50-1.39-25.79-1-52.36-.63-78.06.15-10.8.32-22,.35-33,.22-70.42-9.83-132.18-30.72-188.78-20.75-56.25-65.43-88.19-125.8-89.93-3.73-.12-7.46-.1-11.06-.08-13.19.06-25.74.12-38.72-6.26q0-11.88.06-24.13c.07-21.54.14-43.82-.06-66-.38-53.23-.8-113.56-15-172.27a185.41,185.41,0,0,0-21-51.94c-8.22-13.45-20.72-21.37-34.31-21.73-14.39-.36-28.28,7.62-38.07,21.91a163.67,163.67,0,0,0-28.53,82.73c-1.83,27.27-5.07,55-8.2,81.91-6.29,53.88-12.79,109.59-8.59,165.77,1.59,20.65-8.1,34.78-28.78,42-7.11,2.46-14.47,4.86-21.58,7.18-16.93,5.53-34.45,11.26-51.25,18.54a423.68,423.68,0,0,0-63.34,34.34,35.2,35.2,0,0,0-15.58,24.54,29.62,29.62,0,0,0,7.36,24c9,10,23.62,13.73,35.4,16.7l.52.13c7.9,2,14.94-1.68,20.59-4.65,1.25-.66,2.43-1.28,3.48-1.75,9.2-4.24,18.51-8.6,27.51-12.82,20.53-9.62,41.76-19.57,62.81-28.52,3.26-1.36,8.21-1.47,14-1.58a821.29,821.29,0,0,1,4.69,166.08c-.62,8.73-6.62,20.24-17.84,34.2-20,24.76-41.51,50.81-65.66,73.18-33.43,31.09-70,62.55-117.65,75.69-23.54,6.47-45.79,4.06-62.65-6.81C1558,855,1547.27,837,1543.53,813.55c-7.09-44.22-5.77-76.52,4.27-104.73,13.16-36.93-2.46-64.77-15-87.13l-4.21-7.51-8.41,1.8c-30.28,6.48-47.24,22.8-53.38,51.38a515.63,515.63,0,0,1-20.62,71.56c-19.79,53.1-41.28,108.17-63.87,163.67-18.79,46.11-39,92-58.16,134.67-3.19,7.18-5.74,8.87-7,9.24-1.51.46-3.9,0-6.79-1.29,0-4.2,0-8.48-.08-12.92-.11-15.45-.22-31.42.19-47.53.24-10.83.89-22,1.52-32.74,1-16.35,2-33.25,1.58-50.09-.28-12.19-.35-24.67-.42-36.73-.33-56.45-.67-114.82-22.36-170.72-1.92-4.94-3.81-10.14-5.65-15.17-7.85-21.55-16-43.84-30.6-61.7-28.32-34.63-70.66-48.9-122.45-41.26-31.11,4.6-59.73,9.4-87.5,14.68-17.61,3.4-28.21,2.38-36.6-3.5-19.15-13.37-38.13-12.08-56.48-10.83-2.27.16-4.55.31-6.89.44-28.07,1.63-50.9,13.4-73,24.79-4.45,2.3-9.06,4.67-13.58,6.89C778.83,647.77,727,695,695,757.47c-8.61,16.79-19,34.82-31.68,55.1-.12.18-.26.37-.41.57,0-.64,0-1.28,0-1.92-.08-17.24-.14-32.14-2.59-47-2.75-16.88-7.68-33-12.44-48.54-1.91-6.24-3.72-12.13-5.33-17.92l-1.57-5.6L635.57,690c-14.13-5.55-25.84-6.8-35.81-3.85-11.14,3.3-19.74,11.73-25.55,25l-.12.27c-6.82,15.56-15.31,34.91-4.61,55,10.37,19.64,5.19,40.43.19,60.54-10.91,43.94-25.48,82.5-44.55,117.87-14.9,27.66-33.47,53.81-51.43,79.09-10.85,15.29-22.07,31.09-32.49,47.21-47.64,73.63-111.09,129.87-194,171.93-23.84,12.14-48,15.52-78.35,11-21.78-3.29-33.66-13.39-41-34.83-13.14-38.4-14.28-80.73-3.61-133.18,13.93-68.23,42.13-131.34,74.84-200.89,12.65-27,34.65-51.21,55.93-74.57l1.95-2.15c18.57-20.53,43.27-24.71,73.4-12.43a96.47,96.47,0,0,1,10.4,5.35c5.11,2.87,10.39,5.85,16.5,7.91,10.3,3.48,22.16,1.06,31.73-6.47,10.13-8,15.77-20.13,14.74-31.73-2-22.93-15-44.75-35.53-59.86-21.68-16-48-22.08-72.27-16.81a159.72,159.72,0,0,0-68.33,33.36c-17.2,14.18-32.78,32.38-47.64,55.66-58.14,90.9-98.36,195-119.54,309.23-9.7,51.69-9.89,94.12-.59,133.52,9.4,40.11,26.91,69.31,52,86.82,18.84,13.13,42.06,19.74,69.17,19.74q8.15,0,16.74-.79a292.44,292.44,0,0,0,30.26-4.47c51.14-9.94,98.43-37.72,140.57-82.56,71.63-76.13,161.83-179.56,223.92-304.64,1.26-2.48,2.26-5,3.23-7.52,2.29-5.86,3.61-8.87,5.6-10.14,13.79,66.63,3.25,134.78-6.09,195.23-2.91,19-4.43,40.7,14.45,58.48,9.08,8.53,22,14.28,32.92,14.66l1.16,0c17.54,0,31.93-12.61,35.2-31,3.49-19.18,6.7-39.79,6.48-60.63-.79-64.77,10.26-128.83,20.94-190.79,7.55-44,23.82-84.44,48.36-120.23,23.17-33.8,54.39-64.43,92.77-91,20.23-14,44.74-23.89,68.43-33.46,6.4-2.59,13-5.26,19.43-8,2.67-1.11,7.94-.68,13.51-.23l1.18.1c.53,6.74,1.14,13.39,1.74,19.88C955,710.54,958,743.52,948,777.14c-13.83,46.12-23.39,94.06-32.64,140.42-2.5,12.53-5.08,25.48-7.71,38.17C894.08,1021.39,889.4,1079,893.35,1132l.47,6.23,5.44,3.07c27.68,15.63,49,25.09,70,24,21.44-1.11,39.86-13.4,60.87-31.47,13.19-11.19,25.76-22.39,34.76-36.37l3.17-4.92c21.12-32.74,43-66.6,60.41-102.29,20.34-41.67,28.94-82.9,25.56-122.54-3.46-40.45-19.42-79.7-47.45-116.64-12.78-16.84-25.41-33.32-38.78-50.77l-9.68-12.63c26.71-31.35,63.63-31.63,102.57-31.93l4.78,0c21.92-.19,39.88,11.44,50.6,32.71l.86,1.69c8.19,16.09,16.66,32.74,20.12,49.32,10.7,51,22.1,118.6,15.21,189.08-3.3,34.14-4.52,68.91-5.69,102.54-.52,14.75-1,30-1.75,44.88,0,1-.11,2-.17,3a125.1,125.1,0,0,0-.22,15.92c1.83,29,18.66,50.58,48.62,62.41,26,10.36,44-8.44,56-20.88l2-2.12c8.34-8.55,15.72-19.84,21.33-32.66,13.1-29.9,26.75-62.74,42.95-103.37,10.17-25.49,20.3-51.47,30.09-76.6,8.86-22.72,18-46.15,27.17-69.25l2.86,5.61c7.19,14.15,14.64,28.78,23.53,42.55,35.52,55,87.51,73.87,150.39,54.52a215.83,215.83,0,0,0,24.74-10l3.77-1.7c36.54-16.45,69.76-41.51,101.56-76.6,20.86-23,39.35-39.9,57.54-52.54,2.52,4.08,2.51,8.56,2.5,15,0,1.55,0,3.16,0,4.77.43,18.27.82,36.88,1.21,54.87.76,36,1.55,73.15,2.69,109.65.37,14.19,2.3,26.83,5.76,37.61,6.25,19.21,23.85,29.25,41.81,23.89,10.85-3.2,26.47-15.86,27.26-29.3a804.63,804.63,0,0,0-.61-95c-3.47-50.79-8.15-104.1-13.94-158.46-4.68-43.5,9.6-81.45,24.18-112.83,25.43-54.78,48.77-109,55-169.84.58-5.75,3.9-24.6,22.12-26,23.48-1.9,48.05-3.12,67.69,4.34,20.11,7.64,34.05,24,43.87,51.55,14,39.25,23.62,83.74,27.77,128.65,2.7,29.11,1.64,59.46.61,88.81-.65,18.71-1.33,38.06-1.06,57.19.46,30.42,1.71,66.21,7.46,101,3.43,20.31,15.37,36.26,32.77,43.76,18,7.75,39.49,5.18,57.53-6.88,14.42-9.62,29.25-20.25,38.14-35,24.09-40.25,46-85,43.64-139.11-2.33-53.56-5.81-110.48-20.15-165.81-.34-1.28-.69-2.57-1-3.86-1.7-6.18-2.83-10.73-2.44-14.77,15.59,14.23,24.73,31.75,31.69,47.56,3.58,8.12,6.56,16.44,9.72,25.25,3.5,9.79,7.13,19.91,11.65,29.72,25.17,54.65,33,114.56,23.84,183.12a48.44,48.44,0,0,1-1.43,6,51.73,51.73,0,0,0-2.37,12.38c-1.06,26.28,20.64,54.35,43,55.62.69,0,1.37.07,2.05.07,17.74,0,33.73-14.07,42.11-37.26a31.42,31.42,0,0,0,1.42-5.32c.09-.45.18-.9.29-1.35q5.41-18.69,10.8-37.35c10.35-35.81,21.05-72.84,31.83-109.21,8.12-27.27,19.77-53.2,34.54-81.53,5.17,17.22,9.72,32.21,16,47a292.27,292.27,0,0,0,32.61,58c16.78,23,38.91,34.65,65,34.65a107,107,0,0,0,31.44-5.09c36.73-11.38,70.88-32,104.37-63.08,39-36.07,76.9-74.4,113.56-111.44,9.76-9.83,18.47-20.53,26.9-30.87,3.88-4.76,7.89-9.69,11.89-14.38,8.77-10.27,17.52-20.82,26-31,19.66-23.71,40-48.23,61.6-70.4S3076.72,438,3100,421.78c28.52-19.85,56.81-19.75,91.72.35,31.77,18.22,44.76,44.44,55,83-.89,1-1.74,2-2.59,3-3.72,4.41-7.23,8.57-10.74,10.61-75.87,43.52-123.57,113.42-169.7,181l-1,1.51c-23.08,33.77-29.5,74.19-18.57,116.88,5.64,22.1,18.18,38,35.3,44.84,16.69,6.66,36.06,3.9,54.55-7.76,37.92-23.95,70.37-51.42,96.44-81.63A350.89,350.89,0,0,0,3294.78,664c11.83-32.68,22.48-65,22.8-100.82.09-19.14,7.05-31.64,20.71-37.14,67.94-27.55,129.83-49.65,199.12-40.94,30.86,4,52.29,14.53,69.52,34.33,1.6,1.82,3.21,3.78,4.91,5.86,10,12.16,22.39,27.31,45.16,27.31h6.21l3.47-5.15C3681.71,525.13,3687.34,516.78,3676.47,499.56ZM1080.21,906c-14.11,62.5-36,107-69,140-13.63,13.71-28.67,27.19-46.61,34-6.72-4.28-8.52-10.17-7.3-21.68.57-5.35,1.09-10.79,1.6-16,1.68-17.54,3.42-35.68,7.27-52.58,15-65.29,31.37-131.56,47.2-195.65l6.67-27a33.9,33.9,0,0,1,2.84-7.07C1069.06,793.74,1092.44,852.08,1080.21,906Zm835.5-391.1c-2.06,6.73-6.17,15.18-13,27.44-.09-12.52.07-25.12,1-37.4.31-4.08,1.46-9.56,5.24-12.54a12,12,0,0,1,6-2.33C1917.65,501,1918.24,506.67,1915.71,514.93ZM1933,347.28c-.76,15.77-1.55,32.07-1.9,48.22-.11,6.64-2.2,8.56-2.88,9.19-3.68,3.39-12.22,4.08-19.45,4-6.61-52.61.89-103.75,8.15-153.31,2.54-17.38,5.18-35.35,7.16-53.09a6.13,6.13,0,0,1,.72-1.55c2.65,5.68,4.66,10.43,5.36,14.81C1937.28,259,1935.11,303.87,1933,347.28ZM3158.55,752.39c-3.24,2.75-6.34,5.66-9.34,8.48-12.48,11.74-21.36,19.33-34.36,18.08-2.32-8.57-.84-18.36,9-34.6,3.84-6.35,7.65-12.85,11.33-19.13,18-30.65,34.92-59.6,61.1-82.17,6.61-5.7,11.44-12.54,16.1-19.15a103.33,103.33,0,0,1,10.28-13.09l.07-.07a164.64,164.64,0,0,1,13-11.83C3230.12,663,3204.71,713.37,3158.55,752.39Z" transform="translate(-53 -52.97)" fill="#231f20"/></svg>