<?xml version="1.0" encoding="utf-8"?>
<!-- Generator: Adobe Illustrator 21.1.0, SVG Export Plug-In . SVG Version: 6.00 Build 0)  -->
<svg version="1.1" id="Layer_1" xmlns="http://www.w3.org/2000/svg" xmlns:xlink="http://www.w3.org/1999/xlink" x="0px" y="0px"
	 viewBox="0 0 4924.4 1416.6" style="enable-background:new 0 0 4924.4 1416.6;" xml:space="preserve">
<style type="text/css">
	.st0{clip-path:url(#SVGID_2_);fill:#231F20;}
	.st1{clip-path:url(#SVGID_2_);fill:none;stroke:#231F20;stroke-width:23.3528;stroke-miterlimit:10;}
	.st2{clip-path:url(#SVGID_2_);fill:#FFFFFF;}
</style>
<g>
	<defs>
		<rect id="SVGID_1_" x="52.8" y="52.9" width="3629.1" height="1279.6"/>
	</defs>
	<clipPath id="SVGID_2_">
		<use xlink:href="#SVGID_1_"  style="overflow:visible;"/>
	</clipPath>
	<path class="st0" d="M1891.6,585.2c41.5-71.4,41.5-71.4,32.7-106.4c-19.9-3.2-30.8,7.9-32.1,25.3
		C1890.2,531,1891.6,558.1,1891.6,585.2 M1898.6,420c24.7,1.7,43.8-0.7,44.3-24.4c1.3-60.6,8.7-121.5-1.1-182
		c-1.7-10.5-8.1-20.3-14.8-36.5c-7.3,11.6-13.7,17.4-14.4,23.8C1904.5,272.5,1886.5,343.4,1898.6,420 M3248.7,573.5
		c-11.6,9.6-23.9,18.4-34.4,29.1c-9.5,9.6-15.6,22.9-25.7,31.6c-33.4,28.8-52.6,67.6-74.7,104.1c-8.7,14.3-16.7,31-7.7,50.9
		c28.4,7.5,42.9-13.5,59.9-27.9C3222.4,713.7,3248,650.7,3248.7,573.5 M963.6,1092.7c21.6-6.5,39.2-21.7,55.9-38.4
		c40.4-40.4,60-92.1,72.1-145.7c14.6-64.4-17.1-131.5-73-165.5c-3.4,7.1-8,13.8-9.9,21.2c-18.4,74.2-36.8,148.3-53.9,222.8
		c-5.2,22.8-6.7,46.6-9.1,70C944.2,1071.2,946.1,1084.6,963.6,1092.7 M3306.9,480c52.3-32.5,108.8-39.8,164.8-49
		c35.1-5.7,69.9-5.9,104.9,3.7c40.5,11.1,68.4,36.9,90,71.1c6.5,10.3,5.5,12.7-9.6,35.1c-20.5,0-30.4-16.8-41.3-29.2
		c-20.8-23.9-46.4-34.3-76.8-38.2c-73.2-9.2-139.4,15.1-205,41.7c-20.6,8.3-27.9,27.4-28,47.9c-0.3,34.1-10.8,65.7-22.1,96.9
		c-29.3,80.6-84.7,140.3-156.1,185.4c-32.2,20.3-62.8,7.1-72.3-30.1c-9.7-37.9-4.9-75.5,16.9-107.4c46.4-68,92.8-136.5,166.9-179
		c7.9-4.6,13.3-13.3,20.4-20.6c-10.2-40.5-23.4-74.1-62.1-96.3c-37-21.3-70.3-23.4-104.2,0.2c-25.7,17.9-51.5,36.7-73.3,59
		c-31.3,32.1-58.9,67.8-88.1,102c-12.7,14.9-24.4,30.7-38.2,44.6c-37.2,37.6-74.4,75.2-113.2,111.1c-28.9,26.8-61.5,48.6-99.9,60.5
		c-33.7,10.4-62.7,3.3-83.6-25.3c-12.5-17.1-23-36.2-31.3-55.7c-9.1-21.3-14.7-44.1-23.8-72.6c-20.9,38-37.8,71.8-48.7,108.4
		c-14.5,48.9-28.5,97.8-42.7,146.8c-0.5,1.9-0.7,3.9-1.4,5.7c-6.8,18.9-19.4,30.4-32.5,29.6c-15.8-0.9-32.8-23.7-32-43.5
		c0.2-5.7,2.9-11.4,3.7-17.2c8.7-65.4,3.2-128.8-24.8-189.6c-8.2-17.8-13.4-36.9-21.3-54.8c-10.2-23.2-22.9-44.7-46.1-60.7
		c-12.7,13.9-7.3,27-4.1,39.4c13.9,53.6,17.4,108.3,19.8,163.4c2.2,49.6-17.7,92-42,132.6c-7.7,12.8-21.7,22.7-34.6,31.3
		c-30.2,20.2-66.3,6.5-72.3-29.1c-5.4-32.6-6.8-66.1-7.3-99.2c-0.7-49,4.9-98.4,0.4-146.9c-4.1-44.4-13.4-89.5-28.4-131.5
		c-23.9-67-70.2-67.9-123.5-63.6c-19,1.5-30.8,16.8-32.8,36.5c-6.1,59.3-29.4,113.1-54,166.1c-17.7,38.1-29.8,76.2-25.2,119
		c5.6,52.6,10.3,105.2,13.9,158c2.1,31.1,2.2,62.5,0.6,93.6c-0.4,6.8-11.1,16.4-18.9,18.7c-12.4,3.7-23.4-4-27.4-16.3
		c-3.5-10.9-4.9-22.8-5.2-34.3c-1.7-54.8-2.6-109.7-3.9-164.5c-0.3-11.4,1.9-23.6-12.7-34.5c-25,15.8-47.1,37-67.7,59.7
		c-28,30.9-59.5,56.6-97.7,73.8c-8.9,4-17.9,8.3-27.2,11.2c-57.5,17.7-104.3,1.1-137.1-49.7c-12.4-19.2-21.9-40.2-32.7-60.4
		c-5.6,3.3-10.5,4.4-11.5,7.1c-20.3,50.9-39.8,102.1-60.1,153c-13.8,34.6-27.9,69-42.8,103c-4.6,10.5-11,21-19,29.2
		c-12.1,12.5-25.5,28.2-45.3,20.3c-22.8-9-39.6-25.4-41.3-52.3c-0.4-5.9,0.1-11.8,0.4-17.6c2.3-49,2.7-98.2,7.4-146.9
		c6.4-65.4-2.1-129.2-15.4-192.6c-3.9-18.7-13.2-36.6-22-53.9c-12.4-24.6-34.3-39.3-61.1-39.1c-44.2,0.4-90.4-0.9-122,43.6
		c18.6,24.3,36.3,47.3,53.9,70.5c54.1,71.3,59.3,147.9,20.7,227c-18,36.8-40.6,71.4-62.9,106c-8.3,12.9-20.6,23.7-32.5,33.8
		c-42.8,36.8-61.8,37.7-117.6,6.2c-4.3-57.5,2.2-115.5,14.1-173c12.3-59.5,22.7-119.6,40.1-177.6c13.6-45.6,4.8-88.6,1.8-135.9
		c-11.7,0-22.2-2.8-30.1,0.5c-30.6,12.9-63.1,24-90,42.6c-76.9,53.3-129.8,124.5-146,218.9c-11,63.8-21.9,127.6-21.1,192.9
		c0.2,19.5-2.8,39.2-6.3,58.4c-2.2,12.4-11.8,21.8-24.5,21.4c-8.7-0.3-18.8-5.4-25.3-11.5c-13.8-13-13.9-28.6-10.9-48.2
		c10.7-69.2,20.7-139,3.9-208.7c-21.6-4.3-23.2,13.4-28.6,24.1c-56.4,113.6-136,210.5-222,301.9c-35.9,38.2-80.3,68.6-134.3,79.1
		c-9.6,1.9-19.3,3.4-29.1,4.3c-59.5,5.5-107.1-18.3-125.5-96.8c-10.1-42.8-7.3-86.1,0.7-128.7C92.1,985.8,130,883.2,189.8,789.7
		c25.6-40.1,58.8-73.1,108.6-83.9c42.4-9.2,89.9,23.6,93.7,66.3c1.4,15.7-16.3,31.1-31.1,26.1c-9.2-3.1-17.2-9.3-26.2-13
		c-31.9-13-62.9-10.7-86.5,15.4c-22.3,24.5-46,50.1-59.8,79.6c-30.8,65.5-61.1,132-75.7,203.5c-9.4,46.2-11.8,93.1,4,139.3
		c8.6,25.1,23.9,38.6,50.3,42.6c30,4.5,57.3,2.2,85.4-12.1c81.8-41.5,148.3-98.4,198.5-176c27.6-42.7,60.1-82,84.4-127.1
		c20.7-38.4,35.2-78.7,45.6-120.6c5.6-22.5,11-45.7-1.2-68.8c-8.1-15.2-1.3-30.5,5.1-45.1c9-20.6,24-23.8,46.4-15
		c5.7,20.4,13.8,42.5,17.5,65.2c3.4,20.7,1.9,42.3,2.8,71.5c11.2-9.6,18-13.1,21.6-18.8c11.4-18.2,22.4-36.9,32.2-56
		c34.7-67.7,91.7-111,157.8-143.5c26.1-12.8,51-28.7,82.1-30.5c19.8-1.1,38.1-4.2,56,8.3c13.4,9.4,29.4,8.5,45.5,5.4
		c28.9-5.5,57.9-10.3,87-14.6c43.4-6.4,83.9,3.1,111.7,37.1c16.7,20.4,24.6,48.4,34.4,73.7c25.5,65.7,20.4,135.1,22,203.5
		c0.6,27.4-2.5,54.9-3.1,82.3c-0.6,23.4-0.1,46.7-0.1,67.6c20.7,13.3,30.2,3.2,36.1-10.1c20-44.7,39.8-89.6,58.3-135
		c22.1-54.3,43.5-109,64-164c8.8-23.7,15.8-48.4,21.1-73.2c5.2-24.2,18.7-36.9,44.4-42.4c14.2,25.3,25,47.2,14.2,77.5
		c-12.6,35.4-10.7,73.7-4.8,110.5c8.9,55.8,54.2,83.3,108.4,68.4c48.9-13.5,86.7-45.1,122.5-78.4c24.4-22.6,45.9-48.5,66.8-74.4
		c9.4-11.7,19.4-26.6,20.4-40.7c4.2-58.5,2.6-117-6.2-179c-10.8,0.9-20.7-0.4-28.6,2.9c-30.6,13-60.5,27.6-90.7,41.5
		c-5.3,2.4-11.6,6.9-16.3,5.7c-10.7-2.7-23.4-5.8-30.1-13.3c-8.8-9.8-4.2-24.4,5.9-31c19.5-12.8,40.2-24.1,61.6-33.4
		c23.3-10.1,48-17.1,72-25.4c25.6-8.9,38.6-27.9,36.6-53.9c-6.2-82.9,11.3-164,16.8-246c1.9-28,10.7-53.9,26.5-76.9
		c15-21.9,39.3-22.8,52.8-0.7c9,14.8,15.5,31.7,19.6,48.6c13.5,55.7,14.3,112.7,14.7,169.6c0.3,33,0,66.1,0,96.9
		c21.8,13.8,41.8,10.6,61.1,11.2c55.4,1.6,96.1,30.5,115.2,82.3c22,59.6,30.2,121.4,30,184.7c-0.1,37.2-1.7,74.6,0.3,111.7
		c1.3,25,7.7,49.7,11.6,73c21.3,6.3,30.9-6.5,36.7-16.8c10.3-18.4,20.8-38.8,23.2-59.3c8.9-74.9,1.5-148.6-27.3-219.2
		c-13.2-32.3-25.8-64.8-40.9-103.1c5.9-7.4,15.1-18.8,24.2-30.1c46.4,14.4,81,38.7,107.2,74.6c39.4,54.2,72.2,112,89.8,177.2
		c5.5,20.2,12.6,39.3,21.3,66.5c31.6-68.2,59.1-128.1,87.1-187.7c10-21.3,20-42.7,32.5-62.6c5.3-8.5,16.8-13,26.5-20.1
		c19.3,21.6,24.2,43.8,23.7,67.7c-0.6,27.5-2.8,55-1.7,82.4c0.9,21.3,3,43.4,9.4,63.6c11.2,35.1,39.9,48,74.4,33.9
		c19.7-8,38.1-19.8,55.8-31.8c67.4-45.6,120.1-106.4,170.6-169.1c36.9-45.8,77.5-88,119.3-129.2c24.5-24.1,53.5-39.7,86.2-48.3
		c54.4-14.4,112.6,6.8,144.1,54.2C3279.8,424,3290.6,449.3,3306.9,480"/>
	<path class="st1" d="M1891.6,585.2c41.5-71.4,41.5-71.4,32.7-106.4c-19.9-3.2-30.8,7.9-32.1,25.3
		C1890.2,531,1891.6,558.1,1891.6,585.2z M1898.6,420c24.7,1.7,43.8-0.7,44.3-24.4c1.3-60.6,8.7-121.5-1.1-182
		c-1.7-10.5-8.1-20.3-14.8-36.5c-7.3,11.6-13.7,17.4-14.4,23.8C1904.5,272.5,1886.5,343.4,1898.6,420z M3248.7,573.5
		c-11.6,9.6-23.9,18.4-34.4,29.1c-9.5,9.6-15.6,22.9-25.7,31.6c-33.4,28.8-52.6,67.6-74.7,104.1c-8.7,14.3-16.7,31-7.7,50.9
		c28.4,7.5,42.9-13.5,59.9-27.9C3222.4,713.7,3248,650.7,3248.7,573.5z M963.6,1092.7c21.6-6.5,39.2-21.7,55.9-38.4
		c40.4-40.4,60-92.1,72.1-145.7c14.6-64.4-17.1-131.5-73-165.5c-3.4,7.1-8,13.8-9.9,21.2c-18.4,74.2-36.8,148.3-53.9,222.8
		c-5.2,22.8-6.7,46.6-9.1,70C944.2,1071.2,946.1,1084.6,963.6,1092.7z M3306.9,480c52.3-32.5,108.8-39.8,164.8-49
		c35.1-5.7,69.9-5.9,104.9,3.7c40.5,11.1,68.4,36.9,90,71.1c6.5,10.3,5.5,12.7-9.6,35.1c-20.5,0-30.4-16.8-41.3-29.2
		c-20.8-23.9-46.4-34.3-76.8-38.2c-73.2-9.2-139.4,15.1-205,41.7c-20.6,8.3-27.9,27.4-28,47.9c-0.3,34.1-10.8,65.7-22.1,96.9
		c-29.3,80.6-84.7,140.3-156.1,185.4c-32.2,20.3-62.8,7.1-72.3-30.1c-9.7-37.9-4.9-75.5,16.9-107.4c46.4-68,92.8-136.5,166.9-179
		c7.9-4.6,13.3-13.3,20.4-20.6c-10.2-40.5-23.4-74.1-62.1-96.3c-37-21.3-70.3-23.4-104.2,0.2c-25.7,17.9-51.5,36.7-73.3,59
		c-31.3,32.1-58.9,67.8-88.1,102c-12.7,14.9-24.4,30.7-38.2,44.6c-37.2,37.6-74.4,75.2-113.2,111.1c-28.9,26.8-61.5,48.6-99.9,60.5
		c-33.7,10.4-62.7,3.3-83.6-25.3c-12.5-17.1-23-36.2-31.3-55.7c-9.1-21.3-14.7-44.1-23.8-72.6c-20.9,38-37.8,71.8-48.7,108.4
		c-14.5,48.9-28.5,97.8-42.7,146.8c-0.5,1.9-0.7,3.9-1.4,5.7c-6.8,18.9-19.4,30.4-32.5,29.6c-15.8-0.9-32.8-23.7-32-43.5
		c0.2-5.7,2.9-11.4,3.7-17.2c8.7-65.4,3.2-128.8-24.8-189.6c-8.2-17.8-13.4-36.9-21.3-54.8c-10.2-23.2-22.9-44.7-46.1-60.7
		c-12.7,13.9-7.3,27-4.1,39.4c13.9,53.6,17.4,108.3,19.8,163.4c2.2,49.6-17.7,92-42,132.6c-7.7,12.8-21.7,22.7-34.6,31.3
		c-30.2,20.2-66.3,6.5-72.3-29.1c-5.4-32.6-6.8-66.1-7.3-99.2c-0.7-49,4.9-98.4,0.4-146.9c-4.1-44.4-13.4-89.5-28.4-131.5
		c-23.9-67-70.2-67.9-123.5-63.6c-19,1.5-30.8,16.8-32.8,36.5c-6.1,59.3-29.4,113.1-54,166.1c-17.7,38.1-29.8,76.2-25.2,119
		c5.6,52.6,10.3,105.2,13.9,158c2.1,31.1,2.2,62.5,0.6,93.6c-0.4,6.8-11.1,16.4-18.9,18.7c-12.4,3.7-23.4-4-27.4-16.3
		c-3.5-10.9-4.9-22.8-5.2-34.3c-1.7-54.8-2.6-109.7-3.9-164.5c-0.3-11.4,1.9-23.6-12.7-34.5c-25,15.8-47.1,37-67.7,59.7
		c-28,30.9-59.5,56.6-97.7,73.8c-8.9,4-17.9,8.3-27.2,11.2c-57.5,17.7-104.3,1.1-137.1-49.7c-12.4-19.2-21.9-40.2-32.7-60.4
		c-5.6,3.3-10.5,4.4-11.5,7.1c-20.3,50.9-39.8,102.1-60.1,153c-13.8,34.6-27.9,69-42.8,103c-4.6,10.5-11,21-19,29.2
		c-12.1,12.5-25.5,28.2-45.3,20.3c-22.8-9-39.6-25.4-41.3-52.3c-0.4-5.9,0.1-11.8,0.4-17.6c2.3-49,2.7-98.2,7.4-146.9
		c6.4-65.4-2.1-129.2-15.4-192.6c-3.9-18.7-13.2-36.6-22-53.9c-12.4-24.6-34.3-39.3-61.1-39.1c-44.2,0.4-90.4-0.9-122,43.6
		c18.6,24.3,36.3,47.3,53.9,70.5c54.1,71.3,59.3,147.9,20.7,227c-18,36.8-40.6,71.4-62.9,106c-8.3,12.9-20.6,23.7-32.5,33.8
		c-42.8,36.8-61.8,37.7-117.6,6.2c-4.3-57.5,2.2-115.5,14.1-173c12.3-59.5,22.7-119.6,40.1-177.6c13.6-45.6,4.8-88.6,1.8-135.9
		c-11.7,0-22.2-2.8-30.1,0.5c-30.6,12.9-63.1,24-90,42.6c-76.9,53.3-129.8,124.5-146,218.9c-11,63.8-21.9,127.6-21.1,192.9
		c0.2,19.5-2.8,39.2-6.3,58.4c-2.2,12.4-11.8,21.8-24.5,21.4c-8.7-0.3-18.8-5.4-25.3-11.5c-13.8-13-13.9-28.6-10.9-48.2
		c10.7-69.2,20.7-139,3.9-208.7c-21.6-4.3-23.2,13.4-28.6,24.1c-56.4,113.6-136,210.5-222,301.9c-35.9,38.2-80.3,68.6-134.3,79.1
		c-9.6,1.9-19.3,3.4-29.1,4.3c-59.5,5.5-107.1-18.3-125.5-96.8c-10.1-42.8-7.3-86.1,0.7-128.7C92.1,985.8,130,883.2,189.8,789.7
		c25.6-40.1,58.8-73.1,108.6-83.9c42.4-9.2,89.9,23.6,93.7,66.3c1.4,15.7-16.3,31.1-31.1,26.1c-9.2-3.1-17.2-9.3-26.2-13
		c-31.9-13-62.9-10.7-86.5,15.4c-22.3,24.5-46,50.1-59.8,79.6c-30.8,65.5-61.1,132-75.7,203.5c-9.4,46.2-11.8,93.1,4,139.3
		c8.6,25.1,23.9,38.6,50.3,42.6c30,4.5,57.3,2.2,85.4-12.1c81.8-41.5,148.3-98.4,198.5-176c27.6-42.7,60.1-82,84.4-127.1
		c20.7-38.4,35.2-78.7,45.6-120.6c5.6-22.5,11-45.7-1.2-68.8c-8.1-15.2-1.3-30.5,5.1-45.1c9-20.6,24-23.8,46.4-15
		c5.7,20.4,13.8,42.5,17.5,65.2c3.4,20.7,1.9,42.3,2.8,71.5c11.2-9.6,18-13.1,21.6-18.8c11.4-18.2,22.4-36.9,32.2-56
		c34.7-67.7,91.7-111,157.8-143.5c26.1-12.8,51-28.7,82.1-30.5c19.8-1.1,38.1-4.2,56,8.3c13.4,9.4,29.4,8.5,45.5,5.4
		c28.9-5.5,57.9-10.3,87-14.6c43.4-6.4,83.9,3.1,111.7,37.1c16.7,20.4,24.6,48.4,34.4,73.7c25.5,65.7,20.4,135.1,22,203.5
		c0.6,27.4-2.5,54.9-3.1,82.3c-0.6,23.4-0.1,46.7-0.1,67.6c20.7,13.3,30.2,3.2,36.1-10.1c20-44.7,39.8-89.6,58.3-135
		c22.1-54.3,43.5-109,64-164c8.8-23.7,15.8-48.4,21.1-73.2c5.2-24.2,18.7-36.9,44.4-42.4c14.2,25.3,25,47.2,14.2,77.5
		c-12.6,35.4-10.7,73.7-4.8,110.5c8.9,55.8,54.2,83.3,108.4,68.4c48.9-13.5,86.7-45.1,122.5-78.4c24.4-22.6,45.9-48.5,66.8-74.4
		c9.4-11.7,19.4-26.6,20.4-40.7c4.2-58.5,2.6-117-6.2-179c-10.8,0.9-20.7-0.4-28.6,2.9c-30.6,13-60.5,27.6-90.7,41.5
		c-5.3,2.4-11.6,6.9-16.3,5.7c-10.7-2.7-23.4-5.8-30.1-13.3c-8.8-9.8-4.2-24.4,5.9-31c19.5-12.8,40.2-24.1,61.6-33.4
		c23.3-10.1,48-17.1,72-25.4c25.6-8.9,38.6-27.9,36.6-53.9c-6.2-82.9,11.3-164,16.8-246c1.9-28,10.7-53.9,26.5-76.9
		c15-21.9,39.3-22.8,52.8-0.7c9,14.8,15.5,31.7,19.6,48.6c13.5,55.7,14.3,112.7,14.7,169.6c0.3,33,0,66.1,0,96.9
		c21.8,13.8,41.8,10.6,61.1,11.2c55.4,1.6,96.1,30.5,115.2,82.3c22,59.6,30.2,121.4,30,184.7c-0.1,37.2-1.7,74.6,0.3,111.7
		c1.3,25,7.7,49.7,11.6,73c21.3,6.3,30.9-6.5,36.7-16.8c10.3-18.4,20.8-38.8,23.2-59.3c8.9-74.9,1.5-148.6-27.3-219.2
		c-13.2-32.3-25.8-64.8-40.9-103.1c5.9-7.4,15.1-18.8,24.2-30.1c46.4,14.4,81,38.7,107.2,74.6c39.4,54.2,72.2,112,89.8,177.2
		c5.5,20.2,12.6,39.3,21.3,66.5c31.6-68.2,59.1-128.1,87.1-187.7c10-21.3,20-42.7,32.5-62.6c5.3-8.5,16.8-13,26.5-20.1
		c19.3,21.6,24.2,43.8,23.7,67.7c-0.6,27.5-2.8,55-1.7,82.4c0.9,21.3,3,43.4,9.4,63.6c11.2,35.1,39.9,48,74.4,33.9
		c19.7-8,38.1-19.8,55.8-31.8c67.4-45.6,120.1-106.4,170.6-169.1c36.9-45.8,77.5-88,119.3-129.2c24.5-24.1,53.5-39.7,86.2-48.3
		c54.4-14.4,112.6,6.8,144.1,54.2C3279.8,424,3290.6,449.3,3306.9,480z"/>
	<path class="st2" d="M963.6,1092.7c-17.5-8-19.4-21.5-17.9-35.6c2.5-23.4,3.9-47.2,9.1-70c17.1-74.4,35.6-148.6,53.9-222.8
		c1.8-7.4,6.5-14.1,9.9-21.2c55.9,34,87.6,101.1,73,165.5c-12.1,53.6-31.8,105.3-72.1,145.7C1002.9,1071,985.2,1086.1,963.6,1092.7"
		/>
	<path class="st1" d="M963.6,1092.7c-17.5-8-19.4-21.5-17.9-35.6c2.5-23.4,3.9-47.2,9.1-70c17.1-74.4,35.6-148.6,53.9-222.8
		c1.8-7.4,6.5-14.1,9.9-21.2c55.9,34,87.6,101.1,73,165.5c-12.1,53.6-31.8,105.3-72.1,145.7C1002.9,1071,985.2,1086.1,963.6,1092.7z
		"/>
	<path class="st2" d="M3248.7,573.5c-0.7,77.3-26.3,140.2-82.6,187.8c-17,14.4-31.5,35.4-59.9,27.9c-9-19.9-1-36.6,7.7-50.9
		c22.1-36.5,41.4-75.3,74.8-104.1c10.1-8.7,16.2-22,25.7-31.6C3224.8,591.9,3237.2,583.1,3248.7,573.5"/>
	<path class="st1" d="M3248.7,573.5c-0.7,77.3-26.3,140.2-82.6,187.8c-17,14.4-31.5,35.4-59.9,27.9c-9-19.9-1-36.6,7.7-50.9
		c22.1-36.5,41.4-75.3,74.8-104.1c10.1-8.7,16.2-22,25.7-31.6C3224.8,591.9,3237.2,583.1,3248.7,573.5z"/>
	<path class="st2" d="M1898.6,420c-12.1-76.5,5.9-147.5,13.9-219c0.7-6.4,7.2-12.2,14.4-23.8c6.7,16.1,13.1,25.9,14.8,36.5
		c9.9,60.5,2.4,121.3,1.1,182C1942.4,419.2,1923.3,421.6,1898.6,420"/>
	<path class="st1" d="M1898.6,420c-12.1-76.5,5.9-147.5,13.9-219c0.7-6.4,7.2-12.2,14.4-23.8c6.7,16.1,13.1,25.9,14.8,36.5
		c9.9,60.5,2.4,121.3,1.1,182C1942.4,419.2,1923.3,421.6,1898.6,420z"/>
	<path class="st2" d="M1891.6,585.2c0-27-1.5-54.2,0.5-81.1c1.3-17.4,12.2-28.5,32.1-25.3C1933.2,513.8,1933.2,513.8,1891.6,585.2"
		/>
	<path class="st1" d="M1891.6,585.2c0-27-1.5-54.2,0.5-81.1c1.3-17.4,12.2-28.5,32.1-25.3C1933.2,513.8,1933.2,513.8,1891.6,585.2z"
		/>
</g>
</svg>
