<?xml version="1.0" encoding="utf-8"?>
<!-- Generator: Adobe Illustrator 21.1.0, SVG Export Plug-In . SVG Version: 6.00 Build 0)  -->
<svg version="1.1" id="Layer_1" xmlns="http://www.w3.org/2000/svg" xmlns:xlink="http://www.w3.org/1999/xlink" x="0px" y="0px"
	 viewBox="0 0 4685 2545.6" style="enable-background:new 0 0 4685 2545.6;" xml:space="preserve">
<style type="text/css">
	.st0{fill:#FFFFFF;}
</style>
<title>breadpudding</title>
<path d="M1046,1355.1c-11.7,13.4-21.5,22.1-28.2,32.7c-39.4,62.5-78,125.5-117.3,188.1c-9.2,14.6-20.3,27.9-30.3,42
	c-9.8,13.9-22.8,15.3-38.3,12.1c-15.4-3.2-23-13.4-26.6-27.1c-1.9-7.3-3.2-15.4-1.9-22.8c11.6-69.1,23.7-138.2,35.9-207.2
	c6.5-36.9,13.5-73.6,19.7-110.5c1.2-7.3-0.5-15.1-1-25.9c-7.8,4.2-13.7,6.5-18.7,10c-50.1,36-81.1,86.3-105.7,141.6
	c-29.1,65.4-42.7,135.1-56.1,204.8c-2.9,14.9-1.5,30.6-1.7,45.9c-0.4,34.1-25.2,51.4-55.8,39c-18-7.3-24.8-16.6-20.7-35.9
	c8.5-40.3,18.2-80.3,28.4-120.1c8.9-34.8,19.1-69.4,23.8-106.3c-6.1,7-13.4,13.3-18.2,21.2c-49.1,80.6-116.6,144.3-188.4,203.7
	c-21.2,17.6-44.8,32.1-72.1,40.9c-41.9,13.4-86.6,0-110.2-36.5c-5.1-7.9-9.5-16.1-15.6-26.5c-10.5,5.6-19.4,11-28.7,15.2
	c-20.8,9.5-42.1,17.8-62.7,27.7c-31.1,14.8-64.1,10.9-96.6,9.9c-23-0.7-42.7-10.8-54.8-32c-8-14-4.8-25,10.4-29.1
	c8.6-2.3,20.7-3.3,27.5,1c25.5,16,51.9,12.5,78.3,6.7c44.2-9.8,81.6-33.7,116.9-60.6c8.5-6.4,16.1-17.8,18.2-28.2
	c10.4-51.1,29-99.2,49.5-146.8c21.2-49.3,39.2-99.9,61.8-148.5c15.3-32.9,34.1-64.7,55.1-94.2c19.3-27.1,53.7-47.2,90.8-28.9
	c25.2,12.4,35.7,36.1,32.2,64.1c-11.9,94.9-59,173.7-112.7,249.4c-35.5,50.1-73.7,98.1-119.8,139.4c-10.3,9.2-9.9,40.2-1.4,57.2
	c8.1,16.2,22.7,14.5,35.1,11.4c15.5-3.9,31.6-9.9,44.6-19c52-36.6,98.2-79.3,140.8-127c44.7-50.1,77.8-107.1,111.3-164
	c15.5-26.3,25.3-55.9,37.7-84c9.2-21.1,18.3-42.2,27.5-63.3c8-18.3,28.2-25.9,48.8-18.5c14.8,5.3,18.9,19.6,12.6,41.4
	c-3.4,11.7-5.9,23.8-8.9,35.7c1.7,1.2,3.3,2.5,5,3.7c7.5-6.4,14.9-12.9,22.5-19.1c28.4-22.9,57.1-45.2,93.8-53.6
	c27.3-6.3,49.3,10.7,45.3,37.7c-6.4,42.7-15.2,85.1-23.5,127.6c-11.1,56.3-22.6,112.6-34.3,170.3c15.4,1.5,17.2-8.9,21.4-15
	c34.5-49.6,69.3-99,102.8-149.3c29-43.5,63-82.3,100.7-118.3c10-9.5,20.2-14.1,33.7-11.1c24.5,5.3,34.8,25.9,22.2,47.7
	c-24.7,42.7-41.8,88.7-53.9,136c-6.5,25.7-8.4,53.2-7.9,79.8c0.6,30.5,14.4,37.7,43.3,29.9c51.1-13.9,89.5-48,128.3-80.5
	c55.9-46.7,90.6-108.5,118.4-174.9c13.3-31.9,29.1-62.7,44.2-93.8c10-20.6,27.5-26.9,50.7-18.6c5.2,1.9,9.8,5.4,15,8.4
	c21-13.7,40.7-27.5,61.3-39.6c30.6-18.1,62.8-27.7,99.2-19.4c20.8,4.8,33.7,16.6,42.3,35.2c13.1,28.3,13.3,58.5,8.4,87.6
	c-5.7,33.9-14.6,67.9-26.9,100c-14,36.4-21.7,76-48.2,107c-6.8,8-12.5,16.9-18.6,25.5c-5.3,7.6-10.3,15.3-18,26.7
	c11.6,0,18.2,1.3,24.2-0.2c34.4-8.8,68.6-18.8,103.1-27.3c14.3-3.5,22.6-11.7,30.3-23.9c23.2-36.5,45.4-74.1,72.7-107.4
	c48.1-58.5,99.2-114.6,158.7-162.3c17.2-13.8,33-29.7,50.9-42.4c19.7-14,41.5-24,67-15.9c19.8,6.2,32.3,18.3,37,39.7
	c9.4,43.1,8.3,84.4-5.7,127.3c-15,46-34.1,89.6-56.1,132.4c-5.5,10.7-9.5,23.5-9.4,35.4c0,25.3,10.4,31.6,36.1,29.9
	c52.3-3.4,94.7-30.8,136.9-57.1c58.1-36.3,104.2-85.3,136.8-145.5c18.7-34.6,33.8-71.1,50.4-106.8c1.6-3.5,2.3-7.4,4.1-10.8
	c6.4-11.7,11.4-26.6,27.5-26.5c15.7,0.1,30.2,5.7,37.4,22.1c1.4,3.2,4.3,5.6,8.2,10.7c10.3-15,20.5-27.7,28.3-41.8
	c8-14.3,19.9-17.2,34.1-15.8c17.6,1.7,27.2,10.3,25.7,28c-2.1,24.7-7.3,49.2-12.3,73.6c-9.6,47-22,93.7-20.6,142.1
	c0.5,17.9,4,36.2,9,53.5c14.8,50.7,34.6,54,79.7,41.8c2.8-37.8,20.9-71.6,41.2-104.2c16.2-25.9,32.5-52.3,52.5-75.3
	c42.8-49.4,87.9-97.1,142.2-134.2c20.4-13.9,43.9-23.9,66.9-33.3c10.2-4.2,22.8-4,34.1-3.2c41.7,2.6,61.5,32.2,49.3,72.1
	c-9.5,30.9-29.1,56-46.2,82.7c-25.4,39.6-50.3,79.6-73.5,120.5c-21.6,38.1-0.8,72.9,44.3,77.8c22.7,2.5,46-1.8,69.1-2.5
	c14.6-0.4,22.4-8.8,28.3-20.9c48.8-99,128-167.2,224.2-216.5c19.6-10,44.5-11.3,67.2-13.4c28.9-2.7,29.7-2.4,38.2-29
	c33.1-102.9,76.6-201.1,136-291.7c5.2-7.9,12.5-14.6,19.1-21.5c11.2-11.7,21.8-27.4,41-19.7c19.7,8,37.1,19.2,44.3,42.1
	c10.4,32.6,11.4,64.8,8.5,99.1c-5.4,66.1-25.1,128-46.3,189.7c-35.4,102.9-89.7,195.2-157.9,279.7c-21.1,26.1-20.6,34,5.4,53.5
	c31.1,23.4,67,32.8,105.8,29.5c15.9-1.4,31.5-5.4,49.2-8.6c-14.8-67.4,14.4-117.5,52.1-166.1c37.1-47.8,74.6-95,118.2-137.2
	c37.6-36.5,80.2-65.6,127.6-87.7c38.4-17.9,85.4-5.9,110.2,24.6c21,25.9,21.2,57.4,8.9,87.5c-20.9,51.1-52.6,95.6-89.6,136.3
	c-10.3,11.3-16.3,23.1-15.4,38.8c2.2,38.6,19,55.7,58,56.6c35.4,0.8,68-11.5,100-24.8c70.8-29.5,131.6-74.6,190.7-122.8
	c49.2-40,98.7-79.9,150.7-116c35.3-24.4,74.6-42.2,119.6-45.4c52.6-3.8,94.3,13.9,125.4,55.4c20,26.7,23,58.7,20.7,90.8
	c-1.5,20.2-3.2,37.5,12.9,55.5c19,21.2,10.2,44.3-18,53.9c-17.5,5.9-27.9,15.5-38.3,31.1c-56.8,84.6-131.1,145.4-235.9,158.4
	c-30.1,3.8-59.1-4.7-83-25c-22.9-19.5-27.8-45.3-20.3-73c3.4-12.8,10-25,16.7-36.5c38.2-65.7,93.9-109.3,168.7-124.1
	c36.5-7.2,74.2-7.8,111.4-11.3c6.6-0.6,13.2-1,21.7-1.6c10.5-31.7,10.6-62.8-4-92.3c-11-22.1-32-28.5-56-27.6
	c-43.9,1.7-81.6,20.2-118.4,41.6c-45.1,26.2-83,61.8-123.3,94.2c-61.4,49.4-122.3,99.8-193.5,135.2c-37.1,18.4-75.2,34.8-116.9,39.9
	c-56.5,6.9-102.5-10.1-132.9-60.9c-3.3-5.6-7.7-10.5-13.7-18.4c-12.5,10.9-24.8,19.7-35,30.6c-27.2,29.2-59.3,52.1-94,71
	c-13.9,7.5-30.8,10.3-46.8,12.9c-34.1,5.6-68.3,10.4-102.6,14.4c-61.4,7.3-118.9,0-165.8-45.9c-6.8-6.7-15-12-22.7-17.7
	c-1.4-1-3.6-0.9-7.8-1.8c-17.3,14.2-35.5,29.7-54.3,44.3c-32.7,25.4-66.9,47.2-107.2,60.3c-87.8,28.5-161.5-14.4-176.5-105.4
	c-0.4-2.7-1.9-5.3-3.8-10.3c-9.8,0-20.4-1.8-30.3,0.3c-53.8,11.2-95-10.1-130.1-48.5c-1.1-1.2-3.4-1.5-7.3-3.1
	c-4.4,4.8-9.6,10-14.3,15.6c-22.5,26.7-47.1,50.6-78.7,66.7c-33.1,16.8-63.9,13.8-89.6-12.2c-12.7-12.9-25.4-16.3-43.3-14.7
	c-47.5,4.2-83.1-16-106.9-57.8c-15.7-27.5-24-56.4-23.1-88.1c0.4-14,0.1-28.1,0.1-42.1c-2-0.5-4.1-1.1-6.1-1.6
	c-3.5,5.9-7.8,11.5-10.5,17.9c-36.1,86.9-71.6,174.1-108.1,260.8c-8.5,20.3-20.1,39.2-30.7,58.6c-9.9,18.1-19.7,23.6-33.7,20
	c-20.5-5.3-37.3-22.9-34.5-40.2c6.1-38.8,13.4-77.5,21.9-115.9c6.3-28.9,15.1-57.2,24.7-92.8c-23.3,16-40.4,28.5-58.4,39.9
	c-43.8,27.7-87.4,55.5-139.3,66.8c-37.2,8.1-70.5,3.3-99.8-22.2c-2.1-1.8-5.1-2.5-9.1-4.3c-25.9,25-51.1,51.2-78.3,75.1
	c-34.7,30.6-72.1,57-119,67c-67.6,14.4-108.1-34.7-106-81.5c0.6-14.2,0.1-28.5,0.1-46.5c-10.4,0.7-19.6,0.1-28.2,2
	c-50.6,11.6-101,23.7-151.5,35.8c-6.5,1.6-13.4,2.9-19.2,6c-91.5,49-103.6,46.3-191,56.9c-7.7,26.2-16,53.5-23.9,81
	c-26.7,93.2-53.4,186.4-79.9,279.7c-6.8,24-12.7,48.3-20,72.1c-7.3,23.7-19.8,30.5-40.6,24c-21.5-6.7-25.7-13.9-20.6-36.4
	c18.6-82.3,36.6-164.8,56.2-247c14-58.7,30-116.9,44.9-175.4c0.7-2.6,0.1-5.6,0.1-7.9c-19.8-11.6-39-23-61.6-36.3
	c-7.2,2.3-18.9,6.7-30.9,9.6c-81.1,19.6-112.6-21-114.8-82.6c-1.2-33.5,0.9-67.4,15.3-98.9C1047.7,1367.5,1046.6,1364.4,1046,1355.1
	z M1345.5,1509.5c39.9-5.8,73-11,106.2-15.5c25.9-3.5,47.1-15.3,65.4-33.4c33-32.7,58-71,79.8-111.7
	c30.4-56.8,46.9-117.2,50.8-181.3c2.2-36.5-13.5-48.3-47.1-35.7c-6.3,2.3-12.2,5.6-18.1,8.8c-64.2,34.4-113.3,84.9-152.1,145.6
	c-27.5,43-45.3,90.8-61,139.2C1360.9,1451.5,1354.3,1478.2,1345.5,1509.5z M3569.4,873.6c-10.6,12.7-18.6,20.6-24.6,29.8
	c-54.1,82.4-91.3,172.6-121.5,266c-2.3,7.1-1.4,18,2.7,23.8c13.2,18.8,9.4,36.5-0.4,54.1c-7,12.5-16.5,23.6-23.6,36.1
	c-14.1,24.8-16.6,51-9.7,85.1c10.7-11.6,17.7-17.8,23-25.3c34.7-48.4,68.3-97.5,92.9-152c7.5-16.6,14.1-33.5,20.8-50.5
	c23.2-58.9,45.9-118.2,50.4-182C3581.4,932.7,3586.2,905.3,3569.4,873.6z M3914.3,1146.7c-6.7,1.7-11.7,1.7-15.3,4
	c-26.7,16.8-55.3,31.6-79.2,51.7c-62.1,52.3-114.2,113.9-156.6,183.2c-11.4,18.6-22.1,38.3-23.1,61.3c-0.8,18.8,5,23.8,21.8,15.2
	c27.3-14,54.6-28.3,80.2-45.2c48.3-31.7,85.4-74.5,110.1-126.6C3874,1244.5,3892.6,1197.2,3914.3,1146.7z M3331.6,1349.2
	c-7.3,2.9-11.8,4.3-16,6.5c-31.1,16.7-61.6,34.9-93.4,50c-33.5,16-66.8,32.8-104.3,39.5c-22.8,4.1-28.7,14-29.9,35.9
	c-0.4,7.6-0.1,15.4,0.9,23c2.6,18.9,13.9,31.9,32.8,35c13,2.1,27.1,3.6,39.8,0.9c72.3-15.4,125.9-62,178-110.5c3-2.8,5-8.8,4.4-12.8
	C3340.5,1395.4,3336.2,1374,3331.6,1349.2z M1821.4,1399.3c15.7-5.9,27.2-10.1,38.7-14.6c52.1-20.5,100.5-47.7,144-82.9
	c11.6-9.4,22.3-21.8,29.1-35c16.2-31.5,30.3-64.1,44-96.8c3.6-8.6,2.5-19.3,3.8-31.5c-33.5,3.3-51.6,24.4-71.5,41.1
	C1911.6,1261.9,1833.8,1352,1821.4,1399.3z M2001.3,1371.5c-3.7-0.5-4.8-1-5.5-0.6c-66.1,32.8-132.2,65.4-203.1,87
	c-5.8,1.8-12,7.2-14.9,12.6c-14.7,27.6-18.2,56.6-5,85.6c2.5,5.4,12,12,17.1,11.1c18.5-3.4,38.8-6.1,54.3-15.7
	c54-33.6,101.9-74.8,141-125.7C1997.3,1409.7,2003.8,1392.8,2001.3,1371.5z M4578.1,1365.4c-12.5-0.6-21.7-1.9-30.8-1.4
	c-42.4,2.2-82.7,10.8-121.5,30.1c-41,20.5-67.2,52.7-87,91.9c-1.7,3.4-2.7,7.2-3.3,11c-2.6,16.3,3.9,26.3,20.7,27.8
	c12.2,1.1,25.5,1.2,37-2.5c72.8-23.2,130.7-66.9,173.3-130.4C4570.9,1385.1,4573.1,1376.8,4578.1,1365.4z M2927.5,1143.2
	c-2-1.7-3.9-3.4-5.9-5.1c-4.8,2.4-10.1,4.1-14.5,7.2c-41.7,29.7-79.8,63.7-111.7,103.5c-26.3,32.8-49.4,68.3-72.8,103.4
	c-5.7,8.6-7.2,20.1-12.5,35.7c12.5-5.5,18.6-7.8,24.3-10.9c26-14.3,50.3-30.8,74.3-48.6c31.1-23.1,55.6-49.2,70-85.4
	c7.8-19.6,18.6-37.9,28-56.8C2913.8,1171.9,2920.6,1157.5,2927.5,1143.2z M3119.7,1390.5c13.7-4.2,23-6.2,31.5-9.8
	c19.4-8.2,38.8-16.7,57.7-26.1c41.3-20.7,81.3-43.5,116.3-74.1c17.9-15.7,24.6-35.5,21.6-58.7
	C3291.1,1210.9,3148.3,1315.2,3119.7,1390.5z M332.9,1449.8c2.2,1.9,4.3,3.7,6.5,5.6c11-13.9,22.4-27.5,33.1-41.7
	c43.9-58.5,82.4-120.1,105.3-190.3c6.1-18.8,11.5-37.9,3.4-58.8c-15.9,3.2-24.7,12.1-31.1,24.6c-7.9,15.3-15.5,30.9-24.7,45.4
	C382.8,1301.5,358.7,1376,332.9,1449.8z M2484.6,1163.2c-2-1.1-3.9-2.2-5.9-3.3c-41.7,70.8-66.6,148.6-90.4,228.4
	c5.1-0.5,5.9-4.3,7.4-7.9C2425.3,1308,2454.9,1235.6,2484.6,1163.2z M1274,1482.7c-19.4,6.5-31.6,14.1-38.2,30.5
	C1262.2,1515.1,1262.2,1515.1,1274,1482.7z M2716.3,1451.5c30.3-1.5,32.8-2.9,42-24.9C2745.7,1436.1,2725.8,1432.5,2716.3,1451.5z"
	/>
<path class="st0" d="M1345.5,1509.5c8.8-31.3,15.4-57.9,23.8-83.9c15.7-48.4,33.4-96.2,61-139.2c38.8-60.7,87.9-111.2,152.1-145.6
	c5.9-3.2,11.9-6.5,18.1-8.8c33.7-12.6,49.4-0.8,47.1,35.7c-3.9,64-20.4,124.5-50.8,181.3c-21.8,40.8-46.8,79.1-79.8,111.7
	c-18.3,18.1-39.5,29.9-65.4,33.4C1418.5,1498.5,1385.4,1503.6,1345.5,1509.5z"/>
<path class="st0" d="M3569.4,873.6c16.8,31.7,11.9,59.1,10.1,85.1c-4.5,63.8-27.2,123.1-50.4,182c-6.7,16.9-13.3,33.9-20.8,50.5
	c-24.6,54.5-58.2,103.6-92.9,152c-5.3,7.4-12.3,13.6-23,25.3c-6.9-34-4.4-60.3,9.7-85.1c7.1-12.5,16.6-23.6,23.6-36.1
	c9.8-17.6,13.6-35.3,0.4-54.1c-4.1-5.8-5-16.7-2.7-23.8c30.2-93.3,67.4-183.6,121.5-266C3550.9,894.2,3558.8,886.4,3569.4,873.6z"/>
<path class="st0" d="M3914.3,1146.7c-21.7,50.6-40.3,97.8-62.1,143.6c-24.8,52.1-61.8,94.9-110.1,126.6
	c-25.6,16.8-52.9,31.2-80.2,45.2c-16.7,8.6-22.6,3.6-21.8-15.2c1-23,11.7-42.7,23.1-61.3c42.4-69.3,94.5-130.9,156.6-183.2
	c24-20.2,52.5-34.9,79.2-51.7C3902.6,1148.4,3907.7,1148.4,3914.3,1146.7z"/>
<path class="st0" d="M3331.6,1349.2c4.6,24.8,8.9,46.1,12.3,67.6c0.6,4-1.4,10-4.4,12.8c-52.1,48.5-105.6,95-178,110.5
	c-12.7,2.7-26.8,1.2-39.8-0.9c-18.9-3.1-30.2-16.1-32.8-35c-1-7.6-1.3-15.3-0.9-23c1.1-21.9,7-31.9,29.9-35.9
	c37.5-6.7,70.8-23.5,104.3-39.5c31.8-15.2,62.3-33.3,93.4-50C3319.8,1353.5,3324.4,1352.2,3331.6,1349.2z"/>
<path class="st0" d="M1821.4,1399.3c12.4-47.3,90.1-137.4,188-219.8c19.9-16.7,38-37.8,71.5-41.1c-1.3,12.2-0.2,22.9-3.8,31.5
	c-13.7,32.7-27.8,65.3-44,96.8c-6.8,13.2-17.4,25.6-29.1,35c-43.5,35.2-91.9,62.4-144,82.9
	C1848.7,1389.2,1837.1,1393.4,1821.4,1399.3z"/>
<path class="st0" d="M2001.3,1371.5c2.5,21.3-4,38.3-16.2,54.2c-39,50.9-87,92-141,125.7c-15.5,9.6-35.8,12.3-54.3,15.7
	c-5,0.9-14.6-5.7-17.1-11.1c-13.2-29-9.7-58,5-85.6c2.9-5.4,9.1-10.9,14.9-12.6c70.9-21.6,137-54.2,203.1-87
	C1996.4,1370.5,1997.6,1371,2001.3,1371.5z"/>
<path class="st0" d="M4578.1,1365.4c-5,11.4-7.2,19.8-11.8,26.6c-42.6,63.5-100.5,107.2-173.3,130.4c-11.5,3.7-24.8,3.6-37,2.5
	c-16.7-1.5-23.3-11.6-20.7-27.8c0.6-3.8,1.6-7.6,3.3-11c19.9-39.3,46-71.5,87-91.9c38.8-19.3,79.1-27.9,121.5-30.1
	C4556.4,1363.5,4565.6,1364.7,4578.1,1365.4z"/>
<path class="st0" d="M2927.5,1143.2c-6.9,14.3-13.8,28.7-20.8,42.9c-9.3,18.9-20.2,37.3-28,56.8c-14.4,36.2-38.9,62.3-70,85.4
	c-24,17.8-48.3,34.3-74.3,48.6c-5.7,3.1-11.8,5.3-24.3,10.9c5.3-15.6,6.7-27.1,12.5-35.7c23.4-35,46.5-70.5,72.8-103.4
	c31.9-39.8,70-73.8,111.7-103.5c4.3-3.1,9.6-4.8,14.5-7.2C2923.6,1139.8,2925.6,1141.5,2927.5,1143.2z"/>
<path class="st0" d="M3119.7,1390.5c28.6-75.3,171.4-179.6,227.1-168.8c3,23.2-3.7,43-21.6,58.7c-34.9,30.7-75,53.5-116.3,74.1
	c-18.9,9.4-38.2,17.9-57.7,26.1C3142.6,1384.2,3133.4,1386.3,3119.7,1390.5z"/>
<path class="st0" d="M332.9,1449.8c25.9-73.8,49.9-148.4,92.5-215.2c9.2-14.5,16.8-30.1,24.7-45.4c6.4-12.5,15.2-21.4,31.1-24.6
	c8.1,20.9,2.7,40-3.4,58.8c-22.8,70.2-61.4,131.7-105.3,190.3c-10.6,14.2-22,27.8-33.1,41.7C337.2,1453.6,335,1451.7,332.9,1449.8z"
	/>
<path class="st0" d="M2484.6,1163.2c-29.6,72.4-59.3,144.8-88.9,217.2c-1.5,3.6-2.3,7.4-7.4,7.9c23.8-79.8,48.7-157.6,90.4-228.4
	C2480.7,1161,2482.6,1162.1,2484.6,1163.2z"/>
<path class="st0" d="M1274,1482.7c-11.7,32.4-11.7,32.4-38.2,30.5C1242.4,1496.8,1254.6,1489.2,1274,1482.7z"/>
<path class="st0" d="M2716.3,1451.5c9.4-19,29.4-15.4,42-24.9C2749.1,1448.6,2746.6,1450,2716.3,1451.5z"/>
</svg>
