<svg xmlns="http://www.w3.org/2000/svg" viewBox="0 0 800 817.2"><rect width="800" height="817.2" fill="#a3b7d6"/><path d="M279.92,675.2c-.42,1.7-1,3.38-1.24,5.1-.54,3.24-1,6.48-1.38,9.74a18.21,18.21,0,0,0,.14,2.94c0,.94,0,1.88,0,2.82,0,2.64-.1,5.28-.12,7.92a3.57,3.57,0,0,0,.26,1.54,6.57,6.57,0,0,1,.72,3.58,1.89,1.89,0,0,0,.22,1,10,10,0,0,1,1.28,5.4c0,.18-.06.38,0,.52,1.22,2.58.56,5.34.76,8,.2,2.82.06,5.64.06,8.46,0,.52-.1,1.06-.14,1.58a2.74,2.74,0,0,1-2.56,2.82,11.58,11.58,0,0,0-4,1.66,8.77,8.77,0,0,1-5.6.84c-.74-.12-1.54-1.26-1.94-2.1a29.72,29.72,0,0,1-2.28-8.82c-.5-4.08-1.06-8.16-1.38-12.26s-.36-8.1-.5-12.14c0-1.22-.08-2.46-.06-3.68.08-3.62.2-7.26.3-11.14-.58.22-1.16.4-1.7.66-4,1.92-7.9,3.9-11.88,5.76-2.76,1.3-5.58,2.5-8.4,3.66-2.32.94-4.72,1.7-7.08,2.62-2,.78-4,1.62-6,2.5-1.28.56-1.26.7-1.12,2s.26,2.92.44,4.38c.14,1.16.32,2.32.5,3.48s.6,2.14,0,3.26a1.5,1.5,0,0,0,.24,1.28,3.24,3.24,0,0,1,.52,2.52,2.57,2.57,0,0,0,.56,2.28,2,2,0,0,1,.46,1.44c-.14,2.2.84,4.12,1.6,6,1.14,2.94,3.22,5.28,5.32,7.6,1.52,1.68,1.74,1.6,3.76.72,5.5-2.36,9.08-6.76,12.4-11.44,0,0,.06-.12.1-.14a12.81,12.81,0,0,0,3.14-4.46c.44-1,1.64-1.62,2.7-2.6l3.44,2a12.31,12.31,0,0,1-1.28,8,27.56,27.56,0,0,0-2.32,4.28c-.46,1.2-1.7,2.08-2.52,3.14-2.46,3.14-6.06,4.44-9.5,6a11.31,11.31,0,0,0-1.14.46,12.25,12.25,0,0,1-5.54,1.6,12.7,12.7,0,0,0-1.92.28,15.41,15.41,0,0,1-8.76-.48c-3.5-1.34-6.76-2.94-9.22-5.86a29.67,29.67,0,0,1-5-8.48,61.7,61.7,0,0,1-3.72-20c0-1.16-.16-2.32-.26-3.7a27.32,27.32,0,0,0-2.88,0,14.38,14.38,0,0,1-5.92-.22,12.28,12.28,0,0,1-3.58-1.7,3.27,3.27,0,0,1-.92-3.72,3.33,3.33,0,0,1,2.78-2.08,26.73,26.73,0,0,1,8.74-.48,5,5,0,0,0,1.22,0,1.89,1.89,0,0,0,.54-.18c.58-6,1.16-12,1.74-18.08-1.42-.86-2.88-.5-4.66-.34-.52-.58-1.2-1.28-1.82-2-1.42-1.74-.56-5.18,1.46-6.26a8,8,0,0,1,3.32-.86c2-.16,4-.78,6-1.08a22.06,22.06,0,0,1,4.14-.28,1.77,1.77,0,0,1,1.26,1c.42,1.24,1.32,1.38,2.38,1.32,4-.2,8-.42,12-.64,5.52-.32,11-.68,16.54-.66a100.27,100.27,0,0,1,11.24.6,16.89,16.89,0,0,1,6.6,1.7,3.42,3.42,0,0,0,.88.22c.38-1,.7-1.94,1.12-2.88a20.41,20.41,0,0,1,1.8-3.4,6.84,6.84,0,0,1,6.44-2.88,14,14,0,0,0,1.58.14c2.6-.06,4.18,1.44,5.44,3.5,1.14,1.84,2.32,3.66,3.48,5.48a1.44,1.44,0,0,0,.5.48,4.7,4.7,0,0,1,2,2.8c.5,1.38.92,2.78,1.44,4.14.3.78.36.76,1.5.68.44,1.24,1,2.5,1.3,3.8.14.58-.28,1.34-.1,1.9s.82,1.08,1.16,1.66a4.29,4.29,0,0,0,.88,1.34,4.65,4.65,0,0,0,.16-.72q.54-10.38,1.1-20.78c.08-1.34.18-2.7.3-4,.08-.86-.22-1.34-1.14-1.4a8.62,8.62,0,0,1-1.22-.2,2.89,2.89,0,0,1-2.74-3.08c-.18-2.62.38-3.68,2.66-4.78a3.35,3.35,0,0,1,1.52-.32c3.4.24,6.78.54,10.18.82,2.86.24,5.72.62,8.58.76,6.64.32,13.26.56,19.9.76,4.8.14,9.62.18,14.42.26.52,0,1.06-.06,1.54-.08a12.38,12.38,0,0,1,1.78-3,10.66,10.66,0,0,1,3-1.4,18.3,18.3,0,0,1,2.34,1.56,5.27,5.27,0,0,1,1,1.58c.66,1.24,1,2.74,2.5,3.62-.22,2-.5,4.16-.66,6.28a8.63,8.63,0,0,0,.18,2.26,13.51,13.51,0,0,1,.32,5.22c-.52,2.58.22,5.12.34,7.68.14,2.92.28,5.84.42,8.78a1,1,0,0,0,.3,0,5.74,5.74,0,0,1,4.68-2.74c2-.22,4.06-.66,6.08-1,1.1-.16,1.82-.54,2-1.78.36-2.14.88-4.24,1.4-6.36A90.31,90.31,0,0,1,386,662.64a12.32,12.32,0,0,1,5.92-6.52,7.12,7.12,0,0,1,2.3-.78c2.7-.22,5.34-.2,7.88,1.18,1.14.62,2.42,1,3.58,1.76a8.42,8.42,0,0,1,3.66,4.82c1.1,3.78,2,7.62,2.88,11.46a11.48,11.48,0,0,1,.1,2.36l.48.06c.14-.76.3-1.54.44-2.3,1.46,1.86.64,4.38,2.16,6.38,1.32-.28,2.7-.5,4-.86a1.4,1.4,0,0,0,.84-.94c.66-6.14,1.62-12.26.64-18.44a6.74,6.74,0,0,0-.82-2.3,4.45,4.45,0,0,1,3-6.48,3.14,3.14,0,0,1,1.54.2,14,14,0,0,1,3.06,1.36,2.22,2.22,0,0,0,2.54.26c1,.7,1.92,1.38,3,2.1.28-.42.52-.76.78-1.14.14.1.34.18.4.3a13.84,13.84,0,0,1,1,2.24,37.1,37.1,0,0,1,1.3,9.38,113.9,113.9,0,0,1-.78,13.32c-.08.86.2,1.74.16,2.62-.06,1.46-.3,2.92-.38,4.38,0,.66.2,1.34.2,2,0,1.52,0,3-.1,4.56-.38,5.4-.84,10.8.24,16.16a37.3,37.3,0,0,0,1.24,4,6.55,6.55,0,0,0,1.24-.5c1.82-1.4,3.6-2.82,5.42-4.24.78-.6,1.6-1.18,2.4-1.76.1-.06.24-.1.28-.2,1.24-2.2,3.66-3.24,5.12-5.26.76-1,1.7-2,2.56-2.92,1.24-1.4,2.36-2.92,3.72-4.18,1.18-1.08,2.56-2.08,4.42-1.42a8,8,0,0,0,1.56.12c.34,0,.82,0,1,.2,1.26,1.58,3.66,1.58,4.68,3.5.12.22.8.14,1.36.22-3.48,6.58-7.28,12.82-13.22,17.92l5.2,1.28c3.24.8,6.48,1.66,9.74,2.36a46.56,46.56,0,0,0,14,1.28,26.79,26.79,0,0,0,4.78-1.14,6.22,6.22,0,0,0,1.46-.94c-.36-1.86-1.5-3.16-2.46-4.54-1.12-1.58-2.32-3.08-3.52-4.6a10,10,0,0,0-1.16-1.08,14.36,14.36,0,0,1-1.26-1.2c-4.58-5.36-9.22-10.66-13.72-16.08-4.26-5.12-8.16-10.48-10.46-16.86a32.23,32.23,0,0,1-2.2-10.84c0-4.68,1.62-8.44,6.28-10.66a29.91,29.91,0,0,1,9.68-3c.7-.08,1.4-.08,2.22-.12.28,1.16,1,1.68,2.14,1.32.16,0,.42-.06.5,0,1.24,1.46,3.18,1.34,4.7,2.12a4.12,4.12,0,0,1,2.56,3.22,7.59,7.59,0,0,1-3.42,0c-3.24-.56-6.44-.62-9.5.78s-4.58,3.72-3.88,7.18a34.14,34.14,0,0,0,1.82,6.62c1,2.56,2,5.22,3.9,7.36a27.23,27.23,0,0,0,2.92,2.76,6.53,6.53,0,0,1,2.06,2.3,9.61,9.61,0,0,0,1.52,1.9c1.68,2,3.36,4.06,5.06,6.08,3.56,4.22,7.12,8.46,10.7,12.66,2.16,2.54,4.2,5.2,6.56,7.56a16.93,16.93,0,0,1,3.9,6,12.54,12.54,0,0,1,.68,2.54,3.57,3.57,0,0,1-1.42,3.4,12.34,12.34,0,0,1-5,2.1,7.35,7.35,0,0,0-1.84.6c-2.56,1.46-5.36,1.58-8.18,1.78a60.94,60.94,0,0,1-12.66-.74c-3.06-.42-6.06-1.26-9.1-1.9-.44-.1-.9-.14-1.36-.2a7.89,7.89,0,0,1-1.2-.08,71.73,71.73,0,0,1-6.86-2.12,24.32,24.32,0,0,1-6.2-3.2,1.2,1.2,0,0,0-1.6-.08c-1.2.82-2.4,1.68-3.62,2.46-2.7,1.72-5.46,3.16-8.84,2.86a18.45,18.45,0,0,0-3.14.24,25.74,25.74,0,0,1-11.08-1.34,8.21,8.21,0,0,1-4.38-3.64,15.58,15.58,0,0,1-2.26-5.14,2.15,2.15,0,0,0-.86-1.32c0,.38,0,.76,0,1.12.18,3.64.42,7.28.52,10.92a14.78,14.78,0,0,1-.6,3c-.6-.34-1-.52-1.1-.6-.92.24-1.66.46-2.4.62-1.32.26-2.64.42-3.94.7a5.5,5.5,0,0,0-1.24.58c-1-.08-1.86-.18-2.76-.2a3.37,3.37,0,0,1-3-2.76,8.34,8.34,0,0,1-.16-1.4c-.14-3.64-.16-7.3-.4-10.92-.22-3.46-.58-6.92-1-10.36s-.94-7-1.44-10.48c0-.34-.18-.68-.3-1.18a14.29,14.29,0,0,0-1.88.16c-2.26.4-4.5.9-6.76,1.26-1,.16-1.64.56-1.8,1.6-.22,1.5-.44,3-.68,4.58-.66-1.56.52-3.1-.38-4.64a21.61,21.61,0,0,0-1.08,3.4c-.46,3.32-.74,6.66-1.1,10-.08.7-.18,1.4-.24,2.1-.08,1-.14,2-.22,3.34a32.46,32.46,0,0,1-4.5,2.4,5.39,5.39,0,0,1-3.32-.06,3.62,3.62,0,0,1-2.08-2.7,20.43,20.43,0,0,1-.5-7.86c.32-2.62.64-5.24.94-7.88.08-.64.06-1.28.1-2-2.18-.12-4.26-.36-6.36-.34a4.72,4.72,0,0,1-4.24-2.46,3.12,3.12,0,0,0-.5-.46c0,.8,0,1.4,0,2,.44,5.32.92,10.64,1.36,16,.16,2,.26,4,.4,6a11,11,0,0,0,.22,1.38c.5,2.52,1,5.06,1.52,7.58a9.58,9.58,0,0,0,1,2c-.56.4-1.14.86-1.78,1.24-1,.62-2.14,1.18-3.2,1.78-.1.06-.22.16-.3.16-1.94-.18-4,.44-5.82-.62a5.24,5.24,0,0,1-2.5-3.5c-.82-3.36-1.64-6.74-2.14-10.16-.64-4.46-1.12-9-1.4-13.48-.32-5-.38-10-.46-15-.06-3.64,0-7.3.14-10.94.12-3.22.4-6.46.6-9.68,0-.4,0-.8-.06-1.3a13.13,13.13,0,0,0-1.42-.18c-5.4,0-10.8.12-16.22.16-1.7,0-2,.26-2.12,2-.06,1.18,0,2.36,0,3.52.06,1.64.18,3.28.28,5.08.24-.14.44-.24.74-.4.52,1,.24,2,0,3.2-.24-.44-.36-.68-.48-.92l-.42.22c.14.7.06,1.78.48,2,.9.58.64,1.26.64,2a2.31,2.31,0,0,0,.1.84,12.39,12.39,0,0,1,.78,5.18c0,2.24.2,4.46.3,6.68.12,2.46.2,4.9.38,7.36.2,2.92.46,5.86.76,8.78.26,2.5.6,5,.9,7.52,0,.12.08.26,0,.34-1.1,2,0,4,.2,5.92.1,1.1.6,2.16.74,3.26a17.94,17.94,0,0,0,1.18,4.88c.38.88,0,1.3-1,1.58a7.46,7.46,0,0,0-3.18,1.64,2.55,2.55,0,0,1-2.66.74,1.4,1.4,0,0,0-.82-.18c-2,.6-2.88-.7-3.48-2.14a36.19,36.19,0,0,1-2.14-6.32A130.18,130.18,0,0,1,324.7,709c-.32-6.34-.82-12.66-1.08-19-.2-5-.24-10-.16-15,0-2.58.5-5.14.76-7.72,0-.4,0-.8,0-1.42-3.94-.22-7.84-.56-11.9-.46a21.18,21.18,0,0,0-.56,7.9,3.43,3.43,0,0,1,0,1.86,1.25,1.25,0,0,0,.26,1.58,2.37,2.37,0,0,1,.74,2.26c0,.82,0,1.66-.1,2.46,0,.44.22,1.1-.68,1.18-.16,0-.2,1.14-.3,1.68.34.06.7.06.72.12a5,5,0,0,1,.14,1.22c0,4.64-.1,9.28-.14,13.92,0,2.12,0,4.22,0,6.34,0,.84.36,1.78-.56,2.42.14,1.6-.5,3.26.48,4.8a2.65,2.65,0,0,1,.34,1.5l-.56-1c-.22,4.3-.5,8.22.56,12.14.08-.58.16-1.14.24-1.8.72,1,1.16,6.68.84,9.44-.64.34-1.2.66-1.78,1-.14.08-.36.2-.48.16-1.18-.48-2,.34-2.92.8a19.15,19.15,0,0,1-3.74,1.6,5.36,5.36,0,0,1-3-.24,3.24,3.24,0,0,1-1.54-1.78c-1.6-4.54-3.14-9.12-4.56-13.72-1.86-6-3.52-12.08-5.36-18.08-1.78-5.84-3.6-11.66-5.54-17.46-1.06-3.12-2.4-6.12-3.66-9.18a7.3,7.3,0,0,0-.82-1.28C280.22,675.14,280.08,675.18,279.92,675.2Zm113.86-.7a2.86,2.86,0,0,0-.7,2.5,10.9,10.9,0,0,0-1.08,5.9l.76-1.54.24.1c0,.72-.08,1.46-.14,2.44,1.92-.28,3.64-.48,5.36-.78s1.9-.58,1.66-2.22c-.52-3.72-1-7.44-1.68-11.14a8.35,8.35,0,0,0-2-4.26c-.38,1-.7,1.64-.9,2.36-.42,1.52-.82,3-1.18,4.58C393.94,673.1,393.88,673.8,393.78,674.5ZM224.62,695.26a15.2,15.2,0,0,0,1.64-.4c4.7-1.7,9.44-3.28,14.06-5.16,6-2.46,12-5.14,17.9-7.8a5.85,5.85,0,0,0,2.92-2.24c-.78-.08-1.36-.18-1.94-.18-3.52,0-7-.06-10.54.06-3.22.1-6.46.32-9.68.58-2.52.2-5,.52-7.54.74-1.92.18-3.86.26-5.8.4-1.4.1-2,.68-1.56,1.9a8,8,0,0,1-.08,4.66,8.76,8.76,0,0,0-.06,2.8c.08.74.52,1.44.64,2.18A15.93,15.93,0,0,1,224.62,695.26Zm193.78,7.82c0-4.7.9-9.34.74-14.28l-2.68.64C416.4,691.54,417.7,701.6,418.4,703.08ZM225.64,714.3c0-1.26,0-2.24,0-3.22s-.06-2-.1-3,.28-1.9-.44-2.8C224.42,706.8,224.72,712.08,225.64,714.3Zm86-27.14.4,0c0-.28,0-.56,0-.84h-.26C311.66,686.6,311.62,686.88,311.6,687.16ZM334,666.66l-.26,0v1.5h.2C334,667.66,334,667.16,334,666.66Zm-22.46,23,.24,0c0-.22,0-.44,0-.64a4.08,4.08,0,0,0-.24-.66ZM155.42,566.9c1,.48,2.06,1.06,3.18,1.54a11,11,0,0,0,2.78,1c1.6.26,1.62.16,2,1.82,0,.16.12.32.18.5a4.45,4.45,0,0,0,.82-1.4c-.06,1-.12,2-.16,3s-.32,2.1.34,3.08a1.54,1.54,0,0,1,.08.86c-.24,3.24.56,6.4.7,9.62,0,0,.06.1.22.32.66-1.28,0-2.72,1-3.88.06.6.18,1.18.2,1.78a10.83,10.83,0,0,0,.48,4,10.41,10.41,0,0,1,.3,3.08,29.24,29.24,0,0,1,.06,3c-.08,1.54.84,2.46,1.8,3.34l2.44-.9c.22.16.34.2.4.3,1.1,1.7,1.82,1.72,2.94.1a4.09,4.09,0,0,1,.42-.56c1.7-1.52,1.58-3.6,1.74-5.6s.4-4.08.64-6.12.58-4.18.8-6.28a11.69,11.69,0,0,0-.06-2.64c-.14-1.38-.38-1.54-1.82-1.54-1.94,0-3.88.06-5.82-.06s-2.66-1.06-2.74-2.92c-.16-3.44,1.44-4.66,4.82-4.94,5.72-.48,11.48-.62,17.22-.66s11.62.32,17.44.36a133.52,133.52,0,0,1,15.48,1,57.35,57.35,0,0,1,13,3.06,30,30,0,0,1,3.3,1.66c.3.16.68.36.8.66a11,11,0,0,0,2.36,3.46.69.69,0,0,1-.28,1.16,27.33,27.33,0,0,1-5.5,1.52c-.28.06-.64-.24-1-.4a32.52,32.52,0,0,0-8.76-2.6,78.44,78.44,0,0,0-12.94-1.48c-5.94-.14-11.86-.14-17.8-.18-1.58,0-3.18,0-4.76,0-1.28,0-1.58.32-1.2,1.44a13.12,13.12,0,0,1,.42,5.06c-.08,1.7-.14,3.4-.18,5.12,0,.46.1.92.12,1.38A17.76,17.76,0,0,1,191,590c-.06,1.34-.24,2.68-.26,4a4,4,0,0,0,.48,1.3c1.18-.84.84-2,1.08-2.86s.32-2,.64-2.94c.3.54,0,1.12,0,1.68s0,1.18,0,1.76v2a15.15,15.15,0,0,0,1.56.2c7,0,14-.16,21-.12s13.86.12,20.8.38c4.7.18,9.38.7,14.06,1.08a4,4,0,0,1,1.54.36,7.75,7.75,0,0,0,3.06.62,19.16,19.16,0,0,1,2.46.56,5.53,5.53,0,0,0,0,1.86c.22.46.78.76,1.24,1.2a6.19,6.19,0,0,1-3,1.34c-.56.16-1.12.3-1.66.5a21,21,0,0,1-7.64.78c-1.88-.06-3.76-.14-5.62-.14-8.76,0-17.52,0-26.28.06-4.88,0-9.74.16-14.62.28-2.34.06-4.68.22-7.18.34-.06.64-.14,1.2-.18,1.76-.34,6.94.3,13.84.7,20.76a47.74,47.74,0,0,0,1.48,9.38c.48,1.82,1.22,3.56,1.86,5.32a5,5,0,0,0,.34.64,4.14,4.14,0,0,0,2-2.44c.7-1.48,1.24-3.06,1.86-4.58,1-2.38,1.94-4.78,3-7.12.64-1.36,1.5-2.6,2.3-4,1.58.14,2,2.36,3.9,2,.4,1.62.84,3.12,1.14,4.64a9,9,0,0,1,0,2.08c0,.42-.24.92-.08,1.22,1.14,1.86-.24,3.94.54,5.86.24.6-.28,1.58-.6,2.32-.56,1.2-.42,2.6-1.32,3.74-2.1,2.7-5.06,3.9-8.14,4.92-1.06.36-2.06.82-3.1,1.24-5.32,2.16-12,1.92-16.1-3.92a28.25,28.25,0,0,1-4.62-11.34,105.26,105.26,0,0,1-1.74-20.5c.06-3.58.18-7.16.32-10.72a2.61,2.61,0,0,0-.64-2.1,10.82,10.82,0,0,1-1-1.58,7.2,7.2,0,0,0-1,.6c-.78.62-1.54,1.26-2.32,1.88-.28.22-.64.44-.76.72a5.56,5.56,0,0,1-2.3,2.54c-.7.46-.68,1.2-.68,1.9,0,2.46-.08,4.94,0,7.4.26,5.46.6,10.9,1,16.36.16,2.34.48,4.68.66,7a6.56,6.56,0,0,0,2,4.36c.52.5.72.92.46,1.52a1.58,1.58,0,0,1-1.4,1.14c-2,.24-3.68,1.32-5.46,2.16a1,1,0,0,0-.5.48c-.44,1.38-1.6,1.34-2.72,1.42a17,17,0,0,0-1.72.26,8.57,8.57,0,0,1-1.72.28c-2.88-.06-4.5-1.52-5.14-4.76a64,64,0,0,1-1-6.76c-.46-5.38-.84-10.76-1.18-16.16-.2-3.16-.24-6.34-.34-9.52-.06-1.46-.4-1.76-1.84-1.54l-7.82,1.18c-1.24.18-1.54.58-1.5,1.92a162.06,162.06,0,0,0,1.7,17.34,10.78,10.78,0,0,1-.1,2.4,12.53,12.53,0,0,0,1.28,5.78c.1.26.54.4.82.6,1.06.76,2.14,1.48,2,3.2.52-.24.84-.38,1.24-.58.14.42.42.82.38,1.18a39.44,39.44,0,0,1-.82,4.84,2.43,2.43,0,0,1-2.66,2.1c-.36,0-.72.34-1.1.46a8.78,8.78,0,0,1-2.5.68,3.5,3.5,0,0,0-2.66,1.12,3.8,3.8,0,0,1-2.92,1.4,1.88,1.88,0,0,0-1.14.4,2.44,2.44,0,0,1-2.78-.06c-2.28-1.14-3.22-3.14-3.8-5.42a108.2,108.2,0,0,1-3-15.58c-.64-6-1.24-11.92-1.84-17.88,0-.24,0-.46,0-.7,0-2-.12-2.12-2.2-2.26-1.28-.08-2.58-.08-3.88-.18a18.08,18.08,0,0,1-2.08-.36,5.22,5.22,0,0,1-4.1-4.28c-.36-1.44.54-2.36,1.44-3.18a4.5,4.5,0,0,1,2.16-1.12c1.94-.38,3.94-.58,5.9-.84l.18,0c2.58-.08,2.52-.08,2.56-2.58,0-3.06.22-6.1.36-9.14.1-2.4.12-4.8.38-7.18.38-3.56,1-7.1,1.44-10.64.08-.56.06-1.14.1-1.76a8.79,8.79,0,0,0-4.12.3,148.59,148.59,0,0,1-15.1,2.52c-2.34.24-4.66.6-7,.9-1.8.24-2,.46-1.9,2.24.06,1.58,0,3.18.2,4.74.1,1,.56,2,.7,3,.24,1.74.36,3.5.48,5.24.12,2,.2,3.94.46,5.9.8-1.24.42-2.56.48-3.86a14.89,14.89,0,0,1,.72-3.86,3.39,3.39,0,0,1,.26.84c.46,6.58-.26,13.14-.5,19.7-.16,4.64-.16,9.28-.22,13.92a51,51,0,0,1-.32,6.74c-.22-.36-.42-.72-.76-1.28-.24.48-.5.76-.5,1,.06,2.4.18,4.8.24,7.2.06,1.82.08,3.62.14,5.44a16.82,16.82,0,0,0,2.28,8c-1,.72-1.9,1.52-3.22,1.48a2.57,2.57,0,0,0-2.1,1,9.3,9.3,0,0,1-2.58,1.58c-.3.16-.68.2-1,.34-2.44,1-4.08.44-5.58-1.68A16,16,0,0,1,82.42,648c-.54-4.36-.84-8.76-1.14-13.16a158.83,158.83,0,0,1,.18-19c.24-4.7.54-9.38.78-14.08.14-2.76.34-5.5.38-8.26.06-4.56,0-9.12,0-13.9a16.13,16.13,0,0,0-2.1-.2c-5.06,0-10.1.2-15.16,0a36.25,36.25,0,0,1-9.9-1.54c-2.16-.7-2.8-1.7-2.4-3.94a5.3,5.3,0,0,1,2.16-3.5,4.28,4.28,0,0,1,2.32-.52,46.92,46.92,0,0,0,4.74.06,8.1,8.1,0,0,1,4.56.32c.64-1.24,1.5-1.06,2.56-.76a45.11,45.11,0,0,0,11.34,1.34,1.94,1.94,0,0,0,1.78-.94c1.66-2.5,3.66-3.16,6.48-2.08,1.2.46,2.3,1.12,3.5,1.6a3.74,3.74,0,0,0,1.68.3c1.82-.12,3.62-.32,5.44-.54,4.54-.58,9.1-1.14,13.64-1.82,5.86-.88,11.7-1.84,17.54-2.82,4-.68,8-1.46,12-2.16,1.32-.22,2.64-.3,4-.46.38,1.64.54,1.66,2.1,2a17.67,17.67,0,0,1,3.92,1.48c-6.36,3.66-13.56,4.46-20.6,6.32.72,1.14,1.36,1.9,2.6,1.76a1.31,1.31,0,0,1,1.38.86c.44.8,1,1.56,1.62,2.6.4-.92.7-1.58,1-2.32.12.12.3.24.3.34-.24,1.64.32,3.22.38,4.84.08,2.16-.2,4.34-.3,6.52-.12,2.46-.2,4.92-.3,7.38-.08,1.58-.26,3.16-.22,4.74,0,1.86.2,3.74.36,5.6a5.26,5.26,0,0,0,.42,1.18,7.12,7.12,0,0,0,1.44.08c2.8-.28,5.6-.6,8.4-.88.9-.08,1.38-.44,1.38-1.42,0-3.46.1-6.9.16-10.36,0-.64.18-1.28.2-1.9.08-2.94.12-5.88.18-8.82,0-1.28.1-2.58.14-3.86.08-2.34.16-4.68.22-7a3.26,3.26,0,0,1,1.64-2.74C153.86,567.9,154.5,567.5,155.42,566.9Zm-58,35.36c.4-1.1.4-1.1,0-1.94Zm53.8,84.22c.22-1.58.44-3.18.7-5.08.48,6.78,3.7,12.08,7.32,17.2,2.4,3.4,5,6.68,6.68,10.56a30.77,30.77,0,0,1,2.88,9.2c.36,3.84.46,7.74-1.22,11.42a6.9,6.9,0,0,1-3.54,3.74,4.15,4.15,0,0,0-1.68,1.22,8.56,8.56,0,0,1-5.44,3.3c-2,.46-4,.74-6,1a8,8,0,0,1-7.2-2.46c-.4-.42-.92-.74-1.34-1.14-1.68-1.64-2.28-3.8-2.76-6a5.11,5.11,0,0,1,.36-2.4c.08-.28.58-.5.92-.6s.54.16.8.28c1.44.64,1.44.64,2.2-.9l1.56,1c.84-1,1.54-.54,2.34.2a7.63,7.63,0,0,0,3.56,1.92,9.84,9.84,0,0,0,.74-4.18,20.3,20.3,0,0,0-3.18-11.18c-2.64-4.16-5.34-8.28-8-12.42a25.75,25.75,0,0,1-1.46-2.62,1.47,1.47,0,0,0-1.82-.92c-2.42.4-4.9.54-7.32.94-2.78.46-5.54,1.06-8.28,1.62-3.9.82-7.82,1.62-11.72,2.5-2.86.64-5.7,1.36-8.56,2a25.17,25.17,0,0,1-2.94.52,1.29,1.29,0,0,0-1.34,1.5c.06.94.18,1.88.24,2.8.1,2,.16,4,.28,6a38.12,38.12,0,0,0,.38,4c.78,4.56,1.6,9.12,2.42,13.68a7.67,7.67,0,0,0,.44,1.24l.38,0,2-4.22a10.34,10.34,0,0,1,.68-1.42,29.15,29.15,0,0,0,2.78-6.44c.48-1.32,1.12-2.58,1.7-3.84s1.22-2.54,1.8-3.82c.84-1.86,1.7-2,3-.28l1.46-.26c.92.72.88,1.7.72,2.8,1.3.58,2.52,1.38,3.74-.16.9.78.32,1.82.64,2.66s.56,1.68.9,2.76c.56-1.3,1.06-2.48,1.56-3.66l.36.12a31.28,31.28,0,0,1-1,5.76c-.42,1.82-.84,3.66-1.3,5.48-.5,2-1.06,4-1.6,6-.36,1.3-.72,2.6-1.14,3.88a34.9,34.9,0,0,1-1.56,4.48c-1.18,2.42-2.12,5-3.92,7.08a6.41,6.41,0,0,1-2,1.72,18.29,18.29,0,0,1-7.4,2.14,4.92,4.92,0,0,0-2,.6,12.76,12.76,0,0,1-6.3,1.4,3.21,3.21,0,0,0-.88.06c-4.56.76-7.54-1.6-9.78-5.14-2.8-4.44-4.2-9.4-5.18-14.52-.46-2.42-1.16-4.8-1.48-7.24-.62-4.66-1.06-9.34-1.54-14-.16-1.58-.18-3.18-.2-4.76,0-2.3-.46-2.72-2.7-2.52a14,14,0,0,0-1.58.1c-1.74.3-3.06-.76-4.38-1.5s-1.48-3.3-.34-4.5a5,5,0,0,1,3-1.72,42.16,42.16,0,0,0,4.92-1.24,1.37,1.37,0,0,0,.84-.92c.2-3.16.32-6.32.48-9.48a14,14,0,0,1,.24-1.56,14,14,0,0,0,.24-1.56c.06-2-.08-2-2-1.92-1.44.08-2.92.28-4.1-1s-1.12-4.68.14-5.42a17.3,17.3,0,0,1,3.7-2,12.38,12.38,0,0,0,4.72-2.58c.26-.22.58-.54.88-.54,2.12,0,4-1.2,6.18-1.06a30.8,30.8,0,0,0,5.26-.06,5.23,5.23,0,0,1,3.48.86,4.81,4.81,0,0,0,3.16.68c3.5-.34,7-.48,10.54-.74,6.26-.5,12.52-1.1,18.8-1.52,4-.26,8-.3,12-.42a35.18,35.18,0,0,1,5.62,0,12.32,12.32,0,0,0,6.68-.78,12.27,12.27,0,0,1,3.46-.54,2.43,2.43,0,0,1,1.38.18,9.41,9.41,0,0,0,3.9.88c1.52.2,3.2.26,4.22,1.8.16.26.74.24,1.12.36a13.31,13.31,0,0,1,2.32.82.82.82,0,0,1-.18,1.58,9.27,9.27,0,0,1-4.32.48,15,15,0,0,0-4.72-.22A11.64,11.64,0,0,0,153,678c-.4.34-.78.72-1.16,1.06-2,1.78-2.14,4.08-1.76,6.48.06.4.46.72.7,1.1A.65.65,0,0,1,151.2,686.48Zm-13.6-7.4c-.7,0-1.22,0-1.72,0-2.4.18-4.8.36-7.2.56-1.28.1-2.58.22-3.86.34l-8.38.9-8.94.94-7.34.78c-.82.08-1.64.12-2.46.26a1,1,0,0,0-1,1.06c0,1.58.08,3.16.14,4.74,0,1.1.14,2.22.16,3.32,0,1.56,0,3.12,0,4.84l5.22-.84c4.16-.68,8.32-1.4,12.5-2,3.42-.5,6.86-.84,10.3-1.22a37.87,37.87,0,0,1,10.2,0,8.47,8.47,0,0,0,1.42,0c-.26-2.42-.82-4.64-.66-6.82A42.84,42.84,0,0,1,137.6,679.08Zm62.46-10.62c-1.34.4-2.62.76-3.86,1.18s-2.64,1-4,1.44a33.16,33.16,0,0,0-5.42,2c-4.22,2.42-6.34,7-5,11.34.54,1.74.94,3.56,2.38,5,.84.84,1.08,2.32,1.6,3.48.3.68.52,1.42,1.48,1.58.3.06.58.54.78.86,2.7,4.54,5.42,9.08,8,13.64,2.8,4.86,5.1,9.92,5.78,15.56a22.73,22.73,0,0,1,.06,3.5,3.21,3.21,0,0,1-.46,1.48A22.16,22.16,0,0,1,199.1,733a7,7,0,0,1-2.74,1.72,35.21,35.21,0,0,1-5.88,1.5,7.75,7.75,0,0,1-7.62-2.8,27.08,27.08,0,0,1-2.94-3.88,9,9,0,0,1-1.12-6.28c1.52-.28,2.26,1.26,3.64,1.64-.08-.58-.14-1.06-.22-1.5.2-.1.32-.2.4-.18a5.74,5.74,0,0,1,1.84,1,3,3,0,0,0,2.8.78,6.47,6.47,0,0,0-1-3.48q-2.49-5-5.28-10c-3.22-5.66-6.86-11.1-9.12-17.26-1.56-4.28-2.72-8.64-2-13.26.48-3.1,1.32-6.1,3.64-8.42a23.29,23.29,0,0,1,5.42-3.82,40.31,40.31,0,0,1,14.06-4.3,2.16,2.16,0,0,1,2.26.84,5.58,5.58,0,0,0,2.52,1.08A3.17,3.17,0,0,1,200.06,668.46Z"/><path d="M317.5,230.18c.6-.8,1.22-1.6,1.82-2.42,0,.22,0,.44,0,.66l-.78,1.14c-.38.2-.74.4-1.08.62M370,380.12c-.26-1.86-.52-3.72-.78-5.56-.08-.62-.26-1.86-.34-2.5-.46-3.42-.9-6.82-1.34-10.24q-1.38-10.74-2.62-21.52-2.55-21.93-4.6-43.9-4.53-48.75-6.58-97.7c-.46-10.84-11.24-21.44-22.74-17.32-2.82,1-5.68,1.9-8.58,2.64a14,14,0,0,0-5.5.88l-2,.74a4.51,4.51,0,0,1-.52,0l.44,0a2.67,2.67,0,0,0-.36.14c-.94,0-2,0-2.38,0a103.56,103.56,0,0,1-11.42.28c-1.92-.06-3.82-.16-5.72-.32l-3.18-.26c-7.3-.74-14.74-3-21.64-5.24-9.94-3.28-19.38-8.36-29.8-2.74a22.24,22.24,0,0,0-11.2,14.92,77.24,77.24,0,0,0-1.08,8.9c-.06.48-.32,2.8-.44,3.84-1,7.52-2.5,15-4.2,22.42q-2.67,11.58-6.36,22.9a12.69,12.69,0,0,0-2.38,3.52,536.3,536.3,0,0,0-41.5,134.84c0,.08,0,.16,0,.24a17.26,17.26,0,0,0-1.54,13.26c3.14,9.7,12.24,14.68,22.1,12.54l.46-.1c.18,0,.4,0,.66,0,.5,0,2.42.16,2.9.14.68.16,1.34.3,2,.5.48.14,2.32.8,3.12,1.06,0,0,.06,0,.1,0,.8.42,1.62.82,2.42,1.26,1.2.66,2.38,1.38,3.54,2.12.38.24,2.1,1.44,2.84,1.94l.2.16c.7.58,1.4,1.18,2.1,1.78,9.8,8.56,18.2,18.34,28.62,26.24,5.48,4.14,12.22,8.32,19,9.78,10.38,2.22,19.56-1.68,26.62-9.24.8-.84,1.58-1.68,2.42-2.48,0-.08.16-.3.8-.68l.3-.18a1.64,1.64,0,0,0,.38-.42,1,1,0,0,1-.12.26c.86-.54,1.72-1.08,2.62-1.56.52-.28,1.06-.56,1.58-.82h0l.06,0c2.28-1.12,1.52-.24.28,0,2.18-.26,5.28-2,7.22-2.6,2.86-.86,5.76-1.6,8.64-2.38a181.42,181.42,0,0,0,39.86-15.56c8.14-4.42,14.52-10.5,17.6-19.38,2.84-8,1.18-16.48,0-24.62" fill="#d0d2d3"/><path d="M509.74,233.88a19.38,19.38,0,0,0-1.16-11.74,16.24,16.24,0,0,0,1.92-10.24c-.68-5.1-3.32-8.38-7.4-11.34-10.68-7.74-25.4-8.8-38.18-8.42a116.67,116.67,0,0,0-38.32,7.46c-8.3,3.22-16.68,6.94-19.38,16.28-2.16,7.5-.52,15.08,3.5,21.64.66,1.06,1.4,2.06,2.06,3.12.46.76.94,1.66,1.06,1.82.22.74.42,1.5.66,2.24a2.85,2.85,0,0,1,.1.32c0,.1,0,.2,0,.34,0,.34-.2,2.4-.18,3.14-.18.7-.36,1.48-.42,1.68s-.12.32-.18.5a2.68,2.68,0,0,0-.12.24c-.84,1.1-1.46,2.4-2.32,3.52-4.92,6.5-1.24,17.62,5.56,21.24a15,15,0,0,0,15.22-.1,15.9,15.9,0,0,0,1.68.16c18.2.92,37.16,1.52,54.78-4,10.36-3.22,23.1-8.14,26.48-19.54,2.06-6.86-.6-13.56-5.34-18.36" fill="#808184"/><path d="M352.1,114.64v0a9.2,9.2,0,0,0-.46-6,8.79,8.79,0,0,0-2.84-3.68,9.7,9.7,0,0,0-4.15-1.91c-6.47-3.86-14.92-5.21-22.39-5.69a15.87,15.87,0,0,0-10.75.67c-4.39.06-8.78.22-13.17.45a12,12,0,0,0-9.07-1.17,15.43,15.43,0,0,0-4.45,2.13q-5.11.46-10.22,1a9.11,9.11,0,0,0-2.13.25q-4.85.57-9.66,1.26c-4.78.68-11.12.66-15,3.88a9.23,9.23,0,0,0-3.22,5.43,9.21,9.21,0,0,0-4.33,2.44l-1.44,1.87a9,9,0,0,0-1.24,4.18,16.41,16.41,0,0,0-.93,2.22c-2.18,6.52.14,12.82,3.68,18.32a16.4,16.4,0,0,0-2,3.76,15.67,15.67,0,0,0-.84,6.72c.16,1.82.68,3.1.06,4.8-1.44,3.92-3.74,6.74-3.64,11.18.1,4.28,2.28,8.56,6.26,10.44a8.86,8.86,0,0,0,2.44.76,13.2,13.2,0,0,0,4.06,2.48c5.44,2.1,12,1.9,17.8,2.5l9.65,1a14.75,14.75,0,0,0,2.65,1.51,24.17,24.17,0,0,0,4.76,1.71c1.69.36,3.42.55,5.13.76,2.17.27,4.35.44,6.54.53a85,85,0,0,0,13-.46A102.43,102.43,0,0,0,321,185.34a100.17,100.17,0,0,0,14.12-5.05l.21-.1a14.21,14.21,0,0,0,5.21-.53,14.06,14.06,0,0,0,9.58-10,5.63,5.63,0,0,0-1.32-5.51c.49-1,1-2,1.38-3,1.19-3-.53-6-2.92-7.8A9.24,9.24,0,0,0,350,147a66.28,66.28,0,0,0-.25-7.58,22.24,22.24,0,0,0-.28-2.89,5.07,5.07,0,0,0-.13-.56,61.71,61.71,0,0,0-1.21-6.2,10.62,10.62,0,0,0,3.78-8.72,7.48,7.48,0,0,0-.2-1.27A18.88,18.88,0,0,0,352.1,114.64Z" fill="#808184"/><path d="M560.26,478.34c-2.8-13-7.64-25.64-11.14-38.52-2.82-10.39-5.33-20.87-7.62-31.39q-1.87-33.8-3.86-67.59c-.44-7.28-.5-15.06-3.16-21.92a33.19,33.19,0,0,0-11-15.05q-2.5-16.64-5-33.27c-1.28-8.42-11.74-12.7-19.08-10.84a373.87,373.87,0,0,1-37.8,7.56l-2,.28-.14,0c-1.82.22-3.64.46-5.48.66-3.12.36-6.26.66-9.4.94-4.73.4-9.48.58-14.22.87a14.35,14.35,0,0,0-7.66-1.85,17.88,17.88,0,0,0-4.72.86,15.21,15.21,0,0,0-3.34,1c-7.88,3.32-10.94,11.14-9.46,19.26.24,1.26.42,2.54.66,3.8,0,0,0,.06,0,.1a.44.44,0,0,0,0,.16c.2,2.58.48,5.12.6,7.7,0,1,.07,2,.09,3-.2,2-.39,4-.59,6l-1.8,18.49c-3.88,6.65-4.89,14.05-6.3,21.83q-8.85,48.9-17.72,97.8c-1.64,9.06-3.34,18.1-4.92,27.16-1.82,10.56-3.14,21.22-.38,31.74a40.68,40.68,0,0,0,16.78,23.72,41.38,41.38,0,0,0,10.48,4.62A15.57,15.57,0,0,0,411.8,539l.1.06a15.41,15.41,0,0,0,11.48,1.85q7.22,4,14.64,7.49c12.94,6.14,28.2,14.72,42.9,10.06,12-3.8,23.82-10.9,34.48-17.5a268,268,0,0,0,31-22.56c5.08-4.26,12.12-9.1,14.74-15.3C564.24,495.88,561.84,485.72,560.26,478.34Z" fill="#716558"/><path d="M416.9,232.74c-6.42-1.94-8.56-12.34-7.2-18.08,1.88-8,10.54-10.32,17.48-12,17.3-4.26,35.1-7.42,53-4.74a48.75,48.75,0,0,1,14.52,5c4.52,2.28,9.76,5.16,12.7,9.44,3.78,5.5-2.54,8.28-7.12,9.52-10,2.7-20.48,4.16-30.76,5.44-9.14,1.14-18.28,2.14-27.4,3.42-9.76,1.38-20.16,2.72-29.76-.3-1-.32-1.44,1.26-.44,1.58,9.06,2.84,18.76,1.88,28,.66,11-1.46,22-2.68,33-4.16,5.8-.78,11.58-1.68,17.32-2.78,5-1,10.58-1.68,15.22-4,3.34-1.64,5.88-4.48,4.42-8.34-1.82-4.8-7.48-8.16-11.7-10.54a54,54,0,0,0-16.7-6.5c-19.44-3.42-40.38.26-59.1,5.78-7.24,2.14-14.08,6.38-14.56,14.64-.36,6.22,2,15.44,8.7,17.46,1,.32,1.44-1.26.44-1.56m-.92.38c-2.66,6.28-2.72,12.8,4,16.18s15,3,22.2,3.3c13.88.62,27.9,2.54,41.78,1.08,8.22-.88,20.2-2.7,24.1-11.2,3.42-7.44.94-18.46-7.46-21.16-1-.32-1.44,1.26-.44,1.58,5.52,1.78,7.9,7.72,7.7,13.14s-3.08,9.56-8,12c-10.78,5.36-24.4,4.78-36.06,4.2-11.08-.54-22.4-.72-33.42-2-3.8-.44-8.14-1.1-11.34-3.38-4.5-3.18-3.64-8.44-1.72-12.94.44-1-1-1.8-1.38-.82m-.64,16.58c-5.8,5.52-9.46,13.82-2.14,19.8a22.13,22.13,0,0,0,11.16,4.32c6.78.9,13.5,1.92,20.26,2.9a75.78,75.78,0,0,0,18.3.92c6.12-.6,12-2.72,17.68-5,5.94-2.32,11.8-4.7,17.92-6.5A33.31,33.31,0,0,0,509.58,261c2.68-2,5.12-5,4.92-8.54-.26-4.78-4.7-8.12-8.32-10.56-.88-.58-1.7.82-.82,1.42,4.72,3.18,10.3,8.46,5.64,14.14-2.9,3.54-7.66,5.48-11.9,6.82-11.2,3.5-22.14,9.38-33.74,11.34-12.28,2.08-24.7-1.64-36.84-3.06-5.58-.66-12-1.22-15.86-5.86-4.64-5.52-.52-11.78,3.82-15.9.78-.7-.38-1.84-1.14-1.12m.58,21.08c-6.1.08-10.38.32-10.68,7.2-.28,6.18.14,12.38.06,18.56a192.51,192.51,0,0,1-1.52,20.9c-1.8,14.76-3.86,29.74-6.82,44.32-2.74,13.54-6.4,26.88-8.06,40.62-1.76,14.48-1.5,28.92-5.42,43.08-3.26,11.72-7.3,23.12-8.92,35.24-2.64,19.88,1,41.22,19.78,51.88,9.32,5.28,20,7.82,30.36,10.18,5.32,1.22,10.68,2.28,15.92,3.78,6.4,1.82,12.52,4.4,18.72,6.78,9.78,3.74,19.68,7,30.16,4.44,8.68-2.1,16.16-7.34,22.9-13,7.44-6.24,14.2-13.28,21.84-19.32a96.19,96.19,0,0,1,12.7-8.2c3.78-2.12,7.62-4.44,10.26-8,6.16-8.28,4.16-21.86,2.72-31.34-2.06-13.58-6.92-26.54-10.56-39.74-3.78-13.76-5.24-28-7.22-42.08-2.08-14.94-3.76-29.9-5.2-44.92-1.3-13.48-4.9-26.6-8.68-39.54-2-6.82-4.06-13.62-5.9-20.48-1.44-5.34-2.22-10.8-3.38-16.22-1.1-5.1-2.56-10.14-5.62-14.42-.6-.84-2,0-1.42.82,6.18,8.62,6.18,20.28,8.84,30.24,3.36,12.54,7.46,24.88,10.56,37.48,3.34,13.6,4.26,27.32,5.84,41.2,1.48,13,3.34,26,5.18,38.92a253.08,253.08,0,0,0,8,38.12c3.74,12.44,7.84,24.9,8.78,37.94.42,5.86.9,12.26-.76,18s-6,9-10.8,11.8a127.27,127.27,0,0,0-21.26,15c-13,11.64-26.92,27.56-46,27-12-.34-23.24-6.8-34.34-10.6-10.06-3.44-20.66-5-30.9-7.78-10.08-2.7-20.74-6.3-28.3-13.82s-10.86-18.4-11.32-29,1.4-21.38,4.22-31.64c3.26-11.8,7.72-23.38,8.82-35.68,1.24-13.9,1.8-27.62,4.62-41.36,2.64-12.94,5.94-25.7,7.8-38.78,1.8-12.64,4.1-25.22,5.28-37.94a194.85,194.85,0,0,0,.76-19.92c0-4.68-.86-10.12.14-14.76.84-4,5.66-3.32,8.86-3.36,1,0,1-1.68,0-1.66m46.4,36.2c-7.44-11.78-26-24.86-38.14-11.46-9.22,10.22-10.36,26.22-12.58,39.16-4.18,24.28-5.88,49-11.7,73-2.9,11.94-3.34,23.62-4.1,35.84C395,456,392.54,468.32,391,480.72c-1,8.46-2.94,19.48.52,27.7,2.88,6.84,10,8.06,16.76,7.72,1-.06,1.06-1.68,0-1.64-7.16.36-13.92-1.16-16-8.84-2.1-7.84-.64-17.06.32-24.92,1.32-10.84,3.46-21.56,4.42-32.44,1-11.3.54-22.76,2.88-33.92,2.22-10.52,4.7-20.86,6.32-31.5s2.82-21.06,4.32-31.58c2-14.24,3.58-29.66,8.5-43.28,2.44-6.78,6.52-14.44,14.2-16.1,11.24-2.42,22.06,7.16,27.6,15.94.56.82,2,0,1.42-.88m3.1,227.4c7.44,1,10.66-4.3,11.42-11a84.27,84.27,0,0,0,.1-11.46c-.18-7.14-.12-14.26-.28-21.4q-1.14-47.25-3.76-94.46c-1-17.86-2-35.72-2.08-53.62a.82.82,0,0,0-1.64,0c0,28.88,2.72,57.64,3.7,86.5,1,27.9,1.66,55.8,2.44,83.7.22,7.56,1.46,21.64-9.9,20.12-1-.16-1,1.48,0,1.62m42.64-240c-6.4-.2-14.38-.38-18.88,5.08s-3.1,13.72-3.32,20.24c-.32,10.46-1,20.9-1.28,31.34s-.24,20.7-1.22,31.06S481.06,402.7,481,413s1.2,20.6,1.66,30.88c.86,20.16,1.62,40.26,3.08,60.38.5,7,.5,17.44,5.42,23,4.16,4.72,9.82-1.74,12.9-4.56.78-.72-.38-1.86-1.16-1.16-2,1.86-5,5.46-7.84,5.76-3.9.4-5.26-6.32-5.92-9.18-1.7-7.4-1.82-15.14-2.44-22.68-1.44-17.68-1.7-35.4-2.5-53.12-.4-8.74-1.38-17.5-1.56-26.26a217.14,217.14,0,0,1,1.56-26.24c1.8-17.9,1.76-35.76,2.58-53.72.4-9,.24-18,.84-26.94.36-5.44,2.46-10.2,8-12.1,4-1.38,8.34-1.2,12.46-1.06a.82.82,0,0,0,0-1.64m26.3,216.26c8.26-4,15.74-9.1,17-18.88,1.76-13.72-5.64-26.52-8.62-39.52-1.62-7.12-2.58-14.36-4.08-21.5-1.52-7.32-3.48-14.56-5.32-21.82-3.78-14.82-7.68-29.62-10.88-44.58-1.76-8.24-2.84-16.66-5.22-24.76s-5.48-15.78-6.86-24.08c-.18-1-1.74-.6-1.58.44,1.14,6.82,3.42,13.28,5.54,19.84A164.85,164.85,0,0,1,519,355.62c2.7,14,6.14,27.88,9.66,41.7s7.36,27.34,9.82,41.28a185,185,0,0,0,4.2,20c1.92,6.52,4.58,12.78,6.06,19.42s2.3,14.7-1.46,20.82c-3.1,5-8.6,7.9-13.76,10.4-.94.48-.12,1.88.82,1.42" fill="#231f20"/><path d="M367.18,401.68c-1.56,6.18-7.42,9.06-12.56,11.86l-31.26,17.1-31.26,17.1c-5,2.74-10,5.86-15.16,8.24-6.82,3.14-13.72-.22-19.7-3.72-8.92-5.22-16.32-12.54-24.34-19a119.54,119.54,0,0,0-53.4-24.5c-2-.36-4.46-.34-6.4-1s-1.62-.12-1.72-2.44a24,24,0,0,1,.26-2.94c.58-6.26,1.4-12.5,2.42-18.7,3.5-21.5,9.32-42.54,16.14-63.2,7.74-23.46,16.78-46.46,25.42-69.6,8.84-23.68,16.46-47.62,24-71.74l0,0c3.76,2.8,8.7,3.54,13.2,4.26,6.08,1,12.16,1.88,18.28,2.6,24.18,2.86,49.92,3,72.26-8l1.22-.6c6.76,8.4,8.58,19.18,9.5,29.64,1,11.34,1.66,22.72,2.46,34.08q2.58,36.27,5.18,72.52,2.55,35.52,5.08,71.06c.44,5.36,1.72,11.6.38,16.9M245.36,159.3a.69.69,0,0,0,0-1.12c3.26.24,6.5.48,9.76.7,7,.5,13.92,1,20.88,1.5,13.68.92,27.44,1.5,41.14.32a130.39,130.39,0,0,0,18.44-2.84c4.1-1,8-2.38,10.92-5.26.58,4.74,3.44,8.54,4.52,13.16s-2,7.7-6,9.94a.86.86,0,0,0-.6.32,70,70,0,0,1-8.52,3.56c-12.36,4.72-25.62,6.42-38.8,6.48-13.52.06-27-1.56-40.34-3.64-5.44-.84-12.44-1.24-16.76-5.08-6.8-6,.56-13.84,5.42-18m-4.86-6.08c-.68-1.86.4-6.24.8-8a12.41,12.41,0,0,1,4.32-7.38.64.64,0,0,0,.24-.68l.64.14a163.16,163.16,0,0,0,59.2.38,165.12,165.12,0,0,0,33.22-9.38l2-.8.08.06c6.06,3,9.82,9.5,8.38,16.32s-6.74,10.46-13.08,12.1c-12.52,3.24-25.76,3.88-38.64,3.74-12.44-.16-24.86-1.16-37.26-2.08l-9.26-.68c-3.52-.22-9.14.48-10.68-3.72M369.2,394.84c-.42-8.22-1.16-16.44-1.74-24.64L360.38,271q-2-27.81-4-55.6c-1-13.4-1.7-27.74-10.28-38.7,3.34-1.8,6.52-4.14,6.78-8.22.38-5.84-4.4-10.74-4.86-16.5a.76.76,0,0,0-.42-.64c.2-.24.4-.48.58-.74,5.9-8.08,3.08-19-5.22-23.9,6.1-2.4,13.28-5.8,13.38-12.62a.82.82,0,0,0-1.64,0c-.12,8.28-14.12,11.9-20.22,14.16a168,168,0,0,1-22.82,6.6,166.11,166.11,0,0,1-49.24,3q-6.36-.57-12.64-1.64c-4.68-.8-10.22-1.44-12.28-6.4-3.44-8.32,4-17,10.7-20.92,7-4,15.36-5.3,23.22-6.74,8.8-1.62,17.64-3,26.54-3.82a139.73,139.73,0,0,1,29.06.14c8.74,1,27,3,25.56,15.48-.12,1,1.52,1,1.64,0,1-8.92-7.62-13.12-14.92-14.92a114.75,114.75,0,0,0-30.58-3,225.25,225.25,0,0,0-30.88,3.3c-9.54,1.6-19.84,2.82-28.62,7.14-6.82,3.36-13.1,9.58-14,17.48-.8,7.08,3.14,11,9.14,12.74-3.3,2.74-4.56,6.64-5.1,10.8-.34,2.7-1.42,7.64,1.18,9.64a6.77,6.77,0,0,0,3.84.92l-.08,0c-5.64,4.86-12.36,13.54-5.86,19.92a1.06,1.06,0,0,0-.16.3c-4.82,15.48-9.4,31-14.74,46.34-5.12,14.7-10.66,29.28-16.16,43.84-11,29.22-22.06,58.54-29.48,88.92a310.1,310.1,0,0,0-8.24,50.82.82.82,0,0,0,.82.82,119.31,119.31,0,0,1,43.12,13.26c12.7,6.78,22.82,16.48,34.1,25.22a66.65,66.65,0,0,0,16.24,9.72c6.4,2.48,11.16,1.64,17-1.56q22.05-12,44-24.1,11-6,22-12c5.7-3.12,12.26-5.82,17.18-10.14,4.38-3.84,5.34-8.92,5.06-14.6M284.28,223.18c-.54-4.12-.88-9-3.06-12.66-4.28-7.28-16.24-4-22.36-1.42-10.1,4.2-18.32,11.92-26.06,19.42-.76.74.4,1.88,1.16,1.16,6.18-6,12.56-12,20.06-16.34,6.54-3.8,22.8-10.44,26.64-.14,3.22,8.64,3.14,19.4,3,28.52a245.11,245.11,0,0,1-2.58,30.12c-2.64,19.4-5.5,38.68-7.08,58.22-1.62,19.78-2.74,39.62-5.12,59.32-1.2,9.94-1.64,22-6.62,30.94-2.26,4.06-5.68,7.22-10.38,8-4.5.74-9.18-.74-11.2-5.06-.44-1-1.86-.12-1.42.82,2.62,5.6,9.3,7.08,14.88,5.38,7.1-2.16,10.68-9.28,12.48-16,2.84-10.56,3.72-21.9,4.84-32.76,1.2-11.58,2.06-23.2,2.94-34.82,1.8-24.18,4.7-48,8-72.06,1.58-11.42,2.9-22.9,2.86-34.44a132.73,132.73,0,0,0-1.06-16.2m46.34-18.12c-5.6-1.72-11.3.2-15.54,4.1-5.44,5-7.32,12.52-8.44,19.54-3,18.64-5.22,37.42-7.72,56.14-5.1,38-9.7,76.1-11.54,114.4-.32,6.46-1.76,16,4.06,20.72,3.66,2.94,9.68,3,12.12-1.42.5-.92-.9-1.74-1.4-.82-1.8,3.24-6.06,3.34-9,1.5-3.74-2.38-4.42-7.36-4.48-11.42-.12-7.4.6-14.88,1.08-22.26,1-15.86,2.48-31.7,4.2-47.5,3.44-31.64,7.92-63.16,12.26-94.7,1.08-7.82,1.54-16.16,4.2-23.66,2.86-8.08,10.46-15.9,19.76-13,1,.3,1.4-1.28.4-1.58" fill="#231f20"/><path d="M424.06,211.1c-4.72,0-4.74,7.36,0,7.36s4.74-7.36,0-7.36m13,7.14c-4.72,0-4.74,7.36,0,7.36s4.74-7.36,0-7.36m7.14-10.72c-4.72,0-4.74,7.36,0,7.36s4.74-7.36,0-7.36m10.06,9.42c-4.72,0-4.74,7.36,0,7.36s4.74-7.36,0-7.36m19.82-2.6c-4.72,0-4.74,7.36,0,7.36s4.72-7.36,0-7.36m16.22-.66c-4.72,0-4.74,7.36,0,7.36s4.74-7.36,0-7.36m-28.56-8.44c-4.72,0-4.74,7.36,0,7.36s4.74-7.36,0-7.36m18.18.34c-4.72,0-4.74,7.36,0,7.36s4.74-7.36,0-7.36" fill="#231f20"/><path d="M251,118.58c-4.72,0-4.74,7.36,0,7.36s4.72-7.36,0-7.36m14.24,7.14c-4.72,0-4.74,7.36,0,7.36s4.74-7.36,0-7.36m1.44-13.54c-4.72,0-4.74,7.36,0,7.36s4.74-7.36,0-7.36m15,9.26c-4.72,0-4.74,7.36,0,7.36s4.74-7.36,0-7.36m12.84-10.7c-4.72,0-4.74,7.36,0,7.36s4.74-7.36,0-7.36m2.86,13.56c-4.72,0-4.74,7.36,0,7.36s4.74-7.36,0-7.36m9.26-9.28c-4.72,0-4.74,7.36,0,7.36s4.74-7.36,0-7.36m13.54-10.7c-4.72,0-4.74,7.36,0,7.36s4.74-7.36,0-7.36m0,14.26c-4.72,0-4.74,7.36,0,7.36s4.74-7.36,0-7.36M338,109.32c-4.72,0-4.74,7.36,0,7.36s4.72-7.36,0-7.36" fill="#231f20"/></svg>
