<?xml version="1.0" encoding="utf-8"?>
<!-- Generator: Adobe Illustrator 21.1.0, SVG Export Plug-In . SVG Version: 6.00 Build 0)  -->
<svg version="1.1" id="Layer_1" xmlns="http://www.w3.org/2000/svg" xmlns:xlink="http://www.w3.org/1999/xlink" x="0px" y="0px"
	 viewBox="0 0 4685 2545.6" style="enable-background:new 0 0 4685 2545.6;" xml:space="preserve">
<style type="text/css">
	.st0{fill:#FFFFFF;}
</style>
<title>breadpudding</title>
<path d="M3277.2,1368.6c-49.6-5-185.5,11.5-218.6,26.3c7.2,12.6,14.5,24.9,21.5,37.4c11.7,20.8,24.5,41.1,34.3,62.8
	c9.5,21,17,43.2,16.8,66.9c-0.5,48.2-27,79.4-67,101.6c-5.5,3-11.6,5-17.1,8.1c-24.7,14.1-50.9,18.6-78.9,13.3
	c-4.6-0.9-9.6-0.1-14.1-0.1c-15.5,42.9-42.5,71.9-86.9,82.2c-3.4,0.8-6.8,1.9-10.1,3.1c-23.8,8.9-47.7,11.5-71.9,1
	c-27-11.7-50.1-27.8-66.4-53.1c-34.6-53.6-40.1-112.8-35-174.2c0.9-11.2,1.6-22.4,3-33.6c3.8-29.2,8-58.4,11.9-87.6
	c0.9-6.7,1.2-13.5,1.9-21.1c-24.5-0.8-44.9,4.8-58.2,23c-20.7,28.4-50,36.5-82.1,40.3c-6.3,0.7-12.5,1.8-18.8,2.5
	c-3.4,0.4-7.5,1.4-10.2,0.1c-15.8-7.6-31.6-15.2-46.5-24.2c-4.7-2.8-7.9-9.5-10.1-15.1c-4.3-11-5.8-23.3-11.2-33.7
	c-12.2-23.6-17.4-48.8-20.6-74.8c-7.8-64.2-5.7-127.9,9.9-190.8c4.4-17.5,11.8-34.3,17.7-51.5c1.1-3.1,1.7-6.4,3.5-13.3
	c-12.5,4.4-21.8,8.9-31.7,11c-13.5,2.8-28,7-41.1,4.9c-24.1-3.9-38.6-24.3-39.4-52.9c-0.5-17.5,0.6-35.5,4.4-52.5
	c8.7-39.1,18.9-77.8,29.5-116.5c7.8-28.4,17.6-56.3,25.6-84.7c3-10.5,3.3-21.8,4.7-31.6c-13.1-10.4-26.2-10.2-38.4-7.8
	c-21.3,4.3-42.9,8.7-62.9,16.7c-15.9,6.4-30.3,17.2-44.2,27.6c-40.8,30.6-67.3,72.9-92,116.5c-19.2,33.8-33.4,69.5-40.6,107.8
	c-3.9,20.7-8.6,41.1-12.6,61.8c-2.8,14.5-15.8,25.1-29.9,23.5c-15.3-1.7-27-15.2-24.6-30.6c2.8-18,7.9-35.6,11.1-53.6
	c12.4-69.9,24.6-139.9,36.5-209.9c1.1-6.7,0.2-14-0.8-20.9c-2.6-18.8-12.1-24.7-29-15.3c-15.8,8.8-30.9,19.6-44.4,31.5
	c-35.6,31.4-55.9,73.4-76.4,115c-10.6,21.4-18.6,44-28.9,65.6c-17.4,36.6-26.1,75.4-31.9,115.2c-1.4,9.5-4.4,19.4-9.2,27.6
	c-7,12-19.3,15.3-31.1,10.9c-12.7-4.8-18.9-15.8-16.6-30.3c5.6-36.1,11.8-72.1,17-108.3c2.8-19.3,4.1-38.8,6.4-62.2
	c-7.1,4.9-11.6,6.7-14.4,10.1c-24.4,29.5-53.2,53.2-86.4,72.7c-26,15.3-50.5,32.8-79,43.4c-26.3,9.7-52.5,18.8-81.4,16.7
	c-31.5-2.3-70.5-30.9-73.7-59.5c-1.1-10.3-4.7-20.3-7.5-31.8c-18.3-0.3-34.3,8-50,14c-21.1,8.1-39.8,21.7-52.9,40.6
	c-16.7,24.1-38.4,43.3-61.9,59.7c-18.8,13.1-40.7,21.7-61.4,32c-9.1,4.5-16,1.1-21.7-6.9c-11.3-16-12-34.5-11.9-52.6
	c0.1-17.4,2.5-35,5-52.3c6-41.6,10.9-83.5,19.8-124.5c5.9-27.1,18.9-52.7,27.3-79.4c5.4-17.3,9.7-35.3,11.9-53.3
	c8.1-67,15.2-134.1,22.7-201.2c1.3-11.5,4.5-21.9,16-28c8.1-4.2,15.6-6.4,23.5-0.1c7.7,6.1,11.8,13.4,10,23.8
	c-6.9,39.3-14.1,78.6-19.9,118c-3,19.9-3.3,40.2-5.1,63.9c8.6-2.6,14.7-3.4,19.8-6.1c18.2-9.8,37.8-10.5,57.5-9.7
	c26.8,1.1,57,34,61.6,54c8.2,35.3,5.9,70-6,103.8c-7.4,21.1-17,41.4-25.4,62.1c-0.4,1,0.4,2.6,0.9,5.3c16.2-0.9,31.2-6.2,45.2-13.9
	c4.5-2.5,8.3-7.8,10.4-12.8c20.3-48.4,47.9-92.1,82-131.9c15.9-18.6,29.4-39.4,46.5-56.7c25.8-26.3,55.6-46.7,94-51.2
	c38.1-4.5,59.5,14,59,52.2c-0.5,39.4-17.4,71.1-43.9,99.4c-44.3,47.3-100.4,76-157.4,103.7c-11.9,5.8-23.9,11.4-35.4,17.9
	c-4,2.3-7.5,6.4-9.7,10.6c-9.4,18.1,2.1,48.5,20.7,57.7c19.6,9.7,39,8.3,59.5,2.9c43.4-11.4,82.3-32.5,117.7-58.5
	c58.8-43.2,97.8-99.9,106.2-174.6c1.6-14.3,6.2-27.3,21.5-33.6c8.7-3.6,16.9-3.7,23.8,2.4c6.9,6.1,11.3,13.2,9,24
	c-7.3,34.2-17.2,68.1-15.4,103.6c0.1,2.6,0.2,5.1,0.6,12.7c8.2-12.3,14.6-20.3,19.3-29.2c24.7-46.9,55.2-88.9,96.9-122.4
	c21-16.9,45.3-25.7,71.1-30.1c22.7-3.8,47,7.4,51.6,36.7c4.1,26.4-1.2,51.8-4.4,77.6c-0.5,3.7-0.1,7.5-0.1,16.8
	c12.5-15.1,21.7-26.2,30.8-37.3c56.8-69.3,129.3-108.8,219.3-114c18.8-1.1,36.6,3,47.9,20.6c9.1,14.1,9.3,30.1,5.5,45
	c-6.9,27-16.4,53.4-24.6,80.1c-5.2,16.8-11.1,33.4-14.9,50.6c-8.4,37.7-15.6,75.7-23.4,113.5c-0.1,0.7-0.2,1.4-0.4,2.1
	c-1.7,10.9-0.9,22.3,8.3,28.8c8.9,6.3,19,1.1,27.7-4c53.3-30.7,95.5-73.2,131.3-122.8c43.7-60.5,70.9-128.7,95.1-198.7
	c7.7-22.2,10.6-44.9,15.2-67.5c1.7-8.3,6.9-17.1,12.9-23.2c10.4-10.5,23.3-8,32.4,4.2c10,13.4,11.6,26.8,5.7,43.4
	c-6.6,18.3-10.3,38-12.5,57.4c-10.7,96.7-10.9,193.7-9.6,290.8c0.7,51.1,0.9,102.3-0.6,153.3c-1.7,59-4.8,118.1-22.6,175.1
	c-0.8,2.5-0.4,5.3-0.6,7.9c18.2,0.8,20.5-0.1,24-13.2c3.2-12.2,5.5-24.6,7.9-37.1c7.2-38,13.5-76.1,21.5-113.9
	c3.2-14.9,8.9-29.6,15.5-43.3c3-6.2,10.5-12.2,17.1-13.9c6.5-1.7,16.2-0.2,21.3,4c3.8,3.1,4.4,12.9,3.1,19
	c-11.2,53.3-23.4,106.4-34.8,159.6c-1.5,7.2-0.2,14.9-0.2,23.5c9-0.5,16.9,0.3,24.1-1.5c36.4-9,74-8.5,110.9-13.5
	c25.2-3.4,49,1.6,71.9,11.5c4.7,2,8.6,7,11.8,11.4c4.1,5.6,7.1,11.9,10,16.9c22.8-5.5,44.2-12.2,66.1-15.6
	c31.1-4.8,62.6-7.4,94-10.7c30.8-3.2,61.6-6.3,92.4-8.9c25.8-2.2,51.7-3.8,77.6-5.3c12.3-0.7,24.4,1,30.5,13.9
	c5.7,12,1,26.2-11.3,37.8c-51.3,48.3-89.1,106.1-121.8,168.1c-16.9,31.9-30.5,64.6-39.1,99.6c-4.3,17.7-4.5,18.5,5.2,39.2
	c19.2,0,33.7-11.4,47.7-22.6c24.8-19.9,42.7-46.2,63.2-70.1c11.2-13,16.5-28.4,21-45.2c17.1-65.2,35.8-129.9,67.1-190.1
	c5.9-11.3,9.7-22.9,22.1-29.5c10.4-5.6,20.3-7.1,29.6,0.1c9,7,12.4,17.8,9.4,28.6c-12.4,44.5-25,88.9-38.7,132.9
	c-4.1,13.2-12.5,25.1-18.3,37.9c-4.6,10.1-8.4,20.5-9.6,34.2c5-2.8,10.6-4.8,15-8.4c31.1-25.3,61.1-52,93.1-76
	c30.8-23.1,63.6-43.6,95.8-64.8c21.2-14,43.8-25.1,68.6-32c28.8-8,57.7-13.3,87.5-8.7c12.3,1.9,24,0,34.9-5.1
	c21-9.7,41.6-20.4,62.6-30c11.8-5.4,24.1-9.6,38.5-15.2c0.6,18.2-9.5,25.3-19.6,32.2c-15.6,10.7-31.6,20.8-47,31.7
	c-12.7,9-13.6,11.2-6.1,24c29.9,51.6,14.5,98.3-14.8,143.5c-7.9,12.2-16.7,23.9-25.9,35.3c-20.7,25.8-49.4,41.6-76.9,58.2
	c-24.5,14.8-52.8,13.1-80.1,8.7c-28.8-4.6-43.7-26.6-49.3-51.9c-6.7-30-0.5-59.4,16.8-86.3c21.4-33.2,48-60.5,81.3-81.4
	c1.5-1,2.3-3.2,4.7-6.6c-13.6-2.8-23.9,3.7-33.3,8.7c-14.9,7.8-28.8,17.5-42.6,27.1c-51.3,35.8-99.9,74.8-145.5,117.8
	c-13.7,12.9-29.8,23.3-45.7,33.6c-13.5,8.8-29.3,10-44.9,8.1c-10.7-1.3-17.2,0.6-24.6,10.2c-22.2,29-47.5,55.1-77.3,77
	c-14.6,10.7-30.6,16.9-46.8,22.9c-16.8,6.3-33.9,2-49.2-5.1c-12.3-5.7-19.6-17.2-22-31.6c-5.4-33.5,5.1-64.2,16.4-94.4
	c21-56.1,50.1-108.3,83.6-157.8c10.6-15.7,22.7-30.4,33.8-45.7C3268.8,1382.4,3272.1,1376.6,3277.2,1368.6z M2669,965.9
	c-32.4,0.4-57.8,15.4-82.2,31.8c-18.5,12.4-36,26.1-47.6,46.2c-6.9,12-17.9,21.7-24.3,33.9c-15.7,30-24.5,62.1-28.7,95.9
	c-6.3,49.8-6.7,99.4,2.7,148.6c3.6,19,11.4,37.6,19.5,55.4c7.5,16.5,11.6,17.5,28.2,13.2c29.1-7.6,58.2-15.6,87.2-23.7
	c3.7-1.1,8.6-3.4,10-6.5c7.7-17.2,16.3-34.3,21.1-52.4c10.4-39.6,13.6-80.3,14.4-121.1c1-54.8,1.8-109.6,2.1-164.4
	C2671.4,1003.9,2669.8,985.1,2669,965.9z M2885.7,1360.7c-36.5,6.5-75.1,13.2-113.6,20.1c-13.4,2.4-21,9.7-21.1,24.3
	c-0.1,6.9-2.6,13.7-3.9,20.6c-8.4,45.4-18.5,90.5-15.7,137.4c2.5,43,3.8,86.3,29.1,123.3c15,22,32.8,41,62.5,45.3
	c38.5,5.7,82.1-24.5,98.8-55.7c4.6-8.7-0.3-14.4-4.2-21.1c-6.2-10.8-14.3-21.6-16.5-33.3c-2.9-15.6-3.8-32.7-0.5-48.1
	c9.5-45.3,21.5-90.1,32.5-135c4-16.4,8.9-32.6,11.5-49.1c2.5-15.6-1.6-20.6-16.6-23.4C2914.8,1363.5,2901.5,1362.6,2885.7,1360.7z
	 M1364.8,984c21.7,2,39.7-6.7,57.7-13.9c7.2-2.9,13.9-9,18.8-15.3c23.2-29.3,34.5-64.4,44.4-99.5c6.7-23.7,7.4-48.7-1.8-72.7
	c-11.3-29.4-41.5-39.2-66.7-20.2c-21.2,15.9-38.7,35-34.5,65c0.3,2,0.1,4.2-0.2,6.2c-5.9,40.3-12,80.6-17.5,121
	C1363.7,964.1,1364.8,973.8,1364.8,984z M2994.5,1408.6c-3.1,9.7-5.7,17.6-8,25.5c-14.3,48.9-33.7,96.6-36,148.3
	c-1.3,30.3,4.3,58.9,50.3,51.8c1.4-0.2,2.8,0,4.2-0.1c56.8-2.9,88.8-53.1,68.7-105.7c-13.4-35.1-32.6-66.8-52.5-98.2
	C3015.3,1421.2,3008.9,1411.6,2994.5,1408.6z M3769.6,1459.3c0-3.5,0.2-7.1,0-10.6c-2-29.1-16-36.8-41.9-24.4
	c-19.2,9.3-35.7,21.5-51.7,35.6c-19.1,16.9-36.4,35.1-50.5,56.3c-9.5,14.4-14.6,30.4-15.4,47.5c-0.7,16.8,10.6,32.3,23.9,32.2
	c18.5-0.1,37.3-2.6,52.1-14.1c18.2-14.2,37.3-28.5,51.3-46.5C3754.4,1513.6,3769.6,1489.2,3769.6,1459.3z M1608.2,893.1
	c5.7,1.4,6.5,1.9,7,1.7c53.3-22.5,102.5-51.8,144.8-91.3c15.7-14.7,28.9-32.7,33.3-54.8c2.6-13.1,6.2-27.9-6.6-37.1
	c-11.6-8.4-25.1-2.8-35.5,4.1c-14.5,9.7-29,20.2-40.7,32.9c-22.4,24.1-44.3,49-63.5,75.6C1632.1,845,1621.6,868.9,1608.2,893.1z
	 M2666.7,935.1c5.3-19.2,4.9-89.4-1.6-104.2c-10.2,20.1-20.6,38.9-29.4,58.4c-9,20-28.1,34.1-35.2,58.6
	C2624.3,943.3,2645.3,939.2,2666.7,935.1z M1378.4,1038.5c-20.2-2.4-20.2-2.4-22.4,15C1364.3,1047.9,1371.4,1043.2,1378.4,1038.5z"
	/>
<path d="M3423.6,952.6c27.2-14.4,47.2-35.4,66.2-57.5c3.6-4.2,6.4-9.2,10.1-13.4c32-36.6,60.7-75.2,84-118.2
	c17.3-32,38.8-61.8,59.6-91.8c4.7-6.8,13.8-12.5,22-14.5c21.6-5.4,34.9,9.5,29.3,31.6c-5.8,22.4-12.2,44.7-18.4,67
	c-2.4,8.6-4.7,17.3-4.3,28.1c3-2.9,6.6-5.3,8.8-8.7c20.7-31.9,43.4-62.3,70.2-89.2c15.6-15.6,34-27.2,56.3-31.4
	c21.2-4.1,35.7,8.6,33.7,30.5c-1.1,12.6-3,25.3-6.7,37.3c-10.8,34.8-22.8,69.3-34.2,103.9c-3,9.1-5.8,18.2-8.8,27.2
	c1.4,0.7,2.7,1.3,4.1,2c18.2-27.3,36.1-54.7,54.5-81.9c16.9-25,33.8-50,51.7-74.2c5.2-7,13.5-12.2,21.2-16.7
	c9-5.3,23.1-1.7,30.5,6.2c7,7.4,8.2,22.7,2.7,31.6c-8.7,14.3-18.7,28-25.8,43.1c-25,53.4-42.3,108.8-39,168.8
	c0.2,3.5,0,7.1,0.5,10.5c3.5,21.5,21.8,33,44,25.3c21.8-7.6,43.3-16.8,63.6-27.8c8.4-4.5,14.9-14.6,19.6-23.5
	c13.5-25.4,22.3-53.5,41.9-75.2c15.4-17.1,31.9-33.7,49.7-48.2c12.1-9.9,15.8-20.7,14-34.9c-1.5-11.8-4.2-23.6-4.7-35.5
	c-0.7-18.4,7.8-28,25.1-34.2c35.3-12.6,69.7-3.2,99.9,11.6c32.1,15.7,53.9,44.4,57.6,82.8c1.1,11.1,2.6,22.1,4.6,38.4
	c7.7-9.7,12.6-15.9,17.5-22.2c24.2-31.8,46.9-64.9,73.1-95c21.3-24.5,49.2-42,80.4-52.4c19.3-6.4,39.4-5.5,57.5,3.7
	c6.5,3.3,12.4,11.8,14.5,19.1c2.4,8.4,2.2,18.7-0.3,27.1c-9.3,31.6-19.4,62.9-30.5,93.9c-13.2,36.8-19.2,74.5-16.8,113.4
	c2.6,42.4,34.9,66.8,70.2,72.7c21.4,3.6,43.2,4.9,64.7,8.4c13.6,2.3,27.1,6.2,40.2,10.7c3.5,1.2,7.8,7.3,7.4,10.6
	c-0.4,3.6-5.5,8.4-9.3,9.4c-10.1,2.7-20.7,4.1-31.2,5.2c-47.4,4.9-94.2,3.8-138-18c-21.5-10.7-36.2-28.5-45.8-50.5
	c-17.5-40-15.7-81.2-5.3-122c9.6-38.1,21.9-75.6,32.8-113.3c1.9-6.6,3.2-13.4,4.6-19.3c-9.2-8.4-15.6-3.6-22,1
	c-41.2,29.4-74.6,65.6-98.7,110.5c-19.6,36.5-42.1,71.5-61,108.3c-15.3,29.9-27.9,61.4-40.1,92.7c-5.2,13.4-11.6,23.5-25.8,28.1
	c-12.4,4.1-29.7,2.6-34.8-6.3c-5.7-10.1-8.5-21.7-2.3-33.6c8.7-16.8,18.1-33.4,24.6-51.1c18.9-51.6,26.1-104.7,17.3-159.6
	c-5.4-33.9-26.9-51-57.7-59.4c-12.8-3.5-20.3,3-19.8,16.4c0.2,4.9,0.9,9.8,1.9,14.6c9.4,42.1,7.8,85,6.9,127.6
	c-0.7,33.3-10.2,65.1-29.1,93.3c-11,16.4-29,23.8-45.2,33.5c-11.9,7.1-24.2,9.8-38.2,8.9c-18-1.2-32.9-6.9-43.2-22.3
	c-1.6-2.3-3.3-4.6-5.2-6.7c-10.6-11.8-12.1-11.3-27.1-5.2c-18.8,7.7-37.8,15.4-57.5,20.1c-13.3,3.2-28.3,3.3-41.8,0.9
	c-19.6-3.4-34.7-15.6-43.5-33.7c-8-16.3-14.4-33.2-12.5-52.3c1.6-16.3,1.7-32.8,2.6-53.8c-5,6.3-7.4,8.6-8.9,11.4
	c-25.9,48.2-51.6,96.5-77.5,144.7c-6.3,11.8-12.8,23.4-19.6,34.9c-6,10.1-17.7,14.5-29.2,11.5c-12.7-3.3-22.6-13.2-21.1-25.2
	c2.4-19.4,5.4-39.2,11.3-57.8c20.4-65,42.1-129.5,63.4-194.2c6.6-20,13.5-39.9,19.8-59.9c1.7-5.5,1.9-11.5,2.8-17.3
	c-1.5-0.8-3-1.6-4.5-2.4c-8.5,8.9-17.9,17-25.2,26.7c-10.9,14.3-21,29.4-30.4,44.8c-14.3,23.3-29.8,46.2-40.9,71
	c-14.2,31.9-31.5,62.7-39.8,97.3c-3.9,16.3-10.3,32.2-17.4,47.4c-6.8,14.6-15.6,28.1-18.7,44.3c-2,10.6-10.5,16.3-19.9,20.2
	c-20.1,8.3-38.7-4.2-35.1-25.4c4.6-26.9,11.6-53.3,18.5-79.7c12.6-48.2,26-96.3,38.9-144.4c1.4-5.3,1.6-11,2.6-18.5
	c-11.6,5.9-17.2,14.9-22.1,24.4c-17.7,33.8-39.6,64.4-66.7,91.5c-17.3,17.3-30.5,39.1-49.1,54.7c-35.1,29.7-65.5,65.6-108.9,85.1
	c-16.4,7.4-32.9,8.2-49.3,3.9c-10.9-2.8-18.3-0.7-27.1,5.6c-40.5,28.7-85.1,49.9-133.5,60.1c-44,9.3-91.2-9.9-108.6-58.3
	c-16.3-45.5-18.5-92.2-13.9-139.5c6.9-70.1,19.9-139.1,34.7-207.9c10.5-48.7,18.2-98,27.1-147c1.9-10.3,3.3-20.7,5.1-31.1
	c2.4-13.6,20.4-27,34.2-25.6c10.6,1,17.2,9.9,15.7,23.1c-1.3,11.9-3.5,23.7-6,35.4c-12,55.5-25.5,110.8-36.2,166.5
	c-10,52.3-22,104.1-26.8,157.7c-3.6,41.1-4.9,81.2,2.2,121.6c4.3,24.2,13.8,45.1,37.8,57.3c16.8,8.5,33.1,6,49.2,1
	c31.8-9.8,60.3-26.4,88.4-44c19.9-12.5,25.9-28.4,25.1-50.7c-1.4-38.3,10.1-75,18.8-111.8c4-17,8-34.2,14-50.6
	c12.7-34.8,25.8-69.6,40.5-103.6c8.6-20,22.4-34.5,47.7-35c27.6-0.5,45,14.8,58.7,34.8c12.1,17.6,16.3,38.5,17,60.2
	c1.3,34.8-1.1,69.1-15.9,101.1c-8.5,18.4-20,35.4-30.1,53C3429.2,942.1,3426.4,947.4,3423.6,952.6z M3329.9,978.1
	c3.3,0,5.1,0.5,6-0.1c4.6-3.2,9.2-6.5,13.4-10.3c24.7-22.2,44.2-48.2,60.5-77.2c18.5-33,28.5-67.3,24.1-104.9
	c-2.4-20.3-9.5-39.1-28.4-50.2c-3.5,1.8-5.6,2.5-7.1,3.8c-14.2,12-17.2,30.5-25.4,45.9c-5.5,10.3-7.1,22.6-11.1,33.8
	c-16.6,45.8-26.9,93-31.8,141.4C3329.4,966.3,3329.9,972.3,3329.9,978.1z M4126,900.5c-20.7,18.5-39.1,34.4-56.8,50.9
	c-5.8,5.4-5.1,13.1-0.8,19.4c4.6,6.7,11.2,7.2,18.6,4.2C4111.1,965.1,4129.2,933.1,4126,900.5z"/>
<path d="M1833.4,1728.5c10-22.3,20.4-44.5,30-67c23.8-56.2,47.4-112.6,70.8-169c4.5-11,7.2-22.8,11.3-34c3.1-8.5,6.4-17.1,11-24.7
	c5.8-9.6,17.5-13.5,27.6-11.1c12.3,3,21.9,13,22.4,25c0.2,6.2-0.5,13-3,18.5c-15.1,33.6-14.6,69.2-9,103.8
	c4.5,28,14.3,55.7,36.6,76.6c24.8,23.2,53.4,32.7,87,28.3c11.1-1.4,22.4-2.6,33.6-2.7c10.4-0.1,18.8,4.3,23.5,15.8
	c-18.5,21.3-45,22.6-68.5,28.6c-25,6.4-50.6,2.5-73.5-10.2c-21.5-11.9-43.3-24.8-56.1-46.6c-12.6-21.4-22.6-44.3-34.7-68.3
	c-3.1,4.5-6.5,8-8.1,12.1c-10,25.4-18.9,51.2-29.4,76.4c-14.9,35.6-29.6,71.4-46.7,106c-7.9,16.1-20.6,30-32.1,44.1
	c-9.3,11.4-22,15.7-35.9,9.3c-12.7-5.9-18.5-16.7-17.3-31c2.4-28.7,4.8-57.4,7.2-86.1c2.1-25,4-50,2.5-77
	c-8.3,8.9-16.1,18.4-24.9,26.7c-21.4,20.1-41.9,41.6-65.4,58.9c-27,19.8-56.7,36.3-85.8,53.1c-27.8,16.1-58.1,21.7-89.4,12.8
	c-26.1-7.5-44.5-25.7-57.3-49.3c-6.9-12.7-6.9-12.4-21-8c-18,5.6-36.1,11.5-54.6,14.8c-49.3,8.6-95.4-16.8-109.3-69.8
	c-5.4-20.8-7.5-43.1-7.4-64.6c0.1-28.7,4-57.4,6.2-86.1c0.4-5.4,0.7-10.9-2.4-18c-5.5,7.6-11.8,14.8-16.4,22.9
	c-16.8,29.2-31.7,59.6-49.9,87.9c-27.3,42.4-45.6,88.6-63.1,135.3c-4.1,11.1-5.7,23.1-8.5,34.7c-3.8,16.1-21.3,27.8-37.2,22.8
	c-17-5.4-27.7-13.7-24.3-33.4c4.8-27.6,8-55.5,12-83.3c1.6-11.4,3.5-22.8,1.4-35.7c-5.1,5.4-11.1,10.2-15.3,16.3
	c-27.8,40.1-61.7,74.9-99.3,105.4c-25.9,21.1-53.8,41.7-86.9,50.1c-40,10.1-93.3-7.8-104.4-57.5c-6.7-30.1-3.1-58.8-0.4-87.9
	c1.8-19.3,8-38.2,12.6-58.7c-12.2-7-25.6-13.2-37.3-21.6c-18.7-13.4-36.4-28.2-54.4-42.6c-3.8-3.1-6.7-7.4-10.8-10
	c-6.8-4.4-13.8-4.1-17.8,3.8c-3.8,7.5-7.7,15.3-9.4,23.4c-7.2,35.1-14.3,70.3-20,105.6c-5.6,34.6-10.1,69.4-14.2,104.3
	c-2.6,22.1-3.7,44.4-5.2,66.6c-1,15.4-14.4,33.4-29.1,38.5c-15.8,5.5-35.4-10.4-32.7-26.9c9.1-55.3,19.2-110.5,27.5-165.9
	c5.7-38.1,8.6-76.7,13.6-114.9c4-30.5,8.6-61,14.4-91.3c1.4-7.5,7.1-15.3,13.1-20.5c15.2-13.3,27.1-10,35.6,8.1
	c0.9,1.9,2.1,3.6,4.1,7.2c24.5-2.7,41.8,10.4,59,27.8c16.6,16.9,37.2,29.9,56.3,44.3c4.4,3.3,9.8,5.6,15,7.6
	c16.7,6.4,16.9,6.1,25.7-10c23.1-42.5,53.6-79.4,91-109.4c29.6-23.8,65.2-36.7,103.9-35.2c35.6,1.4,54.4,26.4,57.6,63.4
	c1.4,16.5-3.5,31.8-12.2,46.2c-18.7,31-44.9,54-76,71.4c-33.7,18.9-68.3,36.3-107.8,39.8c-8.4,0.7-16.8,1.7-25.2,1.4
	c-10.8-0.4-18.4,4.1-20.6,14.2c-4.3,19.8-7.8,39.8-10.5,59.9c-1.2,8.9,0,18.2,0.8,27.3c4,42.3,44.7,52.1,69.3,35.8
	c30.4-20.2,60.8-40.4,85.2-68.3c12.8-14.7,29.4-26.1,41.6-41.2c41.9-51.9,74.2-109.2,92.8-173.7c4.1-14.1,8.4-28.2,12.7-42.2
	c4.2-13.6,16.1-17.5,27.9-19.4c16.6-2.8,27.7,12.2,23.4,31.1c-5.2,23.3-11.4,46.3-16.8,69.6c-4.9,21.2-9.4,42.6-13.6,63.9
	c-1.1,5.7-0.2,11.8,3.8,18.6c6-9.1,12.5-17.9,18.1-27.4c32.8-55.8,65.7-111.4,109.6-159.5c5.2-5.7,8.6-13,14.1-18.3
	c6.4-6.3,13.5-12.6,21.4-16.4c9.4-4.5,20-3,27.4,4.7c7.1,7.3,10.7,16.7,7.1,27.3c-13.1,38.7-22,78.3-27.7,118.7
	c-4.9,34.3-7.4,69.2-1.3,102.9c8.6,47.5,32.7,58.4,73.7,51.6c19.4-3.2,37.8-14.5,55.6-24.2c5.6-3,8.4-12.4,10.9-19.4
	c5.4-15.2,9.3-31,14.8-46.2c11-30.2,31.2-54.6,50.6-79.8c13.1-17,29.7-29.7,46.6-41.7c24.1-17.1,52.4-19.9,80.9-14.3
	c13.5,2.6,21.7,23.1,15.7,38.9c-5.7,15-12.5,30.1-21.4,43.5c-24.9,37.6-54.6,71.2-89.8,99.7c-12.6,10.2-25.5,19.9-38,30.2
	c-14,11.4-16.8,20.3-11.5,34.8c5.5,15.2,18,24.8,33.7,23.9c35.5-1.9,66.6-15.5,94.7-36.9c8.9-6.8,18.5-12.7,27.4-19.5
	c49.5-38.1,91.2-83.4,124.2-136.5c5.1-8.1,8.8-17.8,10.5-27.2c6.4-36.6,12.2-73.2,16.6-110.1c5.3-44.6,14.8-88.7,23.2-132.9
	c4.1-21.4,9.6-42.5,14.7-63.6c5.7-23.4,17.1-33.7,36.9-33.8c14.1-0.1,23.4,8.2,21.8,22.2c-6.7,59.2-2.6,119.6-18.5,177.9
	c-8.9,32.4-15.4,65.4-24.3,97.7c-3.5,12.7-11.8,24-15.8,36.6c-5,16-9.5,32.5-11.4,49.1c-5.6,48.9-9.7,97.9-14.4,146.9
	c-0.3,2.7,0.3,5.4,0.5,8.1C1830.5,1728,1831.9,1728.2,1833.4,1728.5z M862.6,1592.2c4.8,1.7,6.1,2.7,7.3,2.6
	c55.9-6.4,102.6-32.5,142.8-70.2c7.7-7.2,9.9-21.3,12.5-32.7c2.1-9.2-3-15.2-13-18.3c-31.1-9.8-56.5,4.6-76.9,23
	c-22.6,20.4-40.2,46.5-59.3,70.7C870.5,1574.3,867.4,1583,862.6,1592.2z M1530.8,1623.8c20.9-12.2,64.4-58.9,81-86.6
	c1.8-3.1,1.4-7.5,2.1-11.9C1582.1,1531.4,1537.5,1584.1,1530.8,1623.8z"/>
<path d="M736.7,794c-17.1,38.7-30.7,75.6-49.4,109.7c-15,27.3-32.3,53.4-56.2,75.4c-21.7,20-42.7,40.7-66.8,57.4
	c-27.1,18.7-55.5,35.1-90.7,35.3c-29.3,0.2-51.7-10-67.8-34.3c-1.9-2.9-3.5-5.9-6.7-11.4c-4.3,5.2-8.1,8.8-10.8,13.1
	c-8.1,13.2-15.6,26.7-23.6,39.9c-12,19.6-23.6,39.6-36.7,58.4c-19.1,27.3-42.1,51.2-71.4,67.4c-8.6,4.7-20.3,4.5-30.7,5.2
	c-9.4,0.6-13-7.3-16.2-14.4c-8.5-18.7-8.5-38.5-4.4-57.8c11.8-55.2,31.2-107.8,55.1-158.8c14-29.8,26.3-60.5,41.5-89.7
	c23.7-45.5,47.4-91.3,84-128.5c1.8-1.8,2.5-4.7,4.6-8.7c-18.1-5.8-35.7-3.5-52.3-1.3c-30.5,4.2-61.4,9-90.7,17.9
	c-21.8,6.6-42.9,18.1-61.6,31.3c-29.9,21.1-56.5,46.3-74,79.4c-2.9,5.6-5.9,11.1-8.7,16.8c-18.7,37.7-25.4,78.1-28.7,119.8
	c-3.9,49.6-11,99-17.2,148.5c-2.7,21.6-6.2,43.1-9.8,64.6c-1.3,7.5-3.4,15.2-6.6,22.1c-5.3,11.5-17.9,17.3-27.5,14.1
	c-7.6-2.6-14.5-15.9-12.9-26.7c3-19.4,7.3-38.6,9.9-58.1c5-38.3,8.7-76.8,13.9-115c5.3-39,13-77.7,17.5-116.7
	c3.1-27.1,3.1-54.7,3.8-82c0.7-31.6,0.2-63.1,1-94.7c0.1-5.9,2.1-13.5,6.1-17c4.6-4,12.4-5.6,18.8-5.8c7.8-0.2,10.4,6.9,10.2,13.5
	c-0.4,18.2-1.6,36.3-2.2,54.5c-0.3,11.1-0.1,22.2-0.1,33.7c10.5,2,13-5.9,17.5-10.6c15.3-16.4,29.4-34.2,46.1-49
	c41.7-36.9,90.1-61.8,145-71.8c33-6,66.6-9.1,100.1-11.8c20.8-1.7,41.9,0.5,62.8-0.1c15.3-0.4,20.2,10.9,26.3,20.9
	c5.5,9.2,5.3,18.2-1.7,27.5c-4,5.2-6.9,12-8.1,18.5c-6.1,33.8-11.2,67.8-17.2,101.6c-4.4,24.7-8.8,49.4-14.5,73.9
	c-4.5,19.7,1.7,37.8,6.8,55.8c5.5,19.3,32.7,29.1,55.1,19.1c21.1-9.4,40.9-21.8,60.8-33.6c8.4-5,15.6-11.9,23.5-17.8
	c32.7-24.6,55-57.3,74.9-92.6c13.9-24.6,25-50,34.1-76.7c8.2-24.2,13.8-48.2,7.3-74.2c-4.7-18.4,11.4-41.3,29.4-45.2
	c12.6-2.8,33.8,10.8,34.1,25.2c0.8,38.7,23.5,68.8,38.1,101.8c13.9,31.5,27.3,63,36.7,96.2c2.2,7.8,6,15.2,10,25.1
	c9.4-4.6,17.5-7.1,23.9-11.9c40.6-30.2,81.3-60.3,116.6-97.1c27.1-28.3,51.1-57.6,59.5-97.4c4.3-20.5,12.1-40.2,17.7-60.5
	c3.4-12.4,12.9-19,23.1-22.7c19.9-7.3,31.8,3.5,27.8,24.7c-3.1,16.5-8.4,32.5-12.4,48.8c-0.9,3.6-0.1,7.5-0.1,15.9
	c9.9-9.7,16.4-16.8,23.6-23.1c24.2-20.8,50-38.4,83.4-40.2c30.5-1.6,47.2,13.6,50.5,43.3c1.8,16-1.8,30.6-5.7,45.5
	c-10.4,39.4-20.9,78.9-39.1,115.5c-23.2,46.6-51,90-85.2,130.1c-23.5,27.5-49.7,46.5-84,55.6c-7.6,2-11.1,7.7-12.1,15.5
	c-2.6,20.9-6.1,41.7-8.3,62.7c-3.8,36.2-7.2,72.4-10.1,108.7c-1,12.5,0.6,25.3,0.4,37.9c-0.5,21.1-0.5,42.6-18.9,57.9
	c-13.3,11-27.8,9.6-35.9-4.4c-2.6-4.5-3.5-10.8-3.2-16.1c1.9-30.1,3.6-60.3,7.1-90.3c3.4-29.1,9.8-57.9,13.3-87.1
	c4.2-34.1,7-68.5,9.8-102.7c0.5-6.1-1.8-12.4-2.6-18.6c-2-16-5.1-31.9-5.5-47.9c-0.6-23.4,4.1-28.9,27.3-37.8
	c4.6-28,9.3-56.9,14.7-89.7c-6.4,3.6-9.3,4.6-11.5,6.5c-46.7,41.6-93.5,83-146.9,116.1c-10,6.2-14.6,14.5-15.3,25.9
	c-2.3,36.3-17.3,67.9-37.1,97.4c-22.2,33.2-56.5,46.7-93.9,48.7c-29.6,1.7-50.8-18.7-54.7-50.3c-3.3-26.9,9.2-46.3,30.6-60.3
	c29.9-19.6,60.5-38.4,90.9-57.2c15.8-9.8,17.9-12.7,14.1-30.5c-7.1-33.9-19.3-66-34.6-97C754.9,830,746.3,813.2,736.7,794z
	 M1043.5,1008.5c16.4,4.8,26.5-2,35.1-10.3c12.4-12.1,24.1-25.1,35.5-38.2c18.4-21.3,30.9-46.6,46.6-69.6
	c28.1-41.2,39.6-87.6,50.5-134.6c1.9-8.1,1.8-16.8,1.4-25.1c-0.5-12.1-3.6-14.4-15.8-14c-17.9,0.7-31.3,11.6-44.2,21.8
	c-33.1,26.1-49.9,63.4-65.8,101c-18.3,43.4-29.8,88.9-39.3,134.9C1045.4,985.2,1044.9,996.4,1043.5,1008.5z M410.8,790.1
	c-7,5.1-10.6,6.6-12.5,9.3c-15.5,21.7-32.7,42.5-45.6,65.6c-18.4,33-33,68.2-50.5,101.8c-26.5,51-40.7,106.2-55.3,161.1
	c-2.7,10-3.3,20.6,3.4,29.8c14.2-3.5,14.3-3.4,21.7-11.9c31.2-35.4,60.1-72.5,80.7-115.3c16.8-34.7,36.8-68.2,40.9-107.8
	c1-9.8,1.8-19.6,3.3-29.2c4.4-27.8,9.3-55.5,13.7-83.3C411.5,805.2,410.8,799.9,410.8,790.1z M794.4,1018.1c-2.6,0.3-5-0.2-6.5,0.8
	c-23.5,15.3-47.1,30.2-69.9,46.5c-4.6,3.3-8.1,12-7.5,17.8c1,9.7,10.6,12.7,19.1,13.3c6.1,0.4,12.8-0.8,18.4-3.2
	c18.6-8.3,32.8-21.8,39.9-41.2C791.8,1041.5,800,1031.2,794.4,1018.1z"/>
<path d="M423.1,2042.6c-17.3-2.8-23.6,5.2-26.8,17.6c-1.4,5.4-4.3,10.5-5.5,15.9c-4.4,19.6-19.1,24.7-36.3,25.8
	c-12.9,0.9-21.6-5.8-20.1-18.1c2.1-17.3-2.8-35.6,6.5-52c1.3-2.3,1.2-5.5,1.6-8.3c5-40.4,10.3-80.8,14.8-121.2
	c4.3-37.7,7.3-75.5,11.8-113.1c4-32.7,9.5-65.3,14-98c0.8-6,0.1-12.3,0.1-21.8c-14.3,5.8-26.6,10.1-38.3,15.7
	c-40.1,19.4-81.9,34.1-125.3,43.2c-49.9,10.5-100.1,14-149.3-5.5c-22-8.7-37.8-24.2-49.6-43.7c-17.1-28.4,3.9-73.9,34.3-76.1
	c14.4-1,19.5,4,18.5,17.9c-0.2,2.1-0.2,4.3-1,6.2c-12.4,29.9,5.5,42.9,28.1,51.3c29.1,10.9,59.9,15,91.2,8.7
	c49.9-10.1,98.1-25,143.9-47.6c12.5-6.1,25.6-11,38-17.4c12.9-6.7,21.7-16.3,24.4-32c10.3-60.9,24-121,40-180.6
	c14.8-55.4,35.9-107.8,66.5-156.2c15.5-24.5,33.5-46,62.5-56.9c33.3-12.5,77.7-2.3,90.8,25.9c8.8,18.9,15.7,39.6,18.5,60.1
	c7.3,53.3-7,102.9-32.3,149.6c-4.4,8-9.2,15.8-12.9,24.1c-9.9,22.3-27.8,38.3-43.1,56.4c-37.1,44.1-82.9,77.8-130.2,109.6
	c-14.4,9.7-21.3,22.3-24.1,37.6c-4.1,22.7-6.3,45.8-9.2,68.8c-4.1,32.1-8.1,64.2-12,96.3c-4,33.5-7.7,67-11.8,100.5
	c-1.1,8.7-1.4,15.9,7.3,22.2c3.9,2.8,5.4,11.1,5.2,16.8c-0.9,19.6-2.9,39.2-4.7,58.7C407.5,2033.3,407.4,2033.3,423.1,2042.6z
	 M451.2,1569.9c18.3-5.2,30.6-14,42.1-24.1c42.4-37,82.5-75.4,109.8-126.2c25.1-46.7,34.5-94.6,23.6-146c-2.3-11-9.9-21.7-17.3-30.6
	c-9.7-11.6-23.7-11.8-35.2-2.5c-17,13.8-31.9,29-41.7,49.4c-11.3,23.3-22.8,46.2-31,71.1c-20,60.7-36.4,122.2-48.8,184.8
	C451.2,1553,451.7,1560.4,451.2,1569.9z"/>
<path d="M3965.6,1267.1c-26.1-4.8-49.7-0.1-73.3,1.3c-12.5,0.8-24.9,4.6-37.4,6.1c-24.5,3-44.7,15.5-65,27.9
	c-12.5,7.6-26,4.9-39,4.2c-9.5-0.5-14.2-9.9-9.4-19.1c4.1-7.8,10.2-15.8,17.5-20.4c26.8-16.7,54.4-33,85.8-39
	c28.2-5.4,57-7.8,85.7-10.9c12.5-1.4,25.2-1.5,37.8-1.8c9.5-0.2,15.2-2.9,17.7-13.6c3-13,17.2-20.2,35.1-20.6
	c13.7-0.3,20.9,4.9,26.8,19.3c6.4,15.9,9.4,18.7,25.9,17.3c42.9-3.5,85.3,3.5,128,4.8c7.7,0.2,15.5,0.2,23.2,0.3
	c8.6,0.1,15.2,3.2,17.1,12.4c1.8,8.5-3.5,18.7-12,22.2c-4.5,1.9-9.4,3.1-14.2,3.7c-29.9,3.6-59.7,6-90,3.7
	c-29.3-2.2-58.9-1.3-88.4-1.2c-10,0-15.8,4.8-19.2,15.7c-18.9,60.9-39.2,121.4-58.3,182.2c-21.3,67.7-41.6,135.8-63.1,203.5
	c-5.3,16.7-13.4,32.5-19.7,48.9c-4.3,11.3-10.9,16.7-23.8,16.1c-14-0.6-26.3-4.3-30.7-17.7c-4.6-13.9-6.4-28.8-7.9-43.5
	c-1.3-11.7,4.7-17.9,16.1-15.6c13.3,2.7,18.3-4.1,21.7-14.2c9.2-27.3,18.7-54.5,27-82.1c19.6-65.3,38.3-130.9,57.8-196.2
	c7-23.6,15.3-46.7,22.8-70.2C3962.2,1283.3,3963.5,1275.9,3965.6,1267.1z"/>
<path class="st0" d="M2669,965.9c0.8,19.2,2.4,38,2.3,56.9c-0.3,54.8-1,109.6-2.1,164.4c-0.8,40.8-4,81.5-14.4,121.1
	c-4.7,18.1-13.4,35.2-21.1,52.4c-1.4,3.1-6.3,5.4-10,6.5c-29,8.2-58,16.2-87.2,23.7c-16.6,4.3-20.7,3.3-28.2-13.2
	c-8.1-17.7-15.9-36.3-19.5-55.4c-9.4-49.2-9-98.8-2.7-148.6c4.3-33.9,13-66,28.7-95.9c6.4-12.2,17.4-21.9,24.3-33.9
	c11.6-20.1,29.1-33.8,47.6-46.2C2611.2,981.3,2636.6,966.3,2669,965.9z"/>
<path class="st0" d="M2885.7,1360.7c15.8,1.9,29.1,2.8,42.1,5.2c15.1,2.8,19.1,7.8,16.6,23.4c-2.6,16.6-7.5,32.8-11.5,49.1
	c-11,45-23,89.7-32.5,135c-3.2,15.4-2.4,32.5,0.5,48.1c2.2,11.7,10.3,22.5,16.5,33.3c3.9,6.8,8.8,12.5,4.2,21.1
	c-16.7,31.2-60.2,61.4-98.8,55.7c-29.7-4.4-47.5-23.3-62.5-45.3c-25.2-37-26.6-80.3-29.1-123.3c-2.8-46.9,7.3-92,15.7-137.4
	c1.3-6.9,3.8-13.7,3.9-20.6c0.1-14.6,7.7-21.9,21.1-24.3C2810.7,1373.9,2849.2,1367.2,2885.7,1360.7z"/>
<path class="st0" d="M1364.8,984c0-10.2-1.1-19.9,0.2-29.3c5.5-40.4,11.6-80.7,17.5-121c0.3-2.1,0.5-4.2,0.2-6.2
	c-4.2-30,13.3-49.1,34.5-65c25.2-18.9,55.4-9.2,66.7,20.2c9.2,24,8.5,49,1.8,72.7c-10,35.1-21.3,70.2-44.4,99.5
	c-4.9,6.2-11.6,12.4-18.8,15.3C1404.5,977.3,1386.5,985.9,1364.8,984z"/>
<path class="st0" d="M2994.5,1408.6c14.5,2.9,20.8,12.6,26.6,21.8c19.9,31.4,39.1,63.1,52.5,98.2c20.1,52.6-11.9,102.8-68.7,105.7
	c-1.4,0.1-2.8-0.2-4.2,0.1c-46,7.1-51.6-21.5-50.3-51.8c2.3-51.8,21.7-99.5,36-148.3C2988.8,1426.2,2991.4,1418.3,2994.5,1408.6z"/>
<path class="st0" d="M3769.6,1459.3c0,29.8-15.1,54.2-32.1,76.1c-14,18-33.1,32.3-51.3,46.5c-14.9,11.6-33.7,14-52.1,14.1
	c-13.3,0.1-24.6-15.4-23.9-32.2c0.8-17.1,5.9-33.1,15.4-47.5c14.1-21.2,31.3-39.4,50.5-56.3c16-14.1,32.5-26.4,51.7-35.6
	c25.9-12.5,39.9-4.8,41.9,24.4C3769.8,1452.3,3769.6,1455.8,3769.6,1459.3z"/>
<path class="st0" d="M1608.2,893.1c13.4-24.2,23.9-48.1,38.8-68.8c19.2-26.6,41.2-51.5,63.5-75.6c11.8-12.7,26.2-23.2,40.7-32.9
	c10.4-6.9,23.9-12.5,35.5-4.1c12.8,9.2,9.2,24,6.6,37.1c-4.4,22.2-17.6,40.2-33.3,54.8c-42.3,39.5-91.5,68.8-144.8,91.3
	C1614.7,895,1613.9,894.5,1608.2,893.1z"/>
<path class="st0" d="M2666.7,935.1c-21.4,4.1-42.4,8.1-66.3,12.7c7.1-24.4,26.2-38.5,35.2-58.6c8.8-19.5,19.2-38.3,29.4-58.4
	C2671.6,845.7,2672.1,916,2666.7,935.1z"/>
<path class="st0" d="M1378.4,1038.5c-7,4.7-14.1,9.4-22.4,15C1358.2,1036.1,1358.2,1036.1,1378.4,1038.5z"/>
<path class="st0" d="M3329.9,978.1c0-5.8-0.5-11.9,0.1-17.8c4.9-48.4,15.2-95.6,31.8-141.4c4-11.2,5.6-23.5,11.1-33.8
	c8.2-15.4,11.2-33.8,25.4-45.9c1.6-1.3,3.7-2,7.1-3.8c18.8,11.1,26,29.9,28.4,50.2c4.4,37.5-5.6,71.9-24.1,104.9
	c-16.3,29.1-35.8,55-60.5,77.2c-4.2,3.7-8.8,7-13.4,10.3C3335,978.7,3333.2,978.1,3329.9,978.1z"/>
<path class="st0" d="M4126,900.5c3.2,32.7-14.9,64.6-39,74.5c-7.5,3.1-14,2.5-18.6-4.2c-4.3-6.3-5-13.9,0.8-19.4
	C4086.9,934.8,4105.2,918.9,4126,900.5z"/>
<path class="st0" d="M862.6,1592.2c4.8-9.2,7.9-18,13.4-24.9c19.1-24.2,36.7-50.2,59.3-70.7c20.5-18.5,45.8-32.8,76.9-23
	c10,3.1,15.1,9.1,13,18.3c-2.6,11.4-4.8,25.5-12.5,32.7c-40.2,37.7-86.9,63.8-142.8,70.2C868.7,1595,867.3,1594,862.6,1592.2z"/>
<path class="st0" d="M1530.8,1623.8c6.8-39.8,51.3-92.5,83.2-98.5c-0.7,4.4-0.3,8.8-2.1,11.9
	C1595.2,1565,1551.7,1611.6,1530.8,1623.8z"/>
<path class="st0" d="M1043.5,1008.5c1.4-12,1.9-23.2,4.2-34c9.5-46,21-91.5,39.3-134.9c15.9-37.6,32.7-74.9,65.8-101
	c12.9-10.2,26.2-21.1,44.2-21.8c12.2-0.4,15.3,1.9,15.8,14c0.4,8.4,0.4,17.1-1.4,25.1c-10.9,47-22.4,93.4-50.5,134.6
	c-15.7,23-28.2,48.3-46.6,69.6c-11.4,13.1-23.1,26.1-35.5,38.2C1070,1006.5,1059.9,1013.2,1043.5,1008.5z"/>
<path class="st0" d="M410.8,790.1c0,9.8,0.7,15.1-0.1,20.2c-4.4,27.8-9.3,55.5-13.7,83.3c-1.5,9.7-2.3,19.5-3.3,29.2
	c-4.2,39.5-24.2,73.1-40.9,107.8c-20.7,42.7-49.5,79.9-80.7,115.3c-7.4,8.4-7.5,8.4-21.7,11.9c-6.7-9.2-6-19.8-3.4-29.8
	c14.7-55,28.8-110.1,55.3-161.1c17.5-33.6,32.1-68.7,50.5-101.8c12.9-23.2,30.1-44,45.6-65.6C400.2,796.7,403.8,795.2,410.8,790.1z"
	/>
<path class="st0" d="M794.4,1018.1c5.7,13.1-2.6,23.4-6.5,34c-7.1,19.4-21.3,32.9-39.9,41.2c-5.6,2.5-12.3,3.7-18.4,3.2
	c-8.5-0.6-18.1-3.6-19.1-13.3c-0.6-5.7,2.9-14.5,7.5-17.8c22.7-16.3,46.4-31.3,69.9-46.5C789.4,1018,791.8,1018.4,794.4,1018.1z"/>
<path class="st0" d="M451.2,1569.9c0.5-9.5,0-17,1.4-24c12.4-62.6,28.8-124.1,48.8-184.8c8.2-24.9,19.8-47.8,31-71.1
	c9.8-20.4,24.7-35.6,41.7-49.4c11.5-9.3,25.5-9.2,35.2,2.5c7.4,8.9,15,19.6,17.3,30.6c10.9,51.4,1.5,99.4-23.6,146
	c-27.3,50.8-67.4,89.2-109.8,126.2C481.8,1555.9,469.4,1564.7,451.2,1569.9z"/>
</svg>
