<?xml version="1.0" encoding="utf-8"?>
<!-- Generator: Adobe Illustrator 21.1.0, SVG Export Plug-In . SVG Version: 6.00 Build 0)  -->
<svg version="1.1" id="Layer_1" xmlns="http://www.w3.org/2000/svg" xmlns:xlink="http://www.w3.org/1999/xlink" x="0px" y="0px"
	 viewBox="0 0 4924.4 3293.9" style="enable-background:new 0 0 4924.4 3293.9;" xml:space="preserve">
<style type="text/css">
	.st0{clip-path:url(#SVGID_2_);fill:#231F20;}
	.st1{clip-path:url(#SVGID_2_);fill:none;stroke:#231F20;stroke-width:19.0266;stroke-miterlimit:10;}
	.st2{clip-path:url(#SVGID_2_);fill:#FFFFFF;}
</style>
<g>
	<defs>
		<rect id="SVGID_1_" x="86.7" y="36" width="4751.1" height="3221.9"/>
	</defs>
	<clipPath id="SVGID_2_">
		<use xlink:href="#SVGID_1_"  style="overflow:visible;"/>
	</clipPath>
	<path class="st0" d="M1866.6,790.5c46.2-28.3,81.4-61.7,109.8-102.3c6.2-8.8,2.5-18.8-8.5-22.9c-11.4-4.3-24.5-5.9-34.2,2.4
		c-12.8,11-26.2,22.9-34.4,37.2c-13.1,23-22.1,48.2-32.6,72.6C1865.7,779.9,1866.6,783.2,1866.6,790.5 M1621.4,945.6
		c5.3-3,8.9-5,12.4-7.2c23.4-14.4,46-30.3,70.3-43c22.4-11.7,34.5-29.4,41.6-52.6c5.4-17.7,11.7-35.3,19.2-52.1
		c15.6-34.7,15-69.2,0.2-103.4c-8.7-20.1-21.6-23.8-41.5-15.2c-24.4,10.5-38,31.9-49,53.2c-33.8,65.7-52.2,135.9-54.9,210
		C1619.6,938,1620.6,940.7,1621.4,945.6 M2140.7,839.6c6.3-16.2,12.1-32.6,19-48.5c7.9-18.4,15.5-36.9,25.2-54.3
		c17-30.5,33.6-61.6,54.1-89.8c14.6-20.2,34.2-37.3,53.4-53.4c22-18.5,49.8-24.6,77.6-23.6c26.4,1,49.8,10.9,55.9,43.6
		c20.3-16.3,38.6-32.1,58-46.3c29.3-21.4,62.6-34.6,98.1-41.1c30.4-5.5,53.7,7.1,70.8,32.1c2.1,3.1,4.4,6,6.4,9.1
		c4.9,7.9,16.8,11.4,15.2,23.3c-2.1,16.7-1.3,33.4-14.1,48.1c-23.1,26.5-24.7,59.5-22.3,92.8c0.1,1.9,2.2,3.6,4.8,7.6
		c5.6-3.6,12.1-6,16-10.6c21.4-25.8,43.1-51.4,62.9-78.4c21.5-29.4,40.1-60.9,61.7-90.2c18.4-24.9,20.8-53.8,25.2-82.3
		c3.7-24.2,5.3-48.6,8.4-72.9c0.6-4.9,2.7-10.3,5.7-14.3c5-6.8,12.5-13.2,20.8-9c5.7,2.9,11.2,10.2,12.9,16.6
		c8.5,31.5,6.5,62.3-7.2,92.5c-19,41.9-27.1,86.4-29.6,132.1c-1.9,35.7-6,71.5-5.3,107.2c1.2,60.3,5.5,120.5,8.6,180.7
		c0.9,17,1.7,34,3.1,51c4.6,57.8,10.6,115.5,13.8,173.4c2,36.4,0.6,73-0.4,109.5c-0.6,20.7-1.3,41.9-5.7,62
		c-6.3,28.6-11.5,57.4-21.8,85.5c-12.5,34.1-35.5,61.6-49.7,94.3c-5.9,13.6-17,27.1-34.6,31.9c-8,2.2-15.7,8.7-21.7,15
		c-17.5,18.2-38.9,24.1-63,22.1c-18.1-1.5-30.6-9.6-40.8-26.4c-23.2-38.2-38-79.6-46.2-122.5c-8.3-43.6-13.9-88.2-12-133.3
		c1.1-25.9-2.6-51.9-3-77.9c-0.2-16.3,1.4-32.7,2.6-49c1-12.6,3.2-25.2,3.9-37.8c1.4-25,8.7-48.3,19.9-70.4
		c1.8-3.6,7.2-5.5,11.4-8.6c7.5,11,2.7,19.8-0.1,27.4c-15.8,42.7-16.9,87-18.6,131.9c-2.4,61.4,7.8,121.4,13.1,182
		c3.3,36.6,12.3,71.8,24.1,106.4c3.1,9.1,7.7,17.8,12.9,25.9c18,27.6,43.2,32.8,70.6,14.2c13.5-9.2,26.6-19.5,38.1-31
		c31.3-31.4,56.3-67.2,70.7-109.7c3.3-9.8,8.2-19.2,12.1-28.8c3-7.6,8-15.5,7.8-23.1c-0.5-18.8,5.1-36.4,7.7-54.6
		c7.7-52.6,1.5-105.3-0.9-157.9c-0.4-9.7-2.2-19.4-1.7-29c0.9-18.8-1.4-36.6-6.1-55c-3.8-14.6-0.8-30.9-1.4-46.4
		c-0.6-15.4-1.8-30.8-2.7-46.3c-0.7-11.8-1.4-23.5-2.1-35.3c-1.7-28.2-1.4-56.8-5.8-84.6c-5.1-32-4.9-63.7-3.7-95.8
		c1.3-35.4,0.3-71,0.3-109.3c-4.1,3.1-7.2,4.4-9,6.8c-33.8,47.1-67.4,94.4-101.3,141.5c-4.3,6-9.7,11.3-15.2,16.3
		c-10.2,9.3-22.3,18.8-35.9,11.8c-15.7-8-29.5-19.1-29.9-40.7c-0.7-39.1,3.2-77.2,15.1-114.5c1.3-4.1,1.6-8.6,1.6-13
		c0.2-14,0.1-28,0.1-45.6c-6.8-1.3-15.3-5-23.3-4.1c-40.1,4.3-76.7,17.4-106.8,45.6c-15.2,14.2-30.6,27.7-42.2,45.8
		c-15.3,23.7-24.3,49.3-31.2,76c-4.3,16.6-8,33.3-11,50.1c-3.6,19.6-9,38.6-4.9,59.5c4,20.3-7.7,34.1-24.7,35.8
		c-21.1,2.1-39.5-19.2-34.2-39.7c1.1-4.3,1-9.5,3.4-12.9c22.9-32.2,24-71.6,35-107.6c8-26,9.8-53.8,14.5-80.8
		c2.6-14.7,0.2-23.7-20-28.9c-24.9-6.5-47.6,1.6-67.1,16.8c-36.9,28.8-63.8,65.9-84.9,107.3c-10.8,21.1-22.5,42-31.1,64.1
		c-11.7,30.4-21.6,61.7-30.9,93c-9.1,30.7-16.2,62-24.4,92.9c-4.4,16.7-12.1,22.2-24.8,18.5c-16.4-4.9-23.4-17.8-19.3-33.3
		c6.3-23.7,11.6-47.5,10.2-72.6c-1.3-23.5-0.3-47.1-0.3-74.2c-5.5,5.3-9.6,8-12.1,11.8c-12.1,17.8-23.8,35.8-35.5,53.8
		c-9.9,15.2-21.6,28.4-37.5,37.7c-5.1,3-11,5.8-14.5,10.3c-15.4,19.9-37.3,25.9-60.4,30.5c-33.9,6.8-74.3-9.3-92.4-39.1
		c-10.2-16.9-18-35.2-27.5-54c-13.3,3.7-27.3,7.9-37.8,19.6c-2.9,3.3-6.3,6.9-10.2,8.6c-34.5,15.3-55.1,44-75,74.1
		c-12.3,18.6-29.5,33.4-48.9,44.9c-18.7,11.1-51.4,6.8-66.6-9.5c-3.9-4.2-6.6-12-5.9-17.7c3.9-33.9,9.8-67.7,13.3-101.6
		c5.1-49.6,9.7-99.3,12.8-149.1c3.1-50.4,4.5-101,5.9-151.5c0.8-29.8-0.3-59.7,0.2-89.5c0.5-27.5,2.4-54.9,2.8-82.3
		c0.2-13.3-0.5-26.8-2.4-39.9c-1.9-13.1,0.1-19.5,10.4-22.7c13.5-4.1,27.4,0.7,29,12c1.8,12.3,1.1,25.1-0.1,37.6
		c-4,39.3-10.4,78.3-12.9,117.7c-3.2,50.6-3.5,101.3-4.9,151.9c-0.4,15.3-0.1,30.5-0.1,48.6c4.1-3.5,6.6-4.5,7-6.1
		c8.7-34.5,30.8-60.7,55.3-84.3c22.6-21.8,62.9-22.1,83.6-1c9.6,9.7,17.7,23,21.2,36c15.1,56.1,9.5,110.5-18.4,162.1
		c-1.7,3.1-2.6,6.8-3.4,10.4c-0.2,1.1,1.2,2.5,3,6.1c14.5-8.9,29-17.6,43.2-26.7c2.3-1.5,4.3-4.4,5.1-7.1
		c7.2-24.1,15.8-48,20.6-72.6c6.7-34,24.6-61.7,43.6-89.3c8.4-12.2,17-24.6,31.6-30.6c6.1-2.5,12.4-6,18.8-6.6
		c28-2.7,73.2,17.1,75,57.7c0.6,14.2-9.1,29-14.9,43.2c-1.6,3.8-6.4,6.2-9,9.8c-9,12.8-23.8,19.2-31.4,35
		c-6.5,13.6-22.9,22.9-35.8,33c-17.5,13.6-36.2,25.7-53.8,39.3c-5.6,4.3-12.5,10.9-13.1,17c-4.6,47.9,15.3,85.4,72.2,77.5
		c28.1-3.9,52.5-18.3,72.5-37.6c37.2-35.9,69.6-76,90-124.1c14.9-35.1,16.4-72.1,13.8-109.7c-0.7-9.9,0.3-21.1,4.3-30
		c5.4-12.1,20.6-12,26.5-0.3c6.7,13.4,12.7,25.8,10.1,43.6c-7.3,50-10.1,100.6-14.3,151.1c-0.5,5.3,1.3,10.9,2,16.3
		C2137.4,839,2139,839.3,2140.7,839.6"/>
	<path class="st1" d="M1866.6,790.5c46.2-28.3,81.4-61.7,109.8-102.3c6.2-8.8,2.5-18.8-8.5-22.9c-11.4-4.3-24.5-5.9-34.2,2.4
		c-12.8,11-26.2,22.9-34.4,37.2c-13.1,23-22.1,48.2-32.6,72.6C1865.7,779.9,1866.6,783.2,1866.6,790.5z M1621.4,945.6
		c5.3-3,8.9-5,12.4-7.2c23.4-14.4,46-30.3,70.3-43c22.4-11.7,34.5-29.4,41.6-52.6c5.4-17.7,11.7-35.3,19.2-52.1
		c15.6-34.7,15-69.2,0.2-103.4c-8.7-20.1-21.6-23.8-41.5-15.2c-24.4,10.5-38,31.9-49,53.2c-33.8,65.7-52.2,135.9-54.9,210
		C1619.6,938,1620.6,940.7,1621.4,945.6z M2140.7,839.6c6.3-16.2,12.1-32.6,19-48.5c7.9-18.4,15.5-36.9,25.2-54.3
		c17-30.5,33.6-61.6,54.1-89.8c14.6-20.2,34.2-37.3,53.4-53.4c22-18.5,49.8-24.6,77.6-23.6c26.4,1,49.8,10.9,55.9,43.6
		c20.3-16.3,38.6-32.1,58-46.3c29.3-21.4,62.6-34.6,98.1-41.1c30.4-5.5,53.7,7.1,70.8,32.1c2.1,3.1,4.4,6,6.4,9.1
		c4.9,7.9,16.8,11.4,15.2,23.3c-2.1,16.7-1.3,33.4-14.1,48.1c-23.1,26.5-24.7,59.5-22.3,92.8c0.1,1.9,2.2,3.6,4.8,7.6
		c5.6-3.6,12.1-6,16-10.6c21.4-25.8,43.1-51.4,62.9-78.4c21.5-29.4,40.1-60.9,61.7-90.2c18.4-24.9,20.8-53.8,25.2-82.3
		c3.7-24.2,5.3-48.6,8.4-72.9c0.6-4.9,2.7-10.3,5.7-14.3c5-6.8,12.5-13.2,20.8-9c5.7,2.9,11.2,10.2,12.9,16.6
		c8.5,31.5,6.5,62.3-7.2,92.5c-19,41.9-27.1,86.4-29.6,132.1c-1.9,35.7-6,71.5-5.3,107.2c1.2,60.3,5.5,120.5,8.6,180.7
		c0.9,17,1.7,34,3.1,51c4.6,57.8,10.6,115.5,13.8,173.4c2,36.4,0.6,73-0.4,109.5c-0.6,20.7-1.3,41.9-5.7,62
		c-6.3,28.6-11.5,57.4-21.8,85.5c-12.5,34.1-35.5,61.6-49.7,94.3c-5.9,13.6-17,27.1-34.6,31.9c-8,2.2-15.7,8.7-21.7,15
		c-17.5,18.2-38.9,24.1-63,22.1c-18.1-1.5-30.6-9.6-40.8-26.4c-23.2-38.2-38-79.6-46.2-122.5c-8.3-43.6-13.9-88.2-12-133.3
		c1.1-25.9-2.6-51.9-3-77.9c-0.2-16.3,1.4-32.7,2.6-49c1-12.6,3.2-25.2,3.9-37.8c1.4-25,8.7-48.3,19.9-70.4
		c1.8-3.6,7.2-5.5,11.4-8.6c7.5,11,2.7,19.8-0.1,27.4c-15.8,42.7-16.9,87-18.6,131.9c-2.4,61.4,7.8,121.4,13.1,182
		c3.3,36.6,12.3,71.8,24.1,106.4c3.1,9.1,7.7,17.8,12.9,25.9c18,27.6,43.2,32.8,70.6,14.2c13.5-9.2,26.6-19.5,38.1-31
		c31.3-31.4,56.3-67.2,70.7-109.7c3.3-9.8,8.2-19.2,12.1-28.8c3-7.6,8-15.5,7.8-23.1c-0.5-18.8,5.1-36.4,7.7-54.6
		c7.7-52.6,1.5-105.3-0.9-157.9c-0.4-9.7-2.2-19.4-1.7-29c0.9-18.8-1.4-36.6-6.1-55c-3.8-14.6-0.8-30.9-1.4-46.4
		c-0.6-15.4-1.8-30.8-2.7-46.3c-0.7-11.8-1.4-23.5-2.1-35.3c-1.7-28.2-1.4-56.8-5.8-84.6c-5.1-32-4.9-63.7-3.7-95.8
		c1.3-35.4,0.3-71,0.3-109.3c-4.1,3.1-7.2,4.4-9,6.8c-33.8,47.1-67.4,94.4-101.3,141.5c-4.3,6-9.7,11.3-15.2,16.3
		c-10.2,9.3-22.3,18.8-35.9,11.8c-15.7-8-29.5-19.1-29.9-40.7c-0.7-39.1,3.2-77.2,15.1-114.5c1.3-4.1,1.6-8.6,1.6-13
		c0.2-14,0.1-28,0.1-45.6c-6.8-1.3-15.3-5-23.3-4.1c-40.1,4.3-76.7,17.4-106.8,45.6c-15.2,14.2-30.6,27.7-42.2,45.8
		c-15.3,23.7-24.3,49.3-31.2,76c-4.3,16.6-8,33.3-11,50.1c-3.6,19.6-9,38.6-4.9,59.5c4,20.3-7.7,34.1-24.7,35.8
		c-21.1,2.1-39.5-19.2-34.2-39.7c1.1-4.3,1-9.5,3.4-12.9c22.9-32.2,24-71.6,35-107.6c8-26,9.8-53.8,14.5-80.8
		c2.6-14.7,0.2-23.7-20-28.9c-24.9-6.5-47.6,1.6-67.1,16.8c-36.9,28.8-63.8,65.9-84.9,107.3c-10.8,21.1-22.5,42-31.1,64.1
		c-11.7,30.4-21.6,61.7-30.9,93c-9.1,30.7-16.2,62-24.4,92.9c-4.4,16.7-12.1,22.2-24.8,18.5c-16.4-4.9-23.4-17.8-19.3-33.3
		c6.3-23.7,11.6-47.5,10.2-72.6c-1.3-23.5-0.3-47.1-0.3-74.2c-5.5,5.3-9.6,8-12.1,11.8c-12.1,17.8-23.8,35.8-35.5,53.8
		c-9.9,15.2-21.6,28.4-37.5,37.7c-5.1,3-11,5.8-14.5,10.3c-15.4,19.9-37.3,25.9-60.4,30.5c-33.9,6.8-74.3-9.3-92.4-39.1
		c-10.2-16.9-18-35.2-27.5-54c-13.3,3.7-27.3,7.9-37.8,19.6c-2.9,3.3-6.3,6.9-10.2,8.6c-34.5,15.3-55.1,44-75,74.1
		c-12.3,18.6-29.5,33.4-48.9,44.9c-18.7,11.1-51.4,6.8-66.6-9.5c-3.9-4.2-6.6-12-5.9-17.7c3.9-33.9,9.8-67.7,13.3-101.6
		c5.1-49.6,9.7-99.3,12.8-149.1c3.1-50.4,4.5-101,5.9-151.5c0.8-29.8-0.3-59.7,0.2-89.5c0.5-27.5,2.4-54.9,2.8-82.3
		c0.2-13.3-0.5-26.8-2.4-39.9c-1.9-13.1,0.1-19.5,10.4-22.7c13.5-4.1,27.4,0.7,29,12c1.8,12.3,1.1,25.1-0.1,37.6
		c-4,39.3-10.4,78.3-12.9,117.7c-3.2,50.6-3.5,101.3-4.9,151.9c-0.4,15.3-0.1,30.5-0.1,48.6c4.1-3.5,6.6-4.5,7-6.1
		c8.7-34.5,30.8-60.7,55.3-84.3c22.6-21.8,62.9-22.1,83.6-1c9.6,9.7,17.7,23,21.2,36c15.1,56.1,9.5,110.5-18.4,162.1
		c-1.7,3.1-2.6,6.8-3.4,10.4c-0.2,1.1,1.2,2.5,3,6.1c14.5-8.9,29-17.6,43.2-26.7c2.3-1.5,4.3-4.4,5.1-7.1
		c7.2-24.1,15.8-48,20.6-72.6c6.7-34,24.6-61.7,43.6-89.3c8.4-12.2,17-24.6,31.6-30.6c6.1-2.5,12.4-6,18.8-6.6
		c28-2.7,73.2,17.1,75,57.7c0.6,14.2-9.1,29-14.9,43.2c-1.6,3.8-6.4,6.2-9,9.8c-9,12.8-23.8,19.2-31.4,35
		c-6.5,13.6-22.9,22.9-35.8,33c-17.5,13.6-36.2,25.7-53.8,39.3c-5.6,4.3-12.5,10.9-13.1,17c-4.6,47.9,15.3,85.4,72.2,77.5
		c28.1-3.9,52.5-18.3,72.5-37.6c37.2-35.9,69.6-76,90-124.1c14.9-35.1,16.4-72.1,13.8-109.7c-0.7-9.9,0.3-21.1,4.3-30
		c5.4-12.1,20.6-12,26.5-0.3c6.7,13.4,12.7,25.8,10.1,43.6c-7.3,50-10.1,100.6-14.3,151.1c-0.5,5.3,1.3,10.9,2,16.3
		C2137.4,839,2139,839.3,2140.7,839.6z"/>
	<path class="st0" d="M1084.2,965c-6.5,2.1-8.2,2.1-9.2,3c-40.9,38.7-72.8,83.8-93.8,136c-5.8,14.5-11.1,30.3-4.7,48.3
		c4.4-1.5,8.2-1.8,10.8-3.8c16.4-12.7,31.5-26.4,43.2-44.2c24.2-36.4,37.3-77.2,50.6-118.1C1083,980.4,1083,974,1084.2,965
		 M639.8,880.7c-16.8,6.9-24.4,16.2-30.1,28.1c-10.2,21.4-20,43.1-32.2,63.4c-33.6,56.3-50.8,118.2-64.7,181.4
		c-2.5,11.4-1.1,21.8,4.7,32.4c21,4.6,35-6,45.7-21.1c12.9-18.1,25.7-36.5,36.2-56.1c10.8-20.1,21.3-41.1,27.5-62.9
		c13.1-46,14.6-93.8,15.7-141.4C642.7,897.4,641,890.3,639.8,880.7 M1463.4,783.3c0.3-2.2,0.8-4.4,0.9-6.6
		c1.5-24.9-6.3-33.9-30.7-30.4c-42.4,6.1-76.5,26.6-98.8,64.1c-5.3,8.9-9.6,18.5-14.7,27.6c-30.9,55.7-45.1,116.2-52.5,178.7
		c-1.7,14,1.5,19,14.3,24c13.9,5.4,26.7,2.6,37.5-7.1c19.9-17.9,39.3-36.4,58.9-54.6c20.5-19,36.8-40.9,46.3-67.4
		c3.7-10.5,7.1-21.7,13.4-30.6C1459,851.4,1461.7,817.6,1463.4,783.3 M1261.2,1066.7c-1.8,12.3-3.3,22.5-4.8,32.7
		c-8.6,60.6-5.2,121.6-4.8,182.5c0.3,43.1-2.1,86.2-3.5,129.2c-0.2,5.2-0.9,10.4-2.2,15.4c-2.1,8.2-5.6,17.5-15.4,16
		c-8-1.2-16.4-6.1-22.6-11.6c-3.7-3.3-4.8-11-4.7-16.7c0.5-22.9,1.9-45.9,2.9-68.8c0.6-13.4,2.8-27,1.2-40.1
		c-3.7-28.8,3.1-56.2,7.1-84.2c2.7-19,3.3-38.2,5.4-57.3c4-36.9,8.1-73.8,12.6-110.7c1.4-11.5-0.2-21.7-5.4-32.3
		c-10.3-20.6-9.2-21.7,7.3-37.6c4-3.8,7.5-9.6,8.5-14.9c2.7-14.5,4.6-29.3,5.5-44.1c1.3-22.1,1.4-44.3,2-66.5c0.1-5,0-10,0-15.5
		c-9.7-4.2-18-2.8-26.1,1.9c-10.8,6.3-21.6,12.7-32.6,18.6c-27.4,14.6-47.7,37.9-70.7,57.8c-4.2,3.7-5.8,11.8-6.4,18.1
		c-3.9,40.2-12.4,79.3-25.6,117.5c-10.8,31.3-29.9,57.7-48.4,84.6c-14.2,20.5-33.8,35.1-51.3,52c-14.7,14.2-45.8,6.9-49.1-16
		c-0.8-5.9-1.3-11.8-1.3-17.8c0.2-46.8,18.2-88.2,40.2-128c21.1-38.1,48.7-71.5,81.5-99.9c19.7-17.1,24.7-35.2,15.3-59.2
		c-4.9-12.6-9.1-24.9-19.5-34.4c-20.1-18.2-37.9-15.5-52.2,7.7c-19.2,31.3-33.1,64.6-44.9,99.3c-7.3,21.5-19.5,41.6-31.1,61.4
		c-12,20.3-26.7,39.1-39,59.3c-21.9,36.2-51.5,65.9-81.8,94.3c-16.8,15.8-39.8,26.2-61.6,34.9c-23.7,9.4-60.6-9.4-75.3-36.1
		c-9.5-17.4-16.5-36.2-25.2-55.7c-11,2.4-11.7,13.5-16,21.2c-9.6,17.6-19.4,35.1-27.3,53.5c-8.9,21-27,31.8-44.9,41.8
		c-38,21.2-72.5,1.2-75.6-42.5c-1.8-25.8,6.1-50.1,12.8-74.4c6.3-22.9,12.7-45.9,21.6-67.9C530.7,997,547.9,960.8,564,924
		c8-18.2,15.3-36.7,23.6-56.5c-18.2-5-30.9,5.3-45,7.3c-1.4,0.2-2.6,1.4-4.1,1.8c-30.7,8.5-55.4,27.9-81.2,44.8
		c-25.3,16.6-44,40.3-59.6,65.8c-31.4,51.3-46.1,107.4-47.9,167.4c-1.5,51.3-4.4,102.6-7,154c-0.9,17.4-12.1,23.2-27.3,14.8
		c-18.1-9.9-19.5-21.4-14-42.5c5.9-22.8,7.9-46.8,9.6-70.5c4-54.2,6.9-108.4,9.9-162.7c0.7-13.1,0.1-26.3,0.1-41.4
		c20.7,6.1,25-7.1,31.6-21.7c14.2-31.4,34.7-59.2,60.8-82c29.3-25.6,61.3-47.6,98.2-61.1c22.9-8.3,46.5-14.7,69.6-22.7
		c11.9-4.1,23.4-9.3,34.7-14.8c17.5-8.5,35.3-5.8,52.3-0.4c11.4,3.6,25.7,35.9,21.8,47.8c-11.3,34.6-12.1,70.2-13.2,106
		c-0.5,15.5-3.9,31-5.9,46.5c-4.5,36,0.3,71.2,9.4,106c1.7,6.4,4.5,12.7,7.8,18.4c10.1,17.5,27.5,26.5,47,20.9
		c15.4-4.4,31.1-11,43.9-20.4c35.7-26.4,63.1-60.8,87.8-97.5c17-25.3,36.1-49.5,50.3-76.3c17.4-32.7,30.6-67.7,45.8-101.6
		c7.6-17,15.6-33.8,23.5-50.6c15.8-33.4,48.7-39.9,76.7-15.1c15.4,13.7,24.8,31.5,31.8,50.4c5.1,13.8,8.9,28.1,13.9,43.9
		c4.5-2.2,8.5-3.6,11.7-5.8c32.3-22.7,62.7-47.8,99.1-64.6c11-5.1,20-17.7,26.3-28.9c13.8-24.6,31.4-27.7,50.4-6.7
		c3.8,4.2,7.4,8.4,12.2,13.9c6.8-8.5,13.1-14.8,17.6-22.2c29.2-47.1,73.8-66.2,126.6-65c26.6,0.6,38.2,13,42.4,37.5
		c5.7,34.1-1.7,66.8-7.5,99.7c-4.8,27.3-17.8,51.5-32.5,75c-8.5,13.6-13.4,29.5-20.2,44.3c-2.5,5.4-4.6,11.4-8.6,15.5
		c-24.9,26-44.1,56.9-73.8,78.7c-24.9,18.3-49.1,31.2-79.7,14.4C1270.6,1066.6,1267.2,1067.2,1261.2,1066.7"/>
	<path class="st1" d="M1084.2,965c-6.5,2.1-8.2,2.1-9.2,3c-40.9,38.7-72.8,83.8-93.8,136c-5.8,14.5-11.1,30.3-4.7,48.3
		c4.4-1.5,8.2-1.8,10.8-3.8c16.4-12.7,31.5-26.4,43.2-44.2c24.2-36.4,37.3-77.2,50.6-118.1C1083,980.4,1083,974,1084.2,965z
		 M639.8,880.7c-16.8,6.9-24.4,16.2-30.1,28.1c-10.2,21.4-20,43.1-32.2,63.4c-33.6,56.3-50.8,118.2-64.7,181.4
		c-2.5,11.4-1.1,21.8,4.7,32.4c21,4.6,35-6,45.7-21.1c12.9-18.1,25.7-36.5,36.2-56.1c10.8-20.1,21.3-41.1,27.5-62.9
		c13.1-46,14.6-93.8,15.7-141.4C642.7,897.4,641,890.3,639.8,880.7z M1463.4,783.3c0.3-2.2,0.8-4.4,0.9-6.6
		c1.5-24.9-6.3-33.9-30.7-30.4c-42.4,6.1-76.5,26.6-98.8,64.1c-5.3,8.9-9.6,18.5-14.7,27.6c-30.9,55.7-45.1,116.2-52.5,178.7
		c-1.7,14,1.5,19,14.3,24c13.9,5.4,26.7,2.6,37.5-7.1c19.9-17.9,39.3-36.4,58.9-54.6c20.5-19,36.8-40.9,46.3-67.4
		c3.7-10.5,7.1-21.7,13.4-30.6C1459,851.4,1461.7,817.6,1463.4,783.3z M1261.2,1066.7c-1.8,12.3-3.3,22.5-4.8,32.7
		c-8.6,60.6-5.2,121.6-4.8,182.5c0.3,43.1-2.1,86.2-3.5,129.2c-0.2,5.2-0.9,10.4-2.2,15.4c-2.1,8.2-5.6,17.5-15.4,16
		c-8-1.2-16.4-6.1-22.6-11.6c-3.7-3.3-4.8-11-4.7-16.7c0.5-22.9,1.9-45.9,2.9-68.8c0.6-13.4,2.8-27,1.2-40.1
		c-3.7-28.8,3.1-56.2,7.1-84.2c2.7-19,3.3-38.2,5.4-57.3c4-36.9,8.1-73.8,12.6-110.7c1.4-11.5-0.2-21.7-5.4-32.3
		c-10.3-20.6-9.2-21.7,7.3-37.6c4-3.8,7.5-9.6,8.5-14.9c2.7-14.5,4.6-29.3,5.5-44.1c1.3-22.1,1.4-44.3,2-66.5c0.1-5,0-10,0-15.5
		c-9.7-4.2-18-2.8-26.1,1.9c-10.8,6.3-21.6,12.7-32.6,18.6c-27.4,14.6-47.7,37.9-70.7,57.8c-4.2,3.7-5.8,11.8-6.4,18.1
		c-3.9,40.2-12.4,79.3-25.6,117.5c-10.8,31.3-29.9,57.7-48.4,84.6c-14.2,20.5-33.8,35.1-51.3,52c-14.7,14.2-45.8,6.9-49.1-16
		c-0.8-5.9-1.3-11.8-1.3-17.8c0.2-46.8,18.2-88.2,40.2-128c21.1-38.1,48.7-71.5,81.5-99.9c19.7-17.1,24.7-35.2,15.3-59.2
		c-4.9-12.6-9.1-24.9-19.5-34.4c-20.1-18.2-37.9-15.5-52.2,7.7c-19.2,31.3-33.1,64.6-44.9,99.3c-7.3,21.5-19.5,41.6-31.1,61.4
		c-12,20.3-26.7,39.1-39,59.3c-21.9,36.2-51.5,65.9-81.8,94.3c-16.8,15.8-39.8,26.2-61.6,34.9c-23.7,9.4-60.6-9.4-75.3-36.1
		c-9.5-17.4-16.5-36.2-25.2-55.7c-11,2.4-11.7,13.5-16,21.2c-9.6,17.6-19.4,35.1-27.3,53.5c-8.9,21-27,31.8-44.9,41.8
		c-38,21.2-72.5,1.2-75.6-42.5c-1.8-25.8,6.1-50.1,12.8-74.4c6.3-22.9,12.7-45.9,21.6-67.9C530.7,997,547.9,960.8,564,924
		c8-18.2,15.3-36.7,23.6-56.5c-18.2-5-30.9,5.3-45,7.3c-1.4,0.2-2.6,1.4-4.1,1.8c-30.7,8.5-55.4,27.9-81.2,44.8
		c-25.3,16.6-44,40.3-59.6,65.8c-31.4,51.3-46.1,107.4-47.9,167.4c-1.5,51.3-4.4,102.6-7,154c-0.9,17.4-12.1,23.2-27.3,14.8
		c-18.1-9.9-19.5-21.4-14-42.5c5.9-22.8,7.9-46.8,9.6-70.5c4-54.2,6.9-108.4,9.9-162.7c0.7-13.1,0.1-26.3,0.1-41.4
		c20.7,6.1,25-7.1,31.6-21.7c14.2-31.4,34.7-59.2,60.8-82c29.3-25.6,61.3-47.6,98.2-61.1c22.9-8.3,46.5-14.7,69.6-22.7
		c11.9-4.1,23.4-9.3,34.7-14.8c17.5-8.5,35.3-5.8,52.3-0.4c11.4,3.6,25.7,35.9,21.8,47.8c-11.3,34.6-12.1,70.2-13.2,106
		c-0.5,15.5-3.9,31-5.9,46.5c-4.5,36,0.3,71.2,9.4,106c1.7,6.4,4.5,12.7,7.8,18.4c10.1,17.5,27.5,26.5,47,20.9
		c15.4-4.4,31.1-11,43.9-20.4c35.7-26.4,63.1-60.8,87.8-97.5c17-25.3,36.1-49.5,50.3-76.3c17.4-32.7,30.6-67.7,45.8-101.6
		c7.6-17,15.6-33.8,23.5-50.6c15.8-33.4,48.7-39.9,76.7-15.1c15.4,13.7,24.8,31.5,31.8,50.4c5.1,13.8,8.9,28.1,13.9,43.9
		c4.5-2.2,8.5-3.6,11.7-5.8c32.3-22.7,62.7-47.8,99.1-64.6c11-5.1,20-17.7,26.3-28.9c13.8-24.6,31.4-27.7,50.4-6.7
		c3.8,4.2,7.4,8.4,12.2,13.9c6.8-8.5,13.1-14.8,17.6-22.2c29.2-47.1,73.8-66.2,126.6-65c26.6,0.6,38.2,13,42.4,37.5
		c5.7,34.1-1.7,66.8-7.5,99.7c-4.8,27.3-17.8,51.5-32.5,75c-8.5,13.6-13.4,29.5-20.2,44.3c-2.5,5.4-4.6,11.4-8.6,15.5
		c-24.9,26-44.1,56.9-73.8,78.7c-24.9,18.3-49.1,31.2-79.7,14.4C1270.6,1066.6,1267.2,1067.2,1261.2,1066.7z"/>
	<path class="st2" d="M1621.5,943.6c-0.8-4.8-1.8-7.5-1.7-10.2c2.6-73.3,20.8-142.9,54.1-207.9c10.8-21.2,24.2-42.3,48.3-52.7
		c19.6-8.5,32.3-4.9,41,15.1c14.7,34,15.2,68.1-0.2,102.5c-7.5,16.7-13.6,34.1-19,51.6c-7,22.9-19,40.4-41,52
		c-23.9,12.6-46.3,28.3-69.3,42.6C1630.2,938.6,1626.6,940.6,1621.5,943.6"/>
	<path class="st1" d="M1621.5,943.6c-0.8-4.8-1.8-7.5-1.7-10.2c2.6-73.3,20.8-142.9,54.1-207.9c10.8-21.2,24.2-42.3,48.3-52.7
		c19.6-8.5,32.3-4.9,41,15.1c14.7,34,15.2,68.1-0.2,102.5c-7.5,16.7-13.6,34.1-19,51.6c-7,22.9-19,40.4-41,52
		c-23.9,12.6-46.3,28.3-69.3,42.6C1630.2,938.6,1626.6,940.6,1621.5,943.6z"/>
	<path class="st2" d="M1867.2,788c0-7.2-0.9-10.3,0.1-12.7c10.3-23.8,19.1-48.5,31.9-70.9c8-14,21.2-25.6,33.7-36.3
		c9.5-8.1,22.3-6.5,33.5-2.3c10.8,4.1,14.4,13.8,8.4,22.4C1946.9,727.8,1912.4,760.4,1867.2,788"/>
	<path class="st1" d="M1867.2,788c0-7.2-0.9-10.3,0.1-12.7c10.3-23.8,19.1-48.5,31.9-70.9c8-14,21.2-25.6,33.7-36.3
		c9.5-8.1,22.3-6.5,33.5-2.3c10.8,4.1,14.4,13.8,8.4,22.4C1946.9,727.8,1912.4,760.4,1867.2,788z"/>
	<path class="st0" d="M3276.6,607.7c12.6,0.5,14.1-7.9,18.2-13.7c24.2-34.3,41.4-72.1,54.1-111.7c8.7-27.1,11.1-55.4,7.1-83.7
		c-0.8-5.7-6.1-13.4-11-15.1c-4.2-1.4-11.9,3.3-16.3,7.3c-20.8,18.9-29,44.2-33.8,70.9c-4,22.6-8.9,45-11.7,67.8
		C3280,555.3,3278.7,581.4,3276.6,607.7 M4039.8,382.8c-19.2,28.7-37,56.7-56.3,83.8c-16.2,22.8-19.8,47.1-14.6,73.9
		c5.4,27.6,31.9,38.2,52.9,19.1c19.3-17.6,33.4-38.8,40.1-65.4c9.9-39.7-5.4-74.2-18.5-109.5C4043,383.7,4040.9,383.3,4039.8,382.8
		 M4280.5,265.7c-10.6-4.5-15.5,1.5-19.2,8c-16.8,29.7-33.6,59.4-49.7,89.5c-9.8,18.3-19.1,36.9-27.4,55.9
		c-16.3,37.3-20.1,75.9-7,114.8c4.7,13.9,4.3,24-8.6,32.8c-10.9,7.5-16.2,18.5-18.6,31.8c-2.6,14.6-11.7,18.2-24.4,10.4
		c-10.1-6.2-18.2-13-17.6-28c1.4-34.1-1.2-68.4,0.4-102.4c1.6-33.3-5.9-65-13.3-96.6c-5.4-23.1-17.1-35.9-33.9-43.7
		c-5.9,7.4-1,14.1,1.8,20.3c15.9,35,24.3,72,26.4,110c1.8,32.4-3.2,63.8-26.9,89.2c-4.5,4.8-7.9,10.7-11.3,16.4
		c-20.9,34.7-65.9,39.4-93.1,9.5c-9.1-10-18.3-19.7-17.6-34.8c0.2-3-2.9-6.1-5.4-10.8c-14.3,13.2-27.8,24.5-40,37.2
		c-16.4,16.9-36.8,24.8-59,29.4c-18.3,3.8-27.9-11.3-39.4-20.1c-18.2-14-19.4-35.8-19.4-56.7c0-37.9,0.9-75.7,1.2-113.6
		c0-1.8-1.6-3.7-3.9-8.5c-11.5,24.8-21,47.6-26.8,71.7c-10.7,44.8-20.8,89.7-31.7,134.3c-4.4,18-10.8,35.5-15.5,53.4
		c-2.5,9.4-8.2,13.9-17.4,14.2c-8.8,0.3-16.4-2.2-19.5-11.6c-1.8-5.5-4.6-11.2-4.7-16.8c-0.6-27.2,4-54.5-1.1-81.8
		c-1.2-6.2,1.7-13,1.9-19.6c1.3-32.4,1.1-64.9,3.7-97.2c1.9-23.5,7.9-46.7,10.8-70.2c1.5-12.3,0.3-24.9,0.3-37
		c-8.2-4.3-12.5,0.8-14.9,6.1c-9.8,20.8-19.7,41.6-28,63c-9.2,23.5-17.4,47.4-24.9,71.5c-4.8,15.5-6.9,31.7-11.1,47.4
		c-11.3,41.6-22.8,83.2-34.8,124.6c-2.4,8.4-6.9,16.4-11.2,24.2c-7.9,14-13.5,16.4-28.7,14.1c-12.4-1.9-17.7-10.4-18.8-21.7
		c-3.4-34-3.7-67.9,5-101.5c3.4-13.2,3.5-27.3,5.3-42.3c-5.3,0.8-8.6,0.4-9.3,1.5c-23.1,37.3-50.8,71.1-79,104.6
		c-1.9,2.3-3.6,4.8-4.9,7.4c-11,22.5-29.5,37.4-49.1,52.5c-14.1,10.8-27.3,16.3-44.6,15.9c-20.9-0.5-37.3-8.1-49.4-25.3
		c-9.4-13.3-14.3-14.2-23.1-1.4c-18.3,26.7-44,44.2-71.1,60c-27.6,16-62.2,12.9-86.3-10.6c-22.8-22.2-32.5-49-36.2-79.2
		c-4.8-39.1-9.5-78.2-13.9-117.3c-0.9-8.1-0.5-16.4-0.1-24.5c1.5-30.4,3.4-60.8,4.9-91.3c2.4-46.8,4.8-93.6,6.9-140.4
		c1-21.5,3.1-43.2,1.7-64.6c-3.2-49,2.9-98.4-8.3-146.9c-0.5-2.1-0.3-4.5-0.3-6.7c0-8.2-1.2-17.9,10.5-18.6
		c10.2-0.6,13.3,8,15.6,16.2c0.8,2.8,1,5.9,1,8.8c-0.7,55.8-0.6,111.7-2.5,167.5c-1.8,53.4-7.4,106.8-7.9,160.2
		c-0.8,78.7-7.7,157.7,6,236.1c2.7,15.3,5.7,30.8,10.4,45.6c11.1,34.5,46.5,50.6,81.1,38.3c20.8-7.4,38.9-18.7,54.6-34.1
		c8.5-8.3,17.2-16.5,25.7-24.8c8.8-8.7,12.3-17.9,12.1-31.5c-0.7-45.3-0.1-90.6,11.6-135.1c5.1-19.3,6.8-39.4,9.1-59.3
		c3.5-30.2,16.6-56.8,30.4-83.1c2.7-5.2,6.9-9.7,11.2-13.8c10.6-10.2,17.3-8.9,28.8,0.1c29,22.7,35.2,54.2,34.1,87.6
		c-1.8,53-17.9,102.5-43,148.7c-11.6,21.5-27.2,40.8-40.9,61.2c-4,6-7.5,12.3-10.9,17.8c20.1,22.8,37.7,27.7,62.5,13.3
		c19-11.1,37.9-24.8,52-41.4c29.2-34.4,57.8-69.6,80.1-109.3c16.2-28.8,29.4-58.3,33-91.6c2.6-24.3,6.1-48.5,8.2-72.9
		c0.7-7.9-2.6-16-3.1-24.1c-0.5-7.2-1.8-15.6,1.2-21.6c2.8-5.7,10.7-12.3,16.3-12.3c5.6,0,14.5,6.7,16.1,12.2
		c4.1,14,14.4,28.3,2.8,44.1c-2.8,3.8-2.5,10-3.1,15.1c-5.7,49.4-11.7,98.8-16.6,148.3c-3.3,34-4.9,68.2-7.1,102.4
		c-0.2,2.6,1.6,5.3,3.2,10.4c12.6-14.2,17.1-30.2,20.2-45c11.4-54.8,29.6-107.4,47.7-160c10.6-30.8,23.5-60.9,37.3-90.5
		c5.9-12.5,16-23.3,25.5-33.7c11.3-12.4,20.1-15,40.1-14.1c1.9,13.2,6.2,27,5.3,40.5c-2,30.4-5.7,60.7-10.3,90.8
		c-6.4,40.9-14.8,81.4-13.5,123.2c0.3,10.3-2,20.7-2.6,31.1c-0.3,4.7,0.7,9.5,3.1,14.7c8-8.2,11.8-17.5,14.3-28.4
		c9-39.7,14.9-80.8,29.8-118.3c15.8-39.6,27.7-81.8,54.1-116.8c3.9-5.2,5.6-12.2,9-17.9c8.2-13.8,24-15.6,32.8-2.6
		c7.3,10.8,12,24.4,5.3,36.9c-21.8,40.3-30.7,83.6-31.2,128.7c-0.2,23-0.2,46.3,3.1,68.9c4,27.9,15.5,33.7,42.1,27.1
		c22.8-5.6,39.6-20.2,55.8-35.6c11.9-11.3,23.5-23,33.7-35.8c5.9-7.3,10.8-16.7,12.8-25.8c10.9-49.9,38.3-91.1,67.5-131.5
		c1.3-1.8,2.3-3.7,4.1-6.7c-2.2-5.5-5.9-11.3-6.7-17.5c-2.4-18.9,16.8-33.4,35.1-27.3c31.2,10.5,50.3,33.8,63.2,62.2
		c10.1,22.2,20,44.9,20.9,70.2c0.2,7,3.7,13.9,7.1,25.7c4.7-8.7,7.5-13.3,9.8-18.2c18.9-40.4,35.3-82.2,57.2-121
		c19.6-34.6,40.9-69.4,74.8-93.2c7-4.9,12.7-13.9,23.4-7.9c11.3,6.4,16,18.9,13.4,32.4c-4,20.3-8.5,40.7-11,61.2
		c-3.9,32.3,0.9,63.6,14,93.8c12.3,28.2,34.1,46.6,60.9,58.7c17.4,7.8,36.5,12.7,55.2,16.7c13.6,2.9,27.9,2.7,42,3
		c54.4,1.3,106.4-11.3,158-27.3c60.6-18.8,117-46.9,173.8-74.5c3.3-1.6,6.8-3.2,10.3-4.2c2-0.6,4.3-0.1,7.9-0.1
		c0.2,9.9-6.9,13.8-13.1,18.6c-23.9,18.5-51,30.5-79.7,39.7c-9.1,2.9-17.5,7.9-26.2,12.1c-1.3,0.6-2.5,2.5-3.7,2.4
		c-22.4-1.4-37.5,15-56.4,22c-14.2,5.3-30.7,3.7-45.5,7.9c-20.6,5.8-40.3,14.9-60.9,21.1c-11.1,3.3-23.2,3.7-34.9,5.3
		c-13.8,1.9-28.8,1-41.1,6.4c-12.3,5.3-20.9,3.4-31.1-2.3c-6.2-3.5-13.5-7.4-20.2-7.3c-27.5,0.6-49.5-12-71.5-26
		c-32-20.5-49.8-51-58.8-86c-7.9-30.6-12.6-62.3-5.7-94.3C4280.4,272.5,4280.2,269,4280.5,265.7"/>
	<path class="st1" d="M3276.6,607.7c12.6,0.5,14.1-7.9,18.2-13.7c24.2-34.3,41.4-72.1,54.1-111.7c8.7-27.1,11.1-55.4,7.1-83.7
		c-0.8-5.7-6.1-13.4-11-15.1c-4.2-1.4-11.9,3.3-16.3,7.3c-20.8,18.9-29,44.2-33.8,70.9c-4,22.6-8.9,45-11.7,67.8
		C3280,555.3,3278.7,581.4,3276.6,607.7z M4039.8,382.8c-19.2,28.7-37,56.7-56.3,83.8c-16.2,22.8-19.8,47.1-14.6,73.9
		c5.4,27.6,31.9,38.2,52.9,19.1c19.3-17.6,33.4-38.8,40.1-65.4c9.9-39.7-5.4-74.2-18.5-109.5C4043,383.7,4040.9,383.3,4039.8,382.8z
		 M4280.5,265.7c-10.6-4.5-15.5,1.5-19.2,8c-16.8,29.7-33.6,59.4-49.7,89.5c-9.8,18.3-19.1,36.9-27.4,55.9
		c-16.3,37.3-20.1,75.9-7,114.8c4.7,13.9,4.3,24-8.6,32.8c-10.9,7.5-16.2,18.5-18.6,31.8c-2.6,14.6-11.7,18.2-24.4,10.4
		c-10.1-6.2-18.2-13-17.6-28c1.4-34.1-1.2-68.4,0.4-102.4c1.6-33.3-5.9-65-13.3-96.6c-5.4-23.1-17.1-35.9-33.9-43.7
		c-5.9,7.4-1,14.1,1.8,20.3c15.9,35,24.3,72,26.4,110c1.8,32.4-3.2,63.8-26.9,89.2c-4.5,4.8-7.9,10.7-11.3,16.4
		c-20.9,34.7-65.9,39.4-93.1,9.5c-9.1-10-18.3-19.7-17.6-34.8c0.2-3-2.9-6.1-5.4-10.8c-14.3,13.2-27.8,24.5-40,37.2
		c-16.4,16.9-36.8,24.8-59,29.4c-18.3,3.8-27.9-11.3-39.4-20.1c-18.2-14-19.4-35.8-19.4-56.7c0-37.9,0.9-75.7,1.2-113.6
		c0-1.8-1.6-3.7-3.9-8.5c-11.5,24.8-21,47.6-26.8,71.7c-10.7,44.8-20.8,89.7-31.7,134.3c-4.4,18-10.8,35.5-15.5,53.4
		c-2.5,9.4-8.2,13.9-17.4,14.2c-8.8,0.3-16.4-2.2-19.5-11.6c-1.8-5.5-4.6-11.2-4.7-16.8c-0.6-27.2,4-54.5-1.1-81.8
		c-1.2-6.2,1.7-13,1.9-19.6c1.3-32.4,1.1-64.9,3.7-97.2c1.9-23.5,7.9-46.7,10.8-70.2c1.5-12.3,0.3-24.9,0.3-37
		c-8.2-4.3-12.5,0.8-14.9,6.1c-9.8,20.8-19.7,41.6-28,63c-9.2,23.5-17.4,47.4-24.9,71.5c-4.8,15.5-6.9,31.7-11.1,47.4
		c-11.3,41.6-22.8,83.2-34.8,124.6c-2.4,8.4-6.9,16.4-11.2,24.2c-7.9,14-13.5,16.4-28.7,14.1c-12.4-1.9-17.7-10.4-18.8-21.7
		c-3.4-34-3.7-67.9,5-101.5c3.4-13.2,3.5-27.3,5.3-42.3c-5.3,0.8-8.6,0.4-9.3,1.5c-23.1,37.3-50.8,71.1-79,104.6
		c-1.9,2.3-3.6,4.8-4.9,7.4c-11,22.5-29.5,37.4-49.1,52.5c-14.1,10.8-27.3,16.3-44.6,15.9c-20.9-0.5-37.3-8.1-49.4-25.3
		c-9.4-13.3-14.3-14.2-23.1-1.4c-18.3,26.7-44,44.2-71.1,60c-27.6,16-62.2,12.9-86.3-10.6c-22.8-22.2-32.5-49-36.2-79.2
		c-4.8-39.1-9.5-78.2-13.9-117.3c-0.9-8.1-0.5-16.4-0.1-24.5c1.5-30.4,3.4-60.8,4.9-91.3c2.4-46.8,4.8-93.6,6.9-140.4
		c1-21.5,3.1-43.2,1.7-64.6c-3.2-49,2.9-98.4-8.3-146.9c-0.5-2.1-0.3-4.5-0.3-6.7c0-8.2-1.2-17.9,10.5-18.6
		c10.2-0.6,13.3,8,15.6,16.2c0.8,2.8,1,5.9,1,8.8c-0.7,55.8-0.6,111.7-2.5,167.5c-1.8,53.4-7.4,106.8-7.9,160.2
		c-0.8,78.7-7.7,157.7,6,236.1c2.7,15.3,5.7,30.8,10.4,45.6c11.1,34.5,46.5,50.6,81.1,38.3c20.8-7.4,38.9-18.7,54.6-34.1
		c8.5-8.3,17.2-16.5,25.7-24.8c8.8-8.7,12.3-17.9,12.1-31.5c-0.7-45.3-0.1-90.6,11.6-135.1c5.1-19.3,6.8-39.4,9.1-59.3
		c3.5-30.2,16.6-56.8,30.4-83.1c2.7-5.2,6.9-9.7,11.2-13.8c10.6-10.2,17.3-8.9,28.8,0.1c29,22.7,35.2,54.2,34.1,87.6
		c-1.8,53-17.9,102.5-43,148.7c-11.6,21.5-27.2,40.8-40.9,61.2c-4,6-7.5,12.3-10.9,17.8c20.1,22.8,37.7,27.7,62.5,13.3
		c19-11.1,37.9-24.8,52-41.4c29.2-34.4,57.8-69.6,80.1-109.3c16.2-28.8,29.4-58.3,33-91.6c2.6-24.3,6.1-48.5,8.2-72.9
		c0.7-7.9-2.6-16-3.1-24.1c-0.5-7.2-1.8-15.6,1.2-21.6c2.8-5.7,10.7-12.3,16.3-12.3c5.6,0,14.5,6.7,16.1,12.2
		c4.1,14,14.4,28.3,2.8,44.1c-2.8,3.8-2.5,10-3.1,15.1c-5.7,49.4-11.7,98.8-16.6,148.3c-3.3,34-4.9,68.2-7.1,102.4
		c-0.2,2.6,1.6,5.3,3.2,10.4c12.6-14.2,17.1-30.2,20.2-45c11.4-54.8,29.6-107.4,47.7-160c10.6-30.8,23.5-60.9,37.3-90.5
		c5.9-12.5,16-23.3,25.5-33.7c11.3-12.4,20.1-15,40.1-14.1c1.9,13.2,6.2,27,5.3,40.5c-2,30.4-5.7,60.7-10.3,90.8
		c-6.4,40.9-14.8,81.4-13.5,123.2c0.3,10.3-2,20.7-2.6,31.1c-0.3,4.7,0.7,9.5,3.1,14.7c8-8.2,11.8-17.5,14.3-28.4
		c9-39.7,14.9-80.8,29.8-118.3c15.8-39.6,27.7-81.8,54.1-116.8c3.9-5.2,5.6-12.2,9-17.9c8.2-13.8,24-15.6,32.8-2.6
		c7.3,10.8,12,24.4,5.3,36.9c-21.8,40.3-30.7,83.6-31.2,128.7c-0.2,23-0.2,46.3,3.1,68.9c4,27.9,15.5,33.7,42.1,27.1
		c22.8-5.6,39.6-20.2,55.8-35.6c11.9-11.3,23.5-23,33.7-35.8c5.9-7.3,10.8-16.7,12.8-25.8c10.9-49.9,38.3-91.1,67.5-131.5
		c1.3-1.8,2.3-3.7,4.1-6.7c-2.2-5.5-5.9-11.3-6.7-17.5c-2.4-18.9,16.8-33.4,35.1-27.3c31.2,10.5,50.3,33.8,63.2,62.2
		c10.1,22.2,20,44.9,20.9,70.2c0.2,7,3.7,13.9,7.1,25.7c4.7-8.7,7.5-13.3,9.8-18.2c18.9-40.4,35.3-82.2,57.2-121
		c19.6-34.6,40.9-69.4,74.8-93.2c7-4.9,12.7-13.9,23.4-7.9c11.3,6.4,16,18.9,13.4,32.4c-4,20.3-8.5,40.7-11,61.2
		c-3.9,32.3,0.9,63.6,14,93.8c12.3,28.2,34.1,46.6,60.9,58.7c17.4,7.8,36.5,12.7,55.2,16.7c13.6,2.9,27.9,2.7,42,3
		c54.4,1.3,106.4-11.3,158-27.3c60.6-18.8,117-46.9,173.8-74.5c3.3-1.6,6.8-3.2,10.3-4.2c2-0.6,4.3-0.1,7.9-0.1
		c0.2,9.9-6.9,13.8-13.1,18.6c-23.9,18.5-51,30.5-79.7,39.7c-9.1,2.9-17.5,7.9-26.2,12.1c-1.3,0.6-2.5,2.5-3.7,2.4
		c-22.4-1.4-37.5,15-56.4,22c-14.2,5.3-30.7,3.7-45.5,7.9c-20.6,5.8-40.3,14.9-60.9,21.1c-11.1,3.3-23.2,3.7-34.9,5.3
		c-13.8,1.9-28.8,1-41.1,6.4c-12.3,5.3-20.9,3.4-31.1-2.3c-6.2-3.5-13.5-7.4-20.2-7.3c-27.5,0.6-49.5-12-71.5-26
		c-32-20.5-49.8-51-58.8-86c-7.9-30.6-12.6-62.3-5.7-94.3C4280.4,272.5,4280.2,269,4280.5,265.7z"/>
	<path class="st2" d="M4039.3,384.4c1.1,0.6,3.1,0.9,3.5,1.9c12.8,34.8,27.8,68.9,18.1,108.1c-6.5,26.2-20.3,47.2-39.1,64.6
		c-20.5,18.9-46.3,8.5-51.6-18.8c-5.1-26.4-1.5-50.5,14.3-73C4003.1,440.4,4020.6,412.7,4039.3,384.4"/>
	<path class="st1" d="M4039.3,384.4c1.1,0.6,3.1,0.9,3.5,1.9c12.8,34.8,27.8,68.9,18.1,108.1c-6.5,26.2-20.3,47.2-39.1,64.6
		c-20.5,18.9-46.3,8.5-51.6-18.8c-5.1-26.4-1.5-50.5,14.3-73C4003.1,440.4,4020.6,412.7,4039.3,384.4z"/>
	<path class="st2" d="M3277,607.2c2.1-26.1,3.3-52,6.4-77.7c2.7-22.5,7.4-44.8,11.3-67.3c4.6-26.5,12.6-51.5,32.8-70.3
		c4.2-4,11.7-8.7,15.8-7.3c4.8,1.7,9.9,9.3,10.7,14.9c3.9,28.1,1.6,56.2-6.8,83.1c-12.3,39.4-29,76.9-52.5,110.9
		C3290.6,599.3,3289.2,607.7,3277,607.2"/>
	<path class="st1" d="M3277,607.2c2.1-26.1,3.3-52,6.4-77.7c2.7-22.5,7.4-44.8,11.3-67.3c4.6-26.5,12.6-51.5,32.8-70.3
		c4.2-4,11.7-8.7,15.8-7.3c4.8,1.7,9.9,9.3,10.7,14.9c3.9,28.1,1.6,56.2-6.8,83.1c-12.3,39.4-29,76.9-52.5,110.9
		C3290.6,599.3,3289.2,607.7,3277,607.2z"/>
	<path class="st2" d="M1463.3,783.3c-1.6,34.1-4.3,67.7-25,97.1c-6.2,8.8-9.5,20-13.2,30.4c-9.5,26.5-25.6,48.2-45.9,67.1
		c-19.4,18.1-38.6,36.5-58.3,54.3c-10.7,9.7-23.3,12.4-37.1,7c-12.7-5-15.8-9.9-14.2-23.8c7.3-62.2,21.4-122.4,51.9-177.8
		c5-9.1,9.3-18.5,14.5-27.4c22.1-37.3,55.8-57.8,97.8-63.8c24.1-3.5,31.8,5.5,30.4,30.2C1464.1,778.9,1463.7,781.1,1463.3,783.3"/>
	<path class="st1" d="M1463.3,783.3c-1.6,34.1-4.3,67.7-25,97.1c-6.2,8.8-9.5,20-13.2,30.4c-9.5,26.5-25.6,48.2-45.9,67.1
		c-19.4,18.1-38.6,36.5-58.3,54.3c-10.7,9.7-23.3,12.4-37.1,7c-12.7-5-15.8-9.9-14.2-23.8c7.3-62.2,21.4-122.4,51.9-177.8
		c5-9.1,9.3-18.5,14.5-27.4c22.1-37.3,55.8-57.8,97.8-63.8c24.1-3.5,31.8,5.5,30.4,30.2C1464.1,778.9,1463.7,781.1,1463.3,783.3z"/>
	<path class="st0" d="M798.5,2738.4c-12.3-5.7-19.9,0.2-25.7,10.3C781.4,2745.3,790,2741.9,798.5,2738.4 M1325.7,2885.5
		c56-22.9,118.8-129.2,106.8-178.3c-16.5,3.5-23.4,16.1-29.6,29.4c-3.1,6.6-5.3,13.6-9.2,19.7c-11.4,17.9-22.9,35.9-35.4,53.1
		c-12.9,17.8-16.7,39.7-27.7,58.2C1328.2,2871.8,1327.9,2877.2,1325.7,2885.5 M1709.9,2909.3c8.7-2.1,16.3-3.1,23.4-5.7
		c32.8-11.7,51.5-39.5,71.2-65.1c34.7-45.2,43-98.2,39.1-153.6c-0.5-6.6-3.8-12.9-6.7-22.1c-10.7,10.1-18.5,16.8-25.6,24.3
		c-25.6,27-46.3,57-63.6,90.3C1726.9,2817.6,1705.9,2857,1709.9,2909.3 M891.4,2680.1c13.6-2.1,23-3.7,32.4-5
		c36.2-4.9,72.3-11.9,109-6.8c35.1,4.9,44.3,16.1,43.7,51.7c-0.8,48.3-7,95.8-17,143.1c-5.2,24.6-7.8,49.8-9.8,74.8
		c-1.2,15.8,2.1,31.1,18.8,39.7c17.6,9,37.7,5.7,52.6-10.1c25.8-27.2,35.5-60.5,29.9-96.5c-4.4-28.3-14.5-55.8-22-83.7
		c-5.3-19.4-20.5-30.2-37-40.7c0-4.3,0-8.6,0-12.9c-0.3-28.9-0.2-28.7,29.2-36.3c33.2-8.6,66.1-18.2,99.3-26.4
		c10.7-2.7,22.2-2.2,33.2-4c50.7-8.5,101.4-17.2,152-26c7.3-1.3,14.7-3.1,21.4-6.3c9.1-4.3,17.7-7.6,27.8-3.8c2.6,1,6.3,1.2,8.8,0.1
		c14.7-6.4,22.5,0.6,31.1,12.2c9.1,12.3,7.7,22.9,2.2,35.2c-11.3,25.6-23.3,51-33,77.1c-9,24-9.4,49.6-5.6,74.8
		c0.8,5.4,6.7,12,11.9,14.5c12.5,6,25.9,6.2,39,0.4c48.9-21.5,86.8-56.9,122.3-95.3c18.1-19.6,36.4-39.3,53.4-59.8
		c23.2-28,44.9-57.2,67.8-85.3c17.3-21.2,33.3-43.9,60.1-55c21.3-8.8,29.7-6.2,38.7,14.5c4.9,11.3,8.7,23.2,14,37.5
		c17.1-9.3,34.8-18,51.6-28.2c15.2-9.2,29.4-20.1,44.2-30.2c3-2.1,6.4-5.2,9.6-5.3c4.8-0.1,9.5,2.3,14.3,3.6
		c-1.3,4.5-1.2,10.7-4.2,13.1c-15.5,12.6-31.6,24.6-48,36.2c-16.4,11.6-33.1,22.5-50,33.4c-9.8,6.3-12.5,13.9-11.7,26
		c2.1,31.7,1.7,63.5,2.3,95.3c0.5,24.8-10.4,46.9-21,67.4c-20.3,39.5-45.7,76.8-81.6,104c-17.4,13.2-39.1,21.5-60,28.8
		c-18,6.3-28.9-2.5-32.4-20.9c-4.3-22.2-1.4-43.7,3.1-65.8c5.8-28.7,17.2-55.3,29.7-80.9c19.2-39.3,43.8-75.7,75.4-106.8
		c12.2-12,24.8-23.6,36.8-35.8c9.5-9.7,9.7-32.6-0.7-40c-4.1-3-14.3-3.1-18,0c-15.4,12.4-30.6,25.6-43.9,40.3
		c-28,30.9-47.9,68.1-79.1,97c-24.1,22.3-41,52.1-64.1,75.7c-25.8,26.5-54.1,51-83.1,74c-9.6,7.6-24.9,10.1-37.8,10.8
		c-11.3,0.7-25.9-0.9-33.8-7.6c-12.5-10.6-20.8-26.3-30.6-40c-2-2.9-2.8-6.6-4.9-11.9c-4.4,3.4-8.3,5.3-10.7,8.4
		c-14.1,18.2-27,37.3-42,54.6c-11.6,13.3-25.2,25.2-39.1,36.1c-10.2,8-27.2,5.8-37.6-2.2c-14.6-11.4-19.8-24.5-14.1-40.8
		c11.5-33,24.1-66.1,45.4-93.8c21.3-27.7,37.7-58.1,56.1-87.4c6.2-9.8,13.7-18.8,22.5-30.9c-9,0.7-14.6,0.9-20.2,1.7
		c-44.9,6.7-90.2,11.2-134.4,21c-34.6,7.7-67.8,21.7-101.4,33.4c-4.5,1.6-8.1,5.8-10.4,7.6c12.5,37.5,28,72.4,35.4,109
		c10.9,53.8,1.8,104.7-39.7,145.7c-34.5,34.1-74.4,28.3-103.1-5.1c-5.8-6.8-9.4-16.8-10.7-25.9c-6.8-45,3.6-88.3,13.1-131.9
		c6.1-28.1,9.4-56.8,13.2-85.3c1-7.9-0.4-16.2-1.2-24.4c-1-10.2-7-15.5-17.1-17.6c-9.6-2.1-19.7-0.3-28.1-10.1
		c-3.8-4.4-17-1.6-25.9-0.8c-23.8,2-47.4,5.1-71.2,7c-10.2,0.8-14.3,5.6-14.9,15.4c-1.9,30.4-5,60.7-6.5,91.1
		c-1.5,29.5-1.6,59.1-2.3,88.7c-1.3,56.2-1.9,112.5-4.3,168.7c-1.2,28-6.5,55.7-8.6,83.7c-1.2,16.9,0.3,34,0.5,51
		c0.1,9.6,0.8,19.3,0,28.9c-1.2,13.9-6.2,18.6-17.4,18.5c-11.1-0.1-17.4-5.3-17.2-18.6c0.5-20.7,2.6-41.4,4.9-62
		c1.4-12.4,4.5-24.6,6.3-37c2.1-14.7,4-29.4,5.3-44.2c2-22.9,3.5-45.8,5-68.7c2.1-31,4.9-62,5.9-93c2.2-65.9,5-131.7,4-197.6
		c0-2.1-0.8-4.2-1.4-7.8c-17.1,0.9-30.5,10.1-44.4,17.5c-5.2,2.8-9.2,8.1-14.6,10c-58,21-105.9,60.2-160,88
		c-7.1,3.7-14.7,8.5-22.3,8.8c-6.2,0.2-14.9-3.8-18.6-8.8c-5.5-7.4-4.7-17.2,2.1-24.7c3.4-3.8,7.8-7.2,12.3-9.5
		c33.9-17.1,67.4-35.1,102.1-50.4c42.9-19,86.7-36,130.4-53.2c12-4.7,17.7-11.5,17.9-24.7c0.5-29.7,2.5-59.3,3.4-88.9
		c1-31.9,1.7-63.7,1.7-95.6c0-10.6,1.6-18.9,12.6-23.2c11.6-4.6,15.8,4.8,21.8,10.9c1,1,1.5,2.5-0.3-0.6
		C903.5,2544.8,897.7,2610.2,891.4,2680.1"/>
	<path class="st1" d="M798.5,2738.4c-12.3-5.7-19.9,0.2-25.7,10.3C781.4,2745.3,790,2741.9,798.5,2738.4z M1325.7,2885.5
		c56-22.9,118.8-129.2,106.8-178.3c-16.5,3.5-23.4,16.1-29.6,29.4c-3.1,6.6-5.3,13.6-9.2,19.7c-11.4,17.9-22.9,35.9-35.4,53.1
		c-12.9,17.8-16.7,39.7-27.7,58.2C1328.2,2871.8,1327.9,2877.2,1325.7,2885.5z M1709.9,2909.3c8.7-2.1,16.3-3.1,23.4-5.7
		c32.8-11.7,51.5-39.5,71.2-65.1c34.7-45.2,43-98.2,39.1-153.6c-0.5-6.6-3.8-12.9-6.7-22.1c-10.7,10.1-18.5,16.8-25.6,24.3
		c-25.6,27-46.3,57-63.6,90.3C1726.9,2817.6,1705.9,2857,1709.9,2909.3z M891.4,2680.1c13.6-2.1,23-3.7,32.4-5
		c36.2-4.9,72.3-11.9,109-6.8c35.1,4.9,44.3,16.1,43.7,51.7c-0.8,48.3-7,95.8-17,143.1c-5.2,24.6-7.8,49.8-9.8,74.8
		c-1.2,15.8,2.1,31.1,18.8,39.7c17.6,9,37.7,5.7,52.6-10.1c25.8-27.2,35.5-60.5,29.9-96.5c-4.4-28.3-14.5-55.8-22-83.7
		c-5.3-19.4-20.5-30.2-37-40.7c0-4.3,0-8.6,0-12.9c-0.3-28.9-0.2-28.7,29.2-36.3c33.2-8.6,66.1-18.2,99.3-26.4
		c10.7-2.7,22.2-2.2,33.2-4c50.7-8.5,101.4-17.2,152-26c7.3-1.3,14.7-3.1,21.4-6.3c9.1-4.3,17.7-7.6,27.8-3.8c2.6,1,6.3,1.2,8.8,0.1
		c14.7-6.4,22.5,0.6,31.1,12.2c9.1,12.3,7.7,22.9,2.2,35.2c-11.3,25.6-23.3,51-33,77.1c-9,24-9.4,49.6-5.6,74.8
		c0.8,5.4,6.7,12,11.9,14.5c12.5,6,25.9,6.2,39,0.4c48.9-21.5,86.8-56.9,122.3-95.3c18.1-19.6,36.4-39.3,53.4-59.8
		c23.2-28,44.9-57.2,67.8-85.3c17.3-21.2,33.3-43.9,60.1-55c21.3-8.8,29.7-6.2,38.7,14.5c4.9,11.3,8.7,23.2,14,37.5
		c17.1-9.3,34.8-18,51.6-28.2c15.2-9.2,29.4-20.1,44.2-30.2c3-2.1,6.4-5.2,9.6-5.3c4.8-0.1,9.5,2.3,14.3,3.6
		c-1.3,4.5-1.2,10.7-4.2,13.1c-15.5,12.6-31.6,24.6-48,36.2c-16.4,11.6-33.1,22.5-50,33.4c-9.8,6.3-12.5,13.9-11.7,26
		c2.1,31.7,1.7,63.5,2.3,95.3c0.5,24.8-10.4,46.9-21,67.4c-20.3,39.5-45.7,76.8-81.6,104c-17.4,13.2-39.1,21.5-60,28.8
		c-18,6.3-28.9-2.5-32.4-20.9c-4.3-22.2-1.4-43.7,3.1-65.8c5.8-28.7,17.2-55.3,29.7-80.9c19.2-39.3,43.8-75.7,75.4-106.8
		c12.2-12,24.8-23.6,36.8-35.8c9.5-9.7,9.7-32.6-0.7-40c-4.1-3-14.3-3.1-18,0c-15.4,12.4-30.6,25.6-43.9,40.3
		c-28,30.9-47.9,68.1-79.1,97c-24.1,22.3-41,52.1-64.1,75.7c-25.8,26.5-54.1,51-83.1,74c-9.6,7.6-24.9,10.1-37.8,10.8
		c-11.3,0.7-25.9-0.9-33.8-7.6c-12.5-10.6-20.8-26.3-30.6-40c-2-2.9-2.8-6.6-4.9-11.9c-4.4,3.4-8.3,5.3-10.7,8.4
		c-14.1,18.2-27,37.3-42,54.6c-11.6,13.3-25.2,25.2-39.1,36.1c-10.2,8-27.2,5.8-37.6-2.2c-14.6-11.4-19.8-24.5-14.1-40.8
		c11.5-33,24.1-66.1,45.4-93.8c21.3-27.7,37.7-58.1,56.1-87.4c6.2-9.8,13.7-18.8,22.5-30.9c-9,0.7-14.6,0.9-20.2,1.7
		c-44.9,6.7-90.2,11.2-134.4,21c-34.6,7.7-67.8,21.7-101.4,33.4c-4.5,1.6-8.1,5.8-10.4,7.6c12.5,37.5,28,72.4,35.4,109
		c10.9,53.8,1.8,104.7-39.7,145.7c-34.5,34.1-74.4,28.3-103.1-5.1c-5.8-6.8-9.4-16.8-10.7-25.9c-6.8-45,3.6-88.3,13.1-131.9
		c6.1-28.1,9.4-56.8,13.2-85.3c1-7.9-0.4-16.2-1.2-24.4c-1-10.2-7-15.5-17.1-17.6c-9.6-2.1-19.7-0.3-28.1-10.1
		c-3.8-4.4-17-1.6-25.9-0.8c-23.8,2-47.4,5.1-71.2,7c-10.2,0.8-14.3,5.6-14.9,15.4c-1.9,30.4-5,60.7-6.5,91.1
		c-1.5,29.5-1.6,59.1-2.3,88.7c-1.3,56.2-1.9,112.5-4.3,168.7c-1.2,28-6.5,55.7-8.6,83.7c-1.2,16.9,0.3,34,0.5,51
		c0.1,9.6,0.8,19.3,0,28.9c-1.2,13.9-6.2,18.6-17.4,18.5c-11.1-0.1-17.4-5.3-17.2-18.6c0.5-20.7,2.6-41.4,4.9-62
		c1.4-12.4,4.5-24.6,6.3-37c2.1-14.7,4-29.4,5.3-44.2c2-22.9,3.5-45.8,5-68.7c2.1-31,4.9-62,5.9-93c2.2-65.9,5-131.7,4-197.6
		c0-2.1-0.8-4.2-1.4-7.8c-17.1,0.9-30.5,10.1-44.4,17.5c-5.2,2.8-9.2,8.1-14.6,10c-58,21-105.9,60.2-160,88
		c-7.1,3.7-14.7,8.5-22.3,8.8c-6.2,0.2-14.9-3.8-18.6-8.8c-5.5-7.4-4.7-17.2,2.1-24.7c3.4-3.8,7.8-7.2,12.3-9.5
		c33.9-17.1,67.4-35.1,102.1-50.4c42.9-19,86.7-36,130.4-53.2c12-4.7,17.7-11.5,17.9-24.7c0.5-29.7,2.5-59.3,3.4-88.9
		c1-31.9,1.7-63.7,1.7-95.6c0-10.6,1.6-18.9,12.6-23.2c11.6-4.6,15.8,4.8,21.8,10.9c1,1,1.5,2.5-0.3-0.6
		C903.5,2544.8,897.7,2610.2,891.4,2680.1z"/>
	<path class="st0" d="M2130.8,2470.9c-21.3,3.5-40.3,6.4-59.1,9.9c-21.9,4.1-43.6,9-65.4,13.3c-18.5,3.6-31-2.1-36.6-16
		c-5.4-13.5-3.4-21.5,10.9-26.2c16.7-5.4,34.4-8.8,52-10.4c28.7-2.7,57.6-3.2,86.4-4.8c20.4-1.1,20.8-1.1,23.6-20.9
		c3.6-25.6,6.2-51.3,9.6-76.9c1-7.3,2.8-14.6,4.5-21.7c7.8-31.7,15.4-63.4,23.6-95c2.5-9.9,5.2-20.1,10-29.1
		c11.1-21,23.1-41.5,35.4-61.8c6.9-11.3,18.8-14,28.5-8c7.8,4.8,9.1,16.6,2.8,27.9c-13.4,23.9-28.8,46.9-40,71.7
		c-11.5,25.6-20.6,52.5-27.6,79.6c-9,35.2-15,71.2-22.1,106.9c-1,5-0.7,10.2-1.1,18.4c14.3-0.7,27.4-0.2,40.2-2.2
		c73.4-11.8,147.5-16.8,221.7-20.7c33.3-1.8,66.6-4.9,99.9-6.7c13.7-0.7,27.6,0.3,44,6.1c-13.5,10.6-24.8,15.9-38.4,16.5
		c-37.7,1.7-75.6,2.7-113.2,5.3c-29.4,2-58.8,5.7-88.1,9.2c-22.8,2.7-45.7,5.3-68.2,9.8c-34.7,6.8-69.1,15.1-106.2,23.4
		c-4.3,33.9-9.1,68.3-12.9,102.8c-3.9,35.3-6.9,70.6-10.4,105.9c-5.9,57.8-6.8,115.8-3.5,173.8c0.8,14,4.7,27.9,6.6,41.9
		c1,7.6,0.8,15.4,1.2,23.3c-29.8-1.7-30.7-3.5-35.8-28.3c-7.8-37.5,0.7-74.7,0.7-112c0-20.7-0.3-41.5,1.9-62
		c7.9-75.4,16.8-150.7,25.2-226C2131.2,2483.8,2130.8,2479.4,2130.8,2470.9"/>
	<path class="st1" d="M2130.8,2470.9c-21.3,3.5-40.3,6.4-59.1,9.9c-21.9,4.1-43.6,9-65.4,13.3c-18.5,3.6-31-2.1-36.6-16
		c-5.4-13.5-3.4-21.5,10.9-26.2c16.7-5.4,34.4-8.8,52-10.4c28.7-2.7,57.6-3.2,86.4-4.8c20.4-1.1,20.8-1.1,23.6-20.9
		c3.6-25.6,6.2-51.3,9.6-76.9c1-7.3,2.8-14.6,4.5-21.7c7.8-31.7,15.4-63.4,23.6-95c2.5-9.9,5.2-20.1,10-29.1
		c11.1-21,23.1-41.5,35.4-61.8c6.9-11.3,18.8-14,28.5-8c7.8,4.8,9.1,16.6,2.8,27.9c-13.4,23.9-28.8,46.9-40,71.7
		c-11.5,25.6-20.6,52.5-27.6,79.6c-9,35.2-15,71.2-22.1,106.9c-1,5-0.7,10.2-1.1,18.4c14.3-0.7,27.4-0.2,40.2-2.2
		c73.4-11.8,147.5-16.8,221.7-20.7c33.3-1.8,66.6-4.9,99.9-6.7c13.7-0.7,27.6,0.3,44,6.1c-13.5,10.6-24.8,15.9-38.4,16.5
		c-37.7,1.7-75.6,2.7-113.2,5.3c-29.4,2-58.8,5.7-88.1,9.2c-22.8,2.7-45.7,5.3-68.2,9.8c-34.7,6.8-69.1,15.1-106.2,23.4
		c-4.3,33.9-9.1,68.3-12.9,102.8c-3.9,35.3-6.9,70.6-10.4,105.9c-5.9,57.8-6.8,115.8-3.5,173.8c0.8,14,4.7,27.9,6.6,41.9
		c1,7.6,0.8,15.4,1.2,23.3c-29.8-1.7-30.7-3.5-35.8-28.3c-7.8-37.5,0.7-74.7,0.7-112c0-20.7-0.3-41.5,1.9-62
		c7.9-75.4,16.8-150.7,25.2-226C2131.2,2483.8,2130.8,2479.4,2130.8,2470.9z"/>
	<path class="st2" d="M1712.1,2906.7c-3.9-51.8,16.7-90.9,37.2-130.7c16.9-32.9,37.4-62.7,62.5-89.4c7-7.4,14.7-14.1,25.2-24.1
		c2.8,9.1,6.1,15.4,6.6,21.9c3.9,54.9-4.3,107.4-38.5,152.2c-19.3,25.3-37.7,52.9-70,64.5
		C1728.2,2903.6,1720.7,2904.6,1712.1,2906.7"/>
	<path class="st1" d="M1712.1,2906.7c-3.9-51.8,16.7-90.9,37.2-130.7c16.9-32.9,37.4-62.7,62.5-89.4c7-7.4,14.7-14.1,25.2-24.1
		c2.8,9.1,6.1,15.4,6.6,21.9c3.9,54.9-4.3,107.4-38.5,152.2c-19.3,25.3-37.7,52.9-70,64.5
		C1728.2,2903.6,1720.7,2904.6,1712.1,2906.7z"/>
	<path class="st2" d="M1327.7,2882.2c2.2-8.2,2.5-13.5,4.9-17.6c10.7-18.3,14.4-39.9,27-57.5c12.1-17,23.3-34.7,34.4-52.4
		c3.7-6,5.9-13,8.9-19.4c6.1-13.1,12.8-25.6,28.8-29C1443.4,2754.7,1382.2,2859.6,1327.7,2882.2"/>
	<path class="st1" d="M1327.7,2882.2c2.2-8.2,2.5-13.5,4.9-17.6c10.7-18.3,14.4-39.9,27-57.5c12.1-17,23.3-34.7,34.4-52.4
		c3.7-6,5.9-13,8.9-19.4c6.1-13.1,12.8-25.6,28.8-29C1443.4,2754.7,1382.2,2859.6,1327.7,2882.2z"/>
	<path class="st2" d="M803,2733.1c-9.9,4-19.8,7.9-29.6,11.9C780,2733.3,788.8,2726.5,803,2733.1"/>
	<path class="st1" d="M803,2733.1c-9.9,4-19.8,7.9-29.6,11.9C780,2733.3,788.8,2726.5,803,2733.1z"/>
	<path class="st0" d="M1056.5,1918.3c3.3,0.5,5.5,1.4,7.5,1.1c4.4-0.8,8.8-1.8,12.9-3.4c29.8-11,55.9-26.9,77.2-51.1
		c14.8-16.9,19.9-36.4,19.8-57.5c-0.1-19.7-14.9-40.7-28.4-44c-19.4-4.7-30.8,1.3-44.1,21.4c-20.9,31.8-35.2,66.5-44.6,103
		C1054.4,1897.4,1056.5,1908.1,1056.5,1918.3 M1347.2,2035.1c6.6-6.6,11.8-10.5,15.2-15.5c15.4-22.4,23.7-47.5,29.9-73.9
		c4.9-20.8,14.1-40.6,20.7-61.1c4.5-14.1,8.7-28.3,11.8-42.8c8.4-38.7,25.8-75.5,24.8-116.5c-0.2-7,8-15.5,14.4-20.9
		c6.3-5.3,13.9-3.5,18.9,4.5c7.4,11.9,9.8,24.5,8.4,38.5c-1.8,17.7-1.8,35.5-3.7,53.2c-3.7,34.1,6,65.6,21.9,94.4
		c11.8,21.3,30.4,36.6,56.5,42.5c44.6,10.1,84.6-1.5,121.8-23.6c33.2-19.8,64.4-42.9,96.4-64.7c9.4-6.4,13.9-16.1,19-26.4
		c13.1-26.5,27.5-52.8,44.8-76.6c9.2-12.7,25.1-20.7,38.6-29.9c8.2-5.6,16.2-4.9,23.6,3.8c6.8,8.2,12.7,17.4,4.9,25.8
		c-25.3,27.7-37.7,65.2-70.4,87.5c-15,10.3-20.4,29.1-21.4,47.4c-0.7,12.9,10.3,18.8,20.4,20c15.3,1.9,31.4,2.9,46.3-0.1
		c35.1-7.1,59-33.3,85.8-54.3c9.2-7.3,18.1-15.1,26.5-23.3c49.2-47.8,97.2-96.7,133.5-155.6c9.6-15.5,13.5-31.8,13.9-50.6
		c0.8-36.3,5.4-72.6,8.4-108.9c0.6-7.4,1.6-14.9,0.9-22.2c-2.2-23.2,1-45.5,6.1-68.2c7.8-34.8,13-70.2,19.4-105.2
		c3.6-19.7,8.5-39.2,11.1-58.9c2.2-16.8,2.8-34,2.5-51c-0.2-11,3.9-18.7,12-24.9c13.3-10.2,28-5.3,29.2,11.5
		c1.7,25.8,1.1,51.9,0.5,77.8c-0.8,38-2.1,75.9-3.8,113.8c-0.5,9.9-3.4,19.6-5.2,29.5c-1.9-0.2-3.8-0.4-5.7-0.6
		c0-6.2,0.5-12.4-0.1-18.6c-1.5-16.1-3.5-32.2-5.1-48.4c-0.6-5.8,0-11.7-0.3-17.6c-0.4-8.6-1.1-17.2-1.8-27.6
		c-12.7,3.2-13.5,11.6-14.8,19.3c-7,38.8-15.1,77.5-20.5,116.5c-4.3,30.9-5.4,62.2-8.1,93.3c-0.8,9.6-2.2,19.2-2.8,28.9
		c-0.5,7.8-0.1,15.6-0.1,23.4c1.7,0.5,3.4,0.9,5.2,1.4c2.6-3.6,6.5-6.9,7.5-11c7.6-28.7,14.8-57.6,21.9-86.4
		c3.3-13.5,6.3-27.1,15.7-41.2c3.4,5.1,7.5,8.5,7.2,11.5c-1.1,13.2-3.4,26.3-5.5,39.4c-0.9,5.8-3.3,11.4-3.3,17.2
		c-0.4,34.1-11,65.9-22.8,97.2c-4.7,12.3-11.6,23.9-18.3,35.4c-8,13.7-8.3,28.4-7.4,43.3c2.5,40.8,5.3,81.7,8.6,122.4
		c0.7,8.4,4.1,16.6,6.2,24.8c1.8,0.3,3.5,0.7,5.3,1c4.6-7,11.1-13.3,13.5-21c19.7-60.1,38.6-120.5,57.7-180.7
		c9.2-29.1,18.8-58.1,27.2-87.4c5.1-17.7,8.5-36,12.6-54c0.3-1.4,0.1-3,0.4-4.4c2.8-12.7,11.9-22.4,20.3-19.9
		c10.3,3.1,15.5,11.1,14.6,22.2c-0.8,10.1-1.9,20.3-3.4,30.3c-4.3,28.5-2.9,56.9,6.2,83.9c6.9,20.3,15.2,41.1,27.5,58.4
		c34.4,48.3,80.2,78.8,142,79c26.8,0.1,53.6,0,80.4-0.9c8-0.3,15.8-4,23.9-5.2c8.2-1.2,16.6-1.2,28-1.9c-7.5,14-18.1,13.6-26.9,15.8
		c-18,4.5-36,9.6-54.4,11.4c-28.3,2.7-56.4,4.5-85.3,0.8c-50.7-6.5-87.5-36.4-121.7-69.2c-21.3-20.4-34.7-47.9-39.7-78.3
		c-1.1-6.8-3.7-13.4-8.5-20.3c-9.9,13.6-15.5,28.1-19.8,43.3c-5.2,18.6-8.5,38.3-17.2,55.2c-13.3,25.9-20.8,53.2-22.2,81.3
		c-2.1,42.7-21.1,78.4-40.6,114.4c-6.8,12.5-9.9,12.7-23.2,5.7c-14.4-7.5-23.2-18.4-21.8-35.6c0.3-4.4,0.5-9-0.3-13.4
		c-8.2-44-10.2-88.4-10.9-133c0-1.2-1.5-2.4-3.3-5c-7.8,7.3-14.9,15.4-23.3,21.6c-8.3,6.1-19,9.3-26.8,16
		c-6.5,5.6-13.4,13.9-14.6,21.8c-3.8,26.3-21.1,37.7-43.2,47.2c-9.5,4.1-18.8,13.1-23.5,22.3c-7.6,14.8-16.9,27.2-28.5,39.1
		c-25.2,26-55.4,45.3-85.8,63.2c-40.9,24.1-99.9,0.2-108.3-42.7c-0.6-2.9-0.6-6-1.6-8.8c-3.5-10.5-11.3-12.9-18-4.8
		c-16.2,19.9-36.2,34.5-59.1,45.7c-1.3,0.6-2.7,1.4-3.7,2.5c-24.8,24.3-55.8,36.1-88.5,45.3c-54.1,15.2-105.5-9.2-126.4-46.3
		c-12.3-21.8-20.7-45.7-31-68.6c-0.8-1.9-2.7-3.3-5.7-6.9c-3.2,4.7-6.9,8.1-8.3,12.3c-7.8,23.1-15.4,46.4-22.6,69.8
		c-8.1,26.3-16.2,52.6-23.6,79.1c-6.5,23.1-22.4,39.9-37.1,57.4c-7.9,9.4-19.4,10.5-30.6,3.8c-16.4-9.8-30.4-24.3-28.9-48.5
		c2.4-38.4,1.1-77.1,1.3-115.7c0-1.4-1-2.7-2.4-6.6c-5.1,4.9-11.4,8.4-13.7,13.5c-10,22.6-27.6,38.3-45.5,54
		c-13.5,11.7-25.8,25.1-40.5,35.1c-22,15.1-44.8,29.6-68.9,40.8c-9.4,4.4-23.3-1-35.1-1.1c-45-0.6-73-29.2-81.3-68.7
		c-0.7-3.6-2.4-7-3.7-10.7c-18.7-2.5-37.1-4.3-55.2-7.6c-24.8-4.5-44.9-19.1-65.3-32.7c-9.2-6.1-18.5-12.1-27.9-18.2
		c-21,14.3-24.4,36.6-30.5,56.7c-6.1,19.8-8.7,40.6-13.1,60.9c-5.9,27.6-11.6,55.2-18.4,82.6c-4.5,18.4-12.9,21.4-29.4,12
		c-5.7-3.3-11.1-7.3-17.8-11.8c2.6-12.6,6.1-24.7,7.5-37.1c6.6-57.6,13.1-115.2,18.5-172.9c1.3-13.9-2.9-28.1-3.1-42.2
		c-0.1-9.3,0.6-19.4,4.3-27.7c4.5-10,15-10.8,21.7-2.1c4.7,6.1,7.7,14.3,9.1,22c1.4,7.9-0.6,16.3-0.4,24.5c0.2,7,1.3,14,2.1,21
		c1.5,0.4,3,0.7,4.6,1.1c4.1-4.9,8.5-9.6,12.3-14.7c14.6-19.6,28.6-22.3,49.7-9.1c17.7,11.1,35.1,22.5,52.7,33.6
		c22.7,14.3,48,19.2,75.6,20.6c1.5-4.1,3.5-7.9,4.2-12c10.3-57.1,30.5-110.2,63.6-158.1c11.1-16.1,26.3-26.1,44.7-31.8
		c16.5-5.2,31.9-2.3,42.9,10.8c10.9,12.9,21.4,26.9,28.4,42.2c20.1,44.2,8,98.6-29.7,129.1c-20.1,16.3-43,29.2-65.5,42.3
		c-7.3,4.2-17.4,3.3-25.6,6.4c-7.9,3-17.9,6.6-21.3,13c-2.4,4.6,3.1,15.3,7.7,21.2c15.8,20.1,37.8,25.3,62.2,21.9
		c27.7-3.8,50.5-17.8,70.7-36.1c15.4-14,29.7-29.1,44.5-43.8c31.1-30.7,56.1-65.9,73.8-105.7c6.6-14.8,10.5-30.9,14-46.8
		c5.8-26.7,10-53.8,15.3-80.5c3-14.9,9.9-26.6,28.5-26.7c3.1,4.6,6.3,9.3,9.5,14.1c6.5,9.9,7.7,19.9,3.7,31.6
		c-10.8,30.9-21.5,61.8-30.3,93.3c-4.6,16.3-5.2,33.8-7.3,50.8c-3.8,30.3-10.5,60.6-10,90.8
		C1339.2,1977.4,1331.3,2004.9,1347.2,2035.1"/>
	<path class="st1" d="M1056.5,1918.3c3.3,0.5,5.5,1.4,7.5,1.1c4.4-0.8,8.8-1.8,12.9-3.4c29.8-11,55.9-26.9,77.2-51.1
		c14.8-16.9,19.9-36.4,19.8-57.5c-0.1-19.7-14.9-40.7-28.4-44c-19.4-4.7-30.8,1.3-44.1,21.4c-20.9,31.8-35.2,66.5-44.6,103
		C1054.4,1897.4,1056.5,1908.1,1056.5,1918.3z M1347.2,2035.1c6.6-6.6,11.8-10.5,15.2-15.5c15.4-22.4,23.7-47.5,29.9-73.9
		c4.9-20.8,14.1-40.6,20.7-61.1c4.5-14.1,8.7-28.3,11.8-42.8c8.4-38.7,25.8-75.5,24.8-116.5c-0.2-7,8-15.5,14.4-20.9
		c6.3-5.3,13.9-3.5,18.9,4.5c7.4,11.9,9.8,24.5,8.4,38.5c-1.8,17.7-1.8,35.5-3.7,53.2c-3.7,34.1,6,65.6,21.9,94.4
		c11.8,21.3,30.4,36.6,56.5,42.5c44.6,10.1,84.6-1.5,121.8-23.6c33.2-19.8,64.4-42.9,96.4-64.7c9.4-6.4,13.9-16.1,19-26.4
		c13.1-26.5,27.5-52.8,44.8-76.6c9.2-12.7,25.1-20.7,38.6-29.9c8.2-5.6,16.2-4.9,23.6,3.8c6.8,8.2,12.7,17.4,4.9,25.8
		c-25.3,27.7-37.7,65.2-70.4,87.5c-15,10.3-20.4,29.1-21.4,47.4c-0.7,12.9,10.3,18.8,20.4,20c15.3,1.9,31.4,2.9,46.3-0.1
		c35.1-7.1,59-33.3,85.8-54.3c9.2-7.3,18.1-15.1,26.5-23.3c49.2-47.8,97.2-96.7,133.5-155.6c9.6-15.5,13.5-31.8,13.9-50.6
		c0.8-36.3,5.4-72.6,8.4-108.9c0.6-7.4,1.6-14.9,0.9-22.2c-2.2-23.2,1-45.5,6.1-68.2c7.8-34.8,13-70.2,19.4-105.2
		c3.6-19.7,8.5-39.2,11.1-58.9c2.2-16.8,2.8-34,2.5-51c-0.2-11,3.9-18.7,12-24.9c13.3-10.2,28-5.3,29.2,11.5
		c1.7,25.8,1.1,51.9,0.5,77.8c-0.8,38-2.1,75.9-3.8,113.8c-0.5,9.9-3.4,19.6-5.2,29.5c-1.9-0.2-3.8-0.4-5.7-0.6
		c0-6.2,0.5-12.4-0.1-18.6c-1.5-16.1-3.5-32.2-5.1-48.4c-0.6-5.8,0-11.7-0.3-17.6c-0.4-8.6-1.1-17.2-1.8-27.6
		c-12.7,3.2-13.5,11.6-14.8,19.3c-7,38.8-15.1,77.5-20.5,116.5c-4.3,30.9-5.4,62.2-8.1,93.3c-0.8,9.6-2.2,19.2-2.8,28.9
		c-0.5,7.8-0.1,15.6-0.1,23.4c1.7,0.5,3.4,0.9,5.2,1.4c2.6-3.6,6.5-6.9,7.5-11c7.6-28.7,14.8-57.6,21.9-86.4
		c3.3-13.5,6.3-27.1,15.7-41.2c3.4,5.1,7.5,8.5,7.2,11.5c-1.1,13.2-3.4,26.3-5.5,39.4c-0.9,5.8-3.3,11.4-3.3,17.2
		c-0.4,34.1-11,65.9-22.8,97.2c-4.7,12.3-11.6,23.9-18.3,35.4c-8,13.7-8.3,28.4-7.4,43.3c2.5,40.8,5.3,81.7,8.6,122.4
		c0.7,8.4,4.1,16.6,6.2,24.8c1.8,0.3,3.5,0.7,5.3,1c4.6-7,11.1-13.3,13.5-21c19.7-60.1,38.6-120.5,57.7-180.7
		c9.2-29.1,18.8-58.1,27.2-87.4c5.1-17.7,8.5-36,12.6-54c0.3-1.4,0.1-3,0.4-4.4c2.8-12.7,11.9-22.4,20.3-19.9
		c10.3,3.1,15.5,11.1,14.6,22.2c-0.8,10.1-1.9,20.3-3.4,30.3c-4.3,28.5-2.9,56.9,6.2,83.9c6.9,20.3,15.2,41.1,27.5,58.4
		c34.4,48.3,80.2,78.8,142,79c26.8,0.1,53.6,0,80.4-0.9c8-0.3,15.8-4,23.9-5.2c8.2-1.2,16.6-1.2,28-1.9c-7.5,14-18.1,13.6-26.9,15.8
		c-18,4.5-36,9.6-54.4,11.4c-28.3,2.7-56.4,4.5-85.3,0.8c-50.7-6.5-87.5-36.4-121.7-69.2c-21.3-20.4-34.7-47.9-39.7-78.3
		c-1.1-6.8-3.7-13.4-8.5-20.3c-9.9,13.6-15.5,28.1-19.8,43.3c-5.2,18.6-8.5,38.3-17.2,55.2c-13.3,25.9-20.8,53.2-22.2,81.3
		c-2.1,42.7-21.1,78.4-40.6,114.4c-6.8,12.5-9.9,12.7-23.2,5.7c-14.4-7.5-23.2-18.4-21.8-35.6c0.3-4.4,0.5-9-0.3-13.4
		c-8.2-44-10.2-88.4-10.9-133c0-1.2-1.5-2.4-3.3-5c-7.8,7.3-14.9,15.4-23.3,21.6c-8.3,6.1-19,9.3-26.8,16
		c-6.5,5.6-13.4,13.9-14.6,21.8c-3.8,26.3-21.1,37.7-43.2,47.2c-9.5,4.1-18.8,13.1-23.5,22.3c-7.6,14.8-16.9,27.2-28.5,39.1
		c-25.2,26-55.4,45.3-85.8,63.2c-40.9,24.1-99.9,0.2-108.3-42.7c-0.6-2.9-0.6-6-1.6-8.8c-3.5-10.5-11.3-12.9-18-4.8
		c-16.2,19.9-36.2,34.5-59.1,45.7c-1.3,0.6-2.7,1.4-3.7,2.5c-24.8,24.3-55.8,36.1-88.5,45.3c-54.1,15.2-105.5-9.2-126.4-46.3
		c-12.3-21.8-20.7-45.7-31-68.6c-0.8-1.9-2.7-3.3-5.7-6.9c-3.2,4.7-6.9,8.1-8.3,12.3c-7.8,23.1-15.4,46.4-22.6,69.8
		c-8.1,26.3-16.2,52.6-23.6,79.1c-6.5,23.1-22.4,39.9-37.1,57.4c-7.9,9.4-19.4,10.5-30.6,3.8c-16.4-9.8-30.4-24.3-28.9-48.5
		c2.4-38.4,1.1-77.1,1.3-115.7c0-1.4-1-2.7-2.4-6.6c-5.1,4.9-11.4,8.4-13.7,13.5c-10,22.6-27.6,38.3-45.5,54
		c-13.5,11.7-25.8,25.1-40.5,35.1c-22,15.1-44.8,29.6-68.9,40.8c-9.4,4.4-23.3-1-35.1-1.1c-45-0.6-73-29.2-81.3-68.7
		c-0.7-3.6-2.4-7-3.7-10.7c-18.7-2.5-37.1-4.3-55.2-7.6c-24.8-4.5-44.9-19.1-65.3-32.7c-9.2-6.1-18.5-12.1-27.9-18.2
		c-21,14.3-24.4,36.6-30.5,56.7c-6.1,19.8-8.7,40.6-13.1,60.9c-5.9,27.6-11.6,55.2-18.4,82.6c-4.5,18.4-12.9,21.4-29.4,12
		c-5.7-3.3-11.1-7.3-17.8-11.8c2.6-12.6,6.1-24.7,7.5-37.1c6.6-57.6,13.1-115.2,18.5-172.9c1.3-13.9-2.9-28.1-3.1-42.2
		c-0.1-9.3,0.6-19.4,4.3-27.7c4.5-10,15-10.8,21.7-2.1c4.7,6.1,7.7,14.3,9.1,22c1.4,7.9-0.6,16.3-0.4,24.5c0.2,7,1.3,14,2.1,21
		c1.5,0.4,3,0.7,4.6,1.1c4.1-4.9,8.5-9.6,12.3-14.7c14.6-19.6,28.6-22.3,49.7-9.1c17.7,11.1,35.1,22.5,52.7,33.6
		c22.7,14.3,48,19.2,75.6,20.6c1.5-4.1,3.5-7.9,4.2-12c10.3-57.1,30.5-110.2,63.6-158.1c11.1-16.1,26.3-26.1,44.7-31.8
		c16.5-5.2,31.9-2.3,42.9,10.8c10.9,12.9,21.4,26.9,28.4,42.2c20.1,44.2,8,98.6-29.7,129.1c-20.1,16.3-43,29.2-65.5,42.3
		c-7.3,4.2-17.4,3.3-25.6,6.4c-7.9,3-17.9,6.6-21.3,13c-2.4,4.6,3.1,15.3,7.7,21.2c15.8,20.1,37.8,25.3,62.2,21.9
		c27.7-3.8,50.5-17.8,70.7-36.1c15.4-14,29.7-29.1,44.5-43.8c31.1-30.7,56.1-65.9,73.8-105.7c6.6-14.8,10.5-30.9,14-46.8
		c5.8-26.7,10-53.8,15.3-80.5c3-14.9,9.9-26.6,28.5-26.7c3.1,4.6,6.3,9.3,9.5,14.1c6.5,9.9,7.7,19.9,3.7,31.6
		c-10.8,30.9-21.5,61.8-30.3,93.3c-4.6,16.3-5.2,33.8-7.3,50.8c-3.8,30.3-10.5,60.6-10,90.8
		C1339.2,1977.4,1331.3,2004.9,1347.2,2035.1z"/>
	<path class="st0" d="M506.5,1981.1c1.3,1.1,2.7,2.1,4,3.2c5-4,10.4-7.6,15-12.1c60.3-58.6,95.5-132.1,122.5-210.1
		c9.4-27.2,16.3-55.2,22.1-83.7c6-29.4,9.6-58.5,9-88.4c-0.1-7.4,0.6-15-0.2-22.3c-1.4-12-9-16.1-18.3-8.8
		c-9.3,7.2-18,15.9-24.7,25.5c-13.2,18.9-25,38.8-36.9,58.5c-4.6,7.6-8.5,15.7-12,23.9c-6.7,15.8-13.8,31.4-18.9,47.7
		c-11.2,36.1-21.2,72.6-31.6,108.9c-0.6,2.1-0.1,4.5-0.5,6.7c-3.4,20.5-6.5,41-10.6,61.4c-2.5,12.2-7.4,23.8-9.9,36
		C511.9,1945.3,509.5,1963.2,506.5,1981.1 M499.9,2524.1c15-8.9,8.4-22.5,11.1-32.9c2.9-11,3.9-22.6,7.8-34c6.5,14.2,8.7,29,9.3,44
		c0.8,19.4,0.7,38.8,0.2,58.1c-0.2,8.1-2.2,16.2-3.8,24.2c-2.4,11.5-11.1,15.4-21.4,15.9c-10.5,0.6-17.6-6-19.4-15.3
		c-6-31.3-14.4-61.9-14.3-94.5c0.1-28-6.4-56-8.9-84.1c-3.1-36.2-8-72.1-1.8-108.9c3.8-23.1,0.7-47.3,0.7-71c0-2.9-0.6-6-0.2-8.8
		c4.5-33.8,9.6-67.5,13.6-101.3c2.2-19.1,2.6-38.3,3.9-58.1c-19.3-6.3-35.1,3.2-41.4,15.3c-9.6,18.3-24.8,26.8-40.4,36.6
		c-16.3,10.2-32.2,20.9-48.7,30.6c-38.4,22.5-77,44.5-115.7,66.4c-2.9,1.6-6.8,1.3-10.3,1.9c-8.7,1.6-18.4,1.4-25.9,5.4
		c-27.9,14.7-55,7.6-82.4-0.4c-7.5-2.2-14.5-5-15.3-14c-0.8-9.6-1.8-19.8,8.3-26c4.4-2.7,9.2-4.5,15.4-7.5
		c10.4,19.2,28,19.2,46.4,18.3c35.7-1.8,68.6-14.4,100-29.3c70.7-33.7,136.3-76.1,197.7-125c13.3-10.6,19.9-23,19.9-40.2
		c0-24,6.4-46.9,12.7-69.9c5.9-21.5,9.2-43.7,13.6-65.6c4.7-23.3,9.6-46.7,14.1-70c3.1-16.1,5.8-32.2,8.4-48.4
		c3-18.5,6.3-36.6,17.4-52.6c3.7-5.3,6.2-11.9,7.5-18.3c7.3-35.8,26.6-65.8,45.8-95.9c6-9.3,11.5-18.9,17.2-28.5
		c11-18.5,24.7-33.6,46.5-39.1c9.4-2.3,15.5,0.2,22.8,8.4c20.8,23.5,20.8,51.6,20.7,79.7c-0.1,40.3-4.4,80.2-16.4,118.8
		c-6.8,21.8-15.1,43.2-23.6,64.4c-10.2,25.5-20.9,50.9-32.1,76c-20.4,45.5-42.6,89.8-78.9,125.5c-16.4,16.1-31.2,34-47.5,50.2
		c-11.9,11.9-17.2,25.6-17.3,42c-0.1,11.8-0.6,23.6-0.9,35.4c0,1.5,1.1,3.4,0.5,4.4c-15.8,25.6-4.4,53.8-7.9,80.7
		c-8.7,66.4-8.2,133.2-3.3,199.9c3,40.8,7,81.5,10.9,122.3C494.9,2513.5,497.6,2517.9,499.9,2524.1"/>
	<path class="st1" d="M506.5,1981.1c1.3,1.1,2.7,2.1,4,3.2c5-4,10.4-7.6,15-12.1c60.3-58.6,95.5-132.1,122.5-210.1
		c9.4-27.2,16.3-55.2,22.1-83.7c6-29.4,9.6-58.5,9-88.4c-0.1-7.4,0.6-15-0.2-22.3c-1.4-12-9-16.1-18.3-8.8
		c-9.3,7.2-18,15.9-24.7,25.5c-13.2,18.9-25,38.8-36.9,58.5c-4.6,7.6-8.5,15.7-12,23.9c-6.7,15.8-13.8,31.4-18.9,47.7
		c-11.2,36.1-21.2,72.6-31.6,108.9c-0.6,2.1-0.1,4.5-0.5,6.7c-3.4,20.5-6.5,41-10.6,61.4c-2.5,12.2-7.4,23.8-9.9,36
		C511.9,1945.3,509.5,1963.2,506.5,1981.1z M499.9,2524.1c15-8.9,8.4-22.5,11.1-32.9c2.9-11,3.9-22.6,7.8-34c6.5,14.2,8.7,29,9.3,44
		c0.8,19.4,0.7,38.8,0.2,58.1c-0.2,8.1-2.2,16.2-3.8,24.2c-2.4,11.5-11.1,15.4-21.4,15.9c-10.5,0.6-17.6-6-19.4-15.3
		c-6-31.3-14.4-61.9-14.3-94.5c0.1-28-6.4-56-8.9-84.1c-3.1-36.2-8-72.1-1.8-108.9c3.8-23.1,0.7-47.3,0.7-71c0-2.9-0.6-6-0.2-8.8
		c4.5-33.8,9.6-67.5,13.6-101.3c2.2-19.1,2.6-38.3,3.9-58.1c-19.3-6.3-35.1,3.2-41.4,15.3c-9.6,18.3-24.8,26.8-40.4,36.6
		c-16.3,10.2-32.2,20.9-48.7,30.6c-38.4,22.5-77,44.5-115.7,66.4c-2.9,1.6-6.8,1.3-10.3,1.9c-8.7,1.6-18.4,1.4-25.9,5.4
		c-27.9,14.7-55,7.6-82.4-0.4c-7.5-2.2-14.5-5-15.3-14c-0.8-9.6-1.8-19.8,8.3-26c4.4-2.7,9.2-4.5,15.4-7.5
		c10.4,19.2,28,19.2,46.4,18.3c35.7-1.8,68.6-14.4,100-29.3c70.7-33.7,136.3-76.1,197.7-125c13.3-10.6,19.9-23,19.9-40.2
		c0-24,6.4-46.9,12.7-69.9c5.9-21.5,9.2-43.7,13.6-65.6c4.7-23.3,9.6-46.7,14.1-70c3.1-16.1,5.8-32.2,8.4-48.4
		c3-18.5,6.3-36.6,17.4-52.6c3.7-5.3,6.2-11.9,7.5-18.3c7.3-35.8,26.6-65.8,45.8-95.9c6-9.3,11.5-18.9,17.2-28.5
		c11-18.5,24.7-33.6,46.5-39.1c9.4-2.3,15.5,0.2,22.8,8.4c20.8,23.5,20.8,51.6,20.7,79.7c-0.1,40.3-4.4,80.2-16.4,118.8
		c-6.8,21.8-15.1,43.2-23.6,64.4c-10.2,25.5-20.9,50.9-32.1,76c-20.4,45.5-42.6,89.8-78.9,125.5c-16.4,16.1-31.2,34-47.5,50.2
		c-11.9,11.9-17.2,25.6-17.3,42c-0.1,11.8-0.6,23.6-0.9,35.4c0,1.5,1.1,3.4,0.5,4.4c-15.8,25.6-4.4,53.8-7.9,80.7
		c-8.7,66.4-8.2,133.2-3.3,199.9c3,40.8,7,81.5,10.9,122.3C494.9,2513.5,497.6,2517.9,499.9,2524.1z"/>
	<path class="st2" d="M1056.8,1917.8c0-10.1-2-20.7,0.4-30c9.3-36.1,23.3-70.3,43.8-101.7c13-19.8,24.2-25.8,43.2-21.1
		c13.3,3.3,27.8,24,27.9,43.4c0.1,20.8-4.9,40.1-19.5,56.7c-20.9,23.9-46.6,39.7-75.7,50.5c-4.1,1.5-8.4,2.6-12.7,3.3
		C1062.3,1919.3,1060.1,1918.3,1056.8,1917.8"/>
	<path class="st1" d="M1056.8,1917.8c0-10.1-2-20.7,0.4-30c9.3-36.1,23.3-70.3,43.8-101.7c13-19.8,24.2-25.8,43.2-21.1
		c13.3,3.3,27.8,24,27.9,43.4c0.1,20.8-4.9,40.1-19.5,56.7c-20.9,23.9-46.6,39.7-75.7,50.5c-4.1,1.5-8.4,2.6-12.7,3.3
		C1062.3,1919.3,1060.1,1918.3,1056.8,1917.8z"/>
	<path class="st2" d="M508.3,1979.3c2.9-17.8,5.3-35.7,8.9-53.3c2.5-12.1,7.4-23.7,9.8-35.8c4.1-20.3,7.1-40.7,10.5-61.1
		c0.4-2.2-0.2-4.6,0.4-6.7c10.3-36.2,20.2-72.5,31.3-108.4c5-16.2,12.1-31.9,18.7-47.5c3.4-8.1,7.3-16.2,11.9-23.8
		c11.8-19.6,23.5-39.4,36.5-58.2c6.6-9.6,15.2-18.3,24.4-25.4c9.3-7.2,16.8-3.1,18.1,8.8c0.8,7.3,0.1,14.8,0.2,22.2
		c0.5,29.7-3,58.7-8.9,87.9c-5.8,28.3-12.6,56.2-21.9,83.3c-26.7,77.7-61.6,150.8-121.1,209.2c-4.5,4.4-9.8,8-14.8,12
		C510.9,1981.5,509.6,1980.4,508.3,1979.3"/>
	<path class="st1" d="M508.3,1979.3c2.9-17.8,5.3-35.7,8.9-53.3c2.5-12.1,7.4-23.7,9.8-35.8c4.1-20.3,7.1-40.7,10.5-61.1
		c0.4-2.2-0.2-4.6,0.4-6.7c10.3-36.2,20.2-72.5,31.3-108.4c5-16.2,12.1-31.9,18.7-47.5c3.4-8.1,7.3-16.2,11.9-23.8
		c11.8-19.6,23.5-39.4,36.5-58.2c6.6-9.6,15.2-18.3,24.4-25.4c9.3-7.2,16.8-3.1,18.1,8.8c0.8,7.3,0.1,14.8,0.2,22.2
		c0.5,29.7-3,58.7-8.9,87.9c-5.8,28.3-12.6,56.2-21.9,83.3c-26.7,77.7-61.6,150.8-121.1,209.2c-4.5,4.4-9.8,8-14.8,12
		C510.9,1981.5,509.6,1980.4,508.3,1979.3z"/>
</g>
</svg>
