<svg xmlns="http://www.w3.org/2000/svg" viewBox="0 0 4751.08 3221.76"><title>frenchtoast</title><path d="M2847.79,373c-5.26-2.66-19-6.85-32.7,11.78a40.54,40.54,0,0,0-7.53,18.81c-1.3,10.23-2.36,20.58-3.37,30.6-1.41,13.85-2.87,28.17-5,42.05-.49,3.17-1,6.35-1.42,9.52-3.64,24.86-7.08,48.34-22,68.58-11.15,15.13-21.62,31-31.74,46.34-9.62,14.58-19.57,29.66-30,43.88-17,23.19-35.83,45.82-54,67.7l-8.49,10.21a17.83,17.83,0,0,1-4.36,3.28c-1.67-28.57.28-57.72,20.32-80.71,12.58-14.45,14.12-30.55,15.48-44.75.28-2.91.54-5.65.88-8.33,1.73-12.89-6.34-20-11.69-24.64a27,27,0,0,1-4.85-4.94l-.1-.15c-1.27-2-2.59-3.79-3.87-5.55-.93-1.29-1.82-2.5-2.67-3.76-20.16-29.47-47.94-41.95-80.36-36.09-38.46,7-72.78,21.44-102,42.78-13.54,9.91-26.31,20.4-39.84,31.49q-3.66,3-7.43,6.09A54.44,54.44,0,0,0,2410.88,572c-10.56-7.13-23.82-10.9-40.54-11.54-34-1.22-62.23,7.47-84.05,25.82-19.48,16.33-39.76,34-55,55.1-18.44,25.36-33.85,53.15-48.75,80l-6,10.74c-8.8,15.79-16,32.53-22.87,48.71l-2.75,6.43c-2.21,5.11-4.32,10.28-6.36,15.45.41-5.24.81-10.44,1.2-15.57,2.89-37.74,5.88-76.76,11.4-114.61,3.08-21.07-4.4-36-11-49.26-4.46-8.86-13.05-14.23-22.41-14-9.17.22-17.32,5.85-21.26,14.68-5.68,12.64-5.64,27.09-5.11,34.56,2.06,29.84,2.44,68.79-13.07,105.33-17.73,41.79-45.64,80.23-87.85,121-20.63,19.92-43.24,31.7-67.2,35-20.83,2.89-36.66-.69-47-10.65-11.7-11.21-16.8-31.28-14.38-56.49.13-.92,2.13-4.8,9.45-10.41,8.51-6.58,17.5-13,26.2-19.12,9.13-6.47,18.57-13.17,27.64-20.22,2.77-2.17,5.71-4.29,8.82-6.55,11.61-8.42,23.62-17.12,29.69-29.82,3.56-7.39,9.4-12.54,15.6-18,5.17-4.57,10.52-9.29,15-15.58a22.06,22.06,0,0,1,2.64-2.53c2.5-2.19,5.63-4.91,7.4-9.12l0-.09c1.43-3.52,3.14-7.11,5-10.91,5.5-11.56,11.19-23.5,10.64-36.31-.78-17.66-8.66-33.48-22.79-45.75-16.76-14.56-41.93-23-62.6-21-6.44.6-12.27,3.2-17.42,5.49-1.43.64-2.79,1.24-4.11,1.78-17.3,7.11-27.14,21.4-35.82,34-19.78,28.74-38.12,57.47-45.1,92.87-3.41,17.51-9,35.2-14.37,52.3-2,6.34-4.06,12.9-6,19.42a4.8,4.8,0,0,1-1.19,1.84c-8.45,5.42-17.17,10.78-25.75,16,25.71-51.13,31-105.74,15.75-162.44-3.85-14.28-12.46-28.93-23.6-40.19-24.46-24.94-70.7-24.55-97,.81-16.57,16-34.07,34.82-46.25,58.3q0-4.72.16-9.39c.39-13.95.69-28.14,1-41.85.78-36,1.59-73.23,3.89-109.71,1.53-24.07,4.6-48.55,7.57-72.22,1.85-14.75,3.77-30,5.31-45.17,1.15-12,2.06-26.12,0-39.84a23.61,23.61,0,0,0-11-16.77c-8.09-5.17-19.38-6.29-30.25-3-20.86,6.49-18.15,25.17-17,33.16a243.91,243.91,0,0,1,2.3,38.39c-.21,14-.82,28.35-1.41,42.2-.57,13.1-1.15,26.65-1.39,40.08-.23,13.74-.12,27.67,0,41.15.12,15.85.25,32.24-.18,48.25v.24c-1.37,49.55-2.79,100.78-5.87,150.93-2.68,43-6.62,88.87-12.77,148.71-1.89,18.3-4.54,37-7.11,55-2.16,15.2-4.39,30.92-6.17,46.39-1,8.35,2.49,19,8.38,25.35,18.14,19.45,55.51,24.78,78.41,11.19,22.21-13.16,39.7-29.26,52-47.83,20.06-30.35,39.24-56.61,70.86-70.63,5.47-2.39,9.75-6.72,13.48-11,6.77-7.54,15.39-11.37,25.74-14.59,1.77,3.61,3.5,7.21,5.19,10.74,6.17,12.84,12,25,19.16,36.84,19.76,32.54,63.78,51.23,102.39,43.49,23.77-4.73,48.46-11.26,66.05-34,1.72-2.21,5.38-4.28,8.93-6.28l2.86-1.65c15.59-9.12,28.52-22.06,40.68-40.73,9.73-15,19.74-30.37,29.9-45.51-.2,17.09-.37,33.26.52,49.46,1.38,24.71-4.38,48.9-9.9,69.64-5.53,20.91,4.59,38.51,25.84,44.86,8.2,2.39,15.42,1.87,21.45-1.54,7.1-4,12.07-11.75,15.21-23.65,2.95-11.13,5.8-22.47,8.56-33.44,4.9-19.51,10-39.69,15.76-59.19,7.66-25.79,18.07-59.59,30.65-92.26,6.58-16.92,15.29-33.6,23.7-49.73,2.35-4.49,4.7-9,7-13.5,22.72-44.59,49.63-78.65,82.27-104.12,19.42-15.14,39.22-20.22,58.88-15.09,6.85,1.77,11.25,4,12.73,6.52,1.21,2.05,1.3,5.71.27,11.54-1.53,8.75-2.76,17.66-3.95,26.26-2.59,18.71-5,36.38-10.28,53.39-3.56,11.66-6.12,23.66-8.59,35.26-5.38,25.24-10.47,49.08-25.08,69.63-2.91,4.12-3.63,8.79-4.21,12.55-.2,1.3-.39,2.53-.63,3.46-3.26,12.59.15,26.35,9.12,36.81s22.18,16,35.24,14.74c11.14-1.12,20.67-6.31,26.84-14.62,6.44-8.69,8.66-20.23,6.25-32.48-3.07-15.65-.11-30.53,3-46.28.63-3.15,1.28-6.41,1.89-9.72,2.86-16.07,6.51-32.68,10.84-49.39,8-30.88,17.23-53.46,30-73.25,9.81-15.3,22.62-27.19,36.18-39.79l4.51-4.2c26.14-24.48,59.27-38.57,101.36-43.09,3.65-.4,8.25.82,12.73,2.07,0,1.93,0,3.82,0,5.68,0,11.85,0,22.09-.11,32.36v.14a35.69,35.69,0,0,1-1.15,10.11c-11.25,35.26-16.34,73.71-15.55,117.57.52,28.15,20.28,41.45,35.06,49,20.54,10.58,38.18-5.5,46.65-13.22,5.36-4.87,11.52-10.8,16.52-17.78,19.09-26.53,38.4-53.56,57.08-79.69,11.83-16.56,24-33.58,36.09-50.47q0,5.58.08,11c.22,25.66.41,49.91-.48,74.2-1.16,31-1.5,64.32,3.81,97.64,3,18.94,3.78,38.87,4.53,58.14.32,8.37.66,17,1.17,25.53l2.1,35.29c.31,5.27.65,10.53,1,15.79.64,10,1.31,20.27,1.7,30.33.2,5,0,10.11-.24,15.53-.44,10.81-.9,22,1.93,32.85,4.78,18.7,6.63,35.29,5.82,52.16a129.5,129.5,0,0,0,.87,19.36c.35,3.65.68,7.1.83,10.56.51,11.36,1.22,22.87,1.9,34,2.45,40.18,5,81.74-.92,122.11-.82,5.75-1.94,11.39-3.14,17.37-2.46,12.37-5,25.17-4.65,38.83.09,3.34-2.1,8.09-4.22,12.69-1,2.15-2,4.38-2.88,6.58-1.42,3.48-3,6.92-4.6,10.56-2.71,6-5.51,12.26-7.7,18.77-12.91,38.11-35.3,72.8-68.42,106a256.22,256.22,0,0,1-36.71,29.86c-11.41,7.74-22,10.7-31.55,8.78s-18.2-8.75-25.7-20.25A109.78,109.78,0,0,1,2606.2,1474c-13.2-38.71-20.71-71.82-23.62-104.16-1.5-17.09-3.41-34.36-5.25-51.06-4.68-42.4-9.52-86.25-7.82-129.75l.19-5.08c1.62-43.31,3.14-84.21,17.83-123.89.27-.74.56-1.49.86-2.26,2.88-7.4,7.71-19.8-1.83-33.79l-5.56-8.16-7.95,5.87c-1,.73-2.26,1.47-3.59,2.25-3.66,2.15-8.21,4.82-10.65,9.7-12.67,25-19.52,49.28-20.91,74.17-.37,6.69-1.18,13.34-2,20.38-.68,5.6-1.38,11.4-1.85,17.25-.21,2.92-.44,5.83-.67,8.75-1,13.41-2.12,27.27-2,41.1.16,10.84.9,21.74,1.6,32.28,1.05,15.55,2,30.25,1.4,45.07-1.68,40,2.18,83,12.17,135.49,8.8,46.07,24.75,88.35,47.41,125.65,11.75,19.36,27.05,29.19,48.14,30.94,3.16.26,6.27.39,9.31.39,24.52,0,45.12-8.51,61.37-25.41,8.13-8.53,13.91-11.45,17.31-12.38,18-4.92,32.53-18.16,40.82-37.29,6.17-14.21,14-27.29,22.3-41.13,10.05-16.79,20.45-34.15,27.61-53.69,8.69-23.71,13.86-48,18.87-71.44q1.62-7.65,3.29-15.3c4.69-21.42,5.34-43.91,5.92-63.77.1-3.82.21-7.65.32-11.47.93-32.36,1.88-65.83.07-98.81-2.14-38.75-5.58-78-8.91-115.92-1.66-18.92-3.38-38.48-4.91-57.74-1.19-14.46-2-29.23-2.7-43.51l-.38-7.2c-.86-16.8-1.84-33.86-2.78-50.37-2.43-42.63-4.95-86.7-5.81-130-.47-24.05,1.32-48.77,3.06-72.68.8-11.08,1.63-22.53,2.23-33.81,2.73-49.94,12.14-92,28.76-128.69,14.32-31.56,16.92-64.84,7.73-98.87C2863.14,386.41,2855.83,377.1,2847.79,373ZM1968.05,678.82c.43,1.39-.34,2.91-1,3.9a340.49,340.49,0,0,1-85.83,84.83c.85-2.06,1.69-4.12,2.53-6.15,7.16-17.44,14.56-35.48,23.83-51.77,7.23-12.59,19.43-23.61,32.34-34.7a14,14,0,0,1,2-1.45,17.23,17.23,0,0,1,7.68-1.64,38.91,38.91,0,0,1,13.41,2.85C1965.68,675.7,1967.56,677.24,1968.05,678.82ZM1754.32,786.5a453.52,453.52,0,0,0-19.42,52.72c-6.85,22.43-18.06,36.73-36.34,46.36-17,8.95-33.29,19.49-49.07,29.67-6.53,4.22-13.27,8.57-19.94,12.72a485.31,485.31,0,0,1,53.5-198.3c9.57-18.53,21.06-36.88,40.07-46.81.94-.46,1.89-.91,2.87-1.33,5.42-2.35,9.75-3.59,13.38-3.59,6.74,0,11,4.3,15.1,13.74C1768.45,724,1768.4,755,1754.32,786.5ZM310.9,1331.73c10.45,5.77,20.53,6.54,28.4,2.17,4.51-2.5,12.19-9.06,13-24.82l1.41-27.56c2.15-41.5,4.36-84.41,5.6-126.63,1.84-61.38,17.05-114.61,46.51-162.73,17.85-29.18,35.87-49.14,56.69-62.8,4.66-3.05,9.34-6.22,13.86-9.28,21.05-14.27,40.94-27.74,64.58-34.29a16.77,16.77,0,0,0,4.06-1.74,86.44,86.44,0,0,0,14.83-4.24c4.85-1.71,9.33-3.29,14-3.89q-1.87,4.56-3.7,9c-5,12.22-9.75,23.75-14.82,35.28C550,932.38,544.4,944.72,539,956.66c-10.84,24.09-22,49-32,74-9.33,23.08-16,47.45-22,68.94q-1.06,3.84-2.15,7.68c-6.24,22.22-12.69,45.2-11,69.92s12.83,44.19,30.42,53.7c17.33,9.37,38.4,8.1,59.31-3.56,16.23-9.07,38.46-21.49,49-46.36,7-16.21,15.69-32.17,24.13-47.61l2.74-5a61.3,61.3,0,0,0,3.47-7.79c.29-.74.56-1.41.81-2q1.23,2.88,2.43,5.72c5.69,13.44,11.07,26.14,17.85,38.55,8,14.56,22,27.52,38.42,35.54,17.31,8.47,35.07,10.23,48.74,4.81,23-9.17,46.69-20,64.58-36.8,28.12-26.36,60.07-57.71,83.42-96.29,5.69-9.35,12.09-18.65,18.27-27.65,7-10.23,14.31-20.8,20.81-31.79l2.4-4.09c11-18.74,22.39-38.12,29.5-59.06,13.35-39.27,27.33-70.22,44-97.37,5.61-9.09,11.43-14.13,17.3-15s12.67,2.32,20.38,9.3c8,7.29,11.68,16.88,16,28l1.1,2.85c7.8,19.9,4.12,34-12.67,48.54a377.5,377.5,0,0,0-83.6,102.49c-20.34,36.8-41.16,81.33-41.38,132.6a142.1,142.1,0,0,0,1.39,19.16c2,13.49,11.33,24.36,25.11,29.08,14.42,4.93,30.13,1.95,40-7.6,4.78-4.62,9.87-9.19,14.79-13.61,13.21-11.87,26.87-24.14,37.74-39.84l4.15-6c17.2-24.92,35-50.68,45.4-80.86A520.68,520.68,0,0,0,1124,939.5c.77-8,2.58-11.29,3.15-11.81,6.56-5.66,12.93-11.64,19.09-17.41,16-15,31.21-29.24,49.89-39.2,9.61-5.15,19.14-10.73,28.36-16.12l4.52-2.63c4.27-2.48,8-3.47,11.84-3,0,2.82,0,5.52,0,8.13-.18,6.54-.31,13.08-.44,19.61-.32,15.32-.64,31.16-1.55,46.57a351.05,351.05,0,0,1-5.35,42.92,20.81,20.81,0,0,1-5.75,9.81c-9.19,8.85-14.73,14.19-16.4,21.87-1.76,8.1,1.55,15.54,7.16,26.77a45.43,45.43,0,0,1,4.5,27c-4.77,39.08-9,78-12.62,110.81-.89,8.1-1.52,16.28-2.13,24.18-.83,10.83-1.7,22-3.23,32.81-.83,5.86-1.82,11.83-2.77,17.61-3.66,22.17-7.44,45.09-4.35,69.09,1,8.27.31,17-.43,26.24-.32,4-.65,8.15-.83,12.29q-.46,10.5-1,21c-.77,15.73-1.56,32-1.91,48-.09,5,.5,17.39,7.9,24,8.42,7.47,18.44,12.53,27.47,13.88a23,23,0,0,0,3.47.27,19.72,19.72,0,0,0,16.18-8.34c3.47-4.64,5.25-10.44,6.4-14.94a82.59,82.59,0,0,0,2.5-17.48c.37-11.56.83-23.33,1.27-34.71,1.21-31,2.45-63.16,2.23-94.86-.08-12.23-.28-24.65-.48-36.65-.78-47.55-1.59-96.72,5.18-144.41,1.14-7.72,2.27-15.45,3.54-24.08,36.17,19.24,64.83,2,88.88-15.63,20.22-14.85,35.71-33.59,50.69-51.72,7.79-9.44,15.85-19.19,24.29-28,4.43-4.53,6.89-10.15,9.06-15.1.45-1,.9-2,1.37-3.07,2.41-5.24,4.59-10.6,6.69-15.79,4-9.86,7.77-19.18,12.94-27.43,14.46-23.13,28.56-48.63,33.8-78.4q.95-5.35,1.93-10.72c5.37-29.59,10.93-60.18,5.58-92.24-5.2-30.3-21.58-44.72-51.56-45.4-28.73-.65-54.49,4.51-76.56,15.36-23.65,11.61-43.27,29.83-58.39,54.21a100.68,100.68,0,0,1-9.62,12.49c-1.69-1.94-3.32-3.78-5-5.63-11.33-12.53-23-18.22-34.67-16.9-12,1.35-22.4,9.87-31.07,25.32-7.33,13-14.94,21.65-22,24.92-28.88,13.34-54.18,31.79-78.64,49.65-7.17,5.23-14.58,10.64-21.86,15.75l-.47.31-1.52-5.08c-3-10-5.83-19.41-9.3-28.79-8.89-24-19.82-41.24-34.41-54.22-15.94-14.12-34.2-20-51.43-16.42-17,3.49-31.28,15.76-40.19,34.59l-4,8.48c-6.5,13.8-13.23,28.06-19.58,42.28-5,11-9.74,22.31-14.38,33.23-9.61,22.62-19.55,46-31.15,67.81-9.66,18.24-22,35.78-34,52.75-5.22,7.39-10.62,15-15.76,22.69-19.89,29.55-47.6,67.08-85.54,95.14-10.56,7.75-24.69,14.3-40.9,18.93-14.5,4.16-27.67-1.86-36.14-16.53a67.41,67.41,0,0,1-6.83-16c-10.14-38.77-13.05-71.31-9.16-102.37.63-4.91,1.43-10,2.21-14.87,1.67-10.57,3.4-21.5,3.76-32.56l.09-2.92c1.07-35,2.07-68.06,12.64-100.41,3.45-10.51-1.63-26.55-7.53-38.05-4.29-8.34-11.31-18.9-20.43-21.78-16.18-5.13-37.54-9.67-59.34.92a307.81,307.81,0,0,1-33.65,14.36c-10.33,3.58-21,6.91-31.33,10.13-12.62,3.93-25.68,8-38.43,12.63-33.84,12.38-66.94,32.94-101.19,62.87A248,248,0,0,0,344,980.68c-.42.94-.84,1.87-1.24,2.79-6.27,14.08-8,16.95-19,13.7l-12.2-3.59v12.72c0,5,.06,9.72.12,14.31.13,9.29.25,18.06-.21,26.57l-.71,12.89c-2.7,49.07-5.5,99.81-9.18,149.65-1.71,23.9-3.72,47.14-9.32,68.78C286.23,1301.76,287.23,1318.78,310.9,1331.73Zm213-154.31a34.39,34.39,0,0,1-1.8-21.78c13-59.25,29.75-121.89,63.56-178.54,10.61-17.65,19.49-36.42,28.07-54.57,1.52-3.21,3-6.43,4.56-9.62,3.34-7,7.2-12.69,14.07-17.51a57.56,57.56,0,0,1,.74,8.88c-1,43.44-2.14,92.67-15.34,139-6,21-16.38,41.73-26.74,61s-23.21,37.75-35.57,55.09C545.74,1173.09,536.1,1178.66,523.89,1177.42Zm547.72-192.8-.09.26c-13.26,40.79-25.78,79.32-49,114.19-11.38,17.32-26.08,30.18-39.24,40.48-1.1-11.07,2.51-21.49,6.72-32C1008.23,1062.29,1035.65,1021,1071.61,984.62Zm207.44,31.89c8.35-71.17,24.49-126.56,50.79-174.33,2.19-4,4.26-8,6.25-12,2.71-5.32,5.27-10.34,8.09-15.17,19.86-33.52,50.47-53.45,91-59.24a54.36,54.36,0,0,1,7.7-.63c4.15,0,7.09.73,8.66,2.17,1.83,1.68,3.88,6.29,3.17,18.71v.13a43.78,43.78,0,0,1-.76,5.41l-.11.62,0,.63c-1.63,34.59-4.5,65.4-23.28,92.07a64.61,64.61,0,0,0-4.11,6.72c-4,7.28-6.74,15.14-9.39,22.79-.46,1.34-.92,2.68-1.37,4a142.94,142.94,0,0,1-14.33,29c-.63,1-1.26,1.92-1.9,2.87l-.27.4a182.25,182.25,0,0,1-26.44,30.28q-9.14,8.53-18.23,17.11c-13,12.26-26.5,24.93-40,37.1-8.22,7.45-17.13,9.15-27.22,5.2-4.37-1.72-7-3.27-7.8-4.62S1278.5,1021.23,1279.05,1016.51ZM4837.52,347h-9.32c-1,0-1.9-.05-2.78-.1a21.86,21.86,0,0,0-7.79.58,74.65,74.65,0,0,0-11.79,4.77L4796,357c-52.22,25.41-106.22,51.68-162.63,69.18-45.27,14-99.1,28.2-155,26.88l-5.95-.11c-12.07-.19-23.46-.38-34.26-2.68-16.49-3.53-35.71-8.2-53.27-16.07-27.33-12.34-45.68-30-56.09-53.82-12.47-28.73-16.94-58.63-13.29-88.86,2-16.2,5.32-32.76,8.54-48.77.79-3.92,1.58-7.83,2.36-11.78,3.46-17.94-3.46-34.21-18.09-42.5-14.22-8-24.42.78-29.89,5.48-1.29,1.11-2.51,2.15-3.63,2.93-35.33,24.81-57.71,61.18-77.62,96.31-15.25,27-28,55.76-40.32,83.54-5.16,11.63-10.48,23.63-15.91,35.34,0-.36-.06-.7-.07-1-1-28.2-12.51-53.49-21.75-73.79-15.92-35-38.43-57.06-68.85-67.29a36.63,36.63,0,0,0-35,6.48,34.45,34.45,0,0,0-12.52,31.06c.75,5.81,3.14,10.82,5.24,15.24l.21.44c-.4.67-.76,1.23-1.12,1.73-28.71,39.71-57.68,82.86-69.08,135a56,56,0,0,1-11,21.91c-10.66,13.38-23.14,25.64-32.81,34.84-15.41,14.64-30.93,28.2-51.54,33.26-11.33,2.81-18.71,2.91-22.56.32s-6.31-8.92-7.84-19.56c-3.13-21.45-3.21-43.23-3-67.42.53-47.21,10.36-87.86,30.07-124.32,7.36-13.71,5.3-30.3-5.8-46.72-5.78-8.53-14.46-13.27-23.78-13-9.9.29-19.28,6.3-25.07,16.05a71.72,71.72,0,0,0-4.35,9,41.36,41.36,0,0,1-4.07,8c-21.41,28.38-33.57,61.09-45.34,92.71-3.22,8.68-6.56,17.66-10,26.31-11.37,28.6-17.65,59.29-23.72,89-.86,4.16-1.72,8.38-2.6,12.6-.7-32.82,4.75-65.77,10-97.67,1.14-6.94,2.33-14.12,3.44-21.25,5.16-33.72,8.56-63.69,10.39-91.61.71-10.59-1.3-20.79-3.24-30.65-.82-4.13-1.58-8-2.13-11.84l-1.13-7.79-7.86-.35c-20.76-.94-33.17,1.4-47.55,17.18l-1.12,1.22c-9.67,10.59-19.68,21.53-26,34.88-16.18,34.71-28.15,63.76-37.68,91.42l-.7,2c-17.67,51.34-35.94,104.44-47.31,159.11-.85,4.05-1.81,8.3-3.09,12.62,0-.73.09-1.45.13-2.17,1.48-24.78,3-50.4,5.44-75.36,3.85-38.9,8.46-78.42,12.92-116.64q1.83-15.77,3.66-31.49c.16-1.38.26-2.75.36-4.07.15-2.09.41-5.58,1-6.51,12.21-16.63,6.08-32.54,1.6-44.15-1.12-2.91-2.18-5.65-2.94-8.24-2.79-9.61-15.29-19.05-25.23-19.05-9.68,0-20.66,9.11-24.81,17.56-3.76,7.51-3.05,16-2.42,23.43.08,1,.17,2.07.23,3a80.74,80.74,0,0,0,1.76,11.37c.85,4.15,1.65,8.06,1.36,11.32-1.26,14.71-3.08,29.66-4.84,44.13-1.14,9.35-2.32,19-3.34,28.57-3.7,34.21-18.17,63.66-31.83,88-22.47,40-51.38,75.19-79.06,107.8-11.63,13.7-28.31,26.94-49.53,39.33-18.24,10.6-30.45,9.18-45.87-6.31v0c2.22-3.73,4.52-7.59,6.94-11.23,4.38-6.52,9.07-13.08,13.61-19.44,9.66-13.52,19.65-27.51,27.75-42.52,27.57-50.75,42.42-102.2,44.15-152.93.66-20-1.39-36.77-6.26-51.17A93.34,93.34,0,0,0,3354,329.21c-11.66-9.13-24.72-15.38-41.23.51-4.51,4.3-9.6,9.61-13.05,16.26-14.49,27.6-27.79,55-31.43,86.43q-.52,4.53-1,9.08c-1.81,16.31-3.68,33.18-7.83,48.89-12.24,46.54-12.59,93.53-11.91,137.66.16,11.08-2.35,17.75-9.24,24.55-4.22,4.12-8.57,8.3-12.79,12.35s-8.63,8.27-12.92,12.47a137.16,137.16,0,0,1-51.13,31.93c-14.86,5.28-30.18,4.67-43.14-1.74-12.19-6-21.32-16.86-25.7-30.48-4.72-14.83-7.69-30.68-10.1-44.36-10.41-59.55-8.7-120.91-7-180.25.5-17.73,1-36.06,1.19-54.12.29-30.34,2.27-61.32,4.19-91.28,1.44-22.49,2.93-45.75,3.71-68.69,1.36-40,1.7-80.58,2-119.85.13-15.69.27-31.91.47-47.85V70.6a40.92,40.92,0,0,0-1.35-11.37c-1.86-6.62-6.81-24.21-25.33-23.13-11.33.68-15.83,7.44-17.5,11.41-2.08,4.92-2,10.11-2,14.7,0,.67,0,1.33,0,2,0,.42,0,.86,0,1.29a29.26,29.26,0,0,0,.56,7.55c7,30.48,7,61,7,93.26,0,17,0,34.67,1.11,52.12,1,15.72.06,32.15-.87,48-.3,5.07-.6,10.32-.85,15.51-2.09,46.62-4.52,94-6.87,139.88l0,.48c-.76,15.33-1.63,30.89-2.47,45.94-.83,14.87-1.69,30.24-2.43,45.36-.4,8-.85,17.1.15,26,3.81,33.94,8.11,70.14,13.91,117.4,4.45,36.31,16.84,63.28,39,84.85a80.7,80.7,0,0,0,56.51,23.23,82.08,82.08,0,0,0,41.22-11.22c26.89-15.68,54.49-34.14,74.15-62.83a38,38,0,0,1,3.1-4,48.18,48.18,0,0,1,4.38,5.51c13.47,19.15,32.1,28.75,57,29.34,18.56.42,33.7-4.91,50.62-17.87,21.54-16.59,40.3-32.24,51.81-55.79a29.37,29.37,0,0,1,3.67-5.52c23.5-27.92,48-57.6,69.32-89.46a117.82,117.82,0,0,1-2.81,17.15c-7.85,30.32-9.47,62.65-5.26,104.8,1.66,17.07,11.19,27.79,26.85,30.19,19.37,2.93,28.71-1.65,38.45-18.92l.48-.86c4.39-8,8.93-16.19,11.53-25.28,10.51-36.28,21.26-74.76,34.85-124.79,1.9-7.12,3.39-14.33,4.83-21.29,1.85-9,3.6-17.46,6.16-25.74,8-25.69,16.07-48.87,24.69-70.89,7.37-19,16.22-37.95,24.88-56.33a135.16,135.16,0,0,1-.59,19.63c-1.22,9.87-3.05,20-4.83,29.77-2.41,13.27-4.89,27-6,40.83-1.72,21.3-2.23,42.91-2.74,63.81-.26,11.08-.54,22.55-1,33.86a43.31,43.31,0,0,1-.94,6.47c-.87,4.55-1.86,9.71-.8,15.17,3.12,16.7,2.37,33.42,1.58,51.13-.42,9.5-.86,19.33-.64,29.09.1,5.77,2.05,11,3.76,15.65.51,1.38,1,2.7,1.42,4,2.26,6.86,8.79,18.16,27.24,18.16l1.6,0c13.42-.44,22.75-8,26.29-21.29,2.1-8,4.63-16.17,7.07-24.06,3-9.57,6-19.47,8.47-29.5,6.36-26,12.55-52.59,18.54-78.28,4.28-18.38,8.71-37.4,13.17-56a281.77,281.77,0,0,1,11.61-36.25c-.07,5.41-.15,10.79-.22,16.11-.32,22.36-.65,45.49-.65,68.31,0,23.51,1.78,47.83,23.13,64.26,2.29,1.75,4.62,3.9,7.08,6.19,8.92,8.26,21.14,19.59,40,15.67,17.6-3.65,43.37-10.95,63.93-32.13,8.11-8.44,16.91-16.33,26.22-24.69,1-.87,2-1.76,3-2.65,1.43,15.24,10.85,25.58,19.27,34.82l.66.73c14.93,16.41,35.57,24.64,56.64,22.57,21.23-2.09,40.06-14.32,51.67-33.6l.65-1.09c3-5.11,5.91-9.93,9.44-13.69,16.7-17.9,26.15-39.45,28.92-66.52-.11,11.23.08,22.43.25,33.39.26,16.27.54,33.09-.14,49.46-.78,19.65,10.18,29.15,22.13,36.49,11.61,7.13,20.06,5.93,25.1,3.67s11.34-7.59,13.64-20.49c2.19-12.14,6.84-20.29,14.6-25.63,19.47-13.28,16.77-30.33,12.25-43.7-11.68-34.7-9.43-71,6.71-107.95,7.45-17.06,16.3-35.12,27.07-55.22,15.87-29.68,32.73-59.51,49.09-88.42-6.28,35,.26,68.16,6.81,93.5,10.49,40.8,31.64,71.63,62.9,91.66,23.35,14.85,46.82,28.16,76.75,27.48h.12c4.5,0,11.23,3.8,15.3,6.09,10.37,5.8,22.32,10.14,39.56,2.71,7-3.08,15.76-3.72,25-4.4,4.43-.32,9-.66,13.56-1.28,3.28-.45,6.56-.8,10-1.17,8.65-.91,17.59-1.86,26.31-4.45,10-3,19.81-6.69,29.29-10.24,10.77-4,20.94-7.85,31.47-10.82,5.93-1.68,12.4-2.33,19.26-3,8.89-.89,18.08-1.81,26.94-5.12,7.3-2.7,13.83-6.5,20.14-10.18,11-6.43,20.57-12,32.33-11.25,4.7.32,7.8-2.45,9.13-3.64,2.31-1.13,4.58-2.3,6.79-3.43,6-3.09,11.69-6,17.51-7.86,34.18-10.95,60.43-24.06,82.62-41.24.7-.54,1.42-1.07,2.13-1.6,5.95-4.42,14.94-11.11,14.66-24.71ZM4051.67,492.11c-5.7,23-17.58,42.55-36.32,59.9-6.78,6.25-14.24,8.48-21,6.26-7.32-2.41-12.86-9.84-14.81-19.87-4.92-25.46-.87-46.35,12.78-65.78,12.64-18.22,24.5-36.42,37.06-55.7,3.06-4.7,6.19-9.49,9.34-14.31C4049.77,432.26,4059.47,460.56,4051.67,492.11Zm-763.59,94.23c.07-1.07.15-2.13.22-3.18,1.21-17.3,2.45-35.19,4.55-52.53,1.75-14.65,4.45-29.6,7.12-44.13.17-.88.33-1.77.5-2.64,1.27-6.71,2.58-13.64,3.79-20.48,4-22.06,10.71-47.05,30.54-65.26a25.21,25.21,0,0,1,6-3.94c1.53,1.49,3.46,4.63,3.75,6.63a180,180,0,0,1-6.46,79C3325.27,520.92,3308.89,555.81,3288.08,586.34Zm811-114.34c-.05-1.33-.12-2.67-.19-4-2.15-38.91-10.74-75.76-25.52-109.57,5.93,6.54,9.94,14.91,12.46,25.66l.17.76C4093,414.44,4099.53,442.51,4099.09,472ZM1984,2531.29c-3.82-1.32-8.17-2.82-13.16-2.7h-.1c-5.56.18-10,3.46-13.17,5.86l-1.54,1.13c-5,3.44-10.07,7-14.93,10.46-9.78,6.94-19,13.5-28.8,19.43-11.23,6.82-23.16,13.11-34.71,19.19l-6.75,3.56c-.37-1-.73-2-1.09-3-3.07-8.64-6-16.8-9.39-24.67-4.11-9.47-9.73-19.66-20.21-23.47-9.94-3.6-20.7-.22-30.85,4-26.09,10.81-42.39,31.11-58.16,50.76-1.89,2.34-3.77,4.69-5.67,7-10.55,12.94-21,26.3-31.09,39.22-11.88,15.21-24.17,30.95-36.66,46-16,19.27-33.45,38.18-50.34,56.46l-2.73,3c-32.89,35.59-70.09,71.49-119.16,93.06-10.51,4.66-21,4.56-31-.27-3-1.45-6.32-5.63-6.61-7.35-4.09-27.09-2.42-50,5.11-70.07,7.34-19.75,16.22-39.56,24.82-58.72q4-8.93,7.94-17.81c5.24-11.71,9.61-27.38-3.24-44.75-6.13-8.26-18.86-25.43-42.37-15.32a4.57,4.57,0,0,1-1.82-.21c-13.63-5.13-24.87-.79-35.25,4.12-4.94,2.36-10.79,4.06-18.93,5.51-55.39,9.63-105.09,18.13-151.91,26-4.18.69-8.52,1-13.12,1.36-6.81.51-13.84,1-20.82,2.79-19.31,4.77-38.79,10.09-57.62,15.23-13.69,3.73-27.84,7.59-41.78,11.2l-.67.17c-15.91,4.11-24.67,6.38-30.23,13.4a21.5,21.5,0,0,0-2.35,3.67c-1.13-12.94-4.4-22-10.25-28.92-7.94-9.43-20.26-14.71-41.21-17.63-32.61-4.53-64.64.08-95.61,4.54-5.24.75-10.66,1.53-16,2.26-6.13.84-12.28,1.82-19.4,3l-1.13.18c1.63-18.18,3.24-36.09,4.84-53.89,4-44.41,7.75-86.5,11.82-130.93l1.41-3.89a10,10,0,0,0-1.95-9.94l-14.94-25.73-1,11.15c-4.52-2-10.16-2.53-17.19.26-18.65,7.29-18.65,24-18.65,32.06,0,28.13-.54,58.41-1.7,95.31-.38,12.42-1,25.1-1.53,37.35-.77,16.9-1.58,34.38-1.87,51.7-.13,8.74-2.9,12.47-11.87,16L837.2,2693c-39.1,15.37-79.53,31.27-118.64,48.58-26.28,11.59-52.19,24.87-77.24,37.71-8.29,4.25-16.86,8.65-25.35,12.93a53.33,53.33,0,0,0-15,11.58c-9.86,10.88-10.94,25.65-2.7,36.75,5.48,7.4,17.14,13,26.63,12.65,8.61-.34,16.3-4.49,23.08-8.15,1.09-.58,2.17-1.17,3.19-1.7,21.11-10.85,41.47-23.52,61.16-35.77,30.94-19.24,62.93-39.15,97.65-51.72,4.66-1.64,8.14-4.53,11.21-7.08a33.3,33.3,0,0,1,4.7-3.49c2.4-1.28,4.79-2.61,7.11-3.9,8.26-4.61,16.18-9,24.75-11.18.75,55.72-1.21,112.38-3.11,167.2q-.47,13.53-.93,27.07c-.71,22.13-2.39,44.72-4,66.57-.64,8.55-1.29,17.39-1.88,26.12-1.47,22.46-3,45.69-5,68.49-1.1,12.57-2.72,26-5.23,43.66-.76,5.18-1.74,10.28-2.77,15.67-1.35,7-2.74,14.26-3.57,21.64-2.13,19-4.44,41.12-5,62.92-.14,9,2.22,16.08,7,21,4.63,4.74,11.23,7.19,19.61,7.26h1c6.87,0,23.74-1.12,26-27.23a192.87,192.87,0,0,0,.21-21.73c-.07-2.66-.15-5.41-.18-8.07-.06-5.64-.27-11.33-.47-16.83-.42-11.56-.82-22.49-.05-33.35.9-12.05,2.45-24.37,4-36.28,1.95-15.54,4-31.62,4.66-47.72,1.74-40.56,2.55-81.78,3.33-121.65.3-15.49.62-31.5,1-47.24.21-8.9.37-17.93.52-26.67.36-20.29.73-41.27,1.77-61.78.85-17.22,2.25-34.77,3.6-51.74,1-12.84,2.08-26.12,2.9-39.25.31-5.13.79-6.07,6.16-6.5,12.53-1,25.15-2.34,37.36-3.64,11.11-1.19,22.59-2.41,33.93-3.36,1.9-.17,3.85-.41,5.93-.67,3.63-.44,10.14-1.24,12.8-.8,8.54,9.24,18.61,10.4,26,11.25,2.26.26,4.4.51,6.44,1,7.44,1.55,9.1,4.44,9.57,9.21.17,1.69.36,3.38.54,5.06.7,6.19,1.35,12,.7,17.16q-.88,6.63-1.74,13.26c-3.08,23.56-6.25,47.92-11.33,71.27l-1.48,6.81c-9.06,41.37-18.43,84.15-11.74,128.47,1.71,11.92,6.4,23.13,12.91,30.75,16.84,19.6,37,30.42,58.21,31.29,20.65.85,41-8,58.79-25.62,40.7-40.21,54.94-92.14,42.33-154.36-5.23-25.89-14.13-50.2-23.56-75.93-3.37-9.21-6.84-18.68-10.12-28.22a9.71,9.71,0,0,1,2.49-1.58c9-3.11,18-6.43,26.73-9.65,24-8.81,48.77-17.92,73.6-23.44,30.87-6.85,63-11.17,94.12-15.36,12.48-1.67,25.37-3.41,38-5.28-3.62,4.83-7,9.56-10.17,14.49-5.38,8.57-10.65,17.33-15.75,25.81-12.31,20.46-25,41.61-39.83,60.85-22.32,29-35.38,63.57-46.84,96.46-6.92,19.8-1.13,37.11,17.28,51.48,12.91,9.93,34.86,13.45,49.27,2.15,16.92-13.27,29.76-25.14,40.42-37.36,10-11.48,19.06-23.81,27.87-35.73,4.4-6,9-12.12,13.54-18.08.35.63.74,1.26,1.17,1.88l.09.14c2.56,3.57,5,7.26,7.57,11.16,7.11,10.79,14.47,22,24.62,30.56,12.25,10.38,32.43,10.34,40.47,9.84,19.21-1,33.74-5.36,43.19-12.85,33-26.14,60.45-50.62,84-74.8,11-11.22,20.6-23.77,29.89-35.89,11-14.38,21.41-27.95,33.87-39.48,18.69-17.31,33.44-37.45,47.7-56.92,10.08-13.76,20.49-28,32-40.68,11-12.18,24.17-24.24,42.59-39.09a12.8,12.8,0,0,1,6.79.2c1.42,1,3.2,4.07,3.67,9.26.56,6.33-1.25,13.18-4.28,16.28-7.1,7.22-14.59,14.39-21.83,21.32-4.88,4.68-9.93,9.52-14.86,14.37-30.45,30-56.45,66.78-77.28,109.41-11.53,23.61-24.16,51.95-30.47,83.17-4.42,21.68-7.85,45.1-3.13,69.48,3.07,16.14,10.69,23.55,16.54,26.92,5.47,3.15,14.82,5.91,28.35,1.18,20.44-7.14,43.83-16,62.61-30.2,32.63-24.72,59.42-58.8,84.3-107.21,9.55-18.47,22.63-43.76,22.06-71.95-.17-9-.26-18.25-.35-27.16-.22-22.46-.45-45.68-2-68.59-.68-10.37,1.72-13.74,7.37-17.38,15.34-9.89,33.16-21.47,50.33-33.62,18.14-12.83,34-24.8,48.45-36.54,4.89-3.91,5.93-10,6.69-14.4.23-1.33.45-2.6.71-3.49l2.68-9.29-9.33-2.53C1986.61,2532.2,1985.32,2531.76,1984,2531.29Zm-186.42,299.54c-1.79,2.34-3.57,4.71-5.36,7.08-17.3,23-33.64,44.67-60.32,54.25a82.6,82.6,0,0,1-10.72,2.83c-.27-43,17.25-77,35.72-112.89l.9-1.75c17-33.2,37-61.73,61-87.21.76-.8,1.54-1.6,2.33-2.4,3.54-3.56,7.4-7.13,11.7-11.1a25.63,25.63,0,0,1,1.37,5.93c.4,5.61.65,11.09.78,16.46C1835.94,2754.34,1823.66,2796.61,1797.54,2830.83Zm-374-108.91c-.74,20.42-10.6,48.92-27.22,77.18-15,25.46-33.14,47.11-50.71,61.07,2.76-5.89,5.06-11.87,7.32-17.72,3.13-8.14,6.13-15.94,10.14-23.08.92-1.49,1.88-2.95,2.92-4.38,13-17.83,25-36.82,35.72-53.57a90.42,90.42,0,0,0,7-14.36c.93-2.25,1.81-4.37,2.78-6.44C1415.48,2732.12,1419,2726,1423.55,2721.92Zm-336.66,32.71c16,10.17,28.58,19.23,32.92,35.14,2.39,8.89,5.07,17.83,7.66,26.47,5.51,18.41,11.21,37.45,14.13,56.22,5.29,34-3.93,63.75-27.42,88.51-11.67,12.38-27.13,15.43-41.32,8.17-10.65-5.48-14.86-14.89-13.68-30.48,1.79-22.33,4.33-48.53,9.63-73.59a786.83,786.83,0,0,0,15.84-111.87Zm1488.28-359.3,16.31,5.77-13.6,10.68c-15.69,12.32-28.81,17.86-43.86,18.52-11.53.52-23.26,1-34.61,1.43-25.75,1-52.37,2.06-78.35,3.86-26.24,1.79-53,5-78.87,8.11l-12.51,1.49c-21,2.49-42.82,5.06-63.71,9.24-24.8,4.86-49.23,10.44-75.1,16.35-7.95,1.81-16.11,3.68-24.38,5.54q-1.53,12-3.12,24c-3.08,23.56-6.26,47.92-8.91,72-2.5,22.62-4.67,45.65-6.77,67.93-1.16,12.4-2.37,25.24-3.62,37.87a1090.9,1090.9,0,0,0-3.47,172.32c.45,7.86,2,15.79,3.59,24.17,1.06,5.52,2.16,11.23,2.94,17a156.74,156.74,0,0,1,1,16.51c.06,2.5.12,5.09.25,7.59l.54,10.58-10.58-.6c-15.62-.89-25.61-1.85-32.66-7.63-7.35-6-9.27-15.35-11.92-28.25-5.4-26-3.4-51.57-1.46-76.34,1-12.38,2-25.17,2-37.58,0-2.21,0-4.42,0-6.64,0-18.46-.06-37.56,2-56.38,5.29-50.47,11.12-101.74,16.76-151.32,2.78-24.43,5.65-49.68,8.42-74.52.1-1.41.09-3,0-5l-5.7.92c-14.73,2.38-28.64,4.62-42.33,7.17-12.49,2.34-25.18,5-37.45,7.57-9.11,1.9-18.54,3.88-27.85,5.71-22.69,4.42-39.91-3.52-47.26-21.78-2.58-6.43-5.51-16-1.4-24.77,3-6.4,8.92-11,18.15-14a248.92,248.92,0,0,1,54.11-10.83c19.35-1.82,39-2.67,58-3.48,9.42-.4,19.16-.82,28.69-1.35,5.28-.28,10.64-.57,12.56-1.16.78-1.91,1.57-7.45,2.15-11.57,2-14.09,3.69-28.51,5.35-42.45,1.33-11.26,2.72-22.91,4.24-34.37,1-7.37,2.72-14.49,4.37-21.38l.31-1.29c1.9-7.73,3.78-15.4,5.65-23.07,5.78-23.64,11.76-48.09,18-72.1,2.75-10.89,5.66-21.52,10.82-31.19,9.74-18.43,20.74-37.63,35.65-62.25,4.73-7.75,11.68-13,19.58-14.92a28.92,28.92,0,0,1,22.06,3.76c12.4,7.63,15,24.72,6.11,40.62-4.42,7.89-9.1,15.74-13.61,23.33-9.19,15.44-18.69,31.4-26,47.66a490.21,490.21,0,0,0-27.06,78.06c-6.5,25.43-11.53,51.9-16.4,77.49-1.8,9.47-3.66,19.26-5.58,28.89a40.89,40.89,0,0,0-.6,6.68l3.29-.07c9-.21,17.51-.4,25.61-1.67,69.78-11.22,139.48-16.43,222.67-20.8,16.54-.89,33.41-2.14,49.73-3.34s33.41-2.45,50.16-3.36C2545,2387.8,2559.68,2389.85,2575.17,2395.33Zm57-672.12c-6.89.32-12.83.59-18.92,1.48a89.72,89.72,0,0,0-11.48,2.71c-4.09,1.17-8,2.27-11.34,2.39-28.21,1-56.29,1-80.05.9-28-.09-53.72-6.88-76.51-20.17-21.24-12.38-40.67-30.83-57.77-54.83-12.2-17.17-20.11-37.92-26.24-55.93-8.15-24.2-10.11-50.93-5.8-79.45,1.44-9.59,2.61-20,3.47-30.94,1.27-15.68-6.71-27.67-21.37-32.09a20.19,20.19,0,0,0-16.1,2.26c-7.74,4.55-13.79,13.79-16.21,24.77a20.7,20.7,0,0,0-.41,3.87c0,.22,0,.44,0,.66-1.2,5.28-2.36,10.64-3.48,15.83-2.67,12.4-5.43,25.23-8.94,37.41-6.26,21.84-13.33,43.94-20.16,65.31q-3.49,10.92-7,21.83-6.49,20.49-13,41c-14.49,45.82-29.47,93.2-44.69,139.62l0,.13a28.31,28.31,0,0,1-4.27,7.63,54,54,0,0,1-2.17-10.37c-3-37.29-5.83-77.27-8.58-122.2-.93-15.36-.23-27.06,6.12-37.94l1-1.78c6.48-11.12,13.19-22.62,17.94-35,11.61-30.8,23-63.93,23.41-100.45v-.11a35.66,35.66,0,0,1,1.5-8.14,73,73,0,0,0,1.68-7.55q.45-2.76.89-5.51c1.83-11.24,3.72-22.86,4.7-34.56.53-5.8-2.83-10-5.79-13.68-1-1.26-2.07-2.57-3-3.94l-7.91-11.87-7.92,11.87c-9.87,14.81-13.26,28.75-16.54,42.24l-.48,2c-4.92,20-9.4,38-13.8,55.24.3-2.8.58-5.63.82-8.44.9-10.44,1.64-21,2.35-31.3,1.41-20.27,2.87-41.23,5.69-61.52,3.81-27.5,9.08-55.43,14.18-82.44,1.34-7.12,2.72-14.4,4.07-21.69,0,.68,0,1.37,0,2.08a94.78,94.78,0,0,0,.29,11.09c.73,7.36,1.55,14.79,2.34,22,1,8.65,1.94,17.61,2.76,26.4a96.87,96.87,0,0,1,.16,11.63c-.05,2-.1,4-.1,6v8.56l23,2.43,1.58-8.69c.54-3,1.19-6,1.88-9.09,1.51-6.93,3.08-14.1,3.46-21.68,1.76-39.22,3-77.58,3.81-114,.6-25.74,1.21-52.36-.52-78.7-.79-11.07-6.19-19.65-14.82-23.53-9-4.07-20.14-2.14-29.65,5.16-10.83,8.29-16,19-15.73,32.62a336.55,336.55,0,0,1-2.42,49.59c-1.61,12.17-4.2,24.66-6.71,36.74-1.47,7.08-3,14.4-4.32,21.69-2,11.23-4,22.67-5.91,33.73-4,23.43-8.16,47.65-13.41,71.09-4.27,19-8.84,44.27-6.29,71.2.48,5,0,10.48-.54,16.23-.13,1.44-.26,2.86-.37,4.28-.88,10.69-1.93,21.59-2.94,32.14-2.42,25.29-4.92,51.44-5.49,77.34-.39,18.37-4.24,32.49-12.49,45.81-36.13,58.63-85,108.11-132,153.78a332.79,332.79,0,0,1-25.72,22.62c-5.79,4.55-11.49,9.35-17,14-20.33,17.15-39.53,33.35-64.82,38.46-14.58,2.94-30.77,1.54-43.3,0-3.75-.44-12.44-2.31-12-10,.73-13.37,4.32-31.18,17.26-40.06,21.55-14.7,34.68-35.11,47.38-54.85,7.9-12.29,15.37-23.89,24.63-34,14.4-15.5.14-32.69-4.55-38.34l-.07-.09c-10.34-12.15-23.53-14.15-36.21-5.5-3,2.06-6.15,4-9.46,6.14-11.48,7.29-23.36,14.83-31.48,26-15.31,21.07-29.39,45.12-45.63,78L1794,1820c-4.41,8.94-8.23,16.67-15.15,21.38-9.11,6.21-18.3,12.62-27.18,18.81-22.24,15.52-45.24,31.57-68.72,45.57-39.78,23.63-77.34,31-114.84,22.5-22.24-5-39.16-17.76-50.27-37.82-17.1-31-23.89-60-20.77-88.78,1-9.35,1.49-18.75,2-27.84.43-8.38.88-17,1.74-25.43,1.66-16.66-1.54-31.2-9.8-44.49-4.1-6.56-9.9-10.74-16.33-11.75a20.8,20.8,0,0,0-16.77,5c-12,10.16-18,19.73-17.78,28.4.64,26.07-6.58,50.29-14.22,75.94-3.71,12.43-7.54,25.29-10.37,38.34-3.24,15.15-7.67,29.68-11.56,41.87-2.43,7.57-5.32,15.28-8.11,22.73-4.73,12.59-9.61,25.62-12.79,39.12-4.86,20.69-12.49,47.42-28.51,70.72a30.11,30.11,0,0,1-4,4.5c-5.11-15.83-4.06-31-3-46.92.46-6.74.94-13.71.89-20.69-.34-20.71,2.8-41.28,6.14-63.06,1.31-8.63,2.68-17.55,3.79-26.41.59-4.77,1.06-9.59,1.52-14.25,1.23-12.4,2.38-24.1,5.5-35.16,8.43-30.17,18.63-59.84,30.14-92.78,4.94-14.46,3.39-27.51-4.79-40-2.16-3.25-4.33-6.46-6.47-9.62l-5.9-8.74-5.09,0c-20.5.11-33.21,11.66-37.78,34.36-2.2,11.08-4.24,22.39-6.21,33.32-2.8,15.48-5.68,31.48-9,47-3.29,14.91-7,30.67-13.4,45-16.8,37.77-41,72.36-71.81,102.82-4.34,4.3-8.68,8.69-12.88,12.94-10.12,10.23-20.58,20.81-31.31,30.56-21.94,19.88-42.79,30.6-65.62,33.73-23.64,3.29-41.11-2.71-53.39-18.33-3.3-4.23-5.64-9.34-6.16-11.75,2.62-2.77,10.4-5.72,14.78-7.38l.84-.32a48.71,48.71,0,0,1,9.5-2c5.54-.83,11.82-1.77,17.53-5.06l5.33-3.1c20.79-12.07,42.29-24.55,61.36-40,40.77-33,54.39-92.05,32.37-140.46-8.08-17.65-20.16-33-29.76-44.36-13-15.54-31.89-20.42-53-13.77-21.6,6.7-37.86,18.31-49.71,35.48-32.28,46.71-54.19,101.16-65.15,161.91a19.85,19.85,0,0,1-1.1,3.67c-27.07-2-47.09-7.91-64.25-18.72-8.15-5.14-16.41-10.44-24.41-15.57-9.24-5.94-18.79-12.07-28.32-18-25-15.67-44.86-12-62.37,11.48-.53.71-1.08,1.42-1.64,2.13-.11-1.38-.18-2.73-.22-4.08a84.7,84.7,0,0,1,.42-8.75c.44-5.5.9-11.19-.17-17.22-1.83-10.07-5.71-19.34-10.92-26.1s-13-10.47-20.6-9.58-13.83,5.83-17.33,13.61c-4.78,10.73-5.21,23.21-5.12,31.71a159.24,159.24,0,0,0,1.76,19c1,7.83,2,15.23,1.38,22.18-5.39,57.6-11.82,114.56-18.48,172.72a215.45,215.45,0,0,1-4.65,24.09c-.92,4-1.86,8-2.72,12.16l-1.29,6.26,5.31,3.56c2,1.34,3.89,2.65,5.7,3.9,4.29,3,8.34,5.75,12.69,8.27,5.25,3,12.37,6.43,19.71,6.43a20.58,20.58,0,0,0,8.23-1.65c9.85-4.24,13.51-15,15.4-22.76,5.83-23.47,10.92-47.42,15.85-70.58q1.3-6.16,2.62-12.29c1.52-7,2.84-14.17,4.12-21.06,2.52-13.63,4.9-26.5,8.78-39.1.91-3,1.75-6,2.57-8.93,4.12-14.71,8-28.7,19.33-38.87,7.31,4.74,14.84,9.63,22.12,14.46q2.53,1.68,5,3.38c19.24,12.92,39.13,26.28,63.82,30.76,12.92,2.35,26.14,4,38.92,5.55,3.66.45,7.4.91,11.15,1.39a24.07,24.07,0,0,1,1.2,3.82l0,.14c4.65,22.12,15,40.83,29.87,54.08,15.94,14.19,36.9,21.86,60.66,22.17a83.34,83.34,0,0,1,11.61,1.31c8.85,1.4,18.89,3,27.58-1.09,26.59-12.36,51.52-28.72,70.24-41.56,10.41-7.09,19.56-15.66,28.42-23.94,4.22-4,8.6-8.06,13-11.88,16.24-14.24,34.52-30.27,45.8-52.79,0,6.13.06,12.23.09,18.22.16,26.86.33,54.63-1.36,81.63-1.47,23.82,9.8,43.08,33.52,57.25,15.53,9.3,31.92,7.06,42.76-5.84q2.39-2.82,4.78-5.63c13.68-16.09,27.84-32.72,34.2-55.33,7.36-26.36,15.57-53,23.53-78.86,6.47-21,13.6-43.08,21.79-67.39,2.26,5.24,4.47,10.54,6.63,15.71,6.51,15.63,13.24,31.79,21.8,47,11.64,20.65,31.36,37.32,55.52,46.93,25.86,10.28,54.12,11.62,81.75,3.86,32-9,65.38-21,92.58-47.66l.24-.24a5.09,5.09,0,0,1,.78-.42l.2-.09c25.74-12.6,46.12-28.38,62.25-48.19.22-.26.41-.48.59-.66a12.57,12.57,0,0,1,1,2.41l.07.19a19.86,19.86,0,0,1,.61,3.46c.16,1.21.33,2.58.62,4,4.39,22.35,20.47,41.27,44.12,51.9,26.09,11.73,55.38,10.66,78.34-2.87,35-20.6,63.3-39.5,87.78-64.76a167.41,167.41,0,0,0,30.16-41.41c3.78-7.39,11.51-14.75,18.79-17.89,22.69-9.75,44.31-23.12,48.84-54.51.66-4.33,5.14-10.62,11.4-16,3.4-2.92,7.9-5.22,12.65-7.64a95.77,95.77,0,0,0,13.6-7.93,116.22,116.22,0,0,0,11.7-10.1c.88,38.63,3.14,79.52,10.79,120.55a46.34,46.34,0,0,1,.17,11c-1.56,19.57,7.48,34.62,26.86,44.71,7.24,3.81,13.79,6.84,20.55,5.33,7.71-1.73,11.85-8.31,15.44-14.92,18.52-34.18,39.5-72.92,41.74-118.46a189.41,189.41,0,0,1,21.16-77.42c6.92-13.44,10.58-28.17,14.13-42.43,1.2-4.82,2.44-9.8,3.76-14.53a150.05,150.05,0,0,1,9.49-25.56c.1.5.19,1,.27,1.51,5.48,33.33,20.18,62.25,42.5,83.63,32.31,31,71.44,64.63,127.08,71.77,31.28,4,61.52,1.7,87.44-.77,16.36-1.6,32.31-5.67,47.73-9.6q4-1,8.05-2c1.2-.3,2.55-.56,4-.84,8.21-1.6,20.6-4,29-19.7l8.06-15-17,1C2638.57,1722.92,2635.34,1723.07,2632.22,1723.21Zm-1565.81,167c9.65-37.45,23.57-69.79,42.54-98.85,9.15-13.94,15.84-18.38,24.08-18.38a37.25,37.25,0,0,1,8.88,1.29c8.11,2,20.59,18.14,20.68,34.22.1,21-5.35,37-17.15,50.39-18.45,21.1-42,36.74-71.81,47.83a60.35,60.35,0,0,1-7.65,2.21c0-.41,0-.83-.08-1.24C1065.51,1901.2,1065.14,1895.11,1066.41,1890.17ZM679.83,1776c9.58-23.89,17.3-44.11,23.85-65.12,11.22-36.06,16.72-75.83,16.83-121.59.1-28,.22-59.71-23.1-86.06-9.83-11-19.46-14.42-32.24-11.29-13.38,3.37-33.38,11.55-52.35,43.46-1.31,2.2-2.6,4.4-3.9,6.6-4.42,7.5-8.59,14.59-13.14,21.64l-.6.94c-19.14,30-38.93,61-46.5,98.19a40.51,40.51,0,0,1-6,14.77c-12.8,18.46-16.22,39.55-19,56.51-2.27,14.11-5,30.86-8.35,48.11-3,15.75-6.33,31.83-9.5,47.39q-2.31,11.27-4.59,22.54c-1.32,6.58-2.56,13.26-3.75,19.73-2.78,15-5.66,30.5-9.7,45.23l-.35,1.29c-6.24,22.76-12.68,46.29-12.68,71.12,0,13.85-4.88,23.65-16.32,32.76-63.27,50.39-129.17,92.06-195.85,123.85-27.44,13-60.35,26.57-96.38,28.39-18.4.89-30.11.45-37.58-13.33l-4.32-8-8.18,4c-2,1-3.91,1.83-5.72,2.65a92.42,92.42,0,0,0-10.52,5.3c-15,9.18-13.68,24.42-12.83,34.51l0,.44c1.45,16.23,15.92,20.48,22.11,22.29,25.49,7.44,57.21,16.7,89.55-.34,3.66-1.95,8.92-2.57,14.5-3.22,2.79-.33,5.68-.67,8.57-1.2.72-.12,1.64-.2,2.6-.28,3.08-.27,6.91-.6,10.65-2.66l.09-.05c34.37-19.45,75-42.56,115.83-66.48,10.83-6.37,21.52-13.23,31.85-19.86,5.59-3.59,11.37-7.3,17.09-10.88,1.13-.72,2.26-1.42,3.39-2.12,14.89-9.28,30.28-18.87,40.39-38.15a23.5,23.5,0,0,1,23-12.08c-.21,3.72-.4,7.42-.59,11-.68,13.25-1.32,25.77-2.77,38.33-2.56,21.7-5.65,43.77-8.62,65.11-1.65,11.81-3.36,24-5,36a34.07,34.07,0,0,0,0,7.55c.07,1,.14,1.87.14,2.6,0,7.54.3,15.15.6,22.52.66,16.43,1.29,32-1.17,46.9-5.54,32.85-2.55,65,.33,96.12.47,5.05.94,10.11,1.37,15.2,1,10.88,2.53,21.8,4,32.35,2.51,17.57,4.89,34.16,4.83,50.88-.08,26.36,5.18,51.44,10.27,75.7,1.41,6.76,2.88,13.75,4.2,20.64,2.71,14,13.62,23.05,27.38,23.05.6,0,1.21,0,1.82-.06,22.29-1.08,28.52-15.16,30.27-23.53.27-1.37.56-2.74.84-4.11,1.45-7,3-14.17,3.14-21.71.58-22.53.52-41.2-.2-58.73-.76-19-4-34.1-10.16-47.58l-9.93-21.69-7.72,22.57a153.25,153.25,0,0,0-5.23,21.65c-.8,4.21-1.55,8.2-2.53,12.08-3.21-33.54-6.46-68-9-101.95-5.56-75.71-4.53-138.62,3.24-198,1.36-10.45.69-20.76.05-30.73-1.08-16.59-2.1-32.25,6.52-46.2l.06-.11c2.43-4,1.35-8.09.88-9.82V2101c.1-3.64.21-7.29.32-10.93.25-7.79.5-15.84.56-23.83.09-14.29,4.7-25.52,14.5-35.31,8.06-8,15.81-16.49,23.31-24.69,7.81-8.53,15.88-17.35,24.15-25.48,38.53-37.89,62-86.14,80.92-128.4C658.52,1827.87,669.37,1802.18,679.83,1776Zm-19.05-100c-6.68,32.6-13.54,58.69-21.58,82.12-6.74,19.63-13.7,37.93-21,55.07-.31.75-.63,1.5-1,2.25-.42,1-.86,2-1.29,3-.74,1.7-1.48,3.42-2.22,5.1l-.21.45a538.05,538.05,0,0,1-35.09,66.88l-.55.87c-1,1.62-2,3.22-3.06,4.8-.52.82-1.06,1.63-1.59,2.44-.68,1-1.35,2.06-2,3.08q-1.38,2.07-2.78,4.11l-.87,1.27a384,384,0,0,1-47.15,56.19l-.08.08c1.83-11.87,3.74-24.09,6.15-35.86,1.13-5.48,2.81-10.91,4.6-16.66a191,191,0,0,0,5.21-19.18c3-15.12,5.53-30.48,7.93-45.32.86-5.35,1.72-10.7,2.62-16a24.81,24.81,0,0,0,.26-4.93c0-.35,0-.81,0-1.07q3.76-13.23,7.48-26.47c7.55-26.79,15.35-54.49,23.68-81.44,4-13.06,9.64-26.17,15.06-38.85q1.67-3.87,3.32-7.78A171.13,171.13,0,0,1,608,1647.61l3.69-6.13c10.33-17.2,21-35,32.5-51.59a105.94,105.94,0,0,1,22.38-23.27,11.16,11.16,0,0,1,2-1.27,13.24,13.24,0,0,1,.82,3.59,100.12,100.12,0,0,1,.24,13.19c-.06,2.63-.13,5.35-.09,8.13C669.94,1616.8,667.08,1644.89,660.78,1676.09Z" transform="translate(-86.63 -36.06)" fill="#231f20"/></svg>