<?xml version="1.0" encoding="utf-8"?>
<!-- Generator: Adobe Illustrator 21.1.0, SVG Export Plug-In . SVG Version: 6.00 Build 0)  -->
<svg version="1.1" id="Layer_1" xmlns="http://www.w3.org/2000/svg" xmlns:xlink="http://www.w3.org/1999/xlink" x="0px" y="0px"
	 viewBox="0 0 4000 3733.1" style="enable-background:new 0 0 4000 3733.1;" xml:space="preserve">
<style type="text/css">
	.st0{fill:#A3B7D6;}
	.st1{fill:#231F20;}
	.st2{clip-path:url(#SVGID_2_);fill:#D0D2D3;}
	.st3{clip-path:url(#SVGID_4_);fill:#D0D2D3;}
	.st4{clip-path:url(#SVGID_6_);fill:#D0D2D3;}
	.st5{clip-path:url(#SVGID_8_);fill:#D0D2D3;}
	.st6{clip-path:url(#SVGID_10_);fill:#FFE78F;}
	.st7{clip-path:url(#SVGID_12_);fill:#FFE78F;}
	.st8{clip-path:url(#SVGID_14_);fill:#BBBDBF;}
	.st9{clip-path:url(#SVGID_16_);fill:#FFE78F;}
	.st10{clip-path:url(#SVGID_18_);fill:#231F20;}
	.st11{clip-path:url(#SVGID_20_);fill:#231F20;}
	.st12{clip-path:url(#SVGID_22_);fill:#231F20;}
	.st13{clip-path:url(#SVGID_24_);fill:#FFFFFF;}
	.st14{clip-path:url(#SVGID_26_);fill:#FFE78F;}
	.st15{clip-path:url(#SVGID_28_);fill:#231F20;}
	.st16{clip-path:url(#SVGID_30_);fill:#231F20;}
	.st17{clip-path:url(#SVGID_32_);fill:#231F20;}
	.st18{clip-path:url(#SVGID_34_);fill:#231F20;}
	.st19{clip-path:url(#SVGID_36_);fill:#231F20;}
	.st20{clip-path:url(#SVGID_38_);fill:#FFEDBA;}
	.st21{clip-path:url(#SVGID_40_);fill:#FFEDBA;}
	.st22{clip-path:url(#SVGID_42_);fill:#FFEDBA;}
</style>
<rect class="st0" width="4000" height="3733.1"/>
<path class="st1" d="M2058.7,1929.9h0.7c-0.4,1.8-0.7,3.6-0.7,5.4c0.7,2.2,1.4,4,2.5,6.1c1.8-1.1,5-1.8,5.8-3.2
	c5.4-13,10.8-25.5,15.1-38.9c5.4-16.2,9.7-32.4,14-48.9c2.2-8.3,3.6-16.6,4.7-24.8c0-1.1-1.8-2.9-2.9-3.6c-1.1-0.4-2.5,0-3.2,1.1
	c-7.2,13.3-14.4,26.3-21.6,39.9c-0.7,1.8-1.1,3.6-1.1,5.4c-2.9,13.7-5.8,27.3-8.6,41C2061.9,1915.9,2060.1,1923.1,2058.7,1929.9
	 M1689.8,1486.6c0,4.3,0,5.4,0,6.5c0.7,9.7,6.5,13,14.8,7.9c7.6-4.7,14.8-10.4,21.2-16.6c21.6-21.6,37.1-46.4,33.8-78.8
	c0-0.7,0-1.1,0-1.8c0.7-15.1-0.7-30.2,3.6-45c0.4-2.5,0.4-5-0.4-7.2c-0.4-1.8-1.4-2.9-3.2-4c-1.8-0.4-3.6,0-4.7,1.4
	c-6.5,8.6-12.6,18-18,27.3c-8.3,15.5-15.5,31.3-23.4,46.8c-8.6,17.3-15.8,35.3-21.9,53.6C1690.6,1480.1,1689.8,1483.4,1689.8,1486.6
	 M2129.9,1274.7c-5.8-2.9-13-1.4-17.3,3.2c-12.6,10.4-23.7,22.7-32,36.7c-2.9,5.4-6.5,10.1-9.4,15.5c-15.8,26.6-30.9,53.3-38.1,83.8
	c-1.4,6.5-4,12.6-5.4,19.1c0,2.2,1.1,4.3,2.9,6.1c1.4,0.7,3.2,0.7,5,0c7.9-5.4,16.9-9.4,21.2-19.1c1.4-2.5,3.6-4.7,6.1-6.5
	c6.5-4.3,12.2-9.7,16.6-16.2c6.5-9.4,14-18,21.2-27c10.1-11.5,17.3-24.8,21.2-39.6c2.2-8.3,5.4-15.8,7.6-24.1
	C2132.4,1295.5,2134.6,1285.1,2129.9,1274.7 M2385.4,1429c9.7-9,20.5-14.4,27-25.5c3.6-5.8,7.6-11.2,11.9-16.2
	c8.3-11.2,17.3-21.9,24.5-33.8c7.2-11.9,9-27.3,14.8-40.7c0.4-0.7,0.4-1.1,0.4-1.8c-0.7-9.7-0.4-19.4,1.1-28.8
	c2.2-14.4-16.9-30.2-32-25.9c-16.9,5-32,13.7-41,28.4c-16.6,27-30.9,55.1-31.7,87.8C2359.5,1394.5,2365.2,1413.2,2385.4,1429
	 M2206.9,1209.2c2.5,6.1,5,12.2,7.6,18.4c3.6,7.9,3.6,16.9,0,24.8c-2.5,6.5-2.9,14-4,21.2c-2.5,12.6-5,24.8-7.6,37.4
	c-1.1,4.7-2.9,9.4-3.2,14c-2.2,13.7-5,27.3-9,40.7c-3.6,14-5,28.8-4,43.2c0.7,6.5,0.4,13.3-1.1,19.8c-2.5,14.4-3.2,28.8-2.5,43.5
	c0.4,8.3-0.7,16.9-1.1,25.2c-0.4,3.6-0.7,7.2-0.7,10.8c2.5,21.9-1.4,43.5-1.1,65.5c0,10.1,0.4,20.5,0.7,29.5c2.9,3.6,8.3,4,11.9,0.7
	c0.4-0.4,0.7-0.7,0.7-0.7c7.6-6.5,14.4-13,21.6-19.4c14-12.2,28.1-25.2,42.5-36.7c21.2-17.3,43.2-33.5,60.8-54.7
	c2.5-2.9,4.7-5.8,6.5-7.9c0.7-7.9-4.7-11.5-8.3-16.2c-14-17.3-19.4-37.8-20.5-59c-1.1-23,2.2-46.4,9-68.4
	c10.1-32.4,22.3-64,48.9-87.8c5.8-5.4,10.8-11.5,16.9-16.6c14-12.6,30.9-21.6,48.9-26.6c25.5-7.2,49.3-1.4,69.4,15.5
	c9.7,8.3,14,19.8,16.6,31.7c5.4,25.2,7.9,50.4,0.7,75.6c-4,14-7.9,27.7-17.3,39.6c-8.3,10.4-15.1,21.9-22.7,33.1
	c-2.5,4.3-5.4,7.9-9,11.5c-9,7.6-11.5,18-14.8,27c1.4,4,5.8,6.5,10.1,5.4c14.4-1.4,28.8-2.9,43.2-4.3c24.1-2.9,47.9-8.6,70.2-18
	c20.2-7.9,39.2-18.7,59.4-27.7c16.9-7.2,33.1-15.1,48.6-24.8c25.2-15.8,50.7-30.9,73.4-50c12.2-10.1,23-21.6,34.2-32.4
	c2.9-2.5,4.7-5.4,5.8-9c2.5-12.2,11.9-18.4,21.2-23.7c10.4-6.5,22.3-4,33.1,0.4c3.2,1.8,5.4,4.7,6.8,7.9c3.2,8.6,5.4,17.3,7.6,26.3
	c0.7,2.2,0.7,5,0,7.2c-4,7.6-8.3,14.8-13,21.9c-1.8,3.2-5,5.4-8.6,6.5c-7.9,1.1-12.6,6.8-19.1,10.1c-9.7,4.7-18.4,11.9-25.2,20.2
	c-4,4.3-8.6,8.3-14,11.5c-16.2,11.5-32.4,23.4-48.6,34.9c-1.8,1.4-4,2.5-6.5,3.6c-15.8,6.1-29.1,16.9-44.6,24.1
	c-3.6,1.8-6.8,4.7-10.4,6.8c-4,2.9-8.3,5.4-12.6,7.2c-15.1,4.7-28.4,13-42.8,19.8c-11.9,5.8-24.5,10.1-37.1,14.8
	c-2.9,1.1-6.1,1.1-8.6,2.5c-16.9,8.3-35.3,12.6-53.3,18c-19.4,5.4-38.9,8.6-59,10.4c-23,2.9-46.1,2.2-68.7-2.5
	c-9.7-1.8-19.8,0.7-27,7.6c-20.5,16.9-40.7,34.5-60.5,52.5c-28.1,25.2-56.5,49.3-84.6,74.5c-11.9,10.4-23.4,20.9-32,34.5
	c-4.3,7.2-6.8,15.5-7.2,24.1c-0.7,18.7-2.9,37.4-4,56.1c-0.7,9.7-1.1,19.4-2.2,29.1c-1.4,12.6-3.2,25.2-5.8,37.4
	c-2.5,12.6-6.5,24.5-9.7,36.7c-1.8,6.5-3.2,13-5.4,19.1c-4.7,13.7-9.4,27.3-14.4,41c-3.2,9.4-6.1,18.4-9.7,27.3
	c-4.3,11.2-6.1,23.4-16.6,31.7c-4.3,3.6-6.5,10.1-9,15.8c-9,18.4-25.2,29.5-41.4,39.9c-11.9,7.6-32,4.3-42.5-5.8
	c-2.5-2.5-4-6.1-4-9.4c-1.1-23-1.8-46.1-2.5-69.1c0-4.3,0.7-8.3,1.8-12.6c6.1-24.8,11.5-49.7,18.4-74.1c3.2-10.4,7.2-20.5,11.5-30.6
	c1.8-4.7,4-9,5.4-13.7c9.4-33.8,28.4-62.6,46.4-92.1c5.4-9,10.4-17.6,15.8-26.6c5.8-9.4,8.6-20.2,8.3-31.3
	c0.4-33.5,0.7-66.6,1.1-100c0-16.2,0.7-32.7,0.7-48.9c-0.4-3.2-0.7-6.1-1.1-9.4c-7.2,0.7-10.1,5.4-13.7,9.4
	c-10.8,11.5-21.9,22.7-32.4,34.2c-5,5.4-11.9,8.6-19.1,9.4c-7.9,1.1-15.5,2.9-22.7,5.8c-14.8,5.4-28.4,2.5-42.1-3.6
	c-4.3-2.2-8.6-4.7-13-6.5c-6.8-2.9-14.4-2.9-20.9,0.4c-16.6,7.2-33.8,13-51.5,17.3c-14.8,3.2-30.2,2.2-45.3,2.9
	c-0.7,0-1.4,0-1.8-0.4c-15.8-6.1-32-10.8-45.7-21.6c-7.9-5.8-14.4-13.3-18.4-21.9c-1.4-2.9-2.9-5.4-4.3-7.9c-4.7-8.3-9-9.4-15.8-4
	c-5,3.2-9.7,7.6-13.7,11.9c-9,11.5-21.9,16.9-33.8,24.5c-8.3,5-17.3,9-26.6,11.5c-12.6,4.3-26.3,5-39.2,2.2
	c-16.2-4-24.8-15.1-30.9-28.1c-5.4-11.5-7.2-24.5-4.7-37.1c4.7-23,10.4-46.1,17.6-68.7c5.8-19.8,13.7-38.9,23.7-56.9
	c18-31.7,32.7-64.8,56.5-93.2c3.2-3.6,5-8.3,8.3-11.9c4.3-5.8,9.4-11.2,14.4-16.2c10.8-9.7,21.6-19.4,32.7-28.8
	c6.1-5,10.4-11.9,11.9-19.8c4-21.6,11.2-42.1,18-63c6.8-20.9,13-41.4,20.2-62.2c3.6-10.8,8.6-21.2,13.3-31.7
	c4.3-9.4,8.6-18.7,13.3-27.7c7.6-14.8,19.8-26.6,34.5-34.2c11.5-6.1,23.4-5,32,7.6c7.6,11.5,13,23,12.6,37.1
	c-0.4,12.6-1.4,25.5-1.8,38.1c-0.4,5.4-0.4,10.8-0.7,16.2c-0.7,16.9-1.8,33.8-2.9,50.7c0,1.8-0.4,3.6-0.7,5.4
	c-8.3,23.7-8.6,48.9-13.3,73c-2.2,10.8-5,21.2-7.9,31.7c-5,17.3-10.4,34.9-16.6,52.2c-8.6,25.2-16.9,50.7-28.1,74.8
	c-7.2,15.8-13.7,32.4-21.6,47.9c-6.1,11.5-6.5,25.2-0.7,36.7c3.2,7.2,6.8,14.4,9.4,21.6c2.9,8.3,8.3,15.1,15.8,19.4
	c16.2,9.7,33.5,14,51.8,6.1c10.1-4.3,19.8-9,29.9-13.3c5.8-2.2,9.7-7.6,10.4-14c0.7-4.7,1.4-9.7,1.4-14.4c0-10.8,2.2-21.9,6.1-32
	c9.4-27.3,18.7-55.1,28.8-82.4c6.5-18.4,14.4-36,23.7-52.9c7.2-13.3,16.9-25.2,28.1-35.6c8.3-7.2,15.5-15.5,23.4-23
	c14.8-14.8,33.5-24.5,53.6-28.4c9.4-1.8,19.1-2.5,28.8-3.2c5,0,9.7-2.2,13-5.8c9.4-10.4,20.5-11.9,33.1-7.2
	C2197.2,1206.3,2201.9,1207.7,2206.9,1209.2 M1290.8,1586.3c-0.7-3.2-1.8-6.5-2.9-9.7c-6.1-14-5-27.3-0.4-42.1
	c8.3-25.9,14-52.5,16.9-79.5c2.5-19.1,4-38.5,4-57.9c0-25.5,1.1-50.7,3.2-76.3c1.4-18.7,2.9-37.4,2.9-56.1c0-4.3-0.4-8.6-1.4-12.6
	c-4.3-18.7-17.6-26.3-35.3-29.1c-17.6-2.9-34.9,1.1-51.8,5c-4,6.5-6.1,13.7-6.1,20.9c-1.8,26.6-3.2,53.3-4.7,79.9
	c-1.1,20.5-2.5,41-3.6,61.9c-1.8,39.2-3.2,78.8-5.4,118c-1.8,35.6-2.2,71.2-2.5,107.2c-0.7,21.6-2.9,43.5-6.5,64.8
	c-1.8,10.8-2.9,21.6-3.2,32.4c0.7,15.5-6.1,30.2-18.7,39.2c-11.5,9-25.2,12.6-43.5,9.4c-3.2-5-6.8-10.4-10.4-15.8
	c-3.2-5.8-4.3-12.6-2.9-19.1c3.2-18,7.6-36,7.2-54c0-28.4,6.1-56.5,5.8-84.9c-0.4-20.5,3.2-41,4.7-61.5c1.1-12.6,1.1-25.5,2.5-38.1
	c2.9-25.2,1.4-50.7,1.4-76.3c0-7.9,0.7-15.8,1.8-23.4c4.7-29.5,2.9-59.4,4-88.9c0.4-13.3,1.4-26.6,2.5-39.9c0-1.8,0.7-3.6,0.7-5.4
	c0.4-11.2-4.7-15.5-15.8-12.2c-2.5,0.7-4.7,1.4-6.8,2.2c-22.7,8.6-45.3,17.6-67.6,26.3c-1.8,0.7-3.2,1.4-5,2.2
	c-15.1,8.6-30.2,17.3-45,26.6c-12.2,7.9-23,18-32,29.5c-2.9,4-5,8.3-6.5,13c-7.9,17.6-21.9,24.8-40.7,25.2c-10.4,0-17.6-4-20.9-14
	c-1.1-3.2-2.5-6.8-4.3-10.8c1.1-2.5,2.2-5.4,2.5-7.9c0.4-16.9,11.2-29.1,19.4-42.5c2.5-3.6,5.4-6.5,9-8.6
	c11.9-8.3,24.1-16.2,36-24.5c2.2-1.4,4-2.5,6.1-4c13-9,27-15.8,41-23.4c23-12.6,47.9-20.9,70.9-32.4c14.4-7.6,29.9-13.3,45.7-16.9
	c15.1-3.6,20.2-14,21.2-25.9c1.1-12.6,4.3-24.8,2.5-37.8c-1.1-7.9,1.1-16.9,2.9-25.2c2.9-11.9,6.1-23.4,5.8-35.6
	c0-3.6-0.4-8.3,1.4-10.4c6.8-9.4,6.5-20.5,10.1-30.9c2.5-7.9,5-16.2,7.6-24.5c4-14,9-27.7,12.6-41.4c6.5-23.4,16.2-45.7,29.1-66.6
	c10.8-17.6,21.6-35.3,36-50.4c21.2-21.9,44.6-41,74.5-50.4c4.7-1.4,9-3.6,13.3-5.8c25.9-10.4,55.4-3.2,74.1,17.6
	c16.2,19.1,26.3,40.7,26.3,66.2c0,17.6,2.9,35.3,0,52.5c-1.8,10.8-3.2,21.6-5.8,32c-3.2,15.5-7.6,30.6-11.2,46.1
	c-3.6,15.5-9.4,30.2-16.2,44.3c-1.4,3.2-3.6,6.5-6.1,9c-5.4,4.7-10.1,10.4-13.7,16.9c-2.5,5-6.5,9-13,7.2c-6.5-1.8-13-5.4-14-12.6
	c-1.4-10.1-3.2-20.2-0.4-30.6c6.5-21.2,10.1-43.5,11.2-65.8c0-2.9,0.4-6.1,0.7-9c6.5-25.5,6.5-51.5,6.1-77.7
	c0-10.4-3.6-20.5-9.7-28.8c-4.3-7.6-13.7-11.2-21.9-7.9c-19.4,6.8-38.1,15.5-50.7,33.5c-7.9,11.5-19.1,20.2-25.5,32.7
	c-10.4,19.8-18.7,40.7-24.8,62.2c-3.2,12.2-7.9,24.1-11.2,36.3c-4,15.8-9,31.3-7.6,48.2c0,6.1-0.7,12.2-2.2,18
	c-2.9,18-6.1,35.6-8.3,53.6c-1.1,9.7-1.1,19.1-0.4,28.8c0.4,5,4.7,9,9.7,9l0,0c7.2,0.4,14.4,0,21.9,0.4c8.3,0.4,16.9,1.1,25.2,2.2
	c6.1,0.7,11.9,2.5,18,2.9c24.5,1.4,43.5,13.3,60.1,30.2c2.5,1.8,4.3,4.3,5.8,7.2c6.5,20.2,16.2,39.2,12.6,61.5
	c-1.1,9.7-1.4,19.1-1.1,28.8c0,5,5.4,7.2,9.4,3.6c5-4.7,9.4-9.4,13.7-14.4c2.2-2.2,3.2-5.4,5.4-7.2c20.2-18,38.5-38.5,62.2-52.5
	c7.9-4.7,15.1-10.4,22.7-15.1c7.6-4.7,14.8-10.1,25.2-9c11.2,0.4,21.2,6.8,26.3,16.9c1.1,2.2,2.2,4.3,3.2,6.5
	c2.9,6.1,9,10.4,15.8,10.8c15.8,1.1,23.4,11.2,25.2,25.9c2.2,18,4,36-3.2,53.6c-3.6,10.4-5.8,21.2-6.1,32
	c-2.2,29.1-8.6,57.6-13.3,86.4c-1.4,7.9-3.2,15.5-4,23.4c-1.1,5.4-1.4,10.8-0.4,16.2c2.9,10.1,2.5,20.9-1.8,30.2
	c-1.1,2.2-1.8,4.7-1.4,7.2c1.4,11.9-5.8,20.9-10.8,30.2c-2.5,5-6.8,8.6-12.2,10.4c-5,1.8-10.4,3.6-15.5,5
	c-15.1,4.7-35.3-5-35.3-23.4c-0.7-3.6-0.7-7.2-0.7-10.8c4.3-20.9,4.3-42.1,10.4-62.6c2.5-9.4,4.3-18.7,5.4-28.4
	c4.7-31.7,11.9-63.3,8.6-95.7c-1.1-9.7-0.4-19.4-1.8-28.8c-1.4-9.4-10.4-15.8-19.8-14.4c-2.9,0.4-5.8,1.8-7.9,3.6
	c-8.3,6.8-16.2,14.8-23.4,23c-9,10.1-16.2,21.2-25.2,30.9c-9,10.4-16.9,22.3-23,34.9c-9.7,19.4-20.5,38.5-27,59.7
	c-1.8,5-3.2,10.4-3.6,15.8c0,11.5-2.9,22.7-4.7,34.2c-1.1,7.9-2.2,15.5-2.9,23.4c-1.4,18.7-4.3,37.4-8.6,55.4
	c-3.2,15.8-13.7,23.4-28.4,27c-4.7,1.1-9.7,0.7-14.4,1.8c-6.5,1.4-11.9-1.4-16.9-5C1298,1590.2,1294.4,1588.1,1290.8,1586.3"/>
<g>
	<g>
		<g>
			<g>
				<defs>
					
						<rect id="SVGID_1_" x="401.9" y="2230.9" transform="matrix(0.9999 -1.099668e-02 1.099668e-02 0.9999 -30.8435 21.1755)" width="3016.6" height="1168.9"/>
				</defs>
				<clipPath id="SVGID_2_">
					<use xlink:href="#SVGID_1_"  style="overflow:visible;"/>
				</clipPath>
				<path class="st2" d="M2352.2,3342c-25.8-1.1-51.5-2.6-77.3-3.1c-12.3-0.3-24.7,1.2-37,1.9c-17.3,1-34.6,1.9-51.8,2.7
					c-10.9,0.6-21.9,1.2-32.8,1.1c-25.4-0.2-51.1,1.1-76.2-1.7c-39.1-4.3-78.2-5.2-117.4-6.1c-30.7-0.7-61.3-4.2-92-6.3
					c-15.9-1.1-31.7-2.1-47.6-1.3c-26.4,1.5-53,1.4-79.6,1.2c-8.7-0.1-17.4-2.6-26.1-3.9c-31.7-4.7-63.4-9.6-95.2-14
					c-23-3.3-46.3-5.7-69.3-9.1c-13.2-1.9-26.1-5.2-39.3-7.5c-7.9-1.4-16.1-2-24.1-3c-14-1.7-28-3.8-41.9-5.2
					c-20.7-2.3-41.2-4.6-61.9-6.7c-21.6-2.1-43.1-5.5-64.9-6.2c-11.5-0.4-22.8-3.3-34.3-4.7c-16.1-2-32.2-3.7-48.3-5.5
					c-19.3-2.2-38.5-4.5-57.9-6.7c-2.5-0.4-4.9-0.7-7.4-1c-15.4-1.6-30.9-2.9-46.3-4.7c-5.2-0.6-10.2-2.6-15.4-3.9
					c-20.3-4.9-40.4-9.9-60.7-14.4c-10-2.2-20.1-3.5-30.2-5c-18.2-2.9-36.4-5-54.5-8.6c-20.4-4.1-41.1-5.5-61.7-8.2
					c-14.7-1.8-29-5.5-43.8-6.9c-20.2-1.9-39.2-9.6-59.1-12c-26.1-3.1-51.1-10.9-76.2-17.6c-38.9-10.3-77-23.6-113.2-41.5
					c-14.2-7.1-29.5-11.5-44.1-17.8c-16.9-7.2-33.6-14.4-48.6-25.4c-10.3-7.5-21-14.2-31.2-21.7c-14.3-10.7-19.5-25.4-23.9-41.1
					c-1.3-4.7-1.7-9.8-2.4-14.6c-2.1-14.5,1.3-28.1,7.6-41.1c0.5-1,1.3-1.8,1.5-2.8c2.8-12.5,12.3-18.3,22.2-25.1
					c12.6-8.7,23.4-20.3,33.8-31.7c5.8-6.3,11.7-12,18.9-16.6c5.9-3.8,11.9-7.9,16.4-13.1c13.1-15.1,30-24.2,47.7-32.4
					c15.1-6.9,30-14.4,45.4-20.3c19.3-7.4,38.6-15.3,59.1-19.7c9-1.9,18.4-4,26.4-10.1c4.3-3.3,10.4-4.3,15.8-6
					c22.2-6.9,44.4-13.6,66.7-20.3c3.4-1,6.8-2.3,10.3-2.5c22.5-1.7,44.9-4.2,67.6-2.1c10.2,1,20.5,0.3,30.7,0.6
					c13,0.5,14.8,3,18.8,15.6c5.9,18.5,4.4,37.7,6.4,56.5c0.8,8.4-0.9,18.3-11.6,24c-12.3,6.4-14.7,18-9.8,31.9
					c3.5,9.6,6.8,19.3,10,28.9c1.8,5.5,0.7,7.9-5.1,9.1c-14.9,2.9-30.1,4.5-44.8,8.3c-11,3-22.3,7.4-31.9,13.5
					c-9.8,6.2-15.4,16.8-15.9,28.7c-0.4,7.3,0.1,15.2,2.6,21.9c6.9,18.9,16.1,36.3,32.9,49c19.9,15.1,41.3,28.2,62.2,41.8
					c7.7,5,17.6,7.1,26.5,10.3c17.8,6.5,36.5,7.6,55.2,9.7c14.7,1.6,29.4,3.3,44.1,5c0.7,0.1,1.4,0.2,2.1,0.2
					c23.4-0.7,45.2,7.2,67.8,11.4c19.7,3.6,39.9,6,60,6.2c25.7,0.4,51.4-2.7,77.2-3.1c13-0.2,26,1.8,39.1,3.2
					c15.1,1.6,30.2,3.7,45.2,5.2c17.6,1.7,35.2,3.1,52.8,4.5c21.4,1.7,42.8,3.5,64.2,5.2c2.1,0.1,4.4,0.1,6.4,0.8
					c18.9,5.9,38.5,4.3,57.8,5.9c10.8,0.8,21.6,2.1,32.5,1.3c4.5-0.3,9.1,0.4,13.7-0.1c27.2-3,54.1-0.4,81.1,3
					c17.7,2.2,35.5,4.9,53.7,3.9c14.4-0.8,28.9,1,43.4,2.1c25.4,1.9,50.7,4.1,76.1,6.4c8.9,0.8,17.6,1.9,26.3,2.9
					c3.5,0.4,7,0.7,10.6,0.6c24.7-0.6,49.5-1.4,74.1-1.7c13.5-0.1,26.8,0.6,40.4,1.1c2.8,0.1,5.4,1.4,8.1,1.8c2.4,0.4,5,1.3,7.2,0.7
					c18.4-5.5,37.3-2.8,55.9-3.5c14.1-0.4,28.3,0.6,42.4-0.1c13.4-0.6,26.7-2.7,39.9-4.3c12.3-1.6,24.4-3.8,36.8-4.7
					c34.6-2.6,69-5.9,103.7-5.5c20,0.4,40.1-1.3,60.1-4.1c22.2-3,45-5,67,4.1c6.8,2.8,15.4,2.2,23,1.8c10.6-0.5,21.1-2.1,31.7-3.4
					c14.1-1.8,28-1.8,42.2,0.5c27.6,4.5,55.8,6.9,83.2,0.8c17.1-3.8,34.4-3.1,51.5-6c3-0.6,6.4,0.4,9.5,0.7
					c6.7,0.6,13.4,1.3,19.7-2.2c1.2-0.7,2.7-1.1,4.1-1.1c18.6-0.6,37.5-2.5,55.9-1.3c35.6,2.3,71.2,5.5,106.9,3
					c10.6-0.8,20.8-3.5,31.2-5.7c9.3-1.9,18.8-3.8,27.9-6.4c18.3-5.3,37.7-4.9,55.5-12.7c6.9-3,15.4-2.3,22.7-4.5
					c9.8-2.9,19.1-7.3,28.8-10.6c7.6-2.5,15.7-4,23.4-6.3c9.1-2.8,18.1-6,27.1-9c1.3-0.4,2.9-1.1,3.7-2.1
					c7.1-9.6,15.1-18.6,20.8-28.9c9-16.2,7.5-34.7,9.8-52.5c2.3-18.3-5.4-31.9-13.2-46.5c-15-28.2-38-46.8-67.2-58.3
					c-2.2-0.9-4.4-2.3-6.1-4c-4.5-4.2-4.5-6.3-0.3-10.6c1.2-1.3,2.5-2.6,4-3.5c12.6-7,23.4-16.6,35.1-24.7
					c6.2-4.2,11.6-8.9,15.3-15.7c3.7-6.8,7.6-13.5,12-20c1.7-2.5,4.2-5.5,6.8-6.2c17.1-4.3,34.3-9.1,52.1-2.9c1.1,0.4,2,0.8,3.1,0.8
					c14.7,1.6,29.5,3.2,44.1,4.9c4.5,0.6,9,1.6,13.5,2.5c8.3,1.8,16.6,3.8,24.9,5.4c10.1,1.9,19.9,3.9,28.7,10.1
					c4.7,3.4,11,4.2,16.7,6.6c15.3,6.4,30.4,13,45.7,19.5c0.6,0.3,1.4,0.6,1.8,1c18.8,19.5,44.8,31.1,59.5,55.1
					c1.1,1.8,2.8,3.4,3.3,5.3c4.4,18.9,9.8,37.7,5.1,57.4c-3.8,15.8-7.4,31.5-15.2,46c-2.6,4.8-3.4,10.7-5,16.1
					c-0.9,3-1.1,6.5-2.6,9.1c-6.2,9.6-13,19-19.4,28.5c-2.2,3.2-4.2,6.6-6.6,9.6c-10.2,13.2-23.4,23.2-35.8,34.2
					c-9,7.9-18.8,14.9-28.3,22.2c-3.5,2.8-7.5,5-11.2,7.7c-8.9,6.4-17.6,13-26.4,19.4c-14.8,10.8-29.4,21.9-44.4,32.3
					c-6.7,4.6-13.9,8.3-21.2,11.7c-16.9,7.9-33.9,15.5-51,22.9c-4.8,2.1-10.2,3.1-15.2,4.7c-3,1-6.2,1.8-8.9,3.3
					c-23.8,13.2-49.1,23.2-75,31.4c-16.7,5.4-34.3,7.8-51.6,11.3c-12.7,2.5-25.5,4.9-38.3,7c-5.9,0.9-12,0.3-17.8,1.3
					c-29.6,5.1-59.6,5.6-89.5,6.2c-1.8,0-3.7-0.3-5.3,0.1c-20.1,5.8-40.9-0.7-61.2,3.3c-2.1,0.4-4.3-0.1-6.4-0.4
					c-20.3-4.5-40.8-2.4-61.2-0.7c-5.3,0.4-10.6,0.8-15.9,1.1c-25,1-50,2.1-75.1,2.7c-21.1,0.6-42.3,0.4-63.6,1.3
					c-30.7,1.3-61.3,3.3-92.1,5.4c-9.1,0.6-18.1,2.8-27.2,3.5c-10.9,0.8-21.9,0.7-32.9,0.8c-7.1,0.1-14.1,0.1-21.2,0.2
					C2352.2,3341.4,2352.2,3341.6,2352.2,3342"/>
			</g>
		</g>
	</g>
</g>
<g>
	<g>
		<g>
			<g>
				<defs>
					
						<rect id="SVGID_3_" x="401.9" y="2230.9" transform="matrix(0.9999 -1.099668e-02 1.099668e-02 0.9999 -30.8435 21.1755)" width="3016.6" height="1168.9"/>
				</defs>
				<clipPath id="SVGID_4_">
					<use xlink:href="#SVGID_3_"  style="overflow:visible;"/>
				</clipPath>
				<path class="st3" d="M1084.2,3039.9c-16.4-4.4-15.8-2.6-10.6-1.3c2.9,0.4,6,0.7,8.9,1.2
					C1083.2,3039.8,1083.7,3039.8,1084.2,3039.9"/>
			</g>
		</g>
	</g>
	<g>
		<g>
			<g>
				<defs>
					
						<rect id="SVGID_5_" x="401.9" y="2230.9" transform="matrix(0.9999 -1.099668e-02 1.099668e-02 0.9999 -30.8435 21.1755)" width="3016.6" height="1168.9"/>
				</defs>
				<clipPath id="SVGID_6_">
					<use xlink:href="#SVGID_5_"  style="overflow:visible;"/>
				</clipPath>
				<path class="st4" d="M3327.5,2854.7c-44.5-21.7-91.5-23.7-140-29.2c-36.2-4.2-72.4-8.5-108.6-12.7c-29.7-3.5-68.8,17.6-88.8,38
					c-21.7,22.2-37.7,58.2-36,89.6c1.8,32.6,12.9,66.4,38,88.8c17.8,16.1,36.2,24.9,57,30.2c-5.9,3-11.8,5.9-17.7,8.9
					c-4.2,1.6-8.4,3.5-12.7,5c-10.4,4-21,7.6-31.6,10.9c-22.7,7.2-45.9,12.9-69.4,17.4c1.6-0.1,3.3-0.1,5.2-0.2
					c-4.7,0.2-10,1.3-14.7,1.8c-12.3,1.4-24.6,2.3-37,3c-27.9,1.3-55.7,0.1-83.4-1.4c-65-3.6-126.4-1.8-190.6,11.5
					c-24.9,5.2-49.5,11.2-74.5,15.9c-2.1,0.4-5.5,1.3-9.2,2.3c-0.4,0-3,0.3-9.1,1.1c-14.4,1.8-29,3.5-43.4,5
					c-58.2,5.4-116.7,6.6-175.1,5.1c-112-3-223.6-15.8-334.9-28c-118.5-13-237.1-25.9-355.6-38.9c-114.8-12.5-229.7-26.7-345.1-32.5
					c-55.2-2.8-110.6-2.8-165.8-6c1.1,0.4,2.2,0.6,3.5,1c-1.6-0.4-3.3-0.8-5-1.1c-0.9-0.1-1.8-0.1-2.8-0.1c-2.2-0.1-4.5-0.6-6.2-1.1
					c-1.1-0.1-2.1-0.2-3.1-0.5c-14.2-2.4-28.4-5.5-42.5-8.8c-28.6-6.7-56.9-14.6-85.3-22.2c-29.6-7.9-59.3-16-88.9-23.9
					c16.6-4,33.5-7.7,50.3-10.9c29.4-5.5,60.5-33.8,74.8-58.8c15.5-27.2,21.8-67.2,11.7-97.4c-23.7-69.9-86.7-99.6-156.3-86.5
					c-58.4,11-115.7,27.3-170.9,49.6c-60.4,24.3-122.6,51.6-176.6,88.5c-48,32.9-84.7,79.2-83.3,140.6
					c1.4,57.8,37.7,110.5,89.8,134.3c63.7,29.2,137,41.6,204.4,59.8c131.8,35.5,264.8,81.6,401.8,90.8c61.3,4.1,122.8,2.8,184.3,6.7
					c65.6,4.1,130.9,10.8,196.2,17.8c130.4,14.1,260.8,28.5,391.2,42.6c127,13.8,254.1,30.1,381.8,35.7
					c134.3,5.9,266.1-5.2,397.4-34.1c4.6-1,30.9-3.7,38.7-6.9c0.9-0.1,1.8-0.2,2.8-0.3c5.9-0.4,11.9-0.6,17.8-0.7
					c34.4-0.8,68.6,2.3,103,3.8c63.9,2.8,127.7-3.6,190.1-17.1c130.4-28.1,258.2-98,351.2-193.8c38.5-39.7,67.3-90.6,66.3-147.4
					C3419.6,2938.1,3382.4,2881.4,3327.5,2854.7 M2497,3136.4c1.8,0.1,11.6-1.3,15.2-1.8C2506.3,3136,2500,3137.3,2497,3136.4
					 M3142.5,2998.3c-4.2,3.5-8.1,6.9-11.3,10.7c-0.1,0.1-0.1,0.1-0.3,0.1C3137.3,3001.2,3141.4,2998.3,3142.5,2998.3
					 M3217.6,3081.8C3217.7,3081.8,3217.7,3081.8,3217.6,3081.8C3228.3,3084.2,3232.9,3089.7,3217.6,3081.8"/>
			</g>
		</g>
	</g>
</g>
<g>
	<g>
		<g>
			<g>
				<defs>
					
						<rect id="SVGID_7_" x="401.9" y="2230.9" transform="matrix(0.9999 -1.099668e-02 1.099668e-02 0.9999 -30.8435 21.1755)" width="3016.6" height="1168.9"/>
				</defs>
				<clipPath id="SVGID_8_">
					<use xlink:href="#SVGID_7_"  style="overflow:visible;"/>
				</clipPath>
				<path class="st5" d="M2915.2,3101.9c0.8-0.2,1.7-0.4,2.6-0.6C2890.6,3102.7,2905.5,3103.6,2915.2,3101.9"/>
			</g>
		</g>
	</g>
	<g>
		<g>
			<g>
				<defs>
					
						<rect id="SVGID_9_" x="401.9" y="2230.9" transform="matrix(0.9999 -1.099668e-02 1.099668e-02 0.9999 -30.8435 21.1755)" width="3016.6" height="1168.9"/>
				</defs>
				<clipPath id="SVGID_10_">
					<use xlink:href="#SVGID_9_"  style="overflow:visible;"/>
				</clipPath>
				<path class="st6" d="M2842.4,2289.7c-15.1-0.2-17,0.8-14,1.3c4.6-0.6,9.2-1.1,13.7-1.3
					C2842.3,2289.7,2842.4,2289.7,2842.4,2289.7"/>
			</g>
		</g>
	</g>
	<g>
		<g>
			<g>
				<defs>
					
						<rect id="SVGID_11_" x="401.9" y="2230.9" transform="matrix(0.9999 -1.099668e-02 1.099668e-02 0.9999 -30.8435 21.1755)" width="3016.6" height="1168.9"/>
				</defs>
				<clipPath id="SVGID_12_">
					<use xlink:href="#SVGID_11_"  style="overflow:visible;"/>
				</clipPath>
				<path class="st7" d="M2958.6,2381.2c7.1,5.7,7.1,5.7,13.7,3.5C2967.1,2376.6,2966.8,2376.5,2958.6,2381.2 M1108.3,2403.6
					c6.6-10,15.2-9.8,22.2-11.7c16.7-4.6,32.4-11.6,48.2-18.6c19-8.4,36.4-20,56.7-26c7.6-2.3,14.5-7.1,22.1-10.2
					c4.8-2,10-3.4,15.2-4.5c9.1-2,17.5-5,25.6-9.7c18.1-10.5,36.4-20.2,54.5-30.4c8.1-4.7,17.1-4.4,25.8-4.3
					c10.2,0.1,20.4,0.8,30.5,1.6c18.3,1.3,36.6,3.3,54.9,4.5c27.1,1.8,54.2,3.3,81.3,4.6c20.5,1.1,40.9,1.5,61.4,2.5
					c5.7,0.3,11.1,2.2,16.7,2.4c11.6,0.5,23.3,0,34.9,0.4c16.9,0.6,33.9,1.7,50.8,2.3c22.2,0.7,44.4,1.1,66.6,1.6
					c9.5,0.2,19.1,0.8,28.6,0.8c12-0.1,23.9-0.6,35.9-0.6c10.3-0.1,20.5,0.1,30.7,0.4c21.7,0.6,42.8-4.7,64.4-5.7
					c28.9-1.3,57.9-1.3,86.8-1.8c8.4-0.2,16.9-0.2,25.4,0.1c9.5,0.4,18.9,1.2,28.5,1.5c16.9,0.5,33.9,1.5,50.8,1.1
					c51.4-1.3,102.4,3.8,153.3,9.7c14,1.6,28.2,1.2,42.2,2.5c26.3,2.3,52.6,5.4,79.2,6.7c30,1.4,59.7,5.5,89.6,7.6
					c19.7,1.4,39.6,0.9,59.2,1.9c18.7,0.9,37.4,2.8,56,4c12.6,0.8,25.3,1.2,37.9,1.3c3.1,0.1,6.5-0.5,9.2-1.9
					c14.4-7.1,29.9-7.8,45.5-7.4c30.7,0.6,61.5,1.3,92.2,1.6c20.1,0.2,40.3-0.4,60.4-0.3c7,0,14.1,1,21.1,1.8
					c19,2.3,37.8,5,56.7,7.2c14.3,1.6,28.9,1.7,42.2,8.7c2.4,1.3,5.5,1.1,8.2,1.8c4.4,1.3,8.9,2.5,13,4.5c5.9,2.9,8,7.5,6.7,14
					c-1.6,7.5-5.2,13.9-11.7,18.3c-5.2,3.5-8.9,8.4-13,13.2c-7.5,8.9-17,17.3-27.4,22.3c-19.5,9.3-40.6,15.8-60.8,24.2
					c-16.2,6.8-31.8,14.8-48,21.8c-4,1.8-8.9,2.5-13.3,2.5c-6.7-0.2-13.3-1.7-20-2.3c-12.7-0.9-25.4-1.5-38.1-2.1
					c-27.1-1.1-54.3-2.8-81.4-2.9c-20.8-0.1-41.6,1.8-62.5,2.6c-8.8,0.4-17.7,0.4-26.5,0.7c-6.3,0.2-12.7,0.8-19,1.3
					c-2.1,0.2-4.3,0.6-6.3,0.7c-23.3-0.3-46.6-0.8-69.8-0.7c-11.6,0.1-23.4,1.1-34.8,2.4c-16.4,2.1-32.4,0.6-48.7-0.1
					c-3.9-0.2-8.1-1.4-11.5-0.2c-15.2,4.7-30.2,0.8-45.2,0.4c-5.3-0.2-10.7-1.3-15.9-0.7c-27.3,3.6-54.1-2.9-81.2-4.1
					c-30-1.3-60-2.4-89.8-5.9c-30.9-3.6-62.2-1.6-92.7-9.2c-4.4-1.1-9.1-0.7-13.7-1c-19.7-1.3-39.5-2.2-59.1-3.9
					c-14.7-1.3-29.4-3.6-44-5.3c-7.7-1-15.5-2.4-23.2-2.1c-25,1.1-49.2-5.4-73.9-6.5c-18.3-0.8-36.8-2.1-55.1-2.9
					c-22.4-1-45-1-67.4-2.6c-15.4-1.1-30.7-5-46.2-6.2c-18.3-1.3-36.6-0.8-55-1.5c-10.2-0.4-20.3-2-30.5-2.5
					c-5.2-0.3-11-0.8-15.9,0.8c-15.8,5.7-31.5,1.8-47.2,1.1c-8.7-0.4-17.6,0.8-26.3,0.9c-8.5,0.1-16.9-0.3-25.4-0.5
					c-6.7-0.2-13.5-1-20.1-0.3c-22.8,2.3-45-3.3-67.7-3.8c-18-0.5-36-0.3-53.9-0.4c-3.2-0.1-6.4-0.4-9.5-0.6
					c-16.2-0.8-32.4-1.4-48.6-2.4c-14.1-0.8-28.2-1.7-42.3-2.5c-14.4-0.8-28.8-1.8-43.3-2.3c-20.5-0.7-40.9-1.3-61.3-1.5
					c-11.2-0.1-22.5,1.1-33.8,1.4C1115.7,2405.1,1112.7,2404.2,1108.3,2403.6"/>
			</g>
		</g>
	</g>
	<g>
		<g>
			<g>
				<defs>
					
						<rect id="SVGID_13_" x="401.9" y="2230.9" transform="matrix(0.9999 -1.099668e-02 1.099668e-02 0.9999 -30.8435 21.1755)" width="3016.6" height="1168.9"/>
				</defs>
				<clipPath id="SVGID_14_">
					<use xlink:href="#SVGID_13_"  style="overflow:visible;"/>
				</clipPath>
				<path class="st8" d="M1193.5,3037.1c-5.2-4.7-19.8-8.8-27.2-7.4C1172.9,3039.8,1182.6,3042.5,1193.5,3037.1 M1469.7,3036.5
					c-3.3,0.1-6.7,0-9.9,0.1c-14.4,0.8-28.7,1.9-43.2,2.3c-15.4,0.4-30.8,1.7-46.2,0.2c-6.2-0.6-12.7,0.6-19,0.6
					c-17.3-0.1-34.5-0.6-51.8-0.6c-3.1-0.1-6.3,0.8-9.3,1.7c-5.2,1.8-10.2,2.1-15.4-0.1c-4.7-2-9.4-1.8-13.5,2.5
					c2.3,4.5,6.2,3.6,9.6,3.8c14.1,0.6,28.3,1,42.3,1.4c1.8,0.1,3.5-0.1,5.3-0.1c14.4-0.8,28.7-1.7,43.1-2.2c4.5-0.1,9.1,0.8,13.7,1
					c4.9,0.1,9.8,0.1,14.7-0.1c5.7-0.2,11.2-0.9,16.9-1.3c8.4-0.6,16.9-1.3,25.4-1.7c8.7-0.4,17.4-2.8,26.3,0
					C1463.1,3045.6,1467.2,3043.4,1469.7,3036.5 M1495.1,3039.6c5.5,0.5,10.6,1.2,15.8,1.1c30.8-0.1,61.5-1.7,92.1-5.2
					c17.3-2,34.6-0.6,51.8,1.3c10.8,1.3,21.8,1.1,32.8,1.3c22.3,0.4,44.4,1.1,66.6,3.8c24.8,3,50,3.7,75,2.8
					c22.7-0.7,45,1.3,67.5,3.5c16.9,1.6,33.8,3,50.6,4.5c13.4,1.1,26.7,2.3,40.1,3.6c22.8,2.2,45.6,4.7,68.4,6.9
					c14.4,1.4,29,2.1,43.3,4.4c27.7,4.5,55.7,3.3,83.5,5.1c20.7,1.3,41.6,1,62.4,0.3c26.8-1.1,53.5-3.6,80.4-4.9
					c8.7-0.4,17.6,1.2,26.3,1.3c15.6,0.3,31.2,0.2,46.7,0.2c2.5,0,5-0.3,7.4-0.1c23.8,2.1,47.3-1.1,70.8-3.3
					c10.2-0.9,20.5-1.9,30.7-1.3c16.8,1.1,33-1.6,49.5-3.7c28.8-3.8,57.4-7.6,86.5-7.4c15.9,0.1,31.7-1.8,47.5-3
					c12.7-0.9,25.4-1.4,37.9-3.1c12.5-1.6,24.9-5.9,37.5-6.7c15.1-0.8,29-5.4,43.3-8.8c5.1-1.3,10.6-1.9,15.7-2.1
					c12.6-0.5,21.2-6.7,27.5-17.1c2.5-4.2,4.6-8.8,7.6-12.7c2.4-3.4,5.5-6.8,9-8.7c15.5-8.4,29.1-20.2,46.1-25.9
					c6.7-2.3,13.2-4.9,19.8-7.1c5.4-1.8,8.6-5,11.3-10.1c5.1-9.5,13.2-16.6,24.1-18.8c3.5-0.7,7.9-0.1,11.2,1.3
					c22.2,9.7,42.2,23.2,60.8,38.2c8.6,6.9,14.2,17.3,21,26.3c2.1,2.8,3.3,6.2,5,9.3c4,6.9,4.4,13.9,1.9,21.5
					c-3.5,10.7-6.9,21.5-10.5,32.3c-4.6,13.9-15.2,22.5-26.8,30.3c-11,7.4-24.1,7.9-36,11.3c-19,5.4-38.4,9.2-57.4,14.4
					c-7.7,2.1-15,5.9-22.6,9c-3,1.1-6,2.5-9.1,2.5c-11.4,0.3-22.3,2.8-33.2,5.7c-26.7,7.2-54.1,5.2-81.2,4.8
					c-22.9-0.3-45.8-2.8-68.8-3.1c-12.7-0.2-25.4,2.1-38,2.9c-12.3,0.8-24.7,1-37,2.1c-25.6,2.3-51.2,5.7-77,7.5
					c-19.4,1.4-38.8,1.5-58.3,1.5c-16.9,0-33.6-1.8-50.6-1.1c-16.6,0.7-33.2-1.1-49.9-1.1c-21.2-0.1-42.5-0.8-63.6,1
					c-36.7,2.9-73.4,3.3-110.1,5.2c-20.7,1.1-41.6,3-62.3,4.8c-21,1.8-42.3,2.8-63.1,6c-16.6,2.5-33,3.8-49.6,3.5
					c-29.6-0.6-59.2-1.5-88.9-2.3c-18.8-0.5-37.5-1.2-56.2-1.3c-10.6-0.1-21.1,1.2-31.7,1.2c-8.4,0-16.8-1.1-25.2-1.6
					c-22.7-1.4-45.1-2.8-67.8-4.3c-1.5-0.1-2.8-0.5-4.2-0.6c-21.5-1.3-42.9-2.7-64.4-4.2c-3.5-0.2-6.9-1.1-10.4-1.7
					c-2.4-0.5-4.8-1.6-7.2-1.8c-25-1.7-49.9-3.4-74.9-4.7c-26.1-1.3-52.3-2.3-78.3-3.3c-3.9-0.1-7.8,0.1-11.6-0.1
					c-6.7-0.4-13.3-1-20-1.5c-5.3-0.5-10.6-1-15.9-1.3c-41.6-2.8-83.3-4-124.7-9.8c-25.1-3.5-50.6-5-75.9-6.7
					c-19-1.3-38.1-1.3-57.2-2.3c-35.3-1.9-70.5-3.9-105.7-6.4c-9.8-0.7-19.5-3.3-29.2-4.9c-19.8-3.3-39.5-7.2-59.8-7.4
					c-24.9-0.4-48.9-6.1-72.2-14.2c-10.6-3.7-20.6-9.3-30.3-15c-19.8-11.7-39.7-23.2-54.1-41.8c-7.2-9.1-14.4-18.3-16.9-30.3
					c-2-9.4-0.9-15.6,7.2-20.1c13.7-7.7,26.5-17.6,43.6-17.6c6.9,0,13.8-2.6,20.7-4c5.3-1.1,9.3,0.5,13.4,4.4
					c4.5,4.4,10.1,7.7,15,11.6c5.5,4.3,10.8,8.8,16.5,13.1c2.5,1.8,5.2,3.6,8,4.9c7.5,3.2,15,6,22.5,9c1.6,0.7,3.2,1.8,4.8,2.1
					c13.9,2.7,27.7,5.2,41.6,7.6c4.2,0.7,8.8,0.3,12.5,2c10.8,5.2,21.9,3.9,33.2,3.4c20.9-0.8,41.8-0.4,62.6-0.9
					c13.7-0.4,27.5-1.4,41.3-2.1c1.8-0.1,3.6-0.4,5.3-0.1c17.6,3.3,35.2,2,52.8-0.6c2.4-0.4,5-0.5,7.4-0.3
					c24.6,2.2,49.3-1.1,73.9-1.1c26.4,0,52.9-0.1,79.2,1.7c17.8,1.3,35.5,5.8,53.1,9.1c3.3,0.6,6.2,2.8,8.9,4
					C1506.4,3033.9,1494.4,3029.3,1495.1,3039.6"/>
			</g>
		</g>
	</g>
	<g>
		<g>
			<g>
				<defs>
					
						<rect id="SVGID_15_" x="401.9" y="2230.9" transform="matrix(0.9999 -1.099668e-02 1.099668e-02 0.9999 -30.8435 21.1755)" width="3016.6" height="1168.9"/>
				</defs>
				<clipPath id="SVGID_16_">
					<use xlink:href="#SVGID_15_"  style="overflow:visible;"/>
				</clipPath>
				<path class="st9" d="M2885.6,2879.9c1.4-25.4,2.1-50.8,4.5-76.1c1.7-17.8-0.6-35.1-2.2-52.8c-0.8-9.1-1.3-18.4-1.3-27.5
					c-0.1-22.6-2-45.2,0.6-67.8c0.6-4.5-0.4-9.1-0.4-13.7c0.1-9.5,0.5-19,0.4-28.5c-0.1-6.3-1.3-12.7-1.1-19
					c0.5-25.7-7.9-50.1-10.7-75.3c-0.6-5-4-9.7-5.5-14.8c-0.9-3-1.7-7.2-0.4-9.8c3.3-6.7,8.2-12.3,15.4-15.4
					c28.7-12.7,57.2-25.9,86-38.2c10.1-4.3,18.1-10.6,24.6-19.3c3.4-4.4,8-7.9,12.7-11c7.1-4.7,13.5-2.9,15.6,5.5
					c4.5,16.3,8.5,32.9,11,49.6c2.1,14.2,1.9,28.7,2.5,43.2c1.1,25,0.7,50.1,3.5,74.9c2,18.3,2.4,36.3,1.7,54.7
					c-0.6,15.1,2.8,30.2,3.9,45.3c0.6,7.6,0,15.4-0.2,23.2c-0.1,2.1-0.8,4.2-0.6,6.4c2.4,27.2,0.7,54.2-0.7,81.4
					c-0.4,7.4,0.4,14.8,1.5,22.2c1.2,8.8-0.7,15.9-7.6,21.7c-7.5,6.4-14.3,13.5-21.5,20c-6.2,5.6-12.1,12-19.2,16.4
					c-11,6.8-21.6,14.9-34.7,17.2c-5.9,1-10.3,2.8-13.2,8.8c-3.8,7.2-9.6,12.9-16.9,17.1c-10.7,6.1-20.8,13.2-31.4,19.6
					c-2.1,1.3-4.5,2.3-6.8,2.6c-6.3,1-9.7-1.2-10.2-7.6c-0.6-6.7-0.2-13.5,0.1-20.1c0.5-10.8,1.2-21.8,1.8-32.7
					C2886.3,2879.9,2886,2879.9,2885.6,2879.9"/>
			</g>
		</g>
	</g>
	<g>
		<g>
			<g>
				<defs>
					
						<rect id="SVGID_17_" x="401.9" y="2230.9" transform="matrix(0.9999 -1.099668e-02 1.099668e-02 0.9999 -30.8435 21.1755)" width="3016.6" height="1168.9"/>
				</defs>
				<clipPath id="SVGID_18_">
					<use xlink:href="#SVGID_17_"  style="overflow:visible;"/>
				</clipPath>
				<path class="st10" d="M2958.6,2381.2c8.2-4.7,8.6-4.7,13.7,3.5C2965.6,2387,2965.6,2387,2958.6,2381.2"/>
			</g>
		</g>
	</g>
	<g>
		<g>
			<g>
				<defs>
					
						<rect id="SVGID_19_" x="401.9" y="2230.9" transform="matrix(0.9999 -1.099668e-02 1.099668e-02 0.9999 -30.8435 21.1755)" width="3016.6" height="1168.9"/>
				</defs>
				<clipPath id="SVGID_20_">
					<use xlink:href="#SVGID_19_"  style="overflow:visible;"/>
				</clipPath>
				<path class="st11" d="M1469.7,3036.5c-2.5,6.9-6.6,9.1-11.4,7.6c-8.9-2.8-17.6-0.4-26.3,0c-8.4,0.4-16.9,1.1-25.4,1.7
					c-5.7,0.4-11.2,1.1-16.9,1.4c-4.9,0.2-9.8,0.3-14.7,0.1c-4.5-0.1-9.2-1.1-13.7-1c-14.4,0.5-28.7,1.4-43.1,2.2
					c-1.8,0.1-3.5,0.1-5.3,0.1c-14.1-0.4-28.3-0.9-42.3-1.5c-3.3-0.1-7.2,0.8-9.6-3.8c4.1-4.3,8.8-4.5,13.5-2.5
					c5.2,2.3,10.2,1.8,15.5,0.1c3-1,6.2-1.8,9.3-1.8c17.3,0.1,34.5,0.6,51.8,0.6c6.3,0,12.7-1.3,19-0.6c15.4,1.4,30.8,0.1,46.2-0.3
					c14.4-0.4,28.8-1.6,43.2-2.3C1463,3036.5,1466.4,3036.5,1469.7,3036.5"/>
			</g>
		</g>
	</g>
	<g>
		<g>
			<g>
				<defs>
					
						<rect id="SVGID_21_" x="401.9" y="2230.9" transform="matrix(0.9999 -1.099668e-02 1.099668e-02 0.9999 -30.8435 21.1755)" width="3016.6" height="1168.9"/>
				</defs>
				<clipPath id="SVGID_22_">
					<use xlink:href="#SVGID_21_"  style="overflow:visible;"/>
				</clipPath>
				<path class="st12" d="M1193.5,3037.1c-10.8,5.4-20.5,2.8-27.2-7.4C1173.6,3028.4,1188.2,3032.3,1193.5,3037.1"/>
			</g>
		</g>
	</g>
</g>
<g>
	<g>
		<g>
			<g>
				<defs>
					
						<rect id="SVGID_23_" x="401.9" y="2230.9" transform="matrix(0.9999 -1.099668e-02 1.099668e-02 0.9999 -30.8435 21.1755)" width="3016.6" height="1168.9"/>
				</defs>
				<clipPath id="SVGID_24_">
					<use xlink:href="#SVGID_23_"  style="overflow:visible;"/>
				</clipPath>
				<path class="st13" d="M1442.8,2478.9c-7.5,6.5-8.7,6.5-17.6,1.1C1431,2475,1436.9,2478.4,1442.8,2478.9"/>
			</g>
		</g>
	</g>
	<g>
		<g>
			<g>
				<defs>
					
						<rect id="SVGID_25_" x="401.9" y="2230.9" transform="matrix(0.9999 -1.099668e-02 1.099668e-02 0.9999 -30.8435 21.1755)" width="3016.6" height="1168.9"/>
				</defs>
				<clipPath id="SVGID_26_">
					<use xlink:href="#SVGID_25_"  style="overflow:visible;"/>
				</clipPath>
				<path class="st14" d="M3072.4,2461.3c0.1-0.7,0.1-1.4,0.4-2.1c0.3,1.3,0.6,1.7,0.5,0.8C3073,2467,3067.7,2499.9,3072.4,2461.3
					 M2854.7,2563.9c0.4,0.6,0.7,1.2,1.1,1.7c1.2,4.2,3.3,10.1,4.2,12.8c0.4,8.3,0.6,16.4,0.3,24.7c-1.5,4.7-1.6,11.4-2.6,15.9
					c-0.1,0.5-0.4,1.1-0.4,1.6c-0.4-4.7-0.7-9.6-1.1-14.4c-1.3-15.7-1.6-31.7-4.1-47.2C2852.9,2560.7,2853.8,2562.4,2854.7,2563.9
					 M3100.9,2502.4c-6-21.2-15.3-41.9-26-61.5c0.2-2.6,0.5-5.3,0.5-7.9c2.9-88.9-74.4-147.6-156-152.6c-23.2-1.4-46.5,3.7-69.1,7.8
					c-2.5,0.5-5.2,0.9-7.7,1.4c0.7,0,1.2,0,2,0c-0.8,0-1.5,0-2.2,0c-1.6,0.3-3.3,0.6-5,0.9c-3.4,0.6-6.9,0.6-8.7,0.4
					c-6.5,0.9-13,2.1-19.2,2.6c-41.1,3.8-82.4,4.6-123.7,3.7c-167.3-4-334-31-500.9-43.1c-168.9-12.3-338.2-18.6-507.6-18.7
					c-81.4-0.1-165.8-4.1-246.6,6.9c-58.2,7.9-105.2,24.6-158.7,48.6c-37,16.6-73.8,33.8-110.6,50.7c-15.1,6.9-30.2,13.5-44.7,20.6
					c-14.4-1.3-28.7,0-41.7,5.3c-52.7,22.1-96.7,53.5-122.7,106.3c-23.2,47.1-31.9,98.2-29.1,150.4c2.1,39.7,7.4,78.5,5.5,118.4
					c-0.2,4.7-2.3,24.4-1.8,23.8c-0.7,4.5-1.4,9-1.8,11c-3.6,19.8-8.4,39.3-14.2,58.6c-20,65.4-19.9,130.6,32.6,181.9
					c49.4,48.2,118.3,38.4,180.7,37c84.1-1.8,168.2-1.9,252.3-0.3c169.7,3.2,339.2,13.4,508.1,30.2c83.4,8.4,167.2,17.3,251.1,12.2
					c82.2-5,163.2-21,244.9-29.2c40.8-4.1,81.7-6.2,122.6-4.2c40.5,1.9,81.2,7.6,121.7,3.3c93.6-10.1,178.1-52,258.1-99.9
					c74.7-44.7,142.1-105.7,181.5-184.4C3107.1,2697.6,3127.4,2595.8,3100.9,2502.4"/>
			</g>
		</g>
	</g>
</g>
<g>
	<g>
		<g>
			<g>
				<defs>
					
						<rect id="SVGID_27_" x="401.9" y="2230.9" transform="matrix(0.9999 -1.099668e-02 1.099668e-02 0.9999 -30.8435 21.1755)" width="3016.6" height="1168.9"/>
				</defs>
				<clipPath id="SVGID_28_">
					<use xlink:href="#SVGID_27_"  style="overflow:visible;"/>
				</clipPath>
				<path class="st15" d="M1111.5,2423.9c-30.8-0.4-64.2-1.4-92.1,13.1c-13.5,7-28.6,14.6-38.7,26.1c-10.8,12.5-14.4,29.8-18.6,45.3
					c-9.6,35.9-16.7,66.9-12,104.6c5,40.1,7,80.2,11.2,120.4c4.2,41.3,5.5,86.2,3.3,127.9c-0.8,16.6-8.4,32.1-9.8,49
					c-1.2,14.6-0.7,28.2,7.2,40.9c15.7,25.6,43.1,42,72.2,46.5c18.3,2.9,38.2,2.5,56.7,1.3c21.2-1.3,40.5-8.7,61.9-8.7
					c43.5,0.1,87.5-3.2,130.9-1.1c43.8,2.1,87.3,5.4,130.8,10.6c41.6,5,83.3,4.9,125,7.3c40.9,2.3,78,24.4,118.6,30
					c82.3,11,164.2,0.9,246.4-2.9c15.6-0.8,28,4.2,42.8,5.8c21,2.3,43.5-1.1,64.8-0.6c47.9,1.1,95.2,6.7,143.2,6.4
					c43.3-0.4,85.9-3,128.9-5.5c41.3-2.4,82.9-0.1,124.2,1.1c46.5,1.3,92.9,1,139.5,2.4c18.3,0.6,36.5,0.3,54.4-3.4
					c9.4-2,18.6-5.1,28.1-6.7c14-2.3,19.3-1.1,31.8,3.4c32.3,12,73.2,8.7,106.2,1.1c34.9-8,64.2-22.9,86-52.1
					c9.1-12.2,17.6-26.3,23.1-40.5c7.2-18.3,4.8-37.7,9.3-56.4c9.2-38.2,12.1-79.8,13.2-119.1c0.6-21.2-0.4-42.6-0.6-63.9
					c-0.2-20.6,3-42.2,1.4-62.7c-1.3-16.6-2-35.1-5-51.5c-2.8-15.4-9-30.9-13.2-46c-4.1-14.7-3.1-29.8-10.1-43.8
					c-6.4-12.7-16-17.4-29-22.9c-35.3-14.7-79.5-8-116.3-3.7c-20,2.3-39.7,7.3-59.9,8.1c-23,0.9-46,0.4-69,0.8
					c-45.1,0.9-90.1-1.3-135.3-0.8c-87.2,1-174.3-0.2-261.7,0.8c-45.3,0.6-94.3,6-138.8-5.7c-17.4-4.6-33.6-10.2-51.8-11.9
					c-22.1-2.1-44.5-3.1-66.6-4.7c-41.8-3-83.9-7.4-125.3-13.7c-39.5-5.9-78.7-9.1-118.4-13.2c-40.9-4.2-82.5-1.8-123.6-3.8
					c-41.9-2-84.1,0.4-126-0.8c-20.6-0.6-40.9-3.7-61.6-3.6c-23.9,0-47.9,1.2-71.9,1.6c-39.9,0.5-79.2-14-118.4-21.9
					c-13.4-2.7-26.5-5.4-40-2.4c-16.1,3.6-29.4,14.8-44.9,17.9c-6.4,1.3-3.5,11,2.8,9.8c14.3-2.9,24.7-12.4,38.7-16.2
					c20.7-5.6,40.9,0.8,61.4,5c17.2,3.5,34.6,6.7,51.3,12.2c16.9,5.5,31.2,6.1,49.2,5.8c41.3-0.6,81.7-1.5,122.9,1.5
					c40.6,2.9,81.6-2.6,122.2,0.1c77.8,5.3,156.2,2.4,233.5,15.3c34.6,5.8,69.3,8.4,104.2,12.5c41.1,5,83.6,3.8,124.4,10.8
					c16.8,2.8,32.4,9.8,49.3,12.5c19,3,38.3,4.1,57.5,4.3c40.4,0.5,80.9-1.1,121.4-1.6c81.4-1.1,162.9,0.8,244.4-0.6
					c43.1-0.8,86.1,0.9,129.3,0.6c18.8-0.1,37.7,0.6,56.4-1.3c21.5-2.1,42.3-6.9,63.9-8.6c35.5-2.8,105.7-14.9,120.2,30.4
					c4.4,13.5,4.7,28.8,8.9,42.7c5.6,18.4,10.1,35.8,11.5,55.1c1.1,15.9,4.5,31.9,3.4,47.8c-1.3,20.5-1.1,40.9-1,61.5
					c0.4,39.4-1.9,77.7-5,116.9c-1.5,19.3-5.6,37.5-9.8,56.3c-4.5,20.7-2.2,38.8-12.5,58.7c-20.2,39.5-50.2,63.4-93.3,73.9
					c-20,4.8-40.2,6.1-60.7,6c-10.3,0-21.3,0.1-31.4-2.5c-7.9-2.1-14.9-7.7-22.8-9.3c-12.5-2.5-28.4,2.2-40.4,5.1
					c-22.1,5.3-43.3,7.4-65.9,6.7c-42.6-1.3-85.2,0.1-127.6-1.8c-39.2-1.8-78.4-2.6-117.7-2.2c-40.6,0.4-81.2,5.4-121.9,5.9
					c-43.1,0.5-86.2,0.7-129.2-3.3c-19.8-1.8-39.5-3-59.4-3c-9.3,0-18.6,0-27.8,0.3c-11.2,0.3-20.3-2.8-30.9-4.8
					c-12.3-2.4-26-1-38.5,0.1c-20.9,1.8-41.7,1.5-62.6,4c-38.1,4.7-77.2,4-115.6,2.8c-40.4-1.1-79-5.9-117-19.8
					c-15.3-5.7-31.3-11-47.4-13.2c-18.4-2.5-36.9-0.8-55.4-2.1c-39.7-2.9-79.2-6.9-118.9-10.5c-39.6-3.6-79.6-7.1-119.3-6.5
					c-40.9,0.6-84-3-124.6,1.5c-16.9,1.9-32.4,8.1-49.9,8.8c-22.5,0.8-46,1.3-67.4-6.4c-16.1-5.9-29-15.9-40.2-28.8
					c-15.2-17.6-13.3-39.3-9.1-60.8c1.6-8.4,5.5-16.4,6.7-24.9c1.1-7.6-0.1-15.7-0.3-23.2c-0.5-20.5-0.7-41.1-0.6-61.6
					c0.4-38.2-5.5-75.8-7.6-113.9c-1.9-35.9-9.8-71.7-6.7-108c1.6-18.8,8.8-36,13.3-54c6.6-25.8,16.3-41.5,39.8-55
					c30.9-17.8,64.1-18.8,99.1-18.6C1118.2,2434.2,1118.1,2424.1,1111.5,2423.9"/>
			</g>
		</g>
	</g>
	<g>
		<g>
			<g>
				<defs>
					
						<rect id="SVGID_29_" x="401.9" y="2230.9" transform="matrix(0.9999 -1.099668e-02 1.099668e-02 0.9999 -30.8435 21.1755)" width="3016.6" height="1168.9"/>
				</defs>
				<clipPath id="SVGID_30_">
					<use xlink:href="#SVGID_29_"  style="overflow:visible;"/>
				</clipPath>
				<path class="st16" d="M1050.8,2428.4c10.3-3.7,17.6-10.6,25.1-18.4c12.1-12.5,30.8-17.3,46.7-23.6c32.6-13,67.3-18.8,97.2-38
					c30.1-19.2,60-42.3,95.7-49.8c30.4-6.3,60.5-22.7,92.3-19c14.3,1.6,28.7,7.7,43.5,9.5c17.6,2.1,35.8-0.2,53.6,1
					c42,2.9,84,2.5,125.9,5.2c77.1,4.9,154.4,5.7,231.6,5.2c161.9-1.3,325.2-11.2,486.8,1.1c40.1,3,82.4,2.3,121.5,12.5
					c16.8,4.4,33,10.5,50.2,13.4c18.1,3,36.7-0.4,54.5,3.6c31.4,7.2,62-4,93.5-5.9c40.7-2.7,81.8-1.8,122.6-2.5
					c42.6-0.6,83.8,7.2,125.9,10.3c21.2,1.6,43,1.1,63.9,4.2c9.6,1.4,22.9,3.3,31.4,8.6c5.5,3.5,15.2,15.3,13.4,23.2
					c-0.6,3.1-9.8,9.2-12.1,10.9c-12.7,9.9-27.9,16.1-39.6,27.2c-12.7,12.2-27.5,25.3-42.8,34c-17.1,9.8-36.7,14.2-54.1,23.3
					c-12.2,6.3-29,12.2-38.2,22.8c-1.3,1.6-2.1,4.3-0.7,6.2c0.5,0.7,1,1.3,1.5,2.1c3.8,5.2,12.6,0,8.8-5.2
					c1.7,2.5,41.6-20.6,44.4-21.8c15.6-6.5,31.8-11.5,46.4-20.3c11.8-7.2,23.1-16.3,33.4-25.1c13.7-11.7,27.3-20.9,42-31.3
					c17-11.8,33-26.9,15.5-46.2c-19.8-22-59.8-19.2-86.5-21.4c-37.7-3.1-75.1-7.2-112.8-10.6c-43.5-3.9-87.8-0.6-131.4-0.3
					c-18.2,0.2-37.4,0.4-55.4,3c-19.7,3-38.9,9.7-59.1,6.3c-6.7-1.1-12.5-3.5-19.4-4c-9.9-0.8-19.8,0.9-29.9,0.2
					c-21.7-1.5-41.7-9.3-62.5-14.8c-36.4-9.6-75.3-9.1-112.7-12c-41.4-3.3-83-4.4-124.5-4.9c-87.1-1-174.1,0.1-261.3,1.5
					c-43,0.7-85.9,1.3-128.7,1.6c-42.2,0.2-84.6-2.3-126.7-1.4c-40.3,0.8-80.1-4.6-120.3-4.7c-44.1-0.1-87.9-4.7-132.1-4.9
					c-20.5-0.1-37.4-7.3-57-10c-13-1.7-30.4,1.1-43.2,2.7c-6.6,0.8-12,3.7-17.9,6.4c-10.8,5.1-21.2,7.5-32.9,9.8
					c-19,3.6-34.8,11.8-52.3,19.8c-18.8,8.6-34.7,22.8-52.3,33.7c-20.3,12.6-42.8,18.6-65.4,25.3c-18.8,5.5-36.8,14.2-55,21.2
					c-7,2.7-11.3,3.8-16.9,8.6c-8.9,7.7-14.5,17.6-26.3,21.9C1041.9,2420.7,1044.6,2430.6,1050.8,2428.4"/>
			</g>
		</g>
	</g>
	<g>
		<g>
			<g>
				<defs>
					
						<rect id="SVGID_31_" x="401.9" y="2230.9" transform="matrix(0.9999 -1.099668e-02 1.099668e-02 0.9999 -30.8435 21.1755)" width="3016.6" height="1168.9"/>
				</defs>
				<clipPath id="SVGID_32_">
					<use xlink:href="#SVGID_31_"  style="overflow:visible;"/>
				</clipPath>
				<path class="st17" d="M3029.3,2370.1c-12.3,20.6-1.6,50.1,5.8,70.7c5.7,15.4,14.4,29.5,17.5,45.9c3.5,17.8,1.9,36.3,3.3,54.4
					c5,65.1,0.6,130.4-0.4,195.7c-0.5,32.6-4.2,63.7-13.7,94.7c-5.9,19.5-13.3,26.6-29.6,38.2c-12.4,8.8-24.2,18.7-37,27.1
					c-43.8,29.1-90.6,52.7-132.1,84.3c-5.2,3.9,0.1,12.7,5.2,8.8c41.2-31.4,88.2-55.5,132.1-84.3c10.1-6.5,19.7-14.1,29.5-21
					c9.6-6.8,21.6-13.5,29.5-22.4c18.6-21.1,20-56.9,23.8-83.1c5-33.8,2.8-69,3.8-103.2c1-33.7,1.3-67.3,1.3-101.2
					c0-15.9-2.4-31.7-3-47.5c-0.5-14.4-0.1-29-3-43.3c-3.3-16.4-11.7-30.4-17.5-45.9c-6.5-17.3-17.3-44.9-6.8-62.7
					C3041.5,2369.6,3032.6,2364.5,3029.3,2370.1"/>
			</g>
		</g>
	</g>
	<g>
		<g>
			<g>
				<defs>
					
						<rect id="SVGID_33_" x="401.9" y="2230.9" transform="matrix(0.9999 -1.099668e-02 1.099668e-02 0.9999 -30.8435 21.1755)" width="3016.6" height="1168.9"/>
				</defs>
				<clipPath id="SVGID_34_">
					<use xlink:href="#SVGID_33_"  style="overflow:visible;"/>
				</clipPath>
				<path class="st18" d="M955.8,2758.9c-35.1,0.7-70.1-1.3-105.3-0.8c-15.2,0.1-33.1-2.3-48,0.6c-14.2,2.9-28.2,11.8-42.1,16.2
					c-14.4,4.6-26,10.8-39.4,17.1c-14,6.7-26.1,9.9-38.9,19.9c-5.7,4.5-11.2,10.1-17.5,13.9c-8.4,5-17.2,5.6-26.1,8.6
					c-14.9,5.3-29.5,13.2-43.8,20c-15.6,7.4-28.7,18.2-43.3,27.3c-16,10.1-31.6,19.5-47.2,30c-22,14.9-46.5,27.8-54.2,55.4
					c-7,25.1-7.9,61.5,2.4,85.9c12,28.1,41.4,38.5,65.6,53.3c60.8,37.1,122.2,62.6,194.1,67.8c41,3,77.4,12,115,29.3
					c32.4,14.9,65.1,23.1,100.4,28.5c38.7,5.9,78,7.1,116.5,13.7c36.8,6.3,72.1,21.7,108.9,26.8c37.3,5.2,75.3,6.7,112.9,8.1
					c40.2,1.6,79.1,9.7,118.8,15.9c35.9,5.6,72.6,8.6,108.9,10.3c38.3,1.8,76.7,7.4,114.9,11.3c19.1,1.9,37,8,55.9,10.7
					c16.9,2.4,34.2,1.4,51.3,1.6c39.9,0.8,78.8,9.5,118.8,8.7c40.6-0.8,80.1,4.3,120.4,6.4c17.7,0.9,41.4-4.7,55.8,5.9
					c11.2,8.4,23.2,11.4,36.9,14.2c70.6,14.4,147,6.9,218.7,6.2c41.5-0.4,83.1,0.1,124.6-1.6c38.2-1.6,75.8-8.7,113.9-9.7
					c40.2-1.1,80.2-0.8,120.3-2.5c19.2-0.7,38.2-0.4,57.4-1c18.8-0.6,36.8-5.2,55.6-5.5c78.2-0.8,156.6-2.9,234.6-8.9
					c33.3-2.5,67.1,0.1,97.5-16.1c31.5-16.6,62.7-34.7,92.7-53.7c30.4-19.3,61.2-39.7,89.8-61.4c11.7-8.9,24.5-16.1,36.1-25.1
					c13.7-10.6,24.4-23.2,36.8-35c23.8-22.7,44.3-47.1,60.1-76.3c6.5-12.3,14.8-25.1,20.1-37.8c5.2-12.4,5.7-28,7.4-41.3
					c3-23.3,6.5-49-6.2-70.4c-16.3-27.2-48.8-37.6-74.4-53c-57.8-34.8-120.6-59.9-189.3-56.7c-30.4,1.5-60-5.7-89.4,2.9
					c-6.3,1.8-3.5,11.7,2.8,9.8c29.4-8.6,62.2-1.9,92.9-2.8c34.6-1.1,67.3,5.9,99.8,17.2c17.8,6.2,35.6,12.9,52,22.4
					c14.7,8.5,28.6,18.3,43.8,25.8c32.7,16.3,61.6,35.6,60.6,76.1c-0.3,14-3.2,28.5-5.2,42.3c-2.5,17.5-8.1,27.9-15.7,43.1
					c-14.2,28.6-31.5,59.5-55.3,81c-10.5,9.6-19.7,20.1-30,29.8c-13.5,12.8-29.4,22.1-44.4,32.9c-26.4,19-53.2,37.3-80.1,55.7
					c-26.8,18.3-55.2,35.3-83.8,50.3c-15.9,8.3-30.4,18.8-47.9,23.7c-19.4,5.3-39.9,3.8-59.6,5.2c-72.8,5.2-146,9.6-219,10.1
					c-32.7,0.2-64.7,5.2-97.2,5.4c-38.2,0.1-76.5,3-114.8,3.1c-72.7,0.1-144.2,10.4-216.9,10.9c-36.3,0.2-72.7,0.6-108.9,1
					c-36.5,0.4-73.5,2.8-109.9,0.1c-31.3-2.4-77.1,2-101.5-20.6c-6.9-6.2-7.4-6-16.9-5.9c-20.1-0.1-39.9,0.4-59.9-1.2
					c-36.4-2.8-71.7-5.8-108.3-5.2c-37.2,0.6-73.9-7.7-111.2-8.7c-15.6-0.4-31.3,0.6-46.9-0.8c-18-1.7-35.1-7.9-53.1-10.3
					c-34.1-4.6-69-8.8-103.3-11.3c-35.1-2.7-70.5-3.7-105.5-7.4c-35.9-3.8-70.7-12.9-106.4-18c-34.6-4.9-70.7-2.6-105.5-5.5
					c-18.3-1.5-37.8-1.9-55.5-6.5c-16.9-4.4-33.7-9.4-50.6-13.8c-69.3-18.1-141.7-16-211.2-33.7c-33.1-8.4-62.6-25.8-95-36.2
					c-32.1-10.3-63.2-11.3-96.4-14.9c-69.5-7.4-134.6-40.4-192.4-78.1c-15.8-10.3-31.4-20.3-37.6-39.3c-5.5-17.1-4.1-37.1-2.8-54.8
					c3-40.6,32.4-53.8,61.8-76.1c13.7-10.3,29-17.1,43.3-26.6c16.2-10.8,31.4-21,49.4-28.8c14-6.2,26.8-11.7,41.5-15.7
					c11.4-3.1,20-10.3,29.2-17.5c13.7-11,26.2-15.5,41.8-22.4c14.3-6.3,27.1-14.1,42.6-18.8c12.4-3.8,24.2-10.8,36.8-13.6
					c18.1-4,38.8-1.6,57.4-1.8c31.8-0.4,63.2,1.7,95,1C962.4,2768.9,962.3,2758.7,955.8,2758.9"/>
			</g>
		</g>
	</g>
	<g>
		<g>
			<g>
				<defs>
					
						<rect id="SVGID_35_" x="401.9" y="2230.9" transform="matrix(0.9999 -1.099668e-02 1.099668e-02 0.9999 -30.8435 21.1755)" width="3016.6" height="1168.9"/>
				</defs>
				<clipPath id="SVGID_36_">
					<use xlink:href="#SVGID_35_"  style="overflow:visible;"/>
				</clipPath>
				<path class="st19" d="M951.6,2943.1c-15.9,0.8-33.1,7.5-47.5,13.8c-11,4.8-25.5,13.3-32.4,23.4c-17,25.1,0.1,75,18,95.7
					c9.7,11.3,25.8,12.5,39.3,17.1c19.7,6.7,37.3,16.5,56.8,23.7c19.3,7.2,36.5,13.5,56.1,19.1c22.2,6.2,44.3,10.3,67.1,13.4
					c45.6,6.1,93,5.7,138.9,4.4c23.1-0.7,45.9-4.5,69-5.5c26.7-1.1,53.5-0.8,80.2-1.2c50.8-0.9,101.6-2.6,152.5-0.5
					c50.2,2.1,100.6,6.6,151,7c48.9,0.4,98.9-1.2,147.6,3.3c48.2,4.4,92.8,24.1,141.5,25.2c23.9,0.6,48.1-0.4,72-0.8
					c21.3-0.2,42.5,2.5,63.8,3.9c49.1,3.3,98.7,0.4,147.9-0.1c100.1-1.1,200.1-0.1,300.2-1.3c50.1-0.6,100.1-1.8,150.1-3.3
					c45.2-1.4,92.1,2.9,136.6-6.7c45.3-9.8,80.9-37.6,121.7-57.9c20.5-10.2,43.1-17.4,64-26.9c15.2-6.9,29.9-15.7,37-31.5
					c8.6-19,6.9-40.6,6-60.8c-0.7-15.9-9.5-23-22.4-32.7c-32-24.1-79-52.1-120.2-51.3c-6.6,0.1-6.5,10.3,0.1,10.2
					c37.6-0.8,80.2,24.9,110,46.4c8.7,6.2,19.5,13.2,22.2,24.1c2,7.9,1.1,19.6,0.9,27.8c-0.6,25.6-9.3,44.5-32.9,56.4
					c-31.2,15.6-64.2,26-94.8,43.1c-38.5,21.7-73.6,42.4-118.5,47c-41.4,4.3-83.8,1.6-125.3,3c-44.9,1.6-89.7,2.4-134.7,2.9
					c-87.9,1-175.8-0.1-263.8,0.8c-44.4,0.5-88.7,0.7-133.1,1.5c-19.7,0.4-38.9-0.8-58.6-1.3c-17.9-0.6-34.8-3.8-52.8-3.6
					c-45.2,0.6-90.8,3.8-134.8-7.3c-40.3-10.3-78.2-18.4-119.9-18.8c-88.5-0.7-176.6-5.2-265-8.7c-45.5-1.8-91-0.5-136.4,0.4
					c-44.1,0.8-88.3-0.1-132.2,4.8c-46.5,5.1-96.4,4.2-143,0.4c-44.3-3.6-89.2-12-130.2-29c-10.7-4.5-22-7.5-32.4-13
					c-7.6-3.9-14.3-8.7-22.4-11.5c-23.7-8.1-48.3-9.8-60.5-34.7c-11.2-22.9-23.1-59.9,2.4-77.3c16-10.8,41.5-22.2,60.8-23.2
					C958.3,2953.1,958.2,2942.8,951.6,2943.1"/>
			</g>
		</g>
	</g>
	<g>
		<g>
			<g>
				<defs>
					
						<rect id="SVGID_37_" x="401.9" y="2230.9" transform="matrix(0.9999 -1.099668e-02 1.099668e-02 0.9999 -30.8435 21.1755)" width="3016.6" height="1168.9"/>
				</defs>
				<clipPath id="SVGID_38_">
					<use xlink:href="#SVGID_37_"  style="overflow:visible;"/>
				</clipPath>
				<path class="st20" d="M2805.6,2676.1c-3-22.2-7.4-42.6-20.7-61c-15.2-21-36.5-31-60.3-39.6c-86.7-31.3-181.5-42.3-273.3-44
					c-91.6-1.7-182.3,8.3-273.1,17.9c-88.7,9.3-178.4,15.7-263.6-15.8c-25.4-9.3-54.8,11.3-61.3,35.7c-7.4,28.3,10.2,51.8,35.7,61.3
					c157.6,58.1,331.5,7.2,493.6,1.7c80.9-2.8,162.2,0.8,241.5,18.8c19.8,4.5,39.2,9.8,58.5,15.9c6.5,2.1,15.9,3.8,22.1,7.8
					c0.2,0.8,0.3,1.8,0.2,3c-0.6,16.4,4.2,34.1,4.1,50.8c-0.2,21.7-3,42.1-7.9,63.2c-14.5,62.8,82.3,88.4,96.9,25.6
					C2808.7,2770.9,2812,2723.4,2805.6,2676.1"/>
			</g>
		</g>
	</g>
	<g>
		<g>
			<g>
				<defs>
					
						<rect id="SVGID_39_" x="401.9" y="2230.9" transform="matrix(0.9999 -1.099668e-02 1.099668e-02 0.9999 -30.8435 21.1755)" width="3016.6" height="1168.9"/>
				</defs>
				<clipPath id="SVGID_40_">
					<use xlink:href="#SVGID_39_"  style="overflow:visible;"/>
				</clipPath>
				<path class="st21" d="M1754.7,2529.1c-49.1,0.6-48.4,76.9,0.8,76.3C1804.7,2604.9,1803.9,2528.6,1754.7,2529.1"/>
			</g>
		</g>
	</g>
	<g>
		<g>
			<g>
				<defs>
					
						<rect id="SVGID_41_" x="401.9" y="2230.9" transform="matrix(0.9999 -1.099668e-02 1.099668e-02 0.9999 -30.8435 21.1755)" width="3016.6" height="1168.9"/>
				</defs>
				<clipPath id="SVGID_42_">
					<use xlink:href="#SVGID_41_"  style="overflow:visible;"/>
				</clipPath>
				<path class="st22" d="M1683.7,2890.7c-116-19.4-233.2-39.3-351.2-37.3c-56.3,1-111.8,9-167.8,15c-14.9,1.6-30,3-45,4
					c-1.2,0.1-5.7,0-10.1,0c1.1-11.1-1.8-27.1-1.9-36.5c-0.2-14.3-0.4-28.7-0.6-43c-0.8-49.1-77.1-48.4-76.3,0.8
					c0.8,50.2-15.3,137.4,49.4,153.4c28.3,7.1,61.6,0.1,90-3c33-3.6,65.9-8.2,99-11.1c132.8-11.9,264.6,9.4,395.2,31.3
					c20.3,3.5,41.1-5.9,46.7-27.2C1715.7,2918.9,1704.2,2894.2,1683.7,2890.7"/>
			</g>
		</g>
	</g>
</g>
</svg>
