<?xml version="1.0" encoding="utf-8"?>
<!-- Generator: Adobe Illustrator 21.1.0, SVG Export Plug-In . SVG Version: 6.00 Build 0)  -->
<svg version="1.1" id="Layer_1" xmlns="http://www.w3.org/2000/svg" xmlns:xlink="http://www.w3.org/1999/xlink" x="0px" y="0px"
	 viewBox="0 0 541.6 353" style="enable-background:new 0 0 541.6 353;" xml:space="preserve">
<style type="text/css">
	.st0{fill:#231F20;}
</style>
<path class="st0" d="M319.5,322h0.2c-0.1,0.5-0.2,1-0.2,1.5c0.2,0.6,0.4,1.1,0.7,1.7c0.5-0.3,1.4-0.5,1.6-0.9
	c1.5-3.6,3-7.1,4.2-10.8c1.5-4.5,2.7-9,3.9-13.6c0.6-2.3,1-4.6,1.3-6.9c0-0.3-0.5-0.8-0.8-1c-0.3-0.1-0.7,0-0.9,0.3
	c-2,3.7-4,7.3-6,11.1c-0.2,0.5-0.3,1-0.3,1.5c-0.8,3.8-1.6,7.6-2.4,11.4C320.4,318.1,319.9,320.1,319.5,322 M217,198.8
	c0,1.2,0,1.5,0,1.8c0.2,2.7,1.8,3.6,4.1,2.2c2.1-1.3,4.1-2.9,5.9-4.6c6-6,10.3-12.9,9.4-21.9c0-0.2,0-0.3,0-0.5
	c0.2-4.2-0.2-8.4,1-12.5c0.1-0.7,0.1-1.4-0.1-2c-0.1-0.5-0.4-0.8-0.9-1.1c-0.5-0.1-1,0-1.3,0.4c-1.8,2.4-3.5,5-5,7.6
	c-2.3,4.3-4.3,8.7-6.5,13c-2.4,4.8-4.4,9.8-6.1,14.9C217.2,197,217,197.9,217,198.8 M339.3,139.9c-1.6-0.8-3.6-0.4-4.8,0.9
	c-3.5,2.9-6.6,6.3-8.9,10.2c-0.8,1.5-1.8,2.8-2.6,4.3c-4.4,7.4-8.6,14.8-10.6,23.3c-0.4,1.8-1.1,3.5-1.5,5.3c0,0.6,0.3,1.2,0.8,1.7
	c0.4,0.2,0.9,0.2,1.4,0c2.2-1.5,4.7-2.6,5.9-5.3c0.4-0.7,1-1.3,1.7-1.8c1.8-1.2,3.4-2.7,4.6-4.5c1.8-2.6,3.9-5,5.9-7.5
	c2.8-3.2,4.8-6.9,5.9-11c0.6-2.3,1.5-4.4,2.1-6.7C340,145.7,340.6,142.8,339.3,139.9 M410.3,182.8c2.7-2.5,5.7-4,7.5-7.1
	c1-1.6,2.1-3.1,3.3-4.5c2.3-3.1,4.8-6.1,6.8-9.4s2.5-7.6,4.1-11.3c0.1-0.2,0.1-0.3,0.1-0.5c-0.2-2.7-0.1-5.4,0.3-8
	c0.6-4-4.7-8.4-8.9-7.2c-4.7,1.4-8.9,3.8-11.4,7.9c-4.6,7.5-8.6,15.3-8.8,24.4C403.1,173.2,404.7,178.4,410.3,182.8 M360.7,121.7
	c0.7,1.7,1.4,3.4,2.1,5.1c1,2.2,1,4.7,0,6.9c-0.7,1.8-0.8,3.9-1.1,5.9c-0.7,3.5-1.4,6.9-2.1,10.4c-0.3,1.3-0.8,2.6-0.9,3.9
	c-0.6,3.8-1.4,7.6-2.5,11.3c-1,3.9-1.4,8-1.1,12c0.2,1.8,0.1,3.7-0.3,5.5c-0.7,4-0.9,8-0.7,12.1c0.1,2.3-0.2,4.7-0.3,7
	c-0.1,1-0.2,2-0.2,3c0.7,6.1-0.4,12.1-0.3,18.2c0,2.8,0.1,5.7,0.2,8.2c0.8,1,2.3,1.1,3.3,0.2c0.1-0.1,0.2-0.2,0.2-0.2
	c2.1-1.8,4-3.6,6-5.4c3.9-3.4,7.8-7,11.8-10.2c5.9-4.8,12-9.3,16.9-15.2c0.7-0.8,1.3-1.6,1.8-2.2c0.2-2.2-1.3-3.2-2.3-4.5
	c-3.9-4.8-5.4-10.5-5.7-16.4c-0.3-6.4,0.6-12.9,2.5-19c2.8-9,6.2-17.8,13.6-24.4c1.6-1.5,3-3.2,4.7-4.6c3.9-3.5,8.6-6,13.6-7.4
	c7.1-2,13.7-0.4,19.3,4.3c2.7,2.3,3.9,5.5,4.6,8.8c1.5,7,2.2,14,0.2,21c-1.1,3.9-2.2,7.7-4.8,11c-2.3,2.9-4.2,6.1-6.3,9.2
	c-0.7,1.2-1.5,2.2-2.5,3.2c-2.5,2.1-3.2,5-4.1,7.5c0.4,1.1,1.6,1.8,2.8,1.5c4-0.4,8-0.8,12-1.2c6.7-0.8,13.3-2.4,19.5-5
	c5.6-2.2,10.9-5.2,16.5-7.7c4.7-2,9.2-4.2,13.5-6.9c7-4.4,14.1-8.6,20.4-13.9c3.4-2.8,6.4-6,9.5-9c0.8-0.7,1.3-1.5,1.6-2.5
	c0.7-3.4,3.3-5.1,5.9-6.6c2.9-1.8,6.2-1.1,9.2,0.1c0.9,0.5,1.5,1.3,1.9,2.2c0.9,2.4,1.5,4.8,2.1,7.3c0.2,0.6,0.2,1.4,0,2
	c-1.1,2.1-2.3,4.1-3.6,6.1c-0.5,0.9-1.4,1.5-2.4,1.8c-2.2,0.3-3.5,1.9-5.3,2.8c-2.7,1.3-5.1,3.3-7,5.6c-1.1,1.2-2.4,2.3-3.9,3.2
	c-4.5,3.2-9,6.5-13.5,9.7c-0.5,0.4-1.1,0.7-1.8,1c-4.4,1.7-8.1,4.7-12.4,6.7c-1,0.5-1.9,1.3-2.9,1.9c-1.1,0.8-2.3,1.5-3.5,2
	c-4.2,1.3-7.9,3.6-11.9,5.5c-3.3,1.6-6.8,2.8-10.3,4.1c-0.8,0.3-1.7,0.3-2.4,0.7c-4.7,2.3-9.8,3.5-14.8,5
	c-5.4,1.5-10.8,2.4-16.4,2.9c-6.4,0.8-12.8,0.6-19.1-0.7c-2.7-0.5-5.5,0.2-7.5,2.1c-5.7,4.7-11.3,9.6-16.8,14.6
	c-7.8,7-15.7,13.7-23.5,20.7c-3.3,2.9-6.5,5.8-8.9,9.6c-1.2,2-1.9,4.3-2,6.7c-0.2,5.2-0.8,10.4-1.1,15.6c-0.2,2.7-0.3,5.4-0.6,8.1
	c-0.4,3.5-0.9,7-1.6,10.4c-0.7,3.5-1.8,6.8-2.7,10.2c-0.5,1.8-0.9,3.6-1.5,5.3c-1.3,3.8-2.6,7.6-4,11.4c-0.9,2.6-1.7,5.1-2.7,7.6
	c-1.2,3.1-1.7,6.5-4.6,8.8c-1.2,1-1.8,2.8-2.5,4.4c-2.5,5.1-7,8.2-11.5,11.1c-3.3,2.1-8.9,1.2-11.8-1.6c-0.7-0.7-1.1-1.7-1.1-2.6
	c-0.3-6.4-0.5-12.8-0.7-19.2c0-1.2,0.2-2.3,0.5-3.5c1.7-6.9,3.2-13.8,5.1-20.6c0.9-2.9,2-5.7,3.2-8.5c0.5-1.3,1.1-2.5,1.5-3.8
	c2.6-9.4,7.9-17.4,12.9-25.6c1.5-2.5,2.9-4.9,4.4-7.4c1.6-2.6,2.4-5.6,2.3-8.7c0.1-9.3,0.2-18.5,0.3-27.8c0-4.5,0.2-9.1,0.2-13.6
	c-0.1-0.9-0.2-1.7-0.3-2.6c-2,0.2-2.8,1.5-3.8,2.6c-3,3.2-6.1,6.3-9,9.5c-1.4,1.5-3.3,2.4-5.3,2.6c-2.2,0.3-4.3,0.8-6.3,1.6
	c-4.1,1.5-7.9,0.7-11.7-1c-1.2-0.6-2.4-1.3-3.6-1.8c-1.9-0.8-4-0.8-5.8,0.1c-4.6,2-9.4,3.6-14.3,4.8c-4.1,0.9-8.4,0.6-12.6,0.8
	c-0.2,0-0.4,0-0.5-0.1c-4.4-1.7-8.9-3-12.7-6c-2.2-1.6-4-3.7-5.1-6.1c-0.4-0.8-0.8-1.5-1.2-2.2c-1.3-2.3-2.5-2.6-4.4-1.1
	c-1.4,0.9-2.7,2.1-3.8,3.3c-2.5,3.2-6.1,4.7-9.4,6.8c-2.3,1.4-4.8,2.5-7.4,3.2c-3.5,1.2-7.3,1.4-10.9,0.6c-4.5-1.1-6.9-4.2-8.6-7.8
	c-1.5-3.2-2-6.8-1.3-10.3c1.3-6.4,2.9-12.8,4.9-19.1c1.6-5.5,3.8-10.8,6.6-15.8c5-8.8,9.1-18,15.7-25.9c0.9-1,1.4-2.3,2.3-3.3
	c1.2-1.6,2.6-3.1,4-4.5c3-2.7,6-5.4,9.1-8c1.7-1.4,2.9-3.3,3.3-5.5c1.1-6,3.1-11.7,5-17.5s3.6-11.5,5.6-17.3c1-3,2.4-5.9,3.7-8.8
	c1.2-2.6,2.4-5.2,3.7-7.7c2.1-4.1,5.5-7.4,9.6-9.5c3.2-1.7,6.5-1.4,8.9,2.1c2.1,3.2,3.6,6.4,3.5,10.3c-0.1,3.5-0.4,7.1-0.5,10.6
	c-0.1,1.5-0.1,3-0.2,4.5c-0.2,4.7-0.5,9.4-0.8,14.1c0,0.5-0.1,1-0.2,1.5c-2.3,6.6-2.4,13.6-3.7,20.3c-0.6,3-1.4,5.9-2.2,8.8
	c-1.4,4.8-2.9,9.7-4.6,14.5c-2.4,7-4.7,14.1-7.8,20.8c-2,4.4-3.8,9-6,13.3c-1.7,3.2-1.8,7-0.2,10.2c0.9,2,1.9,4,2.6,6
	c0.8,2.3,2.3,4.2,4.4,5.4c4.5,2.7,9.3,3.9,14.4,1.7c2.8-1.2,5.5-2.5,8.3-3.7c1.6-0.6,2.7-2.1,2.9-3.9c0.2-1.3,0.4-2.7,0.4-4
	c0-3,0.6-6.1,1.7-8.9c2.6-7.6,5.2-15.3,8-22.9c1.8-5.1,4-10,6.6-14.7c2-3.7,4.7-7,7.8-9.9c2.3-2,4.3-4.3,6.5-6.4
	c4.1-4.1,9.3-6.8,14.9-7.9c2.6-0.5,5.3-0.7,8-0.9c1.4,0,2.7-0.6,3.6-1.6c2.6-2.9,5.7-3.3,9.2-2C358,120.9,359.3,121.3,360.7,121.7
	 M106.1,226.5c-0.2-0.9-0.5-1.8-0.8-2.7c-1.7-3.9-1.4-7.6-0.1-11.7c2.3-7.2,3.9-14.6,4.7-22.1c0.7-5.3,1.1-10.7,1.1-16.1
	c0-7.1,0.3-14.1,0.9-21.2c0.4-5.2,0.8-10.4,0.8-15.6c0-1.2-0.1-2.4-0.4-3.5c-1.2-5.2-4.9-7.3-9.8-8.1s-9.7,0.3-14.4,1.4
	c-1.1,1.8-1.7,3.8-1.7,5.8c-0.5,7.4-0.9,14.8-1.3,22.2c-0.3,5.7-0.7,11.4-1,17.2c-0.5,10.9-0.9,21.9-1.5,32.8
	c-0.5,9.9-0.6,19.8-0.7,29.8c-0.2,6-0.8,12.1-1.8,18c-0.5,3-0.8,6-0.9,9c0.2,4.3-1.7,8.4-5.2,10.9c-3.2,2.5-7,3.5-12.1,2.6
	c-0.9-1.4-1.9-2.9-2.9-4.4c-0.9-1.6-1.2-3.5-0.8-5.3c0.9-5,2.1-10,2-15c0-7.9,1.7-15.7,1.6-23.6c-0.1-5.7,0.9-11.4,1.3-17.1
	c0.3-3.5,0.3-7.1,0.7-10.6c0.8-7,0.4-14.1,0.4-21.2c0-2.2,0.2-4.4,0.5-6.5c1.3-8.2,0.8-16.5,1.1-24.7c0.1-3.7,0.4-7.4,0.7-11.1
	c0-0.5,0.2-1,0.2-1.5c0.1-3.1-1.3-4.3-4.4-3.4c-0.7,0.2-1.3,0.4-1.9,0.6c-6.3,2.4-12.6,4.9-18.8,7.3c-0.5,0.2-0.9,0.4-1.4,0.6
	c-4.2,2.4-8.4,4.8-12.5,7.4c-3.4,2.2-6.4,5-8.9,8.2c-0.8,1.1-1.4,2.3-1.8,3.6c-2.2,4.9-6.1,6.9-11.3,7c-2.9,0-4.9-1.1-5.8-3.9
	c-0.3-0.9-0.7-1.9-1.2-3c0.3-0.7,0.6-1.5,0.7-2.2c0.1-4.7,3.1-8.1,5.4-11.8c0.7-1,1.5-1.8,2.5-2.4c3.3-2.3,6.7-4.5,10-6.8
	c0.6-0.4,1.1-0.7,1.7-1.1c3.6-2.5,7.5-4.4,11.4-6.5c6.4-3.5,13.3-5.8,19.7-9c4-2.1,8.3-3.7,12.7-4.7c4.2-1,5.6-3.9,5.9-7.2
	c0.3-3.5,1.2-6.9,0.7-10.5c-0.3-2.2,0.3-4.7,0.8-7c0.8-3.3,1.7-6.5,1.6-9.9c0-1-0.1-2.3,0.4-2.9c1.9-2.6,1.8-5.7,2.8-8.6
	c0.7-2.2,1.4-4.5,2.1-6.8c1.1-3.9,2.5-7.7,3.5-11.5c1.8-6.5,4.5-12.7,8.1-18.5c3-4.9,6-9.8,10-14c5.9-6.1,12.4-11.4,20.7-14
	c1.3-0.4,2.5-1,3.7-1.6c7.2-2.9,15.4-0.9,20.6,4.9c4.5,5.3,7.3,11.3,7.3,18.4c0,4.9,0.8,9.8,0,14.6c-0.5,3-0.9,6-1.6,8.9
	c-0.9,4.3-2.1,8.5-3.1,12.8c-1,4.3-2.6,8.4-4.5,12.3c-0.4,0.9-1,1.8-1.7,2.5c-1.5,1.3-2.8,2.9-3.8,4.7c-0.7,1.4-1.8,2.5-3.6,2
	s-3.6-1.5-3.9-3.5c-0.4-2.8-0.9-5.6-0.1-8.5c1.8-5.9,2.8-12.1,3.1-18.3c0-0.8,0.1-1.7,0.2-2.5c1.8-7.1,1.8-14.3,1.7-21.6
	c0-2.9-1-5.7-2.7-8c-1.2-2.1-3.8-3.1-6.1-2.2c-5.4,1.9-10.6,4.3-14.1,9.3c-2.2,3.2-5.3,5.6-7.1,9.1c-2.9,5.5-5.2,11.3-6.9,17.3
	c-0.9,3.4-2.2,6.7-3.1,10.1c-1.1,4.4-2.5,8.7-2.1,13.4c0,1.7-0.2,3.4-0.6,5c-0.8,5-1.7,9.9-2.3,14.9c-0.3,2.7-0.3,5.3-0.1,8
	c0.1,1.4,1.3,2.5,2.7,2.5c0,0,0,0,0,0c2,0.1,4,0,6.1,0.1c2.3,0.1,4.7,0.3,7,0.6c1.7,0.2,3.3,0.7,5,0.8c6.8,0.4,12.1,3.7,16.7,8.4
	c0.7,0.5,1.2,1.2,1.6,2c1.8,5.6,4.5,10.9,3.5,17.1c-0.3,2.7-0.4,5.3-0.3,8c0,1.4,1.5,2,2.6,1c1.4-1.3,2.6-2.6,3.8-4
	c0.6-0.6,0.9-1.5,1.5-2c5.6-5,10.7-10.7,17.3-14.6c2.2-1.3,4.2-2.9,6.3-4.2s4.1-2.8,7-2.5c3.1,0.1,5.9,1.9,7.3,4.7
	c0.3,0.6,0.6,1.2,0.9,1.8c0.8,1.7,2.5,2.9,4.4,3c4.4,0.3,6.5,3.1,7,7.2c0.6,5,1.1,10-0.9,14.9c-1,2.9-1.6,5.9-1.7,8.9
	c-0.6,8.1-2.4,16-3.7,24c-0.4,2.2-0.9,4.3-1.1,6.5c-0.3,1.5-0.4,3-0.1,4.5c0.8,2.8,0.7,5.8-0.5,8.4c-0.3,0.6-0.5,1.3-0.4,2
	c0.4,3.3-1.6,5.8-3,8.4c-0.7,1.4-1.9,2.4-3.4,2.9c-1.4,0.5-2.9,1-4.3,1.4c-4.2,1.3-9.8-1.4-9.8-6.5c-0.2-1-0.2-2-0.2-3
	c1.2-5.8,1.2-11.7,2.9-17.4c0.7-2.6,1.2-5.2,1.5-7.9c1.3-8.8,3.3-17.6,2.4-26.6c-0.3-2.7-0.1-5.4-0.5-8c-0.4-2.6-2.9-4.4-5.5-4
	c-0.8,0.1-1.6,0.5-2.2,1c-2.3,1.9-4.5,4.1-6.5,6.4c-2.5,2.8-4.5,5.9-7,8.6c-2.5,2.9-4.7,6.2-6.4,9.7c-2.7,5.4-5.7,10.7-7.5,16.6
	c-0.5,1.4-0.9,2.9-1,4.4c0,3.2-0.8,6.3-1.3,9.5c-0.3,2.2-0.6,4.3-0.8,6.5c-0.4,5.2-1.2,10.4-2.4,15.4c-0.9,4.4-3.8,6.5-7.9,7.5
	c-1.3,0.3-2.7,0.2-4,0.5c-1.8,0.4-3.3-0.4-4.7-1.4C108.1,227.6,107.1,227,106.1,226.5"/>
</svg>
