<svg xmlns="http://www.w3.org/2000/svg" viewBox="0 0 2361.87 1969.11"><title>frittata</title><path d="M2453.4,964.8c-3.3-7.2-9.8-10-16.3-10.7a154.46,154.46,0,0,0-32.6-.2c-23.6,2.6-47,3.9-70.7.6-24.8-3.4-47.2-11.7-66.4-27.6-8-6.6-14.4-15.2-21.6-22.7-3.4-3.5-8.3-6.1-10.4-10.2-7.3-14-18.1-25.5-27.1-38.3-5.3-7.5-11.8-14.9-11.1-25.3.1-2-1.7-4-2.6-6.1-1.4-3.4-2.9-6.8-4.1-10.2-1.6-4.5-2.4-9.6-4.7-13.7-11.4-19.9-14.1-42-15.8-64.1-.8-10.1-2.5-18.4-12.2-23.3-.4-.2-.4-1.3-.8-2.8,11.7-8.8,23.6-17.8,35.6-26.7,5.5-4.1,9-9.1,8-16.2-.9-6.2-2.3-12.4-3.5-19-5.5-2.1-11.8-3.7-17.4-6.6-18.5-9.4-39-11.4-58.7-11.1-29,.4-58.3,2.8-86.4,12.8-14.8,5.3-30.4,8.1-45.7,11.7-7.3,1.7-15.1,1.7-22,4.2-23.9,8.7-47.5,18.3-71.4,27.1-7.2,2.7-15,3.7-24,5.9-.6-9-3.9-15.6,3.9-20.7,1.6-1,1.9-5.5,1.5-8.2-.9-7.7-.2-14.8,4-21.6,1.2-1.9,1-4.7,1.4-7-3-1.1-5.2-1.9-7.6-2.8,1.8-2.4,2.8-4,3.9-5.5,5.5-7.1,9.1-13.9,5.7-23.8-1.8-5.4-1.1-13.5,1.8-18.4,4.9-8.3,4.1-16.6,3.6-25-.3-5-4.7-10.4-3.6-14.8,2-8.3,3-15.5-2.9-22.4-.7-15.3-1.9-30.7-2.2-46.1-.4-14.4.2-28.7-8.6-41.3-1-1.4-.3-3.7-.6-5.5-.4-2.5-.4-5.3-1.5-7.5-5-10.4-10.5-20.5-23.4-23.4-4.9-1.1-9.3-4.8-14.3-5.9-8.1-1.7-16.4-2.3-24.6-3-4.7-.3-9.5.4-14.3.3-11.2-.1-20.4,5.6-29.2,11.1-11.9,7.3-22.7,16.2-28,30-1.5,3.8-3.6,7.7-6.5,10.4-5.9,5.3-8.7,12.1-10.9,19.3-3.2,10.5-6.8,20.8-9.6,31.3a165.34,165.34,0,0,0-5.1,24c-1.6,13.3-.6,27.3-4.4,39.9a124.79,124.79,0,0,0-5.2,34.1c-.4,13.3-.6,26.7-3.8,39.8-.7,2.9-.4,6-.6,9-1.4,16.4,1.9,33-1.4,49.5a66.82,66.82,0,0,0-.1,23.6c2.2,12.9.4,25.5-.8,38.2-.7,7.5-4.6,10.8-12.1,12.7-5.8,1.4-11.5,3.3-17.2,5-9,2.7-17.9,6-27,8-15,3.3-29.9,6.5-44.5,11.4-9.5,3.2-19.8,4.6-29.8,6.1-4.1.7-9.5,1.8-11.4-4.3-2.6-8.3-5-16.8-7.8-25.1a7.61,7.61,0,0,0-3.8-3.9c-16.3-6.8-32.3-14.8-50.9-12.1-6,.8-12,2.1-17.9,1.9-17.6-.5-34,5.5-50.6,9.8-14.8,3.9-29,9.9-43.3,15.1-4.3,1.6-8.2,5-12.4,5.3-14.4,1-24.9,10.9-37.6,15.8-8.7,3.3-16.2,9.4-26,10-1.7.1-3.5,1.2-5.1,2.1-12.8,6.8-25.6,13.8-38.5,20.4-2,1-4.8.5-7.5.7.7-12.8.8-24.8,2.3-36.6,2.8-21.8,5.9-43.7,10.1-65.4,3.3-16.8,4.4-33.8,9.5-50.4,6.3-20.3,10.3-41.2,17.9-61.2,3-8,5.2-16.3,10.2-23.6,1.4-2,1.8-4.9,2.1-7.5.6-4.7-1.8-7.9-6.1-9.6-12.9-5-26.2-4.9-39.5-2.5-4.3.8-8.4,3.2-12.1,5.6-4.5,3-8.6,6.7-13.3,10.5-.9-2.9-1.8-4.9-2.2-7-1.4-7.9-6.4-12.4-13.6-15a29.86,29.86,0,0,1-4-2c-13.2-6.9-25.8-3.1-36.7,4.4-11.3,7.8-21.6,17.3-28.4,29.8-3.6,6.6-8.2,12.5-7.2,20.7a15.46,15.46,0,0,1-.9,5.5c-6.8,22.1-14.4,44-20.2,66.3-7.4,28.2-13.5,56.8-16.9,85.9-1.7,14.2-3.3,28.3-4.8,42.5-2.1,19.4-4.2,38.8-5.9,58.3-1,10.8-1.2,21.7-1.6,32.6-.4,9.4-3.9,15.8-13.4,19.8-12.1,5-23.3,12-35,17.9-12.7,6.4-25.5,12.6-38.5,18.5-12.3,5.5-25.2,9.9-37.3,15.8-18.7,9.1-38.3,15.5-58.4,20.5-8.8,2.2-18.4.9-26.4,3.4-16,4.9-32.7,7-48.2,14.6-24.2,11.8-50.4,19.5-70.2,39-1.5,1.5-4,2.1-5.8,3.4-9,6.6-18.8,12.4-26.7,20.2-9.1,8.9-15.9,19.9-24.5,29.3-8,8.7-16.2,16.6-21.1,28.3-5.3,12.6-14.4,23.6-22.1,35.1-1.6,2.6-4.3,4.5-6.7,6.9-1.3-5.9-2.5-10.4-3.3-15-1.4-8.1-3.2-16.3-3.5-24.5-.7-18.4-7.3-26.8-24.9-30.2-11.2-2.2-22.2-3.1-32.9,2.2-5.4,2.7-9.7,6.7-9.7,12.9.1,18.4.6,36.7,1.3,55.1.4,9.3,1.7,18.7,2.4,28,.5,6.4.3,12.8,1.2,19.1,1.3,8.8,3.7,17.5,4.8,26.3.8,7,.1,14.1.7,21.1.6,7.9,1.9,15.7,2.8,23.5,1,9.7,2.4,19.4,2.9,29.1.9,16,1.4,32.1,1.6,48.1.1,9.3.3,18.9-1.3,28-2.5,13.7,1.3,25,8.9,34.7,9.6-.9,18.2-2.5,26.7-2.1,20.2.9,37-12.4,39.9-32.8,1.7-12.3,3.3-24.6,5.4-36.8.8-4.7,4.4-9.5,3.8-13.9-1.2-8.5,1.6-16.2,2.8-24.3,1.7-12.2,2.9-24.5,5.4-36.5,2.7-13.2,7-26.1,10.1-39.3,4-17,11.8-32.4,20-47.5a574,574,0,0,1,29.9-50c8.9-13.2,18.7-26.2,30-37.4,10.3-10.2,22.7-18.5,34.9-26.6a243.92,243.92,0,0,1,36.2-20.5c11.2-4.9,23.5-7.9,35.5-10.8,7.1-1.8,10.5,1.3,11.4,8.6,1.3,10.1,3.3,20.1,3.2,30.2-.3,24.4-1.5,48.9-2.5,73.3-.8,21.4-2.4,42.8-2.8,64.2-.3,17.7-.2,35.4,1.2,53a172.58,172.58,0,0,0,7.2,36.4c3.3,10.5,9.6,20.5,22.6,20,15.7-.6,31.4-.4,46.8-5.7a71.31,71.31,0,0,0,34-24.5c5.1-6.5,7.3-14,7.6-21.9s-.6-15.7-.6-23.6c0-9.4.7-18.7.8-28a56.87,56.87,0,0,0-1.2-10c-2.5-13.7-5.4-27.2-7.5-40.9a29,29,0,0,0-27-25c-2.1-.1-4.3-.4-7.3-.7,0-3.1-.1-5.7,0-8.2.8-14.2,2.2-28.3,2.4-42.5.4-20.7.5-41.4-.5-62-.4-7.3,1.5-11.5,7.6-14.4,2.7-1.3,5.5-2.4,8.3-3.5,8.8-3.3,17.8-5.8,26.2-9.9,16.6-8,32.7-17,49.1-25.2,5.8-2.9,12.2-4.8,19.1-7.4,1,3.7,1.8,5.8,1.9,7.9,1,22.2,1.5,44.3,2.9,66.4.9,14.9,3.1,29.7,4.9,44.6,2.9,24.2,5.4,48.4,8.9,72.5,3.5,24.4,6.7,48.9,13,73,4.6,17.8,10.8,35,17,52.3,1.6,4.4,3.9,7.3,8,8.7,7.9,2.6,15.7,8.2,24.2,1.3,1-.9,2.9-.5,4.3-1,8.8-3.2,17.7-6.1,26.3-9.8,6.9-3,10.8-8.7,12.1-16.5,1.5-9-1.1-16.7-5.3-24.1-2.3-4.1-1.8-8.8,1.6-9.5,9-1.9,18.6-3.5,27.6-2.5,10.5,1.1,10.4,2.4,16.6-5.9a35.25,35.25,0,0,0,3.8-7.8c3.3-8.1,0-16.2-.2-24.3-.2-6.9-2-13.8-2.8-20.7-1.1-8.9-2.6-17.9-2.8-26.8-.2-10.5,1-20.9,1.1-31.4,0-3.6-1.7-7.2-2.3-10.8-1.2-6.9-3.5-14-3.1-20.8,1.4-24.3,4.2-48.3,1-73-2.5-19.5-.5-39.5-.7-59.3-.1-9-2.7-18.6-.4-26.9,3.8-14,3.1-28.2,5-42.3.9-6.4,3.5-10.5,8.8-13.4,26.7-14.5,51.9-31.8,79.8-44.2,11.3-5.1,22.6-10.3,33.7-15.7,10-4.9,19.7-10.8,30-14.8,10.8-4.2,22.2-6.8,33.4-10.1,12.2-3.6,24.4-7.1,36.7-10.5a15.5,15.5,0,0,1,4.3-.1c-3.9,3.4-8.1,5-11.7,7.5-2.6,1.8-5.6,4.4-6.6,7.2a125.93,125.93,0,0,0-4.2,18.4c-2,11-3.3,22.2-5.6,33.2-3.2,15.9-6.4,31.8-10.8,47.3-2.9,10.3-7.8,20.2-12,30.1-1.2,2.7-3.5,5-4.4,7.8-1.6,5.2-1.7,10.5-6.5,15-3.7,3.5-4.1,10-6.6,14.9-3.6,7-7.8,13.8-11.6,20.7-8.1,15.1-15.2,30.8-24.4,45.2-12.2,19.2-24.4,38.5-35.1,58.6-3.8,7.2-9.7,13.5-12.5,21-4.2,11.2-7.3,22.8-14.6,32.6-1.9,2.7-4,5.7-4.6,8.9-1.7,9-4.5,17.2-9.9,24.9-5,7.1-3,23.2,4,26.7,6.4,3.2,14.5,4.4,21.7,3.9,11.2-.8,22.3-3.5,33.2-6.1,4.5-1.1,8.6-4,12.9-6.2,2.3-1.2,4.3-2.8,6.7-3.7,13.3-4.9,24.1-12.9,29.6-26.1,7-16.8,16.5-32.6,21.5-50.3.5-1.7,2-3.1,3-4.6,3.2-5,7.9-9.6,9.3-15.1,2.2-8.5,2.4-17.5,9.4-24,.7-.6.9-2.1.8-3.2-.4-6.7,3-12.2,5.4-18.1a112.82,112.82,0,0,0,5.3-17.1c2.1-9.1,5-17.7,11.3-26.2a60.37,60.37,0,0,1,3.3,5.5c3.8,8.9,6.9,18.2,11.2,26.8,7.5,14.7,15.8,28.9,23.5,43.5,13.1,24.9,35.7,35.1,61.6,40.2a13.59,13.59,0,0,0,4.5,0c14.8-2,29.7-3.3,44.3-6.4,12.4-2.6,25.2-5.6,36.3-11.5,13.1-7,26.3-14.6,35.9-26.8,4.3-5.5,9.9-9.8,14.9-14.7l2.4.9c.2,5.3.1,10.7.5,16.1q1.95,27.9,4.3,56c1.2,14.2,2.7,28.4,4.2,42.6.6,5.9,2.8,12,1.9,17.7-2.2,13.3.5,26.3,1.5,39.3,1.1,13.7,8.1,26.6,6.1,40.9,4.2,5.5,3.1,11.7,2.9,18-.1,4.7,0,11,5.7,12.5,7.6,2.1,15.1,4.6,23.8,1.2,7.7-3,16.1-9.5,25.7-1.1.6-6.7-.5-12.8,1.8-16.9,5.1-9,3.2-17.3.9-26.1-3-11.6-5.8-23.2-8.5-34.8-1.7-7.2-.4-14.9-4.6-21.8-1.4-2.3.2-6.5.5-9.8s1.3-6.7,1.1-10c-.6-10.2-1.7-20.3-2.4-30.4-.8-11.6-1.7-23.3-1.9-34.9-.4-17.7-.1-35.3-.3-53-.1-8.9.4-18.1-1.4-26.7a152.62,152.62,0,0,1-3.3-34.4c.4-18.1,3.6-34.6,13-50.2,8.5-14,16-28.6,23.3-43.2,5.2-10.3,9.2-21.2,14-31.8,9.5-21.1,15.8-43.6,28.4-63.2.8-1.3.2-3.6.4-5.4.4-2.6.5-5.3,1.3-7.7,6-19.2,12.9-38.3,18-57.8,1.8-6.7,5-9.3,10.6-11.3,11.3-4,22.5-8.3,33.7-12.6,9.7-3.8,19.5-7.7,29.1-11.8,7.6-3.2,15.1-6.8,22.7-10.1,10.9-4.7,21.4-10.4,32.7-13.7,14.7-4.4,29.3-8.5,43.7-13.8,14-5.2,29.1-7.2,42.9-12.8,11.6-4.7,23.7-2.6,35.3-5.9,3.9-1.1,8.5.5,15.7,1.2-4,4.8-5.9,7.8-8.4,10.1-7.3,6.9-15.5,12.9-22,20.4-12.4,14.1-24,28.8-35.4,43.7-5.5,7.1-9.2,15.4-14.6,22.6-14.2,19-25.2,39.9-37.1,60.3-2.3,3.9-4.8,7.7-6.8,11.7-12.1,24.1-23.6,48.6-36.4,72.4a289.16,289.16,0,0,0-14.4,30.3c-5.5,13.9-12.9,26.9-16.2,41.6-2.4,10.2-5,20.3-7.8,30.4-4.8,16.6-8.3,33.5-7.6,51,.1,2.3-.6,4.5-.6,6.7.3,13.1-.2,26.2,1.2,39.1,1.4,12.5,10.2,21.2,20,31,2.7-7.2,8.2-6.9,14-6.2,2.2.2,4.5-.7,6.7-.9,9.3-.8,18.6-1.3,27.9-2.3a35.58,35.58,0,0,0,10.8-2.6c16.8-7.3,27.3-22.1,38.4-35.4,9.4-11.3,15.2-25.5,23.4-37.9,7.9-11.9,13.5-24.4,18.7-37.7,5.8-15.2,14.6-29.3,19.3-45.2,2.6-9,7.8-17.4,9.3-26.4,3.1-18.4,12.6-34.4,18.2-51.8,2-6.1,4-11.8,4.1-18.3.1-7.6,2.4-14.6,10-20.2,5.8,8.9,11.3,17.3,16.7,25.8,5.2,8.2,9.5,17.2,15.6,24.7,12.8,15.7,25.2,31.9,41.3,44.6,8.5,6.7,16.6,14.1,25.8,19.7,8.9,5.4,19.1,8.6,28.6,13.2,20.2,9.7,42,12.3,63.8,11.5,15.6-.5,31.7.6,46.9-5.1,2-.8,4.5-.1,6.7-.3,12.3-1.1,24.7-1.7,36.3-6.8,5.2-2.2,10.8-3.1,16.1-5.1a110.9,110.9,0,0,0,15.4-6.8C2454.8,973.8,2455.7,969.9,2453.4,964.8ZM1190.3,684c1.4,5.4,3.6,10.9-1.2,14.8-1-.4-2-.7-2.9-1.1C1187.6,693.1,1189,688.5,1190.3,684Zm-11.7,51.8,2.5.3c-.6,8.8-1.1,17.6-1.8,26.4-.8,10.4-2,20.7-2.8,31.1-.7,9.6-1.4,19.2-1.7,28.9-.4,12.9-.7,25.7-.6,38.6,0,10.8-3.9,14.9-17.8,15.1C1158.8,828,1168.2,781.8,1178.6,735.8Zm-2.2,509.8c-3.9-19.9-8.4-39.6-12.4-59.4-1.4-6.6-3.1-13.6-2.1-20,2.4-14.5-1.2-28.5-1.8-42.7-.2-5.1-2.8-10-4.3-15-.9-3.2-2.8-6.3-2.9-9.6-.6-14.6-.5-29.1-.9-43.7-.2-8.1-1.5-16.3-1.6-24.4-.1-17.5.2-35.1.5-52.7,0-3,.7-6,.8-9,.4-14,4.2-18.8,20-23.3.3,5.1.7,9.1.6,13.1-.1,15.8-.8,31.5-.6,47.3.3,16.9,1.6,33.7,2.1,50.6.2,5.5-.8,11.1-.9,16.7a57.72,57.72,0,0,0,1,11c1.6,8.4,2.6,16.6,1.7,25.4-1.2,11.8.3,23.9,1.3,35.8,1.5,18.3,4.1,36.6,5.1,54.9s1.2,36.8,10.5,53.5C1182.2,1258.1,1178.4,1255.6,1176.4,1245.6Zm36.8-634c-.8-.4-1.5-.7-2.3-1.1,1.7-3.6,3.3-7.2,4.9-10.8,1,.5,2,.9,3,1.4C1216.9,604.6,1215.1,608.1,1213.2,611.6Zm472.5,392.9c-12,15.8-22.9,32.9-39.6,45-10.8,7.9-20.7,17.1-31.5,25-5.1,3.7-11.2,7.7-17.1,8.1-7,.5-15.6-.8-21-4.7-6.8-4.9-16.3-8.8-17.7-19.2,0-.3-.4-.6-.7-.8-10.2-9.6-12.9-23.2-18.9-35.1-8.2-16.5-12.8-34.1-17.5-51.6-2.4-9-3.5-18.4-5.3-27.6-1.9-9.9-5.2-19.8-5.5-29.7-.7-23,3.7-45,15.5-65.3,3.2-5.5,7.2-6.6,12.9-6.6,18.4.1,36.8.7,55.1-.7,10.7-.8,21.1-4.8,31.6-7.5,6.5-1.6,13.1-3.2,19.5-5.2,5.3-1.6,10.4-3.9,15.6-5.9a36.94,36.94,0,0,1,4.2-1.7c8.2-1.8,16.5-3.4,26-5.4,0,11.6-2.1,23.1.3,33.4,4.3,17.4,2.4,34.9,3.2,52.3.7,14.4,2.4,28.9-1.2,43.5-1.4,5.5.4,11.8,1,17.8a68.55,68.55,0,0,0,1.4,8.9C1698.4,984.3,1692.7,995.2,1685.7,1004.5Zm98.1-200.8c-2.2,7.1-3.9,14.4-6.6,21.4s-6.2,13.5-9.2,20.3c-2.8,6.4-5.4,13-8.1,19.5l-2.8-.6c-.6-1.8-1.5-3.5-1.7-5.1-1-11.9-2.4-23.7-2.6-35.6-.1-8.6,1.3-17.2,2.2-25.8.2-1.3,1-3.3,2.1-3.8,10.3-5.1,20.6-10.1,33.8-12.9C1788.2,789.8,1786,796.8,1783.8,803.7Zm47.1-279.5c-.4,18.4-.2,36.7-.6,55.1-.1,5.2-1.5,10.3-2,15.5-3.3,33.2-7.3,66.4-16,98.8a55.36,55.36,0,0,0-1.1,5.6c-3.3,17.7-12.2,25-30.6,25.8-2,0-4,1.4-5.9,2.5-9.3,5.3-14,6.4-22.8,4.9,5.4-10.4,5.2-21.5,5.2-32.7,0-1.5.3-3.1-.1-4.5-5-19.8-.4-39.1,2.7-58.5,1.1-6.9.2-14.1.4-21.1.2-6.3.7-12.5,1-18.7.6-11.2.6-22.4,1.7-33.6.6-6.2,3.2-12.2,4.5-18.4,4-19.4,7.6-39,12-58.3a105.24,105.24,0,0,1,8.5-22.9c5.1-10.3,7.6-22,16-30.6,2.9-2.9,5.8-5.7,9.1-8.8,8.8,9.1,11,20.1,12.4,30.6C1828.4,477.9,1831.4,500.9,1830.9,524.2ZM2097,783.9c-6,23.9-11.8,47.8-18.2,71.6q-7.2,26.4-15.7,52.5c-3.7,11.4-8.4,22.5-12.8,33.6-4,10.2-8,20.3-12.4,30.2-6,13.7-11.9,27.5-18.6,40.9-7.5,15.1-15.8,29.7-23.7,44.6-4.4,8.3-9.2,16.3-18.1,21.8-.9-2-2.4-3.6-2.3-5.2.5-11.6-2.1-23.3,2.1-34.7,1.6-4.2,3-9,2.4-13.2-1.8-12.5,2.3-23.6,6.5-34.8,3.7-9.7,7.8-19.2,11.5-28.9,3.9-10.1,7.4-20.3,11.2-30.4,2.1-5.6,4.5-11.1,6.6-16.7,1.9-5.2,3.1-10.7,5.4-15.7,3.2-7.1,7.4-13.7,10.9-20.7,3.3-6.7,6.3-13.5,9.6-20.2,1.2-2.3,2.6-4.5,4-6.7.8-1.2,2.9-2.7,2.7-3.3-4.1-9.3,4.6-10.8,8.9-15,2.6-2.6,5.8-4.9,3.1-9.6-.8-1.5-.2-4.6.9-6.1,4.2-6.1,8.9-12,13.5-17.8,1.3-1.7,4.5-2.9,4.6-4.6.8-10.4,9.2-12.7,17.7-17.3C2097,781.1,2097.5,782.7,2097,783.9ZM587,1028.8c11.7-5.7,20.7-14.8,30-23.5,17.8-16.7,35.8-33.3,53.5-50.1,4.9-4.7,8.9-10.2,13.7-15,5.8-5.8,12.5-10.7,18-16.7,17.9-19.7,35.1-39.9,53.5-59.1,12.3-12.9,23.1-27.4,34.1-41.5,8-10.3,15.2-21.2,22.7-31.9,8.3-12,16.9-23.9,24.8-36.3,11.7-18.3,23.1-36.9,34.1-55.6,8.5-14.5,16.2-29.4,24.4-44.1,3.5-6.2,8.1-11.8,10.9-18.3,4.9-11.3,8.7-23,13.2-34.5,1.2-3.1,3.4-5.9,4.7-9,7.8-18.8,15.5-37.5,23-56.3,3.6-9,6.3-18.4,10.4-27.2,6.3-13.2,13.1-26,14.5-41,.3-3.2,2.6-6.1,3.6-9.3,3.9-12.6,14.2-23.4,10.2-38.2-.4-1.5,1-3.5,1.7-5.2,5-12.5,8.9-25.3,13.4-37.9,7.2-19.9,3.3-40.9,8.7-60.7a6.93,6.93,0,0,0-.2-4.5c-4.2-9-1.1-17.7,1.1-26.4a34.46,34.46,0,0,0,1.3-7.7c-.1-7.9-.4-15.7-1-23.6-1.1-13.9-.4-28.3-4-41.5-7.2-26.2-14.1-53-33.5-73.9-4-4.3-8.5-8.4-11.2-13.5-6.6-12.7-16.3-19.9-30.7-20.8-1.7-.1-4.3-.7-5-1.9-4.4-7.9-12.3-9.1-19.5-9a399.53,399.53,0,0,0-43.7,3.2c-13.4,1.6-26.7,4.2-40,6.5a75,75,0,0,0-14.1,3.7c-7.3,3-14,8.5-21.4,9.5-11.6,1.6-21.6,7.1-31.1,12.2-19.4,10.4-37,23.9-55.6,35.8-19.2,12.2-34.5,29-51.2,44-13.4,12-24.9,26.1-37.4,39.1-11.1,11.6-22.8,22.5-31,36.5a50.31,50.31,0,0,1-3.5,4.3c-5.1,6.4-9.9,13-15.3,19.2-5.8,6.7-8.4,17.2-20.4,17.1-3.6,0-6.1,4.1-4.2,7.7,3.2,6.1-.3,10.1-3.3,14.4-8.9,12.7-18,25.3-27,38-.8,1.1-1.5,2.6-2.7,3.2-11.7,6.2-15.4,18.4-20,29-5.7,13.1-13.2,25.1-19.8,37.7-6.3,12-15.4,23.4-11.4,39.2-8.2,1.6-11,8.1-12.9,15.1-3.3,12.6-11.1,23.2-14.9,35.9-7.2,24.3-17.2,47.9-25.9,71.8-.7,2.1-.4,4.5-.8,6.7-1.3,7-1.4,14.6-4.2,20.9-4.2,9.2-7.9,18.3-9.5,28.3-1.2,7.8-5.1,15.2-5.8,22.9-.8,8.1-1.9,15.7-5.5,23a8.8,8.8,0,0,0-.5,3.3c-1.2,11.8-2.3,23.6-11.1,32.9-1.1,1.2-.8,3.6-1.2,5.4-.9,4.4-1.8,8.8-2.6,13.2-.5,2.5-1.4,5.2-.9,7.6,2.8,13.1-.1,25.1-6.7,36.5a15.13,15.13,0,0,0-1.6,6.4c-.9,11.4-1.7,22.9-2.3,34.3-.3,5.4-.2,10.9-.4,16.4-.1,5.3.1,10.6-.7,15.8-2.4,15.7-1.5,31.8-4.3,47.6-1,5.7-4.8,10.1-4.9,15.5-.2,9.3-.2,18.8,1.4,28,2.2,12.8,1.2,25.2-1,37.8a189.22,189.22,0,0,0-2.8,21.2c-.8,13.5-1,27.1-1.3,40.6-.2,8.3-.3,16.6,7.3,22.5,1.1.9.9,3.2,1.5,5.3-3.7,1.1-6.7,2-9.5,2.9-1.9,17.5-6.1,21.6-23.1,24.4-8.1,1.3-16.1,3.8-24.2,5-7.7,1.2-15.6,1.4-23.4,2-2.2.1-4.5-.2-6.7.2-23.1,3.8-44.7-1.2-65.4-11.3-6.3-3.1-13.9-5.6-18.1-10.7-9.9-12-17.5-25.6-13.5-42.5.7-2.9,1.6-6.1,1-8.9-2.3-10.6.5-19.9,5.8-28.9,1.3-2.1,1.4-4.8,2-7-4.4-2.2-8.1-3.8-11.6-5.8-8.3-4.8-16.8-4.3-22.1,3.3-6.3,9-14.3,15.7-23.5,21.4-2,1.2-3.4,4-4.3,6.3-2.9,8-5.2,16.3-8.2,24.3-5.4,14.8-8.4,29.5.5,44.1.8,1.2.3,3.1.9,4.4,1.6,3.7,2.8,7.9,5.3,10.9,5.8,6.9,12.2,13.3,18.5,19.8a23.53,23.53,0,0,0,6.1,4.8c16.6,7.7,32,18,51,20,15.7,1.6,30.3,9.7,46.9,7.8,11-1.3,22.4-.1,33.6,0a34.69,34.69,0,0,0,4.5-.6c9-1,18-1.8,26.9-2.9,6-.8,11.9-1.6,17.7-2.9,7.5-1.6,14.7-1.7,19.2.2,4.5,8.6,7.7,14.9,11.2,21.6-8.7,7-7.5,17.6-7.3,27.7.3,16.1,2.3,32.4.8,48.4-1.3,14.4,2.1,28.1,2.2,42.2.1,17.2,6.5,33.8,5.1,51.4-.8,9.5,2.1,19.3,2.9,29.1a21.25,21.25,0,0,0,5.2,13.2c2.6,3.1,5.6,9.7,4.1,11.9-5.8,8.8-2.5,15.5,3.2,22.4-7.3,7.8-9.1,15.7-3.2,24.8,1.5,2.2,1.3,5.8,1.1,8.7-.4,6.4-2.5,12.9-1.5,19a154.39,154.39,0,0,1,2.6,26.4c0,19.2,4.8,38.1,10.9,56a91.2,91.2,0,0,1,4.6,27.1c.2,7.7,2.5,15.4,2.7,23.2a194.63,194.63,0,0,0,6.9,46.8,64.8,64.8,0,0,1,1.9,14.5c.2,8,1.2,15.6,4.7,23,2.2,4.6,2.9,10.1,3.7,15.2,2.8,17.4,5,34.8,8.3,52.1,1.5,7.6,8.4,14.2,4.3,23-.4.9,1.2,2.7,1.5,4.1,3.6,15.7,8.7,31.2,10.2,47.1.9,9.5,3.4,18.3,5.4,27.3,2.3,10.1,6.3,19.5,6.9,30.3a207.19,207.19,0,0,0,12.5,59.1c1.4,3.8,2,8,3.1,12,4,14.8,7.7,29.7,12.2,44.4s14.8,21.5,30.3,21.6c18.1.1,26.1-4.7,32.4-21.8a38.43,38.43,0,0,0,2.6-9.8c1.5-15.3,3.4-30.6,3.7-46,.4-15.7-1-31.5-1.8-47.1-.9-17.6-.8-35.3-3.4-52.9-2.1-14.4-1.9-29.1-2.8-43.7-.8-12-1.5-24-2.7-35.9-1.1-10.1-2.7-20.1-4.1-30.2-1.8-13.4-3.3-26.8-5.7-40.1-2.7-14.7-6.3-29.3-9.5-44-4.7-21.6-8.8-43.3-14.1-64.7-3.2-13.3-5-27-11.2-39.6-1.7-3.5-1.2-8.1-1.6-12.2-.2-2.6.2-5.3-.5-7.8-5.7-19.2-9-39.1-18.1-57.3-3.3-6.5-15.2-14.2-21.8-11.9-7.7,2.8-13.8-.4-20.8-3.1-.4-14.6-.9-28-1.2-41.2-.1-4,.7-8.1.7-12.1,0-3.2.1-6.9-1.3-9.6-3.8-7.1-3.8-14.2-2.7-21.9.7-5-.2-10.3-.8-15.4-.2-2.1-2-4.1-2.1-6.2-.4-13.5-.9-27-.5-40.5.2-7.8,1.8-15.6-3-22.8-.9-1.4-.4-3.6-.5-5.5-.2-7.1-.7-14.3-.4-21.4.5-12.2-2.4-24.6,2.4-36.5,1.6-3.9,2.1-8.2-2.6-11a3.56,3.56,0,0,1-1.4-2.9c1-14.5-4.3-28.7-1.6-43.4,1.5-7.6,3.2-16.3,1.1-23.4-2.9-9.9,1.7-14.2,8.4-18.2,9.3-5.5,19-10.5,28.6-15.6,6.2-3.3,12.8-6.1,19-9.6,21-11.6,41.3-24.4,59.7-39.9,6-5.1,12.2-9.9,18-15.3,18.8-17.5,42.8-29.4,57.7-51.4A9.72,9.72,0,0,1,587,1028.8ZM449.6,1763c4.9,13.1,4.9,13.1,0,19.1Zm-2.7-13.1c.2-.1.5-.1.7-.2.4,1.4.7,2.8,1.1,4.2-.6.1-1.2.1-1.8.2h0ZM548.6,986.6c-10.9,9.7-22.4,18.6-33.5,28-6.9,5.8-13,12.5-20.2,17.8-19.6,14.6-39.3,29-59.4,42.8-10.5,7.2-21.7,13.3-32.8,19.5-2,1.2-4.9.9-9,1.5.5-8.1.7-15.1,1.7-22.3.9-10.1,2.3-20.1,3.3-30.2,1.5-16.4,2.9-32.9,4.3-49.3,1.6-19.5,3-38.9,4.8-58.4,1-10.1,2.5-20.1,3.9-30.2.2-1.5.8-2.9.9-4.4,1-13.4,2-26.8,3.1-40.2.2-2.3.5-4.5.9-6.7,3-18.1,5.6-36.3,9.1-54.3,5.6-29.1,12.2-58,17.5-87.2,4.8-26.3,14.1-51.3,20.2-77.2a548.16,548.16,0,0,1,26.1-80.2c7.8-19,15.7-38.1,22.8-57.3,7.7-20.6,18.6-39.3,28.2-58.7,5-10.1,9.4-20.6,15.3-30.1,14.5-23.3,29.8-46.1,44.6-69.1,3.8-6,7.1-12.3,11-18.3,3.3-5,7.1-9.7,10.7-14.5,1.6-2.1,3.8-3.8,5.1-6,9.2-15.8,22.4-28.2,35-41.1,12.3-12.6,24.2-25.7,36.9-38,8-7.8,17.2-14.5,25.8-21.8,9.7-8.1,20.1-15.8,29-24.8,9.4-9.5,21.2-13.8,33.1-18.4,1.8-.7,3.7-.9,5.3-1.9,17.6-10.9,37.6-14.6,57.3-19.2,8.3-1.9,16.5-4.6,25-5.7,12.6-1.5,24.7,1.6,36.3,6.4,17.9,7.3,34.3,17,45.4,33.6,2,3,4.2,6.7,4.4,10.2,1.1,20.3,9.5,39.6,7,60.5-1.4,11.8.1,24-.5,35.9-.3,5.9-2.5,11.6-3.8,17.4-.4,1.8-1.3,3.7-1.1,5.4,1.5,10.7-3,19.9-6.4,29.4-.8,2.5-2.3,5-2.2,7.5.3,8.4-4.3,14.8-8.1,21.7a36.73,36.73,0,0,0-3.3,9.3c-1.7,7-2.5,14.1-4.9,20.8-2.8,7.9-5.9,15.4-5.2,24,.1,2-1.3,4.2-2.1,6.2-1.3,3.1-3.2,6.1-3.8,9.3-3.7,20.4-11.6,39.4-19.1,58.5-4.4,11.1-7.5,22.6-11.9,33.6-2.2,5.5-7.1,10.1-8.7,15.7-6.1,21.1-18.7,39.1-27.3,59-6.7,15.6-16.2,30.2-25,45-10.6,17.7-21.6,35.1-32.4,52.7-5.4,8.8-10.3,18-16,26.7q-14.85,22.35-30.3,44.3c-22.5,32-47.3,62.3-73.3,91.4-7.5,8.4-13.4,19.3-25.3,23.2a4.16,4.16,0,0,0-2.1,2.4c-3.6,10.1-12.8,15.2-20,22.1-3.5,3.3-6.6,7.1-10.1,10.4-17,16.4-34.2,32.6-51.2,49C565.2,970.3,557.3,978.9,548.6,986.6Zm464.1-209.4a23.84,23.84,0,0,1,23.6,24.5c-.1,5-2.7,8.2-6.9,9.1-6.9,1.6-14.1,3.3-21,2.8-6.4-.5-12.7-3.8-18.9-6.2-5.1-1.9-10.1-4.4-15.7-7-.7-6-1-11.8,7.2-13.5C989.3,776,1001,777,1012.7,777.2Z" transform="translate(-92.75 -94.59)" fill="#231f20"/></svg>