<?xml version="1.0" encoding="utf-8"?>
<!-- Generator: Adobe Illustrator 21.1.0, SVG Export Plug-In . SVG Version: 6.00 Build 0)  -->
<svg version="1.1" id="Layer_1" xmlns="http://www.w3.org/2000/svg" xmlns:xlink="http://www.w3.org/1999/xlink" x="0px" y="0px"
	 viewBox="0 0 4300.2 2147.3" style="enable-background:new 0 0 4300.2 2147.3;" xml:space="preserve">
<style type="text/css">
	.st0{fill:#FFFFFF;}
	.st1{clip-path:url(#SVGID_2_);fill:#231F20;}
	.st2{clip-path:url(#SVGID_2_);fill:#FFFFFF;}
</style>
<polygon class="st0" points="-280.7,-288.3 -280.2,-288.2 -280.2,-288.9 -280.6,-288.9 "/>
<g>
	<defs>
		<rect id="SVGID_1_" x="93" y="94.4" width="2361.6" height="1969.3"/>
	</defs>
	<clipPath id="SVGID_2_">
		<use xlink:href="#SVGID_1_"  style="overflow:visible;"/>
	</clipPath>
	<path class="st1" d="M1218.8,601.1c-1-0.5-2-0.9-3-1.4c-1.6,3.6-3.2,7.2-4.9,10.8c0.8,0.4,1.5,0.7,2.3,1.1
		C1215.1,608.1,1216.9,604.6,1218.8,601.1 M1186.2,697.7c0.9,0.4,1.9,0.7,2.9,1.1c4.8-3.9,2.6-9.4,1.2-14.8
		C1189,688.5,1187.6,693.1,1186.2,697.7 M1156.4,876.2c13.9-0.2,17.8-4.3,17.8-15.1c-0.1-12.9,0.2-25.7,0.6-38.6
		c0.3-9.7,1-19.3,1.7-28.9c0.8-10.4,2-20.7,2.8-31.1c0.7-8.8,1.2-17.6,1.8-26.4c-0.8-0.1-1.6-0.2-2.5-0.3
		C1168.2,781.8,1158.8,828,1156.4,876.2 M1757.1,864.3c0.9,0.2,1.9,0.4,2.8,0.6c2.7-6.5,5.3-13.1,8.1-19.5c3-6.8,6.6-13.4,9.2-20.3
		c2.7-7,4.4-14.3,6.6-21.4c2.2-6.9,4.4-13.9,7.1-22.6c-13.2,2.8-23.5,7.8-33.8,12.9c-1.1,0.5-1.9,2.5-2.1,3.8
		c-0.9,8.6-2.3,17.2-2.2,25.8c0.2,11.9,1.6,23.7,2.6,35.6C1755.6,860.8,1756.5,862.5,1757.1,864.3 M1171.7,945.8
		c-15.8,4.5-19.6,9.3-20,23.3c-0.1,3-0.8,6-0.8,9c-0.3,17.6-0.6,35.2-0.5,52.7c0.1,8.1,1.4,16.3,1.6,24.4
		c0.4,14.6,0.3,29.1,0.9,43.7c0.1,3.3,2,6.4,2.9,9.6c1.5,5,4.1,9.9,4.3,15c0.6,14.2,4.2,28.2,1.8,42.7c-1,6.4,0.7,13.4,2.1,20
		c4,19.8,8.5,39.5,12.4,59.4c2,10,5.8,12.5,16.1,8.5c-9.3-16.7-9.5-35.1-10.5-53.5c-1-18.3-3.6-36.6-5.1-54.9
		c-1-11.9-2.5-24-1.3-35.8c0.9-8.8-0.1-17-1.7-25.4c-0.7-3.6-1-7.3-1-11c0.1-5.6,1.1-11.2,0.9-16.7c-0.5-16.9-1.8-33.7-2.1-50.6
		c-0.2-15.8,0.5-31.5,0.6-47.3C1172.4,954.9,1172,950.9,1171.7,945.8 M2096.8,778.2c-8.5,4.6-16.9,6.9-17.7,17.3
		c-0.1,1.7-3.3,2.9-4.6,4.6c-4.6,5.8-9.3,11.7-13.5,17.8c-1.1,1.5-1.7,4.6-0.9,6.1c2.7,4.7-0.5,7-3.1,9.6c-4.3,4.2-13,5.7-8.9,15
		c0.2,0.6-1.9,2.1-2.7,3.3c-1.4,2.2-2.8,4.4-4,6.7c-3.3,6.7-6.3,13.5-9.6,20.2c-3.5,7-7.7,13.6-10.9,20.7c-2.3,5-3.5,10.5-5.4,15.7
		c-2.1,5.6-4.5,11.1-6.6,16.7c-3.8,10.1-7.3,20.3-11.2,30.4c-3.7,9.7-7.8,19.2-11.5,28.9c-4.2,11.2-8.3,22.3-6.5,34.8
		c0.6,4.2-0.8,9-2.4,13.2c-4.2,11.4-1.6,23.1-2.1,34.7c-0.1,1.6,1.4,3.2,2.3,5.2c8.9-5.5,13.7-13.5,18.1-21.8
		c7.9-14.9,16.2-29.5,23.7-44.6c6.7-13.4,12.6-27.2,18.6-40.9c4.4-9.9,8.4-20,12.4-30.2c4.4-11.1,9.1-22.2,12.8-33.6
		c5.7-17.4,10.9-34.9,15.7-52.5c6.4-23.8,12.2-47.7,18.2-71.6C2097.5,782.7,2097,781.1,2096.8,778.2 M1812.9,424.3
		c-3.3,3.1-6.2,5.9-9.1,8.8c-8.4,8.6-10.9,20.3-16,30.6c-3.6,7.3-6.7,15-8.5,22.9c-4.4,19.3-8,38.9-12,58.3
		c-1.3,6.2-3.9,12.2-4.5,18.4c-1.1,11.2-1.1,22.4-1.7,33.6c-0.3,6.2-0.8,12.4-1,18.7c-0.2,7,0.7,14.2-0.4,21.1
		c-3.1,19.4-7.7,38.7-2.7,58.5c0.4,1.4,0.1,3,0.1,4.5c0,11.2,0.2,22.3-5.2,32.7c8.8,1.5,13.5,0.4,22.8-4.9c1.9-1.1,3.9-2.5,5.9-2.5
		c18.4-0.8,27.3-8.1,30.6-25.8c0.3-1.9,0.6-3.7,1.1-5.6c8.7-32.4,12.7-65.6,16-98.8c0.5-5.2,1.9-10.3,2-15.5
		c0.4-18.4,0.2-36.7,0.6-55.1c0.5-23.3-2.5-46.3-5.6-69.3C1823.9,444.4,1821.7,433.4,1812.9,424.3 M1691.3,815.6
		c-9.5,2-17.8,3.6-26,5.4c-1.4,0.3-2.8,1.2-4.2,1.7c-5.2,2-10.3,4.3-15.6,5.9c-6.4,2-13,3.6-19.5,5.2c-10.5,2.7-20.9,6.7-31.6,7.5
		c-18.3,1.4-36.7,0.8-55.1,0.7c-5.7,0-9.7,1.1-12.9,6.6c-11.8,20.3-16.2,42.3-15.5,65.3c0.3,9.9,3.6,19.8,5.5,29.7
		c1.8,9.2,2.9,18.6,5.3,27.6c4.7,17.5,9.3,35.1,17.5,51.6c6,11.9,8.7,25.5,18.9,35.1c0.3,0.2,0.7,0.5,0.7,0.8
		c1.4,10.4,10.9,14.3,17.7,19.2c5.4,3.9,14,5.2,21,4.7c5.9-0.4,12-4.4,17.1-8.1c10.8-7.9,20.7-17.1,31.5-25
		c16.7-12.1,27.6-29.2,39.6-45c7-9.3,12.7-20.2,10.3-33c-0.6-3-1.2-5.9-1.4-8.9c-0.6-6-2.4-12.3-1-17.8c3.6-14.6,1.9-29.1,1.2-43.5
		c-0.8-17.4,1.1-34.9-3.2-52.3C1689.2,838.7,1691.3,827.2,1691.3,815.6 M1871.5,692.3c9-2.2,16.8-3.2,24-5.9
		c23.9-8.8,47.5-18.4,71.4-27.1c6.9-2.5,14.7-2.5,22-4.2c15.3-3.6,30.9-6.4,45.7-11.7c28.1-10,57.4-12.4,86.4-12.8
		c19.7-0.3,40.2,1.7,58.7,11.1c5.6,2.9,11.9,4.5,17.4,6.6c1.2,6.6,2.6,12.8,3.5,19c1,7.1-2.5,12.1-8,16.2
		c-12,8.9-23.9,17.9-35.6,26.7c0.4,1.5,0.4,2.6,0.8,2.8c9.7,4.9,11.4,13.2,12.2,23.3c1.7,22.1,4.4,44.2,15.8,64.1
		c2.3,4.1,3.1,9.2,4.7,13.7c1.2,3.4,2.7,6.8,4.1,10.2c0.9,2.1,2.7,4.1,2.6,6.1c-0.7,10.4,5.8,17.8,11.1,25.3
		c9,12.8,19.8,24.3,27.1,38.3c2.1,4.1,7,6.7,10.4,10.2c7.2,7.5,13.6,16.1,21.6,22.7c19.2,15.9,41.6,24.2,66.4,27.6
		c23.7,3.3,47.1,2,70.7-0.6c10.8-1.2,21.8-0.9,32.6,0.2c6.5,0.7,13,3.5,16.3,10.7c2.3,5.1,1.4,9-3.2,11.5
		c-4.9,2.7-10.2,4.9-15.4,6.8c-5.3,2-10.9,2.9-16.1,5.1c-11.6,5.1-24,5.7-36.3,6.8c-2.2,0.2-4.7-0.5-6.7,0.3
		c-15.2,5.7-31.3,4.6-46.9,5.1c-21.8,0.8-43.6-1.8-63.8-11.5c-9.5-4.6-19.7-7.8-28.6-13.2c-9.2-5.6-17.3-13-25.8-19.7
		c-16.1-12.7-28.5-28.9-41.3-44.6c-6.1-7.5-10.4-16.5-15.6-24.7c-5.4-8.5-10.9-16.9-16.7-25.8c-7.6,5.6-9.9,12.6-10,20.2
		c-0.1,6.5-2.1,12.2-4.1,18.3c-5.6,17.4-15.1,33.4-18.2,51.8c-1.5,9-6.7,17.4-9.3,26.4c-4.7,15.9-13.5,30-19.3,45.2
		c-5.2,13.3-10.8,25.8-18.7,37.7c-8.2,12.4-14,26.6-23.4,37.9c-11.1,13.3-21.6,28.1-38.4,35.4c-3.3,1.5-7.1,2.2-10.8,2.6
		c-9.3,1-18.6,1.5-27.9,2.3c-2.2,0.2-4.5,1.1-6.7,0.9c-5.8-0.7-11.3-1-14,6.2c-9.8-9.8-18.6-18.5-20-31c-1.4-12.9-0.9-26-1.2-39.1
		c0-2.2,0.7-4.4,0.6-6.7c-0.7-17.5,2.8-34.4,7.6-51c2.8-10.1,5.4-20.2,7.8-30.4c3.3-14.7,10.7-27.7,16.2-41.6
		c4.1-10.5,9.1-20.3,14.4-30.3c12.8-23.8,24.3-48.3,36.4-72.4c2-4,4.5-7.8,6.8-11.7c11.9-20.4,22.9-41.3,37.1-60.3
		c5.4-7.2,9.1-15.5,14.6-22.6c11.4-14.9,23-29.6,35.4-43.7c6.5-7.5,14.7-13.5,22-20.4c2.5-2.3,4.4-5.3,8.4-10.1
		c-7.2-0.7-11.8-2.3-15.7-1.2c-11.6,3.3-23.7,1.2-35.3,5.9c-13.8,5.6-28.9,7.6-42.9,12.8c-14.4,5.3-29,9.4-43.7,13.8
		c-11.3,3.3-21.8,9-32.7,13.7c-7.6,3.3-15.1,6.9-22.7,10.1c-9.6,4.1-19.4,8-29.1,11.8c-11.2,4.3-22.4,8.6-33.7,12.6
		c-5.6,2-8.8,4.6-10.6,11.3c-5.1,19.5-12,38.6-18,57.8c-0.8,2.4-0.9,5.1-1.3,7.7c-0.2,1.8,0.4,4.1-0.4,5.4
		c-12.6,19.6-18.9,42.1-28.4,63.2c-4.8,10.6-8.8,21.5-14,31.8c-7.3,14.6-14.8,29.2-23.3,43.2c-9.4,15.6-12.6,32.1-13,50.2
		c-0.2,11.8,0.9,22.9,3.3,34.4c1.8,8.6,1.3,17.8,1.4,26.7c0.2,17.7-0.1,35.3,0.3,53c0.2,11.6,1.1,23.3,1.9,34.9
		c0.7,10.1,1.8,20.2,2.4,30.4c0.2,3.3-0.7,6.7-1.1,10c-0.3,3.3-1.9,7.5-0.5,9.8c4.2,6.9,2.9,14.6,4.6,21.8
		c2.7,11.6,5.5,23.2,8.5,34.8c2.3,8.8,4.2,17.1-0.9,26.1c-2.3,4.1-1.2,10.2-1.8,16.9c-9.6-8.4-18-1.9-25.7,1.1
		c-8.7,3.4-16.2,0.9-23.8-1.2c-5.7-1.5-5.8-7.8-5.7-12.5c0.2-6.3,1.3-12.5-2.9-18c2-14.3-5-27.2-6.1-40.9c-1-13-3.7-26-1.5-39.3
		c0.9-5.7-1.3-11.8-1.9-17.7c-1.5-14.2-3-28.4-4.2-42.6c-1.6-18.7-3-37.4-4.3-56c-0.4-5.4-0.3-10.8-0.5-16.1
		c-0.8-0.3-1.6-0.6-2.4-0.9c-5,4.9-10.6,9.2-14.9,14.7c-9.6,12.2-22.8,19.8-35.9,26.8c-11.1,5.9-23.9,8.9-36.3,11.5
		c-14.6,3.1-29.5,4.4-44.3,6.4c-1.5,0.2-3.1,0.3-4.5,0c-25.9-5.1-48.5-15.3-61.6-40.2c-7.7-14.6-16-28.8-23.5-43.5
		c-4.3-8.6-7.4-17.9-11.2-26.8c-0.7-1.6-1.8-3-3.3-5.5c-6.3,8.5-9.2,17.1-11.3,26.2c-1.4,5.8-3,11.6-5.3,17.1
		c-2.4,5.9-5.8,11.4-5.4,18.1c0.1,1.1-0.1,2.6-0.8,3.2c-7,6.5-7.2,15.5-9.4,24c-1.4,5.5-6.1,10.1-9.3,15.1c-1,1.5-2.5,2.9-3,4.6
		c-5,17.7-14.5,33.5-21.5,50.3c-5.5,13.2-16.3,21.2-29.6,26.1c-2.4,0.9-4.4,2.5-6.7,3.7c-4.3,2.2-8.4,5.1-12.9,6.2
		c-10.9,2.6-22,5.3-33.2,6.1c-7.2,0.5-15.3-0.7-21.7-3.9c-7-3.5-9-19.6-4-26.7c5.4-7.7,8.2-15.9,9.9-24.9c0.6-3.2,2.7-6.2,4.6-8.9
		c7.3-9.8,10.4-21.4,14.6-32.6c2.8-7.5,8.7-13.8,12.5-21c10.7-20.1,22.9-39.4,35.1-58.6c9.2-14.4,16.3-30.1,24.4-45.2
		c3.8-6.9,8-13.7,11.6-20.7c2.5-4.9,2.9-11.4,6.6-14.9c4.8-4.5,4.9-9.8,6.5-15c0.9-2.8,3.2-5.1,4.4-7.8c4.2-9.9,9.1-19.8,12-30.1
		c4.4-15.5,7.6-31.4,10.8-47.3c2.3-11,3.6-22.2,5.6-33.2c1.1-6.2,2.2-12.5,4.2-18.4c1-2.8,4-5.4,6.6-7.2c3.6-2.5,7.8-4.1,11.7-7.5
		c-1.4,0-2.9-0.3-4.3,0.1c-12.3,3.4-24.5,6.9-36.7,10.5c-11.2,3.3-22.6,5.9-33.4,10.1c-10.3,4-20,9.9-30,14.8
		c-11.1,5.4-22.4,10.6-33.7,15.7c-27.9,12.4-53.1,29.7-79.8,44.2c-5.3,2.9-7.9,7-8.8,13.4c-1.9,14.1-1.2,28.3-5,42.3
		c-2.3,8.3,0.3,17.9,0.4,26.9c0.2,19.8-1.8,39.8,0.7,59.3c3.2,24.7,0.4,48.7-1,73c-0.4,6.8,1.9,13.9,3.1,20.8
		c0.6,3.6,2.3,7.2,2.3,10.8c-0.1,10.5-1.3,20.9-1.1,31.4c0.2,8.9,1.7,17.9,2.8,26.8c0.8,6.9,2.6,13.8,2.8,20.7
		c0.2,8.1,3.5,16.2,0.2,24.3c-1.1,2.7-2.1,5.5-3.8,7.8c-6.2,8.3-6.1,7-16.6,5.9c-9-1-18.6,0.6-27.6,2.5c-3.4,0.7-3.9,5.4-1.6,9.5
		c4.2,7.4,6.8,15.1,5.3,24.1c-1.3,7.8-5.2,13.5-12.1,16.5c-8.6,3.7-17.5,6.6-26.3,9.8c-1.4,0.5-3.3,0.1-4.3,1
		c-8.5,6.9-16.3,1.3-24.2-1.3c-4.1-1.4-6.4-4.3-8-8.7c-6.2-17.3-12.4-34.5-17-52.3c-6.3-24.1-9.5-48.6-13-73
		c-3.5-24.1-6-48.3-8.9-72.5c-1.8-14.9-4-29.7-4.9-44.6c-1.4-22.1-1.9-44.2-2.9-66.4c-0.1-2.1-0.9-4.2-1.9-7.9
		c-6.9,2.6-13.3,4.5-19.1,7.4c-16.4,8.2-32.5,17.2-49.1,25.2c-8.4,4.1-17.4,6.6-26.2,9.9c-2.8,1.1-5.6,2.2-8.3,3.5
		c-6.1,2.9-8,7.1-7.6,14.4c1,20.6,0.9,41.3,0.5,62c-0.2,14.2-1.6,28.3-2.4,42.5c-0.1,2.5,0,5.1,0,8.2c3,0.3,5.2,0.6,7.3,0.7
		c14,0.8,25,11.4,27,25c2.1,13.7,5,27.2,7.5,40.9c0.6,3.3,1.2,6.7,1.2,10c-0.1,9.3-0.8,18.6-0.8,28c0,7.9,1,15.8,0.6,23.6
		c-0.3,7.9-2.5,15.4-7.6,21.9c-9,11.5-19.8,19.6-34,24.5c-15.4,5.3-31.1,5.1-46.8,5.7c-13,0.5-19.3-9.5-22.6-20
		c-3.6-11.7-6.2-24.1-7.2-36.4c-1.4-17.6-1.5-35.3-1.2-53c0.4-21.4,2-42.8,2.8-64.2c1-24.4,2.2-48.9,2.5-73.3
		c0.1-10.1-1.9-20.1-3.2-30.2c-0.9-7.3-4.3-10.4-11.4-8.6c-12,2.9-24.3,5.9-35.5,10.8c-12.6,5.6-24.7,12.8-36.2,20.5
		c-12.2,8.1-24.6,16.4-34.9,26.6c-11.3,11.2-21.1,24.2-30,37.4c-10.9,16.1-20.7,32.9-29.9,50c-8.2,15.1-16,30.5-20,47.5
		c-3.1,13.2-7.4,26.1-10.1,39.3c-2.5,12-3.7,24.3-5.4,36.5c-1.2,8.1-4,15.8-2.8,24.3c0.6,4.4-3,9.2-3.8,13.9
		c-2.1,12.2-3.7,24.5-5.4,36.8c-2.9,20.4-19.7,33.7-39.9,32.8c-8.5-0.4-17.1,1.2-26.7,2.1c-7.6-9.7-11.4-21-8.9-34.7
		c1.6-9.1,1.4-18.7,1.3-28c-0.2-16-0.7-32.1-1.6-48.1c-0.5-9.7-1.9-19.4-2.9-29.1c-0.9-7.8-2.2-15.6-2.8-23.5
		c-0.6-7,0.1-14.1-0.7-21.1c-1.1-8.8-3.5-17.5-4.8-26.3c-0.9-6.3-0.7-12.7-1.2-19.1c-0.7-9.3-2-18.7-2.4-28
		c-0.7-18.4-1.2-36.7-1.3-55.1c0-6.2,4.3-10.2,9.7-12.9c10.7-5.3,21.7-4.4,32.9-2.2c17.6,3.4,24.2,11.8,24.9,30.2
		c0.3,8.2,2.1,16.4,3.5,24.5c0.8,4.6,2,9.1,3.3,15c2.4-2.4,5.1-4.3,6.7-6.9c7.7-11.5,16.8-22.5,22.1-35.1
		c4.9-11.7,13.1-19.6,21.1-28.3c8.6-9.4,15.4-20.4,24.5-29.3c7.9-7.8,17.7-13.6,26.7-20.2c1.8-1.3,4.3-1.9,5.8-3.4
		c19.8-19.5,46-27.2,70.2-39c15.5-7.6,32.2-9.7,48.2-14.6c8-2.5,17.6-1.2,26.4-3.4c20.1-5,39.7-11.4,58.4-20.5
		c12.1-5.9,25-10.3,37.3-15.8c13-5.9,25.8-12.1,38.5-18.5c11.7-5.9,22.9-12.9,35-17.9c9.5-4,13-10.4,13.4-19.8
		c0.4-10.9,0.6-21.8,1.6-32.6c1.7-19.5,3.8-38.9,5.9-58.3c1.5-14.2,3.1-28.3,4.8-42.5c3.4-29.1,9.5-57.7,16.9-85.9
		c5.8-22.3,13.4-44.2,20.2-66.3c0.5-1.8,1.1-3.8,0.9-5.5c-1-8.2,3.6-14.1,7.2-20.7c6.8-12.5,17.1-22,28.4-29.8
		c10.9-7.5,23.5-11.3,36.7-4.4c1.3,0.7,2.6,1.5,4,2c7.2,2.6,12.2,7.1,13.6,15c0.4,2.1,1.3,4.1,2.2,7c4.7-3.8,8.8-7.5,13.3-10.5
		c3.7-2.4,7.8-4.8,12.1-5.6c13.3-2.4,26.6-2.5,39.5,2.5c4.3,1.7,6.7,4.9,6.1,9.6c-0.3,2.6-0.7,5.5-2.1,7.5
		c-5,7.3-7.2,15.6-10.2,23.6c-7.6,20-11.6,40.9-17.9,61.2c-5.1,16.6-6.2,33.6-9.5,50.4c-4.2,21.7-7.3,43.6-10.1,65.4
		c-1.5,11.8-1.6,23.8-2.3,36.6c2.7-0.2,5.5,0.3,7.5-0.7c12.9-6.6,25.7-13.6,38.5-20.4c1.6-0.9,3.4-2,5.1-2.1c9.8-0.6,17.3-6.7,26-10
		c12.7-4.9,23.2-14.8,37.6-15.8c4.2-0.3,8.1-3.7,12.4-5.3c14.3-5.2,28.5-11.2,43.3-15.1c16.6-4.3,33-10.3,50.6-9.8
		c5.9,0.2,11.9-1.1,17.9-1.9c18.6-2.7,34.6,5.3,50.9,12.1c1.5,0.6,3.2,2.3,3.8,3.9c2.8,8.3,5.2,16.8,7.8,25.1
		c1.9,6.1,7.3,5,11.4,4.3c10-1.5,20.3-2.9,29.8-6.1c14.6-4.9,29.5-8.1,44.5-11.4c9.1-2,18-5.3,27-8c5.7-1.7,11.4-3.6,17.2-5
		c7.5-1.9,11.4-5.2,12.1-12.7c1.2-12.7,3-25.3,0.8-38.2c-1.3-7.7-1.4-16,0.1-23.6c3.3-16.5,0-33.1,1.4-49.5c0.2-3-0.1-6.1,0.6-9
		c3.2-13.1,3.4-26.5,3.8-39.8c0.3-11.6,1.7-22.7,5.2-34.1c3.8-12.6,2.8-26.6,4.4-39.9c1-8.1,2.9-16.1,5.1-24
		c2.8-10.5,6.4-20.8,9.6-31.3c2.2-7.2,5-14,10.9-19.3c2.9-2.7,5-6.6,6.5-10.4c5.3-13.8,16.1-22.7,28-30c8.8-5.5,18-11.2,29.2-11.1
		c4.8,0.1,9.6-0.6,14.3-0.3c8.2,0.7,16.5,1.3,24.6,3c5,1.1,9.4,4.8,14.3,5.9c12.9,2.9,18.4,13,23.4,23.4c1.1,2.2,1.1,5,1.5,7.5
		c0.3,1.8-0.4,4.1,0.6,5.5c8.8,12.6,8.2,26.9,8.6,41.3c0.3,15.4,1.5,30.8,2.2,46.1c5.9,6.9,4.9,14.1,2.9,22.4
		c-1.1,4.4,3.3,9.8,3.6,14.8c0.5,8.4,1.3,16.7-3.6,25c-2.9,4.9-3.6,13-1.8,18.4c3.4,9.9-0.2,16.7-5.7,23.8c-1.1,1.5-2.1,3.1-3.9,5.5
		c2.4,0.9,4.6,1.7,7.6,2.8c-0.4,2.3-0.2,5.1-1.4,7c-4.2,6.8-4.9,13.9-4,21.6c0.4,2.7,0.1,7.2-1.5,8.2
		C1867.6,676.7,1870.9,683.3,1871.5,692.3"/>
	<path class="st1" d="M446.9,1754.1c0.6-0.1,1.2-0.1,1.8-0.2c-0.4-1.4-0.7-2.8-1.1-4.2c-0.2,0.1-0.5,0.1-0.7,0.2V1754.1z
		 M449.6,1763v19.1C454.5,1776.1,454.5,1776.1,449.6,1763 M393.7,1096.2c4.1-0.6,7-0.3,9-1.5c11.1-6.2,22.3-12.3,32.8-19.5
		c20.1-13.8,39.8-28.2,59.4-42.8c7.2-5.3,13.3-12,20.2-17.8c11.1-9.4,22.6-18.3,33.5-28c8.7-7.7,16.6-16.3,25-24.3
		c17-16.4,34.2-32.6,51.2-49c3.5-3.3,6.6-7.1,10.1-10.4c7.2-6.9,16.4-12,20-22.1c0.3-0.9,1.2-2.1,2.1-2.4
		c11.9-3.9,17.8-14.8,25.3-23.2c26-29.1,50.8-59.4,73.3-91.4c10.3-14.6,20.4-29.4,30.3-44.3c5.7-8.7,10.6-17.9,16-26.7
		c10.8-17.6,21.8-35,32.4-52.7c8.8-14.8,18.3-29.4,25-45c8.6-19.9,21.2-37.9,27.3-59c1.6-5.6,6.5-10.2,8.7-15.7
		c4.4-11,7.5-22.5,11.9-33.6c7.5-19.1,15.4-38.1,19.1-58.5c0.6-3.2,2.5-6.2,3.8-9.3c0.8-2,2.2-4.2,2.1-6.2c-0.7-8.6,2.4-16.1,5.2-24
		c2.4-6.7,3.2-13.8,4.9-20.8c0.8-3.2,1.7-6.5,3.3-9.3c3.8-6.9,8.4-13.3,8.1-21.7c-0.1-2.5,1.4-5,2.2-7.5c3.4-9.5,7.9-18.7,6.4-29.4
		c-0.2-1.7,0.7-3.6,1.1-5.4c1.3-5.8,3.5-11.5,3.8-17.4c0.6-11.9-0.9-24.1,0.5-35.9c2.5-20.9-5.9-40.2-7-60.5
		c-0.2-3.5-2.4-7.2-4.4-10.2c-11.1-16.6-27.5-26.3-45.4-33.6c-11.6-4.8-23.7-7.9-36.3-6.4c-8.5,1.1-16.7,3.8-25,5.7
		c-19.7,4.6-39.7,8.3-57.3,19.2c-1.6,1-3.5,1.2-5.3,1.9c-11.9,4.6-23.7,8.9-33.1,18.4c-8.9,9-19.3,16.7-29,24.8
		c-8.6,7.3-17.8,14-25.8,21.8c-12.7,12.3-24.6,25.4-36.9,38c-12.6,12.9-25.8,25.3-35,41.1c-1.3,2.2-3.5,3.9-5.1,6
		c-3.6,4.8-7.4,9.5-10.7,14.5c-3.9,6-7.2,12.3-11,18.3c-14.8,23-30.1,45.8-44.6,69.1c-5.9,9.5-10.3,20-15.3,30.1
		c-9.6,19.4-20.5,38.1-28.2,58.7c-7.1,19.2-15,38.3-22.8,57.3c-10.6,26.1-19.6,52.7-26.1,80.2c-6.1,25.9-15.4,50.9-20.2,77.2
		c-5.3,29.2-11.9,58.1-17.5,87.2c-3.5,18-6.1,36.2-9.1,54.3c-0.4,2.2-0.7,4.4-0.9,6.7c-1.1,13.4-2.1,26.8-3.1,40.2
		c-0.1,1.5-0.7,2.9-0.9,4.4c-1.4,10.1-2.9,20.1-3.9,30.2c-1.8,19.5-3.2,38.9-4.8,58.4c-1.4,16.4-2.8,32.9-4.3,49.3
		c-1,10.1-2.4,20.1-3.3,30.2C394.4,1081.1,394.2,1088.1,393.7,1096.2 M406.1,1495.6c7,2.7,13.1,5.9,20.8,3.1
		c6.6-2.3,18.5,5.4,21.8,11.9c9.1,18.2,12.4,38.1,18.1,57.3c0.7,2.5,0.3,5.2,0.5,7.8c0.4,4.1-0.1,8.7,1.6,12.2
		c6.2,12.6,8,26.3,11.2,39.6c5.3,21.4,9.4,43.1,14.1,64.7c3.2,14.7,6.8,29.3,9.5,44c2.4,13.3,3.9,26.7,5.7,40.1
		c1.4,10.1,3,20.1,4.1,30.2c1.2,11.9,1.9,23.9,2.7,35.9c0.9,14.6,0.7,29.3,2.8,43.7c2.6,17.6,2.5,35.3,3.4,52.9
		c0.8,15.6,2.2,31.4,1.8,47.1c-0.3,15.4-2.2,30.7-3.7,46c-0.3,3.3-1.4,6.6-2.6,9.8c-6.3,17.1-14.3,21.9-32.4,21.8
		c-15.5-0.1-25.8-7-30.3-21.6c-4.5-14.7-8.2-29.6-12.2-44.4c-1.1-4-1.7-8.2-3.1-12c-6.9-19.1-11.4-38.9-12.5-59.1
		c-0.6-10.8-4.6-20.2-6.9-30.3c-2-9-4.5-17.8-5.4-27.3c-1.5-15.9-6.6-31.4-10.2-47.1c-0.3-1.4-1.9-3.2-1.5-4.1
		c4.1-8.8-2.8-15.4-4.3-23c-3.3-17.3-5.5-34.7-8.3-52.1c-0.8-5.1-1.5-10.6-3.7-15.2c-3.5-7.4-4.5-15-4.7-23
		c-0.1-4.8-0.7-9.8-1.9-14.5c-4.1-15.4-6.6-30.8-6.9-46.8c-0.2-7.8-2.5-15.5-2.7-23.2c-0.3-9.3-1.5-17.9-4.6-27.1
		c-6.1-17.9-10.9-36.8-10.9-56c0-9.1-1.1-17.6-2.6-26.4c-1-6.1,1.1-12.6,1.5-19c0.2-2.9,0.4-6.5-1.1-8.7c-5.9-9.1-4.1-17,3.2-24.8
		c-5.7-6.9-9-13.6-3.2-22.4c1.5-2.2-1.5-8.8-4.1-11.9c-3.5-4.1-4.8-8.1-5.2-13.2c-0.8-9.8-3.7-19.6-2.9-29.1
		c1.4-17.6-5-34.2-5.1-51.4c-0.1-14.1-3.5-27.8-2.2-42.2c1.5-16-0.5-32.3-0.8-48.4c-0.2-10.1-1.4-20.7,7.3-27.7
		c-3.5-6.7-6.7-13-11.2-21.6c-4.5-1.9-11.7-1.8-19.2-0.2c-5.8,1.3-11.7,2.1-17.7,2.9c-8.9,1.1-17.9,1.9-26.9,2.9
		c-1.5,0.2-3,0.6-4.5,0.6c-11.2-0.1-22.6-1.3-33.6,0c-16.6,1.9-31.2-6.2-46.9-7.8c-19-2-34.4-12.3-51-20c-2.3-1.1-4.3-3-6.1-4.8
		c-6.3-6.5-12.7-12.9-18.5-19.8c-2.5-3-3.7-7.2-5.3-10.9c-0.6-1.3-0.1-3.2-0.9-4.4c-8.9-14.6-5.9-29.3-0.5-44.1
		c3-8,5.3-16.3,8.2-24.3c0.9-2.3,2.3-5.1,4.3-6.3c9.2-5.7,17.2-12.4,23.5-21.4c5.3-7.6,13.8-8.1,22.1-3.3c3.5,2,7.2,3.6,11.6,5.8
		c-0.6,2.2-0.7,4.9-2,7c-5.3,9-8.1,18.3-5.8,28.9c0.6,2.8-0.3,6-1,8.9c-4,16.9,3.6,30.5,13.5,42.5c4.2,5.1,11.8,7.6,18.1,10.7
		c20.7,10.1,42.3,15.1,65.4,11.3c2.2-0.4,4.5-0.1,6.7-0.2c7.8-0.6,15.7-0.8,23.4-2c8.1-1.2,16.1-3.7,24.2-5
		c17-2.8,21.2-6.9,23.1-24.4c2.8-0.9,5.8-1.8,9.5-2.9c-0.6-2.1-0.4-4.4-1.5-5.3c-7.6-5.9-7.5-14.2-7.3-22.5
		c0.3-13.5,0.5-27.1,1.3-40.6c0.4-7.1,1.6-14.2,2.8-21.2c2.2-12.6,3.2-25,1-37.8c-1.6-9.2-1.6-18.7-1.4-28c0.1-5.4,3.9-9.8,4.9-15.5
		c2.8-15.8,1.9-31.9,4.3-47.6c0.8-5.2,0.6-10.5,0.7-15.8c0.2-5.5,0.1-11,0.4-16.4c0.6-11.4,1.4-22.9,2.3-34.3
		c0.2-2.2,0.5-4.6,1.6-6.4c6.6-11.4,9.5-23.4,6.7-36.5c-0.5-2.4,0.4-5.1,0.9-7.6c0.8-4.4,1.7-8.8,2.6-13.2c0.4-1.8,0.1-4.2,1.2-5.4
		c8.8-9.3,9.9-21.1,11.1-32.9c0.1-1.1,0-2.4,0.5-3.3c3.6-7.3,4.7-14.9,5.5-23c0.7-7.7,4.6-15.1,5.8-22.9c1.6-10,5.3-19.1,9.5-28.3
		c2.8-6.3,2.9-13.9,4.2-20.9c0.4-2.2,0.1-4.6,0.8-6.7c8.7-23.9,18.7-47.5,25.9-71.8c3.8-12.7,11.6-23.3,14.9-35.9
		c1.9-7,4.7-13.5,12.9-15.1c-4-15.8,5.1-27.2,11.4-39.2c6.6-12.6,14.1-24.6,19.8-37.7c4.6-10.6,8.3-22.8,20-29
		c1.2-0.6,1.9-2.1,2.7-3.2c9-12.7,18.1-25.3,27-38c3-4.3,6.5-8.3,3.3-14.4c-1.9-3.6,0.6-7.7,4.2-7.7c12,0.1,14.6-10.4,20.4-17.1
		c5.4-6.2,10.2-12.8,15.3-19.2c1.1-1.4,2.5-2.7,3.5-4.3c8.2-14,19.9-24.9,31-36.5c12.5-13,24-27.1,37.4-39.1
		c16.7-15,32-31.8,51.2-44c18.6-11.9,36.2-25.4,55.6-35.8c9.5-5.1,19.5-10.6,31.1-12.2c7.4-1,14.1-6.5,21.4-9.5
		c4.5-1.8,9.3-2.8,14.1-3.7c13.3-2.3,26.6-4.9,40-6.5c14.5-1.7,29.1-3.1,43.7-3.2c7.2-0.1,15.1,1.1,19.5,9c0.7,1.2,3.3,1.8,5,1.9
		c14.4,0.9,24.1,8.1,30.7,20.8c2.7,5.1,7.2,9.2,11.2,13.5c19.4,20.9,26.3,47.7,33.5,73.9c3.6,13.2,2.9,27.6,4,41.5
		c0.6,7.9,0.9,15.7,1,23.6c0,2.5-0.7,5.2-1.3,7.7c-2.2,8.7-5.3,17.4-1.1,26.4c0.6,1.3,0.6,3.1,0.2,4.5c-5.4,19.8-1.5,40.8-8.7,60.7
		c-4.5,12.6-8.4,25.4-13.4,37.9c-0.7,1.7-2.1,3.7-1.7,5.2c4,14.8-6.3,25.6-10.2,38.2c-1,3.2-3.3,6.1-3.6,9.3
		c-1.4,15-8.2,27.8-14.5,41c-4.1,8.8-6.8,18.2-10.4,27.2c-7.5,18.8-15.2,37.5-23,56.3c-1.3,3.1-3.5,5.9-4.7,9
		c-4.5,11.5-8.3,23.2-13.2,34.5c-2.8,6.5-7.4,12.1-10.9,18.3c-8.2,14.7-15.9,29.6-24.4,44.1c-11,18.7-22.4,37.3-34.1,55.6
		c-7.9,12.4-16.5,24.3-24.8,36.3c-7.5,10.7-14.7,21.6-22.7,31.9c-11,14.1-21.8,28.6-34.1,41.5c-18.4,19.2-35.6,39.4-53.5,59.1
		c-5.5,6-12.2,10.9-18,16.7c-4.8,4.8-8.8,10.3-13.7,15c-17.7,16.8-35.7,33.4-53.5,50.1c-9.3,8.7-18.3,17.8-30,23.5
		c-1.3,0.6-2.5,1.8-3.4,3c-14.9,22-38.9,33.9-57.7,51.4c-5.8,5.4-12,10.2-18,15.3c-18.4,15.5-38.7,28.3-59.7,39.9
		c-6.2,3.5-12.8,6.3-19,9.6c-9.6,5.1-19.3,10.1-28.6,15.6c-6.7,4-11.3,8.3-8.4,18.2c2.1,7.1,0.4,15.8-1.1,23.4
		c-2.7,14.7,2.6,28.9,1.6,43.4c-0.1,1,0.6,2.4,1.4,2.9c4.7,2.8,4.2,7.1,2.6,11c-4.8,11.9-1.9,24.3-2.4,36.5
		c-0.3,7.1,0.2,14.3,0.4,21.4c0.1,1.9-0.4,4.1,0.5,5.5c4.8,7.2,3.2,15,3,22.8c-0.4,13.5,0.1,27,0.5,40.5c0.1,2.1,1.9,4.1,2.1,6.2
		c0.6,5.1,1.5,10.4,0.8,15.4c-1.1,7.7-1.1,14.8,2.7,21.9c1.4,2.7,1.3,6.4,1.3,9.6c0,4-0.8,8.1-0.7,12.1
		C405.2,1467.6,405.7,1481,406.1,1495.6"/>
	<path class="st1" d="M973.8,800.4c-0.7-6-1-11.8,7.2-13.5c8.3-10.9,20-9.9,31.7-9.7c13.5,0.3,23.9,11.1,23.6,24.5
		c-0.1,5-2.7,8.2-6.9,9.1c-6.9,1.6-14.1,3.3-21,2.8c-6.4-0.5-12.7-3.8-18.9-6.2C984.4,805.5,979.4,803,973.8,800.4"/>
	<path class="st2" d="M1691.3,815.6c0,11.5-2,23.1,0.5,33.5c4.2,17.5,2.3,34.9,3.2,52.3c0.7,14.4,2.3,29-1.2,43.5
		c-1.4,5.5,0.5,11.9,1,17.8c0.3,3,0.9,5.9,1.4,8.9c2.4,12.8-3.2,23.7-10.3,33c-12.1,15.9-23,33-39.6,45c-10.8,7.9-20.7,17.1-31.6,25
		c-5.1,3.7-11.2,7.6-17.1,8.1c-7,0.5-15.6-0.8-21-4.7c-6.8-4.9-16.3-8.7-17.7-19.2c0-0.3-0.4-0.6-0.7-0.8
		c-10.2-9.6-12.9-23.2-18.9-35.1c-8.3-16.5-12.8-34.1-17.5-51.6c-2.4-9-3.6-18.4-5.3-27.6c-1.9-9.9-5.2-19.8-5.5-29.7
		c-0.7-23,3.7-45,15.5-65.3c3.2-5.5,7.2-6.6,12.9-6.6c18.4,0.1,36.8,0.7,55.1-0.7c10.7-0.8,21.1-4.9,31.6-7.5
		c6.5-1.7,13.1-3.2,19.5-5.2c5.3-1.7,10.4-3.9,15.6-5.9c1.4-0.5,2.7-1.4,4.1-1.7C1673.5,819.3,1681.7,817.6,1691.3,815.6"/>
	<path class="st2" d="M1812.9,424.3c8.8,9.1,11,20.1,12.4,30.6c3.1,22.9,6.1,46,5.6,69.3c-0.4,18.4-0.2,36.7-0.6,55.1
		c-0.1,5.2-1.4,10.3-2,15.5c-3.3,33.3-7.3,66.4-16,98.8c-0.5,1.8-0.8,3.7-1.1,5.5c-3.3,17.7-12.1,25.1-30.6,25.8
		c-2,0.1-4,1.5-5.9,2.5c-9.3,5.3-14,6.4-22.8,4.9c5.4-10.4,5.2-21.6,5.2-32.7c0-1.5,0.3-3.1-0.1-4.5c-5-19.8-0.4-39.1,2.7-58.5
		c1.1-6.9,0.2-14,0.4-21.1c0.2-6.2,0.7-12.4,1-18.6c0.5-11.2,0.6-22.5,1.7-33.6c0.6-6.2,3.2-12.2,4.5-18.4c4.1-19.4,7.6-39,12-58.3
		c1.8-7.9,4.9-15.6,8.5-22.9c5.1-10.3,7.6-22.1,16-30.6C1806.6,430.2,1809.6,427.4,1812.9,424.3"/>
	<path class="st2" d="M2096.8,778.3c0.2,2.9,0.7,4.4,0.4,5.8c-6,23.9-11.8,47.8-18.3,71.6c-4.8,17.6-10.1,35.2-15.7,52.5
		c-3.7,11.4-8.4,22.4-12.8,33.6c-4,10.1-8,20.2-12.4,30.2c-6,13.7-12,27.5-18.6,40.9c-7.5,15.1-15.8,29.7-23.7,44.6
		c-4.4,8.3-9.2,16.3-18.1,21.8c-0.9-2-2.4-3.6-2.3-5.2c0.4-11.6-2.1-23.3,2.1-34.7c1.5-4.2,3-9,2.4-13.2
		c-1.8-12.5,2.3-23.6,6.5-34.8c3.7-9.7,7.8-19.3,11.5-28.9c3.9-10.1,7.4-20.3,11.2-30.4c2.1-5.6,4.6-11.1,6.6-16.7
		c1.9-5.2,3.1-10.7,5.4-15.7c3.3-7.1,7.4-13.7,10.9-20.7c3.4-6.7,6.4-13.5,9.6-20.2c1.1-2.3,2.5-4.5,3.9-6.7c0.8-1.2,3-2.7,2.7-3.3
		c-4.1-9.3,4.6-10.8,8.9-15c2.6-2.6,5.8-4.9,3.1-9.6c-0.8-1.4-0.2-4.5,0.9-6.1c4.2-6.1,8.9-12,13.5-17.8c1.4-1.7,4.5-3,4.6-4.6
		C2079.9,785.2,2088.2,782.9,2096.8,778.3"/>
	<path class="st2" d="M1171.7,945.8c0.2,5,0.6,9.1,0.6,13.1c-0.2,15.8-0.9,31.5-0.6,47.3c0.3,16.9,1.5,33.7,2,50.6
		c0.2,5.6-0.8,11.2-0.9,16.7c0,3.6,0.3,7.4,1,11c1.6,8.4,2.5,16.5,1.7,25.4c-1.2,11.8,0.4,23.9,1.3,35.8c1.5,18.3,4.1,36.5,5.1,54.9
		c1,18.4,1.2,36.8,10.5,53.5c-10.3,4.1-14.1,1.6-16.1-8.4c-3.9-19.8-8.4-39.6-12.4-59.4c-1.3-6.6-3.1-13.6-2.1-20
		c2.3-14.5-1.2-28.5-1.8-42.7c-0.2-5-2.8-10-4.3-15c-1-3.2-2.8-6.4-2.9-9.6c-0.5-14.6-0.4-29.1-0.9-43.7c-0.2-8.2-1.5-16.3-1.6-24.4
		c-0.1-17.6,0.3-35.1,0.5-52.7c0-3,0.7-6,0.8-9C1152.2,955.2,1155.9,950.4,1171.7,945.8"/>
	<path class="st2" d="M1757.1,864.3c-0.6-1.7-1.4-3.4-1.6-5.2c-1-11.9-2.4-23.7-2.7-35.6c-0.1-8.6,1.3-17.2,2.2-25.8
		c0.2-1.4,1-3.3,2.1-3.8c10.3-5,20.6-10,33.8-12.9c-2.8,8.8-5,15.7-7.1,22.6c-2.2,7.1-4,14.4-6.6,21.4c-2.6,6.9-6.2,13.5-9.2,20.3
		c-2.8,6.5-5.4,13-8.1,19.5C1758.9,864.7,1758,864.5,1757.1,864.3"/>
	<path class="st2" d="M1156.4,876.2c2.4-48.2,11.8-94.4,22.3-140.4c0.8,0.1,1.7,0.2,2.5,0.2c-0.6,8.8-1.1,17.6-1.8,26.4
		c-0.8,10.4-2,20.7-2.8,31.1c-0.7,9.6-1.4,19.3-1.7,28.9c-0.4,12.9-0.7,25.7-0.6,38.6C1174.2,871.9,1170.3,876,1156.4,876.2"/>
	<path class="st2" d="M1186.2,697.7c1.4-4.6,2.7-9.2,4.1-13.8c1.4,5.4,3.6,10.9-1.2,14.9C1188.2,698.4,1187.2,698,1186.2,697.7"/>
	<path class="st2" d="M1218.8,601.1c-1.9,3.5-3.7,7-5.6,10.5c-0.8-0.4-1.5-0.7-2.3-1.1c1.6-3.6,3.2-7.2,4.9-10.8
		C1216.8,600.2,1217.8,600.7,1218.8,601.1"/>
	<path class="st2" d="M393.7,1096.2c0.5-8.1,0.7-15.1,1.4-22.1c0.9-10.1,2.4-20.1,3.3-30.2c1.6-16.4,3-32.9,4.3-49.4
		c1.6-19.5,3-39,4.8-58.4c0.9-10.1,2.5-20.1,3.9-30.2c0.2-1.5,0.8-2.9,0.9-4.4c1.1-13.4,2.1-26.8,3.2-40.2c0.2-2.2,0.5-4.5,0.9-6.7
		c3-18.1,5.6-36.3,9.1-54.3c5.6-29.1,12.2-58,17.5-87.2c4.8-26.3,14.1-51.3,20.2-77.2c6.5-27.5,15.5-54.1,26.1-80.2
		c7.8-19.1,15.6-38.2,22.8-57.3c7.7-20.6,18.5-39.3,28.2-58.7c5-10.1,9.4-20.5,15.3-30c14.5-23.2,29.7-46,44.6-69.1
		c3.9-6,7.1-12.4,11-18.4c3.3-5,7-9.7,10.6-14.5c1.6-2.1,3.8-3.8,5.1-6c9.2-15.8,22.4-28.2,35-41.1c12.4-12.6,24.2-25.7,36.9-38
		c8.1-7.8,17.2-14.5,25.8-21.8c9.8-8.2,20.1-15.8,29-24.8c9.4-9.6,21.3-13.8,33.1-18.4c1.8-0.7,3.7-0.9,5.3-1.9
		c17.6-10.9,37.6-14.5,57.3-19.1c8.3-2,16.6-4.6,25-5.7c12.6-1.6,24.8,1.6,36.3,6.3c17.9,7.4,34.4,17,45.4,33.6
		c2,3.1,4.2,6.7,4.4,10.2c1.2,20.3,9.5,39.6,7,60.5c-1.4,11.8,0.1,24-0.5,35.9c-0.3,5.8-2.5,11.6-3.8,17.4c-0.4,1.8-1.4,3.7-1.1,5.4
		c1.5,10.6-3.1,19.9-6.5,29.4c-0.9,2.5-2.3,5-2.2,7.5c0.3,8.5-4.3,14.9-8.1,21.8c-1.6,2.8-2.5,6.1-3.3,9.3
		c-1.7,6.9-2.5,14.1-4.9,20.7c-2.8,7.8-5.9,15.4-5.2,24c0.2,2-1.3,4.1-2.1,6.2c-1.2,3.1-3.2,6.1-3.8,9.3
		c-3.7,20.4-11.6,39.4-19.1,58.5c-4.3,11.1-7.5,22.6-11.9,33.6c-2.2,5.5-7,10.1-8.6,15.7c-6.1,21.1-18.7,39.1-27.3,59.1
		c-6.8,15.7-16.3,30.3-25,45c-10.5,17.7-21.6,35.1-32.4,52.7c-5.4,8.9-10.3,18.1-16,26.7c-9.8,14.9-20,29.7-30.3,44.3
		c-22.5,32-47.2,62.3-73.3,91.4c-7.5,8.4-13.4,19.3-25.3,23.2c-0.9,0.3-1.8,1.5-2.1,2.4c-3.6,10.2-12.7,15.3-20,22.1
		c-3.5,3.3-6.6,7.1-10.1,10.4c-17,16.4-34.2,32.6-51.2,49c-8.4,8.1-16.3,16.6-25,24.3c-10.9,9.6-22.4,18.6-33.5,28
		c-6.9,5.8-13,12.4-20.2,17.8c-19.6,14.6-39.3,29-59.3,42.8c-10.4,7.2-21.7,13.2-32.8,19.5C400.7,1095.9,397.9,1095.6,393.7,1096.2"
		/>
	<path class="st2" d="M449.6,1763c4.9,13.1,4.9,13.1,0,19.1V1763z"/>
	<path class="st2" d="M446.9,1754.1v-4.2c0.2-0.1,0.5-0.1,0.7-0.2c0.4,1.4,0.7,2.8,1.1,4.2C448.1,1753.9,447.5,1754,446.9,1754.1"/>
</g>
</svg>
