<?xml version="1.0" encoding="utf-8"?>
<!-- Generator: Adobe Illustrator 21.1.0, SVG Export Plug-In . SVG Version: 6.00 Build 0)  -->
<svg version="1.1" id="Layer_1" xmlns="http://www.w3.org/2000/svg" xmlns:xlink="http://www.w3.org/1999/xlink" x="0px" y="0px"
	 viewBox="0 0 4685 2545.6" style="enable-background:new 0 0 4685 2545.6;" xml:space="preserve">
<style type="text/css">
	.st0{fill:#FFFFFF;}
</style>
<title>breadpudding</title>
<path d="M2973.2,1269.6c-3.5,4.7-7.4,9.2-10.6,14.1c-29.9,47-64.1,90.7-105.5,128.7c-18,16.5-37.4,30.2-60.5,40.3
	c-22.4,9.8-41.8,7-63.3,0.4c-38.4-11.8-61.3-36.7-71.4-74.1c-2.5-9.3-6.3-18.3-10.6-30.3c-12,18.2-22.6,34.3-33.3,50.5
	c-23.7,35.7-46.2,72.3-71.9,106.6c-10.3,13.8-26.5,25-42.3,32.9c-24.5,12.1-64.9-14.1-62.3-41.2c3.1-32.6,9.9-65.1,17.9-97
	c17.9-71.7,39.6-142.6,55.5-214.7c6.6-29.8,4.1-61.9,2.9-92.9c-1.1-28.9-18.6-35.8-48.4-21.8c-42.2,19.9-67.2,56.4-88.1,95.5
	c-36.2,67.9-52.9,141.4-65.5,216.2c-10.1,59.6-21.4,119-33.1,178.3c-6.2,31.4-31.6,38.9-55.6,17.1c-10.5-9.5-14.8-21.2-14.6-35.8
	c0.8-56.7,0.3-113.5,0.3-171.2c-10.3-1.2-11,9.6-14.7,15.1c-22.7,33.2-42.8,68.2-66.8,100.4c-24.7,33.1-53,64-88.2,86.7
	c-23.2,15-49.8,22.2-77.7,9c-11.5-5.4-24.2-9.1-34.2-16.5c-23.2-17.1-33.8-42.3-34.2-69.5c-0.7-61.1,9.9-120.8,34.7-177.1
	c16.9-38.4,34-77.1,55.7-112.9c27.7-45.9,61.1-86.7,111.8-113.6c40.2-21.3,93.8,0.2,107.8,39.9c4.1,11.5,9.2,22.7,14.7,36.3
	c15.6-12.2,13.4-28,16.3-40.7c3.9-16.7,14.7-23.9,28.7-28.9c20-7.1,38.1,4.1,37.9,25.1c-0.1,16.8-4.2,33.5-6.8,50.2
	c-1.5,9.5-3.3,19-5,28.4c1.7,0.6,3.5,1.3,5.2,1.9c7.5-15.2,15.7-30,22.4-45.6c20.4-47.6,49.7-88.5,91.1-121.2
	c24.4-19.3,52.6-29.2,82.7-32.2c36.6-3.6,71.7,26.6,79,64.2c8.3,42.8,4.8,85.5-2.5,127.7c-7,41.1-16.2,82-26,122.6
	c-4.8,19.8-14.1,38.4-19.6,58.1c-5.5,19.5-8.7,39.7-8.5,62.2c5-5.4,10.7-10.3,15-16.1c32.7-44.1,59.2-91.6,84.9-139.9
	c28.5-53.6,44.7-110.5,56.8-169.1c2.7-13,6.7-25.9,11.6-38.3c6.3-16,21.8-22.7,39.7-18.7c18.3,4.1,25.4,13.2,23.5,33.1
	c-0.9,9.6-4,19.2-7.1,28.4c-22.2,65.4-34.5,132-30.8,201.4c1.2,22.1,9.6,41.4,17.4,61.1c4.8,12,15.5,16.8,28.9,15.6
	c28.1-2.5,50.4-17,68.6-35.7c49.1-50.4,93.9-104,124.9-167.5c21.5-44,45.2-86.9,67.4-130.6c7.5-14.7,19.1-21.5,35.1-20.3
	c27,2,37.1,23.4,29.6,50.7c-13,47.7-23,96.3-34.3,144.5c2.4,0.9,4.8,1.8,7.1,2.6c8-14.8,15.5-30,24.2-44.4
	c23.6-38.9,47.4-77.9,72.1-116.2c9.5-14.7,30.2-19.4,46.2-13.4c15.3,5.8,23.6,17.2,20.9,36.5c-4.6,32.6-11.8,64.8-17.9,97.2
	c-13.4,70.8-26.9,141.6-40.1,212.4c-1.2,6.3-0.2,13,5.1,20.7c12.9-25,26.4-49.7,38.6-75c12.8-26.6,26.4-53,35.8-80.8
	c13.1-38.7,23.1-78.4,33.4-117.9c3.2-12.1,7.3-21.9,20.5-25.6c14.5-4,29.1-1.4,37.6,9.6c6.4,8.3,8.1,21.1,8.7,32.1
	c0.6,10.4-3.2,21.1-4.4,31.7c-5.9,51.5,5.4,101.1,18.7,150.4c1.4,5.1,4.3,9.9,6.9,14.5c10.4,18.3,20.8,22.2,40.4,14
	c30-12.5,54.8-31.9,74.6-56.9c17.8-22.5,35.5-45.2,51.4-69.1c6.1-9.2,8.9-21.4,10.3-32.5c8.2-65.4,12.6-131.4,24-196.3
	c14.2-80.6,33.7-160.4,51.7-240.4c4.5-19.9,13.5-25.3,30.2-22c29.5,5.7,38.2,13.6,36.3,34.1c-6.2,66.5-10.6,133.2-19.6,199.3
	c-8.4,61.6-14.9,124-40,182.3c-2.2,5.1-0.3,11.8,3.4,19.3c11.3-16.8,22.2-33.8,33.8-50.4c35.4-50.5,69.1-102.3,124.8-135.5
	c43.1-25.6,85.4-35.7,131.6-4.4c4.6-9.4,9.5-16.9,12.1-25.2c11.7-37.4,21.5-75.5,34.4-112.4c17.1-48.8,36.6-96.8,55.2-145.1
	c1.6-4.2,3.7-8.1,5.2-12.3c10.1-27.4,28.8-33.9,52.7-17.5c13.7,9.4,8.3,22.6,4.1,34c-9.3,25-18.8,50.1-30.2,74.3
	c-32.5,69-54.1,141.6-75.8,214.2c-25.9,86.7-41,175.4-43.7,265.7c-1.4,46.6,4.2,92.2,29.4,134c22.7,37.7,58,57.8,101.8,50.3
	c23-4,45-13.8,67.5-20.7c14.3-4.4,17.9-12.4,12.7-26.5c-16.1-43.7-12.2-88.5,0.1-131.7c15.2-53.3,38.2-104,71.6-149.1
	c15.9-21.5,34.9-41.1,54.1-60c18.5-18.2,43.1-26.8,68.3-31.9c22.4-4.6,55.1,15.3,63.6,37.5c9,23.6,13.3,48.5,10.6,73.3
	c-6.5,60.3-27.9,115.1-62.7,166c-29,42.4-62.7,80.2-99.4,114.9c2.7,12.2,12,11.6,19.7,12.8c36.6,6,73.1,2.2,108.8-5.3
	c52.7-11.1,103-29,150.3-55.2c39.4-21.9,65.8-55.3,90-90.9c3.3-4.8,1-13.5,0.5-20.3c-1.1-15.4,3.2-27.8,16.8-37
	c14.5-9.8,26.6-11.8,37.8-4c12.3,8.4,17.5,19.6,14.5,34.7c-5.1,25.9-15.5,49.7-31.8,70.3c-18.3,23.2-38.7,44.8-58.6,66.7
	c-21.4,23.6-51.6,34.1-79.9,45.1c-45.6,17.7-92.5,32.9-140,45.1c-49.3,12.6-99.7,8.3-149.1-2.9c-5.9-1.3-12.2-4.3-16.7-8.3
	c-14.1-12.6-27.7-9.8-42.4-1.3c-27.7,16-57.4,26.6-89.6,31.1c-71.2,9.8-140.9-25.1-174.9-88.4c-27.9-51.8-32.3-106.7-30.6-163.2
	c0.1-3.4,0-6.8,0-13.1c-21.4,11.7-29.6,31.3-39.7,47.7c-26.9,43.5-64.6,77-102.2,110.5c-31.8,28.3-68.4,49-109.7,63.3
	c-30.6,10.6-83-11.1-96.8-38.5c-8-15.8-15.4-31.8-23.9-49.5c-12.7,5.2-21.5,15.3-31.5,23.6c-20.1,16.9-44.3,26.2-69.6,28.7
	c-41,4.1-85.6-28.4-97.9-67.5c-5.2-16.6-10.3-33.3-15.5-49.9c-1.9-0.2-3.9-0.3-5.8-0.5c-10.2,19.4-20.9,38.5-30.5,58.1
	c-20,40.9-39,82.2-59.1,122.9c-5.1,10.3-12.1,20-19.5,28.9c-16,19.4-27.1,22.2-50.3,14.5c-18.4-6.1-25.9-21.3-25.2-37.6
	c1.5-34.6,4.5-69.3,9.8-103.5c9.9-64.1,21.9-127.9,33-191.8c-1.8-0.7-3.6-1.5-5.4-2.2c-8.5,16.7-18.2,32.9-25.4,50.1
	c-20.4,48.4-40.9,96.8-59.2,146c-14,37.5-24.7,76.2-37.2,114.3c-2.5,7.5-5.2,15.5-10,21.6c-7.8,9.8-17.8,13.5-31.4,8.3
	c-23.4-9.1-32.7-25.1-28.7-49.3c8-48.3,14.6-96.7,22.6-145c3.9-23.7,9.6-47,14-70.6c1.5-8.1,1.9-16.4,2.8-24.6
	C2976.5,1270.5,2974.8,1270.1,2973.2,1269.6z M2179.2,1297c-5.1-3.8-11.2-7.7-16.5-12.4c-21.6-19.3-21-19.2-11-47.6
	c9.4-26.7,12.8-53.8,1.3-80.9c-6.9-16.1-16.4-20-32.3-12.4c-4.9,2.3-9.2,5.8-13.6,9c-27.1,20.4-49,46-66.2,74.1
	c-37.3,60.7-63.8,126.3-78.5,195.6c-6.2,29.1-11.3,59.8,1.5,89.4c8.9,20.6,22,26.7,42.8,18.3c6.6-2.6,13-7,17.8-12
	c24.3-25.3,49.3-50.1,71.8-76.8C2131.8,1399.1,2159.7,1352.4,2179.2,1297z M3563.1,1421.5c21.4,18.7,39.1,16.7,56.1,9
	c24.8-11.2,46.1-26.5,66.7-45.1c49.4-44.4,92.8-92.6,125-150.1c27.7-49.4,52.5-99.5,54.1-157.6c0.6-20.9-10.9-30.1-29.9-20.3
	c-32.3,16.7-62.1,36.7-85.3,65.2c-65.3,80.3-110.8,171.2-149.7,265.6C3593.7,1403.8,3588.6,1418.6,3563.1,1421.5z M4198.4,1407.8
	c12.6-9.5,24.4-16.4,33.7-25.7c35.8-35.7,67.6-74.6,89.4-120.2c15.4-32.4,27.4-65.9,31.7-101.8c2.1-17.3,0.9-33.5-9.9-47.8
	c-14.9-1.8-26.1,3.6-35.1,13c-15.5,16.2-32,31.9-45.2,49.8c-41.3,55.8-68.6,117.4-73.6,186.9
	C4188.3,1375.9,4187.1,1390.4,4198.4,1407.8z"/>
<path d="M1289.8,1535.5c5.8-2.1,8.6-2.6,10.8-3.9c11.7-7.1,22.6-7.2,31.6,3.9c6.5,8.1,5.3,29.2-1.9,37.4
	c-12.1,13.7-27.7,22.2-45.9,18.5c-24.6-5-46.7-15.2-55.7-41.2c-5.8-16.7-11.4-33.3-18.2-53c-16.2,17.1-30.3,33-45.6,47.7
	c-13.6,13-27.5,26.3-43.3,36.5c-43,27.8-93.9,8.5-107.7-39.8c-1.5-5.1-2.9-10.2-4.9-15.2c-0.5-1.3-2.8-1.9-6.1-4.1
	c-10.7,14.6-21.5,29.4-32.3,44.1c-8.5,11.5-16.6,23.4-25.8,34.3c-21.6,25.3-68.8,20.2-83.1-9.7c-14.2-29.7-16.7-62-14.2-94.1
	c2.9-37.2,8.2-74.2,13.5-111.2c1.9-13.1,7-25.7,10.2-38.6c2.9-12.1,6.6-24.3,7.6-36.6c3.1-40.8-13.9-59.3-55.8-61.7
	c-28.7-1.6-53.4,9.3-76.8,24.1c-39.2,24.9-58.6,63-70,105c-7.4,27.2-9.6,55.7-14,83.7c-4.1,26.2-8.9,52.4-11.6,78.8
	c-3.7,35.4-5.6,70.9-8.3,106.4c-0.8,10.6-1,21.4-2.8,31.8c-4,22.7-13,28.7-35.9,25.2c-21.8-3.4-31.8-15.7-30-36.4
	c8.7-98.4,17-196.9,26.1-295.2c2.9-30.9,8.2-61.6,12.6-94.2c-4.8-0.4-8.3-1.7-11.3-0.8c-61,18.1-121.8,36.8-182.9,54.6
	c-11.6,3.4-15.9,8.9-17.2,20.3c-7.5,68.1-18.1,135.9-23,204.1c-5.3,73.6-7.7,147.6-7.2,221.4c0.4,64,6.1,127.9,10.7,191.8
	c0.8,10.9,8,21.4,12.1,32.1c3.5,9.1,7.9,17.9,10.1,27.3c3.4,13.9-6.3,22.3-17.1,27.2c-18.6,8.4-45-6.6-51.4-26.6
	c-11.8-37-12.7-75.3-16.6-113.3c-10.2-100.6-3.7-201.2,0.9-301.5c3.7-79.1,14.4-157.8,21.9-236.8c1-10.4,1.7-20.8,2.7-32.8
	c-7.8-0.7-13-1.5-18.2-1.6c-41.9-1.3-83.9-1-125.6-4.4c-19.4-1.6-38.4-9.6-57-16.2c-46.3-16.4-87.2-41.1-113.2-83.2
	c-30.6-49.6-40-102.6-17.8-158.3c18.2-45.8,65.1-69,110-53.8c1.7,12-4.7,19.3-14.5,25.8c-61.9,40.4-62.8,99.3-27.3,162.5
	c24.5,43.6,66.5,66.5,117.1,74.9c45.4,7.5,90.5,10.2,136.1,3.4c13.5-2,20.4-7.2,22.9-21.5c7.7-44.7,15.8-89.4,26.3-133.5
	c12.4-51.9,25.8-103.8,42-154.6c14.3-44.9,31-89.3,50.6-132.2c26.7-58.5,58.3-114.7,95.5-167.9c26.5-37.8,57.2-72.8,93.8-99.9
	c69.3-51.3,138.6-68,225.2-26.9c24.7,11.7,43.3,32.3,59.2,54.5c52.8,73.4,69.6,154.5,48.9,241.4c-17,71.6-47,137.8-92.5,197.6
	c-41.3,54.2-90.9,99.3-145,140.5c-3.6,2.7-7.2,5.6-10.4,8.6c-1.1,1.1-1.4,3-1.3,2.8c26.9-2.5,54.6-4.9,82.3-7.7
	c31.7-3.2,56.3,12.2,79.7,29.6c14.5,10.8,28,22.9,40.7,35.7c14.2,14.3,16.9,38.7,2.9,54c-27.4,30.1-31.3,67.5-37.6,103.9
	c-4.8,28-5.4,56.6-7.3,85c-0.7,10.4-0.1,20.8-0.1,31.2c2.1,0.9,4.2,1.8,6.3,2.7c5.9-7,12.6-13.4,17.6-20.9
	c39.9-60.2,70.3-124.5,86.5-194.9c8.4-36.4,18.2-72.5,28.6-108.4c5.8-20,15-25.1,33.2-23c21.4,2.5,30.1,10,32.3,29.7
	c0.7,6.8-0.1,14.5-2.6,20.8c-22.8,57.6-33.1,118.3-42.8,178.7c-5,31.1-8.5,63.6,0.4,95.3c5,17.8,13,21.4,29.5,11.7
	c4.7-2.7,9.1-6.1,12.9-9.8c60.4-58.1,100.8-125.7,106.4-210.5c1.5-22.1,6.4-44.1,10.8-65.9c3.9-19.3,17.3-28.2,37-26.3
	c17.1,1.7,31.2,17.5,29.3,36c-2,19.5-5.2,39-10.4,57.9c-15.9,58.4-18,117.6-12.7,177.3C1273,1502.5,1275.7,1520.4,1289.8,1535.5z
	 M413.4,1280.9c7.6-0.8,14-0.5,19.7-2.3c55.3-17.6,111.6-32.6,165.2-54.1c56.2-22.6,108.8-53,156.2-91.2
	c54.3-43.8,102.8-92.6,138.9-152.1c37.3-61.4,60.9-126,61.5-199.2c0.5-63.4-21.4-116.4-60.5-164.4c-13.4-16.4-31.8-25.7-53.3-30.1
	c-61.1-12.4-111.9,8.2-155.3,47.8c-40.9,37.2-72.6,82.2-102.1,128.3c-54.5,85.2-89.9,178.6-118.3,274.4
	c-17,57.2-30.2,115.6-43.2,173.8C417.4,1233.7,409.3,1255.9,413.4,1280.9z"/>
<path d="M1575.4,1117.9c12.7,0,23.8-1.2,34.3,0.5c6.3,1,16.4,6.5,16.6,10.3c0.4,6.5-4.1,15.8-9.7,19.4c-8,5.2-18.6,7-28.3,9
	c-17.1,3.6-27,12-29.5,30c-12.4,92.5-30.1,184.7-27.1,278.5c1.1,36.2,0.1,72.7,10,108.5c6.9,24.8,8.2,27,34.5,23.6
	c14.3-1.8,20.6,3.6,20.4,17.3c-0.5,27.7-19.3,42.4-46.7,34.9c-31.5-8.7-53.7-27-64.2-59c-14.3-43.6-9.6-88.3-11.6-132.6
	c-3.6-79.6,10.4-157.8,22-236.1c1.4-9.6,1.9-19.3,3.3-33.1c-10.4,1.4-19.2,1.4-27.1,4c-36.4,11.8-73.7,9.3-111,6.9
	c-7.8-0.5-16.1-3.8-23-7.8c-10.6-6.1-19.4-14.8-16.4-28.2c2.8-12.5,12.9-19.7,25.2-21.6c7.8-1.2,16.2,0.1,24.1,1.6
	c44.3,8.3,86.9-2.1,129.5-11.1c10.9-2.3,11.5-12,13.2-21.1c9.4-48.1,17.4-96.5,29.6-143.9c15.1-58.6,33.8-116.4,51-174.5
	c1.3-4.3,3.4-8.3,4.7-12.5c8.1-25.6,18.1-31.6,40.4-24.3c20,6.6,33.7,29.8,23.6,46.9c-48.8,82.9-60.9,176.2-82.5,266.9
	c-2.9,12.1-5.2,24.4-7.4,36.7C1573.2,1109.7,1574.4,1112.4,1575.4,1117.9z"/>
<path d="M1343,1054.3c-3.9,11.6-6,20.3-9.7,28.3c-9.4,20.4-21.3,22.1-35.6,4.9c-5.6-6.8-10.5-14.3-14.8-22c-6.2-11-7.1-21.9,4.1-31
	c8.3-6.7,30.8-10.1,38.4-3.4C1333,1037.8,1337.9,1047.4,1343,1054.3z"/>
<path class="st0" d="M2179.2,1297c-19.5,55.4-47.4,102.1-82.9,144.3c-22.5,26.8-47.5,51.6-71.8,76.8c-4.9,5-11.3,9.4-17.8,12
	c-20.8,8.4-33.9,2.3-42.8-18.3c-12.8-29.6-7.7-60.3-1.5-89.4c14.7-69.3,41.2-134.9,78.5-195.6c17.3-28.1,39.1-53.7,66.2-74.1
	c4.3-3.3,8.7-6.7,13.6-9c15.9-7.7,25.4-3.8,32.3,12.4c11.6,27.2,8.1,54.3-1.3,80.9c-10,28.3-10.6,28.3,11,47.6
	C2167.9,1289.3,2174,1293.2,2179.2,1297z"/>
<path class="st0" d="M3563.1,1421.5c25.4-2.9,30.6-17.8,37-33.2c38.9-94.4,84.4-185.3,149.7-265.6c23.2-28.5,53-48.5,85.3-65.2
	c19-9.9,30.5-0.6,29.9,20.3c-1.6,58-26.4,108.2-54.1,157.6c-32.3,57.5-75.7,105.7-125,150.1c-20.6,18.5-41.9,33.9-66.7,45.1
	C3602.2,1438.2,3584.6,1440.2,3563.1,1421.5z"/>
<path class="st0" d="M4198.4,1407.8c-11.3-17.4-10.1-31.8-9.1-45.7c5.1-69.5,32.4-131.1,73.6-186.9c13.2-17.9,29.7-33.6,45.2-49.8
	c9-9.4,20.3-14.9,35.1-13c10.8,14.3,12,30.6,9.9,47.8c-4.3,35.8-16.3,69.4-31.7,101.8c-21.8,45.6-53.5,84.5-89.4,120.2
	C4222.8,1391.3,4211.1,1398.2,4198.4,1407.8z"/>
<path class="st0" d="M413.4,1280.9c-4.1-25,4-47.2,8.9-69.2c13-58.3,26.2-116.6,43.2-173.8c28.5-95.8,63.8-189.3,118.3-274.4
	c29.5-46.1,61.2-91,102.1-128.3c43.4-39.6,94.2-60.1,155.3-47.8c21.5,4.4,40,13.7,53.3,30.1c39.1,48,61,101,60.5,164.4
	c-0.6,73.2-24.2,137.8-61.5,199.2c-36.1,59.5-84.6,108.3-138.9,152.1c-47.4,38.2-99.9,68.6-156.2,91.2
	c-53.6,21.6-110,36.5-165.2,54.1C427.4,1280.4,421,1280.1,413.4,1280.9z"/>
</svg>
