<?xml version="1.0" encoding="utf-8"?>
<!-- Generator: Adobe Illustrator 21.1.0, SVG Export Plug-In . SVG Version: 6.00 Build 0)  -->
<svg version="1.1" id="Layer_1" xmlns="http://www.w3.org/2000/svg" xmlns:xlink="http://www.w3.org/1999/xlink" x="0px" y="0px"
	 viewBox="0 0 4685 2545.6" style="enable-background:new 0 0 4685 2545.6;" xml:space="preserve">
<style type="text/css">
	.st0{fill:#FFFFFF;}
</style>
<title>breadpudding</title>
<path d="M1701.4,1197.4c6.5-10.1,13.1-21.5,20.9-32.1c21.7-29.9,47.8-52.8,87.5-53.6c35-0.7,63.6,22.3,69.7,59.6
	c-13.1-4.9-24.8-9.6-36.7-13.7c-39-13.6-68.7-6.7-93.6,26.6c-15.8,21.2-28.6,45.2-39.4,69.4c-28.7,63.9-36.4,132.9-44.9,201.3
	c-5.5,44.1-7.5,88.6-12.3,132.8c-1.3,11.7-5.1,24.1-11.3,33.8c-3.8,5.9-14.8,10.6-22,9.9c-11.1-1.1-16-11-15.1-22.5
	c0.6-7.8,1.9-15.5,2.6-23.2c5.3-58.7,10.5-117.5,15.5-176.3c0.5-5.3-0.9-10.7-2-22.2c-21.3,18.1-39.8,32.6-57,48.7
	c-40.1,37.4-86.9,61.4-140.1,73.6c-68.6,15.7-133,13.7-185.8-45.6c-20.2,24.2-39.1,47-58.3,69.7c-10.2,12.1-21.5,22.3-38.5,24.3
	c-25,3-38.5-5.8-42-30.9c-1.8-12.9-0.3-26.3-0.3-42.7c-22.2,5.6-37.7,16.8-53.4,28.2c-30.6,22.3-61.4,43.8-98.2,55.7
	c-50.2,16.2-83.3-3.1-91.1-55.1c-0.9-6.3-2.3-12.5-4.4-23.7c-30.4,20.3-58.3,38-85.2,57c-21.8,15.3-45.3,23-71.8,22.8
	c-40.3-0.2-66.4-17.4-74.5-57.3c-7.1-34.6-11.7-70.7-9.9-105.8c3-58.8,12.1-117.2,18.4-175.8c0.7-6.2,0.1-12.6,0.1-21.2
	c-27.7,5.7-49.2,19.6-68.4,35.5c-7.1,5.9-8.7,19.8-10.6,30.4c-17.4,94.5-22.5,190.1-24.7,286c-0.8,36.6-3,73.3-5.5,109.9
	c-0.5,7.4-3,16.3-7.9,21.2c-4.6,4.7-13.8,7.5-20.4,6.6c-4.1-0.6-8.6-9.1-10.2-14.8c-1.7-6.2-0.6-13.3-0.1-19.9
	c8.6-109.9,17.1-219.8,26.2-329.7c1.8-21.5,5.8-42.8,9.4-68.1c-12.9,3.1-20.2,4.4-27.3,6.7c-80.7,25.6-163.4,36.8-247.2,23
	c-74.3-12.2-141.1-40-185.2-107c-34.5-52.4-12.8-125.3,46.1-147.7c9.6-3.7,19.5-5.7,27.6,8.5c-5.7,5.4-11,12.6-18.1,16.8
	c-48.1,28.4-45.4,60.5-23.3,105.1c14.2,28.7,39,48.9,67.8,62.4c78.4,36.7,160.9,42.1,245.1,27.6c31.6-5.5,62.7-14.4,93.8-22.6
	c20.3-5.4,29.7-18.8,33.1-40.6c16-103.4,32.4-206.7,51.3-309.6c17.1-93.1,39.6-185.1,70.9-274.6c6.2-17.8,14.5-34.9,22.5-52.1
	c23.2-50.1,63.8-51.6,104.5-23.1c14.9,10.4,25.9,27.2,36.6,42.5c33.7,47.9,50.1,102.1,49.8,160.1c-0.8,129.8-25.2,252.6-115.1,353.5
	c-18.4,20.7-38.3,40.2-58.9,58.8c-13.1,11.8-22,24.4-24.1,42.2c-7.6,65.2-17.3,130.2-22.8,195.6c-2.5,29.5,2.5,59.8,5.7,89.6
	c1,9.6,6.1,19.2,11,27.8c12,21.1,29.9,29.9,53.3,21.5c26-9.2,51.7-20.8,75-35.5c21.5-13.5,40.4-31.5,58.6-49.4
	c8.2-8.1,14-20.1,17.4-31.4c12.7-42.5,20.8-86.7,36.5-128c21.2-56,46.2-110.7,72.9-164.3c9.5-19.1,26.7-35.8,43.6-49.6
	c24.8-20.3,54.6-18.8,82-5.6c20.1,9.7,33.5,27.6,27.9,51.8c-5,21.4-10.1,43.8-20.6,62.8c-52.4,93.8-114.9,180-196.5,251.2
	c-18.8,16.4-22.5,70.8-6.1,89.5c10.4,11.8,23.6,17.4,39,11.3c15.5-6.1,31.7-11.8,45.4-20.9c38.9-25.8,77.5-52.3,114.4-80.7
	c11.4-8.8,19.7-23.8,25.4-37.6c32.1-77.4,70-151.6,120.2-218.8c21-28.1,45.9-51.5,84.5-53.8c9-0.5,17.7-8.2,26.4-12.9
	c7.8-4.3,14.9-10.4,23.1-13.3c19.7-6.8,34.5,5.3,29.2,25.6c-7.5,28.9-17.8,57.2-27.8,85.4c-24.2,68.9-64.1,129.5-102.8,190.7
	c-12.9,20.3-12.2,25.2,1.1,44.3c23.5,33.9,58.8,40.6,95,36.5c102.9-11.8,186.8-57.7,238.9-150.1c13.9-24.6,18.7-54.2,27.5-81.6
	c1-3.1,1-6.6,1.5-9.9C1651.7,1199.2,1662,1191.7,1701.4,1197.4z M682,1124.9c34.9-20.5,53.4-48.8,72.6-75.4
	c48.6-67.5,73-144.6,83.4-226.3c9.5-74.9,1.1-147.2-39.4-212.7c-9-14.6-22-28.7-36.4-37.7c-32-19.9-59.4-11-71.9,24.4
	c-21,59.8-42.4,119.8-57.3,181.3c-19.6,80.9-33.1,163.3-48.8,245.2c-2.1,11.1-2.3,22.7-3.3,34c2.4,0.7,4.8,1.4,7.2,2.1
	c6.3-11.3,12.5-22.7,19.1-33.9c13.3-22.4,29.9-41.3,54.7-51.7c20.9-8.7,34.8-0.4,35.8,22.4c0.3,7.7-1.2,15.5-2.2,23.2
	C691.3,1052.8,687,1085.7,682,1124.9z M909,1388.9c16.7-14,29.5-21.7,38.2-32.5c48.1-59.8,97.2-119.1,131.3-188.6
	c6.2-12.7,10.6-27.3,11.2-41.2c0.4-7.9-6.9-21.4-13.4-23.4c-17.9-5.5-38.1-7.6-53.2,8.1c-10.7,11.2-20.8,23.4-28.6,36.7
	c-40.7,68.5-65,143.6-85.4,220.1C908.1,1372,909,1376.6,909,1388.9z M569.5,1203.8c22.1-12.4,39.6-21.5,56.3-31.9
	c5.2-3.3,11-9.5,12-15.1c6.5-35.9,12.1-72,17.2-108.2c0.8-5.4-2.9-11.4-4.9-18.4C614.8,1062.3,575.9,1144.7,569.5,1203.8z
	 M1148.1,1516.6c38.2-43.8,90.4-78.2,75.4-149.6C1155,1408.2,1120.8,1478.5,1148.1,1516.6z M1312.6,1170.1
	c-33.8,12.4-53.3,36.8-99.8,118.3c-16.6,29.2-17.8,33.4-14.2,52.3C1254.4,1297.7,1272.1,1230.5,1312.6,1170.1z M1275.4,1341.2
	c24-29.8,47-60.1,54.8-98.7C1297.7,1267.3,1278.5,1299.8,1275.4,1341.2z"/>
<path d="M4173.3,1381.3c-13,14.3-26.6,28.1-39,43c-19.2,23-35.7,48.5-56.6,69.9c-40.5,41.4-82.5,81.3-125.4,120.1
	c-14.5,13.1-32.7,23.6-51,30.8c-42.7,16.9-74-3.3-75.2-49c-0.7-24.1,3.5-48.5,7.3-72.5c2.5-16.1,8.2-31.8,7.2-51.3
	c-16.3,12.1-32.1,25-48.9,36.2c-53.8,35.9-109.4,68.7-171.4,88.8c-9.5,3.1-19.4,5.5-29.3,6.5c-65.6,6.3-110-23.5-116.4-89.2
	c-3.1-31.8,0.7-62.1,7.9-92.5c2.8-11.8,5-23.7,8.4-40.5c-23,0-42.7,0-62.3,0c-13.7,0-19.1,9.7-23.1,20.6
	c-13.8,37.6-27.7,75.2-41.2,113c-10.4,29.2-20.8,58.5-30.1,88.1c-5,15.8-7.9,32.4-11.9,48.5c-1.8,7.4-1.8,17.3-6.6,21.6
	c-6.6,5.9-17.3,11.1-25.7,10.4c-12.5-1.1-14.1-13.7-11.6-23.7c4.8-19.4,10.9-38.6,17.5-57.4c22.7-64,46-127.8,68.7-191.8
	c3.2-9.1,4.9-18.8,8-31c-16.1-5-30.2-8-43.1-13.8c-20.2-9-40-19.1-59-30.3c-11-6.5-19.3-16.5-9.9-30.5c7.5-11,21.3-12.5,34.9-0.8
	c20.5,17.7,45.4,23.1,70.2,29c22.8,5.4,26.2,4.1,33.8-19.6c18.7-58.3,35.8-117.1,54-175.6c9.3-29.8,19.7-59.2,29-88.9
	c1.9-5.9,1.4-12.5,2.6-24.4c-19.1,5.6-34.1,10.1-55.1,16.3c17.9-14.9,30.8-26.8,44.9-37.1c17-12.4,29.2-26.7,31.4-48.7
	c0.6-6,5.4-12.4,10-16.9c10.1-9.8,22.5-10,33.8-2.9c10.6,6.7,7.4,17,3.9,26.8c-12.1,33.5-24.4,66.9-35.9,100.6
	c-16.2,47.4-31.9,94.8-47.4,142.4c-10.4,31.7-20.2,63.7-29.8,95.6c-3.2,10.5-5.1,21.3-7.5,31.5c43.9,21,77.2,9.3,96.7-31.3
	c23.3-48.7,54.2-91.9,93.7-129c28.7-27,60.2-34.9,98.1-22.3c49.1,16.3,64.9,68.7,33.3,109.7c-39.5,51.2-94.4,76.4-153.9,94.5
	c-9.6,2.9-19.1,6.6-29,7.8c-32.1,3.9-46.4,23.8-49.1,53.6c-2.9,30.9-7.7,62.1-5.7,92.7c2.7,43.1,33.8,65.2,76.7,57.1
	c48.7-9.3,92.6-31.4,134.4-57c26.5-16.2,52.6-33.6,77.3-52.5c47.6-36.5,84.3-81.9,108.3-137.4c8.4-19.4,18.3-38.2,28.8-56.6
	c11.4-19.8,23.9-24.6,37.6-16.6c13.4,7.8,13.8,19.1,2.5,39.8c-26.1,47.7-53.8,94.7-77.1,143.8c-20.5,43.2-33.6,89.5-39.5,137.4
	c-0.7,5.5-0.7,11.2-0.4,16.7c1.4,24,14.7,33.3,35.5,20.4c28.2-17.5,56.5-36.4,80.2-59.5c44.6-43.5,87.3-89.1,128.1-136.2
	c33.5-38.6,63.2-80.4,94.6-120.9c3.4-4.4,6.1-9.4,9.8-13.4c8.8-9.5,19.4-10.3,30.4-4.4c11.8,6.4,9,17.1,5.8,26.5
	c-11.7,34.8-25.2,69.1-36.1,104.2c-11.5,37.4-17.2,76.1-13,115.3c3.6,33.6,15.8,47,49,46.8c25-0.2,51.1-5.3,74.5-14.1
	c51.1-19.2,99.5-44.5,141.9-79.8c48-39.9,85.8-87.1,106.4-146.7c6.7-19.5,11.9-38.5-11.1-52.7c-5.8-3.6-8.8-12.7-11.5-19.9
	c-5.3-14-2.7-26.8,10.9-34.8c12.5-7.3,27.3-9.5,36.7,2.6c8.4,10.7,15.2,24.7,17.2,38c7.7,53.8-11.2,102.9-41.4,144.3
	c-42,57.6-90.2,110.8-155.2,144.7c-50.3,26.2-99.3,56-158,59.7c-13.2,0.8-26.7,0.5-39.9-1.1c-28.4-3.4-45.5-20.2-54.6-47.2
	c-14.6-43.4-5.1-85.8,3.7-128.3c2.9-14,5.9-27.9,8.9-41.8C4177,1383.5,4175.2,1382.4,4173.3,1381.3z M3564.7,1319.5
	c4.7,1.2,8,3.3,10.8,2.6c42.4-9.9,82.5-26,118.5-50.1c12.3-8.2,22.1-21.9,29.8-35c8-13.5,4.5-27.7-7.7-38.9
	c-19.7-18-49.5-18.1-72.3,2.2c-32.6,29-58.3,63.5-76.7,103.2C3565,1308.2,3565.5,1313.9,3564.7,1319.5z"/>
<path d="M2086.1,1151.2c19.2-2.5,35.4-4.8,51.6-6.5c16.6-1.8,33.2-4.2,49.8-4.2c73.6-0.2,108.7,30.1,110.7,103.5
	c1.4,49.7-6,99.7-9.4,149.6c-1,14.7-2,29.5-3,44.2c2.8,0.9,5.6,1.9,8.3,2.8c45.1-62.6,90.5-124.9,135.2-187.8
	c44.4-62.6,83.4-129.5,137.1-184.1c21.9,12.6,27.2,26.9,18,42.6c-19.9,34-24,71.9-27.1,109.3c-4.1,50.8-4.1,102-6.1,158.6
	c44.9-11.6,85-34.8,128.8-9.1c-11.3,15.4-27.8,15.8-41.3,21.8c-2.8,1.2-6.8-0.4-9.9,0.4c-77.4,20.4-78.4,29.4-73.7,96.7
	c7.8,112.3,10.1,224.9-5.2,337c-4.2,30.8-6.6,62.3-14.8,92c-7.9,28.6-22.1,55.4-34.1,82.8c-2.1,4.9-6.4,9.1-10.3,12.9
	c-26.9,25.9-59.7,18.3-69-17.8c-8.1-31.2-13.6-63.2-17.6-95.2c-11-89.7-18.9-179.7,2.7-269.1c16.9-70,42.4-136,91.8-190.3
	c15.9-17.4,19.9-36.5,19-60.8c-2.1-55.5,1.3-111.3,2.4-166.9c0.2-7.5,0-15.1-5.3-26c-10.6,13.2-22.2,25.7-31.6,39.6
	c-54.3,80.2-107.8,160.9-162.4,240.9c-9.3,13.6-21.9,24.9-33.7,36.6c-9.3,9.2-20.4,13.8-33.3,6.5c-13-7.3-19.4-18.8-17.8-33.2
	c2.2-19.9,5-39.8,9.1-59.4c11.9-56.9,19.5-114,15.8-172.3c-3-45.8-20.8-65.4-66.7-65.7c-30.9-0.2-61.9,5.1-92.8,8.4
	c-19.2,2.1-28.9,13.5-32.5,32.5c-18.2,95-37.2,189.9-55.4,284.9c-2.5,13-1.4,26.6-2.3,40c-0.5,7.7-0.1,16-2.8,22.9
	c-4,10.2-9.1,21.6-23.8,18.4c-13.3-2.9-13.3-14-12-23.9c5.5-41.9,10.3-83.9,18-125.4c13.3-71.1,28.6-141.8,42.9-212.8
	c0.8-4.1,0.1-8.5,0.1-16.9c-28,7-52.1,17-75.9,27.3c-13.6,5.9-26.6,15.7-37.7-1.7c-7.5-11.7,1.4-26.6,22.1-34.7
	c24.8-9.7,50.2-18,75.7-25.6c20-5.9,31.8-16.1,35.9-38.3c10.6-58,23.9-115.5,35.5-173.3c2.6-13,2.4-26.5,3.8-39.7
	c1-8.7,0.3-18.8,4.6-25.6c3.9-6.2,14.3-13.2,20.3-12c5.9,1.2,14.1,12.4,13.8,18.9c-1.2,22.1-4.6,44.3-9.1,66
	c-10.6,51.2-22.4,102.1-33.4,153.2C2087.3,1131.3,2087.2,1139.9,2086.1,1151.2z M2518.6,1481.6c-2.4-0.9-4.8-1.9-7.3-2.8
	c-8.7,11.2-20,21.2-25.7,33.7c-14.8,32.3-30,64.8-39.8,98.8c-32.7,112.4-19.2,225,3,337.2c2.2,10.9,9.8,20.7,18.2,37.9
	c10.9-16.9,20.7-26.8,24-38.4c9.1-32,17.9-64.5,22.4-97.5c15.8-116.3,13.2-233.2,8.5-350C2521.7,1494.2,2519.8,1487.9,2518.6,1481.6
	z"/>
<path d="M3139.1,1210.5c25-14,47.7-26.6,70.3-39.2c1.6,2.1,3.2,4.1,4.8,6.2c-12,11.6-23.8,23.3-36.1,34.6
	c-41.8,38.6-43.1,24.7-28.8,90.8c9.9,45.7,22,91,29.7,137c9.7,58.6,11.4,117.7-8,175.1c-5.2,15.4-13.4,30.8-23.8,43.1
	c-22.8,27.1-64.7,25-87.7-2.4c-27.7-33-36.9-73.5-42.7-114.1c-5.9-40.6-10-81.4-1.2-122.9c11.2-52.8,25.4-103.4,62.7-144.5
	c12.6-13.8,17.7-29.6,16.5-48.7c-1.4-23.1-2-46.6,0.5-69.6c8-75.3,98.6-154,187.1-121.2c15.2,5.6,32,13.5,41.9,25.5
	c18.2,21.9,32.3,47.3,47.2,71.8c5.7,9.4,5,20-6,26c-11.9,6.5-18.2-1.3-23.9-10.6c-6.3-10.5-13.5-20.4-19.9-30.8
	c-22.4-36.7-55.2-56.1-97.8-50.5c-45,6-74.5,32.4-83.8,78.7C3136,1165.3,3128.5,1185.6,3139.1,1210.5z M3106.4,1299.2
	c-3.8-0.4-7.6-0.8-11.3-1.1c-11,23.8-24.6,46.7-32.5,71.5c-22.6,71.3-16.1,142.7,5.6,213.1c3.9,12.6,10.1,24.9,17.7,35.6
	c5.3,7.4,15.9,17.2,22.3,16c8.5-1.6,17.6-11.6,22.2-20.2c6.1-11.5,9.6-24.9,11.7-37.9c8.3-52.1,4.4-104-7-155.3
	C3126,1380.3,3116,1339.8,3106.4,1299.2z"/>
<path class="st0" d="M682,1124.9c5.1-39.2,9.3-72.1,13.5-105.1c1-7.7,2.5-15.5,2.2-23.2c-1-22.7-14.9-31.1-35.8-22.4
	c-24.8,10.3-41.4,29.3-54.7,51.7c-6.6,11.1-12.7,22.6-19.1,33.9c-2.4-0.7-4.8-1.4-7.2-2.1c1.1-11.4,1.2-22.9,3.3-34
	c15.8-81.8,29.3-164.2,48.8-245.2c14.9-61.5,36.2-121.5,57.3-181.3c12.5-35.4,39.8-44.3,71.9-24.4c14.4,9,27.4,23,36.4,37.7
	c40.4,65.5,48.8,137.8,39.4,212.7c-10.3,81.7-34.7,158.9-83.4,226.3C735.4,1076.1,716.9,1104.4,682,1124.9z"/>
<path class="st0" d="M909,1388.9c0-12.3-0.9-16.9,0.1-20.9c20.5-76.5,44.7-151.6,85.4-220.1c7.9-13.2,18-25.5,28.6-36.7
	c15.1-15.7,35.2-13.6,53.2-8.1c6.6,2,13.8,15.5,13.4,23.4c-0.7,13.9-5,28.5-11.2,41.2c-34.1,69.5-83.2,128.8-131.3,188.6
	C938.5,1367.2,925.8,1374.9,909,1388.9z"/>
<path class="st0" d="M569.5,1203.8c6.4-59.1,45.3-141.4,80.6-173.7c2,7,5.7,13,4.9,18.4c-5.1,36.2-10.6,72.3-17.2,108.2
	c-1,5.7-6.8,11.9-12,15.1C609.1,1182.2,591.7,1191.4,569.5,1203.8z"/>
<path class="st0" d="M1148.1,1516.6c-27.4-38.1,6.8-108.4,75.4-149.6C1238.6,1438.4,1186.3,1472.8,1148.1,1516.6z"/>
<path class="st0" d="M1312.6,1170.1c-40.5,60.4-58.2,127.6-114,170.6c-3.6-19-2.4-23.2,14.2-52.3
	C1259.3,1206.9,1278.8,1182.6,1312.6,1170.1z"/>
<path class="st0" d="M1275.4,1341.2c3.1-41.5,22.3-73.9,54.8-98.7C1322.4,1281.2,1299.4,1311.4,1275.4,1341.2z"/>
<path class="st0" d="M3564.7,1319.5c0.8-5.6,0.3-11.3,2.4-15.9c18.4-39.7,44.1-74.2,76.7-103.2c22.7-20.3,52.6-20.2,72.3-2.2
	c12.2,11.1,15.7,25.3,7.7,38.9c-7.7,13.1-17.5,26.7-29.8,35c-36.1,24.1-76.2,40.2-118.5,50.1
	C3572.7,1322.8,3569.4,1320.7,3564.7,1319.5z"/>
<path class="st0" d="M2518.6,1481.6c1.2,6.3,3.1,12.5,3.4,18.8c4.7,116.9,7.3,233.8-8.5,350c-4.5,32.9-13.3,65.4-22.4,97.5
	c-3.3,11.7-13.1,21.5-24,38.4c-8.4-17.1-16-27-18.2-37.9c-22.2-112.2-35.7-224.8-3-337.2c9.9-33.9,25.1-66.5,39.8-98.8
	c5.7-12.5,17-22.5,25.7-33.7C2513.8,1479.8,2516.2,1480.7,2518.6,1481.6z"/>
<path class="st0" d="M3106.4,1299.2c9.6,40.6,19.6,81.1,28.6,121.8c11.4,51.3,15.3,103.1,7,155.3c-2.1,13-5.6,26.4-11.7,37.9
	c-4.6,8.6-13.7,18.6-22.2,20.2c-6.4,1.2-17-8.6-22.3-16c-7.6-10.7-13.8-23.1-17.7-35.6c-21.6-70.4-28.1-141.8-5.6-213.1
	c7.8-24.8,21.5-47.7,32.5-71.5C3098.9,1298.4,3102.7,1298.8,3106.4,1299.2z"/>
</svg>
