<?xml version="1.0" encoding="utf-8"?>
<!-- Generator: Adobe Illustrator 21.1.0, SVG Export Plug-In . SVG Version: 6.00 Build 0)  -->
<svg version="1.1" id="Layer_1" xmlns="http://www.w3.org/2000/svg" xmlns:xlink="http://www.w3.org/1999/xlink" x="0px" y="0px"
	 viewBox="0 0 4685 2545.6" style="enable-background:new 0 0 4685 2545.6;" xml:space="preserve">
<style type="text/css">
	.st0{fill:#FFFFFF;}
</style>
<title>breadpudding</title>
<g>
	<path d="M1672.8,1610c6.4-11.9,13.3-23.6,19.1-35.8c11.6-24.5,27.8-45,48.7-62c37.1-30.2,81.1-17.3,89.4,29.6
		c9.6,54.1,13.6,109.2,20.4,163.9c4.6,36.8,8.8,73.7,15.5,110.1c2.6,13.9,11.6,26.6,18,40.5c17-4.3,17.8-17.1,21.7-27.4
		c37.8-98.3,83.4-192.4,153.4-272.4c38.1-43.5,81.1-80.9,138.4-97.7c26.6-7.8,53.4-5.7,77.3,6.5c32.4,16.6,41.7,47.7,37.6,81.3
		c-6.7,54.7-15.1,109.6-51.3,154.8c-39.2,93.8-114.4,156.1-191.6,215.8c-24.6,19-56,29.3-84.3,43.6c-4.6,2.3-9.2,4.5-15.2,7.5
		c4.6,39.3,29.7,61.3,61.8,74.5c41,16.8,84.9,18.1,128.4,12.7c68.6-8.5,135-26.7,200.4-49.1c28.8-9.9,48.2-24.2,57.6-56.2
		c18-61.4,51.1-116.5,85.2-170.1c31.3-49.1,65.4-96.5,100.4-143.1c20.8-27.7,44.8-53.3,69.1-78.1c31.1-31.8,64.3-61.5,96-92.8
		c36-35.5,72.5-41.6,130.6-13.9c35.3,16.8,48,43.5,44.1,79.4c-2.2,19.7-6.5,40.1-14.5,58.2c-25.7,58.3-55.4,114.6-95.3,164.7
		c-15.7,19.8-35.2,36.7-52.6,55.1c-16.1,17-16.5,24.1-6.4,45.3c17.8,37.4,53.1,50.8,103.7,36.8c68.3-18.9,125.9-57.4,179.4-104.1
		c71.1-62,127.1-135.9,182.6-211.1c63.2-85.7,109.9-181,163-272.6c9.5-16.3,16-34.3,25.2-50.7c11.4-20.4,27-18.6,46.9-8.9
		c17.6,8.6,21.9,22.2,11.7,43.1c-69.1,141.2-100.9,294.6-145.1,443.8c-17,57.6-29.6,116.4-39.8,176.7c15-28.2,30.4-56.2,44.8-84.6
		c32-63.3,63.6-126.8,95.1-190.3c17.8-36,34.7-72.5,53-108.2c9.1-17.8,19.4-35.1,31.2-51.3c33-45.4,65.2-91.5,101.2-134.5
		c18.7-22.4,43.9-39.9,67.8-57.3c22.6-16.4,48.4-20.3,75.5-9.3c23.9,9.6,33.4,19.6,30.8,45.2c-3.7,36.8-9.6,73.6-16.9,109.9
		c-6.6,33-16,65.5-25,98c-6.8,24.5-15.3,48.4-22.4,72.8c-16.5,56.6-32.7,113.4-44.7,172.2c9.8-14.4,21.7-27.8,28.9-43.4
		c34.5-74.8,85.9-138.4,134.3-203.9c33.4-45.1,68.9-88.9,106.5-130.5c15-16.6,37.3-27.5,57.7-38.2c17.6-9.2,44.8,5.3,51,25.6
		c2.7,8.9,4.5,19.3,2.8,28.2c-5.3,28-11.9,55.8-19,83.4c-12.6,49.1-29,97.4-38.2,147c-9.6,52-10.2,104.6,2.5,157.7
		c10,41.7,33.3,71.6,68.3,90.7c24.2,13.3,49.9,25.1,78.7,31c68.5,14,135,2.3,201.9-7.3c65.8-9.5,127.1-31.9,184.2-66
		c7.2-4.3,14.5-8.8,20.5-14.6c10.5-10.1,22.5-10.9,35.5-8.5c12,2.2,22.9,6.6,26.2,19.9c3.6,14-1.6,24.8-13.7,32.6
		c-4.4,2.9-8,7.5-12.8,9.4c-66,27.5-127.1,67.4-198.6,80.7c-66.7,12.4-134.2,25-202,19.4c-59.7-4.9-119.8-13.5-171.4-50.2
		c-64-45.6-92.9-107.7-92.8-185.1c0.1-92.4,19.6-181,51-267.5c4.1-11.4,5.6-23.9,8.3-35.8c-2.1-1.4-4.2-2.7-6.2-4.1
		c-12.2,10.7-26.5,19.7-36.2,32.4c-32.2,42-63.4,84.8-93.8,128.1c-26.7,38-55,75.4-76.9,116.1c-50.2,93.3-105.3,184.3-142.9,284
		c-3.4,8.9-8.3,17.6-9.7,26.8c-4.7,32.7-23.8,53.2-54.5,66.9c-6.6-2.9-14.4-6.3-22-9.7c-13.8-6.2-18.5-17.7-15.3-31.4
		c11.9-50.4,23.2-101.1,37.2-151c21.2-75.5,44.7-150.4,66.8-225.6c23.3-79.2,45.9-158.6,69.3-237.8c9.6-32.6,13.9-65.8,17-100.4
		c-17.5-5.7-28.7,1.6-39,10.8c-39,34.7-74,73-103.1,116.4c-26.4,39.5-52.8,79.1-76.4,120.3c-17.9,31.1-31.6,64.6-46.8,97.2
		c-34.8,74.9-69.2,150.1-104,225c-18.3,39.5-36.8,78.9-56,117.9c-7.5,15.2-16.1,30-25.8,43.8c-15.1,21.5-45.4,29.8-67.1,16.4
		c-8.1-5-14.9-18.7-15.1-28.5c-0.3-21,1.8-42.6,6.9-63c28.3-112.1,57.7-223.9,87-335.7c4.3-16.4,10.9-32.1,15.4-48.5
		c2.4-8.7,2.5-18.1,3.8-28.2c-18.2-1.6-22,11.6-27.8,20.3c-40.5,60.9-84.4,119.2-133.4,173.3c-21.9,24.2-48,44.8-73.6,65.2
		c-40.5,32.3-79.5,67.5-127.8,87.6c-32.1,13.3-65.7,26.8-99.8,30.8c-34,4-69.6-3.2-99.3-24.6c-14.4-10.4-27.7-22.4-43-34.8
		c-7.2,7-13.8,12.1-18.8,18.5c-34.1,43.4-75.2,80.1-116.1,116.6c-21.8,19.5-48.1,35-74.7,47.7c-25.7,12.3-54,10.7-79.1-5.2
		c-9.4-5.9-16.9-14.7-28.1-24.7c-20.3,6-44,11.6-66.7,19.9c-69.4,25.1-141.8,36.7-214.7,40.1c-57.6,2.7-115-7.7-162.7-44
		c-24.4-18.6-44.9-42.4-51.4-74.4c-4.8-23.7-13.6-42.3-37.5-55.2c-23.4-12.7-38.4-36.2-47.4-62.1c-15.8-45.4-21.2-92.4-24.2-140.1
		c-3.1-49.7-7.8-99.3-12.4-148.8c-0.7-7.9-4.9-15.4-9.6-29.5c-14.3,19.1-28.8,32.4-35.9,48.9c-25.5,59.2-50.4,118.8-71.6,179.6
		c-13.1,37.7-19.1,77.9-28.2,117c-5,21.7-9.9,43.4-14.6,65.2c-14.5,67.4-28.1,134.9-43.7,202c-8.9,38.2-19.6,76-32,113.2
		c-9,27.1-33,38.4-57.9,31.2c-16.2-4.7-22.7-13.5-20.1-30.2c8.4-52.3,17.7-104.4,26-156.7c7.5-47,14.2-94.2,21.5-141.3
		c2.4-15.5,5.5-31,9.1-50.5c-7,5.6-12.6,9-16.8,13.6c-39.4,42.8-77,87.3-118.3,128.2c-34.4,34.1-72.6,64.4-109.6,95.9
		c-48.1,40.9-94.9,83.7-145.5,121.3c-43.3,32.2-91.5,58.1-147.7,60.9c-62.2,3-91.6-8-115.8-74.1c-20-54.7-14.2-110.1,0.1-165.2
		c15-57.7,34.2-113.7,62.7-166.3c22.7-41.8,44.3-84.2,67.8-125.5c19.9-34.9,40.3-69.7,63.5-102.4c26.9-37.8,58.9-71.2,93.3-103.1
		c31.4-29.2,64.2-55,101.6-75.4c42.1-23.1,86.2-35.4,134.2-21.6c30.8,8.8,50.6,28.3,59,60.2c13.4,50.8,6,100.9-2.7,151.2
		c-2.9,16.6-7.2,33-10,49.7c-2.9,18-14.7,27.9-30,34.1c-14.1,5.7-27.8,1.9-38.7-7.5c-10.1-8.7-7.9-20.5-4.8-32.5
		c8.2-31.7,17.4-63.3,22.5-95.5c3.7-23.7,3.7-48.5,1.6-72.5c-2.3-25.5-27.8-41.2-57.2-37.8c-30.1,3.5-57.5,14.5-82,32.2
		c-71.6,51.7-128.7,116.7-174.7,191.8c-14.4,23.5-29.9,46.4-42.4,70.8c-22.1,43.4-45.2,86.8-62.4,132.2
		c-26.2,69.3-52.4,139.4-43.6,216c1.3,11.6,3.3,23.1,5.7,34.5c11.3,52.1,50.9,62.8,95.2,46.9c55.1-19.7,102.6-53.2,145.5-93.9
		c30.6-29.1,64.7-54.5,97.4-81.5c65.6-54.2,125.2-114.5,179.1-180.3c43.1-52.6,81.5-108.4,102.2-174.3c4.1-13.1,6.1-26.9,9-40.4
		c10.5-48.7,21.6-97.3,31.1-146.1c4.4-22.8,4.7-46.4,8.9-69.2c5.5-30,38.9-42.5,63.6-25c13.7,9.7,16.7,24.9,12.4,45.7
		c-5,24.5-8,49.4-11.9,74.1C1666.1,1608.2,1669.5,1609.1,1672.8,1610z M1966.3,1897.4c21.7-8,42.8-12.4,60.5-22.9
		c52.2-30.9,95.9-72.5,134.5-118.8c21.5-25.8,38.1-55.8,56.4-84.2c20.5-31.8,27.3-68.6,34.9-104.7c2.5-12-0.6-25.3-1.9-37.9
		c-1.2-10.9-8.1-17.9-18.9-17.8c-11.2,0.1-23.1,0.8-33.6,4.5c-38.3,13.6-65.1,43.8-90.2,72.6c-29.6,33.8-52.9,73.4-76.8,111.8
		c-14.5,23.2-26.9,48.2-36.5,73.8c-12.6,33.4-21.7,68.2-31.5,102.6C1961.5,1881.8,1964.7,1888.4,1966.3,1897.4z M2690.3,1631.8
		c-46.9,32.9-143.8,181.2-194.3,293.6c-2.6,5.8-1.6,13.3-2.6,22.7c8.5-2.8,13.8-3.6,18.2-6.1c52.4-29.9,103.7-61.2,150.7-99.6
		c17.7-14.4,21.5-27.5,20.2-48.3c-1.9-31.5-0.8-63.3,0.6-95C2683.9,1678.4,2687.4,1657.8,2690.3,1631.8z M2756.7,1715.6
		c39.2-42.5,77.6-161.4,62.9-190.4c-31.7,26.5-39.2,38.8-57.2,109.3C2755.9,1659.9,2749.3,1686.5,2756.7,1715.6z"/>
	<path d="M1123.6,695.6c-30.5,15.1-46.1,42.9-64.8,66.6c-36.8,46.6-67,97.7-92.6,151.4c-15.9,33.4-33.4,66.1-48.4,99.8
		c-15.2,34.2-24.9,70.3-19.9,108.2c2.2,16.5,6.5,33.4,13.2,48.6c9.7,21.9,45.3,37.7,71.1,29.2c41.2-13.4,83-27,121.1-47.1
		c59.9-31.6,117-68.4,175-103.4c16.3-9.8,31.7-21.1,47.2-32c14.8-10.4,22.4-25.2,23.3-43.2c2.7-49.6,18.3-95.2,40.2-139.4
		c16-32.2,27.5-66.8,44.7-98.2c41.6-76,95.7-142.6,161.4-199.1c17.4-15,38.8-25.7,59.1-37.1c28.9-16.3,59.8-10.6,89.7-4.2
		c18.4,4,31.2,31.8,28.8,54.2c-6.7,62.8-30.4,118.8-69.1,167.9c-45.8,58-93.7,114.5-147.4,165.4c-40.6,38.4-82.6,75.3-125.3,111.2
		c-14.5,12.2-17.5,25.5-15.4,42c6.5,49.7,37.5,75,88.1,77.8c49.6,2.7,93.7-14.6,138.4-31c74.7-27.5,143.8-65.7,212.2-106.3
		c96.1-57.1,175.1-133.1,249.5-214.7c34.6-38,57.9-83.5,81.7-128.5c2.3-4.4,2.3-10,3.7-16.4c-8.7-5.4-18.5-8.7-24.1-15.6
		c-6-7.4-11.8-18.3-11-27c1-11.5,12.2-14.8,24.3-15.4c13.5-0.6,27-3.4,40.1-6.7c23.7-5.9,44.8-0.2,54,15.7
		c8.9,15.4,4.1,32.9-10.9,51.9c-13.1,16.5-24.5,34.4-35.7,52.2c-12.4,19.6-23.4,40.2-35.7,59.8c-41.9,67-95.2,123.5-155.6,174.4
		c-44.6,37.6-88,76.5-138.8,105.7c-63.3,36.3-122.6,79.9-191.4,106c-58.2,22-114.7,49.4-179,52.6c-36.7,1.9-72-1.1-106.4-12.9
		c-31.3-10.7-48-36.9-62-64.9c-4.6-9.3-8.8-18.7-13-27.5c-34.5,22.7-66.3,45.2-99.6,65.2c-71.7,43.1-143.3,87.6-222.4,115.4
		c-56.8,20-115.3,19.7-163.9-25.4c-38.7-35.9-40.1-82.5-32.9-129.9c10.5-69.3,43.8-130.2,76.2-190.9c19.9-37.4,43.5-72.8,65.1-109.3
		c37.6-63.7,87.9-116.6,141.4-166.7c16.5-15.5,36.7-25,60-26.8c13.7-1,22.1,5.2,27.2,17.2c11.2,26.5-3.6,79.4-27.8,94.8
		c-5.1,3.2-14.2,3-20.3,0.9C1139.1,707.5,1132.5,701.4,1123.6,695.6z M1428.4,931.4c12-9.5,23.4-16.9,32.9-26.2
		c41.4-40.8,83.3-81,122.8-123.6c40.3-43.4,80.6-87.6,103.1-143.7c9-22.3,16.1-45.7,20.4-69.3c2.9-16.1-7.7-23.8-23.4-19.4
		c-9.9,2.8-20.1,7.7-28.1,14.1c-54,43.3-103.5,91.2-139.1,151.1c-23.8,39.9-46.9,80.5-65.8,122.9
		C1438.7,865.5,1424.3,894.9,1428.4,931.4z"/>
	<path d="M566.4,922.1c-5.5,4.4-12.8,7.8-16.2,13.5c-30.9,52.4-71,97.4-112.8,141c-11,11.4-22.8,22.1-34.9,32.4
		c-50.1,42.7-102,82.1-164.8,105.8c-40.5,15.3-81.3,21.9-123.9,19.9c-23.9-1.1-40.5-17.3-58.3-30c-9.7-7-7.2-26.2,0.9-38.2
		c7.7-11.4,16.7-10.1,27.6-5.2c15.1,6.8,30.6,13,46.3,18.4c32.5,11.2,63.6,1,92.7-11.2c30.9-13,59.1-31.9,89.9-46
		c22.1-10.1,39.9-31,58-48.6c64.8-63.1,121.5-133.3,166-211.7c63.5-111.7,96.9-234.4,118.8-360.3c2.7-15.6,2.4-31.8,5.1-47.4
		c4.2-23.6,15.7-31.5,40.3-29.8c23.5,1.6,38.7,16.1,39,37.6c0.1,5.2-0.6,10.6-1.9,15.7c-25,100.6-52.1,200.6-74.6,301.7
		c-16.3,73.1-26.8,147.5-39.3,221.4c-14.4,84.6-28.7,169.3-41.7,254.1c-3.4,21.8-1.5,44.4-2.5,66.7c-1.3,28.6-16.5,42.4-44.9,41.5
		c-22.1-0.7-31-9.1-30.3-31.3c0.5-13.7,3.8-27.2,5.7-40.9c4.5-33.6,7.8-67.4,13.7-100.8c11-62.5,23.5-124.6,35.2-187
		c4.8-25.8,9-51.8,13.5-77.7C570.8,924.6,568.6,923.3,566.4,922.1z"/>
	<path d="M697,210.6c1.8-3,3.5-8.2,6.9-11.5c18.3-17.4,45.7-16,61.2,4.2c7.5,9.8,13.3,21.5,17.3,33.3c5.3,15.6-11.4,35-26,28.7
		c-22.8-9.8-44.8-22.7-56.9-46.6C698.5,216.8,698.2,214.7,697,210.6z"/>
	<path class="st0" d="M1966.3,1897.4c-1.6-9.1-4.8-15.6-3.3-20.8c9.8-34.4,19-69.2,31.5-102.6c9.6-25.6,22.1-50.6,36.5-73.8
		c23.9-38.4,47.2-78,76.8-111.8c25.1-28.8,52-59,90.2-72.6c10.4-3.7,22.3-4.4,33.6-4.5c10.8-0.1,17.8,6.9,18.9,17.8
		c1.4,12.6,4.4,25.9,1.9,37.9c-7.6,36.1-14.4,72.8-34.9,104.7c-18.3,28.4-34.9,58.4-56.4,84.2c-38.6,46.3-82.3,87.9-134.5,118.8
		C2009.1,1885,1987.9,1889.5,1966.3,1897.4z"/>
	<path class="st0" d="M2690.3,1631.8c-2.9,25.9-6.4,46.6-7.3,67.3c-1.3,31.6-2.5,63.4-0.6,95c1.3,20.8-2.5,33.9-20.2,48.3
		c-47.1,38.4-98.3,69.7-150.7,99.6c-4.4,2.5-9.7,3.3-18.2,6.1c1-9.4,0-16.8,2.6-22.7C2546.5,1813,2643.3,1664.8,2690.3,1631.8z"/>
	<path class="st0" d="M2756.7,1715.6c-7.4-29.1-0.8-55.7,5.7-81.1c18-70.5,25.5-82.8,57.2-109.3
		C2834.3,1554.1,2795.9,1673.1,2756.7,1715.6z"/>
	<path class="st0" d="M1428.4,931.4c-4.1-36.5,10.2-65.9,22.8-94.2c18.9-42.3,42-83,65.8-122.9c35.7-59.9,85.1-107.8,139.1-151.1
		c8-6.4,18.1-11.4,28.1-14.1c15.7-4.4,26.4,3.3,23.4,19.4c-4.3,23.6-11.5,47-20.4,69.3c-22.5,56.1-62.8,100.3-103.1,143.7
		c-39.5,42.6-81.5,82.8-122.8,123.6C1451.8,914.5,1440.5,921.9,1428.4,931.4z"/>
</g>
</svg>
