<?xml version="1.0" encoding="utf-8"?>
<!-- Generator: Adobe Illustrator 21.1.0, SVG Export Plug-In . SVG Version: 6.00 Build 0)  -->
<svg version="1.1" id="Layer_1" xmlns="http://www.w3.org/2000/svg" xmlns:xlink="http://www.w3.org/1999/xlink" x="0px" y="0px"
	 viewBox="0 0 4000 3733.1" style="enable-background:new 0 0 4000 3733.1;" xml:space="preserve">
<style type="text/css">
	.st0{fill:#E9DD79;}
	.st1{clip-path:url(#SVGID_2_);fill:#A4B8D6;}
	.st2{clip-path:url(#SVGID_4_);fill:#BCBEC0;}
	.st3{clip-path:url(#SVGID_6_);fill:#8DC63F;}
	.st4{clip-path:url(#SVGID_8_);fill:#8DC63F;}
	.st5{clip-path:url(#SVGID_10_);fill:#8DC63F;}
	.st6{clip-path:url(#SVGID_12_);fill:#8DC63F;}
	.st7{clip-path:url(#SVGID_14_);fill:#8DC63F;}
	.st8{clip-path:url(#SVGID_16_);fill:#8DC63F;}
	.st9{clip-path:url(#SVGID_18_);fill:#A4B8D6;}
	.st10{clip-path:url(#SVGID_20_);}
	.st11{clip-path:url(#SVGID_22_);}
	.st12{clip-path:url(#SVGID_24_);fill:#8DC63F;}
	.st13{clip-path:url(#SVGID_26_);fill:#8DC63F;}
	.st14{clip-path:url(#SVGID_28_);fill:#8DC63F;}
	.st15{clip-path:url(#SVGID_30_);}
	.st16{clip-path:url(#SVGID_32_);}
	.st17{clip-path:url(#SVGID_34_);fill:#A4B8D6;}
	.st18{clip-path:url(#SVGID_36_);}
</style>
<rect class="st0" width="4000" height="3733.1"/>
<g>
	<g>
		<g>
			<defs>
				<rect id="SVGID_1_" x="718.5" y="652.6" width="2562.9" height="2544"/>
			</defs>
			<clipPath id="SVGID_2_">
				<use xlink:href="#SVGID_1_"  style="overflow:visible;"/>
			</clipPath>
			<path class="st1" d="M2455.7,1593.6c-59.3-24.8-119.6-46.8-180.9-66.1c-0.2-2.4-0.6-4.9-0.8-7.3c57-1,114.1-1,171,4.7
				c17.9,3,35.8,6.7,53.5,11.4c9.8,2.7,19.4,5.5,29.1,8.5c2.8,0.9,5.7,2,8.5,2.9c16.7,10.8,36.9,19.3,54.1,29.7
				c1.6,1.5,3.3,2.7,4.9,4.2c8.7,8,16.9,16.4,24.8,25.2c1.2,1.3,2.1,2.4,3,3.4c6.5,9.8,13,19.4,18.8,29.5c5.1,8.8,10,17.8,14.5,26.9
				c1.6,3.1,3,6.3,4.5,9.4c1.4,4,2.8,8,4.2,12C2596.5,1652.5,2524.9,1622.4,2455.7,1593.6 M2567.7,2064.8
				c-9.1,10.9-18,21.8-27.5,32.3c-41.1,46.2-86.4,87.4-134,126.7c-3.8,2.8-7.7,5.7-11.5,8.5c-13,9.3-26.2,18.5-39.4,27.3
				c-6.6,4.4-13.4,8.7-20,12.9c-6.6-27.6-17.2-54.6-31.4-79.4c-32.9-58.3-75.5-113.1-121-162.1c-27.3-29.4-57.3-56.4-89-81.5
				c-2.9-30.4-7.2-60.7-12.7-90.6c-0.6-3.4-1.4-6.9-2.1-10.2c125.4,67.5,231.1,165.2,308,285.2c4.4,6.9,15.5,0.6,11.1-6.4
				c-69.9-109.2-163.4-200.4-273.8-267.5c23.3,6.7,46.4,14,69.4,21.4c-0.1,3.3,1.9,6.5,6,6.5c2.6,0,4.1-1.3,5-2.8
				c41.6,13.7,82.6,28.6,123.1,44.8c6.3,2.6,36.4,17.1,9.8,3.8c-26.8-13.4,3.5,1.5,9.5,4.2c19,8.3,37.8,16.9,56.5,25.8
				c35.7,16.9,71,34.9,105.7,53.9c22.1,12.1,43.9,24.5,65.5,37.6C2572.7,2058.4,2570.3,2061.6,2567.7,2064.8 M1873.1,1205.4
				c-6.3,6.3-12.3,13.5-17.8,21.1c-18.8-4.7-37.7-8.6-56.8-11.5c-31.9-5-63.9-9.7-95.6-10.9c22.9-12.6,46.1-24.3,69.6-35.9
				c24-11.7,48-23.3,72.2-34.1c4.7-2.1,9.2-4.1,13.8-6c9.7-3.8,19.3-7.8,29-11.4c45.8-17,92.5-30.4,140.5-39
				c42.7-3.7,85.3-3.4,127.9,0.6c43.7,7.6,86.5,18.6,128.4,33c12.1,4.2,24.1,8.8,36.1,13.4c2.8,1.3,5.8,2.6,8.6,3.8
				c21.8,10.1,43,20.9,64.2,32.3c-130.4-4.1-261.2,8.3-391.9-8.5C1958.6,1146.8,1901.9,1176.6,1873.1,1205.4 M1451.9,2394
				c0.8,0.5,1.6,0.8,2.4,1.3c2.8,2.2,5.8,4.4,8.5,6.7c0.3,0.2,0.6,0.6,0.9,0.7C1467.4,2406.6,1465.9,2407.3,1451.9,2394
				 M3205.3,1545.9c-93.4-250.5-275.2-449.8-487.6-606.9c-124-91.8-267.3-163.7-417.8-199.7c-32.5-37.2-78.7-61.3-132.5-59.6
				c-20.7,0.6-41.1-0.2-61.4-2.2c-66.9-10.8-134.1-25.4-201.9-24.8c-68.6,0.6-140.2,12.7-204.7,36.5c-135,50-248,129.8-357.9,221.7
				c-188.2,157.4-378,338.6-478.5,566.6c-56.1,127.4-90,258.3-114,395c-12.9,73.9-34.5,154.2-29.4,229.1c6,86.8,39.3,162,83.4,235.7
				c120,200.4,288.2,368.5,483,496.6c183.1,120.5,396.9,204.6,614,236.2c258.9,37.8,540.6,27.1,772.3-107.7
				c115.5-67.2,208.8-160.4,288.1-266.6c79.1-105.8,129.2-228.7,173.3-352.4c43.6-122.4,88.6-245.9,107.2-375
				C3261.3,1825.9,3256.1,1682.2,3205.3,1545.9"/>
		</g>
	</g>
	<g>
		<g>
			<defs>
				<rect id="SVGID_3_" x="718.5" y="652.6" width="2562.9" height="2544"/>
			</defs>
			<clipPath id="SVGID_4_">
				<use xlink:href="#SVGID_3_"  style="overflow:visible;"/>
			</clipPath>
			<path class="st2" d="M1131.7,3190c-4.1,0-4.1,6.4,0,6.4C1135.8,3196.4,1135.9,3190,1131.7,3190"/>
		</g>
	</g>
	<g>
		<g>
			<defs>
				<rect id="SVGID_5_" x="718.5" y="652.6" width="2562.9" height="2544"/>
			</defs>
			<clipPath id="SVGID_6_">
				<use xlink:href="#SVGID_5_"  style="overflow:visible;"/>
			</clipPath>
			<path class="st3" d="M956.5,1918.9c40.8,0,40.9-63.5,0-63.5C915.6,1855.4,915.6,1918.9,956.5,1918.9"/>
		</g>
	</g>
	<g>
		<g>
			<defs>
				<rect id="SVGID_7_" x="718.5" y="652.6" width="2562.9" height="2544"/>
			</defs>
			<clipPath id="SVGID_8_">
				<use xlink:href="#SVGID_7_"  style="overflow:visible;"/>
			</clipPath>
			<path class="st4" d="M1188.6,1994.5c-4.1,0-4.1,6.4,0,6.4C1192.6,2000.8,1192.6,1994.5,1188.6,1994.5"/>
		</g>
	</g>
	<g>
		<g>
			<defs>
				<rect id="SVGID_9_" x="718.5" y="652.6" width="2562.9" height="2544"/>
			</defs>
			<clipPath id="SVGID_10_">
				<use xlink:href="#SVGID_9_"  style="overflow:visible;"/>
			</clipPath>
			<path class="st5" d="M1459.9,2540.2c-31.9-37.6-62.1-76.5-98.1-110.4c-37.8-35.6-80.5-65.5-122.7-95.5
				c-74-52.6-138.4-112.6-191.7-186.3c-45.1-62.8-83.7-129.9-121.1-197.6c1.2-4.4,2-9,2.3-13.5c10.7-153.5,47.6-306.6,109.6-447.7
				c31.8-72.2,69.6-141.9,112.8-207.9c18.8-28.6,38.5-56.8,59.7-83.9c0.6-0.6,1.4-1.6,2.3-2.7c9.2,9.2,20.6,17.2,30.6,22.7
				c31.1,17.1,66.2,20.1,101,21.6c27.2,1.2,51.8,0.8,73.4,19.4c23.7,20.5,34.7,50.5,43.5,79.6c11.6,38.5,25.4,75.8,53.6,105.4
				c47.7,49.8,122.6,67,189.4,61.1c30.8-2.7,60.1-10.2,89-19.8c-46.6,34-83.7,77.6-106.3,133.6c-4.2,10.5-4.9,20.5-2.7,29.7
				c-20.5,35.4-35.1,74.1-42.7,113.8c-12.4,65-10.1,130.9,5,195.2c6.7,28.6,17.1,55.6,27.8,82.7c0.6,1.6,2.4,7.9,4.3,14.5
				c-40.8-23.8-76.7-58.3-126.3-63.4c-55-5.7-104.1,24.8-128.6,73.7c-26.3,52.3-21.5,109.7,3.3,161.6
				c24.5,51.3,67.9,90.8,98.9,138.1c59,90.1,88.5,193.7,89.1,299.8C1551.8,2645.2,1502.3,2590.4,1459.9,2540.2 M2382.1,2650.9
				c-50.7-29.2-105.6-53.5-147.3-95.6c-38.3-38.5-54.8-84.7-74.4-133.8c-21.1-53-50.9-102.5-107.5-122.6
				c-56.1-19.9-139.3-10.8-193.9,10.1c-77.2,29.7-120.4,94.8-136,168.9c-3.5,0.3-7,0.8-10.6,1.9c-0.8,0.2-1.6,0.6-2.4,0.8
				c-8.1-28.6-18.3-56.6-30-84.2c-23-53.5-53.5-102-89.7-147.7c-24.1-30.4-67.8-72.1-63.7-112c0.8-8.3,5.9-22.3,10.6-25.4
				c-4.3,2.8-1.6-2.8,7.4,0.1c9.8,3.1,20,11.7,28.3,17.6c43,30.5,85.4,58.7,141,50.9c67.8-9.4,101.7-72.9,88.4-136.9
				c-11.1-53.5-39.5-100.7-46.1-156.1c-13.1-113.2,33.5-226.4,140-275.3c27.3-12.6,34.1-39.2,27.8-63.5c12.4-5.6,24.8-10.5,36.4-15
				c33.7-13,67.5-27.2,92.1-55c33-37.2,39.8-93.9,4.4-132.5c-62.2-68.2-166.2-24.5-237.4,2.7c-59.2,22.7-145.4,61.4-206.3,20.7
				c-25.4-16.9-29.7-45.6-38.4-73c-13.5-42.8-33.6-83.5-65-116.1c-27.9-29.1-64.6-49.7-104.5-56.2c-20.1-3.4-40.4-4.2-60.7-5
				c-12.2-0.6-32.3,0.9-43.4-6c-7.9-5-14.4-18.7-21.2-25.7c-16.3-16.6-37-28-60.4-29.4c-56.3-3.5-86.9,44.7-116.9,84.3
				c-52,68.6-97.7,141.9-136.6,218.7c-84.7,168-136.7,349.4-154.7,536.2c-18.7,17.1-27.9,44.3-12.3,72.9
				c47.1,86.4,94.7,173.3,153.5,252.5c64.2,86.4,138.2,154.8,225.7,217c41.8,29.8,82.7,59.4,118.4,96.7
				c36.8,38.4,68.5,81.1,104.1,120.4c69.4,76.9,163.2,142.6,271.4,135.9c35.4-2.2,56.6-26.1,60.4-60.4c0.5-3.7,0.7-7.7,1-11.4
				c38.9,101.8,77.7,203.6,116.6,305.1c23.6,61.9,116.2,55.4,118.5-16.1c3.7-113.9-47.9-214.6-92.2-316c-32-73.4-71-180.3-7.9-248.9
				c30-32.7,83.7-34.3,125.3-33.2c37.1,1,46.4,32.2,57.9,63.4c18,48.9,38,94,70.4,135.2c31.8,40.4,71.3,72.1,115,98.8
				c67.2,40.8,225.7,99.9,195.9,205.5c-21.1,74.9,95.4,106.9,116.4,32.1C2585.9,2816,2485.5,2710.5,2382.1,2650.9"/>
		</g>
	</g>
	<g>
		<g>
			<defs>
				<rect id="SVGID_11_" x="718.5" y="652.6" width="2562.9" height="2544"/>
			</defs>
			<clipPath id="SVGID_12_">
				<use xlink:href="#SVGID_11_"  style="overflow:visible;"/>
			</clipPath>
			<path class="st6" d="M3251,1861c-93.8-47.8-209.4-80-302.7-12.4c-42.7,30.8-68.4,73.7-74.4,126c-1.5,12.3-2.7,39-6,43.7
				c-7.7,11.4-21.5,16.4-36.3,23.3c-32.8,15.2-71.1,28-101.5,52.5c-38,30.6-59.6,78.3-56.4,127.3c3.7,56.6,29.9,103.9,66,146.3
				c29.4,34.8,65.3,63.9,86.7,104.6c40.2,76.4,26.4,178.8-31.8,242.1c-52.3,57.2,32.8,142.8,85.4,85.4
				c59.3-64.7,91.9-150.3,89.4-238.2c-2.7-95.5-44.2-172.3-108.5-240.3c-26.9-28.4-62.2-59.9-66.8-101.3
				c-3.3-30.6,19.2-39.2,43.7-50.6c27.8-12.9,61.4-23.3,88.4-42.6c39.9-28.6,59.4-66.1,65-114.7c4.5-40.1,12.4-66.5,55.4-78.5
				c48.7-13.5,101,10.1,143.5,31.9C3259.3,2000.4,3320.3,1896.3,3251,1861"/>
		</g>
	</g>
	<g>
		<g>
			<defs>
				<rect id="SVGID_13_" x="718.5" y="652.6" width="2562.9" height="2544"/>
			</defs>
			<clipPath id="SVGID_14_">
				<use xlink:href="#SVGID_13_"  style="overflow:visible;"/>
			</clipPath>
			<path class="st7" d="M2358,867.5c-0.1-0.3-0.2-0.7-0.3-1.2c13.6,5.9,27.2,12,40.7,18C2380.8,885.2,2364,883,2358,867.5
				 M2935.3,1101.9c-43.9-52.1-95-97.1-149.2-138.2c-129.5-97.9-278.8-163.5-427-227.4c-25.6-24.5-71.5-29.7-94.7,10
				c-30.8,52.7-39,118.9-13.5,175.3c30.1,67.1,97.1,85.8,165.6,82.1c58.6-3.3,124.7-9.2,177.4,22c48.6,28.6,75,84.4,102.5,131.2
				c32.9,56.1,71.8,109.5,127.6,144.8c49.8,31.8,153.4,58.9,191.1-5.5C3053.1,1230.8,2974.7,1148.7,2935.3,1101.9"/>
		</g>
	</g>
	<g>
		<g>
			<defs>
				<rect id="SVGID_15_" x="718.5" y="652.6" width="2562.9" height="2544"/>
			</defs>
			<clipPath id="SVGID_16_">
				<use xlink:href="#SVGID_15_"  style="overflow:visible;"/>
			</clipPath>
			<path class="st8" d="M1779.8,1010.8c-4.1,0-4.1,6.4,0,6.4C1784,1017.2,1784,1010.8,1779.8,1010.8"/>
		</g>
	</g>
	<g>
		<g>
			<defs>
				<rect id="SVGID_17_" x="718.5" y="652.6" width="2562.9" height="2544"/>
			</defs>
			<clipPath id="SVGID_18_">
				<use xlink:href="#SVGID_17_"  style="overflow:visible;"/>
			</clipPath>
			<path class="st9" d="M2651.1,1476.7c-6.7-59.4-20.9-117.8-42.6-172.8c-31.2-79.1-71.8-149-126.8-214
				c-29.4-34.8-67-64.3-111.2-77.8c-68.7-21.1-146,5.1-184.5,66.8c-33.4,53.4-31.3,119.1-4.2,174.5c18.1,37.2,50,64.4,78.9,93.1
				c-12.6,0.5-25.4,2-38.4,4.9c-64.3,14.9-112.9,63-150.5,114.6c-63.4,87.2-75.1,201.5-57.8,304.9c9.4,56.8,31.4,110.2,60,159.9
				c5.7,17.2,15.2,33.5,29.3,47.5c0.7,0.7,1.5,1.4,2.2,2.1c6.6,9.7,13.5,19.1,20.6,28.5c9.4,82.8,33.8,165.4,76.2,231.9
				c40.7,64.2,104.2,112.9,183.2,112.8c76.9,0,140.9-47.3,179.9-110.6c35.1-56.8,45.2-121.6,53.5-186.3c2-16.1,3.7-32.1,4.9-48.3
				c56.3-54,81-134.3,87.5-213.1C2720.2,1687.2,2695.5,1577.1,2651.1,1476.7"/>
		</g>
	</g>
	<g>
		<g>
			<defs>
				<rect id="SVGID_19_" x="718.5" y="652.6" width="2562.9" height="2544"/>
			</defs>
			<clipPath id="SVGID_20_">
				<use xlink:href="#SVGID_19_"  style="overflow:visible;"/>
			</clipPath>
			<path class="st10" d="M2254.3,776.3c-0.6,55.7-18.5,135.5,40.4,169.4c81.5,47,184.1-23,263.1,35.1
				c65.4,47.9,85.8,135.7,124.9,202.6c38.5,65.8,94.3,113.1,169.4,130.6c75,17.6,170.4,27.7,230.9-30.4c5.9-5.7-3-14.7-9.1-9.1
				c-39,37.5-94.1,42.7-145.7,38.7c-49.1-3.7-102-13.8-144.5-39.5c-82.6-50.1-108.5-142.6-152.8-222.1
				c-18.4-32.9-41.1-65.5-73.2-86.3c-35.9-23.3-77.7-24.2-119.2-21.1c-52.3,4-135,20.1-164.5-38c-19.3-38.4-7.8-89-7.2-130.2
				C2267.1,768.2,2254.4,768.2,2254.3,776.3"/>
		</g>
	</g>
	<g>
		<g>
			<defs>
				<rect id="SVGID_21_" x="718.5" y="652.6" width="2562.9" height="2544"/>
			</defs>
			<clipPath id="SVGID_22_">
				<use xlink:href="#SVGID_21_"  style="overflow:visible;"/>
			</clipPath>
			<path class="st11" d="M3222.3,1869.8c-95.1-5.9-198.1-83.5-278.1,6.7c-24.9,27.9-37.2,64.3-49.3,99
				c-13.1,37.5-27.3,88.4-70,101.9c-38.7,12.2-85.4-7.2-119.5,20.7c-29.4,24.3-35.4,66.4-37.7,102.1
				c-6.6,103.5,74.3,161.4,125.6,240.9c79.9,124-21.3,245.7-24.8,374.4c-0.2,8.1,12.4,8.1,12.7,0c2.7-102.2,71.4-196.1,55.5-299.8
				c-14.5-94.9-102.7-148.3-141.9-230.5c-20.5-43.2-20-99.3-3.6-144c22-59.9,75.7-40.5,124.2-48.7c69.6-11.9,82.5-93.3,104.2-148
				c23.3-58.4,67.3-105.3,135.5-100.1c57.5,4.3,109.5,34.4,167.4,38.2C3230.4,1883.1,3230.4,1870.2,3222.3,1869.8"/>
		</g>
	</g>
	<g>
		<g>
			<defs>
				<rect id="SVGID_23_" x="718.5" y="652.6" width="2562.9" height="2544"/>
			</defs>
			<clipPath id="SVGID_24_">
				<use xlink:href="#SVGID_23_"  style="overflow:visible;"/>
			</clipPath>
			<path class="st12" d="M1198,1655.2c20.5,0,20.5-31.9,0-31.9C1177.5,1623.6,1177.5,1655.2,1198,1655.2"/>
		</g>
	</g>
	<g>
		<g>
			<defs>
				<rect id="SVGID_25_" x="718.5" y="652.6" width="2562.9" height="2544"/>
			</defs>
			<clipPath id="SVGID_26_">
				<use xlink:href="#SVGID_25_"  style="overflow:visible;"/>
			</clipPath>
			<path class="st13" d="M1183.2,1506.9c2.7,4.4,5.1,8.8,7.8,13.3c-3.8-1.3-7.8-2.2-11.7-2.8
				C1180.4,1513.8,1181.8,1510.4,1183.2,1506.9 M1259.6,1898.3c-3.8,3-7.7,6.3-11.3,9.9c0.1-5.9,0.3-12.1,0.5-18
				C1252.4,1892.9,1255.9,1895.6,1259.6,1898.3 M1199.6,2050.7c1-0.6,2-1.2,2.9-1.7c0.9,10.7,2.4,21.5,4.5,32.2
				c-2.4-2.6-4.9-5-7.3-7.6c0-1.4,0.1-2.7,0.1-4L1199.6,2050.7z M1567.9,1597.3c2,0.3,4.1,0.6,6,1c-0.8,5-1.6,10.1-2.6,15.1
				c-2.8-3.8-5.8-7.8-9.1-11.5c-2-2.3-4.1-4.7-6.2-7C1560.2,1595.8,1563.9,1596.6,1567.9,1597.3 M2449,2886.4
				c-15.5-68.4-57-127.7-106.8-175.9c-46.1-44.7-100.6-79.7-144.9-126.3c-22.1-23.1-22.2-26.3-44.4-55.1
				c-18.7-24.4-37.1-47.9-61.1-67.3c-58.2-47-137.3-62.1-204.4-23c-48.7,28.4-80.1,76.2-105.3,125.2c-6.7-1.9-13.4-3.8-19.5-5.9
				c-21.5-7.3-43.6-14.2-65.4-21.6c-35.4-28.3-69.3-58.2-101-91.4c-1.4-1.5-2.7-3-4.2-4.5c-4-4.3-8-8.6-11.9-13
				c-35-39.2-58.9-71.5-88.1-118.3c-14.2-22.7-27.5-45.9-39.5-69.7c-9.2-17.8-24.9-51.4-28.6-60.7c-4.9-11.6-9.2-23.5-13.5-35.4
				c27.6-9.2,51.2-30.9,58-60.4c4.9-21.1,8.4-43.7,8.6-66.3c34.9,33.6,87.1,49.4,134.6,36.3c28-7.8,55.6-26.6,70.4-52.1
				c12.3-21.1,13.3-47.3,17.1-70.8c8.8-53.7,17.7-107.5,26.4-161.3c8.1-49.7,16.3-99.2,24.3-148.9c10.6-64.3,25.9-133.9-40.6-174.6
				c-35.4-21.6-82.7-16.9-107.8-22.4c-38.7-8.6-62.2-17.9-95.6-44.4c5.8,4.4-13.5-12.7-12.7-12c-6.9-6.5-13.1-13.5-19.5-20.4
				c-2.6-2.7-4.1-4.4-5.1-5.5c-0.7-1.4-1.9-3.4-3.7-6.4c-4.9-8.1-10-15.9-14.5-24.3c-22.2-40.9-42-81.5-82.6-107.6
				c-96.7-62.2-213.7-8.8-273.7,76.9c-29,41.5-46.4,90.5-65.3,137.1c-20.6,51.2-39.9,102.8-56.2,155.4
				c-33.3,107.9-53.7,221.5-49.8,334.8c0.7,22,9.1,42.8,23,58.9c-3.1,67.1,30.7,126.2,75.8,178c46.6,53.5,98.1,103.4,148.2,153.7
				c51.1,51.3,103.3,101.3,158,148.7c41.4,35.9,87.6,68.6,126.9,107.5c4.5,5,9.1,10,13.5,14.8c4.4,4.8,9,9.4,13.5,14.1
				c16.5,19.8,31.8,47.6,52.9,67.5c21.2,20,46.4,32.3,72.9,42.5c50,38.3,102.1,74,153.9,109.7c32,22.1,66,43.4,101.1,61.6
				c6.5,39,15.7,77.5,27.3,115.2c10.5,33.8,46.9,69.8,85.8,65.4c129.2-15,258.6-29.9,387.9-44.9
				C2421.8,2992.3,2462.7,2947.7,2449,2886.4"/>
		</g>
	</g>
	<g>
		<g>
			<defs>
				<rect id="SVGID_27_" x="718.5" y="652.6" width="2562.9" height="2544"/>
			</defs>
			<clipPath id="SVGID_28_">
				<use xlink:href="#SVGID_27_"  style="overflow:visible;"/>
			</clipPath>
			<path class="st14" d="M3220.9,1985c-6.7-75.1-74.3-130.3-149.8-106c-62.7,20.1-95.8,82.8-117.2,140.4
				c-16.3,43.6-30,84.9-50.6,126c-0.6-0.1-0.9-0.3-1.4-0.3c-40.8-7.8-79.6-1-109.8,29.2c-28.6,28.6-41.9,71.5-32.9,111.1
				c15.6,68.9,86.4,106,153.7,93.2c-24.2,69.8-48.4,139.7-72.6,209.5c-15.7,45.4,17.9,97.4,62.1,109.5c49,13.5,93.6-16.6,109.5-62.1
				c38.4-110.9,76.8-221.7,115.2-332.6c19.2-55.5,38.4-110.9,57.6-166.3C3201,2088,3225.6,2037.3,3220.9,1985"/>
		</g>
	</g>
	<g>
		<g>
			<defs>
				<rect id="SVGID_29_" x="718.5" y="652.6" width="2562.9" height="2544"/>
			</defs>
			<clipPath id="SVGID_30_">
				<use xlink:href="#SVGID_29_"  style="overflow:visible;"/>
			</clipPath>
			<path class="st15" d="M863.3,1644.1c-4.5-119.1,62.9-224.6,131.9-316c69.7-92.4,141.2-191.1,232.1-263.7
				c48.3-38.5,103.8-66.1,153.2-102.9c44.7-33.3,87.6-69.3,137.6-94.6c26.2-13.3,54.3-21.8,80.5-34.9c27.9-14,54.1-31.1,81-46.9
				c55-32.3,107.7-49.6,171.8-51.3c56.8-1.6,113.5,4.3,170.1,8.3c62.2,4.4,124.2,8.4,186.1,17.3c125.3,18,250,50.4,364.7,104.2
				c203.2,95.5,388.3,233,495.6,433.5c60.5,112.8,116.1,230,146.9,354.8c15.6,63,24.3,127.9,21.3,192.7
				c-3.1,67.6-20.1,134.1-38.7,198.9c-37.5,131-76.1,262.1-124.6,389.3c-25.1,65.8-52.2,131.1-81.1,195.3
				c-21.3,47.3-47,73-90.1,101.9c-55.1,36.8-112.8,69.7-167.1,107.7c-52.2,36.6-101.7,81-161.6,104.8
				c-107.6,42.8-235.2,29.3-348.5,26.6c-139.3-3.1-278-10.5-417.5-10.6c-131.9-0.2-267.2-10.1-384.5-76.1
				c-105.6-59.4-190.4-148.9-277.3-231.7c-79.4-75.7-169.8-144.6-228.2-239.1c-30.6-49.3-49-104.6-69.7-158.5
				c-21.2-55-42-110.6-55.9-168c-15.2-62.6-18.7-122.5-3.5-185.3c14.5-59.9,31.5-119.9,47.5-179.6c16.3-60.7,41.6-118.4,55.7-179.8
				c1.7-8-10.4-11.4-12.3-3.4c-15.4,66.8-44.2,129.5-59.9,196.1c-15.2,64.9-38.7,128.9-50,194.6c-20,117.1,30.1,235.7,71.5,342.7
				c20.7,53.5,39.4,107,70.6,155.4c28.5,44.2,64.1,83.1,101.8,119.3c88.1,84.9,177.2,171.6,269.9,251.5
				c95.7,82.6,199.9,141,325.9,161.6c138.3,22.7,280.3,9.5,419.8,15.5c133,5.6,267.6,16.3,400.7,8.5c55.4-3.3,112-10.9,162.8-34.4
				c61.1-28.3,111.8-74.6,167-111.8c57.8-38.9,119.2-72.8,175.8-113.6c34.8-25.1,52.6-53.7,69.9-92.5
				c57.9-129.6,109.8-262.3,150-398.6c38.4-130.5,92.4-265.3,94.6-403c2.1-126.9-37.2-251.5-86.9-366.9
				c-48.6-112.8-104.7-227.9-184.5-322.1c-70.7-83.4-159.1-148.3-251.8-205.1c-108.5-66.4-220.3-119.7-343.6-152.6
				c-123.5-32.9-248.3-44.2-375.4-53.7c-61.4-4.7-123.6-10.8-185.2-5.8c-54.9,4.5-101.8,23.8-149,51.5c-26.9,15.7-53,32.9-81,46.9
				c-29.2,14.5-60.5,24-89.3,39.4c-53.6,28.8-99.3,69.7-148.9,104.7c-48.6,34.4-101.4,61.1-147.4,99.7
				c-47.3,39.8-87.5,86.4-125.9,134.8c-73.2,92.5-154.4,183.1-200.5,293.1c-20.2,48.2-31.6,98.9-29.7,151.2
				C850.9,1652.1,863.7,1652.2,863.3,1644.1"/>
		</g>
	</g>
	<g>
		<g>
			<defs>
				<rect id="SVGID_31_" x="718.5" y="652.6" width="2562.9" height="2544"/>
			</defs>
			<clipPath id="SVGID_32_">
				<use xlink:href="#SVGID_31_"  style="overflow:visible;"/>
			</clipPath>
			<path class="st16" d="M1841.5,2970.4c4.3-82.7-41.3-175.8-125.6-200.1c-22.3-6.4-45.9-5.8-68.6-10.7
				c-28.3-6.2-55.3-16.7-80.6-30.7c-48.9-26.6-91.1-63.9-130.2-103.1c-74.4-74.4-139.6-153.2-225.2-215.7
				c-97.2-71-192.9-133.4-260.7-235.7c-38.5-58-72.2-119.7-101-183.2c-34.7-76.8-31.1-154.5-30.8-236.8c0-8.1-12.7-8.1-12.7,0
				c-0.2,59.9-4.8,121.3,9.3,180.1c13.8,58.2,46.3,114.1,75.3,165.9c27.8,49.8,58,99.8,95,143.3c35,41.3,77.7,75.3,121.2,107.2
				c47.8,35.1,97.6,67.7,143.9,105c41.4,33.4,76.9,72.2,112.8,111.2c65.7,71.4,134.9,147.5,225.9,186.7c25,10.7,51.2,18.3,78.3,21.9
				c30.4,4,57.1,7.1,83.3,24.8c54.7,37,81.2,105.3,77.8,169.7C1828.3,2978.4,1841.1,2978.4,1841.5,2970.4"/>
		</g>
	</g>
	<g>
		<g>
			<defs>
				<rect id="SVGID_33_" x="718.5" y="652.6" width="2562.9" height="2544"/>
			</defs>
			<clipPath id="SVGID_34_">
				<use xlink:href="#SVGID_33_"  style="overflow:visible;"/>
			</clipPath>
			<path class="st17" d="M2429.8,1759.3c-9.3,2.2-8.3-4-4.9-10.8c0.3,0.7,0.7,1.6,1,2.3C2431.5,1762.1,2432.8,1765,2429.8,1759.3
				 M2570.3,1611.7c-23.3-48-47.6-95.7-72.8-142.8c-50.4-93.8-103.6-187.2-163.7-275.2c-62.1-91.5-139.2-164.7-253.8-176.5
				c-53.4-5.5-108.5,8.6-159.4,23.8c-25.7,7.7-51.3,16.2-77.5,22.3c-29.7,7-29.5,7.4-62.6,5.9c-49.9-2.4-97.6,45.6-95.4,95.4
				c2.4,53.7,41.9,92.7,95.4,95.4c58.6,2.8,116-12.3,171.5-29.2c25.5-7.8,51.3-14.3,77-21.1c3.7-0.9,5.6-1.6,6.5-2
				c1.3,0,3.3,0,6.4-0.2c2.7-0.1,24.8,0.2,26.8-0.6c7.7,2,21.4,6,21.8,5.5c7,3.8,21.3,12.4,19.9,10.8c9.2,7.1,17.6,15.7,25.4,24.2
				c2.2,2.4,20.1,23.8,17.7,20.1c32.9,43.3,60.4,91.3,88.3,137.7c63.3,105.2,121.4,213.3,174.1,324.3c2.7,5.8,5.5,11.5,8.1,17.3
				c-18.6,23.3-34.4,49.8-51.5,74c-38.4,54.4-76.8,108.9-115.2,163.3c-29.7,42.1-7.6,106.1,34.2,130.4c47.7,27.9,100.7,8,130.4-34.2
				c32.5-45.9,64.8-91.9,97.2-137.7c32-45.4,78.4-93.9,94.3-148.1C2632.7,1728.4,2598.1,1669.3,2570.3,1611.7"/>
		</g>
	</g>
	<g>
		<g>
			<defs>
				<rect id="SVGID_35_" x="718.5" y="652.6" width="2562.9" height="2544"/>
			</defs>
			<clipPath id="SVGID_36_">
				<use xlink:href="#SVGID_35_"  style="overflow:visible;"/>
			</clipPath>
			<path class="st18" d="M1221.1,1054.4c13.6,49.1,63.7,51.1,106.3,59.4c71,14.1,108.9,69.3,144.2,126.9
				c65.4,106.5,184.9,139,304.8,133.1c48.9-2.4,96.5-16.7,145.3-20.2c22.4-1.6,48.6-2.8,69.4,7.3c35.1,17.1,31.3,63.4,9.8,90
				c-16.6,20.5-40.5,34.2-62.1,48.4c-24.3,15.8-46.4,33.4-67,54.1c-50.5,50.8-90.6,113.1-114.6,180.8
				c-25.2,71.1-47.1,147.5-53.7,222.9c-2.8,31.9-0.7,61,4.7,92.2c2.7,15,8.5,34.2,3.4,49.4c-9.1,26.9-40.2,29.8-64.3,24.4
				c-38.6-8.6-92.4-46.2-129.5-13.4c-31.2,27.7-17.4,82.9-7.2,116.8c16.1,53.3,42.9,99,76.7,143.1c22.9,29.9,45.4,59.8,67,90.6
				c6.9,9.8,15.1,24.7,28.6,25.6c13.7,0.9,24.8-13.3,32.8-22.3c19.7-22.6,36.2-45.2,59.3-64.4c48.7-40.4,108.8-72.1,170.5-86.5
				c31.8-7.3,67.1-10.6,98.2,1.5c36.2,14.1,60.4,46.6,78.4,79.6c30.1,55,43.2,129.5,92.4,171.6c24.2,20.7,54.8,31.3,80.8,49.1
				c37.2,25.4,65.7,66.3,88.1,104.7c45.5,78.3,64,167.1,64.7,256.9c0.1,8.1,12.8,8.1,12.7,0c-1-129.1-42.7-285.8-151.7-367.3
				c-22.9-17.1-49.9-27.3-73.5-43.3c-30.9-21.1-46.3-52.3-60.8-85.8c-22.9-52.6-42.3-112.5-86.3-151.9
				c-81.4-72.9-209.3-15.8-286.5,35.6c-21.3,14.2-41.9,30-59.9,48.3c-12.9,13.3-43.2,68.4-64.2,58.6c-8.6-4-16.6-22-21.6-29.3
				c-9.8-14.3-20-28.3-30.5-42c-25.6-33.3-53-65.8-73.2-102.9c-22.7-41.6-49.6-103.1-39.4-151.4c15.7-75.3,116.7-1,162.5-6.3
				c46.1-5.4,53.2-41.6,46.8-80.7c-14.1-84.8,0.3-163.1,24.1-245c24.3-83.7,54.6-160.3,112.7-226.8c21.9-25.1,46.1-48.5,73.7-67.2
				c20.9-14.2,43.2-26.8,62.2-43.6c29.4-25.9,49.9-71.1,24.1-107.2c-21.9-30.4-67.8-29.1-100.8-26.4c-56.3,4.5-111.1,21.2-167.8,20
				c-77.1-1.6-160.4-13.7-220.2-66.9c-51.2-45.4-69.9-116.2-124.8-158.5c-24.3-18.7-51.4-30-81.4-35.4c-35.1-6.3-79.1-8.3-90.4-49.3
				C1231.1,1043,1218.9,1046.4,1221.1,1054.4"/>
		</g>
	</g>
</g>
</svg>
