<?xml version="1.0" encoding="utf-8"?>
<!-- Generator: Adobe Illustrator 21.1.0, SVG Export Plug-In . SVG Version: 6.00 Build 0)  -->
<svg version="1.1" id="Layer_1" xmlns="http://www.w3.org/2000/svg" xmlns:xlink="http://www.w3.org/1999/xlink" x="0px" y="0px"
	 viewBox="0 0 800 746.6" style="enable-background:new 0 0 800 746.6;" xml:space="preserve">
<style type="text/css">
	.st0{fill:#E9BD33;}
	.st1{fill:#A4B8D6;}
	.st2{fill:#8DC63F;}
	.st3{fill:none;}
</style>
<rect class="st0" width="800" height="746.6"/>
<path class="st1" d="M306.5,532.8c0.1,0.1,0.3,0.1,0.4,0.2c0.5,0.4,1,0.8,1.5,1.2c0.1,0,0.1,0.1,0.2,0.1
	C309.1,535,308.9,535.1,306.5,532.8 M605.7,388.1c-15.9-42.8-47-76.8-83.2-103.6c-21.2-15.7-45.6-27.9-71.3-34.1
	c-5.6-6.7-13.9-10.4-22.6-10.2c-3.5,0.1-7,0-10.5-0.4c-11.4-1.8-22.9-4.3-34.5-4.2c-11.9,0.1-23.7,2.2-34.9,6.3
	c-23,8.5-42.3,22.1-61.1,37.8c-32.1,26.9-64.5,57.8-81.7,96.7c-9.6,21.7-15.4,44.1-19.4,67.4c-2.2,12.6-5.9,26.3-5,39.1
	c1,14.8,6.7,27.6,14.2,40.2c20.5,34.2,49.2,62.9,82.4,84.7c31.2,20.6,67.7,34.9,104.8,40.3c44.2,6.5,92.2,4.6,131.8-18.4
	c19.7-11.5,35.6-27.4,49.2-45.5s22-39,29.6-60.1c7.4-20.9,15.1-42,18.3-64C615.2,435.9,614.3,411.4,605.7,388.1"/>
<path class="st2" d="M465.2,576.7L465.2,576.7c-8.6-5-18-9.1-25.1-16.3c-6.5-6.6-9.4-14.5-12.7-22.8c-3.6-9-8.7-17.5-18.3-20.9
	s-23.8-1.8-33.1,1.7c-13.2,5.1-20.5,16.2-23.2,28.8c-0.6,0-1.2,0.2-1.8,0.3l-0.4,0.1c-1.4-4.9-3.1-9.7-5.1-14.4
	c-4-9-9.1-17.5-15.3-25.2c-4.1-5.2-11.6-12.3-10.9-19.1c0.1-1.4,1-3.8,1.8-4.3c-0.7,0.5-0.3-0.5,1.3,0s3.4,2,4.8,3
	c7.4,5.2,14.6,10,24.1,8.7c11.6-1.6,17.4-12.5,15.1-23.4c-1.9-9.1-6.7-17.2-7.9-26.6c-2.2-19.3,5.7-38.6,23.9-47
	c4.7-2.1,5.8-6.7,4.7-10.8c2.1-1,4.2-1.8,6.2-2.6c5.8-2.2,11.5-4.6,15.7-9.4c5.6-6.4,6.8-16,0.8-22.6c-10.6-11.6-28.4-4.2-40.5,0.5
	c-10.1,3.9-24.8,10.5-35.2,3.5c-4.3-2.9-5.1-7.8-6.5-12.5c-2.3-7.3-5.7-14.2-11.1-19.8c-4.8-5-11-8.4-17.8-9.6
	c-3.4-0.5-6.9-0.8-10.4-0.9c-2.1-0.1-5.5,0.2-7.4-1c-1.4-0.9-2.5-3.2-3.6-4.4c-2.7-2.9-6.4-4.7-10.3-5c-9.6-0.6-14.8,7.6-19.9,14.4
	c-8.9,11.7-16.7,24.2-23.3,37.3c-14.4,28.6-23.4,59.6-26.4,91.5c-3.6,3.1-4.5,8.3-2.1,12.5c8,14.7,16.2,29.6,26.2,43.1
	c11,14.7,23.6,26.4,38.5,37c7.1,5.1,14.1,10.1,20.2,16.5c6.3,6.5,11.7,13.8,17.8,20.5c11.9,13.1,27.9,24.3,46.3,23.2
	c6-0.4,9.7-4.5,10.3-10.3c0.1-0.6,0.1-1.3,0.2-2c6.6,17.4,13.3,34.7,19.9,52.1c4,10.6,19.8,9.5,20.2-2.7c0-0.2,0-0.4,0-0.5
	c0.4,0.1,0.8,0.1,1.2,0.2c2.2,0.4,4.4-0.1,6.2-1.2c1.4-0.9,2.6-2.1,3.5-3.5c0.5-0.8,0.8-1.6,1-2.4c15.9,1.3,31.7,2.7,47.5,4.5
	c5,0.5,10,1.1,15,1.7c2.2,0.3,5.5-1.3,6.9-2.9c0.5-0.5,0.9-1,1.2-1.6c5.2,3.9,14.2,3.2,16.5-5C500,604.9,482.8,586.9,465.2,576.7z
	 M364.8,377.7c-1,0.7-2,1.5-3,2.3c-0.4-0.4-0.7-0.7-1.2-1C362,378.6,363.4,378.1,364.8,377.7L364.8,377.7z M344.9,406.9
	c0.3-0.7,0.7-1.4,1.1-2.1c0,0.2,0.1,0.5,0.1,0.7c-0.8,1.3-1.5,2.6-2.1,4C344.3,408.6,344.6,407.8,344.9,406.9L344.9,406.9z
	 M344.5,472.4c0.1,0.3,0.4,1.4,0.7,2.4c-0.5-0.3-0.9-0.5-1.4-0.8C344.1,473.5,344.3,473,344.5,472.4L344.5,472.4z M224.2,470.2h0.4
	l0.4,0.3c0.1,0.5,0.2,1,0.3,1.5C224.9,471.5,224.6,470.8,224.2,470.2z M247.8,394.9c0.4-0.3,0.8-0.6,1.2-1v1.7L247.8,394.9z
	 M288,336l-0.3-0.2h0.5h0.2L288,336z M290.9,384.1c-0.1,0.4-0.2,0.7-0.3,1.1c0.1-1.1,0.2-2.1,0.3-3.2l0.1-0.4l0.5,0.4
	C291.3,382.7,291.1,383.4,290.9,384.1L290.9,384.1z M311.7,412.6l-0.1-0.1l0.2-0.4C311.9,412.3,311.8,412.5,311.7,412.6L311.7,412.6
	z"/>
<path class="st2" d="M461.1,272.4c0-0.1,0-0.1-0.1-0.2c2.3,1,4.6,2,7,3.1C465,275.4,462.1,275,461.1,272.4 M559.6,312.4
	c-7.6-8.8-16.1-16.7-25.5-23.6c-22.2-16.7-47.6-27.9-72.9-38.8c-4.4-4.2-12.2-5.1-16.2,1.7c-5.3,9-6.6,20.3-2.3,29.9
	c5.1,11.5,16.6,14.6,28.3,14c10-0.6,21.3-1.6,30.3,3.8c8.3,4.9,12.8,14.4,17.5,22.4c5.6,9.6,12.2,18.7,21.8,24.7
	c8.5,5.4,26.2,10,32.6-0.9C579.7,334.4,566.3,320.4,559.6,312.4"/>
<path class="st2" d="M609.2,446.4c-6-2.9-12.4-4.9-18.9-6.1c-6.5-1.1-13.7-2-20.1,0.1c-6.1,2-10.8,6.4-13.9,12
	c-2.8,5-4.6,10.7-6.4,16.2l-1.3,3.7c-1.9,1.1-3.2,2.9-3.8,5c-0.4,1.5-0.6,2.9-0.6,4.5l-0.1,0.3l0,0l-0.4,0.2l0,0
	c-0.5,0.1-1,0.3-1.5,0.4c-3.2,0.2-6.4-0.7-9.7-0.4c-4,0.2-7.8,2-10.7,4.8c-4.8,4.9-6.4,12-7,18.6c-0.5,4.3,0.3,8.6,2.2,12.4
	c1.8,3.1,4.2,5.8,7,8c2.4,2.1,4.7,4.3,6.9,6.7c0.5,0.6,1,1.2,1.5,1.8l0.1,0.2c0.2,0.3,0.5,0.7,0.7,1c0.9,1.3,1.8,2.7,2.6,4
	c0.9,1.6,1.8,3.2,2.5,4.8c0.2,0.4,0.4,0.8,0.5,1.2v0.1l0,0c0.3,0.8,0.7,1.7,1,2.5c0.7,2,1.3,4,1.7,6c0,0.2-0.1,0.3-0.1,0.5
	c-1.8,8.9-3.1,17.9-4.5,26.8c-0.8,5.3-1.6,10.7-2.5,16c-0.4,2.3,0.1,4.5,2,6c1.8,1.4,4.3,1.6,6.3,0.5c6.9-3.8,12.9-8.9,17.7-15
	c0.7-0.7,1.2-1.6,1.5-2.5c0.2-0.7,0.2-1.4,0.1-2.2c4.9-1.7,8.7-5.5,10.3-10.4l19.7-56.8c3.3-9.5,6.6-18.9,9.8-28.4
	c2.8-8.3,7-16.9,6.2-25.8l0,0c-0.2-2.1-0.7-4.1-1.4-6.1c0.3,0,0.7-0.1,1-0.2c1.4-0.4,2.6-1.3,3.4-2.6
	C612.6,451.7,612.1,447.7,609.2,446.4z M547,535.4c0,0.1-0.1,0.2-0.1,0.4c-0.8-1.4-1.6-2.8-2.5-4.2l1,0.3c0.9,0.3,1.8,0.5,2.7,0.7
	C547.7,533.6,547.4,534.5,547,535.4z M554.1,490.4c-0.1,0-0.2-0.1-0.2-0.1h-0.3c0.2-0.3,0.4-0.5,0.6-0.8c0.7-1,1.2-2.2,1.7-3.3
	l0.1,0.4C555.4,487.8,554.8,489.1,554.1,490.4L554.1,490.4z"/>
<path d="M443.4,256.8c-0.1,9.5-3.2,23.1,6.9,28.9c13.9,8,31.4-3.9,44.9,6c11.2,8.2,14.6,23.2,21.3,34.6
	c6.6,11.2,16.1,19.3,28.9,22.3s29.1,4.7,39.4-5.2c1-1-0.5-2.5-1.5-1.5c-6.7,6.4-16.1,7.3-24.9,6.6c-8.4-0.6-17.4-2.4-24.7-6.8
	c-14.1-8.6-18.5-24.3-26.1-37.9c-3.1-5.6-7-11.2-12.5-14.7c-6.1-4-13.2-4.1-20.3-3.6c-8.9,0.7-23,3.4-28.1-6.5
	c-3.3-6.5-1.3-15.2-1.2-22.2C445.6,255.4,443.4,255.4,443.4,256.8"/>
<path d="M608.6,443.4c-16.2-1-33.8-14.2-47.5,1.1c-4.2,4.8-6.3,11-8.4,16.9c-2.2,6.4-4.7,15.1-12,17.4c-6.6,2.1-14.6-1.2-20.4,3.5
	c-5,4.1-6,11.3-6.4,17.4c-1.1,17.7,12.7,27.6,21.4,41.1c13.6,21.2-3.6,41.9-4.2,63.9c0,1.4,2.1,1.4,2.2,0
	c0.5-17.4,12.2-33.5,9.5-51.2c-2.5-16.2-17.5-25.3-24.2-39.3c-3.5-7.4-3.4-17-0.6-24.6c3.8-10.2,12.9-6.9,21.2-8.3
	c11.9-2,14.1-15.9,17.8-25.2c4-10,11.5-18,23.1-17.1c9.8,0.7,18.7,5.9,28.6,6.5C609.9,445.7,609.9,443.5,608.6,443.4"/>
<path class="st3" d="M450.4,570.4c-4.5-3-9.7-4.8-13.8-8.4c-8.4-7.2-10.6-19.9-15.8-29.3c-3.1-5.6-7.2-11.2-13.4-13.6
	c-5.3-2.1-11.3-1.5-16.8-0.3c-10.7,2.7-20.6,7.7-29.1,14.8c-4,3.3-6.8,7.2-10.1,11c-1.4,1.5-3.3,4-5.6,3.8s-3.7-2.7-4.9-4.4
	c-3.7-5.3-7.5-10.4-11.4-15.5c-5.8-7.5-10.3-15.3-13.1-24.4c-1.8-5.8-4.1-15.2,1.2-19.9c6.3-5.6,15.5,0.8,22.1,2.3
	c4.1,0.9,9.4,0.4,11-4.2c0.9-2.6-0.1-5.9-0.6-8.4c-1-5.2-1.2-10.5-0.8-15.7c1.1-12.9,4.9-25.9,9.2-38c4.2-11.6,10.8-22.1,19.5-30.9
	c3.5-3.5,7.3-6.6,11.4-9.2c3.7-2.4,7.8-4.8,10.6-8.2c3.7-4.5,4.3-12.5-1.7-15.4c-3.5-1.7-8-1.5-11.9-1.2c-8.3,0.6-16.5,3-24.8,3.5
	c-20.4,1-40.8-4.5-52-22.7c-6-9.8-12.5-19.2-24.6-21.6c-6.6-1.3-14.4-1.7-17.4-8.2c-15.3,12.4-27.5,29.1-39.3,44.7
	c-9.4,12.5-18.6,26.5-21.6,41.9c0.6-2.1,1.2-4.1,1.7-6.3c0.3-1.4,2.4-0.8,2.1,0.6c-1.3,5.3-2.9,10.6-4.8,15.7c0,0.6,0,1.3,0,2l0,0
	c0,0.6-0.4,1-1,1c0,0,0,0-0.1,0c-1.4,4-2.7,8-3.8,12c-0.9,3.5-1.9,6.9-2.8,10.4c-0.1,12.4,0,24.2,5.3,35.9
	c4.9,10.9,10.7,21.3,17.2,31.3c11.6,17.5,27.9,28.1,44.5,40.2c14.6,10.7,25.7,24.1,38.4,36.8c6.7,6.7,13.9,13,22.2,17.6
	c4.3,2.4,8.9,4.2,13.8,5.2c3.9,0.8,7.9,0.7,11.7,1.8c13.7,4,21.4,18.6,21.5,32.1c21.8,0.2,43.5,1.3,65.3,1.8
	c12.2,0.3,25.5,1.3,38.2,0.2c-0.2-15-3.4-29.8-11-42.9C461.6,581.8,456.7,574.8,450.4,570.4z"/>
<path class="st3" d="M357.5,602.2c-4.5-3-9-3.5-14.2-4.2c-4.6-0.6-9.1-1.9-13.3-3.7c-15.5-6.7-27.3-19.7-38.5-31.8
	c-6.1-6.7-12.2-13.3-19.2-19c-7.9-6.4-16.4-11.9-24.6-17.9c-7.4-5.5-14.7-11.2-20.7-18.3c-6.3-7.4-11.5-16-16.2-24.5
	c-4.9-8.8-10.5-18.4-12.8-28.3c-1.3-5.8-1.8-11.7-1.7-17.7c-1,3.9-2,7.8-3,11.7c-2.6,10.7-2,20.9,0.6,31.6
	c2.4,9.8,5.9,19.3,9.5,28.7c3.5,9.2,6.7,18.6,11.9,27.1c10,16.1,25.4,27.9,38.9,40.8c14.8,14.1,29.3,29.4,47.3,39.5
	c20,11.2,43.1,12.9,65.6,13h3.8C370.8,618.8,366.3,608.2,357.5,602.2z"/>
<path class="st3" d="M582.2,345.7c-18.3-34.2-49.9-57.7-84.6-74c-19.6-9.2-40.9-14.7-62.2-17.8c-10.5-1.5-21.1-2.2-31.8-3
	c-9.6-0.7-19.3-1.7-29-1.4c-10.9,0.3-19.9,3.2-29.3,8.8c-4.6,2.7-9,5.6-13.8,8c-4.5,2.2-9.3,3.7-13.7,6
	c-8.5,4.3-15.9,10.5-23.5,16.1c-7.9,5.9-16.8,10.4-24.7,16.4c2.4,5.9,9.4,6.3,15,7.3c5.1,0.8,9.8,2.9,13.9,6
	c9.4,7.2,12.6,19.3,21.3,27c10.2,9.1,24.4,11.1,37.6,11.4c9.7,0.2,19-2.6,28.6-3.4c5.6-0.5,13.5-0.7,17.2,4.5
	c4.4,6.2,0.9,13.9-4.1,18.3c-3.2,2.9-7,5-10.6,7.4c-4.7,3.3-8.9,7.2-12.5,11.5c-9.9,11.4-15.1,24.4-19.2,38.7
	c-4,14-6.5,27.3-4.1,41.8c1.1,6.7-0.1,12.9-8,13.8s-25-11.8-27.7,1.1c-1.7,8.2,2.9,18.7,6.7,25.8c3.4,6.3,8.1,11.9,12.5,17.6
	c1.8,2.3,3.5,4.7,5.2,7.2c0.9,1.2,2.2,4.3,3.7,5c3.6,1.7,8.8-7.7,11-10c3.1-3.1,6.5-5.8,10.2-8.2c13.2-8.8,35-18.5,48.9-6.1
	c7.5,6.7,10.8,17,14.7,25.9c2.5,5.7,5.1,11,10.4,14.7c4,2.7,8.6,4.5,12.5,7.4c18.3,13.7,25.4,39.7,25.9,61.5
	c6.6-0.6,13-2.2,19.1-4.5c10.2-4.1,18.6-11.6,27.6-17.9c9.3-6.5,19.1-12.1,28.5-18.4c7.4-4.9,11.8-9.3,15.4-17.4
	c4.9-11,9.5-22.1,13.8-33.3c8.3-21.7,14.9-44.1,21.3-66.4c3.2-11.1,6.1-22.4,6.6-33.9c0.4-11.1-0.8-22.2-3.6-32.9
	C602,384.9,592.5,364.9,582.2,345.7z"/>
<path d="M598.3,373.7c-8.3-19.2-17.9-38.9-31.5-55c-12.1-14.2-27.2-25.3-43-35c-18.5-11.3-37.6-20.4-58.6-26s-42.4-7.6-64-9.2
	c-10.5-0.8-21.1-1.9-31.6-1c-9.4,0.8-17.4,4.1-25.4,8.8c-4.6,2.7-9,5.6-13.8,8c-5,2.5-10.3,4.1-15.2,6.7c-9.1,4.9-17,11.9-25.4,17.9
	c-7,4.9-14.5,8.9-21.3,14c-0.6-0.1-1.2,0.3-1.3,0.9c0,0,0,0,0,0.1c-0.9,0.7-1.7,1.3-2.5,2c-8.1,6.8-14.9,14.7-21.5,23
	c-12.5,15.8-26.3,31.2-34.2,50c-3.3,7.5-5,15.7-5.1,23.9c-2.1,5.7-3.8,11.4-5.3,17.3c-0.2,0.9-0.4,1.8-0.7,2.7
	c-0.5-0.2-1.2,0-1.4,0.6c-0.1,0.1-0.1,0.3-0.1,0.4c0,1.6,0,3.2-0.1,4.8c-2.3,8.2-4.9,16.4-6.4,24.8c-3.4,20,5.1,40.2,12.2,58.5
	c3.5,9.1,6.7,18.3,12,26.5c5,7.4,10.8,14.3,17.4,20.4c15,14.5,30.2,29.3,46,42.9c16.3,14.1,34.1,24.1,55.6,27.6
	c12.4,2,25,2.4,37.7,2.4c0.2,0.6,0.8,0.9,1.4,0.6c0.3-0.1,0.5-0.3,0.6-0.6c10.7,0,21.3-0.2,31.9,0.2c22.7,1,45.7,2.8,68.4,1.5
	c1.2-0.1,2.5-0.2,3.7-0.3c0.5,0.4,1.2,0.3,1.6-0.1c7.8-0.7,15.5-2.2,22.6-5.5c10.4-4.8,19.1-12.7,28.5-19.1
	c9.9-6.6,20.3-12.4,30-19.4c5.9-4.3,9-9.2,11.9-15.8c10-22.1,18.6-44.8,25.6-68c6.5-22.3,15.8-45.3,16.1-68.8
	C613.5,414.6,606.8,393.4,598.3,373.7z M367,629.2c-22.5,0-45.6-1.7-65.6-13c-18-10.1-32.5-25.4-47.3-39.5
	c-13.6-12.9-29-24.7-38.9-40.8c-5.2-8.4-8.4-17.8-11.9-27c-3.6-9.4-7.2-18.9-9.5-28.7c-2.6-10.7-3.2-20.9-0.6-31.6
	c1-3.9,2-7.8,3-11.7c-0.1,5.9,0.5,11.9,1.7,17.7c2.4,9.9,7.9,19.5,12.8,28.3c4.8,8.5,9.9,17,16.2,24.5c6,7,13.3,12.8,20.7,18.3
	c8.2,6,16.6,11.5,24.5,17.9c7.1,5.7,13.1,12.3,19.2,19c11.2,12.2,23,25.2,38.5,31.8c4.3,1.8,8.8,3.1,13.4,3.7
	c5.2,0.7,9.7,1.2,14.2,4.2c8.8,5.9,13.3,16.6,13.3,27L367,629.2z M438.3,631c-21.8-0.5-43.5-1.6-65.3-1.8
	c-0.1-13.6-7.8-28.2-21.5-32.1c-3.8-1.1-7.8-1-11.7-1.8c-4.8-1.1-9.4-2.8-13.8-5.2c-8.3-4.5-15.5-10.9-22.2-17.6
	c-12.7-12.7-23.8-26.1-38.4-36.8c-16.6-12.1-32.9-22.8-44.5-40.2c-6.6-9.9-12.3-20.4-17.2-31.3c-5.3-11.7-5.4-23.5-5.3-35.9
	c0.9-3.5,1.9-7,2.8-10.4c1.1-4.1,2.4-8,3.8-12c0.6,0,1-0.4,1-0.9c0,0,0,0,0-0.1l0,0c0-0.6,0-1.3,0-2c1.9-5.2,3.4-10.4,4.7-15.7
	c0.3-1.4-1.8-1.9-2.1-0.6c-0.5,2.1-1,4.2-1.7,6.3c2.9-15.5,12.2-29.5,21.6-41.9c11.8-15.6,23.9-32.4,39.3-44.7
	c3,6.5,10.8,6.9,17.4,8.2c12.1,2.4,18.6,11.8,24.6,21.6c11.2,18.2,31.6,23.7,52,22.7c8.3-0.4,16.5-2.9,24.8-3.5
	c3.8-0.3,8.3-0.5,11.9,1.2c6,2.9,5.3,10.8,1.7,15.4c-2.8,3.5-6.9,5.8-10.6,8.2c-4.1,2.7-8,5.8-11.4,9.2
	c-8.7,8.7-15.4,19.3-19.5,30.9c-4.3,12.1-8,25.2-9.2,38c-0.4,5.3-0.2,10.6,0.8,15.7c0.5,2.6,1.5,5.8,0.6,8.4
	c-1.5,4.6-6.9,5.1-11,4.2c-6.6-1.5-15.8-7.9-22.1-2.3c-5.3,4.7-3,14.1-1.2,19.9c2.7,9.1,7.3,16.9,13.1,24.4
	c3.9,5.1,7.7,10.2,11.4,15.5c1.2,1.7,2.6,4.2,4.9,4.4s4.2-2.3,5.6-3.8c3.4-3.8,6.2-7.7,10.1-11c8.5-7,18.4-12.1,29.1-14.7
	c5.4-1.2,11.5-1.8,16.8,0.3c6.2,2.4,10.3,8,13.4,13.6c5.1,9.4,7.4,22.1,15.8,29.3c4.1,3.5,9.4,5.3,13.8,8.4
	c6.4,4.3,11.2,11.3,15,17.9c7.6,13.1,10.8,27.9,11,42.9C463.7,632.3,450.5,631.3,438.3,631L438.3,631z M610.9,439.1
	c-0.5,11.5-3.4,22.9-6.6,33.9c-6.4,22.4-13,44.7-21.3,66.4c-4.3,11.2-8.9,22.4-13.8,33.3c-3.6,8.1-8,12.5-15.4,17.4
	c-9.4,6.3-19.3,11.9-28.5,18.4c-8.9,6.2-17.3,13.8-27.6,17.9c-6.2,2.4-12.6,3.9-19.1,4.5c-0.4-21.8-7.6-47.8-25.9-61.5
	c-3.9-2.9-8.5-4.7-12.5-7.4c-5.3-3.6-7.9-8.9-10.4-14.7c-3.9-9-7.2-19.2-14.7-25.9c-13.9-12.4-35.7-2.7-48.9,6.1
	c-3.7,2.4-7.1,5.2-10.2,8.2c-2.2,2.3-7.4,11.7-11,10c-1.5-0.7-2.8-3.8-3.7-5c-1.7-2.4-3.4-4.8-5.2-7.2c-4.4-5.7-9-11.2-12.5-17.6
	c-3.9-7.1-8.5-17.6-6.7-25.8c2.7-12.9,19.9-0.2,27.7-1.1s9.1-7.1,8-13.8c-2.4-14.5,0.1-27.8,4.1-41.8c4.1-14.3,9.3-27.4,19.2-38.7
	c3.7-4.4,7.9-8.2,12.6-11.5c3.6-2.4,7.4-4.6,10.6-7.4c5-4.4,8.5-12.1,4.1-18.3c-3.7-5.2-11.6-5-17.2-4.5c-9.6,0.8-19,3.6-28.6,3.4
	c-13.2-0.3-27.4-2.3-37.6-11.4c-8.7-7.7-11.9-19.8-21.3-27c-4.1-3.1-8.8-5.2-13.9-6c-5.7-1-12.6-1.4-15-7.3
	c7.9-6,16.7-10.5,24.7-16.4c7.6-5.7,14.9-11.8,23.5-16.1c4.5-2.3,9.3-3.7,13.7-6c4.8-2.4,9.2-5.3,13.8-8c9.4-5.5,18.4-8.4,29.3-8.8
	c9.7-0.3,19.4,0.7,29,1.4c10.6,0.8,21.2,1.4,31.8,3c21.4,3.1,42.7,8.6,62.2,17.8c34.7,16.3,66.2,39.8,84.6,74
	c10.3,19.2,19.8,39.2,25.1,60.5C610.1,417,611.3,428,610.9,439.1z"/>
<path d="M311.1,112.2c0-0.1,0-0.2,0-0.3S311.1,111.8,311.1,112.2z M539.8,138.5c0.3,4.1,0.3,8.3,0.5,12.5c-0.1,1.1-0.3,2.1-0.8,3.1
	c-0.2,0.6-0.8,1.1-1.5,1c-1.1,0-2.2-0.3-3.2,0.4c-0.2,0.1-0.6,0-0.8-0.2c-0.6-0.2-1.2-0.2-1.7,0.1c-1.3,0.8-2.9,0.8-4.2-0.1
	c-0.1,0-0.2-0.1-0.3-0.1c-2-0.7-2.5-2.2-2.7-4.1c-0.3-4.7-0.9-9.3-1.1-14c-0.3-6.3-0.8-12.6-0.9-19c-0.1-5.3,0.1-10.6,0.3-16
	c0.1-0.4,0.1-0.8,0-1.2c-0.1-0.3-0.2-0.7-0.7-0.7c-1.7-0.3-3.4-0.4-5.1-0.4c-4.1,0.2-8.1,0.5-12.2,0.8c-1.8,0.1-3.5,0.3-5.3,0.6
	c-1.4,0.2-1.5,0.5-0.7,1.5c0.5,0.5,0.7,1.1,0.6,1.8c-0.1,1.5-0.1,3.1,0.1,4.6c0.3,4,0.1,8,0.2,12.1c0.1,2.6,0,5.2,0,7.8
	c0,1.5,0,3,0.1,4.5c0.1,1.2,0.1,2.4-0.1,3.6c-0.3,2.2,0,4.4,0,6.6c-0.1,3.3,0.1,6.6,0.2,9.9c0,0.6-0.2,1.1-0.6,1.6
	c-1,1.6-1.4,3.4,0,5c-0.2,0.4-0.7,0.6-1.1,0.5c-0.2,0-0.6-0.2-0.7-0.1c-0.7,0.7-1.7,0.9-2.6,0.8c-0.8-0.1-1.7,0.6-2.6,1
	c-0.3,0.2-0.8,0.3-1.2,0.2c-1.4-0.2-2.9-0.6-4.3-1c-0.7-0.2-1.3-0.8-1.6-1.5c-0.4-0.9-0.6-1.9-0.8-2.9c0-0.9-0.2-1.8-0.7-2.5
	c-1.9,2.2-4.1,4.1-6.5,5.6c-3,2.2-6.5,3.4-10.2,3.7c-3.6,0.3-7.3,0.3-11,0.2c-1.1,0-2.1-0.3-3.1-0.8c-4.9-2.2-5.5-3.2-7.8-6.4
	c-0.2-0.2-0.2-0.6-0.6-0.6c0.1,1.6,0.8,3.2,1,4.8c0,0.9,0.1,1.8,0.3,2.6c0.3,0.6-0.5,1.6-1.3,1.6c-0.7,0.1-1.3,0.3-1.8,0.7
	c-0.6,0.6-1.5,0.8-2.3,0.7c-0.2,0-0.4,0-0.5,0.1c-3.4,1.4-4.4,0.3-6.3-2.2c-0.5-0.7-0.9-1.5-1.2-2.3c-0.5,0.7-1,1.3-1.5,1.9
	c-1.5,2-3.8,3.2-6.2,3.3c-0.7,0.1-1.4,0.4-2,0.8c-1.7,1.2-3.6,1-5.4,0.7c-3.9-0.7-6.4-3.2-8.4-6.4c-1.7-2.6-1.9-5.6-2.8-8.4
	c-0.8-2.8-1.3-5.7-1.6-8.6c-0.1-0.5,0-1.1-0.5-1.5c-0.7,0.3-0.9,1-1.2,1.6c-0.1,0.2-0.4,0.7-0.6,0.4c-0.6-1.2-0.6-0.2-0.8,0.2
	c-0.3,0.7-0.7,1.3-1.2,1.9c-0.4,0.6-1.3,1.1-0.6,2.1c0.2,0.2-0.1,0.6-0.3,0.8c-1.9,3.1-4.1,6.1-6.3,9c-0.2,0.3-0.5,0.5-0.8,0.7
	c-0.7,0.2-0.9,0.8-1.3,1.2c-1,1.5-2.3,2.7-3.9,3.5c0,0-0.2-0.1-0.3-0.1l-0.1-0.1v0.1c0.3,1-0.6,1.3-1.1,1.7c-2.8,2-6,3.5-9.3,4.5
	c-0.8,0.2-1.5,0.6-2.3,0.9c-3.3,1.2-6.7,1.8-10.2,1.7c-1.2-0.1-2.3-0.6-3.2-1.3c-1.3-0.9-1.5-2.4-1.9-3.7c-0.2-0.7,0.6-1.1,0.8-1.7
	c0.3-1,1-0.6,1.6-0.5c0.5,0.1,1.1,0,1.5-0.2c0.8-0.5,1.7-0.5,2.5,0c-1.6-6.3-1.9-12.5-2.3-18.7c-0.6,1.2-1.8,2-2.3,3.2
	c-0.6,1.3-1.5,2.4-2.5,3.4c-0.3,0.4-0.6,0.8-0.9,1.3c-1.4,1.8-3.1,3.4-4.9,4.8c-1.8,1.5-3.7,2.8-5.7,4.1c-1,0.7-2.2,1.1-3.4,1.4
	c-2.7,0.7-5.5,1.2-8.2,2c-0.7,0.2-1.4-0.3-2.1-0.2c-1.3,0.2-2.6,0.1-3.9,0.2c-2.4,0.2-4.8-0.4-6.8-1.7c-1.5-1.1-2.8-2.5-3.8-4.1
	c-1.4-2.1-2.3-4.6-2.5-7.2c0-0.6-0.1-1.2-0.2-1.8c-0.2-1.1-0.3-1.2-1.4-0.8c-1.3,0.4-2.6,0.9-3.9,1.3c-3.3,1-6.6,1.7-10,2.4
	c-4.6,0.9-9.4,1.3-14.1,1.3c-1.7,0-1.6,0-1.8,1.8c-0.2,2.4,0.6,4.7,0.5,7c0,0.7,0,1.4,0,2.1c0.1,1.9-1.4,3.4-3.2,3.5
	c-0.1,0-0.2,0-0.3,0c-1.7,0-3.3,0.4-4.7,1.3c-0.9,0.6-1.9,1.1-3,1.4c-0.9,0.2-1.9,0.2-2.8,0c-1.4-0.3-2.4-1.3-2.7-2.6
	c-1.3-4.2-2.3-8.4-3.1-12.7c-0.6-3.2-1-6.4-1.2-9.7c-0.1-3.3-0.5-6.6-0.5-9.9c0-6.1,0-12.3,0.2-18.4c0.1-2.4,0-4.8,0.1-7.2
	c0-1.3-0.1-2.6-0.4-3.9c-0.2-1.2-0.4-1.4-1.7-1.3c-2.8,0.1-5.7,0.4-8.4,1c-2.4,0.5-4.9,1.1-7.3,1.6c-2.1,0.5-2.1,0.6-1.9,2.8
	c0.1,0.7,0.1,1.4,0.1,2.1c0,0.6,0.2,1.3,0.6,1.8c0.7,0.8,0.6,1.9,0.7,2.9c0,0.7,0.1,1.4,0.3,2c-0.3,0.4-0.5,0.9-0.8,1.4
	c-0.5,0.9-0.2,2,0.5,2.7c1.5,0.4,2.4,1.8,2,3.3l0,0c0,1.2,0.1,2.3,0.3,3.5c0.4,6.6,0.5,13.2,1.3,19.8c0.3,2.8,0.8,5.6,1.2,8.4
	c0.3,1.5-0.1,3,0.6,4.5c0.2,0.5-0.3,1.5-1,1.9c-0.3,0.1-0.6,0.4-0.8,0.3c-1-0.1-0.9,1.8-2.3,1.2c-1-0.5-1.8,0.4-2.6,0.7
	c-0.3,0.1-0.7,0.3-0.9,0.5c-3.1,2.6-6.7,1.1-8.7-0.6c-0.8-0.9-1.2-1.9-1.3-3.1c-0.6-3-1.1-6-1.5-9.1c-0.4-3.2-0.5-6.4-0.8-9.7
	c-0.4-3.5-0.6-7.1-0.8-10.6c-0.2-3.7-0.5-7.3-0.6-11c-0.1-2.2-0.1-4.5-0.3-6.7c-0.1-1.4-0.1-2.7-0.1-4.1c0-1.7-0.3-2-2-1.9
	c-2.6,0.2-5.2,0.3-7.8,0.3l-0.1,0.1c-0.2,0.5-0.3,1.1-0.2,1.7c0,0,0.1,0.1,0.1,0.2l0.1,0.8c-0.3,0.7-0.2,1.4,0.2,2
	c0.6,0.9,0.8,2,0.5,3.1c-0.3,1.2,0.2,2.3,0.3,3.4c0.1,1.5,0.3,3,0.7,4.5c0.4,1.4,0.6,2.9,0.8,4.3c0.7,4.5,1.1,9,1.1,13.6
	c0.1,3,0,6,0.3,9c0.2,0.9,0.3,1.7,0.3,2.6c-0.1,1.8,0.4,3.7,1.4,5.2c0.1,0.2,0.2,0.5,0.3,0.8c-0.5,1.4-0.2,3-0.5,4.5
	c0,0.1,0.2,0.2,0.3,0.4c0.3,0.4,0,0.8-0.2,1.1c-0.6,0.2-0.6,0.6-0.3,1c-0.1,0.9-1.1,0.9-1.5,1.5c-0.3,0-0.6,0.3-0.6,0.7
	c-0.3,0.1-0.5,0.2-0.8,0.3c-2.1,0.3-4.1,1.1-5.8,2.5c-1.5,1.3-6.4,1.6-8.2-0.5c-1.8-1.9-3.9-3.5-5.6-5.4c-1.6-1.7-3.1-3.5-4.8-5.2
	c-2.3-2.4-4.1-5-6.3-7.4c-1.7-2-3.2-4.1-4.5-6.3c-1.5-2.1-2.9-4.3-4.1-6.6c-0.1-0.2-0.3-0.4-0.6-0.3c-0.1,0.1-0.2,0.2-0.2,0.2
	c0,3.5,0,7-0.1,10.4c0,0.2,0,0.5,0.1,0.7c0.9,2.2,0.4,4.6,0.6,6.9c0.2,2.5,0.1,5.1,0.8,7.5c0.2,0.8-0.2,1.7-0.9,2.2
	c-0.5,0.5-1,0.8-1.7,1c-0.6,0.1-1.1,0.4-1.6,0.8c-0.2,0.3-0.5,0.4-0.8,0.4c-2.1-0.2-3.6,0.8-5,2.1c-0.1,0.1-0.3,0.3-0.4,0.3
	c-2.5-0.1-5.2,1.5-7.5-1c-0.4-0.4-0.7-0.9-0.8-1.5c-0.3-1.3-0.3-2.7-0.5-4c-0.2-1.5-0.4-2.9-0.5-4.4c-0.1-2.3,0-4.6-0.1-6.9
	c-0.2-5.2,0-10.4,0.2-15.6c0.2-4.8,0.3-9.7,0.3-14.5c0-3.4,0.5-6.7,0.5-10.1c0-2.5,0.2-4.9,0.5-7.4c0.1-0.8,0.3-1.5,1.3-1.6
	c0.5-0.2,1-0.4,1.4-0.7c0.3-0.3,0.7-0.4,1.1-0.5c2.1,0.2,4.2-0.3,6.3,0.1c2.4,0.4,4.6,1.5,7.1,1.9c1,0.2,1.1,1.3,1.1,2.2
	c0,0.8,0.4,1.6,1.2,2c0.3,0.3,0.7,0.4,1.1,0.4c1.4-0.2,2.2,0.7,2.8,1.7c1.1,1.8,2,3.8,2.8,5.7c1.9,4.5,4,8.9,5.9,13.4
	c2.2,5.2,5.7,9.8,8.8,14.4c0.4,0.6,0.5,1.3,1.1,1.8c0.3,0.2,0.5,0.6,0.9,0.7c0.6-0.3,0.5-0.9,0.4-1.4c-0.1-2-0.3-4-0.5-6
	c-0.6-5.8-1.5-11.6-2.4-17.4c-0.4-2.9-0.9-5.8-1.1-8.7c-0.3-3.7-0.8-7.4-0.9-11.1c-0.1-1.2-0.1-2.3,0-3.5c0-1.2,0.9-2.1,2.1-2.2
	c0.4,0,0.7-0.2,1-0.4c1.1-0.7,2.5-1,3.8-0.7c2.4,0.4,5,0.5,7.2,1.8c1,0.5,2.2,0.8,3.4,0.6c3.4-0.3,6.8-0.9,10.1-1.6
	c5.6-1.2,11.1-2.8,16.8-3.7s11.2-1.7,16.9-1.3c2.4,0.1,4.8,0.6,7.1,1.4c1.1,0.3,2.2,0.6,3.3,0.7c1.3,0.2,2.5,0.7,3.6,1.4
	c1.3,0.9,2.1,2.3,2.2,3.8c0.3,2.7-0.1,5.3,0,8c0,0.7-0.4,1.7,0.4,2s1.1-0.7,1.5-1.2c1.9-2.5,4.3-4.6,7-6.1c2.1-1.2,4.5-1.8,6.9-1.7
	c2.6,0.1,5.2,0.4,7.7,0.9c2,0.3,3.9,1.4,5.2,3c0,0.1,0,0.3,0,0.4s0,0.2,0,0.3c0,0.2,0,0.4,0,0.6c0,0.3,0,0.5,0,0.8
	c-0.1,0.1-0.1,0.3-0.1,0.4c-2,2.4-2.9,5.3-4.4,8c-1.3,2.4-2.7,4.7-4.1,7.1c-1.8,3.1-3.8,6.1-5.8,9.1c-1.7,2.7-3.7,5.3-5.9,7.8
	c-0.7,0.8-1.4,1.6-1.9,2.6c-0.5,0.9-0.3,1.4,0.7,1.6c0.7,0.1,1.4,0.1,2.1,0c4-0.7,7.9-1.7,11.7-3.1c4.3-1.6,8.4-3.4,12.5-5.4
	c0.2-0.1,0.6-0.2,0.8-0.3c1.2-0.5,2.2-1.5,2.5-2.8c1-3,2.1-6,3.4-8.9c1-2.6,1.9-5.2,3.1-7.7c0.9-1.8,2.1-3.5,3.4-5
	c0.2-0.2,0.4-0.4,0.6-0.7c1-1.9,1.3-1.9-0.7-2.7c-1.2-0.5-2-1.6-2-2.9c-0.1-0.2-0.1-0.5,0-0.7c0.2-0.6-0.7-1.3,0.1-1.8
	c0.8-0.6,1.8-0.8,2.8-0.7c4.3,0.3,8.2,2.1,12.2,3.3c1.1,0.3,2.3,0.4,3.1,1.5c1.3-0.3,1.9,1.2,3.1,1.1c0.7-0.1,0.6,0.9,1,1.3
	c0.7,0.2,0.7,0.8,0.9,1.4h0.1c0.6,0.4,0.9,1.2,1.6,1.6c0,0.6,0.3,0.9,0.7,1.3c0.6,0.7,1.4,1.3,2,2c1.5,1.8,2.5,4,3.9,5.9
	c1.3,1.9,1.7,4.1,2.9,6c0.1,0.2,0.1,0.6,0.1,0.9c0.2,1.2,0.5,2.4,0.7,3.6c0.1,0.9,0.9,0.7,1.4,0.8s0.8-0.3,0.7-0.8
	c-0.1-1.9,0.7-3.9,0.2-5.8c0.1-1.4,0.2-2.8,0.2-4.3c0.2-0.3,0.3-0.7,0.2-1c0.1-4.6,0.5-9.3,1.2-13.9c0.2-1.5-0.1-2-1.6-2.3
	c-2-0.4-4.1-0.8-6.1-1.1c-1.3-0.3-2.6-0.7-3.8-1.3c-1.3-0.6-2-3.4-1.4-4.7c0.2-0.5,0.8-0.5,1.1-0.7c1.7-0.5,3.5-0.7,5.2-0.7
	c2.3,0.1,4.7,0.2,7,0.6c1.6,0.2,3.3,0.1,4.9-0.3c0.6-0.2,1.3-0.2,1.9,0c0.8,0.3,1.7,0.4,2.6,0.1c0.5-0.2,1.1,0,1.4,0.5
	c0.5,0.7,1.7,0.9,1.6,2.2c0,0.4,0.6,0.4,1,0.6c1.7,0.7,3.4,1.2,5.2,1.8c6.3,2.1,12.4,4.8,18.1,8.3c0.5-0.2,0.4-0.6,0.4-0.9
	c0-4-0.3-7.9-0.9-11.9c-0.2-1.6-0.3-3.2-0.4-4.7c0-0.3,0-0.8,0.4-1c1.1-0.4,2-1.2,3.2-1.3c1.8-0.1,3.5,0.2,5.2,0.7
	c1.7,0.4,3.4,1,5,1.6c1.4,0.6,2.5,1.7,2.9,3.1c0.7,2.1,1.1,4.4,1.1,6.6c0.1,3.2,0.2,6.4,0.2,9.6c-0.1,3,0.1,5.9,0,8.9
	c0.1,1.7,0,3.4-0.3,5.1c0,0.2,0,0.3,0,0.5c0.3,2.4,0,4.9,0.5,7.4c0.4,2.3,0.1,4.6,0.4,6.9c0,0.1-0.1,0.4-0.2,0.4
	c-1.3,0.3-0.7,1-0.4,1.7c0.4,0.7,0.4,1.5,0,2.2c-0.1,0.3-0.3,0.8-0.2,0.8c1.7,1.2,0.2,3.4,1.7,4.8c0.6-0.9,1.1-1.8,1.5-2.8
	c1.3-3.7,2.4-7.4,3.3-11.2c1.2-6.3,2.1-12.7,2.7-19.1c0.3-2.7,0.3-5.4,0.5-8.2c0.2-3.8,0.7-7.7,1.5-11.4c0.4-1.8,0.6-1.9,2.5-2
	c1.4-0.1,2.7,0.6,4,0.2c0.8,1.1,2.6,0.2,3.2,1.8c0.2,0.5,0.8,0.4,1.2,0.5c1.2,0.2,2.3,0.7,3.2,1.4c1,0.6,1.5,1.8,1.2,2.9
	c-0.4,1.6-0.6,3.1-0.7,4.7v3.7c0.9-1.4,1.7-2.7,2.5-4.1c0.7-1.3,1.6-2.5,2.7-3.5c2.3-2.5,4.2-5.3,7.1-7.2c1.2-1,2.7-1.6,4.2-2
	c1.8-0.2,3.4-1.2,4.3-2.8c0.4-0.8,1.2-1.3,2.1-1.5c2.8-0.6,5.7-1.1,8.5-1.6s5.8-0.9,8.7-1.3c1.7-0.2,3.4-0.5,5.1-0.6
	c4.5-0.4,9.1-1,13.6-1.4c2.3-0.2,4.6-0.4,6.9-0.4c1.1,0,2.1,0,3.2-0.2c1.3-0.2,2.6,0.2,3.8,0.4s2.5,0.1,3.5,1c0.5,0.5,1.4,0.5,2,0
	c0,0,0,0,0-0.1c0.8-0.7,2-1,3-0.7c2.4,0.3,4.7,1,6.9,2.1c1.2,0.8,2.4,1.4,3.7,1.9c1.3,0.3,2.2,1.6,2,2.9c0.1,1.5-0.1,3-0.3,4.4
	c-0.4,2-0.5,4.1-0.4,6.2c0.1,0.2,0.1,0.5,0.1,0.7c-0.4,2.6,0,5.2-0.1,7.8c-0.3,4-0.3,8,0,12.1C539.5,131.6,539.5,135.1,539.8,138.5
	L539.8,138.5z M349.4,138.6c-0.2-2.2-0.7-4.3-1.5-6.4c-1.4,0.9-2.7,2-3.9,3.2c-1,1.1-2,2.2-3.1,3.1c-2.7,2-5.4,4.3-8.5,5.8
	c-0.5,0.2-0.9,0.6-1.3,0.9c-1,0.5-1.5,1.6-1.3,2.7c0.2,1.5-0.1,3.1,0.1,4.6c0.3,2.4,0.6,4.8,1.8,7c0.8,1.4,1.1,1.6,2.7,0.9
	c4.6-2.2,8.6-5.5,11.5-9.8C348.4,147.2,349.7,142.9,349.4,138.6z M394.8,126c-1.8-3.7-5.1-5.4-8.5-7.1c-1.9-0.9-3.8-1.7-5.8-2.3
	c-1,1.5,0.1,2.9,0.2,4.4c0.5-1,0.3-2.1,1.1-3c-0.7,7.7-1,15.4-1.3,23.4c-0.9-0.8-0.2-1.7-1-2.5c-0.2,0.6-0.3,1.2-0.3,1.9
	c-0.4,5.6,0.6,11.1,0.5,16.6c0,0.4,0,0.9,0.4,1.1s0.8-0.3,1-0.6c1.8-2.4,3.7-4.8,5.3-7.4c2.6-4.2,4.8-8.6,6.6-13.2
	c1.2-3,1.9-6.1,2.1-9.3C395.2,127.4,395.1,126.7,394.8,126z M461.8,116.5L461.8,116.5z M461.7,116.6L461.7,116.6L461.7,116.6z
	 M484.4,140.3c-0.3-3.1-0.2-6.1-0.3-9.2C484,126,484,121,484,115.9c0-1.5,0-3,0-4.4c0.1-2.4-0.1-4.8,0.2-7.2c0.1-1-0.2-1.3-1.2-1.2
	c-2,0.2-3.9-0.1-5.8-0.1c-1.4,0-2.9-0.3-4.3,0.5c-1.8,1-3.4,2.2-5,3.5c-0.5,0.3-0.7,0.8-0.6,1.4c0,0.5-0.2,0.9-0.7,1.2
	c-1.6,1.5-2.9,3.2-4,5.1c-0.4,0.5-0.6,1.1-0.7,1.8c0.4,0.1,0.7,0.2,0.4,0.7c-1.1,1.6-1.7,3.5-1.9,5.4c-0.1,1.2-0.5,2.4-1.1,3.5
	c-0.4,0.9-1,1.8-1.7,2.6c-0.9,0.9-1.5,2.2-1.5,3.5c-0.1,2,0.3,4-0.2,6c-0.2,0.9-0.3,1.9-0.5,2.8c-0.2,1.7-0.5,3.3,0.6,4.9
	c0.2,0.3,0.2,0.7,0,1c-0.5,1-0.4,1.2,0.8,1.6c0.3,0.4,0.4,1,0.2,1.5c-0.2,0.8-0.5,1.6,0,2.3c0.5,2,1.6,3.8,3.2,5
	c0.6,0.5,1.3,0.7,2.1,0.6c1.7-0.4,3.4-1.1,4.9-2c1.8-1,3.5-2.2,5.1-3.4c3.8-3,7.5-6.1,11.1-9.4C484,142.4,484.5,141.4,484.4,140.3
	L484.4,140.3z M662.7,87.6c-0.1,0.7-0.2,1.6-1.1,1.9c-0.7,0.2-1.3,0.6-2,0.8c-1.5,0.5-2.9,1.4-3.9,2.7c-0.5,0.7-0.8,1.5-0.8,2.3
	c-0.2,1,0.3,2.3-1,3c-0.1,0-0.1,0.3-0.1,0.5c0.5,1.9,0,3.9,0.3,5.8s0.6,3.7-0.1,5.5c-0.1,0.5-0.1,0.9,0,1.4c0.3,2.2,0.4,4.3,0.2,6.5
	c0,0.7,0.2,1.4,0.5,2.1c0.4,1.8,0.6,3.6,0.5,5.4c-0.1,2.8,0.4,5.5,0.4,8.3c0,1,0,2,0.2,3c0.6,3,0.4,6,0.5,9c0,0.5,0,0.9,0.1,1.4
	c0.1,0.7,0.3,1.4-0.9,0.9c-0.5-0.2-0.9,0.4-0.4,1c0.9,1.2,1,2.8,1.4,4.1c0,0.1,0.1,0.2,0.1,0.3c0.2,0.6,0.4,1.7,0,1.8
	c-0.8,0.1-1.5,0.9-2.4,0.5c-0.7-0.2-1.5-0.4-2.2-0.5c-0.4-0.1-0.8-0.1-1.2,0.1c-1.4,0.9-2.7,0.4-3.9-0.3c-2.4-1.6-4.6-3.5-6.6-5.5
	c-2.2-2-4.2-4.1-6.3-6.2c-2.8-2.8-5.6-5.6-8.2-8.6c-1.1-1.2-2.1-2.5-2.8-4c-0.3-0.7-0.8-1.3-1.3-1.9c-2.3-2.1-3.8-4.7-5.5-7.2
	c-2-3.1-3.9-6.2-5.7-9.4c-1.4-2.7-2.8-5.4-4.1-8.1c-0.6-0.8-0.4-2-1.7-2.6c0.1,1.2-0.1,2.5-0.8,3.6c-0.4,0.9-0.6,1.9-0.6,2.9
	c0,2.3,0,4.6-0.2,6.8s-0.6,4.6,0,7c0.1,0.3,0,0.6-0.2,0.8c-0.3,0.3-0.4,0.9-0.2,1.3c-0.2-0.4-0.2-1,0.2-1.3c0.3,0.5,0.3,1.2,0,1.7
	c0.3,4.2-0.2,8.4-0.4,12.6c-0.2,3.2-0.4,6.5-0.6,9.8c-0.1,1.4-0.2,1.5-1.6,1.8c-0.3,0.1-0.7,0.2-0.9,0.4c-0.3,0.3-0.8,0.3-1.1-0.1
	c-1.2-1.3-2.7-0.8-4.1-0.6c-1.1,0.2-2.2,0.7-3.1-0.4c-0.2-0.3-0.8-0.1-1.2,0c-0.9,0.2-1.3,0-1.7-1c-0.4-1.2-0.6-2.4-0.5-3.6
	c-0.2-0.1-0.5,0-0.6,0.2c-1.4,2.2-3.8,3.2-5.8,4.7c-3.6,0.9-6.9,2.7-10.8,2.2c-1.9-0.1-3.8-0.1-5.6,0.2c-0.6,0.1-1.2,0-1.7-0.3
	c-1.4-1-3.1-1.2-4.6-1.8c-1.6-0.7-3-1.7-4.1-3.1c-1.7-1.8-3.1-3.9-4-6.2c-0.6-1.8-1-3.6-1.3-5.5c-0.6-4-0.5-8.2,0.2-12.2
	c1.1-6.8,2.7-13.6,4.9-20.1c1-3.3,2.3-6.5,4-9.6c0.4-0.7,0.5-1.4,0.9-2.1c0.3-0.8,1.1-1.2,1.8-1c0.6,0.1,1.2,0,1.7,0.2
	c0.5,0.3,1.1,0.1,1.4-0.4c0.8-1.7,2.3-1.5,3.5-1.2c3.4,0.9,6.7,1.9,9.7,4.1c2.4,1.8,4.9,3.5,7.3,5.3c0.3,0.2,0.7,0.4,0.8,0.7
	c0.4,1.6,2.1,2.4,2.5,3.9c0,0.2,0.3,0.4,0.5,0.4c0.4,0,0.5-0.4,0.5-0.6c0.1-1.1,0.1-2.2,0.2-3.3c0.2-3.1,0.6-6.1,1.1-9.1
	c0.2-0.8,0.4-1.5,0.8-2.2c0.3-0.8,1.1-1.3,1.9-1.1c0.7,0.1,1.4,0,2.1-0.2c1.5-0.5,3.2-0.5,4.7,0.1c1.6,0.5,3.3,0.7,4.4,2.1
	c1.2,0.1,2.4,0.5,3.4,1.2c3.3,1.6,6.8,3,8.9,6.3c0.3,0.5,0.6,1,0.9,1.5c1.6,2.5,2.9,5.3,3.8,8.2c0.1,0.6,0.4,1.1,0.8,1.6
	c1.6,1.8,2.2,4,3.2,6.1c0.1,0.2,0.2,0.4,0.2,0.7c0.2,3.1,2,5.5,3.4,8.1c1.5,2.6,3.1,5.2,4.9,7.5c0.9,1.2,1.5,2.7,2.4,3.9
	c2,3,4.4,5.6,7.2,7.9c0.3-0.1,0.5-0.5,0.4-0.8c-0.5-6.1-1.1-12.3-1.5-18.4c-0.5-6.4-0.8-12.9-1.2-19.3c-0.1-2-0.2-3.9-0.5-5.8
	c-0.5-3.4,0-6.8,1.5-9.9c1.1-2.4,3.1-4.3,5.7-5c0.7-0.1,1.4-0.1,2.1,0.1c1.8,0.4,3.8,0,5.4,1.2c0.9,0.7,2.5,0.6,2.9,2
	c1.7,0.1,2.2,2,3.7,2.5C662,87,662.8,87,662.7,87.6z M579.2,123.9c-0.1-4.1-0.6-8.1-1.5-12.1c-0.6-3.2-1.6-6.3-2.8-9.3
	c-0.6-1.5-1.5-2.8-2.6-4c-0.5,0.5-0.9,1-1.1,1.7c-1.7,4.3-3.2,8.8-4.4,13.3c-1.7,6-2.7,12.2-3,18.5c-0.1,3.4,0.1,6.7,1.7,9.8
	c0.6,1.1,0.6,1.3,1.8,0.8c4.6-1.5,8.3-5,10.2-9.5C578.7,130.2,579.3,127,579.2,123.9z M653.8,132.1c-0.1-0.1-0.2-0.3-0.3-0.4l0,0
	C653.6,131.9,653.7,132,653.8,132.1z M653.9,136.1c0.2-0.6,0.3-1.2,0.4-1.8C654.2,134.9,654.1,135.5,653.9,136.1z M156.9,109.3
	c-0.6-0.1-1.1-0.3-1.5-0.7c-0.8-0.7-1.7-1.1-2.7-1.3c-1.1-0.3-2.3-0.5-3.5-0.6c-2.1-0.1-4.3-0.3-6.4,0.5c-1.5,0.5-2.5,1.9-2.6,3.4
	c-0.4,3.3-0.8,6.7-1.1,10c-0.4,5.2-1.3,10.3-1.4,15.5c0,4.3-0.2,8.6-0.2,12.9c0,3.2,0,6.4,0.1,9.6c0,2.1-0.3,4.2-0.1,6.2
	c0.2,2.7,0.2,5.3,0.2,8c0,2.1,0.5,4.2,0.1,6.4c0,0.6,0.3,1.2,0.8,1.5c0.6,0.5,1.2,0.9,1.9,1.3c1.2,0.7,4.8,0.7,5.8-0.1
	c1.4-1.2,3.2-2,5.1-2.1c0.4,0,0.7-0.2,0.9-0.4c0.6-0.6,1.5-0.9,2.3-0.7c1,0.1,1.2-0.4,1.3-1.2c0-0.4,0-0.7,0-1.1
	c-0.1-3.9-0.2-7.8-0.2-11.7c0-3,0.1-5.9,0.1-8.9c0.1-3.1,0.1-6.3,0.1-9.4c0-1.7,0.7-3.3,0.5-5c-0.3-3.6,0.4-7.1,0.3-9.8
	c0.1-2.3,0.1-3.8,0.2-5.4c0.3-2.6,0.6-5.2,0.8-7.8s0.2-5,0.4-7.4C158.3,109.9,158,109.4,156.9,109.3z M365,126.4
	c-0.4,0.3-0.4,0.6-0.2,1C365.1,127.1,365.1,126.7,365,126.4z"/>
</svg>
