<svg xmlns="http://www.w3.org/2000/svg" viewBox="0 0 4716.78 1767.79"><title>lasagna</title><path d="M1922.6,1050.3c-2.7-2.7-8.6-12.7-12.6-12-10.8,2-22.5,6.6-30.4,14-4.8,4.5-5,16.3-3.4,24,.9,4.6,9,10.1,14.5,10.9,12.5,1.8,32.6-19.5,31.9-36.9M2365,745.4c-31.2,34.9-45.3,77.8-53.7,123.1-.9,5.1,3.1,14,7.4,16.5,8.1,4.7,14.8-.8,18.2-9q19.95-48.3,39.5-96.8c1.8-4.4,2.3-9.5,3-14.3,1.7-10.2-2.2-16.8-14.4-19.5M650.1,198.5c-3.5-.1-7-.1-10.5-.1-7.4,18.7-16.4,36.9-22,56.2a657,657,0,0,0-25.7,222.7c1.1,20.4-.7,41-.2,61.5.3,11.3.7,23.8,16.7,27.1,12-10,11.7-24,14.4-37.2,5.3-26.5,1.9-55,16.2-79.5,16.6-28.7,24.9-58.7,17.8-91.9-1-4.6-.1-9.6.1-14.4,2.2-35.9,5.7-71.7,5.9-107.6,0-12.3-8.2-24.6-12.7-36.8M3003.5,659.7c-1.1-.4-2.1-.8-3.2-1.2,0-2.9-.1-5.8,0-8.8.6-13.5-2.6-25.7-15.6-32.1-9.3-4.6-23,4-33.2,17.8-6.2,8.5-14,15.8-21.1,23.7-9.7,10.7-21.7,20.1-28.9,32.4-22.2,37.8-40.7,77.6-50.9,120.6-2.2,9.1-3.1,19.6-.9,28.5,4,15.8,16.7,20.5,28.7,9.8,19.5-17.2,41.6-31,57-53.7,20.9-30.9,39.2-62.7,53.2-97,5.8-13.1,10.1-26.6,14.9-40m81.2,26.8c-11.2,18.2-12.2,37.1-11.3,55,2.1,42.8,7.1,85.5,10,128.2,6.5,97.3,14,194.6,18.1,292.1,2.9,70.1,3.7,140.6.1,210.7-2.3,45.5-12.6,90.8-22.1,135.5-8.3,38.9-18,77.9-31.8,115.1-12.8,34.4-31.1,66.9-48.6,99.4-9.5,17.8-21.4,34.5-34.1,50.3-18.5,23.2-35,49-67.2,57.3-15.5,4-29.4,14.5-44.9,18.4-35.6,8.9-67.9-5.6-98-21.1-40.3-20.7-75.7-48.4-97.6-90-7.3-13.8-16.7-26.4-24.2-40.1s-14.9-27.4-19.9-41.9c-15-43.2-28.8-86.9-43.3-130.3-7.1-21.4-11.4-43.1-9.1-65.9,27.6,4.1,28.7,7.3,34.4,30.3,9.5,38.5,19.9,77,33.3,114.4,5.3,14.7,19.7,26.1,29.5,39.4,16.2,21.9,31.7,44.4,48.4,65.9,19.7,25.4,46.4,40.8,75.9,52.9,28.6,11.7,54.9,7,76.8-11.7,19-16.3,36.1-35.8,50.6-56.4,32.2-45.6,58.5-95.3,75.2-148.3,14-44.4,20-91.4,29.1-137.4,3.6-18.2,8-36.4,8.7-54.8,1.8-40.8,1.9-81.7,1.9-122.6,0-36.9,0-73.9-1.8-110.8-2.8-56.6-7.1-113.1-10.7-169.6-1.8-28.1-2.7-56.2-5.5-84.2-.9-8.4-6.7-16.3-11.8-27.9-18.7,19.9-35.5,34.8-48.4,52.5-15.1,20.8-36.2,32-57.6,43.4-15.8,8.4-32.4,11.6-50.9,7.1-23-5.6-43.1,1.1-62.6,16.2-48.5,37.8-105.4,49.6-165,41-23.1-3.4-47.3-14.5-66.1-28.6-36.2-27.2-64.9-62.1-79.7-106.3-4.5-13.4-10.7-24.7-24.3-33.1-3,3.2-6.5,5.4-7.8,8.5-16,38.7-31.2,77.8-47.6,116.3-12.8,30.1-27.8,58.2-62.7,69-31.7,9.8-45.6,6.1-66.2-19.8-25.1-31.7-30.2-68.8-28.3-107.4,1-19.4,5.2-38.8,5-58.1-.1-8.1-7.9-16.2-12.3-24.4-23.6,16.1-44,30.2-64.8,44-16.2,10.8-34.6,19-48.7,32-24,22.1-56.7,32.4-76.4,61-13.1,19-16.6,38.4-18.8,60-2.6,26.1-5.4,52.8-13.4,77.5-14.2,43.6-48.8,71-91.8,77.2-27.2,3.9-62,7.3-84.7-19.2-23.7-27.5-39.1-60.5-29.9-96.7,5.2-20.6,19.4-40.5,34.1-56.8,15.4-17,35.6-29.9,54.5-43.4,11.9-8.4,25.5-14.5,38.1-21.9,16.8-9.8,24.2-21.9,18.9-43.4-7.8-31.2-10.9-63.5-16.4-95.3-2.8-16.4-7-32.3-22.7-46.6-5.6,4.2-12.1,7.8-16.8,13-11.1,12.3-21,25.7-31.9,38.2-45,51.7-100.1,92.1-152.4,135.7-5.2,4.3-11.6,7.1-17.5,10.6-21.9,12.8-43,27-65.8,37.9-33.3,15.8-67.4,30.3-101.9,43.2a292.28,292.28,0,0,1-62.3,15.9c-62.6,8.6-117.6-6.6-160.2-56.1a66.84,66.84,0,0,0-10.6-10c-3.8-2.8-8.1-5-14-8.5-13.3,28.5-27.4,55-38.4,82.8-17.7,45-48.2,79.7-85.6,108.4-23.7,18.2-57.8,11.9-78.9-11.1-5.8-6.4-12.1-12.3-19-19.1-5.7,3.7-11.1,6.1-15.1,9.9-36.6,35-71.9,71.4-109.6,105.1-43,38.4-95.2,60.7-150.5,74.6-33.7,8.5-71-14.1-92.9-48.5-37.6-59.2-61.8-123.3-76.3-191.6a473.24,473.24,0,0,0-16.6-59.2c-3-8.6-10.3-15.7-17.6-26.4-7.2,8.1-13.1,13-16.7,19.2-22.5,39.8-44.2,80.1-67,119.7-6.3,10.8-15.4,20.1-23.6,29.7-29.1,34-57.4,68.8-87.7,101.7-50.8,54.9-112.4,92.4-184.8,113.3-28.5,8.2-65.8-10.8-77.5-38-10.6-24.6,2.9-46,30-44.8,7.8.4,15.4,2.6,23.2,3.6,17.9,2.2,35,1.2,49.6-11.8a42.62,42.62,0,0,1,15.2-8.3c27-8.7,47.6-26.5,67-46,15.7-15.9,31.1-32.2,46.4-48.5,53.7-57.2,100.9-119.2,138.2-188.4,17.5-32.5,34.7-65.3,49.7-99,15.4-34.7,16.6-71.4,10.4-109-8.3-50.1-15-100.5-21.6-150.9-4.4-33.8-8.9-67.6-10.5-101.6-1.5-31.1.6-62.3,1.1-93.5.8-56.1,17.4-109.6,27.3-164.2,7.1-39.5,12.4-80.1,33.9-114.6,14.7-23.6,33.7-45.2,53.8-64.6,12.6-12.1,30.2-10.2,46.5-.8,40.8,23.5,46.4,63.6,47.5,104,1.2,43.5-2.4,87.1-3.5,130.7-1.9,73.2-5,146.3-21.2,218.2q-28.05,124.05-55.8,248.1c-5.6,24.9-6.6,49.1-1.8,75.2,17.1,92.2,35.7,184,64.8,273.2,7.2,22.1,16.7,44,28.9,63.7,20.1,32.6,46.7,38.9,80.2,19.3a549.33,549.33,0,0,0,71.9-50c45.2-37.3,85.3-79.9,120.9-126.5,14.2-18.6,28.2-37.4,41.6-56.5,3.8-5.3,6.8-12.2,7.4-18.6,4.7-49,18-95.6,36-141.1,12.1-30.7,22.8-62.2,37.5-91.7,10.8-21.5,25.4-41.7,41.2-59.9,20.1-23.2,38.7-21.6,58.8,1.9,3.8,4.5,6.9,9.5,10.3,14.3,7.6,10.5,16.2,12,27.8,5.2,11.2-6.6,22.8-18.9,36.9-6.7,15.7,13.6,29.4,29.1,27.5,52.1-1.7,20.4-3.5,40.9-6.1,61.2-4.3,34.6-1.4,68,12.3,100.5,15.6,37.1,65.9,63.1,105.7,56.1,51.2-8.9,102.6-20.9,147.7-44.5,48.3-25.2,103.1-42.8,138.7-89.1,7.5-9.8,19.4-16.2,29.3-24.1,4.5-3.6,10.3-6.3,13.6-10.7,34.6-46,81.3-81.3,112.2-130.9,13-20.9,16.9-40.6,13.7-63.7-1.4-10.3-1.9-21.3-.1-31.5,1.9-10.4,6-22,19-23.2,12.8-1.2,25,.3,33.7,12.7,17.9,25.5,26.6,53.9,29.6,84.6,4,40.8,7.2,81.7,13.9,122,4,23.7,12.7,47,22,69.3,8.2,19.6,17.2,21.6,33.4,10.5,40.6-27.9,80.7-56.6,121.3-84.7,16-11.1,32.5-21.5,48.8-32.2,21.8-14.3,42.8-30.2,65.8-42.3,27.3-14.4,42.5-39.7,61.4-61.7,25.8-30,49.6-61.8,75.8-91.3,21.5-24.1,42.9-19.3,56.3,10.7,3.2,7.1,6.9,14.4,8.2,21.9,5.9,35.5,11,71.1,16.4,106.7.4,2.9,1.1,5.8,1,8.7-.5,14.4-6,30.8-.9,42.9,19.6,46.7,25.8,98.4,55.5,141.4,27.4,39.6,65.7,57,111.6,59.5,25.8,1.4,52,4.6,77.1-8.4,22.2-11.5,34.9-26.2,30.2-50.3-7.9-40,6.7-74.7,20.6-110,8.5-21.7,18.8-42.6,26.5-64.6,22.2-63.8,70.9-106.6,119.1-149.1,12.2-10.8,31.3-15.9,48.1-19,19.9-3.7,36.6-7.4,49.4-26.2,14.9-22.1,38.5-24.7,47.8,4.5,4,12.7,10.4,25.4,11.1,38.4,2,37.9,16.5,71.9,28.7,106.9a186.56,186.56,0,0,1,9,36.8c.7,5.6-2.1,15.2-6.1,17.2-6,2.9-15.2,2.4-21.7,0-6.7-2.4-12-8.8-19.1-14.5M3975.9,842c33.2-3.4,78.3-45.3,88.3-81.8-8.5,1.6-16.8,1.2-22.6,4.8-14.8,8.9-27.7,21.2-42.9,29.1-19.8,10.2-23.7,26-22.8,47.9m95.3-199.3c17.5-10.7,87.3-77.6,96.2-92.5,1.9-3.2,4.7-7.3,4.2-10.5-1.4-8.9-1.9-21.9-7.4-25.1-5.8-3.3-19.9-.1-25.6,5.2-30.6,28.8-57.3,60.8-75.1,99.5-5,10.9-3.7,18.6,7.7,23.4m-760.9-7c17.2-13.5,22.9-29.8,27-45.1,19.3-71.4,59.6-131.1,103-189.2,11.4-15.3,29.4-19.3,45.6-22.7,13.6-2.8,21.5,10.9,25.3,23.9,9.5,32.1,11.6,65,10.7,98.2-1.5,54.5-7.9,109.7-2.3,163.5,6,57.6,16.3,117,64.8,158.9,25.1,21.7,52.2,33.1,87.5,32.5,59.8-1.2,108-30.6,158.8-54.9,5.3-2.5,10-6.1,15.4-8.4,30.1-12.9,47.9-34.6,62.5-65.1,26-54.3,59.7-104.8,90.1-156.9a152.86,152.86,0,0,0,8-15.6c22.8-51.5,60.2-91.6,101.5-128.3,9.9-8.8,23.1-15.2,35.9-19.2,27.9-8.9,45.9,10.4,63.7,26.8a164.12,164.12,0,0,1,26.4,31.2c15,23.3,20.7,49.9,23.2,77.1,1.4,15.5.1,31.6,3.9,46.4,10.8,42.5,35.5,76.5,73,98.7,17.1,10.1,38.1,15.2,58,18.6,71.2,12.2,142.3,7.3,212.6-7.4,54.3-11.3,107.3-27.1,158.2-49.7,26.2-11.6,39.4-9.3,50.7,8.5,12,19,7,46.4-12.7,59.8a517,517,0,0,1-57.8,34.3c-32.3,16.4-68.1,22-103,30.3-22.7,5.4-45,13.1-68,16.4-60.6,8.6-121.4,17.9-182.6,6.3-62-11.8-120.3-31.2-164-80.9-13.5-15.3-21.8-13.5-34.6,3.8-9.2,12.5-17.6,25.7-26.2,38.6-16.8,25.1-30.3,52.4-54.4,72.2-6.5,5.3-10.3,14-14.7,21.6-31.7,55.1-78.7,87.5-141.9,95.2-47.1,5.7-66.1-8.2-74.5-45.9-5.4-24.5-13.9-29-37.8-21.3a307.72,307.72,0,0,0-60.9,27.2c-41.2,24.2-86,29.7-132,28.4-67.3-1.9-115.2-38.4-152.2-91.2-8.1-11.6-12.3-26.2-16.9-39.9-9.5-28.6-20.8-57.1-26.2-86.6-6.6-36.1-9.5-73.1-11-109.8-.8-18.6-3.3-34.4-20.8-49.3-4.3,7.6-8.7,13.5-11,20.1-10.7,29.4-21.9,58.6-30.8,88.5-19.8,66.3-38.5,132.9-57.5,199.5-6.4,22.4-11.6,45.1-18.7,67.3-5.2,16.4-49.1,34.8-63.2,25.5-16.2-10.7-21.9-29.7-23.9-48-1.7-15.3-2.3-31.9,1.7-46.6,10-36.7,5.5-73.4,6.1-110.4.9-57.2,3.9-114.4,6.4-171.6,1.2-27.2-.1-54.8,12.6-80.3,2.2-4.4,3.4-9.3,5.9-13.4,14.8-23.8,38.4-23.8,54-.9,15.1,22.1,16.7,45.2,7.3,69.7-8.2,22-10.9,43.6-.2,69.6" transform="translate(-103.48 -83.43)" fill="#231f20"/></svg>