<?xml version="1.0" encoding="utf-8"?>
<!-- Generator: Adobe Illustrator 21.1.0, SVG Export Plug-In . SVG Version: 6.00 Build 0)  -->
<svg version="1.1" id="Layer_1" xmlns="http://www.w3.org/2000/svg" xmlns:xlink="http://www.w3.org/1999/xlink" x="0px" y="0px"
	 viewBox="0 0 4924.4 1916.4" style="enable-background:new 0 0 4924.4 1916.4;" xml:space="preserve">
<style type="text/css">
	.st0{clip-path:url(#SVGID_2_);fill:#231F20;}
	.st1{clip-path:url(#SVGID_2_);fill:#FFFFFF;}
</style>
<g>
	<defs>
		<rect id="SVGID_1_" x="104.1" y="83.7" width="4716.1" height="1767.7"/>
	</defs>
	<clipPath id="SVGID_2_">
		<use xlink:href="#SVGID_1_"  style="overflow:visible;"/>
	</clipPath>
	<path class="st0" d="M1922.6,1050.3c-2.7-2.7-8.6-12.7-12.6-12c-10.8,2-22.5,6.6-30.4,14c-4.8,4.5-5,16.3-3.4,24
		c0.9,4.6,9,10.1,14.5,10.9C1903.2,1089,1923.3,1067.7,1922.6,1050.3 M2365,745.4c-31.2,34.9-45.3,77.8-53.7,123.1
		c-0.9,5.1,3.1,14,7.4,16.5c8.1,4.7,14.8-0.8,18.2-9c13.3-32.2,26.5-64.4,39.5-96.8c1.8-4.4,2.3-9.5,3-14.3
		C2381.1,754.7,2377.2,748.1,2365,745.4 M650.1,198.5c-3.5-0.1-7-0.1-10.5-0.1c-7.4,18.7-16.4,36.9-22,56.2
		c-21.2,72.7-30,146.9-25.7,222.7c1.1,20.4-0.7,41-0.2,61.5c0.3,11.3,0.7,23.8,16.7,27.1c12-10,11.7-24,14.4-37.2
		c5.3-26.5,1.9-55,16.2-79.5c16.6-28.7,24.9-58.7,17.8-91.9c-1-4.6-0.1-9.6,0.1-14.4c2.2-35.9,5.7-71.7,5.9-107.6
		C662.8,223,654.6,210.7,650.1,198.5 M3003.5,659.7c-1.1-0.4-2.1-0.8-3.2-1.2c0-2.9-0.1-5.8,0-8.8c0.6-13.5-2.6-25.7-15.6-32.1
		c-9.3-4.6-23,4-33.2,17.8c-6.2,8.5-14,15.8-21.1,23.7c-9.7,10.7-21.7,20.1-28.9,32.4c-22.2,37.8-40.7,77.6-50.9,120.6
		c-2.2,9.1-3.1,19.6-0.9,28.5c4,15.8,16.7,20.5,28.7,9.8c19.5-17.2,41.6-31,57-53.7c20.9-30.9,39.2-62.7,53.2-97
		C2994.4,686.6,2998.7,673.1,3003.5,659.7 M3084.7,686.5c-11.2,18.2-12.2,37.1-11.3,55c2.1,42.8,7.1,85.5,10,128.2
		c6.5,97.3,14,194.6,18.1,292.1c2.9,70.1,3.7,140.6,0.1,210.7c-2.3,45.5-12.6,90.8-22.1,135.5c-8.3,38.9-18,77.9-31.8,115.1
		c-12.8,34.4-31.1,66.9-48.6,99.4c-9.5,17.8-21.4,34.5-34.1,50.3c-18.5,23.2-35,49-67.2,57.3c-15.5,4-29.4,14.5-44.9,18.4
		c-35.6,8.9-67.9-5.6-98-21.1c-40.3-20.7-75.7-48.4-97.6-90c-7.3-13.8-16.7-26.4-24.2-40.1c-7.4-13.6-14.9-27.4-19.9-41.9
		c-15-43.2-28.8-86.9-43.3-130.3c-7.1-21.4-11.4-43.1-9.1-65.9c27.6,4.1,28.7,7.3,34.4,30.3c9.5,38.5,19.9,77,33.3,114.4
		c5.3,14.7,19.7,26.1,29.5,39.4c16.2,21.9,31.7,44.4,48.4,65.9c19.7,25.4,46.4,40.8,75.9,52.9c28.6,11.7,54.9,7,76.8-11.7
		c19-16.3,36.1-35.8,50.6-56.4c32.2-45.6,58.5-95.3,75.2-148.3c14-44.4,20-91.4,29.1-137.4c3.6-18.2,8-36.4,8.7-54.8
		c1.8-40.8,1.9-81.7,1.9-122.6c0-36.9,0-73.9-1.8-110.8c-2.8-56.6-7.1-113.1-10.7-169.6c-1.8-28.1-2.7-56.2-5.5-84.2
		c-0.9-8.4-6.7-16.3-11.8-27.9c-18.7,19.9-35.5,34.8-48.4,52.5c-15.1,20.8-36.2,32-57.6,43.4c-15.8,8.4-32.4,11.6-50.9,7.1
		c-23-5.6-43.1,1.1-62.6,16.2c-48.5,37.8-105.4,49.6-165,41c-23.1-3.4-47.3-14.5-66.1-28.6c-36.2-27.2-64.9-62.1-79.7-106.3
		c-4.5-13.4-10.7-24.7-24.3-33.1c-3,3.2-6.5,5.4-7.8,8.5c-16,38.7-31.2,77.8-47.6,116.3c-12.8,30.1-27.8,58.2-62.7,69
		c-31.7,9.8-45.6,6.1-66.2-19.8c-25.1-31.7-30.2-68.8-28.3-107.4c1-19.4,5.2-38.8,5-58.1c-0.1-8.1-7.9-16.2-12.3-24.4
		c-23.6,16.1-44,30.2-64.8,44c-16.2,10.8-34.6,19-48.7,32c-24,22.1-56.7,32.4-76.4,61c-13.1,19-16.6,38.4-18.8,60
		c-2.6,26.1-5.4,52.8-13.4,77.5c-14.2,43.6-48.8,71-91.8,77.2c-27.2,3.9-62,7.3-84.7-19.2c-23.7-27.5-39.1-60.5-29.9-96.7
		c5.2-20.6,19.4-40.5,34.1-56.8c15.4-17,35.6-29.9,54.5-43.4c11.9-8.4,25.5-14.5,38.1-21.9c16.8-9.8,24.2-21.9,18.9-43.4
		c-7.8-31.2-10.9-63.5-16.4-95.3c-2.8-16.4-7-32.3-22.7-46.6c-5.6,4.2-12.1,7.8-16.8,13c-11.1,12.3-21,25.7-31.9,38.2
		c-45,51.7-100.1,92.1-152.4,135.7c-5.2,4.3-11.6,7.1-17.5,10.6c-21.9,12.8-43,27-65.8,37.9c-33.3,15.8-67.4,30.3-101.9,43.2
		c-20,7.5-41.2,13-62.3,15.9c-62.6,8.6-117.6-6.6-160.2-56.1c-3.1-3.7-6.8-7.1-10.6-10c-3.8-2.8-8.1-5-14-8.5
		c-13.3,28.5-27.4,55-38.4,82.8c-17.7,45-48.2,79.7-85.6,108.4c-23.7,18.2-57.8,11.9-78.9-11.1c-5.8-6.4-12.1-12.3-19-19.1
		c-5.7,3.7-11.1,6.1-15.1,9.9c-36.6,35-71.9,71.4-109.6,105.1c-43,38.4-95.2,60.7-150.5,74.6c-33.7,8.5-71-14.1-92.9-48.5
		c-37.6-59.2-61.8-123.3-76.3-191.6c-4.2-20-9.8-39.8-16.6-59.2c-3-8.6-10.3-15.7-17.6-26.4c-7.2,8.1-13.1,13-16.7,19.2
		c-22.5,39.8-44.2,80.1-67,119.7c-6.3,10.8-15.4,20.1-23.6,29.7c-29.1,34-57.4,68.8-87.7,101.7c-50.8,54.9-112.4,92.4-184.8,113.3
		c-28.5,8.2-65.8-10.8-77.5-38c-10.6-24.6,2.9-46,30-44.8c7.8,0.4,15.4,2.6,23.2,3.6c17.9,2.2,35,1.2,49.6-11.8
		c4.3-3.8,9.8-6.6,15.2-8.3c27-8.7,47.6-26.5,67-46c15.7-15.9,31.1-32.2,46.4-48.5c53.7-57.2,100.9-119.2,138.2-188.4
		c17.5-32.5,34.7-65.3,49.7-99c15.4-34.7,16.6-71.4,10.4-109c-8.3-50.1-15-100.5-21.6-150.9c-4.4-33.8-8.9-67.6-10.5-101.6
		c-1.5-31.1,0.6-62.3,1.1-93.5c0.8-56.1,17.4-109.6,27.3-164.2c7.1-39.5,12.4-80.1,33.9-114.6c14.7-23.6,33.7-45.2,53.8-64.6
		c12.6-12.1,30.2-10.2,46.5-0.8c40.8,23.5,46.4,63.6,47.5,104c1.2,43.5-2.4,87.1-3.5,130.7c-1.9,73.2-5,146.3-21.2,218.2
		c-18.7,82.7-37.2,165.4-55.8,248.1c-5.6,24.9-6.6,49.1-1.8,75.2c17.1,92.2,35.7,184,64.8,273.2c7.2,22.1,16.7,44,28.9,63.7
		c20.1,32.6,46.7,38.9,80.2,19.3c25.1-14.7,49.5-31.5,71.9-50c45.2-37.3,85.3-79.9,120.9-126.5c14.2-18.6,28.2-37.4,41.6-56.5
		c3.8-5.3,6.8-12.2,7.4-18.6c4.7-49,18-95.6,36-141.1c12.1-30.7,22.8-62.2,37.5-91.7c10.8-21.5,25.4-41.7,41.2-59.9
		c20.1-23.2,38.7-21.6,58.8,1.9c3.8,4.5,6.9,9.5,10.3,14.3c7.6,10.5,16.2,12,27.8,5.2c11.2-6.6,22.8-18.9,36.9-6.7
		c15.7,13.6,29.4,29.1,27.5,52.1c-1.7,20.4-3.5,40.9-6.1,61.2c-4.3,34.6-1.4,68,12.3,100.5c15.6,37.1,65.9,63.1,105.7,56.1
		c51.2-8.9,102.6-20.9,147.7-44.5c48.3-25.2,103.1-42.8,138.7-89.1c7.5-9.8,19.4-16.2,29.3-24.1c4.5-3.6,10.3-6.3,13.6-10.7
		c34.6-46,81.3-81.3,112.2-130.9c13-20.9,16.9-40.6,13.7-63.7c-1.4-10.3-1.9-21.3-0.1-31.5c1.9-10.4,6-22,19-23.2
		c12.8-1.2,25,0.3,33.7,12.7c17.9,25.5,26.6,53.9,29.6,84.6c4,40.8,7.2,81.7,13.9,122c4,23.7,12.7,47,22,69.3
		c8.2,19.6,17.2,21.6,33.4,10.5c40.6-27.9,80.7-56.6,121.3-84.7c16-11.1,32.5-21.5,48.8-32.2c21.8-14.3,42.8-30.2,65.8-42.3
		c27.3-14.4,42.5-39.7,61.4-61.7c25.8-30,49.6-61.8,75.8-91.3c21.5-24.1,42.9-19.3,56.3,10.7c3.2,7.1,6.9,14.4,8.2,21.9
		c5.9,35.5,11,71.1,16.4,106.7c0.4,2.9,1.1,5.8,1,8.7c-0.5,14.4-6,30.8-0.9,42.9c19.6,46.7,25.8,98.4,55.5,141.4
		c27.4,39.6,65.7,57,111.6,59.5c25.8,1.4,52,4.6,77.1-8.4c22.2-11.5,34.9-26.2,30.2-50.3c-7.9-40,6.7-74.7,20.6-110
		c8.5-21.7,18.8-42.6,26.5-64.6c22.2-63.8,70.9-106.6,119.1-149.1c12.2-10.8,31.3-15.9,48.1-19c19.9-3.7,36.6-7.4,49.4-26.2
		c14.9-22.1,38.5-24.7,47.8,4.5c4,12.7,10.4,25.4,11.1,38.4c2,37.9,16.5,71.9,28.7,106.9c4.1,11.9,7.4,24.3,9,36.8
		c0.7,5.6-2.1,15.2-6.1,17.2c-6,2.9-15.2,2.4-21.7,0C3097.1,698.6,3091.8,692.2,3084.7,686.5"/>
	<path class="st0" d="M3975.9,842c33.2-3.4,78.3-45.3,88.3-81.8c-8.5,1.6-16.8,1.2-22.6,4.8c-14.8,8.9-27.7,21.2-42.9,29.1
		C3978.9,804.3,3975,820.1,3975.9,842 M4071.2,642.7c17.5-10.7,87.3-77.6,96.2-92.5c1.9-3.2,4.7-7.3,4.2-10.5
		c-1.4-8.9-1.9-21.9-7.4-25.1c-5.8-3.3-19.9-0.1-25.6,5.2c-30.6,28.8-57.3,60.8-75.1,99.5C4058.5,630.2,4059.8,637.9,4071.2,642.7
		 M3310.3,635.7c17.2-13.5,22.9-29.8,27-45.1c19.3-71.4,59.6-131.1,103-189.2c11.4-15.3,29.4-19.3,45.6-22.7
		c13.6-2.8,21.5,10.9,25.3,23.9c9.5,32.1,11.6,65,10.7,98.2c-1.5,54.5-7.9,109.7-2.3,163.5c6,57.6,16.3,117,64.8,158.9
		c25.1,21.7,52.2,33.1,87.5,32.5c59.8-1.2,108-30.6,158.8-54.9c5.3-2.5,10-6.1,15.4-8.4c30.1-12.9,47.9-34.6,62.5-65.1
		c26-54.3,59.7-104.8,90.1-156.9c3-5.1,5.6-10.2,8-15.6c22.8-51.5,60.2-91.6,101.5-128.3c9.9-8.8,23.1-15.2,35.9-19.2
		c27.9-8.9,45.9,10.4,63.7,26.8c10,9.2,19,19.8,26.4,31.2c15,23.3,20.7,49.9,23.2,77.1c1.4,15.5,0.1,31.6,3.9,46.4
		c10.8,42.5,35.5,76.5,73,98.7c17.1,10.1,38.1,15.2,58,18.6c71.2,12.2,142.3,7.3,212.6-7.4c54.3-11.3,107.3-27.1,158.2-49.7
		c26.2-11.6,39.4-9.3,50.7,8.5c12,19,7,46.4-12.7,59.8c-18.5,12.6-37.8,24.2-57.8,34.3c-32.3,16.4-68.1,22-103,30.3
		c-22.7,5.4-45,13.1-68,16.4c-60.6,8.6-121.4,17.9-182.6,6.3c-62-11.8-120.3-31.2-164-80.9c-13.5-15.3-21.8-13.5-34.6,3.8
		c-9.2,12.5-17.6,25.7-26.2,38.6c-16.8,25.1-30.3,52.4-54.4,72.2c-6.5,5.3-10.3,14-14.7,21.6c-31.7,55.1-78.7,87.5-141.9,95.2
		c-47.1,5.7-66.1-8.2-74.5-45.9c-5.4-24.5-13.9-29-37.8-21.3c-21.1,6.8-41.8,16-60.9,27.2c-41.2,24.2-86,29.7-132,28.4
		c-67.3-1.9-115.2-38.4-152.2-91.2c-8.1-11.6-12.3-26.2-16.9-39.9c-9.5-28.6-20.8-57.1-26.2-86.6c-6.6-36.1-9.5-73.1-11-109.8
		c-0.8-18.6-3.3-34.4-20.8-49.3c-4.3,7.6-8.7,13.5-11,20.1c-10.7,29.4-21.9,58.6-30.8,88.5c-19.8,66.3-38.5,132.9-57.5,199.5
		c-6.4,22.4-11.6,45.1-18.7,67.3c-5.2,16.4-49.1,34.8-63.2,25.5c-16.2-10.7-21.9-29.7-23.9-48c-1.7-15.3-2.3-31.9,1.7-46.6
		c10-36.7,5.5-73.4,6.1-110.4c0.9-57.2,3.9-114.4,6.4-171.6c1.2-27.2-0.1-54.8,12.6-80.3c2.2-4.4,3.4-9.3,5.9-13.4
		c14.8-23.8,38.4-23.8,54-0.9c15.1,22.1,16.7,45.2,7.3,69.7C3302.3,588.1,3299.6,609.7,3310.3,635.7"/>
	<path class="st1" d="M3003.5,659.8c-4.8,13.3-9.2,26.8-14.6,40c-14.1,34.3-32.3,66.2-53.2,97c-15.4,22.7-37.5,36.5-57,53.7
		c-12.1,10.7-24.7,6-28.7-9.8c-2.2-8.9-1.3-19.3,0.9-28.5c10.1-43,28.6-82.7,50.9-120.6c7.2-12.2,19.1-21.6,28.9-32.4
		c7.1-7.8,14.9-15.2,21.1-23.7c10.2-13.9,23.9-22.5,33.1-17.8c13,6.4,16.1,18.6,15.6,32.1c-0.1,2.9,0,5.8,0,8.8
		C3001.4,659,3002.5,659.3,3003.5,659.8"/>
	<path class="st1" d="M650.1,198.5c4.4,12.2,12.6,24.5,12.6,36.7c-0.2,35.9-3.7,71.7-5.8,107.6c-0.3,4.8-1.1,9.8-0.1,14.4
		c7.1,33.3-1.3,63.2-17.8,91.9c-14.2,24.6-10.8,53-16.2,79.5c-2.6,13.2-2.4,27.1-14.4,37.2c-15.9-3.3-16.4-15.7-16.7-27.1
		c-0.5-20.5,1.4-41.1,0.2-61.5c-4.3-75.8,4.5-150,25.8-222.6c5.6-19.3,14.6-37.5,22-56.2C643.1,198.4,646.6,198.4,650.1,198.5"/>
	<path class="st1" d="M2365,745.4c12.2,2.7,16.1,9.3,14.5,19.5c-0.7,4.8-1.2,9.8-3,14.3c-13,32.3-26.3,64.6-39.5,96.8
		c-3.4,8.2-10.1,13.7-18.2,9c-4.4-2.5-8.4-11.5-7.4-16.5C2319.8,823.3,2333.8,780.3,2365,745.4"/>
	<path class="st1" d="M1922.6,1050.3c0.7,17.4-19.3,38.7-31.8,36.8c-5.5-0.8-13.6-6.3-14.5-10.9c-1.6-7.7-1.4-19.6,3.4-24
		c7.9-7.3,19.6-12,30.4-14C1914,1037.6,1919.9,1047.6,1922.6,1050.3"/>
	<path class="st1" d="M4071.2,642.7c-11.4-4.8-12.7-12.4-7.7-23.4c17.8-38.7,44.6-70.7,75.1-99.5c5.7-5.3,19.8-8.6,25.6-5.2
		c5.6,3.2,6,16.2,7.4,25.1c0.5,3.2-2.2,7.3-4.2,10.5C4158.5,565.1,4088.8,632,4071.2,642.7"/>
	<path class="st1" d="M3975.9,842c-0.9-21.9,3-37.7,22.7-48c15.2-7.9,28.1-20.2,42.9-29.1c5.8-3.5,14.1-3.1,22.6-4.8
		C4054.3,796.6,4009.1,838.6,3975.9,842"/>
</g>
</svg>
