<?xml version="1.0" encoding="utf-8"?>
<!-- Generator: Adobe Illustrator 21.1.0, SVG Export Plug-In . SVG Version: 6.00 Build 0)  -->
<svg version="1.1" id="Layer_1" xmlns="http://www.w3.org/2000/svg" xmlns:xlink="http://www.w3.org/1999/xlink" x="0px" y="0px"
	 viewBox="0 0 4924.4 1403.3" style="enable-background:new 0 0 4924.4 1403.3;" xml:space="preserve">
<style type="text/css">
	.st0{fill:#231F20;}
	.st1{fill:#FFFFFF;}
</style>
<path class="st0" d="M2188.7,801.9c-25.1,24.3-41.5,53.3-43.6,80.3c-0.6,7.2,2.9,16.3,7.7,21.7c2.7,3.1,12.6,2.7,17.8,0.4
	C2207.8,887.9,2218,833.1,2188.7,801.9 M465.7,939.2c18.2,0.3,23.1-7.8,25.9-18.8c10-39.8,20.5-79.5,30.5-119.3
	c4.1-16.2,10.1-32.4,10.5-48.8c0.9-37.1-0.9-74.4-2-111.5c-0.6-22.4-3.4-44.8-2.2-67c1-19.6-8-31.3-25.3-44.7
	c-6,16-11.6,29.5-16.2,43.4c-4.6,14.2-8.2,28.7-12.2,43.2c-3.5,12.5-8.8,24.9-10.1,37.7c-3.2,31.7-5.4,63.5-6.3,95.3
	c-1.2,43.1-1.7,86.3-0.7,129.4C458.1,898.2,462.8,918.3,465.7,939.2 M1642,818.5c-21.1,14.2-23.9,37.9-32,58.2
	c-11.5,28.7-22.6,57.5-31.8,87c-10.6,34-19.7,68.6-28,103.2c-3.1,13-6.8,21.5-21.6,25.5c-16.9,4.6-32.9,11.1-46.2-4.8
	c-12.8-15.4-21.6-32-17.2-54.1c8.4-42.3,16.8-84.8,21.8-127.6c4.1-35.1,3.6-70.7,4.1-106.2c0.1-5.5-4.6-15.1-8.3-15.7
	c-5.9-0.9-16,2.1-18.8,6.7c-15.2,25.9-28.9,52.6-42.6,79.4c-11.9,23.3-24.9,46.3-33.9,70.7c-14.2,38.6-26,78.1-37.8,117.5
	c-5.1,17-8,34.7-11.3,52.2c-5.1,26.7-27.3,34.3-48.3,41.6c-12,4.2-22.2-3.9-27.8-14.6c-9.1-17.6-15-35.8-12.4-56.7
	c10.1-80.4,9.2-161,4.3-241.7c-0.6-10.9-4.3-14.3-23.5-24.1c-15.4,29.5-32.2,58.6-46,89c-27.9,61.1-64.5,116.5-107.4,167.7
	c-10.5,12.6-25.9,21.2-39.1,31.5c-2.2,1.7-6,1.9-7.4,3.9c-19.7,29-52.3,35.1-82.2,44.9c-25.2,8.4-49.7,1-70.8-14.3
	c-11.9-8.7-21.7-20.3-33.3-31.3c-24.8,12.1-40.4,32.5-57.8,50.3c-31,31.8-63.3,61-108.3,71.6c-20.9,4.9-41.3,12.1-62.3,16.4
	c-36.7,7.4-70.7,2.3-99.2-24.9c-15.5-14.8-32-28.7-48.2-42.9c-6.9-6-14.2-11.6-23.2-19c-18.2,18.4-35.9,35-52,52.9
	c-30.1,33.4-62.8,62.9-101.3,87.2c-27.6,17.4-52.9,38.2-83.3,51.7c-29.4,13.1-58.8,23.6-91.8,24.5c-27.5,0.7-46.2-10.8-61.5-32.1
	c-9.5-13.2-10.8-27.3-2.5-39.4c13.8-19.8,28.6-39.6,46.3-55.9c19.9-18.3,33.2-12.7,41.6,13.4c5.1,15.8,21.2,22.7,38.9,12.8
	c25.2-14.1,49.3-30.3,72.8-47.1c19.6-14.1,38.7-29.4,56-46.2c29.5-28.8,57.6-59,85.9-88.9c10.5-11,12.7-24.7,10.1-39.4
	c-4-23.1-8.3-46.2-12.1-69.4c-3.3-20.3-6.9-40.6-8.6-61.1c-2.7-31.8-4.4-63.7-5.7-95.6c-2.5-64,4.8-127.1,17.8-189.7
	c2.3-10.9,0.7-22.6,3.1-33.5c10.9-49.6,23.5-98.9,46.6-144.3c10.1-19.8,26.3-36.4,46.8-47.3c20.2-10.8,27.3-8.4,45.7,5.1
	c30.4,22.4,36.6,56,43.4,88.8c6.4,30.8,15.3,61.1,12.3,94.2c-2.5,27.6,6.5,56,6.5,84.1c0.1,77-8.8,153.1-27.4,228.2
	c-11.6,46.8-26.8,91.3-52.7,132.5c-27,42.9-16.1,77.8,25.6,107.9c26.3,19,51.8,19.3,82.2,13.2c44.7-8.9,73.2-38.6,104.2-67
	c36.5-33.5,61.9-75.6,90.4-115c9.4-13,13.1-30.7,17-46.9c12.7-52,23.7-104.5,36.7-156.4c6.2-24.7,18.9-46.7,35.4-66.4
	c20.2-24.2,51-26,70.9-1.4c9.8,12.1,17.2,27.2,22,42.1c4,12.1,5.5,26.6,3.1,39c-7.8,40.5-16.3,80.9-40.6,116.1
	c-18.1,26.2-35.6,53.3-48.8,82.1c-7,15.1-7,34.9-5.3,52.1c2.8,28.2,25,36.4,49.2,21.4c38.3-23.7,66-57.8,93.9-91.8
	c31.2-37.9,55.1-80,77.1-124c29.7-59.5,63.2-117,95.2-175.3c2.3-4.1,4.8-8.1,7.9-11.6c15.3-17.4,31.5-16.9,47.8,0
	c18.4,19.1,27.3,42.8,31.9,67.9c5.4,29.5,8.9,59.4,12.6,89.1c2.1,16.4,1.5,16.5,17,31.9c14.3-24.4,30.1-47.5,42.1-72.4
	c22.1-46,49.8-87.6,87.6-122c8.3-7.5,17.7-13.9,27.4-19.5c27.8-16.3,47.4-12.6,64.5,14c7.8,12.3,11.5,27.3,16.8,41.2
	c3.1,8.3,5.7,16.9,8.5,25.5c18.6-1.9,24.3-14.3,31.5-25.1c14-21,27.1-42.6,42.6-62.5c13.5-17.3,22.8-17.1,41.1-4.9
	c16.1,10.7,24.9,25.4,25.2,44.6c0.2,13.2-0.4,26.3-0.9,39.5c-1.2,33.8-4.2,67.5-3.4,101.2c0.6,27,3.4,54.4,9.6,80.5
	c11,45.9,35.6,63.5,82.1,57.6c35.1-4.4,68.7-13.7,100.9-31.7c34.4-19.3,62.4-47.3,96.6-65.7c39.8-21.4,59.3-56.9,76.9-95.8
	c8.7-19.3,23.3-36.3,37.2-52.6c9.3-11,15.1-21.2,10.8-35.5c-1.1-3.6-0.8-7.5-1.7-11.1c-11.4-43.7,12.3-75.8,36.9-106.6
	c15.1-19,66.9-25.8,89.8-15.4c56.7,25.8,91.9,72.9,123.5,123.8c19.4,31.4,34.1,64.8,45.5,99.8c3.7,11.3,6.3,24.2,23,28.3
	c3.8-3.6,9.4-7.2,12.6-12.4c17.3-27.9,32.4-57.3,51.3-84.1c25.8-36.6,52.7-72.8,82.3-106.4c10.9-12.4,30-18.8,46.5-24.8
	c16.7-6.2,39.5,4.9,50.3,22.8c5.8,9.5,11.4,20.3,12.8,31.1c4.9,38.1,8.6,76.4,11.6,114.7c5.1,63.1,14.7,125.5,46.5,181
	c21,36.6,49.1,66.5,98.3,63.2c28.9-1.9,58.1,0.8,87.1-0.2c24.3-0.9,48.3-3.8,71.4-14c21.2-9.4,43.9-15.4,66.2-22.1
	c10.3-3.1,20.9-3,27,8.6c5.3,10.3-3.4,15.3-8.7,21.5c-2.4,2.8-5.1,5.9-8.3,7.5c-29.9,14.3-59.6,29.3-90.1,42.2
	c-23.3,9.8-47.8,16.7-71.6,25.5c-16.3,6-32.4,8.7-49.5,4.1c-4.2-1.1-9.5-0.1-13.9,1.3c-41.9,13.5-77.7-3.8-111.8-24.1
	c-35.2-20.9-56.4-54.9-72.7-91.2c-26-57.8-37.2-119.6-43.8-182.3c-2-18.6-3.4-37.3-5.4-55.9c-1.2-11.5-3.9-22.4-20.3-28
	c-14.1,18.1-30.3,36.1-43.2,56.2c-17.7,27.6-35.6,55.7-48.6,85.6c-19.3,44.4-48.5,84.2-58,133.3c-4.9,25.5-15.9,49.8-24.7,74.5
	c-6.3,17.8-23.2,27.5-44.6,26.4c-14.7-0.7-24.7-11.1-32-27.3c-10.3-22.9-3.6-44.8,2.6-66.1c17.5-60,5.2-117.2-14-173.8
	c-6.6-19.4-15.6-38-24.4-56.5c-15.7-32.9-40.9-58.2-67.9-81.7c-12.3-10.8-26.7-17.1-44.1-8.8c-10.9,5.2-13.7,12.1-9.4,22.5
	c5,12.2,10.4,24.1,15.6,36.2c1.5,3.4,4.6,6.8,4.5,10.2c-1,42.6,25.2,78.3,30.4,119.3c2.7,21.4,6.2,42.9,6.9,64.4
	c0.9,26.8-16.4,47-28.2,69.4c-19.6,37.4-56.9,41.5-91,46.8c-31.2,4.8-54.8-14.8-73-39.9c-22.2-30.7-36.7-32.9-66.1-7.8
	c-32.7,27.8-69.5,47.7-109.5,62c-31.9,11.4-64.2,21.3-98.5,23c-49.6,2.4-87.6-18.3-113.8-59.4c-21.5-33.7-35.6-70-36.2-111.1
	C1660.2,845.6,1659.6,828.2,1642,818.5"/>
<path class="st0" d="M4134.5,539.9c10.6-15,17.8-24.6,24.2-34.7c21-33.1,51.7-54.7,87.1-68.1c37.7-14.3,74.9-3.1,99.7,25.3
	c21,23.9,43.8,45.8,65.1,69.3c15.8,17.5,18.9,27.7,16.8,51.8c-17.7,1.6-32.1,0.7-46.7-15.3c-16.6-18.3-38.2-33.2-59.9-45.6
	c-24.5-13.9-52.3-12-74.8,4.6c-20.8,15.4-37.5,34.8-48.1,60.9c-27.9,68.9-52.4,138.5-64.3,212.1c-3.9,24-8.3,48.6-7.1,72.7
	c0.8,14.9-0.6,25.6-11.7,34.6c-12.3,10-26.2,14.6-42.1,10.4c-17.3-4.5-28.4-19.5-31.6-38.1c-5.3-31.7-4.1-63.5-3.6-95.5
	c0.2-12,3.5-26.8-14-34.1c-23.9,27-46.8,54.1-71.2,79.9c-27,28.6-87.7,40.7-116.9,23.1c-11.7-7-21.1-18.2-30.9-28
	c-9.1-9.1-17.5-19-27.5-29.9c-23.9,31.5-46.6,59.7-67.4,89.3c-23,32.5-53.2,49.1-92.8,48.2c-19-0.5-29.6-10-36.5-28.8
	c-19.3-52.4-2.4-99.6,17.3-146.7c6.5-15.5,14.6-30.4,22.2-45.4c5.5-10.8,10.7-21.9,17.2-32.2c18.4-29.2,38.1-57.7,55.9-87.3
	c14-23.4,9-33.3-18.1-33.6c-38.4-0.3-77.1,0.4-115.3,4c-34.2,3.2-67.9,12.1-102.1,16.3c-18.2,2.2-21.2,13.4-21.6,27.1
	c-1.2,40.3-2.1,80.6-2.3,120.9c-0.2,38.4,0.4,76.9,0.8,115.4c0.1,13.1,0.7,26.2,1.5,39.3c2.8,47.8,6.3,95.5,8.2,143.4
	c0.6,16.8-1.7,32.7-23.3,39.7c-24.3,7.8-30.9,8.3-43.3-14c-5.7-10.2-8.9-22.8-9.7-34.6c-4.3-60.8-8.8-121.6-10.7-182.5
	c-1.3-41.2,2.3-82.5,2.7-123.7c0.2-25.4-1.5-50.8-2.1-76.1c-0.6-23.7-13-33.3-34.7-24.1c-41.5,17.4-82.6,35.8-123.3,54.8
	c-26.8,12.5-47.4,8.1-58.1-17.8c-4.4-10.7-0.7-24.7-0.7-33.7c21.2-10.8,37.3-20.1,54.2-27.5c30.9-13.4,62.2-25.8,93.5-38.3
	c20-8.1,40.4-15.5,60.5-23.5c9.3-3.7,15.7-9.7,15.9-20.9c1-41.9,3.7-83.9,3.4-125.8c-0.5-64.7-3.8-129.3-4-193.9
	c-0.1-23.2,4.9-46.5,8.6-69.5c1.8-11,9.4-18.3,20.8-20.5c11.6-2.3,19.1,3.5,26.6,11.9c14.8,16.5,21,34.8,16.1,56.7
	c-12.1,55.2-6.1,109.8,0.8,165.2c5,39.8,2.5,80.6,1.9,121c-0.7,47.7,0.2,49.6,48.7,44.5c22.4-2.4,44.5-7.2,66.8-10.4
	c23.2-3.4,47.1-11,69.5-8c35.8,4.7,71.4-0.4,106.4,3.6c24.2,2.8,44.1-4.9,65.5-10.1c7.2-1.8,14.1-5.1,21.4-6.6
	c27.6-5.6,45.1,6.4,50.3,34.4c4.4,24-0.2,47.1-8.5,69.3c-15.3,41.4-16.5,84.8-17.2,127.7c-0.3,19.7,6.9,40.7,15.3,59
	c9.1,19.6,19.7,20.2,39.4,10.7c16.5-7.9,28.1-20.7,40.5-33.7c44.8-46.8,74.6-103,101.2-160.8c9.2-20,11.5-43.3,16.8-65.1
	c0.7-2.7-0.6-6.6,0.9-8.3c9.7-10.9,18.1-26.6,30.3-30.6c13.6-4.5,21.1,12.3,26.5,24.1C4119.7,502.4,4125.6,518,4134.5,539.9"/>
<path class="st0" d="M4495.5,915.8c2.4-41,5.1-81.9,7.1-122.9c1-20.5,0.4-41.1,0.8-61.7c0.3-12.4-7.1-17-17.7-16.8
	c-11.2,0.3-22.4,3-33.6,3.4c-24.2,0.8-30.3-4.1-37.6-27.5c-1.1-3.5-3.1-6.8-4.4-10.3c-12.3-32.3-0.3-49.7,35.1-51.7
	c14.1-0.8,28.1-3,42.1-4c15.8-1.1,23.7-9.4,24.8-25c2.2-30.7,4.2-61.5,7.2-92.1c3.9-40.1,9-80.1,12.9-120.1
	c1.4-14.9,0.6-29.9,1.4-44.8c1.7-27.9,3.8-55.8,5.8-83.7c1.6-22.2,3.3-44.5,5.3-66.8c4.1-45.6,6.1-91.5,13.7-136.5
	c5.1-30.5,26.8-34.4,47.5-10.6c13.7,15.8,22.7,34.3,20.7,56.6c-3.7,39.3-7.9,78.5-10.1,117.9c-2.4,45-2.2,90.1-4.2,135.1
	c-2,43.1-6.1,86-8,129.1c-1.4,31.8,2.1,63.7-8.9,94.8c-5.5,15.7,4.3,27.9,21.3,28.9c15.8,0.9,31.9-1.5,47.8-1.5
	c23.5-0.1,47.1,2.5,70.3,0.3c23.1-2.2,45.7-9.7,68.7-13.7c16.5-2.9,33.3-4.4,50.1-5.5c13.9-0.9,20.4,8.8,22.7,20.6
	c2.3,11.7-7,21.8-20.3,25.8c-40.4,12-80.6,25.2-121.2,36.4c-25.2,6.9-51.1,11.1-76.8,16.1c-7.3,1.4-15,0.9-22.4,1.9
	c-32.1,4.2-45.2,15.2-49.4,46.7c-3.5,26-4.5,52.4-5.3,78.6c-1.6,50.7-1.7,101.5-3.4,152.2c-0.9,25.1-11.4,34.1-39.8,37.2
	c-17.3,1.9-31.1-9.1-36.1-31.4c-4-17.9-6-36.2-8.8-54.4C4493.7,916.2,4494.6,916,4495.5,915.8"/>
<path class="st1" d="M465.7,939.2c-2.9-20.9-7.6-41-8-61.2c-1-43.1-0.5-86.3,0.7-129.3c0.9-31.8,3.1-63.7,6.3-95.3
	c1.3-12.8,6.6-25.2,10.1-37.7c4-14.4,7.6-28.9,12.2-43.1c4.5-13.9,10.2-27.4,16.2-43.4c17.3,13.3,26.3,25.1,25.3,44.7
	c-1.1,22.2,1.6,44.6,2.2,67c1,37.2,2.9,74.4,1.9,111.5c-0.4,16.3-6.4,32.6-10.5,48.8c-10,39.8-20.5,79.6-30.5,119.4
	C488.8,931.4,483.8,939.5,465.7,939.2"/>
<path class="st1" d="M2188.8,801.9c29.2,31.2,19,86.1-18.1,102.5c-5.2,2.3-15.1,2.7-17.8-0.4c-4.8-5.5-8.2-14.5-7.7-21.7
	C2147.2,855.2,2163.6,826.1,2188.8,801.9"/>
</svg>
