<svg xmlns="http://www.w3.org/2000/svg" viewBox="0 0 4829.05 1344.96"><title>lemontart</title><path d="M3096.8,934.4c-22.3,6.7-45,12.7-66.2,22.1-23.1,10.2-47.1,13.1-71.4,14-29,1-58.2-1.7-87.1.2-49.2,3.3-77.3-26.6-98.3-63.2-31.8-55.5-41.4-117.9-46.5-181-3-38.3-6.7-76.6-11.6-114.7-1.4-10.8-7-21.6-12.8-31.1-10.8-17.9-33.6-29-50.3-22.8-16.5,6-35.6,12.4-46.5,24.8-29.6,33.6-56.5,69.8-82.3,106.4-18.9,26.8-34,56.2-51.3,84.1-3.2,5.2-8.8,8.8-12.6,12.4-16.7-4.1-19.3-17-23-28.3-11.4-35-26.1-68.4-45.5-99.8-31.6-50.9-66.8-98-123.5-123.8-22.9-10.4-74.7-3.6-89.8,15.4-24.6,30.8-48.3,62.9-36.9,106.6.9,3.6.6,7.5,1.7,11.1,4.3,14.3-1.5,24.5-10.8,35.5-13.9,16.3-28.5,33.3-37.2,52.6-17.6,38.9-37.1,74.4-76.9,95.8-34.2,18.4-62.2,46.4-96.6,65.7-32.2,18-65.8,27.3-100.9,31.7-46.5,5.9-71.1-11.7-82.1-57.6-6.2-26.1-9-53.5-9.6-80.5-.8-33.7,2.2-67.4,3.4-101.2.5-13.2,1.1-26.3.9-39.5-.3-19.2-9.1-33.9-25.2-44.6-18.3-12.2-27.6-12.4-41.1,4.9-15.5,19.9-28.6,41.5-42.6,62.5-7.2,10.8-12.9,23.2-31.5,25.1-2.8-8.6-5.4-17.2-8.5-25.5-5.3-13.9-9-28.9-16.8-41.2-17.1-26.6-36.7-30.3-64.5-14a160.21,160.21,0,0,0-27.4,19.5c-37.8,34.4-65.5,76-87.6,122-12,24.9-27.8,48-42.1,72.4-15.5-15.4-14.9-15.5-17-31.9-3.7-29.7-7.2-59.6-12.6-89.1-4.6-25.1-13.5-48.8-31.9-67.9-16.3-16.9-32.5-17.4-47.8,0a65.91,65.91,0,0,0-7.9,11.6c-32,58.3-65.5,115.8-95.2,175.3-22,44-45.9,86.1-77.1,124-27.9,34-55.6,68.1-93.9,91.8-24.2,15-46.4,6.8-49.2-21.4-1.7-17.2-1.7-37,5.3-52.1,13.2-28.8,30.7-55.9,48.8-82.1,24.3-35.2,32.8-75.6,40.6-116.1,2.4-12.4.9-26.9-3.1-39-4.8-14.9-12.2-30-22-42.1-19.9-24.6-50.7-22.8-70.9,1.4-16.5,19.7-29.2,41.7-35.4,66.4-13,51.9-24,104.4-36.7,156.4-3.9,16.2-7.6,33.9-17,46.9-28.5,39.4-53.9,81.5-90.4,115-31,28.4-59.5,58.1-104.2,67-30.4,6.1-55.9,5.8-82.2-13.2-41.7-30.1-52.6-65-25.6-107.9,25.9-41.2,41.1-85.7,52.7-132.5a940.5,940.5,0,0,0,27.4-228.2c0-28.1-9-56.5-6.5-84.1,3-33.1-5.9-63.4-12.3-94.2-6.8-32.8-13-66.4-43.4-88.8-18.4-13.5-25.5-15.9-45.7-5.1a110.65,110.65,0,0,0-46.8,47.3c-23.1,45.4-35.7,94.7-46.6,144.3-2.4,10.9-.8,22.6-3.1,33.5-13,62.6-20.3,125.7-17.8,189.7,1.3,31.9,3,63.8,5.7,95.6,1.7,20.5,5.3,40.8,8.6,61.1,3.8,23.2,8.1,46.3,12.1,69.4,2.6,14.7.4,28.4-10.1,39.4-28.3,29.9-56.4,60.1-85.9,88.9-17.3,16.8-36.4,32.1-56,46.2-23.5,16.8-47.6,33-72.8,47.1-17.7,9.9-33.8,3-38.9-12.8-8.4-26.1-21.7-31.7-41.6-13.4-17.7,16.3-32.5,36.1-46.3,55.9-8.3,12.1-7,26.2,2.5,39.4,15.3,21.3,34,32.8,61.5,32.1,33-.9,62.4-11.4,91.8-24.5,30.4-13.5,55.7-34.3,83.3-51.7,38.5-24.3,71.2-53.8,101.3-87.2,16.1-17.9,33.8-34.5,52-52.9,9,7.4,16.3,13,23.2,19,16.2,14.2,32.7,28.1,48.2,42.9,28.5,27.2,62.5,32.3,99.2,24.9,21-4.3,41.4-11.5,62.3-16.4,45-10.6,77.3-39.8,108.3-71.6,17.4-17.8,33-38.2,57.8-50.3,11.6,11,21.4,22.6,33.3,31.3,21.1,15.3,45.6,22.7,70.8,14.3,29.9-9.8,62.5-15.9,82.2-44.9,1.4-2,5.2-2.2,7.4-3.9,13.2-10.3,28.6-18.9,39.1-31.5,42.9-51.2,79.5-106.6,107.4-167.7,13.8-30.4,30.6-59.5,46-89,19.2,9.8,22.9,13.2,23.5,24.1,4.9,80.7,5.8,161.3-4.3,241.7-2.6,20.9,3.3,39.1,12.4,56.7,5.6,10.7,15.8,18.8,27.8,14.6,21-7.3,43.2-14.9,48.3-41.6,3.3-17.5,6.2-35.2,11.3-52.2,11.8-39.4,23.6-78.9,37.8-117.5,9-24.4,22-47.4,33.9-70.7,13.7-26.8,27.4-53.5,42.6-79.4,2.8-4.6,12.9-7.6,18.8-6.7,3.7.6,8.4,10.2,8.3,15.7-.5,35.5,0,71.1-4.1,106.2-5,42.8-13.4,85.3-21.8,127.6-4.4,22.1,4.4,38.7,17.2,54.1,13.3,15.9,29.3,9.4,46.2,4.8,14.8-4,18.5-12.5,21.6-25.5,8.3-34.6,17.4-69.2,28-103.2,9.2-29.5,20.3-58.3,31.8-87,8.1-20.3,10.9-44,32-58.2,17.6,9.7,18.2,27.1,18.5,42.5.6,41.1,14.7,77.4,36.2,111.1,26.2,41.1,64.2,61.8,113.8,59.4,34.3-1.7,66.6-11.6,98.5-23,40-14.3,76.8-34.2,109.5-62,29.4-25.1,43.9-22.9,66.1,7.8,18.2,25.1,41.8,44.7,73,39.9,34.1-5.3,71.4-9.4,91-46.8,11.8-22.4,29.1-42.6,28.2-69.4-.7-21.5-4.2-43-6.9-64.4-5.2-41-31.4-76.7-30.4-119.3.1-3.4-3-6.8-4.5-10.2-5.2-12.1-10.6-24-15.6-36.2-4.3-10.4-1.5-17.3,9.4-22.5,17.4-8.3,31.8-2,44.1,8.8,27,23.5,52.2,48.8,67.9,81.7,8.8,18.5,17.8,37.1,24.4,56.5,19.2,56.6,31.5,113.8,14,173.8-6.2,21.3-12.9,43.2-2.6,66.1,7.3,16.2,17.3,26.6,32,27.3,21.4,1.1,38.3-8.6,44.6-26.4,8.8-24.7,19.8-49,24.7-74.5,9.5-49.1,38.7-88.9,58-133.3,13-29.9,30.9-58,48.6-85.6,12.9-20.1,29.1-38.1,43.2-56.2,16.4,5.6,19.1,16.5,20.3,28,2,18.6,3.4,37.3,5.4,55.9,6.6,62.7,17.8,124.5,43.8,182.3,16.3,36.3,37.5,70.3,72.7,91.2,34.1,20.3,69.9,37.6,111.8,24.1,4.4-1.4,9.7-2.4,13.9-1.3,17.1,4.6,33.2,1.9,49.5-4.1,23.8-8.8,48.3-15.7,71.6-25.5,30.5-12.9,60.2-27.9,90.1-42.2,3.2-1.6,5.9-4.7,8.3-7.5,5.3-6.2,14-11.2,8.7-21.5C3117.7,931.4,3107.1,931.3,3096.8,934.4ZM465.7,939.2c-2.9-20.9-7.6-41-8.1-61.1-1-43.1-.5-86.3.7-129.4.9-31.8,3.1-63.6,6.3-95.3,1.3-12.8,6.6-25.2,10.1-37.7,4-14.5,7.6-29,12.2-43.2,4.6-13.9,10.2-27.4,16.2-43.4,17.3,13.4,26.3,25.1,25.3,44.7-1.2,22.2,1.6,44.6,2.2,67,1.1,37.1,2.9,74.4,2,111.5-.4,16.4-6.4,32.6-10.5,48.8-10,39.8-20.5,79.5-30.5,119.3C488.8,931.4,483.9,939.5,465.7,939.2Zm1704.9-34.9c-5.2,2.3-15.1,2.7-17.8-.4-4.8-5.4-8.3-14.5-7.7-21.7,2.1-27,18.5-56,43.6-80.3C2218,833.1,2207.8,887.9,2170.6,904.3ZM4380.7,568.2c-16.6-18.3-38.2-33.2-59.9-45.6-24.5-13.9-52.3-12-74.8,4.6-20.8,15.4-37.5,34.8-48.1,60.9-27.9,68.9-52.4,138.5-64.3,212.1-3.9,24-8.3,48.6-7.1,72.7.8,14.9-.6,25.6-11.7,34.6-12.3,10-26.2,14.6-42.1,10.4-17.3-4.5-28.4-19.5-31.6-38.1-5.3-31.7-4.1-63.5-3.6-95.5.2-12,3.5-26.8-14-34.1-23.9,27-46.8,54.1-71.2,79.9-27,28.6-87.7,40.7-116.9,23.1-11.7-7-21.1-18.2-30.9-28-9.1-9.1-17.5-19-27.5-29.9-23.9,31.5-46.6,59.7-67.4,89.3-23,32.5-53.2,49.1-92.8,48.2-19-.5-29.6-10-36.5-28.8-19.3-52.4-2.4-99.6,17.3-146.7,6.5-15.5,14.6-30.4,22.2-45.4,5.5-10.8,10.7-21.9,17.2-32.2,18.4-29.2,38.1-57.7,55.9-87.3,14-23.4,9-33.3-18.1-33.6-38.4-.3-77.1.4-115.3,4-34.2,3.2-67.9,12.1-102.1,16.3-18.2,2.2-21.2,13.4-21.6,27.1-1.2,40.3-2.1,80.6-2.3,120.9-.2,38.4.4,76.9.8,115.4.1,13.1.7,26.2,1.5,39.3,2.8,47.8,6.3,95.5,8.2,143.4.6,16.8-1.7,32.7-23.3,39.7-24.3,7.8-30.9,8.3-43.3-14-5.7-10.2-8.9-22.8-9.7-34.6-4.3-60.8-8.8-121.6-10.7-182.5-1.3-41.2,2.3-82.5,2.7-123.7.2-25.4-1.5-50.8-2.1-76.1-.6-23.7-13-33.3-34.7-24.1-41.5,17.4-82.6,35.8-123.3,54.8-26.8,12.5-47.4,8.1-58.1-17.8-4.4-10.7-.7-24.7-.7-33.7,21.2-10.8,37.3-20.1,54.2-27.5,30.9-13.4,62.2-25.8,93.5-38.3,20-8.1,40.4-15.5,60.5-23.5,9.3-3.7,15.7-9.7,15.9-20.9,1-41.9,3.7-83.9,3.4-125.8-.5-64.7-3.8-129.3-4-193.9-.1-23.2,4.9-46.5,8.6-69.5,1.8-11,9.4-18.3,20.8-20.5,11.6-2.3,19.1,3.5,26.6,11.9,14.8,16.5,21,34.8,16.1,56.7-12.1,55.2-6.1,109.8.8,165.2,5,39.8,2.5,80.6,1.9,121-.7,47.7.2,49.6,48.7,44.5,22.4-2.4,44.5-7.2,66.8-10.4,23.2-3.4,47.1-11,69.5-8,35.8,4.7,71.4-.4,106.4,3.6,24.2,2.8,44.1-4.9,65.5-10.1,7.2-1.8,14.1-5.1,21.4-6.6,27.6-5.6,45.1,6.4,50.3,34.4,4.4,24-.2,47.1-8.5,69.3-15.3,41.4-16.5,84.8-17.2,127.7-.3,19.7,6.9,40.7,15.3,59,9.1,19.6,19.7,20.2,39.4,10.7,16.5-7.9,28.1-20.7,40.5-33.7,44.8-46.8,74.6-103,101.2-160.8,9.2-20,11.5-43.3,16.8-65.1.7-2.7-.6-6.6.9-8.3,9.7-10.9,18.1-26.6,30.3-30.6,13.6-4.5,21.1,12.3,26.5,24.1,6.8,14.6,12.7,30.2,21.6,52.1,10.6-15,17.8-24.6,24.2-34.7,21-33.1,51.7-54.7,87.1-68.1,37.7-14.3,74.9-3.1,99.7,25.3,21,23.9,43.8,45.8,65.1,69.3,15.8,17.5,18.9,27.7,16.8,51.8C4409.7,585.1,4395.3,584.2,4380.7,568.2ZM4856,633.1c-40.4,12-80.6,25.2-121.2,36.4-25.2,6.9-51.1,11.1-76.8,16.1-7.3,1.4-15,.9-22.4,1.9-32.1,4.2-45.2,15.2-49.4,46.7-3.5,26-4.5,52.4-5.3,78.6-1.6,50.7-1.7,101.5-3.4,152.2-.9,25.1-11.4,34.1-39.8,37.2-17.3,1.9-31.1-9.1-36.1-31.4-4-17.9-6-36.2-8.8-54.4l2.7-.6c2.4-41,5.1-81.9,7.1-122.9,1-20.5.4-41.1.8-61.7.3-12.4-7.1-17-17.7-16.8-11.2.3-22.4,3-33.6,3.4-24.2.8-30.3-4.1-37.6-27.5-1.1-3.5-3.1-6.8-4.4-10.3-12.3-32.3-.3-49.7,35.1-51.7,14.1-.8,28.1-3,42.1-4,15.8-1.1,23.7-9.4,24.8-25,2.2-30.7,4.2-61.5,7.2-92.1,3.9-40.1,9-80.1,12.9-120.1,1.4-14.9.6-29.9,1.4-44.8,1.7-27.9,3.8-55.8,5.8-83.7,1.6-22.2,3.3-44.5,5.3-66.8,4.1-45.6,6.1-91.5,13.7-136.5,5.1-30.5,26.8-34.4,47.5-10.6,13.7,15.8,22.7,34.3,20.7,56.6-3.7,39.3-7.9,78.5-10.1,117.9-2.4,45-2.2,90.1-4.2,135.1-2,43.1-6.1,86-8,129.1-1.4,31.8,2.1,63.7-8.9,94.8-5.5,15.7,4.3,27.9,21.3,28.9,15.8.9,31.9-1.5,47.8-1.5,23.5-.1,47.1,2.5,70.3.3s45.7-9.7,68.7-13.7c16.5-2.9,33.3-4.4,50.1-5.5,13.9-.9,20.4,8.8,22.7,20.6S4869.3,629.1,4856,633.1Z" transform="translate(-47.6 -29.27)" fill="#231f20"/></svg>