<?xml version="1.0" encoding="utf-8"?>
<!-- Generator: Adobe Illustrator 21.1.0, SVG Export Plug-In . SVG Version: 6.00 Build 0)  -->
<svg version="1.1" id="Layer_1" xmlns="http://www.w3.org/2000/svg" xmlns:xlink="http://www.w3.org/1999/xlink" x="0px" y="0px"
	 viewBox="0 0 4924.4 1403.3" style="enable-background:new 0 0 4924.4 1403.3;" xml:space="preserve">
<style type="text/css">
	.st0{fill:#BF2A00;}
</style>
<path class="st0" d="M1133.2,994.7c-30.9-105-62.2-210-94-314.7c-15.8-52.1-31.7-104.1-47.7-156.1c-6.4-20.7-12.5-41.6-20.3-61.9
	c-8.3-21.4-17-42.8-27-63.5c-4-8.2-8.4-16.3-13.4-24c-12.1-18.7-25.7-36.6-40.8-53c-2.9-3.1-6-6.2-9.2-9c-1.6-1.4-3.2-2.7-4.9-4
	c-12-9.5-24-19.4-36.6-28.1c-3.3-2.3-6.7-4.3-10.3-6.2c-15.9-8.2-32.6-15.1-49.5-20.9c-4.1-1.4-8.4-2.5-12.7-3.3
	c-18.5-3.4-37.5-6.8-56.4-7c-18.1-0.2-39.6,4.1-55.5,6.6c-5.2,0.8-10.3,2-15.4,3.5c-2.4,0.8-4.8,1.6-7.1,2.5
	c-14.5,5.7-29.2,11.8-43.4,18.3c-5.1,2.4-10.1,5.1-14.9,8.1c-12.3,7.8-24.4,17.6-35.7,26.7c-3.8-4.9-8-9.6-12.4-14
	c-19.7-19.6-43-33.1-69.7-40.6c-53.6-14.8-114.8,0.3-153.7,40.6c-61.4,63.6-117.2,131.5-171.1,201.6c-13,17-25.8,34.2-38.3,51.5
	c-11.5,18.1-17.8,37.7-18.7,58.7c-4.7,21-3.8,42,2.8,63c4.9,20.6,14.3,38.5,28.3,53.7c11.1,17.2,25.9,30.8,44.3,40.7
	c12.6,5.3,25.2,10.6,37.7,15.9c28,7.5,56,7.5,84,0c12.6-5.3,25.2-10.6,37.7-15.9c4.6-2.7,9-5.6,13.3-8.7c0.9,5.5,1.7,10.9,2.6,16.4
	c3.6,23,7,46,10.2,69.1c8.5,65.7,15.6,131.6,21,197.6c1.7,20.4,3.2,40.8,4.6,61.2c-0.8,21.8,3.7,42,13.6,60.9
	c6.4,19.6,17.3,36.5,32.7,50.8c14.3,15.4,31.3,26.3,50.8,32.7c18.8,9.9,39.1,14.4,60.9,13.6c14-1.9,28-3.8,42-5.6
	c26.8-7.5,50-21.1,69.7-40.6c8.2-10.7,16.5-21.3,24.7-32c14.3-24.6,21.5-51.2,21.6-79.7l33.1-397c0.4-4.7,0.8-9.5,1.2-14.2
	c4.7,15.3,9.4,30.6,14,45.9c22.3,73.3,44.4,146.7,66.3,220.2c12.3,41.3,24.5,82.7,36.7,124.1c4.9,20.6,14.3,38.5,28.3,53.7
	c11.1,17.2,25.9,30.8,44.3,40.7c18.1,11.5,37.7,17.8,58.7,18.7c21,4.7,42,3.8,63-2.8c12.6-5.3,25.2-10.6,37.7-15.9
	c23.7-14,42.6-32.9,56.7-56.7c5.3-12.6,10.6-25.2,15.9-37.7C1140.7,1050.7,1140.7,1022.7,1133.2,994.7z"/>
<path class="st0" d="M1954.1,800.5c-1.6-21-4.7-41.9-8.2-62.7c-1.3-7.4-2.9-14.8-4.8-22c-7.1-27-18.9-52.6-29.9-78.2
	c-5.9-13.8-12.6-27.2-19.9-40.3c-14.6-26-31.4-50.7-49.5-74.4c-25.7-33.8-51.6-67.2-81.2-97.7c-20.5-21.2-42.2-41.2-65.1-59.8
	c-21.1-17.2-42.7-33.8-64.7-49.8c-18.1-11.5-37.7-17.8-58.7-18.7c-14.6-3.3-29.3-3.8-43.9-1.6c-14.2-9.6-29.7-16.8-46.7-21.6
	c-14.5-2.6-29.9-4.6-44.6-6.1c-1.3-0.1-2.5-0.3-3.8-0.3c-1.4-0.1-2.9,0-4.3,0.1c-0.6,0-1.2,0.1-1.8,0.2c-12.9,1.3-30.4,3.5-43.2,5.8
	c-2.4,0.4-4.7,0.9-7,1.7c-1.1,0.4-2.2,0.8-3.4,1.3c-13.4,5.4-27.6,10.7-40.5,17.2c-2.4,1.2-4.6,2.6-6.8,4.2
	c-11.5,8.3-23,17.3-34,26.2c-1.2,0.9-2.3,1.9-3.4,2.9c-1.9,1.8-3.8,3.6-5.5,5.5c-10.8,11.9-20.2,25.3-29.9,38.2
	c-15,20.1-23.3,44.8-32.8,67.6c-5.5,13.2-9.5,27-13.5,40.7c-9,30.9-16.5,62.2-22.4,93.9c-3,16.1-5.6,32.3-7.8,48.6
	c-4,29.3-8.2,58.6-10.7,88.1c-2.8,32.4-3.9,64.9-3.4,97.4c0.7,45.1,5.8,89.2,12.4,133.9c4.5,30.5,11.8,60.6,23.5,89.2
	c10.2,24.8,19.9,50.4,33.8,73.6c3.4,5.6,7,11.1,10.8,16.4c11.2,15.7,23,30.9,35.3,45.8c8.3,10,17.5,19.4,27.5,27.8
	c14.7,12.4,29.9,24.2,45.6,35.2c5.3,3.7,10.7,7.2,16.3,10.4c5.6,3.2,11.4,6,17.3,8.6c17.6,7.6,35.4,16.1,53.8,21.9
	c6.4,2,13,3.6,19.7,4.8c16.6,3,33.5,4.8,50.2,6.9c3.8,0.5,7.6,0.8,11.5,1c7.1,0.4,14.3,0.4,21.4-0.1c3.3-0.2,6.6-0.5,9.9-0.9
	c17-2,34.1-4.1,51-6.9c14.2-2.4,28.2-6.3,41.6-11.6c18.6-7.3,37.4-14.8,55.3-23.7c6.5-3.2,12.8-6.7,19-10.5
	c6.1-3.8,12.1-7.8,17.8-12.1c15.8-11.8,31.7-23.6,46.7-36.5c10.7-9.3,20.8-19.4,30.1-30.1c17.6-20.3,34.1-41.8,49.4-63.8
	c16.5-23.8,30.7-49.4,42.6-75.8c11.6-25.7,23.3-51.9,31.8-78.9c8.8-28,11.8-56.5,15.6-85.6C1954.5,830.6,1955.2,815.6,1954.1,800.5z
	 M1484.4,685.1c3.8-24.6,8.6-49.1,14.3-73.4c28.8,25.8,55.5,53.8,79.9,83.7c19.2,26.2,36.8,53.7,51,82.8c3.4,9.8,6.4,19.8,8.7,30
	c0.2,5.3,0.2,10.7,0,16c-2.8,12.4-6.5,24.5-10.8,36.5c-10.8,22.7-23.3,44.6-37.6,65.2c-8.2,9.4-16.8,18.3-26.1,26.7
	c-5.7,3.7-11.6,7.2-17.6,10.4c-4.2,1.3-8.4,2.5-12.7,3.6c-1.6,0-3.2,0-4.9,0c-0.6-0.2-1.3-0.4-1.9-0.5c-2.1-1.2-4.1-2.4-6.1-3.6
	c-3.8-3.6-7.6-7.4-11.1-11.3c-4.7-7.3-9-14.8-12.9-22.5c-6.6-19.1-11.4-38.8-14.9-58.7C1475.7,808.6,1477.5,746.2,1484.4,685.1z"/>
<path class="st0" d="M2671.7,541.8c-0.3-51.4-1.2-102.8-2.7-154.2c0.8-21.8-3.7-42-13.6-60.9c-6.4-19.6-17.3-36.5-32.7-50.8
	c-14.3-15.4-31.3-26.3-50.8-32.7c-18.8-9.9-39.1-14.4-60.9-13.6c-14,1.9-28,3.8-42,5.6c-26.8,7.5-50,21.1-69.7,40.6
	c-8.2,10.7-16.5,21.3-24.7,32c-14.3,24.6-21.5,51.2-21.6,79.7c2.7,91.5,3.5,183,2.3,274.5c-1.1,91.2-4.2,182.3-9.1,273.4
	c-2.8,51.3-6.2,102.6-10.1,153.9c-0.8,21.8,3.7,42,13.6,60.9c6.4,19.6,17.3,36.5,32.7,50.8c14.3,15.4,31.3,26.3,50.8,32.7
	c18.8,9.9,39.1,14.4,60.9,13.6c14-1.9,28-3.8,42-5.6c26.8-7.5,50-21.1,69.7-40.6c8.2-10.7,16.5-21.3,24.7-32
	c14.3-24.6,21.5-51.2,21.6-79.7c7.1-91.3,12.2-182.6,15.5-274.1C2670.8,724.2,2672.2,633,2671.7,541.8z"/>
<path class="st0" d="M3829.8,791.9c-15.9-90.7-36-180.6-60.4-269.4c-12-43.8-24.8-87.6-39.2-130.7c-6.8-20.3-15.8-40.1-24.2-59.6
	c-3.3-7.7-7.1-15.2-11.4-22.3c-10.8-18-24.1-34.8-38.1-50.4c-2.6-2.9-5.3-5.6-8.2-8c-11.2-9.4-23.1-18.4-34.9-27.1
	c-1.8-1.3-3.7-2.6-5.6-3.8c-1.6-1-3.2-1.8-4.8-2.6c-13.1-6.3-27.6-12.2-41.1-17.4c-3.7-1.4-7.4-2.5-11.2-3.2
	c-7.4-1.4-17.4-2.4-22.9-3.1c-6.9-0.9-15.7-2.5-23.5-3.1c-1.7-0.1-3.5-0.2-5.2-0.2c-17.6,0.3-35.2,3.2-52.4,6.8
	c-3.3,0.7-6.4,1.8-9.5,3c-10.8,4.3-33,11.8-46.4,20.6c-1.5,1-2.9,2-4.3,3.1c-11.6,8.7-23.8,17.4-34.7,27c-2.9,2.5-5.5,5.3-8,8.1
	c-13.1,15.3-26.8,31.8-36.9,49.7c-10.4,18.6-18.1,39.4-25.9,58.8c-6.4,16-10.5,32.7-14.6,49.4c-9.6,38.5-19.9,76.8-31,114.8
	c-6.6-10.6-13.2-21.2-19.8-31.8c-11.6-18.6-23.1-37.2-34.7-55.7c-9.6-15.4-19-31.1-30-45.5c-12.5-16.4-24.7-34.1-39.4-48.9
	c-2.7-2.7-5.6-5.4-8.5-7.9c-11.4-9.5-23.4-18.5-35.3-27.4c-1.7-1.3-3.4-2.5-5.1-3.7c-3.1-2-6.2-3.9-9.6-5.5
	c-15.3-7.4-30.9-14.7-47.2-19.7c-15.7-4.8-39.4-6.4-51.3-7.7c-3.9-0.5-7.9-0.7-11.8-0.5c-8.4,0.5-17.4,2.2-25.2,3.2
	c-4.4,0.6-9.5,1.1-14.5,1.8c-1.2-0.4-2.4-0.8-3.6-1.2c-18.8-9.9-39.1-14.4-60.9-13.6c-14,1.9-28,3.8-42,5.6
	c-26.8,7.5-50,21.1-69.7,40.6c-8.2,10.7-16.5,21.3-24.7,32c-14.3,24.6-21.5,51.2-21.6,79.7c-5.9,87.4-7.3,175.1-4.3,262.7
	c3.5,101.2,14.1,201.5,27.8,301.8c6.7,48.9,14.7,97.5,24.2,146c4.9,20.6,14.3,38.5,28.3,53.7c11.1,17.2,25.9,30.8,44.3,40.7
	c12.6,5.3,25.2,10.6,37.7,15.9c21,6.6,42,7.5,63,2.8c14.3,0,27.6-3.6,39.9-10.8c19.6-6.4,36.5-17.3,50.8-32.7
	c8.2-10.7,16.5-21.3,24.7-32c14.3-24.6,21.5-51.2,21.6-79.7c-1.2-76.7-2.4-153.5-3.6-230.2c-0.3-19.3-0.6-38.7-0.9-58l0.2,0.3
	c8.8,14.1,17.5,28.1,26.3,42.2c3.8,6.1,7.5,12.2,11.6,18.2c1.7,2.5,3.5,5,5.3,7.4c9.7,12.9,19.2,26.3,30,38.4
	c2.1,2.4,4.4,4.7,6.8,6.9c1.1,1,2.2,1.9,3.4,2.8c11.3,9.2,22.9,18.6,34.9,26.8c2.4,1.6,4.9,3.1,7.5,4.3c12.9,6,27.1,12.1,40.4,17.1
	c1.6,0.6,3.2,1.2,4.9,1.6c1.3,0.3,2.5,0.6,3.8,0.9c0.8,0.2,1.7,0.3,2.5,0.4c10.7,1.6,31.9,4.8,42.6,5.7c2.7,0.2,5.3,0.3,8,0.1
	c14.5-1.1,30-3.6,44.4-5.9c1.2-0.2,2.4-0.4,3.5-0.6c2.5-0.6,5-1.4,7.4-2.3c13-4.9,27.4-11,40-16.9c1.3-0.6,2.6-1.2,3.8-1.9
	c2.4-1.3,4.6-2.8,6.8-4.4c12.5-9,25.3-18.5,37-28.7c2.1-1.9,4.2-3.9,6.2-6c1.9-2,3.6-4,5.3-6.1c10.2-12.6,20.4-25.4,29.7-38.6
	c3.4-4.8,6.5-9.9,9.4-15.1c3-5.4,5.7-10.9,8.1-16.6c7.6-17.5,15.4-35,21.9-53c4.6-12.8,9.1-25.7,13.6-38.7
	c9.2,41.2,17.5,82.7,24.8,124.3c5.9,33.1,11.1,66.3,15.9,99.6c5.8,45.5,10.5,91.2,14.1,137c-0.8,21.8,3.7,42,13.6,60.9
	c6.4,19.6,17.3,36.5,32.7,50.8c14.3,15.4,31.3,26.3,50.8,32.7c18.8,9.9,39.1,14.4,60.9,13.6c14-1.9,28-3.8,42-5.6
	c26.8-7.5,50-21.1,69.7-40.6c8.2-10.7,16.5-21.3,24.7-32c14.3-24.6,21.5-51.2,21.6-79.7C3861.6,1000.8,3848,895.8,3829.8,791.9z"/>
<path class="st0" d="M4796.6,837c-0.7-3.9-1.5-7.8-2.8-11.5c-5.4-15.9-12.1-31.5-19.6-46.5c-1.6-3.3-3.5-6.4-5.6-9.4
	c-8.4-12-17.8-23.5-26.9-34.9c-1.2-1.5-2.4-3.1-3.7-4.5c-4.9-5.6-10.5-10.6-16.3-15.3c-16-12.7-32-26-49.5-36.8
	c-14.5-8.9-29.8-16.6-45.1-23.9c-28.3-13.5-57.2-25.7-86.5-36.8c-16.8-6.4-33.9-12.1-51.2-17.1c-21-6.6-42-7.5-63-2.8
	c-21,1-40.6,7.2-58.7,18.7c-18.4,9.9-33.2,23.5-44.3,40.7c-14,15.3-23.4,33.2-28.3,53.7c-1.9,14-3.8,28-5.6,42
	c0.1,28.5,7.3,55.1,21.6,79.7c8.2,10.7,16.5,21.3,24.7,32c19.7,19.6,43,33.1,69.7,40.6c18.4,5.3,36.6,11.5,54.5,18.4
	c-1.7,1.6-3.4,3.1-5.1,4.6c-9.9,6.6-20.2,12.5-30.7,17.9c-11.9,4.1-24,7.4-36.4,10c-10.9,0.6-21.7,0.7-32.6,0
	c-13.4-2.8-26.6-6.5-39.6-11c-15.3-7.6-30-16.3-44-26c-15.3-13.2-29.6-27.6-42.7-42.9c-12.2-17.6-23-36-32.3-55.3
	c-9.5-26-16.6-52.8-21.4-80c-3.4-37.3-3-74.9,0.8-112.2c5.8-35.5,14.3-71,26.5-104.8c2.8-5.6,5.8-11,9.1-16.4
	c0.9-0.9,1.9-1.9,2.8-2.8c3.2-2,6.5-3.9,9.8-5.6c8.6-2.8,17.4-5.1,26.3-7c24.4-1.5,48.9-0.4,73.2,2.1c16.4,2.6,32.7,5.5,49,8.5
	c21,6.6,42,7.5,63,2.8c21-1,40.6-7.2,58.7-18.7c18.4-9.9,33.2-23.5,44.3-40.7c14-15.3,23.4-33.2,28.3-53.7c1.9-14,3.8-28,5.6-42
	c-0.1-28.5-7.3-55.1-21.6-79.7c-8.2-10.7-16.5-21.3-24.7-32c-19.7-19.6-43-33.1-69.7-40.6c-19.3-3.5-38.7-7-58.1-9.9
	c-32.3-4.8-64.9-9.7-97.5-11.8c-19.1-1.2-38.2-1.3-57.3,0.3c-21.4,1.8-42.8,4.9-64,8.3c-7.6,1.2-15.1,2.8-22.6,4.6
	c-7.7,1.9-15.3,4.2-22.8,6.8c-19.8,6.9-39.2,15.4-58.3,24.2c-26.1,12.1-47.6,30-70.2,47.7c-22.9,18-39.1,41-56.7,64.3
	c-10,13.3-18.1,27.9-24.9,43.1c-12.3,27.5-24.1,55.3-32.9,84.1c-5,16.6-9.5,33.3-13.3,50.2c-3.8,17-7,34.2-9.4,51.4
	c-4.4,30.9-9,61.9-10.8,93.1c-2.1,34.6-1.2,69.4,3.2,103.8c6.1,48.3,12.7,95.6,29,141.7c9.7,27.4,21.1,54.4,33.7,80.6
	c6.4,13.3,13.6,26.3,21.5,38.8c14.6,23.4,32,44.8,48.9,66.5c9,11.5,18.5,22.5,28.7,32.9c10.3,10.6,21.2,20.6,32.6,29.9
	c21.1,17.3,42.8,34.5,65.8,49.4c12.1,7.8,24.6,14.9,37.5,21.2c18.4,8.9,37.5,16.5,56.4,24.3c6.5,2.7,13.1,5.2,19.8,7.4
	c13.8,4.7,28,8.4,42.3,11.1c20.4,3.8,41.1,6.2,61.6,8.7c6.9,0.8,13.8,1.4,20.7,1.7c13.6,0.6,27.2,0.1,40.8-1.3
	c26.9-2.8,54.5-6,80.9-12.4c13.5-3.3,26.7-7.5,39.7-12.6c24.7-9.8,50-19.8,73.4-32.8c11.8-6.6,23.3-14,34.1-22.1
	c21.2-15.9,43.1-31.8,61.9-50.8c18.5-18.6,34.5-40.4,49.9-61.4c7.9-10.8,14.9-22.2,20.9-34.1c8.9-17.9,16.3-36.6,23.7-55.2
	c2.6-6.4,4.8-12.9,6.8-19.5c4.5-15,6.1-30,8.2-45.6c1.5-11,3.7-22.5,3.7-33.7C4803.1,873.1,4799.2,852.3,4796.6,837z"/>
</svg>
