<?xml version="1.0" encoding="utf-8"?>
<!-- Generator: Adobe Illustrator 21.1.0, SVG Export Plug-In . SVG Version: 6.00 Build 0)  -->
<svg version="1.1" id="Layer_1" xmlns="http://www.w3.org/2000/svg" xmlns:xlink="http://www.w3.org/1999/xlink" x="0px" y="0px"
	 viewBox="0 0 4000 3733.1" style="enable-background:new 0 0 4000 3733.1;" xml:space="preserve">
<style type="text/css">
	.st0{fill:#EE6E66;}
	.st1{fill:#FFE78F;}
	.st2{fill:#FFFFFF;}
	.st3{fill:none;}
</style>
<title>weddingreception</title>
<rect class="st0" width="4000" height="3733.1"/>
<g>
	<path class="st1" d="M425.7,735.5c139.2,1.4,275.5-65.5,350.9-184.6c79-124.9,73.4-266.6,17.8-398.2c-42.5-100.6-218-97.8-261.4,0
		c-26.2,59-33.2,120.1-56.2,179.2c-7.6,19.6-17.9,39.2-30.8,55.9c-4.7,6.3-10,12.1-15.6,17.6c-3.4,0.6-7.8,1.5-13.4,2.8
		c-31.9,5-58.1,23.9-77,49.3C237.1,529.6,265.6,733.9,425.7,735.5z"/>
	<path class="st1" d="M848.5,1069.8c-97.3-8.1-181.3,58.5-226.2,139.7c-35.2,63.6-51.3,85-106.1,137.1
		c-57.5,54.7-59.2,159.7,0,214.1c46.7,42.8,110,54.2,164.7,32c48.1,9.8,100-0.4,133.3-40.2c80.6-96.1,190-195.6,185.6-331.2
		C997.1,1134.2,932.5,1076.7,848.5,1069.8z"/>
	<path class="st1" d="M279.4,1465.1c156-153.9,187.1-396.1,62.4-579.5c-109-160.2-371.4-8.9-261.4,152.8
		c49.9,73.4,50.1,148.3-15,212.6C-73.6,1388,140.5,1602.1,279.4,1465.1z"/>
	<path class="st2" d="M581.4,300.9c3.5-32.6-47.2-37.4-55.8-7.5c-11.2,38.8-34.8,70.8-68.9,92.5c-8.1,5.1-12,12.3-12.9,19.8
		c-6.6,16.1,1.7,40.4,24.8,42.8c37.1,4,79.5,1,101.7-33.7C592.5,379.9,577.3,338.9,581.4,300.9z"/>
	<path class="st2" d="M781.5,1246.9c0-0.2,0-0.4,0-0.6c0,0-0.1,0-0.1,0c-0.2-2.5-0.4-5-0.9-7.6c-6.2-31.8-56.1-24-55.8,7.5
		c0.1,7-1.1,13.3-3.1,19.1c-11.2,11.9-41.4,18.5-50.7,22.4c-17.1,7.1-31.9,16.8-43.2,30.7c-8.9,6-13.4,18.4-11.9,28.8
		c0,0.2,0,0.3,0.1,0.5c0.1,0.8,0.2,1.6,0.3,2.3c0.1,0.3,0.3,0.5,0.4,0.8c0.9,3.5,2.6,6.7,4.7,9.5c0,0,0,0,0,0
		c8.9,11.5,26.3,16.8,38.8,7.9c50-9.4,98.5-37.5,115.2-84.5C780.6,1272.6,782.7,1260.1,781.5,1246.9z"/>
	<path class="st2" d="M178.8,1105.1c-12.9,29-26.6,57.6-41.1,85.9c-3.8,7.3-4.1,14.4-2.3,20.7c-0.6,11.6,5.4,22.9,20.3,26.1
		c29.2,6.2,56.6-6.4,72.2-32c17.6-28.9,11-63.2,2.7-93.8C224.8,1090.2,189,1082,178.8,1105.1z"/>
	<path class="st2" d="M196.7,1064.6c-7.8-13.6-31-11.6-34.6,4.5c-9.1,41.3-18.1,82.7-27.2,124c-4.8,21.7,25.1,31.7,34.3,15.1
		C232.6,1207,218.3,1102,196.7,1064.6z"/>
	<path d="M167.2,1488.6c-21.7,0-43.5-5.8-62-19.9c-49.5-37.8-47.8-107.9-39.7-171.5c0.6-5,1.1-9.9,1.5-14.8
		c1.7-19.7,3.5-40.1,17.8-55.8c7.3-8,18.1-13.4,28.6-18.6c9.5-4.7,19.3-9.5,25.5-15.9c27.4-28,41.5-67.7,36.8-103.6l0,0
		c-3.3-25.7-14.2-49.3-25.8-74.4c-4.8-10.4-9.6-20.9-13.9-31.4c-13.5-33.8-24.5-82,0.4-120c19.9-30.4,61.8-46.5,101.7-39.2
		c42.1,7.8,73.1,36.1,91.7,58.5c38.7,46.6,61.7,111.5,66.4,187.5c6.5,104.4-21.1,214.3-77.9,309.4c-17.1,28.7-44.7,69.6-86.5,92.7
		C213.6,1481.9,190.5,1488.6,167.2,1488.6z M194.5,1086.2c5.4,42.2-10.3,86.7-42.1,119.3c-8.5,8.7-19.8,14.2-30.7,19.6
		c-9.3,4.6-18.1,8.9-23,14.3c-10,11-11.4,26.6-12.9,44.7c-0.4,5.2-0.9,10.4-1.6,15.6c-7.5,58.2-9.4,122.1,32.4,154
		c31.6,24.2,76.1,18.1,106.2,1.5c37.7-20.9,63.4-59,79.4-85.9c54.8-91.9,81.5-197.9,75.2-298.5c-3.1-50.2-16.4-121.6-62.1-176.6
		c-16.6-20-44.1-45.2-80.5-52c-32.6-6-66.6,6.7-82.4,30.9c-21.5,32.9-8.4,78.4,1.3,102.6c4.1,10.3,8.8,20.4,13.5,30.6
		C178.8,1031.5,190.8,1057.6,194.5,1086.2L194.5,1086.2z"/>
	<path d="M465,688.3c-27.6,0-51.7-5.3-71.9-15.9c-9-4.7-17.1-10.6-24.2-17.2l-16.5,2.3c-1.4-9.7-2.7-19.4-3.8-29
		c-7.5-14.4-11.1-30.3-9.6-45.9l6,0.6c-1.3-42.8,4.6-82.8,27.7-117.5c15.9-23.9,38.3-41.7,60-58.9c16.2-12.9,33-26.2,46.3-41.8
		c26.3-30.6,40.4-70.7,54-109.4c13.2-37.7,29.2-83.1,60.5-117c28.9-31.4,78.8-55.3,125.1-38c18.4,6.9,35.3,19.8,53.2,40.7
		c71.5,83.4,87.9,210.6,39.9,309.3c-12.8,26.3-30.8,52.9-55,81.3c-74.8,87.7-167.3,142.5-260.3,154.4
		C485.4,687.6,474.9,688.3,465,688.3z M366.9,622.4c7.7,13.5,19.9,25.4,34.9,33.3c24,12.6,54.9,16.5,92.1,11.8
		c88.4-11.2,176.6-63.7,248.3-147.9c23.2-27.2,40.3-52.5,52.4-77.3c44.8-92.2,29.5-210.9-37.3-288.7c-15.7-18.4-30.2-29.6-45.5-35.3
		c-38-14.2-79.9,6.4-104.5,33.1c-28.6,31-43.8,74.4-56.1,109.3c-14.6,41.6-29.3,83.4-57.9,116.7c-14.5,16.9-32,30.8-48.9,44.2
		c-21.5,17.1-41.7,33.2-56,54.6C361.3,516.8,360.9,567.9,366.9,622.4z"/>
	<path d="M673.9,1577.7c-29.2,0-57.7-5.5-81.9-16.7c-40.7-18.8-66.4-52-74.5-96c-14.6-79.6,52.9-119.1,112.5-153.9
		c28.4-16.6,55.3-32.3,72.2-51l0,0c18.6-20.6,29.7-46.2,41.4-73.3c4.5-10.3,8.9-20.6,13.8-30.6c16.6-34.1,46.2-76.4,92.7-83.6
		c44.9-6.9,85,22.7,105,55.2c22.7,37.1,26.7,80.9,27.6,114.9c1.1,42.9-3.1,74.6-13.7,102.8c-12.7,33.7-34.9,61.9-56.5,87.9
		c-35.5,42.6-75.3,86.1-125.8,115.3C753.5,1567.8,713.1,1577.7,673.9,1577.7z M716.3,1272.8c-18.9,20.9-46.9,37.3-76.6,54.7
		c-59.5,34.8-115.6,67.6-103.4,134.2c6.9,37.7,29,66.1,63.8,82.2c50.6,23.4,125.1,18.5,177.2-11.5c48-27.7,86.4-69.7,120.7-111
		c20.6-24.8,41.7-51.5,53.3-82.5c9.7-25.7,13.5-55.2,12.4-95.6c-0.9-31.7-4.5-72.3-24.8-105.5c-19.7-32.1-54.8-51.2-85.9-46.4
		c-38.4,6-63.9,43.1-78.6,73.2c-4.7,9.7-9.1,19.8-13.4,29.8C749.2,1221.7,737,1249.9,716.3,1272.8L716.3,1272.8z"/>
	<path class="st3" d="M433.3,406.7c20,11.9,41.1,22.1,62.9,30.3c8.7,3.3,17.8,6.3,27.1,5.5c18.3-1.8,31.7-18.2,39.9-34.7
		c15.5-31.1,20.3-67.4,13.6-101.4c-3.2-16.5-10.8-34.4-26.5-40.4"/>
	<path class="st3" d="M591.2,1326.3c10.1,2.8,20.2,5.6,30.4,8.3c29.8,8.2,63.5,15.9,90.1,0.3c26.5-15.5,36.2-48.4,43.7-78.2
		c7.8-31,15.6-62,23.4-93.1"/>
	<path class="st3" d="M104.8,1227.7c27.2-20.5,54.5-41,81.7-61.5c6.2-4.7,12.6-9.6,16-16.5c3.4-7,3.3-15.2,2.6-23
		c-2.5-26.4-11-52.2-24.8-74.8c-9.6-15.8-21.8-30.1-30.2-46.6c-14.4-28.4-16.7-62.7-6.2-92.7"/>
	<path d="M467.4,428.4c-10.6,0-21.1-2.1-30.9-6.6l7.9-17.2c32.2,14.7,71.3-5.8,87.7-34.1c16.1-27.8,17.9-66.3,5-105.8l18-5.9
		c14.6,44.6,12.2,88.8-6.6,121.2C530.9,410.3,498.5,428.4,467.4,428.4z"/>
	<path d="M161.4,1222.2c-9.1,0-18-2.3-25.5-7.2l10.2-15.9c11.2,7.2,28.4,4.9,40-5.2c14.6-12.7,18.2-32.3,19.1-42.9
		c2.5-30.6-10.5-62-33.7-82l12.3-14.4c27.8,23.8,43.2,61.3,40.3,97.9c-1.9,23.2-10.9,43-25.5,55.6
		C188,1217.4,174.4,1222.2,161.4,1222.2z"/>
	<path d="M663.4,1352.7c-20.8,0-41.2-3.4-61.2-6.6l3.1-18.7c25.8,4.2,52.4,8.6,78.1,5.1c27.1-3.7,49.9-17,60.9-35.5
		c19.1-31.8,4-73.7-6.7-95.8l17-8.2c12.3,25.6,29.5,74.3,5.9,113.8c-14.2,23.8-41.4,40-74.6,44.5
		C678.5,1352.3,670.9,1352.7,663.4,1352.7z"/>
	<path d="M531,328.8c2.2-11.8-15.6-17-18.2-5c-1.1,4.9-2.6,9.7-4.5,14.3c-5.6,12.8-15.3,23-28.5,29.7c-5.4,2.8-5.8,8.2-3.4,12.3
		c-3.1,7.8,4.6,18.1,12.7,12c16.1-12,28.5-27.4,36-45.4C527.8,341,529.8,335.1,531,328.8z"/>
	<path d="M732.6,1259.1c-1.4-9.4-16.3-8.7-18.2,0c-3.2,14.4-15.5,24-30.3,23.3c-9.4-0.4-11.4,10.6-6.4,16
		c-9.5,1.6-8.7,17.7,2.4,18.6C711.8,1319.8,737,1289.6,732.6,1259.1z"/>
	<path d="M194.8,1129.8c-0.9-9.4-12.1-12.8-17.6-4.8c-12.2,17.6-20.1,37.4-23.3,58.6c-1.8,11.9,16.5,17.1,18.2,5c0-0.1,0-0.2,0-0.2
		c0.3-0.2,0.7-0.3,1-0.6C188.8,1172.6,196.9,1151.6,194.8,1129.8z"/>
</g>
<g>
	<path class="st1" d="M3792.9,2204.9c-78.6,0-155.8,69.3-151.4,151.4c2.5,47,4.9,91.6-5.9,137.1c1.4-8.1-7.3,12.3-4.8,12.5
		c-8.7,8.1-10.8,10.9-6.2,8.2c-12.4,7.8-14.2,8.4-5.2,1.5c-186.9,53.7-107.4,345.9,80.5,291.9c203.2-58.4,254.5-263.2,244.4-451.3
		C3939.9,2274.6,3877.9,2204.9,3792.9,2204.9z"/>
	<path class="st1" d="M3346.7,2742.3c0-67.4-47.3-127-110-145.4c0-0.4,0-0.7,0-1.1c0.4-0.6,1-2.6,2-7c0,0.1,10.8-17.2,3.3-8.4
		c53.2-62,60.9-153.2,0-214.1c-54.5-54.5-160.6-62.3-214.1,0c-76.1,88.7-112.4,200.4-84.8,316.5c28,117.7,127.9,211.9,252.1,211
		C3277.2,2893.1,3346.7,2824.6,3346.7,2742.3z"/>
	<path class="st1" d="M3426.6,3071.8c-72.8,42.6-93.1,134.8-54.3,207.1c10.3,19.2,13.1,39,13.9,59.5c0,0.4,0,1,0,1.5
		c-31.6,10.4-59.6,31.4-79,64.5c-38.2,65.3-20.3,172.7,54.3,207.1c133.9,61.8,280.8-2.5,319.3-148.5c28.3-107.2,4.4-241.1-47.1-337
		C3595.1,3054.1,3495.4,3031.6,3426.6,3071.8z"/>
	<path class="st2" d="M3651.3,2398c-14.3-0.8-29.7,13.7-28.4,28.4c4.5,49.2-28.9,84-60.8,116.8c-14.9,15.3-7.4,35.2,6.5,44.1
		c2.8,10.8,11.3,19.1,26,17.6c50.8-5.4,90.1-40.4,101.9-90.5C3705.8,2474.3,3706,2400.8,3651.3,2398z"/>
	<path class="st2" d="M3444.2,3323.9c1.8,37.2-30.7,59.8-58,79.1c-29.6,20.9-1.3,70.2,28.7,49c4.1-2.9,8.2-5.9,12.3-8.9
		c24.7-0.2,47.3-15.4,60.3-36.2c15.5-24.8,15.3-54.9,13.4-83C3498.6,3287.7,3442.4,3287.2,3444.2,3323.9z"/>
	<path class="st2" d="M3228.3,2514c0.3-3.3,0-6.3-0.8-9.2c-3.3-33.8-57.1-33.1-56.5,2.6c0,0.7,0.1,1.4,0.2,2.2
		c-8.9,30.5-27.7,55.1-14.2,88.6c11.8,29.2,40.2,47.7,71.5,47.4c21.9-0.2,34.8-23.8,24.5-42.7
		C3237.8,2575,3229.8,2545.4,3228.3,2514z"/>
	<path d="M3454.2,3593.9c-48.5,0-111.9-22.1-146.2-64.5c-24.2-29.9-29.8-64.7-16.1-100.7c15.6-41.2,46.8-40.7,74.1-40.2
		c11.3,0.1,23,0.4,33.9-2.1c40.3-9,51.2-50.7,44.2-88l0,0c-2.4-12.8-6.3-25.9-10.1-38.5c-7.6-25.6-15.5-52.2-12.6-79.9
		c5-48.1,45-89.4,92.9-96c58.1-8,108.5,31.6,132.9,74.4c27.9,48.9,31.1,106.2,30.7,150.6c-0.8,108-29.5,186.6-85.4,233.6
		c-30.2,25.4-71,42.7-117.9,49.9C3468.4,3593.4,3461.5,3593.9,3454.2,3593.9z M3356.3,3407.3c-22,0-37.1,2.8-46.7,28.1
		c-11.3,29.8-6.9,57.4,13.1,82.1c34.1,42.1,104.7,63.1,149.2,56.2c43.4-6.7,81-22.5,108.6-45.7c51.4-43.2,77.9-117,78.6-219.2
		c0.3-42-2.6-96-28.3-141c-25.1-44.1-71.9-70.7-113.9-65.1c-38.9,5.4-72.6,40.2-76.7,79.3c-2.5,24,4.5,47.6,11.9,72.6
		c3.9,13.1,7.9,26.6,10.5,40.4c8.4,44.8-6.3,98.3-58.7,110c-13.1,2.9-25.9,2.6-38.3,2.5C3362.5,3407.4,3359.4,3407.3,3356.3,3407.3z
		"/>
	<path d="M3633.2,2798.1c-13.5,0-27.3-2.2-40.9-7.4v0c-36.2-13.8-60.4-40.5-69.9-77.4c-13.2-51.1,3.9-117.9,41.5-162.5
		c29.6-35.1,46.7-61.3,57.9-107.3c2.1-8.6,3.9-17.5,5.8-26.3c8.9-42.5,18.1-86.4,54.2-117c22.7-19.2,53.4-28.1,86.3-24.9
		c39.2,3.8,76.8,23.9,100.8,53.7c38.4,47.9,50.6,118.9,33.5,194.7c-20.1,88.9-75.8,172.5-152.9,229.3
		C3724.2,2771.7,3680.2,2798.1,3633.2,2798.1z M3599,2773c52.6,20.1,109.8-13.4,139.2-35.1c73.5-54.2,126.6-133.7,145.7-218.2
		c15.9-70.2,5-135.3-29.8-178.7c-20.8-25.9-53.6-43.4-87.8-46.7c-27.8-2.6-53.5,4.6-72.3,20.5c-31.1,26.3-39.7,67-47.9,106.4
		c-1.9,9.1-3.8,18.1-5.9,26.9c-12,49.3-31,78.5-61.8,115c-33.4,39.6-49.2,100.8-37.7,145.6C3548.7,2739.7,3568.3,2761.3,3599,2773
		L3599,2773z"/>
	<path class="st3" d="M3541,2617.4c-0.2-20.6,21.1-35.1,41.2-39.6s41.7-3,60.7-11.1c39-16.6,51.7-66.8,46.2-108.8
		c-5.6-42-24-81.7-27.2-124c-0.5-7,6.9-16.8,10.6-10.9"/>
	<path class="st3" d="M3231.4,2510c-19.5-10.7-47.1-2.3-57.3,17.5c-5.1,10-6,21.6-6.9,32.8c-1.4,19.5-2.8,39.4,1.2,58.6
		s14.1,38,31,47.9c30.8,18.2,79,5.9,97.8,36.2"/>
	<path class="st3" d="M3343,3375.4c26.6,3.1,53.2,6.2,79.8,9.3c6.6,0.8,13.5,1.5,19.6-1.1c7.9-3.4,12.6-11.7,15.3-19.9
		c11.2-33.8-1.7-70.5-16-103.2c-14.3-32.6-30.4-66.9-25.7-102.3"/>
	<path d="M3587.7,2579.1c-8,0-16.1-1.2-23.9-3.6l5.6-18.1c22.8,7.1,50-0.3,66.1-18c14.4-15.7,21.4-40.2,19.4-67.1
		c-1.9-25.3-10.8-50.2-19.4-74.2l17.8-6.4c9.1,25.2,18.4,51.3,20.5,79.2c2.4,32-6.5,61.6-24.3,81.2
		C3633.8,2569.5,3610.8,2579.1,3587.7,2579.1z"/>
	<path d="M3422.4,3439.5c-12.5,0-23.9-3.4-32.8-10c-13.7-10.1-20-27.6-15.4-42.5l18.1,5.6c-2.2,7.1,1.5,16.4,8.6,21.7
		c9.4,7,21.6,6.6,28,5.9c24.8-3.1,47.1-23.9,51.8-48.5c4.7-24.6-8.3-52.2-30.3-64.2l9.1-16.6c29.3,16,46,51.5,39.8,84.3
		c-6.3,32.8-34.9,59.6-68.1,63.8C3428.2,3439.3,3425.3,3439.5,3422.4,3439.5z"/>
	<path d="M3647.7,2475.5c-2.4-2.4-5.8-3.5-9.4-3.8c-1.3-6.6-10.7-10.5-14.1-3c-6,13.4-11.9,26.8-17.9,40.2c-1.2,2.6-0.8,5.1,0.3,7.2
		c-2.3,3.6-3.1,7.7-1,12.8c2.4,5.8,8.7,9.5,14.9,9.5c5.8,0,10.2-3.1,14.1-6.9c3.6,0.5,7.5-0.9,9.2-5.1c3.1-8.2,3.3-16.5,1-24.6
		c1.5-2.2,2.9-4.5,3.8-7.1C3650.7,2489.3,3652.3,2480.1,3647.7,2475.5z"/>
	<g>
		<path class="st3" d="M3210.4,2616.5c10.6,9.7,25.4,12.3,41.5,12.2c-3.8-5.1-7.4-10.3-10.8-15.7c-4,3.3-9.4,5-14.9,4.7
			c-12.6-0.7-21.3-10.8-22.2-23.1c-1.3-17.1,11.1-29.4,15-45.1c0.1-0.5,0.4-0.9,0.6-1.3c-0.7-11.3-0.4-22.6-0.1-33.8
			c0-0.9,0-1.8,0-2.7c-8.9,13.3-15.6,28-19.7,43.4C3197.3,2564.9,3190.5,2598.2,3210.4,2616.5z"/>
		<path class="st3" d="M3197.6,2630.4c-18.7-17.2-24.7-47.1-16-80.1c6.1-23.2,17.5-45.1,32.9-63.4l5.3,4.5c0-0.9,0.1-1.9,0-2.8
			c-1.1-39.4-13.6-74.6-35.4-99.2c-19.8-22.4-48.6-35.4-75.7-35.4c-6,0-11.8,0.6-17.5,1.9c-29.8,6.8-54,29.8-75.7,53.6
			c-19.3,21.2-33.9,39.8-42.2,61.3c-29.8,77.3,34,236.8,126.3,316.1c38.5,33.1,97.4,65.2,159.3,29.8v0c45.9-26.2,52-93,28.8-136.6
			c-6.1-11.5-14.2-22.4-22.2-33.1c-4.7,0.3-9.4,0.5-14.1,0.5C3231.9,2647.7,3212.5,2644.1,3197.6,2630.4z"/>
		<path d="M3304.6,2671.3c-7.9-14.7-18-28.1-27.9-41c-0.1-0.1-0.1-0.2-0.2-0.3l1.7,16.1c-4.1,0.4-8.3,0.8-12.5,1.1
			c8.1,10.7,16.1,21.6,22.2,33.1c23.2,43.5,17,110.3-28.8,136.6v0c-61.8,35.4-120.7,3.3-159.3-29.8
			c-92.3-79.3-156.1-238.8-126.3-316.1c8.3-21.6,22.9-40.1,42.2-61.3c21.7-23.8,45.8-46.8,75.7-53.6c5.7-1.3,11.6-1.9,17.5-1.9
			c27.1,0,55.9,13.1,75.7,35.4c21.7,24.6,34.3,59.8,35.4,99.2c0,0.9,0,1.9,0,2.8l9.2,7.8c-3.4,4-6.5,8.2-9.4,12.5c0,0.9,0,1.8,0,2.7
			c-0.3,11.1-0.6,22.4,0.1,33.8c4-9.9,20.4-4.9,17.6,6.4c-1.6,6.6-4.5,12.4-7.6,18.3c6.8,8.6,18.1,13.8,18,26.5
			c-0.1,5.8-2.7,10.4-6.6,13.6c3.4,5.4,7,10.6,10.8,15.7c7.4,0,15-0.6,22.6-1.3c-13.6-18-26.3-35.2-32.1-55.4
			c-5.2-17.9-4.6-36.9-3.9-57c0.3-9,0.6-18,0.3-27c-1.2-43.8-15.4-83.3-40.1-111.2c-29.1-32.8-72.9-48.4-111.6-39.4
			c-34.9,8-61.7,33.2-85.4,59.3c-18,19.7-35.9,41.5-45.9,67.3c-32.7,85,32.5,252,131.7,337.2c38.3,32.9,77.9,49.6,115.9,49.6
			c22.5,0,44.4-5.9,65.1-17.7v0C3323.7,2801.5,3331.8,2722.5,3304.6,2671.3z"/>
		<path d="M3210.4,2616.5c-19.9-18.3-13.1-51.6-10.6-61.4c4.1-15.4,10.8-30.2,19.7-43.4c2.9-4.3,6.1-8.5,9.4-12.5l-9.2-7.8l-5.3-4.5
			c-15.5,18.3-26.9,40.2-32.9,63.4c-8.6,33-2.6,63,16,80.1c14.8,13.6,34.2,17.2,53.9,17.2c4.7,0,9.4-0.2,14.1-0.5
			c4.2-0.3,8.4-0.7,12.5-1.1l-1.7-16.1l-0.3-2.7c-0.6,0.1-1.1,0.1-1.7,0.2c-7.6,0.8-15.2,1.3-22.6,1.3
			C3235.9,2628.8,3221,2626.2,3210.4,2616.5z"/>
		<path d="M3204,2594.6c0.9,12.2,9.6,22.4,22.2,23.1c5.6,0.3,10.9-1.4,14.9-4.7c3.9-3.2,6.5-7.9,6.6-13.6
			c0.1-12.6-11.2-17.8-18-26.5c3.1-5.9,6-11.8,7.6-18.3c2.8-11.3-13.6-16.2-17.6-6.4c-0.2,0.5-0.5,0.8-0.6,1.3
			C3215.1,2565.3,3202.7,2577.5,3204,2594.6z"/>
	</g>
	<path d="M3461.5,3343.4c-3.6-4.1-9.7-3.1-13.4,0c-7.7,6.5-15.3,13-23,19.4c-9.3,7.9,4.1,21.2,13.4,13.4c4.4-3.7,8.8-7.5,13.2-11.2
		c1.5,11.1-10.2,21.6-22.3,15.3c-10.8-5.6-20.4,10.7-9.6,16.3c14.8,7.7,33.6,5.1,44.2-8.4
		C3474.6,3374.7,3472.4,3355.9,3461.5,3343.4z"/>
</g>
<g>
	<path d="M2201.4,1855.2c3.1-8.7,6.4-17.4,9.4-26.1c13.6-39.9,26.7-79.9,40.8-119.7c12.4-35,25.4-69.8,38.9-104.4
		c2.8-7.2,8.7-13.3,12.6-19c17.4,0.9,31.7,5.2,43.5,15.7c2.6,2.3,5.4,4.8,7.1,7.8c3.2,5.8,5.7,11.9,9.1,19.3
		c-2.7,11-5.9,23.7-9,36.4c1,0.4,1.9,0.8,2.9,1.1c2.1-3.1,4.2-6.1,6.4-9.2c0.6,0.2,1.2,0.4,1.8,0.6c-1.8,4.3-3.8,8.5-5.4,12.9
		c-1.1,3.1-3.2,7.6-1.9,9.3c1.6,2.2,6.2,3.2,9.4,3.1c8.5-0.4,17-1.4,25.4-2.6c13.8-1.9,27.5-4.4,41.3-6c12.3-1.5,24.8-2.5,37.2-3
		c10.4-0.4,20.9-6.2,31.3,0c11.2-7.3,23.8-1.7,35.8-3.5c18.3-2.7,37.5-0.3,56.2,1.7c9.5,1,19.8-1.7,28.8,4.6c1.4,1,5.1-1.9,7.6-1.6
		c4.7,0.5,9.9,1.2,13.9,3.5c4,2.2,6.9,3.7,12.1,2.9c4.9-0.7,10.5,2.9,15.8,4.5c14.6,4.3,28.2,10.8,41,18.9c-1.7,5.8-4,8.9-9.6,8.7
		c-4.9-0.2-9.9,0.8-14.7,0c-5.7-1-9.2,1.5-13.2,4.8c-3.3,2.6-7.7,5.5-11.5,5.3c-23.9-1.1-47,5.5-70.6,6.7c-20.9,1.1-41.8,3-62.7,5
		c-8.4,0.8-16.7,2.9-25,4.3c-4,0.7-8,2.2-11.9,1.9c-15.1-1.4-28.9,4.7-43.4,6.3c-10.7,1.2-21.4,1.6-32.1,2.4
		c-4.1,0.3-8.2,0.9-14.8,1.6c8.8,8.5,16.7,13.9,21.7,21.4c9.4,14.1,18.1,26.4,38.4,18.5c3.6-1.4,8.8,0.7,12.6-3.5
		c1.2-1.3,4.2-1.2,6.4-1.3c11.9-0.4,23.4-2.6,34.2-7.8c0.4-0.2,0.9-0.3,1.3-0.4c21.3-4.8,43-8.4,63.8-14.8c8.6-2.6,17.7-2.3,26-6.8
		c5.1-2.8,12.1-2,18.3-2.7c9.8-1.2,19.6-3.2,29.3-3c6.3,0.1,12.8,3.2,18.8,5.7c6.8,2.9,13.3,6.8,21,10.8c4-8.2,7.8-14.8,10.5-21.8
		c7.2-18.7,19.5-34.3,30.8-50.4c1.8-2.5,4.2-4.8,6.7-6.6c9.2-6.4,18.3-12.9,27.9-18.6c10.5-6.3,22.2-7.1,31.9,1.9
		c11.8,11,25.2,20.2,37.6,30.5c15.9,13.2,22.6,31.9,29.4,50.5c1.7,4.6,0.3,8.4-3.1,12.3c-3.1,3.5-6.5,7.9-6.9,12.2
		c-1,11.5-1.2,23.1-0.3,34.6c0.7,8.3,6.4,10.3,14.4,9.1c18.3-2.6,35.1-11.2,53.9-12.4c7.7-0.5,15-5.3,22.7-7.7
		c4.6-1.4,9.5-2.6,14.4-2.8c3.1-0.1,6.7,1.4,9.4,3.2c4.7,3.1,8.8,7.1,14.1,11.4c2.7-3.7,5.1-6.3,6.7-9.2
		c8.4-14.7,16.3-29.8,25.1-44.2c17.5-28.7,42.4-49.5,71.8-65.3c13.5,0,24.5-13.7,39.3-7.3c1.1,0.5,3.5-1.2,4.9-2.4
		c4.5-4,7.8-3.3,10.7,1.8c1.2,2.2,2.9,5.4,4.8,5.8c11,2.1,22.2,3.5,33.3,5.1c0.2-1.1,0.5-2.1,0.7-3.2c-4-1.9-8-3.7-12.1-5.6
		c0.1-0.8,0.1-1.6,0.2-2.4c2.6,0,5.4-0.7,7.7,0.1c17.5,5.8,32.9,15.1,47,27.2c16.1,13.9,30.2,29.3,41.3,47.4
		c9.2,15,12.8,32.6,9.8,49.1c-2.8,15.4-9,32.2-19,43.9c-11.2,13.2-19.2,28.9-32.2,40.6c-19,16.9-37.3,34.7-59.5,47.7
		c-13.4,7.9-26.5,16.5-40.6,23.1c-9.7,4.5-20.7,6-31.1,9.1c-15.8,4.6-31.5,9.6-47.3,14c-9.8,2.7-19.8,4.7-29.7,7.2
		c-2.4,0.6-4.7,1.8-8.2,3.3c2.2,2.4,3.4,4.9,5,5.3c19,4.7,38.3,8.5,57.2,13.8c10.4,2.9,22.1,2,31.2,9.6c1.4,1.1,4.5,1.5,6.1,0.7
		c9.3-4.3,16.6,0.2,24.5,4.2c4.5,2.3,10.1,4.4,14.9,3.9c18.1-1.8,34.3,5.2,51.1,9.5c11.9,3,23.8,6.2,35.4,10
		c10.7,3.5,18.5,1.8,22.4-12.5c11.3,10.7,21.2,19.9,30.8,29.3c5.7,5.5,11,11.3,16.5,16.9c5.5,5.6,7.5,12,5.4,19.9
		c-6.8,1.7-13.5,4.8-20.2,4.6c-10.6-0.3-21.4-1.6-31.6-4.5c-19.7-5.8-38.8-13.8-58.6-19.4c-14.1-4-29-5.5-43.5-8.3
		c-3.9-0.8-8.4-1.4-11.5-3.6c-8.6-6.2-18-7-28.1-7.5c-29.8-1.5-58.1-9.8-86.5-18.3c-15.8-4.7-31.8-8.5-48.4-12.9
		c-1.4,4.3-2.9,7.1-3.2,10c-2.4,28.5-7.1,57.1,4.4,84.9c2.6,6.2,0.4,9-6.5,10.1c-8.7,1.5-17.6,3.2-26.4,3.3c-3.7,0.1-8.6-2.8-11-5.9
		c-4.6-6-9.3-9.3-17.2-4.6c-8.2-26.8-14.8-52.1-16.5-79.4c-3.9-61.4,6.1-120.7,20.1-179.8c0.7-3.1,1.3-6.1,1.7-9.2
		c0.2-1.7,0-3.5,0-6.4c-8.5,0.8-16.4,1.4-24.2,2.4c-3,0.4-5,1.6-7.6-2.3c-2.5-3.8-7-0.7-8.4,2.5c-2.3,4.8-6.1,6.4-10.5,7.2
		c-9.5,1.8-13.3,8-14,17.1c-0.3,3.5-1.1,7-3.3,10.5c0-3,0-6,0-8.9c-0.7-0.2-1.4-0.5-2-0.7c-1.2,1.8-3.5,3.6-3.5,5.4
		c-0.7,16.4-2.6,33-1.2,49.3c1.7,19-4.1,37.3-3,56c1,17.3,2,34.6,2.9,51.9c0.6,12.4,1,24.8,1.7,37.1c0.5,8.9-0.3,17.8,4.3,26.3
		c1.9,3.5,0.9,8.6,1.2,14.1c-9.6,0-18,0.5-26.4-0.2c-4.4-0.4-9.7-5.6-12.7-4.3c-6.8,3-8.5-3.1-12.6-4.3c-8-2.4-10.3-8.8-11.3-15.2
		c-2.6-15.9-5.6-31.9-5.8-48c-0.7-47.1,0-94.3,0-141.4c0-3.8-0.7-7.7-1.1-12.3c-16.5,3-32.3,0.3-46.3,10.3c-5.4,3.8-13.6,4.2-20.7,5
		c-20.8,2.4-29.9,8.8-34.1,28.1c-1.4,6.4,0.5,13.5-0.7,20.6c-3.6,20.2-4.3,41-6.9,61.2c-2.2,16.9-2.8,33.8-4.1,50.6
		c-1,12.3,1.9,24.9,2.9,37.3c0.3,3.5,0,7,0,11.3c-10.9,1.6-21,2.9-32,2.1c-6.4-0.5-12.4-3.1-18.5-2.7c-6.7,0.4-8.5-3.3-9.4-9.1
		c-4.5,0.7-8.2,1.3-13.4,2.2c-1.6-29.5-4.5-58.1-4.4-86.6c0.1-28,3.2-56,5.1-84.8c-7.9,0-14.1,0-17.8,0c-7.1-7.2-12.7-13-18.8-19.2
		c5.8-17.1,17.9-28.3,35.9-31.4c10.5-1.8,13.8-7.5,15.8-16.7c4.2-19.2,9.4-38.3,13.9-57.4c1-4.1,0.5-8.5,0.6-11.8
		c-1.9-1.2-2.3-1.7-2.6-1.7c-5.1,0.8-10.2,1.6-15.2,2.7c-5.4,1.1-11.2,1.6-15.9,4.1c-10,5.4-20.5,6.1-31.1,4.6
		c-5.9-0.8-10.5-0.6-15.6,4.1c1.5,1.8,2.9,3.5,4.4,5.4c-1.4,0.1-3.2,0.8-4,0.2c-9-6.8-17.2-2.6-24.7,2.3
		c-14.3,9.4-29.6,13.3-46.8,13c-8-0.1-16.7,3.1-24,6.8c-12.1,6.2-24.4,11-38,12.5c-9.1,1-11.8,4.8-12.8,14.2
		c-0.4,3.8-0.6,8.3-2.7,11.2c-3.7,5.3-4.2,8.6-1.2,15.3c2.8,6.3,1.6,16.4-1.5,23.1c-5.8,12.7-5.5,24.8-2.9,37.9
		c1.4,6.9,2.4,14.6,0.8,21.2c-4.1,16.9,0.9,33.1,2.9,49.2c1.6,12.7,5,26.2,13.2,37.4c2.8,3.7,5.5,6.2,9.9,5
		c8.6-2.2,17.5-4.1,25.6-7.6c28.7-12.4,48.8-34.2,64.6-60.6c3.6-6,8.6-11.2,12.6-17c4.6-6.6,9.1-13.3,13-20.3
		c5.7-10.2,6.8-10.6,15.4-2.5c0.8,0.8,2.3,1.1,3.5,1.3c5.5,1.2,10.8,8.6,9.1,13.6c-3,8.9-6.1,17.9-10,26.4c-2.8,6-5.5,10.7-4.2,18.5
		c1,6.5-5,14.4-8.7,21.2c-2.9,5.4-6.8,10.2-10.2,15.4c-2.7,4.1-5.4,8.1-7.8,12.4c-2.8,4.8-5.3,9.8-8,14.9c-5.4,3-11.5,6.5-17.6,9.8
		c-3.1,1.7-6,3.7-9.3,5c-7,2.9-15.1,4.1-21,8.4c-16.1,11.6-33.3,7.6-50.4,5.3c-6-0.8-11.1-7.5-17.9-2.2c-0.4,0.3-1.7-0.3-2.4-0.7
		c-18.6-12.1-40.6-20.2-52.1-40.9c-7.4-13.3-14.9-27-15.8-42.6c-1.6-27.3-3.5-54.6-3-81.9c0.5-27.3,3.9-54.5,5.9-81.8
		c0.3-4.4,0-8.7,0-13.1c-17.1-0.6-28.9-8.5-36.2-22.7c-6-11.8,2.7-26.5,16.1-27.3c8.4-0.5,16.9-0.1,25.3-0.1
		c6.1-13,3.9-25.4,1.8-36.8c-2.4-12.9-4.7-24.7,6.5-36.6c-8.2-5.6-14.9-10.1-22.3-15.2c-7.1,8.9-10.7,18.8-12.6,28.4
		c-4.7,23.1-15.1,43.9-25.4,64.5c-7.3,14.7-14.1,29.4-19,45.1c-5.1,16.2-10.5,32.3-15.9,48.8c-2.9,0-5.8,0-9.8,0
		c1.6,5.4,2.9,10,4.3,14.8c-4.7-0.9-8.7,0.5-6.7,5.3c4.6,10.4-0.4,19.6-2.5,29.1c-0.6,2.8-4.1,5.2-6.6,7.2
		c-5.5,4.4-8.4,12.2-7.4,21.4c1.8-1.1,3.4-2.2,6.4-4.1c-6,22.6-11.7,44-17.8,66.9c-1.7-2.7-2.6-4.1-3.5-5.5
		c-0.5,0.6-1.2,1.2-1.4,1.9c-3.7,16.1-7.6,32.2-10.9,48.4c-1.8,9.2-2.8,18.6-3.6,28c-0.3,2.9,1.6,5.8,1.8,8.8c0.3,3.4,1.2,8-0.6,10
		c-7.7,8.7-5.6,18.5-4.3,28.1c1.1,8.4,1.7,16.2-7.4,22.1c-4.7-2-10.3-4.3-14.8,1.9c-0.7,0.9-3.4,0.9-5,0.5c-9.1-2.1-18.5-3.7-27.2-7
		c-7.1-2.6-13.4-7.1-12.4-16.7c2.2-20.9,3.4-42,6.3-62.8c6.9-48.5,19.4-95.8,31.8-143c0.9-3.4,1.5-7,2.4-10.8
		c-14.8-9.8-23.1-24.6-31.3-39.3c-15.1-27-29.8-54.3-44.1-81.7c-19.2-36.6-33.3-75.4-45.2-114.9c-4-13.4,2.6-23.5,9.9-33.3
		c0.9-1.3,3.1-2.5,4.6-2.3c9.7,1.4,20.1,1.2,28.7,5.2c18.4,8.5,34.1,22,45.5,38.5c8,11.5,11.6,26.1,17.1,39.3
		c7.5,18.2,14.9,36.4,22.5,54.5c3.6,8.6,7.5,17.2,11.5,25.7c1.7,3.5,4.1,6.7,6.2,10C2199.2,1855.5,2200.3,1855.4,2201.4,1855.2z
		 M2728.9,1806.5c5.2,8.9-1.4,16.3-2.9,24.4c-0.9,5.2-1.1,10.5-1.7,16.7c-4.4,1.7-6.3,5.9-3.8,13.2c5.3-1.5,10.2-3.1,15.2-4.2
		c15.2-3.3,30.5-6.1,45.6-9.6c9.8-2.3,12.8-6.1,12.7-16.1c-0.1-17-0.3-34.1-1.3-51.1c-0.8-14.2-2.9-28.3-4.7-45.1
		c-14.1,9.8-24,18.8-27.1,30c-4.6,4.8-7.1,7.8-10,10.4c-7.2,6.7-13.7,13.5-14.8,24.2C2736,1802.1,2731.4,1804.2,2728.9,1806.5
		c1.4-2.6,2.8-5.3,4.2-7.9c-0.8-0.3-1.7-0.6-2.5-0.9C2730.1,1800.6,2729.5,1803.6,2728.9,1806.5z M2993.1,1940
		c0.6,0.2,1.2,0.3,1.7,0.5c-0.1,1.3-0.1,2.7-0.3,4c-1.1,11.7-0.2,12.7,11.1,10.2c8.6-1.9,17.2-4.1,25.6-6.6
		c17.7-5.3,35.8-8.4,53.2-15.6c47.1-19.6,86.1-49.1,117.8-88.6c10-12.5,16.3-27.1,17.3-43c2.6-39.4-14.6-61.1-55.1-63
		c-8.8-0.4-17.7-0.5-26.5-1.2c-14.8-1.1-28.3,3.2-40.3,11.2c-13.3,8.7-21.4,24-36.9,30.3c-1.8,0.7-2.9,3.3-4.1,5.2
		c-3.5,5.2-7.1,10.3-10.3,15.6c-7,11.9-15.1,23.5-20.3,36.1c-7.9,19.1-14.3,38.8-20.5,58.6C3000.6,1908.8,2997.1,1924.5,2993.1,1940
		z M2975.9,1949.5c1.2,0.6,2.3,1.2,3.5,1.8c2.2-2.9,5.8-5.6,6.3-8.7c4-25.7,16.7-50.1,12.2-77.1c-2.2,3.4-2.5,7.1-2.9,10.7
		c-0.6,4.8-0.9,9.7-2.2,14.3c-2.4,8.5-6,16.6-8,25.1c-2,8.5-2.2,17.4-7.5,25C2975.7,1942.8,2976.3,1946.5,2975.9,1949.5z
		 M3010.8,1835.6c3.2-3.5,4.8-4.5,5.4-6c5-11.7,6.7-24.8,15.5-35.1c2.7-3.1,2.3-9,3.5-14.5c-3.2,0.5-5,0.3-5.5,1
		c-10.5,13.1-18.1,27.9-22.4,44.2C3006.7,1827.5,3009,1830.6,3010.8,1835.6z M2277.3,1846.1c-0.9-0.2-1.8-0.3-2.8-0.5
		c-7.1,12.1-7.4,13.6-3.1,21C2273.5,1859.3,2275.4,1852.7,2277.3,1846.1z M3121.2,1698.5c-0.1-0.9-0.2-1.8-0.3-2.6
		c-4.3,0.8-9.1-1.5-12.8,4.1C3112.5,1699.5,3116.9,1699,3121.2,1698.5z M3194.3,1894c-4.3-2.7-5.9-4.1-6.3-3.8
		c-1.2,0.9-2.3,2.3-2.8,3.7c-0.2,0.5,1.7,2.3,2.6,2.3C3189.5,1896.2,3191.2,1895.2,3194.3,1894z M3006.4,1802.4
		c-0.9-0.9-1.8-1.8-2.7-2.7c-1.6,1.5-3.1,2.9-4.7,4.4c1.1,1.1,2.2,2.2,3.3,3.4C3003.7,1805.8,3005.1,1804.1,3006.4,1802.4z
		 M2345.4,1683.4c-0.6,1.1-1.4,2.1-1.5,3.2c0,0.4,1.6,1,2.4,1.4c0.4-1.1,0.9-2.2,1.1-3.4C2347.5,1684.4,2346.3,1683.9,2345.4,1683.4
		z"/>
	<path d="M1711.8,1834.5c-2.4-7.5-4.8-15-7.2-22.6c-0.5,0.1-1.1,0.2-1.6,0.3c2.4,12.3,4.7,24.7,7.2,36.9c0.3,1.6,1.5,3.7,2.8,4.2
		c5.7,2.1,6.4,7,7.4,11.9c4.1,20.2,8.3,40.3,12,60.6c0.9,4.8,1.1,10,0.1,14.7c-1.5,7.1-3.6,13.8-0.3,21c0.7,1.6-1.5,4.6-2.7,7.5
		c13,5.1,12,18.5,15.1,28.9c1.3,4.5,1.1,8.9,4.8,12.8c5,5.4,4,14.9,13.5,19.3c1.7-16.2,3.6-31.6,5-47.1c3.7-40.7,6.5-81.4,11-122
		c4.8-43.2,10.6-86.3,16.9-129.3c2.9-19.5,8.4-38.6,12.2-58c3.3-16.6,11.1-31,19.9-45.3c8.6-1.6,11.2,5.7,15.3,10.4
		c20.3-2,41.9,11.6,56.3,35.1c-10.7,8.6-15.1,20.2-15.8,35.6c-3.2-2.9-5.1-4.7-8.6-7.9c-3.1,21.7-11.1,41.1-12.3,62.2
		c-0.5,9.1-3.7,18.1-6.2,27c-0.3,1.2-3.7,1.5-6.2,2.4c0.8,3.3,1.9,6.7,2.2,10.1c0.2,2.5-0.1,6.1-1.6,7.4c-7.2,5.7-8,14.1-10.4,22
		c-0.9,2.9-2.9,5.5-4,8.3c-0.9,2.4-2.3,5.3-1.6,7.4c4.7,15.2,4.8,15.1,1.4,26c-1.3-1.3-2.5-2.4-4-3.8c-7.1,13.1-3.5,25.7,2.1,39
		c-6.2,1.6-9.5,4.7-9.5,11.7c-0.1,13.3,0,26.9-8.6,38.5c-1.3,1.8-1.6,5.9-0.5,7.7c7,10.6,3.3,21.9,2.7,32.8
		c-1.5,26.4-4.2,52.6-5.7,79c-0.4,6.9,1.3,14.2,3.5,20.9c3.9,11.4-0.4,18.9-12.5,19.7c-2.6,0.2-5.7,0.1-7.7,1.4
		c-13.2,8.3-26.4,8.7-40,0.9c-2.7-1.5-5.9-1.9-9-2.8c-8.5-2.3-14.1-6.9-14.3-16.6c0-1.9-1.3-4.6-2.8-5.5
		c-10.2-6.2-15.1-15.7-18.1-26.7c-0.2-0.9,0.1-2.3-0.4-2.6c-13.1-8.8-14.5-24.5-19.6-37c-10.7-26.3-27-50.5-31.7-79.2
		c-0.9-5.2-3.8-10-5.2-15.2c-5.2-19.4-10.1-38.8-15.2-58.4c-3.2,0.4-5.5,0.7-7.4,0.9c0-13.1,0-25.7,0-41.5c-2.4,4.1-3.7,5.4-4,6.8
		c-3.2,19-6.9,37.9-9.2,56.9c-4.9,40.1-9.3,80.2-13.4,120.3c-1.8,17.7-3.1,35.6-3.4,53.4c-0.1,6.9,1.9,14.2,4.7,20.6
		c5.8,13.7,7.3,26.6-1.3,37.6c-9.9,1.3-18.7,1.6-27.1,3.8c-11.1,2.9-21.3,4.1-30.4-4.6c-0.9-0.9-2.4-1.9-3.5-1.7
		c-8.7,1.4-11.3-5.2-14.9-10.8c-15.5-24.1-23.3-51.4-30.9-78.4c-18.4-65.5-26.8-132.7-33.5-200.2c-0.4-3.9-1.1-7.8-1.8-13.3
		c-5.1,1.4-9.3,2.5-13.4,3.7c-12.9,3.7-25.8,7.3-38.7,11c-1.3,0.4-3.1-0.1-3.9,0.6c-14.2,12.5-33.5,8.5-49.4,15.6
		c-11.8,5.3-24,9.8-36.3,14c-9.8,3.3-9.7,11.3-11.2,19.2c-0.8-3.1-1.6-6.1-2.9-10.8c-3.7,7.8-1.5,13,1,18.3
		c2.2,4.5,6.3,9.5-1.4,13.4c-1,0.5-1.4,3.2-1.3,4.9c0.6,12.4,1.5,24.7,2.3,38.6c2.7-2.3,3.9-3.3,5.1-4.4c0.5,0.6,1.5,1.5,1.4,1.8
		c-5.9,10.8-4,22.4-3.7,33.8c0.1,2.6,0.1,5.4,0.9,7.9c3.8,12.5,3.8,12.7,0.1,23.2c3.4,11.9,5.8,21.7,8.9,31.3
		c2.7,8.3-7.4,17.3,0.4,24.2c7.4,6.6,6.6,15.3,9.5,23c0.9,2.4,2.1,4.8,3.8,8.7c2.4-3.7,4.4-5.9,5.5-8.5
		c6.5-15.2,12.6-30.5,19.3-45.6c5-11.3,9-23.2,22.2-29c5.3-2.3,9.3-4.4,14.8-1.5c2.2,1.2,5.2,0.9,9.5,1.5c-1.5,9-3.7,17.6-4.2,26.4
		c-1,17.7-6.1,34.1-12.3,50.6c-6.3,16.6-10.2,34.1-14.9,51.3c-1.7,6.3-5.1,10.2-11.5,11.6c-6.1,1.3-12.3,2.4-18.2,4.3
		c-10.6,3.4-21.3,2.3-31.8,0.9c-8-1-15.2-4.4-21.4-10.3c-14.6-13.7-22.5-31.1-27.3-49.8c-5.8-22.9-11.2-46-15.3-69.3
		c-7-40.2-14-80.4-15.5-121.3c-0.3-7.6-1.8-15.1-2.8-22.8c-5.9-5.3-12.4-6.5-19.9-4.2c-11.6,3.5-19.7-2.7-26.8-10.5
		c-4.6-5.1-4.7-20.3,0.3-26.5c2.8-3.5,7.9-5.7,12.3-7.2c7.6-2.6,15.5-4.6,23.3-6.1c6.1-1.2,8.6-4.4,8.3-10.2
		c-1.6-26.9-3.1-53.7-5-80.6c-0.2-2.8-2-6.2-4.2-7.9c-6.2-4.9-12.8-9.5-19.7-13.2c-4.4-2.4-5.9-5.6-5.4-9.7c1-7.5,2.3-15,4.2-22.3
		c2.3-8.8,9.5-13.2,17.5-15c13.9-3.3,28.1-5.5,42.1-8.3c37.6-7.5,75.8-8,113.9-9.3c54.7-1.9,109.3,0.9,163.5,8.5
		c16.8,2.3,33.1,8.1,49.5,12.6c3.4,0.9,6.7,2.9,9.4,5.1c8,6.4,7.1,13.2-2.1,17.4c-1.2,0.6-3.1,0.4-3.8,1.2c-11,14-26.7,10.1-41,10.4
		c-36.3,0.8-72.7,0.6-109,1.2c-20.6,0.3-41.1,0.8-61.6,2.1c-10.8,0.7-21.4,3.6-32.2,4.9c-5.7,0.7-11.6-0.3-17.4,0.2
		c-7.2,0.7-9,3.5-8.6,10.8c1,16.1,1.7,32.2,2.8,48.3c0.4,6.6,1.6,13.2,2.7,20.9c4.6-0.4,8.1-0.2,11.2-1.2c31.4-10.4,63-20.3,92.8-35
		c9.6-4.8,19.3-9.7,28.2-15.6c15.4-10.2,30.2-5.5,46.1-1.1c13.8,3.8,24.3,14.5,39,16.6c5.1,0.7,9.8,5.7,14.3,9.3
		c5.5,4.4,2.8,10.8,2.9,16.4c0.5,22.4,0.8,44.8,1.8,67.2c0.4,9.3,2.5,18.6,5.7,28.1c3-15.3,6.2-30.5,8.9-45.8
		c5.5-31.1,13.4-61.5,29.2-89.1c5.5-9.6,13-18,19.9-26.7c3.7-4.7,8.4-4.6,13-1c4.4,3.4,9.1,4.4,14.9,4.4c4.9,0,9.7,3.9,14.7,5.8
		c15.3,5.9,29.7,14,42.7,23.6c7,5.1,10,16.5,6.5,24.6c-5.6,12.9-3.8,25.3-2.6,38.1c0.3,2.7,0.4,5.3,0.6,8
		C1713.2,1834,1712.5,1834.3,1711.8,1834.5z"/>
	<path d="M1419,2366.6c-5.4-2.3-11.9-3.4-19.4-1.8c-12.7,2.6-25.6,4.4-38.4,6.1c-8.9,1.1-15.2-3.9-17.5-12.8
		c-3.6-14.3-1.4-20.5,10.4-29c15.4-11.2,32.9-16.3,51.7-16.7c26.9-0.6,52.5,5.4,77.3,15.4c44.4,17.9,85.2,41.8,124.1,69.6
		c10.1,7.2,17.3,16.5,25.8,24.9c4.8,4.7,9.2,9.8,13.6,14.8c2.3,2.6,4.6,5.4,6.4,8.4c5.6,9.3,11,18.8,17.3,29.5
		c1.6-3.1,3.2-5.1,3.8-7.3c8.8-31.1,18.6-61.9,33-91c10.4-21.1,25.1-39.1,43.8-53.4c3.8-2.9,9.7-3.2,14.6-4.8
		c2.9-0.9,7.2-1.2,8.3-3.2c7.2-13,20.1-10.4,30.8-10.5c21-0.2,38.5,10.9,54.5,22.9c15.6,11.8,21.3,29.4,21.5,48.7c0,2-2,3.8-2.5,5.9
		c-2.2,9.2-4.2,18.3,5.2,25.4c5.8,4.4,3.5,10.1-0.2,14c-4.6,4.9-4.1,9-1.6,14.5c2.1,4.8,2.7,10.3,4.1,16.1c0.9-1.3,1.7-2.5,3.7-5.5
		c0.9,22.9,1.7,44.2,2.5,65.4c25.4,9.9,52,3.1,77.3,11.9c-1.4,3.3-2.1,5.8-3.5,7.7c-4.9,6.9-9.6,14-15.2,20.3
		c-3.1,3.4-7.5,6.7-11.9,7.7c-9.5,2.2-19.4,3.4-29.2,4.1c-14.4,1-15.4,0.7-15.6,15.4c-0.2,14.7,1.9,29.5,2.7,44.2
		c0.8,13.4,1.3,26.8,2.1,41.8c-3.3-1-5.1-1.6-7.1-2.2c-3.9,6.1-7.6,12.6-12,18.6c-1.3,1.8-4.2,3.5-6.4,3.6
		c-9.1,0.5-14.9,5.3-19.4,13.9c-6.8-5.2-12.4-3.6-16,2.8c-1.8-0.1-2.7,0-3.5-0.2c-19.7-4.6-25.9-16.5-25.7-36.8
		c0.4-29.9-3.2-60-5.1-89.9c-0.5-8.2-1.9-9.8-9.7-9.1c-18.3,1.5-36.7,3-54.9,5.2c-12.7,1.5-12.8,2-14.5,14.8
		c-0.7,4.9-0.9,9.8-1.3,14.7c-0.2,3.1,0.7,7.1-0.8,9.3c-6.8,9.4-1.9,21.2-5.7,30.1c-4.3,10-5.3,18.5-3.1,28.9c1,4.9,0.5,13-8.2,15.6
		c1.9,5,7.3,9.5,0.8,15.5c-2.5,2.3-2.4,8.5-1.8,12.7c1.4,9.3,0.5,16.2-9.2,21.2c-4.1,2.1-5.7,8.7-9.2,14.5
		c-4.7,1.1-11.6,2.6-18.5,4.1c-5.8-1.5-11-5.2-18.7,0.7c-6.4,4.9-14.5,0-13.4-8.3c1.4-10.9-0.5-21.8,2.8-33.1
		c4.7-16.1,5-33.4,5.3-50.8c-6,7.9-12.6,15.4-18,23.7c-6.3,9.8-13.9,18.1-21.7,26.7c-14.3,15.7-31.1,28-47.9,40.5
		c-6.1,4.6-14.5,6.1-21.9,9.1c-2.9,1.1-5.8,2.1-8.6,3.4c-9.7,4.6-19.2,9.5-29,13.8c-7,3.1-14,5.8-16.3,15.1
		c-39.4-1-78.4,1-113.8-8.6c-4.1-6-6.4-9.9-9.2-13.3c-2.2-2.8-5-5.1-7.7-7.5c-13.4-12.1-12.9-9.6-5-27.6c16.5,0.7,33,1.7,49.3,6.4
		c9.2,2.7,18.6,6.5,29.5,3C1406.6,2619.8,1412,2493.8,1419,2366.6z M1491.3,2394.8c-1.1,9.1-1.9,14.7-2.5,20.4
		c-3.1,28.3,2.1,56.9-2.7,85.2c-0.3,1.7,0.1,3.6,0.2,5.4c0.9,16.4,1.9,32.9,2.6,49.3c0.2,6.2-0.2,12.4-0.6,18.5
		c-1,14.5,2.8,28.7-1.3,43.6c-2.7,9.7-1,21.7,2.1,31.7c3,9.7,4.7,18.9,3.9,28.9c-0.3,3.5,0,7.1,0.8,10.5c2.2,8.4,3.4,16.6,0.7,25.2
		c-1.3,4.1-2.9,9.8,2.6,11.7c3,1.1,8.1-0.3,10.8-2.5c12.8-10.5,26-20.6,37.3-32.6c22.9-24.2,41.2-52,55.9-81.9
		c7.2-14.6,14.1-29.9,7.5-47.3c-2.6-6.8-2.1-15.7,3.7-19.7c9.7-6.8,8.1-15.2,6.7-23.9c-3.8-23.6-16-43.3-33.4-58.5
		c-17.7-15.6-37.5-28.9-57-42.5C1517.6,2408.9,1505.5,2403,1491.3,2394.8z M1792.5,2358.5c-4.9,3.4-6.8,4.5-8.4,5.9
		c-1.3,1.1-2.6,2.5-3.5,4c-20.8,31.8-35.8,65.8-39.6,104.1c-0.4,4-1.3,8.1-2.9,11.7c-4.6,9.8-3.6,19.9-3.4,31.3
		c22.3,1.3,43.8,0.5,65.2-2.9c0-8.1,0.1-14.8,0-21.4c-0.6-34.9-1.1-69.7-2.2-104.6C1797.3,2378,1794.6,2369.5,1792.5,2358.5z"/>
	<path d="M1092.4,1964.4c-1.3-5.8-3.8-11.7-3.7-17.4c0.2-9.2-2.9-17.3-5.2-25.9c-1.4-5-1-10.5-1.3-15.7c-0.2-4,0.5-8.3-0.7-11.9
		c-3.4-10-8.9-19.5-5.7-30.8c0.4-1.4-0.8-3.5-1.8-4.9c-6.2-8-6.5-17.5-6.4-26.9c0.3-13.9-0.3-27.5-6.5-40.4c-2.1-4.3-2.6-9.6-3-14.4
		c-1.6-24.2-2.8-48.4-4.3-72.6c-1.2-19.7-0.8-39.4,2.6-58.9c0.6-3.5,0.2-7.3-0.5-10.7c-1.9-8.5,4.3-13.5,8.8-18.3
		c1.9-2.1,8.7,0.2,14.6,0.6c11.7-8.3,24.9-6,38.4,0.2c10.3,4.8,20.8,9.1,33.5,14.6c-0.2,3.4-0.1,9-0.9,14.5
		c-1.6,9.8-2.7,19.3-0.3,29.3c1.3,5.3-0.6,11.4-1.3,17.2c-2.3,18.1,1.1,35.8,3.1,53.6c0.9,8.4,1.2,16.9,1.6,25.4
		c0.2,4.9-0.1,9.8,0.3,14.7c0.6,8.8,1.6,17.6,2.5,27.1c-3.1-0.7-5-1.2-8.5-2c-0.2,5.1-1,9.8-0.3,14.4c2.9,18.4,4.9,37.2,10,55.1
		c4.2,14.6,4,29,4.9,43.6c0.1,1.7-0.2,3.3-1.4,5.2c-11.3-24.1-9.6-51-17.9-76.1c-0.4,2.2-1.4,4.5-1.1,6.6
		c4.9,28.6,10.3,57.1,14.9,85.8c1.7,10.4,1.6,21.1,2.6,31.6c0.4,3.5,1.8,6.9,3,10.2c1.7,4.5,3.6,8.8,6.4,15.4
		c-5.8-1.8-9.1-2.7-14.8-4.5c2.2,5.9,2.8,11,5.6,14.1c3.2,3.6,10.9,1.1,12.4,8.3c2.1,10.4,4.3,20.7,6.7,32.6
		c-5.1-1.5-8-2.3-11.4-3.3c-0.2,1.3-0.9,2.6-0.5,3.6c2.7,8.6,6,16.9,8.1,25.6c1.7,6.8,1,14.2,2.9,20.9c5.1,18.1,12.4,35.5,21.8,51.8
		c2.4,4.3,4.9,8.5,7,13c3,6.3,1,10.7-5.3,9.8c-7.3-0.9-12.8,2.7-19.1,4.3c-7.3,1.8-14.7,3.7-22.1,4.3c-12.7,1.1-18.9-4.3-25-15.6
		c-9.1-16.8-18.9-33.4-29.6-49.2c-6.2-9.2-13.2-17.7-18.5-27.7c-6.1-11.4-14.6-21.5-22.6-31.8c-13.5-17.4-25.1-36-37.3-54.2
		c-14.1-20.9-29.4-41.2-45.2-61.1c-16.9-21.3-34.8-42.3-48.4-66.5c-10-17.7-24.8-32.7-37.4-48.9c-3.2-4.1-6.5-8-10.7-13.1
		c-2.3,3.6-4.8,5.7-4.8,7.9c-0.1,11.5-0.7,23.2,1.1,34.5c1.4,8.7-3.5,15.3-4.2,23.1c-0.5,5.2-1.9,10.3-2,15.4
		c-0.3,8.5,0.2,17,0.3,25.5c0.1,10.2,0.3,20.5,0,30.7c-0.2,5.9-0.7,5.8-8.1,7.1c0,17.5,0,35,0,53.7c4.5,2.3,11.6,4.5,6.4,13.3
		c-1.6-0.5-3.8-1.2-8.1-2.6c1,16.2,2.1,31.1,2.7,46.1c0.2,5.8-0.2,11.7-1.2,17.3c-1.1,5.9-2.4,11.4,1.1,16.9
		c0.9,1.5,1.4,3.4,1.4,5.1c0.1,16.5-0.2,33.1,0,49.6c0.1,9.3,1.1,18.5,1.7,28.6c-20.1,4.9-39.7,9.6-60.1,14.5
		c-3.5-10.1-5.6-19.1-6-29.2c-1.2-35.8-2.4-71.5-7.6-107.2c-5.5-37.7-7.3-75.9-10.3-113.9c-1.7-21.4-3-42.9-3.8-64.4
		c-1.4-36.8,0.1-73.5,4.5-110c2.5-20.9,5.3-41.8,9.8-62.3c2.4-10.6,8.7-20.4,13.6-30.3c0.8-1.6,3.6-3.5,5.3-3.3
		c11.4,1.6,22.9-1,34.1,5.3c13.9,7.8,30.6,11.2,43.5,20.2c19.9,13.9,40.5,27.1,54.3,48.9c23.3,36.7,49.3,71.7,73.6,107.8
		c20.8,30.8,40.8,62.2,61.2,93.3c2,3.1,4.4,6,6.6,8.9C1090.8,1965.2,1091.6,1964.8,1092.4,1964.4z M1145.1,1744.8
		c2.7-9.7,1.8-16.6-3.5-26.3C1142.8,1726.6,1137.7,1735.1,1145.1,1744.8z M1147.7,1789.5c-3.2,6.7-3.2,6.7,0,12.4
		C1147.7,1797.1,1147.7,1793.3,1147.7,1789.5z M1145.2,1764.3c0.3,4.5-4.6,9.8,3.1,13C1147.3,1772.9,1146.2,1768.6,1145.2,1764.3z"
		/>
	<path d="M2142.2,2511.7c3.9-5.5,7.6-10.9,11.5-16.2c19.7-27.8,39.1-55.8,59.2-83.3c20.3-27.8,41.1-55.2,62.1-82.5
		c12-15.6,24.7-30.7,37.3-45.8c1.8-2.1,5.1-3.4,7.9-4.2c6.8-2,13.8-3.5,20.2-5c6.4,6,10,12.1,8.6,20.6c-0.3,1.8,0.8,4.3,2.1,5.9
		c3.7,4.8,7.8,9.3,11.4,13.5c-10.5,12.2-20.6,23.5-30.3,35.2c-6.7,8.1-13.9,16-14.7,27.7c-0.3,4.3-4.3,8.8-7.5,12.5
		c-12.6,15.1-25.9,29.6-38.1,45c-10.1,12.8-21.8,24.5-26.2,41.3c-1.4,5.2-7.9,9.1-12,13.7c-2.2,2.5-4.5,5.1-5.9,8
		c-2.2,4.7-2.9,10.2-5.5,14.5c-13.9,22.2-28.3,44.2-42.5,66.3c0.5,1,1.1,1.9,1.6,2.9c3.6-0.3,7.4-0.1,10.9-1
		c5.2-1.4,10-3.8,15.1-5.5c7-2.3,14.4-0.2,17.7,5.3c3.3,5.5,0.9,10.5-2.7,14.7c-7.5,8.8-13.8,19-26.5,21.4c-1.7,0.3-4,1.2-4.5,2.5
		c-4.8,12-15.4,9.6-24.8,10.3c-0.9,0.1-1.8-0.1-2.7-0.1c-15-0.6-22.9,4.9-25.6,19.7c-1.1,6-3.9,10.5-6.6,15.6
		c-8.3,15.9-14.9,32.6-26.1,46.8c2.2,13.3-7.8,21.9-12.6,32.5c-2.5,5.5-6.1,10.7-8.1,16.4c-2.6,7.6-5.7,15.5-5.7,23.3
		c-0.1,21.6-20.7,37-39,38.5c-4,0.3-7.9,1.1-12.7,1.8c-4.5-7.1-9.4-14-13.5-21.3c-1.6-2.9-1.6-6.8-1.6-10.2
		c0.1-24.6,8.3-47.5,15.5-70.6c10.2-32.6,27.2-62.2,41.9-92.8c4.8-10,10.7-19.7,16.5-29.2c3.4-5.6,3.3-10.1,0.3-16.1
		c-18.9-38.1-37.3-76.6-55.8-114.9c-15.8-32.7-31.1-65.6-47.3-98.1c-5.3-10.8-13.6-20.2-14.2-32.9c-0.2-4.8-0.3-9.9,0.8-14.6
		c1.7-6.8,5.1-11.5,13.8-11.9c8.3-0.4,16.1-2.9,24.9-0.8c15.4,3.8,23,16.3,32.4,26.6c5.3,5.8,8.7,13.4,12.8,20.3
		c13,21.9,26.4,43.5,38.8,65.7c7.4,13.2,13.4,27.3,19.8,41c5.1,10.9,9.9,22,15.1,33C2130.5,2503.1,2134.1,2508.7,2142.2,2511.7z"/>
	<path d="M3410.7,2057.2c12-1.3,20.9,0.5,29.8,3.4c11.3,3.7,21.9,8.6,34.9,6.7c8.8-1.3,18.3,3.7,27.6,4.6
		c15.5,1.5,31.1,2.8,46.7,2.7c15.5-0.1,20.1-4.9,17.2-19.9c-3.4-17.5-8.6-34.8-14.9-51.4c-6.3-16.7-14.1-33-22.6-48.7
		c-10-18.5-22-35.8-32.3-54.1c-13.4-23.8-26.8-47.6-30.9-75.3c-3.7-25.5,4.3-46.6,21.5-65.1c15.3-16.4,33.2-28.6,53.9-36.7
		c7.8-3.1,16.1-5.4,24.4-6.7c9.6-1.4,19.5-1.8,29.2-1.7c8.5,0.1,16.9,1.3,23.8,7.3c9.1,7.9,19,14.9,27.3,23.5
		c6.6,6.7,5,10.7-3.1,15.9c-5.2,3.3-9.7,9.2-15.2,10.2c-4.6,0.8-9.9-4.9-15.2-6.1c-28.5-6.3-54.3-0.7-76.5,18.7
		c-11.3,9.9-12.9,23.1-10.8,37c4.6,29.7,17.2,56.3,31.6,82.4c21.7,39.2,44,78.2,58.2,120.9c5.1,15.2,9.3,31.1,11,47
		c2.3,22.2-0.4,33.3-27.8,43.5c-5.3,2-11.3,2.4-17.1,2.7c-21.5,1.3-43.1-0.2-63.9-5.2c-14.1-3.4-28.7-6-41.7-13.9
		c-10.9-6.7-23-11.3-34.6-16.8C3430,2076.9,3420.2,2069.5,3410.7,2057.2z M3581.9,2026.9c0.9-0.8,2-1.7,1.9-1.8
		c-0.6-1-1.4-1.8-2.2-2.6c-0.6,0.5-1.7,1.3-1.6,1.5C3580.4,2025,3581.2,2025.9,3581.9,2026.9z"/>
	<path d="M3378.2,1646.7c7.7,7.2,15.5,13.9,22.5,21.4c3.2,3.5,6,8.1,7.1,12.7c5.4,21.1,6.6,42,0.5,63.7c-3.9,13.9-3.6,29.2-4,43.9
		c-0.5,18.1,0.2,36.3,0.4,54.7c-7.3,6.6-19.7-6.3-25.9,6.5c-5.6-3.9-11.3-7.4-16.5-11.5c-14.7-11.7-20.2-27.7-21.3-46
		c-2.4-38.7,0.6-77.1,6.7-115.3c1.7-10.9,6.5-19.3,17.6-23.3C3369.8,1651.9,3373.9,1649,3378.2,1646.7z"/>
	<path d="M1167.8,1955.1c-0.6-0.4-1.8-0.9-1.8-1.3c0.1-0.9,0.7-1.8,1.2-2.6c0.5,0.6,1.3,1.2,1.4,1.8
		C1168.7,1953.7,1168.1,1954.4,1167.8,1955.1z"/>
</g>
</svg>
