<svg xmlns="http://www.w3.org/2000/svg" viewBox="0 0 4729.69 2221.36"><title>nobakecookies</title><path d="M3644.6,1224.3c15.8-8.4,21.9-7.3,32,6.9a213.15,213.15,0,0,1,16.5,28.1c11.8,23.2,28.7,41.3,50.1,56.4,54.6,38.7,115.7,33.9,173.9,19.2,42.3-10.8,81.7-35.3,120.4-57.1,31.4-17.7,33.8-19.6,56.2,7.1,1.7,2.1,3.1,4.6,4.9,6.6,29.9,33.1,68.3,54.8,111.4,57.6,90.8,5.8,175.4-18.5,249.7-72,27.2-19.6,51.2-44.1,66.6-74.9,13-26,24.6-52.7,36.2-79.3,3.2-7.4,6-15.6,6.4-23.5.4-7.4-.5-19.2-4.9-21.6-6.7-3.7-17.6-2.8-25.5-.3-6,2-11.3,8.8-15,14.7-31.6,50.2-70.4,93.2-123.8,120.4-43.1,21.8-87.6,41.6-136.7,44.2-29.8,1.6-60.2,0-86.9-17.1-27.3-17.5-30.7-35.3-11.7-61.5,11.2-15.4,22.9-30.5,34.1-45.9,27.4-37.4,26.4-56.5-.6-93.5-8.2-11.2-17-13.6-27.9-10.3-8.4,2.6-16.5,7.5-23.7,12.8-32.2,23.9-55.8,55-73.6,90.5-11.9,23.6-29.7,41.9-52.4,53.9-34.5,18.3-70.1,34.5-105.4,51.1-27.9,13.2-57.6,17.7-88,15.5a101.41,101.41,0,0,1-34-9c-38.1-17.3-47.5-52.6-52.4-89.4-1-7.3,2.8-16.1,6.6-23,14.8-26.1,31.4-51.2,45.4-77.6,8.7-16.5,12.9-35.5,21.5-52.1,7.9-15.2,11.3-30.2,10.3-47.2-1.9-30.7,3.9-36.3,35.5-37.8,27.2-1.3,54.5-1.7,81.7-3.3,40-2.3,79.9-5.4,119.9-7.8,20.9-1.3,41.8-1.4,62.6-2.6,61.9-3.5,123.7-7.3,185.5-11,12.7-.8,25.5-1.1,38.1-2.7,21.6-2.7,43-7,64.7-9.4,31.7-3.5,64-3.9,95.3-9.6,28.5-5.2,56.2-15.3,84.1-23.7,11.4-3.4,18.6-10.7,17.4-29.1-10.6,0-19.5-.1-28.2-.2-25.5.2-51,.9-76.5.6-26.2-.2-52.5-2.1-78.7-1.9-48.9.4-97.4,13.3-146.7,5.8-1.7-.3-3.6.3-5.4.4-37.2,2.3-74.3,4.5-111.5,6.7a49,49,0,0,1-5.4-.4c-21.7-1.2-43.5-4.3-65.1-3.2-47.2,2.4-94.4,7.6-141.6,10.6-24.5,1.6-49.2,1.1-73.8,1.2-32.2.2-39.7-6.7-42.4-38.2-.4-4.6-.2-9.6-2-13.5-11.4-24.6-9.3-50.2-4.8-75.4,4.6-25.8-10.3-42.3-26.8-56.1-17.9-14.9-34.4-9.2-44.8,10.3-23.6,44.5-38.7,92.3-53.8,139.8-9.6,30-25.9,41.9-56.4,45.2-43.4,4.8-86.5,13.5-129.4,22.4-25.7,5.3-31.1,16.6-24.5,41.8a113.29,113.29,0,0,0,7.2,20.5c9.2,19.6,20.6,24.9,42,19.8,18.5-4.4,36.8-10.8,55.6-13.6,23.9-3.5,48.2-4.1,73.8-6.1,0,7.3.4,11.6-.1,15.9-4.7,44.3-11.6,88.6-13.6,133.1-1,24.2-10.6,39.5-29.5,51.6-13.8,8.8-27.7,17.6-41.3,26.7-56.6,38.1-119,54.5-186.8,48.1-49.2-4.6-79.7-30.3-69.8-79.5,6.5-32.1-10.2-57.9-27.3-83.3-8.5-12.8-19.6-15.7-32.9-13.9a97.3,97.3,0,0,0-23.6,6.5c-31.9,13.2-64.4,25-88.9,51.7-17.7,19.4-37.3,37.2-56.7,54.9-30.3,27.6-51.3,61.2-66.8,98.7-2,4.9-4,10.5-7.6,14.3-37.3,39.5-81.7,62.6-137.6,62.2-33.5-.2-48.2-23-50.4-50-2.7-33.5-3.6-67.8.6-101.1,5.6-44.6,4.8-89,4.1-133.6-.4-25.6-3-51.4.1-76.5,3.2-25.7,4.1-50.7-.2-76.1-1.6-9.8-1.9-19.8-2.9-29.6-2.9-27.6-10.2-53.7-29-75.1-7.3-8.3-34.6-14.3-43.2-9.4-13.3,7.6-11.7,21.6-12.2,34.1-.2,5.1,3.5,10.2,4.5,15.5,3.6,19.6,9.6,39.4,9.6,59.1,0,52.8-2.4,105.5-4.4,158.2-2.3,62.8-5.2,125.6-7.8,188.4-1.7,40.6,4.3,79.4,23.6,116.2,25.9,49.2,66.1,69.6,120.6,67.8,32.7-1.1,62.7-11.7,92.3-23.2,16.3-6.4,27.6-5,39.1,7.2a97.83,97.83,0,0,0,18.7,15.9c5.9,3.5,13.2,7,19.8,6.9,44.7-.3,84.4-15.7,117.1-45.6,22.8-20.7,42.9-44.4,64-67.1,12.7-13.8,24.9-28.1,37.6-42.4,7,3.8,11.7,6.5,16.5,8.9,30.4,14.7,60.6,32,95.3,31.4,30.9-.6,62.5-2.4,92.3-9.7,42.2-10.4,83.7-24.5,120.8-48.7C3623.8,1235.6,3634.2,1229.8,3644.6,1224.3Zm112.1-295.1c2.3.7,4.6,1.4,6.8,2.2,5.6,13.6-11.9,19.7-9.5,32.3l-8.1-2.7C3749.5,950.4,3753.2,939.7,3756.7,929.2Zm-615.37,357.56c-4.54,5.4-9.08,10.73-13.53,16.14C3126.55,1291,3132.08,1286.45,3141.33,1286.76Zm2.05-1.51q4-6.42,8.22-12.85c1.7,1.6,3.5,3.2,5.2,4.8ZM3356,1984c-.7-15.5-.4-31-1.6-46.5-1.7-22.1-.7-43.4,7-64.6,9.4-25.8,9.5-51.6-3.9-76.8-6.3-12-12.8-22.3-28-22.3-15.5,0-31,10.6-35.2,25.8-3.4,12.2-4.4,25.1-7.1,37.6-10.4,48.7-36.4,86.1-78,114-45.3,30.4-95.9,42.9-148.8,49.4-89.1,10.9-176.5.3-263-20.9-4.6-1.2-8.5-5.1-17.7-10.9,12.8-5.9,21.2-10.2,29.7-13.8,10.1-4.2,20.6-7.4,30.5-11.9,43.2-19.5,81.4-46.9,118.6-75.9,15.7-12.3,31-25,46.6-37.4,19-15.1,17.6-35,11.8-54.9-4.6-15.9-19.5-22.2-35-15.8-5.8,2.4-10.8,6.8-15.9,10.5-48,34.7-94.6,71.7-149.1,96.1-23.9,10.7-48.6,20.7-73.9,27.4-23.2,6.2-31.6-2.5-33-25.9-.5-8.1-2.9-16.1-3.5-24.2-1.7-21.7-3.5-43.4-3.9-65.1-.1-5.7,3.9-12.4,7.8-17.1,20.5-24.6,28.7-53.7,35.9-84.3,12.3-52-8.9-96.8-28-141.5-10.5-24.6-31.9-25.7-50.4-6.3-8.5,9-14.9,20.5-20.4,31.7-23.5,47.8-18.3,100.1-20.2,150.7-.8,21.8-5.4,37.3-23.4,48-40.7,24.2-81.1,49-122.8,71.4-34.5,18.5-71.2,32.3-111.6,31.9-4.5,0-9.3.2-13.5,1.6-47,15.1-92.3,7-135.1-13.3-31.2-14.8-63-17.7-95.6-12.9-62.2,9.2-124,21.1-186.2,30.3-28.6,4.2-57.9,8.6-86.6-.6-21.6-6.9-42.8-15.1-64.5-21.6-19.4-5.8-30.6.4-32.2,20.6-1.5,19.5-12.4,31.5-24.9,43.7-18.9,18.4-37.6,37-56.5,55.4-11.6,11.3-22.4,23.6-35.3,33.2-46.7,34.8-93.7,69.4-141.5,102.7-61.6,42.9-127.1,78.6-201.1,95.6a140.13,140.13,0,0,1-43.3,3.1c-21.4-1.8-30.8-15.9-30.6-37.4.4-30.5,7-59.5,18.8-87.4,12.7-30.2,27.3-59.7,37.8-90.6,11.5-33.9,33.4-60.3,55.7-86.7,14.6-17.3,31.2-30.3,56.5-26.2,20.3,3.3,38.8-29.2,25.9-47.8-16-23.2-43.5-38.5-70.4-30.4-17,5.1-33.2,14.7-47.9,24.9-28.5,19.9-44.6,51.4-60.3,80.1-30.9,56.3-62.5,113.1-79.5,176.1-3,11.2-5.2,22.7-9,33.6-26.4,75.9,14,151.6,91.4,167,35.9,7.2,72.6,9.9,105.2-14.2,4.1-3.1,10-3.7,15.1-5.5,11.8-4.1,24.2-7.2,35.4-12.6,18.6-9,35.4-21.4,56.9-24.9,9.2-1.5,17.9-8.3,25.8-14.2,18.1-13.5,34.7-29.1,53.3-41.7,34.3-23.3,68.9-45.8,101.3-71.9,20.1-16.3,23.2-14.6,35.4,9.6,16.6,32.9,41.2,55.2,79.6,59.1,36,3.6,69.8,1.1,100.2-22.4,31-24,63.4-45.1,76.7-85.6,9.3-28.5,5.6-55.7.8-83.5-2.9-16.7-.7-22.3,15.9-24.6,23.4-3.2,47.1-4.4,70.7-6.2,9.1-.7,19.7,2.3,27.1-1.4,36.7-18.6,76.6-14,115.2-18.5,23.6-2.7,27.8,3.7,21.7,26.8-9.1,34.4-18,68.8-27.8,103-8.3,28.9-8.7,57.8.3,86.2,8.1,25.6,24.1,44,51.1,52.5,36.9,11.5,68.1-.9,92.3-26,47.1-48.9,67.5-106.8,47.7-175-6.2-21-4.6-24.7,17.4-31.8,30.2-9.8,61.4-16.8,91.4-27.2,52.2-18.2,105.5-34.7,147.6-73.4,8.6-7.8,17.9-12,30.8-9.2,1.2,5.6,2.6,10.7,3.3,15.9,6.6,48.7,13.3,97.3,19.5,146.1,7.6,59.6,14.4,119.4,22.1,179,2.3,18.1,5.8,36.3,20.6,49.4,19.9,17.5,57.7,8.3,58.8-16.2,1.5-33.1,5.7-66.5-5.8-99.9-6.5-19.1-14-41.4-2.9-62.8,37,8.5,72.2,16.9,107.6,24.4,15,3.2,30.5,4.1,45.8,6.2,8.9,1.3,18.2,1.7,26.8,4.2,40.9,11.7,81.8,5.4,122.3-.5,34.8-5.1,69.3-13.5,103.6-22a213.89,213.89,0,0,0,48.3-18.4c21.6-11.4,41.9-25.3,63-37.8,3.6-2.2,8.2-2.4,13.6-3.8,2.2,5.4,4.5,9.2,5.4,13.4,6.1,27.4,10.4,55.4,18.5,82.2,4.1,13.4,14,25.4,22.6,37,8,10.8,21.5,12.5,32.3,8.4,9-3.4,20.4-12.7,21.9-20.9,2.8-15.4,2-32.9-2.7-47.8C3363.5,2047.8,3357.4,2016.4,3356,1984Zm-1501.7,48.1a127.18,127.18,0,0,1-61,43.3c-7.6,2.6-15.6,3.9-18.6,4.6-30-1-37.2-8.9-29.7-32.8,11.2-36,29.9-68.4,57.8-94.2,16.6-15.3,41.4-11,54.7,7.5C1875.8,1985.9,1873.8,2007.2,1854.3,2032.1Zm414.2,37.1a121.21,121.21,0,0,1-26.8,26.7c-12.8,9.1-26.4,2.4-23.4-11.8,8.4-39.3,11.1-80.7,35.6-117.4C2292.4,1995,2285.3,2045.8,2268.5,2069.2ZM1241,1422.2c34.6-9.3,66.8-28.3,99.5-44.2,23.5-11.4,24.4-11.4,42.5,5.5,11.1,10.4,23.5,20.4,37,27.2,42.8,21.4,110.5-10.3,121.2-57,8.7-38.3,14.4-77.2-2.4-115.3a59.26,59.26,0,0,1-4.3-12.9c-3.4-18.8,0-24.2,19.3-27.4,24.3-4,48.8-6.4,73.1-10.4,37.7-6.2,75.2-13.3,112.9-19.6,5.7-.9,11.9.4,21,.8-2.7,10.2-4,18.1-7,25.4-10.1,24.4-20,48.9-31.5,72.7-19.1,39.5-14.4,77.7,4.3,115.5,2.7,5.4,7,10.2,11.3,14.6,25.6,26.2,57,31,91.1,23.1,62.3-14.4,123.3-34,179.2-65.1,74.8-41.4,147.6-86.3,221.4-129.5,3.6-2.1,8.1-2.7,13.5-4.4,1.5,6,4.6,11,3.3,14.4-7.7,20,1.2,38.1,7.1,55.6,9.1,26.8,21.7,52.1,46.9,68.7,43.3,28.4,89.5,34,138.5,18.5,16.5-5.2,32.6-11.9,49.1-17,30.4-9.4,55.1-28.2,79.2-47.4a76.34,76.34,0,0,0,23.2-33.3c14.3-42.3,19.1-85.6.9-128.4-8.2-19.3-16.8-38.5-26-57.3a108.59,108.59,0,0,0-46.2-48.6c-22-12-33.5-2.5-37.2,15.4-4.1,19.8-6.7,41.9,10.4,59.3,6.3,6.5,12.2,13.4,18.2,20.3,28.6,32.7,33,95.4-18.6,121-20.3,10-41.1,20.2-62.7,26.5a196.74,196.74,0,0,1-59.1,7.7c-34.7-.9-46.4-23-36.3-56.1,9.5-31.1,33.4-51.5,50.6-76.7,8.7-12.7,19.9-23.7,29.8-35.6,34.5-41.7,41.1-44.7,16.4-95.7-5.8-12-14.6-17.4-25.8-15.1-11.9,2.5-26,6.2-34,14.4-24,24.5-51.9,42.8-81.5,59.3-15,8.3-29.9,17-44.4,26.4-22.8,14.9-44.9,30.7-67.7,45.5-12.1,7.9-25.1,14.4-37.6,21.8-36.1,21.1-71.5,43.4-108.3,63.2-39.6,21.4-77.9,46-123.1,55.3-4.3.9-8.1,4.1-12.1,6.4a185.46,185.46,0,0,1-77.5,24.1c-20.8,1.7-30.2-5.5-23.6-24.1,9.7-27.2,21-54.7,36.8-78.6,18.4-27.8,42.9-51.5,64-77.7,14-17.5,27.7-34,20.3-60.9-6.4-23.5-31.6-49.4-58-36.8-11.4,5.5-23.2,11.7-35.4,13.8-68.9,11.9-137.8,25.3-207.3,32.9-51,5.6-103,13.1-154.5-4-23.5-7.8-38.2,6.2-38.1,31.4,0,6.3-.4,13,1.3,19,4.6,16.1-2.6,27-11.8,39.5-14.4,19.5-25.8,41.3-38.7,62a110.43,110.43,0,0,1-12.9,17.4c-35.6,37.1-81.9,55.5-128.5,73.8-35.1,13.8-71.3,13.5-107.9,11.3-26.2-1.6-37.2-9.4-46.3-34.4-10.9-30.1-8.7-61-4.2-91.6,3.6-24.3,10.3-48.1,14.9-72.2,6.1-32-5.3-58.6-32.7-74-4.7-2.6-14.1-.9-19,2.3-4.7,3-7.3,10.3-9.2,16.3-16.1,51.1-31.7,102.4-47.8,153.5-3.2,10.3-7,20.8-12.4,30.2-2.3,3.8-9.4,4.9-17.6,8.9-.8-42.6-5.1-80.5,5.8-118.2,5.5-19.1,10.8-38.9,11.6-58.6,1.9-47.3,4.3-95,0-141.9-2.6-28.7-.4-56.7,3.7-83.9,3.5-23.6-3.5-38.7-18.8-53-22.9-21.5-39.8-18.3-47.4,11.6-7.2,28-10,57.2-13.4,86.1-2.2,18.9-2.1,38.1-2.7,57.2-1.2,35.3-2,70.5-3.3,105.8-1,25.4-2.2,50.8-4,76.1-.4,5.1-3.1,10.5-6,14.9-22.9,35-43.1,72.3-69.9,104-43.6,51.4-89.9,101.1-153.4,129.5-25.4,11.4-50.7,25.1-85.2,13.9,3-22,5.6-42.6,8.4-63.4,9.7-62.4,29-120.6,78.5-163.8,13.5-11.8,30.3-19.7,43.8-31.6,9-7.9,20.7-19.7,20.6-29.6-.2-15.5-16.2-22.9-30.9-26.8a75.06,75.06,0,0,0-18.9-2.1c-23.8.1-44.1,9.9-62.5,24.3-36.2,28.4-59.4,66.2-75.3,108.3-12.3,32.2-21.6,65.6-31.4,98.7-12.2,41-9.2,80.7,9.7,119.7,11.3,23.3,28.1,37.3,53.2,42.5,31.4,6.4,61.9,3.5,90.7-10.3,36.1-17.3,75-31,106.5-54.6,34.5-25.8,61.8-61.1,92.3-92.2,4.8-4.9,10.1-9.3,19.3-17.7,2,11.6,4.4,18.3,4.1,24.8-1.2,31.4,3.1,61.6,15.4,90.6,8.9,21,25.2,28.9,46.2,20.6,18.9-7.5,35.8-17.8,43.8-38.4,6.2-16.1,13.4-31.9,20.3-47.7,9.6-22.3,16.2-23.3,31.8-5.5,22.2,25.2,48.2,43.1,81.8,51.4C1158.2,1443.3,1200.3,1433,1241,1422.2Zm232.9-148.6c2,23.6-2.5,40.4-22.6,53.5C1446.7,1303.5,1452.4,1287.2,1473.9,1273.6Zm3335.6,606.5c-11.8-6.1-25.2-13-37.9-13a854.34,854.34,0,0,0-103.6,5.8c-45.1,5.3-89.8,13.4-134.7,20.6-22.9,3.6-25.9,3.3-35.6-15.2-28.2-53.5-61.9-102.1-110.4-139.8-32.2-25.1-71-37.9-108.1-17.8-8.8,4.8-18.3,9-25.9,15.3-28.6,23.7-56.9,47.7-84.6,72.5-25.1,22.4-49.1,45.9-73.7,68.9-30.5,28.5-61,57-91.8,85.1a167,167,0,0,1-26.4,19.3c-16.3,9.7-33.3,18.4-49.8,27.9-36.2,20.7-71.9,42-112.1,54.9-37.2,12-74.1,19.3-112.5,6.8-24.8-8-39.2-26.5-46.4-50-6.3-20.5,7.1-41.2,30.9-51.4,13.3-5.7,27.6-9.4,40.5-16,47.6-24.4,97.2-45.7,132.1-89.4,19.5-24.4,38.3-48.5,36.6-82-.6-8.2-.7-16.5-1.8-24.5-4.8-28.9-32.9-54.7-59.3-55.2-48.4-1-88,21.8-124.2,49.3-45.4,34.6-76.8,81.9-105.5,130.8-16.4,28-21.8,30.2-52.5,21.5-5.2-1.5-10-4.5-15.2-6.1-27.5-8.3-47.8,10-41.5,38.2,6.3,28.6,20.4,50.8,52.6,55,15.7,2.1,23.5,9.9,26.7,26,5.2,25.9,13.6,50.9,29,73.2,26.8,38.8,63.2,63,109.5,69.1,24,3.2,48.9-.1,73.4-.9,8.2-.3,16.8-.2,24.4-2.8,63.9-21.9,123.5-52.6,179.9-89.7,13-8.5,27.1-15.7,38.4-26,32.2-29.3,63.1-59.9,94.7-89.9,34.3-32.6,68.3-65.6,103.5-97.3,20.2-18.2,41.9-34.7,63.8-50.7,10.5-7.7,23.4-10.7,36.3-4.1,18.7,9.6,36.4,20.4,48.7,38.5,15.8,23.3,32.7,45.8,48.7,68.9,13,18.8,13.1,19.5-4.9,32.4-26.7,19.1-55.3,35.5-80.6,56.1-43.8,35.6-64.4,83-60.5,139.8,2.7,38.7,43.8,65.5,80.5,52.6,17.9-6.4,35.5-14.1,52.8-22,64.8-29.8,104-80,118.9-149.8,3.1-14.8,5.8-32.3,22.6-38.1,30-10.5,60.2-23.1,91.3-27.1,41.6-5.3,83.4-8.4,123.5-21.6,16.5-5.5,31.7-13.3,41.6-29C4815.5,1891.9,4816.9,1883.9,4809.5,1880.1Zm-409.4,184.8c-1.4-1.2-2.9-2.4-4.3-3.6,1.9-3,3.2-6.5,5.6-8.8,2.2-2.1,5.6-2.7,11.3-.5ZM1685.4,784.2c33.7,1.4,66.8-4.7,96-23.9,49.4-32.6,87.9-76.3,123.9-122.5,3.8-4.9,7.7-10.6,12.9-13.5,28.6-16,57.5-31.6,86.7-46.5,7.3-3.7,16.1-4.5,29.8-8.2-3.6,17.2-5.5,28.4-8.3,39.5-6.9,26.8,2.9,50.2,21.2,67,18.1,16.8,40.9,19.1,66.2,8,37-16.2,62.1-43.6,84.2-75.4,12.8-18.4,19.3-19.6,37.7-6.6,7.4,5.3,14.6,10.9,22.4,15.5,63.2,37.4,125.2,17.7,186.7-5.1,13.2-4.8,25-14,36.4-22.6,5.4-4.1,9.8-11.1,11.7-17.7,2.8-9.3,2.9-19.4,4.5-31.8-11.1-2.5-20.7-7.3-29.4-5.9-14.2,2.2-28.1,7.5-41.4,13.1-32.2,13.6-66.6,14.7-99.7,11.6-42.6-3.9-56.7-20-52.1-63,1.5-13.5,5.3-26.8,8.1-40.2,5.2-25.5-13.5-57-39-60.2-22-2.8-44-4.7-66.1,7.5-65.5,36.1-132.1,69.9-198.4,104.5-6.4,3.3-13,7-19.9,8.7-16,3.9-23.5-1.7-27.4-17.9-2.1-8.8-4.9-17.4-7.4-26-8.7-29.7-32.8-47.4-53.2-68-17.5-17.6-38.4-24.3-62.3-17.5-18.2,5.1-36.7,9.9-51.5,23.6-10.3,9.7-22.8,17-38.5,28.4-2-10.2-4.1-16.1-3.7-22-.2-31.9-1.1-63.9.4-95.7,2.7-56.4-3.4-113.1,7.4-169.3,1.6-8.6-3.3-19.2-7.1-28-6.6-15.1-21.9-24.4-34.1-21.6-15.3,3.4-18.4,17.4-21.1,29.2-3.8,16.7-5.1,34.2-5.9,51.4-2.5,53.7-4.4,107.4-6.1,161.1-1.9,59.2-1.9,118.6-5.5,177.7-3.3,54.5-11.3,108.7-15.2,163.1-1.3,17.7-.1,37.8,7.3,53.2C1645.5,758.7,1658,783,1685.4,784.2Zm48.7-191c10.8-45.9,25.3-89.7,68-117.1,11.7-7.6,23-13.6,37.9-5.6,10.6,5.7,16.6,12.4,19.1,24.3,7.4,35.1-.9,64.7-23.4,78.1-9.3,5.6-19,10.7-28.8,15.4-19.7,9.3-39.5,18.5-59.5,27.1-3.7,1.6-8.6.2-15.1.2C1733,607,1732.5,599.8,1734.1,593.2Zm893.7,178.5c-18.2-36.6-18.8-76-16.4-114.7,2.8-44.5,11.1-88.5,17-132.8a32.61,32.61,0,0,0,.3-5.4c-3.1-66.7,12.5-132,14.3-198.4,1.6-60.1,3.2-120.2,4.1-180.4.1-9.7-4.1-19.3-5.8-29.1-1.5-8.8-4.3-18.2-2.9-26.7,3.9-23.4,27.4-33,45-17.7,16.4,14.3,30.1,30.6,30.5,55.4.9,56.4,4.9,112.8,5.1,169.2.1,48.1-3.2,96.2-5.3,144.3-1,14.1-1.5,27.7,16.7,38.3,13.2-10.3,27.5-18.9,38.5-30.6,33.6-35.9,65.7-73.1,98.8-109.5,9.1-10.1,18.8-20.1,29.9-27.8,12.7-8.8,21.4-4.2,27,10.5,12,31.3,5.8,58-16.4,83.2-24.7,27.9-47.2,57.8-70.4,87-2,2.5-2.1,6.6-4.1,13.5,10.8,2,20.1,4.9,29.5,5.4,54,2.9,107.2,1.4,159-19.1,15.4-6.1,22.1-13,24.2-28,6.6-47.3,27.4-88.1,60-122.7,26.2-27.9,58.1-33.4,92.4-19,14.8,6.2,24.7,16.8,29.5,30.5,20.2,58.2,11.6,107.3-38.6,150.4-13.7,11.8-30,20.6-45.4,30.3-15.6,9.8-18,17.4-9.8,33.8,13.9,27.7,36.5,41.5,67.3,44.4,55.8,5.3,103.9-13.3,148-45.3,5.2-3.7,9.9-8.2,15.3-11.5,8.8-5.6,19.9-10.8,27.2-1.5,5.4,6.8,8.8,19.1,6.7,27.4-8.9,35.9-31,63.7-62.2,82.6-32.2,19.6-68.4,29.5-105.8,33.9-36.2,4.3-68.2-7.6-98.3-26.6-25-15.7-47.9-33.3-61.6-60.6-3.6-7.3-9.4-13.5-13.4-20.6-6.9-12.4-17.2-15.5-30.1-12.5-18.6,4.4-37,11-55.8,13-44.3,4.6-88.6,10.1-133.3.9-34.7-7.2-70-11.6-105-17.8-24.2-4.3-27.5-2.7-32.6,22.7-3.5,17-5.9,34.1-8.7,51.2-2.3,13.8-2.1,24.5,11.6,35.6,14.9,12.2,11,34.1,8.8,51.7-1.8,14.2-8.5,27.8-13.8,41.4-6.2,15.7-18.8,25.8-35.1,26.4C2647.1,797.1,2635.6,787.5,2627.8,771.7Zm-1941.9-78c15.5-12.4,22.9-11.3,30.5,6.4,7.1,16.6,14.3,33.5,24,48.7,25.5,40.1,58,49,102.1,30,4.1-1.8,9.3-1.5,13.1-3.7,35.3-20.5,57.5-49.7,59.1-91.8,1.4-36.8-18.9-65.8-35.9-95.9-2.9-5.1-5.7-10.3-7.3-13.3,8.5-8.6,18.8-14.3,20.6-21.9,4.4-18.3-15.2-40.9-33.9-44.5-13.2-2.6-27-5.3-38.5-11.7-40-22.3-76.8-9.6-95,33.5-6,14-12.6,28.5-22.1,40.1a907.86,907.86,0,0,1-65.8,72.8c-20,19.8-41,39.2-64.4,54.6-34.2,22.4-70.9,41-106.4,61.3a149.54,149.54,0,0,1-75.5,20.4c-24.3.1-36.4-7.9-45.6-31.3-4-10.2-8.2-20.4-10.8-30.9-5.3-21.2-8.9-42.7-14.3-63.9-7.4-29-15-57.9-23.9-86.5-4.6-14.6-10.7-29.2-18.8-42.2-12.6-20.4-33.4-25.8-56.1-17.8-4.9,1.7-10.3,1.8-19.3,3.2-1.1-18.6-2.5-35.5-3-52.3-.6-28-14.1-45.3-41.2-52-21.8-5.4-41,10.4-36.6,32.5,11,55.3,2.6,110.8,3,166.2.4,43.9-10.5,86.5-17.7,129.6-8.7,52.8-14.4,106.1-20.9,159.3-1.9,15.7,5.9,28.8,17.5,38.1,12.2,9.7,26.2,10.9,40.8,2.8,17.5-9.7,31.2-22.4,36.8-42,9.4-33.3,17.7-66.8,27.8-99.8,9.6-31.7,7.2-64.9,13.5-96.9,2.1-10.8,1.9-23.4,16-31.2,5.8,11,11.8,20.1,15.5,30.2,9.4,25.4,17.9,51.3,26.7,77,9.3,27.2,29,46.2,50.9,62.9,9.2,7.1,20.3,15.6,31,16.3,38.1,2.5,77.2,3,111.9-15.8,39-20.9,81.3-35.6,115.8-65.2C620.4,742.5,654.1,719.3,685.9,693.7ZM797,596.8c37.5,15.7,57.1,63.3,38.1,96.3-4.8,8.5-15.3,15-24.6,19.1-4.4,1.9-14.6-2.3-18.2-6.8C776.1,685.2,779.7,619.3,797,596.8Zm295.6-59a45.77,45.77,0,0,1,23.5-16.5c32.3-8.8,65-15.9,97.7-23.2,7.9-1.7,16.3-1.5,24.5-1.9,4.5-.3,10,1.5,13.5-.5,27.7-15.6,58.4-10.5,87.9-13.3,19.6-1.8,24.1,3.8,18.3,23.3-1.8,6.1-3.1,12.2-5.6,21.8-48.2,14.6-96.1,29-143.8,43.7-19.1,5.9-38,12.5-57,18.8-4.3,1.4-8.7,2.6-13.1,4.1-13.7,4.6-27.5,4.6-38.6-4.8C1089.3,580.3,1084.5,549.2,1092.6,537.8ZM3400.3,1682.3c.6,3.7-4.6,9.8-8.7,12.5-5.9,4-13.2,5.8-20.3,8.7-25.2-9.9-29-31.6-34.6-51.6-2.9-10.5,7.6-26.5,18.1-30.7,11-4.4,18.7.6,26.4,8.5C3395.8,1644.5,3397.2,1663.8,3400.3,1682.3Z" transform="translate(-85.02 -59.09)" fill="#231f20"/></svg>