<?xml version="1.0" encoding="utf-8"?>
<!-- Generator: Adobe Illustrator 21.1.0, SVG Export Plug-In . SVG Version: 6.00 Build 0)  -->
<svg version="1.1" id="Layer_1" xmlns="http://www.w3.org/2000/svg" xmlns:xlink="http://www.w3.org/1999/xlink" x="0px" y="0px"
	 viewBox="0 0 4685 2545.6" style="enable-background:new 0 0 4685 2545.6;" xml:space="preserve">
<style type="text/css">
	.st0{fill:#FFFFFF;}
</style>
<title>breadpudding</title>
<path d="M601.3,1250.6c16.7,10.7,19.3,24.1,14.8,40.4c-9.6,34.6-21.3,68.9-27.7,104.1c-7.6,41.9-10.6,84.6-15.7,127
	c2.2,0.7,4.5,1.4,6.7,2.1c6.7-13.9,13.2-28,20.2-41.8c15.4-30.3,30.9-60.6,46.6-90.8c2.3-4.4,5.7-8.3,8.8-12.2
	c11.1-14,25.8-20.7,35.6-15.1c14.1,8.1,12.6,21.7,9.7,34.7c-5.5,24.4-12.6,48.5-17.6,73c-11.5,56.1-17.6,112.7-11.1,170
	c1.2,10.3,5.1,20.3,8.7,34c12.2-6.7,22.2-9.9,29-16.4c43.4-41.9,84.7-85.6,113.6-139.4c9.4-17.4,17.6-34.2-1.6-51.3
	c-7.8-6.9-6.6-17.2,0.4-24.4c9.7-9.8,19.3-21.7,31.4-26.7c41.5-17.1,83.5-33.2,129-37.9c37.7-4,75-11.3,112.6-16.3
	c10.8-1.4,22.1-0.6,33,0.4c42.6,4.1,63.7,34.4,47.5,74c-14.3,35.1-34.9,67.6-52.2,101.5c-15.4,30.3-30.4,60.9-45.1,91.5
	c-3,6.2-5,13.3-5.7,20.2c-1.3,11.5,5.7,17.6,16.6,13.4c13-5,26.1-10.7,37.3-18.8c39.8-28.6,79-58.1,118-87.7
	c51.9-39.3,101.5-81.9,160-111.8c6-3.1,11.9-7.9,15.8-13.4c21.3-29.6,37.6-35.9,70.1-20.4c21.5,10.3,43.2,15.6,66.6,15.2
	c70.1-1.1,140.4,0.3,208.1-22.6c4.7-1.6,9.6-2.8,14.4-4.4c30.8-9.9,49.8-27.9,55.6-62.6c5.5-32.2,18.8-63.2,29.3-94.5
	c2.5-7.5,7-14.4,11.3-21.2c6-9.4,15.9-14.8,25.7-10.1c6.8,3.2,11.6,12,15.8,19.3c2.2,3.9,2.1,9.9,1.3,14.7
	c-6.3,38.4-12.8,76.8-19.7,115.1c-2.4,13.1-7.9,24.4-20.3,31.9c-13.4,8.1-22.6,20-25.1,35.9c-9.6,61.3-20,122.5-27.8,184.1
	c-2.2,17.3,1.8,36.1,6.3,53.3c6.9,26.3,21.6,34.1,47.7,26.2c16.2-4.9,31.3-13.4,46.8-20.4c13.7-6.2,27.2-12.9,41.1-18.7
	c16.6-7,28.6-17.7,33.4-35.8c15.1-57.2,50.3-102.3,90.2-143.5c27.6-28.5,65.2-39.2,103.7-42.3c15.4-1.2,32.9,4,41.8,19.4
	c9.7,17,2.6,33.2-7.7,47.6c-5.8,8.1-12.7,15.6-19.7,22.7c-16.6,17-21.2,38.9-22.3,60.8c-1.4,27.4,23.1,48.5,51.3,46.4
	c37.4-2.8,69.1-19.7,97-43.5c5.4-4.6,9.1-13.6,9.9-20.9c8.8-82.4,34.2-160.5,60.5-238.5c1.2-3.6,1-7.6,1.6-13.1
	c-30.8-7.5-60.4-2-90-0.2c-9.8,0.6-20.4,1.4-29.4-1.6c-6.5-2.2-15.3-10.7-15.1-16.1c0.2-7.3,6.8-15.9,13-21.2c4.8-4,13.2-5.1,20-5.1
	c35-0.3,70.1-0.7,105,1c12.8,0.6,21.3-2.3,28-12.4c7.2-10.9,13.4-22.6,21.7-32.5c6.1-7.3,14.2-14.7,22.8-17.8
	c17-6.1,28.9,2.7,32.1,20.7c0.5,3,1,6,0.9,9c-1.9,38.9,9.4,35.2,38.7,36.7c46,2.3,92.1,3.8,137.9,8c34.6,3.2,68.9,9.9,103.3,15.4
	c3.2,0.5,5.9,4.1,15.4,11c-20.5,0.8-34,2-47.4,1.9c-77.1-0.7-154.2-1.7-231.4-2.3c-6.7,0-13.4,2.5-18.5,3.6
	c-11.1,44.6-19.7,87.9-32.8,129.8c-16.7,53-41.8,102.2-80.9,142.7c-12.4,12.9-16.5,26.5-13.2,43.7c4.6,23.9,11.1,46.6,26.6,66.3
	c11.2,14.3,25.4,21.5,42,17c24-6.6,47.3-15.9,70.3-25.2c12.2-5,16.2-15.5,16.7-29.2c2.2-57.1,21.5-108.5,61.3-149.6
	c19.2-19.8,43.6-34.8,66.8-50.3c12.1-8.1,27.3-9,40.1-0.7c13.7,8.9,13.2,23,10.8,37.8c-7.7,47-31.4,86.5-59,123.6
	c-14.3,19.2-31.6,36.2-48.3,53.5c-16.1,16.7-16.7,27.2,0.4,42.5c14.4,12.8,31.9,16.2,50.5,14.2c47.6-5.2,89.9-20.4,117.9-62.6
	c1.5-2.3,4.4-3.7,6.5-5.3c12.2,2.7,10.2,11.7,9,19.2c-4.3,26.3-19,47.3-40.7,60.8c-48,29.9-99.6,43.7-154,18.7
	c-17.6-8.1-32.2-22.9-49.5-35.7c-17.4,7.4-36.3,16.1-55.7,23.7c-63.1,24.7-130.9,1.8-148.3-75.5c-2.1-9.5-5.2-18.7-9-32.3
	c-13.7,6.6-24.9,12.1-36.2,17.3c-32.3,15-65.6,28.2-101.3,16.3c-18.5-6.1-35-18.4-54.6-29.2c-13.2,14.2-26.9,31.6-43.3,45.7
	c-14.1,12.2-30.2,24.1-47.5,30c-23.1,7.9-45.7,2.8-60.4-20.4c-2-3.2-5.2-5.7-9.3-10.1c-24.6,12-48.4,24.5-72.9,35.4
	c-21.8,9.7-43.5,19.2-69,16.9c-27.9-2.4-44.6-16.8-52.7-41.8c-10.6-32.7-15-66.6-10.1-100.9c5.8-40.7,13.1-81.1,19.5-121.7
	c2-12.7,3-25.5,5.1-43.8c-86.4,24.6-171.3,32.9-257.4,36.6c5.4,25.2,10.8,47.2,14.7,69.4c5.9,33.8-7.5,61.5-31.9,83.2
	c-24.7,21.9-50.7,42.5-77.9,61.3c-22.6,15.6-49.1,22.9-77,21.2c-44.5-2.6-69.8-31.1-60-74.5c7.6-33.7,23.6-65.6,36-98.2
	c1.2-3.2,3.7-6,1.8-12.7c-36,28.2-71.5,56.9-108,84.5c-43.1,32.6-86.7,64.6-130.6,96.1c-15.8,11.3-34,16.8-54.1,14.1
	c-26.9-3.6-38.6-17.6-37.8-44.5c0.9-32.2,15.2-60.3,28.9-87.9c16.9-34.1,37.2-66.4,55.3-99.9c8-14.9,15.1-30.4,20.6-46.3
	c6.9-19.9,1.9-27.9-19.1-30.7c-15.8-2.1-32.1-3.5-47.9-2c-57.1,5.6-112.8,18.2-166.3,39.4c-4.6,1.8-9.3,3.7-13.4,6.4
	c-4.1,2.7-7.4,6.5-11.1,9.9c14.7,35.5,28.4,70.7,43.6,105.1c14,31.5,21.3,61.9,4.2,95.1c-13.8,26.7-51.4,46.9-80.3,40.4
	c-19.6-4.4-32.4-15-35-35.9c-1.2-9.6-2.9-19.1-5.2-33.5c-22.6,22.9-42.8,41.8-61.2,62.4c-13.5,15.2-30.3,23.1-49,27.4
	c-30.3,7-52.6-6.1-57.7-36.9c-4.6-27.5-5.8-55.8-5.5-83.7c0.3-28.8,4.4-57.6,6.9-87.7c-11.3,2.9-12.9,13-16.2,21.2
	c-23.4,57.8-40.4,117.5-52.7,178.6c-4.3,21.6-8.5,43.3-14.2,64.6c-1.9,7.2-6.6,16.4-12.5,19c-8.4,3.7-21.5,5.9-28.2,1.7
	c-5.9-3.7-8.9-17.4-7.8-26c4.7-34.6,12.2-68.8,17.3-103.4c6.8-46.5,12.5-93.2,18.1-139.9c0.6-5.2-1.8-10.7-8.1-17.2
	c-5.1,9.2-10.9,18.1-15.2,27.7c-22.5,49.7-52.6,94.6-86.5,137c-28.7,36-57.5,72.2-89.8,105c-30.9,31.5-70.1,50.2-115.8,49.5
	c-52.6-0.9-85.5-32.9-87.9-86.2c-0.8-17.9-0.2-36.7,4.5-53.8c9.9-35.7,20.8-71.3,35.2-105.3c14.4-33.9,33.2-66,50.7-98.5
	c22.5-41.8,51.9-78.8,88-109.3c17.1-14.5,38.5-25.5,59.7-33.4c36.6-13.6,67.3,5.8,77.1,43.8c9.9,38.7,6.6,77.7,5,116.7
	c-0.8,19-3.3,37.8-4.9,56.8c-1.4,16.9-7.6,24.2-20.5,23.9c-14.4-0.4-23.7-9.8-22.3-25.8c2-22.9,7.7-45.7,8.4-68.6
	c0.9-27.8,1.3-56.2-3.5-83.4c-4.7-26.6-23-33.5-47.6-22c-10.7,5-20.6,12.3-29.8,19.8c-57,46.2-92,108.2-119.6,174.3
	c-15.3,36.8-25.2,75.9-36.9,114.2c-2.6,8.5-3.1,17.8-3.1,26.8c-0.4,55.7,41.4,82.6,91.6,58.1c30.7-15,59.6-33.2,81.7-60.3
	c21.5-26.4,44.6-51.7,64.4-79.3c53.5-74.4,96.3-155,128.8-240.5c11.3-29.6,17.6-61.8,20.9-93.4
	C565.2,1276.1,574.6,1259.1,601.3,1250.6z M1531.4,1541.5c-7.7-18.7-13.1-37.1-22.5-53.1c-18.5-31.3-38.7-33.8-65.2-8.2
	c-38.8,37.5-65.3,83-79.6,135.1c-9.6,35.1,8.7,52.6,43.3,42.5c42.7-12.5,77.2-37.7,104.1-72.3
	C1520.9,1573.7,1524.6,1557.2,1531.4,1541.5z M2394,1517.6c41.5-37.6,83.5-159.2,75-207.5c-2.8,0.4-7.2-0.1-8.2,1.5
	c-8.2,13.6-18.6,26.6-23.1,41.5C2421.8,1405.2,2403,1456.8,2394,1517.6z M2154.4,1484.3c-48.3,19.8-95.8,77.4-98,119.8
	c22.1-17,41.2-32.8,61.4-46.9C2142.2,1540.1,2149,1515.2,2154.4,1484.3z M2592.2,1632.2c43.1-35.7,69.7-78.3,85.8-132.8
	C2628.5,1521,2588.4,1583.6,2592.2,1632.2z M864.3,1546.5c-17.8,37-19.8,69.2-12.6,102.9c21.5,1.1,29-10.6,29.7-25.6
	C882.5,1599.1,880.5,1574.5,864.3,1546.5z M2041.3,1665.6c21.7,10.6,49.1-9.8,66.9-49.7c-22.1,15-42.4,28.8-62.7,42.7
	C2044.2,1659.6,2043.6,1661.8,2041.3,1665.6z"/>
<path d="M1590.9,929.2c25.9,2.3,44.1-0.7,62.2-7.7c70.4-27.2,121-77.2,159.4-140.4c13-21.4,24.8-44.6,6.4-69.8
	c12.2-17.4,27.7-11.3,41-6.8c14.8,5,12.9,19.5,10.8,31.1c-7.8,41.7-29.7,76.5-57.7,107.2c-46.5,50.8-98.6,94.1-164.8,117.7
	c-2.5,0.9-4.2,3.7-9.1,8.3c8.8,3.6,15.2,7.7,22.2,9c65,11.8,129.8,9.3,194.2-4.3c31.4-6.6,62.5-14.4,93.6-22.1
	c9.6-2.4,18.7-6.2,28.1-9.4c0.4-5.9,1.3-9.9,0.9-13.8c-6.4-62.9,23-115.5,80-144.4c23.8-12.1,48.3-19.7,75.1-14.7
	c34,6.3,49.1,34.1,38.9,67.1c-9.4,30.3-28.8,52.4-53,71.1c-17.3,13.3-35.2,25.9-57.2,42.1c11.5,4.1,19.1,7.7,27,9.4
	c51.2,10.9,101.7,2.8,152.2-6.4c57.6-10.5,113.5-25.4,164.1-56c14.4-8.7,27.9-19,41.5-28.4c12.1,6.1,12,15.8,5.7,22.9
	c-12.4,14.1-25.3,28.6-40.8,38.9c-38,25.2-81.2,39.4-124.9,50.6c-55.4,14.2-111.5,24.9-169.4,21.9c-34.4-1.8-68.2-5-97.9-24.7
	c-11.5-7.6-22.5-4.9-34.4-0.9c-64.9,21.9-131.6,35.9-199.6,42.7c-65.4,6.5-130.3,4.8-192-22.3c-1.7-0.7-3.9-0.1-7.9-0.1
	c-9.1,11.4-5.6,25.3-5.7,39c-0.1,19.9-1.2,39.9-3,59.7c-0.6,6.7-3.5,13.9-7.4,19.4c-7.4,10.4-19.6,12.3-29.4,6.6
	c-6.1-3.6-11.8-14.2-11.5-21.3c1.1-22.9,5.2-45.7,7.8-68.6c1.8-15.7,3-31.4,5-52.8c-11.1,7.6-17.7,11.4-23.4,16.2
	c-22.5,18.7-47,33.4-74.5,43.9c-59.9,22.6-105.5,4.5-132.7-54.1c-1.6-3.5-4.2-6.5-8.9-13.6c-10.4,13-19.5,24.1-28.3,35.4
	c-13.5,17.4-25.5,36.3-40.7,52c-10,10.3-23.6,19.5-37.3,23.2c-25.8,7.1-42.5-11.7-31.3-36c13.4-29,29.9-56.7,47-83.7
	c21.4-33.9,44.8-66.4,67.2-99.7c1.6-2.4,2.1-5.5,4.2-11.6c-8.4,2.3-14.8,3.5-20.7,5.9c-27,10.8-53.6,22.5-80.8,32.8
	c-20.1,7.6-32.2,20.4-40.9,40.5c-23.8,54.4-53.9,105.2-93.4,150c-20.1,22.8-42.8,42.3-71.8,53.3c-23.3,8.9-41,4-55.5-15.5
	c-8.2-11-16.6-22-23.6-33.8c-2.7-4.6-3-11.5-2.1-17c10.7-67.2,21.3-134.5,33.4-201.5c3.2-17.5,12.8-33.8,16.9-51.2
	c8.2-35,15.4-70.2,21.6-105.6c5.7-32.6,9.3-65.5,14.5-98.2c1.2-7.8,3.9-15.8,7.8-22.6c5.2-9.1,13.6-16,24.8-11
	c9.9,4.4,9.8,14,7.9,23.5c-6.9,33.3-14,66.6-20.2,100.1c-2.3,12.4-2.3,25.2-3.4,38.8c112.7-23.6,170.3,19.4,172.5,117.2
	c5.9-1.1,11.9-1.3,17.1-3.4c38.1-15.5,76.1-31,113.8-47.4c8.8-3.8,19.4-9.3,23.3-17.1c8-15.6,19.3-21.2,35.6-23
	c11.8-1.3,23.1-7.3,34.9-8.2c8.8-0.6,18,3.7,27,5.8c-3,8.9-4.9,18.5-9.6,26.5c-2.6,4.5-9.5,6.9-14.9,9.2
	c-19.8,8.5-31.4,23-37.9,43.7c-11.8,37.7-22.7,74.9-9.7,114.5c14.7,45,45,60.6,88.8,42.5c43.5-18,79.4-47.6,106.4-85.7
	c9.7-13.7,10.9-33.8,14.6-51.3c13.7-65.7,26-131.6,40.7-197.1c4.8-21.3,14.1-41.8,23.1-61.9c3.9-8.6,10.9-17.3,18.8-22.2
	c13.2-8.2,31.7,2.6,29.6,17.4c-11.6,81.1-12.9,164.2-45.9,241.2c-7.5,17.5-16.1,34.5-23.2,52.2
	C1597.8,903,1595.3,914.4,1590.9,929.2z M953.4,982.1c1.7,0.5,3.4,1,5.1,1.5c10.6-8.9,20.3-19.2,31.9-26.4
	c34.7-21.7,69.5-43.6,105.6-62.8c20.3-10.8,30.9-24,29-46.9c-0.6-7-0.3-14.1-1.4-21c-5.8-37.1-34.3-63.2-68.9-63.7
	c-36.6-0.5-61.1,19.3-69.3,58c-7.5,35.2-13.6,70.8-20.5,106.1C961.3,945.3,957.3,963.7,953.4,982.1z M1102.4,933.7
	c-1.5-2.2-3-4.3-4.5-6.5c-17.3,9.1-35.3,17.2-51.8,27.5c-41.4,25.9-78.4,56.7-93.5,105.4c-3.1,10-2.2,25.9,3.9,33.1
	c8.6,10.1,22.2,3.6,32.4-4.1c4.8-3.6,9.6-7.2,14.2-11.1C1048.9,1038.6,1077.3,987.3,1102.4,933.7z M2025.8,919.4
	c13.9-6.2,27.4-10,38.5-17.5c26.5-17.8,52.9-36.5,66.5-67c3.1-7.1,4-19.2,0-24.3c-4.2-5.4-15.5-6.1-23.9-7
	c-4.5-0.5-9.7,2.2-14.2,4.2c-25.4,11.3-45.5,29.2-60.7,51.9C2020.8,876.6,2016.7,895.8,2025.8,919.4z"/>
<path d="M3338.7,1502.6c4.9,10.4,7.6,18.9,12.4,26.1c29.8,44.3,43.2,92.9,47,146.2c3.5,49.3-56.4,122-98.2,132.4
	c-35.3,8.8-59.9-8.4-61.2-44.2c-0.4-12.8-0.1-25.7-0.1-42.1c-8.3,4.3-14.3,6.8-19.8,10.2c-38.8,24.6-77.3,49.8-116.5,73.8
	c-8.2,5-19.1,8.4-28.6,8c-47.4-2.2-66.9-15.4-69-61.1c-2.1-43,2.9-85.8,18.1-127.1c12.8-34.8,23.3-70.4,35.2-105.4
	c21.8-63.9,51.4-124,90.6-178.8c12.5-17.5,29.5-33.3,47.5-45.1c26.3-17.2,55.2-4.1,57.3,26.9c2.3,34.6-1,69.7-3.9,104.4
	c-1.5,17.8-7.3,35.3-11.4,52.8c-3.4,14.6-13.2,19-27.2,16.3c-16.4-3.1-22.8-14.6-12.9-31.9c15.3-26.5,16.7-55.4,20.5-84.1
	c1.9-14.6,3.7-29.9-6.8-48.2c-9.3,7.8-18.3,13.3-24.6,21c-41.5,51-72.6,108.1-94.7,169.9c-22.3,62.3-43.4,125-49.5,191.6
	c-0.4,4-1.3,8-1.4,12c-1.3,38.3,17.5,53.2,52.2,37.5c29.9-13.5,59.9-28.9,85.6-48.9c50.5-39.4,100.5-80.2,129-140.5
	c12-25.3,12.7-28.1-6.4-46.5c-2.9-2.8-6-5.3-8.7-8.3c-14.8-16.6-14.1-28.5,4.3-43.1c18.6-14.8,41.2-22.3,64.2-22.9
	c53.5-1.3,105.9,3.1,150.4,39.7c10.7,8.8,27.5,14.9,41.3,14.5c68-1.6,132.9-15.8,190-56c17.1-12.1,28.8-27.5,36.7-46.5
	c10-24.1,19.5-48.3,29.9-72.3c5.4-12.5,13.2-22.6,29.5-20.3c17.9,2.4,27.7,14.1,21.2,31.2c-9.6,25.1-20.7,50.1-34.2,73.3
	c-29.3,50.3-37.3,106.6-55.2,166.5c10.8-4.4,15.2-5.8,19.2-7.9c51.3-27.1,102.2-54.9,154-81.1c8.8-4.5,21.1-4.1,31.4-2.7
	c5.1,0.7,12.2,8.4,12.9,13.6c0.7,5.4-3.8,14.2-8.7,17.1c-11,6.6-23.8,10.2-35.7,15.5c-39.2,17.7-81.1,31.3-113.1,61.3
	c-21,19.7-39.6,42.3-56.6,65.5c-26.2,35.9,6.3,72,37.1,75.7c16.6,2,34.5,1.5,50.6-2.6c53.8-13.6,104-36.3,149.7-67.9
	c32.5-22.5,53.6-53.6,63.9-91.9c1.3-4.8,1.7-10,3.6-14.6c5.4-13,17.6-18.2,32.2-14.3c13.2,3.5,19.8,12.3,15.2,27.7
	c-6.3,21-16.5,40.7-24.4,61.2c-11.9,30.8-23.8,61.6-34.6,92.9c-6.5,18.9-12,38.1-6.9,58.9c1.5,6-1.1,14-4.3,19.7
	c-5.3,9.7-11.9,19.6-25.9,14.8c-12.1-4.2-22.1-11.1-22-25.3c0-8.8,2-17.8,4-26.5c4.6-19.2,9.7-38.3,15.6-61.4
	c-35.3,16.6-66,32.5-97.8,45.5c-26.8,11-54.4,22-82.7,26.7c-40.8,6.7-80-1-111.1-32.9c-13.7,11.2-9.5,24.9-11.4,37.1
	c-3.3,21.6-6.6,43.4-12.4,64.4c-4.4,15.7-13.9,19.6-27.3,15.9c-14.3-3.9-20.3-13.4-16.4-29.9c21.1-88.7,42.8-177.2,63.7-265.8
	c5.6-23.8,12.7-47.4,14.3-73c-52.5,17.2-101.5,33.3-153.9,50.5c4.6,14.4,8.5,29.4,14.2,43.9c15.1,38.8,12.5,77.3-4.8,113.8
	c-17.8,37.4-41.6,71-78.5,92.9c-5.2,3-10.3,6.3-15.7,8.6c-15.8,6.8-32.2,6.9-45.5-4.2c-13.6-11.4-9.6-27.7-5.4-42.1
	c9.8-33.7,20.9-67,31.2-100.6c10.2-33.2,12.2-67,6.8-101.2c-6-37.8-24.2-56.2-61.2-64.5c-23.8-5.3-47.5-7.8-71.4-2.4
	C3356,1495.7,3348.9,1499,3338.7,1502.6z M3288.1,1762.5c60.1-20.3,87.2-94.4,55.4-147C3300.1,1658.9,3273.9,1726.7,3288.1,1762.5z
	 M3508.8,1753.8c10.7-6.1,17.2-7.7,20-11.8c12.6-18.9,26-37.7,35.7-58.2c16.6-35.2,9.4-70.2-7.2-103.6c-2.5-4.9-8.7-8-12.4-11.2
	c-4.5,31.5-7.4,61.2-13.1,90.3C3526,1689.1,3517.5,1718.4,3508.8,1753.8z"/>
<path d="M116.3,820.7c13.2-23.4,25.9-47.1,39.8-70.1c5-8.3,11.6-16.9,19.7-21.8c17.6-10.7,32.2-2.9,33.1,17.8
	c0.9,20-1.1,40-1.4,60.1c-0.9,53-2.3,106-1.8,159c0.2,16.7,4.1,33.9,9.3,49.9c8.6,26.4,23.8,31.4,44.7,13.7
	c25.2-21.3,50.2-43.4,71.3-68.6c55.3-66.1,108.5-133.9,162.2-201.3c5.4-6.8,8.6-15.6,12.2-23.7c8.3-18.5,28.1-23.8,43.6-10.1
	c8.9,7.8,16.7,17.4,23.1,27.4c21.6,33.8,42.8,67.9,51.3,107.6c35.4-6.1,69.3-14.2,103.6-17c33.2-2.7,68.3-13.2,99.8,5.5
	c0.3,2.9,0.6,5.8,0.9,8.6c-13.7,3.8-27.2,8.9-41.1,11.1c-40.6,6.3-80.5,13.9-118,32c-9,4.4-20.8,2.9-34.2,4.4
	c-0.6,6.1-2.6,13.8-1.9,21.2c2.5,27.9-4.4,53.8-17.1,78c-9.3,17.7-21,34.1-31.9,51c-14,21.6-35.4,32.3-59.4,37.8
	c-23.4,5.3-46.4-6.7-60.1-30.4c-14.5-25.2-18.7-53.2-16.6-81.3c2.2-29.8,8.1-59.3,12.8-88.9c2.1-13.5,5.2-26.9,7.8-40.4
	c-1.8-1-3.6-2-5.3-3c-6.5,6.9-13.4,13.6-19.4,20.9c-46.6,56.3-92,113.7-140.2,168.6c-13.9,15.8-34.4,28.1-54.2,36.1
	c-34.7,14.1-58.7,0.6-68.6-35.3c-16.6-60.8-14-123-11.2-185.1c0.7-14.6,0.1-29.3,0.1-50.7c-7.5,9.9-12,14.5-14.8,19.9
	c-28.2,54.7-47.2,112.5-59.1,172.8c-6.6,33.4-13.9,66.6-21.8,99.7c-1.8,7.5-6.3,14.8-11.3,20.9c-7.5,9.3-17.9,13.4-29.5,7.8
	c-10.8-5.2-7.5-14.6-5.9-23.6c12.2-68.9,24.8-137.8,36-206.9c9.9-61.2,18.2-122.6,26.7-184.1c2.4-17.1,10-30.7,19.2-30.6
	c10,0.1,14.4,11.8,12.2,32.4c-3.8,35.7-7.7,71.5-11.6,107.2C111.8,819.6,114.1,820.1,116.3,820.7z M539.6,774.1
	c-7,8.6-10.3,11.2-11.7,14.7c-26.5,63.2-46.7,127.9-42.8,197.5c0.8,14.8,3.8,30.1,9.4,43.7c10.9,26.3,31.7,30.4,51.8,10.4
	c26.9-26.6,44.5-57.4,47.9-97c4.2-49.1-12.2-92.5-30-135.9C559.6,796.3,549.6,787.4,539.6,774.1z"/>
<path d="M4180.1,1722.7c10.3,29.6,31.6,36.8,55.7,37.7c63.3,2.4,123.4-13.1,181-37.6c52.4-22.3,103.1-48.9,155.8-70.4
	c17.4-7.1,39.1-7.5,58.3-5.4c20.1,2.2,26,12.7,28.4,33.2c3.8,31.9-10,59.1-25.2,84.9c-25.7,43.3-61.6,76.7-107.9,97
	c-15.1,6.6-32.6,10-49.2,10.5c-24.2,0.7-36.3-13.1-30.9-36.4c5.1-22.1,15-43.2,23.9-64.2c4.5-10.5,11.5-19.9,21-35.8
	c-14.3,4.9-21.9,6.5-28.6,9.9c-57.9,29.3-119.9,45.1-183.7,54.1c-43.8,6.2-85.8,2.8-121.8-28.3c-23.9-20.6-26.6-50.8-38.5-76.7
	c-1.3-2.9,0.4-8.1,2.2-11.4c20.5-36.5,39.4-74.2,62.5-108.9c16.4-24.7,38.2-46,58.6-67.9c8.1-8.6,18.3-15.7,28.5-21.8
	c50.2-30.1,100.6-3.9,106.3,54.8c5.2,53.5-19.4,92.8-60.4,123.1c-34.3,25.3-74.2,39.2-114.6,51.5
	C4194.8,1716.3,4188.6,1719.3,4180.1,1722.7z M4180.4,1673c55.9-12.4,102.5-27.8,136.9-68c14.4-16.9,18.9-37.5,17.4-59.1
	c-2.2-31.9-14.9-38.9-42.6-23.9c-6.1,3.3-12,7.2-17.5,11.5c-37.5,29.9-63.8,68.8-86.5,110.3
	C4184.3,1650.5,4183.9,1658.9,4180.4,1673z M4612.3,1692.3c-51.7,12.9-114.8,89-110.2,130.9
	C4556.5,1811.1,4611.3,1747.2,4612.3,1692.3z"/>
<path d="M4078.2,1435c14.3-8.2,25.9-12.9,35.7,0.7c5.8,8,1.5,23.6-6.8,25.2C4089,1464.3,4084.1,1450.8,4078.2,1435z"/>
<path class="st0" d="M1531.4,1541.5c-6.8,15.7-10.5,32.1-19.8,44.1c-26.9,34.6-61.4,59.8-104.1,72.3c-34.6,10.1-52.9-7.5-43.3-42.5
	c14.3-52.1,40.7-97.6,79.6-135.1c26.5-25.6,46.7-23.1,65.2,8.2C1518.3,1504.4,1523.6,1522.9,1531.4,1541.5z"/>
<path class="st0" d="M2394,1517.6c9-60.8,27.8-112.4,43.7-164.6c4.5-14.8,14.9-27.9,23.1-41.5c1-1.6,5.4-1,8.2-1.5
	C2477.5,1358.4,2435.5,1480,2394,1517.6z"/>
<path class="st0" d="M2154.4,1484.3c-5.4,30.9-12.2,55.8-36.6,72.9c-20.2,14.1-39.3,29.9-61.4,46.9
	C2058.6,1561.7,2106.2,1504.1,2154.4,1484.3z"/>
<path class="st0" d="M2592.2,1632.2c-3.8-48.6,36.3-111.2,85.8-132.8C2661.8,1553.9,2635.3,1596.5,2592.2,1632.2z"/>
<path class="st0" d="M864.3,1546.5c16.1,28,18.2,52.6,17.1,77.3c-0.7,15-8.1,26.6-29.7,25.6C844.5,1615.7,846.6,1583.4,864.3,1546.5
	z"/>
<path class="st0" d="M2041.3,1665.6c2.3-3.8,2.8-6,4.3-7c20.2-13.9,40.6-27.7,62.7-42.7C2090.4,1655.8,2063,1676.2,2041.3,1665.6z"
	/>
<path class="st0" d="M953.4,982.1c3.8-18.4,7.9-36.8,11.5-55.2c6.9-35.4,13-70.9,20.5-106.1c8.2-38.6,32.8-58.5,69.3-58
	c34.7,0.5,63.1,26.6,68.9,63.7c1.1,6.9,0.8,14,1.4,21c1.9,22.9-8.7,36.2-29,46.9c-36.1,19.2-70.9,41.1-105.6,62.8
	c-11.6,7.3-21.3,17.5-31.9,26.4C956.8,983.1,955.1,982.6,953.4,982.1z"/>
<path class="st0" d="M1102.4,933.7c-25.1,53.6-53.4,105-99.4,144.4c-4.6,3.9-9.4,7.5-14.2,11.1c-10.2,7.7-23.8,14.2-32.4,4.1
	c-6.1-7.2-7-23.1-3.9-33.1c15.2-48.8,52.1-79.5,93.5-105.4c16.5-10.4,34.5-18.4,51.8-27.5C1099.4,929.3,1100.9,931.5,1102.4,933.7z"
	/>
<path class="st0" d="M2025.8,919.4c-9.1-23.6-5-42.8,6.3-59.7c15.2-22.7,35.3-40.7,60.7-51.9c4.5-2,9.7-4.7,14.2-4.2
	c8.4,1,19.6,1.7,23.9,7c4,5.1,3.1,17.2,0,24.3c-13.5,30.5-40,49.2-66.5,67C2053.3,909.4,2039.7,913.3,2025.8,919.4z"/>
<path class="st0" d="M3288.1,1762.5c-14.2-35.8,12-103.6,55.4-147C3375.3,1668.1,3348.2,1742.2,3288.1,1762.5z"/>
<path class="st0" d="M3508.8,1753.8c8.7-35.4,17.2-64.7,23-94.5c5.7-29.1,8.7-58.8,13.1-90.3c3.7,3.2,10,6.3,12.4,11.2
	c16.6,33.4,23.8,68.4,7.2,103.6c-9.7,20.5-23.1,39.2-35.7,58.2C3526,1746.1,3519.4,1747.7,3508.8,1753.8z"/>
<path class="st0" d="M539.6,774.1c10,13.3,20,22.2,24.6,33.4c17.8,43.4,34.2,86.8,30,135.9c-3.4,39.7-21,70.4-47.9,97
	c-20.1,19.9-41,15.8-51.8-10.4c-5.6-13.6-8.6-29-9.4-43.7c-3.8-69.6,16.3-134.3,42.8-197.5C529.4,785.3,532.7,782.7,539.6,774.1z"/>
<path class="st0" d="M4180.4,1673c3.6-14.2,4-22.6,7.6-29.2c22.7-41.5,49.1-80.3,86.5-110.3c5.4-4.3,11.4-8.2,17.5-11.5
	c27.7-14.9,40.4-8,42.6,23.9c1.5,21.7-2.9,42.3-17.4,59.1C4282.9,1645.2,4236.2,1660.6,4180.4,1673z"/>
<path class="st0" d="M4612.3,1692.3c-1.1,54.9-55.8,118.7-110.2,130.9C4497.6,1781.4,4560.6,1705.2,4612.3,1692.3z"/>
</svg>
