<?xml version="1.0" encoding="utf-8"?>
<!-- Generator: Adobe Illustrator 21.1.0, SVG Export Plug-In . SVG Version: 6.00 Build 0)  -->
<svg version="1.1" id="Layer_1" xmlns="http://www.w3.org/2000/svg" xmlns:xlink="http://www.w3.org/1999/xlink" x="0px" y="0px"
	 viewBox="0 0 4924.4 2349.6" style="enable-background:new 0 0 4924.4 2349.6;" xml:space="preserve">
<style type="text/css">
	.st0{fill:#231F20;}
	.st1{fill:#FFFFFF;}
</style>
<path class="st0" d="M3745.9,961c2.7,0.9,5.4,1.8,8.1,2.7c-2.4-12.6,15.1-18.7,9.5-32.3c-2.2-0.8-4.5-1.5-6.8-2.2
	C3753.2,939.7,3749.5,950.4,3745.9,961 M3141.8,1286.2c5-3,10-6,15-9c-1.7-1.6-3.5-3.2-5.2-4.8c-3.1,4.8-6.2,9.6-9.2,14.4
	c-9.9-0.7-15.9,3.7-14.6,16.1C3132.4,1297.3,3137.1,1291.8,3141.8,1286.2 M4609.1,817c1.2,18.4-6,25.7-17.4,29.1
	c-27.9,8.4-55.6,18.5-84.1,23.7c-31.3,5.7-63.6,6.1-95.3,9.6c-21.7,2.4-43.1,6.7-64.7,9.4c-12.6,1.6-25.4,1.9-38.1,2.7
	c-61.8,3.7-123.6,7.5-185.5,11c-20.8,1.2-41.7,1.3-62.6,2.6c-40,2.4-79.9,5.5-119.9,7.8c-27.2,1.6-54.5,2-81.7,3.3
	c-31.6,1.5-37.4,7.1-35.5,37.8c1,17-2.4,32-10.3,47.2c-8.6,16.6-12.8,35.6-21.5,52.1c-14,26.4-30.6,51.5-45.4,77.6
	c-3.8,6.9-7.6,15.7-6.6,23c4.9,36.8,14.3,72.1,52.4,89.4c10.6,4.8,22.5,8.2,34,9c30.4,2.2,60.1-2.3,88-15.5
	c35.3-16.6,70.9-32.8,105.4-51.1c22.7-12,40.5-30.3,52.4-53.9c17.8-35.5,41.4-66.6,73.6-90.5c7.2-5.3,15.3-10.2,23.7-12.8
	c10.9-3.3,19.7-0.9,27.9,10.3c27,37,28,56.1,0.6,93.5c-11.2,15.4-22.9,30.5-34.1,45.9c-19,26.2-15.6,44,11.7,61.5
	c26.7,17.1,57.1,18.7,86.9,17.1c49.1-2.6,93.6-22.4,136.7-44.2c53.4-27.2,92.2-70.2,123.8-120.4c3.7-5.9,9-12.7,15-14.7
	c7.9-2.5,18.8-3.4,25.5,0.3c4.4,2.4,5.3,14.2,4.9,21.6c-0.4,7.9-3.2,16.1-6.4,23.5c-11.6,26.6-23.2,53.3-36.2,79.3
	c-15.4,30.8-39.4,55.3-66.6,74.9c-74.3,53.5-158.9,77.8-249.7,72c-43.1-2.8-81.5-24.5-111.4-57.6c-1.8-2-3.2-4.5-4.9-6.6
	c-22.4-26.7-24.8-24.8-56.2-7.1c-38.7,21.8-78.1,46.3-120.4,57.1c-58.2,14.7-119.3,19.5-173.9-19.2c-21.4-15.1-38.3-33.2-50.1-56.4
	c-4.9-9.7-10.2-19.3-16.5-28.1c-10.1-14.2-16.2-15.3-32-6.9c-10.4,5.5-20.8,11.3-30.7,17.7c-37.1,24.2-78.6,38.3-120.8,48.7
	c-29.8,7.3-61.4,9.1-92.3,9.7c-34.7,0.6-64.9-16.7-95.3-31.4c-4.8-2.4-9.5-5.1-16.5-8.9c-12.7,14.3-24.9,28.6-37.6,42.4
	c-21.1,22.7-41.2,46.4-64,67.1c-32.7,29.9-72.4,45.3-117.1,45.6c-6.6,0.1-13.9-3.4-19.8-6.9c-6.9-4.3-13.1-10-18.7-15.9
	c-11.5-12.2-22.8-13.6-39.1-7.2c-29.6,11.5-59.6,22.1-92.3,23.2c-54.5,1.8-94.7-18.6-120.6-67.8c-19.3-36.8-25.3-75.6-23.6-116.2
	c2.6-62.8,5.5-125.6,7.8-188.4c2-52.7,4.4-105.4,4.4-158.2c0-19.7-6-39.5-9.6-59.1c-1-5.3-4.7-10.4-4.5-15.5
	c0.5-12.5-1.1-26.5,12.2-34.1c8.6-4.9,35.9,1.1,43.2,9.4c18.8,21.4,26.1,47.5,29,75.1c1,9.8,1.3,19.8,2.9,29.6
	c4.3,25.4,3.4,50.4,0.2,76.1c-3.1,25.1-0.5,50.9-0.1,76.5c0.7,44.6,1.5,89-4.1,133.6c-4.2,33.3-3.3,67.6-0.6,101.1
	c2.2,27,16.9,49.8,50.4,50c55.9,0.4,100.3-22.7,137.6-62.2c3.6-3.8,5.6-9.4,7.6-14.3c15.5-37.5,36.5-71.1,66.8-98.7
	c19.4-17.7,39-35.5,56.7-54.9c24.5-26.7,57-38.5,88.9-51.7c7.5-3.1,15.6-5.4,23.6-6.5c13.3-1.8,24.4,1.1,32.9,13.9
	c17.1,25.4,33.8,51.2,27.3,83.3c-9.9,49.2,20.6,74.9,69.8,79.5c67.8,6.4,130.2-10,186.8-48.1c13.6-9.1,27.5-17.9,41.3-26.7
	c18.9-12.1,28.5-27.4,29.5-51.6c2-44.5,8.9-88.8,13.6-133.1c0.5-4.3,0.1-8.6,0.1-15.9c-25.6,2-49.9,2.6-73.8,6.1
	c-18.8,2.8-37.1,9.2-55.6,13.6c-21.4,5.1-32.8-0.2-42-19.8c-3.1-6.5-5.4-13.5-7.2-20.5c-6.6-25.2-1.2-36.5,24.5-41.8
	c42.9-8.9,86-17.6,129.4-22.4c30.5-3.3,46.8-15.2,56.4-45.2c15.1-47.5,30.2-95.3,53.8-139.8c10.4-19.5,26.9-25.2,44.8-10.3
	c16.5,13.8,31.4,30.3,26.8,56.1c-4.5,25.2-6.6,50.8,4.8,75.4c1.8,3.9,1.6,8.9,2,13.5c2.7,31.5,10.2,38.4,42.4,38.2
	c24.6-0.1,49.3,0.4,73.8-1.2c47.2-3,94.4-8.2,141.6-10.6c21.6-1.1,43.4,2,65.1,3.2c1.8,0.1,3.6,0.5,5.4,0.4
	c37.2-2.2,74.3-4.4,111.5-6.7c1.8-0.1,3.7-0.7,5.4-0.4c49.3,7.5,97.8-5.4,146.7-5.8c26.2-0.2,52.5,1.7,78.7,1.9
	c25.5,0.3,51-0.4,76.5-0.6C4589.6,816.9,4598.5,817,4609.1,817"/>
<path class="st0" d="M2253.9,1966.7c-24.5,36.7-27.2,78.1-35.6,117.4c-3,14.2,10.6,20.9,23.4,11.8c10.1-7.3,19.5-16.6,26.8-26.7
	C2285.3,2045.8,2292.4,1995,2253.9,1966.7 M1774.7,2080c3-0.7,11-2,18.6-4.6c24.6-8.3,44.7-22.5,61-43.3
	c19.5-24.9,21.5-46.2,3.2-71.6c-13.3-18.5-38.1-22.8-54.7-7.5c-27.9,25.8-46.6,58.2-57.8,94.2
	C1737.5,2071.1,1744.7,2079,1774.7,2080 M2779.7,1968.8c9.2,5.8,13.1,9.7,17.7,10.9c86.5,21.2,173.9,31.8,263,20.9
	c52.9-6.5,103.5-19,148.8-49.4c41.6-27.9,67.6-65.3,78-114c2.7-12.5,3.7-25.4,7.1-37.6c4.2-15.2,19.7-25.8,35.2-25.8
	c15.2,0,21.7,10.3,28,22.3c13.4,25.2,13.3,51,3.9,76.8c-7.7,21.2-8.7,42.5-7,64.6c1.2,15.5,0.9,31,1.6,46.5
	c1.4,32.4,7.5,63.8,17.3,94.9c4.7,14.9,5.5,32.4,2.7,47.8c-1.5,8.2-12.9,17.5-21.9,20.9c-10.8,4.1-24.3,2.4-32.3-8.4
	c-8.6-11.6-18.5-23.6-22.6-37c-8.1-26.8-12.4-54.8-18.5-82.2c-0.9-4.2-3.2-8-5.4-13.4c-5.4,1.4-10,1.6-13.6,3.8
	c-21.1,12.5-41.4,26.4-63,37.8c-15.2,8-31.6,14.3-48.3,18.4c-34.3,8.5-68.8,16.9-103.6,22c-40.5,5.9-81.4,12.2-122.3,0.5
	c-8.6-2.5-17.9-2.9-26.8-4.2c-15.3-2.1-30.8-3-45.8-6.2c-35.4-7.5-70.6-15.9-107.6-24.4c-11.1,21.4-3.6,43.7,2.9,62.8
	c11.5,33.4,7.3,66.8,5.8,99.9c-1.1,24.5-38.9,33.7-58.8,16.2c-14.8-13.1-18.3-31.3-20.6-49.4c-7.7-59.6-14.5-119.4-22.1-179
	c-6.2-48.8-12.9-97.4-19.5-146.1c-0.7-5.2-2.1-10.3-3.3-15.9c-12.9-2.8-22.2,1.4-30.8,9.2c-42.1,38.7-95.4,55.2-147.6,73.4
	c-30,10.4-61.2,17.4-91.4,27.2c-22,7.1-23.6,10.8-17.4,31.8c19.8,68.2-0.6,126.1-47.7,175c-24.2,25.1-55.4,37.5-92.3,26
	c-27-8.5-43-26.9-51.1-52.5c-9-28.4-8.6-57.3-0.3-86.2c9.8-34.2,18.7-68.6,27.8-103c6.1-23.1,1.9-29.5-21.7-26.8
	c-38.6,4.5-78.5-0.1-115.2,18.5c-7.4,3.7-18,0.7-27.1,1.4c-23.6,1.8-47.3,3-70.7,6.2c-16.6,2.3-18.8,7.9-15.9,24.6
	c4.8,27.8,8.5,55-0.8,83.5c-13.3,40.5-45.7,61.6-76.7,85.6c-30.4,23.5-64.2,26-100.2,22.4c-38.4-3.9-63-26.2-79.6-59.1
	c-12.2-24.2-15.3-25.9-35.4-9.6c-32.4,26.1-67,48.6-101.3,71.9c-18.6,12.6-35.2,28.2-53.3,41.7c-7.9,5.9-16.6,12.7-25.8,14.2
	c-21.5,3.5-38.3,15.9-56.9,24.9c-11.2,5.4-23.6,8.5-35.4,12.6c-5.1,1.8-11,2.4-15.1,5.5c-32.6,24.1-69.3,21.4-105.2,14.2
	c-77.4-15.4-117.8-91.1-91.4-167c3.8-10.9,6-22.4,9-33.6c17-63,48.6-119.8,79.5-176.1c15.7-28.7,31.8-60.2,60.3-80.1
	c14.7-10.2,30.9-19.8,47.9-24.9c26.9-8.1,54.4,7.2,70.4,30.4c12.9,18.6-5.6,51.1-25.9,47.8c-25.3-4.1-41.9,8.9-56.5,26.2
	c-22.3,26.4-44.2,52.8-55.7,86.7c-10.5,30.9-25.1,60.4-37.8,90.6c-11.8,27.9-18.4,56.9-18.8,87.4c-0.2,21.5,9.2,35.6,30.6,37.4
	c14.3,1.2,29.3,0.2,43.3-3.1c74-17,139.5-52.7,201.1-95.6c47.8-33.3,94.8-67.9,141.5-102.7c12.9-9.6,23.7-21.9,35.3-33.2
	c18.9-18.4,37.6-37,56.5-55.4c12.5-12.2,23.4-24.2,24.9-43.7c1.6-20.2,12.8-26.4,32.2-20.6c21.7,6.5,42.9,14.7,64.5,21.6
	c28.7,9.2,58,4.8,86.6,0.6c62.2-9.2,124-21.1,186.2-30.3c32.6-4.8,64.4-1.9,95.6,12.9c42.8,20.3,88.1,28.4,135.1,13.3
	c4.2-1.4,9-1.6,13.5-1.6c40.4,0.4,77.1-13.4,111.6-31.9c41.7-22.4,82.1-47.2,122.8-71.4c18-10.7,22.6-26.2,23.4-48
	c1.9-50.6-3.3-102.9,20.2-150.7c5.5-11.2,11.9-22.7,20.4-31.7c18.5-19.4,39.9-18.3,50.4,6.3c19.1,44.7,40.3,89.5,28,141.5
	c-7.2,30.6-15.4,59.7-35.9,84.3c-3.9,4.7-7.9,11.4-7.8,17.1c0.4,21.7,2.2,43.4,3.9,65.1c0.6,8.1,3,16.1,3.5,24.2
	c1.4,23.4,9.8,32.1,33,25.9c25.3-6.7,50-16.7,73.9-27.4c54.5-24.4,101.1-61.4,149.1-96.1c5.1-3.7,10.1-8.1,15.9-10.5
	c15.5-6.4,30.4-0.1,35,15.8c5.8,19.9,7.2,39.8-11.8,54.9c-15.6,12.4-30.9,25.1-46.6,37.4c-37.2,29-75.4,56.4-118.6,75.9
	c-9.9,4.5-20.4,7.7-30.5,11.9C2800.9,1958.6,2792.5,1962.9,2779.7,1968.8"/>
<path class="st0" d="M1473.9,1273.6c-21.5,13.6-27.2,29.9-22.6,53.5C1471.4,1314,1475.9,1297.2,1473.9,1273.6 M567,1435.3
	c34.5,11.2,59.8-2.5,85.2-13.9c63.5-28.4,109.8-78.1,153.4-129.5c26.8-31.7,47-69,69.9-104c2.9-4.4,5.6-9.8,6-14.9
	c1.8-25.3,3-50.7,4-76.1c1.3-35.3,2.1-70.5,3.3-105.8c0.6-19.1,0.5-38.3,2.7-57.2c3.4-28.9,6.2-58.1,13.4-86.1
	c7.6-29.9,24.5-33.1,47.4-11.6c15.3,14.3,22.3,29.4,18.8,53c-4.1,27.2-6.3,55.2-3.7,83.9c4.3,46.9,1.9,94.6,0,141.9
	c-0.8,19.7-6.1,39.5-11.6,58.6c-10.9,37.7-6.6,75.6-5.8,118.2c8.2-4,15.3-5.1,17.6-8.9c5.4-9.4,9.2-19.9,12.4-30.2
	c16.1-51.1,31.7-102.4,47.8-153.5c1.9-6,4.5-13.3,9.2-16.3c4.9-3.2,14.3-4.9,19-2.3c27.4,15.4,38.8,42,32.7,74
	c-4.6,24.1-11.3,47.9-14.9,72.2c-4.5,30.6-6.7,61.5,4.2,91.6c9.1,25,20.1,32.8,46.3,34.4c36.6,2.2,72.8,2.5,107.9-11.3
	c46.6-18.3,92.9-36.7,128.5-73.8c4.9-5.2,9.1-11.3,12.9-17.4c12.9-20.7,24.3-42.5,38.7-62c9.2-12.5,16.4-23.4,11.8-39.5
	c-1.7-6-1.3-12.7-1.3-19c-0.1-25.2,14.6-39.2,38.1-31.4c51.5,17.1,103.5,9.6,154.5,4c69.5-7.6,138.4-21,207.3-32.9
	c12.2-2.1,24-8.3,35.4-13.8c26.4-12.6,51.6,13.3,58,36.8c7.4,26.9-6.3,43.4-20.3,60.9c-21.1,26.2-45.6,49.9-64,77.7
	c-15.8,23.9-27.1,51.4-36.8,78.6c-6.6,18.6,2.8,25.8,23.6,24.1c27.7-2.3,53.5-10.4,77.5-24.1c4-2.3,7.8-5.5,12.1-6.4
	c45.2-9.3,83.5-33.9,123.1-55.3c36.8-19.8,72.2-42.1,108.3-63.2c12.5-7.4,25.5-13.9,37.6-21.8c22.8-14.8,44.9-30.6,67.7-45.5
	c14.5-9.4,29.4-18.1,44.4-26.4c29.6-16.5,57.5-34.8,81.5-59.3c8-8.2,22.1-11.9,34-14.4c11.2-2.3,20,3.1,25.8,15.1
	c24.7,51,18.1,54-16.4,95.7c-9.9,11.9-21.1,22.9-29.8,35.6c-17.2,25.2-41.1,45.6-50.6,76.7c-10.1,33.1,1.6,55.2,36.3,56.1
	c19.7,0.5,40.2-2.2,59.1-7.7c21.6-6.3,42.4-16.5,62.7-26.5c51.6-25.6,47.2-88.3,18.6-121c-6-6.9-11.9-13.8-18.2-20.3
	c-17.1-17.4-14.5-39.5-10.4-59.3c3.7-17.9,15.2-27.4,37.2-15.4c20.5,11.2,36,27.7,46.2,48.6c9.2,18.8,17.8,38,26,57.3
	c18.2,42.8,13.4,86.1-0.9,128.4c-4.2,12.4-13,25.1-23.2,33.3c-24.1,19.2-48.8,38-79.2,47.4c-16.5,5.1-32.6,11.8-49.1,17
	c-49,15.5-95.2,9.9-138.5-18.5c-25.2-16.6-37.8-41.9-46.9-68.7c-5.9-17.5-14.8-35.6-7.1-55.6c1.3-3.4-1.8-8.4-3.3-14.4
	c-5.4,1.7-9.9,2.3-13.5,4.4c-73.8,43.2-146.6,88.1-221.4,129.5c-55.9,31.1-116.9,50.7-179.2,65.1c-34.1,7.9-65.5,3.1-91.1-23.1
	c-4.3-4.4-8.6-9.2-11.3-14.6c-18.7-37.8-23.4-76-4.3-115.5c11.5-23.8,21.4-48.3,31.5-72.7c3-7.3,4.3-15.2,7-25.4
	c-9.1-0.4-15.3-1.7-21-0.8c-37.7,6.3-75.2,13.4-112.9,19.6c-24.3,4-48.8,6.4-73.1,10.4c-19.3,3.2-22.7,8.6-19.3,27.4
	c0.8,4.4,2.5,8.8,4.3,12.9c16.8,38.1,11.1,77,2.4,115.3c-10.7,46.7-78.4,78.4-121.2,57c-13.5-6.8-25.9-16.8-37-27.2
	c-18.1-16.9-19-16.9-42.5-5.5c-32.7,15.9-64.9,34.9-99.5,44.2c-40.7,10.8-82.8,21.1-126.6,10.3c-33.6-8.3-59.6-26.2-81.8-51.4
	c-15.6-17.8-22.2-16.8-31.8,5.5c-6.9,15.8-14.1,31.6-20.3,47.7c-8,20.6-24.9,30.9-43.8,38.4c-21,8.3-37.3,0.4-46.2-20.6
	c-12.3-29-16.6-59.2-15.4-90.6c0.3-6.5-2.1-13.2-4.1-24.8c-9.2,8.4-14.5,12.8-19.3,17.7c-30.5,31.1-57.8,66.4-92.3,92.2
	c-31.5,23.6-70.4,37.3-106.5,54.6c-28.8,13.8-59.3,16.7-90.7,10.3c-25.1-5.2-41.9-19.2-53.2-42.5c-18.9-39-21.9-78.7-9.7-119.7
	c9.8-33.1,19.1-66.5,31.4-98.7c15.9-42.1,39.1-79.9,75.3-108.3c18.4-14.4,38.7-24.2,62.5-24.3c6.3,0,12.8,0.5,18.9,2.1
	c14.7,3.9,30.7,11.3,30.9,26.8c0.1,9.9-11.6,21.7-20.6,29.6c-13.5,11.9-30.3,19.8-43.8,31.6c-49.5,43.2-68.8,101.4-78.5,163.8
	C572.6,1392.7,570,1413.3,567,1435.3"/>
<path class="st0" d="M4395.8,2061.3c1.4,1.2,2.9,2.4,4.3,3.6c4.2-4.3,8.4-8.6,12.6-12.9c-5.7-2.2-9.1-1.6-11.3,0.5
	C4399,2054.8,4397.7,2058.3,4395.8,2061.3 M3896.1,1782.6c1.7,33.5-17.1,57.6-36.6,82c-34.9,43.7-84.5,65-132.1,89.4
	c-12.9,6.6-27.2,10.3-40.5,16c-23.8,10.2-37.2,30.9-30.9,51.4c7.2,23.5,21.6,42,46.4,50c38.4,12.5,75.3,5.2,112.5-6.8
	c40.2-12.9,75.9-34.2,112.1-54.9c16.5-9.5,33.5-18.2,49.8-27.9c9.3-5.6,18.4-12,26.4-19.3c30.8-28.1,61.3-56.6,91.8-85.1
	c24.6-23,48.6-46.5,73.7-68.9c27.7-24.8,56-48.8,84.6-72.5c7.6-6.3,17.1-10.5,25.9-15.3c37.1-20.1,75.9-7.3,108.1,17.8
	c48.5,37.7,82.2,86.3,110.4,139.8c9.7,18.5,12.7,18.8,35.6,15.2c44.9-7.2,89.6-15.3,134.7-20.6c34.3-4.1,69.1-5.9,103.6-5.8
	c12.7,0,26.1,6.9,37.9,13c7.4,3.8,6,11.8,1.4,19.1c-9.9,15.7-25.1,23.5-41.6,29c-40.1,13.2-81.9,16.3-123.5,21.6
	c-31.1,4-61.3,16.6-91.3,27.1c-16.8,5.8-19.5,23.3-22.6,38.1c-14.9,69.8-54.1,120-118.9,149.8c-17.3,7.9-34.9,15.6-52.8,22
	c-36.7,12.9-77.8-13.9-80.5-52.6c-3.9-56.8,16.7-104.2,60.5-139.8c25.3-20.6,53.9-37,80.6-56.1c18-12.9,17.9-13.6,4.9-32.4
	c-16-23.1-32.9-45.6-48.7-68.9c-12.3-18.1-30-28.9-48.7-38.5c-12.9-6.6-25.8-3.6-36.3,4.1c-21.9,16-43.6,32.5-63.8,50.7
	c-35.2,31.7-69.2,64.7-103.5,97.3c-31.6,30-62.5,60.6-94.7,89.9c-11.3,10.3-25.4,17.5-38.4,26c-56.4,37.1-116,67.8-179.9,89.7
	c-7.6,2.6-16.2,2.5-24.4,2.8c-24.5,0.8-49.4,4.1-73.4,0.9c-46.3-6.1-82.7-30.3-109.5-69.1c-15.4-22.3-23.8-47.3-29-73.2
	c-3.2-16.1-11-23.9-26.7-26c-32.2-4.2-46.3-26.4-52.6-55c-6.3-28.2,14-46.5,41.5-38.2c5.2,1.6,10,4.6,15.2,6.1
	c30.7,8.7,36.1,6.5,52.5-21.5c28.7-48.9,60.1-96.2,105.5-130.8c36.2-27.5,75.8-50.3,124.2-49.3c26.4,0.5,54.5,26.3,59.3,55.2
	C3895.4,1766.1,3895.5,1774.4,3896.1,1782.6"/>
<path class="st0" d="M1732.3,615.6c6.5,0,11.4,1.4,15.1-0.2c20-8.6,39.8-17.8,59.5-27.1c9.8-4.7,19.5-9.8,28.8-15.4
	c22.5-13.4,30.8-43,23.4-78.1c-2.5-11.9-8.5-18.6-19.1-24.3c-14.9-8-26.2-2-37.9,5.6c-42.7,27.4-57.2,71.2-68,117.1
	C1732.5,599.8,1733,607,1732.3,615.6 M1719.2,439.1c15.7-11.4,28.2-18.7,38.5-28.4c14.8-13.7,33.3-18.5,51.5-23.6
	c23.9-6.8,44.8-0.1,62.3,17.5c20.4,20.6,44.5,38.3,53.2,68c2.5,8.6,5.3,17.2,7.4,26c3.9,16.2,11.4,21.8,27.4,17.9
	c6.9-1.7,13.5-5.4,19.9-8.7c66.3-34.6,132.9-68.4,198.4-104.5c22.1-12.2,44.1-10.3,66.1-7.5c25.5,3.2,44.2,34.7,39,60.2
	c-2.8,13.4-6.6,26.7-8.1,40.2c-4.6,43,9.5,59.1,52.1,63c33.1,3.1,67.5,2,99.7-11.6c13.3-5.6,27.2-10.9,41.4-13.1
	c8.7-1.4,18.3,3.4,29.4,5.9c-1.6,12.4-1.7,22.5-4.5,31.8c-1.9,6.6-6.3,13.6-11.7,17.7c-11.4,8.6-23.2,17.8-36.4,22.6
	c-61.5,22.8-123.5,42.5-186.7,5.1c-7.8-4.6-15-10.2-22.4-15.5c-18.4-13-24.9-11.8-37.7,6.6c-22.1,31.8-47.2,59.2-84.2,75.4
	c-25.3,11.1-48.1,8.8-66.2-8c-18.3-16.8-28.1-40.2-21.2-67c2.8-11.1,4.7-22.3,8.3-39.5c-13.7,3.7-22.5,4.5-29.8,8.2
	c-29.2,14.9-58.1,30.5-86.7,46.5c-5.2,2.9-9.1,8.6-12.9,13.5c-36,46.2-74.5,89.9-123.9,122.5c-29.2,19.2-62.3,25.3-96,23.9
	c-27.4-1.2-39.9-25.5-49.8-46c-7.4-15.4-8.6-35.5-7.3-53.2c3.9-54.4,11.9-108.6,15.2-163.1c3.6-59.1,3.6-118.5,5.5-177.7
	c1.7-53.7,3.6-107.4,6.1-161.1c0.8-17.2,2.1-34.7,5.9-51.4c2.7-11.8,5.8-25.8,21.1-29.2c12.2-2.8,27.5,6.5,34.1,21.6
	c3.8,8.8,8.7,19.4,7.1,28c-10.8,56.2-4.7,112.9-7.4,169.3c-1.5,31.8-0.6,63.8-0.4,95.7C1715.1,423,1717.2,428.9,1719.2,439.1"/>
<path class="st0" d="M2730.4,473.7c13.2-10.3,27.5-18.9,38.5-30.6c33.6-35.9,65.7-73.1,98.8-109.5c9.1-10.1,18.8-20.1,29.9-27.8
	c12.7-8.8,21.4-4.2,27,10.5c12,31.3,5.8,58-16.4,83.2c-24.7,27.9-47.2,57.8-70.4,87c-2,2.5-2.1,6.6-4.1,13.5
	c10.8,2,20.1,4.9,29.5,5.4c54,2.9,107.2,1.4,159-19.1c15.4-6.1,22.1-13,24.2-28c6.6-47.3,27.4-88.1,60-122.7
	c26.2-27.9,58.1-33.4,92.4-19c14.8,6.2,24.7,16.8,29.5,30.5c20.2,58.2,11.6,107.3-38.6,150.4c-13.7,11.8-30,20.6-45.4,30.3
	c-15.6,9.8-18,17.4-9.8,33.8c13.9,27.7,36.5,41.5,67.3,44.4c55.8,5.3,103.9-13.3,148-45.3c5.2-3.7,9.9-8.2,15.3-11.5
	c8.8-5.6,19.9-10.8,27.2-1.5c5.4,6.8,8.8,19.1,6.7,27.4c-8.9,35.9-31,63.7-62.2,82.6c-32.2,19.6-68.4,29.5-105.8,33.9
	c-36.2,4.3-68.2-7.6-98.3-26.6c-25-15.7-47.9-33.3-61.6-60.6c-3.6-7.3-9.4-13.5-13.4-20.6c-6.9-12.4-17.2-15.5-30.1-12.5
	c-18.6,4.4-37,11-55.8,13c-44.3,4.6-88.6,10.1-133.3,0.9c-34.7-7.2-70-11.6-105-17.8c-24.2-4.3-27.5-2.7-32.6,22.7
	c-3.5,17-5.9,34.1-8.7,51.2c-2.3,13.8-2.1,24.5,11.6,35.6c14.9,12.2,11,34.1,8.8,51.7c-1.8,14.2-8.5,27.8-13.8,41.4
	c-6.2,15.7-18.8,25.8-35.1,26.4c-16.6,0.7-28.1-8.9-35.9-24.7c-18.2-36.6-18.8-76-16.4-114.7c2.8-44.5,11.1-88.5,17-132.8
	c0.2-1.8,0.4-3.6,0.3-5.4c-3.1-66.7,12.5-132,14.3-198.4c1.6-60.1,3.2-120.2,4.1-180.4c0.1-9.7-4.1-19.3-5.8-29.1
	c-1.5-8.8-4.3-18.2-2.9-26.7c3.9-23.4,27.4-33,45-17.7c16.4,14.3,30.1,30.6,30.5,55.4c0.9,56.4,4.9,112.8,5.1,169.2
	c0.1,48.1-3.2,96.2-5.3,144.3C2712.7,449.5,2712.2,463.1,2730.4,473.7"/>
<path class="st0" d="M797,596.8c-17.3,22.5-20.9,88.4-4.7,108.6c3.6,4.5,13.8,8.7,18.2,6.8c9.3-4.1,19.8-10.6,24.6-19.1
	C854.1,660.1,834.5,612.5,797,596.8 M201.7,509.3c9-1.4,14.4-1.5,19.3-3.2c22.7-8,43.5-2.6,56.1,17.8c8.1,13,14.2,27.6,18.8,42.2
	c8.9,28.6,16.5,57.5,23.9,86.5c5.4,21.2,9,42.7,14.3,63.9c2.6,10.5,6.8,20.7,10.8,30.9c9.2,23.4,21.3,31.4,45.6,31.3
	c27-0.1,52.1-6.9,75.5-20.4c35.5-20.3,72.2-38.9,106.4-61.3c23.4-15.4,44.4-34.8,64.4-54.6c23.3-22.9,45.1-47.5,65.8-72.8
	c9.5-11.6,16.1-26.1,22.1-40.1c18.2-43.1,55-55.8,95-33.5c11.5,6.4,25.3,9.1,38.5,11.7c18.7,3.6,38.3,26.2,33.9,44.5
	c-1.8,7.6-12.1,13.3-20.6,21.9c1.6,3,4.4,8.2,7.3,13.3c17,30.1,37.3,59.1,35.9,95.9c-1.6,42.1-23.8,71.3-59.1,91.8
	c-3.8,2.2-9,1.9-13.1,3.7c-44.1,19-76.6,10.1-102.1-30c-9.7-15.2-16.9-32.1-24-48.7c-7.6-17.7-15-18.8-30.5-6.4
	c-31.8,25.6-65.5,48.8-96.4,75.3c-34.5,29.6-76.8,44.3-115.8,65.2C439,853,399.9,852.5,361.8,850c-10.7-0.7-21.8-9.2-31-16.3
	c-21.9-16.7-41.6-35.7-50.9-62.9c-8.8-25.7-17.3-51.6-26.7-77c-3.7-10.1-9.7-19.2-15.5-30.2c-14.1,7.8-13.9,20.4-16,31.2
	c-6.3,32-3.9,65.2-13.5,96.9c-10.1,33-18.4,66.5-27.8,99.8c-5.6,19.6-19.3,32.3-36.8,42c-14.6,8.1-28.6,6.9-40.8-2.8
	c-11.6-9.3-19.4-22.4-17.5-38.1c6.5-53.2,12.2-106.5,20.9-159.3c7.2-43.1,18.1-85.7,17.7-129.6c-0.4-55.4,8-110.9-3-166.2
	c-4.4-22.1,14.8-37.9,36.6-32.5c27.1,6.7,40.6,24,41.2,52C199.2,473.8,200.6,490.7,201.7,509.3"/>
<path class="st0" d="M1352.4,527.5c-48.2,14.6-96.1,29-143.8,43.7c-19.1,5.9-38,12.5-57,18.8c-4.3,1.4-8.7,2.6-13.1,4.1
	c-13.7,4.6-27.5,4.6-38.6-4.8c-10.6-9-15.4-40.1-7.3-51.5c5.2-7.4,14.7-14.1,23.5-16.5c32.3-8.8,65-15.9,97.7-23.2
	c7.9-1.7,16.3-1.5,24.5-1.9c4.5-0.3,10,1.5,13.5-0.5c27.7-15.6,58.4-10.5,87.9-13.3c19.6-1.8,24.1,3.8,18.3,23.3
	C1356.2,511.8,1354.9,517.9,1352.4,527.5"/>
<path class="st0" d="M3371.3,1703.5c-25.2-9.9-29-31.6-34.6-51.6c-2.9-10.5,7.6-26.5,18.1-30.7c11-4.4,18.7,0.6,26.4,8.5
	c14.6,14.8,16,34.1,19.1,52.6c0.6,3.7-4.6,9.8-8.7,12.5C3385.7,1698.8,3378.4,1700.6,3371.3,1703.5"/>
<path class="st1" d="M3745.9,961c3.6-10.6,7.2-21.2,10.8-31.9c2.3,0.8,4.5,1.5,6.8,2.2c5.6,13.7-11.9,19.7-9.5,32.4
	C3751.3,962.8,3748.6,961.9,3745.9,961"/>
<path class="st1" d="M3142.4,1286.8c3.1-4.8,6.1-9.6,9.2-14.4c1.7,1.6,3.5,3.2,5.2,4.8c-5,3-10,6-15,9L3142.4,1286.8z"/>
<path class="st1" d="M3141.8,1286.2c-4.7,5.6-9.4,11.1-14.1,16.7c-1.2-12.4,4.8-16.8,14.6-16.1
	C3142.4,1286.8,3141.8,1286.2,3141.8,1286.2"/>
<path class="st1" d="M1774.7,2080c-29.9-1-37.2-8.9-29.7-32.8c11.3-35.9,30-68.3,57.8-94.1c16.6-15.4,41.5-11,54.8,7.4
	c18.3,25.4,16.2,46.7-3.2,71.6c-16.3,20.8-36.4,35-60.9,43.3C1785.7,2078,1777.6,2079.3,1774.7,2080"/>
<path class="st1" d="M2253.9,1966.7c38.5,28.4,31.3,79.1,14.5,102.5c-7.3,10.1-16.6,19.4-26.8,26.7c-12.7,9.2-26.4,2.4-23.3-11.8
	C2226.8,2044.7,2229.4,2003.4,2253.9,1966.7"/>
<path class="st1" d="M1473.9,1273.6c2,23.5-2.4,40.4-22.6,53.5C1446.7,1303.6,1452.4,1287.3,1473.9,1273.6"/>
<path class="st1" d="M4395.8,2061.3c1.8-3,3.1-6.5,5.6-8.8c2.2-2,5.6-2.7,11.3-0.5c-4.2,4.3-8.4,8.6-12.6,12.9
	C4398.7,2063.7,4397.3,2062.5,4395.8,2061.3"/>
<path class="st1" d="M1732.3,615.6c0.6-8.6,0.2-15.8,1.8-22.5c10.8-45.9,25.3-89.7,68-117.1c11.7-7.5,23-13.5,37.9-5.6
	c10.7,5.7,16.6,12.4,19.1,24.3c7.3,35.2-0.9,64.7-23.4,78.1c-9.4,5.6-19,10.7-28.9,15.4c-19.7,9.4-39.5,18.5-59.5,27.1
	C1743.8,617,1738.8,615.6,1732.3,615.6"/>
<path class="st1" d="M797.1,596.8c37.4,15.7,57.1,63.3,38.1,96.3c-4.9,8.5-15.3,15-24.6,19.1c-4.4,1.9-14.6-2.3-18.2-6.8
	C776.2,685.1,779.8,619.3,797.1,596.8"/>
</svg>
