<?xml version="1.0" encoding="utf-8"?>
<!-- Generator: Adobe Illustrator 21.1.0, SVG Export Plug-In . SVG Version: 6.00 Build 0)  -->
<svg version="1.1" id="Layer_1" xmlns="http://www.w3.org/2000/svg" xmlns:xlink="http://www.w3.org/1999/xlink" x="0px" y="0px"
	 viewBox="0 0 4000 3733.1" style="enable-background:new 0 0 4000 3733.1;" xml:space="preserve">
<style type="text/css">
	.st0{fill:#A3B7D6;}
	.st1{fill:#E9DD79;}
	.st2{fill:#231F20;}
</style>
<title>applepicking</title>
<rect class="st0" width="4000" height="3733.1"/>
<path class="st1" d="M1956.4,2710.7c-90.1-154.6-176.7-313.8-302.4-440.9c-116.9-118.3-264.1-201.7-429.4-209.9
	c-94.2-4.7-189.2,8.5-282.6,20.6s-186.7,29.2-275.4,63c-83.8,31.9-162.8,76-237.9,125.9c-36.5,24.3-72.2,50-107.3,76.4
	c-18,13.6-35.9,27.4-53.7,41.3c-6.6,5.2-16.6,17-24.5,19.3c-5,1.6-18.5-2.5-24.1-2.5c-77.4,0.3-130.3,81-106.1,156.6
	c13.7,41.8,43.8,71.1,39.5,118c-4.6,49.6-11.5,96.9-4.7,146.8c25.1,186.8,144.2,331.2,280,447.2
	c134.3,114.7,287.5,220.1,460.7,255.4c93.1,19,185,12.3,277.2-8.2c96.8-21.5,193.1-45.6,289.5-68.3c92.4-21.8,188.2-54.9,283.3-58.3
	c41.9-1.5,82.6,2.1,123.4-10.1c37.2-11.2,71.3-31.6,99.4-59.4c61-60,90.5-158,102.7-242.1c13.6-93.4-3-176.2-45-259.4
	C2000,2784,1977.9,2747.5,1956.4,2710.7z"/>
<path class="st2" d="M1269.1,2124.4c-1.3,2.8-49.9-6.9-54.9-7.3c-21.6-1.8-43.5-2.3-65.2-2.6c-40.6-0.4-81.2,2.2-121.4,7.8
	c-89.1,12.1-171.8,38.8-255.8,70.3c-80.7,30.4-158.3,70.5-236.3,108c-42.5,20.4-84.3,41.6-124.6,66.4
	c-36.7,22.7-72.4,48.2-109.8,69.4c-15.9,8.9-32.3,18.8-49.3,25.3c-23.1,8.9-43.6,11.4-61.4,31c-21.8,24-47.2,65.6-45.3,100
	c2.4,41.4,17.2,88.6,30.3,127.9c10.3,31.4,28.4,60.7,40.1,91.1c31.2,81.5,60.5,168.4,111.8,238.5c24,32.8,49.8,63.9,71.5,98.2
	c14.8,23.3,32,49.6,53.8,65.6c12.3,8.9,20.8,22.1,32.4,32.4c14.3,12.8,26.8,27.8,41.1,40.4c29.9,26.3,67,45.4,101.1,65.4
	c14.6,8.5,27.7,19,42.3,26.4c17.9,8.9,36.3,17.6,54,27.3c34.1,18.8,66.2,40.4,102.4,53.7c36.3,13.2,71.2,28.4,109.5,35.4
	c37.3,6.3,74.8,10.5,112.5,12.7c22,1.6,44.8,0.3,66.9,1.2s44.2,1.2,66.5,0.2c37.5-1.6,71.5-5.6,107.1-18.5
	c76.3-27.8,151.1-60.5,226.8-89.2c38.1-14.4,82.1-27.3,122.3-32c35-4.1,70.1-4.3,104.9-10.4c41.1-7.2,81.4-10.3,122.1-20.6
	c39.3-9.9,75.7-18.9,99.8-54.7c50.1-75,76.8-166.7,47.4-255.3s-111.3-144.3-153.3-225.2c-21.2-41-31.5-88.3-46.5-132
	c-15.7-45.5-28.1-92-43.6-137.5c-14.7-43.1-34.2-90.8-61.8-126.6c-29.2-37.6-60.6-73.3-94.2-106.6c-30.8-30.5-58.8-59.1-97.1-79.2
	c-39-20.5-79.3-37.5-119-56.3C1355.6,2145.9,1311.7,2137.2,1269.1,2124.4 M375.9,2365c9.5-13.7,29.8-22.4,44.4-30.7
	c19.5-11.1,37.3-23.9,57.8-33.5c19.5-9.3,40.3-15.3,59.6-24.9c19.3-9.6,38.6-22.9,58.7-31.1c16.1-6.5,32.6-13.5,48.4-20.7
	c21.3-9.7,40.8-23.9,62.1-33.2c39.6-17.5,81.6-30.5,121.7-46c74-28.6,150.5-40,227.4-52.7c18.1-3,36.4,0.4,54.5-2.8
	c23.8-4.2,49-0.4,73.5,0.4c48.4,1.6,91.9,11.9,139.1,22.1c20.2,4.3,36.3,14.1,55.7,19.8c21.1,5.9,41.7,13.7,61.4,23.3
	c37.8,18.7,75.2,36.6,111.8,58.2s64.4,55.9,93.1,87.2s60.6,60,83.8,95.9c43.2,67.2,72.2,142.5,92.4,220.6
	c10.6,40.2,23.4,79.6,38.5,118.2c13.9,36.2,25.2,72.2,50,102.2c50.1,60.6,106.1,116.3,131.2,193.9c29.4,90.8-3.5,199.8-57,274.6
	c-28.1,39.4-70.2,54.4-115.3,63.2c-48.2,9.3-96.2,16.1-145,21c-49.6,5-98.3,9.7-146.9,21.9c-46.7,11.7-93.3,33.9-137.8,52.5
	c-40.9,17.1-82.5,32.4-123.8,48.9c-40.1,16-83.3,21.8-126.1,23.9c-51.3,2.4-102.6-3-153.9-4.9c-44.2-1.1-88.2-7.4-131-18.9
	c-45-12.6-88.1-31.5-130.8-50.7c-34.2-15.4-68.2-38-102-55.6c-18-9.4-33.7-22.6-51-33.2c-17.8-10.9-36.5-20.2-54.1-31.9
	c-17.2-11.4-35.3-20.9-51-34.6s-29.4-30.5-44.3-44.7c-28.3-27.1-58.6-54.6-82-87.1c-11.8-16.4-23.8-33.2-36.6-48.8
	c-12.1-14.8-20.1-31.5-32.3-46.3c-25.6-30.7-51.1-71.3-65.5-109.8c-7.7-20.7-18.9-39.7-26.3-60.6c-7.1-20.1-11.3-41.4-20.4-60.4
	c-19.1-39.8-38.7-79-54.8-120.4c-8.5-21.8-15-44.4-19.3-67.6c-4.3-23.6-11.8-45.8-12.8-70.4c-1.6-38.8,22.5-83.8,46.9-112.8
	c10.7-12.7,27.7-30.4,43.7-35.8c9.3-3.2,15.9,2.4,25.1,2.2c11.5-0.2,24-8.9,33.8-14.6c18.9-11.2,35.7-25.3,53.9-37.6
	c11.2-7.6,38.4-29.1,51.6-27.4"/>
<path class="st2" d="M271.8,2578.3c-16.7,6.3-26.3,14.4-41.7,3.9c0.3,5.7,4.1,17.3,0,21.6c-7,7.4-19.6-0.6-26-3.8
	c-16.2-8.2-31.5-8.4-36.8-27.8c-2.9-10.6-5.1-16.3,5.7-22.2c7.1-3.8,21.3,2.8,26.1-3c8.1-10.1-19.7-58.3,7.9-53.5
	c12,2.1,12.3,13.4,26.4,11.7c2.9-0.4,5.7-3.2,8.9-3.3c4.8-0.2,7,2.4,11.8,2.6c9.5,0.2,20.3-7.2,29.5-5.2c11.8,2.6,2.9,5.1,5.4,11.9
	c2.6,6.8,13.6-0.4,4,10.9c-6,7.1-19.7,9.5-26.9,16.2c-10.9,10.1-4.6,7.3,0,19.9c1.1,3.2,0.4,6.7,1.1,9.5
	C268.6,2572,273.5,2571.3,271.8,2578.3"/>
<g>
	<path class="st2" d="M2742.2,1364.8c-2.9,3.8-5.4,7.6-7.9,11.8c-10.8,23.5-19.7,48.3-25.7,73.7c-2.5,10.5-4.4,21.3-6.7,32.1
		c-5.7,27.3-10.8,54.6-9.8,82.6c0.3,12.4,1.9,24.8,2.9,37.2c0,1,2.2,2.5,3.5,2.9c1.6,0,3.2-0.6,4.1-1.9c1.9-4.4,3.5-9.2,4.4-14
		c1.6-7,2.9-14,4.4-20.6c4.1-17.5,9.8-34.6,11.1-52.7c0.3-2.5,1-5.4,1.9-7.9c3.5-15.2,7.3-30.5,9.8-46.1c3.8-24.8,6.7-49.5,9.8-74.3
		C2745.3,1379.7,2745,1371.8,2742.2,1364.8 M1621,1092.6c0.3-2.9,0.6-6,0.6-8.9c0.3-3.5-2.2-6.7-5.7-6.7c-1.6,0-3.2,0.3-4.4,1.3
		c-12.1,7.9-23.5,17.2-37.2,22.9c-5.4,2.2-9.2,7.6-14.3,10.8c-8.3,5.4-15.2,12.4-20.6,20.6c-3.2,4.4-5.7,9.2-9.5,13.3
		c-12.1,13-17.8,29.5-24.1,45.4c-1.9,5.1-2.9,10.5-2.9,15.9c-0.6,6,3.8,11.8,9.8,12.4c0.6,0,1.3,0,2.2,0c3.8,0,7.6-0.6,11.4-0.6
		c7.6,0,14.9-3.2,20.3-8.9c6.7-6,14-11.8,21-17.8c2.5-2.2,4.8-4.4,6.7-7c6.7-7.9,12.4-16.5,19.7-23.8c11.1-11.8,16.8-26.7,21.6-41.3
		C1618.5,1111.1,1624.2,1101.8,1621,1092.6 M1353,1079c0-0.3,0-0.3,0-0.6c-10.8,0.6-21.9,0.6-32.4,2.2c-23.2,3.5-46.4,7.3-68.9,12.1
		c-13.3,2.9-25.7,8.3-38.7,12.4c-6,1.9-12.1,4.4-18.4,6.7c-2.5,1-5.1,1.9-7.6,2.9c-3.2,1.3-4.4,5.1-2.9,7.9c0.6,1,1.3,1.9,2.2,2.5
		c1.3,1,2.9,1.6,4.4,2.2c7.9,2.2,11.1,7.9,13,15.2c1.9,6.7,3.5,13.7,4.1,20.6c1,12.4,2.9,24.8,0.6,37.5c-0.3,3.8,0,7.6,1,11.4
		c1.3,7.3,5.4,11.1,12.4,9.8c6.4-1.3,12.4-3.5,18.1-6.7c7.3-4.1,14-7.9,22.5-9.2c3.2-1,6-2.5,8.6-4.4c2.9-1.6,5.7-3.2,8.6-4.8
		c16.5-7.3,32.1-15.6,47-25.4c9.5-6.4,18.7-12.7,28.6-18.4c13-7.6,24.5-17.8,34.3-29.2c4.4-5.7,7.6-12.1,9.5-18.7
		c3.5-10.5,0-18.1-10.5-22.2c-5.1-1.9-10.5-3.2-15.9-3.8C1366,1078.7,1359.6,1079.3,1353,1079 M2206.4,1226c2.9,0.3,5.4,0.3,8.3,0
		c2.5-0.6,5.1-1.9,7.6-2.9c4.8-1.6,10.2-2.5,13.7,1.9s4.4,10.5,1.9,15.6c-1.6,3.5-3.5,6.7-6,9.5c-6,6.7-12.7,13.3-19.4,19.7
		c-5.1,4.4-8.3,10.2-8.9,16.8c-1,8.3-4.1,15.9-9.2,22.5c-11.4,14.3-30.8,16.8-44.8,4.4c-5.7-5.4-10.8-5.4-17.8-3.5
		c-25.7,7.6-51.8,13-78.8,7c-12.1-2.9-24.1-6.4-35.9-10.8c-5.4-1.9-9.8-6.7-14.3-10.5c-11.4-9.2-21.9-20-30.5-31.8
		c-7.9-11.1-12.1-24.1-18.1-36.5c-1-1.9-1.3-4.1-1.3-6.4c0.6-16.2-3.2-32.4-1-48.9c0.3-4.4,0-8.6-0.6-13c-0.6-2.2-3.2-3.5-5.4-2.5
		c-0.3,0-0.6,0.3-1.3,0.6c-3.5,3.5-6.7,7-9.5,10.8c-1.6,2.2-1.3,5.7-3.2,7.3c-12.4,10.2-18.4,25.4-29.2,36.8
		c-11.8,13.3-22.2,28.3-30.5,44.1c-9.8,17.5-19.7,34.9-29.9,52.4c-4.1,7.3-9.8,13-18.7,14.6c-9.5,1.6-25.7-5.4-31.4-13.3
		c-5.4-7-8.9-15.2-10.2-23.8c-3.2-19.4-3.2-39.1,0.3-58.4c3.2-18.1,6.4-36.2,7.9-54.9c1.6-17.8,5.7-35.6,9.2-53
		c1.3-5.7,1-12.1-1.3-17.5c-0.6-1.3-2.2-2.2-4.1-3.5c-1.9,1.9-4.8,3.2-5.7,5.4c-6.7,13.7-16.2,26-19.1,41.3
		c-0.6,2.5-1.6,5.1-3.2,7.3c-8.3,12.7-14.9,26.7-19.7,41c-7.9,21.6-20,41-31.4,60.7c-6,10.2-13,20-18.1,30.8
		c-3.2,6.7-7.9,13.3-16.2,15.2c-1,0.3-1.9,0.6-2.9,1.3c-6.7,5.4-13.7,9.8-22.5,6.7c-10.2-3.8-19.7-7.9-26.7-17.8
		c-10.5-15.2-12.4-32.1-14.6-49.5c-0.6-4.8,1-9.8-4.1-14c-7,1.3-11.8,6.7-17.2,10.8c-14,12.1-29.5,22.5-45.7,31.1
		c-11.4,5.1-23.2,8.9-35.6,11.1c-10.5,2.2-20.3-2.2-30.5-4.1c-10.2-9.8-22.5-16.8-31.1-28.3c-1.6-2.2-2.5-4.8-3.2-7.6
		c-4.1-17.2-6.7-34.3-0.3-51.5c1-3.2,1.9-6.4,2.5-9.5c0-3.2-2.2-6-5.4-6c-0.3,0-0.6,0-1,0c-3.8,0.3-7.3,1.6-10.8,3.2
		c-12.1,6.4-24.8,12.1-35.6,20c-14,10.5-28.3,20-42.9,29.9c-16.2,10.8-33,21.3-49.2,31.8c-7,4.4-13.3,9.2-20.3,13.3
		c-11.8,7.6-24.5,14.3-37.5,20c-10.5,4.4-20.6,9.5-30.8,15.2c-5.1,2.5-8.6,7.3-9.5,12.7c-1,4.8-1.6,9.5-1.6,14.6
		c-1.3,17.5-2.5,34.6-3.5,52.1c-1.3,21.6-2.2,43.5-3.5,65.1c-0.6,9.8-1.6,19.4-2.2,29.2c-0.6,11.4-1,22.9-1.6,34.3
		s-2.2,22.9-2.5,34.3c-0.6,27.6-7,55.3-4.8,83.2c0.3,7.6,0,15.2-1,22.9c-1.3,17.5-3.2,34.6-3.5,52.1c-0.3,14.6,1.6,29.2,2.2,44.1
		c1.3,12.7-2.5,25.1-10.5,35.3c-13.3,16.5-34.6,13.3-43.5-5.7c-7-14.9-6-30.5-5.7-46.4c0.3-6.7,0.3-13,0-19.7
		c-1-9.8-1-19.7,0.3-29.2c1.6-18.4,2.9-36.8,3.8-55.3c1.3-25.4,1.9-51.1,3.5-76.5c0.3-7,2.5-14,3.2-21c1.3-14.6,1.9-29.2,2.9-43.8
		c2.2-34.3,4.1-68.3,6.4-102.6c0.6-11.4,1-22.9,1-34.3c0-8.3-4.8-12.4-12.7-10.2c-22.5,6.7-38.7-5.7-54.9-17.8
		c-7-5.4-7.3-23.5-0.6-30.2c12.1-12.1,24.8-22.9,41.9-27.3c7.3-2.2,14.3-5.1,21-8.6c4.8-1.9,7.6-6.7,7.6-11.8
		c0-13,2.9-25.7,2.5-39.1c-0.6-16.2,0.6-32.7-1.6-48.9c-0.6-5.4,1-11.1,4.1-15.6c2.2-2.9,4.4-5.7,8.6-11.1c-11.4,4.4-20,7-25.1,15.6
		c-5.4,9.8-14.6,16.2-23.5,22.2c-8.6,5.4-19.4,4.8-27.3-1.9c-4.4-3.2-6.7-8.9-5.4-14.6c2.2-8.9,3.5-18.1,9.8-25.7
		c0.6-0.6,1.6-1.6,1.9-2.5c4.4-13,16.2-20,25.4-28.9c1.3-1.3,2.5-2.2,3.8-2.9c14.9-7.9,29.5-16.5,44.5-23.8
		c13.7-6.7,27.9-12.1,41.9-17.8c3.5-1.6,7-3.2,10.5-4.1c11.1-2.2,22.2-4.1,33.3-6.4c17.5-3.5,34.9-7.3,52.4-11.1
		c3.2-1,6.4-1.3,9.5-1.3c12.1,1.6,23.8-0.3,35.9-1.3c20.6-1,41.6,1.3,61.6,6.4c21.3,5.1,34.9,19.4,40.7,40.7
		c1.6,5.7,1.9,11.8,3.5,17.8c1.3,3.5,2.9,7,4.8,10.2c24.1-9.2,46.4-22.9,66.1-39.7c10.8-9.5,21-21,33.3-28.3
		c16.2-9.5,31.4-21.6,49.9-27.3c3.5-1.3,7.3-1.3,11.1-0.3c12.4,3.5,21.6,10.2,23.2,22.9c5.4,4.1,10.5,1.9,15.2,1.6
		c16.5-1.6,28.9,7,28.9,23.2c0,14.9,2.2,30.5-4.1,45.1c-2.2,5.4-1.6,11.8-2.9,17.5c-4.1,21-6.4,41.9-6.7,63.2c0,5.4-0.6,10.8-1,16.2
		c-0.3,2.2-0.3,4.1,0,6.4c0.3,1.9,1.6,3.8,3.5,5.1c1.9,0.3,4.1-0.6,5.4-1.9c2.2-2.5,3.8-5.4,5.1-8.3c6.4-18.7,17.8-34.9,28.9-50.8
		c9.8-14.9,18.7-30.5,26-47c2.2-4.4,4.8-8.6,7.3-12.7c10.8-17.8,21-35.6,32.1-53c4.4-7,9.8-13,15.9-18.4
		c13.3-11.4,38.1-7.3,47.3,7.6c5.1,7.9,8.6,16.5,9.8,25.7c3.2,17.8,4.1,35.6,3.2,53.7c-1.6,18.4-3.2,36.8-7.9,54.9
		c-1.6,7.3-2.2,14.9-2.2,22.5c0.3,2.9,0.6,5.4,1.6,7.9c8.3,1,12.7-4.1,16.8-8.9c11.1-13.3,21.3-27.3,32.1-41
		c14.6-18.7,29.2-38.1,44.5-56.2c8.9-11.1,19.7-20.6,31.8-27.9c3.2-1.9,7-2.9,10.8-2.2c4.1,0.6,8.6,1.3,13,1.6
		c6.7,0,12.7,4.4,14.6,11.1c4.1,12.7,10.2,25.4,5.4,39.7c1,20-7.3,38.4-9.2,57.8c-1,9.2-1.9,18.4,0.6,27.6s2.5,18.1,6,27
		c3.5,9.2,8.3,17.8,14.3,25.4c3.2,3.5,7,6.7,11.4,8.9c13.7,8.9,29.5,13.7,46.1,13.7c16.8,0,32.1-4.8,48-8.3
		c5.4-1.3,7.9-5.1,8.6-10.5c2.2-20.6,4.4-41,7-61.6c1.3-9.2,3.5-18.1,5.4-27.3c3.5-18.1,7.3-36.2,10.8-54.3c1-5.4,1.6-10.8,1.9-16.2
		c0-2.5,0-5.4-0.3-7.9c-5.7-2.9-12.4-2.2-17.5,1.3c-11.4,6.4-24.1,9.8-34.6,17.8c-4.1,2.5-8.6,4.8-13,7c-7,3.8-15.2,3.8-21.9-0.3
		c-7.9-3.8-13.3-9.5-12.1-19.4c0.3-3.2-0.3-6.7,0.3-9.8c0.3-2.5,1.3-5.1,3.2-7.3c11.1-10.5,22.2-20.3,37.2-26
		c12.7-4.8,24.8-11.1,37.5-16.5c5.1-1.9,10.5-3.2,15.6-4.1c19.4-4.4,23.2-8.6,26-27.9c1-6.4,2.5-12.7,3.5-19.4
		c3.2-21.9,10.2-43.2,13.7-65.4c2.5-18.1,7.6-36.2,12.1-54.3c1-4.8,2.9-9.2,5.4-13.3c7.9-11.4,22.5-16.5,35.9-12.7
		c2.5,0.6,5.1,1.9,7,3.8c7.3,9.2,13,18.7,9.2,31.4c-5.1,17.8-10.2,35.6-14.9,53.4c-2.9,11.4-5.1,23.2-7.3,34.9
		c-1.3,5.4-2.9,10.5-3.8,15.9c-1.3,7.9-2.5,16.2-3.5,24.1c-1,8.6,1,11.1,8.9,12.4c3.8,0.6,7.6,0.6,11.4,0.6c18.1,0,35.6,3.5,53.4,6
		c10.8,1.9,21,6,29.9,12.7c7,5.1,14.6,9.5,21.6,14.6c11.4,8.6,21,19.7,27.3,32.4c5.7,12.4,9.8,25.4,14.9,37.8c1,2.2,2.9,5.1,5.1,5.7
		c2.5,0.3,5.1-1,6.7-2.9c7-11.4,17.2-19.7,26-28.9c6.4-6.7,13-13,21.9-16.5c1.9-0.6,3.8-1.9,5.7-3.2c13-11.8,29.5-15.9,45.7-20.3
		c18.1-5.1,32.7,0.6,41.3,17.5c2.2,4.4,4.8,8.6,7,13c3.2,6.4,5.4,13,6,20c2.2,22.9,1,45.7-4.1,68c-4.4,19.1-7.3,38.4-10.8,57.8
		c-1,4.8-1,10.5,3.2,13.7c5.1,3.8,10.5,1.3,15.2-1.9c4.8-3.2,8.9-6.4,13.3-9.5c5.4-3.8,10.8-7.3,15.9-11.4
		c6.4-5.1,12.4-10.5,18.4-16.2c30.8-28.3,59.4-59.1,84.8-92.4c12.1-16.2,24.5-32.1,36.2-48.3c6.4-8.9,12.1-18.1,16.8-27.9
		c5.1-9.5,13-15.9,20.6-22.9c2.5-1.9,5.7-2.9,8.9-3.2c2.9-0.3,5.4-0.3,8.3,0.3c14.6,1.9,22.2,9.5,24.1,24.1
		c3.2,20.3,2.9,41.3-1,61.6c-3.2,17.5-4.8,35.6-8.3,53.4c-1.6,9.8-1.9,19.7-1.3,29.2c0.3,13-0.6,26-2.9,39.1c-0.6,2.5-1,5.4-1,8.3
		c-0.3,8.6,2.9,11.1,10.8,8.3c5.7-1.9,11.4-3.8,16.8-5.7c21-7.9,43.2-10.5,65.1-14.6c15.2-2.9,31.4-0.6,47,2.9
		c7,1.6,14,1.9,20.6,3.8c9.8,2.9,19.7,5.4,27.6,12.7c7.9,7.3,16.5,14.3,22.5,23.5c5.1,7.6,7.9,15.2,4.8,24.5
		c-0.6,3.2-1.3,6.4-1.9,9.5c-1.3,4.4-4.8,7.6-9.2,8.6c-3.8,1.3-7.9-0.3-9.8-3.8c-4.8-7.3-11.8-11.1-19.1-14.9
		c-6.4-3.2-11.8-7.6-18.1-11.1c-12.4-7-26-11.1-40-12.1c-21.3-1-42.2,1.3-62.9,6.7c-10.2,2.2-20,5.4-29.5,9.2
		c-7.9,3.5-15.6,7.6-22.5,13c-7.3,4.8-11.8,13-12.4,21.6c-1.3,12.1-1.9,23.8-3.2,35.9c-1.9,20-4.1,40-6.4,60
		c-1.9,16.2-3.8,32.1-5.7,48.3c0,1-0.3,2.2-0.3,3.2c-8.6,33-10.5,67.6-18.4,101c-5.4,21.6-10.8,43.2-16.2,65.1
		c-1,3.8-1.3,7.6-2.2,11.1c-1.3,7.9-4.1,15.9-7.9,23.2c-4.4,7.9-7.9,16.5-11.8,25.1s-9.5,15.2-18.4,17.5
		c-10.5,2.5-21.6,4.1-32.1,0.3c-5.1-2.2-8.9-6.7-10.2-12.1c-1-3.8-1.6-7.3-1.9-11.1c-2.5-12.7-4.1-26-8.6-38.1
		c-6.7-20.3-9.5-41.3-8.9-62.6c0-6,0.3-12.1,0.3-18.1c-0.3-13,1-26,3.5-39.1c3.5-14.3,6-28.9,8.9-43.2c5.7-27.3,14.6-53.7,26.4-78.8
		c10.2-22.9,20.6-45.7,30.8-68.3c1.9-3.8,4.4-7.6,7-10.8c5.1-6.4,10.8-12.4,16.2-18.4c5.4-5.7,8.6-12.7,9.5-20.3
		c2.5-22.2,5.1-44.5,7.6-66.4c0.6-4.8,0.3-9.8,0.6-14.6c0.6-9.2,1.9-18.4,2.5-27.6c0.6-11.4,1-22.9,1-34.3c0-2.5-2.2-4.4-4.4-4.1
		c-1,0-1.9,0.3-2.9,1c-1.3,1-2.5,1.9-3.5,3.2c-7.3,9.5-14.6,19.1-21.9,28.3s-14.9,20.3-23.8,28.9c-7.3,7.3-14.3,14.6-21,22.5
		c-9.2,11.1-19.1,21.9-28.6,33c-1.6,1.6-3.2,3.2-5.1,4.1c-6.7,4.8-13,9.8-18.4,15.9c-6.7,6.4-14.3,11.8-22.2,16.2
		c-11.1,6.7-22.9,12.7-34.3,19.1c-3.5,1.9-7,3.2-10.2,5.1c-20.3,11.1-38.7,1-53-11.8c-7.3-6.7-11.8-16.2-11.8-26
		c-0.3-19.1-1-38.1,4.4-56.9c4.4-15.2,7.3-30.8,10.5-46.1c1.6-7.9,1.6-16.2,2.5-24.1c0.3-4.4,1.3-8.6,1.6-13
		c0.3-7,1.9-15.2-5.4-19.4s-13.3,1-19.4,5.1c-19.1,12.7-34.9,29.2-47.6,48.3c-7,9.8-12.4,20.6-15.9,32.1c-1.9,6.4-3.8,12.4-6.4,18.4
		c-1.9,3.5-3.2,7-4.4,10.5c-1.6,9.2-5.4,17.8-11.1,25.1c-1.3,1.3-1.9,2.5-2.2,4.4c-1.6,17.2-12.7,30.8-14.3,48.3
		c-1.3,14.9-14.6,26.4-29.9,27.6c-7.6,1-15.6-1.9-21-7.3c-6.7-7.3-11.1-16.2-12.7-26c-0.3-3.8,0.3-7.6,1.9-11.1
		c3.5-8.6,7.9-16.5,11.1-25.1c7.3-19.4,13.7-39.4,14.3-60c1-16.2,0.3-32.7-1.6-48.9c-1.6-14-4.4-27.9-13-40c-0.3-0.3-1-1-1-1.3
		c-2.9-14-13.7-20.3-24.8-26.4c-2.2-1.6-4.8-2.5-7.3-3.5c-20.6-5.4-41.6-8.6-62.6-10.5c-12.7-1-16.2,1.6-20.6,13.7
		c-1.3,3.2-1.9,6.4-2.5,9.5c-2.9,15.6-5.4,31.1-8.3,46.7c-2.2,12.4-4.1,24.8-7.3,36.8C2208,1182.8,2208,1203.5,2206.4,1226"/>
</g>
</svg>
