<?xml version="1.0" encoding="utf-8"?>
<!-- Generator: Adobe Illustrator 21.1.0, SVG Export Plug-In . SVG Version: 6.00 Build 0)  -->
<svg version="1.1" id="Layer_1" xmlns="http://www.w3.org/2000/svg" xmlns:xlink="http://www.w3.org/1999/xlink" x="0px" y="0px"
	 viewBox="0 0 4000 3733.1" style="enable-background:new 0 0 4000 3733.1;" xml:space="preserve">
<style type="text/css">
	.st0{fill:#E9BD33;}
	.st1{fill:#FFE78F;}
	.st2{fill:none;stroke:#000000;stroke-width:17.1029;stroke-linecap:round;stroke-linejoin:round;stroke-miterlimit:10;}
	.st3{fill:#A97EB7;}
</style>
<rect class="st0" width="4000" height="3733.1"/>
<path d="M864.2,787c3,26.8,5.5,52,8.8,77c2.8,21.2,6.2,41.9,3.2,63.7c-2.5,18.4-0.5,37.5-0.5,59.6c-4.1,8.9-15.8,10-27,12.1
	c-7.2,1.3-15.1-0.1-21.2,5.6c-0.9,0.8-3.2,1.3-4.2,0.7c-8.1-4-14.1,1.8-20.1,4.4c-17.6-6.8-27-18.2-33.1-36
	c-6.2-18-4.5-36.4-9.3-54.1c-3-10.9-6.1-21.9-8.1-33c-1.7-9.6-1.6-19.5-2.7-29.2c-1.4-13.8-3.1-27.6-4.7-41.3
	c-0.5-3.8-1.4-7.6-2.4-12.8c-8.6,1.3-16.4,2.4-24.2,3.7c-7.8,1.3-15.6,2.8-23.4,4.4c-11.9,2.4-14.9,4.4-16.1,16.2
	c-3.1,32.6-9.6,65-8,98.1c0.9,18.6,0.2,37.3,0.2,56.4c-6.2,2.2-12.4,5.1-19,6.5c-11.9,2.5-22.1,8.3-32.4,14.5
	c-9.9,5.9-20.3,1.4-30.3-0.8c-4.3-1-8.3-3.2-14.2-5.6c-2.4-28.6-5.8-57.9-7.2-87.4c-0.9-20.8,0.9-41.8,1.5-62.7
	c0.1-4.4,1.9-10.3-0.3-12.8c-4.3-5.1-10.4-9.2-16.6-12c-4.6-2.1-10.7-2.4-15.8-1.6c-4.1,0.7-9,3.4-11.3,6.8c-2,3-0.8,8.1-1.4,12.3
	c-3.5,23,1,45.6,3.2,68.3c2.1,20.8,5.3,41.4,7.5,62.2c0.9,8.3,0.1,16.8,0.4,25.3c0.1,5.4,1.5,10.8,0.9,16.1
	c-1.5,13.3-3.3,26.6-6.1,39.7c-0.7,3.1-5.3,5.9-8.6,7.8c-9,5.2-18.3,10-27.5,14.9c-2.2,1.2-4.3,2.6-6.6,3.5
	c-17.4,7-25.6,3.8-33.1-13.3c-3-6.8-5.7-14-6.9-21.2c-4.3-25.4-7.8-51-11.7-76.4c-2.7-17.6-6-35.2-8.3-52.9
	c-1.7-12.8-1.9-25.8-3.1-38.7c-1.1-12.1-4.5-14.5-16.6-12.1c-9.2,1.8-18.4,4.3-27.6,6.4c-16.7,3.7-23.1-0.6-25.6-17.6
	c-0.6-3.9-1.2-8-0.9-11.9c0.3-5.4,2.7-9,8.9-10.1c12.7-2.2,25.2-5.3,37.8-7.9c1.9-0.4,4-0.5,5.9-0.9c10.4-2.4,13.3-5.1,11.4-15.4
	c-6.3-34.8-2.8-70.2-6.9-105.1c-1.9-16.1-0.2-32.7-0.3-49c-0.1-7.4-0.6-14.7-1-23.2c-25.8-1.4-48.5,2.9-69.1,17
	c-6.4,4.4-13.5,8.2-20.8,10.9c-13.5,5-22.8-0.4-25.3-14.4c-2.8-15.7-0.3-29.3,14.7-38.8c15.8-10,32.4-17.6,50.7-21.1
	c43.3-8.3,87-11.2,130.9-6.5c26.7,2.9,53.3,6.7,79.9,10.5c6.3,0.9,12.4,3.6,18.7,5c11.6,2.6,23.8,3.5,34.8,7.8
	c12.3,4.9,24.1,11.8,34.9,19.6c6.5,4.7,10.2,5.5,16.6,0.3c13.1-10.6,26.4-20.5,42.7-26.7c18.5-7,36.5-8.2,55.6-4.8
	c12.2,2.2,24.7,2.9,37.1,3.8c8.7,0.6,16,3.9,19.5,11.7c6.2,13.5,12.3,27.2,16.5,41.4c3.1,10.2,3.1,21.4,4.5,32.1
	c0.4,3-0.1,6.6,1.4,8.7c8.7,11.7,5.5,24.7,4.8,37.5c-0.5,9.5,2.2,12.4,10.6,12.1c24.8-0.9,49.6-0.9,74.1,4c0.9,0.2,1.9-0.2,4.2-0.4
	c-3.5-9.7-7.1-19.1-10.1-28.7c-5.9-18.8-2.7-37.1,4.4-54.9c0.9-2.2,2.6-4.3,4.5-5.8c31.8-25.8,67.8-42.2,108.8-44.9
	c25.5-1.7,50.6,2.6,74.3,12.9c5.6,2.4,10.8,4.9,12.7,11.6c2.1,7.7,7.2,8,14,5.7c22.1-7.6,44.3-15,66.6-22.1
	c40.6-13,82.3-18.7,124.8-20.7c44.1-2.1,87.7,1.3,130.5,11.9c14,3.5,27.7,8.3,41.2,13.5c14.6,5.6,15.7,10.2,7.4,23
	c-10.2,15.7-23.9,20-44,15.6c-36.2-7.9-72.8-10.7-109.7-6.5c-11.9,1.3-23.7,2.8-35.5,4.8c-5.6,1-11,3.5-15.9,5.2
	c1.4,11.5,4.8,21.6,3.3,31c-3.2,20.3-2.2,40.5-1.4,60.7c0.7,17.8,2.4,35.6,3.5,53.4c1.3,19.3,2.8,38.6,3.4,57.9
	c0.2,6.8-1.6,13.7-2.7,21.5c4.9,4.3,5.1,10,5.1,17.5c0,20.2,2.6,40.5,5.4,60.6c0.8,6,5.5,11.5,8.7,17c6.2,10.7,4.8,16.6-6.5,21.1
	c-10.3,4-21.2,9.5-31.8,9.4c-29.9-0.1-48.7-16.6-54.4-46.8c-7.6-39.6-14.5-79.3-20.3-119.2c-3.4-22.9-3.3-46.1-3.5-69.3
	c-0.1-23.9-0.9-47.8-1.7-71.7c-0.4-12.8-6.1-16.6-17.4-9.9c-12.8,7.5-24.3,16.9-36.4,25.6c-2,1.4-3.7,4.2-5.7,4.5
	c-23.6,2.7-47,8.4-70.9,5.2c-8.7-1.2-17-4.7-25.8-7.3c1.2-9.5,0.8-19.2,3.9-27.8c2.5-7,8.6-13,13.9-18.8c4.5-4.9,10.2-8.8,15.9-13.6
	c-31.3-13-58.1-8.9-82.3,14.9c0.2-0.9-0.5,0.2-0.1,0.9c8.1,17.3,14.8,35.5,24.9,51.4c10.3,16.3,23.8,30.6,36.5,45.3
	c21.4,24.9,43.1,49.6,65,74.1c11.2,12.6,17.6,27.7,23.4,43c4.9,12.9,8.2,26.4,12.2,39.7c1.7,5.6,0.7,10.6-3.2,15.3
	c-2.4,3-4.5,6.7-5.4,10.5c-3.3,14.1-14.5,19.3-26.3,23.9c-2.7,1.1-6.2,0.7-8.5,2.2c-18.4,12.4-39,15.7-60.7,15.5
	c-18.2-0.2-34.9-3.7-47.5-10.1c-9.6-4.9-21.2-5.5-28.7-15c-6.8-8.6-14.8-16.1-21.8-24.5c-6.9-8.3-13.2-17.2-20.6-26.9
	c5.4-6,9.3-14.4,15.3-16.2c16.4-5,33.3-14.9,52.4-1.4c4,14.5,16.6,25.1,29.6,35.2c3.8,3,8.4,5.5,13,7.1c12.1,4.2,18.3-1.3,15.9-14
	c-5-26.1-17.5-49.1-34.3-68.8c-20.3-23.7-43.9-44.6-65.2-67.5c-11.2-12-20.5-25.7-30.7-38.5c-1.7-2.2-3.5-4.3-5.4-6.5
	c-6.6,6.5-12.4,12.5-18.5,18c-2.5,2.3-5.8,4.3-9,5.1c-13.5,3.2-27.1,5.7-40.6,8.8C878,782.5,871.6,784.8,864.2,787z M509.2,632.9
	c0,6.8-0.6,9.8,0.1,12.4c4,15.2,2,30.5,1.6,45.9c-0.2,5.9-0.4,12,0.3,17.8c2,16.1,4.5,32.2,7.3,51.6c21.9-24.7,42.4-45.7,48.2-76.8
	c3.5-18.9,2.3-25.8-14.8-34.5C539.2,642.9,525.4,639,509.2,632.9z M731.8,696.4c-15.4,10.7-29.4,37-28.9,52.5c0,0.7,1.2,1.4,2.2,2.5
	c6.2-0.7,12.6-1.1,18.8-2.4c6.7-1.4,12.6-5,12.1-12.8C735.1,723.6,733.3,710.9,731.8,696.4z"/>
<path d="M3234.9,539.5c-3.8,6.4-7.7,10.7-9.2,15.8c-1.7,5.9-3.6,13.4-1.3,18.4c4.6,9.9,1.1,19,1.5,28.5c0.6,14.2-3.1,28-2.6,41.8
	c0.5,14.8,0,29.2-2.7,43.7c-2.4,12.7-4.2,25.4-6.5,39c2,1,4.4,2.2,7.7,3.8c-0.9,6.7-1.4,13.6-2.9,20.3c-8.4,36.4-3.6,72.8-0.4,109.2
	c1.6,18.8,3.9,37.6,5.5,56.4c0.3,3.3-1.1,6.7-1.6,9.2c-7.7,2.6-14.8,4.3-21.3,7.3c-8.9,4-17.6,3.1-26.3,0.5
	c-6.5-2-12.9-4.5-18.8-7.8c-2.7-1.5-5-5.1-5.8-8.2c-3.4-14.5-7.4-29-8.8-43.7c-3.8-40.6-6.4-81.4-9.6-122.1
	c-0.3-4.2-1.4-8.3-2.3-13.7c-35.3,15-71.9,15.8-107.4,25.5c0,13,0.2,26.7-0.1,40.4c-0.1,6.4-0.4,12.9-1.7,19.2
	c-2.1,10.8-1.5,20.5,5.2,29.9c2.6,3.7,5,10.3,3.4,13.7c-5.6,12.2-0.1,22.1,4.3,32.6c1.3,3.1,3.2,6.4,3.1,9.6
	c-0.2,7.9,2.1,14.2,7.2,20.5c3.5,4.3,4.7,10.6,6.4,14.8c-13.4,5.1-25.4,10.6-37.9,14.1c-5.6,1.6-12.7,0.8-18.2-1.2
	c-15-5.6-28-12.7-33.6-30.6c-15.2-48.4-23.2-97.8-23.7-148.4c0-1.9-0.3-3.8-0.5-7.3c-4.5-0.5-8.8-1.4-13-1.3
	c-14.9,0.3-27.9-5-40.3-12.4c-2-1.2-3.9-3.3-4.7-5.4c-4.5-11.2,8.8-33.4,21-35.5c12.1-2.1,24.3-4.2,37.4-6.5c0-17.5,0-33.7,0-52.3
	c-6.3,3.7-11.2,6.7-16.2,9.5c-25.1,13.9-49.4,29.8-75.7,40.9c-14.8,6.2-30.1,12.2-45.4,17.6c-4.9,1.7-9.2,5-13.8,7.5
	c3.4,10.7,6.7,19.3,16.3,24c9.2,4.6,11,14.9,15.9,22.8c11.4,18.3,18.8,38.2,22.8,59.4c2.9,15.6,6.6,31.1,9.6,46.6
	c0.6,2.8,0.7,6.2-0.3,8.7c-8.4,20.3-19.3,37.2-43.5,42.5c-13.7,3-27,4.9-41.1,5.2c-15.3,0.3-30.5,4.6-45.9,5.3
	c-34.8,1.7-66.8-6.1-88.9-35.4c-12.5-16.6-16.3-37.1-18.3-57.7c-2.4-24.8,2.5-48.7,8.4-72.4c12.9-51.8,36.7-98.8,65.3-143.4
	c12.8-20,27-39.2,41.2-58.3c5.9-7.9,13.1-15,20.5-21.6c13.5-12.2,28.7-14.2,46.3-8.8c10.6,3.3,19.2,6.5,23.8,17.7
	c1.6,3.9,7.3,6.1,11.7,9.6c-0.3,6-2.5,11.2-8.3,14.4c-29.2,16.2-43.2,43.3-51.2,74.7c4.9-7.3,9.8-14.7,14.7-22
	c0.8,0.5,1.7,0.9,2.5,1.4c-1,3.9-2.1,7.7-3.9,14.3c15.7-7.5,29.7-12.7,42.2-20.3c36.6-22.1,72.8-45,108.9-68.1
	c7.1-4.5,13.1-10.7,19.2-16.5c4.5-4.2,8.5-6.8,14-1.4c1.9,1.8,5.2,2.9,7.9,2.9c10.6-0.4,18.9,4.8,27.3,10.2
	c6.5,4.2,13.2,8.2,19.8,12.5c6.7,4.3,8.1,11.6,7.9,18.4c-0.6,23.3-2.3,46.6-3.3,69.8c-0.4,9.3-0.1,18.6-0.1,30
	c5.3,0.2,11.1,1.2,16.6,0.4c22.6-3.4,45.2-7.2,67.8-11.4c17.3-3.2,17.9-4.4,18-21.1c0.3-28.9,0.1-57.9,1.4-86.7
	c1.1-24.8,4.2-49.6,6.1-74.4c0.9-11.9,7.7-20.1,16.1-28.4c7.9,1.4,16.4,2.1,24.4,4.6c12.3,3.8,24.1,2.5,36.6,0.3
	c17.6-3.1,35.4-5.3,53.3-5.9c44.3-1.5,88.6-2.6,133-2.4c43.3,0.2,86.6,2,129.9,3.3c41.8,1.3,83.6,4.6,125.4,3.7
	c21.1-0.4,37,9.4,54.2,17.1c6.7,3,13.5,8.6,8.6,19.2c-1.5,3.1,2.4,8.8,3.9,13.4c-1.7,2.1-4.2,4.1-5,6.6c-1.9,5.9-6.2,7.3-11.4,7.9
	c-3.5,0.4-7,0.7-10.4,0.7c-37.3-0.4-74.6-1.1-112-1.3c-45.2-0.2-90.4,0.1-135.7,0.2c-2.4,0-4.9,0.7-7.3,1.1
	c-6.5,8.8-4.4,18.2-3,27.5c0.4,2.8,1.9,6.1,0.9,8.4c-4.8,11.6-1.7,24.3-4.3,35.2c-3.8,15.3,3.2,30.1-2.5,45.3
	c-3.4,9,0,20.5-0.5,30.8c-0.7,14.8-2.8,29.5-3.3,44.3c-0.6,16.9-0.7,33.8,0,50.7c0.7,15.4,2.7,30.7,4.1,46
	c1.8,19.8,3.5,39.6,5.2,58.9c-10.2,13.1-24.3,12.2-37.6,10.7c-4.3-0.5-6.6-0.1-10.2,1.7c-2.7,1.3-7.6-0.1-10.8-1.7
	c-5.4-2.6-10.3-6.2-18.3-11.1c-16.6-112.6-27.7-228.7-9.9-347.3C3309.8,545.1,3271.7,549.7,3234.9,539.5z M2719.3,900.1
	c16.7-3,32.6-12,42.1-21.8c7.1-7.3,10-15.7,9.2-25.7c-2.4-31.8-14.1-59.6-36-82.9c-2.1-2.3-5-3.8-8.3-6.2
	C2707.3,808.9,2698.8,853.3,2719.3,900.1z"/>
<path d="M2022,955.1c-2.7-2-5.6-6-8.2-5.7c-13.5,1.3-15-9.1-15.9-17.3c-3-27.2-4.7-54.5-6.8-81.8c-1-12.8-1.9-25.7-2.4-38.6
	c-0.4-8.9,0.1-17.8,0-26.7c-0.2-13.4-0.6-26.8-0.9-40.2c-0.3-12.8-1.5-25.7-0.7-38.5c1.6-27,9.4-52.8,17.3-78.6
	c5.8-18.9,23.2-31.5,42.8-29.6c11.2,1.1,22.2,4.6,33.2,7.2c6.3,1.5,13.1,2.1,18.6,5c6.3,3.3,11.6,8.5,17,13.3
	c4.4,3.8,7.7,9,12.6,11.8c24.3,14.3,45.6,31.6,60,56.5c11.2,19.3,22.4,38.8,34.9,57.3c10.3,15.1,22.5,28.9,33.8,43.3
	c2.1,2.7,4.1,5.6,6.1,8.4c13.8,18.5,27.6,37,43.5,54.8c-0.3-2.5-0.5-4.9-1-7.3c-8.5-37.8-18-75.4-25.2-113.5
	c-7.9-41.8-8.9-84.1-3.9-126.4c2.5-21.2,15.5-37,36.3-42.4c10-2.6,20.4-3.5,30.6-4.7c2.8-0.3,6.8,0.1,8.4,1.8
	c9.6,10.4,21.3,19.9,18.6,36.8c-1.1,6.9-1.4,13.9-1.8,20.8c-0.5,7.7-0.8,14.8,1.7,22.9c3.2,10.4,2.2,22.8,0.2,33.9
	c-1,5.4-1.1,9.2,1.5,13.7c4.3,7.4,5.4,14.8,0.2,22.4c-2.7,3.9-4.6,8.1,1.3,11.1c-1.3,13.2,14.7,21.4,10.3,35.8
	c-0.7,2.3,1.8,5.5,2.6,8.4c3.5,12.9,7.2,25.7,10.4,38.6c1.2,4.8-0.3,5.6-8,6.1c6.1,23.4,12.2,46.8,18.5,70.1c0.6,2.3,1.9,5,3.7,6.3
	c11.4,8.2,10.2,19.6,9.5,31.6c-1,17,6.1,31.7,16.5,44.8c1.5,1.9,3.3,3.5,4.7,5c-3.2,11.1-12.5,11.4-20.5,12.8
	c-9.6,1.7-18.6,3.5-27.9,7.7c-9.2,4.1-22.2,0.3-33.4-1.1c-34.5-4.2-60.1-24.9-84-47.7c-30.5-29.2-61.3-58.2-89.9-89.3
	c-21.5-23.4-39.6-49.8-59.1-74.9c-4.7-6.1-8.9-12.6-13.3-18.9c-1.2,0.3-2.4,0.6-3.6,0.8c-1,7.2-2.5,14.3-2.8,21.5
	c-1,24.9-1.8,49.8-2.1,74.7c-0.2,18.8,0.5,37.7,0.8,56.5c0.1,3,0.6,6,0.7,8.9c0.1,5.7,2.4,14.7-0.3,16.5c-6.5,4.5-15.1,7.1-23.2,7.9
	c-7.9,0.8-15.4,0.2-23,4.2c-7.2,3.8-15.1,7.2-24.1,2.2C2033,951.9,2027.7,954.4,2022,955.1z"/>
<path d="M1799.5,795.9c-14.9,15.5-35,17.9-51.1,29.1c3.6,11.1,5.6,22.2,0.4,33.2c-0.7,1.4,0.2,4,1.1,5.6c4.6,7.2,5,13.8-1.3,20.3
	c-1.1,1.1-0.6,3.8-0.8,5.7c-1.2,8.8-2.9,17.6-3.4,26.5c-0.7,11.6-6.4,23.1-0.1,35c1.6,3.1,0.7,7.9,0.2,11.8
	c-1.2,10.8-2.4,21.7-4.5,32.4c-2,10.1-6.1,18.4-17.6,21.9c-8.4,2.6-15.7,8.6-24,11.5c-17.4,6.2-33.7-4.7-34.2-23
	c-0.7-27.9-0.1-55.8-0.6-83.7c-0.5-27.4-1.6-54.7-2.6-82.1c-0.1-2.3-1.2-4.6-2.2-8.2c-39.5,3-78.1,8.3-117.5,17.7
	c-4.7,28.2-9.3,55.4-13.9,82.7c-0.4,2.4-0.7,5.3-2.1,7c-5.5,6.2-5.8,11.7-3.3,20.2c2.2,7.6-1.5,17.3-4.2,25.6
	c-1.2,3.5-6.1,6.2-9.8,8.5c-4.7,2.8-9.7,5.6-14.9,6.7c-6.9,1.5-13.7,7.6-21.2,1.4c-8.9-7.5-17.4-15.2-17.3-28.2
	c0.2-17.9,0-35.9,1.2-53.8c1.2-16.9,4.2-33.6,6.3-50.4c0.2-1.9,0-3.8,0-5.8c-1.8-0.8-3.3-2.2-4.4-1.9c-12.6,3.1-21.3-2.2-30-11
	c-13.2-13.4-11.8-28.9,5.5-36.8c9.9-4.5,20.5-7.7,31-10.7c7.9-2.3,12.4-5.9,14.6-14.6c4.7-18.8,10.3-37.4,16.8-55.6
	c6.7-18.6,14.8-36.8,22.5-55c14.7-34.9,37.3-64.3,63.2-91.3c5.8-6,12.4-11.4,19.4-15.9c15.9-10.2,32.5-11.2,51.4-7
	c23.2,5.2,45.6,10.9,63.9,26.6c5,4.3,10,10.6,11.3,16.8c4.7,21.3,7.7,43,11.4,64.5c1.4,8.2,3.4,16.4,4.8,24.7
	c0.8,4.9,2,10.1,1.1,14.8c-1.6,8.7-0.5,16.3,3,24.5c2.8,6.6,2,14.7,2.8,22.1c0.8,7.4,1.6,14.8,2.4,22.4
	C1767.5,787.4,1784.8,785.1,1799.5,795.9z M1640.7,630.5c-3,0.6-4.3,0.4-4.8,1c-6.8,7.8-14.4,15.2-20.1,23.8
	c-5.4,8.2-6.8,18.9-16,24.8c-0.7,0.4-0.6,1.9-1.1,2.7c-2.3,4.3-4.2,8.9-7,12.8c-12.5,17.6-19.6,37.1-21.6,58.6
	c-0.2,2.1-1.7,4.5-3.2,6c-7.9,8-6.6,17.7-7.6,27.4c30.7-1.8,59.4-3.5,88.2-5.2c6.4-0.4,10.3-3.1,10.5-10c0.1-3.5,0.6-7,0.2-10.4
	c-4-37.1-8-74.1-12.4-111.1C1645,644,1642.4,637.2,1640.7,630.5z"/>
<path d="M2467.7,579.9c17.6-2.3,34.3-1.9,50.2,5c9.5,4.1,18.8,8.9,28.1,13.6c13.4,6.7,17.1,18.5,16.5,32.4c-1,22.8-2.6,45.6-3,68.4
	c-0.6,36.2-0.7,72.4-0.5,108.6c0.1,23.2,1.3,46.4,1.9,69.6c0.1,4.5-0.6,8.9-0.8,13.4c-0.2,3.5-1.5,7.6-0.1,10.3
	c9.8,19.2,5.9,40.4,9.3,60.6c0.5,3-2,9.1-4.2,9.7c-9.8,2.5-18.4,9.8-29.9,6.7c-5.2-1.4-11.5,1.3-19.5,2.5
	c-9.5-10-22.2-19.8-30.1-32.6c-7.6-12.4-11-27.5-14.7-41.9c-11.5-44.7-13.1-90.5-16.1-136.2c-3.4-53.4-1.9-106.5,2.9-159.7
	C2458.8,598.7,2462.7,589.2,2467.7,579.9z"/>
<path d="M2867.1,1956c0-2.1,0-4.1,0-6.2c0.7-0.1,1.4-0.1,2.1-0.2c0.3,2,0.6,4.1,0.9,6.1C2869,1955.8,2868,1955.9,2867.1,1956z"/>
<g>
	<path class="st1" d="M3183,1761.9c-38.3-109.6-152.8-185.1-268-184.2c-5.4,0-10.4,0.7-15.6,1c-16.3-17.6-35.7-33.8-59.5-47.8
		c-100.4-58.9-208.8-15.8-276.3,65.1c-0.2-7.3-0.8-14.6-2.2-22c-19.6-107-127.4-135.1-221.9-149.2c-11.5,6.2-23.8,11.2-36.9,14.8
		c-15.7,2.1-31.3,4.2-47,6.3c-24.3,0.9-47.1-4.2-68.1-15.2c-18.9-6.1-35.6-16-50.1-29.7c-35.8-2.2-71.8-2.5-106.5,1.2
		c0.6-3.9,1.5-7.8,2.6-11.9c-9.3,1.6-18.9,2.2-28.8,1.9c-17.9-0.1-35.1-2.6-51.6-7.7c-3.8,1.6-7.7,3.1-11.7,4.4
		c-9.6,5-19.5,8.8-29.8,11.4c-1.2,12.5-1.1,24.9,0.5,37.3c-5.2,3-10.4,5.9-15.4,9.3c-37,25.3-61.9,58.2-78.3,95.2
		c-0.2-1.2-0.5-2.4-0.7-3.6c-3-31.4-1.9-63,6.7-94c4.1-14.9,9.6-29.3,15.9-43.5c-19.7-3.7-38.4-10.7-56.3-21l-35.8-27.6
		c-3.5-3.5-6.8-7.1-9.9-10.8c-3.5,7-6.9,14-10.1,20.9c-65.1-54.4-157.9-67.6-240.7-37.4c-52.3,19.1-97,56-130.4,99.9
		c-17.4,22.8-31.5,46.8-43.1,72.9c-19.8,44.4-28.5,62.2-76.3,79.7c-91.4,33.5-189.9,119.8-161.3,231.4c11.7,45.5,48.6,66.8,91.7,75
		c50.1,9.6,94.9,16.9,137.3,31.9c-7.5,21.6-15.7,42.7-26.1,62.9c-14.9-8.9-29.9-16.9-44.7-23.7c-34.2-15.8-76.2-27.3-118.4-30.1
		c-35.5-19.6-73.3-34.3-112.3-42.2c-262.6-53.4-348.9,273.3-141.8,405.8c37.8,24.2,76.3,37.4,115.3,44.5
		c8.5,36.6,33.1,69.4,64.9,96.8c-10.9,5.5-21.7,10.9-32.6,16.4c-76.9,38.9-79.4,168.6,0,206.7c48.8,23.4,97.9,40,151.4,44.1
		c100.5,65.5,239.5,56.3,355.2,53.3c154.9-4,309-21.2,462.7-39.7c141.1-17,288.5-27.2,426.9-61.7c37.5,1.5,74.9,3.4,112.5,5.5
		c131.2,7.4,277.5,10.9,398.9-47.7c77.5-37.4,129.3-109,134.9-188.3c2.1-7.7,3.5-15.3,4.3-22.7c14.6-15.3,22.9-35,16.4-57.5
		c-8.9-31-20.6-58.9-34.4-84.4c21.7-50.3,66-102.1,82.2-141.1c20.3-49.1,30.5-102.5,19.9-154.8
		C3188.9,1910.6,3214.5,1851.9,3183,1761.9z M1005.5,2218.5c-65.5-11.3-122.4-40.5-140.1-109.6c-17.2-66.9,21.7-109.2,79.3-112
		c-2.6,4.2-5.4,8.3-7.7,12.9c-40.8,81.3,11,156.6,82.6,191.8C1014.7,2206.7,1010,2212.4,1005.5,2218.5z M1081.8,2044.3
		c23.3,15.5,44.9,33.6,63.7,53.3c0.1,0.1,0.2,0.3,0.4,0.4c-4.2,1.1-8.5,2-12.8,2.6c-12.3,1.7-56.1,4.5-68.3-8.3
		C1033.4,2059.5,1058,2048.1,1081.8,2044.3z M1158.7,2372.1c-20.5-8.2-40.4-18.9-49.8-32.5c17.1-0.6,34.2-1.5,51.4-2.3
		c2.1,10.3,3.6,20.7,6.5,30.8C1164.1,2369.5,1161.4,2370.8,1158.7,2372.1z M1343.4,2225.5c-3-13-6.3-25.9-10.2-38.5
		c1.3,1.9,2.8,3.8,4.1,5.6c7.5,10.9,14.7,23.3,20.6,36.2C1353.1,2227.7,1348.2,2226.5,1343.4,2225.5z M1439.1,2127.6
		c-18.2-27.4-40.1-52.9-64.4-76.1c10.5-17.2,19.9-35,28.1-53.1c2.9-6.5,5.5-13.7,8.1-21.3c24.1,20.8,45.6,44.2,65.1,69.1
		C1458.9,2073.1,1445.7,2100.5,1439.1,2127.6z M1552.4,1951.4c-30.6-35.7-65.3-68.2-103.5-95.7c9.8-22.2,22.3-41.2,39.5-52.8
		c6.1-4.1,12.5-7.2,19-9.9c13.8,14.1,30.9,25.9,51,33.8c30.8,12.1,61.6,22.2,91.7,32.3C1622.9,1883,1587.1,1915,1552.4,1951.4z
		 M1666,2105.9c-1.5,1.7-3.3,3.7-5.5,6c-9.9-19.9-21.1-39.3-32.8-57.9c11.2-11.2,20.8-20.6,25.2-25.5c5.3-6,10.7-12.1,16.1-18.2
		C1666.8,2042.2,1665.7,2074,1666,2105.9z M1536,1612.1c-33.5,15.8-53.2,39.3-61.4,65.4c-52.6,16.2-98.8,54.5-128,121.3
		c-20.5-8.3-41.7-15.1-63.5-20.2c-23.4-5.5-47.6-5.8-70.8-10.7c-9.2-1.9-14,1-16.3,4c0.5-2.4,1.1-5.8,1.5-10.9
		c1.3-14.8,11.4-30.3,21.5-40.8c40.3-42,107.7-23.5,150.9-63.7c36-33.5,40.1-89.8,63.5-130.8c34-59.5,100.1-112.4,173.1-94.7
		c53,12.9,79.6,54.6,91.6,107.3c1.3,18.1,3.7,36.2,6.9,54.2C1643,1585.7,1581.5,1590.7,1536,1612.1z M1826.9,2046.7
		c5.4-20.8,8.7-42.2,10-63.6c5.5,13.4,11,26.8,16.6,40.1C1844,2030.2,1835,2038.1,1826.9,2046.7z M1989.1,1958.3
		c-15-25.8-32.4-49.5-51.9-71.3c12.9,5.4,24.8,13,34.8,23.7C1991.7,1931.8,1994.9,1946.9,1989.1,1958.3z M2295.6,2055.1
		c-7.9,5.2-16.4,10-25.1,14.7c-76.7,4.3-153.4,12.8-229.1,23c-0.5-2.4-1.1-4.8-1.7-7.2c18.8-8.5,36.2-20.5,48.7-36.8
		c26-33.8,32.4-72.2,26-109.6c15.2,10.4,32,19.6,50.9,27.2c53.5,21.5,116,23.6,171.4,41.3C2328.4,2025.9,2315.8,2042,2295.6,2055.1z
		 M2336.2,1885.7c-64.8-15.2-154.6-16.5-189.6-82.6c-13.5-25.4-22.7-86.6-8-114.8c28.7-54.9,101.6-1.7,132.6,23.7
		c56.5,46.3,81.8,109.6,84,178.7C2348.9,1888.9,2342.6,1887.2,2336.2,1885.7z M2418.9,1671.6c-3,6.1-5.7,12.2-8.4,18.2
		c-35-49-82.8-89.6-140.3-120.4c-118.7-63.5-226.6-32.3-251,108.3c-7.3,42-7,82.2,0.8,119.2c-10.5-7.4-21.3-13.8-32.4-18.9
		c-10.8-5-21.7-8.7-32.6-11.9c2.8-36.2-12.4-75.7-46.3-102c2.1-28.8,8.5-56.5,23.2-80.4c39.6-64.7,108.8-61.1,175.7-59.6
		c69,1.6,138.2,6.9,206.5,17.2C2396.1,1553.7,2468.1,1569.8,2418.9,1671.6z M2699.1,1755.6c-9.7-3.4-20.5-6-32.6-7.3
		c-21.7-2.4-40.1-0.1-55.7,5.7c20.2-62.9,53.8-115.9,109.1-128.9c19.1-4.5,35.6-2.6,49.8,3.5
		C2733.3,1660.5,2710.2,1705,2699.1,1755.6z M2837.7,1769.2c-1,38-10.8,76.2-23.5,113.4c-9.8-52.9-14.4-114.8,20.4-152.6
		C2837.1,1743.6,2838.1,1757,2837.7,1769.2z M2914.3,1974.4c3.3-8.6,6.4-17.3,9.4-25.9c15.1-15.1,33.7-22.3,56.3-15.4
		C2958,1946.6,2935.8,1959.9,2914.3,1974.4z M2977.3,2128.9c-5.2,8.7-10.3,17.3-15.3,25.8c-12.4-11.8-25.5-23-39.3-33.7
		c21.5-21.7,46.6-40.2,71.3-57c7.4-5.1,14.9-10,22.4-15C3005.8,2079.7,2989.1,2109.4,2977.3,2128.9z M3073.3,1845.9
		c-32.2-25.7-72.5-39.4-115-36.3c4.8-37.1,5.1-72.8-0.1-106.4c21.8,6.1,42.5,16.6,60,29.9
		C3056.1,1762.1,3081.9,1806.1,3073.3,1845.9z"/>
	<path class="st2" d="M2259.4,1457.6c1,4,1,8,5,10c34-10,70-7,105,2c3,1,6,2,9,3c60,21,110,66,132,126c2,6,3,12,4,19c1,1,2,3,4,3
		c15,0,30,1,45.2,1.9c-0.7-17.5-4.7-0.5,0,0c-0.9-23.4-0.3-47,2.6-70.2c2.8-21.8,7.8-43.8,17.2-63.8c8.4-18,20.8-34.2,37.8-44.8
		c18-11.2,39.6-14.8,60.4-11.3c20.1,3.3,39,12.8,55.1,25.2c16.5,12.7,29.9,28.8,41.4,46c11.9,17.9,21.9,37,31.8,56.1
		c5.1,9.8,10.3,19.6,16,29c5.2,8.4,10.7,16.9,18.3,23.4c17.9,15.2,39.6,8.7,59.6,1.9c21.7-7.4,43.4-11.7,66.5-10.2
		c22.1,1.4,43.8,7.4,64.1,16.1c20.1,8.6,39,19.8,56.8,32.3c18.2,12.8,35.4,27.1,51.7,42.2c16.7,15.4,32.6,31.7,48,48.5
		c6.6,7.2,13.4,14.7,17.4,23.8c4.3,9.7,4,20.1,0.4,30c-3.7,10.2-10.2,19.2-16.6,27.8c-6.7,9.1-13.5,18.2-20.4,27.2
		c-13.8,18.2-28.1,36-43.3,53.1c-14.8,16.7-30.4,32.7-47.2,47.3c-16.3,14.2-33.8,27.2-52.7,37.9c-18.9,10.7-39.2,19.2-60.4,24.2
		c-10.8,2.6-21.9,4.2-33,5c4.3,30,11.7,59.9,22.3,88.4c15.8,42.2,36.8,82.2,64.6,118c-0.9-0.7-9.8-13,0,0
		c-0.9-0.7-19.5-15.3-18.8-16.2c0.9-1,9.8,7,10.6,7.6c2.9,2.6,5.8,5.4,8.2,8.5c-33.5-26.3-67-52.6-100.6-79
		c-33.5-26.3-67-52.6-100.6-79c-32-25.1-63.7-50.8-97.5-73.4c-32.1-21.5-66.4-40.4-103.4-51.7c-38.2-11.6-78.9-14-117.8-4.7
		c-33.9,8.1-66.6,25.4-88.6,52.9c-22.3,27.8-31.5,63.4-33.4,98.5c-2.4,42.1,3.9,84,5.6,126c1.7,42.1,0,84.3-5.1,126.1
		c-5,41-13.2,81.6-24.7,121.4c-2.8,9.7-5.8,19.4-9,29c-14.6-33-29.2-66.1-43.8-99.1c-14.5-32.8-29-65.6-43.6-98.5
		c-14.5-32.8-28.8-65.6-43.5-98.3c-11.8-26.4-25.4-54.5-48.3-73.2c-5.3-4.4-11.2-8.1-17.4-11c-3.5-1.6-7.1-2.8-10.8-3.9
		c-2.1-0.6-5.4-2.1-7.6-1.5c-2.4,0.6-2.5,3.4-3.1,5.6c-0.9,3.6-2.2,7.1-3.2,10.7c-2.5,8.3-4.6,16.7-6.5,25.2
		c-7.6,34.1-10.4,69.3-8.3,104.2c1,17.4,3.3,34.8,6.8,51.8c3.4,16.3,7.8,32.4,10.8,48.9c2.9,16.4,4.3,33.3,1.2,49.7
		c-2.6,13.9-8.8,26.6-17.2,37.9c-17.2,23.1-41.3,41.4-63,59.8c-26.2,22.2-53.1,43.6-81.4,63.1c-27.6,18.9-56.4,36-86.9,49.9
		c-30.9,14.1-63.3,24.9-96.9,30.3c-34.1,5.6-69.2,5.9-103.4,0.4c-32.3-5.2-63.8-15.9-91.8-32.9c-27.2-16.4-49.3-38.5-67.6-64.4
		c-18.2-25.8-32.6-54-49.8-80.5c-16.8-25.9-37-49.5-63.9-65.3c-24.7-14.6-54.7-22.9-83-15.1c-28.7,8-48.6,31.4-55.2,60
		c-7.3,31.7-0.8,65.5,8.7,96c5,16,11.1,31.6,17.9,46.8c-29.5,10.2-59.3,20.4-90.1,25.9c-29.8,5.4-60.7,6.2-90-2
		c-25.4-7.1-49.8-20.7-66.9-41.1c-9.1-10.8-15.2-23.2-19.4-36.6c-4.1-12.8-6.7-26.3-12.9-38.4c-5.9-11.6-15.2-20.7-28.8-21.2
		c-10.3-0.4-24.8,3.9-28,15c-0.9,3.2-0.7,6.5,0.5,9.6"/>
	<path class="st2" d="M1991.1,1403.7c-74.7,33-132.7,100-152.7,182c-1,4-3,7-4,11c-3,9-3,17-5,26c0,3,0,5-0.2,8.2
		c-12.3-2.7-1.2-3.6,0,0c-16.8-4.2-34.8-1.2-49.8,9.8c-2,2-4,3-7,5c-6,5-10,11-13,18c-58-28-124-41-188-33c-15,23-13,53-4,78
		c4,10,7,19,14,28c1,1,2,2,3,3c22,36,58,53,93,73c8,5,16,7,24.1,11.3c-0.1-2.3-3.2-1.1,0,0c0-3.4,0.9-7.3-1.1-10.3
		c-1.2,3.5-1.7,7.4,1.1,10.3c0-2.9,0.6-7.3-0.5-10c-0.9,2.3-1.2,8.1,0.5,10c0-22.3,10.2-43.6,25.4-59.5c15-15.6,35.1-26.7,56.6-29.9
		c22.2-3.4,45.3,2.6,62.8,16.8c16.7,13.6,27.9,33.5,32.6,54.4c4.9,21.9,2.7,45.9-8.7,65.5c-1.5,2.7-3.3,5.2-5.1,7.7
		c-17.2-14-39.5-17.7-61-15c-18.9,2.4-36.7,10.5-51.7,22.2c-15.2,11.9-27.5,27.5-36,44.8c-10.3,20.9-14.6,44.8-16.5,67.9
		c-2,24.8-1.2,49.9,1.9,74.6c0.4,3.1,0.7,6.3,0.7,9.4c2.7-2.4,7-5.3,8.7-8.6c-2.7,1-8.2,5.6-8.7,8.6c34-30.1,79-61.1,126-46.1
		c6,2,13,4,18,10c3,5,7,9,10,14c10,19,13,39,18,60c1,7,2,14,4,21c1,7,1,15,1,22c6,54,9,107,1,161c0,5-1,10-1,15c-8,55-24,106-45,157
		c-1,1-3,1-5,1c-2-1-4-2-6-2c-3,0-7,0-10-1c-3-2-7-3-10-5c-13-5-25-10-37-17c-1-1-2-2-3-3c-15-9-25-21-35-35c-2-3-5-4-7-7
		c-28-41-29-91-6-133c4-7,9-13,14-20c3-3,6-6,9-9c10-8,20-15,31-20c3-1,6-2,10-2c2,0,3-3,5-4c15-3,30-7,45-9c8,0,15-1,23-1
		c9,1,19,1,28,2c6,1,12,2,18,4c12,2,23,5,35,10c17,6,32,14,48,23c11,7,20,14,31,22c8,5,13,11,20,17c19,19,35,38,49,61
		c7,11,12,22,17,34c6,15,10,30,15,45c4,14,5,27,6,41s0,28-1.9,41.6c0.8-2.1,1.4-4.7,1.3-6.9c-0.8,2.1-0.9,4.7-1.3,6.9
		c1.9-3.6,3.9-7.5,3.9-11.6c-3,3-3,7.7-3.9,11.6c1.4-3.2,3.1-6.5,4.1-9.9c-1.7,2.9-3.4,6.6-4.1,9.9c9-20.8,12.4-43.9,11.1-66.5
		c-1.3-23.2-7.2-46-15.2-67.7c-8.1-22-18.5-43.1-29.9-63.5c-11.7-21-24.4-41.4-36.1-62.3c-11.5-20.5-22.2-41.5-30.4-63.6
		c-8.1-21.8-13.8-44.8-14.6-68.2c-0.8-23.8,5-47.1,10.7-70c5.8-22.9,10.5-46.6,7.2-70.3c-3-21.3-11.8-41.6-24.3-59
		c-12.1-16.7-27.9-30.8-46.2-40.3c-5-2.6-10.3-4.9-15.6-6.7c25.4,8.7,48.8,23,68.6,41.2c32.6,28.4,53.6,68.4,61.4,110.9
		c13.8-11.8-2.8-16.1,0,0c13.8-11.8,22.7-28.2,26.6-45.8c3.9-17.5,3.1-36.1-1.6-53.4c-5.2-19.1-15.5-36.4-28.3-51.4
		c-13.2-15.3-28.9-28.3-45.7-39.5c-15.3-10.3-31.7-18.7-47.6-28.1c-15.3-9.1-30.4-19.5-41.7-33.6c-13.5-16.9-18.4-37.5-19.4-58.7
		c-1.2-24.1-0.4-48.7,1.8-72.7c1.8-19.8,5.3-39.7,11.9-58.5c6.1-17.4,15.2-34,28.4-47c14.5-14.3,33.3-22.9,53.2-27
		c20.7-4.2,41.9-4,62.9-3.5c23.7,0.6,47.4,0.9,71.2,1.2c25.4,0.3,50.7,0.7,76.1,1c25.4,0.3,50.8,0.7,76.2,1
		c25.1,0.3,50.4,0,75.4,2.4c18.6,1.8,37.1,4.6,55,10.1c17.7,5.4,34.9,13.6,48.6,26.3c15.3,14.2,24.8,33.5,26.2,54.4
		c1.5,22.9-6.6,45.3-16.6,65.5c-5.3,10.6-11.2,20.9-17.2,31.1c-16.7-20.4-35.3-39.2-55.5-56.1c-20.3-17-42.1-32.1-65.1-45.2
		c-23.4-13.3-47.9-24.4-73.3-33.2c-25.9-9-52.6-15.5-79.7-19.5c-27-3.9-54.9-7-82-1.7c-12.3,2.4-24.4,6.9-34.5,14.4
		c-9.6,7.2-16.9,16.9-22.3,27.5c-11.8,22.7-17.2,48.3-20.5,73.5c-3.6,28.1-3.8,56.7-0.4,84.9c3.2,26.9,9.6,53.5,18.8,79
		c8.9,24.7,20.6,48.5,34.7,70.6c14,21.8,30.4,42.1,49,60.2c18.5,17.9,39.2,33.6,61.5,46.3c22.6,12.8,47.2,22.9,73,26.9
		c24.6,3.8,50.5,1.2,72.7-10.7c19.4-10.4,36.1-27.6,43-48.8c7.6-23.3,1.5-48.3-12.4-67.9c-14.1-19.8-34.7-34.2-56.2-45
		c-24.2-12.1-50.3-19.5-75.5-29.1c-22.8-8.7-45.5-19.5-63.7-36.2c-16.4-15.1-31.3-38.6-20-61c10-20,33.1-29.5,54.6-28.5
		c25.4,1.1,48.5,14.8,68.7,29.2c21.3,15.2,40.8,32.8,58.1,52.4c17.2,19.4,32.4,40.9,44.6,63.8c12.2,22.8,20.7,47.1,28.8,71.5
		c6.7,20.1,15.2,44.1,34.4,55.6c22.8,13.7,46-3.1,61.8-19.5c16.7-17.3,28-38.9,35.1-61.7c8-26,11.1-53.2,13-80.2
		c2-28.3,2.6-56.7,4.8-85c2.1-27.5,5.7-54.9,14-81.3c7.8-24.6,19.2-48.1,33.8-69.4c14.2-20.8,31.4-40.1,51.2-55.8
		c19-15,41.4-25.6,65.1-30.8c23.5-5.1,49.5-5.2,71.2,6.2c18.6,9.8,31.3,28.3,34.1,49.2c3.2,24.3-6.1,48.7-19.6,68.6
		c-14.4,21.3-34.1,38.3-53.2,55.4c-18.6,16.6-37,33.9-49.9,55.5c-13.1,22-20.4,47.3-21.8,72.8c-1.4,25.2,3.1,50.8,13.7,73.7
		c12.6-28.1,26.6-55.7,42.5-82.1c15.5-25.8,32.8-50.5,52.4-73.3c18.9-22,40-42.2,63.8-58.9c23.5-16.4,49.6-29.2,77.4-36.3
		c29.8-7.6,61.4-8.6,91.5-1.6c27.5,6.4,53.5,18.8,76.3,35.6c22.3,16.5,41.5,37.1,56.2,60.7c15,24.1,24.9,51.5,28.5,79.7
		c2.2,17.6,2.5,40.2-11.6,53.3c-9.4,8.7-22.7,9.8-34.9,9.6c-14.5-0.2-28.8-1.6-42.9,2.7c-25.4,7.8-41.8,30.8-52.3,54
		c-11.6,25.5-17.2,53-26.9,79.1c-8.9,24.1-22.4,49.1-44.2,63.8c-20.9,14.1-47.4,13.6-67-2.4c-20.2-16.5-28.6-44.4-27.2-69.8
		c1.5-28,15.8-53.4,31.9-75.6c17-23.5,36.8-44.7,52.6-69c15.5-23.8,27.7-51.5,26.8-80.4c-0.4-12-2.4-26-10.8-35.2
		c-8.2-9-21.5-10.8-32.8-7.6c-27.6,7.9-37.4,42.1-46.1,65.9c-11,30.3-22.6,60.3-33.9,90.5c-11,29.4-21.4,59.2-33.5,88.2
		c-10.6,25.2-22.8,50.4-42.5,69.8c-19.7,19.5-46,30.7-73.2,34.7c-30.5,4.5-61.7,0.7-91.5-6.2c-30.6-7-60.3-17.6-90.6-25.8
		c-30-8.1-61.1-14.1-92.2-12c-28.7,2-56.4,11.4-80.9,26.4c-23.5,14.5-44,33.8-60.3,56.1c-16.8,23-29.4,49.1-36.4,76.7
		c-7.6,29.9-8.7,61.4-4.8,92c3.8,29.8,12.6,58.8,24.9,86.1c12,26.5,27.4,51.7,45.9,74.2c16.4,20,36,40,61.6,47.4
		c25.6,7.5,52-2.2,70-21.2c18.1-19.1,28.4-45.3,29.5-71.5c1.2-27.3-9.8-53.3-26.5-74.5c-17.1-21.8-39.8-38.5-63.9-51.8
		c-26.4-14.6-54.9-25.2-83.5-34.8c-29.3-9.9-58.9-19.2-87.1-32.1c-24.7-11.3-48.5-25.4-68.2-44.2c19.9-15.2,41.2-28.5,63.6-39.9
		c22.5-11.4,46-20.8,70.2-28.1c25-7.5,50.6-12.8,76.5-15.7c26.3-3,53-3.6,79.4-1.7c26,1.9,51.9,6,77.1,13
		c23.5,6.5,46.3,15.7,67.1,28.4c19.4,11.8,37.2,26.9,50.1,45.7c13.2,19.2,20,42.3,20.3,65.5c0.3,26.2-6.4,51.8-11.5,77.3
		c-5,24.9-8.9,51.2-2.8,76.3c5.1,20.9,17.7,39.4,34.4,52.8c17.9,14.3,40.2,23,63,24.6c23.5,1.7,47.1-5,66.7-18
		c18.4-12.2,33.2-29.5,43.2-49.1c11.1-21.7,15.7-46.4,14.2-70.7c-1.7-25.7-9.6-50.4-14.1-75.7c-4.3-24.1-5.3-49.8,3.6-73
		c7.1-18.5,21-34.8,40.3-41c22.2-7.1,45.4,1.8,62.7,16.1c17.2,14.1,30.4,33.3,38.5,53.9c9,22.9,11.5,47.9,10.4,72.4
		c-1.1,25.4-6.5,50.6-15.5,74.5c-8.5,22.7-20.2,44.1-34.4,63.7c-14.1,19.5-30.6,37.1-49.1,52.5c-18.7,15.5-39.3,28.5-61.4,38.5
		c-22.8,10.3-47.1,17-71.8,20.2c-26,3.3-52.4,2.8-78.3-1.1c-25-3.8-49.4-10.7-72.8-20.3c-23-9.4-44.9-21.4-65.2-35.5
		c-20.1-14-38.8-30.1-55.5-48.1c-16.6-17.8-31.1-37.5-43.3-58.5c-13.1-22.4-23.9-46.1-36-69.1c-11.2-21.3-23.5-42.3-39.7-60.3
		c-15.2-16.9-33.8-30.5-54.5-39.7c-23.1-10.3-48.1-15.7-72.9-19.8c-26.5-4.5-53.1-7.7-79.8-10.4c-26.4-2.7-53.1-4.2-79.7-2.3
		c-25.2,1.8-50.5,6.6-73.9,16.4c-20.9,8.8-39.8,22.1-55.1,38.8c-15.5,16.8-27.7,37-33.7,59.1c-6,22.1-5.2,46.2,4.2,67.2
		c-17.8-16.3-36.5-31.6-55.9-46c-46.9-33.5-97.9-62.5-151.9-84.5c-3-1-6-1-9-2c-56-23-116-39-176-41c-12-1-24,0-37,2c-6,2-12,1-18,3
		c-14,5-27,9-39,17c-7,5-13,10-18,16s-8,12-12,19c-1,2-2,5-3,7c-14,54-2,108,17,158c5,11,10,21,16,32c5,9,10,17,17,24
		c7,8,13,15,22,22c22,15,46,24,72,22c6-1,12-1,18-2c23-4,43-13,65-21c7-3,13-6,20-9c11-4,22-9,34-11c7-1,14-2,21-3s13,0,20,1
		c6,1,11,2,16,4c6,3,12,6,17,10c8,7,15,15,20,24c4,9,6,18,7,27c3,26-6,50-20,73c-7,10-15,18-25,26c-7,5-13,8-20,12
		c-0.5-1.2,8.3-3.8,0,0c-0.5-1.2-5.7-14.3-0.1-10.1c3.3,2.5,4.3,8.1,0.1,10.1c-10.6-21.1-14.6-44.8-13.8-68.3
		c0.8-24.7,5.8-49.7,15.8-73.7c2-6,4-12,6-18c1-2,3-4,4-6c28-64,74-111,113-171c18-28,33-55,43-86c3-10,6-20,8-30c2-12,2-23,3-35
		c0-10-1-19-3-29c-9-39-28-70-44-105c-8-19-13-39-14-60c-1-35,1-70,4-106c8-86,17-169,27-255c3-19,9-36,16-54c2-5,5-11,8-16
		c9-13,18-24,31-33c7-4,12-9,19-13c21-12,42-18,65-22c25-4,49-4,74-2c6,0,11-1,17,0c16,3,30,5,46,6c7,1,14,3,21,5c2,0,4,0,5-1
		c0-1,1-1,1.4-2.2"/>
	<path class="st2" d="M1741.7,1367.9c-5.3,76.8-11.3,153.8-16.2,230.4c-0.7-3-0.7-7.6,0.4-10.5c0.6,3.3-0.1,7.2-0.4,10.5
		c-1.1-6.5-4.1-12.8-3.1-19.6c5.1,5.2,1.9,13.3,3.1,19.6c-1.2-4.6-3.1-9.7-3.5-14.5c1.9,4,3.5,10,3.5,14.5
		c-7.9-30.4-18.4-60.4-33.9-87.8c-14.2-25-32.8-47.9-56.6-64.2c-24.3-16.6-53.8-26.4-83.3-25.6c-28.1,0.8-54.9,12.5-74.5,32.6
		c-20.1,20.7-32.1,47.5-43.6,73.5c-11.9,27-23.1,55-42.4,77.8c-17.9,21.2-42.5,34.3-68.4,43.3c-27.1,9.3-56.1,14.8-80.6,30.6
		c-22.2,14.3-35.9,38.6-33.1,65.3c2.8,26.9,20.3,50.3,41.1,66.4c24,18.5,53.2,27.4,82,35.1c30,8,60.3,15.8,88,30.3
		c27.1,14.2,51.2,33.8,72.9,55.2c22.7,22.5,43.2,47.1,62,72.9c18.7,25.6,35.6,52.7,49.2,81.3c13.6,28.7,24.2,59.2,29.1,90.7
		c5.3,33.6,3.5,67.7-1.4,101.2c-4.9,33.1-11.8,66.1-12.2,99.6c-0.4,32.4,5.5,64.8,16.9,95.1c10.6,28.3,25.9,54.9,45.3,78.2
		c9.7,11.7,20.4,22.5,32,32.2c-21.1-4.8-41.2-13.4-59.7-24.5c-18.9-11.2-36.2-24.8-52.6-39.4c-17.3-15.3-33.6-31.6-49.9-48
		c-16.5-16.6-32.9-33.2-50.3-48.9c-16.4-14.8-33.6-28.7-52.3-40.3c-18.3-11.3-38.2-20.4-59.2-25.4c-21.2-5.1-43.9-6.3-64.9,0.1
		c-17,5.2-31.8,15.9-40.4,31.6c-10,18.3-12.5,40.8-14.3,61.3c-2.1,23.2-2.7,46.5-1.1,69.8c0.8,11.7,2.1,23.5,3.9,35.1
		c0.9,5.8,1.9,11.6,3.1,17.3c0.9,4.5,3.5,9.7,0.3,13.7c-5.2,6.5-15.2,9.9-23.2,10.6c-9.3,0.9-18.8-1.3-27.1-5.3
		c-17.5-8.3-28.3-24.1-34.4-42.1c-7-20.8-8.5-42.9-13.1-64.3c-4.1-18.9-10.8-38.4-24.8-52.4c-14.9-14.9-35.1-18.4-55.4-16.6
		c-21.6,2-43.8,8.1-65.2,1.2c-18.1-5.8-32.9-19.7-42.2-36c-10.1-17.5-14.5-38.9-9.7-58.7c4.7-19.5,19.1-32.9,30.5-48.6
		c12.7-17.4,17.2-37.9,10.3-58.6c-6.7-20.2-20.9-37.5-34.2-53.7c-13.5-16.5-27.5-32.9-37.9-51.7c-10.5-18.9-15.8-40.1-12.1-61.7
		c3.4-20,14.2-38.2,28-52.9c14-14.9,31.5-26.2,50.6-33.5c21-8,43.5-10.9,65.8-11.2c23.5-0.3,47,2.4,70.2,5.8
		c22,3.2,44.2,6.7,64.8,15.2c16.6,6.8,34.3,17.1,43.5,33.1c9.2,16,6.5,35.7-6.9,48.6c-14.1,13.5-35.6,15.4-54.1,13.1
		c-21.3-2.7-40.3-11.6-59.5-20.6c-19.7-9.3-40.7-18.4-63-18c-8.8,0.2-19.9,1.3-26.7,7.6c-7.2,6.5-9.4,18.5-9.5,27.8
		c-0.1,19.6,9.4,38.4,22.9,52.2c14.7,15,33.7,24.6,52.1,34c19.8,10.2,39.7,20.6,57.5,34.1c17.3,13.1,33,28.2,46.9,44.8
		c14,16.8,26.1,35.2,36,54.7c9.7,19.2,17.2,39.4,22.3,60.3c-27.2,2.7-54.6,4.1-82,4.2c-27.4,0.2-54.8-1-82-3.3
		c-26.9-2.3-53.7-5.8-80.3-10.6c-26.7-4.7-53.1-10.7-79.2-17.7c-25.5-6.9-50.8-14.8-75.2-25c-22.6-9.5-44.6-21.2-63.7-36.7
		c-17.4-14.2-32.2-31.8-41.1-52.5c-10-23.3-12-49.4-9-74.4c3-25.3,10.5-50,20.9-73.1c10.2-22.5,23.3-43.7,38.9-62.9
		c15.4-19,33.2-36,52.8-50.6c20-14.9,41.9-27.2,65.1-36.2c24.2-9.5,49.8-15.3,75.8-17.4c26.3-2.1,52.9-0.4,78.7,4.7
		c25.1,5,49.5,13.3,72.4,24.6c22.1,10.9,42.8,24.6,61.3,40.9c17.8,15.7,32,34.8,48.9,51.4c16.4,16.1,37.6,29.5,61.6,26.8
		c19.4-2.2,38.2-15.7,38.6-36.7c0.4-21.4-17.1-40.6-32.2-53.7c-18.2-15.7-39.4-27.2-61.5-36.4c-24.1-10-49.2-17.5-74-25.7
		c-23.9-7.9-47.6-16.3-69.3-29.3c-20.3-12.1-38.6-28-53-46.8c-14.4-18.8-25.5-41.3-26.5-65.3c-0.9-22.7,8.5-43.9,24.9-59.5
		c17-16.3,39.4-25,61.4-32.3c22.9-7.5,46.4-13.8,67.7-25.4c20.9-11.5,36.7-28.3,48-49.2c11.7-21.9,19.1-45.9,28.7-68.8
		c10-23.8,22-46.7,36.4-68.1c13.9-20.7,29.8-40.1,48-57.3c17.8-16.8,37.6-31.5,59.3-42.8c22.5-11.8,46.8-19.8,72-22.8
		c25.5-3.1,51.6-1.3,76.5,5.1c23.5,6,46,16.2,65.4,30.7c19,14.2,34.3,32.1,44.6,53.6c9.8,20.4,15.1,42.7,25.3,63
		c9.9,19.6,26.5,35.6,49.6,35.5c23.1-0.1,43.7-14.1,59.7-29.6c17-16.5,30.7-36.3,43.8-55.9"/>
	<path class="st3" d="M3143.7,2335.2c-3.3-35.6-36-71.9-75.8-57.7c-164.1,58.4-327.8,125.5-496.5,169.3
		c-176.9,45.9-360,50.6-541.8,51.2c-136.7,0.5-272.2,3-408.1,10.4c-118.1,0.1-236.1-1.7-353.5-10.5
		c-90.4-15.9-179.9-37.1-274.3-45.6c-8.1-0.7-16.4,1.3-24.1,5c-3.7-0.8-7.3-1.4-11-2.2c-53.6-11.5-107.2,58.6-58.2,100
		c15.7,13.3,30.4,27.2,44.7,41.3c6.5,14.3,14.9,28.4,25.6,42.6c13.2,17.5,26.5,34.4,39.7,51.2c0.1,9.7,2.7,20,9.4,30.4
		c72.9,113.5,138.4,231.3,194.1,354.2c27.9,61.5,52.5,124,75.8,187.3c0.7,2,1.5,4.1,2.2,6.1c-11.6,43.1,10,90.7,61.8,113.5
		c108.7,47.9,265.2,36.1,381.3,32.5c139-4.3,277.1-21.6,414.7-40.7c71.6-9.9,143.1-20.4,214.6-30.6c4.7-0.7,9.6-1.2,14.4-1.8
		c42.8,2.3,85.5,4,128.2,4.2c112.6,0.4,171.6-55.7,221.5-151.9c124.5-240.2,241.1-485,361-727.6
		C3124,2428.1,3148.4,2385.4,3143.7,2335.2z"/>
	<path class="st2" d="M1225.2,2875.8c50.4,136,77.5,279.3,119.3,418.2c8.8,29.2,19.6,60.2,44.2,78.3c18.7,13.8,42.7,17.9,65.7,21
		c88.1,12,177.3,15.5,266,10.5c223.8-12.5,443.9-78.8,667.8-69.9c85.8,3.4,180.9,15.3,249.1-36.9c37.4-28.6,59.8-72.1,78.8-115.1
		c87.1-197.2,129.2-418.5,261.3-588.8c52.1-67.1,119.3-129.2,135.4-212.6c3.3-17.3,4.1-36-3.5-52c-23.3-48.4-94.8-35-144.8-15.4
		c-280.4,109.6-577,174.4-876.2,208.2c-48.9,5.5-98.1,10.2-147.2,8c-66.7-3-132.1-18.8-198.3-27.7c-113.9-15.3-229.4-10.3-344.1-5.3
		c-74.4,0-149.3,6.6-223.7,9.8c-41.7,1.8-177.9-16.9-167.9,40.4c5.6,32.2,106.2,112.1,128,145.6
		C1172.3,2749.4,1201.5,2811.8,1225.2,2875.8z"/>
	<path class="st2" d="M1742.3,1372.3c-1.7-10.2,5-20.3,13.7-25.8c8.7-5.5,19.2-7.4,29.4-9.1c23.8-4.1,51-7.3,69.5,8.1
		c11.2,9.3,16.9,24.1,18.2,38.6c1.4,14.6-1.1,29.2-3.6,43.6"/>
	<path class="st2" d="M2190.3,1448.4c22.9,20.1,48.1,27.6,77.1,18.3c-8.6-9.4-17.3-18.7-25.9-28.1c-9.3-10.1-18.8-20.3-30.2-27.9
		c-24.4-16.2-55.2-18.9-84.5-19.3c-45.2-0.6-90.4,3-134.9,10.9"/>
	<path class="st1" d="M1829.3,1365.2c-17.4-17.5-46.6-17.8-65.3-2.5c-1.2,1-1.8,2.3-1.8,3.6c-7.2,0.5-7.1,12,0.5,12
		c17.5-0.1,34.4,8.7,45.5,22.2c0.2,0.7,0.5,1.3,0.7,2c0.6,1.8,1.9,3.3,3.6,3.9c4,6.4,6.8,13.6,7.9,21.2c0,0.2,0,0.4,0.1,0.6
		c0,0.2,0.1,0.3,0.1,0.5c0.9,7.5,12.7,7.7,12,0.2C1846.6,1410.4,1846.1,1382.1,1829.3,1365.2z M1828.2,1412.1
		c-1.3-3.4-2.9-6.6-4.7-9.7c3.5-3.4,5.4-8.2,5.8-13.1C1831.3,1396.8,1830.9,1404.9,1828.2,1412.1z M1803.8,1374.3
		c-0.1-0.2-0.1-0.5-0.2-0.7c4.9,1.5,9.6,3.9,12.3,8.1c1.6,2.5,2.2,6.5,1.1,9.5C1813.7,1384.6,1809.2,1378.9,1803.8,1374.3z
		 M1789.4,1365.3c-0.8-0.3-1.6-0.7-2.4-1c0.9-0.2,1.8-0.3,2.6-0.5C1789.5,1364.3,1789.5,1364.8,1789.4,1365.3z"/>
</g>
</svg>
