<svg xmlns="http://www.w3.org/2000/svg" viewBox="0 0 4000 3733.1"><title>pizzanight</title><rect width="4000" height="3733.1" fill="#a97eb7"/><path d="M720.8,3093.8c3.2-1.6,5.6-2,6.6-3.4,5-7.4,11.8-12.1,20.1-15a16.63,16.63,0,0,0,4.2-2.9c8.3-7.2,16.5-14.4,24.8-21.7,17.4-15.2,32.4-32.6,46.7-50.6a106,106,0,0,0,20.6-42.2,16,16,0,0,0-3.8-15.3,75.6,75.6,0,0,0-8.2-7.8c-24.1-19.1-52.3-28.6-82.3-33-11.3-1.7-14.1,1.4-14.4,13-.1,5.5.6,11,.9,16.5a74.92,74.92,0,0,1,.3,8.2c-.9,9.9-2.1,19.7-2.9,29.6-.2,2.7.5,5.4.9,8.1.7,4,1.7,7.9,2.3,11.8a94,94,0,0,1,1.4,13c.1,5,1,10.9-1.2,14.9a47,47,0,0,0-5.4,24.7c.3,10-2.6,18.8-7.3,27.4-4.1,7.5-4.3,15.3-3.3,24.7m-208.1,83.6c2.6-.7,5.4-1.8,8.4-2.4,16.5-3.3,33-6.6,49.6-9.7,6.4-1.2,12.9-1.8,19.3-2.7,2.4-.3,4.9-.1,7.1-1,16.3-6.3,17.6-7.5,18.5-23.3,2.1-37.4,4.1-74.9,6.4-112.3.7-10.6,2.2-21.2,3.2-31.8,2-22.6,4.2-45.2,5.8-67.9.4-5.4-.9-10.9-1.9-16.3-.7-3.9-3.7-5.9-7.7-5.1-10.4,2-20.8,4-31.2,6.2-9.1,1.9-18.1,4.2-27.1,6.2-16.4,3.6-32.6,8-49.6,7.2-2-.1-4.1-.3-5.2-.4-4.1-4.8-7.6-8.9-10.8-12.6,1.7-6.4,2.9-12.6,4.9-18.6s5.4-11.2,11.9-13.5c16.9-6,33.4-12.9,50.7-17.6,16.5-4.5,33.6-6.7,50.5-9.7,9.5-1.7,19-3.5,28.6-4.5,10.5-1.1,21.1-1.5,31.7-2.2,9.6-.7,19.2-1.2,28.8-2a279.37,279.37,0,0,1,62.6,1.9c17.9,2.6,34.9,8.2,51.8,13.4,37.1,11.4,55.5,24.8,82.5,53.9,2.9,3.2,6.2,6,9.8,9.3,3.3-4.4,5.7-8,8.6-11.1,8.1-8.6,18.9-10.4,30-11.6,19-1.9,24.6-1.5,44,5.4,5.6,2,8.1-1.1,11-6.2,5.2,25.3,16.1,48,14.6,73.4-.3,5.7,2.3,11.5,2.5,17.3.6,15.1.2,30.2.9,45.2.6,13.7,2.1,27.4,3.2,41.1.2,2,.4,4.1.5,6.1.3,18.2.1,36.5.8,54.7.5,11,2.4,21.9,3.6,32.8.6,6.1.9,12.3,1.4,18.4.2,2.4,0,5.2,1.2,6.9,3.5,4.9,4,10.3,3.3,15.8-1.4,11.5,2.3,23.2-2.4,34.6-1.4,3.3,0,7.7.1,13.5,3.3-2.4,5.3-3.2,6.3-4.6,6.6-9.7,12.9-19.4,19.3-29.2a39.92,39.92,0,0,1,2.7-4.4c8.8-9.7,16-20.6,22.8-31.7,7.9-12.9,16.8-25.1,24.3-38.2,8.6-14.9,16-30.5,24.2-45.6,7.9-14.5,16.5-28.6,24.3-43.1,8-14.9,15.4-30,22.9-45.1a34,34,0,0,0,2.7-8.9c.9-4,.1-7.4-3.6-9.9-11.8-8-24-14.5-38.8-15.4-26.1-1.6-52.2-3.8-78.3-6-11.3-.9-19.7-10.3-20.4-21.4-.3-5.6-2.8-10.7-.6-16.8,1.6-4.4,3.6-7.2,8-8.4,19-5,37.8-10.1,57.9-8.3,11.6,1,23.4.4,35.1.5,26,.2,51.5,4.8,76.4,11.7,18.6,5.2,36.8,11.5,51.6,24.8a115,115,0,0,1,11.2,11.9c2.7,3.3,3.9,6.8,1.1,11.3-1.4,2.2-.7,6-.1,8.9,2.7,13.1.6,18.4-10.3,25.5a17.12,17.12,0,0,0-5.2,6.1c-12.3,21.9-24.1,44.1-36.7,65.8-12.1,20.8-25.3,40.8-37,61.9-6.2,11.3-13.9,21.9-19.7,33.6-3.4,6.7-5.8,14-9.7,20.4-7.5,12.3-15.8,24.1-23.7,36.2-5.1,7.8-10.3,15.5-15,23.5-1.4,2.4-1.5,5.6-2.1,8.4,2.8.4,5.9,1.7,8.4,1,13-3.4,25.7-7.4,38.7-10.9,31.2-8.4,62.5-16.9,93.8-25,17.7-4.6,35.5-8.6,53.2-12.7,8.9-2,13.4-6.9,16.7-15.9a154.13,154.13,0,0,1,19.4-36.2c16-22.4,33.5-43.7,50.2-65.6,15.9-20.8,31.8-41.5,47.4-62.6q14.4-19.5,27.8-39.7c4.3-6.5,7.3-13.9,10.7-20.6-6.9-10.8-18.1-11.8-27.8-13.6a152.29,152.29,0,0,0-49.1-1.8c-17.3,2.2-35,1.5-52.6,1.7-10.3.1-20.7-.5-31-.4-11.4.1-18.6-7.1-21.7-16.1-3.2-9.3-2.7-20.2,5.3-28,3.2-3.1,8.4-4.7,13-5.4,22.1-3.4,44.2-7.1,66.4-9.1,16.3-1.5,32.9-1.1,49.3-.6,30.7.9,60.8,6.4,90.5,14a235.79,235.79,0,0,1,31.3,10.7,34.13,34.13,0,0,1,20.4,36.1c-3.8,1.1-9.3,1.1-6.9,7.9.3.9.6,2.6.4,2.7-7.2,3.6-4.6,10.7-6.4,16.3-1.3,4.1-4.2,7.7-6.7,11.4-3.4,5.1-6.7,10.4-10.5,15.1-7.9,9.9-15.6,20.1-24.6,28.9-4.8,4.7-8.8,9.4-11.6,15.4a76.27,76.27,0,0,1-8.2,14.1c-10.1,13.5-20.5,26.8-30.7,40.2a31.54,31.54,0,0,0-2.8,5.5c-2.1,4-3.5,8.5-6.3,11.7-11.8,13.7-19.3,30.1-28.2,45.6-.9,1.5-2.1,3-2.3,4.6-.5,3.5-1.8,7.8-.4,10.5.9,1.7,6.3,2.1,9.3,1.5,16.5-3.3,32.9-7.3,49.4-10.8,27.3-5.8,54-14.4,82-16.4,14.3-1.1,28.7.2,43.1.5a18.38,18.38,0,0,1,6.1,1.2c4.9,1.8,6.7,5.5,3.7,9.6a36.41,36.41,0,0,1-10.5,9.4c-5,3-10.7,4.7-15.8,7.5-3.2,1.8-5.7,4.7-8.6,6.9s-5.8,4.9-9.2,6.5c-14.2,7-29.2,11.8-44.4,16.4-20.4,6.1-41.9,8.2-61.5,17.2-5.5,2.5-11.9,3.6-18,4.5-19,2.9-38.1,6.1-57.2,7.9-10.2,1-20.6-.2-30.9-1.4a65.83,65.83,0,0,0-30.4,3.4c-15.2,5.4-30.4,10.6-46.6,13.1-12.4,1.9-24.3,7.1-36.5,10.8-11.9,3.6-23.7,7.2-35.6,10.8-14.5,4.4-29.2,8.3-43.4,13.4-24.4,8.7-49.4,15-74.7,20.2-18.1,3.8-36.3,5.7-54.3,2.2-9.8-1.9-18.8-7.7-28.1-11.9-4-1.8-7.8-4.4-11.9-5.9a11.73,11.73,0,0,0-12.5,2.5c-3.8,3.5-7.9,6.6-12,9.7a24.5,24.5,0,0,1-5.4,2.6c-4.1,1.6-8.4,2.9-12.4,4.8-9.8,4.8-14.3,3.7-21.2-4.6a12.72,12.72,0,0,0-7.6-3.9c-7.2-1-11.7-4-11-10.5,2.9-24.6-2.8-48.7-3.4-73.1l-3-116.7c-.7-30.2-1.3-60.5-2.1-90.7-.4-15.1-1.1-30.3-1.7-45.4-.1-1.7.1-3.6-.6-5.1-.9-2-2.7-5.5-3.6-5.4-2.3.3-5.3,1.9-6.4,3.8-14.6,26.9-34.3,49.3-58.3,68.1a53.4,53.4,0,0,0-9.4,9.6c-11,14.4-24.9,25.4-39.3,36q-20.7,15.3-41.6,30.5c-7.5,5.5-14.9,11.1-22.8,16-7,4.3-9.5,10.4-10.1,18-1.5,17.4-1.1,35-5,52.3a59.08,59.08,0,0,0,.2,24.4c2.7,13.8,3.1,28,4.9,42,1.5,12.3,3.4,24.5,5.4,36.7,1.4,9.1-1.6,13.6-11,14.4-4.1.4-6.5,2.6-9.7,4.5-8.8,5.1-16.5,12.4-26.9,14.4-2.3.4-5.1,1.1-6.5,2.7-6.1,6.6-14.1,9.1-22.2,12s-14.9,2.7-20.5-4.2a15.35,15.35,0,0,0-12.3-6.3c-5-.2-8.2-3.5-9.1-8.5a115.74,115.74,0,0,1-2.4-15.3c-1.2-26.2-2.3-52.3-2.9-78.5-.4-13.1.2-26.1.4-39.2.1-11.6-3.8-14.9-15.1-13.1-11.5,1.8-23.2,5.2-34.6,4.7-11.7-.5-23.3-4.9-34.9-7.8-2.2-.6-4.1-2.5-6.2-3.7-8.7-4-10.1-6.7-9.8-17.8m2525-60.6a14.92,14.92,0,0,0,2.1.2c.2-2,.4-3.9.5-5.9a12.25,12.25,0,0,0-1.9-.2c-.3,2-.5,4-.7,5.9m-299.9,36.5c.8.2,1.7.5,2.6.7.5-1.8,1-3.6,1.5-5.5a15.38,15.38,0,0,0-2.6-.5,38.71,38.71,0,0,0-1.5,5.3m608.3-153.1c1,.1,2.1.1,3.1.2.8-3.2,2.5-6.4-1.7-9.8-.5,3.2-.9,6.4-1.4,9.6m-292-7.9a28.1,28.1,0,0,0-2.9.1c-.7,3.3-2.3,6.6,2.9,11.2Zm-317,219.1c2,9.7,4.5,19.3,5.8,29,.9,7,4.4,12.2,8.7,17.1s6.9,5.7,12.5,2.1c6.6-4.2,13.5-8.6,18.7-14.4a145,145,0,0,0,19.4-26.6c5.7-10.2,9.4-21.4,9.3-33.5-.4-30.9-11.1-58.5-26.5-84.6a21.57,21.57,0,0,0-7.3-7.1c-6.3-3.6-10.3-1.9-12.7,5.1-1.7,4.9-2.1,10.2-4.1,14.9-8,19-15.2,38.3-19.2,58.6-2.5,13.1-4.4,26-4.6,39.4M3200.6,2949c-2.5,8.8-1.9,16.1,2.3,21.9,2.9,4.1,4.1,7.7,3.6,12.2-.8,7.9-1.4,15.8-2.8,23.6-.9,5-3,9.8-4.4,14.8-2.4,8.9-5.2,17.7-6.9,26.8-1.5,8.4-1.9,17.1-2.6,25.7q-3.15,40.65-6.2,81.3c-.2,2.4.1,4.9-.6,7.2-5.8,19.8-3.8,40.3-5.3,60.5-.4,5.5-1.2,10.9-1.7,16.4-.3,2.7-1,5.6-.5,8.2,3.5,18.4-.2,37.1,1.8,55.5.3,2.6-.4,5.3-.7,8.3-7-1.9-1.2-8.7-6.6-11.8,0,4.5-.5,8.4.1,12.2,1,6.4-1.5,10.3-6.8,13.7-4.1,2.6-7.4,6.5-12.2,10.7-9.8-4.9-19.2,0-28.4,6.5-4.6,3.2-9.5,2-12.2-3.1-2.3-4.3-5-6.8-9.8-8-2.4-.6-5.1-3.8-5.9-6.4a79.16,79.16,0,0,1-3.5-19.2c-.5-22-1-44-.4-66,.7-24.1,2.6-48.1,3.9-72.2,1.1-20.6,2-41.3,2.7-61.9.3-7.1-1.3-8.7-8.4-8-10.3,1.1-20.5,2.5-30.7,4.4-11.1,2.1-12.6,4-13.5,14.9-.8,9.6-1.1,19.2-1.8,28.9-.2,2.1-1.2,4-1.8,6.1l-2.3-.3c.4-9.3.8-18.5,1.2-27.8l-2.8-.3c-.8,7.1-2.2,14.2-2.4,21.3-.5,17.9-.4,35.8-.7,53.6-.3,20.6-1.5,41.3-1.1,61.9.2,12.4-6.4,21.5-11.8,31.3-1.6,2.8-6,5.1-9.4,5.7a23,23,0,0,0-12.6,6.3c-1.2,1.2-3.1,2.8-4.3,2.5-5.9-1.4-9.4,1.4-13.3,5.2-2.8,2.7-7.1,2-10.5-.7-2.4-1.9-4.5-4.3-7.1-5.9-10.1-6-12.9-11.7-11.3-23.7,1.4-10.9,3.8-21.8,4-32.8.6-25.5,0-50.9.3-76.4.2-13.1,1.4-26.1,2.2-39.2.1-2.1.3-4.1.5-6.2,1.1-14.6-1-17.4-15.7-17-10.9.3-20.3-3.4-29.7-7.6a20.14,20.14,0,0,1-8.2-7.4,127,127,0,0,1-9.5-18.3c-1.8-4.2-4.5-6-8.8-5.3-5.1.8-10.2,1.6-15.2,2.8-9.4,2.3-18.6,5-28,7.3-8.8,2.1-11.4,6.7-7.7,15,4.4,10.1,9.7,19.8,13.8,30,3.5,8.9,5.9,18.3,8.7,27.4,1.1,3.6,2.1,7.3,3.5,10.8,5.5,14.3,7.2,28-.5,42.6-3.7,7-5.1,15.9-5.2,23.9a42.18,42.18,0,0,1-10.7,28.1c-8.6,9.9-17.2,19.7-30.1,24.2-5.2,8.8-14.3,7.7-22.5,8.9a43.21,43.21,0,0,0-9.9,2.9c-29.6,12.1-59.6,13.8-87.3-3.2-20.6-12.7-34.2-32.3-40.1-56.8-5.3-22.2-2.5-43.9,1.8-65.6,5.9-29.5,16-57.8,26.8-85.8,9.3-24.1,19-48.1,30.5-71.2,10.5-20.8,23.5-40.3,35.9-60.2,3.4-5.5,8.3-10,12.5-15,8.3-9.8,20.2-14.8,31.5-19,8.5-3.2,19-3.6,27.9,2.2,4.7,3.1,10.7,4.2,13.5,10.5,1,2.3,5.8,3.4,9,4.2,4.6,1.2,8.1,3.4,10.8,9.2-4,2.2-7.7,5.1-12,6.5a16.21,16.21,0,0,0-9.2,7.6c-11,18.7-22.1,37.2-33.2,55.8a5.55,5.55,0,0,1-.6.8c-2.2,3.5-4.9,7.2-2.6,11.4,2.5,4.5,7.3,3.4,11.2,2.9,8.5-1.2,17-2.8,25.4-4.5,23.6-4.9,47.1-10.2,70.7-14.8,13.4-2.6,26.6-2.1,39.3,4.5,4.4,2.3,9.9,2.8,14.9,3.7,4.8.8,7.7-1.3,8.4-6.6,3.3-26,6.8-51.9,10.1-77.8a19.33,19.33,0,0,0-.3-7.2c-2.8-10.5,1.9-20.3,3.2-30.4.8-6.6,5.7-9,12.4-7.3,7.4,1.8,14.5,4.3,21.8,6.5,1.3.4,2.6,1.4,3.9,1.4,13.8-.2,21.8,10.2,31.9,16.9,3.4,2.2,4.3,5.1,4.1,8.8-.6,9.6-1.2,19.2-1.8,28.9-.5,7.6-1.2,15.1-1.5,22.6-.1,2.3.3,5.4,1.7,6.7,5.5,5.2,3.8,11.3,3.1,17.4-1.3,11.3-2.9,22.6-3.8,33.9-.7,8.7,1.3,10.4,10.2,9.1,10.2-1.4,20.4-3.4,30.6-4.8,8-1.1,11.1-5.9,11.9-13.3,1-9.3,2.5-18.5,3.1-27.7,1.2-19.2,2.4-38.5,2.6-57.7.1-7.4-2-14.9-4.2-22.1-3.8-12.6-2-24.5,3-36.1,1.5-3.5,4-6.1,8.8-5.6,10.9,1.1,21.9,1.1,32.3,5.8,6.4,2.9,12.3,5.4,16.6,11.5a19.21,19.21,0,0,0,10,6.7c6.5,1.8,8.8,5.8,9.5,11.8.6,5.2,1.6,10.4,2.6,17.2,7-6.8-3.8-13.8,3.8-19.3,1.5,3.3,2.9,6.4,4.5,10,1.5-.3,3.1-.2,4-1,10.7-8.5,23.4-11.2,36.4-13.1,11.6-1.7,23.2-3.2,34.7-5.1,2.9-.5,6.4-1.4,8.2-3.4,10.3-11.4,23.4-11,35.3-6,13.4,5.7,26.8,5.3,40.5,5.5,11.3.2,22.7.5,34,.3,36.3-.7,72.2,5,108.2,7.5,13.4.9,26.8,2.1,40,4,22.5,3.3,44.8,7.3,67.2,11.1,3,.5,5.7,2.3,8.6,3.3,7.4,2.7,14.7,5.8,22.2,7.9,9.4,2.6,20.3,14.5,21.1,24,.3,4.1.8,8.2,1.4,13.7-2.8.7-5.9,2.1-9,2-11.7-.1-23.4-.4-35.1-1-26.1-1.4-52-6.6-78.3-5.6-6.5.2-13-1.6-19.5-1.7-17.8-.4-35.7-.4-53.5-.6-19.9-.2-39.9-.7-59.8-.6-12.7.1-25.4.5-38.1,1.6-8.2.7-11.1,3.6-10.6,11.1,1,15.1-3.6,29.4-5.3,44-2.6,22.2-5.8,44.4-8.8,66.5-3,21.8-5.8,43.7-9,65.4-1.1,7.8-2.9,15.5-4.7,23.2-.6,2.6-1.7,6.2-3.6,7-5.8,2.5-5.7,7.2-6.1,12-.7,7.9-1.7,15.8-1.7,23.7a20.36,20.36,0,0,0,3.4,10.3c2.5,3.8,2.6,7.1-.4,10.3-3.2,3.3-3.3,6.5-1.1,10.3,2.6,4.4,1.8,8.3-1.7,12.2a12.48,12.48,0,0,0-2.7,7.5c-1.2,20.9-2.7,41.9.8,62.8,1.5,8.8,3.7,17.4,5.3,26.1.6,3.3.6,6.7,1,10.2-7.7,4.2-14.8,8.1-22.6,12.4-7.4-4.3-16-3.6-24.5-2.7a16.45,16.45,0,0,0-4.9,1c-7.9,3.4-7.8,3.4-13.8-2.5-2.1-2.1-4.6-4.6-7.3-5.3-6.5-1.7-8.9-6.4-9.6-12.1-.8-6.5-.6-13.1-1.1-19.6-2.4-33.1-.6-66,2.2-99,1.6-18.2,2-36.4,3.6-54.6,1.4-16.1,3.6-32.1,5.7-48.2,3-22.9,6.3-45.7,9.5-68.5,3.9-28,7.8-55.9,11.9-83.9,2-14-.5-16.7-14.7-14.7-17.3,2.4-33.5-1.9-49-9-2-1.2-3.9-3.9-7.5-7.2m-860.8,139.9c-3.5.5-5.1.8-7.1,1.1,6.4,20.8,14,40.6,27.3,60.8,1.4-6,2.9-9.7,3.1-13.5,2.2-32.6,4.3-65.2,6.1-97.8,1.4-26.5,2-52.9,3.4-79.4,1.3-24.4,3.3-48.8,4.8-73.2.6-9.6.7-19.3,1.1-28.9a75.84,75.84,0,0,1,.8-8.2c.6-3.6,2.7-5.6,6.5-4.9a12.71,12.71,0,0,0,11.5-2.7c1.6-1.4,4.4-1.7,6.7-1.7,6.4-.2,12.9-.1,19.3-.1.7,0,1.7-.2,2,.2,5.7,6.7,14.5,3.2,21.1,6.2,6.4,2.9,12.1,7.7,17.3,12.6,2.9,2.7,3.5,7,.3,11.3-2.6,3.4-4.1,7.7-5.8,11.8-2.4,5.6-2.2,12.3-7.5,16.6a4.59,4.59,0,0,0-1.4,3.7c2.9,9.9-3.4,18.4-4,27.7-.7,9.6-.2,19.2-.3,28.8,0,1.4.5,2.9.1,4.1-4.8,12.6-1.9,25.8-2.9,38.6-.4,5.1-.6,10.3-1.9,15.2-3.7,14.5,7,26.9,5.5,41.1-.9,8.5-1.1,17.1-1.3,25.7-.3,15.4,1,30.9-.9,46-1.6,13.4-2.3,26.7-2.8,40-1.1,26.5-2.5,53-3.5,79.5a283,283,0,0,0,.4,31.9,51.4,51.4,0,0,0,4.6,16.6c4.2,9.3-1.5,19.3-11.6,18.2a20.88,20.88,0,0,0-15.4,4.2,11.57,11.57,0,0,1-4.5,2.4c-11.2,1.9-21.2,7.2-31.6,11.3-3.7,1.5-7.2,2-10.8-.5-1.9-1.4-4.2-2.9-6.4-3.2-9.2-1.1-12.7-7.2-14.4-15.2a15.38,15.38,0,0,0-1.8-4.8c-9.7-16.2-19.6-32.3-29.3-48.6-11.2-18.9-22.2-38-33.4-57-2.9-4.9-5-10.7-12.2-12.6a68.4,68.4,0,0,0-3.6,23.1c.3,13.7.9,27.5,1.1,41.2a21.17,21.17,0,0,1-1.7,6.9,21.62,21.62,0,0,0,.4,16,56.16,56.16,0,0,1,3.7,18.1c.2,8.1-5.2,13.2-12.2,16.3-4.4,2-8.9,4-13.6,4.8-10.9,1.9-19.5,8.3-28.9,13.3-4.6,2.5-9,4.6-14.6,2.5a10.2,10.2,0,0,0-7.6.9c-4.8,2.6-8.3,2-11.8-2.1a21.31,21.31,0,0,0-7.2-5.5c-7.7-3.4-10-6.1-10-14.4,0-25.9.2-51.7.3-77.6.1-31,.5-62,.1-93-.4-32-.4-64-2.5-95.9-1.5-23.2.7-46,2-68.9.1-2.4.1-5.3,1.4-7,5.1-6.4,3.9-13.5,3.2-20.7-.9-8.9-1.5-17.9,4.7-25.6,1.5-1.8,2.8-4.5,4.7-5.2,10.7-3.6,21.5-8.7,32.5-9.5,15.3-1.2,31-.6,45.8,5.5,6,2.4,12.2,4.5,18,7.4a11.4,11.4,0,0,1,5.1,6.1c5.5,15.2,10.6,30.5,15.9,45.7a56.39,56.39,0,0,0,3.8,9.6,97.71,97.71,0,0,1,10.7,35.3,12.9,12.9,0,0,0,.7,4q9.6,22.35,19.2,44.5c3.1,6.7,6,13.3,9.3,20.9M1887,2862.6c.9-2.1,2-4.8,3.1-7.4,2.7,11.9,8.2,23,6.2,35.5-1,6.1-1,12.3-1.2,18.5-.6,16.4-1.1,32.8-1.4,49.3-.2,10,.4,19.9.4,29.9-.1,15.1-.4,30.2-.5,45.4a49.42,49.42,0,0,0,1,10.1c1.7,8.3,3.8,16.5,5.5,24a41.61,41.61,0,0,1-3.2,3.4c-5,3.4-4.7,8.5-3.1,13,1.8,4.9,6.9,5.2,11.4,5,5.5-.2,11-1,16.4-1.6,19.1-1.8,38.3-3.9,57.4-5.3,5.7-.4,11.6,1,17.4,1.5,4,.3,8.2,1,8.9,5.4.7,4.6,1.1,9.6-3.6,13.2-4.1,3.1-7.9,6.7-11.8,10.1-2.1,1.8-4.6,3.3-6.1,5.5-4.8,7.2-12.3,10.2-19.8,12.2-16.3,4.4-32.8,7.6-49.2,11.3-2.7.6-5.5.8-8,1.8-10.7,4.3-11,6.1-5.7,16.6,3.3,6.7,5.7,13.5,3.3,21.8-1.5,5.1-.4,11.8,1.5,16.9,4.2,11.1,5.7,22.5,6.6,34.2,1.3,17.8,3.5,35.5,5.7,53.2a19.22,19.22,0,0,0,3.7,8.4c8,10.5,8.4,22.1,6.6,34.4-.8,5-.7,10.2-.7,15.4.1,8.2.4,16.5.6,24.7.1,3.1-1.4,6.7-4.3,5.7-9.4-3-14.1,2.8-19.1,8.7-.4.5-1.2.5-2.5,1.1-2.1-2.2-4.3-4.6-7-7.5-1.8,1.4-4,2.3-4.7,3.8-2.1,5.4-5.5,6.9-11.3,6.4-2.6-.2-5.8,2.8-8.3,4.9-6,5-7.4,5.2-12-1.4-2.4-3.5-4.9-5.4-9.4-4.7-4.2.7-6.6-1.7-7.3-5.5s-2.1-7.7-1.3-11.2c3.2-14-.2-27.5-2.1-41-3-21.8-7.6-43.4-11.4-65.1-5.6-31.9-11.1-63.8-16.7-95.6-1.7-9.9-3.5-11.6-13.5-11.5a49.68,49.68,0,0,0-13.2,2c-2.4.7-5.5,2.6-6.3,4.8a243,243,0,0,0-6.6,23.6,147.84,147.84,0,0,0-3.2,16.1c-2.6,19.7-8.2,39-8.7,59.1-.2,8.9-7,14.5-18.3,16.5-6.4,1.1-12.9,1.4-19.2,2.7a20.2,20.2,0,0,0-9.1,4.3c-7.3,6.6-16.6,5.8-25.2,7.7-1.7.4-3.9-1.1-5.7-1.9-4.7-2.1-9.2-4.6-13.9-6.7-6.5-2.9-9-6.6-7.7-13.8,2-10.8,4.6-21.5,6.7-32.3,3-15.6,5.8-31.1,8.8-46.7,1-5.1,2.4-10.1,2.9-15.1.6-5.8-1-7.5-6.9-7.5s-11.7.8-17.5,1c-9.6.3-19.2.7-28.8.4-7-.3-12-5.1-15.8-10.5a15.55,15.55,0,0,0-8.7-6.4c-9.4-3-11.4-14.4-4.2-21.2,5.2-4.9,11.6-7.3,18.6-8.4,20.8-3.1,41.5-6.1,62.3-9,13.6-1.9,16.3-4.8,19.7-18.4,8.7-34,18.6-67.8,33.7-99.6,11.2-23.6,22.9-47,35.3-70,10-18.4,22.7-35.5,31.7-54.3,5.6-11.7,12.3-18.1,25-18.6,9.3-.4,18.5-1.4,27.8-1.4,2.5,0,5.3,2.7,7.3,4.8,3.6,3.8,7.2,5.4,12.8,4.4,4.9-1.4,10.1.3,15.9.9m631.6,136.5c-1-20.6-2.2-41.2-2.9-61.8a171.57,171.57,0,0,1,1.3-25.8c.8-6.6,3.2-8.5,9.5-8.7,12.6-.5,25.4-1.8,37.9-.7,12.8,1.1,25.5,4.6,38.1,7.3,5.2,1.1,8.1,4.1,8.8,9.9a54.86,54.86,0,0,0,4.8,15.7c4.1,8.7,3.9,17.1.3,25.9-1.8,4.4-3.3,9.2-3.4,13.9-.2,27.2-.9,54.4.8,81.4.7,10.4,0,20.3-.8,30.4-.5,7.1,1.7,14.4,1.5,21.5-.5,19.5,1.9,39-1.7,58.6-2.3,12.4-1.1,25.4-1.3,38.1,0,2,1.2,4,1.4,6,.4,5.1,2.1,10.8.4,15.1-4.7,11.6-1.6,23.2-2,34.8-.1,3.5,2,7.1,3.2,10.7s2.9,6.9,3.3,10.4c1.1,10.1-4.8,16.9-14.9,17-4.8.1-8.4.7-11.6,4.8-1.5,1.9-5.4,3-8.1,2.7-10.1-1.2-19.4,2.2-28.9,4-1.7.3-3.7,1.9-4.8,1.4-6.2-3.3-12.8-6.3-18.1-10.8-2.7-2.3-4.2-7.2-4.5-11.1-1.1-14.4-1.4-28.9-2-43.4-.3-5.8-.8-11.7-1-17.5-.9-22.7-1.6-45.3-2.6-68-.3-7.9-1.3-15.7-1.6-23.6-.8-23.1-1.7-46.1-2.1-69.2-.3-16.5.2-33,.2-49.5V2999c.4.2.6.2.8.1" fill="#231f20"/><path d="M3405.16,2589c-67.61-86.59-105.29-193.74-141.52-296.08-40.32-113.72-82.19-226.28-142-331.48-27.55-48.39-57-96.35-88.15-143.32a27.62,27.62,0,0,0-1.22-19.24q-5-11-10.87-21.36c.61.25,1.23.5,1.85.7-4.2-10.14-8.18-20.3-11.58-30.72-2.26-7-5.74-13.72-8.81-20.45-8.42-18.43-17-36.63-25.27-55.28-7.23-16.47-13.28-33.66-21.11-50.08-11.61-24.12-24.2-47.74-36.39-71.4-45.37-107.66-109.22-210.66-177.6-303.2q-18.75-25.3-38.35-48.39c-3.14-4.69-6.34-9.31-9.79-13.74-20.92-26.8-42.19-53-63.1-79.77-16.24-20.62-31.69-41.52-47.54-62.38-5.82-7.52-11.26-15.49-17.28-23-10-12.52-20.33-24.8-30.3-37.32-8.83-11.38-18.06-22.52-26.69-33.92-10.05-13.54-19.31-27.36-29.37-40.9-13.09-17.6-26.59-35.17-40.1-52.73-5.11-6.56-10.6-12.67-15.89-19-8.55-10.38-17.09-20.75-26-30.48-16.89-18.5-33.94-36.58-51.21-54.85-1.54-1.62-3.08-3.23-4.61-4.85-23.07-26.46-46.4-52.69-70.52-78.18A526.54,526.54,0,0,0,2217,616.94c-4.54-4.75-9.1-9.71-13.84-14.44-32.2-33.23-65.87-64.48-102.39-93-1-.81-2.83-2.11-5.19-3.76-3.65-3.7-7.33-7.4-11-11.1-8.14-8.15-15.89-16.53-23.64-24.92-5.46-5.91-10.93-11.81-16.38-17.52q-9.35-10-18.69-19.9c-9.3-28.63-29-52-58-60.39-.26-.22-.5-.47-.76-.68-2.19-2.1-3.91-2.31-5.26-.84a89.4,89.4,0,0,0-18.27-1.83c-45.35-.13-90.26,39.9-87.72,87.5,8.49,70.56-32.91,127-63.67,187.19-23.43,46.25-38.69,95.71-61.52,141.47-3.46,4.22-6.85,8.46-10.45,12.45-10.12,11.41-18.5,23.9-23.6,38.57-1,2.84-2.13,5.67-3.3,8.49-48.8,61.19-106.2,116.28-158.66,174.38q-89.55,99.42-176.66,200.87-86.88,101.65-171.29,205.55-36.79,45.6-73.16,91.37c-19.1,24.15-33.64,46.24-61.66,58-41.54,17.47-73.59,30.4-94.56,73-14.67,30-7.67,65-20.3,90-13.72,26.77-35.9,48.72-51.34,74.6a221.7,221.7,0,0,0-24.55,58.23c-1.15.93-2.09,2-3.24,3-44.87,40.43-27,137.38,38.47,146.45,189.27,26.39,327.32,163.86,456.06,293.9,54.52,55,147.72,13.36,149.56-61.62.87-32.23,37.32-56.05,69.88-60.78,1.91-.28,3.82-.5,5.74-.69.35.16.69.34,1,.51,23,10.95,47.15,18.1,71.63,24.6,12.67,3.42,25,7.48,37.5,11.53,8.06,2.59,15.84,6.64,24,8.4,8,1.82,16.07,3.62,24.09,5.5l2.49,1.43c55.14,31.62,107,68.06,154.41,110.26,25,22.32,48.46,49.32,78.15,65.87,27.75,15.48,59,21.39,86.77,37.28,62.3,35.73,122.53,55,195,46.5,73.45-8.53,141.91-29.2,216.6-28.37a821.13,821.13,0,0,1,85.75,5.65l7.5,4.68c5.23,3.25,10.28,6.72,15.51,10,13.29,8.11,23.92,7.17,33.17-2.51l3.36-3.46c93.63,16.24,186,43.46,277.38,66.72,89.11,22.82,183,45.33,268.22,84.09q6.66,5.41,13.24,10.85c6.22,5,13.63,7.25,21.19,8.85a10.46,10.46,0,0,0,5.3,0,516.06,516.06,0,0,1,81.05,53.62C3369.44,2784.64,3474.63,2677.88,3405.16,2589Z" fill="#ffe78f"/><path d="M1933.19,326.61c-4.59-21.3-16.92-40.58-23.65-60.39-5.1-15-6.14-28.75-14.82-42.88-19.28-31.4-53.15-50.08-89.1-55-81-11-151.07,45.74-191.74,110.29-43.77,69.44-70.61,142.45-135,197.23-30,25.49-52.67,50.66-78.3,76.36-30.76,30.85-62.2,55.7-87.65,92.08-55.84,79.83-101.66,168-150.56,252.17-48.55,83.58-92.17,182.29-155.56,254.74-30.21,34.54-58.75,69.14-87.22,105.1-22.51,28.44-53.15,58.77-60.05,96.31-2.9,15.8,1,25.57-5.52,38.21-8.06,15.73-30.13,31-42.77,43.34C777.91,1466.72,743,1498,714,1534.67c-56.64,71.64-94.59,169.23-62,259.33,10.34,28.6,26.19,67.54,45.3,90.84,12,14.57,84.1,61.73,76.6,44.46,12.45,5.43,27.14,13.89,41,11.42,12.34-2.2.6-18.29,9.24-22q9.36,9.69,14.86-1.8a41,41,0,0,0,14.83-11.82c14.82-11.49,24.43-30.51,33.87-46.06,19.17-31.6,36.83-63.88,56.68-95.08,49.06-77.08,108.45-145.89,169.9-213.35,63.33-69.54,120.9-136.5,172.44-215.44,48.08-73.64,92.53-153,151.61-218.44,54.87-60.82,126.14-105.41,178.22-169.06,25.22-30.82,37.08-65.56,55-100,19.53-37.57,51.45-65.91,79.63-96.89,52.8-58.05,71.32-144,104.8-214.14C1889.89,465.54,1951.92,413.52,1933.19,326.61Z" fill="#c3874a"/><path d="M2467.45,2391.34c.67,12.3-7.17,23.92-17.33,30.17-25.42,15.64-47.11,10.34-74,2.61-32-9.35-61-9.26-94.35-11.06A845,845,0,0,1,2099,2382.39c-31.12,14.08-58.75-18.73-50.41-43.37,1.19-19.27,16.28-37.51,39.17-32.72,22.86-18.92,40.6-44.39,66.37-60.68,34.17-21.56,75.09-22.69,113-11,45.78,14.31,87.47,43,126.15,70.29C2425.78,2327.82,2465.08,2348.06,2467.45,2391.34Zm730.62-264.75A37.17,37.17,0,0,0,3190,2103c-24.62-31.43-24.86-78.61-41.62-114.43-17.54-37.62-47.76-67.11-67.64-103.28-17.93-32.64-23.41-73.79-63.35-87.37-29.76-10.16-60.56,5.13-72.91,33.42-13.51,31.44-6.18,71.8-1.52,105.31a239,239,0,0,0,3.16,37.18c1.26,7.31,2.53,14.62,4,21.91a49,49,0,0,0,3.21,10.64c2.6,6.16,5.39,12.1,8.2,18.24l.12.28a306.26,306.26,0,0,0,17.7,42.87c35.37,69.23,113,131.64,194.59,121.77C3207.8,2185.5,3215.85,2143.57,3198.07,2126.59Zm-675.23-339.1c-2.86-16-7.11-31.52-14.39-46.34-1.11-2.22-2.29-4.4-3.46-6.58a.5.5,0,0,0,0-.12c-10.83-57.38-42.83-114.12-92.8-145.58-55.45-35.1-123.13-28.93-184.25-13.85-64.15,15.76-116.68,48.83-142,111.87-27.37,68.37-13.87,142,.94,211.8a29.82,29.82,0,0,0,18.85,22c.53,1.4.66,2.83,1.18,4a51,51,0,0,0,14.37,20c8,12,19.56,20.35,33.37,25.87,14.31,5.75,28.12,12.78,43.62,15.53,10.27,2,20.47,3.15,30.87,1.82,5.08-.64,10.17-1.22,15.25-1.81,5.27.46,10.59.78,16,.91,22.92.45,40.32-.88,61.78,8.77,14.59,6.55,27.24,16.77,42.38,22.44,52.64,19.68,97.45-2.82,114-55.6,3.26-10.2,6.4-20.6,9.36-31.13a119.27,119.27,0,0,1,6.57-10.26c10.51-14.12,16.48-30.51,23.55-46.18,7.74-17.38,6.72-36,8-54.3C2526.85,1809.61,2524.63,1798.47,2522.84,1787.49Zm-802.6-23.44c-16.14-33.41-44.84-76-76.88-95.86-36.84-22.73-93-14.89-134.55-13.49-72.33,2.46-189.45,11.34-232.37,80.87-44.57,72,15,188.31,46.18,255,4.18,8.94,10.35,14.22,17.24,16.58,11.85,16.88,25.45,32,44.39,41.88,13.38,6.86,27,14.11,41.25,19,21.27,7.4,43.39,12.87,65,19.42,21.19,6.58,42.85,4.46,64.2,3.41,14.14-.84,28.23-4.76,42.43-7.25,8.13-1.33,15.24-4.85,21.85-9.34,5.81-4.23,11.85-8.26,17.44-12.67a58.49,58.49,0,0,0,11.38-11.11c.35-.45.69-.92,1-1.38,21,16.64,59.53,8.49,57-25.17C1698.57,1932.09,1764.62,1856,1720.24,1764.05Zm781.07-709.45a68.94,68.94,0,0,0-15.17-26.29c-11.39-47.08-41.08-88.15-91.4-109.42-25.69-10.92-53.58-16.3-79.09-27.44-26.16-11.51-41.53-31.59-59.49-52.88-29.92-35.5-69.14-64.19-118.08-51.22-54,14.24-88.26,69.61-112.44,115.65-26.29,50.13-46.06,106.49-37.5,163.86,11,73,127.38,219.82,214,187.66a36.29,36.29,0,0,0,4.6,3.1,182.92,182.92,0,0,0,145.58,14.79A203.81,203.81,0,0,0,2466,1193.16c6.66-7.17,12.71-14.88,17-24,5.36-11.6,10.51-23.39,15.67-35,2.06-4.71,4.54-9.26,5.56-14.09C2509.05,1098,2508.37,1076.24,2501.31,1054.6Z" fill="#af2b39"/><path d="M837.55,1917.1c-18.71,9.89-40.38,23.55-62.5,18.08-16.44-4.12-28.56-17.68-39.13-29.94-20.64-23.74-42.66-46.74-61.94-71.42-21.36-27.18-33.63-54.13-30.54-89.23,1.63-18.9,2-38.51,8.82-56.64,7.49-20.24,18.62-41.21,28.47-60.43,16.9-32.81,39.81-62.86,60.41-93.33,9.85-14.47,18.82-29.69,31.33-42.13,14.94-15.13,31.51-28.34,45.75-44.43,49.92-55.72,69.39-129.37,119.62-183.89,22.76-24.68,45.71-49.58,66.92-75.56,22-26.88,48.6-56.64,64.41-87.71,16-31.3,25.77-65.34,42-96.66a765.63,765.63,0,0,1,54-88.85c20.34-28.8,46.28-52.52,65.68-82.67,22-33.88,41.7-69.43,61.91-104.39,17.35-30,29.13-62.34,53.27-87.76,27.72-29.24,54.57-59,81.18-89.19C1450,525,1470.71,495.38,1495,471c24-24.58,51.24-45.33,73.19-72.2,49-59.55,88.11-129.79,157.22-168.86,32.8-18.35,66-27,101.71-12.88,16.66,6.57,33.84,9.8,47.47,21.79,15.64,13.66,27.82,37.32,35.69,56.42,15.45,37.38,3.25,76.59-10.72,112.24-12.93,33.3-23,71.69-40.82,102.74-15.37,26.71-40.93,47.72-59,72.39-13.79,18.94-19.63,48.52-21.1,71.53-1.09,15.76.3,31.5-5,46.6-6.26,17.87-18.56,35-28.92,50.78-23.61,36.09-51,71.07-79.28,103.66-47.91,55.13-86.28,117.87-142.21,166.09-27.41,23.44-58.83,38.78-84.38,64.53-25.37,25.53-43.52,53.51-62.06,84-22.16,36.17-47.47,71.79-73.39,105-24.65,31.44-43.59,66.71-69.33,97.42-27,32.27-56.77,62.1-85.16,93-24.46,26.48-36.67,56.41-56.34,85.76-22.6,33.53-57.17,57.6-78.49,91.64-21.47,34.66-46.45,66.95-67,102.36-10.2,17.6-22.16,33.91-32.58,51.31-10.06,16.76-17.1,35.11-28.48,51s-22.42,28.57-31.84,45.68c-14.22,25.78-33.1,40.63-58.94,53.84-8.08,4.21-1.42,16.61,6.67,12.6,34.72-17.7,48.76-33.77,68.48-67.25,9.68-16.52,23.15-29.66,33.27-45.81,11.93-19,20.63-39.53,33-58.14,22.41-33.31,40.89-69.15,64.85-101.36,10.5-14.11,18.63-29.46,28.91-43.77,14.48-20.44,35.31-36.71,51.57-55.66,22.4-26.5,34.79-56.66,53.93-84.93,23.17-34.2,56.94-62.53,84.54-93.2,52.76-58.44,97-125.41,139.17-191.17,10-15.51,22.18-29,31.52-44.62,11.49-19.36,22.06-37.4,36.83-54.57,28.56-33.64,64.09-53.88,97.75-81.17,61.94-50.18,104.53-118.86,155.72-178.82,24.45-28.95,48.35-59.5,69.7-90.86,19.89-29.16,39.21-57.87,41.19-93.9,2-35.84,6.36-65.7,30.29-93.57,23.91-28.08,47.2-56.1,60.66-90.47,22.2-56.78,64.06-129.11,43.26-192-8.65-25.62-26.09-57.48-48.18-74.29-9.72-7.38-20-9.77-31.31-13.73-16.78-5.73-32-14.69-50.2-15.36-67.41-2.5-128.13,54.58-168,102.21-26.85,32-49.28,67.62-76.58,99.29-24.29,28.32-55.17,49.8-79.06,78.08-25.57,30.29-50.52,60.52-76.76,90.24-25.49,28.84-57.72,56-79.24,87.78-21.72,31.81-37.33,69.87-57.07,103.14-24,40.87-46.49,82.84-77.52,119a634.21,634.21,0,0,0-107.5,176.43c-33.4,81.68-95.89,146.75-154.92,211.32-28,30.7-41.28,67.12-61.19,103.09-25.61,46.16-59.5,80.27-96.67,116.94-27.3,26.93-46.51,63.87-67.83,95.63-23,34.18-47.23,74.45-58.55,114.41-8.5,29.81-13,70.19-2.93,100,10.88,32.23,35.25,58.52,57.62,83.14,21.24,23.48,41.56,57.55,71.56,70.57,28.93,12.5,56.68-2.32,82.07-15.89,8-4.83,1.37-17.23-6.71-13m-84-157.49c-12-33.16,1.36-75.76,21.51-102.07a614.64,614.64,0,0,1,69.95-76.24c22.49-20.74,48.67-41.81,62.46-70,5.57-11.62,8-24.2,12.48-36.14,6.07-15.38,15-29.14,20.8-44.71,11.88-31.14,33.7-61.91,58.15-83.86,22.52-20.33,37-47.78,54.42-72.4,21.46-30.13,45.1-58.8,66.34-89.12,17.58-25,26.15-58.78,50.81-78.26,7.14-5.58-2.63-15.85-9.77-10.27-23.88,19-32.9,49.89-48.85,74.79-20.1,31.46-45.78,60.52-67.42,90.87-11.18,15.82-21.71,32-32.68,47.81-11,16-26.32,24.17-38.68,38.24-9.73,11.17-16.46,26-25.49,38.11-10,13-14.51,24.78-20.39,39.93-6.07,15.38-15,29.14-20.8,44.71-8,21.31-13.1,40.72-28.45,58.36-25,29.21-56.11,53.18-82.51,81.06-18.29,19.34-42.71,44-52.48,68.73-8.61,21.57-10.87,61.35-3.18,83.14,3.06,9,16.81,5.93,13.78-2.66m594.58-872.74c-12.1-22.64,8.83-49.42,20.59-68,14.85-23.36,31.31-47.07,54.92-62.14,32.19-20.56,79.6-29.89,101.59-63.37,9.63-14.66,13.47-31.9,18.61-48.43,7.48-25,20.92-45.54,35.76-66.63,28-39.57,51.47-87.19,95-111.85,7.86-4.4,1.18-17-6.68-12.6-44,24.9-67,70.21-95.41,110-13.76,19.35-28.33,38.78-37.09,61-12.3,31.18-13.63,62.83-45.76,81.74-22.14,13.08-46.68,22.26-69,35.36-20.76,12.34-36,29.34-50.11,48.73-19.11,26.42-53.71,68.83-35.23,103.07,4.61,7.84,17,1.18,12.79-6.9M1627,781.29c-18.07-27.27,7.6-54.06,22.53-76.4,17.25-26.46,33.81-53.68,49.54-81a694,694,0,0,0,35.66-72.39c14.67-34.69,34.31-59.71,65-81.37,7.37-5.19.7-17.79-6.68-12.61-28.14,19.8-48.16,40.52-64.2,71.41-17.95,34.77-31.7,70.61-51.79,104.53-18.82,32-40.69,62.12-59.53,93.88-12,20.23-16.47,40-2.9,60.64,5,7.6,17.39.94,12.4-6.65m-600.75,777c-17.88-34.5,3.26-63.57,23.71-91.13,23.39-31.54,51.59-57.73,86.21-76.45,61.36-33.44,86.12-101,118.55-158.64,19-34,43.77-59.92,72.86-85.36,22.39-19.5,39.17-37.26,52.48-64,6.49-12.94,12.08-26.62,20.29-38.68,9.67-14.25,24.05-19.44,34.52-31.7,18.66-22,19.78-51.41,46.67-66.77,8.06-4.42,1.18-17-6.68-12.6-26.12,14.67-29.62,38.06-45.49,61.51-9.1,13.59-23.41,19.59-33.88,31.85-9.51,11.35-16.16,24.71-22.61,38.06-8.38,17.23-16.15,34.19-29.32,48.55-13.55,14.59-30,26.55-44.7,40-28.23,25.78-48.3,55.37-65.71,89.26-20.61,39.75-39.05,78.47-71.52,110-27.71,27-63.29,41.86-91.16,69.46-36.4,36-84.17,90.28-56.62,143.29,4.22,8.08,16.61,1.42,12.4-6.65M999.55,1910c20.41-7,35.24-4.76,55.1-15.58,19.46-10.78,38.17-22.94,53.41-39.54,17.86-19.5,29.83-42.61,52.41-57.79,21.78-14.7,46.81-25.36,70.06-37.51,8.08-4.22,1.41-16.82-6.67-12.6-38.59,20.51-77.82,36.13-105.43,71.33-16.49,21-30.6,38.56-53.21,53.33-14,9.07-29.12,18-46,21-8.13,1.33-14.8.48-23,3.47-8.59,3-5.51,17,3.29,13.93m557.36-619.24c9,18.17,16,27.65,34.51,36.12,17,7.78,37.8,10.27,53.39,21.06,24.34,16.61,30.5,63.06,69,52.87,42.9-11.41,76.72-67.36,123.3-27.57,13.82,11.77,23,27.44,40.75,34.33,14.52,5.73,29.77,3.36,44.94,2.43,9-.59,9.63-14.66.39-14.25-26.86,1.54-42.14,1.24-63.54-19.34-9.9-9.44-17.83-19.87-30.32-26-25.62-12.38-51.09-2.09-74,11.06-12.36,7.07-26.49,19.86-40.19,23.33-33.06,8.48-36.76-26.44-54.48-42.81-29.19-27.1-71.22-17.63-91.3-58.32-4-7.89-16.37-1-12.36,7.07M1896,739.64c37.81,5.74,72.84-38.78,108.39-47.07,19.79-4.63,44,5.2,62.24-4.66,8.46-4.66,10.17-11,15.74-17.88,17-20.45,35.81-21.7,58.46-12.57,8.54,3.37,12.5-10.17,4.16-13.56-16.67-6.77-34.11-10.59-51.13-2.5-7.52,3.55-12.83,8.76-18.72,14.43-10.1,9.34-18.32,18.93-33.79,21.12-6.1.95-14.76-1.38-20.73-1.27-21.76.89-42.18,10.11-61,20.84-18.45,10.49-40.67,32-63,28.64-9.16-1-9.55,13.21-.58,14.48M835,1939.58c18.06,36.54,56.23,48.63,93,59.4,49.93,14.57,104.86,20.44,151.66,43.93,49.39,24.92,88.87,73,124.26,114.37,32.65,38.34,47.69,80.3,96,102.42,23.84,10.88,48.34,17.59,70.61,31.7,17.24,10.85,31.11,28,49.4,36.66,21.92,10.23,55.31,7.9,60.33-19.33,3.91-21.16,1.26-44.22,1.45-65.47,0-9.07-1.8-29.72,3.89-37.65,5.88-8.14,29.55-10.85,37.69-9.71,6.69,1.06,13.44,5.21,19.79,7.12,49,15.47,98,26.61,147.68,38.51,21.9,5.28,49.38,15.43,69.48,26,22.26,11.64,49.35,22,70,36.08,21.94,15,42,37.11,61.38,55.6,19.58,18.68,39.89,36.26,60.23,54.26,23.23,20.42,45.58,44.83,77.18,26.79,12.36-7.07,24.75-18.46,40.67-13.27,9.12,2.9,15.22,20.71,19.81,28.34,7.5,12.53,17.26,29.81,29.15,38.45,13.88,10.11,30.44,3.91,46.23,7.67,18.52,4.35,31.53,11.65,50.48,4.42,8.78-3.25,16.92-9.12,25-13.75,15.47-9.19,27.73-5.74,44.3-2.46,12,2.45,25.86,5.76,36-3.79,9.5-9.08,5.92-19.27,7.38-30.74,2-17.28,15.53-29.61,33.52-33.66,20-4.45,39.55,9.08,56.78,17.46,40.45,19.31,76.42,46.23,118.25,62.54,16.21,6.19,27.85,19,45.89,17.8,24.18-1.52,47.79-16.58,68-28.05,10.39-6.07,20.75-12.55,31.84-17.65,18.42-8.42,35.8-5.42,54.95-.93,27.57,6.44,53.44,14.67,78,28.79,21.94,12.7,44.44,22.46,64.57,38,17.68,13.49,36.42,22.76,56.23,32.35,19.61,9.61,35.16,24.73,54.17,34.59,17.91,9.14,38.06,8.6,57.54,9.77,29.22,1.75,54.76,8.57,75,30.49,13.46,14.68,25.94,25.33,46.28,29.31,16.13,2.9,32.18.25,46.84-6.4,15.06-6.89,23.7-14,41.07-15.78,20.23-2,27.6,6.84,44.16,14.66,18.7,8.65,35.6,13.35,52.78,25.85,11.24,8.28,28.25,21.21,43.35,14.73,22.66-9.42,13.83-44.09,7.38-61.25-20.27-52.21-54.14-99.73-81.52-148.43-27.36-48.5-22.73-101.26-43-151.41-10-24.67-24.57-47.3-37.56-70.68-14.92-26.72-24.33-53.92-32.69-83.27-7.12-24.73-19.08-45.73-29.57-68.92-13.86-30.93-20.55-64.76-31.61-96.76-18-52.62-49.29-100.78-75.83-149.35-28.48-51.9-60.82-103-84.95-157-11.27-25-27.2-58.41-29.75-85-2.33-24.11-7.19-41.82-16.4-64.51-21.83-53.52-48.73-106.18-82.17-153.52-31.54-44.42-56.89-93.51-89.58-137-16.33-21.65-33.18-39.74-47.39-63-14.68-23.85-35.61-43.85-53.38-65.37-37.85-45.92-72.23-94.63-113.92-137.33-22-22.59-35.84-46.51-52.58-72.65-13.88-21.86-32.72-39.17-48.93-59.38-18.28-22.71-27.54-50.54-44.26-74.21-13.4-18.81-28.93-36-42.54-54.79-31.71-44-77-75.86-110.6-118.24-16-20.24-34.25-35.53-52.51-53.29-21.86-21.16-41.43-42.11-65.94-60.56-17.42-12.89-36.11-23.82-53.53-36.71-24.48-18.24-38-43.23-58.3-65.14-16.64-18.12-35.24-35-53.58-51.34-12.07-10.69-23.48-25.55-38.46-31.86-8.36-3.59-12.5,10.17-4.17,13.56,16.92,7.17,35.7,30.86,49.16,43.28,20.21,18.83,39.42,37.95,55.81,60.21,28.28,37.91,65.81,56.86,102,85.62,41.86,33,82,72.33,115.16,113.93,35.21,44.09,80.79,77.17,113.16,124,13.22,19,30.26,34.64,42.14,54.83,12.12,20.57,21,42,36.26,60.69,19,23.27,39.27,43.33,54.58,69.6,12.87,22.15,25.18,40.24,43.09,58.65,40.35,41.58,74.54,88,110.85,132.86,19,23.27,42.3,44.91,58,70.53a357.35,357.35,0,0,0,36.77,49.94c37.87,43.86,63.28,98.3,97.11,145.4a736.35,736.35,0,0,1,82.24,149.61c5,12.74,11.94,25.53,15.19,39,2.94,12.32,2,25.38,3.76,38,3.39,24.43,17,47.56,26,70.26,19.44,49.82,50.6,97,76.36,143.73,27.47,49.73,59.25,99.28,81,152,11.55,28,18.08,57.77,27.63,86.6,8.13,24.43,21,46,31.06,69.4,10.36,24,14.53,50.25,23.89,74.57,9.59,24.71,23.72,47,36.67,69.94,14.44,25.93,26.42,51.88,31.08,81.35,3.83,24.81,5.86,50.19,14.57,74.16,17.11,46.72,49.11,89.45,73.51,132.43,11,19.44,34.06,52,31,75.6-4.56,34.82-50-8-62.41-13.47-7.29-3.27-15.21-4.22-22.47-7.08-10.45-4-18.72-11.34-28.8-15.81-12.85-5.46-26.14-6.56-39.37-2.3-28.28,8.88-47.58,30.78-80,20.66-24.8-7.71-33.65-33.31-56.67-44.27-41.75-20-89.92-5.26-127.29-34.12-16.14-12.39-34.17-20.49-52.47-29.38-21.11-10.3-37.47-25.15-57.08-37.23-37.5-23.28-77.94-42.39-120.55-53.47-18.35-4.77-39.32-11.17-58.5-6.59-20.38,4.89-38.94,18.89-56.79,29.12-12.57,7.09-26.07,15.28-40.42,18.4-17.58,4-29.35-3.18-44-10.14-19.8-9.59-40-16.87-59.72-27.5-22.09-12.07-43-26.72-65.55-37.51-15.28-7.31-33.24-19.33-50.69-20.88-22.43-1.94-61,14.44-62.7,39.33-.21,2.28.81,4.46,1,6.71.81,9.21-1.42,23.62-14.2,26-9.13,1.63-20-7.1-29-8.58-18.4-2.91-31.05,7.89-46.39,16.25-26.55,14.5-44,.79-70.52-.38-26.69-1.15-37.81-15-51.08-36.92-13-21.73-26.84-47.31-56.69-35.2-8.56,3.44-14.92,10.8-23,14.61-19.41,8.92-32.79-.2-46.83-12.16-17.6-14.94-35-30.3-52.26-45.68-32.43-28.88-62.55-68.89-102.53-87.63-40.85-19.07-81.36-43.74-125.77-54.25-48.41-11.4-95.77-22.48-143.44-37.23-24.57-7.53-60.42-26-77.06,4.93-15.23,28.35,11.64,120.38-29.75,123.2-24.19,1.51-41.15-22.55-59.35-35-17.57-12.26-36.93-21.48-57.15-28.76-26.17-9.24-50.06-20.74-68.26-42.42-17-20.35-28.09-45.14-45.75-65.43-31.91-37-65.8-77.67-106.75-105-40.26-26.54-87.55-34.54-133.67-45.72-43.17-10.42-104.64-20.25-126.21-63.9-4.25-8.49-16.65-1.83-12.62,6.47m1793.66-291.47c16.92,30.66,49.14,36.06,82,37.29,24.4.94,44.5-2.48,67.15,8.92,15.54,7.9,30.22,22.48,47,26.15a7.4,7.4,0,0,0,8.17-3.19c5.32-7.48,8.26-23.2,15.18-29,14.77-12.43,29.43,4.21,41.48,10,8.16,3.81,15.56-8.18,7.37-12.19-15.7-7.48-29.91-26-48.91-17.13-7.52,3.55-11.61,10.92-15.33,17.84-.9,1.52-6.87,17.92-8.7,18.29-1.2.31-12.18-9.65-14.35-10.9-20.27-12.43-42.45-23.26-66.62-23.81-34.88-.63-81.88,6.4-101.74-29.57-4.57-7.43-17.18-.75-12.75,7.31m-154.32,501.06c23.39,10.51,45.2,17,64.46,34.51,14.56,13.14,31,22.2,45.58,35.35,15.43,13.68,39.43,10.12,49.51-8.9,9.73-18.17,3.37-36.58,25.75-49.27,21.78-12.43,48.64-7,68.18,6.57,14,9.68,25.36,23.52,41.78,29.7,18.55,7,38.89,4,58.17,2.91,9-.59,9.63-14.66.39-14.25-24,1.29-46,4.05-67-9.76-14.23-9.46-24.64-22.35-40.51-29.41-23.17-10.32-53.62-9.7-74.5,6a56.78,56.78,0,0,0-19.28,26.85c-4.12,11.7-2.58,45.57-32.42,29.65-5-2.65-8.77-10.56-13.2-14.09-13.32-10.78-28.52-19.54-42.28-30.69-16.88-13.77-37.91-18.51-57.44-27.3-8.15-3.61-15.54,8.38-7.17,12.18m-649.41,96.41c27.5-22.42,45.14-49.12,84.09-37.51,13.54,4,29,9.19,42.61,1.81,15.94-8.62,14.47-27.66,22.07-41.93,8.35-15.17,29.9-30.26,48.43-30.45,15.45-.12,32.1,8.72,46.87,12.57,8.86,2.31,13-11.25,4-13.54-23-6-45.29-18.07-69.09-9.78-25.19,8.81-38.54,23.39-48.2,47.12-3.22,7.91-5.93,21.54-15.29,25.25-7.78,3-19.77-2.17-27.39-4.38-9.1-2.71-18.46-6-28.11-5.56-29.72,1.79-48.76,29-69.9,46.35-7.14,5.58,2.83,15.83,10,10m-503.54-544.89c-43,24.2-51.39,64.72-53.86,111.52-1.41,26.09,3.7,48.93,10,73.93,5.78,23.4,1.41,48.72,11.8,70.69,9.33,19.37,20.63,47,38.11,60.53,6.86,5.38,15.33,7.93,23.43,10.92a312.67,312.67,0,0,1,49,22.89c43,25.27,89,43.68,139.17,47.3,48.75,3.53,96.22-30.75,135.29-55.21,45.13-28.1,40.81-77.18,51.9-124.33,5.1-21.68,20.52-40.76,17-64-2.12-14.66-7-28.24-8.58-43.56-1.11-10.21-2.77-19.75-6.71-29.3-19-47.17-44.46-88.21-87.16-116.6-21.24-14.2-44.27-27.63-69.92-30.93-29.8-3.77-46.66,10.71-73.46,20.07-32.17,11.5-65.35,20.81-97.84,31.1-29.08,9.16-61.43,4.59-88.09,20.13-7.84,4.61-1.18,17,6.68,12.6,20.2-11.67,41.75-8,63.6-12.61,24.5-5.05,48.58-14.8,72.47-22.06,18.27-5.52,36.94-11.09,54.86-18.23,22.52-8.79,39-20.55,64.55-16,44.18,7.86,92.8,45,113.92,83.54,10.32,18.87,24.22,40.94,30.17,61.64,3.28,11.46,2.07,23.52,4.14,35.3,2,11.15,8.62,22.94,8.2,34.52-.87,18.21-15.56,40.94-19.29,59.41-4.33,21-6.12,42.79-11.29,63.65-10.59,43.6-73.62,72-112.85,87.66-41.61,16.65-95.34,5.72-135.32-13-17.62-8.14-34.57-18-51.49-27.62-18.25-10.55-40.86-14.54-58.3-25.36-21.81-13.54-42.57-59.73-44.65-83.25a360.83,360.83,0,0,0-9.14-56.91c-12.86-52.45-11.77-126.54,40.26-155.87,8.07-4.42,1.39-17-6.67-12.6M2204,1249.82c-15,5-40.31,12.63-55,4.85-7.78-4.05-15.24-13.9-21.92-19.5-20.53-17.77-36.44-39.25-54.68-59.07-16.88-18.51-36.22-34.53-53.09-52.83-9.12-9.91-19.1-17.9-23.13-30.94-4.85-15.23.74-31.39,4.55-46.57,11-44,6.15-93.91,32.39-132.91,13.31-19.72,25.9-35.88,37.41-57.3,15.38-29,46.65-60,82-56.69,24.1,2.2,52.87,17.6,70.7,32.72,20.49,17.36,27.64,40,42.49,61.18,10.85,15.53,29.22,20.51,45.05,29.42,17.36,9.8,32.72,13.4,52.36,16.41,23,3.74,51.82,8,69.36,24.59,19.1,17.9,27.21,46.86,38.51,69.78,12.5,24.87,21.63,42,23.73,70.46.68,10,3.37,19.49.76,29.61-3.4,12.87-13.38,25.91-19.79,37.4-30.23,54.61-76,98.42-140.58,107.41-30.15,4.1-59-10-86.51-20.4-14.06-5.15-30-12.82-44.58-7.62-8.59,3-5.53,16.77,3.29,13.94,21.4-7.46,55.2,16,75.3,21.8,25.8,7.41,48,8.55,74,1.93,56-14.62,99.31-51.83,126.86-101.66,10.5-18.86,27.21-39.71,27.69-62.42s-1.12-47.72-11.58-68.24c-22.45-44.19-39.15-102.69-90.15-120.05-23.8-8.2-49.72-7.57-73.29-15.38-13.39-4.59-25.55-14-38.46-20.11-21.94-10.43-27.1-31.62-40.1-50.46-23.37-33.6-76.1-70.59-119.52-65.11-58.9,7.46-81.24,74.35-111.3,114.52-14.38,19.19-23.48,42.26-28,65.74-2.43,12.17-2,23.88-3.18,36.35-1.73,20.15-8.53,38.88-12.58,58.41-4.33,21-5,39,8.88,56.31,22,27.33,50.45,48.52,73.76,74.5,22.63,25.21,43.47,51.2,69.86,72.37,20.85,16.71,48.47,9.74,71.88,1.7,8.37-3.21,5.29-17.16-3.31-14.14m21.31,330.58c-25.57,13.8-51,27.58-76.77,41-20.29,10.65-35.45,21-47.31,40.85-13.29,22.2-27.54,47.57-33.12,73.21-5.47,24.39-2.06,49-.92,73.66,1.16,22.57.87,42.59,10.14,63.62,10.31,23.41,23.31,49.27,39.31,69.5,26.69,33.92,70.65,41.59,111.55,42.52,26.43.55,54.08-3.74,80.16,2.21,25.88,6,44.88,25.1,69.22,34.7,30.73,11.93,66.71-5.46,86.36-30.49,13.33-17,15.9-39.32,21.54-59.61,8.28-30,21.42-58.57,29.29-88.53,6.33-24,6.47-45.91,2.24-70.48-4.17-24-4.24-48.06-15.83-69.71-11.1-20.67-22.15-50.2-41.35-64.58-10.17-7.76-23.43-10.92-34.85-16.51-11.86-6-22.64-13.67-35.06-19-57-24.25-121.29-22.08-180-37.52-8.86-2.31-13,11.25-4.16,13.56,38.84,10.38,80.12,13.34,119.74,21,42.14,8,83.4,24.8,120.37,46.68,19.56,11.47,29.69,39.85,40.47,59.3,12.26,22.21,12.91,45.86,16.91,70.24,8.76,52.61-15.14,97.17-29.75,146.49-11.41,38.93-24.53,91.2-76.66,89-23.18-1-43.52-21.31-63.94-30.84-13.33-6.25-27.59-9.11-42.11-10.1-40-2.86-80.18,4.59-119.2-7.84-44.34-14.23-81.18-74.46-88-119.41-3.43-22.57-3.53-47.09-4.1-69.92-.64-32.92,9.58-57.32,25-86.09,14-26,28.69-41.69,55.12-55.15,24.44-12.67,48.63-25.93,72.83-39,7.82-4.81,1-17.19-7.11-12.77m947.19,592.76c-20.06,10.84-37.34,20.6-60.79,11.75-17.48-6.5-32.68-20-46.89-31.53-14.63-11.69-29.68-23.35-42.07-37.72-13.55-15.7-21.57-34.17-30.81-52.52-19.16-37.27-45.67-69.14-41.12-113.44,3.36-34.31-.74-69.19,4.94-102.88.95-5.65,1.24-11.65,2.82-17.15a34.37,34.37,0,0,1,9.07-21c9.67-.23,19.32-.67,29-.9,14.51,5.52,32.43,31.15,40.48,43,19.26,29,33.11,62.21,48.84,93.39,16.2,31.76,30.83,64.48,45.84,96.75,15.52,33.46,20.62,70.32,36.76,103.73,4,8.3,16.41,1.44,12.6-6.67-12.36-25.71-17.87-53.05-27-79.86-7.76-22.61-19.72-43.61-29.66-65.2-20.4-44.37-40.89-89.76-64.84-132.38-13.92-24.53-39.84-66.15-70.63-71.68-29.95-5.4-41.07,22.79-45.56,46.68-4.73,25.77-4.4,45.94-3.74,72.06.35,20.37-5.3,40.45-4.56,60.58.91,22,11.41,42.9,21.94,61.76,12,22,23.48,44.3,35.52,66.33,20.39,37.16,55.65,65.38,90.29,88.91,35.29,23.89,60.54,20.43,96.52.77,8-4.83,1.17-17.21-6.9-12.79m-723.94,251.58c-38.08-11.07-80.17-16.22-119.83-12.52-22.49,2-40.14,2.92-62.54-1.08-17.39-3.21-35.16-6-52.68-8.34-42.14-5.77-83.21-11-124-22.66-17.35-5.07-52.57-14.13-38.4-38,6.46-10.87,20.58-19.12,30.71-25.79,26.48-17.59,50.13-39.25,77.09-56.06,15.62-9.82,35.06-23.08,53.48-27,30-6.15,55.78,13.22,75.47,33.13,26,26.35,59,40.14,91.2,57.29,39.15,20.87,64.43,59.87,86.13,97.94,4.61,7.84,17,1.18,12.61-6.68a418.61,418.61,0,0,0-30.49-46.57c-10-13.13-19.51-29.61-32.2-40.24-29.39-24.82-70.36-33.58-100.91-57.47-27.45-21.49-45.68-48.33-83.35-52.42-31.41-3.21-61.34,17.36-86.25,34-25.31,16.87-48.49,36.84-73.76,54.11-14.19,9.71-34.28,22.61-37.62,40.83-3.53,18.45,12.39,30.65,27.42,37.57,30.51,14,68.2,20.78,101.22,25.91,22.15,3.41,44.54,4.94,66.69,8.34,21.95,3.43,45.24,10.44,67.76,11.14,20.67.65,41-4.65,61.88-4.22,29.52.49,58.28,4.14,86.62,12.36,8.47,2.55,12.64-11,3.76-13.53" fill="#231f20"/></svg>