<?xml version="1.0" encoding="utf-8"?>
<!-- Generator: Adobe Illustrator 21.1.0, SVG Export Plug-In . SVG Version: 6.00 Build 0)  -->
<svg version="1.1" id="Layer_1" xmlns="http://www.w3.org/2000/svg" xmlns:xlink="http://www.w3.org/1999/xlink" x="0px" y="0px"
	 viewBox="0 0 4000 3733.1" style="enable-background:new 0 0 4000 3733.1;" xml:space="preserve">
<style type="text/css">
	.st0{fill:#A97EB7;}
	.st1{clip-path:url(#SVGID_2_);fill:#231F20;}
	.st2{clip-path:url(#SVGID_2_);fill:#FFFFFF;}
	.st3{fill:#C3874A;}
	.st4{fill:#FFE78F;}
	.st5{fill:#AF2B39;}
	.st6{fill:#231F20;}
	.st7{fill:#FFFFFF;}
	.st8{fill:none;}
</style>
<rect class="st0" width="4000" height="3733.1"/>
<g>
	<defs>
		<rect id="SVGID_1_" x="497.2" y="2840.3" width="3164.7" height="625.8"/>
	</defs>
	<clipPath id="SVGID_2_">
		<use xlink:href="#SVGID_1_"  style="overflow:visible;"/>
	</clipPath>
	<path class="st1" d="M720.8,3093.8c3.2-1.6,5.6-2,6.6-3.4c5-7.4,11.8-12.1,20.1-15c1.5-0.6,2.9-1.8,4.2-2.9
		c8.3-7.2,16.5-14.4,24.8-21.7c17.4-15.2,32.4-32.6,46.7-50.6c10-12.6,16.9-26.5,20.6-42.2c1.4-6,0.1-10.9-3.8-15.3
		c-2.5-2.8-5.3-5.4-8.2-7.8c-24.1-19.1-52.3-28.6-82.3-33c-11.3-1.7-14.1,1.4-14.4,13c-0.1,5.5,0.6,11,0.9,16.5
		c0.1,2.7,0.5,5.5,0.3,8.2c-0.9,9.9-2.1,19.7-2.9,29.6c-0.2,2.7,0.5,5.4,0.9,8.1c0.7,4,1.7,7.9,2.3,11.8c0.7,4.3,1.3,8.6,1.4,13
		c0.1,5,1,10.9-1.2,14.9c-4.3,8-5.7,16.1-5.4,24.7c0.3,10-2.6,18.8-7.3,27.4C720,3076.6,719.8,3084.4,720.8,3093.8 M512.7,3177.4
		c2.6-0.7,5.4-1.8,8.4-2.4c16.5-3.3,33-6.6,49.6-9.7c6.4-1.2,12.9-1.8,19.3-2.7c2.4-0.3,4.9-0.1,7.1-1c16.3-6.3,17.6-7.5,18.5-23.3
		c2.1-37.4,4.1-74.9,6.4-112.3c0.7-10.6,2.2-21.2,3.2-31.8c2-22.6,4.2-45.2,5.8-67.9c0.4-5.4-0.9-10.9-1.9-16.3
		c-0.7-3.9-3.7-5.9-7.7-5.1c-10.4,2-20.8,4-31.2,6.2c-9.1,1.9-18.1,4.2-27.1,6.2c-16.4,3.6-32.6,8-49.6,7.2c-2-0.1-4.1-0.3-5.2-0.4
		c-4.1-4.8-7.6-8.9-10.8-12.6c1.7-6.4,2.9-12.6,4.9-18.6c2-6,5.4-11.2,11.9-13.5c16.9-6,33.4-12.9,50.7-17.6
		c16.5-4.5,33.6-6.7,50.5-9.7c9.5-1.7,19-3.5,28.6-4.5c10.5-1.1,21.1-1.5,31.7-2.2c9.6-0.7,19.2-1.2,28.8-2
		c20.9-1.7,41.6-1.1,62.6,1.9c17.9,2.6,34.9,8.2,51.8,13.4c37.1,11.4,55.5,24.8,82.5,53.9c2.9,3.2,6.2,6,9.8,9.3
		c3.3-4.4,5.7-8,8.6-11.1c8.1-8.6,18.9-10.4,30-11.6c19-1.9,24.6-1.5,44,5.4c5.6,2,8.1-1.1,11-6.2c5.2,25.3,16.1,48,14.6,73.4
		c-0.3,5.7,2.3,11.5,2.5,17.3c0.6,15.1,0.2,30.2,0.9,45.2c0.6,13.7,2.1,27.4,3.2,41.1c0.2,2,0.4,4.1,0.5,6.1
		c0.3,18.2,0.1,36.5,0.8,54.7c0.5,11,2.4,21.9,3.6,32.8c0.6,6.1,0.9,12.3,1.4,18.4c0.2,2.4,0,5.2,1.2,6.9c3.5,4.9,4,10.3,3.3,15.8
		c-1.4,11.5,2.3,23.2-2.4,34.6c-1.4,3.3,0,7.7,0.1,13.5c3.3-2.4,5.3-3.2,6.3-4.6c6.6-9.7,12.9-19.4,19.3-29.2
		c0.9-1.4,1.6-3.1,2.7-4.4c8.8-9.7,16-20.6,22.8-31.7c7.9-12.9,16.8-25.1,24.3-38.2c8.6-14.9,16-30.5,24.2-45.6
		c7.9-14.5,16.5-28.6,24.3-43.1c8-14.9,15.4-30,22.9-45.1c1.4-2.7,2.1-5.9,2.7-8.9c0.9-4,0.1-7.4-3.6-9.9c-11.8-8-24-14.5-38.8-15.4
		c-26.1-1.6-52.2-3.8-78.3-6c-11.3-0.9-19.7-10.3-20.4-21.4c-0.3-5.6-2.8-10.7-0.6-16.8c1.6-4.4,3.6-7.2,8-8.4
		c19-5,37.8-10.1,57.9-8.3c11.6,1,23.4,0.4,35.1,0.5c26,0.2,51.5,4.8,76.4,11.7c18.6,5.2,36.8,11.5,51.6,24.8
		c4,3.6,7.7,7.7,11.2,11.9c2.7,3.3,3.9,6.8,1.1,11.3c-1.4,2.2-0.7,6-0.1,8.9c2.7,13.1,0.6,18.4-10.3,25.5c-2.2,1.4-3.9,3.8-5.2,6.1
		c-12.3,21.9-24.1,44.1-36.7,65.8c-12.1,20.8-25.3,40.8-37,61.9c-6.2,11.3-13.9,21.9-19.7,33.6c-3.4,6.7-5.8,14-9.7,20.4
		c-7.5,12.3-15.8,24.1-23.7,36.2c-5.1,7.8-10.3,15.5-15,23.5c-1.4,2.4-1.5,5.6-2.1,8.4c2.8,0.4,5.9,1.7,8.4,1
		c13-3.4,25.7-7.4,38.7-10.9c31.2-8.4,62.5-16.9,93.8-25c17.7-4.6,35.5-8.6,53.2-12.7c8.9-2,13.4-6.9,16.7-15.9
		c4.7-12.7,11.4-25.1,19.4-36.2c16-22.4,33.5-43.7,50.2-65.6c15.9-20.8,31.8-41.5,47.4-62.6c9.6-13,18.9-26.2,27.8-39.7
		c4.3-6.5,7.3-13.9,10.7-20.6c-6.9-10.8-18.1-11.8-27.8-13.6c-16.1-3.1-32.4-4-49.1-1.8c-17.3,2.2-35,1.5-52.6,1.7
		c-10.3,0.1-20.7-0.5-31-0.4c-11.4,0.1-18.6-7.1-21.7-16.1c-3.2-9.3-2.7-20.2,5.3-28c3.2-3.1,8.4-4.7,13-5.4
		c22.1-3.4,44.2-7.1,66.4-9.1c16.3-1.5,32.9-1.1,49.3-0.6c30.7,0.9,60.8,6.4,90.5,14c10.6,2.7,21.1,6.5,31.3,10.7
		c14.2,5.9,22.5,21,20.4,36.1c-3.8,1.1-9.3,1.1-6.9,7.9c0.3,0.9,0.6,2.6,0.4,2.7c-7.2,3.6-4.6,10.7-6.4,16.3
		c-1.3,4.1-4.2,7.7-6.7,11.4c-3.4,5.1-6.7,10.4-10.5,15.1c-7.9,9.9-15.6,20.1-24.6,28.9c-4.8,4.7-8.8,9.4-11.6,15.4
		c-2.3,4.9-4.9,9.8-8.2,14.1c-10.1,13.5-20.5,26.8-30.7,40.2c-1.2,1.6-1.9,3.6-2.8,5.5c-2.1,4-3.5,8.5-6.3,11.7
		c-11.8,13.7-19.3,30.1-28.2,45.6c-0.9,1.5-2.1,3-2.3,4.6c-0.5,3.5-1.8,7.8-0.4,10.5c0.9,1.7,6.3,2.1,9.3,1.5
		c16.5-3.3,32.9-7.3,49.4-10.8c27.3-5.8,54-14.4,82-16.4c14.3-1.1,28.7,0.2,43.1,0.5c2,0,4.2,0.5,6.1,1.2c4.9,1.8,6.7,5.5,3.7,9.6
		c-2.7,3.7-6.5,7-10.5,9.4c-5,3-10.7,4.7-15.8,7.5c-3.2,1.8-5.7,4.7-8.6,6.9c-3,2.3-5.8,4.9-9.2,6.5c-14.2,7-29.2,11.8-44.4,16.4
		c-20.4,6.1-41.9,8.2-61.5,17.2c-5.5,2.5-11.9,3.6-18,4.5c-19,2.9-38.1,6.1-57.2,7.9c-10.2,1-20.6-0.2-30.9-1.4
		c-10.5-1.2-20.2-0.2-30.4,3.4c-15.2,5.4-30.4,10.6-46.6,13.1c-12.4,1.9-24.3,7.1-36.5,10.8c-11.9,3.6-23.7,7.2-35.6,10.8
		c-14.5,4.4-29.2,8.3-43.4,13.4c-24.4,8.7-49.4,15-74.7,20.2c-18.1,3.8-36.3,5.7-54.3,2.2c-9.8-1.9-18.8-7.7-28.1-11.9
		c-4-1.8-7.8-4.4-11.9-5.9c-4.4-1.6-8.7-0.9-12.5,2.5c-3.8,3.5-7.9,6.6-12,9.7c-1.6,1.2-3.5,1.8-5.4,2.6c-4.1,1.6-8.4,2.9-12.4,4.8
		c-9.8,4.8-14.3,3.7-21.2-4.6c-1.7-2-4.9-3.6-7.6-3.9c-7.2-1-11.7-4-11-10.5c2.9-24.6-2.8-48.7-3.4-73.1c-1-38.9-2-77.8-3-116.7
		c-0.7-30.2-1.3-60.5-2.1-90.7c-0.4-15.1-1.1-30.3-1.7-45.4c-0.1-1.7,0.1-3.6-0.6-5.1c-0.9-2-2.7-5.5-3.6-5.4
		c-2.3,0.3-5.3,1.9-6.4,3.8c-14.6,26.9-34.3,49.3-58.3,68.1c-3.5,2.7-6.7,6.1-9.4,9.6c-11,14.4-24.9,25.4-39.3,36
		c-13.8,10.2-27.7,20.4-41.6,30.5c-7.5,5.5-14.9,11.1-22.8,16c-7,4.3-9.5,10.4-10.1,18c-1.5,17.4-1.1,35-5,52.3
		c-1.7,7.7-1.5,16,0.2,24.4c2.7,13.8,3.1,28,4.9,42c1.5,12.3,3.4,24.5,5.4,36.7c1.4,9.1-1.6,13.6-11,14.4c-4.1,0.4-6.5,2.6-9.7,4.5
		c-8.8,5.1-16.5,12.4-26.9,14.4c-2.3,0.4-5.1,1.1-6.5,2.7c-6.1,6.6-14.1,9.1-22.2,12c-8,2.9-14.9,2.7-20.5-4.2
		c-3.3-4.1-7-6.1-12.3-6.3c-5-0.2-8.2-3.5-9.1-8.5c-1-5.1-2.1-10.2-2.4-15.3c-1.2-26.2-2.3-52.3-2.9-78.5
		c-0.4-13.1,0.2-26.1,0.4-39.2c0.1-11.6-3.8-14.9-15.1-13.1c-11.5,1.8-23.2,5.2-34.6,4.7c-11.7-0.5-23.3-4.9-34.9-7.8
		c-2.2-0.6-4.1-2.5-6.2-3.7C513.8,3191.2,512.4,3188.5,512.7,3177.4"/>
	<path class="st1" d="M3037.7,3116.8c0.7,0.1,1.4,0.2,2.1,0.2c0.2-2,0.4-3.9,0.5-5.9c-0.6-0.1-1.3-0.2-1.9-0.2
		C3038.1,3112.9,3037.9,3114.9,3037.7,3116.8 M2737.8,3153.3c0.8,0.2,1.7,0.5,2.6,0.7c0.5-1.8,1-3.6,1.5-5.5
		c-0.9-0.2-2.5-0.6-2.6-0.5C2738.6,3149.8,2738.2,3151.6,2737.8,3153.3 M3346.1,3000.2c1,0.1,2.1,0.1,3.1,0.2
		c0.8-3.2,2.5-6.4-1.7-9.8C3347,2993.8,3346.6,2997,3346.1,3000.2 M3054.1,2992.3c-1,0-1.9,0-2.9,0.1c-0.7,3.3-2.3,6.6,2.9,11.2
		V2992.3z M2737.1,3211.4c2,9.7,4.5,19.3,5.8,29c0.9,7,4.4,12.2,8.7,17.1c4.4,5,6.9,5.7,12.5,2.1c6.6-4.2,13.5-8.6,18.7-14.4
		c7.3-8.1,14.1-17,19.4-26.6c5.7-10.2,9.4-21.4,9.3-33.5c-0.4-30.9-11.1-58.5-26.5-84.6c-1.7-2.8-4.4-5.4-7.3-7.1
		c-6.3-3.6-10.3-1.9-12.7,5.1c-1.7,4.9-2.1,10.2-4.1,14.9c-8,19-15.2,38.3-19.2,58.6C2739.2,3185.1,2737.3,3198,2737.1,3211.4
		 M3200.6,2949c-2.5,8.8-1.9,16.1,2.3,21.9c2.9,4.1,4.1,7.7,3.6,12.2c-0.8,7.9-1.4,15.8-2.8,23.6c-0.9,5-3,9.8-4.4,14.8
		c-2.4,8.9-5.2,17.7-6.9,26.8c-1.5,8.4-1.9,17.1-2.6,25.7c-2.1,27.1-4.2,54.2-6.2,81.3c-0.2,2.4,0.1,4.9-0.6,7.2
		c-5.8,19.8-3.8,40.3-5.3,60.5c-0.4,5.5-1.2,10.9-1.7,16.4c-0.3,2.7-1,5.6-0.5,8.2c3.5,18.4-0.2,37.1,1.8,55.5
		c0.3,2.6-0.4,5.3-0.7,8.3c-7-1.9-1.2-8.7-6.6-11.8c0,4.5-0.5,8.4,0.1,12.2c1,6.4-1.5,10.3-6.8,13.7c-4.1,2.6-7.4,6.5-12.2,10.7
		c-9.8-4.9-19.2,0-28.4,6.5c-4.6,3.2-9.5,2-12.2-3.1c-2.3-4.3-5-6.8-9.8-8c-2.4-0.6-5.1-3.8-5.9-6.4c-1.8-6.2-3.3-12.8-3.5-19.2
		c-0.5-22-1-44-0.4-66c0.7-24.1,2.6-48.1,3.9-72.2c1.1-20.6,2-41.3,2.7-61.9c0.3-7.1-1.3-8.7-8.4-8c-10.3,1.1-20.5,2.5-30.7,4.4
		c-11.1,2.1-12.6,4-13.5,14.9c-0.8,9.6-1.1,19.2-1.8,28.9c-0.2,2.1-1.2,4-1.8,6.1c-0.8-0.1-1.5-0.2-2.3-0.3
		c0.4-9.3,0.8-18.5,1.2-27.8c-0.9-0.1-1.8-0.2-2.8-0.3c-0.8,7.1-2.2,14.2-2.4,21.3c-0.5,17.9-0.4,35.8-0.7,53.6
		c-0.3,20.6-1.5,41.3-1.1,61.9c0.2,12.4-6.4,21.5-11.8,31.3c-1.6,2.8-6,5.1-9.4,5.7c-5.1,0.9-9.1,2.9-12.6,6.3
		c-1.2,1.2-3.1,2.8-4.3,2.5c-5.9-1.4-9.4,1.4-13.3,5.2c-2.8,2.7-7.1,2-10.5-0.7c-2.4-1.9-4.5-4.3-7.1-5.9
		c-10.1-6-12.9-11.7-11.3-23.7c1.4-10.9,3.8-21.8,4-32.8c0.6-25.5,0-50.9,0.3-76.4c0.2-13.1,1.4-26.1,2.2-39.2
		c0.1-2.1,0.3-4.1,0.5-6.2c1.1-14.6-1-17.4-15.7-17c-10.9,0.3-20.3-3.4-29.7-7.6c-3.2-1.4-6.3-4.4-8.2-7.4c-3.7-5.8-6.8-12-9.5-18.3
		c-1.8-4.2-4.5-6-8.8-5.3c-5.1,0.8-10.2,1.6-15.2,2.8c-9.4,2.3-18.6,5-28,7.3c-8.8,2.1-11.4,6.7-7.7,15c4.4,10.1,9.7,19.8,13.8,30
		c3.5,8.9,5.9,18.3,8.7,27.4c1.1,3.6,2.1,7.3,3.5,10.8c5.5,14.3,7.2,28-0.5,42.6c-3.7,7-5.1,15.9-5.2,23.9c-0.2,11-3.7,20-10.7,28.1
		c-8.6,9.9-17.2,19.7-30.1,24.2c-5.2,8.8-14.3,7.7-22.5,8.9c-3.4,0.5-6.7,1.6-9.9,2.9c-29.6,12.1-59.6,13.8-87.3-3.2
		c-20.6-12.7-34.2-32.3-40.1-56.8c-5.3-22.2-2.5-43.9,1.8-65.6c5.9-29.5,16-57.8,26.8-85.8c9.3-24.1,19-48.1,30.5-71.2
		c10.5-20.8,23.5-40.3,35.9-60.2c3.4-5.5,8.3-10,12.5-15c8.3-9.8,20.2-14.8,31.5-19c8.5-3.2,19-3.6,27.9,2.2
		c4.7,3.1,10.7,4.2,13.5,10.5c1,2.3,5.8,3.4,9,4.2c4.6,1.2,8.1,3.4,10.8,9.2c-4,2.2-7.7,5.1-12,6.5c-4.3,1.5-7,3.9-9.2,7.6
		c-11,18.7-22.1,37.2-33.2,55.8c-0.2,0.3-0.4,0.6-0.6,0.8c-2.2,3.5-4.9,7.2-2.6,11.4c2.5,4.5,7.3,3.4,11.2,2.9
		c8.5-1.2,17-2.8,25.4-4.5c23.6-4.9,47.1-10.2,70.7-14.8c13.4-2.6,26.6-2.1,39.3,4.5c4.4,2.3,9.9,2.8,14.9,3.7
		c4.8,0.8,7.7-1.3,8.4-6.6c3.3-26,6.8-51.9,10.1-77.8c0.3-2.4,0.3-4.9-0.3-7.2c-2.8-10.5,1.9-20.3,3.2-30.4c0.8-6.6,5.7-9,12.4-7.3
		c7.4,1.8,14.5,4.3,21.8,6.5c1.3,0.4,2.6,1.4,3.9,1.4c13.8-0.2,21.8,10.2,31.9,16.9c3.4,2.2,4.3,5.1,4.1,8.8
		c-0.6,9.6-1.2,19.2-1.8,28.9c-0.5,7.6-1.2,15.1-1.5,22.6c-0.1,2.3,0.3,5.4,1.7,6.7c5.5,5.2,3.8,11.3,3.1,17.4
		c-1.3,11.3-2.9,22.6-3.8,33.9c-0.7,8.7,1.3,10.4,10.2,9.1c10.2-1.4,20.4-3.4,30.6-4.8c8-1.1,11.1-5.9,11.9-13.3
		c1-9.3,2.5-18.5,3.1-27.7c1.2-19.2,2.4-38.5,2.6-57.7c0.1-7.4-2-14.9-4.2-22.1c-3.8-12.6-2-24.5,3-36.1c1.5-3.5,4-6.1,8.8-5.6
		c10.9,1.1,21.9,1.1,32.3,5.8c6.4,2.9,12.3,5.4,16.6,11.5c2.2,3.1,6.3,5.7,10,6.7c6.5,1.8,8.8,5.8,9.5,11.8
		c0.6,5.2,1.6,10.4,2.6,17.2c7-6.8-3.8-13.8,3.8-19.3c1.5,3.3,2.9,6.4,4.5,10c1.5-0.3,3.1-0.2,4-1c10.7-8.5,23.4-11.2,36.4-13.1
		c11.6-1.7,23.2-3.2,34.7-5.1c2.9-0.5,6.4-1.4,8.2-3.4c10.3-11.4,23.4-11,35.3-6c13.4,5.7,26.8,5.3,40.5,5.5
		c11.3,0.2,22.7,0.5,34,0.3c36.3-0.7,72.2,5,108.2,7.5c13.4,0.9,26.8,2.1,40,4c22.5,3.3,44.8,7.3,67.2,11.1c3,0.5,5.7,2.3,8.6,3.3
		c7.4,2.7,14.7,5.8,22.2,7.9c9.4,2.6,20.3,14.5,21.1,24c0.3,4.1,0.8,8.2,1.4,13.7c-2.8,0.7-5.9,2.1-9,2c-11.7-0.1-23.4-0.4-35.1-1
		c-26.1-1.4-52-6.6-78.3-5.6c-6.5,0.2-13-1.6-19.5-1.7c-17.8-0.4-35.7-0.4-53.5-0.6c-19.9-0.2-39.9-0.7-59.8-0.6
		c-12.7,0.1-25.4,0.5-38.1,1.6c-8.2,0.7-11.1,3.6-10.6,11.1c1,15.1-3.6,29.4-5.3,44c-2.6,22.2-5.8,44.4-8.8,66.5
		c-3,21.8-5.8,43.7-9,65.4c-1.1,7.8-2.9,15.5-4.7,23.2c-0.6,2.6-1.7,6.2-3.6,7c-5.8,2.5-5.7,7.2-6.1,12c-0.7,7.9-1.7,15.8-1.7,23.7
		c0,3.5,1.5,7.3,3.4,10.3c2.5,3.8,2.6,7.1-0.4,10.3c-3.2,3.3-3.3,6.5-1.1,10.3c2.6,4.4,1.8,8.3-1.7,12.2c-1.7,1.9-2.6,4.9-2.7,7.5
		c-1.2,20.9-2.7,41.9,0.8,62.8c1.5,8.8,3.7,17.4,5.3,26.1c0.6,3.3,0.6,6.7,1,10.2c-7.7,4.2-14.8,8.1-22.6,12.4
		c-7.4-4.3-16-3.6-24.5-2.7c-1.6,0.2-3.4,0.3-4.9,1c-7.9,3.4-7.8,3.4-13.8-2.5c-2.1-2.1-4.6-4.6-7.3-5.3c-6.5-1.7-8.9-6.4-9.6-12.1
		c-0.8-6.5-0.6-13.1-1.1-19.6c-2.4-33.1-0.6-66,2.2-99c1.6-18.2,2-36.4,3.6-54.6c1.4-16.1,3.6-32.1,5.7-48.2
		c3-22.9,6.3-45.7,9.5-68.5c3.9-28,7.8-55.9,11.9-83.9c2-14-0.5-16.7-14.7-14.7c-17.3,2.4-33.5-1.9-49-9
		C3206.1,2955,3204.2,2952.3,3200.6,2949"/>
	<path class="st1" d="M2339.8,3088.9c-3.5,0.5-5.1,0.8-7.1,1.1c6.4,20.8,14,40.6,27.3,60.8c1.4-6,2.9-9.7,3.1-13.5
		c2.2-32.6,4.3-65.2,6.1-97.8c1.4-26.5,2-52.9,3.4-79.4c1.3-24.4,3.3-48.8,4.8-73.2c0.6-9.6,0.7-19.3,1.1-28.9
		c0.1-2.7,0.4-5.5,0.8-8.2c0.6-3.6,2.7-5.6,6.5-4.9c4.3,0.9,8,0.2,11.5-2.7c1.6-1.4,4.4-1.7,6.7-1.7c6.4-0.2,12.9-0.1,19.3-0.1
		c0.7,0,1.7-0.2,2,0.2c5.7,6.7,14.5,3.2,21.1,6.2c6.4,2.9,12.1,7.7,17.3,12.6c2.9,2.7,3.5,7,0.3,11.3c-2.6,3.4-4.1,7.7-5.8,11.8
		c-2.4,5.6-2.2,12.3-7.5,16.6c-0.9,0.8-1.7,2.7-1.4,3.7c2.9,9.9-3.4,18.4-4,27.7c-0.7,9.6-0.2,19.2-0.3,28.8c0,1.4,0.5,2.9,0.1,4.1
		c-4.8,12.6-1.9,25.8-2.9,38.6c-0.4,5.1-0.6,10.3-1.9,15.2c-3.7,14.5,7,26.9,5.5,41.1c-0.9,8.5-1.1,17.1-1.3,25.7
		c-0.3,15.4,1,30.9-0.9,46c-1.6,13.4-2.3,26.7-2.8,40c-1.1,26.5-2.5,53-3.5,79.5c-0.4,10.6-0.4,21.3,0.4,31.9
		c0.4,5.6,2.3,11.4,4.6,16.6c4.2,9.3-1.5,19.3-11.6,18.2c-6-0.6-10.8,0.8-15.4,4.2c-1.3,1-2.9,2.1-4.5,2.4
		c-11.2,1.9-21.2,7.2-31.6,11.3c-3.7,1.5-7.2,2-10.8-0.5c-1.9-1.4-4.2-2.9-6.4-3.2c-9.2-1.1-12.7-7.2-14.4-15.2
		c-0.4-1.7-0.9-3.4-1.8-4.8c-9.7-16.2-19.6-32.3-29.3-48.6c-11.2-18.9-22.2-38-33.4-57c-2.9-4.9-5-10.7-12.2-12.6
		c-2.5,7.7-3.8,15.3-3.6,23.1c0.3,13.7,0.9,27.5,1.1,41.2c0,2.3-0.9,4.7-1.7,6.9c-1.9,5.4-1.8,10.4,0.4,16c2.2,5.7,3.5,12,3.7,18.1
		c0.2,8.1-5.2,13.2-12.2,16.3c-4.4,2-8.9,4-13.6,4.8c-10.9,1.9-19.5,8.3-28.9,13.3c-4.6,2.5-9,4.6-14.6,2.5
		c-2.1-0.8-5.5-0.3-7.6,0.9c-4.8,2.6-8.3,2-11.8-2.1c-2-2.3-4.5-4.3-7.2-5.5c-7.7-3.4-10-6.1-10-14.4c0-25.9,0.2-51.7,0.3-77.6
		c0.1-31,0.5-62,0.1-93c-0.4-32-0.4-64-2.5-95.9c-1.5-23.2,0.7-46,2-68.9c0.1-2.4,0.1-5.3,1.4-7c5.1-6.4,3.9-13.5,3.2-20.7
		c-0.9-8.9-1.5-17.9,4.7-25.6c1.5-1.8,2.8-4.5,4.7-5.2c10.7-3.6,21.5-8.7,32.5-9.5c15.3-1.2,31-0.6,45.8,5.5c6,2.4,12.2,4.5,18,7.4
		c2.2,1.1,4.3,3.7,5.1,6.1c5.5,15.2,10.6,30.5,15.9,45.7c1.1,3.2,2.1,6.6,3.8,9.6c5.9,11.1,9.3,22.9,10.7,35.3
		c0.1,1.4,0.2,2.8,0.7,4c6.4,14.9,12.8,29.7,19.2,44.5C2333.6,3074.7,2336.5,3081.3,2339.8,3088.9"/>
	<path class="st1" d="M1887,2862.6c0.9-2.1,2-4.8,3.1-7.4c2.7,11.9,8.2,23,6.2,35.5c-1,6.1-1,12.3-1.2,18.5
		c-0.6,16.4-1.1,32.8-1.4,49.3c-0.2,10,0.4,19.9,0.4,29.9c-0.1,15.1-0.4,30.2-0.5,45.4c0,3.3,0.3,6.8,1,10.1
		c1.7,8.3,3.8,16.5,5.5,24c-1.8,1.9-2.4,2.8-3.2,3.4c-5,3.4-4.7,8.5-3.1,13c1.8,4.9,6.9,5.2,11.4,5c5.5-0.2,11-1,16.4-1.6
		c19.1-1.8,38.3-3.9,57.4-5.3c5.7-0.4,11.6,1,17.4,1.5c4,0.3,8.2,1,8.9,5.4c0.7,4.6,1.1,9.6-3.6,13.2c-4.1,3.1-7.9,6.7-11.8,10.1
		c-2.1,1.8-4.6,3.3-6.1,5.5c-4.8,7.2-12.3,10.2-19.8,12.2c-16.3,4.4-32.8,7.6-49.2,11.3c-2.7,0.6-5.5,0.8-8,1.8
		c-10.7,4.3-11,6.1-5.7,16.6c3.3,6.7,5.7,13.5,3.3,21.8c-1.5,5.1-0.4,11.8,1.5,16.9c4.2,11.1,5.7,22.5,6.6,34.2
		c1.3,17.8,3.5,35.5,5.7,53.2c0.4,2.9,1.9,6,3.7,8.4c8,10.5,8.4,22.1,6.6,34.4c-0.8,5-0.7,10.2-0.7,15.4c0.1,8.2,0.4,16.5,0.6,24.7
		c0.1,3.1-1.4,6.7-4.3,5.7c-9.4-3-14.1,2.8-19.1,8.7c-0.4,0.5-1.2,0.5-2.5,1.1c-2.1-2.2-4.3-4.6-7-7.5c-1.8,1.4-4,2.3-4.7,3.8
		c-2.1,5.4-5.5,6.9-11.3,6.4c-2.6-0.2-5.8,2.8-8.3,4.9c-6,5-7.4,5.2-12-1.4c-2.4-3.5-4.9-5.4-9.4-4.7c-4.2,0.7-6.6-1.7-7.3-5.5
		c-0.7-3.7-2.1-7.7-1.3-11.2c3.2-14-0.2-27.5-2.1-41c-3-21.8-7.6-43.4-11.4-65.1c-5.6-31.9-11.1-63.8-16.7-95.6
		c-1.7-9.9-3.5-11.6-13.5-11.5c-4.4,0-8.9,0.8-13.2,2c-2.4,0.7-5.5,2.6-6.3,4.8c-2.7,7.7-4.7,15.7-6.6,23.6
		c-1.3,5.3-2.5,10.7-3.2,16.1c-2.6,19.7-8.2,39-8.7,59.1c-0.2,8.9-7,14.5-18.3,16.5c-6.4,1.1-12.9,1.4-19.2,2.7
		c-3.2,0.7-6.7,2.1-9.1,4.3c-7.3,6.6-16.6,5.8-25.2,7.7c-1.7,0.4-3.9-1.1-5.7-1.9c-4.7-2.1-9.2-4.6-13.9-6.7
		c-6.5-2.9-9-6.6-7.7-13.8c2-10.8,4.6-21.5,6.7-32.3c3-15.6,5.8-31.1,8.8-46.7c1-5.1,2.4-10.1,2.9-15.1c0.6-5.8-1-7.5-6.9-7.5
		c-5.8,0-11.7,0.8-17.5,1c-9.6,0.3-19.2,0.7-28.8,0.4c-7-0.3-12-5.1-15.8-10.5c-2.4-3.3-4.8-5.2-8.7-6.4c-9.4-3-11.4-14.4-4.2-21.2
		c5.2-4.9,11.6-7.3,18.6-8.4c20.8-3.1,41.5-6.1,62.3-9c13.6-1.9,16.3-4.8,19.7-18.4c8.7-34,18.6-67.8,33.7-99.6
		c11.2-23.6,22.9-47,35.3-70c10-18.4,22.7-35.5,31.7-54.3c5.6-11.7,12.3-18.1,25-18.6c9.3-0.4,18.5-1.4,27.8-1.4
		c2.5,0,5.3,2.7,7.3,4.8c3.6,3.8,7.2,5.4,12.8,4.4C1876,2860.3,1881.2,2862,1887,2862.6"/>
	<path class="st1" d="M2518.6,2999.1c-1-20.6-2.2-41.2-2.9-61.8c-0.3-8.6,0.3-17.2,1.3-25.8c0.8-6.6,3.2-8.5,9.5-8.7
		c12.6-0.5,25.4-1.8,37.9-0.7c12.8,1.1,25.5,4.6,38.1,7.3c5.2,1.1,8.1,4.1,8.8,9.9c0.7,5.4,2.5,10.7,4.8,15.7
		c4.1,8.7,3.9,17.1,0.3,25.9c-1.8,4.4-3.3,9.2-3.4,13.9c-0.2,27.2-0.9,54.4,0.8,81.4c0.7,10.4,0,20.3-0.8,30.4
		c-0.5,7.1,1.7,14.4,1.5,21.5c-0.5,19.5,1.9,39-1.7,58.6c-2.3,12.4-1.1,25.4-1.3,38.1c0,2,1.2,4,1.4,6c0.4,5.1,2.1,10.8,0.4,15.1
		c-4.7,11.6-1.6,23.2-2,34.8c-0.1,3.5,2,7.1,3.2,10.7c1.1,3.5,2.9,6.9,3.3,10.4c1.1,10.1-4.8,16.9-14.9,17
		c-4.8,0.1-8.4,0.7-11.6,4.8c-1.5,1.9-5.4,3-8.1,2.7c-10.1-1.2-19.4,2.2-28.9,4c-1.7,0.3-3.7,1.9-4.8,1.4
		c-6.2-3.3-12.8-6.3-18.1-10.8c-2.7-2.3-4.2-7.2-4.5-11.1c-1.1-14.4-1.4-28.9-2-43.4c-0.3-5.8-0.8-11.7-1-17.5
		c-0.9-22.7-1.6-45.3-2.6-68c-0.3-7.9-1.3-15.7-1.6-23.6c-0.8-23.1-1.7-46.1-2.1-69.2c-0.3-16.5,0.2-33,0.2-49.5
		c0-6.5,0-13.1,0-19.6C2518.2,2999.2,2518.4,2999.2,2518.6,2999.1"/>
	<path class="st1" d="M3451.4,3466.1c-7.8-4.7-7.8-7.5-0.4-13.2C3454.8,3457.3,3453.2,3461.5,3451.4,3466.1"/>
	<path class="st2" d="M3054.1,2992.3v11.3c-5.2-4.7-3.6-8-2.9-11.2C3052.2,2992.3,3053.2,2992.3,3054.1,2992.3"/>
	<path class="st2" d="M3346.1,3000.2c0.4-3.2,0.9-6.4,1.3-9.6c4.2,3.4,2.5,6.6,1.7,9.8C3348.2,3000.3,3347.1,3000.3,3346.1,3000.2"
		/>
	<path class="st2" d="M2737.8,3153.3c0.5-1.8,0.9-3.6,1.5-5.3c0.1-0.1,1.7,0.3,2.6,0.5c-0.5,1.8-1,3.6-1.5,5.5
		C2739.5,3153.8,2738.6,3153.6,2737.8,3153.3"/>
	<path class="st2" d="M3037.7,3116.8c0.2-2,0.5-3.9,0.7-5.9c0.6,0.1,1.3,0.2,1.9,0.2c-0.2,2-0.4,3.9-0.5,5.9
		C3039.1,3117,3038.4,3116.9,3037.7,3116.8"/>
</g>
<g>
	<path class="st3" d="M1825.4,164.4c-57.3-11.1-114.4,14.8-155.5,53.7c-43.6,41.3-65.4,96.8-93.8,148.3
		c-29.3,53.2-68.9,97-119.7,130.5c-15.9,10.4-24.2,24.6-26.9,39.4c-50.5,30.8-89.5,79-122.4,133.2
		c-61.2,100.8-119.2,203.7-178.8,305.5c-29.8,51-59.7,102.1-89.5,153.1c-39.8,38.2-75,82.5-107.5,127.9
		c-22.3,21.8-39.5,49-51.6,80.6c-5.5,14.4-5.2,27.2-1.1,38c-2.1,2.3-4.1,4.7-6.2,7c-41,44.7-88.2,83.4-127.7,129.5
		c-73.9,86.1-119.9,210.3-51.8,314c42.9,65.4,148.6,4.3,105.4-61.6c-27.9-42.6-19-85.8,4-125.3c14.4,17.7,36.9,28,60.9,18.5
		c40.7-16.1,84.6-9.9,127.2-17.7c44.3-8.2,81-32.2,107.5-68.5c25.5-35,38.2-77.1,58.5-115.1c18.9-35.5,41.4-69.2,66.2-100.9
		c104.6-133.5,239-241.7,322-392c24.4-44.2-6.8-82.8-44.2-88.8c53-44.6,105.9-89.2,158.9-133.7c13.4-9.9,26.5-20.4,38.6-31.7
		c73.8-59.2,158.8-125.5,156.3-226.5c-1.3-52.4-56.1-69.8-91.9-52.2c1.6-4.1,3.2-8.3,4.8-12.4c8.7-21.8,15.1-42,38.1-48.1
		c31.2-8.4,54.4,0.2,82.2-22.9c20.4-17,32.7-42.1,33.9-68.7C1923.9,219.3,1880.5,175.1,1825.4,164.4z M1023.4,1452.7
		c-14.4,32.2-25.9,62.6-64,68.2c-3.3,0.5-6.7,0.9-10,1.3c5.6-9.3,11.3-18.5,16.7-27.8c25.5-43.6,50.9-87.1,76.4-130.7
		c15.9-21.8,31-44.2,45.4-67.4c2.4-3.9,4.1-7.9,5.4-11.8c4.9,6.6,11,12.4,17.9,17.1C1076.9,1348.9,1047.8,1398.4,1023.4,1452.7z
		 M1292.6,1018.7c-12.5-5.7-26.6-8.1-40.2-5.7c-1.8,0.3-3.6,0.7-5.4,1.1c10.1-17.3,20.3-34.6,30.4-52c8.4,17.4,24.7,30,43.7,33.5
		C1311.4,1003.1,1301.9,1010.8,1292.6,1018.7z"/>
	<path class="st4" d="M3412.8,2569.2c-67.5-86.1-105.1-192.6-141.4-294.4c-40.4-113.1-82.2-224.9-141.9-329.5
		c-45.3-79.3-95.8-157.3-150-231.7c-5.4-36.3-12.8-72.2-24.7-107.5c-44.7-132.1-121-259.2-203.9-370.9
		c-70.4-94.8-149.4-165.5-246.3-224.1c-4.6-8.8-9.6-17.5-15.2-25.9c-15-22.7-32.5-42.8-51.2-61.8c16-29.9,16.7-68.2-12-100.8
		c-48-54.5-94.8-110.5-144.7-163.3c-16.7-17.7-34.9-34.9-54.5-50.3c-4.6-4.8-9.2-9.7-13.8-14.4c-32.2-33-65.7-64.1-102-92.4
		c-8.4-6.5-69.1-45.6-69.5-52.8c-5.7-46.7-36-87.2-87.2-87.2c-45.2,0-89.8,39.9-87.2,87.2c8.6,70.2-32.6,126.4-63,186.4
		c-33.7,66.6-50.2,139.8-97.2,199.2c-48.6,61.3-106,116.7-158.4,174.9c-59.3,66-117.8,132.7-175.4,200.3
		c-57.6,67.5-114.3,135.8-170,204.8c-24.4,30.2-48.6,60.6-72.7,91c-19,24-33.5,46-61.3,57.8c-41.2,17.4-73.2,30.3-94,72.9
		c-14.6,29.8-7.5,64.8-20.1,89.7c-13.5,26.7-35.7,48.6-51,74.2c-11.3,18.9-19.1,38-24.3,58.1c-1.1,1-2.1,2-3.2,2.9
		c-44.6,40.4-26.8,136.7,38.5,145.7c188.5,26,325.9,162.6,454.3,291.7c54.3,54.6,147,13,148.8-61.6c0.8-32.1,37.1-55.9,69.4-60.6
		c57.7-8.4,117.7,23.2,165.9,50.6c54.9,31.3,106.6,67.5,153.9,109.5c25,22.2,48.4,49,77.9,65.4c27.7,15.4,58.8,21.2,86.4,37
		c62.1,35.4,121.9,54.5,194,45.9c73.1-8.7,141.2-29.4,215.5-28.7c143,1.4,283.1,45,420.6,79.9c133.5,33.8,277.9,67.2,387.4,155.8
		C3377.7,2763.9,3482,2657.5,3412.8,2569.2z M2575.7,1891.5c3.2-13.1,4.2-26.4,3.1-39.5c8.3-44.1,16.7-88.6,20.3-132.8
		c2.1-25.7-1.7-48.8-10.2-69.6c84.6,149.3,149.7,307.2,195.4,471.9c-89.2-19.1-178.6-38.6-265.7-64.1
		C2579.2,2030.3,2591.6,1955.8,2575.7,1891.5z M2022,1193.7c2.6,6.2,5.3,12.4,8.1,18.6c18.4,41.1,34.5,83.2,37.7,128.6
		c0.1,1.6,0.1,3.2,0.2,4.8c-39.3-18.7-78.6-37.3-118.3-55.2c10.4-16.8,21.3-33.2,32.9-49.1C1994.3,1225.4,2007.5,1208.7,2022,1193.7
		z M1739.2,1059.4c51.4-56,107.4-110.8,146.3-176.7c5.3-9,10.1-18.1,14.5-27.5c26.3,20.7,65.6,27.4,95.7,14.8
		c-5.9,19.8-10.2,39.4-13.1,57.4c-4.4,27.8-6,54.6-5.1,80.8c-0.8,0.5-1.7,0.9-2.5,1.4c-82.4,48.4-141.8,133.8-189.4,216.4
		c-57.5-16.9-116.1-26.1-176.2-22.1C1652.3,1155.3,1695.5,1107.1,1739.2,1059.4z M1107.4,1880.4c12.5-13,24.9-26.1,37-39.4
		c11.5,27.9,32.4,49,58.5,63.9c0.8,9.5,2.5,18.8,4.6,28.1C1175.4,1912.9,1142.1,1895.2,1107.4,1880.4z M1410.4,1913.5
		c9.7-4.1,19.1-8.7,28.2-13.7c0.9,0.4,1.8,0.9,2.6,1.3C1430.4,1906.6,1419.1,1911.6,1410.4,1913.5z M1631.8,1543.6
		c-30.7-4.5-64.3,1.6-92.6,18.6c-24.4,14.7-44.6,34.8-63.2,56.7c-17.6-1-35.3-1.2-52.7-0.3c-31.2,1.6-71.6,6.3-112.3,16.1
		c10.7-14.9,21.3-29.9,31.7-45.1c18.8-27.7,18.6-54.8,7.5-76.9c46.6-57.4,93.3-114.8,140.8-171.5c6.9,12.7,16.9,24,30.1,32.2
		c48.4,30.1,97.1,59.6,146.3,88.3C1655.3,1488.8,1643.4,1516.2,1631.8,1543.6z M2005.8,2036.6c-52.5-18.9-102,24.7-109.1,74.2
		c-55.7-37-115.7-69.7-179.2-90.2c-7.4-2.4-15-4.5-22.6-6.5c2,0.2,4,0.3,6,0.3c32,0.2,63.1-9.6,88-29.8
		c43.3-35.3,62-95.3,47.5-149.5c-4.4-16.5-11.1-31.4-19.4-45.2c1.4-3.4,2.8-7,3.8-10.8c11.1-40.4-12.2-93.8-55-105.7
		c17.9-42.1,35.4-84.3,53.7-126.1c0.3,0.1,0.5,0.3,0.8,0.4c48.3,26.2,96.7,52.6,146.1,76.4c5.4,2.6,10.9,5.1,16.5,7.5
		c-6.8,14.5-12.1,29.5-15.5,44.8c-12.7,57.9,9.5,105.7,31.7,157.6c32.2,75.3,67.7,148.9,106.1,221.1
		C2072.5,2054.8,2039.7,2048.8,2005.8,2036.6z M2149.9,1000.6c0.1-17.5,2.1-34.9,5.7-52c19.9,31.4,42.1,61.4,68.3,87.8
		c40,40.2,87.8,67.3,136.9,93.2c0.3,12.3-2.1,25.2-11.7,26.8c-26.9,4.3-66.4-51.8-82-68.6
		C2233.3,1051.5,2193.4,1019.4,2149.9,1000.6z M2240.1,1427.5c3.3-30.5,3.7-60.2,2-86.6c-1-15.9-2.8-31.5-5.2-46.9
		c20.2,13.5,42.3,24.3,68,30.6c83.8,20.6,169.1-21,207.1-97.8c16.8,14.9,32.9,30.8,48.4,48.1c44.2,49.3,80.7,104.7,115.3,161
		c10.4,16.9,20.8,34,31,51.2c-20.1-3.9-41.1-5.3-62.7-3.8c-64.2,4.6-110.9,71-75.3,131.2c0.1,0.1,0.1,0.2,0.2,0.3
		c-13-16.9-29.7-31.9-49.2-44.9C2433.5,1512.2,2334.5,1470.9,2240.1,1427.5z M2282.4,2016.8c-0.8-1.4-1.6-2.9-2.4-4.3
		c7.8,0.9,15.6,1.5,23.4,1.6C2296.5,2014.7,2289.5,2015.6,2282.4,2016.8z M2326.7,2012.9c7.7-0.8,15.4-2,23-3.7
		c1.4,1.6,2.7,3.2,4.2,4.7C2344.7,2013.2,2335.7,2012.8,2326.7,2012.9z M3005.1,2383.1c-157.9-41.5-318.9-89.1-482.6-99.2
		c-25.4-1.6-50.4-1.3-75.2,0.1c-1.5-4.1-3.2-8.2-5.4-12.3c-7.5-14.4-16.4-27-26.3-38.4c-7.3-10.8-14.5-21.7-21.6-32.6
		c1.8,0.6,3.6,1.3,5.3,1.9c155,53.1,319.9,81.2,479.4,117.9c67.2,15.4,120.9-41.2,107.2-107.2c-4.5-21.9-9.5-43.7-14.7-65.5
		c19.8-1.8,39.5-10.3,55.3-23.2c46.7,98.4,79.9,201.3,119.3,301.3C3099.9,2409.5,3052.8,2395.6,3005.1,2383.1z"/>
	<path class="st4" d="M1289.6,1707.3c-0.3-1.9-2.1-3.5-4.2-6.5c-4.8,6.7-8.2,11.8-12,16.5c-3.3,4-7.8,6.7-13.2,5.6
		c-14.2-3.1-28.5-0.8-42.7-0.4c-4.1,0.1-8.5,1.4-12.1,3.3c-7.4,3.8-13.8,9.4-18.5,16c-13.8,19.4-27.2,39-40.6,58.7
		c-6.8,10.1-12.5,20.9-20.1,30.3c-9.7,11.9-20.5,22.9-31.1,33.9c-3.7,3.9-8.4,6.3-13.8,7.6c-12.1,3-23.6,1-35-2.5
		c-3.8-1.2-7.4-3.1-11.2-4.1c-4.7-1.3-9.8,1-10.8,4.2c-1.1,3.8,1.6,10,5.3,11.5c15.2,5.9,30.7,10.5,47.3,9.3
		c10.1-0.8,19.3-4.3,26.6-11.3c18.6-17.9,34-38.5,48.1-60c11-16.8,22-33.7,33.3-50.3c4.8-7,10.1-13.7,15.9-19.8
		c5-5.2,11.1-8.9,18.9-8.9c14.6,0,29.1-0.4,43.7-0.2c5.8,0.1,11-1.7,14.1-6c4.5-6.1,7.8-13.2,11.2-20
		C1289.6,1712.2,1290,1709.5,1289.6,1707.3 M1954.3,2213.4c7-0.9,6.7-4.1,4.3-8.1C1957.4,2207.6,1956.2,2209.9,1954.3,2213.4
		 M2133.6,2092c-0.9-0.5-2.7-1.9-4.8-2.6c-12-4.7-24.5-6.6-37.3-6.8c-11.1-0.1-22-0.2-33.1,2.7c-21.1,5.5-35.8,17.8-44.8,37.3
		c-5.8,12.7-14.2,23.6-23.6,33.7c-7.6,8.1-17.1,12.6-28.7,9.8c-12.1-3-24.3-5.5-36.2-9.2c-10.6-3.3-21.3-4.6-32.1-3.4
		c-5.5,0.6-10.4,3-15.1,6.5c-8.4,6.3-10.5,15.4-12.7,24.7c-0.7,3.4-1.4,6.8-1.2,10.2c0.2,3.2,1.6,6.5,5.6,6.6
		c3.8,0.1,5.7-2.5,6.4-5.9c0.4-1.8,0.5-3.7,0.8-5.5c2.9-14.6,10.3-20.7,25.2-19.2c8.4,0.8,16.6,2.9,24.9,4.9
		c10.3,2.5,20.4,5.7,30.7,8c15.7,3.5,29.3,0.1,40-12.8c8.2-9.8,16.4-19.3,22.5-30.6c3.3-6.1,7-11.9,11-17.4
		c10.2-14,24.7-21.3,41.3-22.4c12.8-0.8,25.8,1.6,38.8,2.1c6.3,0.2,12.7-0.1,19-0.8C2134.5,2101.3,2136.1,2097.2,2133.6,2092
		 M1961.6,1385.1c2-3.1,2.1-6.5-1.6-9.7c-1.7,0.8-3.8,1.4-5.4,2.6c-3.8,3.1-7.5,2.7-11.9,1.2c-7.2-2.4-13.4-6.2-18.9-11.3
		c-7.6-7-15.1-14.1-22.5-21.3c-2.9-2.8-5.7-5.6-8-8.7c-7.4-9.9-15.6-18.9-26.2-25.2c-15.6-9.2-32.3-14.9-50.6-14.4
		c-14.1,0.4-27.6,3.1-37.5,14.3c-5.6,6.3-10.7,13.2-16.2,19.7c-5.1,6.1-10.2,12.2-15.6,18c-6.3,6.7-10.5,7.1-17.6,1.1
		c-5.1-4.3-9.6-9.1-14.2-13.9c-13.2-13.8-26-28.1-39.6-41.4c-8.1-7.9-17-15.3-26.5-21.5c-11.4-7.4-24.6-11-37.8-14.1
		c-8.2-1.9-16.8-2.5-25.2-3.3c-4.7-0.4-8.5,3.9-8.4,8.5c0.1,4.7,3.2,7.4,8.3,7.4c0.8,0,1.6-0.2,2.4-0.3c20-0.6,38.4,4.6,55,15.5
		c7.7,5,14.3,11.7,21.6,17.3c11.9,9.1,21.9,20.1,31.4,31.6c10.1,12.4,22.2,22.7,34.3,32.8c5.3,4.4,11.4,4.1,17.1,0.9
		c3.4-2,6.6-4.5,9.2-7.5c10.7-12.1,21.3-24.3,31.6-36.8c5.9-7.3,13.4-10.9,22.2-12.5c15-2.9,28.9,0.8,42.3,7.1
		c5.7,2.7,11.5,5.8,16,10c10.7,10.2,20.7,21.3,31.2,31.8c9.1,8.9,17.4,18.6,28.6,25c6.3,3.7,12.9,6.3,20.3,6.2
		C1955.8,1394.2,1958.7,1389.5,1961.6,1385.1 M2539.3,1695.6c-12.8-25.9-30.4-47.8-52.3-66.4c-11.1-9.4-23-17.8-34.8-26.3
		c-16-11.5-33.4-20.4-51.8-27.4c-10.6-4.1-21.1-8.8-32.1-11.6c-21.8-5.4-43.9-10.3-66.1-13.9c-13.5-2.1-27.6-1.8-41.1,1.5
		c-18.2,4.5-34.5,13.7-51.2,21.7c-1.4,0.8-2.8,1.6-4.2,2.3c-17.3,8.3-33.6,18.1-47.2,31.9c-0.9,0.9-2.2,1.6-3.1,2.6
		c-4.4,4.8-9.5,9.3-13,14.8c-7.8,12.2-14.9,25-22.2,37.6c-1.7,3-2.6,6.4-4.6,9.1c-4.3,5.7-6.9,11.8-8.1,18.8
		c-0.8,5.1-2.5,9.9-2.9,15.3c-0.3,5.1-3.2,10-4.3,15.2c-3.6,16.3-7.6,32.5-6.1,49.6c0.7,9.2,0.6,18.5,0.7,27.8
		c0.2,18.8-1.1,37.6,6.4,55.6c5.1,12.5,9.1,25.5,13.9,38.1c1.5,3.9,3.7,7.7,6,11.2c4.3,6.7,9.1,13,13.3,19.7
		c8.8,13.8,20.8,24.1,35.6,30.7c9.9,4.4,20.3,7.9,30.6,11c9.4,2.8,19.1,4.6,28.7,6.5c13.8,2.6,27.7,4.8,41.4-1.1
		c1.1-0.5,2.6-0.5,3.9-0.6c7.1-1,14.2-1.8,21.2-2.8c23.1-3.3,46-2.7,68.7,3.2c5.8,1.5,11.4,4.1,17.1,6c13.5,4.6,27.1,9.3,41.8,6.9
		c4.4-0.7,9-0.5,13.4-0.9c8.1-0.6,15.9-2.8,22.5-7.4c9.2-6.6,17.8-14.1,27-20.7c10.3-7.4,18.1-17,25-27.5
		c6.2-9.3,12.5-18.4,18.3-27.9c4.2-6.7,7.7-13.8,11.4-20.8c1-1.9,1.6-3.8,2.5-5.8c8.7-19.6,17.4-38.9,17.9-61.2
		c0.5-19.2-0.1-38-3-57C2555.4,1733.1,2548.5,1714.1,2539.3,1695.6 M2880.7,2152.6c-2-4.2-6.4-4.2-8.6-0.1c-0.7,1.1-1.1,2.4-1.3,3.7
		c-0.8,3.8-3.7,5.2-7,5.5c-7.8,0.7-15.5,0.1-22.7-3.1c-25.9-11.5-51.2-24.3-75.5-38.9c-11.1-6.7-22.5-13.1-35.3-15.7
		c-5.2-1.1-10.5-1-15.8-1.7c-13.6-1.6-26.5-1.5-39.3,5.5c-10.3,5.6-17.4,12.8-21.2,23.4c-3.4,9.4-5.9,19.2-9.2,28.7
		c-3.8,11.2-11.9,14.4-21.6,7.8c-8-5.5-15.8-11.8-22.4-18.9c-9.4-10-17.6-21.2-26.4-31.8c-10.2-12.5-22.7-22.1-37.7-28.2
		c-7.5-3.1-14.3-3.9-19.8,0.1c-2,1.1-2.7,1.5-3.4,1.9c-5.8,3.2-7.5,8-4.5,13c3.3,5.6,5.8,5.8,12.4,2.1c2.4-1.3,5.5-2.4,8-2.1
		c3.6,0.4,7.2,1.8,10.5,3.3c13.3,5.6,21.5,17.1,30.7,27.2c9.2,10.2,17.5,21.3,26.4,31.8c6.9,8.3,16,13.8,25,19.4
		c1.5,0.9,3.5,1.5,5.2,1.6c14.2,0.6,24.5-1.5,30.2-18.3c3.3-9.8,6.5-19.7,9.9-29.4c2.1-6.2,5.8-11.3,11.6-14.5
		c8.4-4.6,16.9-8.2,27.1-7.1c13.2,1.3,26.6,0.4,38.7,7c9.4,5,18.9,9.8,28,15.1c19,11,38.1,22.1,58.7,29.9c7.9,3,15.9,6.2,24.2,7.4
		c16.2,2.5,23.3-4.5,25.9-17.8C2882.1,2157.2,2881.7,2154.5,2880.7,2152.6 M2526.8,1005.7c-1.8-4.3-4-8.8-7.1-12.2
		c-8-8.5-18.2-14.4-28.2-20.2c-9.3-5.5-18.9-10.7-28.4-16c-6.2-3.4-12.4-7-18.7-10.4c-9.6-5.2-19.9-8.7-30.5-11.2
		c-1.2-0.3-2.5-0.8-3.7-1.4c-7.2-3.2-14.3-7.1-21.6-9.7c-12.2-4.5-24.6-8.6-37.1-12.2c-23.6-6.8-40.1-21-48.5-44.3
		c-1.2-3.5-2.4-7.1-4.2-10.3c-6.7-11.4-13-23.1-20.6-33.9c-10.3-14.6-23.5-25.9-40.9-31.6c-19.7-6.4-39.9-10.4-60.5-12.4
		c-9.2-0.9-18-0.5-26.3,4.1c-1.3,0.7-3,1.3-4.6,1.3c-10.7,0.2-19.2,5.2-27.3,11.6c-4.6,3.6-9.6,6.8-14.4,10
		c-7.3,4.8-13,11.1-17,18.6c-7.1,13.3-13.5,26.9-20.2,40.4c-0.5,1-0.9,1.9-1.5,2.8c-6.7,10.1-9.7,21.8-12.5,33.3
		c-2.1,8.4-3.1,17.1-4.1,25.8c-1.4,12.3-2.5,24.7-3.4,37.1c-0.8,11.4-1.1,22.7-1.7,34.1c-0.1,1.8-0.5,3.6-0.9,5.4
		c-3,15.4-6,30.7-8.8,46.1c-0.5,2.3-0.6,4.8-0.4,7.1c1.4,17.1,6.9,33.2,12.5,49.1c7.3,20.4,19.2,38.3,32.2,55.6
		c7.1,9.4,15.2,17.6,24.6,24.8c6.5,5,13.5,9,20.8,13c9.7,5.2,18.4,12.3,27.3,18.9c12.3,9.3,26.2,12.1,41.1,12.1
		c11.1,0,22.3-0.7,33.4,0.4c18.7,1.9,36.5,8.6,54.5,13.9c16.8,5,33.6,10.2,50.1,15.9c9.9,3.4,19.3,3.9,29.4,1.1
		c16.9-4.6,34-8.5,48.9-18.4c5.6-3,11.3-5.8,16.7-9.2c8.3-5.2,16.5-10.7,24.6-16.1c3.3-2.2,6.8-4.3,9.6-7.1
		c13.8-13.1,27.6-26.3,41.1-39.6c7.1-6.9,12.5-15,16.4-24.2c6.2-14.6,12.7-29.1,19.5-43.4c2.2-4.7,3.7-9.2,3.8-14.3
		c0.1-8.2,0.4-16.4,1-24.6c0.8-11.8-1.1-23.3-4.9-34.4C2533.5,1022.4,2530.3,1014,2526.8,1005.7 M2938.1,1652.6
		c1.7-4.7-1.5-10.8-5.5-9.9c-4.9,1-7.4-1.8-10.7-4c-7.3-4.8-14.3-10-22-14.2c-6.7-3.7-13.7-3.5-21.3-0.2
		c-13,5.8-18.4,17.8-25.5,28.4c-5,7.4-8.6,15.8-13.5,23.3c-4.1,6.3-8.2,7-15,3.8c-1.5-0.7-2.9-1.4-4.3-2.3
		c-8.7-5.6-17.2-11.4-26.1-16.7c-21.1-12.6-41.3-26.8-64.8-35.3c-17.7-6.4-35.4-10.7-54.2-11.2c-5.9-0.1-7.4,1.1-8.4,6.9
		c-0.6,4,1.8,7.6,6.3,8.6c2,0.5,4.2,0.2,6.3,0.3c4.2,0,8.5-0.6,12.6,0.1c17.1,2.8,33.5,8.1,49.3,14.9c4.8,2.1,9,5.5,13.5,8.3
		c8.6,5.2,17.2,10.3,25.7,15.5c14.5,8.9,28.8,18.1,43.3,26.8c8.3,5,12.7,4.5,20.1-1.6c2.2-1.8,4.3-4,5.9-6.4
		c7-10.6,14.1-21.2,20.3-32.2c3.4-6.1,8-10.2,13.7-13.9c6.8-4.3,13.2-3.5,19.3,0.7c6.8,4.6,13.2,9.8,19.5,15
		c3.4,2.7,6.5,3.1,11.4,0.5C2935.2,1656.8,2937.2,1654.9,2938.1,1652.6 M1693.2,2024.7c0.6-1.9,2-3.7,3.1-5.5
		c7.2-10.8,14.4-21.6,21.6-32.3c2.6-3.9,5-8.2,8.2-11.6c8.3-8.7,13.2-19,16.8-30.2c2.6-8.1,5.7-16,9.3-23.6c1.5-3.1,5.9-4.9,7.2-8
		c1.5-3.4,0.7-7.6,1.3-11.4c1.6-12.1,4.1-24.1,4.8-36.2c0.6-9.6,1.3-18.9,4.6-28c2.8-7.6,3.8-15.4,1.5-23.5
		c-3.4-12.7-6.7-25.6-9.7-38.4c-4-16.9-12.6-31.8-22.8-45.2c-19.3-25.7-42.3-48.2-65.7-70.2c-10.8-10.1-23.5-17.5-37.6-21.8
		c-23.2-7-47.1-9.9-71.2-11.5c-2.3-0.1-4.9,0.1-7.1,0.7c-12.3,4-24.7,7.9-36.8,12.5c-10.9,4.1-20.8,10.3-32.4,13.1
		c-11.1,2.7-22.1,6-32.6,10.4c-17.1,7.1-34.3,12.9-52.8,13.4c-9.2,0.3-18.6,0.3-27.8-0.6c-5-0.6-9.4,0-13.9,1.7
		c-8.9,3.2-17.9,6.3-27.3,9.6c-2.5,5.8-2.5,5.8-1.4,12.8c0.3,1.7-0.1,3.7-0.8,5.3c-3.1,6.4-6.7,12.7-9.6,19.2
		c-3.9,8.7-7.4,17.5-10.7,26.4c-5.2,13.5-6.4,27.8-9,41.8c-1.9,10.6-2.6,20.8-0.8,31.4c2.8,16.2,5.9,32.5,6.7,48.8
		c0.5,10.5,4.8,19.2,7.6,28.7c3.1,10.7,5.1,21.9,9.7,31.9c10.4,22.9,22.9,44.8,38.6,64.6c3.3,4.2,6.4,8.6,10.3,12.1
		c6.2,5.7,12.6,11.3,19.5,16.1c8.2,5.8,16.4,11.9,25.5,15.8c16,6.8,32.8,12.2,49.3,17.7c11.6,3.9,23.3,7.1,35,10.4
		c15.6,4.4,31.7,6.4,47.8,7.2c8.4,0.3,17,0.5,25.3-0.4c12.6-1.4,25.2-3.5,37.7-5.8c8-1.5,16.3-3.1,23.6-6.5
		c13.4-6.2,26.6-13.1,38-23c5.4-4.7,11.7-8.2,17.3-12.1C1693.4,2028,1692.8,2026.2,1693.2,2024.7 M1710.2,2018
		c0.4,0.4,0.8,0.7,1.2,1.1c3-2.5,6.4-4.6,8.8-7.5c6.6-8.2,12.9-16.7,19-25.3c5.8-8.2,10.3-17,10.3-27.4c0.1-0.1,0.2-0.2,0.3-0.2
		c-0.1-0.1-0.1-0.3-0.1-0.4c1.3-3.4,2.3-6.8,4-10c1.7-3,2-5.6-0.8-9.7c-1.4,7.4-5.9,12.9-3.2,19.7c0,0.1-0.1,0.2-0.1,0.3
		c0,0.1,0,0.2,0,0.3c-4.5,2.9-5.9,7.7-7.6,12.3c-6.5,17.1-15.4,32.5-29.9,44.1C1711.2,2016,1710.8,2017.1,1710.2,2018
		 M1757.2,1921.1c-1.2,4.7-2.4,9.4-4,15.6c6.1-2,4.7-5.2,4.9-7.9c0.1-2.6,0.4-5.1,0.6-7.6
		C1758.2,1921.2,1757.7,1921.1,1757.2,1921.1 M3018.5,1758.9c-4.5,1.6-9.1,2.8-13.6,4.3c-17.1,5.5-26.1,19.4-34.8,33.5
		c-9.5,15.6-14.9,33-17.2,51c-2.1,15.7-1.8,31.7-2.4,47.7c-0.8,22.4,1.2,44.6,6.2,66.5c3.2,14,8.2,27.4,14.1,40.5
		c9.5,21,23.1,39.2,38.4,56.3c10.7,12.1,21.4,24.2,32.3,36.1c3.4,3.7,7.3,6.9,11.2,10.1c12.1,10,23.6,20.7,36.4,29.6
		c15.7,10.9,32.2,20.4,52.5,20.9c12.5,0.3,24.8,0.6,37.3-0.6c12.8-1.3,12.9-1.2,16.6,11c2.4,7.6,4.7,15.2,6.3,23
		c4,19.7,11.7,38,20.4,55.9c7.4,15.3,15.5,30.2,23.4,45.2c5.3,9.9,7.3,20.9,10,31.7c2.2,9,5.3,17.8,8.4,26.5
		c4,11,8.3,21.8,12.8,32.6c2.2,5.1,5.6,9.7,7.6,14.9c7.8,19.4,15.5,38.9,23,58.5c6.4,17.2,11.8,34.7,18.8,51.6
		c4.6,11.2,11.2,21.7,16.9,32.5c2.3,4.4,4.8,8.9,7.1,13.4c6.7,13.2,16.7,23.8,25.9,35c8.7,10.6,19.9,19.3,26.2,31.8
		c7,13.7,14.9,26.9,19.1,41.9c0.3,1.3,0.6,2.6,0.7,3.9c0.7,5.1-0.9,9.4-4.9,12.7c-4,3.3-8.2,1.1-12-0.5
		c-13.1-5.4-22.7-15.1-31.5-25.9c-7.8-9.7-15.7-19.3-23.9-28.6c-2.9-3.3-6.9-5.7-10.7-8.2c-8.1-5.4-16.5-10.6-24.4-16.3
		c-4.8-3.4-9.8-6.4-15.4-8c-1-0.3-2.1-0.6-2.9-1.2c-11-8.2-22-5.1-33-0.2c-1.4,0.7-2.9,1.7-4.3,2c-12.8,1.9-18.8,11-23,21.8
		c-2.7,6.8-6.1,13.1-11.7,17.8c-4.4,3.7-9.4,6.7-14.5,9.5c-1.6,0.9-4.2,0.7-6.1,0.3c-7.5-1.6-14.9-3.8-21-8.9
		c-17.6-14.5-35.5-28.6-52.7-43.6c-11.2-9.8-23.9-16.4-37-22.6c-3.4-1.6-6.8-3-10.4-4.2c-13.1-4.3-26.3-5-39.9-1.6
		c-7.3,1.8-15.2,2.6-22.8,2.4c-10-0.2-18-5.9-25.1-12.5c-12.3-11.5-22.8-24.4-32-38.4c-7.2-10.8-17.8-18.1-27.9-25.7
		c-13.5-10.3-27-20.5-41.2-29.7c-7.2-4.7-15.8-7.6-24-10.4c-18.3-6.3-36.9-11.6-56.2-13.8c-2.4-0.2-4.7-0.8-7.1-1.1
		c-16.2-2.5-32.4-5.2-48.7-7.4c-13.9-1.9-27.9-3.2-41.8-4.6c-2.3-0.2-4.8,0-7,0.7c-20.1,5.8-38.3,15.6-56.1,26.3
		c-1.8,1.1-3.4,2.6-4.8,4.1c-8.3,8.6-16.6,17.1-24.8,25.7c-9.2,9.6-19.8,10.5-33.1,2.6c-5.2-3.2-10.1-6.7-15.4-9.9
		c-13.7-8.6-27.4-17.1-41.3-25.5c-3.8-2.3-8.2-3.9-12.1-6c-6.9-3.8-13.6-7.8-22.3-12.7c4.9-3.8,8-7.6,11.9-8.9
		c4.2-1.5,5.3-3.9,5.7-7.5c0.5-4.8,0.8-9.4,1.2-14.2c0.3-5.1-1-8.1-5.5-9.2c-5.7-1.6-8.5-4.9-11.1-10.1c-6-11.6-14.3-21.6-22.5-31.7
		c-10.4-12.8-23.7-21.2-38-28.1c-10.4-5-21.6-9-32.8-12c-16.5-4.4-30.9-12.6-43.7-23.6c-10.6-9.1-20.7-18.9-30.8-28.6
		c-12.2-11.8-26.5-19.9-42-26.7c-15.8-6.9-32.3-10.1-49.3-9.2c-12.6,0.7-25.2,2.7-37.5,5.7c-8.3,2.1-16.1,6.6-23.9,10.4
		c-8.3,4.1-16.5,8.5-24.5,13.3c-20.9,12.5-39.1,28.2-54.3,47.3c-3.4,4.3-5.6,9.5-8.7,14.2c-2.7,4.2-5.4,8.5-8.5,12.4
		c-7.4,9.2-5.3,23.1,4.7,29.8c3.7,2.5,7,5.6,10.7,8c2.6,1.7,5.5,3.3,8.5,4c4.9,1.2,9.9,1.9,15,2.2c9.3,0.5,18.2,2.8,26.9,6.2
		c4,1.6,8.8,1.5,13.3,2c13.2,1.3,26.4,2.3,39.6,3.9c11.5,1.3,23,4,34.5,4.6c13.6,0.7,27.5,2.9,41.1-0.8c0.8-0.2,1.6-0.3,2.4-0.3
		c15.4,0.4,30.7,0.4,45.8,3.6c1,0.2,2.2,0.3,3,0.9c10.5,8.4,22.5,15.2,28.2,28.5c2.1,4.9,4.7,9.4,6.8,14.3c0.9,2.1,1.1,4.6,1.8,7.7
		c-8.5,2.1-16.4,2.4-24.6,1.2c-17.1-2.4-33.1-9-49.6-14c-1.2-0.4-2.4-0.9-3.6-1.6c-10.4-5.7-11-4.6-19.2,3.1
		c-8.5,7.9-16.4,16.5-25.3,24c-4.6,3.9-9.5,7.2-13.7,11.8c-3,3.2-7.7,4.2-12.6,3.1c-11.5-2.5-21.2-8.3-29.9-15.8
		c-11.5-9.9-23.1-19.5-33.8-30.2c-6.1-6-12.6-11.2-19.8-15.7c-11.4-7.2-24-9.2-37.1-9.3c-4.8,0-9.5-0.3-13.6,2.7
		c-1.3,0.9-2.6,1.8-3.7,2.9c-5.2,5.6-10,11.6-15.3,17c-4.6,4.6-10.6,5.7-16.9,4.8c-10.6-1.6-18.5-7.7-25-15.7
		c-12.4-15.2-24.1-31-36.9-45.9c-16.1-18.6-32-37.6-51.7-52.7c-7.1-5.5-13.5-11.9-20.5-17.5c-10-8.1-21.6-13.2-33.7-17.2
		c-9.3-3.1-18.6-6.3-27.9-9.4c-18.3-5.9-36.8-11.6-55.1-17.8c-22.9-7.8-46.4-12.9-70-18c-8.2-1.8-15.9-5.7-24-8.3
		c-12.4-4-24.7-8-37.4-11.3c-24.4-6.3-48.5-13.5-71.3-24.4c-11-5.2-21.6-11.4-32.9-15.7c-14.7-5.6-29-12.9-45.8-11.3
		c-8.2,0.8-12.7,5-15.3,11.8c-2.4,6.1-3.8,12.6-5.6,19c-1.9,7-2.1,14-1.9,21.3c0.2,8.7-0.3,17.4,1.3,26.1c0.8,4.4,1.4,8.9,2.7,13.1
		c2.6,8.1,0.7,15.7-1.7,23.3c-1.1,3.4-4,3.6-6.5,2c-3.8-2.3-7.3-5.2-10.8-7.9c-6.7-5.3-12.8-11.3-19.9-15.8
		c-11.3-6.9-23.4-8.1-35.5-1.3c-1.3,0.7-2.7,1.7-3.8,2.8c-5.2,5.4-9.8,6.7-15.9,2.9c-5.1-3.2-10-7-14-11.4
		c-13.2-14.6-27-28.4-42.3-41c-8.2-6.7-16.4-13.3-26.1-17.9c-4.3-2-8.6-4.2-13-5.9c-14-5.1-26.9-12-38-22.2
		c-1.2-1.1-2.5-2.1-3.5-3.3c-7.1-9.2-15-17.7-21.2-27.7c-5.8-9.1-12.5-17.8-19.4-26.2c-8.4-10.4-19.5-17.8-30.2-25.6
		c-14.9-11-29.5-22.3-44.5-33.2c-6.2-4.5-12.7-8.6-19.3-12.6c-6.5-4-13.4-7.5-20-11.3c-14.5-8.2-28.9-16.6-43.5-24.7
		c-6.5-3.6-13.3-6.6-19.9-10c-4.5-2.3-9.5-3.9-13.3-7c-11.6-9.1-25.4-12.9-38.9-17.8c-12.9-4.6-25.5-10.5-38.3-15.4
		c-18.2-6.9-34.4-17.6-51-27.4c-10.1-6-12-18.3-4.4-27.5c6-7.3,12.3-14.6,17.5-22.6c5-7.7,8.5-16.4,12.9-24.5
		c7.5-13.6,15.3-27.1,22.7-40.8c5.1-9.3,9.6-19,15-28c7.7-12.7,16-24.9,24.1-37.3c3.3-5.1,7-9.9,9.9-15.2
		c9.8-17.7,23.6-32.5,35.3-48.9c5.4-7.6,11.2-14.9,17-22.1c16.9-20.7,33.7-41.6,51.2-61.8c17.1-19.9,35-39.1,52.7-58.5
		c19.8-21.7,40.4-42.7,59.9-64.8c19.1-21.6,37.6-43.8,55.5-66.4c8.2-10.3,14.4-22.2,21.6-33.4c6.3-9.8,12.7-19.6,19.1-29.2
		c8.7-13,17.7-25.8,26.2-38.8c10.8-16.4,21.3-32.9,32-49.5c10.4-16.2,21.5-32.2,31.1-48.9c8.9-15.1,17.1-30.6,27.9-44.4
		c8.1-10.4,17.1-20.2,25.6-30.3c3.7-4.4,7.7-8.9,10.5-13.9c4.3-8,11.9-12.7,17.8-19.1c8-8.9,16.9-16.9,25.9-24.7
		c16.8-14.6,34.3-28.4,50.7-43.4c19.3-17.7,37.8-36.2,56.6-54.4c8.9-8.7,18.3-16.9,26.6-26.1c8.8-9.8,18.4-19,24.4-31.2
		c3.1-6.4,8.1-11.8,11.5-18.1c5.2-9.5,9.9-19.3,14.5-29.1c4.1-8.6,8.2-17.3,11.3-26.2c5.1-14.5,13.4-27,23.5-38.4
		c5.4-6.1,10.4-12.6,15.7-18.8c1.7-2,3.7-3.8,5.8-5.3c8.9-6,16.1-13.8,22.9-21.8c14.1-16.9,28-34,40.7-51.8
		c6.7-9.4,11.6-20.3,15.7-31.2c5.2-13.6,8.4-27.9,13-41.6c3.4-9.8,7.6-19.3,12-28.6c8.9-19,18.2-37.7,27.2-56.6
		c3.7-7.9,7-16.1,10.6-24c2.1-4.6,4.3-9.1,6.8-13.4c6-10.3,12-20.6,18.4-30.6c6.6-10.2,13.6-20.2,20.7-30
		c14.2-19.9,25-41.1,27.9-65.7c0.1-1.1,0.5-2.1,0.7-3.1c1.5-4.3,3.6-5,6.9-2.1c2.6,2.2,5.2,4.6,7.6,7.1c9.2,9.6,18.3,19.1,27.4,28.8
		c14,14.8,28.1,29.7,42.1,44.6c5.4,5.7,10.8,11.6,16.3,17.3c7.8,8.3,15.5,16.7,23.5,24.8c16.7,17,33.6,33.8,50.5,50.6
		c9,9,18.3,17.8,27.4,26.6c13.2,12.9,26.1,26.2,39.8,38.7c17,15.5,34.7,30.3,52,45.7c8.5,7.6,16.5,15.7,24.7,23.6
		c5.2,5,10.4,9.9,15.3,15.1c17.3,17.9,34.7,35.9,51.8,54c17.2,18.1,34.3,36.1,51.2,54.5c9,9.7,17.3,20.1,25.9,30.2
		c5.3,6.3,10.7,12.4,15.8,19c13.5,17.4,26.9,34.8,40,52.5c10,13.4,19.3,27.2,29.3,40.6c8.6,11.4,17.7,22.5,26.7,33.6
		c10,12.4,20.2,24.5,30.1,37c5.9,7.5,11.4,15.3,17.2,22.9c15.7,20.7,31.3,41.6,47.4,62c20.8,26.6,42.1,52.6,62.8,79.2
		c7.7,9.9,14.2,20.5,21.3,30.8c7.5,10.9,15.2,21.8,22.4,33c10.2,15.8,19.9,32,30.1,47.8c8.8,13.9,18,27.6,27,41.3
		c4.2,6.5,8.4,13,12.7,19.4c6.2,9.2,12.7,18.3,18.8,27.6c9.2,14,18.2,28.1,27.2,42.2c4.4,6.9,9.1,13.7,13,20.9
		c10.7,19.6,21,39.4,31.4,59.1c7.1,13.6,14.3,27.3,21.4,41c12.2,23.6,24.7,47,36.3,70.9c7.8,16.2,13.9,33.3,21.1,49.8
		c8.2,18.5,16.9,36.6,25.3,55c3.1,6.7,6.5,13.4,8.9,20.4c3.5,10.3,7.4,20.5,11.5,30.6c-1.5-0.6-2.9-1.1-4.2-1.7
		C3024.7,1758.1,3021.9,1757.7,3018.5,1758.9 M2160.4,606c-2.9,1.9-5.9,3.5-9,5.1c-8.3,4.1-15.7,10.3-25.7,9.6
		c-8.7-0.6-17.4-1.3-26.1-1.5c-3.3-0.1-6.9,0.3-9.9,1.7c-5.6,2.3-10.6,6.1-16.3,8.1c-13.2,4.7-23.9,13.4-33.4,22.7
		c-10.9,10.7-19.3,23.9-28.8,35.9c-1.6,2.1-3.3,4.3-5.5,5.7c-7.4,4.8-15.6,8.1-24.5,8.7c-7.4,0.4-14.8,0.6-22.2,0.9
		c-4.2,0.2-8.5-0.1-12.7,0.7c-15.7,2.9-29.3,10.3-41.5,20.4c-3.4,2.9-6.4,6.4-9.2,9.8c-1.2,1.5-2.1,3.8-2.2,5.7
		c-0.3,4.6,2.7,6.3,6.6,3.9c2.7-1.7,5-4,7.4-6c14.4-11.8,30.3-19.3,49.3-19.5c8.2-0.1,16.6,0,24.5-1.4c10.6-1.8,21.5-4,30.4-11
		c9.1-7.2,14.3-17.6,21.2-26.5c6.7-8.7,13.5-16.9,22.7-22.9c6.9-4.5,14.1-8.5,21.1-12.7c9.7-5.8,19.4-9.1,31.4-7.8
		c15.2,1.5,30.5,1.3,44.4-8.3c7.1-4.9,15.5-11.3,26.5-4.3c0.5-3.3,1.6-5.7,1.1-7.6C2177.6,607.6,2166.8,601.5,2160.4,606"/>
	<path class="st5" d="M2405.3,2288.2c-38.6-27-80.2-55.7-125.6-69.7c-37.7-11.6-78.5-10.3-112.4,11.2c-25.6,16.2-43.2,41.5-66,60.4
		c-22.8-4.8-37.8,13.4-39,32.6c-8.2,24.4,19.3,57.2,50.3,43.1c59.4,16.5,120.3,26.9,182,30.2c33.1,1.8,62.1,1.7,93.9,10.8
		c26.8,7.7,48.4,12.8,73.6-2.8c10-6.2,18-17.8,17.3-30.1C2477,2331.1,2437.8,2310.9,2405.3,2288.2z M2286.5,2325.8
		c-36.8-2.3-73-7.8-108.7-15.6c20.1-18.7,41.6-33.1,69.1-28.3c31.2,5.5,59.8,25.1,86.1,41.7c2.1,1.3,4.3,2.7,6.4,4
		C2321.7,2326.9,2304,2326.9,2286.5,2325.8z"/>
	<path class="st5" d="M3205.9,2109.3c0.2-7.9-2.2-16-8-23.5c-24.5-31.2-24.9-78.2-41.6-113.8c-17.6-37.4-47.6-66.6-67.5-102.6
		c-17.9-32.4-23.4-73.3-63.3-86.7c-29.7-10-60.3,5.3-72.4,33.5c-14.3,33.2-5,76.6-0.4,111c5.7,43.2,15.7,85.3,35.7,124.2
		c35.4,68.8,112.7,130.8,193.8,120.9C3215.6,2168,3223.8,2126.3,3205.9,2109.3z M3045.2,2009.8c-12.6-27.1-19.3-57.5-23.5-87
		c-1.6-11.2-2.7-22.5-3.6-33.8c7.9,15.8,20.7,32.4,28,42.6c14.9,21.1,32,41.1,44.1,64.1c16.8,31.9,22.2,65.7,34.8,97.5
		C3089.8,2077.3,3061.3,2044.5,3045.2,2009.8z"/>
	<path class="st5" d="M2404.4,909.1c-25.7-10.8-53.4-16-78.8-27.2c-26.1-11.4-41.3-31.3-59.2-52.4c-29.8-35.2-68.9-63.7-117.6-50.8
		C2095,792.8,2061,848,2037,893.9c-26.1,50-45.7,106.2-37,163.2c11.1,72.7,127.2,218.5,213.3,186.3c1.5,1.1,2.9,2.2,4.6,3.2
		c46.8,25.9,98.6,29.2,144.9,14.5c47.5-12.8,90.3-42.8,118.6-87.5c6.3-9.9,6.7-19.6,3.7-27.9
		C2520.4,1057.6,2498.4,948.6,2404.4,909.1z M2089.6,1094.8c-32.3-45.8-23.8-97.9-2-146.3c14.1-31.3,46.8-105.9,88.3-101.7
		c32.2,3.2,55.7,53.8,79.3,73.5c60,50.1,169.5,34.6,176.3,132.9c4.4,62.5-35.3,123.1-89.3,141.9c-27.2,7-56.5,5.4-83.3-6.2
		c-2.1-28.1-36-51.2-57.1-24C2173.1,1201.8,2106.4,1118.6,2089.6,1094.8z"/>
	<path class="st5" d="M2515.6,1720.3c-10.8-57-42.8-113.4-92.6-144.8c-55.3-34.8-122.6-28.5-183.4-13.5
		c-63.9,15.8-116.1,48.8-141.1,111.6c-27.1,68.2-13.5,141.4,1.3,210.7c2.4,11.2,9.8,18.3,18.8,21.9c0.4,1.3,0.7,2.7,1.3,4
		c9.6,23.5,31.5,31.4,53.8,40.2c32.5,12.8,64.3,20.9,99.2,21.7c22.7,0.5,40.2-0.9,61.6,8.6c14.6,6.5,27.1,16.7,42.3,22.3
		c52.4,19.5,96.9-3,113.3-55.5C2512.3,1876,2529.7,1795.2,2515.6,1720.3z M2435.6,1880.6c-4.1,16.6-7.1,57.6-30.1,59
		c-15,0.9-37.7-20.9-51.6-26.5c-38.3-15.7-77.6-5.3-116.9-14.5c-7.4-1.7-37.3-7.7-48.5-13c-3.6-25.4,6.1-50.5-0.8-76
		c-1.4-5.2-3.2-9.8-5.4-14.1c-1.2-2.8-2.7-5.4-4.5-7.6c-6.1-9.1-14.2-16.5-23.9-23.5c0.2-58.4,20.1-110.3,89.9-131.3
		c42.7-12.9,97.7-23.7,138.6-0.3c35.6,20.4,56.7,60.9,64.6,100C2456.9,1781.7,2447.3,1832.8,2435.6,1880.6z"/>
	<path class="st5" d="M1734.7,1751.3c-16.2-33.3-44.7-75.5-76.7-95.3c-36.7-22.6-92.7-14.7-133.9-13.3
		c-72.1,2.6-188.5,11.7-231.1,80.8c-44.1,71.6,15.1,187.3,46.4,253.7c19.1,40.6,79.2,5.2,60.2-35.2
		c-20.1-42.7-80.9-159.2-31.8-194.8c48.9-35.4,128.6-35,185.9-35.4c43.7-0.3,71,0.5,99.3,39c18.6,25.3,31.9,52.2,29.9,84.4
		c-3.8,60.2-36.9,112.5-32.1,174.5c3.4,44.5,73.2,44.8,69.7,0C1713.4,1918.6,1779.1,1842.6,1734.7,1751.3z"/>
	<path class="st6" d="M1207.7,2174.3c-1.7-2.2-2.9-4.1-4.4-5.7c-1.6-1.7-3.4-3.3-4.9-4.6c0.2-4.7,0.4-9,0.6-13.4
		C1205.3,2155,1210.2,2167.1,1207.7,2174.3"/>
	<path class="st6" d="M3019,1781.2c11.1,4.2,24.4,8.2,11,8.4c-0.5,1.1-3,2.1-6.3,2.8C3022.1,1788.7,3020.5,1785,3019,1781.2"/>
	<path class="st5" d="M3023.7,1792.4c2.9,6.7,5.8,13.3,8.8,20c7.8,17.1,14.1,34.9,21,52.5c5.5,14.1,10.9,28.3,16.2,42.4
		c5.3,13.9,10.4,27.8,15.8,41.7c4.5,11.6,9.4,23,14.1,34.6c7.7,18.7,15.4,37.3,23.1,55.9c7.6,18.3,15.2,36.7,23.3,54.8
		c4,9,9.3,17.3,13.7,26.1c4,8,8,16.2,11.4,24.5c2.7,6.6,1,9.3-6.2,10.3c-6.8,0.9-13.7,1.3-20.6,1.3c-8.7-0.2-17.3-0.5-26-2.8
		c-16.2-4.3-30.5-11.9-43-23c-11.7-10.5-23.8-20.4-34.8-31.4c-13.5-13.5-26.3-27.7-38.8-42.1c-8.3-9.6-15.8-20-22.8-30.5
		c-3.8-5.6-5.8-12.4-8.7-18.6c-2.7-6.1-5.7-12-8.2-18.1c-1.4-3.3-2.5-6.9-3.2-10.5c-1.5-7.2-2.7-14.5-3.9-21.8
		c-3.4-20.5-3.8-41.2-2.5-61.8c0.9-16,1.7-32.1,5.4-47.9c2.8-12,8.8-22.1,15.2-32.2c2.5-4,5.4-7.9,8.6-11.4
		c6.8-7.2,14.9-12,25.4-10.1C3009.6,1794.5,3017.8,1793.8,3023.7,1792.4"/>
	<path class="st4" d="M1737.4,1976.9c0,0.1,0.1,0.3,0.1,0.4c-0.1,0.1-0.2,0.1-0.3,0.2c0-0.1,0-0.2,0-0.3
		C1737.3,1977.1,1737.3,1977,1737.4,1976.9"/>
	<path class="st3" d="M1807.9,330c-0.6-0.2-1-0.3-1.5-0.4c0,0.7-0.1,1.3,0,1.9c0,0.2,0.8,0.2,1.2,0.3
		C1807.7,331.2,1807.8,330.6,1807.9,330 M1795.3,308.3c0.8-0.4,1.6-0.9,2.4-1.3c-1.5-3.5-2.2-8-4.8-10.2c-3.7-3.1-5.7-9-12.4-9.2
		c0.3,5.8,6,6.1,8,9.5C1790.7,300.9,1793,304.6,1795.3,308.3 M1485.5,646.2c-2.7,8.1-11,9.4-12.5,17c1.5,0.2,2.9,0.7,3.3,0.3
		c4-3.6,8-7.4,11.7-11.3C1488.5,651.7,1487,649.4,1485.5,646.2 M1471.7,670.5c-2.5-3-4.4-2.3-6.3-0.1c-9.3,11.5-18.6,23-27.8,34.5
		c-0.5,0.6-1.3,1.3-1.3,2c0,1.2,0,2.9,0.8,3.5c0.7,0.5,2.5,0.2,3.5-0.3c0.8-0.4,1.4-1.6,1.9-2.4c7-11.9,15.1-22.8,26.5-31
		c0.9-0.6,2-1.3,2.3-2.1C1471.7,673.1,1471.6,671.6,1471.7,670.5 M1817,461.2c1.9,0.6,2.8,1,3.8,1.3c6.1,1.7,8.8-0.6,7.5-6.6
		c-0.7-3.3-1.8-6.7-3.2-9.8c-1.6-3.7-5.2-4.7-8.5-2.3c-1.9,1.4-3.5,3.3-4.8,5.2c-3.3,4.8-5.9,10.2-9.8,14.5
		c-12,13.2-18.2,29.7-26.1,45.3c-5.5,10.8-9.7,22.3-15.4,33c-12.4,23.1-26.1,45.4-43.8,65c-6.2,6.9-12.4,13.9-19.2,20.1
		c-16.2,14.6-32,29.6-45.1,46.9c-13.7,18.2-25.1,38.1-27.9,61.6c-0.7,6-0.6,12.2-0.2,18.2c0.4,5.6,3.8,9.8,7.9,13.4
		c2.1,1.9,4.7,2.2,6.5,0.5c1.5-1.4,2-4,2.6-6.1c0.2-0.8-0.5-2.1-1.1-2.9c-4.5-5-4.4-11.1-4.2-17.3c0.5-20.4,9.9-37.7,21.4-53.1
		c16.6-22.3,37.3-41,57.2-60.5c6-5.9,11.8-12.1,16.8-18.8c7.5-10.2,14.6-20.7,21.2-31.5c7.3-12,15.2-23.8,20.4-36.7
		c7.7-19.2,15.4-38.4,26.6-55.8C1805,476.6,1811.2,469,1817,461.2 M1565.6,596.2c-2.7,10.5-9.2,15.8-14.5,22
		c-9.2,10.7-19.6,20.1-31.1,28.3c-7.1,5-14.1,10.3-20.4,16.3c-10.1,9.7-19.6,20.1-29.4,30.1c-3.7,3.8-7.5,7.4-11.2,11.2
		c-11,11-22.4,21.7-33,33.1c-9.3,10.1-17.9,20.8-26.2,31.8c-7.3,9.7-13.9,20-20.4,30.3c-4.2,6.7-7.8,13.8-11.1,21
		c-3.8,8.2-8.1,16.3-10.2,24.9c-2.1,8.9-2.4,18.3-2.4,27.6c0,6.8,1.6,13.6,3.2,20.2c0.5,2.1,3.2,4.8,5.2,5c2,0.2,4.9-1.8,6.2-3.7
		c1.3-1.9,1.7-5,1.4-7.4c-0.5-5.3-2.2-10.4-2.5-15.7c-0.8-12,0.1-23.9,5.5-34.9c4.3-8.8,9.3-17.3,14.1-25.8
		c3.7-6.7,7-13.7,11.3-19.9c6.4-9.4,13.3-18.5,20.4-27.3c13.3-16.5,27.4-32.2,42.9-46.7c8.5-7.9,16.6-16.3,24.8-24.6
		c4.8-4.9,8.9-10.5,14.1-14.9c12.2-10.5,24.3-21.4,37.5-30.6c13-9.1,22.3-21.2,31.2-33.6c10.4-14.3,19.8-29.4,27.3-45.5
		c2.2-4.7,5.4-9.2,8.8-13.2c9.1-11,18.6-21.7,27.9-32.5c1-1.2,1.6-2.7,2.5-4c2-2.7,4.1-5.3,6.1-8c4.5-6.2,10.4-11.8,13.2-18.7
		c4.1-10.4,10.1-19.1,17.3-27.4c2.6-3,5.2-4.4,8.9-3.7c3.3,0.6,5.9-0.1,7.1-3.5c1.7-5-2.1-8.3-4.3-12c-1.5-2.5-4-3.4-6.9-2.5
		c-0.5,0.1-1,0.4-1.4,0.7c-5.5,5.6-11.9,10.7-16.3,17.1c-8.7,12.6-15.7,26.5-24.5,39c-9.1,13-19.7,25-29.4,37.5
		c-6.7,8.8-13.1,17.8-19.7,26.7c-3.1,4.1-5,9.5-11.5,9.6c-0.7,0-1.4,0.7-2,1.2c-7.5,7-14.7,14.1-23.2,19.9
		c-7.8,5.3-14.7,11.9-21.6,18.4c-4.9,4.6-10.1,9-15.2,16.4c4.6-0.1,7.9,0.9,9.8-0.4c6-3.9,11.5-8.5,17-13.1
		c5.2-4.4,10.1-9.3,15.4-13.7C1558.6,599.4,1561.6,598.3,1565.6,596.2 M1091.7,1416c-0.1-0.1-0.2-0.3-0.3-0.4
		c-2.5,1.6-5.4,2.7-7.3,4.8c-7.6,8.5-15.7,16.7-21.9,26.2c-7.7,11.6-14.3,24.1-20.4,36.7c-7,14.5-10.9,29.9-9.5,46.2
		c0.8,10,4.9,19,10.2,27.3c2.4,3.8,5,4,8.8,1.6c4.2-2.7,4.8-5.6,2.2-11.8c-3.1-7.3-6.9-14.4-6.9-22.7c0-11.1,2.8-21.5,7.5-31.4
		c3.4-7.2,6.8-14.4,10.8-21.3c6.7-11.4,14.2-22.5,24.5-31.1c15.8-13.4,32.5-25.6,50.5-35.9c11-6.2,19.3-15.5,28.1-24.3
		c6-6,11.4-12.6,17.4-18.5c8.1-7.9,17.1-15,24.9-23.2c8.9-9.4,17.9-18.7,26-28.9c15.2-19.1,28.6-39.4,41.3-60.1
		c9.4-15.4,17.7-31.5,27.9-46.3c12.9-18.8,23.3-39,33.8-59.2c9-17.3,19.2-33.4,33.3-47.2c18.7-18.4,37.2-37,55.3-56
		c13.1-13.6,24.9-28.3,34.6-44.5c11.7-19.6,23.6-39,40.9-54.5c4.7-4.2,6.4-10.3,7.5-16.4c0.7-3.7-1.4-7.2-4.5-8.4
		c-3.4-1.4-5.6,0.6-7.4,3c-1.5,1.9-2.7,3.9-4.1,5.8c-3.2,4.2-6.4,8.3-9.6,12.4c-1.3,1.7-2.7,3.3-3.9,5c-8.6,13-17.2,26.1-25.8,39.1
		c-13.2,19.9-28.8,37.8-44.5,55.7c-6.4,7.3-14.2,13.5-21.4,20c-5.7,5.2-11.9,9.8-17.2,15.3c-13.7,14.1-25.4,29.9-36.1,46.3
		c-5.5,8.4-10.8,17-15.6,25.8c-4.2,7.6-7.4,15.8-11.7,23.4c-5.5,9.7-11.5,19-17.4,28.4c-11.5,18.4-23,36.9-34.5,55.2
		c-5.9,9.4-11.9,18.6-17.9,27.9c-1.9,2.9-4.4,5.3-6.3,8.2c-13.1,19.8-29.8,36.4-47.8,51.8c-7.6,6.5-15.4,13.2-21.8,20.8
		c-9.5,11.3-20.8,20.4-32.7,28.8c-9.1,6.5-18.5,12.4-27.7,18.7C1099,1410.9,1095.3,1413.5,1091.7,1416 M1192.5,1089.3
		c-3.7-7.1-8-7.8-13.6-2c-8.7,9-17.2,18-26,26.8c-11.2,11.3-23.3,21.8-33.5,33.9c-14.8,17.6-28.5,36.2-42.3,54.7
		c-6.9,9.3-13.2,19.2-19.5,28.9c-6.5,10-13,20-19.2,30.1c-7.3,12-14.3,24.2-21.5,36.1c-11.1,18.3-22.9,36.3-33.5,54.9
		c-7.6,13.3-13.5,27.6-20.8,41.1c-8.3,15.4-15.7,31.1-21.1,47.8c-2.6,8-6.7,15.6-10.5,23.1c-3.5,6.8-7.4,13.5-11.4,20
		c-3.6,5.8-7.1,11.9-11.7,16.9c-7.5,8.1-14.4,16.9-23.6,23.5c-5.5,3.9-10,9.3-14.9,14.1c-6.6,6.5-13,13.1-19.7,19.6
		c-6.5,6.2-13.6,11.8-19.6,18.5c-12.5,14-24.6,28.4-36.7,42.7c-2.7,3.2-4.8,6.8-7.2,10.3c-7.1,10-12.9,20.6-16.6,32.4
		c-0.1,0.2-0.3,0.5-0.4,0.7c-8.9,12.1-12.1,26.2-14.5,40.7c-2.6,15.9,2.3,30.2,8.4,44.4c0.2,0.5,0.6,0.9,0.9,1.3
		c2.4,2.9,5.1,4.6,9,3c4.4-1.8,5.7-3.6,5.2-8.5c-0.2-2-1-4-1.8-5.9c-5.8-14.7-11.2-29.6-5.4-45.5c3.2-8.6,7.2-17.1,11.5-25.2
		c10.7-20.2,23.3-39.1,39.1-55.8c9.3-9.8,18.3-19.9,27.7-29.5c8.7-8.9,17.8-17.3,26.7-25.9c9.5-9.2,19-18.4,28.4-27.7
		c8.7-8.5,17.4-16.9,22.9-28.2c4.6-9.5,10.4-18.4,15.5-27.7c3.7-6.7,7.6-13.4,10.5-20.4c6.9-16.6,13-33.6,20.1-50.1
		c5.2-12.2,10.8-24.3,17.5-35.7c10.4-17.6,21.9-34.4,32.8-51.7c11.6-18.4,23-36.9,34.4-55.4c1.8-2.9,2.8-6.3,4.8-9
		c4.8-6.6,10.2-12.7,14.9-19.4c6.2-8.9,11.6-18.3,18.1-27.1c7.8-10.6,16.2-20.9,24.7-31.1c6.6-8,13.3-15.8,20.4-23.4
		c10.7-11.4,21.6-22.6,32.7-33.6c4.1-4.1,8.3-8.4,13.2-11.2C1194.3,1100.9,1196.4,1096.7,1192.5,1089.3 M852.3,1911.1
		c-9.5-6.8-10.6-6.3-11.7,5c-0.1,1.3-0.2,2.7-0.3,4c-0.2,7.3-2.9,10.3-10.1,9.7c-5.5-0.5-11-1.8-16.2-3.6
		c-6.9-2.4-13.6-5.6-20.8-8.6c1,2.4,1.8,4.4,2.9,7.3c-2.2-0.1-3.7,0.2-5.1-0.2c-17-4.4-31.2-13.9-44.7-24.6
		c-6.4-5.1-12.8-10.2-18.6-15.9c-7.2-7-14.7-14-20.5-22c-4.3-5.9-6.5-13.3-8.9-20.3c-3.8-10.8-6.8-21.8-10.5-32.6
		c-2.3-6.8-5.3-13.3-7.9-19.9c-3-7.3-3.5-14.9-2.1-22.7c2.4-13.3,3.5-26.9,7.2-39.9c5.5-19.4,11.9-38.6,19.4-57.2
		c10.2-25.4,24.3-48.8,39.4-71.5c13.1-19.8,26.9-39.2,38.8-59.8c9-15.5,20.4-29.6,30.5-44.4c9.4-13.8,18.4-27.9,28-41.5
		c7.9-11.3,16.7-21.9,24.8-33.1c10.3-14.4,20.2-29.1,30.3-43.6c4.7-6.7,9.4-13.5,14-20.2c5.1-7.4,10.2-14.9,15.2-22.3
		c12.9-19.1,26.1-38,38.6-57.4c10.2-15.8,19.8-32,29.2-48.3c11-19.1,21-38.7,32.1-57.6c10.5-17.8,21.8-35.1,32.7-52.6
		c15.8-25.4,31.8-50.7,47.5-76.2c8.5-13.7,16.5-27.8,25.2-41.4c6.3-9.8,13.1-19.4,20.5-28.3c12.1-14.6,21.1-31.1,31.3-46.9
		c11.5-17.8,24.1-35,36.3-52.4c4.1-5.8,8.4-11.6,12.7-17.3c8.4-11.2,17-22.4,25.4-33.6c8.1-10.8,16.1-21.6,24.2-32.4
		c8.4-11.2,17.2-22.2,25.2-33.7c11.9-17.2,24.5-33.9,35-52.1c6.6-11.5,14.4-22.2,21.6-33.4c3.6-5.6,6.9-11.3,10.4-16.9
		c0.6-0.9,1.1-1.8,1.8-2.7c10.7-13.8,22-27.2,31.9-41.6c13.6-19.9,26.8-40.1,38.6-61c6.9-12.2,15.7-22.6,24.1-33.4
		c8-10.2,16.9-19.6,25.5-29.4c8.4-9.6,16.3-19.6,25.1-28.7c14.5-15.1,30.2-29.1,44.1-44.8c11.2-12.7,25-22.1,37.4-33.2
		c10.3-9.2,21.7-17,32.3-25.8c8.9-7.5,17.1-15.8,26-23.3c11.3-9.6,23.3-18.5,34.2-28.4c11.8-10.7,25.4-18.8,37.4-29.3
		c18.2-15.9,39-28.5,61.9-37c5.2-2,10.1-4.9,15.4-6.4c7.1-2.1,14.3-4.3,21.6-4.5c23.2-0.8,44.3,6.2,63.4,19.3
		c21.7,14.8,35.6,35.2,43.5,60c2,6.3,4.8,12.4,6.2,18.8c1.8,8,2.9,16.2,3.5,24.4c1,14.9-0.6,29.5-4,44.2
		c-2.6,11.4-5.4,22.7-10.2,33.4c-1.7,3.9-3.6,7.7-5.9,11.2c-8.7,12.9-16.2,26.6-25.3,39.3c-16.2,22.5-31.5,45.8-40.4,72.6
		c-3.7,11-10.1,21-14.9,31.6c-7.8,17.4-15,35.1-23.1,52.4c-6.6,14.2-11.2,29.1-16,44c-5.6,17.4-15,32.7-25.6,47.4
		c-8.4,11.7-17.6,22.6-29.2,31.2c-2.9,2.2-5.2,5.3-7.6,8.2c-16.9,20-33.8,40.1-50.7,60.2c-6.3,7.5-9.5,16.6-12.2,25.7
		c-4,13.6-10.9,25.8-17.2,38.3c-9.7,19.4-21.4,37.7-35,54.6c-9.6,12-20.9,22.6-31.7,33.5c-10.2,10.4-20.6,20.6-31.3,30.6
		c-7.1,6.7-14.9,12.8-22.3,19.2c-16.8,14.7-33.5,29.3-50.1,44.1c-8.7,7.7-17.4,15.5-25.8,23.7c-5.6,5.5-10.7,11.6-15.9,17.6
		c-7.6,8.8-15.2,17.7-22.6,26.6c-12.5,15.1-24.5,30.5-34.6,47.4c-17.9,29.7-35.4,59.7-56.2,87.7c-13.3,17.8-24.5,37.1-36.8,55.7
		c-10.8,16.3-21.7,32.6-32.4,48.9c-4.1,6.2-7.4,12.9-11.6,19c-15.7,22.7-33.6,43.6-51.3,64.8c-14.4,17.1-30.9,32.1-45.6,48.7
		c-14.9,16.9-30.3,33.3-45.4,50c-9.9,10.9-20,21.7-29.6,32.9c-11.2,13-21.8,26.5-32.8,39.7c-10.9,13-22,25.9-32.7,39
		c-17.9,22-34.7,44.8-49.2,69.3c-9.1,15.2-19.3,29.7-28.6,44.8c-5.1,8.3-9.2,17.3-14,25.8c-7.5,13.1-15.7,25.9-22.9,39.1
		c-5.1,9.3-9.6,18.9-16.8,26.9c-5.6,6.3-11.3,12.5-16.8,18.9c-4.2,4.8-8.6,9.1-14.7,11.8C856,1906.4,854.5,1909,852.3,1911.1"/>
	<path class="st5" d="M2480.7,2413.6c-7.8,0.7-14.1-1.3-20.2-3.3c-17.8-6.1-35.3-12.9-53.1-18.8c-9.7-3.2-19.8-6.1-29.9-7.6
		c-7.2-1-14.7,0.3-22.1,1c-8.3,0.8-16.3,0-24.4-1.5c-3.8-0.7-7.9-0.3-11.8-0.7c-11.8-1.2-23.6-3-35.5-3.7c-8.9-0.5-18-0.2-26.9,0.5
		c-14.6,1-29-0.3-43.5-2.1c-8.9-1.1-17.9-1.2-26.9-2.3c-6.8-0.8-13.5-3-20.3-3.8c-18.2-2.1-35.9-6.2-53.2-12.3c-2-0.7-4-1.7-6.1-1.8
		c-7.3-0.3-10.9-6.2-15.4-10.5c-1.2-1.1-1.5-4.1-1-5.9c1.1-4.1,2.3-8.3,4.5-11.8c10.3-16.9,23.7-30.9,40-42.4
		c17-12.1,34.9-22.2,54.4-29.5c4.7-1.8,9.6-2.9,14.5-3.8c14.9-2.8,29.8-5,45-2.5c10.8,1.8,21.1,4.9,30.8,10
		c13.2,6.9,24.9,16,35.6,26.4c7.6,7.4,15.9,13.9,23.9,20.9c2.4,2.1,4.9,4.1,7,6.5c9,10.1,20.6,14.9,33.3,18.9
		c15.3,4.8,30.6,9.6,45.2,17.2c24.9,12.9,42,32.4,54.4,56.9C2479.7,2409,2479.9,2410.6,2480.7,2413.6"/>
	<path class="st7" d="M2033.1,2452c7.5-1.2,14.9-2.3,23.3-3.6c-3.1,5.8-7.3,9.4-12.4,11.7C2039.3,2462.3,2034.7,2458.9,2033.1,2452"
		/>
	<path class="st6" d="M1737.3,1977.2c0.1,10.5-4.5,19.4-10.4,27.7c-6.1,8.6-12.4,17.1-19,25.3c-2.4,3-5.8,5-8.8,7.5
		c-0.4-0.4-0.8-0.7-1.2-1.1c0.6-0.9,1-2,1.7-2.6c14.5-11.7,23.4-27,29.9-44.1c1.8-4.7,3.2-9.6,7.9-12.5L1737.3,1977.2z"/>
	<path class="st6" d="M1737.5,1977.3c-3-7,1.6-12.5,3.1-20.1c2.7,4.1,2.5,6.7,0.8,9.7c-1.8,3.2-2.8,6.8-4.1,10.2
		C1737.3,1977.2,1737.5,1977.3,1737.5,1977.3"/>
	<path class="st6" d="M1740.9,1955.3c1.6-6.3,2.8-10.9,4-15.6c0.5,0,1,0.1,1.5,0.1c-0.2,2.5-0.5,5.1-0.6,7.6
		C1745.6,1950,1747,1953.3,1740.9,1955.3"/>
	<path class="st6" d="M1946.4,2223.8c2.3,4,2.6,7.2-4.3,8.1C1943.9,2228.4,1945.1,2226.1,1946.4,2223.8"/>
	<path class="st5" d="M1358.2,1969.3c0.5-0.1,1-0.2,1.6-0.3c0-1.2,0.4-2.6,0-3.6c-4.5-10.9-9.9-21.4-16.4-31.3
		c-1.5-2.3-2.9-4.5-6.6-3.4c-2.2,5.4,1,9.5,3.8,13.6C1346.3,1952.7,1352.3,1961,1358.2,1969.3 M1340.7,1967.9
		c-10.7-16.4-17.8-34.2-22.3-53.3c-1.8-7.8-2.7-15.6-3.8-23.4c-1-7.3-3.3-14.4-4.8-21.7c-1.4-7-3.3-14.1-3.5-21.2
		c-0.6-19.8-3.2-39.7,0.5-59.5c2.2-11.5,6.8-22.2,12.6-32.4c4.3-7.6,7.9-15.7,12.4-23.1c3-4.9,6.7-9.6,10.8-13.6
		c6.3-6,14.5-7.1,22.9-7.3c10.3-0.2,20.8,0.1,30.9-1.5c9.9-1.5,19.5-4.8,29.1-7.9c12.9-4.2,25.5-9,38.3-13.4
		c9.5-3.3,19.2-6.2,28.6-9.6c9.7-3.5,19.3-7.5,29-11c7.5-2.7,15.1-5.3,22.8-6.9c5.3-1.2,11-0.7,16.5-0.8c6-0.1,12.2-0.3,18.1,0.4
		c8.9,1,17.9,2.4,26.6,4.4c13,3,25.2,8.6,36.6,15.2c8.4,4.8,15,12.5,22.7,18.6c11.5,9.2,20.7,20.5,30.2,31.5
		c16,18.8,31.8,37.9,40.1,61.7c3.3,9.5,5.1,19.4,7.6,29.2c0.4,1.5,0.7,3.1,1.2,4.6c2.8,8.9,2.4,17.6-1.1,26.4
		c-1.5,3.8-2,8.2-2.6,12.3c-1.5,10.5-2.2,21.1-4.4,31.5c-5,23.7-13.5,46.3-23.8,68.2c-4.3,9-10.2,17.4-15.9,25.6
		c-10.7,15.5-21.6,30.8-32.8,45.9c-3.1,4.2-7.2,7.8-11.3,11.1c-5.6,4.5-11.5,8.5-17.4,12.5c-6.6,4.6-13.7,8-21.8,9.4
		c-14.1,2.4-28,6.5-42.2,7.3c-21.3,1.2-42.9,3.2-64-3.2c-21.5-6.5-43.4-11.9-64.7-19.3c-14.2-4.9-27.7-12-41-19
		c-23.9-12.4-39.4-33.3-53.4-55.3C1345.1,1976.4,1343,1972.1,1340.7,1967.9"/>
	<path class="st5" d="M2174.6,1620.2c6.4-5,11.6-11.2,19.7-12.2c7.5-0.9,15.1-0.9,22.6-1.3c0.3-0.6,0.9-1.1,0.8-1.5
		c-2.1-8.3,2.7-11.5,9.4-14.6c24.3-11.2,49.4-13,75.4-7.7c14,2.9,28,5.9,42,8.6c11.8,2.2,22.9,6.3,33.7,11.5
		c4.7,2.3,9.8,3.8,14.5,6.1c7.6,3.7,15.1,7.7,22.6,11.7c3.3,1.7,6.3,4,9.6,5.6c17,8.1,31.2,20,44.7,32.8
		c20.6,19.6,36.9,42.1,49.5,67.6c7.3,14.7,11.6,30,14.3,46.1c1.9,11,4.1,21.9,3.3,33.1c-1.3,18.2-0.2,36.8-7.9,54
		c-7,15.7-13,31.9-23.3,46c-5.1,7-9.1,14.9-13.5,22.5c-8.6,14.7-20.3,26.4-34.1,36.2c-3.2,2.3-6.3,4.9-9.4,7.3
		c-7.4,5.7-14.8,11.1-25.1,9.6c-3.3-0.5-7,0.1-10.2,1.1c-9.7,2.9-18.9,1.1-28.1-1.8c-9.3-3-18.5-6.6-28-9.1
		c-13.5-3.5-27.1-7.2-41.3-7c-7.9,0.1-15.8,1-23.7,1.8c-16.9,1.8-33.7,3.7-50.6,5.8c-10.4,1.3-20.5,0.2-30.7-1.7
		c-15.4-2.8-29.2-9.7-43.4-15.4c-18-7.2-32.3-19.3-39.8-38c-5.8-14.5-11.2-29.3-17.6-43.6c-10.5-23.8-13-49.3-14.6-74.6
		c-1.3-22,1.8-43.9,9.3-64.9c3.9-10.7,6.7-21.8,10.7-32.5c4.3-11.3,6.9-23.2,14.1-33.4c4.4-6.2,6.9-13.7,11.2-20.1
		c3.9-5.9,8.9-11.1,13.6-16.4c0.7-0.8,2.4-1.1,3.6-1.2c2.4-0.2,4.8-0.2,7.2-0.1C2175.3,1630.9,2175.6,1630.7,2174.6,1620.2"/>
	<path class="st5" d="M2093.3,1113.9c-1.1-0.2-2.2-0.5-2.4-0.3c-0.5,0.7-0.8,1.8-1.1,2.7c0.8,0.2,2,0.8,2.4,0.5
		C2092.8,1116.2,2092.9,1115.1,2093.3,1113.9 M2276.6,884.3c5.2,9.6,10,19.3,15.7,28.6c2.7,4.4,6.7,8.2,10.9,11.4
		c9.2,7.2,18.9,13.2,30.5,16.4c14.8,4,29.9,8.1,43.6,14.8c17.1,8.4,35.9,11.4,52.8,19.7c7.6,3.7,14.9,8.1,22.1,12.5
		c9.5,5.8,18.7,12.1,28.1,17.9c14.8,9.2,24.9,21.8,30.4,38.5c7.1,21.5,7.7,43.2,3,65.1c-1,4.8-3.5,9.4-5.6,14
		c-5.1,11.6-10.1,23.3-15.5,34.8c-6.2,13.2-16.1,23.6-26.4,33.6c-8.4,8.1-16.6,16.4-25.5,23.8c-7.5,6.2-16.1,11.2-24.2,16.7
		c-7,4.8-13.8,10-21.1,14.2c-12,6.8-24.7,12.3-38.4,15c-8.2,1.6-16.5,2.9-24.9,3.7c-3.3,0.3-6.9-0.3-10.1-1.3
		c-28.1-8.6-56.1-17.6-84.2-26c-8.1-2.4-16.6-3.7-25-4.3c-14-1.1-28-1-42-1.9c-8.8-0.5-17.5-3.1-24.3-8.7
		c-12.2-9.9-24.9-18.7-39-25.8c-8.4-4.2-16-10.4-21.9-18.2c-9.1-12-18.9-23.6-27.4-36.1c-8.3-12.1-14.3-25.4-17.6-39.8
		c-1.9-8.2-6.3-15.9-6.2-24.6c0.1-7.9-0.3-15.9,1.1-23.6c2-11.8,6-23.2,7.9-34.9c2.1-12.8,2.7-25.8,3.9-38.7
		c1.9-19.3,3.3-38.6,5.9-57.7c1-7.8,3.4-15.7,6.8-22.8c8.2-17.2,15.6-34.8,26-51c5-7.8,12.3-12.9,18.9-19c1.4-1.3,4.5-2.1,6.4-1.6
		c4.2,1.2,7.3-0.1,10.1-3c7.3-7.4,16.6-11.4,25.8-15.4c8-3.4,16.8-1.7,25.1-0.6c7.6,1,15.3,2.1,22.7,4c17.5,4.4,35.1,9.1,49.1,21.3
		c4.7,4.1,8.8,9.3,12.3,14.5c7.4,11,14.2,22.4,21.2,33.7C2277.2,884,2276.9,884.1,2276.6,884.3"/>
	<path class="st6" d="M1358.2,1969.3c-5.9-8.3-11.9-16.6-17.7-25c-2.8-4.1-6-8.2-3.8-13.6c3.7-1.1,5.2,1.2,6.6,3.4
		c6.5,9.9,11.9,20.4,16.4,31.3c0.4,1,0,2.4,0,3.6C1359.2,1969.2,1358.7,1969.2,1358.2,1969.3"/>
	<path class="st6" d="M2093.3,1113.9c-0.4,1.2-0.5,2.3-1.1,2.9c-0.4,0.3-1.6-0.3-2.4-0.5c0.3-0.9,0.5-1.9,1.1-2.7
		C2091.1,1113.3,2092.2,1113.7,2093.3,1113.9"/>
	<path class="st6" d="M2704.5,3095c-2.1-1.7-5-2.6-6.6-6c4.9-0.8,7.2,1.5,9.2,4.6C2706.2,3094.1,2705.3,3094.6,2704.5,3095"/>
	<path class="st6" d="M3082.7,2737.6c0-2.8,1.2-3.8,3.6-3.2c0.4,0.1,1,1.2,0.9,1.6C3086.4,2738.5,3084.8,2738.6,3082.7,2737.6"/>
	<path class="st6" d="M3224.1,2697.1c1.4-4.1,2-7.1,3.4-9.6c0.6-1,3.4-1.8,4.3-1.3c1.1,0.7,2,3.1,1.7,4.4
		C3232.7,2694.3,3230.1,2696.3,3224.1,2697.1"/>
	<path class="st6" d="M3410.8,2473.4c-0.8-2.9-1.4-4.1-1.4-5.3c0.1-1.4,0.5-2.9,1.2-4.1c0.2-0.3,2.4-0.2,2.6,0.3
		c0.7,1.5,1.4,3.3,1.2,4.8C3414.4,2470.2,3412.8,2471.2,3410.8,2473.4"/>
	<path class="st6" d="M1802.7,322.1c-0.1,0.6-0.1,1.2-0.2,1.9c-0.4-0.1-1.2-0.1-1.2-0.3c-0.1-0.6,0-1.3,0-1.9
		C1801.6,321.9,1802,322,1802.7,322.1"/>
	<path class="st6" d="M856.6,1905.2c-18.5,9.9-40.1,23.6-62.2,18.1c-16.3-4.1-28.5-17.6-39.1-29.7c-20.5-23.5-42.5-46.4-61.8-70.9
		c-21.3-27-33.5-53.8-30.5-88.8c1.6-18.9,2-38.4,8.6-56.4c7.4-20.1,18.4-41,28.2-60.1c16.7-32.7,39.4-62.7,60-93.1
		c9.9-14.5,18.7-29.5,31-42c14.9-15.1,31.3-28.3,45.4-44.2c49.6-55.6,68.9-128.9,118.7-183.2c22.6-24.6,45.5-49.4,66.6-75.3
		c21.8-26.8,48.3-56.4,64-87.4c15.8-31.2,25.5-65.1,41.6-96.2c15.4-29.8,34.2-61,53.5-88.4c20.3-28.7,46-52.4,65.3-82.4
		c21.8-33.8,41.4-69.2,61.4-104.1c17.1-29.9,28.9-62.2,52.8-87.5c27.5-29.1,54.2-58.8,80.6-89c22.7-25.9,43.2-55.3,67.3-79.7
		c24-24.3,51.1-45.1,72.9-71.8c48.5-59.4,87.4-129.4,156.2-168.3c32.5-18.4,65.8-27.1,101.2-13.1c16.6,6.6,33.6,9.6,47.3,21.7
		c15.6,13.7,27.7,37,35.6,56.1c15.4,37.2,3.3,76.2-10.5,111.8c-12.8,33.2-22.8,71.3-40.5,102.3c-15.2,26.7-40.6,47.6-58.6,72.2
		c-13.7,18.8-19.4,48.4-20.9,71.2c-1,15.6,0.4,31.3-4.9,46.3c-6.3,17.7-18.4,34.8-28.6,50.5c-23.4,35.9-50.8,70.9-78.8,103.3
		c-47.5,55-85.6,117.4-141.2,165.4c-27.1,23.5-58.5,38.7-83.8,64.4c-25.1,25.5-43.1,53.2-61.7,83.6c-21.9,35.9-47,71.4-72.9,104.5
		c-24.5,31.4-43.2,66.4-68.9,97.2c-26.8,32.2-56.3,61.9-84.6,92.7c-24.2,26.3-36.3,56.1-56,85.4c-22.5,33.5-56.8,57.3-77.9,91.3
		c-21.4,34.5-46.2,66.6-66.5,102c-10.1,17.5-21.9,33.7-32.3,51.1c-9.9,16.6-16.9,34.9-28.2,50.7c-11.3,15.9-22.3,28.5-31.6,45.6
		c-14.1,25.7-33,40.4-58.6,53.6c-8.1,4.2-1.4,16.6,6.7,12.4c34.6-17.7,48.5-33.7,68-67c9.6-16.4,23-29.6,33-45.7
		c11.8-18.9,20.4-39.3,32.8-57.9c22.2-33.2,40.6-68.8,64.4-101c10.5-14.1,18.5-29.3,28.6-43.6c14.3-20.3,35.1-36.5,51.2-55.5
		c22.3-26.3,34.6-56.4,53.5-84.6c22.9-34.1,56.5-62.3,84-92.8c52.3-58.2,96.3-124.9,138.2-190.5c9.8-15.4,22-28.8,31.3-44.5
		c11.5-19.2,22-37.2,36.6-54.4c28.4-33.6,63.6-53.7,97.1-80.9c61.6-50.1,103.8-118.4,154.5-178.3c24.4-28.8,48-59.3,69.1-90.5
		c19.8-29.1,38.9-57.7,40.8-93.6c1.9-35.7,6.2-65.4,29.9-93.2c23.8-27.9,46.9-55.9,60.3-90.2c22-56.6,63.6-128.6,42.6-191
		c-8.6-25.6-26.1-57.2-48.1-73.9c-9.6-7.3-19.9-9.7-31.1-13.5c-16.7-5.7-31.9-14.6-49.9-15.2c-67.1-2.3-127.4,54.6-167,102.1
		c-26.6,31.9-49,67.3-76,98.9c-24.1,28.1-54.9,49.6-78.6,77.9c-25.3,30.2-50.2,60.4-76.3,90c-25.3,28.7-57.2,55.9-78.8,87.5
		c-21.6,31.7-37,69.5-56.6,102.7c-23.9,40.6-46,82.6-76.9,118.5c-45.1,52.5-80.6,111.5-106.7,175.8c-33,81.3-95.2,146.3-153.8,210.5
		c-27.9,30.5-40.9,66.9-60.7,102.7c-25.4,46-59,80.1-95.9,116.6c-27.1,26.8-46.2,63.7-67.4,95.3c-22.8,34.1-46.8,74.1-58.1,113.9
		c-8.5,29.8-12.8,69.9-2.7,99.6c10.9,32,35.2,58.1,57.5,82.6c21.3,23.3,41.4,57.2,71.3,70.1c28.8,12.5,56.3-2.5,81.7-16
		C871.4,1913.3,864.6,1900.9,856.6,1905.2"/>
	<path class="st6" d="M772.8,1748.5c-11.9-33.1,1.2-75.5,21.1-101.5c21.1-27.5,44-52.4,69.5-75.9c22.4-20.7,48.4-41.7,62-69.8
		c5.5-11.5,7.8-24.1,12.4-36c5.9-15.3,14.8-29.1,20.6-44.5c11.8-31.1,33.4-61.6,57.8-83.6c22.4-20.2,36.6-47.7,54-72.1
		c21.3-30,44.8-58.6,65.8-88.7c17.5-25.1,25.9-58.6,50.5-78c7.1-5.6-2.7-15.8-9.8-10.2c-23.8,18.9-32.6,49.7-48.5,74.6
		c-20,31.3-45.4,60.2-67,90.6c-11.1,15.7-21.5,31.9-32.4,47.7c-10.9,15.9-26.2,24.1-38.3,38c-9.6,11.1-16.3,26-25.3,37.9
		c-9.9,13-14.5,24.7-20.3,39.8c-5.9,15.3-14.9,29.1-20.6,44.5c-7.9,21.2-13.1,40.6-28.2,58.2c-24.9,29-55.7,52.9-81.9,80.9
		c-18.1,19.3-42.3,43.8-52.1,68.5c-8.5,21.6-10.8,61-2.9,82.8C762.1,1760.2,775.9,1757,772.8,1748.5"/>
	<path class="st6" d="M1362.8,879c-12.1-22.4,8.6-49.3,20.5-67.8c14.8-23.2,31.1-46.9,54.6-61.9c32.1-20.5,79.1-29.9,101-63.3
		c9.6-14.6,13.4-31.8,18.3-48.2c7.5-24.8,20.7-45.4,35.5-66.3c27.9-39.5,51.1-86.8,94.4-111.5c7.9-4.5,1.2-16.9-6.7-12.4
		c-43.7,24.9-66.5,69.9-94.7,109.6c-13.7,19.3-28.1,38.5-36.8,60.7c-12.2,31.1-13.5,62.6-45.3,81.4c-22.1,13-46.4,22.2-68.5,35.3
		c-20.6,12.2-35.8,29.2-49.8,48.5c-19,26.2-53.3,68.6-34.9,102.7C1354.8,893.7,1367.2,887,1362.8,879"/>
	<path class="st6" d="M1640.2,773.4c-18.1-27.1,7.6-53.7,22.2-76.1c17.2-26.4,33.6-53.4,49.1-80.8c13.3-23.4,24.9-47.4,35.3-72.2
		c14.4-34.6,34-59.4,64.5-81c7.3-5.2,0.7-17.7-6.7-12.4c-28,19.8-47.9,40.4-63.7,71.3c-17.7,34.6-31.5,70.3-51.3,104.1
		c-18.7,31.8-40.3,61.9-59,93.6c-11.9,20.2-16.3,39.8-2.7,60.3C1632.8,787.7,1645.3,781,1640.2,773.4"/>
	<path class="st6" d="M1043.8,1547.7c-17.9-34.3,3.2-63.3,23.5-90.7c23.2-31.3,51.3-57.4,85.6-76.2
		c60.9-33.5,85.5-100.6,117.6-158.2c18.9-33.8,43.5-59.7,72.4-85c22.3-19.5,38.9-37.1,52-63.8c6.4-13,12-26.4,20.1-38.5
		c9.6-14.2,23.9-19.3,34.4-31.7c18.5-21.9,19.6-51.3,46.4-66.5c7.9-4.5,1.2-16.9-6.7-12.4c-26,14.7-29.4,37.9-45.1,61.3
		c-9.1,13.5-23.2,19.5-33.6,31.8c-9.5,11.3-16,24.6-22.4,37.8c-8.3,17.2-15.9,34.1-29.1,48.3c-13.6,14.5-29.8,26.5-44.4,40
		c-28,25.8-47.9,55.3-65.3,89c-20.5,39.6-38.7,78.1-71,109.7c-27.5,26.8-63,41.9-90.6,69.3c-36.1,35.9-83.7,89.9-56.1,142.6
		C1035.6,1562.5,1048,1555.8,1043.8,1547.7"/>
	<path class="st6" d="M1017.8,1897.8c20.2-7,35.1-4.7,54.8-15.6c19.4-10.7,37.9-23,53-39.4c17.8-19.4,29.7-42.4,52.1-57.6
		c21.7-14.7,46.6-25.2,69.7-37.5c8-4.3,1.3-16.7-6.7-12.4c-38.4,20.5-77.4,36.1-104.8,71.2c-16.4,21-30.3,38.5-52.8,53.1
		c-14,9.1-28.9,18.1-45.6,21c-8.1,1.4-14.7,0.6-22.8,3.4C1006,1887,1009.2,1900.8,1017.8,1897.8"/>
	<path class="st6" d="M1571.3,1280.6c9,18.1,16,27.5,34.5,35.9c17,7.7,37.7,10.3,53.1,20.8c24.2,16.5,30.5,62.8,68.7,52.6
		c42.7-11.4,76.3-67.1,122.7-27.7c13.9,11.8,22.9,27.3,40.6,34.2c14.4,5.6,29.6,3.2,44.6,2.3c9-0.5,9.5-14.7,0.4-14.1
		c-26.8,1.5-42,1.3-63.2-19.1c-9.8-9.4-17.8-19.8-30.3-25.9c-25.5-12.3-50.9-2.1-73.7,11.2c-12.3,7.1-26.3,19.8-39.9,23.4
		c-32.8,8.5-36.6-26.2-54.2-42.5c-29.2-27-70.9-17.5-90.9-57.8C1579.7,1265.7,1567.2,1272.5,1571.3,1280.6"/>
	<path class="st6" d="M1907.8,731.6c37.6,5.6,72.4-38.7,107.8-47c19.7-4.6,43.8,5.2,61.8-4.6c8.4-4.6,10-11,15.6-17.7
		c16.8-20.4,35.6-21.7,58.2-12.5c8.4,3.4,12.4-10.2,4-13.6c-16.6-6.8-34-10.5-50.9-2.5c-7.5,3.6-12.7,8.8-18.7,14.3
		c-10,9.4-18.1,18.8-33.5,21.1c-6,0.9-14.7-1.4-20.7-1.1c-21.7,1-42,10.2-60.6,20.8c-18.3,10.5-40.4,32-62.6,28.7
		C1899.3,716.1,1898.9,730.2,1907.8,731.6"/>
	<path class="st6" d="M854.2,1927.4c18,36.3,56.1,48.4,92.6,58.9c49.8,14.4,104.3,20.1,151,43.4c49.2,24.6,88.6,72.4,123.9,113.6
		c32.7,38.1,47.6,79.8,95.7,101.8c23.7,10.8,48.1,17.3,70.4,31.4c17.1,10.8,30.9,27.8,49.3,36.4c21.8,10.2,55,7.8,60-19.3
		c3.9-21,1.2-43.9,1.3-65.1c0-9.1-1.8-29.6,3.7-37.4c5.8-8.1,29.3-10.9,37.5-9.6c6.6,1,13.5,5.1,19.8,7.1
		c48.8,15.4,97.6,26.2,147,38c21.8,5.2,49.3,15.4,69.3,25.8c22.2,11.6,49.1,21.9,69.6,35.7c21.9,14.8,41.9,36.9,61.1,55.2
		c19.5,18.6,39.8,36,60,53.8c23.2,20.4,45.5,44.6,76.9,26.5c12.2-7,24.7-18.4,40.5-13.3c9,2.9,15.2,20.5,19.8,28.1
		c7.5,12.5,17.1,29.6,29.2,38.3c13.8,10,30.3,3.9,46,7.6c18.4,4.3,31.4,11.5,50.1,4.4c8.8-3.3,16.8-9,24.9-13.8
		c15.5-9.2,27.5-5.8,44-2.6c11.9,2.3,25.8,5.7,35.7-3.9c9.4-9,5.9-19.2,7.3-30.6c2-17.1,15.3-29.5,33.2-33.5
		c19.9-4.4,39.3,9,56.6,17.3c40.3,19.2,76.1,45.8,117.8,62c16.1,6.2,27.7,18.8,45.8,17.7c24-1.5,47.6-16.5,67.7-28.1
		c10.4-6,20.7-12.6,31.6-17.7c18.3-8.5,35.7-5.4,54.6-1.1c27.4,6.3,53.3,14.4,77.7,28.4c21.9,12.5,44.2,22.3,64.4,37.6
		c17.6,13.3,36.3,22.5,56.1,32.1c19.6,9.5,35.1,24.6,54.1,34.3c17.9,9.1,38,8.5,57.3,9.6c29.1,1.6,54.5,8.5,74.6,30.3
		c13.4,14.5,25.9,25.2,46.2,29c16,2.9,32,0.2,46.6-6.5c15.1-6.9,23.6-14,40.8-15.7c20.2-2,27.4,6.8,44,14.4
		c18.5,8.6,35.5,13.2,52.5,25.6c11.3,8.2,28.1,21,43.1,14.7c22.5-9.5,13.7-44,7.2-60.9c-20.2-51.9-54.1-99.1-81.4-147.5
		c-27.2-48.1-22.8-100.8-43.2-150.6c-10.1-24.6-24.6-47.1-37.5-70.2c-14.8-26.5-24.3-53.7-32.6-82.8c-7-24.5-19-45.4-29.5-68.5
		c-13.9-30.8-20.7-64.3-31.7-96.2c-18.1-52.4-49.2-100.2-75.8-148.6c-28.4-51.5-60.6-102.5-84.9-156.1c-11.3-24.9-27.2-58-29.7-84.6
		c-2.3-24.1-7.3-41.7-16.5-64.1c-21.9-53.1-48.8-105.6-82.1-152.6c-31.4-44.2-56.7-92.9-89.3-136.1c-16.3-21.5-33.2-39.5-47.3-62.5
		c-14.6-23.8-35.5-43.5-53.2-64.9c-37.7-45.6-72.1-94-113.5-136.4c-21.8-22.4-35.8-46.2-52.4-72.3c-13.9-21.8-32.7-38.9-48.8-58.9
		c-18.2-22.6-27.5-50.2-44.2-73.7c-13.3-18.7-28.9-35.8-42.5-54.5c-31.6-43.6-76.7-75.3-110.2-117.5c-15.9-20-34.2-35.4-52.4-53
		c-21.7-21-41.4-41.9-65.7-60.1c-17.3-12.9-35.9-23.6-53.3-36.5c-24.3-18-37.8-42.9-58.1-64.7c-16.7-18-35.1-34.8-53.5-51
		c-12-10.6-23.4-25.4-38.3-31.7c-8.4-3.5-12.3,10.1-4,13.6c16.9,7.1,35.5,30.6,48.9,43.1c20.1,18.7,39.3,37.7,55.7,59.7
		c28.2,37.7,65.6,56.5,101.6,85c41.6,32.9,81.7,71.8,114.9,113.2c35.2,43.9,80.4,76.7,112.8,123.2c13.2,19,30.1,34.4,42,54.4
		c12,20.4,21,41.8,36.1,60.3c18.9,23.2,39.2,43.1,54.4,69.1c12.9,22,25.1,39.9,43,58.2c40.2,41.2,74.2,87.4,110.5,132
		c18.8,23.2,42.1,44.7,57.8,70.2c11.7,19,22.1,32.7,36.8,49.7c37.7,43.6,63.2,97.7,96.8,144.6c32.6,45.6,61.1,96.9,82,148.8
		c5.1,12.7,12,25.4,15.2,38.7c2.9,12.3,2.1,25.3,3.8,37.8c3.4,24.3,17,47.3,26,70c19.5,49.5,50.6,96.3,76.3,142.8
		c27.4,49.5,59.2,98.7,80.9,151.1c11.6,27.9,18.2,57.5,27.7,86.1c8.1,24.3,20.9,45.7,30.9,69.1c10.3,23.9,14.5,50,24,74.2
		c9.6,24.5,23.6,46.6,36.5,69.5c14.5,25.8,26.4,51.5,31.1,81c3.9,24.7,5.9,50,14.6,73.7c17.1,46.4,49,88.9,73.3,131.8
		c11,19.3,34,51.6,30.9,75.1c-4.5,34.7-49.7-7.9-62.1-13.3c-7.2-3.2-15.1-4.2-22.4-7c-10.3-4-18.6-11.3-28.7-15.6
		c-12.8-5.4-26-6.5-39.3-2.3c-28.1,8.8-47.2,30.8-79.5,20.6c-24.6-7.7-33.6-33-56.4-43.9c-41.6-19.8-89.4-5-126.7-33.7
		c-16.1-12.3-34.1-20.4-52.2-29.2c-21-10.2-37.3-24.9-56.9-37c-37.3-23.2-77.7-42-120.2-53c-18.3-4.8-39.2-11-58.2-6.6
		c-20.3,4.8-38.7,18.9-56.5,29c-12.5,7.1-26,15.2-40.2,18.4c-17.6,4-29.2-3-43.8-10.1c-19.8-9.5-39.9-16.6-59.4-27.2
		c-22.1-12-42.7-26.4-65.4-37.3c-15.3-7.3-33.1-19.2-50.5-20.7c-22.2-1.9-60.7,14.5-62.4,39.3c-0.1,2.2,0.8,4.5,1,6.7
		c0.8,9.2-1.4,23.6-14.1,26c-9,1.7-19.9-7.1-28.8-8.5c-18.3-2.8-30.8,7.8-46.1,16.2c-26.4,14.5-43.8,0.8-70.2-0.3
		c-26.5-1.2-37.7-14.8-50.9-36.6c-13.1-21.6-26.7-47-56.5-35c-8.5,3.4-14.8,10.7-23,14.5c-19.2,9-32.6-0.2-46.6-12
		c-17.5-14.9-34.9-30.1-52.1-45.4c-32.3-28.8-62.4-68.4-102.1-86.9c-40.7-19-81.1-43.4-125.3-53.8c-48.2-11.3-95.4-22.2-142.9-36.7
		c-24.5-7.5-60.2-25.9-76.6,5c-15,28.2,11.9,119.8-29.4,122.6c-24,1.6-41.1-22.3-59.1-34.8c-17.6-12.2-36.8-21.4-56.9-28.5
		c-26-9.2-49.9-20.5-68.1-42.1c-17.1-20.2-28-44.8-45.6-65.1c-31.9-36.7-65.6-77.3-106.5-104.2c-40.1-26.4-87.2-34.2-133-45.3
		c-42.9-10.3-104.2-20-125.7-63.4C862.5,1912.5,850.1,1919.3,854.2,1927.4"/>
	<path class="st6" d="M2638.5,1634.3c16.9,30.4,49,35.9,81.8,37c24.3,0.9,44.2-2.6,66.8,8.8c15.4,7.8,30.1,22.2,46.7,25.9
		c3.3,0.7,6.1-0.4,8.1-3.1c5.2-7.5,8.2-23.1,15-28.8c14.6-12.3,29.3,4.1,41.3,9.8c8.1,3.9,15.6-8.2,7.3-12.1
		c-15.6-7.4-29.8-25.9-48.7-16.9c-7.4,3.5-11.6,10.9-15.3,17.8c-0.8,1.5-6.7,17.9-8.6,18.3c-1.3,0.3-12.2-9.5-14.4-10.8
		c-20.3-12.4-42.2-23.1-66.3-23.5c-34.7-0.6-81.5,6.4-101.4-29.2C2646.5,1619.6,2634.1,1626.3,2638.5,1634.3"/>
	<path class="st6" d="M2485.8,2133.2c23.2,10.4,44.9,16.8,64.3,34.2c14.5,13,30.9,22.1,45.4,35.1c15.3,13.7,39.3,9.9,49.3-8.9
		c9.6-18.1,3.3-36.5,25.5-49.1c21.7-12.3,48.3-7.1,67.9,6.4c14,9.7,25.3,23.3,41.6,29.6c18.5,7,38.7,3.9,57.9,2.8
		c9-0.5,9.5-14.6,0.4-14.1c-23.8,1.4-45.9,4.2-66.8-9.6c-14.1-9.3-24.6-22.2-40.4-29.2c-23.1-10.2-53.4-9.5-74,6.1
		c-9.1,6.9-15.5,16-19.1,26.7c-4,11.7-2.5,45.4-32.2,29.6c-5-2.7-8.7-10.5-13.2-14.1c-13.4-10.8-28.5-19.5-42-30.4
		c-16.9-13.6-37.8-18.3-57.3-27.1C2484.9,2117.4,2477.5,2129.5,2485.8,2133.2"/>
	<path class="st6" d="M1839.7,2230.3c27.3-22.4,44.8-49,83.7-37.4c13.5,4,28.8,9.1,42.3,1.8c15.9-8.6,14.3-27.6,21.9-41.8
		c8.2-15.1,29.8-30.1,48.2-30.4c15.3-0.2,32,8.7,46.7,12.5c8.8,2.3,12.8-11.3,4-13.6c-22.9-5.9-45-18-68.8-9.7
		c-25,8.7-38.2,23.3-47.9,46.9c-3.2,7.8-5.9,21.5-15.3,25.1c-7.7,3-19.6-2.1-27.3-4.4c-9.1-2.7-18.3-6-27.9-5.4
		c-29.5,1.8-48.6,29-69.6,46.2C1822.8,2225.9,1832.7,2236,1839.7,2230.3"/>
	<path class="st6" d="M1337.7,1689c-42.7,24.2-51,64.5-53.3,111c-1.3,25.9,3.8,48.7,10,73.6c5.8,23.3,1.4,48.4,11.9,70.3
		c9.3,19.2,20.6,46.8,38,60.1c6.9,5.3,15.2,7.9,23.2,10.9c17.3,6.4,32.8,13.4,48.8,22.7c42.9,25,88.5,43.3,138.6,46.8
		c48.4,3.4,95.6-30.7,134.6-55.1c44.8-28.1,40.5-76.8,51.4-123.9c5-21.6,20.4-40.6,16.8-63.6c-2.2-14.6-6.9-28.2-8.5-43.3
		c-1.1-10.3-2.9-19.7-6.7-29.2c-19.1-46.9-44.5-87.6-87-115.9c-21.1-14.1-44.2-27.3-69.7-30.6c-29.6-3.7-46.5,10.7-73,20.2
		c-32.1,11.5-64.9,20.8-97.4,31.1c-29,9.2-61,4.6-87.7,20.2c-7.9,4.6-1.1,17,6.7,12.4c20.1-11.7,41.6-8.1,63.3-12.6
		c24.3-5.1,48.4-14.8,72.1-22.1c18.2-5.6,36.8-11.2,54.5-18.2c22.3-8.8,38.8-20.6,64.1-16.1c43.9,7.8,92.3,44.7,113.5,83
		c10.3,18.7,24.2,40.8,30.2,61.3c3.3,11.5,2.1,23.4,4.2,35c2,11.2,8.7,22.9,8.2,34.3c-0.8,18.1-15.3,40.8-19.1,59.2
		c-4.3,20.9-6.1,42.5-11.1,63.3c-10.4,43.5-73.1,71.7-112.1,87.3c-41.4,16.6-94.8,5.8-134.7-12.6c-17.6-8.1-34.4-17.8-51.2-27.5
		c-18.2-10.5-40.6-14.3-58-25.1c-21.7-13.4-42.4-59.3-44.5-82.7c-1.8-19.7-4.3-37.2-9.1-56.7c-12.8-52.1-12-125.9,39.8-155.3
		C1352.4,1696.9,1345.6,1684.5,1337.7,1689"/>
	<path class="st6" d="M2215.1,1238.7c-14.8,5.1-40.2,12.6-54.8,4.9c-7.7-4.1-15.3-13.7-21.9-19.4c-20.5-17.6-36.3-39-54.5-58.8
		c-16.9-18.3-36-34.3-53-52.5c-9.1-9.8-19-17.8-23.1-30.8c-4.8-15.2,0.7-31.2,4.4-46.3c10.8-43.7,5.9-93.5,32.1-132.3
		c13.2-19.6,25.8-35.8,37.1-57.1c15.3-28.8,46.4-59.8,81.4-56.5c23.9,2.2,52.7,17.4,70.4,32.5c20.3,17.3,27.7,39.8,42.3,60.9
		c10.8,15.5,29.2,20.3,44.9,29.2c17.3,9.8,32.6,13.2,52.2,16.3c22.9,3.7,51.6,7.9,69.1,24.3c19,17.8,27.1,46.6,38.5,69.3
		c12.4,24.7,21.7,41.7,23.6,70c0.7,10,3.4,19.3,0.9,29.4c-3.3,12.8-13.3,25.7-19.6,37.2c-30,54.4-75.4,98.1-139.8,107.2
		c-30,4.2-58.7-10-86.1-20.1C2245.6,1241,2229.7,1233.5,2215.1,1238.7c-8.5,3-5.4,16.8,3.2,13.8c21.3-7.4,54.9,15.8,75,21.6
		c25.6,7.4,47.8,8.5,73.6,1.7c55.6-14.5,98.7-51.8,126-101.5c10.3-18.9,27-39.7,27.4-62.1c0.4-22.7-1.1-47.5-11.6-67.9
		c-22.5-43.9-39.2-102.1-90-119.4c-23.7-8.1-49.5-7.4-73-15.3c-13.3-4.5-25.5-13.9-38.3-20c-21.8-10.2-27-31.4-40-50.2
		c-23.2-33.5-75.8-70.1-119-64.6c-58.6,7.4-80.8,74.2-110.7,114.2c-14.3,19.1-23.2,42.1-27.8,65.5c-2.4,12.1-2,23.9-3.1,36.1
		c-1.7,20-8.4,38.7-12.3,58.2c-4.2,20.9-5,38.7,9,56c21.9,27.1,50.2,48.2,73.5,74c22.6,24.9,43.3,50.8,69.7,72
		c20.7,16.5,48.2,9.6,71.5,1.6C2226.8,1249.5,2223.7,1235.7,2215.1,1238.7"/>
	<path class="st6" d="M2237.1,1567.5c-25.4,13.8-50.7,27.6-76.3,41c-20.2,10.6-35.2,20.9-47,40.7c-13.2,22.2-27.3,47.4-32.8,72.8
		c-5.3,24.3-1.9,48.8-0.7,73.3c1.1,22.6,1,42.4,10.3,63.4c10.2,23.3,23.3,48.9,39.2,69c26.6,33.8,70.4,41.2,111,42.1
		c26.4,0.6,53.8-3.8,79.8,2.1c25.7,5.9,44.7,25,68.9,34.4c30.6,11.9,66.4-5.5,85.9-30.4c13.3-17,15.8-39.1,21.4-59.3
		c8.3-29.8,21.2-58.3,29-88.2c6.2-24,6.4-45.8,2.2-70.1c-4.1-23.8-4.4-47.7-16-69.4c-11-20.6-22.2-49.9-41.3-64.2
		c-10.2-7.6-23.4-10.8-34.6-16.4c-11.9-5.9-22.6-13.5-34.9-18.7c-56.7-24-120.6-21.7-179.2-37.1c-8.8-2.3-12.8,11.2-4,13.6
		c38.7,10.2,79.8,13.1,119.3,20.7c41.9,8,83,24.5,119.7,46.2c19.4,11.4,29.6,39.6,40.3,58.9c12.2,22,12.9,45.5,17,69.8
		c8.7,52.4-15,96.7-29.4,145.9c-11.4,38.7-24.3,90.8-76.2,88.6c-23-1-43.4-21-63.7-30.6c-13.3-6.2-27.4-9-42-10.1
		c-39.8-2.9-79.8,4.7-118.7-7.6c-44.2-14-81-74-87.9-118.6c-3.5-22.5-3.6-46.8-4.1-69.5c-0.7-32.8,9.4-57.1,24.6-85.6
		c13.8-25.9,28.4-41.5,54.7-55c24.4-12.6,48.3-25.9,72.4-39C2251.8,1575.6,2245.1,1563.2,2237.1,1567.5"/>
	<path class="st6" d="M3180.6,2155.7c-19.8,10.9-37.2,20.5-60.6,11.9c-17.4-6.4-32.5-19.9-46.8-31.3c-14.6-11.7-29.6-23.2-41.9-37.4
		c-13.5-15.6-21.5-34-30.8-52.1c-19.1-37.1-45.5-68.7-41.2-112.8c3.3-34.2-0.9-68.8,4.8-102.5c0.9-5.6,1.3-11.5,2.7-17
		c0.6-7.8,3.6-14.8,9-21c9.6-0.3,19.3-0.7,28.9-1c14.4,5.5,32.4,30.9,40.3,42.8c19.2,28.9,33,61.9,48.7,92.8
		c16.1,31.6,30.9,64.1,45.9,96.3c15.5,33.2,20.7,70,36.8,103.1c4,8.2,16.4,1.4,12.4-6.7c-12.4-25.5-17.9-52.8-27.1-79.4
		c-7.8-22.5-19.7-43.3-29.6-64.9c-20.4-44.2-40.9-89.3-64.8-131.6c-13.8-24.4-39.7-65.7-70.4-71.1c-29.9-5.3-40.9,22.8-45.2,46.5
		c-4.6,25.6-4.3,45.8-3.7,71.7c0.5,20.3-5.2,40.2-4.4,60.3c0.9,21.9,11.5,42.6,21.9,61.4c12.1,21.8,23.5,44,35.5,65.9
		c20.4,36.9,55.5,64.9,90.1,88.3c35.1,23.7,60.3,20.2,96.1,0.5C3195.4,2163.7,3188.6,2151.3,3180.6,2155.7"/>
	<path class="st6" d="M2460.6,2407.4c-38-11-79.8-15.9-119.3-12.3c-22.4,2.1-40,3-62.2-1c-17.4-3.1-34.9-5.9-52.4-8.3
		c-41.9-5.7-82.7-10.8-123.6-22.4c-17.2-4.9-52.4-14-38.2-37.9c6.5-10.9,20.5-19,30.6-25.7c26.4-17.5,49.9-39.1,76.6-56
		c15.5-9.8,34.8-23,53.1-26.9c29.8-6.2,55.6,13.1,75.1,32.8c26,26.2,58.8,39.8,90.9,56.8c39,20.6,64.3,59.5,85.9,97.4
		c4.5,7.9,16.9,1.2,12.4-6.7c-9.2-16.1-19-31.6-30.4-46.3c-10-12.9-19.4-29.4-32-39.9c-29.4-24.5-70.2-33.1-100.7-56.7
		c-27.4-21.3-45.6-48.1-83.1-52c-31.2-3.2-61,17.5-85.8,34.1c-25.2,16.9-48.2,36.8-73.4,53.9c-14,9.6-34,22.5-37.4,40.8
		c-3.4,18.4,12.4,30.4,27.4,37.3c30.4,14,67.8,20.7,100.7,25.6c22,3.3,44.3,4.8,66.4,8.2c21.9,3.4,45.1,10.3,67.4,10.9
		c20.5,0.6,40.7-4.7,61.5-4.4c29.3,0.4,58.1,4.1,86.3,12.2C2465.4,2423.5,2469.4,2409.9,2460.6,2407.4"/>
	<rect x="646.9" y="188.8" class="st8" width="2778" height="2906.2"/>
</g>
</svg>
