<?xml version="1.0" encoding="utf-8"?>
<!-- Generator: Adobe Illustrator 21.1.0, SVG Export Plug-In . SVG Version: 6.00 Build 0)  -->
<svg version="1.1" id="Layer_1" xmlns="http://www.w3.org/2000/svg" xmlns:xlink="http://www.w3.org/1999/xlink" x="0px" y="0px"
	 viewBox="0 0 4685 2545.6" style="enable-background:new 0 0 4685 2545.6;" xml:space="preserve">
<style type="text/css">
	.st0{fill:#FFFFFF;}
</style>
<title>breadpudding</title>
<path d="M1241.6,1179.3c-17.4,8.9-34.5,18.2-52.1,26.6c-58.2,27.9-115.9,56.5-174.9,82.7c-49.7,22.1-100.6,41.8-151.5,61.3
	c-18.5,7.1-33.6,18.2-45.9,32.5c-23.7,27.4-55.5,43.9-83.7,65.1c-32.1,24.2-70.9,30.5-108.6,37.5c-20.5,3.8-42.9-0.2-64.2-2.9
	c-19.6-2.5-25-4.8-33.5,22.4c-8.4,26.8-13.7,54.5-20.9,81.7c-3.6,13.6-9.2,26.6-12.3,40.3c-11.9,52.5-23.1,105.1-34.8,157.6
	c-7.9,35.5-14.9,71.3-24.9,106.2c-2.8,9.7-13.5,18.7-22.7,24.7c-8.7,5.7-19.3,2.4-27.6-4.7c-7.4-6.4-10.5-13.9-8.1-24.2
	c10.3-43.3,20.4-86.8,29.8-130.3c4.2-19.3,6-39,9.9-58.3c3.9-19.4,8.8-38.6,13.4-57.8c12.8-53.9,26-107.7,38.3-161.7
	c3.2-13.8,11-27.6,0.6-42.6c-2.3-3.4,1.5-13.2,5.2-18.1c25.7-34.5,30.2-76.6,41.6-116c18.6-64.3,35.6-129,53.4-193.5
	c3.5-12.7,8.6-24.9,11.8-37.7c2.3-9.3,2.7-19.1,4-29c-15.3-3.3-19.8,7.3-26.2,13.9c-49.1,51.3-100,100.5-162.6,135.7
	c-23,12.9-45.5,26.8-67.2,41.7c-42.2,29-89.8,45.5-137.7,61.5c-33.1,11-66.5,18.7-101.9,18c-25.1-0.5-47.9-5.9-66.9-21.8
	c-7.6-6.4-12.6-16.9-16.7-26.5c-10.2-23.9-3.1-47.2,5.8-69.7c1.6-4,8.6-5.8,13.1-8.6c2.7,4.6,6.5,9,7.7,14c1.1,4.6-1.2,9.8-1.2,14.7
	c0.2,16.2,9.1,31.5,23.1,35c32.3,8,64.7,12.8,97.6,1c26.4-9.5,53.6-17,80.3-25.7c37.9-12.4,72.9-30.7,105.9-53.1
	c17.1-11.5,35.7-20.9,52.7-32.4c61.9-41.8,118.7-89.3,164.5-149c16.6-21.6,33-43.2,49.9-64.6c25.1-31.7,37.4-69.7,53.4-105.9
	c9.3-21,19.3-41.9,30.5-61.9c8.3-14.7,22-19,32.7-13c12.4,7,20.2,31.4,14.1,43.4c-19.9,38.9-40.8,77.3-59,117
	c-11,23.9-18.5,49.5-25.9,74.9c-17.4,59.5-33.7,119.3-50.9,178.8c-3.6,12.4-11.3,23.8-5.4,43.2c6.9-10,12.2-15.8,15.5-22.7
	c34.2-71,76.3-137.3,123.3-200.3c23.6-31.6,50.5-60.6,77.5-89.6c23-24.6,50.5-42.5,75.8-63.5c12.3-10.2,28.7-16.7,44.3-21.5
	c25.3-7.8,53.2,6.7,62.7,31.6c4,10.6,6.8,22.5,6.6,33.8c-0.5,26.4-1.4,53.1-5.5,79.2c-7.4,46.5-17.3,92.6-26,138.9
	c-10.5,56.3-29.2,109.7-55,160.8c-1.5,3-3.8,6-3.9,9c-0.2,5.4-0.4,11.8,2.3,15.8c1.6,2.4,9.3,2.3,13.5,1c14.2-4.5,28.4-9.2,42-15.3
	c70-31.7,140.7-62.1,209.4-96.5c40.4-20.3,77.9-46.7,116-71.4c33.2-21.6,55.4-54.1,79.2-84.8c3-3.9,3.2-10.8,3.1-16.3
	c-0.4-32,14.1-49,46.1-52.4c36-3.8,72-8,108.1-10.6c50.2-3.7,100.4-5.7,150.6-9.4c31.3-2.3,62.4-7.2,93.7-9.6
	c47-3.6,94.1-5.7,141.1-9.1c20.2-1.4,33.2,10.3,43,24.6c4.2,6.1,4.2,18.4,1.2,25.8c-13,31.3-27.6,61.9-42.2,92.5
	c-8.8,18.4-18.7,36.2-25.5,56.9c8.5-7.6,18.4-14.2,25.3-23.1c33.8-43.4,74.7-79.3,118.7-111.7c9.9-7.3,20.9-13.2,31.7-19
	c13.8-7.4,27.9-14.3,42-21.2c30.8-15.2,63.9-24.5,97.7-25.7c25.4-0.9,49.8,10.2,68.9,28.6c19.1,18.4,25.9,41.7,24.4,67.9
	c-1.8,31.1-12.9,59.6-24.1,88.1c-26.2,66.5-68.7,121.6-116.7,174c-49,53.6-108.5,91.7-171.5,124.5c-38.4,20-80.4,34.1-123.7,39.8
	c-32.2,4.2-64.4-0.4-93.5-16.4c-13.7,5.3-18.5,16.7-22.6,28.5c-19.5,56-40.2,111.7-57.9,168.3c-21.4,68.6-40.3,138-60,207.1
	c-6.7,23.7-26.4,33.2-47.2,22.5c-11.3-5.8-16-14.3-12.6-26.3c7.9-27.7,16.3-55.3,24.4-82.9c9.6-32.5,18-65.4,29-97.5
	c20.6-60.1,42.3-119.9,64.1-179.6c15.8-43.2,32.7-86,48.8-129.1c2.3-6.1,4.4-13,4.1-19.3c-0.8-12.9,6.7-20.7,13.1-30.5
	c13.3-20.6,25.9-42.2,34.9-65c17.1-43,35.9-85,56.4-126.4c14.7-29.6,29.3-58.9,46.2-87.2c4.8-8,5.7-18.4,9.2-30.7
	c-12.9-2.2-23.3-6.1-33.3-5.3c-71.6,6-143.2,13.1-214.7,19.6c-30.3,2.8-60.8,4.7-91.1,7.5c-18.9,1.8-37.8,4.5-56.7,6.8
	c-25.4,3.1-39.4,29.3-31.3,54c9.9,29.7,19.7,59.8,25.5,90.4c13.4,69.9-2.7,135.3-40.6,194.3c-15.4,24.1-36.8,44.6-57.1,65.3
	c-31.4,32.1-66.5,59.3-109.1,76c-51.4,20.1-103.1-11.7-107.6-66.8c-3.4-40.5,4.8-78.9,20.2-116c13.6-32.7,27.3-65.3,41-97.9
	C1244.2,1182.3,1242.9,1180.8,1241.6,1179.3z M1850.2,1363c13.2-1.6,24-2.2,34.4-4.4c37.3-7.8,73.9-18.2,107.9-35.8
	c41.3-21.4,81.6-45.5,114-78.4c37.5-38.1,73.1-78.9,98.7-126.6c19.2-35.6,38.2-71.5,39.4-113.5c1.2-39.4-20.6-59.1-59.9-55
	c-40.6,4.2-76.8,20.9-110.5,41.4c-58.3,35.4-107.4,82-149,136.1c-21.6,28.1-43.9,55.7-63.1,85.4c-21.9,34-41.5,69.6-60.5,105.3
	c-11.3,21.3-2.8,36,21.5,41.2C1832.8,1360.8,1842.7,1361.8,1850.2,1363z M573.3,1371.7c18.1,4,31.4-3.8,45.5-6.9
	c33.8-7.3,68.1-12.7,101.5-21.5c29.5-7.8,58.2-18.6,86.7-29.5c8.7-3.3,17.1-10.2,22.9-17.6c30.6-39.4,52.7-83.5,69.1-130.6
	c15.3-43.8,26.6-88.4,34.2-134.1c7.8-47.3,15.5-94.5,13.5-142.8c-1.4-34.8-8.1-39.1-38.6-22c-10.8,6-21.6,12.6-30.8,20.7
	c-21.5,19.1-43.9,37.9-62.7,59.6c-34,39.3-68.8,78.6-97.4,121.7c-30.4,45.9-55.4,95.7-80.2,145c-18.2,36.1-32.8,74-48.2,111.4
	C582.7,1339.9,578.7,1355.3,573.3,1371.7z M1454.2,1175.3c1.7-26.7-3-56.7-11.9-86.1c-2.6-8.6-6.5-17-10.5-25.1
	c-4.1-8.2-10.3-9.4-18.4-4.2c-43.3,27.6-76.6,65-102.9,108.3c-30,49.5-54.5,102-70.5,157.9c-6.7,23.4-14,48-0.1,72.3
	c9.8,17.2,15.7,21.1,33.6,15.2c14-4.6,28.2-10.2,40.3-18.4c19.7-13.3,38.5-28.2,56.2-44C1421.1,1305.4,1456.6,1251.8,1454.2,1175.3z
	 M685.9,1410.9c-24,8.6-51.7,5.3-73.8,20.5C640.9,1439.9,664.2,1428.4,685.9,1410.9z"/>
<path d="M3743.1,1439.4c-1.3-5.2-2.5-10.8-4.2-16.2c-12.4-40.6-6.9-80,7.6-118.9c25.1-67.1,61.8-127.4,103.3-185.5
	c23.6-33.1,49-64.4,77.1-93.5c12-12.4,24.8-25.1,39.4-33.8c32-19.1,69.4-3.4,76.9,33c13.5,65.5,11.1,129.1-10.6,193
	c-10.9,32-27.5,59.9-45.7,87.5c-17.3,26.3-35.8,51.7-60,72.4c-7,6-12,14.5-17.9,21.9c1.2,1.8,2.4,3.5,3.6,5.3
	c6.6-1.8,13.3-3.1,19.7-5.5c48.9-18,95.8-41,140.2-67.7c48.7-29.3,94.3-63.9,140.6-97.1c32.9-23.6,64.1-49.6,97.3-72.8
	c33.8-23.7,69-45.5,103.9-67.6c46.4-29.4,98.6-37.5,151.9-35.6c43.5,1.6,72,29.7,93.5,65.3c28.8,47.6,30.5,98.5,17.5,150.9
	c-10.7,43-34.7,78.1-65.8,108.9c-3.5,3.5-7.6,6.6-10.5,10.6c-34,46.6-83.3,73.1-133.3,96.8c-34.3,16.3-73.4,22.9-110.8,8.2
	c-31.1-12.2-46.9-33.3-35.5-68.3c9.7-30,23.5-58.2,40.3-84.9c28.6-45.6,61.6-88.1,100.6-125c33.4-31.6,70.3-60,116.9-71.5
	c5-1.2,12.9-5.6,13-8.8c0.2-5.4-3.6-12.3-7.8-16.2c-5.3-4.8-12.4-8.9-19.3-10.5c-26-5.8-51.2-4.5-77.9,1.8
	c-61,14.3-108.4,51.5-156.9,86.8c-62.2,45.3-121.6,94.7-184.9,138.4c-61.9,42.8-127.7,79.3-197.7,108.2
	c-47.4,19.5-95.5,31.3-146.9,28c-6.1-0.4-12.4,3.1-18.6,5.1c-36.1,11.7-71.4,26.9-108.3,34.4c-46.6,9.5-94.9,7.6-139.3-10.4
	c-43.2-17.6-72.5-51.8-86.5-96.9c-5.3-17.2-7.3-35.5-10.5-53.3c-1-5.6-1.3-11.4-1.8-16.5c-10.6-5.9-16.6,1.5-22.5,6.5
	c-38.6,32.8-81.5,59.1-126.8,81.6c-33.5,16.7-69,29.5-105.7,32.8c-86.6,7.9-135.4-66.5-123.9-138.3c12.1-75.4,52-136.5,97-195.6
	c24.8-32.5,54.2-60.1,83.8-87.6c2.4-2.2,5.8-4,7.1-6.8c12.9-27.2,40.8-37.9,62.1-55.6c19.9-16.4,39.3-15,53.7-0.4
	c9.5,9.7,13,21.5,9.5,34.2c-1.4,5.2-7.4,9.4-11.8,13.4c-1.6,1.5-4.8,1.9-7.1,1.7c-32.2-2.8-51.7,17.7-71.5,38.3
	c-20,20.9-41.4,40.6-60.8,62c-14.3,15.8-26.8,33.3-39.7,50.3c-7.5,9.8-14.6,20-21.5,30.2c-24.3,35.9-45,73.3-46.2,118.3
	c-0.2,9.1-0.7,18.3,0.2,27.3c3.2,32.2,24.6,50.8,57,49.4c47.8-2.1,92.8-14.7,134.4-38.7c21.3-12.3,42.8-24.7,62.9-38.9
	c20.8-14.7,40.4-31.1,59.8-47.7c12.5-10.7,17.6-25.9,19.8-41.8c7.4-52.7,21-103.7,38.7-153.8c12.1-34.3,21.9-69.4,34.8-103.4
	c11.1-29.2,25.1-57.3,37.6-85.9c4.6-10.5,8.3-21.5,13.2-31.9c23.7-50.9,47.1-102,71.6-152.6c10.4-21.5,22.9-42,34.9-62.7
	c13.1-22.5,37.3-23.8,50.6-1.7c6.1,10.1,10.4,23.2,10.1,34.8c-1,52-0.2,104.5-13.5,155.1c-10.6,40.6-23.4,80.9-38.5,120
	c-15.8,40.8-35.1,80.2-53.6,119.8c-29.3,62.7-70.2,117.6-114.4,170.4c-6.9,8.2-13.9,16.4-20,25.3c-3.1,4.6-5.9,10.5-6.1,15.9
	c-1.1,38.9-3.1,77.9,12.2,115.1c12.5,30.3,35,49.4,66,58.4c53.7,15.7,106.5,7.1,159.1-6.5c3.1-0.8,6.1-2.5,8.8-4.4
	C3739.3,1444.3,3740.6,1442.1,3743.1,1439.4z M3988.4,1046.4c-7.2,4.3-12.9,7.4-18.3,11.1c-25.5,17.8-42.8,43-62.5,66.4
	c-43.1,51.3-75.6,108.3-100.8,169.8c-11.3,27.5-20.1,55.9-17.8,86.5c1.9,26.3,15.6,34.4,37.4,19.8c40.6-27.3,77.9-58.8,107.1-98.2
	c18.1-24.4,35.6-49.2,47.4-78.2c14.7-36,19.6-73.4,22.4-111.1C4004.9,1090.9,4006.8,1067.6,3988.4,1046.4z M4627.3,1228.2
	c-16.5-3-31-3-43.1-8.5c-11.3-5.1-20-5.8-30.1,0.3c-9.9,6-20.7,10.7-29.8,17.7c-63,48.5-107.8,111.2-139.9,183.3
	c-2.4,5.4-1.7,12.2-2.8,21.9c14.6,0.7,26.7,2.7,38.6,1.7c44-3.7,78.4-29.6,113-53.2c40.1-27.3,64.7-67.5,84.2-111.1
	C4624.8,1263.8,4629.7,1246.6,4627.3,1228.2z M3513.7,1164.9c73.9-51.9,193-348.6,171.9-429.2c-6.1,8.6-11.4,14.4-14.8,21.3
	C3605.2,887.7,3547.5,1021.5,3513.7,1164.9z"/>
<path d="M2950,1039.9c-28.5-3.8-50.7,2.4-73.1,6.2c-62,10.4-117.8,38.2-174.5,63.1c-35,15.4-65.5,38.3-95.1,62.3
	c-6.9,5.6-14.6,10.7-22.7,14.6c-35.1,16.9-63,42.5-87.4,72.1c-4.4,5.3-4.9,15.4-4.3,23c1.3,14.8,4.9,29.4,7.1,44.1
	c6.9,46.9-24.7,113.5-64.7,136.5c-22.8,13.1-52.9,9.3-69.7-10.8c-5.3-6.3-8.2-16.5-8.3-24.9c-0.5-46.6,12.9-89.3,39.5-127.8
	c7-10.1,13.5-21,17.6-32.5c2-5.7-0.3-14.5-3.5-20.3c-12.8-23.1-28.1-44.9-39.8-68.5c-10.6-21.4-20.8-43.8-25.7-66.9
	c-11.1-52.7,3.2-98.8,40.7-138.7c24.8-26.4,52.6-49.6,85.5-61.5c41.2-14.9,84.9-29.4,129.5-9.2c24.5,11.1,45.8,25,55,53.1
	c10.4,31.8,17.8,63.1,5.8,96.1c-1.1,3-0.8,6.6-0.4,9.8c0.3,2.3,1.9,4.4,3.5,7.6c19.2,0.2,33.1-13.1,49.4-19.8
	c53.4-22,106.8-43.4,164.5-52.5c26-4.1,51.5-11.4,77.2-17.2c0.8-0.2,1.6-0.4,2.4-0.5c16-2.9,32.2-9.7,46.8,4.6
	c16.8,16.5,15.2,36,8.7,55.4c-8.9,26.6-19.8,52.6-29.4,79c-24.1,65.9-47.9,132-71.8,198c-3.9,10.8-7.9,21.7-11.7,32.6
	c-6.9,19.8-8,40.2-8.4,61c-0.2,10.1-3.9,21.1-9.1,29.8c-7.1,11.9-21.8,15.7-32.6,11.6c-13-4.9-20.9-15.9-19-31.4
	c2.2-17.9,5.7-36,11-53.2c11.4-37,23.9-73.8,36.9-110.3c19.3-54.5,39.9-108.5,58.9-163.1C2944.4,1076,2946,1059.4,2950,1039.9z
	 M2464.7,1212.5c21.9-18,43.7-33.1,62.2-51.6c21.5-21.5,42.5-44.2,59.3-69.4c19.7-29.7,31.9-63.1,20.8-100.2
	c-6.5-21.9-21.4-37.2-43.4-39c-25.2-2-51.3-1.6-75.1,10.4c-23.7,12-45.1,27-64.2,45.9c-22.6,22.4-29.6,47.8-24.4,79
	c6.9,41.1,28.8,74.9,48.5,110C2451.5,1203.6,2458.7,1207.3,2464.7,1212.5z M2415.7,1394.9c27.3-15.9,34.3-34.5,24.6-62.4
	C2424.2,1351.5,2421,1373.6,2415.7,1394.9z"/>
<path d="M3099,619c-14.2-6.6-27.3-11.2-38.7-18.5c-8.7-5.6-11.4-15.1-7.1-26.2c4.5-11.6,13-14.2,23.6-12.7
	c14.8,2.2,28.8,6.5,38.7,19.1c5.8,7.4,12,16.1,6,24.4C3117,611.3,3107.6,614,3099,619z"/>
<path class="st0" d="M1850.2,1363c-7.5-1.2-17.4-2.2-27-4.3c-24.3-5.2-32.8-19.9-21.5-41.2c19-35.7,38.6-71.3,60.5-105.3
	c19.1-29.7,41.5-57.4,63.1-85.4c41.6-54.1,90.7-100.7,149-136.1c33.7-20.5,69.9-37.2,110.5-41.4c39.3-4.1,61.1,15.7,59.9,55
	c-1.2,42.1-20.3,77.9-39.4,113.5c-25.7,47.7-61.3,88.5-98.7,126.6c-32.4,32.9-72.7,57.1-114,78.4c-34.1,17.6-70.6,28-107.9,35.8
	C1874.2,1360.8,1863.4,1361.4,1850.2,1363z"/>
<path class="st0" d="M573.3,1371.7c5.4-16.4,9.4-31.9,15.5-46.5c15.5-37.4,30.1-75.3,48.2-111.4c24.9-49.3,49.8-99.1,80.2-145
	c28.6-43.2,63.4-82.4,97.4-121.7c18.8-21.7,41.1-40.4,62.7-59.6c9.2-8.2,20-14.7,30.8-20.7c30.5-17.1,37.2-12.8,38.6,22
	c1.9,48.3-5.7,95.4-13.5,142.8c-7.6,45.8-18.9,90.4-34.2,134.1c-16.5,47.1-38.5,91.2-69.1,130.6c-5.7,7.4-14.2,14.2-22.9,17.6
	c-28.5,10.9-57.3,21.7-86.7,29.5c-33.4,8.8-67.7,14.2-101.5,21.5C604.7,1367.9,591.4,1375.7,573.3,1371.7z"/>
<path class="st0" d="M1454.2,1175.3c2.4,76.5-33.2,130.1-84.2,175.8c-17.7,15.8-36.5,30.7-56.2,44c-12.1,8.2-26.3,13.8-40.3,18.4
	c-17.9,5.9-23.8,2-33.6-15.2c-13.8-24.3-6.6-48.9,0.1-72.3c15.9-55.8,40.4-108.3,70.5-157.9c26.3-43.3,59.6-80.7,102.9-108.3
	c8.1-5.2,14.2-4,18.4,4.2c4.1,8.1,7.9,16.5,10.5,25.1C1451.2,1118.6,1456,1148.6,1454.2,1175.3z"/>
<path class="st0" d="M685.9,1410.9c-21.7,17.5-45.1,28.9-73.8,20.5C634.2,1416.3,661.9,1419.6,685.9,1410.9z"/>
<path class="st0" d="M3988.4,1046.4c18.4,21.3,16.5,44.5,14.9,66.1c-2.7,37.7-7.7,75.1-22.4,111.1c-11.8,29-29.3,53.8-47.4,78.2
	c-29.2,39.5-66.5,71-107.1,98.2c-21.8,14.6-35.5,6.5-37.4-19.8c-2.3-30.7,6.5-59.1,17.8-86.5c25.2-61.5,57.7-118.5,100.8-169.8
	c19.7-23.4,37.1-48.6,62.5-66.4C3975.5,1053.7,3981.3,1050.7,3988.4,1046.4z"/>
<path class="st0" d="M4627.3,1228.2c2.4,18.5-2.5,35.6-10,52.3c-19.5,43.5-44.1,83.7-84.2,111.1c-34.6,23.6-68.9,49.4-113,53.2
	c-11.8,1-23.9-1-38.6-1.7c1.2-9.7,0.4-16.5,2.8-21.9c32.1-72.1,76.9-134.8,139.9-183.3c9.1-7,19.9-11.7,29.8-17.7
	c10.1-6.1,18.8-5.4,30.1-0.3C4596.3,1225.2,4610.8,1225.2,4627.3,1228.2z"/>
<path class="st0" d="M3513.7,1164.9c33.8-143.4,91.5-277.2,157.1-408c3.4-6.8,8.7-12.7,14.8-21.3
	C3706.7,816.3,3587.7,1113,3513.7,1164.9z"/>
<path class="st0" d="M2464.7,1212.5c-6-5.2-13.2-8.9-16.5-14.8c-19.6-35.1-41.6-68.9-48.5-110c-5.2-31.2,1.8-56.6,24.4-79
	c19.1-18.9,40.5-33.9,64.2-45.9c23.8-12,49.9-12.5,75.1-10.4c22,1.8,36.9,17.1,43.4,39c11.1,37.1-1,70.5-20.8,100.2
	c-16.8,25.2-37.8,47.9-59.3,69.4C2508.4,1179.4,2486.6,1194.5,2464.7,1212.5z"/>
<path class="st0" d="M2415.7,1394.9c5.4-21.3,8.5-43.4,24.6-62.4C2450,1360.4,2443,1379,2415.7,1394.9z"/>
</svg>
