<?xml version="1.0" encoding="utf-8"?>
<!-- Generator: Adobe Illustrator 21.1.0, SVG Export Plug-In . SVG Version: 6.00 Build 0)  -->
<svg version="1.1" id="Layer_1" xmlns="http://www.w3.org/2000/svg" xmlns:xlink="http://www.w3.org/1999/xlink" x="0px" y="0px"
	 viewBox="0 0 800 817.2" style="enable-background:new 0 0 800 817.2;" xml:space="preserve">
<style type="text/css">
	.st0{fill:#EE6E66;}
	.st1{fill:#8BC53F;}
	.st2{fill:#68AC45;}
	.st3{fill:#231F20;}
	.st4{fill:#A3B7D6;}
	.st5{fill:#D3D0E8;}
	.st6{fill:#626F83;}
</style>
<rect class="st0" width="800" height="817.2"/>
<path d="M595.1,383.2c-0.5-0.3-0.9-0.6-1.2-0.6c-2-0.1-3.1-1.3-4.1-2.8c-2-2.9-2.6-6.3-3.4-9.5c-1-4.2-1.8-8.5-2.5-12.7
	c-0.4-2.4-0.5-4.9-0.7-7.3c-0.1-0.4-0.1-0.8-0.3-1.2c-0.2,0-0.4-0.1-0.4-0.1c-2.3,1.7-5,1.8-7.6,2.4c-1.7,0.4-2.2,0.9-1.9,2.6
	c0.4,2.5,0.8,5,1.3,7.6c0.1,0.4,0.3,0.8,0.5,1.2c-0.8,0.4-0.7,1.3-0.6,2.1c0.1,2.5,0.3,5,0.4,7.5c0.1,2.3,0,4.6,0,6.8
	c0,0.3,0,0.7-0.1,1c-0.5,2.5-1.1,2.7-3.6,3.1c-1.7,0.2-3-0.5-4.6-0.6c-1.3-0.2-2.6-0.2-3.8,0c-0.3,0.1-0.6,0-0.8-0.2
	c-1.1-0.7-1.7-2-1.8-3.3c0.1-2.4,0.1-4.9,0.1-7.3c0-5.4-0.5-10.7-1.3-16.1c-0.1-0.8-0.3-1.6-0.5-2.5c-1.4,0-2.6,0-3.9,0
	c-1.6,0-3.2,0.1-4.7,0.1c-0.9,0-1.4,0.4-1.4,1.4c0,2.5,0,5,0,7.5c0.2,3.2,0.2,6.4,0,9.6c-0.3,3-0.2,5.9-0.3,8.9c0,0.2,0,0.5,0,0.7
	c-0.2,1.6-1.3,2-2.7,1.1c-0.3,0.3-0.6,0.8-0.9,0.8s-0.8-0.3-1.3-0.4s-1-0.1-1.4-0.2c0,0-0.1,0.1-0.2,0.1c-1.6,0.1-3.2,0.1-4.7,0
	c-1.3-0.1-2.4-1.1-2.5-2.5c-0.1-0.8-0.2-1.6-0.2-2.4c0-1.6-0.1-3.3-0.1-4.9c0-1.8,0-3.6,0-5.4c0.1-4.7,0.2-9.3,0.4-14
	c0.2-0.9-0.2-1.7-1-2.2c-0.9-0.6-1.5-1.4-2.8-1.6c-0.1,0.6-0.3,1.2-0.3,1.8c-0.2,3.3-0.4,6.6-0.6,10c-0.3,4.2-0.7,8.4-1.2,12.5
	c-0.4,2.7-0.9,5.3-1.7,7.9c-0.4,1.2-1,2.4-1.9,3.3c-1.1,1.2-2.5,2.1-4.3,1.6c-0.8-0.1-1.6-0.1-2.4,0c-0.6,0-1.3,0-1.9-0.1
	c-0.4-0.1-0.8-0.1-1.2-0.1c-4,1-8.2-0.5-10.5-3.9c-0.5-0.9-1.7-1.4-2.7-1c-3.1,0.9-6.3,0.5-9.4,0.3c-3.8-0.2-7.6-0.5-11.3-1.1
	c-4.1-0.6-8.2-1-12.2-2.3c-1.8-0.6-3.7-0.9-5.8-1.4c-0.1,0.5-0.1,1-0.2,1.5c-0.3,2.9-0.5,5.8-0.9,8.7c-0.4,2.4-2.2,3.6-4.6,3.5
	c-1.4-0.1-2.9,0-4.3-0.1c-0.1,0-0.3,0-0.3,0.1c-1.2,1-2.5,0.6-3.9,0.5c-1.2-0.1-2.4-0.7-3.2-1.6c-0.5-0.5-0.8-1.1-1-1.8
	c-0.9-3.8-1.4-7.6-1.4-11.5c-0.1-6.4-0.2-12.8-0.3-19.3c0-0.6-0.1-1.3-0.1-2c-0.5-0.1-0.9-0.1-1.4-0.1c-5,0.3-10,0.6-15,0.9
	c-2.6,0.1-5.2,0-7.9,0.1c-2.8,0.1-5.6,0.4-8.4,0.6c-0.6,0-1,0.4-1,1c0,0.1,0,0.1,0,0.2c0,3.3-0.1,6.5,0.2,9.8
	c0.3,2.6,0.7,5.1,1.3,7.6c0.7,3.9,2.4,7.5,4.9,10.5c0.4-0.2,0.9-0.4,1.3-0.6c1.3-1.2,2.7-2.4,4.1-3.5c1.5-1,2.1-2.5,2.9-3.8
	c0.8-1.3,1.7-2.6,2.7-3.8c0.4-0.3,0.8-0.6,1.3-0.6c0.7-0.1,1.3-0.2,2-0.2c0.9,0,1.7,0.5,2,1.3c0.1,0.4,0.2,0.5,0.7,0.5
	c0.9,0,1.7,0.6,1.8,1.5c0.3,1.2,0.4,1.3,2,1.5c0,1.8-0.4,3.6-1.2,5.2c-1.4,2.8-3.6,5.1-6.2,6.8c-2.5,1.8-5.6,2.6-8.6,2.4
	c-1.3,0-2.7,0.2-4,0.4c-1.5,0.1-3,0.3-4.5,0.4c-0.3,0.1-0.6,0.1-0.9,0c-2.6-1-5.5-1.2-7.8-2.9c-2.5-1.8-4.4-4.2-5.8-6.9
	c-2.3-4.7-3.7-9.9-4-15.1c-0.4-3.4-0.4-6.9-0.1-10.3c0.2-1,0-2-0.7-2.8c-0.2-0.3-0.2-0.7-0.1-1.1c1.4-1.7,1.3-3.9,1.4-5.9
	c0.3-3.7,1-7.3,2-10.8c0-0.2,0-0.3-0.1-0.5l-3-0.4c0.1,0.3,0.1,0.5,0.1,0.8c-1.3,1.2-2.8,1-4.4,0.6c-0.7-0.2-1.5-0.6-2.3,0.2
	l3.8,2.1c-1.2,0.3-2.5,0.3-3.7,0c-1.8-0.6-3.7-1.1-5.6-1.5c-2.7-0.7-5.6-0.2-7.9,1.3c-1.6,1.1-3.1,2.5-4.2,4.2
	c-1.6,2.1-0.6,7.3,1.3,8.7c0.5,0.3,0.7,0.9,0.8,1.4c0.2,1.1,0.6,2.2,1.9,2.4c0.3,0.1,0.5,0.3,0.7,0.5c4.2,5,8.5,9.8,12.5,14.9
	c2.2,2.7,3.7,5.9,4.3,9.3c0,0.2,0,0.3-0.1,0.5c0,0-0.1,0-0.3,0.1c-0.1-0.6-0.2-1.3-0.4-1.9h-0.3c0,0.2-0.1,0.5-0.1,0.7
	c0.6,3.8-2.1,7.4-5.9,8c-0.1,0-0.2,0-0.2,0c-1.3,0.2-2.6,0.6-3.9,1c-0.7,0.2-1.4,0.2-2,0.3c-3.2,0.7-6.6,0.5-9.7-0.6
	c-2.7-1-5.1-2.6-7-4.8c-0.5-0.6-1-1.3-1.4-2c-0.3-0.6-0.6-1.3-0.8-2c0.6-0.4,1-0.7,1.5-1c0.4,0.2,0.9,0.5,1.5,0.8
	c-0.1-1-0.2-1.8-0.3-2.9c0.7,0.4,1.1,0.6,1.6,0.8l0.6-0.5c0.9,0.2,1.8,0.6,2.6,1c0.6,0.6,1.2,1.3,1.6,2.1l1.3-1.2
	c0.6,1.7,1.9,3,3.5,3.8c0.8-0.7,1-1.9,0.5-2.8c-0.8-2.2-2-4.2-3.5-6c-2.8-3.3-5.7-6.5-8.5-9.8c-1.3-1.5-2.7-3.1-3.9-4.7
	c-0.3-0.4-0.9-0.6-1.4-0.4c-1.6,0.4-3.2,0.7-4.8,1l-12.5,2.4c-1.6,0.3-3.3,0.7-4.8,1c-0.5,3.4,1.7,16.3,3.2,18.8l0.6-1
	c0.5,1.3,0.9,2.6,1.5,4.2c0.9-1.5,1.7-2.7,2.4-3.9s1.3-2.4,2.1-3.9c0.6,0.2,1.4,0.4,2.1,0.5s1.4-0.2,2,0.1c1.4,0.5,2.7,1.2,4.1,1.9
	c0.7,0.4,1.3,0.8,2.3-0.1c0,1.1,0.1,1.8,0.1,2.6c0.3,4.7-1.7,9.2-5.2,12.3c-1.1,0.8-2.5,1.3-3.9,1.3c-1.2,0.1-2.4,0.2-3.7,0.3
	c-0.5,0-1,0.1-1.5,0.3c-3.2,1.4-6.4,1.1-9.6,0.1c-1.8-0.4-3.6-0.2-5.3,0.6c-3.7,1.4-7.5,1.3-11.2,1.1c-3-0.2-5.9-0.6-8.9-0.9
	c-0.3,0-0.6-0.1-0.9-0.1c-5-1.4-9.9-3.3-14.6-5.5c-0.8-0.4-1.6-0.6-2.7-1c0.2,1.3,0.3,2.3,0.5,3.4c0.6,3.7,1.3,7.4,1.8,11.1
	c0.3,1.2,0.1,2.5-0.7,3.5c-1,1.2-2.4,1-3.6,1.4c-0.9,0.2-1.7,0.4-2.9,0.7c-1.5-0.7-3.3-0.2-4.2,1.1c-0.8,0-1.5-0.1-2.2-0.1
	c-1.8,0.3-3.6-0.9-4.1-2.7c-0.8-2.4-1.5-4.8-2-7.2c-0.9-4-1.7-8.1-2.2-12.2c-0.6-4.9-0.9-9.9-1.3-14.8c-0.3-3.8-0.4-7.6-0.6-11.4
	c0-0.7-0.2-1.4-0.3-2.2c-0.4,0.2-0.6,0.2-0.7,0.4c-2.9,3.9-6.6,7.1-10.9,9.5c-0.8,0.4-1.6,0.8-2.5,1c-1.6,0.4-3,1.2-4.6,1.8
	c-1.3,0.5-2.6,1.1-3.9,1.5c-2.3,0.7-4.7,1.4-7.1,2c-1.8,0.6-3.7,0.9-5.7,0.8c-0.9,0-1.8,0.2-2.6,0.4c-0.1,0.3-0.1,0.6-0.2,0.8
	c0.2,3.1,0.4,6.3,0.7,9.4c0.2,2.6,0.5,5.1,0.8,7.7c0.4,2.9,0.9,5.9,1.4,8.8c0.2,1.5,0.3,3.1,1.5,4.5c-1,0.7-2.1,1.4-2.9,2.1
	c-0.8,0.7-1.8,1.2-2.9,1.5c-0.2,0-0.5,0.2-0.6,0.1c-1.2-0.8-2.2,0-3.2,0.4c-0.1,0-0.1,0.1-0.2,0.1c-0.7,0-1.4,0.1-2.1,0.2
	c-0.6,0.2-1.1,1-1.7,1.1c-2,0.1-4.1,0.5-5.6-1.3c-0.4-0.4-0.6-0.8-0.8-1.3c-0.7-3.2-1.6-6.4-2-9.6c-0.6-4.8-1-9.6-1.4-14.5
	c-0.1-1.6-0.1-3.2-0.2-4.7c-0.1-3.6-0.4-7.2-0.4-10.8c-0.1-7.2-0.1-14.4-0.1-21.5c0-2.6,0.2-5.1,0.2-7.7c0-0.4,0-0.7,0-1.1
	c-0.1-1.3-0.3-1.5-1.6-1.5s-2.8,0-4.2,0c-2.5,0.1-4.9-0.2-7.3-0.8c-1.3-0.4-1.9-1.5-2.5-2.4c-0.4-0.6,0.6-2.6,1.3-3
	c0.5-0.3,1.1-0.5,1.6-0.6c3.7-1,7.5-1.6,11.4-1.5c0.9,0.1,1.8-0.3,2.5-0.9c0.9-0.8,2-1.3,3.1-1.4c2.9-0.6,5.8-0.8,8.7-0.8
	c1.7-0.2,3.3,0.5,4.3,1.9c0.9,1.2,2.3,2,3.9,2c3.5,0.5,7.1,0.9,10.6,1.5c4.7,0.8,9.3,1.9,13.8,3.3c2.6,0.8,5.2,1.8,7.6,3.2
	c1.6,1,3.4,1.8,4.6,3.4c0.4,0.5,0.9,0.9,1.3,1.3c0.5-0.6,0.8-1.3,0.9-2.1c0.5-2.4,1.1-4.7,3.2-6.2c0.5-0.4,1.1-0.7,1.7-0.8
	c1.8-0.3,3.7-0.4,5.6-0.3c3.4,0.4,6.8-0.1,9.8-1.6c1-0.5,2.2-0.8,3.3-1c3.7-0.8,7.5-0.8,11.1-0.2c1.7,0.4,3.5,0.4,5.2,0.7
	c3.1,0.4,5.8,2.1,7.6,4.6c0.5,0.7,0.9,1.5,1.2,2.3c0.2,0.3,0.4,0.7,0.8,1.3c0.3-1.1,0.5-2.2,0.7-3.3c0-0.4-0.4-0.9-0.8-1.3
	c-1.1-1-1.3-2.7-0.3-3.8c0.2-0.2,0.5-0.4,0.7-0.6c1.5-1,3.3-1,5-1.1c1.1-0.1,2.2-0.1,3.3,0c4.8,0.2,9.6-0.4,14.3-0.7
	c5.8-0.5,11.7-0.5,17.5,0c2.7,0.3,5.4,0.8,8.1,1.2c0.5,0.1,1,0.1,1.5,0c4.2-1.1,8.4-1.5,12.6-0.3c1.3,0.4,2.7,0.2,4,0.4
	c1.9,0.4,3.8,1,5.7,1.5c0.5,0.1,1,0.1,1.5,0.2c-0.2-0.3-0.2-0.5-0.3-0.5c-1.8-0.6-3.3-1.7-4.5-3.2c-0.5-0.6-0.7-2.2-0.1-2.7
	c0.7-0.8,1.7-1.3,2.7-1.4c3.5-0.2,6.9,0.6,10.4,1.2c2.2,0.4,4.5,0.5,6.8,0.5c7.9,0,15.8-0.2,23.7-0.2c3.6,0,7.2,0.2,10.8,0.7
	c2.6,0.4,5,1.3,7.2,2.7l-2.6,1.3l0.9,1.1c-1.5,0.3-2.8,0.6-4.1,0.7c-2,0.3-4,0.6-6.1,0.6c-6.9,0.3-13.8,0.5-20.7,0.7h-2.5
	c-0.6,0-0.8,0.3-0.9,0.9c-0.3,2.4-0.6,4.9-0.8,7.3c-0.1,1.2-0.2,2.4-0.3,3.9c1.3-0.1,2.5-0.2,3.6-0.2l15.6-0.6
	c4.4-0.2,8.9-0.6,13.2-1.3c1.5-0.2,1.6-0.5,1.7-1.9c0-1.7,0.1-3.4,0.3-5.1c0.3-1.8,2.1-3.1,3.9-2.8l0.9,0.2c1.5,0.2,2-0.1,2.5-1.5
	c0.5-1.5,1.1-3.1,1.8-4.5c2.4-4.4,6.1-6.4,11.1-6.6c4.1-0.1,7.7,1.5,11.6,2.4c1.9,0.4,3.6,1.4,5,2.8c3.3,3.4,6.6,6.9,7.4,11.8
	c0.3,1.7,1,3.4,1.2,5.1c0.6,4,0,8.1-1.7,11.8c-2.5,4.9-5.5,9.4-10.6,11.9c-0.7,0.4-1.5,0.6-2.3,0.9c-0.3,0.1-0.6,0.3-1.2,0.6
	c0.6,0.3,1.2,0.6,1.8,0.8c6.1,1.4,12.4,2.2,18.7,2.4c2.1,0.1,4.3-0.1,6.4-0.2c0.1-0.3,0.2-0.4,0.1-0.5c-1.7-4.1-3.2-8.3-4.3-12.6
	c-2.1-6.9-3.5-13.9-4.3-21.1c-0.1-2.4,0-4.8,0.3-7.1c0.2-1.2,1.3-2.1,2.6-1.9c0,0,0.1,0,0.1,0c2,0.3,4,0.7,6,1.1
	c1.2,0.2,2.6,0.2,3.6,1c0.8,0.6,1.7,1.2,2.5,1.8c0.3,0.2,0.3,0.7,0.4,1.1c0.7,4.7,1.4,9.4,2,14c0.1,0.3,0.1,0.6,0.1,0.9
	c0,0.1-0.4,0.1-0.8,0.3c0.1,0.4,0.2,1.1,0.4,1.2c1.2,0.4,0.9,1.5,1,2.4l-0.7-1.5l-0.3,0.1c1.1,5.2,2.6,10.3,4.4,15.2
	c0.2-1.1,0.4-2.1,0.5-3.2c0.5-5.2,0.8-10.4,1.3-15.5c0.8-7.7,1.6-15.5,3.9-22.9c0.5-1.3,1-2.6,1.7-3.9c0.7-1.4,2.1-1.2,3.2-1.3
	c2.2-0.2,4.3,0.3,6.1,1.5c0.9,0.4,1.9,0.7,2.9,0.9c0.4,0.5,0.9,1.1,1.5,1.8c-0.5,0.7-0.7,1.7-1.7,2.2c-0.2,0.1-0.2,0.8-0.3,1.2
	c0,0.6,0,1.1,0,1.7c-0.5,2.6-1.3,5.2-1.6,7.9c-0.3,2.4-0.3,4.9-0.4,7.5c0.6-0.5,1.3-0.9,1.9-1.2c0.7-0.2,1.4-0.4,2.1-0.5
	c0.2-2,0.3-3.8,0.6-5.7c0.5-4.9,1.8-9.7,3.7-14.3c0.8-1.9,2.1-3.5,3.9-4.6c2-1.1,4.2-1.5,6.4-1.1c1.5,0.3,2.9,0.9,4.4,1.3
	s2.7,0.7,4.1,1c0.2-0.5,0.4-0.8,0.5-1.2c0.3-0.7,1.1-1.2,1.9-1.2c2.6-0.1,5.1,0.7,7.6,1c2.5,0.4,5.1,0.6,7.6,0.7
	c5.5,0,11-0.3,16.5-0.5c4.4-0.1,8.9-0.4,13.3-0.4c3.6,0,7.1,0.4,10.6,1c1.3,0.2,2.7,0.2,4,0.2c1.2,0,2.4,0.3,3.5,0.8
	c1.2,0.6,2.6,0.8,3.8,1.3c2.2,0.9,3.6,3.1,3.5,5.5c-0.1,3.1-0.2,6.2-0.3,9.2c-0.1,0.6-0.2,1.2-0.4,1.8c-0.1,0.3-0.2,0.7-0.2,1
	c0.9,4.2,0.4,8.5,0.8,12.7c0.1,1.5-0.1,3.1-0.1,4.7c0,0.6,0.1,1.2,0.3,1.7c0.3,1.6,0.6,3.2,0.9,4.8c0.1,0.8,0.1,1.6,0,2.4
	c-0.2,0.8-0.2,1.6-0.2,2.4c0.4,2.4,0.9,4.8,1.4,7.2c0.2,0.5,0.4,1.1,0.8,1.5c0.5,0.8,0.4,1.6-0.5,1.7c-1.2,0.2-2.4,0.3-3.6,0.2
	c-1.5-0.3-3.1-0.3-4.7-0.2c-1.9,0.3-3.8-0.6-4.8-2.2c-1.3-1.9-2.2-4.1-2.6-6.5c-0.8-4.3-1.5-8.6-2-13c-0.8-7.4-1-14.9-0.8-22.4
	c0-2.4,0.2-4.8,0.3-7.2c0.1-1.6-0.2-1.9-1.8-1.8c-2.6,0.2-5.1,0.4-7.7,0.6c-2,0.2-4.1,0.4-6.1,0.6c-0.3,0-0.7,0.1-1.2,0.2
	c-0.2,2.4-0.5,4.7-0.5,7.1c0,3.4,0.1,6.9,0.3,10.3c0.1,4.7,0.5,9.4,1.2,14c0.9,4.6,1.7,9.3,2.7,13.9c0.4,1.4,0.9,2.8,1.4,4.1
	c0.2,0.4,0.3,0.7,0.4,1.1c0.2,0.9-0.3,1.8-1.2,2c-0.2,0.1-0.5,0.1-0.7,0c-1.7-0.2-3.4-0.3-5.1-0.6
	C596,382.4,595.4,382.7,595.1,383.2z M225.5,375.8c0.3,0.1,0.7,0.1,1.1,0.1c2-0.4,3.9-1,5.9-1.6c3.2-1.4,6.3-3.2,9-5.4
	c3.7-2.6,6.4-6.2,8-10.4c0.9-2.6,0.6-4.5-1.6-6.3c-1.4-1.1-3-2.1-4.6-2.8c-4.3-1.8-8.8-3.2-13.4-3.9c-1.5-0.5-3.1-0.6-4.7-0.5
	C225,355.2,224,365.4,225.5,375.8L225.5,375.8z M313.4,364.8c-1.3,1.3-2.5,2.6-3.6,4.1c-1.2,1.8-3.8,1.5-4.6,3.6
	c0,0.1-0.2,0.1-0.3,0.1c-0.8,0.4-1.6,0.8-2.4,1.3c-2.4,2-5.3,2.9-7.9,4.3c-0.6,0.2-1.2,0.4-1.9,0.5c-1.5,0.3-3,0.8-4.3,1.6
	c0.4,0.3,0.7,0.5,0.9,0.7c1.2,0.6,2.5,1.1,3.6,1.7c1.4,0.7,2.8,1.7,4.3,2.4c6.2,3.1,12.4,6.2,19.1,8.3c1.9,0.8,4,0.5,5.6-0.7
	c-0.2-0.5-0.4-1-0.6-1.4c-1.3-2.6-2.2-5.3-2.8-8.1c-1.3-5.2-2.1-10.5-2.4-15.9C315.8,365.1,315.6,364.9,313.4,364.8z M283.3,375.3
	c0.5-0.1,1-0.2,1.5-0.4c3.6-1.7,6.9-3.9,9.8-6.7c0.4-0.4,0.7-0.8,1-1.2c2-2.4,3.6-5.2,4.6-8.2c1.2-3.1,1.9-6.2,1-9.5
	c-0.5-2-1.6-3.8-3.2-5.1c-1.7-1.4-2.6-1.4-4.4-0.3c-0.4,0.2-0.8,0.5-1.1,0.8c-1.8,1.5-3.4,3.2-4.8,5.1c-1.6,2-2.8,4.3-3.5,6.8
	c-1.2,3.7-1.6,7.7-1.2,11.6c0.1,0.9,0,1.9,0.1,2.8C283.1,372.3,283.2,373.7,283.3,375.3z M462.8,369.2c1.2,0,2.3-0.4,3.2-1.2
	c1.9-1.7,3.5-3.6,4.8-5.7c4.3-6.4,5-13.1,2-20.1c-1.3-3.1-3.3-5.8-5.9-7.9c-1.8,0.4-2.5,2-3,3.3c-0.2,0.9-0.6,1.8-0.9,2.7
	c-0.1,0.3-0.2,0.7-0.2,1c-0.1,1.2-0.2,2.4-0.3,3.6c-0.3,2-0.4,3.9-0.4,5.9c0.3,2.9,0.4,5.8,0.2,8.7c-0.1,1-0.5,2.2-0.1,3.1
	c0.7,1.6,0.2,3.1,0.5,4.6C462.8,367.9,462.8,368.5,462.8,369.2L462.8,369.2z M355.2,341.4c-0.7-0.2-0.9-0.2-1.2-0.3
	c-3.1-0.7-6.3-0.1-9.4,0.1c-3.8,0.2-7.5,0.6-11.3,0.9c-0.5,0.1-1.1,0.2-1.6,0.3c0.2,5.1-0.4,9.9,0.5,15l20.7-3.7
	C351.8,349.3,351.7,345.1,355.2,341.4z M583.6,330.8c-5.7,0-11.4-0.7-16.9-2.1c-0.5-0.1-1.1-0.1-1.6,0c0,0.2,0.1,0.4,0.1,0.5
	c2.8,4.1,4.2,8.7,5.5,13.4c0.7,2.6,0.7,2.6,3.4,2.6h0.4c1.6-0.1,3.2,0.2,4.6,0.8c1.1,0.6,2.4,0.9,3.7,0.8
	C583.1,341.5,583.4,336.3,583.6,330.8z M551.2,332.2c-1.8,4.4-2.6,9.1-2.5,13.8c2.5,0.2,5.1,0.1,7.6-0.2
	C556.7,343.1,553.5,334.6,551.2,332.2L551.2,332.2z M462.5,337.9c-1.3,2.4-2.3,8-1.8,10C461.4,344.4,461.9,341.2,462.5,337.9
	L462.5,337.9z M211.9,468.2c-0.6,1.8-0.9,3.7-0.9,5.6c0.4,3.9-0.1,7.8-0.2,11.7c-0.1,5.3-0.3,10.7-0.5,16.1
	c-0.1,2.4-0.3,4.9-0.4,7.3c-0.1,0.9-0.1,1.9-0.1,2.8c-0.1,3.4-0.5,6.8-1.3,10.1c-0.2,1.2-0.9,2.2-1.9,2.8c-0.7,0.5-1.3,1-2,1.5
	c-1,0.8-2.2,1.3-3.5,1.2c-1.3,0-2.7,0.2-3.9,0.6c-1.5,0.3-3,0.7-4.5,1.2c-1.3,0.4-3-0.2-4.4-0.5c-0.3-0.1-0.6-0.8-0.7-1.3
	c-0.1-2.2-0.2-4.4-0.2-6.6c0-5.1,0.1-10.3-0.1-15.4c-0.2-6.4,0.4-12.8,0.6-19.3c0.2-5.5,0.2-11,0.3-16.5c0-2.4,0-4.9-0.1-7.3
	c-0.1-2-0.2-4-0.3-5.9c-0.1-1-0.1-2,0-3c0.1-1.5,1.2-2.7,2.7-3c0.9-0.2,1.9-0.5,2.8-0.7c0.1,0,0.3-0.1,0.3-0.1
	c1.1,0.9,1.9,0,2.8-0.4c1.1-0.4,2.3-0.7,3.5-1c0.8-0.2,1.5-0.7,2-1.4c0.7-1,1.4-2,2.2-3c0.9-1.1,1.9-2.1,2.9-3
	c0.7-0.5,1.4-0.8,2.2-1c1.8-0.5,3.6-0.8,5.5-1c1.9-0.2,3.8-0.2,5.7-0.4c1.4-0.1,2.8,0.3,4,0.9c0.3,0.1,0.5,0.3,0.7,0.5
	c2,2.8,4,5.4,4.8,9s0.4,7.1,1,10.6l0.7,4.6l0.4,0.1c0.4-0.9,0.8-1.8,1.1-2.7c1.7-4.5,3.2-9,5.1-13.4c1.1-2.5,2.4-4.9,3.8-7.3
	c1.1-1.9,2.2-3.8,3.5-5.6c1.3-2.1,3.7-3.2,6.1-2.9c0.3,0,0.8,0.1,1,0c0.6-0.4,1.4-0.4,2,0c0.3,0.1,0.5,0.1,0.8,0.1
	c0.9,0,1.7-0.1,2.6-0.1c0.8,0.2,1.6,0.2,2.3,0c0.7-0.3,2,0.6,2.3,1.4s0.6,1.7,0.8,2.5c0.3,0.1,0.4,0.1,0.4,0.1c2.4-1.8,5.2-1.7,8-2
	c3.4-0.4,6.9-0.8,10.3-1.1c2.8-0.3,5.7-0.4,8.6-0.6c3.6-0.2,7.2-0.3,10.8-0.4c1,0,2,0,3,0c3.6,0.2,7.1,0.3,10.7,0.6
	c2.6,0.2,5.2,0.7,7.7,1.4c0.1,0.7,0.2,1.4,0.3,2.2c0.5,0.2,0.9,0.3,1.4,0.3c1.2,0,2.3-0.2,3.5-0.3c0.8,0,1.5-0.5,1.8-1.2
	c1-1.8,2.8-2.9,4.8-3c2-0.3,4.1-0.1,6,0.5c1.2,0.3,2.5,0.5,3.7,0.6c0.4,1.7,1.5,1.9,3.1,1.7c5.5-0.6,11-1,16.6-1.4
	c0.5,0,0.9-0.2,1.3-0.4c2.1-1.2,4.6-1.5,6.9-0.9c1.2,0.2,2.4,0.3,3.6,0.3c3.1,0.3,4.2,1.2,4.5,4c0.1,1.7,0,3.4,0.2,5.1
	c0.3,2.2,0.5,4.4,0.6,6.7c0.1,2.5,0.1,5,0.1,7.5c0,0.3,0.1,0.6,0.1,1c2.4,0,4.7-0.4,6.9-1.1c0.7-1.3,0-2.6-0.1-3.9
	c-0.5-3.8-1.4-7.6-1.8-11.4c-0.7-5.7-1.8-11.3-1.8-17.1c0-2.3,0-4.5,0.2-6.8c0.1-2,1.7-3.1,3.6-3.4c2.4-0.4,4.6,0.4,6.9,0.5
	c0.3,0,0.6,0.1,0.9,0.2c0.8,0.1,1.8,0,2.3,0.5c0.8,0.8,1.4,1.9,1.4,3.1c0.3,1.8,0.4,3.6,0.7,5.4c0.5,3.4,1.1,6.8,1.7,10.2
	c0.2,1.2,0.3,2.5,1.5,3.4c0.3,0.2,0.3,0.7,0.3,1.1c0.3,2.3,0.6,4.5,1.1,6.7c0.6,2.4,0.7,5,1,7.4c0,0.2,0.1,0.4,0.2,0.6l2.8,0.3
	c0.1-0.7,0.2-1.3,0.3-2c0.4-3.9,1.2-7.7,2.6-11.4c0.8-2.1,1.5-4.3,2.3-6.4c0.5-1.7,1.7-3.1,3.2-4c1.1-0.6,0.9-1.9,1.1-2.9
	c1.3-0.7,2.6-1.3,4.1-0.7c0.2,0.1,0.6,0,0.9-0.1c3-0.3,6.1,0.6,8.5,2.4c0.4,0.3,1,0.5,0.7,1.2c-0.1,0.1,0.2,0.4,0.3,0.6
	c2.2,2.4,4.1,5.1,5.7,7.9c1,2.1,2,4.1,3.1,6.4c0.1-0.8,0.2-1.4,0.4-2.6c0.6,1.4,1,2.4,1.4,3.5h0.2c0.1-3.8,0.1-7.6,0.5-11.4
	c0.2-3.8,0.8-7.5,1.9-11.2c0-0.1,0-0.2-0.1-0.2c-2.6-1.2-5.3-1.7-8.2-1.7c-1.9,0-3.8,0-5.7-0.2c-1.6-0.2-2.8-1.8-2.5-3.4
	c0-0.1,0-0.2,0.1-0.4c0.2-0.6,0.6-1.1,1.1-1.5c2.2-1.5,4.8-2.2,7.5-2.1c7.7-0.1,15.3,1.3,22.4,4.1c2,0.8,3.9,1.8,5.8,2.9
	c6.9,4,13.2,8.8,18.9,14.4c2.1,1.9,3.9,4.2,5.2,6.8c0.4,0.8,0.6,1.8,0.5,2.7c-0.2,1.6-0.1,3.2-0.4,4.7c-0.5,1.9-1,3.8-1.7,5.7
	c-0.1,0.3-0.6,0.7-0.7,0.7c-1.2-0.4-1.3,0.5-1.7,1.2c-1.8,2.8-4,5.2-6.6,7.2c-1.3,1-2.1,2.5-3.9,2.9c-0.2,0.1-0.4,0.2-0.6,0.4
	c-2.2,3-5.6,4.1-8.8,5.6c-0.8,0.4-1.7,0.7-2.6,1.1c0.2,1.2,0.7,2.3,1.5,3.3c1,1.2,2.1,2.4,3.4,3.7h-2.7c-0.3,0.5-0.5,1-0.8,1.3
	c-0.4,0.1-0.8,0.1-1.2,0c-1-0.3-2.1-0.3-3.1-0.1c-1.4,0.2-2.9,0.4-4.3,0.6c-1.1,0.1-2.1-0.4-2.8-1.2c-0.8-1-1.6-2-2.2-3.1
	c-1-1.6-1.1-1.7-3-1.3c-0.7,0.1-1.4,0.3-2,0.5c-2.1,0.5-3.9-0.2-5.6-1.3c-0.5-0.3-0.7-0.9-0.4-1.4c0-0.1,0.1-0.1,0.1-0.2
	c0.6-0.9,1.3-1.8,2-2.7c0.3-0.2,0.6-0.3,0.9-0.4c0.3-0.1,0.7-0.1,1-0.3c0.9-0.8,2.2-1.2,3.4-0.9l-1.6-5.8c-0.1,0-0.2,0-0.3,0
	c-0.2,0.3-0.3,0.7-0.4,1c-0.6,2-1.6,3.9-3.1,5.4c-0.9,0.9-1.7,1.9-3.1,2.1c-0.3,0-0.6,0.2-0.8,0.4c-1,1.2-2.4,1.4-3.7,1.6
	c-2,0.3-4,0.5-6,0.8c-0.9,0.1-1.8,0.3-2.7,0.6c-2.5,0.7-5.1,0.7-7.6,0c-2.3-0.6-4.4-2-5.9-3.9c-0.6-0.8-1.2-1.7-1.6-2.7
	c-0.8-2.1-1.4-4.3-1.9-6.5c-0.4-2.3-0.5-4.7-0.7-7.1c-1.5,0.4-1.7,0.7-1.6,2.1c0.2,2.3,0.2,4.5,0.9,6.7c0.1,0.6,0.2,1.2,0.2,1.7
	c0.1,0.8,0.3,1.6,0.5,2.4c0.1,0.5,0.4,0.9-0.1,1.4c-0.2,0.5-0.2,1,0.1,1.4c1.3,1.2,1.5,2.7,1.6,4.4l-0.8,0.3c1,4.4,1.9,8.7,2.9,13.2
	c-0.5,0.6-1.2,1.3-1.9,2c-0.5-0.2-1-0.3-1.6-0.2c-2.3,0.5-4.7,0.7-7,1.1c-0.2,0-0.5,0-0.7,0.1c-0.6,0.5-1.4,0.5-2,0.1
	c-0.8-0.5-1.8-0.9-2.1-1.9s-1-2.3-1.4-3.4c-1.9-5.5-3.5-11.2-4.7-16.9c-0.3-1.7-0.8-3.3-1.2-4.9c-0.3-1.2-0.5-1.3-1.6-1.1
	c-2.2,0.4-4.5,0.8-6.8,1.2c-0.1,0.4-0.2,0.8-0.2,1.2c0.4,3.9,0.9,7.8,1.3,11.7c0,0.9,0,1.8-0.1,2.7c0.4,1.1,0.7,2.2,1.1,3.2
	c0.3,0.5,0.2,1.2-0.1,1.7c-0.2,0.4-0.2,0.9,0,1.3c0.3,1,0.8,2,1.3,3.2c-0.6,1.2-1.7,1.6-3.1,2c-1.9,0.6-3.8,0.1-5.6,0.9
	c-1.5,0.5-3.1,0.6-4.6,0.3c-0.8-0.2-1.5-0.6-2.1-1.1c-1.1-0.9-1.9-2.1-2.4-3.4c-1.2-3.2-2-6.6-2.4-10c-0.4-3.8-0.8-7.7-1.2-11.5
	c0-0.4-0.1-0.8-0.3-1.4c-0.9-0.1-1.8-0.1-2.7-0.3c-2.1-0.4-4.1-0.7-6.1-1.2c-0.7-0.2-1.2-1-1.8-1.5c0.3-2.1,0.9-2.7,2.7-3
	c2.5-0.3,5-0.6,7.7-0.9c0.1-2.8,0.1-5.7,0.2-8.7s0-5.9,0-9l-6.2,0.9c-1.6,0.2-3.1,0.5-4.7,0.7c-2.6,0.3-5.2,0.5-7.8,0.8
	c-1.4,0.1-1.7,0.4-1.9,1.8c-0.3,3.9-0.6,7.9-0.8,11.8c-0.2,3.3-0.2,6.7-0.1,10c0.1,3.7,0.6,7.3,0.9,11c0.4,3.3,1.1,6.6,2,9.8
	c0.1,1.2,0.9,2.2,2,2.6c0.8,0.3,1.4,1,2.1,1.4c0.7,0.3,1.5,0.5,2.2,0.7c0.3,0.9,0.4,1.8,0.2,2.8c-0.4,1.4-1.6,2.4-3,2.7
	c-0.8,0.2-1.5,0.5-2.3,0.7c-0.5,0.1-1.1,0.2-1.7,0.2l-1.4,0.2l-2.7,0.4c-0.4,0.1-1-0.1-1.2,0.2c-0.8,0.7-1.9,0.9-2.9,0.5
	c-1.3-0.2-2.5-0.8-3.4-1.7c-2.7-2.7-4.4-6.2-5.2-9.9c-0.4-1.6-0.8-3.2-1.1-4.8c-0.4-1.9-0.8-3.9-1-5.9c-0.5-6.8-0.6-13.7-0.1-20.5
	c0.1-2.2,0.2-4.4,0.4-6.7c-0.3,0-0.7,0.1-1,0.3c-2.8,1.9-6,2.8-9.1,4.1c-1.6,0.7-3.3,1.1-4.7,2.2c-0.3,0.2-0.6,0.4-1,0.4
	c-3.8,1-7.2,3.1-10.8,4.4c-2.2,0.9-4.4,1.4-6.8,1.7c-0.7,0.1-1.4,0.2-2.2,0.3c-0.1,0.7-0.3,1.3-0.3,1.9c-0.1,3.2-0.1,6.3-0.4,9.5
	c-0.4,3.9,0.3,7.7,0.5,11.5c0.1,0.8,0.3,1.7,0.4,2.5c0.1,0,0.3,0.1,0.4,0.1c0.4-0.5,0.8-1,1.1-1.6c1.1-2.5,1.9-5.2,2.3-7.9
	c0.5-2.4,1.4-4.8,2.1-7.2c0.2-0.5,0.4-1,0.5-1.5c0.1-1.3,1-1.8,1.8-2.5c0.3-0.2,0.6-0.2,0.9-0.2c0.9,0.2,1.7,0.5,2.6,0.8
	c0.1,0.5,0.3,1,0.6,1.4c0.2,0.3,0.8,0.7,1.1,0.7c1.5-0.3,2.2,0.5,2.9,1.6c0.2,0.2,0.3,0.4,0.5,0.6c0.3-0.4,0.6-0.7,0.9-1
	c0.1,0.1,0.3,0.1,0.3,0.2c0.2,2,1.1,3.9,1.1,5.9c0.1,3.1-0.3,6.3-1.3,9.3c-0.7,1.9-1.5,3.8-2.2,5.7c-0.5,1.4-0.9,2.8-1.4,4.3
	c-0.7,1.9-2.2,2.8-3.6,3.9c-2.1,1.6-4.6,2.2-7.1,2.8c-1.3,0.2-2.7,0.3-4,0.3c-1.1-0.1-2.2,0.3-3.1,1c-0.3,0.2-0.7,0.4-1.1,0.3
	c-1.5-0.1-3-0.3-4.5-0.4c-2.7-0.3-4.4-2.1-5.8-4.1c-1.7-2.5-2.9-5.4-3.4-8.4c-0.9-4.3-1.3-8.6-1.1-13c0.3-4.3,0.5-8.5,0.7-12.8
	c0.3-4.6,0.6-9.2,0.9-13.8c0.2-3,0.6-6,0.8-9.1c0.1-0.8,0.1-1.6,0.1-2.4c-3.2-0.4-6.4,0.9-9.4-0.8c-0.2,0.5-0.3,0.9-0.4,1.4
	c-0.1,2.7-0.1,5.5-0.2,8.2c0,2.5-0.2,5-0.1,7.5c0.1,2.3,0.5,4.5,0.7,6.7c0.1,0.9,0.2,1.9,0.2,2.8c-0.1,3.4,0.1,6.9,0.7,10.3
	c0.1,0.9,0.1,1.7,0.1,2.6c0,1.7,0.2,3.3,0.6,4.9c0.5,2,0.5,4,0.7,6c0.2,1.6,0.5,3.2,0.9,4.8c0.6,2.3,1.3,4.5,2.1,6.7
	c0.7,1.5,1.4,2.9,2.3,4.3c0.4,0.4,0.8,0.7,1.2,1c-0.4,1.8-2,3.2-3.9,3.2c-1.8,0.3-3.6,0.5-5.4,0.5c-0.3,0-0.6,0.1-0.8,0.2
	c-1.7,1-3.5,0.9-5.4,0.8c-0.5,0-1-0.2-1.5-0.4c-1.6-1-3-2.4-4.1-4c-2.8-4.4-3.7-9.4-4.5-14.4c-0.4-2.7-0.7-5.4-1.1-8.1
	c-0.1-0.4-0.3-0.8-0.5-1.2c-0.2,0.3-0.4,0.7-0.5,1.1c-0.5,2.7-1,5.4-1.5,8c-0.5,2.5-1,5-2.9,6.8c-1.8,1.6-3.8,3.1-5.8,4.4
	c-0.8,0.3-1.6,0.3-2.4,0.1c-0.7-0.3-1.5,0-2,0.5c-1,1.1-2.4,1.1-3.7,1.1s-2.7-0.3-4-0.2c-2.6,0.2-4-1.3-5.1-3.3
	c-1.2-2.4-1.9-4.9-2.2-7.5c-0.7-4.7-1.3-9.5-1.8-14.2c-0.2-2.2-0.2-4.4-0.4-6.6s-0.4-4.4-0.6-6.5
	C212.3,468.3,212.1,468.2,211.9,468.2z M461.5,465.8c1.1-0.7,1.9-1.3,2.7-1.8c1.5-1.1,2.9-2.3,4.2-3.6c3.1-2.6,5.7-5.9,7.4-9.7
	c1.9-3.4,1.3-7.6-1.4-10.4c-1.2-1.3-2.5-2.6-3.9-3.8c-3.2-2.8-6.6-5.3-10.2-7.7c-0.5-0.4-1-0.6-1.6-1c-0.1,0.2-0.2,0.4-0.3,0.7
	c-0.1,2.8-0.3,5.6-0.3,8.3c0,1,0.5,2,0.6,3c0.1,1.9,0,3.7-0.1,5.6c-0.1,0.8-0.1,1.5-0.1,2.3c0.5,3.9,0.9,7.8,1.5,11.6
	C460.3,461.4,460.9,463.4,461.5,465.8z M289.1,455.4c0.9-0.3,1.4-0.4,1.9-0.6c3.4-1.3,6.7-2.6,10.1-3.8c5.1-1.7,10.1-3.7,15.4-4.7
	c2.8-0.6,5.6-1,8.4-1.3c0.3,0,0.6-0.1,0.9-0.2v-0.4c-0.5,0-1.1,0-1.6,0c-1.2,0-2.3,0.2-3.5,0.1c-3.9-0.3-7.8-0.6-11.7-0.9
	c-0.5,0-1,0-1.3-0.6c-0.2-0.3-0.5-0.5-0.8-0.6c-0.8-0.2-0.9-0.7-1.1-1.4c-0.2-1.2-0.3-1.3-1.6-1.2c-1.2,0-2.3,0.1-3.5,0.1
	c-3.1,0.2-6.3,0.4-9.4,0.6c-1.3,0.1-1.3,0.2-1.4,1.5c-0.1,2.6-0.4,5.1-0.5,7.7C289.3,451.4,289.2,453.2,289.1,455.4z M427.4,436
	h-0.6c-0.3,0.6-0.5,1.2-0.7,1.9c-0.4,1.9-0.6,3.8-0.9,5.7c-0.8,3.1-1.1,6.2-1.1,9.4c0.1,0.9,0.2,1.9,0.2,2.8
	c-0.2,3.4,0.7,6.6,1.8,9.7c0.3,0.6,0.6,1.1,1.1,1.6c0.6-0.5,1.1-0.7,1.4-1.2c1.1-1.6,2.1-3.4,2.9-5.2c1.5-4.8,1.5-10,0-14.8
	c-0.6-2.1-1.4-4.2-2.2-6.3C428.7,438.4,428,437.2,427.4,436z M288.1,480.3h0.5l-0.1-1.1h-0.4L288.1,480.3z M288.3,477.1h0.2v-1.6
	h-0.2V477.1z M288.4,466.3l0.3,0.2c0.1-0.1,0.1-0.2,0.1-0.3c0-0.1-0.1-0.2-0.1-0.3C288.6,466,288.5,466.2,288.4,466.3z M713.2,350.2
	c-0.2,1.1-0.1,2.3,0.2,3.4c1.2,4.9,2.2,9.9,3.2,14.9c0.1,0.6,0.1,1.1,0.1,1.7c-0.1,0.7,0.1,1.4,0.7,1.8c0.3,0.2,0.4,0.6,0.5,0.9
	c0.2,1.6,0.9,3,2,4.1c0.3,0.4,0.5,0.9,0.7,1.3c-1.1,0.3-2.2,0.5-3.4,0.5c-1.4-0.1-2.8,0.1-4.1,0.5c-0.7,0.2-1.4,0.1-1.9-0.4
	c-0.5-0.4-1-0.8-1.4-1.3c-3.5-3.6-6.6-7.6-9.3-11.8c-2.5-4.1-5.2-8.2-7.5-12.4c-2.5-4.4-4.6-9-6.9-13.5c-0.3-0.5-0.6-1-1-1.4
	c-0.7,2.4,0.2,4.8-0.1,7.2c-0.2,2.4-0.3,4.9-0.1,7.3c0.2,2.4,0.8,4.8,0.9,7.3c0.1,2.4,0.4,4.9,0.9,7.3c0.4,2.4,0.9,4.8,1.4,7.3
	l-1.3,0.9l-1.9-0.3c-0.1,0-0.2,0-0.3,0c-1.9-0.4-3.8-0.5-5.7-0.3c-2.6,0.1-3.7-1.2-4.2-3.6c-0.5-2.2-1.2-4.4-1.9-6.5
	c-2.9-8.9-4.6-18.1-5.1-27.5c-0.1-2.3,0-4.6,0.2-6.8c0.1-1.9,1-3.2,3.6-2.8l2.9,0.5c0.2-0.7,0.3-1.4,0.5-2.1
	c0.4-1.2,0.9-2.4,1.4-3.6c0.4-0.8,1.3-1.4,2.3-1.3c3.1-0.3,5.7,0.8,8.3,2.2c0.3,0.2,0.7,0.4,1.1,0.5c2.8,0.7,4.4,2.8,5.6,5.2
	c2.6,5.2,5,10.5,7.5,15.8c0.6,1.3,1.3,2.5,1.9,3.8c0.4,1.1,0.8,2.1,1.4,3.1c0.1-0.3,0.1-0.6,0.1-0.9c-0.8-5-1.9-10-2.4-15
	c-0.5-4.1-0.4-8.3,0.3-12.4c0.4-3.2,1.4-6.3,3-9.1c2.2-3.4,4.7-4.5,9.1-4c0.7,0.1,1.5,0.3,2.2,0.5c1.1,0.1,2.1,0.7,2.8,1.6
	c0.6,0.6,1.2,1.1,2,1.4c0.9,0.5,1.6,1.3,2,2.3h-1.9c0.2,0.7,0.4,1.4,0.6,2.1c-1.1,0.5-2.3,0.5-3.3,0c-1.5-0.5-1.7-0.5-2.7,0.8
	c-1.6,2.1-2.1,4.5-2.5,7c-0.3,2.1-0.4,4.3-0.5,6.4c0,1.7,0.1,3.4,0.3,5.1c0,0.6,0.4,1.1-0.4,1.5c-0.2,0.2-0.3,0.5-0.3,0.8
	c0.2,1.5,0.4,3,0.6,4.5c0,0.2,0.5,0.3,0.9,0.5c-0.1,0.5,0.7,1.4-0.5,1.8c0.1,0.9,0.3,1.7,0.4,2.6c0.2,0.9,0.3,1.8,0.3,2.6
	C713.9,351.4,713.5,350.8,713.2,350.2c-0.1-0.7-0.1-1.5-0.3-2.2c-0.1-0.4-0.3-0.9-0.4-1.3c-0.1-1.4-0.2-2.8-0.3-4.1
	c-0.1-0.4-0.3-0.7-0.4-1C711.5,344.5,712,347.5,713.2,350.2L713.2,350.2z M682.9,343.3L682.9,343.3l0.1-1.5c0,0-0.1,0-0.1,0V343.3z
	 M711.1,329.5L711.1,329.5c0.1-0.3,0.1-0.5,0.1-0.8H711L711.1,329.5z M683.7,352.8c0,0.1,0.1,0.2,0.1,0.3s0.2-0.1,0.2-0.1
	c0-0.1,0-0.3-0.1-0.4C683.9,352.6,683.8,352.7,683.7,352.8z M643,332.1c-1.4-0.8-2.3-2.2-2.3-3.8c0-0.8,0.2-1.2,1-1.3
	c1.9-0.4,3.9-0.2,5.8,0.4c1.1,0.4,2.4,0.6,3.6,0.5c1.8-0.3,3.1,0.8,4.6,1.4c0.5,0.3,1,0.5,1.6,0.6c1.3,0,1.8,0.6,1.8,1.8
	c0,0.2,0.1,0.4,0.2,0.6l-2.2,0.3c-0.1,0.7,0.5,1.1,0.9,1.6c2.1,2.5,4,5.2,5.4,8.1c1.5,3.5,3.3,6.8,4.2,10.5c0.8,3,1.2,6.1,1.3,9.1
	c0,1.4,0.1,2.9,0,4.3c-0.1,1.7-0.6,3.4-1.3,5c-1.8,4.5-5.4,6.7-9.8,7.9c-0.7,0.1-1.4,0.1-2.1,0c-3.6-0.3-7.2-0.5-10.8-1.1
	c-2.8-0.5-5.2-2.1-6.8-4.5c-1.8-2.6-2.8-5.6-3-8.7c-0.6-5.2-0.2-10.4,1.2-15.5c0.9-3.2,2-6.3,3.2-9.5c0.8-2.1,1.9-4.1,2.9-6.2
	C642.5,333.4,642.7,332.8,643,332.1z M652.1,344.3l-0.5,0.1c-0.8,3.2-1.7,6.3-2.3,9.5c-0.4,2.2-0.3,4.4-0.7,6.6
	c-0.5,3.2-0.3,6.5,0.6,9.7c0.2,0.5,0.4,1,0.7,1.4c0.4-0.3,0.7-0.5,0.9-0.6c2.9-2.4,4.1-5.6,4.5-9.2c0.4-4,0-8-1.2-11.8
	C653.6,348.1,652.8,346.2,652.1,344.3L652.1,344.3z M508.2,410.5c-0.2,0.6-0.3,0.9-0.5,1.3c1.2,0.6,2.9-0.3,3.9,1.3
	c-0.3,0.2-0.7,0.3-1,0.5c-0.9,0.4-1.9,0.6-2.5,1.6c-0.3,0.3-0.7,0.6-1.2,0.7c-2.3,0.7-3.3,2.6-3.7,4.7c-0.7,3.4-0.3,6.8,1.2,9.9
	c1.2,2.4,2.6,4.7,4.1,6.9c2.5,3.5,5.3,6.7,8.3,9.8c3.1,3.4,6.7,6.6,9.2,10.5c1.2,1.9,2.2,3.9,2.9,6c1.3,4.4-0.8,7-4.9,8.3
	c-1.5,0.3-3,0.5-4.5,0.6c-1.7,0.2-3.3,0.5-5,0.8c-4.2,0.7-8.4,0.1-12.2-1.8c-2.8-1.3-5.6-2.7-8.3-4.1c-0.4-0.2-0.8-0.4-1.3-0.7
	c0.4-1,1.4-1.5,2.5-1.3c1.6,0.1,3.3,0.3,4.8,0.7c3,0.7,5.9,1.7,8.9,2.5c2.2,0.6,4.5-0.2,5.7-2.1c0.7-0.8,0.9-2,0.4-3
	c-0.7-1.5-1.5-2.9-2.5-4.2c-1.2-1.5-2.5-2.9-3.9-4.3c-0.7-0.7-1.2-1.8-2.4-2c-0.1,0-0.2-0.1-0.3-0.2c-1-1.6-2.7-2.4-3.9-3.8
	c-0.3-0.3-0.6-0.7-0.8-1.1c-0.8-1.5-1.9-2.8-3.3-3.7c-0.3-0.1-0.5-0.3-0.6-0.6c-1.1-2.1-2.9-3.6-4-5.7s-2.2-4.1-3-6.3
	c-1.2-3.4-1.6-7-0.9-10.5c0.3-1.5,0.9-2.9,1.8-4.2c1.7-2.9,4.5-4.9,7.7-5.6c1.7-0.3,3.3-0.8,5-1
	C505.5,410.3,506.9,410.4,508.2,410.5z M714.6,355.1c0.4,0.8,0.9,1.5,1.3,2.3l-0.4,0.2C715,356.8,714.7,356,714.6,355.1L714.6,355.1
	z M411.4,375.6l0.3,1.2l-0.3,0.1c-0.1-0.4-0.2-0.8-0.3-1.2C411.2,375.6,411.3,375.6,411.4,375.6z M714.6,355.1
	c0.1-0.5-0.4-1.2,0.6-1.6C714.9,354.1,714.7,354.6,714.6,355.1z"/>
<path class="st1" d="M390.7,66.1c-19.5-12.8-40.4-23.7-63.8-26.8c-5.1-0.5-10.2-0.7-15.3-0.6c-2,0-4-0.1-6-0.3h-0.3
	c-1-0.4-3.3-0.9-3.5-1c-6.7-2.5-13.6-4.2-20.7-2.8c-7.8,1.6-13.1,6-18.7,11.2c-1.3,1.2-2.6,2.3-4,3.4c-0.8,0.6-1.5,1.2-2.3,1.7
	c-2.9,2.2,2-1.3,2-1.4c-2.4,2.6-7.5,4.3-10.6,5.7c-1.5,0.7-3,1.3-4.5,1.9l0.8-0.2c-0.8,0.2-1.5,0.5-2.2,0.7
	c-3.8,1.2-7.6,2.3-11.5,3.3c-17.3,4.5-34.8,8-51.4,15c-9.4,3.9-18.2,9-26.8,14.2c-9.5,5.7-19,11.5-27.9,18.1
	c-17.8,13.2-30,32.7-42.1,51C70,177.1,58.7,195.4,48,213.9c-5.3,9.2-10.5,18.4-15.5,27.7c-3,5.6-4.7,11.2-3.4,17.6
	c0.4,2,1.2,4,2.1,5.8c-0.3,1.1-0.7,2.2-1,3.3c-3.3,11.4-7.2,22.8-9.2,34.5c-4.5,25.8,15.6,45.7,39.3,51.1
	c23.2,5.2,47.4,3.4,65.7-13.3c7.8-7,13.7-15.8,20.2-24c0.6-0.7,1.1-1.4,1.7-2.1c0,0,0,0,0.1-0.1c2.3-2.6,4.6-5.1,6.8-7.8
	c4.6-5.5,7.6-11.8,10.5-18.4c1.4-3.1,2.8-6.2,4.1-9.4c0.2-0.8,0.4-1.6,0.8-2.3l0.2-0.3v-0.1c0.5-1,1-2,1.6-2.9
	c1.3-2.4,2.7-4.8,4.2-7.2c5.3-8.3,11.1-16.3,17.5-23.8c0.3-0.4,3.8-4,1-1.2s0.7-0.8,1.1-1.2c1.7-1.9,3.4-3.8,5.2-5.6
	c3.5-3.7,7-7.3,10.6-11c6.7-6.8,13.4-13.5,21-19.4c0.7-0.5,1.3-1,2-1.5c-0.1,0.1,1.9-1.3,2.3-1.6c0.8-0.5,1.6-0.9,2.4-1.4
	c1.7-1,3.5-1.8,5.3-2.6c1.2-0.2,3.7-1.3,4.3-1.5c9.2-2.5,18.6-3.6,27.7-6.4c10.9-3.4,20.8-8.4,31-13.4c2.2-1.1,4.4-2.2,6.6-3.1
	c0.9-0.4,1.8-0.8,2.7-1.1c1.4,0.1,3.9-1.3,5.2-1.6c2.7-0.7,5.5-1.2,8.3-1.6l2.2-0.3h0.2c2.1,0,4.1-0.1,6.2,0
	c4.3,0.2,8.6,0.6,12.9,1.1c9.6,1,18.9,1.4,28.5,0.2c24.2-3.2,43.1-24,44.5-48.3C426.3,96.7,409.5,78.4,390.7,66.1z"/>
<path class="st2" d="M149.5,141.7c-1.8-1.9-4.1-3.1-6.7-3.5c1.5-0.8,2.9-1.8,4.2-2.9c4.3-3.8,5.1-11.1,1-15.4s-10.9-5-15.4-1l0,0
	c-4.9-2.3-11.3-1.6-14.3,3.4c-2.9,4.8-2.3,12.1,3,15.1c4,2.3,8.5,3.4,13.1,3.1l-0.2,0.2c-14.6,15.7-29.3,31.4-43.9,47.2
	c-14,15.2-27.9,31.5-32.8,52c-1.4,5.7,1,11.8,7,13.8c5.3,1.7,12.4-1.2,13.8-7c4.3-17.8,16.5-31.6,28.6-44.8
	c13.9-15,27.9-30,41.8-44.9c4-4.3,5.1-10.7,0.9-15.4 M143.5,307.5c0-0.1,0.1-0.2,0.1-0.3c0,0,0-0.1,0-0.1c0.6-0.7,1.7-2,0.2-0.4l0,0
	c2-2,3.2-4.6,3.4-7.4c0.1-2.8-0.9-5.6-2.7-7.8c-3.8-3.9-11.1-5.3-15.3-1.1c6-9,11.9-18.1,19.6-25.7c4.2-4.2,5-10.8,1-15.4
	c-3.7-4.2-11.2-5.1-15.4-1c-11,10.9-19,24.1-28,36.7c-3.9,5.7-8.3,11-13.2,15.7c-5.9,5.4-12.1,10.2-16.8,16.7
	c-3.5,4.8-1.7,12,3,15.1c5,3.2,11.7,1.9,15.1-3c3.7-5.1,9.4-8.9,14.1-13.4c5.5-5.4,10.5-11.3,15-17.6c-1.5,3.1-2.2,6.6-2,10
	c0.2,2.9,0.7,5.5,2.7,7.8c2,2.2,4.7,3.5,7.6,3.7c5.4,0,11.8-4.3,11.4-10.4c-0.1-0.7,0-1.4,0-2.1 M398.3,101.5
	c-29.4-6.3-59.2,0.2-88.3,4.8l-45.2,7.1c-14.1,2.2-28.5,3.9-42.3,7.7c-13.6,3.8-26.2,9.9-36.9,19.2c-11.1,9.7-18.3,21.8-24.6,34.8
	c-11.8,24.4-27.4,45.1-49.7,60.8c-13.1,9.2-26.3,16.9-36.4,29.6c-5,6.4-9.2,13.3-12.6,20.6c0.3-2.9-0.7-5.8-2.7-8
	c-0.3-0.3-0.6-0.6-0.9-0.8c-0.1-3.5-1.5-6.9-4.7-8.6c-3.5-1.8-6.6-2.7-10.5-2.2c-2.8,0.4-5.4,1.6-7.6,3.4c-4.4,3.8-6.3,9.7-4.9,15.4
	c1.4,5.6,5.6,10.1,11.1,11.8c5.8,1.8,11.9,0,16.5-3.7c0.2-0.1,0.3-0.3,0.5-0.5c-2.1,4.9-4,9.8-5.8,14.6c-2.1,5.5,1.5,12,7,13.8
	c5.7,1.8,11.8-1.3,13.8-7c4.5-11.9,9.2-23.7,16.7-34c7.1-9.8,17.2-16.3,27.2-22.9c22.4-14.9,41.6-33.9,54.8-57.6
	c6.6-11.9,11.3-24.9,19.8-35.6c6.9-8.7,16.7-15.3,27.4-19.5c11.7-4.6,24.7-6.1,37-8.1l43.6-6.9c16-2.5,31.9-5.3,47.9-7.5
	c14.1-1.9,28.9-3.2,43-0.1c5.8,1.2,11.8-0.9,13.8-6.9C407,110.1,404.1,102.7,398.3,101.5 M46.1,227.8c-13.3-4.4-20.2,16.3-6.8,20.7
	S59.4,232.2,46.1,227.8 M325,145.5c0.3-5.4-4.4-11.8-10.4-11.4c-10,0.7-20,1.3-30.1,2c-10.5,0.7-20.5,1.8-30.3,5.7
	c-8.4,3.3-16,8.5-23.8,12.9c-8.5,4.7-17.2,9.1-26,13.2c-5.4,2.4-7.4,9.5-4.8,14.7c2.8,5.3,9.3,7.4,14.7,4.8c8.1-3.7,16.1-7.7,24-12
	c4.5-2.5,8.9-5.2,13.4-7.8c-1.9,5.2-0.3,11.7,6.5,14c13.2,4.4,20.1-16,7.2-20.6c6.1-2,12.6-2.6,19-3c9.8-0.7,19.5-1.3,29.3-1.9
	c5.9-0.4,11.1-4,11.4-10.4 M382,139.5c-13.3-4.4-20.2,16.3-6.8,20.7S395.3,143.9,382,139.5 M292.6,52.6c-1.3-2.6-3.6-4.5-6.3-5.5
	c-1.7-0.5-3.6-0.6-5.4-0.3c-1.8-0.6-3.7-0.7-5.6-0.3c-2.8,0.6-5.2,2.3-6.8,4.6c-1.6,2.5-2.2,5.5-1.6,8.3c0.6,2.8,2.3,5.2,4.6,6.8
	c4.9,3.2,11.1,3.6,16.3,1c2.6-1.3,4.5-3.6,5.5-6.3C294.1,58.2,293.9,55.2,292.6,52.6 M211.4,103.1c-0.3-1.3-0.9-2.5-1.6-3.6
	c0.6-1.8,0.7-3.7,0.3-5.5c-0.6-2.8-2.3-5.2-4.6-6.8l-2.6-1.3c-1.8-0.6-3.8-0.7-5.7-0.3c-4,0.4-7.8,3.2-10.1,6.4
	c-2.5,3.4-3.5,7.7-2.7,11.9c1.9,8.5,10.2,13.8,18.7,12.1C208.6,114.8,212.9,108.7,211.4,103.1 M370,82.7c0.2-6-4.4-11-10.3-11.4
	c-20-1.6-40-0.1-59.9,2.1c-19.1,2.1-38.9,6.3-58.1,4.7c-5.9-0.5-11.2,4.6-11.4,10.4c-0.2,6,4.4,11,10.4,11.4
	c10.3,0.8,20.7-0.4,31-1.5c9.9-1.1,19.8-2.3,29.7-3.4c19.1-2.1,38.2-3.5,57.3-2C364.4,93.6,369.7,88.5,370,82.7"/>
<path class="st3" d="M123.8,115.6c8.4-6.1,18.3-10.1,27.6-14.7c8.9-4.4,17.8-8.9,26.7-13.3c9-4.5,18-9.1,27.2-13.1
	c8.6-3.7,17.4-6.6,26.3-9.5c7.5-2.5,15.1-5.1,22.1-9c6.8-3.8,12.2-9.5,18.7-13.5c3.8-2.4,7.9-3.7,12.4-3c5.2,0.8,9.5,3.9,14,6.4
	c7.9,4.5,16.4,6.2,25.4,7.1c18.4,2,36,5.6,52.6,14c15.6,8,30.7,19.7,40.2,34.6c5.3,8.3,6.2,17.3,4.9,26.9s-2.6,20.1-10.5,26.7
	c-3.2,2.5-6.6,4.8-10.2,6.9c-3.3,2.1-6.8,6.1-10.5,7.3c-4.6,1.6-10-0.2-14.6-0.8c-5-0.7-10-1.2-15-1.6c-10-0.9-20.1-1.3-30.2-1.3
	c-8.7,0-17.7-0.1-26.3,1.3c-13.6,2.3-21.7,13.9-33.4,19.8c-3,1.6-6.3,2.5-9.7,2.6c-4.2,0-8.1-1.6-12.2-1.8
	c-7.3-0.3-12.5,5.1-17.5,9.6c-14.3,12.8-28.6,25.6-41.8,39.6c-6,6.4-11.8,13-17.3,19.8c-5.4,6.8-12.3,14.5-13.8,23.4
	c-0.6,3.9-0.3,7.8-0.5,11.7c-0.2,5.9-2,10.5-6.4,14.5c-7,6.4-15.5,11.6-23.1,17.1c-14,10.1-28.7,21.9-46.3,24.3
	c-18.3,2.5-37.5-6.1-47.4-21.7c-4.6-7.3-7.3-15.7-7.7-24.3c-0.5-8.8,2.5-16.3,4.3-24.7c1.9-8.9-2.4-16.5-2.4-25.2
	c0-9.4,4-18.3,8.7-26.3c9.6-16.4,21.8-31.8,33.7-46.6c6.5-8.1,13.3-16,20.3-23.7c6-6.5,11.8-12.6,16.6-20.1
	C113.1,127.9,117.3,120.7,123.8,115.6c1.1-0.8-0.3-2.4-1.4-1.6c-6.7,5.2-11,12.6-15.5,19.6c-5.5,8.7-12.7,15.7-19.5,23.3
	c-13.6,15.4-26.4,31.4-38.2,48.2c-10.2,14.2-23.1,30.5-21.8,49c0.3,3.9,1.4,7.4,2.3,11.2c1.4,6,0.1,11.4-1.6,17.1
	c-2.2,7.6-3.3,15.1-2.4,22.9c1.9,16.4,11.7,30.8,26.3,38.6c14.7,7.8,31.5,7.7,46.6,1.1c17-7.5,31.9-20.3,46.9-31.2
	c6.6-4.7,13.3-9.4,14.7-17.9c0.8-4.7,0.1-9.5,0.6-14.2c0.6-5.9,3.8-10.8,7.2-15.6c12-16.7,26.4-31.7,41.3-45.8
	c7.3-6.9,14.7-13.5,22.1-20.2c3.5-3.1,6.9-6.9,11.1-9c5-2.6,9.5-1,14.6-0.1c13.7,2.3,23.2-8.4,33.3-15.6c8.1-5.7,16.2-6.9,26-7.4
	c10.6-0.5,21.2-0.5,31.8,0c10.3,0.5,20.7,1.5,30.9,2.9c3.6,0.5,7.7,1.6,11.3,0.6c4-1.2,7.2-4.8,10.7-7.1c6.3-4.1,13.5-7.7,17.4-14.4
	c2.3-4,3.2-8.6,4-13c0.9-4.4,1.6-8.9,2-13.4c1.2-18-10.4-31.8-23.3-42.9c-13.6-11.6-29.6-20-46.8-24.8c-8.6-2.4-17.3-3.9-26.2-4.7
	c-5.3-0.4-10.7-1.1-15.9-2.3c-5.3-1.4-10.3-3.6-14.9-6.4c-6.7-3.9-13.6-7.2-21.3-4.4s-13.2,9.4-20,13.8c-15.2,9.8-33.8,12.9-50.3,20
	c-19.6,8.4-38.5,18.6-57.6,28.2c-8.7,4.3-17.9,8.2-25.8,13.9C121.3,114.9,122.7,116.4,123.8,115.6 M195.2,91.9
	c-4.7-0.5-9.1,2.3-10.4,6.8c-1.6,5.1,0.9,10.6,4.7,14s9.3,4.2,13,0c3.3-3.7,3.5-9.8-1.8-11.5c-0.6-0.2-1.1,0.1-1.3,0.7
	s0.1,1.1,0.7,1.3c5,1.6,2.3,6.9,0.2,8.7c-2,1.8-5,2-7.3,0.7c-2.4-1.4-4.4-3.6-5.5-6.2c-2.6-5.7,0.5-13.6,7.7-12.6
	C196.5,94.1,196.6,92,195.2,91.9 M271.2,58.4c3.8,3,8.5,6.4,13.6,5.3c3.7-0.8,6.6-3.6,6.7-7.4c0-1.3-2.1-1.5-2.1-0.1
	c-0.1,4.2-4.4,6.1-8.1,5.4c-3.4-0.6-6.3-2.9-9-5C271.3,55.8,270.1,57.6,271.2,58.4 M241.3,88.8c39.8-10.1,80.9-13.5,121.8-10.1
	c1.3,0.1,1.5-2,0.1-2.1c-41.1-3.4-82.4,0.1-122.3,10.2C239.6,87.1,240,89.2,241.3,88.8 M51.2,277.2c-6.8-5.6-17.3,2.1-12.8,10.1
	c1.9,3.2,5.5,4.9,9.2,4.4c4.4-0.6,7.7-4.2,8.9-8.4c0.4-1.3-1.6-2-2-0.7c-1.6,5.6-8.7,9.9-13.4,4.7c-2.2-2.6-2-6.4,0.5-8.7
	c2.5-2.2,6-1.8,8.4,0.2C51.1,279.8,52.3,278.1,51.2,277.2 M120.1,196.2c-2.4,3.9-6.9,9.1-6.1,14c0.6,3.9,4.7,5.9,8.3,5.1
	c6.9-1.4,15-17.8,4.6-19.1c-1.3-0.2-1.4,1.9-0.1,2.1c5.7,0.7,1.9,8.4,0.3,10.8c-1.8,2.7-5,5.2-8.4,3.9c-6.7-2.6,1.1-12.4,3.1-15.7
	C122.5,196.2,120.8,195,120.1,196.2 M37.9,243c3.4,4.6,9.5,1.5,11.6-2.6c1-2,4.6-12.7-1.5-10.8c-1.3,0.4-0.9,2.5,0.4,2.1
	c0.9-0.3,1,2.2,0.9,2.6s-0.3,1.2-0.5,1.8c-0.4,1.5-1,3-1.8,4.3c-1.7,2.4-5.5,4.1-7.6,1.2C38.7,240.5,37.1,241.9,37.9,243
	 M69.7,243.6c17.7-37.5,49.3-65.4,73.2-98.5c0.8-1.1-1-2.3-1.7-1.2c-24.1,33.3-55.7,61.4-73.5,99.1
	C67.1,244.2,69.1,244.8,69.7,243.6 M63.3,313.7c3.8-13.2,7.9-26.5,14.5-38.6c3.1-5.9,7-11.3,11.6-16.1c5.2-5.3,11.3-9.1,17.7-12.7
	c24.9-14.1,37.9-38.3,50.8-62.8s29.1-52,57.8-59.5c7-1.8,13.9-1.7,21-1.3c7,0.4,14.1,0.1,21-1c14.5-2.2,28.8-5.2,43-9
	c7.7-2.1,15.3-4.8,22.7-8c8-3.5,15.8-7.3,24.6-7.6c8.5-0.3,16.9,1.7,25.1,3.8c8.9,2.3,17.8,4.9,26.5,7.9c0.6,0.2,1.1-0.1,1.3-0.7
	c0.2-0.6-0.1-1.1-0.7-1.3c-14.6-5-30.2-10.2-45.7-11.6c-6.8-0.6-13.7,0.2-20.2,2.5c-6.9,2.5-13.4,5.9-20.2,8.5
	c-14.6,5.4-30,8.6-45.3,11.4c-7.8,1.5-15.7,3.2-23.7,3.3c-7.3,0.1-14.6-1.1-21.9-0.4c-27.2,2.7-46.5,25.5-59.3,47.6
	c-15,25.8-26.3,56.7-52.7,73.2c-6.7,4.2-13.9,7.6-19.9,12.8c-5.2,4.7-9.7,10.2-13.3,16.2c-7.9,13.1-12.4,27.9-16.7,42.5
	C61,314.3,63,315,63.3,313.7 M67.7,319.1c1-7.5,3.9-14.7,8.3-20.8c4.2-5.8,9.7-10,15.3-14.3c4.7-3.7,9.3-7.6,12.6-12.7
	c1.9-3,3.4-6.4,5.2-9.5c2.2-3.6,4.8-6.8,7.8-9.7c10.1-9.8,19.9-19.6,28.7-30.6s16.3-22.9,23.5-35.1s14.9-22.5,27.4-29.3
	c4.7-2.6,9.6-4.9,13.8-8.4c1.9-1.6,3.5-3.4,4.9-5.4c1.2-1.8,2.4-6.3,4.5-7.2c3-1.4,7.5,1.3,10.8,1.4c2.9,0,5.9-0.3,8.7-1.1
	c6.6-1.6,12.7-3.5,19.6-3.8c12.8-0.5,24.7,0.4,36.7-4.6c8-3.3,15.4-6.1,24.2-6.6c8.2-0.5,16.5-0.4,24.8-0.5
	c17.1-0.1,34.3,0.5,51.3,3.4c1.3,0.2,1.4-1.9,0.1-2.1c-15.6-2.7-31.5-3.4-47.3-3.4c-7.9,0-15.7,0.1-23.6,0.3
	c-6.9,0.2-13.8,0.7-20.4,2.9c-6.4,2.2-12.3,5.6-18.9,7.1c-7,1.5-14.2,1.3-21.3,1.3c-6.4-0.1-12.8,0.6-19,2.1c-3,0.8-6,1.8-9.1,2.4
	c-4.6,0.9-7.9,0.1-12.2-1.2c-4.6-1.4-6.9,1.8-8.8,5.5c-3.1,5.9-7.7,9.6-13.5,12.8c-5.2,2.9-10.6,5.4-15.3,9.1
	c-4.9,4.1-9.2,8.9-12.7,14.2c-8.2,11.9-14.8,24.8-23.3,36.5c-9.1,12.4-19.2,24-30.4,34.5c-6.2,5.9-11.1,11.3-15.1,19
	c-3.9,7.5-9.3,12.7-15.9,17.8c-6,4.6-11.6,9.3-15.8,15.6c-3.9,6.1-6.4,13-7.4,20.1C65.3,320.3,67.4,320.4,67.7,319.1 M376.6,140.5
	c-2.5,4-4.5,8.4-5.9,12.9c-0.1,0.4,0,0.9,0.4,1.2c4.8,4.1,12.4,4.6,17.4,0.5c5.5-4.6,0.6-10.2-3.9-13.1c-1.1-0.7-2.3,1-1.2,1.7
	c1.7,1,3.2,2.2,4.4,3.7c2.2,3.1,0.3,5.9-2.8,7.3c-4.3,2-9.3,1.2-12.8-1.9l0.4,1.2c1.3-4.4,3.2-8.6,5.6-12.4c0.3-0.5,0.2-1.1-0.3-1.4
	C377.6,139.9,376.9,140,376.6,140.5 M208.8,185.8c13.8-13.1,32.8-16.9,49.8-24c8.9-3.7,16.8-9.4,25.7-12.8
	c11.1-4.2,22.7-1.8,33.9,0.8c1.3,0.3,2-1.7,0.7-2c-10.2-2.4-21-4.9-31.4-2.1c-9.9,2.7-18.2,9.1-27.5,13.2
	c-17.8,7.8-38.1,11.5-52.6,25.3C206.4,185.2,207.8,186.7,208.8,185.8 M271.7,163.7c-4.6-3.8-11.8-0.4-15.9,2.8
	c-4.4,3.4-6.7,8.8-4.6,14.2c0.5,1.3,2.4,0.3,1.9-0.9c-1.8-4.5,0.5-8.9,4.1-11.7c3.4-2.6,9.5-5.7,13.3-2.6
	C271.6,166.3,272.8,164.6,271.7,163.7 M88.8,328.3c26-20.1,46.3-46.6,59-76.9c0.5-1.2-1.5-1.9-2-0.7c-12.5,29.9-32.7,56.1-58.4,75.9
	C86.3,327.6,87.7,329.1,88.8,328.3 M138.6,290.8c-5.3,2.1-11,5.9-11.8,12c-0.6,4.7,1.7,9.3,6.3,10.8c0.6,0.2,1.1-0.1,1.3-0.7
	c0.2-0.6-0.1-1.1-0.7-1.3c-4.8-1.6-6-7.3-3.8-11.5c2-3.8,5.8-5.9,9.7-7.5C140.8,292.1,139.9,290.2,138.6,290.8 M118.4,130.2
	c7.5,5,19.4,10.7,26,1.1c0.3-0.5,0.2-1.1-0.3-1.4c-0.5-0.3-1.1-0.2-1.4,0.3c-5.9,8.6-16.7,2.6-23.1-1.7c-0.5-0.3-1.1-0.2-1.5,0.3
	C117.7,129.2,117.9,129.9,118.4,130.2"/>
<path class="st4" d="M737.8,567.5c-0.4-1.5-1-3-1.8-4.4c0.4-4,0.2-8-0.5-11.9c-1.4-6.2-4.9-11.7-9.8-15.8c-3.9-3.3-8.3-6.8-12.9-9.1
	c-2.8-1.5-5.9-2.7-9-3.4c-2.5-0.5-5.1-0.8-7.7-1c-0.1,0-0.3-0.1-0.4-0.1c-0.2-0.1-0.4-0.3-0.7-0.4l-0.5-0.4
	c-1.8-1.6-3.7-3.2-5.5-4.8c-6.3-5.6-12.3-12.1-21.5-11.9c-7.2,0.2-12.5,4.4-16.3,10.1c0,0.1-0.1,0.1-0.1,0.2
	c-0.1,0.1-0.3,0.3-0.4,0.4c-1.8,0.9-3.6,2.3-5.4,3.3s-3.5,1.7-5.3,2.5c-3.2,1.3-6.4,2.5-9.7,3.5c-4.8,1.5-9.8,2.5-14.2,5.1
	c-8.9,5.2-12.8,15.2-12.7,25l-4.1-2.8c-4.7-3.1-9.7-5.9-14.9-8.2c-5.1-2.5-10.1-5.3-14.9-8.4c-11.1-7.1-22.7-13.6-36.2-14.1
	c-7.5-0.3-14.5,2-21.3,5c-5.8,2.5-11.1,5.8-15.8,10c-4.6,4.2-7.9,10-11.3,15.2c-3.3,5-6.5,9.9-9.8,14.9
	c-6.6,10.1-13.3,20.9-15.3,32.9c-1.2,7.5-1.5,14.8,0.5,22.2c0.7,2.6,1.6,5.1,2.3,7.7c0,0.2,0,0.4,0,0.6c0,1.3,0,2.7-0.1,4
	c0,0.5-0.3,2.9-0.3,3.3c-0.1,0.5-0.1,1.1-0.2,1.2c-0.5,3.5-1.1,7.1-1.3,10.7c-0.3,7.1,1.2,14.1,4.4,20.5c0.5,1.1,1.1,2.1,1.7,3.2
	c0.1,0.2,0.4,0.9,0.5,1.3c0,0.1,0,0.3,0,0.4c0,1.5-0.2,3-0.2,4.6c-0.2,4.6,0.2,9.4,2.5,13.4c3.4,5.9,9.4,8.8,16.1,9
	c4,0.1,8.1-0.4,11.9-1.5c0.7,2.5,2.2,4.8,4.1,6.5c8.9,8.1,19.7,11.3,31.2,13.7c10.1,2.1,20.1,5.1,29.7,9c4.7,2,9.2,4.4,13.4,7.3
	c0.4,0.4,1.1,0.8,1.3,1c1,0.8,1.9,1.7,2.8,2.6c2.3,2.2,4.6,4.5,7,6.7c9.5,8.6,20.9,14.9,33.2,18.5c11.3,3.3,23.1,4.3,34.8,3
	c12-1.4,24.3-4.4,34.2-11.7c6.1-4.5,11.8-9.8,15.1-16.8c3.2-6.6,4.3-13.6,6.7-20.3c1.7-3.2,3.5-6.2,5.6-9.2c2.9-4.4,5.3-9,7.3-13.9
	c3.7-8.9,5.2-18.6,4.3-28.3c-0.4-4.2-1.1-7.7-3.3-11.3c-0.2-0.4-0.5-0.8-0.8-1.2c3-2.6,5.1-6,6.1-9.9c0.8-3.2,1.2-6.7,1.7-10
	c2.3-14.6,4.1-29.4,5.3-44.1c0.3-3.4,0.5-6.8,0.7-10.3C738.4,576.6,739.1,571.9,737.8,567.5z"/>
<path class="st5" d="M737.5,577.4c-0.3-5.9-2-11.4-7.9-14.1c-0.2-0.1-0.5-0.2-0.7-0.3c0.5-0.2,1-0.4,1.4-0.7c3.4-1.7,2.4-7.3-1-8.1
	c-4.7-11.5-13-21.1-23.7-27.5c-0.8-1.6-2-2.9-3.4-3.9c-3.3-2.4-7.5-3-11-4.8c-4-2.1-6.9-4.9-10.1-7.9c-4.1-3.9-8.6-3.5-13.3-1.1
	s-9.7,5.1-14.5,7.6l-23.1,12.2c-0.4-0.4-1-0.7-1.6-0.6c-6.4,0.7-13.4,1.6-18,6.6c-1.5,1.5-2.5,3.4-3.1,5.5c-1.3,0.4-2.5,1.2-3.3,2.3
	c-2.1,2.9-1.4,7,1.5,9.1c1.6,1.1,3.6,1.5,5.5,1c2.3,1.1,4.7,1.9,7.2,2.3l0,0c1.7,1.3,3.6,2.5,5.5,3.5c1.2,2,3,3.5,5.1,4.3
	c0.7,2.5,1.9,4.9,3.6,7c1.5,2,3.3,3.8,4.7,5.8s2.2,4.7,3.3,7.1c1.7,4.2,5.9,7.3,6.7,11.9c0.8,5-0.6,10.2,0.1,15.2
	c0.1,0.9,0.4,1.8,0.9,2.5c-3,14.4-3.7,29.1-2,43.7c0.3,2.4,1.8,4.4,4.4,4.4c2.2,0,4.7-2,4.4-4.4c-2.5-21.2,0.3-42.8,8-62.7
	c0.2-0.1,0.3-0.1,0.5-0.2l4.9-2.4c9.2-1.8,17.8-5.8,26.2-9.8c3.1-1.5,6.1-2.9,9.2-4.3c5-1.2,10.1-1.9,15.2-2.1
	c3.7-0.1,7.6,0.4,9.4,4.1c0.1,0.1,0.1,0.2,0.2,0.4c0,3.4-0.5,7-0.7,10.3c-0.1,2.1-0.3,4.1-0.4,6.2c-0.8,2.5-1.8,5.1-2.6,7.6
	c-1.5,4.8-2.7,9.7-3.6,14.6c-2.4,11.9-4.7,23.9-7,35.8c-0.8,4.2,4,7.5,7.3,4.3c8.8-8.6,3.8-21.3,7.7-31.7c2-5.4,4.6-10.3,5.5-16
	c0.7-4.3,1-8.6,1.3-12.9c1-3,1.7-6,2.1-9.1C738.9,584.5,738.6,580.9,737.5,577.4z M625.7,543.8l-1.3-0.4l-2-0.6
	c0.2-0.1,0.4-0.2,0.6-0.3l24.1-12.7l23.2-12.2c1.1-0.6,3.1-2.2,4.3-1.7s2.4,2.5,3.3,3.3c2.9,2.7,6.1,4.9,9.7,6.7
	c2.7,1.3,5.6,2,8.4,3.3c1.8,0.8,2.2,2,1.8,3.3c-1,2.3-2.5,4.2-4.4,5.7c-4.2,3.2-10.1,4.3-15.1,5.1c-4.4,0.5-8.7,1.3-13,2.3
	c-4.4,1.2-8.4,3.5-12.8,4.7c-1.9,0.7-3.9,0.7-5.7,0c-1.5-0.6-2.8-1.6-4.3-2.4c-2.2-1.8-4.7-3.2-7.4-4c-1.5-0.4-3-0.5-4.5-0.2
	C629.1,543,627.2,543,625.7,543.8z M703.1,551c-3.2-0.2-6.4,0.2-9.5,1.1c-3,1.2-5.8,2.8-8.3,4.7c-0.7,0.5-1.4,0.9-2.1,1.3
	c-6.5,0.8-13,1-19.6,0.7c2.7-1.3,5.4-2.4,8.3-3.1c7.8-2.2,15.9-3.4,22.9-7.7c1.8-1.1,3.5-2.3,5-3.8c2.3-2,4.1-4.5,5.4-7.2
	c5.3,3.8,9.7,8.7,13,14.3C713.2,551.2,708.1,551.1,703.1,551z M583,559.5c-2.1,3.5-6.6,4.7-10.1,2.7c-3.7-2.2-7.5-4.1-11.6-5.6
	l-0.7-0.2c-4.1-0.3-8.2-1.2-12.1-2.5c-10.3-1.1-21,0-31.5,1.6c-1.7,0.5-3.4,1.2-5.1,1.8c-3.4,2-7,3.7-10.6,5.1
	c-0.7,0.2-1.4,0.4-2.1,0.3c-0.7,0.5-1.3,1.1-1.9,1.7c-0.7,1.2-1.3,2.6-1.9,3.9c-0.9,2.1-1.8,4.2-2.8,6.3c-2.1,4.3-4.8,8.2-8,11.7
	l1.7,0.1c0.4,0,0.8,0.1,1.2,0.2c0.5-0.2,1.1-0.3,1.6-0.3c9-0.3,16.7,3.9,24.8,7.1s16.9,4.2,25.7,5.1c8.9,0.9,18.2,1.7,26.6,4.9
	c4,1.5,6.8,4.1,7.7,8.4c0.9,4.8,1.3,9.7,1.1,14.6c0,0.7-0.2,1.3-0.5,1.9c0.2,3.1-3,6.4-6.5,4.3c-4.3-2.6-4-6.9-5.3-11.1
	c-0.4-1.4-1.1-2.7-1.9-3.9c-0.8-0.8-1.6-1.7-2.3-2.7c-1.1-1.1-2.3-2-3.6-2.9c-1.1-0.7-1.8-1.8-2-3.1c-6.3-1.1-12.8-1.6-19.1-2.3
	c-8-0.9-15.9-2.3-23.4-5.4c-6.8-2.8-13.6-6.5-21.1-6.2c-0.4,0-0.8,0-1.2-0.1c-0.5,0.2-1,0.3-1.6,0.2c-3.7-0.4-7.7-0.7-11.4,0.4
	s-5.1,3.5-5.5,7.1c-0.4,4.5-0.5,9-0.2,13.5c0,4.6,0.7,9.2,1.9,13.6c1.3,4.3,3,8.5,3.7,13s0.2,9,0.1,13.5c0,0.7,0,1.3,0,2
	c0.9,0.6,1.5,1.5,1.7,2.6c0.7,3.5,1.6,7,2.8,10.3c1.1,2.6,2.6,4.9,3.7,7.4c0.6,0.7,1,1.6,1,2.6c0,0.1,0,0.2,0,0.2
	c0.8,2.4,2,4.6,3.7,6.5c1.5,1.6,4,5.3,6.6,4.8c5.5-1.1,7.9,7.4,2.3,8.5c-2.3,0.5-4.7,0.3-6.8-0.5h-0.3c-4.7,0.2-9.8-0.2-13.6-3.1
	c-4.7-3.6-4.4-8.8-4.2-14.1c0.2-4.7-2.1-9-3.7-13.4c-1.6-4.9-2.3-10.1-1.9-15.3c0.2-5.3,0.5-10.2-1.1-15.3s-3.4-10.1-4.1-15.5
	c-0.6-5.5-0.8-11.1-0.6-16.6c0.1-4.9,0.3-10.1,3.2-14.2c0.7-0.9,1.4-1.8,2.3-2.5c-0.1-0.2-0.2-0.3-0.3-0.5c-1.9-3.2-1-8.4,2.7-10.1
	c6.5-3.1,10.2-9.3,13.1-16.1c1.7-4.1,3.7-8.7,7.6-11.8l1-0.8c0.1-0.1,0.2-0.2,0.3-0.4c3.1-3.5,6.9-5.5,11-7.1c0.8-0.6,1.7-1,2.6-1.2
	l1.9-0.3c1.8-0.5,3.5-1.1,5.2-1.6c0.7-0.4,1.4-0.8,2.1-1.2c1.5-0.8,3.1-1.5,4.6-2.2c0.6-0.4,1.1-0.9,1.6-1.4
	c3.2-3.1,5.6-7.5,10.2-8.7c3-0.7,6.1-0.2,8.7,1.5c1.1,0.8,2.2,1.6,3.2,2.5c0.2,0.2,0.4,0.3,0.6,0.5c0.2,0.1,0.3,0.1,0.5,0.2
	c0.6,0.3,1.2,0.6,1.8,1c0.6,0.2,1.3,0.4,2,0.6c1.7,0.5,3.5,0.9,5.3,1.2c8.1,1.4,15.5,2.5,22.2,7.8c1.3,1,2.1,2.5,2.3,4.1
	c1.4,0.8,2.9,1.6,4.3,2.6C583.8,551.6,585,556,583,559.5z"/>
<path class="st6" d="M600.7,574.8c-6.7,2.1-12.8,5.5-18.2,10.1l-0.1,0.1c-5.8,3-11.7,6.1-17.7,8.5c-3.2,1.2-6.5,2.1-9.8,2.5
	c-4.1-0.3-8.3-0.3-12.3-1.2c-4.8-1-9.3-2.8-14.1-3.8c-4.8-1-9.7-1.5-14.6-1.5h-0.2c-0.4-0.1-0.7-0.1-1.1-0.1c-0.3-0.2-0.7-0.3-1-0.3
	c-0.2,0-0.4,0-0.6,0.1l-1.6-0.1c-2.8-0.2-2.8,4.2,0,4.4c6.1,0.3,12.1,2,17.5,5c0.9,0.5,2,0.3,2.7-0.5c0.7,0.2,1.3,0.5,2,0.7
	c2.1,1.2,4.5,1.9,6.9,2.1c1.8,0.5,3.7,1,5.5,1.4c4.1,1,8.3,1.7,12.5,2.3c3.8,0.5,8.1,1.5,11.9,0.8c3.4-0.6,5.6-2.9,7.5-5.7
	c1.4-2.1,2.8-4.1,4.3-6l1-0.5c4.3-2.3,8.2-5.3,11.7-8.7c3.2-1.8,6.3-3.6,9.4-5.6C604.4,577.6,603.2,574,600.7,574.8z"/>
<path class="st6" d="M715.6,661.8c0.4-1.3-0.4-2.6-1.7-2.9c-0.3-0.1-0.7-0.1-1-0.1l-2.9,0.6c-1.5-1.6-4-2-5.9-0.8
	c-0.8,0.5-1.6,1-2.4,1.4l-0.6,0.3l-0.2,0.1l-0.2,0.1l-0.8,0.3c-1.8,0.6-3.6,1.1-5.5,1.3h-0.1h-0.2c-0.4,0-0.9,0.1-1.3,0.1
	c-1,0.1-2,0.1-3,0.2c-1.9,0-3.9,0-5.8,0c-8.8-0.3-17.5-0.7-26.3-1.2c-1.1-0.1-2.3-0.1-3.4-0.2l-0.7-0.1c-0.5-0.1-0.9-0.2-1.4-0.2
	c-1.1-0.2-2.2-0.5-3.2-0.9l-0.6-0.2h-0.1c-0.5-0.3-1-0.5-1.5-0.8c-0.1-0.1-0.2-0.1-0.3-0.2c0.1-1.3-0.2-2.5-1-3.6
	c0.4-2.3,0.6-4.7,0.8-7c0-0.5-0.1-1.1-0.5-1.5c0.5-2.7,0.8-5.5,0.9-8.2c0.7-10,1.9-19.5,5.1-29c0.9-2.7-3.4-3.8-4.3-1.2
	c-2.7,8.2-4.4,16.7-4.9,25.3c-0.4,6.4-0.1,15.7-4.5,21.2c-0.2,0.2-0.3,0.4-0.5,0.6c-0.4,0.4-0.8,0.9-1.3,1.2c-1.1-0.1-2.1,0-3.2,0.2
	c-1,0.2-1.7,1.2-1.5,2.3c-0.2,0.2-0.3,0.3-0.4,0.5h-0.2c-0.8,0.3-1.6,0.7-2.2,1.3c0.1-2.2,0.1-4.3,0.1-6.4c0-2.8-4.4-2.8-4.4,0
	c0.1,11.4-1,25.3-7.6,35.1c-1.4,1.4-2.8,2.7-4.2,4c-0.7,0.7-1.5,1.3-2.3,1.9c-1.8,0.9-3.6,1.8-5.4,2.9c-5.2,3.2-10.4,6.9-16,9.5
	c-2.9,0.7-5.7,1.4-8.6,2.1c-2.1,0.5-5,1.3-7.2,0.4c-0.3-0.1-0.7-0.3-1-0.4c-0.8-0.4-1.7-0.8-2.5-1.2c-3-1.2-6-2.3-9.1-3.1
	c-1.5-0.5-3.2-0.2-4.6,0.7l-0.8-0.3l-2-0.9l-4.5-2c-1.2-0.6-2.5-0.8-3.8-0.5c-1.2,0.3-2.2,1.1-2.9,2.1c-8-1.2-16.1-1.9-24.2-2
	c-6.4-0.5-12.7-0.8-19.1-1c-1.2,0-2.2,1.1-2.2,2.3c0,0.5,0.2,1.1,0.6,1.5c4.4,4.4,10.6,4.5,16.5,4.1c7.3-0.6,14.7-0.1,21.9,1.5
	c10.7,2.5,20.9,6.4,31.4,9c2.9,1.4,5.8,3,9,3.5c3.4,0.6,6.9,0.2,10-1.2c2.6-1.1,4.9-2.9,7.5-3.8c0.8-0.3,1.5-0.7,2.2-1.3
	c0.7-0.2,1.4-0.5,2.2-0.8c4.8-2,9.3-4.5,13.5-7.6c5.5-1.9,10.8-4.1,15.9-6.8c1.8-1,3.5-2.1,5.1-3.4c3.8-2.4,6.6-6.2,7.7-10.6
	c0-0.1,0.1-0.3,0.1-0.4c1.8-4.1,1.4-7.7,0.7-12.1c-0.4-2.4-0.5-5.2,2.6-5.3c2.5,0,5.3,0.9,7.8,1.2c6.2,0.6,12.4,0.6,18.6,0l2.4,0.1
	c1.4,0.2,2.8,0.3,4.3,0.4c0.9,0.2,1.8,0.3,2.7,0.4c1.8,0.1,3.7,0.1,5.5-0.2c3.3,0.1,6.5,0,9.8-0.3l0.9-0.1c4,0.3,8-0.4,11.8-1.9
	c3.2-1.3,6.4-2.6,8-5.8C715.8,663.2,715.9,662.5,715.6,661.8z"/>
<path class="st6" d="M734.3,554.2c-0.6-4.3-2.2-8.4-4.5-12c-0.3-0.5-0.9-0.9-1.5-1c-1.3-4.2-4.4-7.6-8.4-9.4
	c-2.6-1.1-4.8,2.6-2.2,3.8c7,3.1,7.9,10.3,7.3,17.3c0,0.6-0.2,1.1-0.4,1.7c-1.6,0.7-3.1,1.6-4.4,2.7c-1,0.7-1.8,1.6-2.2,2.8l0,0
	c-2.1,1.2-4.3,2.2-6.6,3c-2.2,0.3-4.4,0.7-6.6,1.2c-2.3,0.6-4.6,1.5-6.6,2.8c-2.5,1.6-5.1,4.9-8.3,4.2c-2.8-0.6-3.9,3.6-1.2,4.2
	c6.3,1.4,10.1-4.6,15.5-6.5c0.9-0.3,1.8-0.5,2.7-0.8c0.3,0.2,0.7,0.3,1.1,0.2c2.3-0.2,4.6-0.7,6.7-1.5c2-0.3,4.1-0.5,6.1-1
	c1.4,0.7,3,0.6,4.2-0.3c0.8-0.6,1.6-1.2,2.5-1.7h0.5c1.8,0.1,4.1,0.5,5.7-0.5C736.5,562,734.7,556.6,734.3,554.2z"/>
<path class="st3" d="M648,659.4c-3.1-0.1-5.6,2.1-8.6,1.9s-6.4-2.1-9.1-3.6c-2.2-1.2-4.1,2.1-1.9,3.3c3.1,1.7,6.3,3.4,9.8,4
	s6.3-1.9,9.8-1.8C650.5,663.3,650.5,659.5,648,659.4"/>
<path class="st3" d="M463.9,590.7c0-3,0.7-5.3,3-7.3s4.9-3.8,6.9-6.2c4-4.8,5.7-10.8,7.8-16.5c2.4-6.7,5.7-15,11.8-19.2
	c2.8-1.9,6.1-3,9.2-4.3s6.3-2.9,9.4-4.3c3.1-1.4,6-3.1,8.8-5.1c3.1-2.1,6.4-4,10.2-4.4c7.7-0.8,13.4,4.6,20.4,6.5
	c3.7,0.8,7.3,2,10.8,3.5c3.4,1.8,6.7,3.7,9.9,5.9c6.4,4.2,13.1,8.1,18.9,13.2c2.6,2.3,5.1,4.9,8.2,6.6c2.1,1,4.3,1.9,6.5,2.5
	c2.7,0.9,5.5,1.7,8.1,2.8c2.2,0.9,5.4,2.2,6.3,4.6l0.7-1.6c-5.7,2.8-12,4.1-17.3,7.7c-5.8,4-11,8.9-16.4,13.4
	c-2.7,2.2-5.4,4.4-8.1,6.7c-1.8,1.7-3.4,3.5-4.8,5.5c-1.4,1.7-3.2,4-5.6,4.2s-5.3-1.6-7.6-2.4c-5.8-2.2-12.8-2.6-19-2.9
	c-3.1,0-6.2-0.2-9.3-0.5c-3.6-0.7-7.2-1.9-10.5-3.5c-11.3-5.2-22.4-10-34.9-11.7c-8.7-1.2-21-2.2-26.8,5.9c-1.1,1.5,1.4,3,2.5,1.5
	c5.3-7.5,18.3-5.5,26-4.3c5.9,0.9,11.7,2.5,17.3,4.7c6.4,2.6,12.6,5.7,19,8.3c5.8,2.3,11.6,2.2,17.7,2.5c6.3,0.3,13,1,18.9,3.4
	c4.1,1.7,7.7,2.8,11.5-0.3c1.7-1.6,3.3-3.3,4.6-5.1c1.8-2.1,3.7-3.9,5.9-5.6c6.2-5.1,12.3-10.4,18.6-15.4c6-4.8,13.1-6.3,19.8-9.7
	c0.6-0.3,0.8-1,0.7-1.6c-1.7-4.2-6.5-6-10.5-7.4c-5.3-1.9-11-3-15.4-6.8c-2.9-2.5-5.7-5.2-8.8-7.5c-3.3-2.5-6.8-4.7-10.2-6.9
	c-6.6-4.3-13.2-9.1-20.9-11.3c-4.2-1.2-7.9-2.1-11.8-4.1c-3-1.7-6.3-3-9.8-3.6c-7.7-1.1-13.1,2.9-19.3,6.7
	c-6.6,4.1-14.2,6.4-21.2,9.7c-6.8,3.2-10.7,9.5-13.7,16.1c-3.3,7.4-4.8,16.3-10.3,22.5c-2.3,2.5-5.4,4.2-7.6,6.8
	c-2,2.3-2.6,5.1-2.6,8.1c0,0.8,0.6,1.4,1.4,1.4S463.8,591.5,463.9,590.7 M621.3,567.8c-1.4,6,2.1,10.9,3.5,16.6
	c1.6,6.4,1.3,13.2,1.5,19.8c0.5,13.8,1.4,27.5,0.6,41.3c-0.3,6.1-0.3,11.3,1.8,17.1c1.8,4.9,3.7,9.7,5.4,14.7c0.7,2,1.3,4,1.7,6.1
	c0.4,2.8-1.4,4.2-3.5,5.8c-3.8,3-7.8,5.8-11.9,8.4c-5.8,3.5-12.2,4.2-18.6,6c-3.4,0.9-6.9,2.2-10.4,2.6c-2.7,0.3-5.3,0.3-7.7,1.6
	c-1.6,0.9-0.2,3.4,1.5,2.5c2.4-1.3,5.2-1,7.8-1.4c3.3-0.7,6.5-1.5,9.6-2.5c5.6-1.6,11.4-2.2,16.7-4.8c4.5-2.3,8.5-5.6,12.6-8.5
	c2.9-2,7-4.6,6.9-8.5c-0.1-4.3-2.2-9.1-3.5-13.1c-1.9-5.4-4.8-10.6-5.6-16.4c-0.5-3.2,0-6.4,0.1-9.6c0.2-3.7,0.3-7.5,0.3-11.2
	c0-7.2-0.3-14.4-0.6-21.6c-0.3-7.6-0.1-15.4-0.9-23c-0.3-3.3-1.1-6.5-2.2-9.7c-1.3-3.8-3.3-7.1-2.4-11.3
	C624.5,566.8,621.7,566.1,621.3,567.8 M496.8,703.3c0,3.5,2.8,6,5.4,8c3.3,2.4,6.8,4.4,10.4,6.1c4.1,2.3,8.7,3.7,13.4,4.1
	c5.7,0.4,11.5-0.3,17.2,0c5.3,0.3,10.4,1.6,15.2,3.9c5.4,2.7,9.9,6.7,14.7,10.4c5.4,4.1,10.9,8,16.2,12.1c2.3,1.7,4.4,3.6,6.4,5.6
	c1.9,2.2,3.6,4.7,5.8,6.8c7.6,6.9,21,9.8,30.9,7.4c5.8-1.4,10.9-4.7,16.9-5.7c5.1-0.8,10.3-1.1,15.4-1.5c8.4-0.6,17.3-1.1,24.8-5
	c9-4.7,11.8-14,13.5-23.5c1.2-6.6,1.9-13.2,4-19.6c2.1-6.5,6.4-11.6,9.6-17.5c3.1-6,4.8-12.6,5-19.3c0.2-6.1-3.8-12.2-2-18.2
	c0.6-1.8-2.2-2.5-2.8-0.8c-1.5,4.7,0.3,9.4,1.3,14.1c1.3,6-0.1,12.5-2.1,18.3c-1.7,5.1-5.1,9.3-7.8,13.9c-2.8,4.8-4.7,10.1-5.8,15.6
	c-1.2,5.6-1.8,11.4-3,17c-1.1,4.9-2.5,10-6.1,13.7c-5.9,6.2-15.3,7.4-23.4,8.1c-4.1,0.4-8.2,0.7-12.3,1c-5.3,0.5-10.6,0.8-15.6,2.7
	c-5.4,2-10.1,4.7-16,4.8c-5.9,0-11.8-1.3-17.1-3.9c-2.6-1.2-4.9-2.9-6.9-5c-1.8-2-3.3-4.2-5.1-6.2c-4.1-4.2-9.3-7.6-14-11.1
	c-4.9-3.6-9.7-7.4-14.6-11.1c-3.8-3-8.1-5.5-12.6-7.2c-5.1-1.8-10.5-2.7-15.9-2.6c-6.1,0-12.4,0.9-18.4-0.7
	c-4.4-1.1-8.7-3.6-12.7-5.8c-3-1.7-9-4.7-9-8.8c0-0.8-0.6-1.4-1.4-1.4S496.8,702.5,496.8,703.3 M463.1,589.9c-3,1.7-4.4,5.4-5.4,8.6
	c-1.3,3.8-1.7,7.9-1.3,11.9c0.6,3.1,1.5,6.1,2.7,9c1,3,1.7,6.1,2.4,9.3c1.5,7,1.4,13.6,0.9,20.7c-0.3,5.1-1.1,11.3,1.9,15.8
	c1.6,2.3,3,4.3,3.3,7.2s0,5.7,0,8.5c0,4.4-0.2,9.1,1.4,13.3s4.9,6,9.1,7.1c12.4,3.3,24.9,2.9,37.6,2.3c6.7-0.4,13.5-0.4,20.2,0
	c6.7,0.7,13.4,1.9,20,3.5c6.4,1.5,12.8,3,19.2,4c3.4,0.5,8.4,1.7,11-1.4c1.9-2.2,1.5-5.6,0.9-8.2c-0.8-4.1-2.2-8-4.2-11.7
	c-1.7-3.1-3.2-5.9-3.6-9.4s-0.5-7-0.6-10.4c-0.2-7.3-0.5-14.1-2.5-21.2c-1-3.3-2.1-6.7-2.9-10c-0.8-3.7-0.9-7.5-0.3-11.3
	c1-7.3,0.7-14.6,0.7-22c0-0.8-0.6-1.4-1.4-1.4s-1.4,0.6-1.4,1.4c0,6.2,0.4,12.6-0.3,18.7c-0.6,5.5-1.3,10.3,0.1,15.7
	c1.5,5.8,3.7,11.4,4.6,17.3s0.6,12.2,0.9,18.2c0.2,5.2,0.9,9.7,3.5,14.3c2.1,3.7,3.6,7.6,4.6,11.7c0.6,2.6,1.5,6.8-2.1,7.4
	c-2.6,0.5-5.6-0.3-8.2-0.8c-3.1-0.5-6.1-1.1-9.1-1.8c-11.6-2.6-23.1-5.5-35.1-5.8c-12.2-0.3-24.4,1.4-36.7,0.5
	c-5.6-0.3-11.1-1.3-16.4-3.1c-5.1-1.9-5.9-7-6.1-11.9c-0.2-4.6,0.4-9.4-0.1-14c-0.2-2.2-0.9-4.2-2.1-6.1c-1.2-1.9-2.6-3.4-3.1-5.6
	c-1.3-6.8,0.6-13.9,0.4-20.7c-0.3-6.4-1.4-12.8-3.3-19c-1.6-5.7-4-10.6-3-16.7c0.6-3.6,1.6-9.5,5.1-11.4
	C466.2,591.6,464.8,589.1,463.1,589.9 M654.2,584.1c-0.5,11.8-5.7,22.6-7,34.2s1.2,23.8-2.2,35.3c-1,3.4-1.4,6.9,2.1,8.9
	c3,1.7,6.9,1.7,10.2,1.7c6,0,11.8-2,17.8-1.2c5.3,0.7,10.5,2.6,15.9,2.3c5.1-0.3,9.8-2.1,14.6-3.5s9.8-1.2,14.6-2.4
	c4.3-1.1,7.9-3.7,10.2-7.5c2.1-3.5,2.5-7.6,2.6-11.6c0.1-5.2,0.5-10.4,1-15.6c0.6-6.1,1.1-12.3,3.1-18.1c1.5-4.3,3.1-8.3,3.7-12.8
	c0.4-3.2,0.7-6.5,0.7-9.8c0-5.9-0.1-14.3-4.9-18.6c-2.6-2.3-6.1-2.2-9.3-1.7c-4.8,0.7-9.3,2.4-14,3.4c-5.9,1.2-11.9,2.1-17.7,3.7
	s-11.4,3.7-17.1,5.7c-5.2,1.8-10.6,3.4-16,4.6c-4.4,1-8,0.8-11.8-1.8c-5-3.5-9.6-7.4-14-11.6c-3.9-3.6-7.5-7.6-12-10.5
	c-3.4-2.1-7.3-3.5-11.3-3.9c-2.8-0.4-8.5-0.5-9.7-3.8c-1.5-4.1,2.3-8.4,5.2-10.8c3.2-2.7,7-4.4,10.5-6.7c1.9-1.4,4.1-2.5,6.4-3.2
	c2.9-0.8,5.8-1.5,8.7-2.6c5-1.9,10.2-3.6,14.9-6.1c3.7-2,6.7-4.7,9.9-7.4s7.3-6.3,11.7-5.9c4.7,0.4,6.7,5.4,9.9,8.1
	c1.4,1.2,3.1,2.1,4.8,2.7c3.3,1.3,6.5,2.8,9.7,4.4c8.8,4.3,18,8.7,25.9,14.5c4.1,2.8,7.6,6.4,10.3,10.5c2.4,4,2.5,7.5,2.7,12
	c0.2,3.3,0.6,6.9,3.3,9.2c1.4,1.2,3.5-0.8,2-2c-3.2-2.7-2.4-8-2.6-11.7c-0.3-3.8-1.7-7.5-4-10.6c-5.2-7.3-13-12.3-20.7-16.5
	c-4.3-2.4-8.7-4.6-13.1-6.9c-2.8-1.4-5.7-2.8-8.5-4.1c-2.6-1.1-5.6-1.9-7.8-3.7c-3-2.5-4.7-6.3-8.4-8c-3.2-1.5-6.8-0.9-9.9,0.6
	c-3.8,1.9-6.9,4.8-10.1,7.5c-3.8,3.2-8.1,5.7-12.8,7.4c-5.4,2.1-10.7,4-16.2,5.5c-4.2,1.2-7.5,3.6-11.2,5.7
	c-6,3.4-14.1,8.8-13.6,16.8c0.5,7.5,9.9,7.1,15.3,8.2c5,1,9.2,4.2,12.9,7.6c4.2,4,8.4,8,12.8,11.7c3.6,3,7.3,6.7,11.9,8.2
	c3.5,1.2,7,0.5,10.5-0.3c11.2-2.6,21.7-7.2,32.8-10.3c5.7-1.6,11.4-2.4,17.2-3.6c4.9-1,9.8-3,14.8-3.5c3.9-0.4,6.5,0.8,8,4.5
	c1.2,3.4,1.8,7,1.8,10.6c0.3,7.7-0.9,15.4-3.6,22.6c-2,5.4-2.7,10.8-3.4,16.5c-0.7,5.4-1.2,10.8-1.4,16.2c-0.1,4.4,0.2,9.3-2,13.3
	c-2.9,5.1-8.1,6.6-13.6,7.1c-4.7,0.5-9.3,1.5-13.8,3c-5.7,1.8-10.9,2.6-16.8,1.5c-5.4-1.1-10.5-2.3-16-1.6c-4.9,0.6-9.6,1.5-14.6,1
	c-1.7-0.2-4.3-0.4-5.6-1.8c-1.6-1.8,0.1-5.2,0.7-7.2c1.5-5.4,1.4-11.3,1.4-16.8c0-6.2-0.4-12.6,0.5-18.7c0.8-5.6,2.5-11.1,4-16.6
	c1.5-5.3,2.5-10.7,2.8-16.1c0-1.8-2.9-1.8-3,0.1"/>
</svg>
