<svg xmlns="http://www.w3.org/2000/svg" viewBox="0 0 800 817.2"><rect width="800" height="817.2" fill="#c56661"/><path d="M595.12,383.22c-.52-.28-.86-.62-1.22-.64-2-.1-3.08-1.32-4.1-2.84-2-2.9-2.62-6.26-3.4-9.52-1-4.2-1.76-8.46-2.46-12.72-.4-2.42-.46-4.88-.68-7.32A9.59,9.59,0,0,0,583,349c-.2,0-.36-.12-.42-.06-2.26,1.66-5,1.84-7.58,2.38-1.7.36-2.2.94-1.92,2.64.42,2.52.84,5,1.28,7.56a5.85,5.85,0,0,0,.54,1.22c-.82.44-.7,1.3-.64,2.1.14,2.5.34,5,.42,7.52.08,2.28,0,4.56,0,6.84a6.1,6.1,0,0,1-.1,1c-.5,2.5-1.08,2.68-3.64,3.06-1.66.24-3-.46-4.56-.56a12.24,12.24,0,0,0-3.82,0,1.08,1.08,0,0,1-.82-.16,4,4,0,0,1-1.76-3.26c.06-2.44.14-4.9.1-7.34a108,108,0,0,0-1.32-16.06c-.12-.8-.34-1.58-.54-2.5-1.36,0-2.64,0-3.92,0-1.58,0-3.16.08-4.74.14-.88,0-1.38.36-1.38,1.38,0,2.5,0,5,0,7.54a85.75,85.75,0,0,1,0,9.62c-.32,3-.16,5.94-.26,8.9,0,.24,0,.46,0,.7-.2,1.6-1.28,2-2.74,1.1-.3.28-.58.78-.94.84s-.84-.28-1.28-.38-1-.14-1.44-.22c0,0-.1.06-.16.06a28.84,28.84,0,0,1-4.74,0,2.7,2.7,0,0,1-2.54-2.48c-.08-.82-.16-1.62-.18-2.44,0-1.64-.06-3.28-.06-4.9,0-1.8,0-3.62,0-5.42.1-4.68.2-9.34.36-14a2.11,2.11,0,0,0-1-2.18c-.86-.58-1.52-1.4-2.82-1.56-.1.6-.26,1.22-.3,1.82-.22,3.32-.38,6.64-.64,10-.34,4.18-.66,8.38-1.2,12.54a55.47,55.47,0,0,1-1.66,7.86,8.25,8.25,0,0,1-1.88,3.3c-1.1,1.22-2.46,2.12-4.34,1.6a9.91,9.91,0,0,0-2.44,0c-.64,0-1.28,0-1.92-.08a5,5,0,0,0-1.2-.1,9.7,9.7,0,0,1-10.48-3.9,2.24,2.24,0,0,0-2.7-1c-3.1.94-6.26.54-9.4.34-3.78-.24-7.58-.52-11.34-1.06-4.1-.58-8.22-1-12.2-2.32-1.82-.6-3.72-.88-5.82-1.36-.06.5-.14,1-.2,1.46-.3,2.9-.5,5.82-.92,8.7-.36,2.42-2.18,3.64-4.62,3.5-1.44-.08-2.86,0-4.3-.06-.12,0-.26,0-.34.06-1.2,1-2.54.64-3.92.54a4.6,4.6,0,0,1-3.16-1.62,4.44,4.44,0,0,1-1-1.8A50.21,50.21,0,0,1,443,377c-.12-6.42-.16-12.84-.26-19.26,0-.64-.06-1.28-.1-2a8.94,8.94,0,0,0-1.42-.08c-5,.28-10,.64-15,.88-2.62.12-5.24,0-7.86.12-2.8.12-5.6.42-8.38.64a1,1,0,0,0-1,1.16c0,3.26-.12,6.52.22,9.8a74.33,74.33,0,0,0,1.26,7.6,21.87,21.87,0,0,0,4.94,10.5,6.38,6.38,0,0,0,1.28-.64,44.9,44.9,0,0,1,4.1-3.48c1.48-1,2.06-2.46,2.94-3.8a42.64,42.64,0,0,1,2.72-3.82,2.34,2.34,0,0,1,1.3-.62,7.74,7.74,0,0,1,2-.16,2.13,2.13,0,0,1,2,1.32c.14.36.18.5.68.5a1.83,1.83,0,0,1,1.82,1.5c.3,1.22.42,1.3,2,1.48A11.34,11.34,0,0,1,435,383.8a17.92,17.92,0,0,1-6.16,6.78A13.46,13.46,0,0,1,420.2,393a30.09,30.09,0,0,0-4,.38c-1.52.14-3,.26-4.54.38a2.16,2.16,0,0,1-.88,0c-2.58-1-5.5-1.2-7.82-2.92a19.65,19.65,0,0,1-5.82-6.92,39.06,39.06,0,0,1-4-15.12,53.9,53.9,0,0,1-.1-10.32,3.35,3.35,0,0,0-.68-2.82,1.14,1.14,0,0,1-.08-1.1c1.44-1.74,1.26-3.86,1.38-5.86a54.69,54.69,0,0,1,2-10.8,2.28,2.28,0,0,0-.06-.52l-3-.4c.06.3.1.54.14.76-1.34,1.18-2.84,1-4.42.62-.68-.16-1.46-.6-2.3.22l3.84,2.14a7.19,7.19,0,0,1-3.74,0c-1.82-.6-3.7-1.06-5.56-1.5a10.09,10.09,0,0,0-7.9,1.32,15.9,15.9,0,0,0-4.18,4.16c-1.62,2.14-.62,7.3,1.28,8.74a1.94,1.94,0,0,1,.78,1.42c.18,1.14.56,2.16,1.94,2.36a1.35,1.35,0,0,1,.66.52c4.2,5,8.48,9.82,12.52,14.9a20.38,20.38,0,0,1,4.26,9.28,1.37,1.37,0,0,1-.1.48s-.1,0-.28.1c-.12-.64-.24-1.28-.38-1.9h-.26a2.92,2.92,0,0,0-.06.72,7,7,0,0,1-6.12,8,24.58,24.58,0,0,0-3.88,1c-.66.16-1.36.18-2,.3a18.7,18.7,0,0,1-9.68-.56,16.86,16.86,0,0,1-7-4.8,11.65,11.65,0,0,1-1.44-2,12.82,12.82,0,0,1-.8-2c.62-.44,1-.72,1.48-1,.42.24.86.46,1.48.8-.1-1-.18-1.82-.3-2.94.72.4,1.1.6,1.56.84l.56-.5a10.36,10.36,0,0,1,2.56,1,9.59,9.59,0,0,1,1.58,2.12l1.3-1.16a6.9,6.9,0,0,0,3.54,3.78,2.26,2.26,0,0,0,.52-2.8,19.33,19.33,0,0,0-3.54-6c-2.8-3.28-5.66-6.52-8.5-9.78-1.34-1.54-2.66-3.08-3.94-4.66a1.21,1.21,0,0,0-1.38-.44c-1.6.36-3.2.7-4.8,1l-12.54,2.4c-1.64.32-3.28.68-4.84,1-.48,3.4,1.74,16.28,3.22,18.76l.56-1c.46,1.34.9,2.58,1.46,4.2.92-1.52,1.66-2.7,2.36-3.92s1.3-2.42,2.08-3.88c.62.16,1.38.42,2.14.54s1.4-.16,2,.06a34,34,0,0,1,4.06,1.9c.7.36,1.32.8,2.26-.06,0,1.06.08,1.84.12,2.62a14.87,14.87,0,0,1-5.24,12.26,6.39,6.39,0,0,1-3.94,1.26c-1.22.1-2.44.16-3.66.28a4.4,4.4,0,0,0-1.54.3c-3.18,1.38-6.4,1.06-9.58.12a8.36,8.36,0,0,0-5.3.6c-3.7,1.38-7.46,1.26-11.24,1.06-3-.16-5.92-.6-8.88-.9a6.42,6.42,0,0,1-.86-.14,94.84,94.84,0,0,1-14.56-5.54c-.76-.38-1.58-.6-2.66-1,.2,1.34.34,2.34.52,3.36.62,3.68,1.26,7.36,1.84,11.06a3.91,3.91,0,0,1-.7,3.46c-1,1.16-2.4,1-3.64,1.36-.86.24-1.74.42-2.88.7a3.49,3.49,0,0,0-4.24,1.08c-.8,0-1.52-.12-2.22-.1a3.68,3.68,0,0,1-4.06-2.68,61.47,61.47,0,0,1-2-7.22c-.86-4-1.72-8.12-2.24-12.22-.62-4.92-.94-9.88-1.3-14.84-.26-3.78-.38-7.58-.56-11.38,0-.68-.16-1.36-.26-2.2-.36.18-.62.22-.72.36a33,33,0,0,1-10.88,9.46,11.09,11.09,0,0,1-2.52,1c-1.56.44-3,1.2-4.56,1.8-1.3.52-2.58,1.08-3.92,1.48-2.34.72-4.72,1.36-7.08,2a14.2,14.2,0,0,1-5.66.8,8.68,8.68,0,0,0-2.64.44,3.12,3.12,0,0,0-.16.84c.22,3.14.42,6.28.68,9.4.22,2.56.48,5.12.82,7.66.4,2.94.9,5.88,1.38,8.82.24,1.54.32,3.14,1.5,4.48-1,.74-2.06,1.36-2.94,2.12a6,6,0,0,1-2.9,1.46c-.22,0-.5.22-.64.12-1.22-.8-2.2,0-3.24.44-.06,0-.1.08-.16.08a8.84,8.84,0,0,0-2.08.22c-.6.22-1.08,1-1.66,1.08-2,.14-4.08.48-5.58-1.34a3.47,3.47,0,0,1-.76-1.34c-.72-3.18-1.6-6.36-2-9.58-.64-4.8-1-9.64-1.42-14.46-.14-1.56-.1-3.16-.16-4.72-.14-3.62-.38-7.22-.42-10.84-.1-7.18-.12-14.36-.1-21.54,0-2.56.16-5.12.22-7.68a9.38,9.38,0,0,0,0-1.06c-.06-1.28-.28-1.52-1.58-1.52s-2.8,0-4.2,0A26.12,26.12,0,0,1,193,342c-1.32-.36-1.86-1.5-2.52-2.42-.42-.58.58-2.62,1.3-3a7.59,7.59,0,0,1,1.62-.64,40,40,0,0,1,11.4-1.5,3.15,3.15,0,0,0,2.5-.94,5.89,5.89,0,0,1,3.12-1.4,45.46,45.46,0,0,1,8.7-.82,4.8,4.8,0,0,1,4.34,1.86,5,5,0,0,0,3.88,2c3.54.46,7.08.9,10.58,1.48a99.36,99.36,0,0,1,13.78,3.3,36.39,36.39,0,0,1,7.56,3.16c1.64,1,3.42,1.78,4.56,3.44a10.48,10.48,0,0,0,1.34,1.3,4,4,0,0,0,.92-2.06c.46-2.38,1.12-4.68,3.2-6.22a3.67,3.67,0,0,1,1.68-.82,28.82,28.82,0,0,1,5.56-.3,17.77,17.77,0,0,0,9.8-1.6,11.13,11.13,0,0,1,3.32-1,29,29,0,0,1,11.14-.16c1.7.38,3.48.38,5.2.66a11.13,11.13,0,0,1,7.56,4.64,21.22,21.22,0,0,1,1.22,2.32c.18.34.42.66.8,1.26a27.29,27.29,0,0,0,.68-3.32c0-.4-.42-.92-.76-1.26a2.71,2.71,0,0,1,.42-4.42c1.54-1,3.3-1,5-1.12a29.91,29.91,0,0,1,3.28,0c4.8.2,9.56-.4,14.34-.7a100,100,0,0,1,17.48,0c2.72.32,5.42.84,8.14,1.24a4,4,0,0,0,1.54,0c4.18-1.06,8.36-1.52,12.64-.34,1.26.36,2.68.16,4,.42,1.94.4,3.82,1,5.74,1.46a12.33,12.33,0,0,0,1.5.16c-.18-.3-.24-.52-.34-.54a9,9,0,0,1-4.46-3.18c-.54-.62-.7-2.18-.08-2.7a4.61,4.61,0,0,1,2.72-1.42c3.54-.2,6.94.6,10.38,1.22a36.68,36.68,0,0,0,6.8.48c7.88,0,15.78-.22,23.66-.2A92.62,92.62,0,0,1,439,331a18.22,18.22,0,0,1,7.22,2.68L443.64,335l.9,1.14c-1.46.26-2.78.56-4.1.74-2,.26-4,.56-6.06.64-6.88.28-13.78.48-20.68.7l-2.46,0c-.56,0-.8.34-.88.88-.26,2.44-.58,4.86-.84,7.28-.14,1.2-.2,2.42-.32,3.86,1.32-.08,2.46-.16,3.6-.2l15.58-.58a104.89,104.89,0,0,0,13.24-1.32c1.48-.24,1.62-.48,1.66-1.92,0-1.7.08-3.4.28-5.08a3.39,3.39,0,0,1,3.92-2.76l.86.16c1.48.22,2-.1,2.48-1.52a38.77,38.77,0,0,1,1.82-4.52c2.36-4.4,6.08-6.44,11.12-6.58,4.1-.12,7.74,1.54,11.58,2.44a9.94,9.94,0,0,1,5,2.78c3.3,3.4,6.56,6.86,7.38,11.84.28,1.72,1,3.36,1.22,5.08a20.2,20.2,0,0,1-1.7,11.82c-2.48,4.86-5.46,9.36-10.6,11.88-.72.36-1.52.56-2.28.86-.3.12-.58.3-1.16.6a10.4,10.4,0,0,0,1.78.8,98.3,98.3,0,0,0,18.72,2.4c2.14.06,4.28-.12,6.38-.18.08-.26.16-.38.12-.46a102.35,102.35,0,0,1-4.34-12.56,118.68,118.68,0,0,1-4.28-21.08,37.21,37.21,0,0,1,.32-7.14,2.26,2.26,0,0,1,2.68-1.9c2,.32,4,.74,6,1.08,1.24.22,2.56.2,3.64,1,.82.62,1.7,1.16,2.48,1.82.26.22.3.74.36,1.14.7,4.68,1.36,9.36,2,14a2.56,2.56,0,0,1,.08.86c0,.12-.38.14-.78.28.12.36.16,1.12.44,1.22,1.22.42.86,1.5,1,2.36l-.66-1.46-.34.12a115.74,115.74,0,0,0,4.44,15.22c.18-1.08.42-2.14.52-3.22.46-5.18.78-10.38,1.32-15.54.8-7.72,1.56-15.46,3.92-22.92a28.53,28.53,0,0,1,1.68-3.86c.66-1.38,2.12-1.18,3.24-1.26a9.52,9.52,0,0,1,6.14,1.48,10.47,10.47,0,0,0,2.92.86c.4.5.9,1.12,1.48,1.8-.52.72-.72,1.68-1.66,2.24-.24.14-.24.8-.28,1.22a15.63,15.63,0,0,1,0,1.68c-.52,2.64-1.26,5.22-1.64,7.88-.34,2.4-.3,4.86-.42,7.52a14.26,14.26,0,0,1,1.94-1.22,12,12,0,0,1,2.1-.48c.2-2,.34-3.82.6-5.66A51,51,0,0,1,538.8,327a9,9,0,0,1,3.94-4.56,9.78,9.78,0,0,1,6.44-1.08c1.48.26,2.9.86,4.38,1.26s2.68.68,4.08,1c.2-.46.36-.82.54-1.18a2.05,2.05,0,0,1,1.94-1.18c2.6-.14,5.06.74,7.58,1a65.73,65.73,0,0,0,7.64.7c5.48,0,11-.3,16.46-.48,4.44-.14,8.86-.4,13.3-.44a63,63,0,0,1,10.6,1,29,29,0,0,0,4,.22,8.37,8.37,0,0,1,3.54.78c1.2.58,2.56.8,3.8,1.28a5.69,5.69,0,0,1,3.5,5.52c-.12,3.08-.18,6.16-.32,9.24a10,10,0,0,1-.38,1.84,3.14,3.14,0,0,0-.18,1c.86,4.2.42,8.46.8,12.7.14,1.54-.08,3.12-.08,4.68a8.57,8.57,0,0,0,.28,1.72c.3,1.6.64,3.2.88,4.82a11.07,11.07,0,0,1,0,2.44,12.46,12.46,0,0,0-.22,2.4c.38,2.42.9,4.82,1.42,7.2a4.78,4.78,0,0,0,.78,1.52c.54.84.4,1.6-.52,1.7a12.66,12.66,0,0,1-3.6.2,18.19,18.19,0,0,0-4.66-.22,5,5,0,0,1-4.82-2.18,15.38,15.38,0,0,1-2.58-6.46c-.82-4.3-1.48-8.62-2-13a160.91,160.91,0,0,1-.78-22.38c0-2.4.18-4.78.3-7.18.08-1.56-.16-1.88-1.78-1.78-2.56.16-5.12.42-7.68.64-2,.18-4.08.38-6.12.58-.34,0-.68.14-1.18.24-.18,2.38-.48,4.74-.5,7.1,0,3.44.1,6.9.3,10.32A108.4,108.4,0,0,0,599.06,362c.88,4.64,1.7,9.3,2.66,13.92a33.4,33.4,0,0,0,1.42,4.12,7.89,7.89,0,0,1,.44,1.14,1.62,1.62,0,0,1-1.88,2c-1.72-.2-3.44-.34-5.14-.64A1.18,1.18,0,0,0,595.12,383.22Zm-369.6-7.46a4.2,4.2,0,0,0,1.06.12,44.56,44.56,0,0,0,5.86-1.64,38.23,38.23,0,0,0,9-5.38,22,22,0,0,0,8-10.38c.9-2.6.6-4.54-1.58-6.26a24,24,0,0,0-4.58-2.84,57.61,57.61,0,0,0-13.4-3.92,11.93,11.93,0,0,0-4.72-.48C225,355.24,224,365.4,225.52,375.76Zm87.92-11a34.53,34.53,0,0,0-3.6,4.06c-1.16,1.82-3.82,1.5-4.64,3.62,0,.06-.22.06-.32.12a13.81,13.81,0,0,0-2.4,1.3c-2.38,2-5.26,2.94-7.94,4.34a10.54,10.54,0,0,1-1.86.46,13.08,13.08,0,0,0-4.34,1.56c.42.28.66.52.94.66,1.2.56,2.46,1.06,3.64,1.66,1.44.74,2.82,1.66,4.28,2.38,6.24,3.06,12.42,6.18,19.08,8.34a5.71,5.71,0,0,0,5.62-.74,15.29,15.29,0,0,0-.64-1.42,35.07,35.07,0,0,1-2.82-8.06A94.44,94.44,0,0,1,316,367.18C315.8,365.08,315.6,364.88,313.44,364.76ZM283.32,375.3a8.44,8.44,0,0,0,1.5-.44,35.79,35.79,0,0,0,9.76-6.66c.36-.36.7-.78,1-1.18a26.71,26.71,0,0,0,4.6-8.16c1.16-3.14,1.9-6.22,1-9.54a10.22,10.22,0,0,0-3.16-5.14c-1.66-1.42-2.56-1.44-4.4-.3a9.13,9.13,0,0,0-1.14.82,28.67,28.67,0,0,0-4.78,5.06,21.36,21.36,0,0,0-3.5,6.8A29.75,29.75,0,0,0,283,368.14c.1.92,0,1.86.08,2.8C283.12,372.3,283.22,373.68,283.32,375.3Zm179.52-6.14A5,5,0,0,0,466,368a26.87,26.87,0,0,0,4.84-5.68c4.26-6.38,5-13.08,2-20.12a19.26,19.26,0,0,0-5.9-7.86c-1.84.42-2.48,2-3,3.32a16.7,16.7,0,0,1-.94,2.7,2.81,2.81,0,0,0-.2,1c-.12,1.22-.24,2.42-.34,3.64a34.59,34.59,0,0,0-.42,5.9,63.51,63.51,0,0,1,.24,8.72c-.06,1-.46,2.24-.08,3.08.72,1.56.22,3.1.48,4.62A16.39,16.39,0,0,1,462.84,369.16ZM355.18,341.44c-.66-.16-.92-.24-1.2-.32-3.14-.72-6.28-.06-9.42.08-3.78.18-7.54.6-11.3.92a11.6,11.6,0,0,0-1.62.32c.18,5.06-.44,9.92.48,15l20.66-3.68C351.82,349.3,351.7,345.14,355.18,341.44Zm228.46-10.68a67,67,0,0,1-16.88-2.12,5.91,5.91,0,0,0-1.58,0,2.11,2.11,0,0,0,.14.52c2.78,4.06,4.16,8.72,5.48,13.38.72,2.56.68,2.58,3.38,2.58h.36a10.83,10.83,0,0,1,4.62.78,7.29,7.29,0,0,0,3.7.82C583.1,341.46,583.36,336.3,583.64,330.76Zm-32.42,1.44A33.74,33.74,0,0,0,548.76,346a41.23,41.23,0,0,0,7.58-.16C556.68,343.14,553.52,334.56,551.22,332.2Zm-88.7,5.66c-1.28,2.42-2.34,8-1.78,10C461.36,344.42,461.92,341.2,462.52,337.86ZM211.9,468.22a16.42,16.42,0,0,0-.9,5.6c.4,3.92-.12,7.8-.24,11.7q-.21,8-.54,16.08c-.1,2.44-.28,4.9-.42,7.34-.06.94-.1,1.86-.12,2.8a50.2,50.2,0,0,1-1.28,10.06,4.54,4.54,0,0,1-1.92,2.82c-.68.46-1.32,1-2,1.46a5.37,5.37,0,0,1-3.52,1.24,15.85,15.85,0,0,0-3.94.62c-1.52.34-3,.7-4.54,1.16-1.3.4-3-.22-4.42-.54-.3-.06-.64-.8-.66-1.26-.14-2.22-.22-4.44-.24-6.64,0-5.14.06-10.28-.08-15.42-.18-6.44.38-12.84.6-19.26.18-5.48.22-11,.28-16.46,0-2.44,0-4.9-.08-7.34-.06-2-.22-4-.3-5.94a24.7,24.7,0,0,1,0-3,3.42,3.42,0,0,1,2.68-3c.94-.22,1.9-.5,2.84-.74.12,0,.28-.12.32-.08,1.1.88,1.9,0,2.82-.38a27.11,27.11,0,0,1,3.52-1,3.34,3.34,0,0,0,2-1.36c.72-1,1.38-2,2.18-3a24.18,24.18,0,0,1,2.94-3,6,6,0,0,1,2.18-1,38.1,38.1,0,0,1,5.46-1c1.9-.2,3.8-.16,5.7-.38a7.49,7.49,0,0,1,4,.94,1.79,1.79,0,0,1,.7.5c2,2.8,4,5.44,4.78,9s.44,7.08,1,10.58l.72,4.56.38.06c.36-.88.76-1.76,1.08-2.66,1.68-4.48,3.24-9,5.06-13.44a64.7,64.7,0,0,1,3.78-7.3,61.11,61.11,0,0,1,3.48-5.64,6.34,6.34,0,0,1,6.12-2.9c.34,0,.78.14,1,0a1.71,1.71,0,0,1,2,0,1.86,1.86,0,0,0,.82.12c.86,0,1.74-.12,2.58-.06a4.43,4.43,0,0,0,2.34,0c.74-.32,2,.6,2.28,1.42s.56,1.74.8,2.5c.28.06.36.1.38.08,2.36-1.84,5.22-1.7,8-2,3.42-.38,6.86-.78,10.28-1.08,2.84-.26,5.7-.44,8.56-.56,3.6-.18,7.22-.28,10.84-.38,1,0,2,0,3,0,3.56.18,7.1.32,10.66.6a37.94,37.94,0,0,1,7.74,1.42c.1.74.18,1.36.3,2.18a6.46,6.46,0,0,0,1.4.3c1.16,0,2.32-.18,3.5-.26a2,2,0,0,0,1.78-1.22,5.94,5.94,0,0,1,4.82-3,14.66,14.66,0,0,1,6,.46,32.88,32.88,0,0,0,3.72.6c.36,1.68,1.48,1.86,3.08,1.7,5.52-.56,11-1,16.58-1.44a3,3,0,0,0,1.32-.42,9,9,0,0,1,6.9-.86,27.36,27.36,0,0,0,3.64.34c3.14.28,4.24,1.16,4.46,4,.14,1.68,0,3.4.24,5.06a57.49,57.49,0,0,1,.56,6.68c.06,2.5.06,5,.1,7.5,0,.28.06.56.1,1a24,24,0,0,0,6.94-1.1c.66-1.32,0-2.64-.14-3.92-.52-3.82-1.36-7.58-1.8-11.42-.66-5.68-1.76-11.32-1.76-17.06,0-2.28,0-4.54.16-6.82.14-2,1.66-3.1,3.56-3.44,2.38-.44,4.62.44,6.94.46a4.33,4.33,0,0,1,.86.16c.78.14,1.76,0,2.3.46a4.75,4.75,0,0,1,1.44,3.08c.26,1.78.4,3.6.68,5.38.52,3.4,1.06,6.78,1.68,10.16.22,1.2.34,2.5,1.46,3.4.26.2.3.74.34,1.14a58.59,58.59,0,0,0,1.14,6.7c.56,2.42.72,5,1,7.44a4.36,4.36,0,0,0,.18.58l2.76.28c.08-.68.2-1.34.26-2a44.48,44.48,0,0,1,2.58-11.4c.78-2.14,1.5-4.3,2.28-6.44a7.28,7.28,0,0,1,3.16-4c1.1-.64.86-1.9,1.1-2.92,1.28-.7,2.58-1.3,4.12-.7.24.1.56,0,.86-.08a12.52,12.52,0,0,1,8.54,2.4c.38.28,1,.46.68,1.2-.06.12.18.4.32.58a37.6,37.6,0,0,1,5.68,7.94c1,2.06,2,4.14,3.08,6.4.12-.76.24-1.44.42-2.56.58,1.4,1,2.44,1.44,3.48h.24c.14-3.8.14-7.6.48-11.38A48.06,48.06,0,0,1,446,421.5c0-.06,0-.22-.12-.24a19.07,19.07,0,0,0-8.16-1.68,49.89,49.89,0,0,1-5.74-.2,3,3,0,0,1-2.46-3.76,3.12,3.12,0,0,1,1.08-1.46,12.46,12.46,0,0,1,7.48-2.08,58.47,58.47,0,0,1,22.42,4.08,41.07,41.07,0,0,1,5.76,2.94,94,94,0,0,1,18.88,14.44,23.11,23.11,0,0,1,5.16,6.82,4.79,4.79,0,0,1,.52,2.7c-.22,1.56-.08,3.16-.4,4.68a57.61,57.61,0,0,1-1.68,5.68c-.1.28-.56.72-.72.66-1.16-.42-1.28.52-1.68,1.16a29.19,29.19,0,0,1-6.56,7.2c-1.26,1-2.12,2.52-3.88,2.86a1,1,0,0,0-.56.4c-2.2,3-5.64,4.12-8.8,5.64-.82.4-1.7.7-2.58,1.06a6.8,6.8,0,0,0,1.48,3.28c1,1.2,2.12,2.36,3.36,3.74H466.1c-.32.54-.46,1-.78,1.26a1.56,1.56,0,0,1-1.16,0,6.34,6.34,0,0,0-3.12-.1c-1.44.22-2.88.44-4.32.62a3.16,3.16,0,0,1-2.78-1.22,24.42,24.42,0,0,1-2.24-3.1c-1-1.64-1.06-1.68-3-1.32-.68.14-1.36.34-2,.5-2.08.54-3.86-.24-5.56-1.34a1,1,0,0,1-.28-1.54c.62-.92,1.28-1.8,2-2.66a2.22,2.22,0,0,1,.94-.38c.32-.1.74-.08,1-.28a3.78,3.78,0,0,1,3.4-.92l-1.56-5.76a1.51,1.51,0,0,1-.3,0,9.41,9.41,0,0,0-.42,1,13.21,13.21,0,0,1-3.08,5.42c-.88.94-1.7,1.94-3.12,2.12a1.21,1.21,0,0,0-.76.42c-1,1.2-2.38,1.38-3.74,1.6-2,.32-4,.5-6,.8-.92.14-1.84.34-2.74.56a13.22,13.22,0,0,1-7.58,0,11,11,0,0,1-5.86-3.94,12.53,12.53,0,0,1-1.6-2.66,44.31,44.31,0,0,1-1.88-6.54c-.42-2.34-.48-4.74-.7-7.1-1.46.4-1.74.7-1.62,2.06.2,2.26.16,4.54.94,6.74a8.28,8.28,0,0,1,.18,1.74,19.23,19.23,0,0,0,.46,2.38c.14.5.42.88-.14,1.4a1.42,1.42,0,0,0,.12,1.4c1.28,1.2,1.48,2.72,1.56,4.38l-.8.26c1,4.36,1.92,8.72,2.92,13.22-.54.6-1.2,1.3-1.88,2a2.71,2.71,0,0,0-1.58-.2c-2.3.52-4.68.74-7,1.06-.22,0-.52,0-.68.06a1.68,1.68,0,0,1-2,.1c-.84-.52-1.76-.92-2.14-1.94s-1-2.26-1.36-3.42a149.4,149.4,0,0,1-4.7-16.86c-.34-1.66-.76-3.3-1.18-4.94-.3-1.16-.48-1.3-1.56-1.12-2.24.38-4.48.82-6.8,1.24a5.29,5.29,0,0,0-.18,1.2c.4,3.9.88,7.78,1.26,11.66a17,17,0,0,1-.14,2.74c.4,1.14.74,2.16,1.1,3.18a1.66,1.66,0,0,1-.14,1.66,1.8,1.8,0,0,0,0,1.3c.34,1,.8,2,1.26,3.18-.64,1.18-1.72,1.58-3.1,2-1.86.56-3.76.14-5.6.86a8.4,8.4,0,0,1-4.62.26,5.3,5.3,0,0,1-2.12-1.12,7.88,7.88,0,0,1-2.36-3.42,42.12,42.12,0,0,1-2.42-10c-.44-3.82-.8-7.66-1.2-11.5,0-.4-.14-.8-.26-1.38-.9-.08-1.82-.12-2.72-.26-2.06-.36-4.12-.68-6.14-1.22-.7-.2-1.24-1-1.8-1.46.32-2.08.88-2.74,2.7-3,2.48-.32,5-.58,7.72-.9.06-2.8.14-5.74.18-8.68s0-5.92,0-9l-6.22.9c-1.56.22-3.12.5-4.68.66-2.6.28-5.22.5-7.82.76-1.42.14-1.74.36-1.86,1.82-.34,3.94-.64,7.9-.82,11.84-.16,3.32-.24,6.66-.12,10,.14,3.66.56,7.32.86,11a58.57,58.57,0,0,0,2,9.78,3.26,3.26,0,0,0,2,2.64c.76.3,1.36,1,2.1,1.38a15.39,15.39,0,0,0,2.24.66,4.92,4.92,0,0,1,.24,2.76,4,4,0,0,1-3,2.7c-.78.24-1.54.5-2.32.68a11.45,11.45,0,0,1-1.66.24l-1.38.16-2.74.38c-.4.06-1-.06-1.18.16a2.73,2.73,0,0,1-2.92.5,6.7,6.7,0,0,1-3.4-1.7,19.75,19.75,0,0,1-5.18-9.94c-.36-1.58-.8-3.16-1.12-4.76a53.38,53.38,0,0,1-1-5.86,140.26,140.26,0,0,1-.1-20.5c.14-2.2.24-4.4.36-6.74a3.32,3.32,0,0,0-1,.3c-2.8,1.86-6,2.76-9.08,4.1-1.58.7-3.32,1.1-4.72,2.22a2.6,2.6,0,0,1-1,.42c-3.78,1-7.16,3.06-10.82,4.4a25.41,25.41,0,0,1-6.76,1.7c-.7.06-1.38.22-2.2.34-.1.66-.26,1.28-.3,1.9-.14,3.16-.12,6.32-.4,9.46-.36,3.88.26,7.68.54,11.52.06.84.3,1.66.44,2.5a2.66,2.66,0,0,0,.38.1,12.31,12.31,0,0,0,1.14-1.6,35.91,35.91,0,0,0,2.34-7.86c.52-2.44,1.36-4.82,2.08-7.22a8.6,8.6,0,0,0,.5-1.48c.08-1.26,1-1.84,1.84-2.54a1.17,1.17,0,0,1,.94-.16c.88.22,1.72.54,2.62.82a7.23,7.23,0,0,0,.56,1.42c.24.32.76.74,1.06.68,1.52-.34,2.24.52,2.86,1.64a3.35,3.35,0,0,0,.54.6c.32-.38.6-.72.88-1,.12.08.28.14.28.22.24,2,1.08,3.86,1.1,5.88a25.6,25.6,0,0,1-1.32,9.28c-.72,1.92-1.5,3.8-2.18,5.74-.5,1.42-.9,2.84-1.44,4.26-.74,1.88-2.2,2.8-3.6,3.86-2.1,1.56-4.64,2.16-7.12,2.78a19,19,0,0,1-4,.26,4.36,4.36,0,0,0-3.1,1,1.64,1.64,0,0,1-1.1.34c-1.5-.1-3-.28-4.52-.44-2.7-.3-4.36-2.12-5.84-4.1a20.19,20.19,0,0,1-3.38-8.36,51.05,51.05,0,0,1-1.1-13c.26-4.26.48-8.5.74-12.76.28-4.6.58-9.22.92-13.82.22-3,.56-6,.84-9.06.08-.8.08-1.58.12-2.4-3.24-.42-6.38.92-9.4-.82a6,6,0,0,0-.36,1.44c-.08,2.72-.14,5.46-.18,8.18,0,2.5-.18,5-.08,7.5.1,2.26.46,4.48.68,6.74a26,26,0,0,1,.22,2.78,50.43,50.43,0,0,0,.72,10.26,14.08,14.08,0,0,1,.06,2.6,21.59,21.59,0,0,0,.56,4.92c.46,2,.46,4,.74,6a38.39,38.39,0,0,0,.9,4.76,64.2,64.2,0,0,0,2.08,6.66,28,28,0,0,0,2.34,4.3,5.24,5.24,0,0,0,1.22,1,4.06,4.06,0,0,1-3.9,3.2,32.27,32.27,0,0,1-5.38.54,1.51,1.51,0,0,0-.82.24c-1.7,1-3.54.88-5.4.76a3.49,3.49,0,0,1-1.5-.4,13.41,13.41,0,0,1-4.08-4c-2.82-4.42-3.72-9.4-4.46-14.44-.4-2.72-.74-5.44-1.14-8.14a6.2,6.2,0,0,0-.46-1.22,8.4,8.4,0,0,0-.5,1.08c-.52,2.68-1,5.38-1.54,8-.5,2.46-1,5-2.92,6.8a46.48,46.48,0,0,1-5.84,4.4,3.28,3.28,0,0,1-2.36.06,1.84,1.84,0,0,0-2,.52c-1,1.08-2.42,1.08-3.72,1.12s-2.68-.32-4-.24c-2.56.16-4-1.28-5.08-3.28a23.12,23.12,0,0,1-2.22-7.52c-.7-4.74-1.28-9.5-1.8-14.24-.24-2.2-.22-4.42-.38-6.64s-.42-4.36-.62-6.54A2.52,2.52,0,0,0,211.9,468.22Zm249.6-2.38c1.12-.72,1.92-1.26,2.74-1.78a55.14,55.14,0,0,0,4.22-3.56,27.59,27.59,0,0,0,7.36-9.66,8.84,8.84,0,0,0-1.42-10.4,49.18,49.18,0,0,0-3.86-3.78A96.67,96.67,0,0,0,460.38,429c-.5-.36-1-.64-1.62-1a2.81,2.81,0,0,0-.26.68c-.14,2.78-.32,5.56-.34,8.34,0,1,.52,2,.56,3,.06,1.86,0,3.7-.08,5.56a17.36,17.36,0,0,0-.06,2.28c.46,3.88.9,7.76,1.48,11.62C460.34,461.44,460.94,463.4,461.5,465.84ZM289.08,455.36c.92-.28,1.42-.38,1.9-.56,3.38-1.26,6.72-2.62,10.14-3.8,5.06-1.74,10.06-3.7,15.38-4.68a66.59,66.59,0,0,1,8.44-1.26,6.8,6.8,0,0,0,.92-.18v-.4c-.52,0-1.06,0-1.58,0-1.16,0-2.34.16-3.48.08-3.9-.28-7.78-.64-11.68-.94-.54,0-1,0-1.32-.62a1.32,1.32,0,0,0-.84-.56c-.8-.16-.94-.7-1.06-1.4-.2-1.24-.28-1.28-1.62-1.24-1.16,0-2.3.06-3.46.12-3.14.18-6.28.36-9.42.56-1.26.08-1.3.18-1.38,1.48-.14,2.56-.36,5.12-.54,7.68C289.32,451.38,289.22,453.18,289.08,455.36ZM427.36,436l-.56,0a11.25,11.25,0,0,0-.7,1.88c-.36,1.88-.58,3.8-.94,5.7A36.79,36.79,0,0,0,424.1,453a21.63,21.63,0,0,1,.18,2.78c-.24,3.4.74,6.56,1.8,9.7a6.88,6.88,0,0,0,1.08,1.56c.6-.5,1.14-.74,1.38-1.16a28,28,0,0,0,2.86-5.18,24.2,24.2,0,0,0,0-14.82c-.64-2.12-1.4-4.22-2.22-6.26C428.68,438.36,428,437.22,427.36,436ZM288.14,480.26h.48l-.12-1.12-.36,0Zm.12-3.16h.24v-1.6h-.24Zm.16-10.82.28.18a.94.94,0,0,0,.12-.3c0-.08-.08-.16-.12-.26C288.6,466,288.52,466.16,288.42,466.28Zm424.76-116.1a9.12,9.12,0,0,0,.2,3.44c1.16,4.94,2.18,9.9,3.22,14.86a7,7,0,0,1,.1,1.72,2,2,0,0,0,.68,1.84,1.51,1.51,0,0,1,.46.9,7,7,0,0,0,2,4.14,6.68,6.68,0,0,1,.74,1.34,12.57,12.57,0,0,1-3.36.46,12.47,12.47,0,0,0-4.1.5,2.11,2.11,0,0,1-1.94-.38,9.7,9.7,0,0,1-1.44-1.28,83.23,83.23,0,0,1-9.34-11.8c-2.54-4.12-5.18-8.2-7.54-12.42-2.46-4.42-4.64-9-6.94-13.54a5.5,5.5,0,0,0-1-1.44c-.74,2.4.18,4.8-.08,7.18a40.88,40.88,0,0,0-.08,7.34c.18,2.42.82,4.8.86,7.28a49.88,49.88,0,0,0,.88,7.28c.38,2.4.92,4.8,1.4,7.26l-1.3.92-1.94-.34c-.12,0-.24,0-.34,0a19.78,19.78,0,0,0-5.74-.34c-2.56.06-3.7-1.18-4.2-3.62a62.7,62.7,0,0,0-1.92-6.54,102.08,102.08,0,0,1-5.06-27.48,59.77,59.77,0,0,1,.22-6.82c.14-1.88,1-3.18,3.58-2.8l2.94.48c.18-.68.3-1.4.54-2.08.42-1.2.88-2.4,1.42-3.56a2.39,2.39,0,0,1,2.26-1.3c3.06-.28,5.72.8,8.3,2.22a4.68,4.68,0,0,0,1.1.54c2.8.74,4.4,2.78,5.58,5.18,2.56,5.24,5,10.52,7.54,15.78.6,1.26,1.3,2.48,1.86,3.76a18.62,18.62,0,0,0,1.36,3.06,3.17,3.17,0,0,0,.06-.86c-.82-5-1.86-10-2.44-15a42.29,42.29,0,0,1,.3-12.4,25.17,25.17,0,0,1,3-9.06c2.16-3.44,4.7-4.54,9.08-4a19.83,19.83,0,0,1,2.22.46,4.17,4.17,0,0,1,2.78,1.6,5.33,5.33,0,0,0,2,1.38,4.57,4.57,0,0,1,2,2.26H721.2c.22.74.42,1.36.64,2.12a4.09,4.09,0,0,1-3.32,0c-1.52-.5-1.7-.48-2.66.76-1.62,2.06-2.12,4.52-2.46,7a63.45,63.45,0,0,0-.5,6.44,42.88,42.88,0,0,0,.26,5.06c0,.58.36,1.12-.36,1.52a.91.91,0,0,0-.26.78c.16,1.48.36,3,.62,4.46,0,.2.5.3.92.54-.14.5.7,1.38-.5,1.84.14.86.3,1.72.44,2.56a11.88,11.88,0,0,1,.3,2.64c-.4-.62-.78-1.22-1.14-1.86-.08-.72-.14-1.46-.26-2.18-.08-.44-.32-.88-.36-1.32-.12-1.38-.16-2.76-.3-4.12a4.36,4.36,0,0,0-.44-1A17.07,17.07,0,0,0,713.18,350.18Zm-30.26-6.86h.1v-1.48a.15.15,0,0,0-.1,0Zm28.14-13.8h.08c0-.26,0-.5,0-.76h-.12ZM683.74,352.8c0,.1.06.2.08.3s.24-.08.24-.12a1.6,1.6,0,0,0-.1-.42A2.4,2.4,0,0,1,683.74,352.8ZM643,332.14a4.44,4.44,0,0,1-2.3-3.78c0-.78.2-1.18,1-1.34a11.5,11.5,0,0,1,5.82.42,8.84,8.84,0,0,0,3.58.5c1.84-.26,3.1.8,4.56,1.42a5,5,0,0,0,1.6.6c1.28,0,1.78.64,1.82,1.82a3.66,3.66,0,0,0,.18.64l-2.24.32c-.12.74.52,1.1.88,1.56a39.38,39.38,0,0,1,5.42,8.12c1.54,3.46,3.32,6.82,4.18,10.54a40.15,40.15,0,0,1,1.3,9.14c0,1.44.1,2.88,0,4.34a15,15,0,0,1-1.26,5c-1.8,4.46-5.4,6.72-9.82,7.9a6.18,6.18,0,0,1-2.1,0c-3.6-.34-7.22-.5-10.78-1.12a10.61,10.61,0,0,1-6.82-4.48,17.27,17.27,0,0,1-3-8.66,42.38,42.38,0,0,1,1.16-15.46c.88-3.2,2-6.34,3.18-9.46.8-2.12,1.9-4.12,2.86-6.2C642.54,333.4,642.74,332.8,643,332.14Zm9.12,12.2-.48.06c-.78,3.16-1.68,6.3-2.3,9.5-.42,2.16-.28,4.44-.68,6.62a23.34,23.34,0,0,0,.58,9.7,6.86,6.86,0,0,0,.68,1.4c.44-.3.68-.46.9-.64,2.88-2.38,4.1-5.58,4.54-9.18a28.18,28.18,0,0,0-1.2-11.76C653.56,348.12,652.8,346.24,652.12,344.34ZM508.24,410.52c-.2.56-.34.9-.5,1.32,1.22.64,2.94-.34,3.9,1.34-.34.16-.7.28-1,.46-.88.44-1.86.64-2.46,1.58a2.31,2.31,0,0,1-1.18.68c-2.34.72-3.26,2.62-3.68,4.7a15.18,15.18,0,0,0,1.24,9.92,58.82,58.82,0,0,0,4.1,6.92,87,87,0,0,0,8.26,9.76c3.14,3.44,6.66,6.56,9.2,10.52a23.2,23.2,0,0,1,2.86,6c1.3,4.36-.76,7-4.94,8.32a30.08,30.08,0,0,1-4.5.58c-1.68.24-3.34.48-5,.8a20,20,0,0,1-12.2-1.78c-2.82-1.26-5.56-2.68-8.34-4.06-.4-.2-.8-.44-1.26-.72a2.18,2.18,0,0,1,2.46-1.32,26.4,26.4,0,0,1,4.84.7c3,.74,5.94,1.72,8.94,2.48a5.12,5.12,0,0,0,5.7-2.1,2.71,2.71,0,0,0,.44-3,26.12,26.12,0,0,0-2.46-4.22,52.39,52.39,0,0,0-3.86-4.3c-.7-.74-1.2-1.76-2.38-2a.46.46,0,0,1-.26-.22c-1-1.6-2.72-2.4-3.94-3.76a5.82,5.82,0,0,1-.8-1.14,9.54,9.54,0,0,0-3.32-3.7,1.8,1.8,0,0,1-.64-.58c-1.06-2.08-2.94-3.58-4-5.66s-2.16-4.14-3-6.3a19.72,19.72,0,0,1-.88-10.54,11,11,0,0,1,1.76-4.16,12,12,0,0,1,7.72-5.6c1.66-.34,3.3-.82,5-1A23,23,0,0,1,508.24,410.52ZM714.58,355.1c.44.76.9,1.5,1.34,2.26l-.36.18a5.17,5.17,0,0,1-1-2.44Zm-303.2,20.46.3,1.16-.34.08c-.08-.38-.18-.78-.26-1.16A1.32,1.32,0,0,0,411.38,375.56Zm303.2-20.46c.12-.5-.4-1.16.56-1.62-.24.64-.4,1.14-.56,1.62Z"/><path d="M390.66,66.06c-19.52-12.8-40.42-23.72-63.82-26.8a133.91,133.91,0,0,0-15.26-.64c-2,0-4-.08-6-.26l-.34,0c-1-.36-3.26-.94-3.5-1C295,34.84,288.12,33.16,281,34.6c-7.8,1.56-13.14,6-18.68,11.2-1.26,1.2-2.6,2.34-4,3.44-.76.6-1.54,1.16-2.3,1.74-2.88,2.22,2-1.32,2-1.36-2.44,2.58-7.46,4.28-10.64,5.7-1.48.66-3,1.28-4.52,1.88l.84-.24c-.76.2-1.5.5-2.24.74-3.78,1.22-7.62,2.3-11.46,3.32-17.32,4.52-34.8,8-51.4,15-9.36,3.9-18.18,9-26.84,14.2-9.46,5.72-19,11.48-27.86,18.08-17.8,13.22-30,32.74-42.1,51Q64.1,186.06,48,213.94,40,227.68,32.5,241.68c-3,5.58-4.72,11.24-3.36,17.62a22.6,22.6,0,0,0,2.14,5.78c-.34,1.08-.68,2.16-1,3.26-3.34,11.42-7.18,22.76-9.22,34.48-4.5,25.8,15.58,45.7,39.28,51.06,23.16,5.24,47.4,3.38,65.74-13.28,7.76-7,13.72-15.82,20.2-24,.56-.7,1.14-1.38,1.68-2.08a.28.28,0,0,0,.06-.08c2.3-2.56,4.6-5.12,6.8-7.78,4.56-5.54,7.62-11.78,10.52-18.36,1.36-3.08,2.82-6.22,4.1-9.36a7.4,7.4,0,0,1,.84-2.3l.18-.34,0-.08c.52-1,1-1.95,1.55-2.9,1.34-2.42,2.74-4.82,4.2-7.16a205.58,205.58,0,0,1,17.54-23.76c.34-.4,3.78-4,1-1.2s.74-.8,1.06-1.16c1.7-1.9,3.42-3.76,5.16-5.62,3.48-3.7,7-7.34,10.62-11,6.7-6.76,13.44-13.54,21-19.42q1-.78,2-1.5c-.1.12,1.94-1.34,2.34-1.56.8-.48,1.6-.94,2.42-1.4,1.74-1,3.54-1.78,5.34-2.6,1.2-.24,3.72-1.3,4.3-1.46,9.16-2.48,18.62-3.58,27.68-6.4,10.9-3.4,20.78-8.38,31-13.42,2.2-1.08,4.4-2.16,6.64-3.14q1.35-.6,2.7-1.14c1.36.14,3.88-1.26,5.2-1.58a77.25,77.25,0,0,1,8.26-1.62l2.18-.28h.24c2.08,0,4.14-.06,6.22,0,4.32.18,8.62.64,12.92,1.1,9.58,1,18.86,1.42,28.46.16C404.74,166,423.62,145.2,425,120.82,426.32,96.68,409.52,78.42,390.66,66.06Z" fill="#8bc53f"/><path d="M149.5,141.66a11.47,11.47,0,0,0-6.72-3.52A21.08,21.08,0,0,0,147,135.2c4.26-3.8,5.06-11.14,1-15.4s-10.86-5-15.4-1h0c-4.88-2.34-11.32-1.56-14.34,3.44-2.88,4.78-2.26,12.12,3,15.14a23.34,23.34,0,0,0,13.06,3.1l-.18.18c-14.64,15.72-29.34,31.4-43.9,47.2-14,15.16-27.86,31.52-32.8,52-1.38,5.72,1,11.82,7,13.78,5.26,1.74,12.4-1.18,13.78-7,4.3-17.8,16.46-31.64,28.62-44.76q20.88-22.5,41.82-44.94c4-4.3,5.06-10.68.9-15.4m-6.1,166a2.17,2.17,0,0,0,.1-.28.28.28,0,0,0,0-.12c.56-.72,1.7-2,.16-.42v0a11.48,11.48,0,0,0,3.42-7.36,11.13,11.13,0,0,0-2.72-7.76c-3.76-3.92-11.1-5.34-15.3-1.06,6-9,11.94-18.08,19.62-25.7,4.18-4.16,5-10.82,1-15.4-3.74-4.22-11.2-5.12-15.4-1-11,10.94-19,24.08-28,36.66A99,99,0,0,1,93.1,300.84C87.24,306.26,81,311,76.3,317.54c-3.46,4.78-1.74,12,3,15.14a11.1,11.1,0,0,0,15.14-3c3.72-5.14,9.44-8.92,14.12-13.4a130.07,130.07,0,0,0,15-17.64,20.83,20.83,0,0,0-2,10c.18,2.94.7,5.48,2.72,7.76a11.14,11.14,0,0,0,7.64,3.68c5.38,0,11.82-4.26,11.44-10.36-.06-.72,0-1.4,0-2.08M398.32,101.48c-29.4-6.28-59.16.18-88.34,4.78l-45.24,7.14c-14.12,2.22-28.5,3.9-42.3,7.74-13.56,3.78-26.2,9.9-36.86,19.2-11.06,9.66-18.28,21.76-24.64,34.82-11.84,24.36-27.42,45.08-49.74,60.78-13.06,9.18-26.3,16.92-36.42,29.58A104.89,104.89,0,0,0,62.2,286.16a10.58,10.58,0,0,0-2.66-8c-.28-.3-.58-.56-.86-.82-.06-3.46-1.5-6.86-4.72-8.56-3.46-1.82-6.62-2.72-10.5-2.16A15.36,15.36,0,0,0,35.84,270a15.57,15.57,0,0,0-4.9,15.38,16.5,16.5,0,0,0,11.14,11.8c5.82,1.84,11.9,0,16.54-3.7a5.45,5.45,0,0,0,.5-.46c-2.08,4.86-4,9.78-5.8,14.64-2.08,5.52,1.52,12,7,13.78a11.08,11.08,0,0,0,13.78-7c4.46-11.9,9.2-23.7,16.74-34,7.12-9.8,17.24-16.32,27.18-22.94,22.42-14.9,41.62-33.86,54.76-57.62,6.58-11.9,11.28-24.86,19.84-35.58,6.94-8.7,16.72-15.34,27.36-19.54,11.72-4.62,24.68-6.14,37-8.1l43.58-6.88c16-2.52,31.92-5.28,47.94-7.46,14.12-1.94,28.92-3.16,43-.14,5.76,1.24,11.8-.92,13.78-6.94,1.72-5.16-1.14-12.56-6.94-13.8M46.06,227.76c-13.34-4.4-20.2,16.32-6.84,20.74s20.2-16.34,6.84-20.74M325,145.54c.26-5.36-4.44-11.84-10.36-11.44-10,.66-20,1.28-30.06,2-10.46.72-20.5,1.8-30.32,5.68-8.4,3.32-16,8.54-23.82,12.92-8.5,4.74-17.18,9.1-26,13.16-5.36,2.44-7.42,9.54-4.84,14.66a11.12,11.12,0,0,0,14.66,4.84q12.21-5.58,24-12c4.52-2.48,8.92-5.22,13.4-7.8-1.88,5.24-.34,11.74,6.48,14,13.22,4.36,20.06-16,7.18-20.6,6.08-2,12.6-2.62,19-3,9.76-.66,19.54-1.28,29.3-1.92,5.88-.4,11.12-4,11.44-10.38m56.92-6.2c-13.34-4.4-20.2,16.32-6.84,20.74s20.2-16.34,6.84-20.74M292.6,52.6a11.05,11.05,0,0,0-6.32-5.46,12.28,12.28,0,0,0-5.38-.34,11.44,11.44,0,0,0-5.62-.32,11.19,11.19,0,0,0-6.8,4.62,11.07,11.07,0,0,0-1.58,8.34,11.48,11.48,0,0,0,4.62,6.8,16.26,16.26,0,0,0,16.26,1,11.3,11.3,0,0,0,5.46-6.34,11.08,11.08,0,0,0-.64-8.3m-81.24,50.46a11.94,11.94,0,0,0-1.58-3.56,10.37,10.37,0,0,0,.28-5.5,11,11,0,0,0-4.62-6.8l-2.64-1.28a10.63,10.63,0,0,0-5.7-.3C193.1,86,189.28,88.8,187,92a15.43,15.43,0,0,0-2.68,11.88A15.91,15.91,0,0,0,203,116c5.6-1.16,9.86-7.3,8.38-13M370,82.74A11.1,11.1,0,0,0,359.66,71.3c-20-1.62-40-.06-59.94,2.1-19.08,2.08-38.9,6.28-58.12,4.74-5.88-.48-11.16,4.6-11.44,10.36a11.1,11.1,0,0,0,10.36,11.44c10.34.84,20.74-.36,31-1.46,9.9-1.06,19.78-2.3,29.68-3.42,19.06-2.14,38.18-3.52,57.34-2,5.88.5,11.16-4.58,11.44-10.34" fill="#68ac45"/><path d="M123.82,115.58c8.38-6.06,18.34-10.12,27.56-14.72q13.35-6.66,26.72-13.34c9-4.5,18-9.08,27.22-13.1,8.56-3.74,17.38-6.64,26.26-9.54,7.54-2.48,15.1-5.12,22.06-9,6.8-3.8,12.16-9.46,18.74-13.52,3.82-2.36,7.92-3.74,12.44-3,5.16.82,9.52,3.9,14,6.42,7.94,4.5,16.42,6.18,25.42,7.14,18.4,2,36,5.56,52.58,14,15.6,8,30.72,19.68,40.16,34.64,5.26,8.34,6.16,17.26,4.88,26.86s-2.58,20.12-10.52,26.7A102.06,102.06,0,0,1,401.18,162c-3.34,2.14-6.82,6.08-10.5,7.32-4.58,1.56-10-.18-14.64-.78-5-.66-10-1.22-15-1.64-10-.88-20.14-1.3-30.22-1.26-8.68,0-17.74-.12-26.32,1.3-13.6,2.26-21.68,13.88-33.4,19.82a21.68,21.68,0,0,1-9.7,2.6c-4.16,0-8.08-1.64-12.2-1.82-7.26-.34-12.46,5.1-17.46,9.56-14.32,12.78-28.6,25.64-41.78,39.58-6,6.36-11.82,13-17.26,19.82S160.42,271,158.92,279.94c-.64,3.86-.3,7.78-.46,11.66-.24,5.9-2,10.48-6.42,14.52-7,6.42-15.46,11.56-23.14,17.1-14,10.1-28.68,21.92-46.34,24.32C64.28,350,45.1,341.42,35.18,325.8a50.19,50.19,0,0,1-7.72-24.34C27,292.7,30,285.12,31.78,276.72c1.88-8.86-2.38-16.46-2.36-25.22,0-9.38,4-18.34,8.68-26.28,9.64-16.38,21.8-31.82,33.68-46.62q9.78-12.18,20.34-23.7c6-6.52,11.82-12.6,16.6-20.08,4.4-6.92,8.56-14.1,15.1-19.24,1.06-.84-.34-2.4-1.38-1.58-6.68,5.24-11,12.58-15.46,19.64-5.52,8.66-12.66,15.66-19.5,23.26a565.16,565.16,0,0,0-38.24,48.18c-10.2,14.18-23.1,30.48-21.82,49,.26,3.86,1.42,7.44,2.28,11.18,1.36,6,.08,11.38-1.6,17.12-2.22,7.56-3.32,15.06-2.36,22.94A50.55,50.55,0,0,0,52,343.92c14.72,7.8,31.52,7.7,46.62,1.08,17-7.48,31.94-20.34,46.94-31.16,6.56-4.74,13.28-9.44,14.72-17.94.8-4.68.1-9.46.6-14.18.64-5.92,3.76-10.84,7.16-15.56,12-16.74,26.36-31.68,41.3-45.82,7.26-6.86,14.68-13.54,22.12-20.2,3.46-3.1,6.94-6.88,11.08-9,5-2.56,9.5-1,14.6-.12,13.66,2.34,23.16-8.42,33.32-15.6,8.1-5.74,16.22-6.9,26-7.36,10.6-.5,21.24-.48,31.84,0,10.34.5,20.66,1.48,30.9,2.94,3.64.52,7.66,1.64,11.3.58,4-1.18,7.24-4.84,10.66-7.08,6.26-4.12,13.5-7.66,17.42-14.36,2.32-4,3.16-8.56,4-13a112.75,112.75,0,0,0,2-13.44c1.16-18-10.38-31.76-23.28-42.94A122.39,122.39,0,0,0,354.46,56a149.17,149.17,0,0,0-26.18-4.74A118,118,0,0,1,312.38,49a54.72,54.72,0,0,1-14.9-6.42c-6.66-3.88-13.6-7.2-21.32-4.36s-13.22,9.44-20,13.78c-15.2,9.8-33.84,12.92-50.32,20-19.62,8.4-38.52,18.64-57.6,28.18-8.68,4.34-17.88,8.2-25.78,13.9-1.16.78.24,2.34,1.32,1.56m71.42-23.74a9.75,9.75,0,0,0-10.44,6.82c-1.62,5.06.94,10.64,4.7,14s9.26,4.18,13,0c3.3-3.66,3.48-9.76-1.8-11.46a1.05,1.05,0,0,0-.66,2c5,1.62,2.32,6.94.22,8.74a6.26,6.26,0,0,1-7.3.66,13.33,13.33,0,0,1-5.48-6.16c-2.56-5.66.46-13.56,7.66-12.56,1.36.18,1.46-1.92.12-2.1m76-33.4c3.82,3,8.5,6.4,13.64,5.32,3.66-.78,6.64-3.56,6.7-7.42,0-1.34-2.08-1.46-2.1-.1-.06,4.24-4.44,6.06-8.1,5.42-3.44-.6-6.28-2.88-9-5-1.08-.82-2.22.92-1.16,1.74m-29.88,30.4a370.15,370.15,0,0,1,121.8-10.12c1.34.12,1.46-2,.1-2.1A372.42,372.42,0,0,0,240.88,86.8c-1.28.32-.86,2.38.46,2M51.24,277.22c-6.84-5.64-17.26,2.06-12.76,10.14a9.36,9.36,0,0,0,9.22,4.42c4.44-.58,7.68-4.24,8.88-8.38.38-1.3-1.62-2-2-.66-1.62,5.62-8.72,9.88-13.44,4.7a6.29,6.29,0,0,1,.52-8.72c2.48-2.22,6-1.76,8.44.24,1,.86,2.16-.88,1.14-1.74m68.84-81c-2.38,3.9-6.86,9.08-6.1,14,.6,3.94,4.66,5.88,8.34,5.14,6.88-1.38,15-17.76,4.64-19.08-1.34-.18-1.44,1.92-.1,2.1,5.68.72,1.88,8.44.28,10.84-1.8,2.72-5,5.2-8.44,3.86-6.74-2.6,1.1-12.4,3.14-15.74.7-1.14-1-2.3-1.76-1.14M37.9,243c3.36,4.6,9.5,1.5,11.62-2.58,1-2,4.64-12.66-1.5-10.76-1.28.4-.86,2.46.44,2.06.94-.3,1,2.16.94,2.64s-.3,1.18-.48,1.76a14.58,14.58,0,0,1-1.82,4.3c-1.7,2.42-5.48,4.14-7.64,1.2-.8-1.1-2.36.3-1.56,1.38m31.76.6c17.66-37.46,49.3-65.38,73.24-98.54.8-1.1-1-2.26-1.74-1.16-24.08,33.34-55.72,61.4-73.5,99.06-.56,1.22,1.44,1.86,2,.64m-6.32,70.06c3.84-13.18,7.86-26.52,14.48-38.6A73.17,73.17,0,0,1,89.44,259c5.18-5.32,11.28-9.08,17.7-12.7C132,232.18,145,208,157.92,183.52s29.14-52,57.84-59.52c7-1.82,13.92-1.74,21-1.32a94.6,94.6,0,0,0,21-1,415,415,0,0,0,43-9,172.34,172.34,0,0,0,22.68-8c8-3.5,15.76-7.3,24.64-7.62,8.5-.32,16.9,1.72,25.06,3.82,8.94,2.28,17.78,4.94,26.52,7.9a1.05,1.05,0,0,0,.66-2c-14.64-5-30.18-10.24-45.66-11.62a46.68,46.68,0,0,0-20.16,2.54c-6.88,2.46-13.38,5.92-20.24,8.46-14.64,5.42-30,8.56-45.3,11.4-7.82,1.46-15.74,3.24-23.74,3.34-7.32.08-14.6-1.08-21.92-.36C196.1,123.2,176.84,146,164,168.14c-15,25.78-26.26,56.66-52.7,73.24-6.74,4.22-13.92,7.56-19.92,12.84a69.34,69.34,0,0,0-13.3,16.24c-7.92,13.1-12.44,27.94-16.7,42.54-.38,1.3,1.62,2,2,.66m4.28,5.46a46.88,46.88,0,0,1,8.28-20.84c4.16-5.8,9.72-10,15.28-14.32,4.74-3.68,9.32-7.56,12.58-12.68,1.94-3,3.36-6.38,5.18-9.48a45.09,45.09,0,0,1,7.84-9.68c10.08-9.78,19.88-19.6,28.66-30.6S161.8,198.6,169,186.42s14.86-22.46,27.42-29.28c4.72-2.56,9.64-4.94,13.78-8.42a24.28,24.28,0,0,0,4.88-5.44c1.16-1.78,2.44-6.3,4.5-7.22,3-1.38,7.5,1.3,10.8,1.44a31.16,31.16,0,0,0,8.68-1.12c6.58-1.62,12.72-3.46,19.56-3.76,12.78-.54,24.66.44,36.74-4.6,8-3.34,15.4-6.08,24.16-6.6,8.22-.48,16.52-.42,24.76-.46,17.14-.08,34.32.5,51.26,3.4,1.32.22,1.42-1.86.1-2.1-15.62-2.68-31.46-3.4-47.28-3.4-7.86,0-15.7.1-23.56.28-6.92.16-13.82.66-20.42,2.94-6.36,2.2-12.28,5.58-18.9,7.06-7,1.54-14.2,1.26-21.32,1.28a73.09,73.09,0,0,0-19,2.12c-3,.82-6,1.78-9.12,2.36-4.6.88-7.88.06-12.24-1.24-4.64-1.38-6.86,1.8-8.84,5.54-3.12,5.9-7.7,9.56-13.46,12.8-5.18,2.92-10.6,5.44-15.3,9.14a63.58,63.58,0,0,0-12.74,14.24c-8.18,11.94-14.76,24.82-23.32,36.54a254.34,254.34,0,0,1-30.38,34.52c-6.22,5.9-11.1,11.34-15.1,19-3.94,7.5-9.3,12.68-15.94,17.8-6,4.6-11.62,9.26-15.76,15.62A49.31,49.31,0,0,0,65.56,319c-.22,1.34,1.88,1.44,2.06.1m309-178.6a51.23,51.23,0,0,0-5.86,12.92,1.08,1.08,0,0,0,.42,1.2c4.8,4.12,12.42,4.62,17.4.46,5.48-4.58.62-10.22-3.88-13.08-1.14-.72-2.3,1-1.16,1.74a15.17,15.17,0,0,1,4.38,3.74c2.24,3.14.26,5.86-2.78,7.3a11.87,11.87,0,0,1-12.82-1.92l.42,1.2a48.6,48.6,0,0,1,5.6-12.42,1,1,0,0,0-1.72-1.14M208.8,185.8c13.76-13.08,32.82-16.92,49.84-24,8.86-3.7,16.78-9.4,25.74-12.82,11.14-4.24,22.72-1.8,33.9.84,1.3.3,2-1.68.66-2-10.2-2.4-21-4.88-31.38-2.08-9.88,2.66-18.24,9.12-27.52,13.2-17.82,7.84-38.06,11.48-52.62,25.3-1,.92.4,2.5,1.38,1.56m62.94-22.06c-4.64-3.76-11.78-.44-15.9,2.76-4.44,3.44-6.7,8.84-4.6,14.24.5,1.26,2.36.3,1.88-.94-1.76-4.54.5-8.94,4.12-11.72,3.4-2.6,9.48-5.7,13.34-2.58,1.06.84,2.2-.92,1.16-1.76M88.78,328.3a189.38,189.38,0,0,0,59-76.86c.52-1.24-1.48-1.9-2-.66A187.13,187.13,0,0,1,87.4,326.72c-1.08.84.32,2.4,1.38,1.58m49.84-37.52c-5.28,2.12-11,5.9-11.84,12-.62,4.66,1.74,9.28,6.28,10.78a1.05,1.05,0,0,0,.66-2c-4.82-1.6-6-7.3-3.82-11.46,2-3.82,5.8-5.92,9.68-7.48,1.24-.5.28-2.38-1-1.88M118.36,130.22c7.52,5,19.4,10.7,26,1.08a1,1,0,0,0-1.74-1.16c-5.88,8.58-16.66,2.58-23.1-1.68a1.05,1.05,0,0,0-1.16,1.76" fill="#231f20"/><path d="M737.82,567.48a17.66,17.66,0,0,0-1.84-4.36,39,39,0,0,0-.54-11.86,28.82,28.82,0,0,0-9.78-15.78c-3.92-3.26-8.28-6.82-12.88-9.1a38.61,38.61,0,0,0-9-3.44,61.7,61.7,0,0,0-7.66-1,3.2,3.2,0,0,0-.42-.1c-.22-.12-.44-.26-.66-.4l-.52-.36c-1.84-1.62-3.7-3.22-5.54-4.84-6.32-5.56-12.32-12.1-21.46-11.86-7.18.18-12.5,4.38-16.34,10.08a1.76,1.76,0,0,1-.12.2c-.12.12-.26.26-.4.38-1.84.92-3.6,2.34-5.44,3.28s-3.54,1.72-5.34,2.52c-3.18,1.28-6.4,2.46-9.66,3.5-4.78,1.52-9.84,2.52-14.24,5.06-8.93,5.16-12.78,15.19-12.66,25.05l-4.06-2.75a107.39,107.39,0,0,0-14.86-8.2,128.2,128.2,0,0,1-14.9-8.4C558.44,528,546.8,521.5,533.26,521c-7.54-.26-14.54,2-21.32,5a58.45,58.45,0,0,0-15.76,10c-4.62,4.22-7.88,10-11.3,15.24q-4.89,7.44-9.76,14.88c-6.58,10.06-13.32,20.9-15.32,32.94-1.24,7.46-1.48,14.8.52,22.2.7,2.58,1.56,5.14,2.34,7.7,0,.2,0,.38,0,.58,0,1.34,0,2.68-.08,4,0,.52-.32,2.92-.34,3.3-.08.54-.14,1.06-.18,1.22-.5,3.54-1.08,7.12-1.28,10.7a40.59,40.59,0,0,0,4.42,20.46c.54,1.1,1.14,2.14,1.7,3.22.12.22.36.88.54,1.3a3.88,3.88,0,0,1,0,.44c0,1.52-.16,3-.24,4.58-.22,4.56.2,9.36,2.52,13.4,3.4,5.9,9.42,8.76,16.08,9a40.12,40.12,0,0,0,11.94-1.47,14.21,14.21,0,0,0,4.1,6.55c8.9,8.06,19.7,11.28,31.18,13.66a170.17,170.17,0,0,1,29.66,9,80.33,80.33,0,0,1,13.4,7.28c.38.36,1.06.82,1.26,1,1,.84,1.92,1.72,2.84,2.62,2.34,2.22,4.58,4.54,7,6.7a85.29,85.29,0,0,0,33.16,18.48,89.08,89.08,0,0,0,34.82,3c12-1.44,24.3-4.42,34.24-11.74,6.12-4.5,11.76-9.84,15.14-16.76,3.22-6.58,4.34-13.56,6.72-20.34a89.65,89.65,0,0,1,5.56-9.18,79.48,79.48,0,0,0,7.26-13.86,59.93,59.93,0,0,0,4.28-28.26c-.42-4.2-1.12-7.66-3.3-11.3-.24-.4-.5-.78-.78-1.16a19.78,19.78,0,0,0,6.12-9.88c.84-3.24,1.2-6.68,1.72-10,2.3-14.62,4.12-29.36,5.28-44.12.28-3.42.5-6.84.7-10.26C738.4,576.62,739.06,571.86,737.82,567.48Z" fill="#a3b7d6"/><path d="M737.48,577.42c-.28-5.94-2-11.42-7.86-14.12-.24-.12-.5-.22-.74-.32.48-.22,1-.44,1.42-.68,3.38-1.72,2.4-7.28-1-8.1a57.11,57.11,0,0,0-23.7-27.46,10.7,10.7,0,0,0-3.42-3.9c-3.28-2.36-7.48-3-11-4.82-4-2.06-6.88-4.86-10.08-7.92-4.06-3.86-8.56-3.46-13.3-1.06s-9.66,5.08-14.48,7.62l-23.1,12.16a1.75,1.75,0,0,0-1.6-.56c-6.42.72-13.36,1.64-18,6.6a12.46,12.46,0,0,0-3.08,5.52,6,6,0,0,0-3.26,2.3,6.5,6.5,0,0,0,7,10.06A23.11,23.11,0,0,0,618.5,555h0a42.61,42.61,0,0,0,5.48,3.53,9.91,9.91,0,0,0,5.14,4.33,19.68,19.68,0,0,0,3.57,7c1.52,2,3.32,3.76,4.74,5.82s2.24,4.66,3.26,7.06c1.74,4.16,5.94,7.34,6.7,11.86.84,5-.58,10.16.08,15.22a6.16,6.16,0,0,0,.92,2.54,137.72,137.72,0,0,0-2,43.72c.26,2.36,1.82,4.38,4.38,4.38,2.16,0,4.66-2,4.4-4.38a132.13,132.13,0,0,1,8-62.73,5.16,5.16,0,0,0,.49-.21l4.88-2.42c9.2-1.84,17.8-5.78,26.24-9.8,3.06-1.46,6.1-2.94,9.18-4.34a75,75,0,0,1,15.2-2.12c3.74-.1,7.6.44,9.44,4.1.06.12.12.24.18.38,0,3.42-.52,7-.74,10.26-.14,2.06-.26,4.14-.38,6.22-.84,2.54-1.78,5.06-2.64,7.6a118.6,118.6,0,0,0-3.64,14.64c-2.36,11.94-4.66,23.88-7,35.82-.82,4.18,4,7.5,7.34,4.28,8.84-8.64,3.82-21.26,7.74-31.68,2-5.38,4.56-10.3,5.52-16,.7-4.28,1-8.62,1.32-12.94a49.93,49.93,0,0,0,2.12-9.08A24.66,24.66,0,0,0,737.48,577.42ZM625.71,543.85l-1.29-.43-2-.62c.23-.1.44-.19.61-.28l24.12-12.7,23.16-12.18c1.06-.56,3.1-2.18,4.28-1.66s2.36,2.48,3.3,3.34a40.57,40.57,0,0,0,9.66,6.66c2.7,1.32,5.64,2,8.36,3.3,1.78.82,2.16,2,1.82,3.34a14.43,14.43,0,0,1-4.42,5.72c-4.24,3.18-10.14,4.28-15.12,5.08a118,118,0,0,0-13,2.32c-4.4,1.2-8.38,3.5-12.76,4.72a8.63,8.63,0,0,1-5.72,0c-1.49-.62-2.81-1.62-4.27-2.36a22.19,22.19,0,0,0-7.43-4,9.47,9.47,0,0,0-4.47-.15A4.75,4.75,0,0,0,625.71,543.85ZM703.08,551a28.59,28.59,0,0,0-9.48,1.08,33.53,33.53,0,0,0-8.3,4.74,21.29,21.29,0,0,1-2.1,1.3,110.15,110.15,0,0,1-19.56.66,42.68,42.68,0,0,1,8.3-3.12c7.8-2.16,15.9-3.4,22.92-7.7a31.37,31.37,0,0,0,5-3.76,22.08,22.08,0,0,0,5.4-7.2,48.09,48.09,0,0,1,13,14.32C713.18,551.18,708.14,551.06,703.08,551ZM583,559.54a7.53,7.53,0,0,1-10.14,2.66,65.52,65.52,0,0,0-11.56-5.6l-.66-.22a51.05,51.05,0,0,1-12.12-2.5c-10.3-1.1-21,0-31.5,1.6-1.72.54-3.44,1.16-5.12,1.84a69.58,69.58,0,0,1-10.64,5.14,5.61,5.61,0,0,1-2.12.34,9.57,9.57,0,0,0-1.9,1.7,25.93,25.93,0,0,0-1.86,3.9c-.86,2.12-1.76,4.22-2.78,6.28a46.58,46.58,0,0,1-8,11.72l1.67.14a5.65,5.65,0,0,1,1.17.24,4.59,4.59,0,0,1,1.63-.34c9-.32,16.7,3.9,24.8,7.06s16.94,4.24,25.66,5.14c8.9.92,18.18,1.7,26.6,4.94,4,1.54,6.76,4.08,7.66,8.38a64.8,64.8,0,0,1,1.08,14.56,4.38,4.38,0,0,1-.46,1.92c.22,3.12-3,6.42-6.52,4.34-4.3-2.56-4-6.86-5.28-11.1a13.94,13.94,0,0,0-1.92-3.86,27,27,0,0,1-2.3-2.68,24.59,24.59,0,0,0-3.6-2.9,4.44,4.44,0,0,1-2-3.1c-6.32-1.14-12.76-1.6-19.14-2.34-8-.94-15.9-2.3-23.42-5.36-6.8-2.76-13.6-6.48-21.14-6.22a4.9,4.9,0,0,1-1.24-.11,3.41,3.41,0,0,1-1.56.23c-3.74-.36-7.72-.68-11.38.36s-5.12,3.52-5.5,7.12a101.35,101.35,0,0,0-.24,13.5,52.05,52.05,0,0,0,1.92,13.6c1.28,4.34,3,8.48,3.68,13s.2,9,.06,13.52c0,.67,0,1.33,0,2a3.91,3.91,0,0,1,1.73,2.58,63.59,63.59,0,0,0,2.84,10.32c1.06,2.58,2.63,4.87,3.71,7.43a4.33,4.33,0,0,1,1,2.59,1.94,1.94,0,0,0,0,.24,18.21,18.21,0,0,0,3.66,6.48c1.46,1.64,4,5.32,6.56,4.8,5.52-1.1,7.86,7.38,2.34,8.5a12.37,12.37,0,0,1-6.84-.52l-.28,0c-4.66.16-9.78-.2-13.62-3.14-4.74-3.62-4.4-8.76-4.2-14.14.18-4.74-2.14-9-3.7-13.36a39,39,0,0,1-1.88-15.26c.24-5.28.48-10.22-1.08-15.34s-3.36-10.1-4.06-15.52a109.78,109.78,0,0,1-.56-16.62c.1-4.88.28-10.08,3.22-14.2a14.82,14.82,0,0,1,2.3-2.54c-.11-.16-.22-.32-.32-.5-1.9-3.24-1-8.44,2.66-10.14,6.46-3.06,10.18-9.3,13.06-16.14,1.72-4.06,3.68-8.68,7.56-11.84l1-.78a4.39,4.39,0,0,1,.28-.36c3.06-3.46,6.92-5.5,11-7.06a5.72,5.72,0,0,1,2.62-1.2l1.92-.32c1.76-.54,3.52-1.06,5.24-1.62.72-.4,1.42-.8,2.12-1.16,1.52-.78,3.06-1.52,4.64-2.16a19.67,19.67,0,0,0,1.58-1.36c3.24-3.14,5.56-7.5,10.2-8.74a11.18,11.18,0,0,1,8.72,1.5,38.59,38.59,0,0,1,3.24,2.48,4.93,4.93,0,0,1,.56.5,2.56,2.56,0,0,1,.46.22,19.42,19.42,0,0,1,1.82,1c.64.24,1.3.44,2,.64a48.58,48.58,0,0,0,5.32,1.18c8.14,1.42,15.52,2.54,22.2,7.84a5.81,5.81,0,0,1,2.26,4.14c1.44.78,2.86,1.64,4.28,2.56A7.57,7.57,0,0,1,583,559.54Z" fill="#d3d0e8"/><path d="M600.72,574.82a52.18,52.18,0,0,0-18.16,10.08l-.06.06c-5.82,3-11.68,6.1-17.74,8.5a41.66,41.66,0,0,1-9.83,2.51c-4.11-.32-8.26-.35-12.31-1.17-4.78-1-9.34-2.78-14.12-3.8a72.88,72.88,0,0,0-14.58-1.5l-.2,0c-.36-.06-.72-.1-1.08-.14a2.11,2.11,0,0,0-1-.26,2.72,2.72,0,0,0-.6.08l-1.56-.12c-2.82-.16-2.82,4.24,0,4.4a40.65,40.65,0,0,1,17.48,5,2.08,2.08,0,0,0,2.68-.49c.65.24,1.31.47,2,.69a17.49,17.49,0,0,0,6.88,2.1c1.82.5,3.66,1,5.52,1.42q6.18,1.44,12.48,2.32c3.8.54,8.12,1.5,11.94.82,3.42-.6,5.62-2.94,7.48-5.7,1.4-2.08,2.78-4.1,4.32-6l1-.54A54,54,0,0,0,593,584.4c3.2-1.76,6.34-3.6,9.44-5.56C604.44,577.56,603.18,574,600.72,574.82Z" fill="#626f83"/><path d="M715.57,661.78a2.39,2.39,0,0,0-2.69-3l-2.91.62a4.8,4.8,0,0,0-5.94-.83,23.4,23.4,0,0,1-2.37,1.4l-.57.28-.15.07-.16.07-.75.28a30.23,30.23,0,0,1-5.48,1.34h-.07l-.25,0c-.43,0-.87.09-1.31.12-1,.08-2,.13-3,.16-1.94.05-3.88,0-5.82,0-8.76-.3-17.53-.71-26.29-1.18-1.14-.06-2.27-.14-3.4-.25l-.67-.07c-.47-.08-.93-.15-1.38-.24a24.16,24.16,0,0,1-3.24-.86l-.6-.22-.08,0c-.49-.27-1-.51-1.47-.8a2.91,2.91,0,0,0-.35-.18,5.25,5.25,0,0,0-1-3.56c.36-2.33.62-4.66.79-7a1.9,1.9,0,0,0-.52-1.46,75.79,75.79,0,0,0,.92-8.24c.66-10,1.9-19.48,5.08-29,.86-2.68-3.38-3.82-4.26-1.16a100,100,0,0,0-4.94,25.3c-.43,6.41-.13,15.72-4.48,21.25a5.48,5.48,0,0,0-.48.58,11.83,11.83,0,0,1-1.3,1.25,10.55,10.55,0,0,0-3.16.24,2,2,0,0,0-1.54,2.28,4.45,4.45,0,0,0-.42.53l-.15,0a5.22,5.22,0,0,0-2.15,1.31c.09-2.16.12-4.3.1-6.38,0-2.82-4.42-2.82-4.38,0,.09,11.4-1,25.3-7.61,35.1-1.36,1.37-2.76,2.71-4.21,4-.74.66-1.5,1.3-2.26,1.92a60.59,60.59,0,0,0-5.36,2.9c-5.18,3.18-10.38,6.9-16,9.52-2.86.7-5.72,1.42-8.6,2.08-2.14.5-5,1.34-7.16.38a8.49,8.49,0,0,0-1-.36c-.84-.4-1.68-.8-2.52-1.16a71.78,71.78,0,0,0-9.1-3.12,5.3,5.3,0,0,0-4.56.69l-.79-.35-2-.91-4.49-2a5.34,5.34,0,0,0-3.78-.5,5.09,5.09,0,0,0-2.86,2.13,188.74,188.74,0,0,0-24.21-2c-6.36-.48-12.72-.84-19.1-1a2.22,2.22,0,0,0-1.56,3.74c4.42,4.44,10.64,4.5,16.5,4.12A74.86,74.86,0,0,1,536,711.08c10.65,2.45,20.88,6.43,31.44,9,2.92,1.36,5.82,3,9,3.53a16.86,16.86,0,0,0,10-1.22c2.56-1.1,4.86-2.88,7.46-3.84a6.53,6.53,0,0,0,2.17-1.3c.72-.25,1.44-.51,2.16-.79a63.12,63.12,0,0,0,13.49-7.62A111,111,0,0,0,627.66,702a36.28,36.28,0,0,0,5.08-3.4,17.69,17.69,0,0,0,7.74-10.6c0-.14.1-.3.14-.44,1.84-4.08,1.44-7.72.66-12.06-.42-2.38-.48-5.24,2.6-5.26,2.54,0,5.26.88,7.8,1.16a98.78,98.78,0,0,0,18.6,0l2.4.11c1.42.15,2.84.28,4.26.36.88.16,1.78.32,2.68.4a24.21,24.21,0,0,0,5.51-.23,64.74,64.74,0,0,0,9.75-.34l.89-.12a25.62,25.62,0,0,0,11.75-1.91c3.18-1.26,6.38-2.62,8-5.8A2.5,2.5,0,0,0,715.57,661.78Z" fill="#626f83"/><path d="M734.3,554.24a30.22,30.22,0,0,0-4.52-12,2.42,2.42,0,0,0-1.48-1,15.28,15.28,0,0,0-8.42-9.42c-2.56-1.14-4.8,2.64-2.22,3.8,7,3.14,7.94,10.32,7.34,17.26a6.25,6.25,0,0,1-.36,1.65,23.26,23.26,0,0,0-4.44,2.67A5.47,5.47,0,0,0,718,560l0,0a48.38,48.38,0,0,1-6.59,3.05,53.06,53.06,0,0,0-6.59,1.23,23.19,23.19,0,0,0-6.6,2.8c-2.48,1.6-5.06,4.94-8.3,4.2-2.76-.62-3.92,3.62-1.16,4.24,6.34,1.42,10.06-4.62,15.54-6.5.88-.3,1.77-.55,2.66-.77a1.78,1.78,0,0,0,1.12.25A27.85,27.85,0,0,0,714.8,567c2.05-.27,4.11-.55,6.12-1a4.08,4.08,0,0,0,4.22-.29,22.93,22.93,0,0,1,2.49-1.66l.45,0c1.76.06,4.12.48,5.72-.48C736.54,562,734.72,556.62,734.3,554.24Z" fill="#626f83"/><path d="M648,659.38c-3.08-.12-5.58,2.06-8.58,1.94s-6.38-2.12-9.06-3.6c-2.18-1.18-4.12,2.14-1.94,3.32,3.06,1.66,6.34,3.44,9.82,4s6.32-1.94,9.76-1.8c2.48.08,2.48-3.76,0-3.84" fill="#231f20"/><path d="M463.86,590.68c0-3,.72-5.26,3-7.32s4.92-3.76,6.94-6.16c4-4.76,5.74-10.76,7.82-16.48,2.44-6.7,5.7-15,11.82-19.2,2.82-1.92,6.08-3,9.22-4.26s6.3-2.86,9.44-4.3a60.46,60.46,0,0,0,8.84-5.06c3.12-2.1,6.44-4,10.24-4.4,7.7-.84,13.4,4.62,20.42,6.5a57.22,57.22,0,0,1,10.8,3.5,94.38,94.38,0,0,1,9.88,5.86c6.44,4.2,13.12,8.14,18.9,13.24,2.64,2.32,5.06,4.92,8.2,6.6a39.6,39.6,0,0,0,6.52,2.52c2.72.9,5.46,1.72,8.1,2.82,2.18.92,5.38,2.2,6.32,4.58l.66-1.62c-5.68,2.8-12,4.14-17.28,7.72-5.8,4-11,8.92-16.42,13.42-2.68,2.24-5.44,4.38-8.08,6.66a44.61,44.61,0,0,0-4.82,5.46c-1.42,1.7-3.24,4-5.62,4.22s-5.34-1.58-7.62-2.44c-5.78-2.18-12.84-2.62-19-2.86a85,85,0,0,1-9.3-.52,39.58,39.58,0,0,1-10.46-3.52c-11.3-5.22-22.44-10-34.88-11.66-8.72-1.16-21-2.22-26.82,5.94-1.08,1.52,1.42,3,2.48,1.46,5.32-7.46,18.3-5.46,26-4.28a78.43,78.43,0,0,1,17.28,4.72c6.42,2.56,12.56,5.74,19,8.26,5.78,2.3,11.6,2.22,17.7,2.52,6.34.32,13,1,18.94,3.42,4.14,1.7,7.72,2.8,11.46-.28a35.32,35.32,0,0,0,4.62-5.14,40.87,40.87,0,0,1,5.88-5.58c6.22-5.1,12.28-10.36,18.56-15.38,6-4.76,13.1-6.34,19.82-9.66a1.44,1.44,0,0,0,.66-1.62c-1.68-4.2-6.54-6-10.48-7.42-5.34-1.94-11-3-15.42-6.76-2.94-2.48-5.66-5.16-8.76-7.48-3.3-2.48-6.76-4.72-10.22-6.94-6.64-4.26-13.2-9.14-20.9-11.34-4.16-1.18-7.92-2.1-11.82-4.08a31.19,31.19,0,0,0-9.78-3.62c-7.74-1.1-13.1,2.9-19.3,6.74-6.62,4.1-14.18,6.42-21.18,9.72-6.76,3.18-10.74,9.48-13.74,16.1-3.34,7.4-4.78,16.3-10.32,22.5-2.28,2.54-5.38,4.2-7.62,6.76-2,2.32-2.6,5.1-2.6,8.12a1.44,1.44,0,0,0,2.88,0m157.48-22.82c-1.38,6,2.08,10.9,3.48,16.56,1.6,6.44,1.28,13.2,1.52,19.78.52,13.76,1.38,27.54.6,41.32-.34,6.08-.34,11.26,1.82,17.06,1.82,4.92,3.74,9.74,5.36,14.74a40.33,40.33,0,0,1,1.74,6.12c.44,2.76-1.42,4.18-3.46,5.76a136.29,136.29,0,0,1-11.86,8.38c-5.78,3.54-12.2,4.24-18.62,6-3.4.94-6.86,2.18-10.38,2.58-2.7.3-5.3.3-7.74,1.6-1.64.88-.18,3.36,1.46,2.48,2.38-1.26,5.2-1,7.78-1.4a94.74,94.74,0,0,0,9.64-2.5c5.6-1.56,11.4-2.18,16.66-4.82,4.5-2.26,8.46-5.58,12.58-8.46,2.88-2,7-4.58,6.92-8.54-.08-4.26-2.16-9.1-3.54-13.1-1.88-5.44-4.78-10.62-5.64-16.38-.46-3.18,0-6.36.14-9.56.22-3.74.3-7.48.32-11.22,0-7.2-.26-14.4-.58-21.6-.32-7.64-.1-15.44-.94-23a42.13,42.13,0,0,0-2.16-9.68c-1.34-3.82-3.34-7.14-2.38-11.32.48-1.82-2.3-2.58-2.72-.78M496.76,703.28c0,3.46,2.8,6,5.36,8a67.39,67.39,0,0,0,10.44,6.14,35.24,35.24,0,0,0,13.4,4.14c5.74.44,11.5-.34,17.24,0a38.78,38.78,0,0,1,15.16,3.92c5.42,2.72,9.92,6.7,14.68,10.36,5.36,4.1,10.88,8,16.2,12.14a47.19,47.19,0,0,1,6.36,5.62c1.94,2.24,3.58,4.74,5.78,6.76,7.6,6.94,21,9.8,30.86,7.38,5.84-1.42,10.92-4.74,16.9-5.72,5.06-.84,10.3-1.12,15.42-1.52,8.36-.64,17.26-1.06,24.84-5,9-4.7,11.82-14,13.54-23.46,1.2-6.56,1.88-13.24,4-19.58,2.12-6.52,6.4-11.6,9.6-17.54a44.69,44.69,0,0,0,5-19.28c.18-6.06-3.84-12.24-2-18.22.56-1.78-2.22-2.54-2.78-.76-1.5,4.72.32,9.44,1.32,14.06,1.3,6-.14,12.52-2.1,18.26-1.74,5.1-5.12,9.28-7.84,13.86a49.92,49.92,0,0,0-5.78,15.6c-1.16,5.64-1.78,11.36-3,17-1.1,4.86-2.54,10-6.08,13.72-5.9,6.18-15.28,7.36-23.36,8.08-4.08.36-8.18.68-12.26,1-5.28.48-10.64.78-15.64,2.66-5.36,2-10.14,4.68-16,4.76a38.87,38.87,0,0,1-17.14-3.88,22.36,22.36,0,0,1-6.88-5c-1.8-2-3.28-4.24-5.14-6.18-4.06-4.24-9.3-7.62-14-11.1-4.92-3.64-9.72-7.38-14.56-11.12a48.44,48.44,0,0,0-12.64-7.24,46.15,46.15,0,0,0-15.88-2.58c-6.12,0-12.4.88-18.42-.66-4.42-1.12-8.72-3.6-12.66-5.84-3-1.7-9-4.72-9-8.76a1.44,1.44,0,0,0-2.88,0M463.12,589.9c-3,1.7-4.44,5.44-5.38,8.6a28.07,28.07,0,0,0-1.3,11.92,58.33,58.33,0,0,0,2.66,9,91.44,91.44,0,0,1,2.38,9.28c1.48,7,1.4,13.58.94,20.66-.34,5.14-1.14,11.34,1.94,15.82,1.6,2.32,3,4.32,3.3,7.24s0,5.68,0,8.48c0,4.4-.18,9.1,1.4,13.28s4.94,6,9.1,7.12c12.38,3.28,24.94,2.88,37.62,2.32a158.32,158.32,0,0,1,20.2,0,143.84,143.84,0,0,1,20,3.54c6.38,1.46,12.76,3,19.24,4,3.44.52,8.36,1.68,11-1.4,1.92-2.24,1.48-5.58.9-8.24a41.58,41.58,0,0,0-4.22-11.7c-1.72-3.06-3.16-5.9-3.64-9.42s-.48-7-.6-10.42c-.24-7.34-.48-14.12-2.54-21.22-1-3.34-2.08-6.66-2.94-10a28.84,28.84,0,0,1-.28-11.26c1-7.3.7-14.64.7-22a1.44,1.44,0,0,0-2.88,0c0,6.2.44,12.56-.26,18.74-.62,5.46-1.34,10.32.08,15.74,1.5,5.76,3.72,11.36,4.64,17.26s.6,12.18.86,18.18c.22,5.2.94,9.74,3.52,14.34a45.68,45.68,0,0,1,4.6,11.7c.62,2.58,1.54,6.76-2.06,7.38-2.62.46-5.6-.34-8.16-.76-3.06-.52-6.1-1.14-9.12-1.8-11.62-2.56-23.08-5.54-35.06-5.8-12.22-.26-24.44,1.36-36.66.46a63,63,0,0,1-16.44-3.08c-5.14-1.86-5.9-7-6.08-11.88-.18-4.64.4-9.4-.1-14a13.63,13.63,0,0,0-2.08-6.06c-1.2-1.86-2.64-3.36-3.06-5.62-1.26-6.76.56-13.92.44-20.74a75.13,75.13,0,0,0-3.3-19c-1.64-5.68-4-10.62-3-16.66.6-3.58,1.6-9.48,5.1-11.42,1.64-.9.18-3.4-1.44-2.5m191.1-5.9c-.48,11.76-5.68,22.62-7,34.24s1.22,23.76-2.16,35.28c-1,3.4-1.42,6.92,2.08,8.94,3,1.72,6.9,1.7,10.22,1.72,6,0,11.76-2,17.78-1.24,5.34.66,10.48,2.6,15.94,2.3,5.06-.28,9.76-2.12,14.58-3.5s9.78-1.24,14.58-2.42a16.82,16.82,0,0,0,10.24-7.48c2.12-3.5,2.52-7.6,2.6-11.6.1-5.24.46-10.36,1-15.58.62-6.06,1.08-12.28,3.08-18.08,1.48-4.26,3.1-8.32,3.7-12.82a79.76,79.76,0,0,0,.68-9.76c0-5.88-.1-14.32-4.9-18.56-2.56-2.26-6.14-2.2-9.34-1.74-4.76.68-9.32,2.4-14,3.36-5.92,1.2-11.86,2.06-17.68,3.74s-11.38,3.74-17.06,5.68a147.71,147.71,0,0,1-16,4.62c-4.44,1-8,.82-11.84-1.78a119.13,119.13,0,0,1-14-11.62c-3.9-3.62-7.46-7.64-12-10.54a26.61,26.61,0,0,0-11.3-3.92c-2.84-.4-8.48-.54-9.7-3.76-1.54-4.1,2.34-8.44,5.18-10.84,3.24-2.72,7-4.42,10.54-6.66a23.29,23.29,0,0,1,6.38-3.2c2.9-.84,5.84-1.5,8.66-2.58,5-1.88,10.18-3.64,14.9-6.12,3.72-2,6.68-4.72,9.88-7.42s7.34-6.28,11.74-5.92c4.68.38,6.72,5.36,9.88,8.08a17.06,17.06,0,0,0,4.82,2.7c3.3,1.34,6.54,2.82,9.72,4.38,8.8,4.34,18,8.74,25.92,14.54A38.42,38.42,0,0,1,731.7,547c2.44,4,2.46,7.54,2.7,12,.16,3.32.56,6.94,3.26,9.22,1.42,1.18,3.46-.84,2-2-3.18-2.68-2.36-8-2.58-11.7a19.87,19.87,0,0,0-4-10.58c-5.18-7.34-13-12.28-20.74-16.52-4.32-2.36-8.7-4.64-13.08-6.88-2.82-1.42-5.66-2.8-8.54-4.08-2.58-1.14-5.58-1.92-7.78-3.74-3-2.52-4.7-6.28-8.4-8-3.24-1.54-6.76-.88-9.88.64-3.78,1.86-6.92,4.8-10.08,7.52a42.5,42.5,0,0,1-12.82,7.4c-5.38,2.08-10.68,4-16.22,5.54-4.16,1.18-7.52,3.6-11.24,5.7-6,3.42-14.12,8.84-13.62,16.78.46,7.46,9.94,7.08,15.32,8.16,5,1,9.2,4.16,12.86,7.58,4.24,4,8.36,8,12.84,11.72,3.6,3,7.34,6.68,11.88,8.2,3.46,1.16,7,.48,10.5-.32,11.18-2.62,21.74-7.16,32.78-10.26,5.66-1.6,11.44-2.42,17.2-3.6,4.94-1,9.8-3,14.84-3.46,3.94-.36,6.54.84,8,4.52a31,31,0,0,1,1.76,10.56,58.8,58.8,0,0,1-3.62,22.6c-2,5.38-2.72,10.84-3.36,16.5a157.49,157.49,0,0,0-1.4,16.22c-.06,4.44.24,9.28-2,13.28-2.94,5.14-8.12,6.64-13.62,7.14a66.88,66.88,0,0,0-13.82,3c-5.66,1.76-10.86,2.64-16.76,1.5-5.42-1.06-10.46-2.3-16-1.62-4.9.6-9.64,1.5-14.6,1-1.74-.16-4.28-.38-5.56-1.76-1.64-1.78.14-5.18.68-7.16,1.46-5.36,1.38-11.26,1.36-16.78,0-6.22-.44-12.56.46-18.74.82-5.64,2.5-11.08,4-16.58a75,75,0,0,0,2.8-16.14c0-1.8-2.9-1.8-3,.06" fill="#231f20"/></svg>
