<svg xmlns="http://www.w3.org/2000/svg" viewBox="0 0 4000 4086"><rect width="4000" height="4086" fill="#8bc53f"/><path d="M907.8,2750.1c15.2-99,71.6-186.4,162.6-220.4a178.33,178.33,0,0,1,44.7-36.8c38.6-22.4,75.8,18.6,59.3,56.5-43.7,100.1-114.3,184.1-203.3,246.9C938.4,2819.3,902.7,2783.5,907.8,2750.1Zm950.7-712.6c89.9,61.4,193.4,98.3,302.7,104.5,41.3,2.3,66.8-46.5,32.4-74.7a179.25,179.25,0,0,0-50.1-29c-63.6-73.1-165.3-95.6-263.6-75.7C1846.7,1969.3,1825.4,2014.9,1858.5,2037.5Zm-802,297.1c89.9,61.4,193.4,98.3,302.7,104.5,41.3,2.4,66.9-46.4,32.4-74.7a179.25,179.25,0,0,0-50.1-29c-63.6-73.1-165.3-95.6-263.6-75.7C1044.7,2266.4,1023.4,2312,1056.5,2334.6Zm707.1,759.1c-18.3-18.1-38.7-40.5-64.8-46.4-25-5.7-52.5,5.3-61.7,30.9-9.5,26.6,8.3,53.7,19.2,77a50.21,50.21,0,0,0,3.7,6.5c21.3,40.3,53.4,85.5,94.9,100.3,24.9,8.9,53.1,1.2,68.4-20.5,18.1-25.5,10.7-56.3-4.8-80.9A375.53,375.53,0,0,0,1763.6,3093.7ZM1400.7,2563c9.5,24.7,33.5,41.2,59.8,38.7,30.9-2.9,49.3-28.7,57.6-56.6,8.3-27.7,12.8-56.7,14.7-85.5,1.5-25.7,5.1-55.9-7.4-79.6-12-22.8-38.1-36.5-63.2-26.7-26.1,10.1-34.9,41.4-45.3,64.9a43.13,43.13,0,0,0-2.5,7.1C1398,2467.8,1384.8,2521.8,1400.7,2563Zm1797.6,531.8c-16.5,20.8-45,27-69.4,16.8-13.89-5.82-26.5-15.14-37.86-26.53a36.8,36.8,0,0,1-21.34,6.23c-24.75-.78-94.82,1.22-154.52-8.67q20.71,19.65,39.72,41.27c26.4,30.1-5.5,69.3-39.3,67.7-100.1-4.7-193-51.6-236.4-138.4a180.62,180.62,0,0,1-41.3-40.6c-1.05-1.43-2-2.87-2.84-4.31-17.72-.13-43.82-.14-72.29-1.6,10.75,20,3,48.3-22,60a589.64,589.64,0,0,1-214.41,53.69c-.64,13.31-6.89,26.24-19.29,33.11-44.3,24.6-245.6,156-259,41.9-.11-1-.2-2-.26-2.94-10,20.27-26.53,36.48-50.64,38.74-26.3,2.5-50.3-14-59.8-38.7-8.2-21.25-8.65-45.91-4.92-70.63-83.75-4.87-183.94-23.06-151.48-93.87a59.92,59.92,0,0,1,7.07-11.65q-13.17,4.16-26.57,7.75c-18.52,5-33-2.86-41.37-15.6-66.29,38.81-209.43,119.05-231.69,38.93-86.66-1.9-226.92-13.34-189.34-95.33,5.14-11.25,13.53-20.19,23.78-27.16,0-13.55,5.73-27.6,16.62-36.64,44-36.52,95.76-61.4,149.07-69.6-86.78-3-209.51-17.57-174.07-94.9,13.87-30.35,51.24-43.91,85.35-47.22,1.24-11.9,6.81-23.66,16.35-31.58,60.46-50.14,135.41-78.34,209.06-71.54a353.23,353.23,0,0,1-22.66-46.06,55.09,55.09,0,0,1-3.1-6.9c-8.5-24.2-23.6-52.9-11.6-78.5,11.6-24.6,40-32.9,64.3-24.8,25.3,8.4,43.4,32.7,60,52.5,18.5,22.1,35.1,46.2,48.1,72,9.78,19.33,14.65,41.72,8,61.69a38.5,38.5,0,0,1,2.49,3.51c5.67-35.24,40.77-66,70.4-81.3,41-21.28,86.5-23.58,131.67-21.89a62.54,62.54,0,0,1-13.57-20.11c-15.81-37.41-7.54-86.38,5.55-127.52a626.33,626.33,0,0,1-109.77-12.19,225.86,225.86,0,0,1,18.82,32.91,180.87,180.87,0,0,1,40.1,41.7c25.4,36.6-12.6,76.9-51.6,63.4-103.3-35.8-192.5-99.7-262-183.5-10.72-12.94-11.1-27.21-5.44-39.22-93.22,24.94-190.64,26.14-285.46,5.52-39.2-8.6-36.8-58.4-8.6-76.9,83.5-54.7,186.4-71.7,273.1-28a180.92,180.92,0,0,1,57.5,8.1c32.16,10,37.13,43.4,20.78,64.87,61.64,6.53,119.53,29.24,163.45,67.29,1.4-13.66,8.73-27.26,20.77-35.16a341.34,341.34,0,0,1,56.3-29.86c-105.57-7.84-205.47-44.33-292.6-103.84-33.1-22.6-11.8-68.2,21.4-74.9,98.3-19.9,200,2.6,263.6,75.7a179.25,179.25,0,0,1,50.1,29c21,17.24,19.73,42.1,6.17,58.35,56.69-13.15,115.41-9,168.13,17.55a180.92,180.92,0,0,1,57.5,8.1c20,6.21,29.52,21.54,29.87,37.41,47.06-9.39,94.86-9.06,138.87,1.88-3.81-17.53,3.87-38.47,20.06-49.09a342.18,342.18,0,0,1,51-27.6A618.08,618.08,0,0,1,2227.4,2195c-39.2-8.6-36.8-58.4-8.6-76.9,83.5-54.7,186.4-71.7,273.1-28a180.92,180.92,0,0,1,57.5,8.1c42.6,13.3,37.5,67.7-1.7,80.8q-5.8,2-11.65,3.76A232.85,232.85,0,0,1,2629,2207.2a180.92,180.92,0,0,1,57.5,8.1c42.6,13.2,37.5,67.6-1.7,80.8l-3.61,1.18c68.78,11.42,135.11,35,196.71,69.22,17.15,9.56,21.81,25.79,18.28,41a183,183,0,0,1,21.32,2.81c43.9,8.5,45.1,63.1,7.7,80.5A583.68,583.68,0,0,1,2787.71,2535c29.25,10,56.32,26.09,82.29,43.23a131,131,0,0,1,29.7,19.1c27.7,23.3,5.6,72.4-29.3,71.5-16.85-.53-54.73.23-96-2.36,80,17.84,149.25,64.43,183.33,137.76a180.87,180.87,0,0,1,40.1,41.7c25.3,36.7-12.7,76.9-51.7,63.4a575.55,575.55,0,0,1-90.56-40.48c8.69,5.17,17.24,10.62,25.66,16.18a131,131,0,0,1,29.7,19.1c13.41,11.23,15.15,28.55,9.41,43.34a166.46,166.46,0,0,1,17.19.06c31.64,1.8,60.55,12.38,87.79,26.71-6.78-17.13-11.48-35.18-4.29-52.41,10.5-25,38.5-34.6,63.2-27.6,25.7,7.3,44.9,30.8,62.2,49.7,19.5,21.3,37.2,44.6,51.3,69.8C3212,3039.1,3217.7,3070.3,3198.3,3094.8Zm-448.9-263c33.66,1.92,64.23,13.76,93,29.5a594.4,594.4,0,0,1-105.63-79.41c1.46,16.15-.18,33-1.07,48.41l-.09,1.31C2740.37,2831.49,2745,2831.55,2749.4,2831.8Zm-330.79-510.36a225.92,225.92,0,0,1,41,36.86,179.25,179.25,0,0,1,50.1,29c34.4,28.2,8.9,77.1-32.4,74.7a580.63,580.63,0,0,1-122.76-20.35q7,4.39,13.86,8.95a131,131,0,0,1,29.7,19.1c27.7,23.3,5.6,72.4-29.3,71.5-28.36-.9-116.29,1.87-179.86-13.82q-13,18.69-27.36,36.18c30.69-13.9,72.85-6.9,101.62,5.14,45.4,18.9,77.5,55.7,106.4,94a131.35,131.35,0,0,1,21.5,27.9,38.52,38.52,0,0,1,1.77,3.43c52.77,41.5,89.64,98.67,97.43,166q1.71,2.49,3.34,5a170.34,170.34,0,0,1,23.36-.32c28.44,1.62,54.68,10.33,79.48,22.49.77-30.79,10.11-63.44,20.82-91.19a43.13,43.13,0,0,1,2.5-7.1c10.4-23.5,19.2-54.8,45.3-64.9a45.92,45.92,0,0,1,15.43-3.17c-16.23-26.27,6.16-56,33.55-61-61.79-10.52-111.77-34-87.48-87,5.27-11.52,13.93-20.61,24.51-27.65q-21.2-.77-42.41-3a39.11,39.11,0,0,1-18.48-6.55c2.1,25-10.19,50.58-19.72,73-11.2,26.6-25,52.4-41.9,75.8-17.1,23.6-42.9,41.8-73.2,34.3-25.7-6.4-43.2-29.8-44.1-56.3-1.5-44.2,28.6-90.7,58.1-125.4a50.61,50.61,0,0,1,4.7-5.9c17.6-18.7,36.2-45.3,64.3-46.2a47.6,47.6,0,0,1,36.37,15.31c.79-12.59,6.45-25.24,16.53-33.61a339.27,339.27,0,0,1,55.61-37.62,227,227,0,0,1-53-37.78,179.49,179.49,0,0,1-52.6-24.4c-16-10.84-21.13-26.53-18.43-40.94A612.74,612.74,0,0,1,2418.61,2321.44Zm-330.32,24.48c.12,10.15-.37,20.27-.59,29.78-.9,28.9-4.5,58-11.8,86a109,109,0,0,1-9.51,24.38,224.79,224.79,0,0,1,32.21-8.68,189.37,189.37,0,0,1,20.79-14.5,69.25,69.25,0,0,1,5.61-17.7c17.6-38.5,73-50,111.6-47.8,2,.11,4,.27,5.91.45a624,624,0,0,1-67.91-40.35c-11.5-7.85-16.43-18.48-16.58-29.29A583.33,583.33,0,0,1,2088.29,2345.92ZM1546.84,2722q5.57,3.55,11.06,7.18a131,131,0,0,1,29.7,19.1c25.49,21.45,8.8,64.74-21.23,70.8a229.46,229.46,0,0,1,41.33,11.1,180,180,0,0,1,58,1.7,45.5,45.5,0,0,1,19.2,8.27c-4.88-42,36.61-80.17,70.8-97.87,43.7-22.6,92.6-23.8,140.7-21.5a122.82,122.82,0,0,1,22.16-.31c-15.5-11.12-23.68-33.91-17.26-53.29q3.56-10.71,7.77-21.09c-57.83,25.17-116.94,38.28-134.29-4.65a45.61,45.61,0,0,1-24.68,27.64A588.43,588.43,0,0,1,1546.84,2722Zm232.83,157c-32.92,9.53-62.44,10.91-79.66-5-.9,15.25-9.9,30.53-26.61,38.33-2.32,1.08-4.65,2.12-7,3.17,10.43,0,20.87.33,31.28.83a133.12,133.12,0,0,1,35.4,1.3,35.81,35.81,0,0,1,9.56,3A314.31,314.31,0,0,1,1779.67,2879Zm636.11,92c-14.91-12.53-21.13-29.32-13.11-51.83-59.22-55.72-105.63-123.2-138-198.26-68.1-27.31-151.19-69.72-138-118.56-49,49.7-106.65,90.3-170.53,120.81a41.45,41.45,0,0,1-11.47,3.64c24.17,14.85,25.6,56.91-.73,71.46-5,2.78-12,6.94-20.55,11.95a228,228,0,0,1,23.35-1.35,180.38,180.38,0,0,1,54.7-19.1c44-7.7,65,43.3,36.5,73A580.62,580.62,0,0,1,1878.11,2980c5-.15,9.87-.09,14.49.17,29.3,1.67,56.25,10.85,81.71,23.58,6.17-9.21,13.94-16.86,24.59-21,25.1-9.8,51.2,3.9,63.2,26.7,12.4,23.6,8.8,53.8,7.4,79.6a419,419,0,0,1-7.67,57.63c14.23-21.25,36.92-38.8,57.07-49.23,22.69-11.79,46.78-17.74,71.43-20.43.58-12.87,6.26-25.91,16.57-34.47a341.23,341.23,0,0,1,47.62-33.17c-82.92-.85-248.92-7.28-208.42-95.63,13.41-29.34,48.78-43,81.94-46.85a369.49,369.49,0,0,1-18.14-34.55,46.52,46.52,0,0,1-3.4-6.7c-9.6-23.8-26-51.8-15.1-77.9,10.5-25,38.5-34.6,63.2-27.6,25.7,7.2,44.9,30.7,62.2,49.7,19.5,21.3,37.2,44.6,51.3,69.8,12.29,21.83,18.21,48,7.32,70.41q7.1,4.47,14.08,9.09a131,131,0,0,1,29.7,19.1c12.43,10.45,14.85,26.1,10.58,40.09A252.45,252.45,0,0,1,2415.78,2971Zm405.2,38.42a73.28,73.28,0,0,1,4.92-14.16,62.59,62.59,0,0,1,14.88-20.13c-27.07-.35-61.7-1.42-95-5.54A580.6,580.6,0,0,1,2821,3009.46ZM1449.5,3160c-14.54-15.88-30.34-34.89-50.08-44.92,20.4-22.95,13.49-62.08-23.12-69.08a180,180,0,0,0-58-1.7c-91.2-33.9-191.4-5.6-268.2,58.1-25.9,21.5-22.6,71.3,17.4,75.5,85.92,8.86,172,.36,253.24-26.4-2.08,22,10.51,44.59,18.46,64.3a46.52,46.52,0,0,0,3.4,6.7c19.1,41.3,48.8,88.2,89.4,105.2,24.4,10.2,52.9,4,69.4-16.8,19.4-24.5,13.7-55.7-.6-81.1C1486.7,3204.6,1469,3181.3,1449.5,3160Zm-180-686.3c-25.6,11.3-33,43-42.4,66.9a58.3,58.3,0,0,0-2.2,7.2c-14.5,43.2-25.3,97.7-7.7,138.2,10.6,24.3,35.2,39.6,61.3,36,30.7-4.3,47.9-30.8,55-59.1,7-28,10.3-57.2,10.9-86.1.6-25.8,2.9-56.1-10.6-79.2C1320.8,2475.4,1294.2,2462.8,1269.5,2473.7ZM1249,2986.1c34.9.9,57-48.2,29.3-71.5a150.12,150.12,0,0,0-12.38-9.32,56.34,56.34,0,0,0,25.28-19.88c18.1-25.5,10.7-56.3-4.8-80.9a375.53,375.53,0,0,0-54.9-66.9c-18.4-18.1-38.8-40.5-64.8-46.4-25-5.7-52.5,5.3-61.7,30.9-9.5,26.6,8.3,53.7,19.1,77a41.07,41.07,0,0,0,3.8,6.5,352.89,352.89,0,0,0,26.59,43,179.19,179.19,0,0,0-37.69-6.33c-18.11-1-39.92.95-59.79,7.33a47.39,47.39,0,0,0-35-13.93c-28.1.9-46.7,27.5-64.3,46.2a50.61,50.61,0,0,0-4.7,5.9c-29.5,34.7-59.6,81.2-58.1,125.4.9,26.5,18.4,50,44.1,56.3,30.3,7.5,56.1-10.7,73.2-34.3a377.59,377.59,0,0,0,38.62-68.22C1114.47,2988.56,1217.79,2985.12,1249,2986.1Z" fill="#fffdf2"/><path d="M3202.46,3011c-23-41.12-63.22-100.63-108.75-119.26-49.09-20.09-93,21.63-78,71.57-27.52-13-57.34-21.64-88-21.55,2.82-12.61.3-26.47-8-36.55,31.06,12.4,73,21.31,88.45-18.65,13.45-34.7-18.69-58.64-39.41-80.58-21.74-23-34.33-53.51-58.5-76.2-26.4-24.79-58.16-43.55-92-56.18,37.92.74,97.74,8,99.45-47.2.7-22.79-15.76-35.91-33.43-46.82-25-15.41-50.39-31.51-77.45-43.1,40-8.87,103.16-21.14,134.26-49.8,30.18-27.81,15.25-72.48-22.5-81.77-8.53-2.1-12.08-.57-16-6-3.43-4.82-2.12-16.52-6.26-22.91-10.72-16.53-35.44-25.12-52.55-33.21a616.6,616.6,0,0,0-144.61-47.75c35.3-23.46,26.2-71.14-11-85-21.55-8-45.12-5.71-66.3-12.34-21-6.59-40.28-14.83-62.4-18.09,32.92-19.12,33.37-66.5-1-83.79-17.05-8.57-36.87-8.25-55.18-11.09-18.77-2.91-35.73-11.83-54.54-16.8-76.2-20.1-175.64-2.39-237.22,48.8,14.31-33.82-15.59-57.82-41.88-72.39-10.24-5.67-19.37-9.19-28.18-16.54-6-5-11.15-11.21-17.11-16.35a237.57,237.57,0,0,0-38.75-27.11c-30.92-17.38-65.45-27.83-100.6-32-34.87-4.16-84.51-6.75-117,8.64-31,14.67-42.77,54.71-15.4,78.65,30.11,26.34,73,45.21,109.41,60.77a600.2,600.2,0,0,0,118.75,36.79c33.12,6.57,87.24,22.48,116.46-1.34-39.32,87.7,137.68,80.08,183.07,78.58-25.49,13.65-52.1,29.9-50.71,62.72-35.11-7.75-71.5-8.73-107.13-4.38-8.51,1-16.24,4.05-21.37-.38-3.06-2.65-4.46-12-7.59-16-9.47-12.34-24.14-17-38.69-20.29-15.78-3.58-33.07-2.22-48.09-6.65-16.55-4.88-31.71-12.9-48.81-16.77-34.36-7.78-70.36-7.71-104.94-1.31,13.76-31-10.16-54.15-34.42-69.07-15-9.19-28.34-14-40.86-26.38a235,235,0,0,0-36.79-29.61c-58-37.77-129.73-48.44-197.5-39.16-30.9,4.24-67.14,18.07-64.93,56.22,2,33.6,47.14,51.4,72.53,65.23,68.26,37.17,143.51,61.41,220.81,70-23.35,11.46-51.75,24.33-59.56,51.42-42.92-34.59-96.27-54.55-150.63-61.61,15.45-30.3-3.77-57.83-33-67-17.54-5.49-36-2.85-53.19-7-16.41-4-31.87-13.64-48.68-17.75-67-16.39-138-2.68-198.48,29-27.18,14.22-57.09,32-53.28,67.27,4.08,37.79,44.54,40.24,74.61,44.76,78.76,11.85,159.88,8.59,237.23-10.62-8.1,40.44,57.16,87.7,83.84,110.57a593.43,593.43,0,0,0,128,83.91c35.29,17,99.22,52.22,124.38,1.53,11.15-22.45.07-43.32-14.48-60.79-7.2-8.65-15.86-15.43-23.51-23.54-8-8.47-12.16-16.86-18.36-27a628.67,628.67,0,0,0,91,9.64c-12.32,41.48-23.15,98.23,3.43,136.68-68.4-1.27-146.7,15.11-184.5,78.8-3.33-37.7-30.84-73.88-53.59-102.55-20.89-26.34-45.22-60.33-81.2-64.8-33.07-4.11-62.83,18.71-63.56,52.78-.74,34.26,21.34,76,37.42,105.21-39.25-1.95-78.66,5.67-115,20.38,36.08-37.11,38.52-108.09,39.25-156.7.39-26.55-3.42-54.85-25.12-72.93-20.53-17.11-49.78-17.78-70.11-.15-52.63,45.61-101.48,260.28,16.38,249.16-16.5,9.53-34.43,20.44-48.23,33.67-5.33,5.11-10,10.37-13.19,17-5.89,12.15-2.82,10.13-13.52,15.11-15.61,7.27-32.47,7.47-47.8,17.21-14,8.88-24.51,20.75-30.56,36.24-30.71,78.6,92.52,91.77,141.71,95.64-33.79,10.2-65.52,26.59-94.11,47.2-13.56,9.78-27.83,19.71-34.13,35.87-3.72,9.52-4.29,14.13-10.18,22.27-4.71,6.5-10.83,11.18-14.82,18.52,1.48-17-6.81-29.88-19.69-39.77,88.41-51.67-31.16-176.16-81.57-208.19-31.87-20.25-80.45-18.47-95,22.32-13.72,38.44,21.91,89.39,42,119.78a176.59,176.59,0,0,0-64.58-.9c-14.35,2.5-13.18,3.39-25.36-.5-9.29-3-15.84-7.76-26.14-8.21-36.67-1.61-63.72,36.67-84.09,62.41C907.56,2936,848.54,3041,930.41,3072.51c34.25,13.19,66-7.43,86.21-34.12,12.53-16.54,19.49-41.12,33-55.87,8.49-9.26,4.38-8.33,19.37-4.64,8.06,2,16.24,3.56,24.42,4.94,35.7,6,72.1,7.6,108.24,8.21,29.85.5,67.61,7.88,86.4-21.7-6.21,40,34.49,59.43,66.43,68.35-15-1-29.13,1.15-43.53-1.7-12.33-2.45-24.18-6.74-36.71-8.68a251.9,251.9,0,0,0-80.17.82c-51.37,8.66-118.24,34.5-152.91,75.39-14.43,17-18.45,44.37-4.69,63.11,16.82,22.91,54.6,19.2,79.53,19.84A613,613,0,0,0,1315.08,3159c2.64,63.76,95.42,227.71,178.75,166.66,55.33-40.54,7.9-111.25-23.55-149.91-9.84-12.1-20.36-23.78-31.09-35.09-6.31-6.65-29.16-19.83-31.6-27.25-.86-2.63,7.23-16.53,7.84-20.34a47,47,0,0,0-1.13-20.65,45,45,0,0,0-22.58-26.88c27,4.2,56.69,1.27,83,7,14.94,3.25,8,2.33,16.74,14.23a48,48,0,0,0,23.54,17c41.87,14.56,95.33-11.81,132-29.43-46.78,40.81,11.44,123.13,39.39,159.14,23.28,30,59.25,63.59,100.64,56.47,68.59-11.81,55.29-86.21,25.52-127.92-28.45-39.87-84.11-113.32-141-100.05,11-5.79,21.88-11.82,32.68-18q7.26-4.14,14.47-8.36a32.63,32.63,0,0,0,8.24,7.62c19.37,6.76,28.65,8.35,49.17,2.38-39.29,85.31,98.6,98,150.28,101.32-4.4,35.71-.52,79.51,33.1,100.32,29.52,18.28,65.78,8.33,85.5-19.31,27.13,100.46,204.31-14.59,251.06-41.8,9.08-5.28,19.17-9.94,25.88-18.28,4-5,4.84-14.58,8.54-18.37,5.7-5.84,10.48-4.71,21.06-5.77a607.19,607.19,0,0,0,93.57-16.87c41.51-10.9,144.54-31.45,126-94.34,16.26.67,48.77-4.44,62.46,3.26,9,5.07,17,20.42,25.07,27.74,9.87,8.91,16.71,14.84,23.57,26.42,23.23,39.2,58,70.52,98.17,91.73,39.92,21.08,90.58,36.76,136.16,35.35,21.95-.67,43-13,50.76-34.34,11.05-30.5-16.84-52.89-36.16-72.21,35.54,4.56,71.41,5.54,107.2,5.9,10.59.1,21.74,1.14,32.32.34,3.62-.27,17-5.37,19.66-5,3.22.5,16,13.4,19.46,15.63,24.64,16.1,56,20.42,81,2.12C3223.17,3085.79,3220.38,3042.86,3202.46,3011Zm-2069.74-208c-20.57-32.22-45-98,12.58-107.37,47.06-7.69,92.86,53.25,117.86,85.38,15.7,20.2,33.17,43.5,33.15,70.24,0,14.88-8.93,41.6-26,45.59s-55.2-29-72.36-37.31c-11.38-5.51-30.76-8.25-40.06-15.65C1147,2835.26,1139.12,2815.16,1132.72,2803.05ZM1007.79,3032c-17,23.49-45.45,42.06-74.81,29.79-36.75-15.35-36.68-57.9-25.5-90,13.93-40,83.24-158.62,138.53-124-26.79,10.86-50.23,33.17-52.17,63.58-2,30.91,23.56,48.86,49.59,58.71A367.86,367.86,0,0,1,1007.79,3032Zm275-76.3c-11.17,29.44-40.29,24.88-65.88,24.61-31.47-.34-63-1.21-94.29-4.61-38.59-4.18-137.7-17.14-114.25-78.53,24.47-64.09,113.9-50.09,161.72-37.64,24.76,6.44,51.09,24.85,73.5,38.12C1263.73,2909.6,1294.23,2925.44,1282.75,2955.7Zm1670-149.2c20.45,19.73,65.19,51.49,40.67,84.52-23.09,31.1-66.42,6.2-93.1-5.85A577.88,577.88,0,0,1,2797,2824.76c-15.38-11.25-36-24.17-48-39.05-10.51-13-10-30.2-20.3-44.73a63.58,63.58,0,0,0-17.74-17c-5.17-3.24-24.41-5.81-27.27-8.61-10.91-10.67,1.8-32.43,9.94-39.67,16.86-15,35.17-7.78,55.4-5.79,20.6,2,38.34,4.53,58,11.31C2869.53,2702.73,2924.58,2745.88,2952.76,2806.5Zm-205.69,157.77q-17.93-7.86-36.36-14.47c14.77-20.32,20.22-46.64,24.59-70.89,1.7-9.42.2-29.3,4.94-37.11,3.93-6.48,9.85-4.71,18.83-3.72,35.33,3.9,67.89,20,98,38.12,14.88,9,33.81,17.85,46.82,29.29,7.38,6.49,13.66,13.35,13.8,23.86.24,18.32-13.93,13.44-28.74,16.79-20.85,4.73-38.88,20.53-58.19,23.41C2805,2973.36,2772.73,2967.4,2747.07,2964.27Zm81.51,16.16a72.1,72.1,0,0,0-10.86,20.69q-20.16-12.32-41.28-23C2793.8,2979.4,2811.19,2980.08,2828.58,2980.43Zm-87.16-154.34c.67-10.42,1.44-20.85,1.38-31.31a606,606,0,0,0,47.49,38.6A183,183,0,0,0,2741.42,2826.09Zm-69.2-109.79c-30.68,5.9-43.36,36.13-53.84,62-13.05,32.18-24.39,65.69-26.86,100.57-25-11.4-51.82-19-79.4-19.72-16.77-.43-15.35,2.35-18.5-13.73a259,259,0,0,0-9.72-36.86,247.72,247.72,0,0,0-34.11-63.91c-15.4-20.93-35.68-35.28-52.63-54.24-28.67-32.1-49.84-69.45-83.91-97.36-36.81-30.15-88.2-50.46-136.22-40.16,2.24-2.9,11-18,14.25-19.29,4.39-1.82,17.75,3.63,22.36,4.4,17.08,2.85,34.31,4.62,51.58,5.87,29,2.1,58,2.29,87.07,2.58,23.49.24,44.51-1.79,57.27-24.85,15-27.13,1.79-50.66-21.4-66.12,40.29,8.62,124.94,33.2,141.08-24,6.84-24.22-7.48-42.54-26.08-56-10.27-7.44-21.68-12.12-32.49-18.52-12.63-7.49-21.71-18.35-33.24-27.95a620.39,620.39,0,0,0,64.51,2.83c17.59-.15,12.13,0,16.95,14.76a48.66,48.66,0,0,0,12.73,19.55c13.83,13.48,33.09,18.83,50,27,19.22,9.28,35,25.08,54,36-23.87,13.83-57.28,31.85-64.68,60.62-48.28-35.06-93.49,26.86-119.31,60.74-27.46,36-61.1,92.1-39.37,138.48,22.63,48.26,80.2,44.06,112.33,9.08,33-35.92,69.19-103.63,71.27-153.29,12.39,4.76,27.57,4.42,40.65,5.18-20.68,19.88-29.94,54-10.78,77.87,16,19.93,45,28.36,68.81,33.78C2676.17,2672.67,2664.13,2695.12,2672.22,2716.3Zm-349.51,217.83a173.37,173.37,0,0,0-22.8-15.79,65,65,0,0,1-12.68-7.14q-9.34-2.64-2.49-11.14c-1.37-23.71.17-40.26-11.88-63-19.89-37.55-50.89-76.33-83.7-103.3-29.19-24-77.29-32.52-99.64,5.66-21.84,37.31,11.39,90.85,29.73,123.28-30.89,5.06-64,19-78.11,48.85-13.88,29.36-3.86,56.4,22.79,72.6,48.61,29.55,116.65,29.31,171.68,30.47-14.87,9.74-32.72,20.29-42.45,35.57-3.27,5.14-3.75,14.08-7.12,18.19-5,6.09-13.67,5.65-22.82,7.67-34.95,7.73-67.54,24.6-92.3,50.75,6.69-44.17,19.22-115.58-26.13-144-23.16-14.5-43.44-7.45-64.44,5.51-10.82,6.68-4.54,6.85-16.52,4.54-5.86-1.12-12.12-5.06-17.8-7.07a196.59,196.59,0,0,0-47.09-10.57,595.73,595.73,0,0,0,83.33-54.79c22.67-17.81,56-40.72,68.89-67.17,11.4-23.35,3-54.11-21.24-65.41-24.76-11.53-58.54,2.46-80.77,13.64,23.49-15.46,25.57-52.3,6.91-72.3,60.37-25.18,117.09-67.37,163.9-112.54,3.05,34.39,40.12,58,66.94,73.65,18.34,10.67,37.64,19.72,57.14,28.07,10.72,4.59,13.69,5.91,20.37,15.44,6,8.49,9.5,20.13,14.31,29.41a607,607,0,0,0,68.19,104c13.1,16.07,31.37,30.39,43,47.22,8.26,12,3.54,9.48,3.81,24.25a45.76,45.76,0,0,0,8.76,26.13,260.78,260.78,0,0,0-65.55,6.25C2338.51,2957.29,2333.4,2943.12,2322.71,2934.13Zm-186.16-44.3c15.66,21.65,35.57,42.3,60.65,52.8a67,67,0,0,0,49.74.7,63.79,63.79,0,0,0,20.46-13c11.54-11.07,3.69-12.59,19.1-6.56s56.54,34.33,34.26,51.46c-12.64,9.72-39.57,14-54.46,21.6-14.33,7.32-22.19,7.13-38.13,6.68-28.89-.83-57.87-2.52-86.47-6.88-41.22-6.28-125.74-27.24-87-87.15,8.65-13.38,22.66-22.23,37.17-28.11,6.34-2.57,17.8-7.23,24.75-7.14C2130,2874.38,2128.15,2878.22,2136.55,2889.83Zm-22-60.24c-10.46-22.09-27-50.32-19.41-75.39,7.44-24.64,34.12-35.36,57.94-28.75s41.26,27.76,57.23,45.44c25.14,27.81,93.4,101.46,56.8,142.77-35.45,53.78-102,3.9-124.74-34.46C2134.12,2865.26,2123.86,2849.22,2114.58,2829.59Zm-49,227.77c-16.11-24.89-57.92-42.29-83.16-55.5,13.84-17.12,37.06-21.5,56-10.16C2061.1,3005.28,2065.87,3033,2065.6,3057.36Zm-172.09-236.17c-15.55,8.78-30,19.07-45.59,27.73-13.65,7.61-29.47,9.07-42.94,15.72-7.43,3.66-10.57,6.64-21.24,9-2.38.52-7.49,1.09-12.34,2-10,1.88-19.49,4.48-29.71,4.88-8.2.32-18.62.82-26-3.43-10.26-5.89-7-6.22-11.37-15.57-6.27-13.39-16-24.76-13.09-39.6,6.63-33.49,38.34-59.8,67-74.8,43.58-22.78,100.47-26,148.53-21.53,27.66,2.59,62.64,14.39,48.62,51C1945.42,2802.57,1890.6,2822,1893.51,2821.19ZM1761.93,2889c-4.75,5.07-10.54,14.45-16,18.52-8.77,6.49,0,3-11.91,4.83-13.28,2-33.65-1.36-47.29-1.83a50.94,50.94,0,0,0,17.32-26.7C1721.26,2894,1743,2892.58,1761.93,2889Zm291.44-351.89a51.38,51.38,0,0,0-4.54-14q-8.24-7,2.16-10c3-4.89,14.73-19.11,19.14-22.47,8.16-6.22,22.17-3.4,30.82-8.08,5.7-3.08,8-7.91,13-11.29,3-2,5.84-3.72,9-5.47,28.72-16,83.74-23.14,77.07,28-1.75,13.43-14,28.71-20.05,36.92-6.7,9.13-13.36,21-21.85,28.55-7.3,6.47-16.06,9.72-22.84,17.42-6.25,7.11-8.42,15.53-13.5,22.92-6.5,9.44-18.27,17.83-26.82,25.43a589.87,589.87,0,0,1-59,46c-26.73,18.27-83.12,65.24-116.22,43.54-14.49-9.49-16.77-30.47-13.3-45.6,6.25-27.16,39.91-34,62.73-46.49C2002.05,2604.51,2061.54,2584,2053.37,2537.08Zm50.42-188.77c7.44-4.06,31.23-10.19,39.69-10,14.26.39,6.8-1.93,15.94,11.76,12.52,18.75,41.21,31.06,60.39,41.75a167.78,167.78,0,0,0-48.71,9.05c-19.08,6.78-37.28,18.25-47.88,36-6.06,10.15-6.93,18.63-14.9,26.62-9.11,9.13-19.91,10.19-31.73,13.62,8.78-22.17,12.22-47.16,14.58-70.76,1-10.15,1.58-20.31,2-30.51l.48-16.82Q2089.6,2346.13,2103.79,2348.31Zm107.41,141.94c-1.17-10.09-8.47-19.25-9-30.54-.32-8.17-19.9-16.37-25.74-17.93-16.91-4.52-33.42,2.51-48.37,10.07,18.52-47.52,76.48-48.4,117.77-46.26,24.64,1.28,52.38,4.85,73.5,20.18,10.91,7.92,15.21,14.27,28,19.39,7.78,3.12,15.1,7.84,22.39,12.21,20.46,12.27,43,25.82,32.81,53.43-7.42,20-23.76,24.63-42.78,24.79-53.72.42-109.15-.33-161.82-11.7C2204.22,2514.61,2212.59,2502.22,2211.2,2490.25Zm43.33,220.64c-28.8-12-143-56.5-123-105.72,4.23-10.41,28.2-33.7,37.56-38.57,14.07-7.31,34.76-6,50-4.12a166.93,166.93,0,0,1,72.36,27.62c25.47,17.24,44.43,40.3,64.19,63.45,4.6,5.4,10.79,10.66,14.46,16.56,3.38,5.43,3.39,14,6.62,18.62,8.76,12.42,18.23,12.88,11.13,31.61-11.88,31.32-40.56,25.24-64.78,16.57-12.32-4.41-24.66-8.8-36.9-13.45C2280.18,2721.18,2252.85,2706.78,2254.53,2710.89Zm146.16,198.84c-52.63-51-95.12-112.18-125.61-178.8,22.15,8.52,49.62,23.2,73.53,25.22,26.53,2.24,52.92-21,52.78-48.06,36.24,31.73,64.37,73,77.14,119.74,1.47,5.37,9.53,28,6.33,32.63-2.38,3.44-28,5.82-33.36,7.74C2430.56,2875.73,2410.39,2889,2400.69,2909.73ZM2571.34,2518c5.33,17.61,15.7,18.57,12.13,38.46-2.48,13.77-8.12,26.85-13.51,39.67-11.38,27-24,53.61-40.63,77.85-24,34.94-76.53,63.71-105,14.6C2397,2641.21,2442.19,2579,2471,2543.67c13.15-16.12,27.48-35.72,45.69-46.27,9.47-5.49,19.88-8.23,30.73-6.22C2565.52,2494.54,2566.78,2502.92,2571.34,2518ZM2867,2582.75c14.55,7,33.69,16.73,38.6,33.4,6.49,22.07-11.19,43.89-32.4,47-50.95,7.52-108.67-4.07-159.14-8.87-42.47-4.05-114.21-32.22-78.58-86.3,7.95-12.07,18.75-16.84,29.49-22.46,11.21-5.87,18.94-9.67,32.07-12.25a167.44,167.44,0,0,1,65.56.29q-6,.33,4.87,4.15,4.26,8.45,12.56,4.08c9.37,1.67,15.62,1.73,25.29,6C2826.9,2557.48,2847.3,2569.75,2867,2582.75Zm49.47-167.1c33.06,6.41,39.12,46.25,13.62,66-29,22.46-77.33,32.46-112.35,41.11-23.87,5.89-35.32,3.2-59-.86a177.23,177.23,0,0,0-63.64.66c-19.16,3.7-36.54,15.19-55,16.63-12.82,1-33.21.21-44.76-6.7-28.77-17.23-13.15-51.18,6.62-67.43,11.63-9.55,34.84-29.63,49.24-27.87,18.37,2.25,39.42,15.61,58.32,19.54,38.23,8,77.89,7.52,116.26.72,16.92-3,37.71-6,52.38-15.5,7.87-5.1,11.12-12.54,17.4-18.64C2905.08,2414.1,2900.09,2412.51,2916.47,2415.65ZM2725,2312a605.38,605.38,0,0,1,89.84,29.86c12.31,1.07,21,7.16,31.19,13.23,11,6.53,27,11.8,36,21,5.25,5.36,10.47,13.38,9.71,21.37,0,.44-18.86,14.57-3,15.08-9.88,24.06-40.19,30.75-62.52,37.59-21.47,6.57-50.14,2.31-72.56,1.19a261.84,261.84,0,0,1-82.14-17.19c-12.9-5-8.2-8.41-20-13.74q-4.35,4.73-8.56.31c-2.57-1.37-5.09-2.83-7.54-4.4-6.63-2.9-11.78-8.82-18.06-12.19a284.82,284.82,0,0,1-29.21-17.94c-10.91-7.5-24.55-11.55-36.19-18.84-8.07-5-16-10.28-20.49-19-2.62-5.16-4.66-11.25-3.89-17.18.14-1,4.27,1.14,4.57-1.73,1.15-11.13-3.15-13.78,8.62-24.17,8.9-7.86,19.28-9.41,30.74-10.19,28.33-1.91,56.83.78,84.49,4.2-6.55,1.84,3.89,5.53,6.74,6.39,6.33,1.91,8.06-1.24,14.73-1.45C2693.13,2303.68,2709.58,2308.19,2725,2312Zm-563.53-175.45c-80.68-4.58-160-26.67-232-63.28-23.08-11.74-78.86-33-82-63-4-37.71,40.41-44.75,67.28-47.48,71-7.23,145.7,8.88,201,55.75,8.87,7.52,16.46,18.43,25.78,24.81,15.57,10.67,34.26,14.48,48.59,28.13C2216.56,2096.65,2199,2138.64,2161.51,2136.56Zm197.5,67.29a617.81,617.81,0,0,1-130.44-14.18c-29.71-6.51-31.43-42.4-12.93-61.94,24.4-25.79,72.16-40.86,105.58-49,36.89-9,75.76-10.71,113-2.94,19.49,4.06,36.48,13.9,55.2,19.22,12.18,3.46,27.36,1.33,40.28,3.84,27.35,5.33,56.42,24.43,39.31,56.06-17.22,31.84-63.95,21.09-93.4,26.17-20.95,3.61-39.86,11-60.06,17C2396.88,2203.56,2378.79,2203.87,2359,2203.85Zm125.67-13.2q-12.63,2.73-25.39,4.91Q2472,2192.5,2484.68,2190.65Zm-125.79,49.11c35.74-23.41,69.62-36.12,112-41.31,33.36-4.09,65.18-12.57,98.38-6,20.22,4,37.82,15,57.28,19.59,12.57,3,27.21,1.27,40.27,3.84,27.32,5.39,56.42,24.27,39.34,56-18.14,33.68-67.75,13.71-98,12.52-18-.71-38.64-3.19-56.05,2.34-16.52,5.25-20.22,15.82-31,27.12q-.8,11.73-13.35,7l-10.86.1q-16.35,0-32.69-.9c-23.22-1.26-40-2.66-60-14.24a249.09,249.09,0,0,0-30.64-14.93c-7.79-3.19-21.81-4.63-28.1-9.68C2333.32,2271.52,2346.61,2247.82,2358.89,2239.76Zm-157.15,51.66c3.38-19.94,103.49-8.7,120.39-4.64,22.33,5.38,47.3,12.61,70.74,25.27-12.47-2.14,11.52,11.74,14.94,13.39,15,7.26,26.11,14,38.67,26.77,17.08,17.32,40.77,23.44,59.76,39.31,16,13.12,18.54,35.14,5,51C2495,2461.69,2469,2456.43,2447,2454c-26.57-3-55.12-6.45-80.59-14.88-22.14-7.33-41.53-21.94-63.31-31-22-9.15-46.13-10.87-67.41-20-19.34-8.28-50.31-23.9-64-40.11C2151.61,2324.2,2174.27,2288.12,2201.74,2291.42Zm-366.91-69.24c-82.87-14.87-162.08-48-231.56-95.48-29.49-20.14-7.85-57.17,19.41-65.06,36.11-10.45,79.68-8.95,116.36-2.74,35,5.93,69,18.5,98.6,38.39,15.26,10.27,26.32,24.36,40.66,35.2,11.53,8.73,26,13.43,38.44,21.63,25.16,16.55,41.71,45.4,14.2,68.65-13,11-24.5,8.63-39.13,6.71C1872.79,2227,1853.76,2225.58,1834.83,2222.18Zm-492.66,43.21c-27.62-4.55-63.78-9.91-55.83-46.78,7.42-34.37,60.33-51.79,89.44-62,35.56-12.51,73.75-18.38,111.41-15.32,34.32,2.78,64,19.4,96.61,24.06,25.47,3.65,67.26,2.73,71.69,36.71.79,6.13.7,16.72-4.06,21.49-5.3,5.32-12.56,2.11-20.78,3.46-16.44,2.69-31.44,12.72-39.44,27.53C1510.17,2275.77,1424.77,2279,1342.17,2265.39ZM1869,2379.1c20.67,22,78.43,67.65,28.35,94.91-21.57,11.74-45.4-1.24-65.83-9.76a573.52,573.52,0,0,1-75.91-38.52,594.55,594.55,0,0,1-119.19-95.33c-13.22-13.66-43.4-37.54-39.25-58.86.68-3.47,12.88-22.28,11.35-21.83,27.14-26.14,78.8-7.54,109.41,2.32,49.59,16,91.87,42.69,124,83.22-17.14-5.83,2.16,8.74,6,12.7A110.16,110.16,0,0,1,1869,2379.1ZM1858.25,2339a237.16,237.16,0,0,0-26.66-31.5c-10.69-10.65-11.18-16.28-1.28-29.12,15.65-20.28,50.38-34,73.86-37.14,13.78-1.84,21.91-4.08,34.12-11.13,11.74-6.78,21.31-9.22,35.58-10.83a245.81,245.81,0,0,1,87.6,5.51c22.14,5.61,40.07,16.61,62.68,18,18.48,1.13,45.54,3.18,58.86,18.2,11.11,12.52,7.75,14.17-1.86,21.47-9.09,6.9-17.2,12.12-22.78,22.8-6.72,12.88-2.78,15.28-15.39,21.94-13.58,7.17-34.34,9.14-49.42,12.15-1.13-26.82-9.4-54.63-34-68.94-24.38-14.17-53.56-7.35-70.44,14.65-7.42,9.67-12,21.27-16.44,32.5-2.83,7.22-5.32,24.93-10.62,29.69C1946.93,2360.75,1879.27,2343.09,1858.25,2339Zm102,130.3c-8.57-30.57-3.12-64.47,4.87-94.57-.69-11.88,4.91-26.81,8.28-38.12,4.76-16,14.08-32,24.54-45.19,25.71-32.45,67.75-15.48,80,19.48,11.14,31.78,5.39,71.35,1.3,104-2.42,19.34-5.12,41-13.1,58.91a91.07,91.07,0,0,1-8.69,14.72c-1.86,2.55-14.28,13.15-6.22,9.56-12.49,13.59-46.15,19.56-62,11,17.56-.82,1.27-4.65-7.46-10.39-8.12-5.33-7.62-1.22-14.38-11C1963.68,2482.3,1962,2475.36,1960.24,2469.25Zm65,44.48-4.79.92C2022,2512.57,2023.54,2512.26,2025.25,2513.73ZM1783.44,2587c12.4-24.65,36.15-44,60.27-56.51,22.68-11.78,47.23-17.6,72.57-20,21-2,42.54-4.25,60.88,3.94,15.77,7,15.12,11.68,32,11.45,18.51-.24,29.39-9.7,33.48,13.14,3.08,17.17-4.84,29.64-18.3,39.28-31.56,22.58-69.71,40.83-104.74,57.16,2-4.5-12.72,4.26-14,4.85-12.23,5.66-25.58,12.07-39.46,16.19-22.5,6.67-55.48,15-75.66-1.93-12.21-10.26-6.89-18.42-8.54-32.08C1780,2606.53,1775.68,2602.4,1783.44,2587Zm-8.26,66.77a46.51,46.51,0,0,0,17.32,15c32.45,16.13,76-.13,106.86-12.55-7.34,20.25-8.16,40.58,5.61,58.58-49,1.6-96.66-2.31-142.72,18.35-37.9,17-81.07,52.55-83.12,97.38-14-6.41-31.26-7.15-46.35-7.25-18.52-.12-30.79-1.59-48.85-6,42.35-29.77,15.29-73.67-20.34-91.32a607.19,607.19,0,0,0,115.78-23.71C1709,2693,1758,2682.3,1775.18,2653.72Zm-167.54-128.39c-17.64-35.92-34.52-110.24,29.93-105.48,48.53,3.58,90.46,74.69,111.49,112.38,22.5,40.32,26,112.4-41.87,104.32C1654.83,2630.31,1624.69,2566.92,1607.64,2525.33ZM1460,2596.27c-68.91,6.58-64.39-86.09-53.43-129.05,9.23-36.2,27.7-114.56,75.71-111.32,61,4.13,47.43,93.69,42.14,133.16C1519.26,2527.36,1509.28,2591.65,1460,2596.27Zm-40.3,52.93c52.62-43.65,119.22-72.54,188.36-71.14,20,.4,23.23,16.2,35.62,30.5,10.61,12.25,23,23.41,37.49,30.86,28.39,14.59,64.29,9.3,83.63-17.4,1.31,15.91,6.81,22.47-6.46,35-12,11.25-31.58,16.7-46.68,22.5a586.28,586.28,0,0,1-104.34,29.14c-15.7,2.87-33.22,7.08-49.23,6.87-18.49-.24-33.53-13.84-50.5-22.07-31.56-15.31-65.77-24.88-101.09-22.82A42.41,42.41,0,0,1,1419.68,2649.2Zm-100.6,118.6c-19.31-30.3,11.84-63.63,38.07-75.17,23.52-10.34,49-12.86,73.41-10.86,50.39,4.12,95.22,32.54,135.83,58.12,23.74,15,44.12,46.87,11.59,68.18-14.2,9.31-34.23,2.35-50.5,2.29-17-.07-33.72,2.7-50.68,2.38C1432.86,2811.92,1346.31,2810.52,1319.08,2767.8Zm23.9,124.7c28.92-24,61.75-43.43,97.23-55.94s68.38-11.94,105.47-11.51c26.72.31,50.74,10.66,76.92,9.32,13.48-.7,29-.69,42.08,2.88,16.56,4.53,20,18.16,25.39,33.75,11.36,33.15-28.81,38.26-53.19,40.24-18.86,1.53-37.72,4.68-55.73,10.64a183,183,0,0,0-26.66,11.18c-5.35,2.77-15.26,12.28-20.4,12.49-9.44.39-36.31-21.17-45.25-25.39-15.72-7.41-32.11-13.6-49.13-17.3-36-7.83-77-5.64-110.11,11.74C1331.62,2906.36,1336.41,2898,1343,2892.5Zm64.82,234.16c11.85,4.5,24.15,22.09,32.54,31.36,27.8,30.73,72.47,76.39,67.59,122.16-6.73,63.05-76.56,49.89-109.27,17.7-30.56-30.08-53.33-74-67.08-114.5-2.75-8.09-5.3-14.41-5.17-19.53a12.2,12.2,0,0,1-1.29-8.25,31.13,31.13,0,0,1,.79-3.39,10.71,10.71,0,0,1,.19-4.42,10.3,10.3,0,0,1,2.92-4.88l-1.09.38c7.79-24.36,34.83-34.06,57.93-27.7a11.66,11.66,0,0,1,7.5,2.91c1.94,1.71,5.45,3.78,7.78,5.83C1402.07,3124.39,1403.59,3125.06,1407.8,3126.66Zm-2.8-45.58c.72,5.79.39,20.07-5.21,23.92-6,4.15-14.38-1.34-23.35-2-16.65-1.3-33.64,3.73-45.7,15.6-5.18,5.11-8,11.13-11.67,17.24-7.81,12.86,2.93,6-13.1,14.61-16.39,8.82-41.83,11.26-59.91,14.71A607.9,607.9,0,0,1,1111,3175.43c-28.4-1-71.89,2.13-71.83-36.83.07-36.49,50.62-60.17,78.75-74,33.23-16.4,69.44-26.87,106.54-28.82,36.31-1.9,69.53,13.36,104.08,13C1354.74,3048.42,1400.48,3045,1405,3081.08Zm87.44-39.18c-48.69-1.85-136.59.9-178.69-34.74-10.44-8.84-16.3-20.27-15.22-34.26.75-9.73,10.52-28.9,18-35.58,2.6-2.33,13-9.78,11.92-9.41,7.5-2.5,14.59-7.76,22.26-10.42,17.59-6.1,36.59-8.36,55.14-7.88,47.83,1.27,100.38,27,134,52.67,22.34,17.06,58.83,35,29.26,68.23C1560.13,3040.6,1516.72,3046.57,1492.44,3041.9Zm192.73,9.28c48.53,0,96.36,65.35,121.11,101,25,35.92,35.86,102.84-26.19,107.86-51.47,4.15-90-56-111.74-94.3-11.52-20.3-27.1-44.43-28.39-68.14C1638.55,3071.69,1659.56,3051.18,1685.17,3051.18Zm-189,1.86c28.16.45,64,7.45,83.46-18.27,23.33-30.82,4.44-59.87-23.82-76.47-.17-.1,0-.2.06-.4.11-1.69-4.45-5.6-5.78-9.86,13.06-7.93,27.55-17.53,42.2-21.5,8.32-2.26,46.39-7.94,50.94-7.92,28.4.13,62.19-1.43,90.66,4.78l-.22.35c.28,0,.55,0,.84,0,4.85,0,12,6.21,12.44,6.5,9.42,6.17,13.68,21.27,11.85,31.47C1752.09,2998.89,1529.34,3128.68,1496.16,3053Zm263.93-34.21c-11.6,3.11-23.76.18-31.88-8.75,26.09-15.33,49-32.82,39.12-68.22-3.18-11.39-22.73-22.46-10.66-30.35l6.14-7.26c14.6-16.68,24.63-20.16,44.94-27.94,34-13,66.28-29.36,97.81-47.41,6-3.46,12.84-9.1,19.51-11.34,7.24-2.43,15.87-1.14,23-3.22,17.06-4.94,31.38-15.26,49.64-18.23,32.16-5.24,58.73,20.66,43.17,52.95-14.07,29.2-54.91,55.51-80.43,74.24-28.9,21.2-63.57,48.19-99.39,52.65-18.93,2.36-38.16,7.37-54.56,17.43-7,4.27-12.37,11.26-19,15.36C1779.24,3013.84,1769.88,3016.21,1760.09,3018.83Zm60.15,78c-29.91-20.93-49.87-38.58-30.3-73.56,17.49-31.25,40.7-30.39,74.08-36.19,55.4-9.63,150.34,44.72,158.12,51.3,21.12,17.87,44.52,23.39,37.51,51.18-5.62,22.24-23.3,28.78-43.88,28.85-12,0-24.29-1.36-36.15-.34C1966.91,3119.14,1839.49,3110.27,1820.24,3096.81Zm222.07,94.36c-11.65,22.61-34.29,39.38-60.76,33.69-30.55-6.56-43.31-36.34-45.41-64.66-.5-6.75-1.74-16.78.11-23.16,3.45-11.94,3-9.24,17-8.74,15.71.57,31.43.73,47.14.87,23.61.21,46.27,2.18,61.82-19.47-1.77,15.68-4.34,28.45-10.1,42.66C2046.88,3165.22,2041.75,3176.87,2042.31,3191.17Zm274.47-69.46c-1.68,4.3-.55,5.76,3.39,4.41-3,15.12-14.24,21.39-26.38,28.74-12.87,7.79-20.56,19.28-33.21,26.94-11.6,7-25.09,7.91-37.4,12.73-16.07,6.29-31.21,15.52-47.24,22.13-42.49,17.52-141.64,39.19-115.92-40.5,5.91-18.3,7.13-30,21.27-44.35a160.92,160.92,0,0,1,40.12-29.47c22-11.53,47.36-17.4,70.54-19.77,23.43-2.4,45-1.18,68.23-1.15,14.19,0,32-2.84,44.76,5.29,6.55,4.16,23.95,28.12,11,28.68Zm248.31-77.17c-9.52,17.48-24.64,18.64-41.48,23.87-18.71,5.82-36.61,14.64-55.41,20.52a594.67,594.67,0,0,1-116.47,23.86l-10,.94q-12.2,6-10.67-4.8c-3.79-5-3.84-13.95-7.86-19.67-6.18-8.78-16.42-16.18-27.38-17.34-10.63-1.13-22.24-.43-33.2-1.62-21.21-2.29-44.93-1.1-66.12.73,4.31-22.28,26.36-35,43.86-46.52,9.53-6.29,17.95-9.2,27.77-13.73,2.55-1.18,24-6.52,7.77-6.64,29.94-14.67,51.45-21.47,83.1-26,18.81-2.69,40.23-4.84,58,.6,9,2.77,14.75,7.08,25.08,8.25,11.22,1.28,22.44,2.64,33.69,3.65a205.34,205.34,0,0,1-32.1-9.7c12.71,2.8,24.1,8.07,36.81,8.47,17.45.55,34.11-1.87,51.52,2.14C2556.51,2997.19,2580,3017.17,2565.09,3044.54Zm20.21-42.42c-5-.15-14.84,1.32-19.35-.75-3.75-1.73-9-10.27-13.3-13.06-27.16-17.77-56.28-3.25-85.28-8.29-19.85-3.45-53.95-10.26-61-30.89-8.58-25.21,6.17-45.48,26.11-59.26,21.3-14.72,45.39-16.66,67.59-17.48,5.27-.2,8.95-2.78,19.51-2a171.32,171.32,0,0,1,32.89,5.64c8.63,2.35,33.47,7.06,38.55,14.79,5.76,8.77,2.87,33.65,7.45,44.88,5.45,13.36,15.18,18.93,22.61,29.9,5.51,8.12,2.34,2.39,3.53,12.12s-1.76,15.3,1.82,25.1C2612.74,3002.69,2599,3002.54,2585.3,3002.12Zm40-44.73c-45.89-55.47-17.63-139.32,12.87-197.29,14.48-27.51,45-46.31,73.4-25.67,18.59,13.52,18.3,27.63,18.53,48.62.1,8.91,7.29,40.73-3.36,43.48,2.32,1.3,7.82,8.08,8,9.73.7,5.67-5.82,16.47-7.26,21.61-6.52,23.28-6.54,47.67-16.92,70.12-8.8,19.06-18.71,36.54-41.1,39.07C2656.1,2968.57,2634.87,2968.91,2625.34,2957.39ZM2950.8,3127.5c15.45,17.61,7.08,41.21-11.53,52.4-19,11.43-45.55,5.18-66.1,1.6-39.24-6.84-77.44-20.89-110.65-43.05-32.84-21.91-53.24-49.2-75-81.1-18.74-27.46-67.39-43.12-50.37-83.07,6.35,2.35,14.23,4.38,21.13,3.82,11.83-1,7-1.62,17-7.63,16.52-9.94,24.33-10.58,42-3.23,12.84,5.34,27.32,7.66,40.68,14,13.66,6.46,43.08,16.49,52.71,28.38,7.72,9.53,4.23,28,14.41,40.68,9.05,11.28,22.76,18.39,35.88,23.77,15.7,6.43,37.39,6.12,51.72,13.71C2926.4,3095.07,2940.81,3116.11,2950.8,3127.5Zm131-44.32c.44.48-29.68,2.56-32.44,2.41-16.85-.88-33.84-.29-50.71-.91-19.06-.71-38.1-1.88-57.05-4-12.54-1.4-35.24-2.09-46.27-8.74,6.32,5.55-8.76-.91-11.39-1.65a174,174,0,0,1-20.3-6.8c-9.8-4.13-19.87-9.26-27.28-17.06-15.75-16.58-14.67-40.33-.17-57.82,5.86-7.07,15.9-13.66,21.81-18.76s19.41-11.19,29.08-13.62c15.15-3.8,31.6-3,45.53-3.44,19.66-.55,40.15,5,58.33,11.9,6.9,2.61,14.5,5.18,20.87,9,4.68,2.81,8.61,9,11.86,10.84,11.2,6.36,15.31,3.49,27.17,10.82,15.31,9.47,38.08,18.21,48.7,32.82C3113.51,3047.39,3105.55,3076.57,3081.82,3083.18Zm112.21,8.23c-26.07,32.86-68.69,18.13-94.64-5.9,45.34-39.77-2.32-75-35.66-95-24-14.36-46.35-24.75-40.3-57.61,3.67-19.94,20.41-33.43,40.15-35.3,43.63-4.13,81.15,49.8,104.11,80.27C3190.25,3007.86,3223,3054.87,3194,3091.41ZM927.3,2802.51a41.72,41.72,0,0,0,22.09,6.55,43,43,0,0,0,24.85-8.31,616.65,616.65,0,0,0,119.7-110.44,584.25,584.25,0,0,0,85.46-138.73c9-20.69,4.06-44.38-12.31-59-15.17-13.51-36.14-15.21-54.73-4.43h0a182.62,182.62,0,0,0-45.14,36.88c-86.74,33-148.3,116.7-164.81,224.21C899.3,2769.62,909.54,2791.51,927.3,2802.51Zm-14.11-51.58c16-104.07,75.46-184.87,159.12-216.12l1.28-.48.9-1a172.19,172.19,0,0,1,43.35-35.69h0c14.58-8.47,30.28-7.3,42,3.13a40.38,40.38,0,0,1,9.57,46.47,573.16,573.16,0,0,1-83.86,136.14A606,606,0,0,1,968,2791.84c-15.15,10.66-28.38,5.45-34.92,1.4C919.11,2784.61,910.76,2766.81,913.19,2750.93Zm140.24-411.83c92,62.87,197.67,99.33,305.45,105.44q1.61.09,3.18.09c21.35,0,40.36-12.55,48-32,7.33-18.78,1.6-38.89-15-52.47h0a183.81,183.81,0,0,0-50.34-29.38c-61.17-69.47-161.2-98.05-267.9-76.44-20.27,4.09-37.32,21.2-41.46,41.61C1031.88,2313.16,1038.46,2328.89,1053.43,2339.1Zm-7.38-41c3.24-16,17.09-29.89,32.93-33.09a337,337,0,0,1,66.85-6.85c77.11,0,145.94,28.36,191.56,80.79l.89,1,1.27.49a173.49,173.49,0,0,1,48.6,28.13c13,10.65,17.35,25.63,11.71,40.07-5.19,13.29-19.68,26.18-40.35,25-105.81-6-209.53-41.82-299.94-103.56C1044.29,2319.66,1044.54,2305.59,1046.05,2298.13Zm262,170a52.07,52.07,0,0,0-40.77.53c-23.68,10.45-32.84,35.82-40.93,58.19-1.48,4.11-2.88,8-4.33,11.68a60.3,60.3,0,0,0-2.3,7.39l-.07.27c-20,59.61-22.49,107.36-7.47,141.94,10.59,24.28,34.06,39.78,58.91,39.78a60.56,60.56,0,0,0,8.15-.56c28.77-4,50.47-27.06,59.53-63.18,6.69-26.77,10.41-56.14,11.06-87.29q.09-3.53.19-7.16c.71-24.65,1.52-52.59-11.53-74.92h0A62.89,62.89,0,0,0,1308.07,2468.18Zm31.07,101.28c-.07,2.43-.14,4.84-.19,7.23-.63,30.34-4.24,58.91-10.74,84.88-3.75,14.95-16.17,50.23-50.45,55-22.92,3.16-45.77-10.32-55.56-32.77-17.35-39.93-5.3-95.07,7.87-134.3l.22-.81a50.29,50.29,0,0,1,1.88-6.13c1.52-3.86,2.95-7.8,4.46-12,7.7-21.32,15.66-43.36,35.07-51.92a40.86,40.86,0,0,1,16.5-3.4c14.69,0,30.62,7.52,40.89,25.06C1340.57,2520,1339.81,2546.27,1339.14,2569.46Z" fill="#231f20"/><path d="M1475.05,2412c-20.74,49.57-63.28,112.89-114.86,128.13a67,67,0,0,1-19.13,2.78,66,66,0,0,1-45.67-18.15,60.93,60.93,0,0,1-10.42,7.78c-28,16.79-60.68,9.28-89.5,2.65-5.47-1.26-10.63-2.45-15.58-3.42l-66.56-13.23L1050.08,2506c-15.91-3.15-34.22-7.62-49.39-17-17.72-10.94-27.85-26.68-30.12-46.8-1.88-16.69,2.59-32,12.92-44.18,13-15.34,34.27-24.9,58.41-26.23,30.49-1.63,61.7-.53,91.89.53,14.76.52,30,1.06,44.86,1.26,14.61.21,27.22,5.32,36.72,14.82,28.77,8.24,53,21.14,72.1,38.45,1-2.54,2-5,2.94-7.53l.84-2.13a364.48,364.48,0,0,1,104.84-145.36,54.67,54.67,0,0,1,54.09-10c18.93,6.53,33.62,22,37.63,39.59a89.74,89.74,0,0,1,4.36,22.8,174.55,174.55,0,0,1,23.31-30.13,193.47,193.47,0,0,1,42.55-32.82l0-.06c28.21-31.46,61.44-55,104.59-74.08,16.53-7.35,36.27-3.18,51.52,10.88,15.64,14.43,21.8,35,15.7,52.39-21,58.82-47.67,105.4-81.65,142.46-18,19.66-40.89,36.18-62.72,45.35-29,12.17-56.47,11.94-79.46-.66-13.85-7.59-23.65-18.11-28.89-30.87C1476.18,2409.3,1475.43,2411.13,1475.05,2412Zm-37.71,222.88c-9.53-12.67-24.09-19.85-41-20.21-2.89-.07-6.3-.17-10.16-.29-25.21-.76-72.13-2.18-116.07,2.63-56.68,6.19-92,20.52-108,43.81-11.48,16.74-12.31,37.06-2.49,60.39,17.85,42.32,74.31,52,121.52,55.63q10.51.81,21,.8c42.39,0,85-9.79,129.57-29.72,14.63-6.56,24.16-17.69,26.84-31.35,2.62-13.33-1.46-27.92-10.95-40A56.64,56.64,0,0,0,1437.34,2634.91Zm385.81-284.76c-86.84,33.69-148.33,117.7-164.73,225.28-3.43,22.24,7.69,46.16,27.06,58.16a46.59,46.59,0,0,0,24.66,7.31c9.49,0,19-3.11,27.75-9.29,90.8-64.12,161.42-150,204.22-248.48,9.79-22.62,4.31-48.54-13.65-64.5-16.81-14.93-39.93-16.83-60.36-4.94A189,189,0,0,0,1823.15,2350.15ZM1142,2115.71a42.88,42.88,0,0,0,24.84,7.42,55.75,55.75,0,0,0,22.53-4.91c16.64-7.37,27.72-21,29.63-36.5,5.18-42.39-1.39-84.16-19-120.78a199.23,199.23,0,0,0-84.15-88.59c-12.8-7-26.3-8.63-39.06-4.58a52.32,52.32,0,0,0-24.93,17.62c-15.6,3.12-30.41,13.87-38.75,28.48-9.08,15.9-9.67,33.92-1.65,50.74C1039.9,2023.93,1083.82,2074.77,1142,2115.71Zm229.55,61.34c4.19.33,8.26.66,12.16,1h0q18.45,1.64,35.71,1.64c50.42,0,93.55-10.51,131-31.82,16.57-9.43,25.66-24.82,25.31-42.15,16.61-11.81,24.69-34,19.46-55.59-5.81-24-25.9-39-51.16-38.34-24.09.67-48.6,1.25-72.31,1.82-44,1.06-89.52,2.16-134.28,3.78-16,.57-70.17,5.09-93.08,39.34-7.61,11.39-14.49,30.84-4,58.86C1259.9,2168.1,1324.44,2173.27,1371.57,2177.05ZM1049,2237.55c11.4,2.51,22.17,4.89,31.65,7.55h0c7.71,2.16,16.69,5.23,26.19,8.48,25.86,8.85,57.11,19.54,85.68,19.54,21.87,0,42.17-6.27,57.25-24.44a56.23,56.23,0,0,0,3.7-5c15.38-12.5,23.7-31.49,21.3-48.91-2.17-15.67-12.53-27.92-29.18-34.47-88.56-34.89-177.19-54.6-270.93-60.24-16.07-1-32,7.2-42.59,21.94-10.32,14.35-13,31.49-7.19,45.83C943.76,2214.37,1002.11,2227.23,1049,2237.55Zm576.31-205.19c9,4.48,19.67,6.73,32.16,6.73,22.16,0,50-7.07,84.1-21.28,41.73-17.39,83.73-41.84,108.82-56.44,6.68-3.89,12.44-7.25,16.57-9.52h0c18-9.9,27.59-31.51,23.75-53.76-3.73-21.63-19.14-37.7-39.27-40.95a145.13,145.13,0,0,0-36.91-1.47c-47.88-2.18-98.35-.93-143.5,22.22-41.46,21.22-80.93,62.45-75.66,106.69C1598.11,2007.74,1608.19,2023.82,1625.31,2032.36Zm998.69,271a93.64,93.64,0,0,0,45.74,11.76c31.28,0,61.39-14.48,89-27.77l4.65-2.24a929.25,929.25,0,0,0,138-82c17.69-12.53,26.74-36.33,22-57.89-4.21-19.24-18.5-32.93-38.23-36.63-84.22-15.66-164.73,5-232.78,59.79a39.17,39.17,0,0,0-11.55,15,158.26,158.26,0,0,0-38,49.78C2590.12,2259.73,2599.2,2289.91,2624,2303.38Zm267.37,207.49c-19.59,4.94-36.11,20.29-41.43,39.23-5.1,18.12,1.13,35.74,17.11,48.36,43.89,34.59,88.72,68.14,133.24,99.73l1.13.8c24,17.05,55.69,39.52,85.57,39.52a53.78,53.78,0,0,0,14.41-1.91c16.56-4.59,29.51-17.32,38.49-37.84,10.69-24.49,8.44-50.93-6.69-78.57-10.14-18.53-26.08-37.64-48.73-58.42-36.76-33.74-80.52-59.11-133.8-77.57-13.41-4.65-26.37-4-37.46,1.79C2903.62,2491,2895.9,2499.89,2891.37,2510.87ZM1995.9,2221.69c24,6,48.23-1.64,68.57-21a58.22,58.22,0,0,0-5.74,14.29c-13.08,6.91-22.84,18.27-26.62,31.27-3.94,13.55-1.09,28,8,40.82,29.09,40.79,65.28,91.56,107.4,129.29h0c15.8,14.15,34.31,21.64,52.25,21.64a62,62,0,0,0,20.66-3.51c22.28-7.87,37.6-28,42-55.22,9-56.06-7.59-118.54-41.64-159.09,23.64,21,50.55,38.07,76.18,53.41,11.86,7.13,27.71,8.55,42.41,3.82,13.6-4.37,24.28-13.58,29.33-25.31,17.38-41,12.59-82.22-13.86-119.29-12-16.79-27.64-29.19-42.78-41.18-8.24-6.53-16.09-12.75-23.23-19.51-.88-15.62-9.27-26.7-16.56-33.48-27.37-25.34-67.12-25.71-94.53-.88-13.2,12-21.2,28.62-23.14,48.19-2,20.31,2.69,38.93,7,51,8.84,24.51,22.6,45.38,39.15,63.56-27.22-21.9-60.12-31-96.14-26.48a53.74,53.74,0,0,0-26.14,10.54c.17-.25.35-.49.53-.74,16.1-22.31,30.31-48.14,42.23-76.8.95-2.29,1.93-4.61,2.92-7,9.64-22.82,20.56-48.68,16.48-75.19a67.82,67.82,0,0,0-19.89-38.63,57.07,57.07,0,0,0-41.54-16c-27.8.91-47,22.5-62.37,39.85-2.82,3.18-5.48,6.18-8.08,9a50.66,50.66,0,0,0-5.43,6.75c-40.54,48-60.37,91.83-59,130.33C1945.49,2187.52,1966.66,2214.5,1995.9,2221.69ZM2464,2154.55h0c16.51,28.61,47.48,47.59,77.45,47.59l1.4,0c24.43-.48,44.58-13.5,56.74-36.65,23.78-45.3,26.31-96.3,7.12-143.6a184.2,184.2,0,0,0-44.4-64.48,187.08,187.08,0,0,0-69.39-41.16c-20.94-6.82-40.69-.57-52.84,16.73-13.3,19-13.74,45.12-1.52,63.86C2435.08,2067.34,2443.41,2119,2464,2154.55Zm-126.39,187.32c-10.86,19.9-9.71,42.38,3.16,61.68h0c21.26,31.84,70.26,46.49,109.64,58.26,6.52,2,12.68,3.79,18.16,5.56,48.52,15.75,100.77,27,155.32,33.36a59.55,59.55,0,0,0,6.91.4c22.37,0,43.39-12.4,52.65-31.74s4.92-40.68-11.63-57a524.74,524.74,0,0,0-119.68-88.64c-17.87-9.71-37.34-8.85-53.11,2.06q-10.53-2.55-21.12-5.08c-6.11-1.48-12.37-3.24-19-5.1-18.34-5.16-37.31-10.49-56.18-10.8C2375.65,2304.31,2350.1,2318.91,2337.57,2341.87Zm94.62,130.71a51.33,51.33,0,0,0-15.3-2.78q-14-.37-28.07-.8c-9.38-.27-18.77-.55-28.07-.8a51,51,0,0,0-26.29,5.85c-41.19.76-85.18,1.77-128.69,3.86-14.44.7-88.09,6.22-120.25,45.72-12,14.72-16.52,32-13.49,51.35,2.65,17,10.84,30.4,24.35,39.85,17,11.86,40.5,15.89,65.3,15.89,26.28,0,54-4.52,76.72-9,31.17-6.12,61.67-15.49,91.17-24.56,25.24-7.76,51.34-15.78,77.38-21.57,3-.09,6.05-.15,9.09-.22,3.47-.07,6.94-.15,10.33-.25,33.4-.83,49.41-26.25,50.16-49.51C2477.29,2501.64,2462.31,2476,2432.19,2472.58ZM2330.8,2809.12c-.44-17-7.88-32.76-21-44.49-9.07-14.84-24.52-25.06-40.75-26.84-15.37-1.69-30,4.25-41.24,16.71-.37.41-.72.81-1.06,1.21l-.12.14a61.66,61.66,0,0,0-6.83,4.09c-7,4.77-12,11-16.45,16.5-3.58,4.45-7,8.64-10.85,11.44-11.84,8.61-19.19,20.3-21.41,34-5.16,6.68-10.46,13.55-15.63,20.45-4.14,5.57-8.69,11.32-13.51,17.42-16,20.26-34.2,43.22-42.62,67.26-6.53,18.51-4.33,38.18,6,53.95s27.19,25.37,46.49,26.75c1.72.12,3.43.18,5.14.18,31.47,0,59.25-20.57,80.23-38.86,19.35-17,36.73-38.58,54.71-68,1.76-2.87,3.65-5.9,5.64-9.06C2312.8,2867.61,2331.79,2837.33,2330.8,2809.12Zm349.1,213.14h0c-64.76-7.08-130.12,1.8-189,25.67-60.7,24.61-112.92,64.63-151,115.75-11.5,15.41-17.45,31.17-17.67,46.82a58.84,58.84,0,0,0,14.24,39.45c10.75,12.62,26.56,21.09,44.53,23.85a85.6,85.6,0,0,0,13,1,94.58,94.58,0,0,0,43.8-11.13c49.36-25.78,96.48-59.58,142.05-92.27,20.67-14.83,42-30.16,63-44.27a54.08,54.08,0,0,0,4.61-3.52c3.71.21,6.82.47,9.76.83h.11c31.05,3.41,55.65-11.64,62.64-38.38,3.64-13.94.29-30.77-8.75-43.93C2703.33,3030.69,2692.22,3023.63,2679.9,3022.26Zm251.29-69.13h0c37.66-16.12,75.11-34.42,111.34-52.12,18.19-8.89,37-18.08,55.57-26.86a56.19,56.19,0,0,0,5.8-3.22c19.49-4.59,33.44-17.83,38.45-36.66,3.58-13.68.26-30.24-8.67-43.24-7.85-11.43-18.95-18.48-31.27-19.86-55.11-6.15-103.63-.22-148.33,18.15-34.11,13.94-94.52,44.17-116,90.07-14.62,31.27-2,51.27,6.85,60.41,12.59,13,32.39,20,52.78,20A85.61,85.61,0,0,0,2931.19,2953.13Zm-186.45-325.69h0c-64.64-10.42-128.59,3.09-180.05,38-39.31,26.65-104.41,89.71-99,157a76.15,76.15,0,0,0,21.43,46.52,85.65,85.65,0,0,0,44.65,24.43,88.08,88.08,0,0,0,16.94,1.65c32.15,0,59.77-17.72,83.06-35.86,3.82-3,8.38-6.42,13.21-10.07,37.12-28,97.95-73.94,105.19-122.28,23.52-9.3,35.52-34,34.89-54.75C2784.28,2648.45,2768.86,2631.34,2744.74,2627.44Zm763.58,401.7c-7-6-13.94-11.76-22.1-18.3a185,185,0,0,0-44.46-52.34c-.11-20.45-11.45-42.41-38.13-49.8-37.94-10.57-93.65-23.43-139.25-13.13-22.37,5.08-39.6,19.39-47.29,39.25-7.87,20.35-4.48,44.09,9.07,63.52,23.1,33.12,70.75,57.46,102.28,73.57a532.33,532.33,0,0,0,131.6,46.26,52.31,52.31,0,0,0,10.81,1.13c20.31,0,39.58-11.87,49.22-31.3C3530.51,3067,3526,3044.39,3508.32,3029.14Zm-2901-42.53h0c-38.49,2.11-75.17,14.31-112.13,37.29-33.67,20.93-63,47.83-89.77,73.78-13.32,12.93-17.85,33.87-11.54,53.32,5.94,18.35,20,30.83,37.68,33.39a229.6,229.6,0,0,0,32.89,2.38c77.59,0,147.8-40,184.55-107.46a54.48,54.48,0,0,0,6.26-18.94c7.58-17.23,6.06-37.83-4.06-53C641.59,2993,626,2985.58,607.3,2986.61Zm2546.26,55.63h0a347.41,347.41,0,0,0-78.47-4,55.23,55.23,0,0,0-19.89-4.79A172,172,0,0,0,2945.33,3064c-31,21.52-54.79,52.29-68.81,89-4.39,11.47-3.15,24.53,3.49,36.77,7.55,13.9,20.93,24.39,34.92,27.38a235.28,235.28,0,0,0,49.22,5.2c31,0,62.38-6.07,93.79-18.19,39.73-15.31,79.33-39.82,121.06-74.91,13.6-11.38,18.8-30.28,13.58-49.32C3187.12,3060,3171.8,3045.22,3153.56,3042.24ZM1062.39,3143.46c-4.56-11.71-12.88-20.56-23.87-25.27-61.95-26.77-120-48-177.37-64.76-19.95-5.82-69.67-16.86-100.51,6.23-15,11.22-22.61,28.29-22.64,50.74,0,25.07,11.56,47.56,33.43,65,21.16,16.9,46.87,25.57,64.71,29.87,42.48,10.27,86.41,18,128.88,25.45,21.15,3.72,43,7.56,64.34,11.66a59.69,59.69,0,0,0,11.15,1.08,50.32,50.32,0,0,0,31.19-10.55,56.46,56.46,0,0,0,20.57-33.18C1096.78,3178.53,1089.08,3152.85,1062.39,3143.46ZM863.27,2856.6c29-1.32,58.89-2.69,88.66-.82,18.72,1.15,34-5.9,43-19.84,9.27-14.31,10.18-33.82,2.51-50.43a52.22,52.22,0,0,0-14.69-34.9c-9.6-9.67-22.62-14.77-37.65-14.61-77.15.49-155.88,3.19-234,8-27.54,1.69-47.48,25.93-50.85,48.39-3.21,21.43,7.7,39.6,28.49,47.4h0c39.52,14.86,79.11,18.5,118.12,18.5C825.84,2858.31,844.66,2857.45,863.27,2856.6Zm892.2,164.31c-75.49-4-143.31-5.61-208.86,14.56-36.06,11-121.14,42.81-132.31,99.73-5.74,29.25,5.28,46.33,15.55,55.5,14.44,12.91,35.69,18,56.88,18a138.79,138.79,0,0,0,40.94-6.2c44.77-14.07,89.94-29.39,133.63-44.22,22.89-7.76,46.56-15.79,69.89-23.55a54.4,54.4,0,0,0,18.46-10.5l7,.36c33,1.7,49.34-22.33,50.54-45.4a57.76,57.76,0,0,0-11.91-38.24C1785.78,3028.87,1771.65,3021.76,1755.47,3020.91ZM1958,2914.79c17.6,0,36.07-5.23,55.21-15.67,19.9-10.85,40.45-27.2,62.82-50h0c36.13-36.72,63.25-82.85,80.61-137.14,4.14-13,1.49-28.77-7.07-42.17-8-12.48-19.76-20.55-32.37-22.15-32.85-4.11-63.92-1-92.39,9.13-30.84.53-57.64,19.5-81.86,57.9-4.06,4.75-7.6,9.27-10.78,13.77a50.15,50.15,0,0,0-9.24,22.33c-1.78,3.49-3.49,6.83-5.11,10.07l-.9,1.77c-15.89,31.37-39.91,78.79-25.34,114.16,6.5,15.8,19.77,27.11,39.44,33.64A85.38,85.38,0,0,0,1958,2914.79Zm161.48,116.37c-22.9-21.25-51.17-39.87-88.74-58.44a48.44,48.44,0,0,0-25.55-24.11,58.2,58.2,0,0,0-44.21,0c-27.53,2-47.84,23.52-48.63,52.05-1.3,43,33.61,73.23,61.66,97.51,3.71,3.21,7.21,6.24,10.57,9.24,31.82,28.49,67.68,56.56,109.64,85.83,9.45,6.58,18.79,9.38,27.5,9.38,14.34,0,27-7.58,35.51-18.29,20.06-11.67,28.65-34.11,21.91-57.92C2168.71,3089.94,2149.2,3058.78,2119.43,3031.16Zm-272.68-341.23c-9.43-8.28-21.77-12.41-35.67-12l-195.78,5.4c-25.65.7-55,3-78.55,15-25.35,12.93-39.88,35.45-43.19,66.92-1,8.84,2,18.37,7.46,26.73a53.07,53.07,0,0,0-25.39-5.36c-11.76.29-24.25-.07-37.48-.44-32.15-.92-65.39-1.86-94.37,6.23-17.28,4.8-30.81,15.94-38.09,31.36a60.26,60.26,0,0,0-5.59,28.92c-26.94-6.39-58.49,3-79.5,25.73-32.29,34.9-59.51,76.67-85.83,117.06-8.61,13.21-16.75,25.69-25.09,38-9.94,14.63-11.77,30.69-5.15,45.21,6.78,14.89,21.88,26.27,39.38,30.09a44.06,44.06,0,0,0,20,17.48,83.93,83.93,0,0,0,32.74,6.74c21.5,0,43.34-8.46,64.47-25.2,26.87-21.27,52.07-56.23,69.14-95.93,14.67-34.13,21.81-67.67,20.2-94,21.58,11.07,46.82,17.92,69.87,23.6a389.34,389.34,0,0,0,136.1,8.45h0c27.92-3.14,47.77-28.92,50.82-52,2.84-21.47-7.94-39.21-28.85-47.45-15.37-6-31.9-12.26-50.34-18.92a56,56,0,0,0-7.26-21,39.53,39.53,0,0,0,14.07,4.67c103.14,12.79,205,6.65,302.71-18.25,17.87-4.52,30.37-15.82,35.18-31.81,4.9-16.26.78-35.18-10.47-49A50.58,50.58,0,0,0,1846.75,2689.93Z" fill="#fff"/><path d="M1200.7,2099.9c42.83-37.27,21.4-118.68-10.14-159.43-35.06-48.87-102.81-102.47-156.76-52.77-48.8,45-2.3,113.4,30.2,152.3C1092,2073.5,1153.1,2141.3,1200.7,2099.9Zm-149.9-203.3c42.43-31.06,90.93,9.05,119.68,46.51a9.12,9.12,0,0,0,2,3.39q1.73,1.89,3.44,4c3.58,5.07,6.76,10,9.46,14.58a9.56,9.56,0,0,0,1.54,2c19.28,34.51,30.89,87.8,6.26,115-35.3,39-89.5-23.1-111.9-49.2C1053.3,2000.4,1000.7,1933.2,1050.8,1896.6Zm662.8,124.5c33.2-12,65.9-26.8,98.3-40.7,27.8-12,80-30,84.6-65.8,4-30.6-30.5-51.7-54.6-60.7-44.8-16.9-88.6,2-133.4,8.3a9.27,9.27,0,0,0-7.68,6.53c-55.39,13.09-114,59.35-108.42,119.07C1598.4,2051.7,1671.8,2036.2,1713.6,2021.1Zm12.7-138a8.67,8.67,0,0,0,8.34-7.92c18.51-4.09,37-8.87,55.66-10.38,32.6-2.7,122.3,25.2,62.4,75.4-23.1,19.4-58.5,28.1-86,39.6-15.1,6.3-29.9,13.2-45,19.2-30.6,12.2-104.4,41.4-111.5-11.5C1602.3,1928.7,1676.5,1885.3,1726.3,1883.1Zm805.2,310.4c62-1.7,87.1-114.1,76.9-161.2-10.8-49.79-61.69-106.06-114-113.92a9.2,9.2,0,0,0-3.88-.78l-3.2,0-.2,0a10.3,10.3,0,0,0-1.48,0c-19,.15-41.18,1.38-51.12,20-11.7,22-2.7,59.6-.1,82.6C2440,2071.1,2457.8,2195.5,2531.5,2193.5Zm-83.3-231.1c.75-25.35,17-26.9,38.17-27.16a9.6,9.6,0,0,0,1.23.16c43.3,2.7,85.3,50.3,99.6,88.6,13.3,35.7-3,150.4-56.1,151.5-59.2,1.3-74.2-115.4-78.8-155.9C2450.2,2000.9,2447.6,1981.3,2448.2,1962.4Zm151.4,295.9c2.3,84.2,129.1,47.1,172.9,30,43-16.8,161.5-71.1,145.5-136.3-7.6-31-47.7-37.6-74.1-40.9-29.29-3.59-59.81-2.38-86.77,8.94a8.51,8.51,0,0,0-5.83-2C2678.8,2118.4,2597.5,2179.7,2599.6,2258.3Zm18.5-7.2c4.16-58.63,56.57-103.53,112.06-113.24-2.47,7.24,5.11,16.4,12.64,10.84,24.8-18.4,54.7-22.9,84.9-21.2,24.3,1.3,77.2,5.7,72.6,39.8-6.7,50.5-94.1,88.8-133,104C2731.4,2285.4,2612.9,2323.9,2618.1,2251.1Zm-640.4-32.2c33.51,7.5,65.06-15.09,90.5-42.26a8,8,0,0,0,.75,1.25c-38.27,34.05-25.31,99.53,3,141.41,29.8,44.1,101.1,137.6,163.2,93.4,47.1-33.5,22.4-114.5,5-157.3-2.85-7-5.9-14.13-9.27-21.11,51.51,36.57,127.35,58.17,155.17-18.19,26.57-72.84-30.64-134.07-99.5-143.43-14.1-46.05-59.74-56-99-19.67-39.72,36.69-36.47,81.35-14.13,120-23.4-10.26-49.21-11-75.34-10.35a7.67,7.67,0,0,0-2.33.07c-5.22.15-10.45.35-15.68.54,10.58-12.68,19.77-25.45,27.18-35.95,37.34-52.85,46.49-101,1.33-143.32,4-5.14,1.63-15-6.93-14.78-31.8.9-60.2,2-86.5,21.9-29.3,22.1-54.5,54.6-67.9,88.7C1930.9,2121.2,1917.5,2205.4,1977.7,2218.9Zm207-135c22.25-35.7,71-52.55,84.65-8a10.11,10.11,0,0,0,2.5,11.34c0,.11,0,.21.05.32,1.4,9.88,15.27,10.89,17.59,3.36,57.11,10.1,105.28,64.35,77.61,124.54-29.4,64.1-99.6,27-138.1-5.1C2192.4,2179.9,2155.1,2131.4,2184.7,2083.9Zm-7.9,110.7c18.6,11.7,29.7,30.5,39,49.7,18.1,37.2,39,93.4,23,134.4-29.5,75.8-116.7-22.5-140.4-53.6-29.5-38.7-64.4-120.5.8-144.8l.12-.05C2126.2,2179.27,2153.39,2179.87,2176.8,2194.6Zm-208.3-119.3c13.2-27.5,37.3-58.3,63.7-74.6,16.45-10.15,34.49-12.43,53-13.22,22.93,17.42,42.14,37.77,37.76,69-3.2,22.5-18.6,44.1-31.4,62.1-21.5,30.2-54.2,75.6-93.3,82.6C1930.5,2213.3,1952.4,2108.9,1968.5,2075.3Zm-707,70.6c44.7,30.5,107.2,24.6,158,17.8,37.63-5,124.06-11.36,147-52.69a7.72,7.72,0,0,0,5-6.11c11.4-55.9,7.4-99-58.1-105.8-74.2-7.8-162.2,4.8-230,37C1237.1,2058.1,1210,2110.7,1261.5,2145.9Zm148.4-125.7c36.6-4.8,79.9-10.2,116.2-1.5,38.77,9.25,36.34,39.45,30.34,70.29a8.27,8.27,0,0,0-2.44,4.61c-8.4,42.9-112.4,49.6-145.1,53.5-44.7,5.3-114.4,13-147.6-24.6C1203.1,2056.5,1373.7,2025,1409.9,2020.2ZM931.6,2189.5c46.3,39.3,123.6,34.6,180.1,47.3,34.7,7.8,147.9,38.3,158-23.1,8-48.1-85.7-79.2-120.5-81.4-7.76-.47-10,7.49-7.14,12.92-38.62-3.67-69.47-19.5-106.76-38.82-22.9-11.8-48.4-18-74.2-15.1C908.2,2097.2,890.1,2154.2,931.6,2189.5Zm61-79.5c31.4,5.3,56.9,26.4,85.6,38.8,31.1,13.6,62.2,16.8,95.9,14.3a8.46,8.46,0,0,0,7.94-6,209.08,209.08,0,0,1,39.06,19c9.8,6,31.7,18.7,31.2,32.6-.6,18.5-32.9,23.2-45.8,23.8-36,1.9-72.6-9.5-107.5-17.1-26.4-5.8-53.3-7.9-79.9-12.4-29.7-5.1-72.5-12.3-87.9-41.7C907.8,2116.5,960,2104.5,992.6,2110Zm463.24,175.72c5.17-4.26,3-15.59-6-16.22-48.3-3.5-95.4,40.8-124.8,74-19.31,21.9-42.42,52.43-52.1,84.29a57.51,57.51,0,0,0-12.4-1.29,8.66,8.66,0,0,0-4.19,1c-42.48-13.1-80.11-40.29-125.31-44.94-32.4-3.3-72.5-3.3-102.6,10.3-58.8,26.5-36.1,96.6,13.7,117.4,59,24.7,135.4,17.6,197.6,9.5,14.39-1.85,34.28-4.81,50.21-12.53,21.34,18.26,54.53,21,80.79,8.63,47.1-22.2,80-75.2,96.5-122.7C1479.39,2357.93,1484.48,2309.74,1455.84,2285.72ZM1291.9,2474.4c-.56,2.09-1.1,3.9-1.65,5.48-4.26-8.34-5.6-18-4.57-28.5C1291.8,2456.35,1294.73,2464,1291.9,2474.4Zm-59.5,28.5c-18.2,2-36.6,3.2-54.9,4.1-44.3,2.1-99.4,5-139.2-18-23.3-13.5-40-46.7-17.6-70,18.2-18.9,53-18.9,77.3-19.2,64-1,110.84,38.18,170.6,49.62a76.68,76.68,0,0,0,3.3,30.78,61.68,61.68,0,0,0,5.68,12.44c-1.5.61-3.18,1.25-5.08,2C1259.7,2499.3,1245.9,2501.3,1232.4,2502.9Zm86.1.1a64.42,64.42,0,0,1-13-6.48,36.64,36.64,0,0,0,9.28-15.22c6.49-21.32-7.33-38.57-25.42-47.7,17.34-56.41,86.85-126.15,137.35-142.74l.47.14C1516.9,2313.9,1406.6,2535.9,1318.5,2503Zm202.3-192.8c-29.9,39.4-60.8,106.2,3.8,129.6,69,25,124.1-51.8,157.8-99.7,36.4-51.7,74.3-117.4,4.5-158.5-9.9-5.8-18.5,9.8-8.6,15.6a87.7,87.7,0,0,1,7.73,5.08C1616.63,2211.46,1563.47,2254.05,1520.8,2310.2Zm180.76-91.74c23.07,36.62-14.77,85.11-39.56,119.74-27.8,38.9-82.9,113.7-139.5,81.1-50.3-28.9,10.5-98.4,34.5-124.5C1597.24,2251.21,1641.28,2222.13,1701.56,2218.46Zm94.94,138c-35.6,18.3-70.1,36.2-94.6,69-29.4,39.4-71.4,135.2-38.8,182.2,38.7,55.9,115.6-7.2,146.3-38.1,39.6-40,80-84.7,111.3-131.7,27-40.6,64.4-115.8-4.8-135.3-7.87-2.2-12.27,5.86-10.24,11.85C1866.34,2320.66,1832.59,2337.94,1796.5,2356.5Zm-37,233.3c-33.1,23.7-87.7,34.8-88.2-22.5-.3-33.8,13.3-73.4,28.1-103.2,17.9-36.1,45.9-60.7,81.1-79.5,45.8-24.4,91.3-51,144.1-54.3a9.13,9.13,0,0,0,3.8-1.08C1976.59,2379,1792.4,2566.24,1759.5,2589.8Zm574.6-215.6c3.44,31.65,25,56.15,53.91,73.9-72.15-3.7-142.62,33.38-214.41,30.3-5.77-.2-8.49,4.28-8.29,8.82-34.67,8.69-70.36,16.74-84.61,54.38-11.2,29.5-4.6,67.2,25.5,82.5,19.6,10,45.2,7.7,66.3,6.4,32.8-1.9,65.5-6.7,97.8-12.9,59.3-11.3,136.5-26.3,181.7-70.1,24.06-23.3,22.75-51.3,6.42-71.31,24.15,5.81,48.09,8.36,68,7.78a9.23,9.23,0,0,0,4.1,2.73c40.6,14,134.8,21.5,161-23.3,26.6-45.5-26.4-89.5-61.5-107.2C2580.7,2331.3,2320.7,2251.4,2334.1,2374.2Zm119.5,138.3c-4,25-37.9,40.4-57.8,49.6-62.6,28.8-134.8,42.5-203,49-21.3,2-48.5,6.5-69.6.3-37.3-10.9-37.3-59.2-13.5-82.9,20.2-20.2,54.6-21.6,80.6-29.5a8.58,8.58,0,0,0,4.32-2.81c60.33-3,120.16-28,180.88-29.49C2402.5,2466,2460.2,2471.5,2453.6,2512.5Zm-94.4-168.2c29-37.4,127.1-12.1,164.5-4.3,48,10.1,124.8,26.8,149.6,75.1,35.09,68.23-81,68-128.75,57a7.57,7.57,0,0,0-8.65-6.52c-43.4,3.9-92-11.3-130.5-30.6C2376.4,2420.4,2331.6,2379.9,2359.2,2344.3Zm505.81,183a8,8,0,0,0-4.51,7.86c2.1,76.9,68.5,137.9,132.6,172.7,37.9,20.6,111.1,50.7,142,2.9,37.5-58-12.1-131.3-58.7-164.4-56.9-40.4-146.3-66.9-208.3-22.6A9.09,9.09,0,0,0,2865,2527.34Zm185,23.06c25.9,15.2,51,36.2,65.5,63,12.9,23.9,21,66.1,3.1,89.7-28,36.8-96.3,1.3-125.8-16-53.85-31.54-110.59-83.75-114.35-148.93C2929.38,2502.76,3000.34,2521.2,3050,2550.4Zm428.83,449.21c-39.44-68.35-118.51-125.12-201.33-114.61-61.9,7.9-78.8,82.5-40.1,126.5,25.1,28.5,63.3,41.7,97,56.8,43.7,19.5,88.2,45.8,137.2,47.8,23.5,1,41.2-5.7,45.3-30.7C3522.84,3049.37,3501.11,3023.91,3478.83,2999.61Zm20.87,78.69c-9.4,41.9-77.2,10.1-101.6-.3-44.6-19-107.8-38.5-142.7-73.6-21.9-22-31.4-64.4-6.7-88.6,18.4-18.1,49.6-15.1,72.6-10.7,52.19,9.89,94.44,37.61,125.26,78.07a9.19,9.19,0,0,0,1.74,9c4.17,5,9.38,10.27,14.88,15.9.51.86,1,1.72,1.52,2.6a7.91,7.91,0,0,0,4.91,4C3487.29,3033.16,3505.05,3054.62,3499.7,3078.3ZM2958.5,2949c42.8-15.5,81.4-38.8,119.4-63.5,21.5-14,55.3-32.5,64.1-58.8,24.8-73.8-139.3-55.9-169.8-54.8-6.14.21-8.85,5.41-8.31,10.14-61.5,11.58-133.65,47.71-139.89,112.16-2.3,23.3,5.5,47.2,25.5,60.7C2881.2,2976.2,2926.4,2960.6,2958.5,2949Zm-115.6-60c12.8-62,99.5-90.4,154.2-93a8.42,8.42,0,0,0,8.15-7.36c57.44-1,155.71,3.08,103.05,52.86-35.6,33.7-87.9,62-131.9,81.2C2934.9,2940.7,2825.1,2974.6,2842.9,2889Zm-93.3-257.9c-29.11-12.71-73.9-15.56-103,.87-72.31,7.79-145.32,62.76-174.82,126.43-12.9,27.8-24.5,65.4-7.5,94,19.4,32.6,66.9,34.4,100.2,30,92.4-12.2,175.7-90.5,207.6-176.1C2783.6,2675.4,2782.8,2645.7,2749.6,2631.1Zm-19.6,118c-40.2,61.2-110.2,116.1-186.3,116.9-39,.4-73.7-13.4-69-57.5,2.8-26.3,16.1-52.7,31.4-74,28.5-39.51,81.43-73.88,132.73-83.24,2.53,2.49,6.31,3.36,10.07.54,1.13-.86,2.35-1.66,3.62-2.44a135.63,135.63,0,0,1,19.28-.46c6.09.42,8.84-4.31,8.43-9,23.78-3.9,51.85-.6,68,10.19C2780.5,2671.8,2745.3,2725.9,2730,2749.1Zm-707.2,154.5c64.2-33.5,129.9-126.8,128.4-201.6-1.36-65.78-90.22-61-140.53-49.46-67.1,10.44-115.22,115.75-126.17,172.86C1868.6,2907.5,1960.5,2936.1,2022.8,2903.6Zm-76.2-5.9c-46.9-11.5-51.8-49.3-38.9-89.1,13.57-41.94,47.17-118.72,95.39-135.64,2.75-.8,5.74-1.61,8.94-2.4a56.45,56.45,0,0,1,11.37-1,7.61,7.61,0,0,0,6.33-2.76c45.81-8,109.58-7,102.37,47.76-7.8,58.9-48.3,122.4-94.7,158.3C2011.4,2893,1979.7,2905.8,1946.6,2897.7ZM554.4,2987.4a7.31,7.31,0,0,0-5.48,3.9c-54.69,8.17-115.29,54.62-149.82,90.3-45.7,47.2-28.3,102.9,36.8,114.7,82.2,14.9,154.9-50.3,196.4-113.9,15.4-23.6,36.9-56.2,15.6-82.8C625.9,2972.1,583.8,2981.6,554.4,2987.4Zm72.3,70.3a301,301,0,0,1-50.1,66c-40.3,39.6-109.4,77.5-165.3,45.6C327.5,3121.6,520,3005,571.2,3008c5.46.34,8.18-3.6,8.29-7.85,9.1-1.79,18.47-2.9,26.41-1.15C654.8,3010,638.4,3036.8,626.7,3057.7Zm15.6-256.2c2.1-89.2,151.2-56.5,201.7-56.8,11.5,0,12,17.8.4,17.9-41.2.2-171.5-28.9-183.3,32.3-11.9,62,145,49.7,172,48.3,35-1.8,118.4,7.6,145-24.3,26.8-32.1-30.4-72.1-56.3-81-31.4-10.8-64.9-7.9-96.3.7-11.1,3-16.3-14.1-5.2-17.1,38.4-10.5,80-12.9,117.3,3.4,27.8,12.2,63,41.5,65.4,74.5,4.9,67.1-118.1,58.8-156.9,60.9C802.9,2862.6,640.4,2879.8,642.3,2801.5Zm417.29,365.05c3.91-2.31,6.31-7.17,3.21-12.15-23.3-37.5-56.8-59.3-97.5-74.5-44.1-16.5-93.4-37.7-139.6-46.1-34-6.2-80.5,2.5-94.5,39.1-10.4,27.2,8.7,53.9,27.3,72.1,29.5,28.8,66.8,43.5,105.3,56.3,50.6,16.7,104.9,31,157.9,36.6,25.5,2.7,59.7-3.5,61.3-35.7C1083.87,3184.85,1072.35,3175.35,1059.59,3166.55Zm-21.42-16.11a42.28,42.28,0,0,1-5-5.86C1034.9,3146.47,1036.56,3148.42,1038.17,3150.44Zm2.43,70.56c-7,2.1-18-1-24.9-2-13.5-2-26.9-4.8-40.2-7.4-63-12.4-137.3-26.8-189.3-66.6-25.9-19.8-60.6-57.5-21.7-84.6,35.1-24.5,80.5-3.2,115.5,9.8,51.56,19.16,107.36,29.37,146.35,67.22-6.44-1.62-14.49,5.77-10.25,13.48,8.4,15.2,22.8,19.8,34.8,31C1060.5,3190.9,1093.8,3205.6,1040.6,3221Zm322.9-610.8c-50.6-4.3-107.4,7.8-155.1,24.1-25.3,8.6-58,22.9-70.1,48.7-32.2,68.5,85.7,84.4,125.4,86.8,34.9,2.1,70.3,4.7,105.2,5.5,30.6.7,66.1-1.3,85.9-27.9,6.8-9.1-6.1-21.5-12.9-12.3a50.08,50.08,0,0,1-6.09,6.77,9.26,9.26,0,0,0,.69-3.77C1435.5,2677,1439.4,2616.6,1363.5,2610.2Zm-63.2,143.1c-26-.9-52-1.4-77.8-5.7-28-4.7-94.3-26.2-62.2-65.5,14.8-18.1,41.4-27.4,63.1-33.9,36.7-10.9,75.6-19.5,113.9-20.7,34.8-1.1,70.8,2.6,78.9,41.8,4.6,22.3,2,46.5,2.4,69.1.12,6.73,6.08,9.42,11.1,8.3C1396.21,2769.36,1336.43,2754.53,1300.3,2753.3Zm433.94-72.41a8.6,8.6,0,0,0-4.34-.79l-1.61.08c-10.24-1.18-18.55-2-23.69-2.58a9.34,9.34,0,0,0-6.32,1.45c-79-7.64-189.27-43.83-217.18,55-5.88,20.74-3.79,42.43,5.83,60.44-22.74-6.25-47-9.24-71.43-9.84-43.29-1-135.73,11.88-133.74,68.06-37.35-3.83-79,17-96,49.74a8.33,8.33,0,0,0-.28,7.64c-15.53,15.63-27.92,36.56-39.52,52.46-24.8,34-41,68.9-22.4,110.3,30.3,67.7,113.3,66.6,160.1,17,32.28-34.27,70.54-108.21,64.75-166.13,54.08,12.91,127-2.72,170,2.33,24.5,2.9,66.2,18.3,83.7-8.5,15.27-23.36-11.17-56.21-22.43-78.82,19.75,0,39.68-2.77,57.83-5.68,47.6-7.6,95.6-15.9,142.9-24.7,27.6-5.1,69.3-15.6,84.9-42C1900.26,2707.28,1792.82,2688.05,1734.24,2680.89ZM1276.6,3070.8c-39,46.7-116.3,55.7-139.6-12-13-37.7,8.4-65.3,29.1-93.8,13.4-18.5,31-49.7,54-57.2,9.68-3.08,6.89-16.68-1.41-17.52,18.32-15,44.51-22.91,66.86-18.74.5,1.43,1,2.88,1.65,4.36,8.45,20.47,23.08,33.37,41.29,41.32C1338.69,2967.94,1306.3,3035.22,1276.6,3070.8Zm291-155.9c-18.1,4.5-46.7-7.1-66.2-7.7-44.83-1.53-110.12,13.7-157.17-3.92a75.75,75.75,0,0,0-14.73-26.38,69,69,0,0,0-28.64-19.78c-.41-23.38,26-43.27,50.94-49.32,26.9-6.5,55.8-6.3,83.2-4.3,28.15,2.07,55.77,8.22,79.85,20a90.41,90.41,0,0,0,8.48,4.47c25.69,14.61,46.58,36.42,58.57,67.6a9,9,0,0,0,2.82,3.91C1583.54,2906.58,1578.63,2912.16,1567.6,2914.9Zm264.1-142.6c-22.7,13.5-49.9,18.2-75.7,21.3-31.2,3.8-61.8,10.6-92.7,16.7-36.1,7.1-77,15.7-113.7,7.3-43.3-9.9-67.6-50.8-46.2-92,41.92-80.57,155-25.1,224.51-27.7,19.78,2.17,39.55,4.6,59,8.9C1817.3,2713.5,1883.1,2741.8,1831.7,2772.3Zm500.4-2.3c-32.8-68.9-113.1-12.7-149.7,21.7-5.54,5.21-1.77,12.29,3.85,14.27-41.5,59-149.45,194.76-31.35,213.63,58.3,9.3,103.2-37.8,134-81.6C2319.3,2894.7,2357.7,2823.6,2332.1,2770Zm-13.4,62.8c-13,59.8-56.2,130.3-110.8,160.5-22.2,12.3-63.2,17-81.9-5.1-17.6-20.7-.5-55,9.8-75.1,20.7-40.1,50.6-73.6,74.7-111.4a7.42,7.42,0,0,0-1.35-10.16c18.52-16,40.58-31.46,63.65-35.34C2319.4,2748.3,2326.2,2798.6,2318.7,2832.8Zm739.8,199.3c-6.09.81-8.77,6.38-8.18,11.09-49.31,3.07-102.85,11.92-140.32,43.31-32.4,27-51.1,94.2-11.3,123.7,40.6,30,111.5,7.9,153.6-6.5,43.3-14.7,117.8-40.3,132-90.5C3202.1,3049.9,3102.9,3026.1,3058.5,3032.1Zm77.1,112.4c-46.3,32.1-107.6,54-163.6,59.8-21.5,2.2-53.9,4.6-69-14.7-18.7-23.9-5.7-66.3,13.6-85.2,40.2-39.4,110.5-43.1,163.5-44.7,6.21-.16,8.85-5.62,8.06-10.45,21.43,1.82,43.11,8.57,59.84,20.45C3181.9,3093.9,3163.9,3124.9,3135.6,3144.5Zm-524.1-128c-5.74-1.07-9.66,2.87-10.67,7.27-44.71,2.52-89,9-129.83,28.93-42.3,20.6-83.4,54.1-116.7,87.3-24,24-55.2,62-40.3,98.6,13,31.9,55.7,37.3,85.4,31.1,48.7-10.3,92.1-53.5,131.2-82.2,29.3-21.5,57.6-42.9,92.5-54.4,22.3-7.3,45.7-10.8,65.2-24.5,22.1-15.5,49-51.7,24-77.1C2688.5,3007.4,2641.2,3021.9,2611.5,3016.5Zm49.1,86.7c-17.2,7.1-36,9.8-53.4,16.2-67.6,24.8-117.2,83.6-178.5,119.1-32,18.5-116.7,28.3-97.6-35.7,11.1-37.1,52.1-66.5,81-89.3,65-51.2,129.1-70.4,211.4-73.1a8,8,0,0,0,7.82-5.33c17.34-.54,35.25-2.68,50.68,2.33C2730.7,3053.3,2678.9,3095.7,2660.6,3103.2Zm-582.8-102.8a8.62,8.62,0,0,0-7-.41c-37.66-39.22-79.18-77.71-135.3-49-82.1,41.9,20.7,138,58,166.9,41.4,32.1,124.5,117.3,172.4,48.9C2216.7,3094.2,2137.8,3029.2,2077.8,3000.4Zm68.7,162.6c-42.6,42.6-125-45.1-157.1-70.9-24.2-19.4-50.8-41.7-60.6-72.2-14.6-45.6,23.7-65,63.2-55.7,52.7,12.4,78.4,69.1,119.9,99.1,7.91,5.62,15.24-4.92,11.58-12.31C2159.62,3081.35,2186.12,3123.38,2146.5,3163Zm-395-152.4c-48.8-19.9-107.4-4.4-158.1-2.3-8.71.38-10.52,10.86-5.77,15.56-55.91,20.55-150.53,32.15-171.73,96.74-14.8,45,14.7,71,57.6,74.6,60.4,5.1,124.5-14.1,181.6-31.6,45.3-13.9,101-28.3,129.4-69.5C1808.9,3058.7,1788.2,3025.5,1751.5,3010.6Zm-39.9,114.9c-44,17.9-91.1,31-137.4,41.2-30.7,6.8-128.7,32.3-143.5-12.8-24-72.8,123-97.7,166-114.4,6.23-2.41,7-9.35,4.46-13.81,44.45-2.92,93.6-14.36,136.64-1.09C1817.6,3049.3,1754.5,3108,1711.6,3125.5Z" fill="#231f20"/><path d="M1536.2,1091.7c3.3-1.1,5-1.3,6.3-2.1,11.7-7.2,23.1-14.7,34.9-21.7a104.43,104.43,0,0,0,24.6-19.8,47.77,47.77,0,0,1,6.9-6.6c20.6-15.7,35-36.5,48.4-58.2,11.5-18.7,8.3-22.8-11-30a273.52,273.52,0,0,0-42.8-11.7c-15.5-3-31.4-4.5-47.1-6.3-4.6-.5-9.7-.8-13.5,3.9-3.1,12.1-1.8,24.8-2.1,37.5s-2,25.3-2.7,38-1.7,25.4-1.4,38.1c.2,12.5-4,25-.5,38.9m231.9-94.5c-5,7.3-9.8,12.1-11.8,17.8-2.7,7.6-11.5,7.5-14.6,13.9-.5.9-1.1,1.8-1.7,2.7a134.9,134.9,0,0,1-36.7,41.1c-3,2.2-5.1,5.3-8,7.6-11.9,9.6-23.3,20.1-36.1,28.4-14.6,9.4-30.5,17-46,25.1a79.72,79.72,0,0,0-20.5,15.9c-.8,5.6,2.1,8.6,5,11.8,5,5.4,10.8,10.4,14.3,16.7,8.2,14.6,19.7,26.2,32,37,14.6,13,29.9,25.1,45.1,37.3,2.8,2.3,6.1,4.7,9.6,5.4,14.1,3.1,26.9,9.6,39.1,16.8,16,9.4,31.8,9,48,3.9,6.6-21.4-10.7-254.8-17.7-281.4m429.4,70.3c-5.8-2.5-9.7-4.1-13.6-5.8-5.3-2.4-8.8-6.8-9.4-12.1-.8-7.3-.2-14.7.3-22.1a7.23,7.23,0,0,1,3.5-5c6.6-3,12.8-7.6,20.4-7.7,6.1-.1,11.1-2.8,16.7-4.1,5.1-12.9,3.1-25.7,3.5-38.2a54.67,54.67,0,0,0-1.2-12.7c-2.6-12.1-3.9-23.9.2-36.1,1-3-.3-7.3-1.6-10.6-6.4-16,2-28.8,14.5-33.2,13.7-4.8,27.9-7.2,42.2-5.4,16.9,2.2,33.8,2,50.8,1.5,29.6-.8,59.3-1.7,88.9-2,16.3-.2,32.7.8,49,1.4,4.2.2,8.6.5,12.5,1.9,5.6,2,10.4,4.3,16.3.3,2.1-1.5,6.2-.5,9.3-.2,14.2,1.4,28.4,3.1,42.7,4.4,19.8,1.7,46.3,6.8,63.8,11.6,11.4,3.2,16.2,12.9,23.2,20.6.4,8.2,6.7,12.5,13.4,18.2-3.7,1.6-5.8,3-8.1,3.4-14.3,2.3-28.6,1.1-42.7-1.4-30.4-5.4-61-6.1-91.8-4.5-21.7,1.1-43.4,1.1-65.2,1.6-4.8.1-9.6-.2-14.3.3-21.7,1.9-43.3,1.3-65.1.5-14.7-.6-29.5-.1-45.1-.1.4,2.1.1,5.1,1.3,5.8,18.3,11.5,18.9,30.6,20.9,48.9.7,6.8.1,13.8.3,20.7a60.23,60.23,0,0,0,.9,7c5.5,4.3,10.9,3.2,16.1,3.2,23.9-.3,47.7-.7,71.5-1.4,29.1-.9,58.2-2.5,87.3-3.4,18-.5,36-.4,54-.5a38.54,38.54,0,0,0,4.8.2c22.5-2.7,44.2,2.5,66.2,5.5a35.19,35.19,0,0,0,7.9.7c18.2-1.5,24.5,6.5,27.9,26.8-2.8,5.5,2.7,8.4,3.9,12.6-1.4,4.4-5.1,5.4-8.8,5.8-23.1,3-46.1,7.7-69.3,8.3-17.4.5-34.5,4.2-52.1,2.8-12.5-1-25.3,1.8-38,2.3-27,1.1-54,2.5-80.9,2.7-26.5.2-53,1.2-79.4-1.8-5.2-.6-10.5-.1-16.3-.1-1,3.6-2.3,6.4-2.5,9.4-1.1,15.8-1.5,31.7-2.8,47.6-1.5,19-3,38.2-1,57.1,2.3,22.5,5.2,45.3,17.4,65.4.5.9,1.4,1.5,2.8,3,5.4-1.4,9.4-6,14.2-8.8a97.38,97.38,0,0,0,13.1-8.9c8.5-7.2,16.6-14.8,24.8-22.2,1.2-1.1,2.8-1.8,3.6-3.1,7.8-13.5,20.4-22.9,30.1-34.8a69.05,69.05,0,0,1,8.7-9.2,164.25,164.25,0,0,0,20.7-21.8c4.9-6.1,10-12.5,19-14.8,7.8,3.6,12.6,8.4,13.4,18.7s5.1,20.2,8.4,32c-1.1,2.1-2.8,5.9-4.8,9.7-2.5,4.8-4.3,9.6-2.6,15.2,1.8,5.8-.6,10.6-4.7,14.3-9.2,8.5-14.6,19.4-20.5,30-3.2,5.7-6.2,10.8-4,17.8.7,2.3-1.1,6.2-2.9,8.5a96,96,0,0,1-12.1,12.6c-14,12.1-28.1,24.2-43.9,33.9s-33.1,13.9-51.6,13.3c-11.7-.4-23.4-.1-34.9-1.3-13.1-1.4-26.7-2.6-39-6.8-17.2-5.8-32.3-15.7-41.9-32.2-14.9-25.6-23.9-52.9-25.2-82.6-.1-2.4-.9-4.7-1.7-9-4.1,3.6-7.1,5.5-9.3,8.2a138.64,138.64,0,0,1-42.4,35.2c-8.3,4.5-15.5,11-25.4,11.9-7.7,7.3-18,8.5-27.3,12.2a157.79,157.79,0,0,1-40,9.6c-9.5,1-19,1.9-28.4,3.3-24.5,3.5-48.7,1.2-72.7-3.3-11.4-2.1-22.8-4.8-34.1-7.6-5.5-1.4-10.6-4-16.3-6.1-10.1,15.9-10.3,33.8-14.9,50.2-5.4,1.7-9.8,3.7-14.4,4.5-22.4,3.5-44.7,8.4-67.7,4.4-7.1-1.2-14.8,0-22.1.9-15.3,2-30.4,4.1-45.9,3.4-7.9-.3-15.9.3-23.9.4-29.9.4-59.1-3.8-87-15-13.3-5.3-26.9-9.9-39.7-16.1a236,236,0,0,1-61.1-42.3,45.76,45.76,0,0,0-4.7-3.4c-.9,2.2-2.1,3.8-2.1,5.5-.7,24.9-2.9,49.8.3,74.6a18,18,0,0,1-5.4,15.9c-3.6,3.7-6.5,8.1-10.5,13.2-6.4,2.5-14.1,4.6-22,4.4-5.1-.1-9.4.3-12.8,4.5a6.65,6.65,0,0,1-4.2,1.7c-16.3,1.3-32.6,2.3-48.9,3.6-9,.7-15.3-3.1-19.3-11-4.8-9.5-9.2-18.9-7.2-30.2.8-4.6-.2-9.5-.4-14.3-.2-4.2-1-8.5-.9-12.7q.6-40.5,1.4-81c.2-10.1.6-20.1.6-30.2,0-2.5-.9-5.1-1.5-8.3-5.5-.8-10.7-1.3-15.8-2.2-12.3-2.1-17.4-7.1-20.1-19.3-3.1-14.2-.9-19.9,11.1-28.5,6.5-4.7,13.1-8.9,21.1-10.8,2.5-.6,4.7-2.3,7.8-3.9.9-11.9,2-24,2.7-36.1,1.1-17.4,1.9-34.9,3-52.3,1.3-21.1,2.8-42.3,4.1-63.4a41.74,41.74,0,0,0-.2-7.9c-.5-4.2-3.7-6.7-7.8-6.1-16.7,2.4-33.5,4.4-50.1,7.4-6.7,1.2-12.2.7-18.1-2.7-6.3-3.5-8.6-8.9-10.2-15.6.4-1.2.8-2.7,1.3-4.1,6.2-17.6,6.2-17.5,22.3-26.4a260.86,260.86,0,0,1,61.8-24.4,88.8,88.8,0,0,0,22-8.8c9.5-5.4,19.8-9.6,31.4-6.8,3.5.8,7.4.4,11-.2,34.6-5.9,69.5-7.7,104.5-7.6,18.5,0,36.9,2.2,55.2,5.1,14.1,2.2,28,5.7,42,7.9,11.1,1.7,22.5,4.1,31.6,9.9,11.6,7.3,26.2,8.7,36,19.1,12.4,2.5,17.7,13.7,25.6,21.8,4.2-3,7.6-6.7,11.7-8.2a112.75,112.75,0,0,1,21.6-4.9c3.4-.4,7.1,1.6,10.7,2,6.3.7,12.6,1.2,19,1.5,6,.3,11.4,1.6,16.5,5a38.73,38.73,0,0,0,11.4,5.5A17.91,17.91,0,0,1,1872,949c1.9,2.4,4.9,3.9,7.4,5.8a36.49,36.49,0,0,1,14,22.2c3.9,18.2,4.7,36.8,6.5,55.2.9,8.7.5,17.8,5.8,27.2,3.7-5.1,6.7-9.3,9.7-13.4,2.8-3.8,6.1-7.4,8.6-11.4,2.9-4.6,6.2-8.4,11.2-10.9a16.78,16.78,0,0,0,6.9-6.3c7-11.6,17.8-19.5,27.2-28.7,1.9-1.8,3.9-3.8,6.3-4.8,22.4-9.5,42.8-23.2,66.3-30.3,8.4-2.5,16.4-3.8,25-1.5a66.84,66.84,0,0,0,12.5,2.2c13.5.9,25.5,6.9,37.7,11.7,1.9.8,3.5,3,5.4,3.2,12.7,1.5,15.2,12.3,18.1,21.3a17.39,17.39,0,0,1-7.3,19.6c-9.3,6-19.2,11.3-30.3,13.3a44.31,44.31,0,0,1-10.9.5c-8.4-.5-16.8-1.3-25.2-2.2a11,11,0,0,0-9.9,4c-3.4,4.1-6.4,8.5-9.4,12.8-6,8.7-11.5,17.7-17.8,26.2a183.43,183.43,0,0,0-19.5,32.7c-5.3,11.5-13.1,21.7-16.6,34.1-3,10.6-7.9,20.9-5,32.5a8.26,8.26,0,0,1-1.1,6.1c-4.5,6.8-3.4,13.6-2.2,21.2,2.2,13.3,9.3,23.4,17.5,33.1,3.4,4.1,7.3,4.6,12.7,3.3,20.5-4.8,38.5-14.8,56.1-25.6,20.8-12.8,40.8-27,58.4-43.8,11.7-11.1,25.1-21.2,32.4-36.5,1.6-3.3,3.6-6.8,6.4-9,11.4-9.3,17.3-22.5,24.8-34.5,2-2.9,2.5-6.7,3.8-10.8" fill="#231f20"/></svg>
