<svg xmlns="http://www.w3.org/2000/svg" viewBox="0 0 4777.43 1941.09"><title>ricepudding</title><path d="M4831.81,1847.86c-17.42-81.78-34.73-155.12-70.4-224.46-3.35-6.47-5.82-13.65-8.43-21.25-1.32-3.85-2.69-7.84-4.2-11.78-7-18.42-14.17-37.12-21.11-55.2-16.75-43.63-34.06-88.75-50.21-133.4-2-5.54-4.09-11.15-6.11-16.58-9.59-25.77-19.47-52.32-23.61-82.24l4.06-.08c13.69-.26,26.62-.5,39.2-.3,14.94.25,30.2.81,44.95,1.34,9.3.34,18.92.69,28.43,1,21.42.57,38.4-7.91,47.69-23.93,6-10.56,8.1-25.39,5.11-36.91-1.28-4.94-5-9.19-11.05-12.63-6.27-3.57-16.46-6.92-24.49-4.61-33.6,9.64-67.28,7.69-102.93,5.63-18.5-1.07-37.56-2.17-56.78-1.54l-1.92-3.66c-4.46-8.5-8.31-15.85-11.51-23.41a395.24,395.24,0,0,1-14.66-38.87c-42-137.32-88.53-300.26-114.71-467.64-3.64-22.95-10.64-47.55-20.83-73.13-7.09-17.71-21.33-29.07-38.06-30.39-16.16-1.26-31.34,7.25-40.61,22.8-15.08,25.37-29.12,51.82-42.7,77.41-5.3,10-10.79,20.32-16.25,30.44-2.49,4.61-4.93,9.29-7.3,13.81-3.16,6-6.21,11.88-9.36,17.61-.26-.86-.52-1.71-.77-2.56-2-6.63-4-13.1-5.78-19.18l-2.27-7.59-7.87-1c-41.74-5.3-75.4-3.37-104,23.25-6.87,6.35-13.91,12.8-20.72,19-36.51,33.44-74.26,68-105.71,107.27-24.34,30.32-52.88,50.07-92.54,64-10.87,3.83-21.72,8-32.22,12-13.77,5.25-28,10.69-42.16,15.35-38,12.54-79,23.49-121.1,18.66-16.79-1.91-30.91-5.86-41.94-11.74-30.8-16.48-45.47-43.31-43.58-79.74,2.43-47.86,7-98.82,23.84-147.22,5.53-15.89,11-37.22,3.75-61.34A37.56,37.56,0,0,0,3689,661.23a34.26,34.26,0,0,0-29.91,2c-6.37,3.7-15.61,9.55-22.32,17.73-67,82-132.45,162.19-196.48,242.3l-1.44,1.8c-10.64,13.3-20.84,26-34.57,36.93-4.05-25.19.46-48.2,5.18-72.31.37-1.87.73-3.73,1.1-5.62,7.5-39.13,1.58-77.06-4.15-113.73-.63-4-1.26-8.06-1.87-12.05-2.14-14.4-10.42-25.69-22.73-31s-26.45-3.44-38.17,4.77c-12.48,8.69-30.53,22.26-43.06,39.74-7.45,10.47-15.27,21-22.83,31.23-24.94,33.65-50.72,68.45-69.21,108-4.23,9.16-7.68,16.14-12.86,20.83a3.7,3.7,0,0,1,0-.81c1.23-9.17,2.29-18.47,3.31-27.47,4.46-39.34,8.68-76.5,27.21-110.42,14.45-26.48,16.72-51.85,6.72-75.39-5.19-12.21-18.12-21.55-28.64-25.38-17.06-6.21-34.78,1.52-45.17,19.75-3.19,5.63-4.7,11.6-6,16.87-.73,2.85-1.42,5.55-2.28,7.88-2.74,7.41-5.37,15-7.92,22.26-6,17.1-12.11,34.77-19.93,50.88-36,74.6-91.62,139.42-169.94,198.16-41.57,31.18-88.26,32.81-142.73,5-5.45-2.8-10.44-9-15.73-15.58q-1.58-2-3.21-4l1.4-2.8c2.69-5.41,4.82-9.69,7.34-13,48.06-64.44,69.33-137.65,83.81-200.77,19.12-83.73,17.59-167.84,14.4-246.78a308.66,308.66,0,0,0-28-117.11c-17.39-37.86-45.4-61-76.88-63.37-30.16-2.31-59.81,15.09-81.35,47.73-17.71,26.77-31.49,61.33-39.84,99.93-9.65,44.28-15.59,89.86-21.34,133.93-1.53,11.72-3.1,23.83-4.72,35.7-2.39,17.36-2,35.28-1.41,50.72,1.29,34.41,3,69.31,4.6,103q1,20.75,2,41.42l-4.64,2.82a159.33,159.33,0,0,1-16.57,9.29c-35.82,16.55-68.19,42.47-98.93,79.25-1.58,1.88-3.15,3.77-4.73,5.66-9.86,11.84-20.07,24.08-30.87,35-2.55,2.57-5.09,5.22-7.54,7.79-10.07,10.52-19.58,20.45-30.47,25.9l-2.67,1.34c-53.77,26.89-109.38,54.69-170.24,64.63-40.93,6.67-77.78-1.92-112.68-26.27-25.82-18-32.08-39.35-21-71.38l.79-2.25c3.13-9,6.09-17.41,9.59-25.63,52.82-121.7,62.6-250,65.3-370.47.86-36.57-3.94-73.34-8.58-108.9-.92-7-1.83-14.06-2.7-21.05-1.66-13.59-14.23-27-25-31.71-17-7.37-37.44-.51-47.41,15.91a138.85,138.85,0,0,0-17.52,43c-15,69.48-30.74,143.42-44.27,216.36-6,32.42-10.41,65.54-14.68,97.58-1.56,11.72-3.17,23.77-4.84,35.68l-.38.21a66.14,66.14,0,0,1-9.52,4.6c-31.53,10.64-49,29.63-55,59.85-2.79,14.53-11.34,30.49-22.31,41.64l-7,7c-48.15,48.85-97.95,99.35-153.9,140.71-13.5,9.94-25.32,15.85-39.84,13.92-.08-2-.17-4.1-.27-6.11-.47-10.51-1-21.37-.5-31.8a212.43,212.43,0,0,1,5.27-40.18c2.11-8.85,4.81-17.51,7.66-26.69,3.89-12.51,7.91-25.44,10.28-38.78,2.45-13.57,1.37-29.27-3.19-46.58-4.8-18.74-20.43-30-44.07-31.73-19.1-1.29-38.59,14.19-43.47,34.56-2.74,11.63-5.69,25.19-6,38.75-1.84,66.69-36.68,120.76-70.36,173-7.43,11.5-14.81,16-25.36,14.89-11.68-19.51-13.13-42.81-14.66-67.37-.2-3.09-.39-6.18-.6-9.28-.67-9.47-1.18-19.18-1.67-28.57-1.21-23-2.45-46.78-6.15-70.06-5.87-37.31-17.47-60.84-36.49-74.06-18.79-13.06-43.79-15.85-78.67-8.78-8.78,1.79-17.55,3.91-26,6-30.39,7.35-59.09,14.3-89,7.22-6.54-1.58-12.45.22-17.19,1.67a33.11,33.11,0,0,1-5,1.28c-38.83,4.58-69,24.76-98.16,44.29-5.07,3.39-10.32,6.91-15.53,10.28-41.77,27-66.67,63-76.12,109.91-6.69,33.12-18.25,64.73-36.36,99.49-13.72,26.38-21.11,50.61-22.58,74.06-1.73,27.68,5.13,53.92,20.42,78,7.33,11.45,9.83,23.73,7.89,38.65-10.08,76.5-7.75,153.9-5.5,228.76.42,13.84.85,28.16,1.2,42.23.06,2.51,0,5.13-.11,7.91-.18,5.79-.37,11.77.67,18.09,3.84,23,26,40.84,50.12,40.84,1,0,1.93,0,2.9-.08,19.19-1.12,33.84-18.45,35.63-42.16,1.37-18.35,1.27-38.21-.29-62.45-1.52-24.77-3.34-49.92-5.11-74.25-2.87-39.64-5.85-80.64-7.57-120.91-.06-1.39-.12-2.79-.19-4.19-.81-18.41-1.58-35.88,5.82-52.11l11-4c15.82-5.72,32.18-11.63,48.09-17.9,2.57-1,5.19-2,8-3,11.65-4.31,23.68-8.77,33.76-17,57.38-46.53,111.88-93.7,148.08-159,23.9-43.08,50.13-101.06,41.7-168.65l.51-.85,1.76.43,23.19,5.72c11,30.8,14.72,58.59,12.06,89.27-4.16,47.3,7.31,92.94,19.09,131.36,7.75,25.11,25.15,43.75,47.73,51.15,22.43,7.34,47.28,2.65,68.16-12.86,13.89-10.29,26.3-22.59,38.3-34.49,3.53-3.49,7.13-7.07,10.78-10.6l37.54,17.86L1762.3,1227l5.58-3.28,51.79-30.5,39.19-23.07c-2.62,10.42-4.83,20.53-5.42,30.89-1.42,25.22,8.49,47.68,27.2,61.61s43,17,66.73,8.42c21-7.66,44.62-18.66,60.59-42.08,20.86-30.6,40.51-58.09,60-84a134.91,134.91,0,0,0,11.05-18.15c5-9.29,9.42-17.51,16.66-22.41.6.24,1.21.49,1.63.69,18,22.36,39.13,38.22,64.55,48.49,22.65,9.15,48.29,13.6,78.33,13.6h1.12c59.71-.22,114-16.24,159.34-31.87a64.55,64.55,0,0,0,10-4.78c6.14-3.41,8.74-4.54,11.86-3.39l.57,1.36c1.76,4.25,3.59,8.65,4.22,12.72,6.45,42.57,38,58.19,64.72,67,32.12,10.63,61.06,1.5,80.07-6.3,51.18-21.15,90.7-51,120.81-91.38q1.58-2.1,3.13-4.22c12.68-17.13,24.72-33.4,43.77-42.24l.9.71c4.6,3.61,8.95,7,13.58,10.3,40.32,28.65,81.42,42.93,121.68,42.92,46.42,0,91.72-19,133.29-56.86l10.44-9.5c29.62-26.89,60.24-54.7,85.53-87.8l.08-.11c1.54-2,5.3-7,7.62-8.55.05,8.1,0,16.22,0,24.15-.08,24-.16,48.81,1.69,73.21,1.38,19,11,34,26.48,41.17,15.89,7.38,35,4.8,51.13-6.92,23-16.78,34.38-41,41.71-60.32,3.51-9.25,6.77-18.72,9.92-27.89,7.48-21.73,14.53-42.27,24.94-61,14.26-25.62,32.5-50.15,50.15-73.87,4.4-5.92,8.93-12,13.38-18.09-.65,11.28-.5,22-.35,32.55.2,14.53.39,28.25-1.58,42-4.87,34.54-7,69.83-9.11,104q-.59,9.58-1.18,19.14c-1.87,28.25,7.46,50,27.71,64.56,15.28,11.07,38.16,9.94,50-2.48a126.61,126.61,0,0,0,11.66-14.91c1.4-2,2.72-3.87,4.09-5.72,13.19-17.8,26.53-35.92,39.43-53.45,29.92-40.64,60.85-82.67,92-123.41,4.06-5.31,8.05-10.8,11.92-16.1,14.42-19.79,29.22-40.1,51.55-57.57-.11,5.86-.23,11.58-.35,17.21-.57,27-1.07,50.3.66,74.17,3.5,47.5,23.32,85.78,58.93,113.79,28.76,22.52,65,31.54,107.65,26.81,40.58-4.49,88.22-11.74,134-31.42a478.63,478.63,0,0,1,82.31-26.71c0,.11,0,.22,0,.32-1.59,31.34,5.58,54.45,21.31,68.67,14.92,13.5,36.59,18.2,64.38,14,37.76-5.73,67.67-19.94,88.89-42.25,38.73-40.72,77.46-84.25,118.42-133.07,42.75-51.06,78.7-110,109.92-180.24.7-1.6,1.33-3.25,1.93-4.84,1.88-4.91,3.2-7.82,4.74-9.46,1.9,6.14,3.83,12.29,5.71,18.31,6.94,22.19,14.12,45.12,20.29,67.93,2.8,10.56,4.36,21.47,6,33,.95,6.64,1.94,13.52,3.18,20.32.62,3.44,1.2,6.91,1.78,10.37,2.18,12.89,4.42,26.22,8.61,39.12,25,77.09,50.7,155.39,75.58,231.11q15.57,47.39,31.11,94.75a21.67,21.67,0,0,1,.6,4c-7,5.42-16,7.32-26.3,9.47-6.85,1.43-13.93,2.92-20.95,5.59-33.52,12.8-59.1,26.21-80.51,42.18-26.39,19.69-46.22,43.22-60.62,71.93-25.54,50.84-37.57,106.19-36.8,169.22.7,56.66,11.58,113.92,22.66,167.76a26.31,26.31,0,0,0,2.52,6.62c.22.45.46.92.58,1.19l.06.16c4.23,9.67,8.34,19.68,12.32,29.36,9.12,22.19,18.55,45.13,30.37,66.62,57.23,104.25,115.75,172,189.76,219.77,43.82,28.3,87.19,41.84,134.89,41.84q11.47,0,23.3-1c36.67-3.28,59.86-19.6,75.19-53C4842.6,1969.62,4846.17,1915.63,4831.81,1847.86Zm-62,75.56c2.49,18.57-5.29,46-34.57,67.12-13.56,9.82-26.38,12.43-41.62,8.47-63.66-16.44-113.21-44.68-151.47-86.35-42.44-46.17-76.32-95.93-100.69-147.92a533.26,533.26,0,0,1-47.37-172.48c-7.5-73.14,16.24-139.87,40.46-195.5,8.77-20.19,27.59-32.19,47.52-44.9,3.46-2.21,7.05-4.5,10.53-6.81,20.4-13.5,44.78-22.48,63.74-28.8,5.5-1.84,9.89-3,13.6-3,8.08,0,12.91,5.28,18.74,19.83l.05.12c29.06,72.57,59.12,147.61,87.16,222,17.14,45.35,39.29,105.28,58.57,166.74l.94,3c18.66,59.39,37.95,120.81,34.32,196.27l-.06,1.11ZM4203.66,897.86a363.4,363.4,0,0,1-31.44,43.93c-22.94,27-48.24,46-77.36,58-5.08,2.09-11,2.35-12.63,1.61-2.4-1.23-2.58-5.46-.52-12.6,3.86-13.51,9.16-21.29,18.3-26.83C4134.77,940.87,4169.78,919,4203.66,897.86Zm-1382.55-170c-8.39,68.22-29.49,130.37-64.51,190-2.14,3.64-5.48,7.15-9.12,10.82-16.91-31.4-26.9-68.77-29.73-111.25-5.06-77-5.19-140.33-.41-199.31,4.3-52.94,16.22-97.4,36.46-136,9.53-18.26,19.49-31,38.38-36.83,23.18,15,31,40.39,35.25,73.58C2836.66,589.44,2829.37,660.83,2821.11,727.91Zm-137.19,285.65c-9.06,11.24-19,22.32-28.54,33-7.75,8.68-15.77,17.65-23.43,26.8-30.46,36.52-73.27,44.84-111.21,48.18-1.82.19-5.93-1.62-9.25-3.06l-1.41-.61c-2.64-26.05,11.89-41.63,35.88-57.68,9.27-6.18,19-11.57,29.3-17.27,7.5-4.16,15.26-8.45,22.82-13.09,21.41-13.16,43-26.73,63.89-39.84l20.09-12.61c6.83,7.13,12.4,13.67,13,17.42C2695.69,998.39,2690.08,1005.93,2683.92,1013.56Zm-532.55-311.8c-1.38,51.06-10.64,105-25.65,148.27C2129.07,802.92,2138.87,747.29,2151.37,701.76Zm-94.51,322.5c-23.2,45.41-51.49,97.16-93.79,136.66-4.38,4.11-10.32,7.54-17.68,11.51a286.1,286.1,0,0,1,38.2-92.1c20.19-31.79,45.55-58.4,73.8-77.55A24,24,0,0,1,2056.86,1024.26Zm-868,242.83c-7-56.71,9.45-105.41,51.35-152.72,37.23-42.07,82.85-77.69,139.47-108.91,3-1.66,8.57-4.14,12.33-2.26,3.55,1.77,6.32,7.56,7.42,15.47,3.79,27.5-6.68,53.26-16.79,75.21a343.71,343.71,0,0,1-66.43,96.09c-26.13,26.7-57.78,50.56-94.1,70.92C1210.47,1267.46,1200.86,1270.66,1188.87,1267.09ZM2069.09,257.87c-.8-10.27-3.51-20.06-5.89-28.7-1-3.48-1.88-6.78-2.62-9.92l-1.56-6.58-6.25-2.6c-42.27-17.51-76-6.3-97.69,32.42-18.66,32.75-45.56,60.84-82.23,85.88l-7,4.77c-30.33,20.65-61.69,42-91.13,65.16-49.24,38.7-126.38,89.24-287.07,136.91-32,9.47-62.14-.37-94-10.78l-8-2.62c-4.89-1.58-7-5.83-7.88-9.12a22.09,22.09,0,0,1,4.5-19.72q9-10.16,17.94-20.31c25.76-29.17,52.39-59.33,79.19-88.41,41.65-45.31,58.63-100.87,51.94-169.78-1.44-15.44-5.76-30.66-12.18-42.85-11.56-21.92-28.78-36.09-48.47-39.9s-41,2.92-60,19c-28.19,23.78-49.64,51.74-63.73,83.07-31.17,69-59.94,137.15-69.56,211.42-3.12,23.82-14.92,41.69-36.05,54.61-74,44.94-141.45,83.46-218.54,99.66-21,4.4-46,4.75-74.34,1-23.78-3.17-38.24-18.22-45.51-47.38-4.74-19-1.72-37.67,1.48-57.4,1.24-7.64,2.52-15.54,3.34-23.56,6.63-65.1,34.76-120.59,83.62-164.93,11.64-10.54,26.38-18.24,42-26.39,7.71-4,15.67-8.18,23.32-12.75a43.65,43.65,0,0,0,21.57-33.23c1.44-14.32-4.19-28.4-15.42-38.62-15.67-14.29-34.16-19.14-55-14.41-26.44,6.1-48.55,20.21-67.59,43.12-88.69,106.56-130,216.4-126.16,335.79.52,16.38,4.86,32.43,11.89,44,11.7,19.46,25.74,37.38,39.32,54.71,1.46,1.87,2.93,3.74,4.38,5.61,18.46,23.66,43.14,35.63,73.44,35.63,2.57,0,5.19-.09,7.84-.26,66.4-4.23,134-25,206.77-63.42,33.77-17.94,67.32-37.47,99.77-56.36,11.3-6.57,22.9-13.33,34.48-20l.57.62a157.92,157.92,0,0,1,10.55,12.41c33.09,45.72,77.79,62.35,140.73,52.3,69.07-11.13,137.91-34.78,216.63-74.44l8.58-4.3c38.44-19.28,78.19-39.22,114.71-63.5,21.49-14.3,41.84-30.53,61.52-46.23,22.81-18.19,46.39-37,71.18-52.21,16.25-10,31-21.95,45.34-33.51,25-20.25,48.7-39.38,79-47.95C2059.29,298.52,2070.69,280.09,2069.09,257.87Zm-650.92,77.51c-12.29,18.9-28.26,36.53-47.66,52.64,4.73-33.3,18.14-59.78,32.44-83.62,1-1.71,2-3.44,3.08-5.18,10.9-18.41,21.27-35.93,40.29-44.76.4.57.79,1.13,1.09,1.6A186.52,186.52,0,0,1,1418.17,335.38ZM656.11,532.92c-4.46,32.6-10.74,67.15-19.18,105.62-3.26,14.76-10.59,28.07-18,40.26-6.74,11-20.17,17.48-30.49,19.92-11.29,2.66-21.73,1.49-29.4-3.29-10.73-6.73-18.08-17.35-24.57-26.71-1.26-1.82-2.51-3.64-3.78-5.4l-.09-.13c-4.66-6.65-3.79-14.78-3.21-20.16.06-.57.12-1.12.17-1.66,5.23-55.85,6.4-113,7.52-168.33q.3-14.87.63-29.74c.27-12.43,1-24.94,1.71-37,2.24-38.39,4.36-74.65-7-110.57-2.77-8.84-2.34-17.79-2-25.69.18-3.81.35-7.4.18-10.69-1.47-26.88-10.56-36.24-36-37.08-25.87-.86-59.78-.18-92.71,12.78-44.54,17.58-82.9,42.86-114,75.14-30.21,31.34-54.54,70.26-72.32,115.67C201.66,456,192.13,488,182.92,518.87c-3.2,10.73-6.51,21.84-9.88,32.74-17.87,57.92-23.81,120.91-18.15,192.55,1.38,17.87-1.71,38.05-8.68,56.84l0,.1c-5.32,14-25.92,21.46-38.17,22.11-.87,0-1.73.07-2.58.07-19.78,0-35.61-12-40.77-31a36.23,36.23,0,0,1-1.68-10v-.35c1.45-54.07,2.86-101.65,4.3-145.49.15-5.33.59-10.61,1-15.71.49-5.91,1-11.49,1-16.95-.35-56.34-.76-113.72-1.15-169.2S67.32,321.51,67,265c-.19-6.21,3.27-10.07,6.63-13.81,1.44-1.6,3.4-3.79,6-6.92l10.06-12.19,10.23,12c16.93,19.93,15.8,40.14,14.9,56.39-.33,5.91-.64,11.49,0,16.37.89,7.31,1.88,14.76,2.83,22,1.64,12.35,3.33,25.11,4.61,37.82,1.48,14.51,2.54,29,3.57,42.95.28,3.79.55,7.45.82,11.05a2.24,2.24,0,0,0,.94-.22c.62-.37,2-1.71,4.06-6.53,4.52-10.41,8.66-21.41,12.66-32,6-16,12.25-32.53,20.14-48.31,31.15-62.24,74.78-110.93,129.7-144.74,50.71-31.21,112.66-50.66,184.12-57.81,38.21-3.84,71.32,8.16,95.76,34.71,2.69,2.93,6.59,5.62,10.71,8.48,2.91,2,5.92,4.1,8.89,6.5,25.15,20.59,41.07,41.67,48.71,64.48,8.55,25.53,7,53.13-4.87,84.38-8.74,23.09-10.53,49.27-12.43,77-.72,10.49-1.46,21.28-2.61,32.05,1.7,1.41,3.48,2.82,5.31,4.27,9.5,7.57,19.32,15.39,24.45,26.94C657.92,493.19,659.22,510.53,656.11,532.92ZM3149.52,227.46l-2.46,3.39c-.26.37-.86,1.5-1.3,2.32-2.45,4.62-6.16,11.59-13.78,14.3a51.23,51.23,0,0,1-17,2.93c-11.5,0-25.25-4-39.9-16.7-15.44-13.53-19-37-8.38-54.74,5.49-9.24,20.23-18.06,31.83-16.06,29.26,5,49.68,29.26,50.8,60.36Z" transform="translate(-62.97 -130.67)" fill="#231f20"/></svg>