<?xml version="1.0" encoding="utf-8"?>
<!-- Generator: Adobe Illustrator 21.1.0, SVG Export Plug-In . SVG Version: 6.00 Build 0)  -->
<svg version="1.1" id="Layer_1" xmlns="http://www.w3.org/2000/svg" xmlns:xlink="http://www.w3.org/1999/xlink" x="0px" y="0px"
	 viewBox="0 0 4909.3 2147.3" style="enable-background:new 0 0 4909.3 2147.3;" xml:space="preserve">
<style type="text/css">
	.st0{fill:#FFFFFF;}
	.st1{fill:#231F20;}
	.st2{fill:none;stroke:#231F20;stroke-width:24.354;stroke-miterlimit:10;}
	.st3{fill:none;stroke:#231F20;stroke-width:26.4666;stroke-miterlimit:10;}
</style>
<polygon class="st0" points="-280.7,-288.3 -280.2,-288.2 -280.2,-288.9 -280.6,-288.9 "/>
<path class="st1" d="M4196.5,828c-21.5,2.6-37.6,9.6-45.2,39.6C4171.9,849.5,4184.2,838.7,4196.5,828 M2160.8,637.9
	c-26.1,56-47.9,169.7-48.5,241.6c0,4.3,4.3,8.6,7.7,14.8C2152.9,832.3,2171.2,722.5,2160.8,637.9 M4238,862.1
	c-48.1,29.9-95.9,60.1-144.3,89.4c-13.5,8.2-19.7,19.9-23.7,33.9c-3,10.4-3.5,21.6,6.7,26.8c5.9,3,16,1.6,22.8-1.2
	C4167,983.2,4204.5,924.9,4238,862.1 M1929.2,1195.3c19-11.3,32.5-16.4,42.2-25.5c42.3-39.5,70.4-89.3,96.3-140
	c7.3-14.2,5-30.6-7-43.6C1992.7,1027.3,1939.5,1109,1929.2,1195.3 M2499.1,1126.7c7.8,2.5,15.5,7.7,22.8,7
	c45.5-4,88.2-15.1,119.4-52.5c17-20.3,35.5-39.4,52.1-60c20.5-25.4,19.2-30.5-9.5-59.3c-30.7,19.2-61.3,38.6-92.2,57.6
	c-17.3,10.6-35.7,19.4-52.5,30.6C2512.9,1067.7,2491.7,1088.9,2499.1,1126.7 M1177.8,1275.9c20.7,9.4,36.1,3.6,50.3-4.4
	c72.6-40.7,130.4-96.5,165.6-172.5c11.6-25.2,21.9-52.3,17.8-82c-3.2-23.1-17.8-33.2-37.7-22.2c-53.5,29.5-101.9,65.4-142.7,111.5
	C1188.5,1154.4,1167.4,1208.6,1177.8,1275.9 M2741.8,943.4c5.6-0.6,8.4-0.1,9.5-1.2c5.6-5.8,11.8-11.3,15.8-18.1
	c35.4-60.3,57.5-124.8,66.1-194.7c8.7-70.7,15.6-141,6.3-212c-4.5-34.8-13.4-67.3-45.5-85.1c-27.3,6.4-40.2,23.6-51,44.3
	c-23.2,44.2-33.9,92.6-37.8,140.6c-5.4,66.6-4,134.2,0.4,201.1C2708.5,861.8,2719.1,905.5,2741.8,943.4 M4781.9,1921.8
	c3.8-78.9-16.3-141.4-35.8-203.5c-17.7-56.4-37.9-112.1-58.8-167.4c-28.1-74.5-57.7-148.4-87.3-222.3
	c-10.3-25.7-22.1-32.4-47.5-23.9c-23.1,7.7-46.5,16.9-66.6,30.2c-23.4,15.5-50.5,29.4-62.5,57c-27.9,64.1-48.8,129.5-41.4,201.6
	c13,126.8,65.8,234.5,151.2,327.4c42.8,46.6,96.6,74.2,157.4,89.9c19.6,5.1,36.2,0.9,51.8-10.4
	C4773.4,1978,4785.3,1947.2,4781.9,1921.8 M3620.9,811c-43,25.5-62.6,59.4-85.6,89.5c-44.6,58.4-87.7,117.9-131.5,177
	c-4.9,6.6-9.2,13.6-14.8,19.5c-7.8,8.2-24.2,8.1-34,1c-18.6-13.4-24.1-32.7-22.7-53.9c2.6-40.8,4.5-81.8,10.2-122.2
	c4.4-30.7-1.3-60.3,4-94.6c-12.2,4.7-19.6,5.1-22.3,8.9c-22.8,31.3-47.3,61.9-66,95.5c-15.6,28.1-24.1,60.2-35.6,90.5
	c-8.1,21.3-18.7,41.1-37.5,54.8c-25.6,18.6-56,6.2-58.3-25.3c-2.6-34.4-1.3-69.1-1.7-104.1c-13.8-12-23.1,0.4-29.5,8.9
	c-27.5,36-61.3,65.4-94.5,95.7c-70.5,64.2-154.3,73.7-239.7,13c-6.5-4.6-12.7-9.7-19.6-15c-28,9.9-43.1,32.3-58.6,53.1
	c-30.3,40.6-69.7,68.4-115.7,87.4c-22.9,9.4-46.5,14.3-71.6,6c-29-9.6-51.5-24.3-56.5-57.3c-1.2-7.8-5.1-15.2-7.1-20.8
	c-15.5-10.2-24.9,1.5-35.6,5.2c-50.4,17.4-101.1,31-155.4,31.2c-54.3,0.2-100.3-14.7-135-58.2c-2.2-2.8-6.8-3.7-11.2-5.9
	c-20.3,8.8-24.8,30.9-36.8,46.7c-20.8,27.6-40.9,55.9-60.4,84.5c-13.5,19.8-33.6,29.8-54.7,37.5c-41.5,15-80.1-13.7-77.6-57.9
	c1-17.5,7.2-34.7,12.1-56.8c-41.3,24.3-77.6,45.7-116,68.3c-22.9-10.9-44.5-21.2-66.4-31.6c-18.4,17.2-34.7,35.6-54,49.9
	c-37.3,27.7-83.3,12.3-97-32.1c-12.6-41.1-22.4-83.5-18.6-126.7c2.9-33.5-1.4-65-15-100.6c-11.6-2.9-26.3-6.5-40.1-9.9
	c-3.7,7.3-7.4,11-6.9,14.3c8.1,59.8-11.7,112.3-40,163.3c-35.5,64.1-89.6,110.5-145.1,155.5c-10.7,8.7-25.3,12.9-38.5,18.1
	c-20.8,8.2-41.9,15.6-63.3,23.4c-11.9,21.7-10,44.9-9.1,66.6c2.8,65.2,8.7,130.3,12.7,195.4c1.3,20.2,1.8,40.6,0.3,60.8
	c-1.4,18.5-12.2,30.2-24.2,30.9c-18.5,1.1-37.3-12.6-40.3-30.6c-1.3-7.9-0.2-16.2-0.4-24.3c-2.2-89.8-7.6-179.5,4.2-269.1
	c2.1-16.1-0.1-31.8-9.7-46.8c-29.7-46.8-20.6-95.1,2.7-139.9c17.2-33,30.1-66.1,37.5-102.7c8.7-43.2,31.4-76.6,70.8-102.1
	c34.6-22.4,66.1-47.7,108.5-52.7c6.1-0.7,12.5-4.5,17.9-3.2c41.8,9.9,80.6-5,120.3-13.1c66.1-13.4,91.1,11.8,100.7,72.8
	c5.1,32.1,5.4,65,7.7,97.6c2.1,30.4,2.2,61.2,20.1,86.9c21.3,4.8,33.8-5.3,42.9-19.4c35.5-55.1,70.4-110.5,72.3-179.3
	c0.3-12.2,2.9-24.4,5.7-36.3c3.5-14.6,17.5-26.1,30.8-25.2c15.1,1.1,29.1,7,33.1,22.6c3.5,13.3,5.4,28.1,3,41.4
	c-3.9,21.9-12.6,43-17.8,64.8c-3.3,13.8-5,28.3-5.6,42.5c-0.7,16.1,0.7,32.3,1.1,48.2c24.3,7.6,42.2-1.6,58.9-13.9
	c59.4-43.9,110.7-96.7,162.3-149c12.3-12.5,22.3-30.7,25.6-47.9c5.6-28.3,22-42.2,46.9-50.6c5.6-1.9,10.7-5.2,17.2-8.5
	c6.6-46.2,11.8-92.9,20.3-138.9c13.4-72.2,28.7-144.1,44.2-216c2.9-13.6,8.7-27.3,16-39.2c6.8-11.2,20.4-16.2,32.2-11.1
	c7.8,3.4,16.7,13.8,17.7,22c5.3,42.6,12.2,85.5,11.2,128.2c-2.8,125-13.6,249.1-64.3,365.9c-4,9.4-7.3,19-10.7,28.7
	c-12.7,36.6-5.5,63.8,25.5,85.4c36.4,25.4,76.2,35.7,121.6,28.3c63.7-10.4,120-38.9,176.4-67.1c15.8-7.9,28.3-23,41.2-36
	c12.9-13,24.5-27.3,36.3-41.4c26.5-31.7,56.8-58.5,94.7-76c9.2-4.2,17.6-10.1,28.6-16.4c-2.3-50.3-5-101-6.9-151.7
	c-0.6-16.2-0.9-32.6,1.3-48.6c7.7-56.4,13.8-113.2,25.9-168.7c7.2-33.3,19.5-67.7,38.1-95.8c41.3-62.6,105.6-54.4,137,14
	c16.4,35.8,25.4,73.6,26.9,112.5c3.3,81.5,4.3,163-14.1,243.6c-16.1,70.2-38,137.6-81.7,196.2c-4.8,6.4-7.8,14.1-13.6,24.9
	c9.2,9.7,16.7,22.8,28,28.6c52.5,26.8,105.6,31.4,155.6-6.1c72.8-54.6,133.7-120,173.6-202.6c11.5-23.7,19.1-49.4,28.3-74.2
	c2.8-7.6,3.6-16.1,7.5-23c6.5-11.4,17.5-19,30.4-14.3c8.5,3.1,18.2,10.7,21.6,18.7c9.3,21.9,5.1,44.1-6.2,64.8
	c-24.2,44.3-25.4,93.8-31.9,142.1c-0.7,5.5,2,11.5,3.7,20.1c19-4.7,25.7-19.1,32.3-33.4c23.5-50.3,59.1-92.6,90.9-137.3
	c10.4-14.5,25.3-26.5,40.1-36.8c17.4-12.2,38.7-3.5,41.9,18c6.1,40.2,14,80.5,6.1,121.7c-6.1,31.5-13.5,63.3-2.1,100.3
	c24.1-14.2,38.4-32.6,53.3-51.2c64.9-81.2,130.6-161.7,196.4-242.2c5-6.1,12.1-10.9,19-14.9c13-7.5,29.7,0.3,34.1,14.8
	c5.5,18.4,2.7,35.7-3.6,53.8c-16.9,48.6-21.9,99.5-24.5,150.6c-2.1,40.5,14.3,72,50,91.1c13.9,7.4,30.5,11.3,46.3,13.1
	c43.6,5,85.4-5.7,126.3-19.2c25.2-8.3,49.6-18.6,74.6-27.4c38.9-13.7,70.7-33.9,98-67.9c36.7-45.8,81.9-84.9,125.2-125
	c23.1-21.5,50.9-25.6,94.2-20.1c3.5,11.7,7.5,24.8,11.4,37.8c3.9-0.8,9.8-0.2,11.1-2.5c8.3-13.9,15.4-28.4,23.1-42.7
	c19.4-35.9,37.9-72.4,58.7-107.4c14.9-25,45.8-21.8,56.9,5.9c9,22.6,16.3,46.5,20.1,70.5c25,159.8,67.9,315.1,115.1,469.3
	c4.2,13.6,9.5,27,15.1,40.1c4.7,11.1,10.7,21.7,17.4,34.8c57.3-3.4,113.8,11.3,170.3-4.9c5.9-1.7,19.2,4,20.4,8.6
	c2.2,8.5,0.5,20.1-3.9,27.8c-7.6,13.1-21.5,18.2-36.8,17.8c-24.5-0.7-49-1.9-73.5-2.3c-17.9-0.3-35.9,0.3-57,0.6
	c3.4,43.7,18.9,79.1,31.8,114.9c22.9,63.3,47.5,125.9,71.4,188.8c4.4,11.5,7.6,23.5,13.2,34.3c35.9,69.8,53.2,145.8,69.3,221.4
	c11.4,53.8,13.8,109.4-10.4,162.3c-13.1,28.5-31.6,42.9-65.2,45.9c-55.9,4.9-103.9-8.8-150.5-38.9
	c-83.4-53.8-139.2-130.7-185.7-215.4c-16.6-30.2-28.3-63.2-42.2-95c-0.8-1.9-2-3.7-2.4-5.6c-22.8-110.7-41.3-220.7,13.1-329
	c28.9-57.6,78.3-86.7,134.6-108.2c18.6-7.1,40.8-5.2,55.6-21.7c-0.6-4.4-0.5-8.6-1.7-12.4c-35.6-108.6-71.5-217.2-106.7-325.9
	c-5-15.4-7.1-31.8-10-47.9c-3.3-18.1-4.7-36.6-9.4-54.3c-8.9-32.9-19.6-65.2-29.3-97c-19.4-1.9-22.1,13.7-26.3,23.3
	c-28.4,63.9-63.3,123.8-108.1,177.3c-38,45.3-77.2,89.7-117.9,132.5c-21.5,22.6-50.9,33.9-81.9,38.6c-50,7.6-74.4-16.6-71.7-70
	c0.2-3.7-0.9-7.5-2-15.6c-33.7,6.9-66.5,16.9-97.3,30.2c-42.1,18.1-86.3,25.6-130.5,30.5c-34.3,3.8-69.3-1.2-98.8-24.3
	c-34.2-26.9-51.2-63.1-54.3-105.1C3618.4,890.2,3620.7,855.6,3620.9,811"/>
<path class="st2" d="M4196.5,828c-21.5,2.6-37.6,9.6-45.2,39.6C4171.9,849.5,4184.2,838.7,4196.5,828z M2160.8,637.9
	c-26.1,56-47.9,169.7-48.5,241.6c0,4.3,4.3,8.6,7.7,14.8C2152.9,832.3,2171.2,722.5,2160.8,637.9z M4238,862.1
	c-48.1,29.9-95.9,60.1-144.3,89.4c-13.5,8.2-19.7,19.9-23.7,33.9c-3,10.4-3.5,21.6,6.7,26.8c5.9,3,16,1.6,22.8-1.2
	C4167,983.2,4204.5,924.9,4238,862.1z M1929.2,1195.3c19-11.3,32.5-16.4,42.2-25.5c42.3-39.5,70.4-89.3,96.3-140
	c7.3-14.2,5-30.6-7-43.6C1992.7,1027.3,1939.5,1109,1929.2,1195.3z M2499.1,1126.7c7.8,2.5,15.5,7.7,22.8,7
	c45.5-4,88.2-15.1,119.4-52.5c17-20.3,35.5-39.4,52.1-60c20.5-25.4,19.2-30.5-9.5-59.3c-30.7,19.2-61.3,38.6-92.2,57.6
	c-17.3,10.6-35.7,19.4-52.5,30.6C2512.9,1067.7,2491.7,1088.9,2499.1,1126.7z M1177.8,1275.9c20.7,9.4,36.1,3.6,50.3-4.4
	c72.6-40.7,130.4-96.5,165.6-172.5c11.6-25.2,21.9-52.3,17.8-82c-3.2-23.1-17.8-33.2-37.7-22.2c-53.5,29.5-101.9,65.4-142.7,111.5
	C1188.5,1154.4,1167.4,1208.6,1177.8,1275.9z M2741.8,943.4c5.6-0.6,8.4-0.1,9.5-1.2c5.6-5.8,11.8-11.3,15.8-18.1
	c35.4-60.3,57.5-124.8,66.1-194.7c8.7-70.7,15.6-141,6.3-212c-4.5-34.8-13.4-67.3-45.5-85.1c-27.3,6.4-40.2,23.6-51,44.3
	c-23.2,44.2-33.9,92.6-37.8,140.6c-5.4,66.6-4,134.2,0.4,201.1C2708.5,861.8,2719.1,905.5,2741.8,943.4z M4781.9,1921.8
	c3.8-78.9-16.3-141.4-35.8-203.5c-17.7-56.4-37.9-112.1-58.8-167.4c-28.1-74.5-57.7-148.4-87.3-222.3
	c-10.3-25.7-22.1-32.4-47.5-23.9c-23.1,7.7-46.5,16.9-66.6,30.2c-23.4,15.5-50.5,29.4-62.5,57c-27.9,64.1-48.8,129.5-41.4,201.6
	c13,126.8,65.8,234.5,151.2,327.4c42.8,46.6,96.6,74.2,157.4,89.9c19.6,5.1,36.2,0.9,51.8-10.4
	C4773.4,1978,4785.3,1947.2,4781.9,1921.8z M3620.9,811c-43,25.5-62.6,59.4-85.6,89.5c-44.6,58.4-87.7,117.9-131.5,177
	c-4.9,6.6-9.2,13.6-14.8,19.5c-7.8,8.2-24.2,8.1-34,1c-18.6-13.4-24.1-32.7-22.7-53.9c2.6-40.8,4.5-81.8,10.2-122.2
	c4.4-30.7-1.3-60.3,4-94.6c-12.2,4.7-19.6,5.1-22.3,8.9c-22.8,31.3-47.3,61.9-66,95.5c-15.6,28.1-24.1,60.2-35.6,90.5
	c-8.1,21.3-18.7,41.1-37.5,54.8c-25.6,18.6-56,6.2-58.3-25.3c-2.6-34.4-1.3-69.1-1.7-104.1c-13.8-12-23.1,0.4-29.5,8.9
	c-27.5,36-61.3,65.4-94.5,95.7c-70.5,64.2-154.3,73.7-239.7,13c-6.5-4.6-12.7-9.7-19.6-15c-28,9.9-43.1,32.3-58.6,53.1
	c-30.3,40.6-69.7,68.4-115.7,87.4c-22.9,9.4-46.5,14.3-71.6,6c-29-9.6-51.5-24.3-56.5-57.3c-1.2-7.8-5.1-15.2-7.1-20.8
	c-15.5-10.2-24.9,1.5-35.6,5.2c-50.4,17.4-101.1,31-155.4,31.2c-54.3,0.2-100.3-14.7-135-58.2c-2.2-2.8-6.8-3.7-11.2-5.9
	c-20.3,8.8-24.8,30.9-36.8,46.7c-20.8,27.6-40.9,55.9-60.4,84.5c-13.5,19.8-33.6,29.8-54.7,37.5c-41.5,15-80.1-13.7-77.6-57.9
	c1-17.5,7.2-34.7,12.1-56.8c-41.3,24.3-77.6,45.7-116,68.3c-22.9-10.9-44.5-21.2-66.4-31.6c-18.4,17.2-34.7,35.6-54,49.9
	c-37.3,27.7-83.3,12.3-97-32.1c-12.6-41.1-22.4-83.5-18.6-126.7c2.9-33.5-1.4-65-15-100.6c-11.6-2.9-26.3-6.5-40.1-9.9
	c-3.7,7.3-7.4,11-6.9,14.3c8.1,59.8-11.7,112.3-40,163.3c-35.5,64.1-89.6,110.5-145.1,155.5c-10.7,8.7-25.3,12.9-38.5,18.1
	c-20.8,8.2-41.9,15.6-63.3,23.4c-11.9,21.7-10,44.9-9.1,66.6c2.8,65.2,8.7,130.3,12.7,195.4c1.3,20.2,1.8,40.6,0.3,60.8
	c-1.4,18.5-12.2,30.2-24.2,30.9c-18.5,1.1-37.3-12.6-40.3-30.6c-1.3-7.9-0.2-16.2-0.4-24.3c-2.2-89.8-7.6-179.5,4.2-269.1
	c2.1-16.1-0.1-31.8-9.7-46.8c-29.7-46.8-20.6-95.1,2.7-139.9c17.2-33,30.1-66.1,37.5-102.7c8.7-43.2,31.4-76.6,70.8-102.1
	c34.6-22.4,66.1-47.7,108.5-52.7c6.1-0.7,12.5-4.5,17.9-3.2c41.8,9.9,80.6-5,120.3-13.1c66.1-13.4,91.1,11.8,100.7,72.8
	c5.1,32.1,5.4,65,7.7,97.6c2.1,30.4,2.2,61.2,20.1,86.9c21.3,4.8,33.8-5.3,42.9-19.4c35.5-55.1,70.4-110.5,72.3-179.3
	c0.3-12.2,2.9-24.4,5.7-36.3c3.5-14.6,17.5-26.1,30.8-25.2c15.1,1.1,29.1,7,33.1,22.6c3.5,13.3,5.4,28.1,3,41.4
	c-3.9,21.9-12.6,43-17.8,64.8c-3.3,13.8-5,28.3-5.6,42.5c-0.7,16.1,0.7,32.3,1.1,48.2c24.3,7.6,42.2-1.6,58.9-13.9
	c59.4-43.9,110.7-96.7,162.3-149c12.3-12.5,22.3-30.7,25.6-47.9c5.6-28.3,22-42.2,46.9-50.6c5.6-1.9,10.7-5.2,17.2-8.5
	c6.6-46.2,11.8-92.9,20.3-138.9c13.4-72.2,28.7-144.1,44.2-216c2.9-13.6,8.7-27.3,16-39.2c6.8-11.2,20.4-16.2,32.2-11.1
	c7.8,3.4,16.7,13.8,17.7,22c5.3,42.6,12.2,85.5,11.2,128.2c-2.8,125-13.6,249.1-64.3,365.9c-4,9.4-7.3,19-10.7,28.7
	c-12.7,36.6-5.5,63.8,25.5,85.4c36.4,25.4,76.2,35.7,121.6,28.3c63.7-10.4,120-38.9,176.4-67.1c15.8-7.9,28.3-23,41.2-36
	c12.9-13,24.5-27.3,36.3-41.4c26.5-31.7,56.8-58.5,94.7-76c9.2-4.2,17.6-10.1,28.6-16.4c-2.3-50.3-5-101-6.9-151.7
	c-0.6-16.2-0.9-32.6,1.3-48.6c7.7-56.4,13.8-113.2,25.9-168.7c7.2-33.3,19.5-67.7,38.1-95.8c41.3-62.6,105.6-54.4,137,14
	c16.4,35.8,25.4,73.6,26.9,112.5c3.3,81.5,4.3,163-14.1,243.6c-16.1,70.2-38,137.6-81.7,196.2c-4.8,6.4-7.8,14.1-13.6,24.9
	c9.2,9.7,16.7,22.8,28,28.6c52.5,26.8,105.6,31.4,155.6-6.1c72.8-54.6,133.7-120,173.6-202.6c11.5-23.7,19.1-49.4,28.3-74.2
	c2.8-7.6,3.6-16.1,7.5-23c6.5-11.4,17.5-19,30.4-14.3c8.5,3.1,18.2,10.7,21.6,18.7c9.3,21.9,5.1,44.1-6.2,64.8
	c-24.2,44.3-25.4,93.8-31.9,142.1c-0.7,5.5,2,11.5,3.7,20.1c19-4.7,25.7-19.1,32.3-33.4c23.5-50.3,59.1-92.6,90.9-137.3
	c10.4-14.5,25.3-26.5,40.1-36.8c17.4-12.2,38.7-3.5,41.9,18c6.1,40.2,14,80.5,6.1,121.7c-6.1,31.5-13.5,63.3-2.1,100.3
	c24.1-14.2,38.4-32.6,53.3-51.2c64.9-81.2,130.6-161.7,196.4-242.2c5-6.1,12.1-10.9,19-14.9c13-7.5,29.7,0.3,34.1,14.8
	c5.5,18.4,2.7,35.7-3.6,53.8c-16.9,48.6-21.9,99.5-24.5,150.6c-2.1,40.5,14.3,72,50,91.1c13.9,7.4,30.5,11.3,46.3,13.1
	c43.6,5,85.4-5.7,126.3-19.2c25.2-8.3,49.6-18.6,74.6-27.4c38.9-13.7,70.7-33.9,98-67.9c36.7-45.8,81.9-84.9,125.2-125
	c23.1-21.5,50.9-25.6,94.2-20.1c3.5,11.7,7.5,24.8,11.4,37.8c3.9-0.8,9.8-0.2,11.1-2.5c8.3-13.9,15.4-28.4,23.1-42.7
	c19.4-35.9,37.9-72.4,58.7-107.4c14.9-25,45.8-21.8,56.9,5.9c9,22.6,16.3,46.5,20.1,70.5c25,159.8,67.9,315.1,115.1,469.3
	c4.2,13.6,9.5,27,15.1,40.1c4.7,11.1,10.7,21.7,17.4,34.8c57.3-3.4,113.8,11.3,170.3-4.9c5.9-1.7,19.2,4,20.4,8.6
	c2.2,8.5,0.5,20.1-3.9,27.8c-7.6,13.1-21.5,18.2-36.8,17.8c-24.5-0.7-49-1.9-73.5-2.3c-17.9-0.3-35.9,0.3-57,0.6
	c3.4,43.7,18.9,79.1,31.8,114.9c22.9,63.3,47.5,125.9,71.4,188.8c4.4,11.5,7.6,23.5,13.2,34.3c35.9,69.8,53.2,145.8,69.3,221.4
	c11.4,53.8,13.8,109.4-10.4,162.3c-13.1,28.5-31.6,42.9-65.2,45.9c-55.9,4.9-103.9-8.8-150.5-38.9
	c-83.4-53.8-139.2-130.7-185.7-215.4c-16.6-30.2-28.3-63.2-42.2-95c-0.8-1.9-2-3.7-2.4-5.6c-22.8-110.7-41.3-220.7,13.1-329
	c28.9-57.6,78.3-86.7,134.6-108.2c18.6-7.1,40.8-5.2,55.6-21.7c-0.6-4.4-0.5-8.6-1.7-12.4c-35.6-108.6-71.5-217.2-106.7-325.9
	c-5-15.4-7.1-31.8-10-47.9c-3.3-18.1-4.7-36.6-9.4-54.3c-8.9-32.9-19.6-65.2-29.3-97c-19.4-1.9-22.1,13.7-26.3,23.3
	c-28.4,63.9-63.3,123.8-108.1,177.3c-38,45.3-77.2,89.7-117.9,132.5c-21.5,22.6-50.9,33.9-81.9,38.6c-50,7.6-74.4-16.6-71.7-70
	c0.2-3.7-0.9-7.5-2-15.6c-33.7,6.9-66.5,16.9-97.3,30.2c-42.1,18.1-86.3,25.6-130.5,30.5c-34.3,3.8-69.3-1.2-98.8-24.3
	c-34.2-26.9-51.2-63.1-54.3-105.1C3618.4,890.2,3620.7,855.6,3620.9,811z"/>
<path class="st1" d="M1355.5,415.9c63.3-43.4,98.3-98.6,105.3-160.4c0.5-4.8-5.5-10.3-9.4-17c-32.2,9.2-45.9,35.9-59.8,59.1
	C1371.5,331.1,1355,367.2,1355.5,415.9 M2047.7,222.3c2.7,11.4,7.2,23.8,8.2,36.6c1,13.9-4.8,28.2-18.8,32.2
	c-51.2,14.5-84.3,56.3-127.6,82.9c-46.9,28.8-87.1,68.1-133.1,98.7c-38.5,25.6-80.5,46.2-121.9,67c-67.5,34-137.1,61-212.8,73.2
	c-53.9,8.6-95.7-2.5-127.9-47c-5.1-7-11.4-13.2-19.1-22.1c-47.9,27.4-94.8,55.8-143.2,81.5c-63,33.3-129.2,57.3-201.4,61.9
	c-29.2,1.9-52.3-7.6-70-30.3c-15-19.2-30.3-38.2-42.8-59c-6.5-10.7-9.6-24.9-10-37.6c-4-125.8,44.2-232.1,123.1-326.9
	c16.2-19.5,35.7-33,60.4-38.7c16.3-3.7,30.6-0.1,43.1,11.3c16.5,15,14.8,39.5-4,50.7c-22.6,13.5-48.3,23.4-67.4,40.7
	c-50.8,46.1-80.9,104.6-87.9,173.4c-2.9,28.2-11.9,55.8-4.5,85.5c7.9,31.7,25.1,53.1,56.6,57.3c25.9,3.4,53.5,4.1,78.8-1.2
	c81.4-17.1,152.6-58.7,222.7-101.3c22.9-14,38.4-34.4,42.3-64.2c9.5-73.3,38.3-140.8,68.5-207.7c13.9-30.9,34.6-56.8,60.2-78.4
	c32.7-27.7,68.2-20.9,88.2,17c6,11.4,9.5,25,10.7,37.9c5.8,59.7-6.6,114-48.5,159.6c-33,35.8-65,72.4-97.3,108.9
	c-14.1,15.9-10.5,43.8,9.2,50.2c35.4,11.4,71,25,109.9,13.5c104.5-31,204.6-70.9,291.5-139.2c31.3-24.6,64.4-46.9,97.4-69.4
	c35.3-24.1,65-52.9,86.3-90.3C1984.3,217.3,2010.3,206.8,2047.7,222.3"/>
<path class="st3" d="M1355.5,415.9c63.3-43.4,98.3-98.6,105.3-160.4c0.5-4.8-5.5-10.3-9.4-17c-32.2,9.2-45.9,35.9-59.8,59.1
	C1371.5,331.1,1355,367.2,1355.5,415.9z M2047.7,222.3c2.7,11.4,7.2,23.8,8.2,36.6c1,13.9-4.8,28.2-18.8,32.2
	c-51.2,14.5-84.3,56.3-127.6,82.9c-46.9,28.8-87.1,68.1-133.1,98.7c-38.5,25.6-80.5,46.2-121.9,67c-67.5,34-137.1,61-212.8,73.2
	c-53.9,8.6-95.7-2.5-127.9-47c-5.1-7-11.4-13.2-19.1-22.1c-47.9,27.4-94.8,55.8-143.2,81.5c-63,33.3-129.2,57.3-201.4,61.9
	c-29.2,1.9-52.3-7.6-70-30.3c-15-19.2-30.3-38.2-42.8-59c-6.5-10.7-9.6-24.9-10-37.6c-4-125.8,44.2-232.1,123.1-326.9
	c16.2-19.5,35.7-33,60.4-38.7c16.3-3.7,30.6-0.1,43.1,11.3c16.5,15,14.8,39.5-4,50.7c-22.6,13.5-48.3,23.4-67.4,40.7
	c-50.8,46.1-80.9,104.6-87.9,173.4c-2.9,28.2-11.9,55.8-4.5,85.5c7.9,31.7,25.1,53.1,56.6,57.3c25.9,3.4,53.5,4.1,78.8-1.2
	c81.4-17.1,152.6-58.7,222.7-101.3c22.9-14,38.4-34.4,42.3-64.2c9.5-73.3,38.3-140.8,68.5-207.7c13.9-30.9,34.6-56.8,60.2-78.4
	c32.7-27.7,68.2-20.9,88.2,17c6,11.4,9.5,25,10.7,37.9c5.8,59.7-6.6,114-48.5,159.6c-33,35.8-65,72.4-97.3,108.9
	c-14.1,15.9-10.5,43.8,9.2,50.2c35.4,11.4,71,25,109.9,13.5c104.5-31,204.6-70.9,291.5-139.2c31.3-24.6,64.4-46.9,97.4-69.4
	c35.3-24.1,65-52.9,86.3-90.3C1984.3,217.3,2010.3,206.8,2047.7,222.3z"/>
<path class="st1" d="M89.8,252.7c19.2,22.6,9.3,45.4,11.8,65.8c2.4,19.8,5.4,39.6,7.4,59.5c2.2,21.6,3.5,43.4,5.1,63
	c18.7,8,25.3-1.9,29.6-11.8c11.4-26.3,19.7-54.1,32.5-79.7c62.4-124.7,169.3-181.9,303.3-195.3c31.8-3.2,61.6,5.4,84.7,30.5
	c5.9,6.4,14.1,10.7,21,16.3c43.5,35.6,61.9,75.5,39.8,133.9c-13.7,36.2-11.5,78.3-16.6,119.1c11.2,10.5,26.1,18.8,31.6,31.2
	c5.8,13.3,5.1,30.8,3,45.9c-4.8,35.1-11.4,70-19,104.6c-2.8,12.7-9.5,24.9-16.4,36.2c-7,11.4-30.2,19.4-41.6,12.3
	c-10.2-6.4-17.2-18.3-24.6-28.6c-2.1-3-1.1-8.7-0.7-13c6.2-66.2,6.7-132.6,8.2-199c1.1-50.9,10-101.6-5.9-151.9
	c-3.2-10.2-0.6-22-1.2-33.1c-1.8-33.1-15.6-48.5-48.8-49.6c-33.2-1.1-66,1.1-98,13.7C300.5,260,237.6,328,201.2,421
	c-16.2,41.2-27.7,84.3-40.8,126.7c-19.9,64.5-24,130.4-18.7,197.5c1.3,16.9-2,35.3-7.9,51.2c-2.7,7.1-17.1,13.1-26.5,13.6
	c-13.5,0.7-25.8-6-29.9-21.3c-0.6-2.1-1.2-4.4-1.2-6.5c1.3-48.5,2.7-96.9,4.3-145.4c0.3-11.1,2-22.1,2-33.1
	c-0.7-113-1.6-226-2.3-339C80.1,263.1,82.7,261.3,89.8,252.7"/>
<path class="st3" d="M89.8,252.7c19.2,22.6,9.3,45.4,11.8,65.8c2.4,19.8,5.4,39.6,7.4,59.5c2.2,21.6,3.5,43.4,5.1,63
	c18.7,8,25.3-1.9,29.6-11.8c11.4-26.3,19.7-54.1,32.5-79.7c62.4-124.7,169.3-181.9,303.3-195.3c31.8-3.2,61.6,5.4,84.7,30.5
	c5.9,6.4,14.1,10.7,21,16.3c43.5,35.6,61.9,75.5,39.8,133.9c-13.7,36.2-11.5,78.3-16.6,119.1c11.2,10.5,26.1,18.8,31.6,31.2
	c5.8,13.3,5.1,30.8,3,45.9c-4.8,35.1-11.4,70-19,104.6c-2.8,12.7-9.5,24.9-16.4,36.2c-7,11.4-30.2,19.4-41.6,12.3
	c-10.2-6.4-17.2-18.3-24.6-28.6c-2.1-3-1.1-8.7-0.7-13c6.2-66.2,6.7-132.6,8.2-199c1.1-50.9,10-101.6-5.9-151.9
	c-3.2-10.2-0.6-22-1.2-33.1c-1.8-33.1-15.6-48.5-48.8-49.6c-33.2-1.1-66,1.1-98,13.7C300.5,260,237.6,328,201.2,421
	c-16.2,41.2-27.7,84.3-40.8,126.7c-19.9,64.5-24,130.4-18.7,197.5c1.3,16.9-2,35.3-7.9,51.2c-2.7,7.1-17.1,13.1-26.5,13.6
	c-13.5,0.7-25.8-6-29.9-21.3c-0.6-2.1-1.2-4.4-1.2-6.5c1.3-48.5,2.7-96.9,4.3-145.4c0.3-11.1,2-22.1,2-33.1
	c-0.7-113-1.6-226-2.3-339C80.1,263.1,82.7,261.3,89.8,252.7z"/>
<path class="st1" d="M3137.2,223.7c-2.4,3.3-4.8,10.7-9.3,12.3c-16.9,5.9-32-0.4-44.8-11.5c-10.5-9.2-13.8-26.2-5.9-39.3
	c3.3-5.6,13.5-11.3,19.3-10.3C3120.5,179,3136.3,198.7,3137.2,223.7"/>
<path class="st2" d="M3137.2,223.7c-2.4,3.3-4.8,10.7-9.3,12.3c-16.9,5.9-32-0.4-44.8-11.5c-10.5-9.2-13.8-26.2-5.9-39.3
	c3.3-5.6,13.5-11.3,19.3-10.3C3120.5,179,3136.3,198.7,3137.2,223.7z"/>
<path class="st0" d="M4781.9,1921.8c3.4,25.4-8.5,56.2-39.5,78.7c-15.6,11.3-32.2,15.5-51.8,10.5c-60.7-15.8-114.5-43.4-157.3-89.9
	c-85.4-92.9-138.3-200.6-151.2-327.4c-7.4-72.1,13.5-137.5,41.4-201.6c12-27.6,39.1-41.5,62.5-57c20.1-13.3,43.5-22.6,66.6-30.2
	c25.4-8.5,37.2-1.8,47.5,23.9c29.5,73.9,59.1,147.8,87.3,222.3c20.9,55.3,41.1,111,58.8,167.4
	C4765.6,1780.5,4785.7,1842.9,4781.9,1921.8"/>
<path class="st2" d="M4781.9,1921.8c3.4,25.4-8.5,56.2-39.5,78.7c-15.6,11.3-32.2,15.5-51.8,10.5c-60.7-15.8-114.5-43.4-157.3-89.9
	c-85.4-92.9-138.3-200.6-151.2-327.4c-7.4-72.1,13.5-137.5,41.4-201.6c12-27.6,39.1-41.5,62.5-57c20.1-13.3,43.5-22.6,66.6-30.2
	c25.4-8.5,37.2-1.8,47.5,23.9c29.5,73.9,59.1,147.8,87.3,222.3c20.9,55.3,41.1,111,58.8,167.4
	C4765.6,1780.5,4785.7,1842.9,4781.9,1921.8z"/>
<path class="st0" d="M2741.8,943.4c-22.7-37.8-33.3-81.7-36.2-125.3c-4.4-66.8-5.7-134.4-0.4-201.1c3.9-48,14.7-96.4,37.8-140.6
	c10.8-20.7,23.7-37.9,51-44.3c32,17.9,40.9,50.3,45.5,85.1c9.3,71,2.4,141.3-6.4,212c-8.6,69.9-30.7,134.4-66.1,194.7
	c-4,6.8-10.3,12.3-15.8,18.1C2750.2,943.3,2747.4,942.8,2741.8,943.4"/>
<path class="st2" d="M2741.8,943.4c-22.7-37.8-33.3-81.7-36.2-125.3c-4.4-66.8-5.7-134.4-0.4-201.1c3.9-48,14.7-96.4,37.8-140.6
	c10.8-20.7,23.7-37.9,51-44.3c32,17.9,40.9,50.3,45.5,85.1c9.3,71,2.4,141.3-6.4,212c-8.6,69.9-30.7,134.4-66.1,194.7
	c-4,6.8-10.3,12.3-15.8,18.1C2750.2,943.3,2747.4,942.8,2741.8,943.4z"/>
<path class="st0" d="M1177.8,1275.9c-10.4-67.3,10.7-121.5,53.3-169.6c40.8-46.1,89.3-82,142.7-111.5c19.9-11,34.5-0.9,37.7,22.2
	c4.1,29.7-6.2,56.8-17.8,82c-35.2,76-93.1,131.8-165.6,172.5C1213.9,1279.4,1198.4,1285.2,1177.8,1275.9"/>
<path class="st2" d="M1177.8,1275.9c-10.4-67.3,10.7-121.5,53.3-169.6c40.8-46.1,89.3-82,142.7-111.5c19.9-11,34.5-0.9,37.7,22.2
	c4.1,29.7-6.2,56.8-17.8,82c-35.2,76-93.1,131.8-165.6,172.5C1213.9,1279.4,1198.4,1285.2,1177.8,1275.9z"/>
<path class="st0" d="M2499.1,1126.7c-7.4-37.9,13.8-59,40.1-76.5c16.8-11.2,35.2-20,52.5-30.6c30.9-18.9,61.6-38.4,92.2-57.6
	c28.7,28.8,30,33.9,9.5,59.3c-16.6,20.6-35.1,39.7-52.1,60c-31.2,37.4-73.8,48.5-119.4,52.5
	C2514.7,1134.4,2506.9,1129.3,2499.1,1126.7"/>
<path class="st2" d="M2499.1,1126.7c-7.4-37.9,13.8-59,40.1-76.5c16.8-11.2,35.2-20,52.5-30.6c30.9-18.9,61.6-38.4,92.2-57.6
	c28.7,28.8,30,33.9,9.5,59.3c-16.6,20.6-35.1,39.7-52.1,60c-31.2,37.4-73.8,48.5-119.4,52.5
	C2514.7,1134.4,2506.9,1129.3,2499.1,1126.7z"/>
<path class="st0" d="M1929.2,1195.3c10.3-86.3,63.5-168,131.6-209.2c12,13,14.2,29.3,7,43.6c-25.9,50.8-54.1,100.5-96.3,140
	C1961.7,1178.9,1948.2,1184,1929.2,1195.3"/>
<path class="st2" d="M1929.2,1195.3c10.3-86.3,63.5-168,131.6-209.2c12,13,14.2,29.3,7,43.6c-25.9,50.8-54.1,100.5-96.3,140
	C1961.7,1178.9,1948.2,1184,1929.2,1195.3z"/>
<path class="st0" d="M4238,862.1c-33.5,62.9-70.9,121.1-138.6,148.8c-6.8,2.8-16.9,4.3-22.8,1.2c-10.2-5.2-9.7-16.5-6.7-26.8
	c4-14,10.2-25.7,23.7-33.9C4142.1,922.2,4189.9,891.9,4238,862.1"/>
<path class="st2" d="M4238,862.1c-33.5,62.9-70.9,121.1-138.6,148.8c-6.8,2.8-16.9,4.3-22.8,1.2c-10.2-5.2-9.7-16.5-6.7-26.8
	c4-14,10.2-25.7,23.7-33.9C4142.1,922.2,4189.9,891.9,4238,862.1z"/>
<path class="st0" d="M2160.8,637.9c10.4,84.6-7.8,194.4-40.7,256.4c-3.4-6.2-7.7-10.5-7.7-14.8
	C2112.9,807.6,2134.7,693.9,2160.8,637.9"/>
<path class="st2" d="M2160.8,637.9c10.4,84.6-7.8,194.4-40.7,256.4c-3.4-6.2-7.7-10.5-7.7-14.8
	C2112.9,807.6,2134.7,693.9,2160.8,637.9z"/>
<path class="st0" d="M4196.5,828c-12.3,10.8-24.6,21.5-45.2,39.6C4158.9,837.6,4175,830.6,4196.5,828"/>
<path class="st2" d="M4196.5,828c-12.3,10.8-24.6,21.5-45.2,39.6C4158.9,837.6,4175,830.6,4196.5,828z"/>
<path class="st0" d="M1355.5,415.9c-0.4-48.7,16-84.8,36.1-118.3c13.9-23.3,27.6-49.9,59.8-59.1c3.9,6.7,9.9,12.2,9.4,17
	C1453.8,317.3,1418.7,372.5,1355.5,415.9"/>
<path class="st3" d="M1355.5,415.9c-0.4-48.7,16-84.8,36.1-118.3c13.9-23.3,27.6-49.9,59.8-59.1c3.9,6.7,9.9,12.2,9.4,17
	C1453.8,317.3,1418.7,372.5,1355.5,415.9z"/>
</svg>
