<svg xmlns="http://www.w3.org/2000/svg" viewBox="0 0 800 817.2"><rect fill="#a97eb7" width="800" height="817.2"/><path fill="#bbbdbf" d="M640.68,244.94A18.58,18.58,0,0,0,620,238.72c-38.12,12-73.1,31.38-104.84,55.52-32.3,24.56-63.38,50.72-95.26,75.84C388.2,395,356,419.24,322.48,441.7c-11.19,7.5-22.35,15.18-32.49,24.05a7.63,7.63,0,0,0-4.49-1.43c-5.25-.1-10.35-.83-15.37.5a13,13,0,0,0-1.53,0,51.16,51.16,0,0,0-11.46-6.75,62.29,62.29,0,0,0-35.22-3.92c-22.46,4.08-46.76,17-58.82,37s-8.22,43.34,1.84,63.38c11.06,22.06,25.58,42.16,47.18,54.86,18.34,10.78,41.9,13.8,62,6.3,20.84-7.84,34.74-26.74,38.38-48.38a78.77,78.77,0,0,0,.8-18.94c1.24-7.32.76-14.9-.2-23-.3-2.6-.44-5.2-.68-7.82,0-.14,0-.24,0-.36s0-.12,0-.2l.36-2.32a28.7,28.7,0,0,0,1.06-2.82c.1-.22.16-.42.22-.58s.36-.34.62-.62c1-1.12,2-2.38,3-3.52l0,0c.56-.5,1.14-1,1.74-1.46,11.72-9.66,25.2-17.48,37.76-26q20.85-14.19,41.58-28.64,80.4-55.95,160-113.1c29.36-21,58.18-43.44,81.36-71.36C645,260.76,645.46,250.94,640.68,244.94Z"/><path fill="#ec1c24" d="M578.4,270.62q-131,90.54-257.32,187.56c-17.84,13.7-36.64,29.42-60.24,29A9.54,9.54,0,0,0,254.9,489a31,31,0,0,0-4.1-.18c-7.66.16-16.12,2.78-23.26,5.42-7.72,2.84-15.26,7.48-20.1,14.26a28.85,28.85,0,0,0-7.52,9.4c-4.16,8.2-3.56,17.66-1.3,26.3,3.78,14.4,14.08,28.14,27.9,34.2A37.33,37.33,0,0,0,252.16,580c9-.24,17.54-3.1,24.1-9.86s9.16-17.74,9.94-27a76.46,76.46,0,0,0,.13-11.22,249.12,249.12,0,0,1,13.46-25l.25-.3a12.67,12.67,0,0,0,2.16-3.55l.08-.11,0,0,6.64-6.05c5.39-3.3,10.57-6.91,15.54-10.59,21.08-15.62,41.7-31.86,62.66-47.64Q452,390,518.06,342.86q37.17-26.49,74.72-52.44C605.74,281.46,591.36,261.66,578.4,270.62Z"/><path fill="#231f20" d="M166.58,496c9.64-7,17.32-16.4,27.2-23.1,8.68-5.88,19.26-9,29.5-10.66a87.06,87.06,0,0,1,30.12-.08c8.36,1.58,15.92,5.88,24.5,6.52,16.74,1.24,30.2-10.8,42.8-20q29.76-21.78,59-44.16c39.76-30.44,80.1-60.08,120.56-89.54,19.66-14.32,39-29.26,59.1-43a182.48,182.48,0,0,1,53.2-24.68c8.8-2.46,17.82-3.16,25.38,3s3.7,14-1.5,20.14c-6.68,7.92-14.94,14.76-22.72,21.58a338.91,338.91,0,0,1-27.94,22.18c-19.8,14-41.2,25.6-61.92,38.16s-40.14,27.1-60.68,40a731.61,731.61,0,0,0-60.76,42.38c-18.92,14.7-38.44,28.64-57.34,43.36-14.44,11.26-31.24,24.36-35.24,43.22-3.62,17.06,2.06,33.62,2.16,50.64.06,9.64-3.86,17.84-11,24.26-8.18,7.36-17.94,14.94-28.06,19.36-7.78,3.4-15.62,3.34-23.78,1.48a177.72,177.72,0,0,1-27.64-8.62c-18-7.36-31.92-19.64-43-35.5a81.72,81.72,0,0,1-13.66-59.7,80.76,80.76,0,0,1,10.1-29c.66-1.12-1.2-1.94-1.86-.82-10.18,17.18-13.46,38.66-10,58.24,3.4,19.22,14.3,36.28,28.18,49.76,13.56,13.18,30.48,20,48.38,25.22,7.4,2.14,15.06,4.44,22.86,3.78,8.82-.74,16.54-5.36,23.68-10.24,8-5.5,17.28-11.64,22.72-19.94,4.14-6.34,5.4-13.74,4.94-21.2-1.16-18.58-7.34-38.18.76-56.1,4.72-10.46,14.32-18.74,22.86-26,9.5-8.1,19.68-15.3,29.74-22.64,20.9-15.28,40.8-31.88,61.76-47.06,21.18-15.32,44.14-27.92,65.42-43.14,20.84-14.9,43.24-27.3,65.14-40.52a393.6,393.6,0,0,0,61.06-44.9c6.82-6.16,14.5-12.36,19.8-20,2.9-4.16,5.26-9.42,3.12-14.44-2.56-6-10.36-10-16.56-10.68-7.28-.76-14.78,1.6-21.56,4A259.81,259.81,0,0,0,579.28,258c-10.2,4.9-19.62,11.24-28.78,17.88q-64,46.38-127.46,93.46C402,385,381.18,401.1,360.22,416.92q-15.48,11.7-31.12,23.16c-9.4,6.92-18.64,14.5-28.68,20.5-7.54,4.5-15.76,7.22-24.6,6-9.42-1.32-17.82-6-27.4-7.06-18.42-2.06-40.3,1.34-55.86,11.88-9.88,6.7-17.56,16.08-27.2,23.1-1,.66.16,2.32,1.22,1.54m104.56-10.46c-7.74,3.48-16.3,3.64-24.36,6A86.72,86.72,0,0,0,224,502.24c-11.08,7.38-16.38,20.66-16.8,33.64-.44,13.26,4.3,27.94,14.22,37.14s24.7,9.34,37.2,6.6,23.06-9.32,25.88-22.5c1.52-7.12,1.36-14.52,3.08-21.6,2.14-8.82,7.38-17.24,12.62-24.52,21.9-30.46,55-52.24,84.24-75,30.88-24.1,62.64-47,93.38-71.28,15.38-12.14,30.8-24.28,46.86-35.52,15.74-11,32.08-20.06,49-29.06,7.5-4,20.68-13.54,13.66-23.6s-21.1-.22-27.82,4.76c-7.16,5.3-13.6,11.5-20.28,17.38-7.08,6.2-14.62,11.88-22.24,17.38-15.7,11.36-32.12,21.62-48.52,31.92-33.7,21.16-65.76,44.76-97.76,68.34-15.54,11.46-31.48,22.48-46.36,34.8-7.48,6.2-14.86,12.58-22.66,18.36-7.44,5.52-15.4,11.18-24.42,13.7-8,2.24-16.32,2.86-23.9,6.62-1.16.58-.46,2.5.72,1.9,7.06-3.5,14.76-4.3,22.3-6.2s13.9-5.68,20.22-9.92c14.76-9.92,27.54-22.42,41.78-33,29-21.52,58-43,87.54-63.76s61.2-38.84,90.66-60c13.84-9.92,26.1-21.28,39.22-32.06,5.78-4.76,13.38-11.32,21-12.34,7-.94,12.14,5,9.5,11.72-3,7.78-12.76,11.86-19.7,15.22-7.3,3.54-14.36,7.54-21.28,11.78a517.74,517.74,0,0,0-43.18,30c-14.3,10.88-28.28,22.16-42.44,33.2s-28.8,21.54-43.16,32.36c-28.34,21.36-57.14,42.72-84.08,65.86C320.38,485,308.56,496.1,299.12,509a95.88,95.88,0,0,0-11.64,20.4c-2.36,5.78-3,11.84-3.66,18-.76,7.12-1.5,14.86-6.46,20.46-5.08,5.76-13.1,8.6-20.46,10-15.12,3-30.72.72-39.64-13.06-8.44-13-10.62-30-4.9-44.56,6.08-15.46,22.84-24,38.32-27.56,7.14-1.64,14.46-2.22,21.2-5.24,1.18-.6.46-2.5-.74-2m38.6,11.54a26,26,0,0,0,5.6,6.14,1,1,0,0,0,1.28-1.6,24.17,24.17,0,0,1-5.22-5.74c-.74-1.1-2.38.1-1.66,1.2m10.62-11a16.08,16.08,0,0,0,5.08,5.42c1.08.72,2.38-.86,1.28-1.6a14.67,14.67,0,0,1-4.7-5c-.66-1.12-2.3.08-1.66,1.2m14.56-11.66a12.18,12.18,0,0,0,4.26,4.12c1.12.66,1.94-1.2.82-1.86a10.29,10.29,0,0,1-3.44-3.44c-.68-1.14-2.32.06-1.64,1.18m11.34-11.54a30.81,30.81,0,0,0,5.6,6.14c1,.84,2.28-.76,1.28-1.6a27.91,27.91,0,0,1-5.22-5.74c-.74-1.08-2.4.12-1.66,1.2m12.92-9.38a19,19,0,0,0,5.08,5.42c1.06.76,2.34-.82,1.28-1.6a17.3,17.3,0,0,1-4.7-5c-.7-1.12-2.34.1-1.66,1.2M373.86,445a14.51,14.51,0,0,0,5.5,4.32,1,1,0,0,0,.82-1.86,11.88,11.88,0,0,1-4.66-3.64c-.82-1.06-2.48.14-1.66,1.18m8.68-7.74a9.26,9.26,0,0,0,6.4,5.34c1.28.32,1.58-1.7.32-2a7,7,0,0,1-4.82-4c-.56-1.18-2.46-.48-1.9.72m11.28-10.06c1.22,1.68,2.44,3.34,3.64,5a1,1,0,0,0,1.66-1.2c-1.22-1.68-2.44-3.34-3.64-5a1,1,0,0,0-1.66,1.2m11.8-6.38a12.18,12.18,0,0,0,4.26,4.12c1.12.66,1.94-1.2.82-1.86a10.29,10.29,0,0,1-3.44-3.44c-.68-1.14-2.32.06-1.64,1.18m13.12-10.62c1.22,1.68,2.44,3.34,3.64,5a1,1,0,0,0,1.66-1.2c-1.22-1.68-2.44-3.34-3.64-5a1,1,0,0,0-1.66,1.2m14.88-9.72a18.52,18.52,0,0,0,4.56,4.7c1.06.76,2.34-.82,1.28-1.6a16.75,16.75,0,0,1-4.18-4.3c-.74-1.08-2.4.12-1.66,1.2m10-7.3a14.53,14.53,0,0,0,5.08,5.42c1.1.68,2.38-.9,1.28-1.6a13.33,13.33,0,0,1-4.7-5c-.64-1.14-2.28.06-1.66,1.2m10.44-9.78c1.22,1.68,2.44,3.34,3.64,5a1,1,0,0,0,1.66-1.2c-1.22-1.68-2.44-3.34-3.64-5a1,1,0,0,0-1.66,1.2m9.52-8c1.38,1.92,2.78,3.82,4.18,5.74a1,1,0,0,0,1.66-1.2c-1.38-1.92-2.78-3.82-4.18-5.74a1,1,0,0,0-1.66,1.2m9.32-6.78a19,19,0,0,0,5.08,5.42c1.06.76,2.34-.82,1.28-1.6a17.3,17.3,0,0,1-4.7-5c-.7-1.12-2.34.08-1.66,1.2m8.62-6.26a26,26,0,0,0,5.6,6.14,1,1,0,0,0,1.28-1.6,24.17,24.17,0,0,1-5.22-5.74c-.74-1.1-2.38.1-1.66,1.2m12.58-11.34a17.32,17.32,0,0,0,7.06,6.46c1.18.6,2-1.28.82-1.86a15.3,15.3,0,0,1-6.24-5.8c-.68-1.12-2.32.08-1.64,1.2m11.68-9.58a20,20,0,0,0,5.6,6.14c1.06.76,2.34-.82,1.28-1.6a18.16,18.16,0,0,1-5.22-5.74c-.66-1.14-2.32.08-1.66,1.2m11.3-7.1a26,26,0,0,0,5.6,6.14,1,1,0,0,0,1.28-1.6,24.17,24.17,0,0,1-5.22-5.74c-.74-1.1-2.38.1-1.66,1.2m12.18-8.86,5.22,7.18a1,1,0,0,0,1.66-1.2L531,324.32a1,1,0,0,0-1.66,1.2"/><path d="M159.74,142.44l-15.36,3a9.64,9.64,0,0,1,0,1.54c-.06.34-.18.84-.4.92-1.08.44-.86,1.26-.58,2s.46,1.18-.4,1.62l1.3,1c-.42,1.18-.86,2.44-1.34,3.78l.86.12c0,1.54,0,3,0,4.44a23.9,23.9,0,0,1-.5,4.12,20.07,20.07,0,0,0-.2,2.18c1.46,1.14.1,2.28,0,3.4,0,.42-.1.84-.16,1.24l.42.08c.12-.46.24-.9.34-1.36a.55.55,0,0,0,.18,0v2.68c0,.94,0,1.9,0,2.84,0,.26-.26.52-.4.78s-.48.64-.44.92c.18,1.78-.82,3-2,4.06a2.54,2.54,0,0,1-.94.52c-.6.22-1.22.4-2.1.66l-.66-.4a6.66,6.66,0,0,1-3.56.76c-1-.1-2.16.6-3.2,1-.48.18-.86.56-1.46.24-.2-.1-.56.16-.86.18a1.8,1.8,0,0,1-1-.12,1.31,1.31,0,0,0-1.44-.2,1.15,1.15,0,0,1-1.46-.64,6.61,6.61,0,0,1-1.3-3.32c0-.62-.26-1.22-.3-1.86-.14-2.24-.34-4.48-.36-6.72,0-4.28,0-8.58.12-12.86.06-3.08.06-6.18.28-9.26.26-3.82.68-7.62,1.08-11.44a36,36,0,0,1,.72-5.28c.54-2.18,1.38-4.26,2-6.42a10.1,10.1,0,0,1,1.8-3.8,8.21,8.21,0,0,0,1.72-3.34,31.75,31.75,0,0,1,3.7-8.48,18.3,18.3,0,0,1,8-7.48,15.83,15.83,0,0,1,4.38-1.1,24.77,24.77,0,0,1,8.92.14,6.59,6.59,0,0,0,1.26,0,11.46,11.46,0,0,1,6.36,2,23.39,23.39,0,0,1,8.78,10.46,70.48,70.48,0,0,1,2.68,8.22,24.3,24.3,0,0,1,.82,2.5,39.62,39.62,0,0,1,.56,4.06c.16,1.78.52,2.08,2.3,1.7.4-.08.8-.2,1.24-.3,0-.82,0-1.58,0-2.34-.06-2.56,0-5.12-.22-7.66s-1.46-4.9-2.68-7.18a6.27,6.27,0,0,1-.44-4.12c.12-.64.88-1.28,1.5-1.72a10.86,10.86,0,0,1,4.2-1.68,41.3,41.3,0,0,1,11.1-.84c3.52.18,7.06,0,10.52.76s6.76,1.52,10.12,2.34a3.87,3.87,0,0,0,2.6-.08,5.53,5.53,0,0,1,1.54-.28c3-.3,6-.36,8.9-.94a34,34,0,0,1,4.9-.52c1.62-.08,3.24-.24,4.86-.36,2.2-.16,4.38-.38,6.58-.48,3-.14,6.08-.2,9.12-.28,1.46,0,2.94,0,4.4-.1a10.1,10.1,0,0,0,1.66-.42,13,13,0,0,1,2.4-.56c1.46-.06,2.92.08,4.4.08s3.24-.12,4.84-.06c1.2,0,2.38.32,3.58.44,2.4.24,4.8.44,7.2.62,2.62.2,5.24.36,7.86.56,1.82.12,3.66.28,5.48.38a4,4,0,0,0,1.7-.16,10.2,10.2,0,0,1,5.42-.26c1.86.24,3.7.74,5.54,1.1a3.68,3.68,0,0,1,2.42,1.34,3.66,3.66,0,0,0,2,1.5,2.12,2.12,0,0,1,.4.24c1.34.64,2.74,1.2,2.78,3.2a2.55,2.55,0,0,0-.46,1,2.67,2.67,0,0,0,.4,1.32,75.41,75.41,0,0,0,5.94,9.82c.88,1.18,1.78,2.34,2.66,3.52.18.24.34.52.58.9a7.11,7.11,0,0,0,.84-1.06c1.44-3.48,2.82-7,4.26-10.48,1-2.32,2-4.64,3.08-6.9,1.88-3.86,3.8-7.72,5.82-11.52,1.88-3.52,3.82-7,6-10.36.78-1.22,2.22-2,3.42-3a.78.78,0,0,1,1.22.24,4.32,4.32,0,0,0,2.32,1.74c.64.22,1.38.44,1.62,1.34.06.22.86.22,1.44.36-.32,1,.92,1.24,1.32,2.16.44-.34.8-.6,1.2-.9.08.22.08.44.2.58s.66.44.66.66A3,3,0,0,1,356,94.6c-.6,1-1.36,2-1.92,3.06s-1,2.18-1.48,3.26c-2.24,4.8-4.52,9.6-6.72,14.42-.62,1.38-1,2.88-1.48,4.3-.82,2.16-1.72,4.28-2.54,6.42q-1.83,4.86-3.56,9.76c-.42,1.18-.76,2.38-1.16,3.64l5,2.9c.16.54.38,1.24.58,1.92a3,3,0,0,1-2.1,3.24c-1.06.26-2.16.24-3,1.2-.2.24-.9.1-1.36.1s-1.22-.28-1.48,0a4.42,4.42,0,0,0-1.08,1.82,23.56,23.56,0,0,0-.58,2.92,22,22,0,0,1-1.68,5.36,16.76,16.76,0,0,0-.66,3c-.9,3.62-1.86,7.22-2.78,10.82q-.75,3-1.44,5.94a11.92,11.92,0,0,1-1.84,3.58,1.62,1.62,0,0,1-.9.56,9,9,0,0,1-3.72.06,19.06,19.06,0,0,1-3.8-.74c-.28-.12-.72.1-1.08.12a12.59,12.59,0,0,1-1.5.1,2.62,2.62,0,0,1-2.14-.76,6,6,0,0,1-1.52-3.22,22.28,22.28,0,0,1,.54-8.12c.82-2.86,1.38-5.8,2.18-8.66,1.14-4,2.38-8,3.6-12,.56-1.86,1.16-3.7,1.76-5.6-.26-.26-.46-.62-.76-.78a19.16,19.16,0,0,1-4.32-3.6,12,12,0,0,0-1.1-.9,31.85,31.85,0,0,1-6-5.92,2.1,2.1,0,0,0-2.58-.82c-4.08,1.28-8.32,1.7-12.54,2.32-2.76.4-5.5.84-8.26,1.2a1.05,1.05,0,0,0-1.08,1.24c0,1,0,2.1.12,3.14.46,4.18,1,8.34,1.46,12.52a1.38,1.38,0,0,0,.54.88c.46-1.56,1-3.12,1.38-4.7.42-1.76.36-1.74,2.18-2.14.64-.14,1.26-.4,2-.64.88.78,2.38.88,3.26,2,.12.16.48.12.72.18a19.41,19.41,0,0,1,2.9.84c.36.16.58.84.74,1.32a26.3,26.3,0,0,1,1.3,7.66,14.65,14.65,0,0,1-.72,3.66c-.32,1.22-.7,2.42-1.12,3.6a2.46,2.46,0,0,1-.76,1.16,11,11,0,0,1-6,2.52,29.52,29.52,0,0,1-5.64,0,2.32,2.32,0,0,0-1.22.2,7.1,7.1,0,0,1-5.68-.12c-1.32-.5-2.62-1.06-3.92-1.6-2-.84-3.2-2.54-4.38-4.16a21.29,21.29,0,0,1-3.24-8,68.61,68.61,0,0,1-1.66-12.6c-.08-2.26-.2-4.52-.32-6.76-.06-1.1,0-1.64-1.58-2.16s-2.28-2-2.7-3.44c-.26-.92.78-2.08,1.78-2.22l2.38-.24c.14-1,.34-2,.38-2.92.1-2.72.12-5.46.18-8.18a23.24,23.24,0,0,0-.06-2.36c-.1-1.1-.26-1.26-1.38-1.18l-15.7,1.16c-1.1.08-2.2.16-3.3.28-.84.08-1.16.54-1.08,1.4.26,3,.12,6,.78,8.94,1,4.18.92,8.42,1.42,12.62.16,1.34.4,2.68.54,4,.1.92,0,1.88.1,2.8.34,2.82.72,5.62,1.12,8.44a8.11,8.11,0,0,0,.38,1.18,3.9,3.9,0,0,1,.32.88c.16,4,1.32,7.74,2,11.6.18,1,.3,1.94.42,2.76-.62.56-1.12,1-1.64,1.48-.2.16-.46.42-.64.38-1.44-.28-2.76.6-4.18.42-1.12-.16-2.16.76-3.36.36-.18-.06-.54.52-.9.86-.26-.18-.56-.42-1-.7l-.62.82c-1.18-.08-2.46.14-3.44-.32a4.69,4.69,0,0,1-2.62-3.2c-1-4.46-2-8.92-2.8-13.4-.88-5-1.64-10-2.24-15.06-.36-3.12-.36-6.28-.5-9.42-.1-2.46-.14-4.92-.2-7.4,0-.58,0-1.16,0-1.72,0-1-.18-1.28-1.24-1.44-1.72-.24-3.46-.32-5.16-.68-2.78-.58-5.52-1.32-8.26-2-5-1.26-10.06-2.52-15.1-3.76a13.39,13.39,0,0,0-1.8-.2l-.12.3a4.53,4.53,0,0,0,.84.8,2.46,2.46,0,0,1,1.28,2c.16,1.2.26,2.4.4,3.6a11.74,11.74,0,0,0,.94,3.44,13.83,13.83,0,0,1,.62,4c.14,1.36.16,2.72.36,4.08.22,1.62.46,1.76,2.06,1.5,1.4-.22,2.8-.42,4.2-.62,2.34-.34,4.66-.76,7-1,2.08-.22,4.18-.3,6.26-.4a22,22,0,0,1,3.44,0,4.77,4.77,0,0,1,3.52,1.68,5,5,0,0,1-2.24,1.32c-2.94.94-5.88,1.9-8.8,2.88-1.78.6-3.52,1.36-5.32,1.8-2.24.56-4.52.88-6.78,1.3l-2,.36a10.79,10.79,0,0,0,0,1.14c.44,4.32.92,8.64,1.34,13,.12,1.3.12,2.62.2,3.94s0,2.64,1.08,3.66a1.07,1.07,0,0,1,.22.72c.06,2.72.12,5.46.14,8.18a2,2,0,0,1-1.42,2c-.2.08-.5,0-.6.18-1.2,1.7-3,1.24-4.64,1.3a12.07,12.07,0,0,0-1.4.24,6.49,6.49,0,0,1-1.82.28,2.49,2.49,0,0,0-2.26.78c-.58.56-1.16,1.12-2,.46a.81.81,0,0,0-.6.06c-1.1.5-2.14,0-3.18-.26a1.43,1.43,0,0,1-.9-.8,14.43,14.43,0,0,1-.9-3.14c-.3-2.14-.46-4.28-.64-6.42-.32-3.92-.58-7.84-.9-11.76-.28-3.46-.5-6.92-.9-10.34-.26-2.22-.64-2.36-3.1-1.86-.08,1.4.12,2.86.1,4.32,0,3.2-.08,6.4-.2,9.58s-.26,6.08-.5,9.12c-.24,2.88-.54,5.74-1,8.6a4.62,4.62,0,0,1-2.52,3.4c-.1.06-.2.16-.28.14-1.66-.56-3,1-4.68.58a1,1,0,0,0-.76.16c-1,.7-2.2.5-3.28.82-.74.22-1.48.38-2.4.62l-1.44-.82a3.2,3.2,0,0,1-1.62-3.4c.12-1.24.06-2.5.12-3.74.08-1.78.18-3.56.34-5.34.54-6.38.84-12.76.8-19.18C159.9,146,159.8,144.4,159.74,142.44Zm-9.8-30.36a6.86,6.86,0,0,0-.88,1,25.2,25.2,0,0,0-3,7.54c-.44,2.42-.84,4.84-1.22,7.28-.42,2.86-.82,5.7-1.16,8.58-.16,1.24.18,1.54,1.4,1.3,4-.74,7.94-1.48,11.9-2.26a14.66,14.66,0,0,0,1.94-.64,11,11,0,0,0,.06-1.34c-.84-6.06-2.22-11.94-5.46-17.26A17.64,17.64,0,0,0,149.94,112.08Zm150.24,13.3c-.3-.64-.52-1.22-.8-1.76-1.22-2.18-2.7-4.24-3.24-6.78a2.59,2.59,0,0,0-2.94-2.38,8.84,8.84,0,0,1-1.26,0l-8.48-.28c-1.38-.06-1.64.14-1.74,1.56,0,.32,0,.64,0,.94,0,3,0,6,.06,9,0,.56.08,1.12.12,1.78C288,126.74,294,126.08,300.18,125.38ZM289.7,260.14c2,.4,3.84.64,5.28,2.08a5.46,5.46,0,0,0,2.64,1.22,2.07,2.07,0,0,1,1.7,1.8,23.22,23.22,0,0,1,.48,3.1,3,3,0,0,1-1,2.36c-1.38,1.52-3,1.46-4.82,1.26a13.53,13.53,0,0,0-5.72.4,7.09,7.09,0,0,1-1.86.28c-.82.06-1.66.06-2.48,0a2.82,2.82,0,0,1-.88-.28,17.53,17.53,0,0,1-9.4-9.48,41,41,0,0,1-3.9-15c-.16-3.88-.7-7.74-.76-11.62a107.22,107.22,0,0,1,1-17.9c.36-2.44.58-4.9.84-7.36a4.44,4.44,0,0,0-.18-1.08l-8.3-.64c-3.18-.26-6.38-.22-9.5-1a2.4,2.4,0,0,0-1.38.14c.84.22,1.7.44,2.54.68.5.14,1.12.26.9,1s-.68.56-1.16.36a2.72,2.72,0,0,0-2,.1,16.11,16.11,0,0,1-2.56.3c.64.54,1.1,1,1.62,1.4a2.63,2.63,0,0,1-2.52.6,6,6,0,0,0-5.72,2.28,2.54,2.54,0,0,0-.64,2.6,7.11,7.11,0,0,1,.12,1.86,13.84,13.84,0,0,0,2.32,6.28c1.66,2.6,3.46,5.12,5.2,7.68,2.36,3.46,4.8,6.88,7,10.44a96.34,96.34,0,0,1,4.78,8.68A17.62,17.62,0,0,1,263,258.3a7.68,7.68,0,0,1-3.08,7.32,12.24,12.24,0,0,1-6.76,2.94c-.56.06-1.14,0-1.7,0a20,20,0,0,1-3.26.16c-1.14-.14-2,.76-3.08.6s-2.18-.14-3.28-.2c-.62,0-1.26-.06-1.88-.12-1.72-.16-3-1.28-4.28-2.22a20.88,20.88,0,0,1-2.26-2,1.62,1.62,0,0,0-1.74-.4,30.46,30.46,0,0,1-5.8,1.18,12.81,12.81,0,0,0-2.22.66c-.2.06-.42.18-.6.12-1.34-.46-2.6.16-3.88.3s-2.28.28-3.42.4c-.74.08-1.44-.12-2.22.42-.54.38-1.56.06-2.36.08a3.87,3.87,0,0,0-1.54.12c-1.52.78-3.08.36-4.64.28-1.14-.06-2.28-.14-3.42-.28-1.6-.22-3.2-.5-4.78-.76-.4-.06-.82-.1-1.22-.2-1-.22-2-.46-3-.7l-4.92-1.16a5.44,5.44,0,0,0-.16,1.06c.16,3.52.34,7,.5,10.54q0,.78,0,1.56c0,.24-.12.68-.24.7-1.56.32-2.16,2.78-4.26,1.88a32,32,0,0,0-7.64,1.44,4.93,4.93,0,0,1-1.46,0l-.56.88a29.82,29.82,0,0,1-3.54,0,2.61,2.61,0,0,1-1.38-.92,5.93,5.93,0,0,1-1.5-3.24A106.08,106.08,0,0,1,166,265c-.06-2.46,0-4.92,0-7.38,0-2.12-.06-4.26,0-6.38.12-3,.36-6.06.52-9.1.14-2.56.2-5.12.38-7.68a45.29,45.29,0,0,1,1.54-9.12c.4-1.44.68-2.94,1-4.4a3.71,3.71,0,0,1,1.46-2.68c.28-.18.44-.58.68-.84s.48-.58.7-.58c1.66,0,3.26-1,4.94-.38a1.46,1.46,0,0,0,1.8-.54c.5-.6,1-1.24,1.5-1.82a25.83,25.83,0,0,1,12.66-7.82,32.39,32.39,0,0,1,9.48-1.12c.58,0,1.16-.08,1.72-.06,1.2.08,2.4.14,3.58.32,1.92.3,3.82.68,5.7,1.08a10.89,10.89,0,0,1,1.94.6c.92.4,1.64,1.16,2.86.78.52-.16,1.34.5,2,.88a13.41,13.41,0,0,1,5.2,4.88c.06.12.24.2.52.4,1.94-3.14,5-4.7,8.3-6.06s6.84-1,10.66-.8a6.32,6.32,0,0,0-.84-1.08,3.28,3.28,0,0,1-1.06-4.28,1.23,1.23,0,0,1,.54-.52,9.26,9.26,0,0,1,5.24-1.18c4.44.36,8.9.56,13.34.72s8.6.16,12.9.24c1.1,0,2.2.12,3.3.14l9.44.1c3,0,6,.12,9,.1,3.4,0,6.82-.12,10.22-.16s6.82,0,10.22,0a93.7,93.7,0,0,1,15.5,1.28,42,42,0,0,1,7.46,1.88,18.21,18.21,0,0,1,3.74,2.46c-.52.5-.9.86-1.32,1.24.38.56.76,1.14,1.24,1.82a6.31,6.31,0,0,1-4.1.64,53,53,0,0,0-5.62-.38c-2.82,0-5.64-.2-8.48-.26-3.4-.06-6.8-.14-10.22-.08-2.88.06-5.76.32-8.64.42s-5.86.2-8.8.24c-3.3,0-6.6-.06-9.9-.06-1.22,0-2.1.78-1.64,1.52a2.88,2.88,0,0,1,.22,2.28c-.12.82-.24,1.66-.32,2.48s-.08,1.68-.14,2.52a109.38,109.38,0,0,0-.46,14.48c.14,3.2.16,6.4.38,9.6.14,2.08.56,4.16.84,6.24.14,1,.16,2.1.38,3.12.32,1.48.74,2.94,1.14,4.38C289,258.14,289.38,259.12,289.7,260.14Zm-45.46,2.36a3.68,3.68,0,0,0,1.4-2.56,8.3,8.3,0,0,0-.84-5.18,49.25,49.25,0,0,0-4.68-8.16c-.7-1.08-1.66-2-2.42-3-1.18-1.66-2.24-3.42-3.42-5.08-1.66-2.34-3.42-4.62-5.12-7a10.9,10.9,0,0,1-.78-1.52c-.18-.38-.38-.74-.54-1.12-.36-.74-.72-1.48-1-2.24s-.6-1.56-1-2.68c-1.6,3.64-2.9,7-5,10a1.29,1.29,0,0,0-1.86.5,6.07,6.07,0,0,1-.6,1.42c-1.12,1.38-2.3,2.7-3.46,4.06-.54.64-1,1.3-1.52,2-.18.24-.44.72-.54.68-1.22-.32-1.8.72-2.54,1.24a87.16,87.16,0,0,1-11.08,6.62,4,4,0,0,0-1.52,1.08,3.57,3.57,0,0,1-3.26,1.4,3.28,3.28,0,0,0-2.64,1.46,17.41,17.41,0,0,1,2.12,1.1,44.37,44.37,0,0,0,7.68,4.26c4.52,2.16,9.24,2.24,14,1.34s9.28-2.16,13.92-3.3A10,10,0,0,0,231,257l2-1,.5-1.48,1.8,2.2c1.28-.66,1.38-.6,2.2.38a22.31,22.31,0,0,0,2.1,2,.54.54,0,0,0,.44.06c1-.3,1.6.26,2,1.08A4.85,4.85,0,0,0,244.24,262.5ZM187,248c.66.18.74-.9,1.46-.42.22.14.8-.14,1.14-.32,1-.52,1.9-1.08,2.84-1.66a57.75,57.75,0,0,0,8.68-7.22,18,18,0,0,0,2.56-3c1-1.44,1.78-3.06,2.82-4.48a24.07,24.07,0,0,0,3.38-7,10.12,10.12,0,0,0,.46-3.1,5.23,5.23,0,0,0-.82-3.44,12.87,12.87,0,0,0-5.86-4.06,2.23,2.23,0,0,0-2.12.14c-1.6,1.08-3.24,2.1-4.82,3.22a14,14,0,0,0-4.12,5.1,50.78,50.78,0,0,0-2.84,6.8,34.39,34.39,0,0,0-.86,4.32c-.22,1.08-.54,2.14-.7,3.22-.4,2.74-.74,5.5-1.06,8.26A13.11,13.11,0,0,0,187,248Zm-.2,22.32c.3-2.94.22-4.64-.22-5.6C186,265.78,186,268.48,186.78,270.36ZM88.2,295.62c-3.08-1.6-3.52-4.56-3.74-7.68-.3-4.54-.68-9.1-1-13.64-.1-1.42-.12-2.84-.16-4.26l-.18-8.5c-.06-2.26-.12-4.52-.18-6.76,0-.62-.1-1.24-.18-2a15.16,15.16,0,0,0-1.92,0c-2.66.32-5.3.68-7.94,1a6.26,6.26,0,0,1-1.22-.08c-1-.14-1.94-.3-3-.48.28-.44.48-.76.66-1.06-.58-1-1.46-1-2.48-1a2,2,0,0,1,1-2c1.72-.72,3.3-1.74,5.28-1.92a56.25,56.25,0,0,0,5.7-1.12c.66-.14,1.34-.2,2-.3,1.4-.2,1.76-.52,1.68-1.92-.12-2.12-.2-4.24-1.38-6.2a7.48,7.48,0,0,1-.48-3,17.39,17.39,0,0,1,0-2.5,6.52,6.52,0,0,1,1-3.56c1.16-1.62,2.4-3.18,3.64-4.74a1.34,1.34,0,0,1,.78-.44,29.18,29.18,0,0,0,5.64-1.88c1.38-.48,2.82-.84,4.24-1.2,4.78-1.26,9.7-1.44,14.6-1.66,2.66-.12,5.34-.36,8-.46a43.41,43.41,0,0,1,4.56.14c3.24.18,6.48.1,9.72.56,2.06.3,4.18.28,6.28.4a1.72,1.72,0,0,0,.32,0L144,218c.44-.12,1-.36,1.34-.18,1.28.66,2.38.1,3.62-.16,2.14-.44,4.38-.76,6.2,1a5.85,5.85,0,0,1,.84,1.12c.36.64.36,1.52,1.46,1.62.24,0,.54.84.6,1.34.32,2,.58,4,.84,6,.1.88.16,1.78.2,2.68a10.55,10.55,0,0,0,.7,4,2.87,2.87,0,0,1,.16.92c.14,2.94.24,5.88.44,8.82.18,2.52.46,5,.7,7.52.14,1.52.24,3,.36,4.54l.78,9.42c.22,2.56.44,5.12.62,7.68.06.68,0,1.36,0,2a5.47,5.47,0,0,0,1.14,3.2c.62.84.48,1.22-.4,1.76-.4.24-.74.54-1.14.78s-1.06.6-1.62.88a7.21,7.21,0,0,1-1.22.52,2.51,2.51,0,0,1-1,.12,6,6,0,0,0-3.38.44,7.19,7.19,0,0,1-2.3.34c-.88.06-1.78,0-2.42.82a1.08,1.08,0,0,1-.86.24c-.88,0-1.76-.08-2.64-.1a2.92,2.92,0,0,1-1.9-.86c-2.38-2-2.84-4.64-3.06-7.48-.16-2.14-.44-4.28-.6-6.42q-.42-6.12-.74-12.26c-.2-3.86-.34-7.74-.52-11.62a2.92,2.92,0,0,0-.16-.58c-1.38.22-2.76.44-4.12.64-2.6.38-5.2.74-7.8,1.14-5.76.88-11.56,1.24-17.36,1.7-1.78.14-3.54.34-5.32.54-1.22.14-1.36.36-1.42,1.62a28,28,0,0,0,1.24,8.22c.54,2.18,1,4.4,1.54,6.58.24,1,.7,1.88.88,2.84.54,2.88,1,5.78,1.48,8.66a7.62,7.62,0,0,0,.26.9,3.84,3.84,0,0,1,.32,1c-.26,2.6.36,5.24-.5,7.82a3.94,3.94,0,0,1-1.58,2.24c-1.36.88-2.68,1.82-4,2.76a5.57,5.57,0,0,0-.82.72,1.37,1.37,0,0,1-2.06.3,2.59,2.59,0,0,0-3.4.18c-.66.54-1.2,1-2.06.4a1,1,0,0,0-.86.12,6,6,0,0,1-4.46.82A5.62,5.62,0,0,0,88.2,295.62Zm51.68-55.8c0-1.74,0-3.36,0-5s-.16-3.46-.2-5.18-.14-1.86-1.9-1.86c-2.42,0-4.82.06-7.24,0-4.92-.16-9.84-.44-14.78-.56-2.6-.06-5.22,0-7.82.18a23,23,0,0,0-3.22.66,1.11,1.11,0,0,0-1,1.18c0,1.82-.16,3.66-.12,5.48a26.41,26.41,0,0,1-.16,5.48c-.48,2.5,0,3,2.58,2.8,2.72-.24,5.42-.52,8.14-.74,3.38-.28,6.78-.5,10.16-.76,1.2-.1,2.4-.28,3.58-.38,3.4-.28,6.8-.5,10.2-.8A10.37,10.37,0,0,0,139.88,239.82Zm-54.62-67c.18.3.38.6.56.9,1.06-.4,1.06-.4,2.06.86.24-1.94-.1-3.82.72-5.76.28.44.54.9.88,1.46.54-.68.88-1.12,1.32-1.66a16.45,16.45,0,0,0-1.18-1.42c-1.84-1.8-3.66-3.6-5.56-5.34-3.08-2.84-6.24-5.62-9.3-8.5A24.13,24.13,0,0,1,68.38,144a15.07,15.07,0,0,1-.38-9.58,44.28,44.28,0,0,1,4.72-11.1,25.35,25.35,0,0,1,4.36-4.9A39.51,39.51,0,0,1,81.76,115a8.21,8.21,0,0,1,1.72-.72c2.26-.86,4.52-1.7,6.78-2.54a10.69,10.69,0,0,1,1.38-.34l3.84-.84a3.51,3.51,0,0,1,.78-.12,72.92,72.92,0,0,1,7.54,0,19.23,19.23,0,0,1,8.9,2.8,18.37,18.37,0,0,1,6.24,7.14,30.77,30.77,0,0,1,3.24,10c.32,2.36-1.68,5.74-4.56,5.62-1.22,0-2.48.68-3.72,1.08-.24.08-.44.3-.68.34-1.3.16-2.6.32-3.9.38-3.26.18-5.26-1.62-5.46-4.82a26.76,26.76,0,0,0-2.34-9.72,11.43,11.43,0,0,0-5.72-5.82,2.26,2.26,0,0,0-1.8-.1A11,11,0,0,0,89.94,120a19.13,19.13,0,0,0-5.64,11.5,6.73,6.73,0,0,0,.88,3.88,2.86,2.86,0,0,1,.3.54c1.48,3.72,4.06,6.7,6.66,9.64a111.22,111.22,0,0,0,8.94,8.42c2.22,2,4.36,4.12,6.48,6.22,1.66,1.66,3.26,3.4,4.9,5.1a3,3,0,0,1,.64.7c1.54,3,3.62,5.66,4.64,8.9a21.2,21.2,0,0,1,.88,3.66,3.33,3.33,0,0,1-1.38,3c-.36.3-.86.5-1.1.86-1.2,1.82-3.12,2.38-5,3-1.14.38-2.32.68-3.46,1.06a5.46,5.46,0,0,0-1,.5c-.22.14-.42.4-.64.44-2.46.46-4.78,1.62-7.34,1.52a5.5,5.5,0,0,1-1.52-.26c-1.24-.44-2.42-1-3.66-1.42a10.92,10.92,0,0,1-6.22-5c-1.38-2.46-2.58-4.9-2.62-7.76a11.25,11.25,0,0,1,.22-1.62A2.18,2.18,0,0,0,85.26,172.84Z"/></svg>
