<?xml version="1.0" encoding="utf-8"?>
<!-- Generator: Adobe Illustrator 21.1.0, SVG Export Plug-In . SVG Version: 6.00 Build 0)  -->
<svg version="1.1" id="Layer_1" xmlns="http://www.w3.org/2000/svg" xmlns:xlink="http://www.w3.org/1999/xlink" x="0px" y="0px"
	 viewBox="0 0 4685 2545.6" style="enable-background:new 0 0 4685 2545.6;" xml:space="preserve">
<style type="text/css">
	.st0{fill:#FFFFFF;}
</style>
<title>breadpudding</title>
<path d="M458.2,1218.3c7.2-4.9,16-8.4,21.2-14.9c23.4-29.5,45.1-60.3,68.8-89.6c10.1-12.4,23.4-22.1,34.8-32.6
	c33.4,25.5,32.4,25.2,21,59.6c-24,72.7-47.7,145.5-69.5,218.8c-4.8,16.2-3.3,35.2-0.6,52.2c1.3,8.3,11.5,20.8,18.5,21.4
	c9.7,0.7,20.5-7.3,29.9-13c3.3-2,4.3-8.1,6.1-12.5c38.8-94,100.4-172.7,170.4-244.4c22.3-22.8,53.5-38,82.6-52.9
	c28.2-14.3,55.5-7.9,76.3,17.1c6.3,7.6,10.9,13.7,23,11c15-3.4,23.4,8.1,30.4,19.4c8.2,13.1-1.8,21-8.1,31.1
	c-32.9,52.9-67,105.3-95.9,160.4c-12.1,23-15.2,52-17.3,78.7c-3.5,44.1,16.7,61.8,60.7,51.3c34.1-8.1,67.8-20.7,99.3-36
	c30.5-14.8,59.2-34.1,86.5-54.2c17.9-13.2,31.4-30.7,27-57.3c-1.5-9.2,6.8-20.9,12.6-30.2c7.8-12.6,20.1-22.8,26.1-36.1
	c41-90,79.1-181.4,121.8-270.6c30-62.6,65.5-122.6,99.1-183.5c7.6-13.9,17.8-25.8,36.7-20.6c15.9,4.4,22.3,17.4,19.7,40.1
	c-12.1,107.7-40.7,211-92.4,306.2c-31.9,58.8-63.8,118.3-108.9,169c-8.3,9.4-14.8,20.4-26.7,37.1c21.2,0.5,35.8,2.3,50.2,0.9
	c57.3-5.6,104.3-34.7,149.3-67.8c52.5-38.6,99-83.4,140.4-133.6c3-3.6,5.8-9,9.6-10c7.4-1.9,18.5-4.5,22.5-0.8
	c5.5,5.1,9.5,16.7,7.6,23.9c-2.5,9.6-10.7,18-17.2,26.3c-62,77.6-138,138.8-225.9,184c-24.4,12.5-54.1,15.1-81.4,21.7
	c-9.9,2.4-20.1,3.5-33.3,5.6c26,40.3,63.3,58.5,104.5,69.7c41.2,11.2,81.9,0.6,122.6-7.1c71.4-13.4,138-38.1,199.7-76.8
	c66.5-41.7,117.4-97.8,157.6-164.2c4.7-7.8,7.1-17.2,9.3-26.2c5.2-21.3,19.3-33.9,35.3-30.5c16.5,3.5,27.7,21.5,20.4,42.5
	c-9.2,26.3-12.3,52.7-11.8,79.8c0.3,19.6,2.7,39.2,4.4,61.5c43-6.3,78.7-20.6,113.4-37.2c36.2-17.3,71.8-35.8,107.3-54.4
	c24.8-13,41.6-32.7,53-59.1c50.3-116.7,99.4-234.1,161.1-345.6c5.6-10.1,10.2-21.7,11.6-33c2.1-17.1,10.4-26.1,26.9-26.8
	c13.7-0.6,27.8,14.2,27.7,31.1c-0.2,27.1-0.5,54.4-4.5,81.1c-13,86.3-43.1,166.3-93.7,238c-2.4,3.4-3.6,7.8-8.5,18.5
	c20-14,33.8-24.2,48.2-33.5c7.8-5.1,16.1-10.2,25-12.7c29.2-8.3,45.5,4.6,38.3,34.1c-6.9,28.3-20.2,55-31,82.3
	c-25.9,65.7-52.6,131.1-77.5,197.2c-7,18.5-10.4,38.8-12.6,58.6c-3.9,35.1,11.9,46.2,44.6,31.1c48.9-22.7,90.2-56.2,122.5-99.1
	c16.1-21.4,27-46.7,40-70.3c17.6-31.9,34.5-64.2,52.9-95.6c10.8-18.4,27.3-22.6,41.7-13.5c13,8.3,16.1,22.4,6.1,40.7
	c-16.4,30-36.1,58.3-50.8,89c-12.5,26.2-24,54.2-28.7,82.6c-5.6,33.7,9.7,45.3,43.4,39.9c8.1-1.3,16.3-3.5,23.7-6.9
	c64.9-30.8,116.5-75.8,144.7-143.2c11.8-28.2,19.6-58,29.2-87c2.2-6.7,3.8-13.7,6.8-20c5.4-11.1,13.6-21,27.2-18
	c14,3.1,28.2,9.6,29.3,26.5c0.8,12.5,0.1,26.1-4.1,37.7c-6.8,18.7-15.7,37.1-26.3,54c-18.3,29.3-23.6,61.2-23.8,94.6
	c-0.2,33,21.2,53.6,53.9,48.8c46.2-6.9,87.6-27.3,126.4-52.4c73-47.2,134.2-107.2,187.7-175.4c5-6.4,9.8-13.5,12.6-21
	c33.5-88.4,78.5-171.2,127.1-251.8c27.9-46.3,61.3-89.4,92.2-134c7.8-11.3,17.9-15.7,30.2-7.9c12.3,7.8,17.6,19.4,11.7,33.4
	c-5.9,14.1-13.1,27.6-19.6,41.4c-39.9,84.2-88.5,163.5-139.5,241.3c-36.9,56.2-73.4,112.6-94.1,177.3c-2.1,6.4-3.6,13-6.4,22.9
	c17.4-3.5,23.1-15.8,30.6-24.9c41.1-50.3,83.7-99.1,137-137.3c39.8-28.5,82.7-48.4,131.7-57.4c69.3-12.8,105.1,55,90.5,100.6
	c-6,18.8-14.3,37.8-25.6,54c-43,61.8-98.2,110.8-162.6,149.7c-15,9.1-29,19.9-43.8,30.2c36.1,27.8,156.9,33.2,256.2,12
	c11.8-60.7,52.8-102.7,96.5-143c54.2-49.9,114.6-90.7,181.1-122c16.6-7.8,35.8-13.2,53.9-13.6c14.1-0.3,32.9,4.7,41.6,14.5
	c17.7,19.8,34,42.9,43.3,67.5c9.4,24.8,21.9,45.2,44.4,56.7c42.9,22,86.2,43.9,131.2,60.9c68.3,25.9,137.4,49.8,207.4,70.7
	c80.4,24,162,43,247.2,28c24.4-4.3,48.4-9.6,70.4-25.3c-3.6-7.1-6.7-13.3-9.8-19.5c3.1-1.7,4.2-2.8,5.1-2.7
	c16,2.9,36.2,3.1,38.5,23.5c2.1,18.9-14.4,28.1-29.8,35.5c-60.2,29-123.3,35.1-189.4,28.8c-102-9.7-197.8-42.6-294.4-72.9
	c-16.9-5.3-33.5-11.5-50.5-16.3c-63.9-18.3-125-42.1-177.6-84.3c-5.4-4.3-12.1-6.9-18.7-10.6c-24.3,27.3-46.3,54.8-71.1,79.6
	c-63,63-140.5,98-228,110.5c-21.9,3.1-43.7,1.9-64.8-10.6c-10.6-6.3-27.2-4.4-40.9-3.6c-50.6,2.7-101.1,8.2-151.6,9.2
	c-52.2,1-103.5-5.8-150.6-31.7c-13.6-7.5-27.9-8.5-44.2-3.8c-18.9,5.5-39.6,8.1-59.3,7.1c-23.7-1.2-37.6,9.5-48.3,28.1
	c-5.9,10.2-10.8,21.1-18.1,30.2c-7.7,9.6-18.1,14.7-31.2,8c-11.9-6.1-18.5-15-16.3-28.3c1.5-9.1,5-18,8.1-26.8
	c16.1-45.5,32.5-91,48.6-136.5c1.5-4.2,1.9-8.8,4.7-22.2c-14,12.1-22.5,18.7-30.2,26.3c-54.2,53.3-112.8,100.1-185.8,125.6
	c-14.4,5-28.9,10.1-43.7,13.8c-49.8,12.7-104.9-22.9-109.7-68.9c-0.3-2.9-3.3-5.6-6.5-10.6c-19.3,16.6-36.4,34.3-56.4,47.8
	c-23.2,15.6-47.7,30.5-73.6,40.5c-63.3,24.5-91.7,11.9-123.6-52.7c-12.8,11.3-24.9,22-37.2,32.6c-28.8,25-60,45.9-96.9,56.9
	c-51.7,15.4-88.4-12.4-89.6-66.1c-1.1-48.5,16.4-92.8,32.2-136.8c18.6-52,42.4-102.2,63.8-153.3c2.6-6.1,3.8-12.8,7.4-25.4
	c-37.9,24.9-62.1,54.7-86.8,83.6c-60.8,71.3-105.5,153.2-151,234.4c-10.4,18.5-20,37.5-31.3,55.4c-4.8,7.6-11.9,15-19.7,19
	c-18.1,9.4-33.8-1.1-32.5-21.7c0.6-9,4.9-18,8.6-26.5c30.6-70.3,61.5-140.4,92.1-210.6c2.6-5.9,3.9-12.4,7.4-24.3
	c-28.5,13.4-51.3,24.7-74.7,35c-39.9,17.6-79.8,35-120.1,51.6c-26,10.8-29.6,12.8-25.4,42.1c6.7,46.3,5.7,91.6-9.1,136.1
	c-3.7,11.1-8.1,22.5-15,31.7c-15.3,20.5-42.3,27.9-66.5,17c-47.9-21.6-84-56.2-105-104.8c-18.2-42-6.7-77.3,34.2-98.5
	c34.4-17.8,71-31.4,111.4-49c-2.2-20.1-4.6-43-7.7-71.7c-9.7,8.4-16.1,12.6-20.8,18.2c-78.1,93.1-174.3,157.7-292.9,187.2
	c-31.9,8-63.6,17.5-96,22.9c-76.3,12.8-141.8-9.9-196.1-64.7c-17.1-17.3-33.1-35.7-50.5-54.6c-25.6,21.6-31.4,51.8-42.4,78.1
	c-12.7,30.2-19.2,63-30.3,94c-4.9,13.7-12.8,27.7-23.1,37.5c-5,4.7-20.5,3.2-28.1-1.1c-8.7-4.9-12.9-15.3-7.6-27.7
	c11.1-25.8,20.8-52.2,30.6-78.6c3.6-9.5,5.9-19.4,10.4-34.6c-27.9,15-49.5,29.6-73.2,38.7c-33.8,12.9-68.6,28-103.9,31.1
	c-62.9,5.6-91.2-23.5-95.4-86.2c-0.5-7-1.5-13.9-2.9-27.4c-12,8.4-21.7,13.7-29.6,21c-17.4,15.8-33.3,33.2-50.9,48.7
	c-14,12.3-28.6,24.9-45,33.6c-45.2,24.3-72.8,15.9-100.8-27.7c-2.2-0.7-4.4-1.8-6.7-2c-66.8-5.9-90.8-32.7-82.2-99.7
	c6.3-48.8,18.7-96.7,27.8-142.3c-15.9,11.2-16.4,10.9-25.8,31.5c-34.8,76-69.1,152.3-103.9,228.3c-9.3,20.3-19.3,40.4-30.5,59.7
	c-4.5,7.8-12.1,16.3-20.2,18.9c-9,2.9-22.5,2.7-29.6-2.4c-6.8-4.8-11.7-18.2-10.5-26.8c2.5-18.5,8.2-36.9,14.8-54.5
	c35.7-95.9,72.7-191.3,107.9-287.4c34.9-95.4,78.9-186.6,125-276.8c1.5-3,1.7-6.7,3.6-14.7c-9.5,2.8-17.3,3.2-22.9,7
	c-35.2,23.8-70.6,47.3-104.2,73.2c-10.1,7.8-15.8,22.4-21.1,35c-5.5,12.9-6.9,27.4-12,40.5c-5.5,13.9-10.1,29.8-30.6,29
	c-17.1-0.6-22.7-5-33.3-30.4c-40.2,23.4-73.4,55-105.8,87.5c-11.1,11.1-7.6,23.9-5.6,36.6c5,32.6,12.9,65,14.6,97.8
	c5.1,94.9-23.5,179-88,249.8c-18.4,20.1-40.1,32-69.2,24.8c-30.6-7.6-48.8-25.8-57.1-56.1c-14.4-52.8-2.9-103.2,15.2-152.1
	c24-64.7,60.4-122.6,107-173.6c15.1-16.6,18.7-32,14-54.1C125,1056.1,144,982.3,212,924.1c28.5-24.4,61.6-35.2,97.7-35.2
	c38.4,0,68.4,16.2,83.1,54.2c2.5,6.5,5.3,12.9,9.9,23.8c25.2-16.1,49-30.5,72.1-46.1c37.1-25,74.3-50,110.4-76.5
	c15-11,27.2-25.8,40.6-38.9c3.4-3.3,5.9-7.6,9.5-10.5c12.5-10,31.4-8,41.2,4.5c9.6,12.4,1.3,22.3-6.2,31.4
	c-19.3,23.6-41.8,45.1-58.1,70.6c-63.9,99.5-114.1,206-153.3,317.6c-3.5,9-7,17.9-10.6,26.7c2.6,0.5,5.2,0.9,7.8,1.4
	C456.8,1237.5,457.5,1227.9,458.2,1218.3z M3219.5,1431.2c15.7-7.6,38-17.3,59.4-28.9c64.7-35.4,121.6-80.3,162.7-142.6
	c8.3-12.6,15.8-26.5,20.1-40.8c9.7-32-1.8-49.2-35.6-46.8c-24.9,1.8-50.7,9.8-73.3,20.9c-55.6,27.4-100,69.9-140.6,116
	c-19.1,21.7-35.5,45.9-56.9,73.9C3176.5,1398.9,3194.3,1412.2,3219.5,1431.2z M3591.9,1458c5.8,2.5,7.9,4,10.1,4.2
	c3.5,0.4,7.1,0.4,10.5-0.3c80-17.9,155.8-46.4,220.8-97.2c20.7-16.2,36.8-39.3,51.5-61.5c10.8-16.2,11.2-36.7-2.8-52.7
	c-14.7-16.8-34.3-14.9-51.9-5.5c-32,17.1-64.6,33.8-94.2,54.7c-48,34-93.7,71.3-126,121.8C3602.7,1432.8,3597.9,1445.7,3591.9,1458z
	 M160.5,1226.8c-9.5,6.3-15.3,8.5-18.8,12.6c-34.6,40.9-60.2,87.3-78.4,137.2c-12.9,35.3-19,72.8-15.4,111.1
	c1.5,16.6,8.5,29.8,24.7,35.5c16.3,5.7,26.9-5.1,36.1-16C177.5,1425.3,189.3,1332.6,160.5,1226.8z M193.7,1119.9
	c4.3-0.5,7.2,0.1,8.8-1.1c45.6-35.4,90.8-71.2,136.5-106.4c15.8-12.2,16.2-28.4,12.4-44.8c-8.4-37.3-44.8-49.2-85.2-28.6
	c-59.6,30.3-93.8,101.7-79.7,166.7C187.7,1111,191.5,1115.6,193.7,1119.9z M648.5,1395.8c55.6-27.7,102.3-60.7,144.5-99.5
	c34.1-31.4,61.1-68.8,80.9-110.7c3.9-8.2,4.7-23.6-0.3-28.6c-5.4-5.5-19.2-3.5-29.3-3.3c-4.2,0.1-8.9,3.4-12.4,6.3
	c-21.7,17.9-45.7,33.9-64.1,54.8c-30.4,34.4-58.2,71.2-84.9,108.6C668.4,1343.8,653.8,1365.3,648.5,1395.8z M1391.7,892.6
	c-46.1,60.4-173.9,337.8-173.5,373.4C1308.6,1155.2,1372.4,1034.4,1391.7,892.6z M1829.1,1414.1c-33.8,3.9-60.4,15.7-84.8,32.3
	c-23.9,16.3-26.5,26.7-14.4,53.5c12.2,26.9,34.1,44.6,59.9,57.1c14.7,7.1,26.5,1,32.6-15.9C1837,1500.6,1838.8,1459.2,1829.1,1414.1
	z M2221.6,1143.4c70.1-63.4,100.4-145.9,112.6-236.9C2288.3,981.3,2252.2,1060.8,2221.6,1143.4z M717.1,1420.2
	c-1.7-1.7-3.4-3.5-5.1-5.2c-25.6,18.3-51.3,36.7-76.9,55C673.8,1469.3,694.6,1443.7,717.1,1420.2z M2169.2,1254
	c2.3,2,4.6,4.1,6.9,6.1c8.7-9.6,17.3-19.3,26-28.9c-2.3-2.1-4.7-4.1-7-6.2C2186.5,1234.7,2177.9,1244.3,2169.2,1254z M3135.3,1431.3
	c-2.7-0.4-5.4-0.7-8.1-1.1c-3.5,7.2-7,14.4-14,28.8c14.6-5,21.6-7.5,28.6-9.9C3139.6,1443.2,3137.5,1437.2,3135.3,1431.3z"/>
<path class="st0" d="M3219.5,1431.2c-25.2-19-43-32.4-64.1-48.3c21.4-28.1,37.8-52.2,56.9-73.9c40.6-46.1,84.9-88.6,140.6-116
	c22.5-11.1,48.4-19.1,73.3-20.9c33.8-2.5,45.3,14.7,35.6,46.8c-4.4,14.3-11.8,28.2-20.1,40.8c-41.1,62.3-98,107.2-162.7,142.6
	C3257.6,1414,3235.2,1423.7,3219.5,1431.2z"/>
<path class="st0" d="M3591.9,1458c6-12.3,10.8-25.2,18.1-36.6c32.3-50.5,78-87.8,126-121.8c29.5-20.9,62.2-37.5,94.2-54.7
	c17.6-9.4,37.1-11.4,51.9,5.5c14,16,13.6,36.5,2.8,52.7c-14.8,22.2-30.9,45.4-51.5,61.5c-65,50.8-140.8,79.3-220.8,97.2
	c-3.4,0.8-7,0.7-10.5,0.3C3599.8,1462,3597.7,1460.5,3591.9,1458z"/>
<path class="st0" d="M160.5,1226.8c28.9,105.9,17.1,198.5-51.8,280.3c-9.2,10.9-19.8,21.7-36.1,16c-16.2-5.7-23.2-18.9-24.7-35.5
	c-3.5-38.2,2.6-75.8,15.4-111.1c18.2-49.9,43.8-96.3,78.4-137.2C145.2,1235.2,150.9,1233.1,160.5,1226.8z"/>
<path class="st0" d="M193.7,1119.9c-2.2-4.3-6-9-7.1-14.2c-14.1-65.1,20.1-136.4,79.7-166.7c40.4-20.5,76.7-8.7,85.2,28.6
	c3.7,16.4,3.4,32.6-12.4,44.8c-45.7,35.2-90.9,71-136.5,106.4C201,1120,198,1119.4,193.7,1119.9z"/>
<path class="st0" d="M648.5,1395.8c5.3-30.5,19.9-52,34.5-72.4c26.7-37.4,54.5-74.2,84.9-108.6c18.4-20.9,42.4-36.9,64.1-54.8
	c3.6-2.9,8.2-6.2,12.4-6.3c10.1-0.2,23.8-2.2,29.3,3.3c4.9,5,4.1,20.4,0.3,28.6c-19.8,41.9-46.8,79.3-80.9,110.7
	C750.7,1335.1,704.1,1368.1,648.5,1395.8z"/>
<path class="st0" d="M1391.7,892.6c-19.3,141.7-83.1,262.5-173.5,373.4C1217.8,1230.4,1345.6,953,1391.7,892.6z"/>
<path class="st0" d="M1829.1,1414.1c9.7,45.1,7.9,86.5-6.7,127.1c-6.1,16.9-17.9,22.9-32.6,15.9c-25.9-12.5-47.7-30.2-59.9-57.1
	c-12.1-26.8-9.5-37.2,14.4-53.5C1768.7,1429.8,1795.3,1418,1829.1,1414.1z"/>
<path class="st0" d="M2221.6,1143.4c30.6-82.6,66.7-162.1,112.6-236.9C2322.1,997.5,2291.7,1080,2221.6,1143.4z"/>
<path class="st0" d="M717.1,1420.2c-22.4,23.5-43.3,49.1-82,49.8c25.6-18.3,51.3-36.7,76.9-55
	C713.7,1416.7,715.4,1418.5,717.1,1420.2z"/>
<path class="st0" d="M2169.2,1254c8.6-9.7,17.2-19.3,25.9-29c2.3,2.1,4.7,4.1,7,6.2c-8.7,9.6-17.3,19.3-26,28.9
	C2173.8,1258.1,2171.5,1256,2169.2,1254z"/>
<path class="st0" d="M3135.3,1431.3c2.2,5.9,4.3,11.9,6.5,17.8c-7,2.4-14.1,4.9-28.6,9.9c7-14.4,10.5-21.6,14-28.8
	C3129.9,1430.6,3132.6,1430.9,3135.3,1431.3z"/>
<path class="st0" d="M458.2,1218.3c-0.7,9.6-1.4,19.3-2.2,28.9c-2.6-0.5-5.2-0.9-7.8-1.4c3.6-8.9,7.1-17.7,10.6-26.7
	C458.8,1219,458.2,1218.3,458.2,1218.3z"/>
</svg>
