<?xml version="1.0" encoding="utf-8"?>
<!-- Generator: Adobe Illustrator 21.1.0, SVG Export Plug-In . SVG Version: 6.00 Build 0)  -->
<svg version="1.1" id="Layer_1" xmlns="http://www.w3.org/2000/svg" xmlns:xlink="http://www.w3.org/1999/xlink" x="0px" y="0px"
	 viewBox="0 0 4685 2545.6" style="enable-background:new 0 0 4685 2545.6;" xml:space="preserve">
<style type="text/css">
	.st0{fill:#FFFFFF;}
</style>
<title>breadpudding</title>
<path d="M2909.5,638.1c17.4-28.6,33.3-58.4,52.7-85.7c31.5-44.5,81.4-47,120.6-8.1c25.5,25.4,26.4,27.4,22,55.8
	c-7.7-4.2-14.8-6.7-20.3-11.2c-62.2-50.7-74.4-23.7-104.7,22.9c-13.1,20.2-20.6,44.4-28.9,67.4c-7.9,22-13.9,44.6-20,67.2
	c-18.3,67.3-30,135.7-34,205.3c-1.8,30.5-2.9,61.2-6.8,91.5c-1.9,14.6-4.2,30.9-19.2,40c-45.3-9.4-46.7-12.6-43.3-56.2
	c4.4-55.1,6.1-110.3,9.9-165.5c3.2-47,7.7-93.9,11.6-140.9c1.6-19.8,3.1-39.7,4.7-59.6c-2-0.5-4.1-1-6.1-1.5
	c-3.7,5.4-7.7,10.6-11,16.2c-45,77.1-93.2,152.2-155.7,216.2c-34.1,35-72.5,66.1-110.8,96.7c-15.6,12.5-35.4,20.1-54.2,27.9
	c-37.6,15.5-70.5,4.6-97.8-22.9c-11.7-11.8-21.2-15.3-37.5-9.3c-32.7,12-66.8,17.5-102.3,16.3c-67.5-2.4-113.5-37.2-143.1-94.4
	c-34.7-67.1-43.2-140.3-42.5-214.9c0.4-41,0.8-82,0.8-122.9c0-6.6-1.9-13.3-8.9-21.1c-2.6,6.7-5.3,13.3-7.8,20.1
	c-23.5,63.2-47.7,126.1-69.9,189.8c-9,25.8-11.9,53.7-20.2,79.8c-16.2,51.6-33,103-52.1,153.6c-9.4,25-28.4,28.8-49.5,15.5
	c-11.1-7-14.9-16.3-12.7-28.6c6.7-37.2,13.7-74.4,20.2-111.7c14.8-84.5,28.8-169.2,44.3-253.6c12.4-67.4,24.6-134.9,40.5-201.5
	c9-37.5,18.3-74.7,18.5-116.4c-9.8,9.7-20,19.1-29.2,29.3c-27.3,30.4-53.9,61.5-81.3,91.8c-38.4,42.4-77.1,84.6-116.2,126.3
	c-15.3,16.4-20.4,30.9-11.3,54.6c8.8,22.9,10.1,50.4,8.4,75.4c-3.3,49.8-12,98.6-28,147c-28.4,86.2-76.6,159.8-132.7,229
	c-13.7,16.9-34.1,28.6-51.9,42c-4.7,3.5-11.3,5.1-17.2,6.1c-39.5,6.6-59.5-7.4-65.6-47.3c-6-39.2,0.8-77.9,11.4-115.2
	c16.7-59.1,38.6-115.9,71.3-168.9c34.7-56.2,71.7-110.5,112.7-162.2c1.6-2.1,1.4-5.6,2.4-9.7c-13.4-7.3-23.7-0.1-33.7,5.9
	c-40.9,24.5-69.1,60.6-89.7,102.6c-37.2,75.8-59.4,156-75.5,239c-22.1,113.7-35,228.4-49.5,343.1c-3.1,24.4-5.1,49-10.7,72.9
	c-2.5,10.9-10.5,23.4-19.7,28.8c-7.8,4.6-21.8,2.5-31.5-1c-10.9-3.9-11.4-15-9.4-26.3c4-23.1,6.5-46.5,10.1-69.7
	c19.6-127.2,38.4-254.6,59.6-381.6c8.9-53.4,22.9-106,34.2-159c4.2-19.8,7.4-39.7,5.7-62.6c-12.1,16.5-25.1,32.3-36,49.5
	c-50.2,79.3-112.5,148.4-179.5,213.4c-26.3,25.5-52.1,52.4-86.3,67.8c-15.6,7.1-32.2,12.5-48.8,16.8c-28.7,7.4-54.8,2.6-76.4-19.6
	c-4.1-4.3-9.6-7.2-13.9-10.3c-34.6,15.7-67.4,32.3-101.5,45.6c-81.2,31.7-156.8-6.9-188.2-83.3c-13-31.7-20.9-66.6-24.9-100.8
	c-8.4-73.3-8.4-147.1-2-220.8c0.5-5.7,0.1-11.5-2-17.4c-21.2,34.8-28.5,73.9-38.9,111.7c-24,88-41.5,177.4-54.1,267.7
	c-2.9,21.3-5.5,42.6-8.6,63.8c-1.3,9-3.2,18.1-5.9,26.8c-6.5,20.7-13.4,24.5-33.7,19.9c-19.2-4.4-23.6-10.3-21.8-30.1
	c10.3-114.1,19.7-228.3,31.4-342.3c5.4-52.8,15.4-105.1,23.3-157.7c8.1-54.6,14.3-109.5,24.7-163.7c10.6-55.2,24.7-109.7,38.3-164.2
	c6.4-25.7,14.5-51.2,23.9-76c3.7-9.8,11.6-19.1,19.7-25.9c8.8-7.4,20.8-10.4,31-1.5c10.3,9.1,12.1,19.7,5,32.9
	c-34.5,63.8-52.6,133.4-66.5,203.6c-15.2,77.1-25.7,155.2-37.9,232.9c-3,19.1-4.5,38.4-7.4,63.6c19-52.9,35.6-100.3,53.2-147.3
	c5.7-15.3,12.9-30.1,20.8-44.3c8.9-16,27.4-23.5,41.6-18.7c13.2,4.4,21.5,18.6,20.5,37.6c-2.4,46.9-4.6,93.8-8.4,140.6
	c-6.5,79.9-7.2,159.6,6.6,238.9c4.9,28.4,15.1,54.8,32.1,78.8c24,33.9,56.7,47.4,96.1,39.6c44.5-8.8,84.9-27.8,118.8-59.4
	c-15.9-101.3,8.5-195.8,43.2-288.4c10.8-28.7,24.3-56.4,37.6-84c15.9-33.1,40.3-56.6,78.2-62.3c34.8-5.2,62.2,8.9,78.7,39.9
	c22.3,41.8,20.3,85.7,6.8,128.5c-11,34.8-25.9,68.8-42.8,101.2c-12,23-30.4,42.7-45.9,63.9c-10.8,14.8-20.7,30.4-32.6,44.4
	c-14.4,17-31,32.3-45.6,49.2c-6.9,7.9-19,14.4-13.9,28.3c4.4,11.9,20.6,20.7,36.4,14.8c21.7-8.2,43.8-18,62-32
	c66.7-51.7,124.6-112.7,174.2-180.8c39.7-54.5,75.9-111.6,112.1-168.4c19.1-30,35.2-62,52.4-93.3c7.4-13.5,28.4-25.4,40.5-22
	c14.4,4,23.4,20.5,19.4,39.5c-4.3,20.6-10.7,40.7-17.8,67.2c11.9-8.8,19.2-13.6,25.8-19.3c38.2-33,81.9-49.7,132.6-44.1
	c12.3,1.4,18.4-4.5,25.6-12.6c49.1-54.7,98.7-109,148.1-163.5c33.6-37.1,65.3-76.2,101-111.2c39.2-38.5,62.6-84.6,80.5-135.3
	c10.2-28.8,23.7-56.5,45.9-79c10.5-10.6,22.3-13.6,36.2-12.1c15.3,1.7,25.7,10.4,25.3,25.7c-0.4,13.9-1.8,29.5-8.5,41
	c-15.4,26.4-33.2,51.6-52,75.7c-18.5,23.8-32.7,48.8-40.1,78.3c-18.1,71.3-40.8,141.5-55.6,213.4c-19.6,95-33.6,191.2-49.8,287
	c-0.3,1.7,0.8,3.7,2.8,11.7c13.7-43.9,25.4-82.7,37.9-121.4c18.5-57.5,38.3-114.6,70.4-166.3c5.7-9.3,13.5-18.3,22.5-24.3
	c26.7-17.8,49.1-7.2,50.9,24.6c1.3,23.3-1.1,46.8-1.5,70.1c-1.9,92.9-10.7,185.8,9.8,278.1c8.9,40,25.1,75.6,51.8,106.3
	c19,21.9,43,33.3,72.9,33.6c31.2,0.4,60.9-4.3,89.9-16.1c12.9-5.2,20.7-12,20.1-26.8c-1.6-44.6,7.2-87,24.3-128.3
	c10.8-26.2,14.9-55.3,27.4-80.5c18.5-37.5,42.6-71.3,76.6-98.2c41.3-32.7,85.6-39.5,134.5-25.4c25.1,7.2,32.5,18.2,32.5,44.6
	c0.1,30.1-6.5,58.9-19,86.3c-23.6,51.7-55.8,96.8-96.1,137.6c-20.6,20.9-38.6,44.4-62.8,61.6c-14.1,10-29.4,18.5-43.3,28.9
	c-5.2,3.8-12.2,13-10.7,16.3c2.7,6.1,10.4,11.7,17.2,14.1c32.2,11.3,58.8-5.3,82.1-22.7c67.7-50.4,124.2-111.6,173.8-180.4
	c45.8-63.5,80.4-133.1,119.7-200.1c7.7-13.1,12.1-28.2,18.9-41.9c6.8-13.8,21.3-20.4,35.2-16.7c15.6,4.2,21,15.9,19.5,30.6
	c-2.4,24.5-5.9,48.8-9,73.2c-1.2,9-2.6,17.9-3.9,26.8C2907,637.9,2908.2,638,2909.5,638.1z M1711.2,620.5
	c-9.2,9.3-16.5,14.7-21.4,21.8c-41.4,59.5-86.1,116.6-117.8,182.6c-20.9,43.5-38.5,87.8-48.7,134.8c-6.2,28.6-9.7,57.7,2.7,87.7
	c17.7-2.1,28.9-12.5,39.9-22.9c34.7-32.6,59.8-71.7,81.6-113.9c32-62.1,58-125.8,67-195.4C1718.3,685.3,1721.4,655,1711.2,620.5z
	 M1050.1,912.6c10-8,16.8-12.1,22.1-17.7c35.2-37.3,66.2-77.8,90.5-123.2c20.8-38.7,42.9-77.2,45.9-122.4
	c1.1-17.1,2.1-35.4-2.7-51.4c-3.6-12.2-14.4-26.3-25.5-31.1c-14.3-6.1-29.9,2.1-39.7,16c-8.8,12.6-17.9,25-25.4,38.3
	c-31.8,56.8-49.5,118.7-61.3,182C1047.7,836.8,1041.4,871.6,1050.1,912.6z M2439.9,897.4c10.9-5.6,17.9-7.9,23.3-12.1
	c65-51,119.5-111,156.4-185.5c7.6-15.3,13-32.3,16.2-49.2c4.5-23.9-5.9-34.5-30.2-33.7c-27.9,0.9-51.2,11.6-69.9,32.9
	c-30.5,34.7-58.2,71.1-74,115C2446.8,806,2437.9,848.5,2439.9,897.4z"/>
<path d="M1414.4,1798.8c0.9,30.2-14.7,44.3-27.9,59.3c-16.1,18.2-26.5,37.9-26.2,63.5c0.3,22.9,11.4,36.2,30.3,45.3
	c28.1,13.4,57.3,13.5,87.1,7.5c49.8-10.1,95-32.1,139.3-55.6c102.7-54.5,187.5-131.2,263.2-218.1c27.4-31.5,51.2-66.4,74.3-101.3
	c8.6-13,12.5-30.1,15.1-46c6.9-42.7,17.3-84.1,34.5-124c9.6-22.4,12.3-48.2,30.8-66c8.3-8,19.3-14.7,30.3-18
	c13.1-3.9,24.5,2.2,27.9,16.8c5.1,21.9,9.1,43.4,3.3,66.6c-8.5,34-18.3,66.8-38.3,96.2c-7.3,10.6-10.7,23.9-11.6,40
	c9.8-9.2,20.5-17.6,29.4-27.6c27.7-31.2,64.2-46.5,103.2-55.8c39.9-9.6,90.6,18.2,111.4,59.8c29.6,59.1,37.2,122.5,33.9,187.7
	c-0.6,11.9-1.3,23.9-2.2,40.5c14.6-3.8,25.9-4.8,35.4-9.4c57.3-27.1,114.4-54.7,166.5-91.2c31.8-22.2,64.7-42.9,95.6-66.3
	c15.9-12,29.3-27.8,42.2-43.2c12.1-14.5,28.7-21.7,42.3-15.3c15.5,7.3,22.2,25.3,19.2,43.7c-10.8,66.6-21.5,133.2-30.8,200
	c-8.9,63.8-16,127.8-23.6,191.7c-1.3,11-4.4,23.5-0.8,33.2c9.1,24.8-2.4,46.4-7.1,68.9c-2.7,12.8-11.4,18.3-25.4,15.1
	c-12.6-2.9-25.3-5.7-24.4-22c1.9-32.6,4.5-65.3,7.7-97.8c6.1-63,12.4-126,19.6-188.9c4.9-42.7,11.6-85.1,17.2-127.7
	c0.7-5.5,0.1-11.2,0.1-22.9c-28,15.5-52.6,27.1-75,41.8c-76.2,50.1-155.2,94.4-240,128.3c-21.5,8.6-32.1,24.4-38,47.7
	c-20.7,82.2-60.3,154.8-125.8,209.6c-44.9,37.6-95.3,67.4-157.7,65.6c-9.1-0.3-18.3,1.6-27.4,2.5c-0.9,0.1-1.8,0.9-6.6,3.5
	c-2,28.8-4.8,60.1-6.3,91.4c-1.7,36.8-0.1,74-4,110.5c-4.1,38.5-13,76.4-19.7,114.6c-2.7,15.1-5.1,30.2-7.8,45.3
	c-1.5,8.6-0.6,19.6-5.7,25c-6.4,6.9-17.3,11.5-26.9,13.1c-18.6,3-38.4-15.6-40.3-37.6c-2.3-27.5-3.5-55.2-4.2-82.8
	c-1.7-68.5-4.8-137.1-3.4-205.6c1-50.9,6.6-101.9,12.9-152.5c6.4-51.6,14.4-103.2,25.2-154.1c9.7-45.9,23.9-91,36.3-136.3
	c6.2-22.6,12-45.1,8.1-70c-4.2,1.2-8,1.1-9.4,2.9c-44.6,60.4-95.3,115.2-154.2,161.6c-36.8,29-76,55.2-114.7,81.6
	c-44.9,30.7-92.9,55.7-145.1,71.8c-53.1,16.3-106.8,18-159.3-0.9c-25.7-9.2-44.6-28.3-54.9-54.7c-12.6-32.3-5.4-62.2,11-90.7
	C1342.7,1834.4,1376.4,1818.2,1414.4,1798.8z M1997.7,1893.9c11.1-3.1,20.9-5.1,30.3-8.6c19-7.1,37.5-15.8,56.6-22.5
	c51.9-18.2,104-36.1,156.2-53.4c16.5-5.5,24.1-15.2,26.6-33c7.3-52.4,5.4-104.3-6.8-155.4c-5.1-21.5-13.8-42.9-24.7-62.1
	c-13.5-23.7-35.7-31.8-60.1-22.8c-17.9,6.6-36.1,15.6-50.4,27.9c-69.6,60.2-115.3,135.1-127.2,227.2
	C1994.1,1824.2,1997.7,1858,1997.7,1893.9z M2254,1854.1c-2.1-1.7-4.2-3.4-6.3-5.2c-5.7,1.2-11.8,1.7-17.2,3.7
	c-48.9,18-98.2,35-146.3,54.8c-26.3,10.8-51.3,25.4-75.5,40.5c-8.4,5.2-16.9,16.7-17.9,26.1c-2.9,27.3-2,55.1-2.7,82.7
	c-0.4,16.4,8.3,24.6,23.8,26.3c8,0.8,16.4,1.4,24.2,0.1c43.4-7.4,81.5-26.1,113.4-56.8c40.5-39,71.5-84,89.5-137.7
	C2242.9,1876.7,2248.9,1865.5,2254,1854.1z M1923.9,2105.3c-11.6,73.6-12.1,147.7-5,222.1
	C1929.7,2281.7,1935.3,2126.5,1923.9,2105.3z"/>
<path d="M3492.8,974.1c-31,28-56.9,52.5-84,75.6c-42.1,35.9-87,68.5-140.2,85.6c-31.4,10.1-62.9,3-91.4-13.5
	c-36.2-20.9-50.6-52.5-50.2-94.4c0.5-53.4,13-102.5,35.7-150.8c32.4-68.8,71.9-133.2,115.1-195.2c41.7-59.7,91.8-112.2,151.8-154.3
	c19-13.4,40.2-20,63.7-18c9,0.8,18,1.1,30,1.8c2.9-12.6,7-24.1,8.2-36c7.6-80.9,31-158.4,48.9-237.2c4.5-19.9,11-39.3,16.6-58.9
	c1.1-3.9,2.8-7.7,4.2-11.5c5.5-15.1,18.1-19.4,32-18.6c14.4,0.9,20.3,12.1,23.2,25c4.9,21.9,9,44,14.6,65.7
	c12.2,47.1,8,95.4,12.3,143c5.1,56.6-3.2,112.2-7.4,168.1c-1.8,24.3-5.7,48.8-11.7,72.4c-10.2,39.6-20.9,79.2-35.1,117.5
	c-11.6,31.4-27.9,61.2-43.3,91.2c-10.3,20-23.3,38.5-33.5,58.5c-4.9,9.6-8.8,21.2-8.3,31.7c1.6,33.7,4.4,67.4,9.1,100.8
	c1.8,12.5,10,24.2,15.5,36.1c7,15.1,4.8,30.3-5.9,39.3c-12.6,10.6-23.2,10.5-37.9-3.6c-6.9-6.6-13-16-15.1-25.2
	c-5.3-22.9-7.9-46.3-11.8-69.5C3497,993.1,3495.4,986.5,3492.8,974.1z M3171.5,1010.7c1.3,0.3,2.6,0.6,3.9,0.9
	c0,7.2-0.8,14.4,0.1,21.5c6.2,45.5,39.3,67,83.9,55c4-1.1,8-2,11.8-3.5c38.1-15.4,75.1-33.5,104.9-62.2
	c35.9-34.7,70.7-70.7,104.3-107.6c8-8.8,12.1-23.7,13-36.1c2.8-38.7,2-77.7,5-116.3c3.8-48.9,10.3-97.6,15.2-146.4
	c1.4-14.2,1.7-28.6,1.6-42.8c-0.1-10.9-6.8-17.4-17.3-17.7c-10.1-0.2-22.2-1.5-30,3.3c-24.3,14.9-48.9,30.3-69.6,49.6
	c-24.6,22.8-46.7,48.9-67.5,75.3c-58.6,74.3-105.8,155.4-138.2,244.5C3182.8,954.6,3178.4,983.1,3171.5,1010.7z M3548.9,805.1
	c4.7-5.4,7.3-7.3,8.5-9.9c21.7-46.1,43.4-91.9,55.6-142.1c14.3-58.7,29.6-117.2,30-177.8c0.4-60.3-3-120.7-4.8-181
	c-0.3-10.9-3.1-20.8-11.8-29.8C3593.3,338.4,3537,728.2,3548.9,805.1z"/>
<path d="M2993.7,1863.7c10.4,46.9,47.8,77.1,99.4,82.5c46.5,4.9,92.4-0.8,137.4-10.3c65-13.7,129-31.8,189.6-60
	c83.1-38.8,160.3-85.9,220-157.2c17.7-21.1,34.9-43.1,48.7-66.8c9-15.4,11.4-34.6,16.7-52.1c4.9-16.4,6.7-34.1,26.7-41.7
	c14.3-5.5,26-2.9,36.9,6.4c11.4,9.7,10.8,21.9,4.7,33.5c-26.4,50.5-48.3,103.5-91.9,143.5c-22.4,20.5-38.2,49-62,67.3
	c-55.6,42.8-112.3,82.8-178.6,111c-82.5,35.2-165.8,63.1-254,77c-49.1,7.7-97.8,6.6-145.4-9.6c-40.3-13.7-72.3-38.7-94.1-74.9
	c-12-19.8-26.9-25.3-48.5-21.4c-15,2.7-30.4,3.3-45.7,3.7c-6.9,0.2-14.3-1.3-20.8-4c-16.7-6.8-26.2-20.1-24.1-31.7
	c2.3-12.7,21.9-26.3,38.1-24.3c20.4,2.6,40.2,4.5,60.6-1.1c15.1-4.1,22.7-11.9,23.8-27.4c4.5-61.1,31.5-113,64.4-163.3
	c18.4-28.2,33-58.9,59.2-81c25.6-21.5,47.9-46.8,79.2-61.7c29-13.8,57.3-20.4,88.8-10.9c28,8.4,41.9,26.9,41.1,56.5
	c-1,39.3-15.5,73.8-37.2,105.6c-36,52.6-78.7,99.4-129.1,138.5c-28.2,21.9-58.4,41-87.7,61.5
	C3004.1,1855.4,2998.7,1859.8,2993.7,1863.7z M2988.6,1798.9c13.6-7.5,23.6-12.1,32.5-18.3c16.8-11.7,33.3-23.7,49.1-36.6
	c47.5-39,92-81,122.2-135.6c6.8-12.3,13-25.9,15.2-39.6c4.3-27-10-39.4-35.9-31.5c-13.4,4-27.3,10.3-37.7,19.3
	c-23.1,20-46.1,40.6-65.5,64c-37.4,45.2-63.9,96.9-79.7,153.6C2987.1,1780.4,2988.6,1787.4,2988.6,1798.9z"/>
<path d="M565.3,347.7c-9.2,29.6-25.4,54.8-48.6,75.4c-9,8-16.3,17.9-24.9,26.5c-18.7,18.7-37.5,37.2-56.5,55.6
	c-14.5,14.1-31.6,25.9-34,49.1c-0.5,5-10.8,9.6-17.3,13c-6.9,3.7-16.6,3.8-21.8,8.8c-22.2,21.1-43,43.6-64.6,65.4
	c-27.2,27.4-53.5,55.9-82.3,81.5c-29.3,26.1-35.7,44-18,80.8c25.3,52.6,39,107.8,36.6,165.8c-2.1,48.4-13.9,95.6-41.4,136
	c-12.2,18-31.3,32.5-49.7,45c-27.9,19-86.6,7.8-105-27.4c-18.1-34.6-17.8-70.8-19-107.1c-1.7-54.4,15.1-105.3,39.3-152.8
	c14.7-28.8,35.8-54.7,56.1-80.3c12.3-15.5,14.5-28.6,7.1-47.4C102.1,686.8,89.6,636.8,99,583c8.7-49.8,30-90.5,72.2-119.1
	c53.7-36.5,146.5-28.2,193.8,16.9c30.1,28.7,30.2,28.9,62.3-1.7c16.2-15.4,31.1-32.2,47.3-47.5C504.5,403.3,535,375.6,565.3,347.7z
	 M360.6,539.5c-29.5-39.7-65.1-61.7-110-55.8c-44.6,5.9-80.3,29.9-96.5,75.2c-9.8,27.5-12.3,56-7.6,84.8
	c4.1,24.6,4.5,50.7,24.4,75.2C234.3,659,296.2,600.4,360.6,539.5z M144.9,807.7c-7.1,6.4-11,9.5-14.4,13.1
	c-29.4,31.9-43,71.2-53.1,112.4c-11.9,48.5-14.6,97-4.7,146c3.7,18.2,10.9,33,31.1,37.5c20.7,4.5,32.9-7.5,43.1-22.5
	c24.6-36,42.4-75.1,40.5-119.4c-1.3-31.4-8.9-62.6-12.3-94C172.3,854.4,158.7,833.2,144.9,807.7z"/>
<path d="M4355,457.6c-1.3,13.6-7.3,23.4-22.9,22.1c-94.8-8.2-160.4,87.5-161.1,172.2c-0.5,63.2,22,118.5,55.3,169.5
	c28.3,43.5,61.3,84.1,92.1,126c4.8,6.5,9.8,13.1,13.7,20.2c21.6,39.5,7.7,74.4-35.7,87.9c-29.9,9.3-60.6,7.1-91.3,3
	c-42.6-5.7-78.1-29.1-116.4-45.5c-23.4-10-47.3-18.9-71-28.3c-2.8-1.1-6.9-1.1-8.5-3.1c-3.9-5.2-8.9-11.2-9.2-17
	c-0.1-3.3,8.2-9.9,12.8-9.9c15.1-0.1,31.3-1,45.1,3.9c36.4,13.2,71.4,30.2,107.6,44.1c28.7,11.1,58.7,17.5,89.9,14.2
	c31-3.2,37.6-16.5,19.5-42.3c-28.7-41.1-60-80.4-87.5-122.2c-35.1-53.4-63-110.3-65.9-176c-3.2-71.7,18.3-135.5,66.9-188.1
	c29.2-31.6,68-48.3,111.3-52.8C4317.7,433.5,4336.3,441.3,4355,457.6z"/>
<path d="M3910.9,645.5c3.3-19.1,7.3-41.1,11-63.2c2.7-16.1,5-32.2,7.2-48.4c3.1-22.1,18-34.9,36.7-31.2
	c15.8,3.1,21.5,17.5,16.2,39.1c-10.2,41.6-20.7,83.1-29.8,124.9c-2.9,13.3-5.9,23.8-22.1,23.6c-18.7-0.2-16.3-14.6-17.9-26.3
	C3911.5,658.9,3911.5,653.8,3910.9,645.5z"/>
<path d="M2743.8,1400.7c-3.8,5-7.8,15.4-14.4,17.4c-6.7,2.1-16.6-3-23.9-7.1c-4.8-2.7-7.1-9.7-11.2-14.2c-8.4-9-14.2-20.6-5.6-29.7
	c7.5-7.9,20.2-12.1,31.4-14.6c4.1-0.9,12.8,6.5,15.1,11.9C2739.5,1374.5,2740.5,1385.9,2743.8,1400.7z"/>
<path class="st0" d="M1711.2,620.5c10.2,34.5,7.1,64.7,3.2,94.7c-9,69.6-35,133.4-67,195.4c-21.8,42.2-46.8,81.4-81.6,113.9
	c-11,10.3-22.2,20.7-39.9,22.9c-12.4-30-8.9-59.1-2.7-87.7c10.2-47,27.8-91.3,48.7-134.8c31.7-66,76.5-123.1,117.8-182.6
	C1694.7,635.3,1701.9,629.8,1711.2,620.5z"/>
<path class="st0" d="M1050.1,912.6c-8.7-41.1-2.4-75.9,3.8-109.5c11.8-63.3,29.5-125.2,61.3-182c7.5-13.3,16.6-25.8,25.4-38.3
	c9.7-13.9,25.4-22.1,39.7-16c11.2,4.8,21.9,18.9,25.5,31.1c4.8,16,3.8,34.3,2.7,51.4c-2.9,45.2-25.1,83.7-45.9,122.4
	c-24.3,45.3-55.3,85.8-90.5,123.2C1066.9,900.5,1060.1,904.7,1050.1,912.6z"/>
<path class="st0" d="M2439.9,897.4c-2-48.8,6.8-91.4,21.7-132.7c15.8-43.8,43.5-80.3,74-115c18.7-21.2,42-31.9,69.9-32.9
	c24.3-0.8,34.7,9.8,30.2,33.7c-3.2,16.8-8.6,33.8-16.2,49.2c-36.9,74.5-91.4,134.5-156.4,185.5
	C2457.8,889.5,2450.8,891.8,2439.9,897.4z"/>
<path class="st0" d="M1997.7,1893.9c0-35.9-3.6-69.8,0.7-102.6c11.9-92.2,57.6-167,127.2-227.2c14.3-12.3,32.5-21.3,50.4-27.9
	c24.4-9,46.6-0.9,60.1,22.8c10.9,19.2,19.6,40.6,24.7,62.1c12.2,51.1,14.1,103,6.8,155.4c-2.5,17.7-10.1,27.5-26.6,33
	c-52.2,17.4-104.3,35.2-156.2,53.4c-19.2,6.7-37.6,15.4-56.6,22.5C2018.6,1888.8,2008.7,1890.8,1997.7,1893.9z"/>
<path class="st0" d="M2254,1854.1c-5.1,11.5-11.1,22.6-15.1,34.4c-18,53.7-49,98.7-89.5,137.7c-31.9,30.7-69.9,49.3-113.4,56.8
	c-7.9,1.3-16.2,0.8-24.2-0.1c-15.4-1.6-24.2-9.9-23.8-26.3c0.7-27.6-0.2-55.3,2.7-82.7c1-9.4,9.5-20.9,17.9-26.1
	c24.2-15.1,49.2-29.7,75.5-40.5c48.1-19.8,97.4-36.8,146.3-54.8c5.5-2,11.5-2.5,17.2-3.7C2249.8,1850.6,2251.9,1852.3,2254,1854.1z"
	/>
<path class="st0" d="M1923.9,2105.3c11.4,21.2,5.8,176.4-5,222.1C1911.8,2253.1,1912.3,2178.9,1923.9,2105.3z"/>
<path class="st0" d="M3171.5,1010.7c6.9-27.7,11.4-56.2,21-82.8c32.3-89.1,79.5-170.2,138.2-244.5c20.9-26.4,42.9-52.5,67.5-75.3
	c20.7-19.2,45.4-34.6,69.6-49.6c7.8-4.8,19.9-3.5,30-3.3c10.5,0.2,17.3,6.8,17.3,17.7c0.1,14.3-0.2,28.6-1.6,42.8
	c-4.9,48.8-11.3,97.5-15.2,146.4c-3,38.7-2.2,77.6-5,116.3c-0.9,12.4-5,27.3-13,36.1c-33.6,37-68.4,72.9-104.3,107.6
	c-29.8,28.8-66.8,46.8-104.9,62.2c-3.8,1.5-7.8,2.4-11.8,3.5c-44.6,12.1-77.7-9.5-83.9-55c-1-7-0.1-14.3-0.1-21.5
	C3174.1,1011.3,3172.8,1011,3171.5,1010.7z"/>
<path class="st0" d="M3548.9,805.1c-11.9-76.9,44.4-466.7,77.5-540.5c8.7,9,11.5,18.9,11.8,29.8c1.8,60.3,5.2,120.7,4.8,181
	c-0.4,60.6-15.7,119.1-30,177.8c-12.3,50.2-33.9,96-55.6,142.1C3556.2,797.8,3553.6,799.7,3548.9,805.1z"/>
<path class="st0" d="M2988.6,1798.9c0-11.5-1.5-18.5,0.2-24.6c15.8-56.8,42.3-108.4,79.7-153.6c19.4-23.4,42.4-44.1,65.5-64
	c10.4-9,24.3-15.2,37.7-19.3c25.9-7.8,40.1,4.5,35.9,31.5c-2.2,13.7-8.4,27.3-15.2,39.6c-30.2,54.6-74.7,96.6-122.2,135.6
	c-15.8,12.9-32.4,24.9-49.1,36.6C3012.2,1786.8,3002.1,1791.4,2988.6,1798.9z"/>
<path class="st0" d="M360.6,539.5C296.2,600.4,234.3,659,170.9,718.9c-19.9-24.5-20.3-50.6-24.4-75.2c-4.7-28.8-2.2-57.2,7.6-84.8
	c16.2-45.4,51.9-69.3,96.5-75.2C295.6,477.8,331.2,499.8,360.6,539.5z"/>
<path class="st0" d="M144.9,807.7c13.8,25.5,27.4,46.6,30.3,73.1c3.4,31.4,10.9,62.5,12.3,94c1.9,44.3-15.9,83.4-40.5,119.4
	c-10.2,15-22.4,27-43.1,22.5c-20.2-4.4-27.5-19.3-31.1-37.5c-9.9-49.1-7.2-97.6,4.7-146c10.1-41.2,23.7-80.4,53.1-112.4
	C133.8,817.2,137.8,814.1,144.9,807.7z"/>
</svg>
