<?xml version="1.0" encoding="utf-8"?>
<!-- Generator: Adobe Illustrator 21.1.0, SVG Export Plug-In . SVG Version: 6.00 Build 0)  -->
<svg version="1.1" id="Layer_1" xmlns="http://www.w3.org/2000/svg" xmlns:xlink="http://www.w3.org/1999/xlink" x="0px" y="0px"
	 viewBox="0 0 4024.1 2147.3" style="enable-background:new 0 0 4024.1 2147.3;" xml:space="preserve">
<style type="text/css">
	.st0{fill:#FFFFFF;}
	.st1{fill:#231F20;}
</style>
<polygon class="st0" points="-280.7,-288.3 -280.2,-288.2 -280.2,-288.9 -280.6,-288.9 "/>
<path class="st1" d="M341.4,821c1-21.9-5.7-35.9-20-46.9c-8-6.1-14.7-13.8-22.1-20.8c-7.1-6.7-13.9-13.8-21.6-19.8
	c-9.1-7-16.6-4.1-19.2,6.9c-1,4.4,0,9.3-0.1,13.9c-0.1,5.1,0,10.3-0.9,15.4c-2.6,15.8-6,31.6-8.4,47.5c-4.5,29.8,9.8,50.8,32.9,67.1
	c8.5,6,17,5.7,25.9-0.8C330.6,867,342.3,845.2,341.4,821 M453.5,482.8c-8.7-7.5-15.8-12.8-22-19c-12-12.3-11.7-25.4,1.2-36.4
	c6.2-5.3,14-8.9,21.1-13.1c8.9-5.3,10.9-8.4,6.9-17.6c-2.6-5.8-6.9-12.9-12.2-15c-20.9-8.5-37-22.9-52.5-38.3
	c-3.1-3.1-7.8-5.9-12-6.5c-12.2-1.8-24.7-2.3-37-3.6c-27.9-3-52.7,7.4-75.1,21.4c-18.8,11.7-35.8,26.8-52,42
	c-13.6,12.9-25.8,28.7-29.6,47.1c-5.7,27.8-2,56.1,7.1,83.1c4.1,12.3,10.7,23.7,16.2,35.5c8.8,19,20,36.2,36.3,49.8
	c12.2,10.2,17.4,10.7,30.1,1.1c34.1-25.6,68.2-51.2,102.5-76.7c14.6-10.8,29.6-21,44.2-31.9C435.4,498.3,443.5,491.1,453.5,482.8
	 M549,476.7c-5.8,4.7-9.3,7.4-12.6,10.4c-14.2,13-28.3,26-42.4,39c-1.9,1.8-3.9,4-6.2,4.7c-19.3,5.8-32.4,20.3-47.1,32.7
	c-5.1,4.3-11,8-17.1,10.7c-21.2,9.4-39.8,22.3-56.9,38c-12.2,11.3-25.6,21.3-38.4,32c-2,1.7-4,3.4-5.8,5.3
	c-9.9,10.5-8.9,17.4,2.2,27.4c16.2,14.5,33,28.6,47.3,45c15.4,17.7,28,38.4,32.9,61.4c3.7,17.5,3.5,36.3,1.7,54.2
	c-1.6,16.3-7.3,32.3-11.7,48.3c-3.8,13.7-12.8,24.2-24.3,31.7c-18.3,11.9-36.9,23.5-56.3,33.4c-20.9,10.6-43.1,11.3-65.2,2.4
	c-25.7-10.3-43.6-27.9-57.5-52.2C175,871.5,173,840,171.2,808c-0.4-6.9,3.7-14,4.9-21.1c6-33.7,16.2-65.7,35.8-94.1
	c5.8-8.4,4.4-15.7-1.3-22.8c-7.2-8.9-14.4-17.9-22.3-26.1c-10.3-10.7-17.3-23.2-23.5-36.5c-3.9-8.4-9.3-16.2-14.1-24.2
	c-0.8-1.3-2.1-2.4-2.6-3.9c-6.1-16-13.5-31.7-17.7-48.3c-3.5-14-3.9-28.9-4.5-43.5c-2.7-58.4,22.5-104.6,64.1-143.3
	c20.5-19.1,44.6-31.8,70.9-41.5c21.1-7.7,41.7-16.1,64.2-18.9c32.9-4,64.5,0.9,94.5,14.6c18.4,8.5,35.8,19,53.8,28.3
	c10.1,5.2,13.3,14.4,15,24.2c2.2,13.3,4.6,26.3,11.1,38.4c3.5,6.5,7.7,10.2,14.6,8.8c14.3-2.8,28.5-5.9,42.5-10
	c3.7-1.1,7.9-6,8.8-9.8c4-17.2,7-34.7,10.3-52.1c4.9-25.5,10-50.9,14.7-76.5c3.9-21.5,11.6-42,11.9-64.4c0.2-12.7,3.4-26,8-38
	c9.4-24.7,44.4-30,60.4-9.1c4.2,5.5,6.3,14.9,5.3,21.9c-2.8,19-3.8,38.2-6.7,57.2c-3.7,24-15.4,46.7-12.1,71.9
	c0.7,5.3-2,11.2-3.4,16.8c-4.2,16.9-5,34-2.4,51.2c1.6,10.7,3.8,12.5,14.5,10.7c28.3-4.7,56.5-9.9,84.8-14.5
	c18-2.9,36.2-4.6,54.2-7.7c14.3-2.5,28.3-6.6,42.5-9.8c14.2-3.3,27.8-1.8,40.5,5.9c1.8,1.1,3.2,2.9,5,3.7
	c18.6,8,19.4,22.8,17.7,40.4c-2.2,22.7-1.5,45.8-3,68.6c-1.1,17.6-3.7,35.1-5.6,52.7c-2.2,20.1-4.4,40.3-6.6,60.5
	c-2.3,20.7-5.7,41.3-6.7,62.1c-2.5,49.6-19.7,97-21.8,146.8c-0.4,9.5-4.9,19-8.5,28.1c-1.7,4.1-5.5,7.6-9,10.6
	c-19.4,16.5-42.5,8.7-46.4-16.4c-2-12.7-2.3-26.1-0.8-38.9c7.2-59.9,16.4-119.7,22.7-179.7c2.3-21.6,2-43.5,4.9-65.2
	c2.7-20.1,5.3-40.2,7.3-60.4c1.1-10.3,1.2-20.7,1.1-31.1c-0.1-9.6-3.5-13.6-13.4-13.1c-14.5,0.8-29.1,2.5-43.4,5
	c-32.8,5.7-65.5,12.2-98.3,18.2c-11.3,2.1-22.6,3.9-34,5.1c-9.1,1-14.3,5.4-16.1,14.2c-0.4,2-1.4,4-1.4,6.1
	c-0.7,27.5-13.2,52.4-16.7,79.2c-3.5,26.8-6.3,53.8-9.9,80.7c-4,29.9-9,59.7-12.8,89.6c-6.6,51.9-8.7,103.8,1.1,155.6
	c1.9,10.1,2.2,20.8,1.3,31.1c-1.5,17.1-20.1,26.5-35,17.8c-18.8-11-32.1-26.8-36.1-48.6c-3.2-17.4-4.9-35.1-6.5-52.7
	c-3.4-38.4-3.3-77,0.3-115.4c2-21.7,4.5-43.7,9.9-64.7c7.8-30,9.4-60.7,14.2-91c2.7-16.9,4.4-34,6.5-51
	C548.3,486.7,548.5,483.2,549,476.7"/>
<path class="st1" d="M2108,1236.6c-1.4,0.1-2.9,0.2-4.3,0.2c-16.4,23.6-26.8,50.2-37.5,76.6c-6.5,16.1-6.3,33.8-10.6,50.2
	c-10.7,41.6-5.7,84.1-9.9,126c6.2,26.5,5.1,53.7,7.8,80.6c1.8,18,7,35.7,10.9,53.4c3.4,15.8,7.6,31.4,10.6,47.3
	c5.2,27.7,11.5,55,24.4,80.4c7.8,15.3,15.3,30.8,24.1,45.5c4.4,7.3,10.3,17,20.2,14.6c9.4-2.3,9.3-13.5,10-21.3
	c2.5-29.1,6.6-58.3,5.2-87.3c-3-65.1-8.7-130-13.6-194.9c-6.6-86.4-21.8-171.6-33.9-257.3C2110.8,1245.9,2109.2,1241.3,2108,1236.6
	 M2074.5,1006.6c-3.2,5.4-6.1,9.3-8,13.6c-6.7,15.2-12.4,31-19.7,45.9c-16.9,34.3-40.1,64.6-62.9,95c-16.1,21.5-39.8,30.7-64.3,35.5
	c-18.1,3.6-39.3-5.1-46.7-30.2c-11.1-38-14.6-76.6-11.1-116c2.1-23.4,2.6-46.9,4.5-70.3c1.2-15,3.8-29.9,5.4-44.8
	c0.7-6.7,1.2-13.5,0.9-20.2c-0.8-16.7-2.1-33.3-3.4-49.9c-1.6-21.9-12.4-30.3-33.4-23.9c-13.3,4-26.8,9.5-38.3,17.3
	c-17,11.6-34.2,22.9-48.1,39.2c-36.6,43-58,93.6-76.3,145.9c-6.9,19.7-13.8,39.5-18.2,59.8c-5.7,26.4-8.8,53.4-13,80.1
	c-2.3,14.4-3.9,28.9-6.9,43.2c-3.5,17.2-21.1,26.9-38.2,21.9c-2.5-0.7-5-1.7-7.6-1.9c-9.2-0.9-14-6.1-15.6-14.8
	c-1.7-9.2-4-18.4-4.6-27.7c-3.3-59.3-6.5-118.7-9.2-178c-0.9-19.8-0.3-39.6-0.1-59.4c0.1-9.7,2.1-19.8,12-23.7
	c10.1-4.1,21.2-5.9,31.6,0.9c9.2,6,15.6,13.6,16.1,25.2c0.2,5.5,1.2,11,2.2,19c3.6-3.6,5.8-4.9,6.9-6.9c10-17.7,19.5-35.6,29.7-53.2
	c23.1-40,50.1-76.4,90.3-101.5c22.3-13.9,45.7-25.3,70.6-32.6c16.3-4.7,33.5-6.9,50.5-8c23.4-1.6,56.4,23.2,57,49.9
	c0.6,26,2.8,52,3,78c0.2,24.5-0.9,49-2.1,73.5c-1,20.3-3.4,40.5-4.5,60.8c-1,17.7-1.4,35.4-1.7,53.1c-0.1,4.9,1,9.8,1.8,16.9
	c5.3-2.8,8.7-3.9,11.1-6c3.9-3.4,7.2-7.5,10.6-11.5c24.1-28.6,49.4-56.2,62.4-92.5c7.3-20.6,18.3-39.8,25.4-60.4
	c7.6-22.1,14-44.8,18.4-67.7c4.3-22.4,5.8-45.5,7.5-68.3c0.5-6.3-2.9-12.8-4.2-19.2c-0.8-3.9-1.4-7.9-1.2-11.9
	c0.3-5.2,1.4-10.3,2.3-15.4c2.8-15.9,17.6-22.4,31.7-14c2.2,1.3,4.3,3.6,6.6,3.9c17.1,2.7,20.8,15.7,22.5,29.7
	c3.8,31.5,7.3,63.1,10.7,94.6c0.8,6.9,0.8,13.9,7.9,16c-1.5,7.2-4.4,13.7-3.9,19.8c4.7,51.4,10,102.7,15.2,154
	c0.2,2,1.3,3.9,2.5,7.5c13.9-1.8,27.7-3.9,39.1-12.5c13-9.8,27.2-17.1,42.2-23.3c5.7-2.4,10.7-6.4,16.1-9.5
	c6.7-3.9,13.5-7.8,20.4-11.4c8.3-4.3,16.7-8.5,25.2-12.4c4.2-1.9,8.6-4.1,13-4.4c9.7-0.8,18.3-3.9,26-9.5
	c13.7-9.9,28.5-14,45.6-12.1c13.3,1.5,26.9,0.8,40.4,1.1c21.3,0.5,37.6,12.3,51.7,26.1c5,4.9,7.6,16,6,23
	c-6.1,25.2-13.7,50.2-22.2,74.7c-4.2,12.2-14.3,12.8-23.2,3.5c-6.3-6.6-8.5-14.2-5.7-23c1.6-4.9,3.8-9.7,5.5-14.6
	c2.1-6.4,4.7-12.8,5.6-19.5c1.7-13-5-21.1-18.1-22c-6.2-0.4-12.6-0.1-18.7,0.9c-33.6,5.6-66,15.4-96.1,31.3
	c-30.8,16.2-61.1,33.5-91.5,50.4c-18.6,10.3-32.3,26.1-45.6,42.2c-5.3,6.4-6.9,14.1-6,22c2.6,24.3,5.5,48.6,8.4,72.8
	c3.2,26.9,6,53.8,10,80.6c3.6,24.2,8.8,48.1,12.5,72.3c2.6,17,3.9,34.1,5.8,51.3c2.5,22.2,5.5,44.4,7.6,66.7
	c2.3,24.9,3.6,49.8,5.5,74.7c1.6,21.3,3.7,42.6,4.9,63.9c2.7,46.7,8.7,93.5-1.1,140.1c-2.6,12.2-4.2,24.6-6.4,36.9
	c-2.3,12.6-7.5,24.1-16.2,33.3c-4.8,5.1-11.5,8.4-17.6,12.1c-2.6,1.6-6.2,1.4-8.9,2.7c-19.1,9.5-34.4,2.4-50.3-9.1
	c-28.9-21-43.7-51.2-57.3-82.4c-6-13.8-11.8-27.9-16-42.4c-5.9-20.4-9.3-41.6-15.5-62c-9-29.5-11.5-60.3-18.5-90.1
	c-4-17.2-7.2-34.6-10.5-52c-0.9-4.5-0.8-9.3-0.9-13.9c-0.7-25-1.5-50-2-75c-0.2-7.8,0.2-15.6,0.4-23.4c0.2-7.8,0.5-15.5,0.8-23.3
	c0.1-3.1-0.3-6.3,0.2-9.4c5.9-33.9,11.9-67.7,17.8-101.5c2.1-11.9,6.1-22.7,13.4-32.9c7.5-10.5,13.2-22.3,15.1-35.7
	c0.7-5.2,4.6-10.1,7.7-14.7c7.3-10.7,15.5-20.9,22.4-31.8c6.9-11,12.7-22.7,19-34c7.9-14,7.3-29,5.2-44.2
	c-3.6-26.3-7.1-52.7-10.6-79C2082.6,1021.1,2082.2,1013.9,2074.5,1006.6"/>
<path class="st1" d="M1324.4,1099.7c2.7-0.5,3.8-0.4,4.6-0.9c1.7-1.1,3.6-2.2,4.9-3.8c20.4-26.8,46.7-49.3,60.2-81.3
	c2.6-6.2,7.1-11.5,10.7-17.3c28.9-46.8,51.2-95.7,61.2-150.7c6.7-36.6,4-71.4-4.4-106.5c-7-29.3-35-39-59.5-21.1
	c-16.8,12.3-29.3,28.4-36.3,48c-10.9,30.3-23.1,60.2-26.9,92.7c-2.6,22.2-7.9,44.1-9.9,66.4c-3.9,43-6.5,86.2-9.1,129.4
	C1318.9,1069.5,1317.6,1084.7,1324.4,1099.7 M1340.1,1670.5c0.3-5,0.7-9.9,1-14.9c1-17.6,1.7-35.3,3.1-52.9
	c0.6-7.2,1.8-16.7,10.4-16.9c5.3-0.1,11.7,5.8,15.9,10.4c9.3,10.3,9.9,23.8,10.6,36.8c1,19.3-0.2,38.7,2,57.8
	c1.9,16.1-0.6,31.1-5.2,46.1c-2.1,7-5.5,13.6-7.4,20.6c-7.4,26.8-30,32.9-52.6,37.8c-10,2.2-19.4-2-25-12.1
	c-5.4-9.6-10.4-19-12.1-30.2c-1.7-11.2-6.6-22-8.2-33.3c-4.6-32.5-8.7-65-12-97.6c-2.9-28.5-4.4-57.1-6.5-85.7
	c-0.4-5.7-0.6-11.5-0.6-17.2c-0.1-22.9-0.1-45.8-0.1-68.7c0-0.5-0.1-1.1-0.1-1.6c5.4-47.3-3.2-94.6,1.5-141.9
	c1.1-10.9,1.8-21.8,2.1-32.7c0.2-5-0.8-10-1.3-16c-4.7,0.8-8,0.6-10.5,1.9c-15.2,8-30.1,16.5-45.3,24.4
	c-22.7,11.8-45.3,23.8-72,23.9c-21.3,0-42.6,1.2-63.9,0.8c-16.6-0.4-31.4-7.7-45.1-16.3c-19.7-12.4-24.9-31.7-14.8-52.6
	c4-8.3,8.6-17,14.9-23.4c12.4-12.6,24.9-10.2,31.6,6c3.9,9.3,9.9,13.8,19.2,16c22.7,5.3,45.2,5.7,68.2,0.7
	c16-3.5,30.7-8.9,44.6-17.6c19.5-12.1,39.6-23.1,59.5-34.5c13.7-7.8,18.6-19.4,18.5-35.1c-0.5-57.3-0.9-114.7,0.3-172
	c0.5-21.7,5.3-43.3,8.4-64.9c2.1-14.9,4.7-29.8,6.8-44.8c6.3-46.1,14.5-91.8,34.7-134.1c9.6-20,18.8-40.6,37.2-55.2
	c32.1-25.3,68.3-31.7,107.6-24.8c29,5.1,42.4,24.4,52.8,50.7c8.7,22.1,9.2,44.5,13.1,66.8c0.8,4.6,1.6,9.3,1.4,14
	c-0.9,28.1,0.5,56.6-6.5,84c-6.1,24-7.8,49.3-21.5,71.2c-3.7,5.9-4.2,13.8-6.2,20.8c-5,17.7-12.8,33.9-24.4,48.4
	c-6.4,8-10.3,17.9-15.8,26.7c-8.2,13.3-16.5,26.5-25.4,39.4c-6.8,9.8-14.5,19-21.9,28.4c-21,26.5-42.1,53-63.3,79.4
	c-8.9,11.1-11.8,24.1-12.5,37.9c-1.7,34.8-3.8,69.7-4.9,104.5c-0.6,20.3,0.2,40.6,0.6,60.9c1,50,2,100,3.1,150
	c0.1,5.7,0.4,11.5,0.8,17.2c1.3,22.9,2.5,45.7,4.2,68.6c0.9,13,2.6,25.9,4.1,38.8c0.3,2.4,1.8,4.6,2.8,6.8
	C1337.4,1670.8,1338.7,1670.6,1340.1,1670.5"/>
<path class="st1" d="M999,678.8c1.6-36,1.3-71.6,5.3-106.7c3.5-30.7,4.9-61.2,4.9-91.9c0-13.6,6.6-25.1,12.9-36.5
	c3.2-5.7,8.4-7.8,14.7-5.1c6.7,3,13,6.5,19.6,9.6c12.2,5.8,14.6,4.8,20.5-7.2c5.8-11.7,12.5-22.9,18-34.6
	c8.9-18.9,22.3-33.5,38.9-46c16.1-12.2,31.2-25.8,46.9-38.6c20.4-16.7,44.2-24.8,70.2-27.5c10.9-1.1,21.7-3,32.6-3.7
	c26.6-1.7,53-1.4,78,10.3c4.7,2.2,10.1,2.6,14.9,4.4c5.7,2.2,9.7,6.2,10,12.7c0.3,6.4-4.1,9.8-9.1,11.2c-9,2.4-18.2,4.4-27.4,5.2
	c-11.8,1.1-23.7,0.5-35.6,1.4c-14,1.1-28.4,1.2-41.8,4.8c-21.1,5.7-41.2,14.9-58.2,29.1c-28.6,23.8-54.9,49.7-71.3,83.9
	c-1.6,3.3-3.4,6.5-4.6,9.9c-9,25.5-18,50.9-26.9,76.5c-0.7,2-1.2,4-1.4,6.1c-2.6,28-5.4,56-7.7,84c-2.6,31.7-3,63.6-7.5,95
	c-3.8,26.7-11.5,52.9-18.6,79.1c-3.7,13.7-16.8,18.9-28.8,21.2c-12.1,2.3-23.3-2.3-31.1-13.6c-9.9-14.5-11.2-31.5-13-47.7
	C1000.2,735.6,1000.3,706.8,999,678.8"/>
<path class="st1" d="M839.9,185.2c8.1-0.7,17,1.8,23.6,9.4c2.9,3.3,5,7.6,6.3,11.8c3,9.9,5.4,19.9,7.7,29.9c1.3,6,2.5,12.2,2.6,18.3
	c0.2,10.7-5.1,17.2-15.5,20.5c-9.1,2.9-15.6,0-22.7-8.8c-5.5-6.7-11.3-13.5-18.1-18.6c-12.6-9.4-17.4-21.1-15.5-36.5
	C810.6,192.7,819.2,185,839.9,185.2"/>
<path class="st0" d="M453.5,482.8c-10,8.3-18.1,15.5-26.8,22c-14.5,10.9-29.6,21.1-44.1,31.9c-34.3,25.4-68.4,51-102.5,76.7
	c-12.7,9.6-17.9,9.1-30.1-1.1c-16.3-13.7-27.5-30.8-36.3-49.8c-5.5-11.8-12.1-23.2-16.2-35.5c-9.1-27-12.7-55.3-7.1-83.1
	c3.7-18.4,15.9-34.2,29.6-47c16.2-15.3,33.2-30.3,52-42c22.5-14,47.2-24.4,75.2-21.4c12.3,1.3,24.7,1.8,37,3.6
	c4.3,0.6,8.9,3.4,12,6.5c15.6,15.5,31.6,29.8,52.5,38.4c5.3,2.1,9.7,9.2,12.2,15c4,9.2,2,12.3-6.9,17.6c-7.1,4.2-14.9,7.8-21.1,13.1
	c-13,11-13.3,24.1-1.2,36.4C437.7,470,444.8,475.3,453.5,482.8"/>
<path class="st0" d="M341.4,821c0.9,24.2-10.8,46-33.5,62.5c-8.9,6.4-17.4,6.8-25.9,0.7c-23.1-16.3-37.4-37.3-32.9-67.1
	c2.4-15.9,5.8-31.6,8.4-47.4c0.8-5,0.8-10.2,0.9-15.4c0.1-4.7-0.9-9.5,0.1-13.9c2.6-11,10.1-13.9,19.2-6.9
	c7.7,5.9,14.5,13.1,21.6,19.8c7.4,6.9,14.1,14.7,22.1,20.8C335.7,785.1,342.5,799.1,341.4,821"/>
<path class="st0" d="M2108,1236.6c1.2,4.7,2.8,9.3,3.4,14.1c12.1,85.6,27.3,170.9,33.9,257.3c4.9,64.9,10.6,129.9,13.6,194.9
	c1.3,29-2.7,58.3-5.2,87.3c-0.7,7.8-0.6,19-10,21.3c-10,2.4-15.9-7.3-20.2-14.6c-8.8-14.7-16.2-30.3-24-45.5
	c-13-25.3-19.2-52.7-24.4-80.4c-3-15.9-7.2-31.5-10.6-47.3c-3.9-17.8-9.1-35.5-10.9-53.4c-2.7-26.8-1.6-54-7.8-80.6
	c4.2-41.9-0.8-84.4,9.9-126c4.2-16.5,4-34.1,10.6-50.2c10.7-26.5,21.1-53,37.5-76.6C2105.2,1236.7,2106.6,1236.7,2108,1236.6"/>
<path class="st0" d="M1324.4,1099.7c-6.8-15-5.5-30.2-4.6-45.2c2.6-43.2,5.2-86.3,9.1-129.4c2-22.2,7.4-44.2,9.9-66.4
	c3.7-32.5,16-62.4,26.9-92.7c7-19.5,19.5-35.6,36.3-48c24.5-17.9,52.5-8.2,59.5,21.1c8.4,35.1,11.1,69.9,4.4,106.5
	c-10,55-32.3,103.9-61.2,150.7c-3.6,5.8-8.1,11.1-10.7,17.3c-13.5,32-39.7,54.5-60.2,81.3c-1.2,1.6-3.1,2.7-4.9,3.9
	C1328.2,1099.3,1327,1099.3,1324.4,1099.7"/>
</svg>
