<svg xmlns="http://www.w3.org/2000/svg" viewBox="0 0 2349.07 1764.49"><title>stirfry</title><path d="M341.4,821c1-21.9-5.7-35.9-20-46.9-8-6.1-14.7-13.8-22.1-20.8-7.1-6.7-13.9-13.8-21.6-19.8-9.1-7-16.6-4.1-19.2,6.9-1,4.4,0,9.3-.1,13.9-.1,5.1,0,10.3-.9,15.4-2.6,15.8-6,31.6-8.4,47.5-4.5,29.8,9.8,50.8,32.9,67.1,8.5,6,17,5.7,25.9-.8,22.7-16.5,34.4-38.3,33.5-62.5M453.5,482.8c-8.7-7.5-15.8-12.8-22-19-12-12.3-11.7-25.4,1.2-36.4,6.2-5.3,14-8.9,21.1-13.1,8.9-5.3,10.9-8.4,6.9-17.6-2.6-5.8-6.9-12.9-12.2-15-20.9-8.5-37-22.9-52.5-38.3-3.1-3.1-7.8-5.9-12-6.5-12.2-1.8-24.7-2.3-37-3.6-27.9-3-52.7,7.4-75.1,21.4-18.8,11.7-35.8,26.8-52,42-13.6,12.9-25.8,28.7-29.6,47.1-5.7,27.8-2,56.1,7.1,83.1,4.1,12.3,10.7,23.7,16.2,35.5,8.8,19,20,36.2,36.3,49.8,12.2,10.2,17.4,10.7,30.1,1.1q51.15-38.4,102.5-76.7c14.6-10.8,29.6-21,44.2-31.9,8.7-6.4,16.8-13.6,26.8-21.9m95.5-6.1c-5.8,4.7-9.3,7.4-12.6,10.4q-21.3,19.5-42.4,39c-1.9,1.8-3.9,4-6.2,4.7-19.3,5.8-32.4,20.3-47.1,32.7a72.24,72.24,0,0,1-17.1,10.7c-21.2,9.4-39.8,22.3-56.9,38-12.2,11.3-25.6,21.3-38.4,32a72.88,72.88,0,0,0-5.8,5.3c-9.9,10.5-8.9,17.4,2.2,27.4,16.2,14.5,33,28.6,47.3,45,15.4,17.7,28,38.4,32.9,61.4,3.7,17.5,3.5,36.3,1.7,54.2-1.6,16.3-7.3,32.3-11.7,48.3-3.8,13.7-12.8,24.2-24.3,31.7-18.3,11.9-36.9,23.5-56.3,33.4-20.9,10.6-43.1,11.3-65.2,2.4-25.7-10.3-43.6-27.9-57.5-52.2C175,871.5,173,840,171.2,808c-.4-6.9,3.7-14,4.9-21.1,6-33.7,16.2-65.7,35.8-94.1,5.8-8.4,4.4-15.7-1.3-22.8-7.2-8.9-14.4-17.9-22.3-26.1-10.3-10.7-17.3-23.2-23.5-36.5-3.9-8.4-9.3-16.2-14.1-24.2-.8-1.3-2.1-2.4-2.6-3.9-6.1-16-13.5-31.7-17.7-48.3-3.5-14-3.9-28.9-4.5-43.5-2.7-58.4,22.5-104.6,64.1-143.3,20.5-19.1,44.6-31.8,70.9-41.5,21.1-7.7,41.7-16.1,64.2-18.9a173.3,173.3,0,0,1,94.5,14.6c18.4,8.5,35.8,19,53.8,28.3,10.1,5.2,13.3,14.4,15,24.2,2.2,13.3,4.6,26.3,11.1,38.4,3.5,6.5,7.7,10.2,14.6,8.8,14.3-2.8,28.5-5.9,42.5-10,3.7-1.1,7.9-6,8.8-9.8,4-17.2,7-34.7,10.3-52.1,4.9-25.5,10-50.9,14.7-76.5,3.9-21.5,11.6-42,11.9-64.4.2-12.7,3.4-26,8-38,9.4-24.7,44.4-30,60.4-9.1,4.2,5.5,6.3,14.9,5.3,21.9-2.8,19-3.8,38.2-6.7,57.2-3.7,24-15.4,46.7-12.1,71.9.7,5.3-2,11.2-3.4,16.8a129.94,129.94,0,0,0-2.4,51.2c1.6,10.7,3.8,12.5,14.5,10.7,28.3-4.7,56.5-9.9,84.8-14.5,18-2.9,36.2-4.6,54.2-7.7,14.3-2.5,28.3-6.6,42.5-9.8s27.8-1.8,40.5,5.9c1.8,1.1,3.2,2.9,5,3.7,18.6,8,19.4,22.8,17.7,40.4-2.2,22.7-1.5,45.8-3,68.6-1.1,17.6-3.7,35.1-5.6,52.7q-3.3,30.15-6.6,60.5c-2.3,20.7-5.7,41.3-6.7,62.1-2.5,49.6-19.7,97-21.8,146.8-.4,9.5-4.9,19-8.5,28.1-1.7,4.1-5.5,7.6-9,10.6C830,831.8,806.9,824,803,798.9a144.78,144.78,0,0,1-.8-38.9c7.2-59.9,16.4-119.7,22.7-179.7,2.3-21.6,2-43.5,4.9-65.2,2.7-20.1,5.3-40.2,7.3-60.4a268.61,268.61,0,0,0,1.1-31.1c-.1-9.6-3.5-13.6-13.4-13.1a372,372,0,0,0-43.4,5c-32.8,5.7-65.5,12.2-98.3,18.2-11.3,2.1-22.6,3.9-34,5.1-9.1,1-14.3,5.4-16.1,14.2-.4,2-1.4,4-1.4,6.1-.7,27.5-13.2,52.4-16.7,79.2s-6.3,53.8-9.9,80.7c-4,29.9-9,59.7-12.8,89.6-6.6,51.9-8.7,103.8,1.1,155.6a115.63,115.63,0,0,1,1.3,31.1,23.13,23.13,0,0,1-35,17.8c-18.8-11-32.1-26.8-36.1-48.6-3.2-17.4-4.9-35.1-6.5-52.7a635.47,635.47,0,0,1,.3-115.4c2-21.7,4.5-43.7,9.9-64.7,7.8-30,9.4-60.7,14.2-91,2.7-16.9,4.4-34,6.5-51,.4-3,.6-6.5,1.1-13m1559,759.9c-1.4.1-2.9.2-4.3.2-16.4,23.6-26.8,50.2-37.5,76.6-6.5,16.1-6.3,33.8-10.6,50.2-10.7,41.6-5.7,84.1-9.9,126,6.2,26.5,5.1,53.7,7.8,80.6,1.8,18,7,35.7,10.9,53.4,3.4,15.8,7.6,31.4,10.6,47.3,5.2,27.7,11.5,55,24.4,80.4,7.8,15.3,15.3,30.8,24.1,45.5,4.4,7.3,10.3,17,20.2,14.6,9.4-2.3,9.3-13.5,10-21.3,2.5-29.1,6.6-58.3,5.2-87.3-3-65.1-8.7-130-13.6-194.9-6.6-86.4-21.8-171.6-33.9-257.3-.6-4.7-2.2-9.3-3.4-14m-33.5-230c-3.2,5.4-6.1,9.3-8,13.6-6.7,15.2-12.4,31-19.7,45.9-16.9,34.3-40.1,64.6-62.9,95-16.1,21.5-39.8,30.7-64.3,35.5-18.1,3.6-39.3-5.1-46.7-30.2a311.36,311.36,0,0,1-11.1-116c2.1-23.4,2.6-46.9,4.5-70.3,1.2-15,3.8-29.9,5.4-44.8a136.61,136.61,0,0,0,.9-20.2c-.8-16.7-2.1-33.3-3.4-49.9-1.6-21.9-12.4-30.3-33.4-23.9-13.3,4-26.8,9.5-38.3,17.3-17,11.6-34.2,22.9-48.1,39.2-36.6,43-58,93.6-76.3,145.9-6.9,19.7-13.8,39.5-18.2,59.8-5.7,26.4-8.8,53.4-13,80.1-2.3,14.4-3.9,28.9-6.9,43.2-3.5,17.2-21.1,26.9-38.2,21.9-2.5-.7-5-1.7-7.6-1.9-9.2-.9-14-6.1-15.6-14.8-1.7-9.2-4-18.4-4.6-27.7-3.3-59.3-6.5-118.7-9.2-178-.9-19.8-.3-39.6-.1-59.4.1-9.7,2.1-19.8,12-23.7,10.1-4.1,21.2-5.9,31.6.9,9.2,6,15.6,13.6,16.1,25.2.2,5.5,1.2,11,2.2,19,3.6-3.6,5.8-4.9,6.9-6.9,10-17.7,19.5-35.6,29.7-53.2,23.1-40,50.1-76.4,90.3-101.5,22.3-13.9,45.7-25.3,70.6-32.6,16.3-4.7,33.5-6.9,50.5-8,23.4-1.6,56.4,23.2,57,49.9.6,26,2.8,52,3,78,.2,24.5-.9,49-2.1,73.5-1,20.3-3.4,40.5-4.5,60.8-1,17.7-1.4,35.4-1.7,53.1-.1,4.9,1,9.8,1.8,16.9,5.3-2.8,8.7-3.9,11.1-6,3.9-3.4,7.2-7.5,10.6-11.5,24.1-28.6,49.4-56.2,62.4-92.5,7.3-20.6,18.3-39.8,25.4-60.4a498.11,498.11,0,0,0,18.4-67.7c4.3-22.4,5.8-45.5,7.5-68.3.5-6.3-2.9-12.8-4.2-19.2a47.64,47.64,0,0,1-1.2-11.9,133,133,0,0,1,2.3-15.4c2.8-15.9,17.6-22.4,31.7-14,2.2,1.3,4.3,3.6,6.6,3.9,17.1,2.7,20.8,15.7,22.5,29.7,3.8,31.5,7.3,63.1,10.7,94.6.8,6.9.8,13.9,7.9,16-1.5,7.2-4.4,13.7-3.9,19.8,4.7,51.4,10,102.7,15.2,154,.2,2,1.3,3.9,2.5,7.5,13.9-1.8,27.7-3.9,39.1-12.5,13-9.8,27.2-17.1,42.2-23.3,5.7-2.4,10.7-6.4,16.1-9.5,6.7-3.9,13.5-7.8,20.4-11.4,8.3-4.3,16.7-8.5,25.2-12.4,4.2-1.9,8.6-4.1,13-4.4a50.14,50.14,0,0,0,26-9.5c13.7-9.9,28.5-14,45.6-12.1,13.3,1.5,26.9.8,40.4,1.1,21.3.5,37.6,12.3,51.7,26.1,5,4.9,7.6,16,6,23-6.1,25.2-13.7,50.2-22.2,74.7-4.2,12.2-14.3,12.8-23.2,3.5-6.3-6.6-8.5-14.2-5.7-23,1.6-4.9,3.8-9.7,5.5-14.6,2.1-6.4,4.7-12.8,5.6-19.5,1.7-13-5-21.1-18.1-22a83.53,83.53,0,0,0-18.7.9c-33.6,5.6-66,15.4-96.1,31.3-30.8,16.2-61.1,33.5-91.5,50.4-18.6,10.3-32.3,26.1-45.6,42.2-5.3,6.4-6.9,14.1-6,22,2.6,24.3,5.5,48.6,8.4,72.8,3.2,26.9,6,53.8,10,80.6,3.6,24.2,8.8,48.1,12.5,72.3,2.6,17,3.9,34.1,5.8,51.3,2.5,22.2,5.5,44.4,7.6,66.7,2.3,24.9,3.6,49.8,5.5,74.7,1.6,21.3,3.7,42.6,4.9,63.9,2.7,46.7,8.7,93.5-1.1,140.1-2.6,12.2-4.2,24.6-6.4,36.9-2.3,12.6-7.5,24.1-16.2,33.3-4.8,5.1-11.5,8.4-17.6,12.1-2.6,1.6-6.2,1.4-8.9,2.7-19.1,9.5-34.4,2.4-50.3-9.1-28.9-21-43.7-51.2-57.3-82.4-6-13.8-11.8-27.9-16-42.4-5.9-20.4-9.3-41.6-15.5-62-9-29.5-11.5-60.3-18.5-90.1-4-17.2-7.2-34.6-10.5-52-.9-4.5-.8-9.3-.9-13.9-.7-25-1.5-50-2-75-.2-7.8.2-15.6.4-23.4s.5-15.5.8-23.3c.1-3.1-.3-6.3.2-9.4,5.9-33.9,11.9-67.7,17.8-101.5,2.1-11.9,6.1-22.7,13.4-32.9,7.5-10.5,13.2-22.3,15.1-35.7.7-5.2,4.6-10.1,7.7-14.7,7.3-10.7,15.5-20.9,22.4-31.8s12.7-22.7,19-34c7.9-14,7.3-29,5.2-44.2-3.6-26.3-7.1-52.7-10.6-79-.6-7.4-1-14.6-8.7-21.9m-750.1,93.1c2.7-.5,3.8-.4,4.6-.9a20.14,20.14,0,0,0,4.9-3.8c20.4-26.8,46.7-49.3,60.2-81.3,2.6-6.2,7.1-11.5,10.7-17.3,28.9-46.8,51.2-95.7,61.2-150.7,6.7-36.6,4-71.4-4.4-106.5-7-29.3-35-39-59.5-21.1-16.8,12.3-29.3,28.4-36.3,48-10.9,30.3-23.1,60.2-26.9,92.7-2.6,22.2-7.9,44.1-9.9,66.4-3.9,43-6.5,86.2-9.1,129.4-1,14.9-2.3,30.1,4.5,45.1m15.7,570.8c.3-5,.7-9.9,1-14.9,1-17.6,1.7-35.3,3.1-52.9.6-7.2,1.8-16.7,10.4-16.9,5.3-.1,11.7,5.8,15.9,10.4,9.3,10.3,9.9,23.8,10.6,36.8,1,19.3-.2,38.7,2,57.8,1.9,16.1-.6,31.1-5.2,46.1-2.1,7-5.5,13.6-7.4,20.6-7.4,26.8-30,32.9-52.6,37.8-10,2.2-19.4-2-25-12.1-5.4-9.6-10.4-19-12.1-30.2s-6.6-22-8.2-33.3c-4.6-32.5-8.7-65-12-97.6-2.9-28.5-4.4-57.1-6.5-85.7-.4-5.7-.6-11.5-.6-17.2q-.15-34.35-.1-68.7c0-.5-.1-1.1-.1-1.6,5.4-47.3-3.2-94.6,1.5-141.9q1.65-16.35,2.1-32.7c.2-5-.8-10-1.3-16-4.7.8-8,.6-10.5,1.9-15.2,8-30.1,16.5-45.3,24.4-22.7,11.8-45.3,23.8-72,23.9-21.3,0-42.6,1.2-63.9.8-16.6-.4-31.4-7.7-45.1-16.3-19.7-12.4-24.9-31.7-14.8-52.6,4-8.3,8.6-17,14.9-23.4,12.4-12.6,24.9-10.2,31.6,6,3.9,9.3,9.9,13.8,19.2,16a152.44,152.44,0,0,0,68.2.7c16-3.5,30.7-8.9,44.6-17.6,19.5-12.1,39.6-23.1,59.5-34.5,13.7-7.8,18.6-19.4,18.5-35.1-.5-57.3-.9-114.7.3-172,.5-21.7,5.3-43.3,8.4-64.9,2.1-14.9,4.7-29.8,6.8-44.8,6.3-46.1,14.5-91.8,34.7-134.1,9.6-20,18.8-40.6,37.2-55.2,32.1-25.3,68.3-31.7,107.6-24.8,29,5.1,42.4,24.4,52.8,50.7,8.7,22.1,9.2,44.5,13.1,66.8a65.85,65.85,0,0,1,1.4,14c-.9,28.1.5,56.6-6.5,84-6.1,24-7.8,49.3-21.5,71.2-3.7,5.9-4.2,13.8-6.2,20.8-5,17.7-12.8,33.9-24.4,48.4-6.4,8-10.3,17.9-15.8,26.7-8.2,13.3-16.5,26.5-25.4,39.4-6.8,9.8-14.5,19-21.9,28.4q-31.5,39.75-63.3,79.4c-8.9,11.1-11.8,24.1-12.5,37.9-1.7,34.8-3.8,69.7-4.9,104.5-.6,20.3.2,40.6.6,60.9q1.5,75,3.1,150c.1,5.7.4,11.5.8,17.2,1.3,22.9,2.5,45.7,4.2,68.6.9,13,2.6,25.9,4.1,38.8.3,2.4,1.8,4.6,2.8,6.8a19.55,19.55,0,0,1,4.1-.7M999,678.8c1.6-36,1.3-71.6,5.3-106.7a808.43,808.43,0,0,0,4.9-91.9c0-13.6,6.6-25.1,12.9-36.5,3.2-5.7,8.4-7.8,14.7-5.1,6.7,3,13,6.5,19.6,9.6,12.2,5.8,14.6,4.8,20.5-7.2,5.8-11.7,12.5-22.9,18-34.6,8.9-18.9,22.3-33.5,38.9-46,16.1-12.2,31.2-25.8,46.9-38.6,20.4-16.7,44.2-24.8,70.2-27.5,10.9-1.1,21.7-3,32.6-3.7,26.6-1.7,53-1.4,78,10.3,4.7,2.2,10.1,2.6,14.9,4.4,5.7,2.2,9.7,6.2,10,12.7s-4.1,9.8-9.1,11.2a161.41,161.41,0,0,1-27.4,5.2c-11.8,1.1-23.7.5-35.6,1.4-14,1.1-28.4,1.2-41.8,4.8-21.1,5.7-41.2,14.9-58.2,29.1-28.6,23.8-54.9,49.7-71.3,83.9a98.18,98.18,0,0,0-4.6,9.9c-9,25.5-18,50.9-26.9,76.5a25.71,25.71,0,0,0-1.4,6.1c-2.6,28-5.4,56-7.7,84-2.6,31.7-3,63.6-7.5,95-3.8,26.7-11.5,52.9-18.6,79.1-3.7,13.7-16.8,18.9-28.8,21.2s-23.3-2.3-31.1-13.6c-9.9-14.5-11.2-31.5-13-47.7-3.2-28.5-3.1-57.3-4.4-85.3M839.9,185.2a27.52,27.52,0,0,1,23.6,9.4,32.84,32.84,0,0,1,6.3,11.8c3,9.9,5.4,19.9,7.7,29.9a95,95,0,0,1,2.6,18.3c.2,10.7-5.1,17.2-15.5,20.5-9.1,2.9-15.6,0-22.7-8.8-5.5-6.7-11.3-13.5-18.1-18.6-12.6-9.4-17.4-21.1-15.5-36.5,2.3-18.5,10.9-26.2,31.6-26" transform="translate(-125.7 -125.23)" fill="#231f20"/></svg>