<?xml version="1.0" encoding="utf-8"?>
<!-- Generator: Adobe Illustrator 21.1.0, SVG Export Plug-In . SVG Version: 6.00 Build 0)  -->
<svg version="1.1" id="Layer_1" xmlns="http://www.w3.org/2000/svg" xmlns:xlink="http://www.w3.org/1999/xlink" x="0px" y="0px"
	 viewBox="0 0 4000 3733.1" style="enable-background:new 0 0 4000 3733.1;" xml:space="preserve">
<style type="text/css">
	.st0{fill:#F6921E;}
	.st1{fill:#231F20;}
	.st2{fill:#C89260;}
	.st3{fill:#FBE6CC;}
	.st4{fill:#9A8479;}
</style>
<rect class="st0" width="4000" height="3733.1"/>
<path class="st1" d="M2145.2,3171.7l0.8-0.2l-0.5-0.8L2145.2,3171.7z M2174.8,2910.2l0.2-1.1l-1,0.4L2174.8,2910.2z M1268.5,2990.1
	l-0.2,1.1l1-0.3L1268.5,2990.1z M1842.7,2983.1l-1.8-1.5c-0.3,0.4-0.8,1-0.7,1.1c0.5,0.6,1.2,1,1.8,1.6
	C1842.3,2983.9,1842.5,2983.5,1842.7,2983.1 M2470.3,2980.2c0.4-0.1,1.1-0.1,1.1-0.2c0-0.8-0.1-1.6-0.2-2.4
	c-0.4,0.1-1.1,0.1-1.1,0.2C2470.1,2978.6,2470.2,2979.4,2470.3,2980.2 M1789.7,3085.7c0-0.5-0.1-0.9-0.1-1.4
	c-0.8,0.2-1.6,0.4-2.4,0.8c0,0.5,0.1,0.9,0.2,1.4C1788.1,3086.2,1788.9,3085.9,1789.7,3085.7 M1626.8,2971.9
	c-0.5,0.7-0.9,1.5-1.3,2.3c-0.1,0.3,0.7,1.1,0.8,1.1c0.9,0.2,1.9-0.3,2.1-1.2c0.2-0.9-0.3-1.9-1.2-2.1
	C1627.1,2971.9,1626.9,2971.9,1626.8,2971.9 M2192.1,2911.6c-0.6,0.6-1.3,1.2-1.9,1.8c0.4,0.3,1,0.9,1.1,0.8
	c0.7-0.5,1.3-1.1,1.9-1.8C2192.9,2912.2,2192.5,2911.9,2192.1,2911.6 M1997.8,2994.5c0.2,0,0.3-0.1,0.5-0.1v-8.3c-0.5,0-1,0-1.5,0.1
	C1997.2,2988.9,1997.5,2991.7,1997.8,2994.5 M1275.5,2959.2c1.4-1.3,3-2.1,3.3-3.2c-0.1-1.3-0.9-2.5-2.1-3.1c-2-0.5-4.3,0.1-4.1,2.8
	C1272.7,2956.8,1274.3,2957.8,1275.5,2959.2 M2290.5,2956.7c2.7-1.2,4.8-2.9,5.2-6.1c0.1-0.4-0.1-1.2-0.4-1.3
	c-0.8-0.3-2.1-0.7-2.5-0.3C2290.6,2950.7,2287.9,2952.5,2290.5,2956.7 M2455.3,2981.1c3.6-7.7,3.8-10.6,0.6-11.7
	c-0.5-0.1-1-0.1-1.4,0.1C2451.3,2971.3,2451.4,2973.3,2455.3,2981.1 M1686,2906.9c-5,0.1-8.2,1-9.3,4.9c-0.4,1.3,1.1,3.5,2.4,4.6
	c0.7,0.6,3.5,0.1,3.9-0.6C1684.2,2913.3,1684.8,2910.5,1686,2906.9 M1818.8,3035c10-6.7,10-6.7,12-15.9
	C1825.5,3022.7,1822.1,3026.6,1818.8,3035 M2268,3025.5c1.7-3,3.2-4.6,3.3-6.3c0.3-3.9,2.3-8.3-2.1-11.4c-0.5-0.2-1-0.2-1.4,0.1
	c-4.3,3.3-1.4,7.6-1.5,11.5C2266.3,3020.8,2267.1,3022.2,2268,3025.5 M2276.1,3100.2c-6.5-1.2-10.5-0.2-13.3,3.3
	c-1.2,1.5-1.6,3.8-1.9,5.8c-0.4,3.1,1.5,4.7,4.4,5.1c4.1,0.6,7.4-0.8,8.9-4.6C2275.3,3107,2275.4,3103.9,2276.1,3100.2
	 M1955.6,3257.8c-0.3-7.4-0.8-12.9-6.6-14.6s-10.7,1-14.5,5.5c1.1,1.5,1.6,2.7,2.4,3C1942.6,3253.6,1948.2,3255.4,1955.6,3257.8
	 M1843.6,2999.1c4-0.6,6.3-0.4,6.7-1.1c8.2-15.4,22.9-28.3,19.2-50.6c-3.8,9.7-6.5,18-10.3,25.6
	C1855.1,2981.2,1849.8,2988.9,1843.6,2999.1 M2454.1,2957.7c7.9-2.1,9.9-3.1,10.6-5.6c3.2-11.9,7.7-23.7,3.7-36.4
	c-1.1-3.5-1.6-7.1-2.5-10.6c-0.2-0.8-1.2-1.4-2-2.3c-2.6,3.1-5.2,6.2-7.9,9.4c2,2.2,3.7,4,6,6.5
	C2453.6,2929.7,2457.8,2943.3,2454.1,2957.7 M1553.3,2999.8c-11.8,0.3-19.7,5.4-26.2,13.6c-6.4,8-12.5,16.5-19.8,23.6
	c-10.3,10.1-20.6,20.5-33.8,27.2c-1.2,0.6-2,2.1-3.6,4.1c3.2,1.6,5.7,3.3,8.4,4c18,4.8,36,9.8,52.7,18.3c5,2.6,9.8,5.8,15,8
	c2.5,1.1,5.6,0.6,8.3,0.8C1556.7,3084.8,1556,3015.3,1553.3,2999.8 M2376,2892.9c-3.2,2.9-5.8,5.3-8.5,7.7c-2.3,2-4.9,3.9-7.1,6
	c-2.6,2.5-4.8,5.4-7.4,7.8c-2.3,2.1-5.3,3.4-7.5,5.6s-3.6,4.9-5.3,7.4c-6.5-8.1,2.3-13,3-20.6c-2.3,0-5.2-0.6-5.6,0.1
	c-3.3,6.7-9.2,11-14,16.4c-3.1,3.4-5.6,7.4-7.2,11.8c-1.6,5.5-5,10.3-9.6,13.7c-5.4,4-7.8,9.6-8.1,16.1c-0.2,4,0,8,0,12.1
	c6-0.5,3-8.7,9.3-9.7c1.6,7.6,0,14.5-3.2,21c-2.1,4.1-6,4.3-10.2,0.8c-0.4-0.3-0.5-0.9-0.9-1.3c-3.8-3.3-3.9-3.3-10,0.8
	c-0.2,7.7,3.6,13.4,8.7,17.6c0.8,7.1-5.9,11.6-4.4,19.3c5.5-0.8,10.6-1.4,15.6-2.2c6.2-1,12.5-3.5,18.4-2.9
	c16.2,1.7,32.1-2,48.2-1.9c3,0,5.9-0.9,9.4-1.5c0.9-3.7,1.5-7.4,2-11.1c2.1-24.3,4.1-48.7,6-73.1c0.4-5.7,0.3-11.4,0.4-17.1
	C2388.1,2906.1,2382.5,2899.7,2376,2892.9 M1458,2990.4c-2.5-2.1-4.5-4.6-7.1-6c-7.8-4.2-15.6-8.4-23.7-11.8
	c-33.3-13.9-68.4-21.1-103.9-26.5c-2-0.3-4,0-7.1,0c-0.5,3.8-1.4,7.3-1.2,10.7c0.2,4.1,1.9,8.2,1.9,12.3c0,19.2-0.5,38.4-0.7,57.6
	c-0.1,10.7-1.2,21.5,0.7,33c4.6,0.4,8.6,1,12.6,1c5.7,0.1,11.4-0.3,17.1-1c24.2-3.5,48.1-8,67.8-24.3c2-1.6,4.6-2.5,6.7-4
	c6.7-4.9,13.7-9.5,19.9-14.9C1448.8,3009.4,1455.4,3001.4,1458,2990.4 M2072,3220.4c3.6-2.7,6.3-4.2,8.4-6.4
	c11.6-12.6,22-26.2,31.2-40.7c4.4-7,8-14.5,12.7-21.2c2.8-4.1,4.5-9.5,9.8-11.5c12.4,6.5,12.4,6.5,14.3,17.9c0.2,1,0.2,2.1,0.5,3.1
	c0.8,2.9,5.1,4.7,7.7,2.9c2.1-1.5,4-3.3,5.7-5.2c15.8-18,24.8-39.2,30.7-63c-10.1-4.7-15.7-12.8-17.5-24.8c2-5.1,4.4-11.2,7-17.9
	c-6.1-1.3-10.1,2-14.5,2.6c-27.3,3.8-53.1,14.7-81,16c-9.7,0.4-19.4,3.3-29.1,5.2c-1,0.4-2,1-2.9,1.7c-2.7,4.6-2,9.7-1.4,14.9
	c1.3,10.8,3.2,21.5,0.6,32.5c-0.7,2.9,0.3,6.1,0.5,9.2c1.3,15.5,4.3,30.7,4.9,46.4C2060.1,3195.8,2064.4,3209,2072,3220.4
	 M2048.6,3018.2c3.4,0.6,5,1.2,6.4,1.1c21.1-2.8,42.4-5.2,63.4-8.9c18.5-3.2,37.4-2.8,55.8,1c3.3,0.7,5.8,2.8,5.8,6.4
	c0.1,3-2.2,4.7-4.9,5.2c-7.2,1.2-14.4,2.1-21.6,3.4c-2.3,0.4-5.3,0.9-4.4,5.3c6.3,1,12.3,5,19.4,1.8c3.5-1.5,7.5-0.8,10.3,1.8
	c8,6.6,17.7,5.3,26.9,5.8c10.5,0.6,18.1-3.9,21.5-14.3c0.3-1,0.7-2,1.2-2.9c7.6-17.6,15-35.3,25.3-51.6c3.6-5.7,5.7-11.9,3.9-19.5
	h-9.7c-6.8,0.1-13.6,0.7-20.3,0.1c-10.9-1-21.7-2.8-32.5-4.4c-17.6-2.5-35.1-4.3-52.9-3c-30.7,2.1-61.3,4-92,6.1
	c-2.9,0.2-5.8,1.6-10.4,2.9C2042.1,2975.9,2043.7,2996.9,2048.6,3018.2 M1647.7,2943.6c3.4,14,7,27.5,9.9,41.2
	c1.2,6,1,12.3,1.1,18.5c0.1,4.1-0.9,8.4-0.3,12.4c2.5,16.4,4.6,32.9,4,49.5c-0.1,3.1,0.2,6.2,0.8,9.3c1.3,7.1,6.7,10.4,13.8,8.1
	c3.9-1.4,7.6-3.3,11-5.6c8.7-5.3,17.3-10.7,26.6-15c8-3.7,16.1-7.5,23.2-12.5c6.7-4.7,12.6-10.8,18.4-16.6
	c21.4-21.4,37-40.7,52.3-67.3c7.2-12.7,12.1-26.6,14.6-41c2.4-13.3-0.7-24.9-12.2-33.1c-8.5-6-17.1-12-27.4-14.4
	c-3.9-0.9-8.6-1.7-12.2-0.4c-10.7,4-22.1,7.4-31.2,13.9c-13.4,9.6-28,18.2-37.6,32.4c-1.3,1.9-3.3,4.2-6.9,2.3c0.5-2.6,1.1-5.3,2-10
	c-3.8,3-6.2,4.8-8.5,6.8c-3.5,3-6.9,6.3-10.6,9.1c-1,0.8-2.9,0.3-4.3,0.5c-2.1-3.7-4.1-7-6.4-10.8c-4.1,6.3-4.5,6.5-3,8.7
	c3.3,4.8,6,9.6,5.3,15.2c-3.3,3-6.1,5.2-10.5,1.8c-0.9-4.4-1.9-9.2-3.5-16.6C1652.9,2935.7,1650.7,2939,1647.7,2943.6
	 M1316.5,3264.4c4.2,0.7,8.1,1.8,12.1,1.9c12,0.3,23.8-1,35.7-2.5c30-3.5,57.4-14.3,83.8-28.2c15-7.9,27-19.6,37.2-32.8
	c6-7.7,10.8-16.5,15-25.4c6.3-13.3,2.9-22.9-8.8-32.7c-5.6-4.7-12.1-8.1-19.2-9.8c-3.5-0.9-6.8-2.5-10.4-3.4
	c-14.6-3.8-29-8.4-43.8-10.8c-26.7-4.4-53.8-5-80.8-5.3c-5-0.1-10.1,1.1-15.6,1.7c-0.5,3.5-0.9,5.9-1.2,8.4
	c-1,8.2-1.1,16.7-3.4,24.6c-2.4,8.5-3.3,17.4-2.8,26.2c1.1,27,1.3,54,1.2,81C1315.6,3259.5,1316.1,3261.5,1316.5,3264.4
	 M1811.5,3075.5l-0.4-0.3c-1.3,2.7-2.1,5.8-4,8c-9.2,11.1-22.8,16.2-34.9,22.8c-8.4,4.5-17,10.2-27.1,11.2c-1,0.1-1.8,0.9-2.7,1.5
	c-2.7,1.7-3.5,5.9-1.2,8.2s4.4,4.7,7,6.1c9.9,5,17.6,12.9,25.8,20.1c12.5,11,25.9,20.8,39.5,30.5c14,9.9,28.7,18.9,43.8,27
	c8.7,4.7,17.7,8.7,26.6,12.9c5.4,2.6,11,2.8,16.8,1.4c13.2-3.3,27-2.8,40,1.3c2.3,0.7,4.8,0.5,6.7,0.7c3.6-4.8,1.4-8.8,0.8-12.8
	c-2.5-19.1-5.4-38.1-7.4-57.2c-1.9-18.1-2.8-36.3-4.2-54.4c-0.5-6.1-0.6-12.4-4.5-18.7c-24.8-0.5-49.3-4-73-13.6
	c-0.6-5.5-1.2-10.7-1.6-15.8c-0.1-1.1,0.1-2.1,0.7-3c4.6-5.5,8.2-13,14.2-15.9c8-3.8,16.6-7.8,26.6-7c9.1,0.6,18.5,1.3,27.4-0.6
	c3.2-16,0-47.3-6.9-68.8c-12.2-1.9-24.8-3.9-37.1-5.9c-0.9,1.7-1.9,2.8-1.7,3.5c1.7,6.1,0.6,11-4.7,15.1c-2,1.5-3.3,4-4.6,6.3
	c-13.3,24.1-31.4,45.1-44.8,69.2c-1.5,2.8-3.7,5.1-6.4,6.7c-7.2,4-9.2,10.7-10.6,17.8c-0.4,2-0.8,4.1-1.3,6.1
	c-1.9-0.3-3.9-0.7-5.8-1.1c0,0.4-0.1,0.7-0.1,1.1h5.9C1809.3,3077,1810.3,3076.2,1811.5,3075.5 M2239.2,2921
	c0.5-0.1,0.9-0.2,1.4-0.4c0.4-0.2,0.7-0.4,1-0.6c-0.9,0.4-1.8,0.7-2.7,1.1c0-1.5-0.2-3-0.6-4.5c-0.2-0.5-1.6-0.6-2.5-0.9
	c-0.1,0.8-0.7,2-0.3,2.5C2236.6,2919.3,2237.8,2920.3,2239.2,2921 M1469.2,2927.8h10.2c8.9,10.8,18.7,20.4,34.5,19.7
	c1.8-0.1,4.1,1.2,5.5,2.5c6,5.6,13.5,10.1,13.9,19.5c11.2-2.2,12.4-0.8,15.7,15.6c3,0.4,3.2-2,3.4-3.9c0.7-6.7,2.1-13.5,1.7-20.1
	c-0.6-8.5-0.2-16.6,2.6-25.1c2.8-2.3,6.1-4.8,9.2-7.5c10.4-9.1,21.4-12.1,34.3-5.2c6.3,3.4,12.9,6,20.9,9.7
	c13.3-1.8,23.3-10.7,30.1-23.9c0.9-1.8,2.1-3.9,3.7-5c7.1-4.8,13.7-10.3,19.7-16.4c5.9-5.8,13.6-11.1,22.5-13.5
	c3.7-1,6.9-4.6,9.9-7.4c4.4-4.1,9.1-6.6,15.3-6.5c6.8,0.1,13.5-0.5,19.3-4.9c1.8-1.3,4.9-1.5,7.4-1.3c12.4,1,12.4,1.1,21.3-4.5
	c6,1.2,6.5,11.6,14.9,9c-0.2-1.9-0.5-3.8-0.7-5.8c7.9,0.3,15.5,2.5,22.4,6.3c4.5,2.6,9.5,4.3,14.6,5c11.8,1.2,21.3,7.6,31.5,12.5
	c4.9,2.4,4.8,2.7,11.8,1.7c6.8,9.1,15.7,17.4,16.8,30.2c0.4,2.6,1,5.1,2,7.5c1.1,3.2,5.1,5,7.6,3c6.6-5.2,13.8-8.9,22.3-8.4
	c1.9-7.6-1.4-12.7-2.6-18.1c-2.3-10.3-2-19.6,8.2-25.9c0.5-0.3,0.8-0.6,1.1-1.1c4.9-10.4,14.2-10.7,23.9-10.4
	c4.9,0.2,9.2,1.2,12.9,4.6c2.3,2.1,4.8,4,7.6,6.3c3.3-1.1,6.7-2.3,10.9-3.8c2.4,1.6,4.7,3.4,6.8,5.3c3.8,3.7,8.4,3.7,13.1,3.3
	c10.5-0.9,15.6,1,21,8.6c15.8,22.4,13.8,17.9,35.6,18.1c12,0.1,23.8,0,35.8-2c8.1-1.3,16.6-0.7,24.9-0.3c17.1,0.7,34.4-1.6,51.5,1.5
	c5.1,0.9,10.4,0.7,15.6,0.8c24.1,0.6,47,7.7,69.4,13.5c1.8,4.7,3.3,8.5,4.7,12.1c7.3,1,13.9,1.8,20.8,2.7
	c9.7-5.8,13.9-16.4,20.3-25.1c8-10.9,15.2-22.1,25.7-31.1c6.9-5.9,14.4-11.5,17.7-21.3c2.2-6.6,9.1-5.2,15.2-3.4
	c3.4-8.6,11.5-9,19-10.5c7.8-1.6,15.3-1.4,22.3,4.4c0.5-4.7,0.8-7.6,1.1-10.5c18.1,1.3,18.1,1.3,25.7,7.6
	c10.5-2.8,10.5-2.8,20.3,6.8c3.2-1.7,6.7-3.5,10.2-5.4c1.6,0.8,3.4,1.1,4.2,2.2c3.6,4.9,8.5,7.3,14.2,8.8
	c9.9,2.8,17.7,8.2,21.4,18.5c1.6,4.4,3.5,8.9,6.3,12.5c11.8,15.1,11.1,31.9,7.2,49.1c-0.9,4-1.2,8.1-1.1,12.2
	c0.2,8.9-0.2,17.7-1.3,26.5c-0.9,7.3-1.6,14.3-0.4,21.7c0.6,3.2-1.1,7-2.2,10.3c-3.2,10,0.5,15.9,11.1,17.4
	c9.7,1.3,19.6,0.9,29.3,5.1c-2.6,3.4-4.9,6.5-7.3,9.6c-2.9,3.8-6.8,4.8-10.7,2.1c-2-1.4-3.4-3.6-5.1-5.5c-5,2.3-6,5.9-4.9,11
	c4.9,3.4,10.7,2.5,16.2,1.8c10.4-1.3,19.4,2.3,28.3,6.9c1.3,0.7,2.8,2.1,3,3.4c0.3,1.8,0,5-0.9,5.3c-4.4,1.5-8.8,2.7-13.4,3.4
	c-13.4,2.1-26.8,3.9-40.1,6c-1.4,0.2-2.7,1.4-5.1,2.8c-1.9,13.2-4.1,27-5.8,40.8c-1.2,9.3-1.7,18.6-2.5,27.9c-0.1,1.6-0.6,3.3,0,4.6
	c4.9,10.8,1.6,21.7,0.2,32.3c-1.8,14.1-1.2,28.1,0.3,42.1c1.2,11.7,1.2,22.4-7.3,32.1c-3.5,4-4,10.5-5.7,15.2
	c-14.4,8.2-29.9,5.1-44.6,6.8c-8.4,0.9-17.1-3.1-25.9-3.7c-8.2-0.6-16.3-2.9-25.7-4.6c-7.2-8.5-9.3-19.6-9-31.1
	c0.8-29.7,2.2-59.3,3-89c0.5-18.7,0.6-37.5,0.7-56.2c0-2.4-1.2-4.8-2.1-8.1c-8.7,1.2-16.9,2.2-25,3.6c-9.7,1.7-19.5,3.2-29,5.8
	c-7.9,2.2-15.5,5.9-22.9,8.8c-1.7,11.7-2.2,23-8.1,33.1c-0.3,0.4-0.6,0.9-0.7,1.4c-5.1,17.9-10.5,35.8-15.1,53.9
	c-1.7,6.6-3.2,12.9-6.9,18.9c-3.5,5.7-5.9,12.2-8.7,18.3c-2.4,5.2-6,7.9-12.1,8.1c-8.8,0.3-17.4,2.3-26.3,0.2
	c-3.4-0.8-7.2,0.4-10.8,0.5c-3,0.1-6.3,0.6-9-0.5c-3.8-1.4-6.9,0-10.3,0.3c-9.7,0.8-19,4.9-29.1,2.6c-4.5-1-9.2,1.1-12.5,6.5
	c2.6,1.2,5.9,1.8,7.4,3.7c2.7,3.4,3.5,8.3,1,11.8c-4.2,5.9-5.8,13.3-11.7,18.3c-3.5,3.1-6.1,7.1-7.3,11.6c-2,9.3-8.5,14-15.8,18.2
	c-5.4,3.1-10.9,5.9-16.4,8.8c-7.8,4.2-16.5,6.5-25.4,6.7c-7.3,0.1-14.6,1.2-21.8,1c-9.9-0.3-19.9-0.4-29.5-2.4
	c-12.1-2.5-24.7-2.5-36.4-7.9c-8.5-3.9-15.1-9.1-19.6-17c-2.5-4.5-4.6-9.3-7.1-13.8c-2-3.6-3.9-7.4-6.6-10.5
	c-2.2-2.6-5.5-2.6-8.6-0.9c-0.4,0.3-1,0.4-1.3,0.8c-7.7,10.6-19.6,10.5-30.8,12.5c-30.3,5.3-60.2,2-90.1-3.2
	c-4.1-0.7-8-2.3-11.9-3.6c-2.9-1-5.7-2.5-8.7-3.3c-24.4-6.4-46.8-16.6-67.2-31.6c-7.5-5.5-16.2-9.3-23.9-14.7
	c-16.1-11.4-32.4-22.6-46.7-36.3c-1-0.9-2.8-1-4.1-1.5c-4.2,2.6-3.4,6.7-2.8,9.9c4.3,21.7,0.7,43.6,2.7,65.4
	c0.5,5-1.2,10.3-2.3,15.3c-0.6,2-1.7,3.7-3.2,5.1c-7.7,7.3-15.8,13.4-27.7,11.2c-5.5-1-11.5-1.3-16,3.9c-0.8,0.9-2.9,1-4.3,0.8
	c-4.1-0.3-8.1-0.9-12.1-1.9c-8.7-2.5-17.4-1.8-26.2-0.5s-12.4-1.1-15.1-9.6s-4.2-17-2.5-26.1c1.8-9.6,2-19.5,0.4-29.1
	c-1.7-0.2-3.2-0.8-3.6-0.4c-8,8-18.2,13.6-24.8,23.2c-2.8,4.1-7.5,7.2-11.8,9.9c-21.3,13.2-44.4,23-67.6,32.2
	c-17,6.8-35.3,9.2-53.3,11.6c-25.3,3.5-50.7,5.3-76.1,7.7c-6.7,0.7-13.3,2-19.8,3.9c-16.3,4.8-33,8.4-49.8,11
	c-7.5,1.1-15.2,0.5-22.9,2.2c-10.3,2.3-16.8-3.1-21.3-13.6c-3.2-7.1-5-14.8-5.2-22.6c-0.6-32.8-1.7-65.6-2.2-98.4
	c-0.3-20.3,0.2-40.6,0.1-60.8c-0.1-18.2-0.8-36.4-0.6-54.6c0.3-28.1,1-56.2,1.5-84.3c0.3-14.6,0.6-29.2,0.8-43.7
	c0-1.4-0.9-2.9-1.6-4.7c-2-0.3-4.1-1.2-6-0.9c-12.8,2.1-25.7,4.2-38.5,6.8c-16.8,3.4-33.5,7.5-50.4,10.9
	c-13.7,2.7-21.6-3.6-23.2-17.9c-0.2-2.1-0.2-4.2-0.3-6c0.5-1.2,0.7-2.2,1.2-3.1c7.1-12.4,17.1-20.7,31.7-22.5
	c24.8-10.3,51-14.3,77.2-18.8c4-0.7,8-1.9,11.8-2.8c3.5-6.8,2.4-15.6,10.6-18.8c9.2-3.7,15.5-15.2,28.4-10.2
	c1.5,2.7,3.3,5.9,5.3,9.4c1.3-0.7,3.2-1.2,3.6-2.2c1.5-3.8,3.7-6.2,9.5-6.4c2.7,2.7,6.1,6.3,9.8,10c8.4,0.4,17.6,0.3,26.6,1.6
	c4.7,0.7,9,2.7,12.5,5.9c5,4.9,10.9,6.4,17,6.5c19.4,0.3,37.9,6,57.1,7.9c10.8,1.1,21.3,4.6,31.9,7.2c7.1,1.7,14.1,3.8,21.1,5.7
	C1449.3,2914.1,1461,2918.2,1469.2,2927.8 M2655.6,3023.1c-0.1-0.5-0.2-1-0.3-1.4c-0.2,0.4-0.6,0.8-0.6,1.2s0.2,0.9,0.3,1.4
	L2655.6,3023.1 M2958.5,3174.8c-0.8,1.1-1.5,2.2-2.3,3.3c0.4,0.2,1.1,0.8,1.1,0.7c1-1,1.9-2,2.7-3
	C2959.7,3175.6,2959.3,3175.3,2958.5,3174.8 M2655,2999c2.8-3.3,3.8-4,3.9-4.8c1.6-15.4,1.6-31,6.5-45.9c0.3-0.9,0-2.1,0.2-3.1
	c1.3-7.6,2.8-15.2,4.1-22.8c0.6-3.5,2.2-7.2,1.6-10.5c-0.9-4.5-0.9-9.2,0.1-13.7c0.6-2.9-0.3-6.2-1-9.2c-1.3-5.6-3.3-6.3-12-4.8
	c-4.1,8.5,1.3,16,3.3,23.9c-3.9,6.4-6.7,12.9-4,20.6c0.8,2.2-0.4,5-0.8,7.5c-0.6,3.5-1.7,7-1.8,10.5c-0.3,12.9-0.4,25.9-0.4,38.8
	C2654.6,2989,2654.8,2992.6,2655,2999 M2701.4,3129.9c3.6,3.7,5.1,9,4,14c-1,5.4,0.5,11.2,1,16.9c0.7,7.7,2,15.5,2.4,23.2
	s1.3,15.2-2.9,22.7c-3.2,5.7,2.2,11.9,8.8,10.3c14.7-3.3,29.6-6.5,43.6-11.7c20.5-7.5,40.3-16.7,60.4-25.4
	c14.8-6.4,29.1-13.7,42.5-22.9c12.9-8.9,25.2-18.3,37.2-28.3c10.6-8.9,18.5-19.6,26.1-30.8c6.1-9,6.5-18.2,0.5-27.7
	c-7.4-11.9-14.6-23.9-24.4-34c-2.9-3-6.5-5.8-8-9.4c-3.7-8.8-11.2-13.4-17.9-19.1c-3.1-2.7-6.8-4.8-9.9-7.5
	c-6.9-6.2-13.6-12.8-20.5-19.1c-6.7-6-12.4-13.1-21.3-16.9c-5.3-2.4-9.6-6.5-12.3-11.6c-3.2-6.7-7.5-9.3-14.3-9.6
	c-6.9-0.4-13.2-4.1-17-9.9c-3.7-6-8.5-7-14-9c-8.1-3-15-8.6-23.8-10.3c-2-0.5-3.8-1.7-4.9-3.5c-4.9-9.2-14.7-10.7-22-15.2
	c-10.6,5.1-11.1,5.1-12.2,13.1c-1.6,12.4-2.4,24.9-3.4,37.3c-0.2,1.6,0,3.1,0.6,4.6c2.2,4.5,1.6,9,1.2,13.7c-0.4,4.7-0.3,9.4,0.3,14
	c2.1,15.5,2.6,31,2.7,46.6c0.1,27,0.3,54,0,81.1C2703.7,3113.1,2702.3,3120.7,2701.4,3129.9 M2986.1,3148.4c2.5-1.4,5.4-2.6,4-6.4
	c-0.1-0.3-0.9-0.8-1.2-0.6c-3.6,1.5-2.8,4.5-2.5,7.3c-0.9-0.1-1.8-0.1-2.7,0c-0.5,0.2-0.8,1.1-1.2,1.7c0.4-0.2,0.9-0.3,1.3-0.5
	C2984.6,3149.4,2985.3,3148.9,2986.1,3148.4 M2914.6,3214.7c1.6-1.1,3.1-2.1,4.6-3.2c0.3-0.2,0.2-0.9,0.3-1.3
	c-0.8-0.1-2.1-0.5-2.3-0.2c-0.9,1.6-1.6,3.3-2.4,4.9c-1,0.1-2,0.1-3,0.2C2912.7,3214.9,2913.7,3214.8,2914.6,3214.7 M2489.1,2828.6
	c2.3-13.2,12.9-18.5,20.9-25.6c3.4-3,9.8-3.4,14.9-3.4c12.4,0.1,25-1.5,37.2,2.7c4.3,1.5,9.2,1.4,14,2c2.3,2.8,4.3,5.9,6.8,8.4
	c1.8,1.8,4.1,3.2,6.6,3.8c6,0.9,12.1,1,19,1.5c-4.7-7-14.5-1.5-19-9.2c3.7-2.4,7.9-2.1,11.5-1.4c11.2,2.1,22.4,4.4,33.4,7.4
	c8.4,2.3,9,3.3,16.5,11.9c1.8,0,3.7-0.1,5.5-0.4c2-0.5,3.9-1.2,5.8-2c3.9,2.7,7.4,6.2,11.5,7.5c3.4,1.1,7.7-0.5,12.5-0.9
	c-0.7,4.1-1.3,7.4-2,11.8c3,0.4,5.4,0.7,7.6,0.9c0.8-0.8,1.5-1.8,2-2.8c2.3-7.6,4.5-9.9,10.1-8.6c4.4,1,9.3,2.6,12.7,5.4
	c6.7,5.5,14.4,8.1,22.3,10.8c6.8,2.4,13.6,5,20.4,7.5l12.9,4.8c1.4,0.5,3.2,0.6,4.4,1.5c14.2,10.9,31.3,16,46.6,24.7
	c29.9,17,58.7,35.7,86.9,55.2c3.8,2.6,7.2,5.9,10.9,8.8c4.1,3.1,8.5,5.9,12.5,9.2c9.1,7.5,20.2,13,25.7,24.3c0.9,1.7,2.5,4,4.1,4.3
	c7.4,1.6,11,7.8,15.6,12.5c9.9,9.9,18.8,20.7,26.5,32.4c8.5,12.9,15.5,27,27,37.8c0.8,0.7,1.4,1.5,1.8,2.5
	c3.4,15,10.5,29.4,5.2,45.7c-2.5,7.8-7.1,13.8-12.1,19.7c-4,4.8-8.1,9.6-12.9,13.4c-6.5,5.1-13.3,10-20.7,13.3
	c-3.3,1.5-6.2,2.5-8.7,5.5c-2.2,2.7-5.3,4.8-8.3,6.9c-6,4.1-11.7,10.2-18.3,11.5c-7.1,1.4-11.6,6.6-18.1,8.2
	c-4.7,1.2-8.2,4.4-10.9,8.5c0.9,2.3,1.7,4.6,2.6,6.9c-2.5,4.7-6.6,8.4-11.5,10.3c-12.5,5.1-25,10-37.7,14.6c-2.8,1-6.1,0.7-9.2,1.1
	c-3.6,0.6-7.6,0.4-10.6,2.1c-15.1,8.2-33,9.2-47.6,18.7c-0.8,0.7-1.8,1.1-2.8,1.3c-21.7,1.9-42.2,10.3-64,11.6
	c-9.7,0.6-19.3,3.8-29,5.9c-3,0.7-6.1,2.3-9,2c-12.6-1.1-24.8,2.5-37.2,3.1c-10.9,0.6-21.8,0.2-32.7-0.2c-2.9-0.1-5.8-2-8.8-3
	c-7.9-2.8-15.7-5.6-24.3-2.9c-2.3,0.7-5.1,0.1-7.7-0.1c-6.1-0.5-12.2-1.1-19.8-1.7c-0.9-2-2.2-5.1-3.6-8.3c-10-0.3-10.2-0.5-6-8.9
	c-1.6-1.9-3.3-3.7-5.7-6.5c10.7-6.1,21.9-9.7,32.2-12.8c2.7-7.1-0.2-12.5-1.3-18c-1.4-7.1-3.1-14.2-4-21.4
	c-7-53.3-8.2-107-10.2-160.6c-0.7-18.7,1-37.5,1.6-56.2c0.3-7.8,0.4-15.6,1.1-23.4c2.3-26.5,4.9-52.9,7.3-79.3
	c0.3-3.6,0.9-7.3,1.1-10.9c0.7-10.5-1-12.4-11.6-14.2c-25.1-4.3-50.2-9.1-75.4-12.9C2496.6,2841.6,2491.5,2837.4,2489.1,2828.6"/>
<path class="st2" d="M3100,1561.2c7.6-31.1,16.4-63.1,28.4-92.6c29.6-72.9,78.4-135.9,103.9-211c26.6-78.4,29.3-170.5,23.6-252.7
	c-5.7-81.8-27.2-160.5-83.3-222.8c-23.5-26.1-65-53.4-83.5-69.5c-24.3-21.2-45.7-45.4-67.1-69.5c-43.4-49-87.3-96.4-143-132
	c-84.4-53.9-185.1-61-281.1-41.7c-71,14.2-137.5,44.6-208.5,58.9c-74,14.9-151.1,16.1-226.2,23.5c-194,19.1-387.1,46.5-580,74.1
	c-185.3,26.6-365.3,54.9-534.8,139.2C977.8,800.2,958.1,900,996,964.7c42,71.8,128.8,87.5,199.6,52.3
	c118.3-58.8,253.3-78.8,382.7-97.9c47-6.9,94-13.7,141-20.4l0.6,0.3l2.2,1l1,0.5l2.1,1l1.1,0.5l2.1,0.9l1,0.4c1,0.5,2,0.9,3,1.3
	c12.3,5.1,24.4,10.9,36.7,16.1c14.5,6.1,29.3,11.7,43.9,17.7c5,2,9.8,4.7,14.6,7.2c4.3,2.2,8.4,5,12.8,6.9c9,3.7,18.4,6.7,27.4,10.6
	c13.8,5.9,27.5,12.1,41,18.7c11.3,5.5,22.5,11.1,33.3,17.6c17.3,10.4,34.2,21.5,51.2,32.5c2.2,1.4,4.3,2.8,6.5,4.2l1.7,1l2.5,1.6
	c5.3,3.3,10.6,6.7,15.8,10.1l0,0c3.3,10.4,6.6,21,10.7,31.7c15.6,40.9,35.7,77.1,57.8,114.6c66.2,112.2,53,248.9,44.6,379.6
	c-0.2,3.6-0.3,7.2-0.2,10.8c-7.7,6.6-15.5,12.9-23.6,19.1l-0.5,0.4c-2.7,2.1-5.4,4.1-8.1,6.2c-1.8,1.6-3.4,3.4-4.7,5.5
	c-4.2,6.1-7.8,12.6-12.4,18.3c-7.8,9.8-14.1,20.2-15.2,33s-1.9,25.8-2.4,38.7c-0.7,18.6-1.3,37.3-1.3,56c0,16.4,1.5,32.9,1.3,49.4
	c-0.4,34.6,1.5,69.2-0.9,103.8c-1.6,23.3-1.6,46.7-1.9,70c-0.3,22.5-0.2,44.9,0.2,67.4c0.4,20,1.4,40,2.1,60c0.2,4.1,0.2,8.1,0,12.2
	c-1,11.8-2.5,23.5-3.3,35.3c-1.8,25.7-1.5,51.6-6.7,77c-0.3,1.9-0.3,3.9-0.2,5.8c0,6.8-0.1,13.7,0,20.5c0,1.8,0,3.5,0,5.3
	c0,0.8,0,1.6,0,2.4v3.3c-9.3,38-18.6,76-28,114c-22.3,89.6,43.6,187.2,140.7,184.6c155.7-4.1,288.8-73.3,421.7-147.4
	c52.1-29.1,104.3-58.8,152.7-75.6c70.8-24.6,144.7-37.6,214.3-66c88.7-36.1,173.9-91.5,203.5-188.1c24.3-79.3,2.3-178.8-4.9-259.8
	c-3.2-35.3-5.8-71.6-14.8-105.9c-10.9-41.3-34.2-69.8-53.4-105.2c0.4-2.7,1-5.3,1.8-7.9C3094.1,1599.9,3095.5,1579.6,3100,1561.2z
	 M2379.1,2209.5L2379.1,2209.5c0.2-2.6,0.3-5.2,0.5-7.9c0-0.1,0-0.1,0-0.2c0.2-2.7,0.4-5.3,0.6-8c2.5,3.8,5.2,7.4,7.9,11
	C2385.2,2206.2,2382.2,2207.8,2379.1,2209.5z"/>
<path class="st3" d="M2203.6,1400c-4.8-13.5-6.9-27.3-8.2-41.4c-1.5-16-2.4-32.1-8.4-47.3c-2.4-5.9-4.3-11.9-5.9-18.1
	c-3.9-15.3-11.5-28.9-18.9-42.5c-8.8-16.1-19.2-31.2-28.9-46.7c-1.5-2.4-2.5-5-3.9-7.4c-3.2-5.8-5.7-11.9-11.1-16.4
	c-4-3.2-7.1-7.6-10.3-11.7c-8.3-10.6-16.2-21.5-24.8-31.8c-5.8-7-12.4-13.3-18.9-19.7c-10.3-10.1-20.3-20.5-31.2-29.9
	c-9.4-8.1-19.4-15.7-29.7-22.6c-13.7-9.3-27.7-18.4-41.9-27c-19.9-12.1-39.8-24-60.2-35.2c-20.6-11.3-42.4-20.3-64.5-28.4
	c-3.7-1.4-7.5-2.2-11-3.8c-8-3.7-15.8-8-23.9-11.6c-16.2-7.1-32.6-13.9-48.8-21c-12.7-5.5-25.1-11.8-38-16.7
	c-15.5-6-31.4-11-47.1-16.3c-4.7-1.6-9.5-3.1-14.2-4.6c-6.6-2-13.3-3.9-19.8-6.1c-6-2-11.8-4.8-17.9-6.6
	c-16.8-4.9-33.6-9.7-50.4-14.3c-9.1-2.5-18.4-4.1-27.5-6.6c-37.6-10.5-75.2-21.3-112.8-31.7c-8.5-2.3-17.2-4.3-25.9-5.7
	c-13.1-2.3-26.3-3.8-39.3-6.3c-15.2-2.9-30.2-7.1-45.5-9.6c-8.1-1.3-16.5-0.4-24.8-0.5h-5.8c-7.2,0.1-14.4,0.4-21.6,0.2
	c-8-0.2-16.1,0-23.9-1.4c-1.1-0.2-2.2-0.4-3.3-0.7c-35.8-38-91.4-52.1-146.5-42.4c-84.2,14.8-161.4,1.3-236.6,53.3
	c-86,59.5-127.8,159.2-94.5,261c14.5,44.3,44.6,75.2,65.5,115.5c9,17.3,20.3,57.2,23,73.9c12.8,80.1,5.6,165.6,5.3,246.3
	c-0.8,178.2-9,358.2-1.9,536.2c2.3,58.8,16.5,111.9,44.7,156.8c2.6,16.7,13.7,28.3,26.2,38.6c4.2,3.4,8.5,6.6,13,9.6
	c16.6,15.9,35,29.7,54.9,41.2c70.1,40.9,145.7,75,219.1,109.6c155,73.1,316.2,140.4,485.7,170.5c90.2,16,213.8,44,298.2-4.8
	c95.6-55.3,92.3-189.3,81.8-284.9c-6.7-61.6-21.2-124.1-35.1-186.9c-0.2-8-0.6-15.9-0.3-23.8c1.4-36.6,3.1-73.1,4.7-109.7
	c0.8-17.7,1.5-35.5,2-53.2c0.9-29.7,1.8-59.4,2.3-89c0.5-31.8-0.1-63.7,1-95.6c0.6-16.8,3.7-33.6,5.3-50.4c0.1-1.4,0.3-2.8,0.4-4.1
	c12.2-23.8,25.2-47.4,37.1-72.3c3.8-8,7.5-16,11.1-24.1c3.5-1.9,7-3.8,10.3-6c15.2-9.8,28.1-22.5,40.5-35.6c2.3-2.4,4.4-5.4,7.2-6.9
	c9.4-4.9,16-12.4,22.3-20.7c15.4-20.3,24.7-42.5,24.4-68.3c0-2.8,0.3-5.6,0.7-8.3C2208.6,1423.8,2207.8,1411.6,2203.6,1400z
	 M1760,2178.6c1.1,4.9,2.2,9.9,3.2,14.9c-1.4-1.4-2.4-3.1-3-5c-1.2-3.9-1.5-8.1-0.8-12.1C1759.7,2177.1,1759.8,2177.9,1760,2178.6z
	 M2083.4,1219.7c-1.6-2.2-3.2-4.4-4.8-6.6C2080.3,1215.1,2082,1217.3,2083.4,1219.7L2083.4,1219.7z"/>
<path class="st4" d="M1025,1103.6c-2.7,3.1-3,8.1,1.6,10.6c2.4,1.2,7,4.5,5.3,7.9c-1.5,3.1-5.7,0.6-7.8-0.8
	C1015.5,1115.6,1015,1105.7,1025,1103.6z M1765.8,2179.5c-0.1,0.2-0.2,0.4-0.2,0.6l-0.3,1.4v0.9l-0.3-0.2c0.7,0.7,0,0.3,1.2,0.9
	c0.8,0.3,1.6,0.5,2.5,0.6C1768.2,2182.1,1767.2,2180.6,1765.8,2179.5L1765.8,2179.5z M1973.8,1697.7c-0.7,0.1-1.4,0.2-2.1,0.5
	c1.1,2.1,1.1,4.6,0,6.7c-1.5,2.6-2.1,5.6-1.9,8.6l0.4,1.6l1,1.7l1.1,0.5h0.3l0.7-0.3c1.2-0.5,2.9-2.8,3.8-4.4
	c2.1-3.7,3.6-9.8,0.7-13.3C1976.9,1698.1,1975.3,1697.5,1973.8,1697.7L1973.8,1697.7z M1813.7,1386.6c2-5.4,1.4-9.8-5-12.6
	c-0.2-0.1-0.4-0.2-0.7-0.3c-1.5,0.2-2.9,0.8-4.1,1.5c-3.1,2-4.2,5.2-4.5,8.6C1803.9,1385.6,1808.8,1386.6,1813.7,1386.6
	L1813.7,1386.6z M985.5,880.2c-9-0.6-19.5-4.6-20.7-13.8c-1.5-11.7,18.2-16.5,26.7-15.6c8.1,0.9,16.9,7,17.6,15.7
	c0.9,9.9-10.1,10.8-17.4,10.2C989.1,876.2,986.5,877.7,985.5,880.2z M979.4,2061.3c0.8-2,2.5-3.4,4.6-3.9c24-6.3,5.4-47.9-9.3-37.9
	c-6.5,4.3-5.3,17.3-4.1,23.7C971.8,2049.6,974.3,2056.9,979.4,2061.3z M1001,2245.9l-1.4-0.1l-0.6-0.1c-1.3-0.2-2.5-0.5-3.8-0.8
	s-2.5-0.7-3.8-1.1l-1.8-0.6l0,0l-0.4-0.2c-1.1-0.5-2.2-1.1-3.2-1.7l-0.5-0.3l0.8-0.3c2.3-0.7,4.6-1.3,7-1.7c0.3-0.1,0.5-0.1,0.8-0.2
	c1.4,1.3,2.7,2.6,4,3.9l2,2.2L1001,2245.9L1001,2245.9z M1057.2,1829.8c-2.5,6.2-13.8,7.5-19.4,6.4c-2.4-0.4-4.5-1.6-5.3-2.9
	c-0.7-1.3-0.8-2.7-0.4-4.1c0.6-1.8,1.8-3.4,3.5-4.4c2.8-1.7,6-1.7,9.2-1.3c1.9,0.3,3.8-0.4,5.1-1.7
	C1054.4,1823.3,1058.7,1825.8,1057.2,1829.8L1057.2,1829.8z M1415,1099.2c-1.3-21.1,16.6-39.7,37-43.3c19.2-3.3,38,15.2,29.5,34.7
	c-8.1,18.6-54.3,32-68.9,14.2C1414.3,1103.5,1415.3,1101.4,1415,1099.2z M989.8,1573c4.3-12.9,21.1-18.7,33.6-18
	c7.2,13.1,1.1,37.4-14,40.6C998.3,1598,986.4,1583.4,989.8,1573z M1258.1,1497.1c-3.8-29-27.2-59.9-18.8-88.2
	c3.2-10.8,10.7-11.3,21.1-9.5c18.9,3.4,31.6,14.9,35.6,33.9C1302.4,1464.1,1275.6,1477.4,1258.1,1497.1z M1252.8,2202.8
	c2.4,19.9-17.8,22-32.5,18.4c4.1-16.7-0.9-28.1-19.1-29.9c-3.1-0.3-14.5,0.3-13.3-5.8s20.7-6.3,24.7-6.4
	C1228.6,2178.6,1250.5,2183.6,1252.8,2202.8L1252.8,2202.8z M1760.9,1076.6c-0.8-1.2-0.8-1.3-1.2-3.4c-0.2-1-0.2,0.3-0.1-1.5
	c0-0.3,0.3-3,0-1.4c0.4-2.3,0.1-2,1.3-3.5l0.1-0.1l0.3-0.3c0.1,0,0.1-0.1,0.2-0.1c0.3-0.1,0.5-0.2,0.8-0.4c-1.2,0.7,1.2,0.3-0.1,0.1
	c1.7,0.3,0.4-0.2,1.6,0.2h0.1c-0.1,0.8-0.1,1.7,0.1,2.5c0.8,3.5,0.6,7.1-0.4,10.4C1762.5,1078.5,1761.6,1077.6,1760.9,1076.6
	L1760.9,1076.6z M1352.4,1749.1c0.4,1.7-0.3,3.5-1.7,4.5c-1.8,1.4-4,2.1-6.2,2c-5.5,0.1-15.1-3.2-15.1-9.1c0-3.9,3.6-5.7,7.6-6.1
	c0.3,0.1,0.7,0.2,1.1,0.3c4,0.5,8.3,1.3,11.5,4C1351,1745.8,1352,1747.4,1352.4,1749.1L1352.4,1749.1z M1279.7,912.3
	c-1.9-5-10.1-23.6-4.6-28.4c3.4-2.9,12.3,0.9,15.6,2.3c8.7,3.6,15.6,11.4,19.6,19.9c8.2,17.5-7.7,22.4-22,26.2
	C1285.2,925.7,1282.2,919.1,1279.7,912.3L1279.7,912.3z M1538.2,1930c0.8-12.3,4.9-25.3,9.3-36.7c7.7-20.1,17.5-34,40.6-35.9
	c12.9-1,26,1.1,38.9,0.6c26.1-0.9,49-13.5,69.3-29.3c8.3-6.5,16.5-18.5,25.9-23c17.7-8.6,15.4,14.9,15.6,28.6
	c0.2,16.2-1.4,32.4-0.4,48.6c0.7,10.5,4.8,23.6,2,34c-9.1,34.4-41.4,20-67.4,6.8c1.4,0,2.9,0,4.4,0.1c9.2,0.6,9.1-13.7,0-14.3
	c-8.7-0.7-17.5,0.6-25.6,4c-0.7-0.3-1.4-0.5-2-0.8c-5.2-1.8-8.6,2.3-8.7,6.7c-5.7,4-11,8.4-15.9,13.3
	c-20.6,19.9-33.7,31.3-64.6,23.5C1544.3,1952.3,1537.2,1946.3,1538.2,1930z M1793,2442.9c-2.8-14.5,25.7-17.3,45.2-17.7
	c1.7,12.2,6.1,23.7,10.1,35.4c-8-0.8-16-1.5-23.8-3C1816,2456.1,1795,2453.5,1793,2442.9z M2066.3,1273.9
	c-12.8,14.8-32,23.2-49.4,33c-0.7-20-4.6-35-19.2-51.8c-35.7-40.9,12.9-64.6,50.5-55.8C2080.5,1206.9,2086.7,1250.5,2066.3,1273.9
	L2066.3,1273.9z M1549,2412.6c-1,6.6-6.9,8.9-15.7,7.6c-8.6-1.2-21.2-5.9-24.2-14.9c-4.1-12.2,3.9-18.4,15.1-15.9
	c11,2.5,21.8,10.8,24.5,22.1C1548.8,2411.9,1548.9,2412.2,1549,2412.6z"/>
<path class="st1" d="M3247,1197.2c-3.8-91.5,7.7-187-21.4-275.5c-24-73.1-70.9-141.9-122.9-198.1c-25.9-28-54.4-52.7-84.2-75.8
	c-22.9-27.1-49.4-50.8-81-69.1c-4.2-2.5-8.6,0-10.1,3.6c-5.4-3.7-10.7-7.4-16.1-11.1c-33.1-22.9-66.7-46-106.2-55.8
	c-42.6-10.6-85.5-15.6-127.9-27.7c-36.6-10.5-73.1-7.4-109.7,1.4c-45.8,11.1-90.2,22.1-136.7,30.1c-50.4,8.7-100.4,19.6-150.5,29.7
	c-16.5,3.3-33,6.9-49.6,10c-21.8-0.5-43.9,3.4-65.5,5.5l-0.9-0.1v0.2c-2.3,0.2-4.4,1.4-5.6,3.3c-12.6,0.5-25.3,0.2-37.9-1
	c-46.5-4.6-84.6-2.2-129.6,10.9c-49.2,14.3-99,18.9-149.2,28.1c-49.3,9.1-97.7,22-146.4,33.8c-18.5,4.5-37.3,7.7-56.1,10.3
	c-7-2.7-14.4-4.4-21.9-5c-5.6-0.4-7.8,4.5-6.8,8.7c-22.3,2.8-44.7,5.3-66.9,9c-50.1,8.3-97.4,28-148.3,32.1
	c-4.6,0.4-9.2,0.7-13.7,1.1c-3.2-1.2-6.3-2.4-9.5-3.7c-4.6-1.8-7.8,1.3-8.5,5c-39,3-76.6,6.1-115.9,15.4
	c-54.5,12.7-108.3,29.1-163.5,38.8c-43.3,7.6-89,9.5-126.4,35.1c-5.3,3.6-3.3,10.9,1,13c-43,14.6-83.7,38.1-107.8,77.5
	c-42.8,69.7-19.9,161.4,12.2,230.3c23.8,51.2,54.7,103.8,60.6,161.1c5.5,53.6-14.6,105.1-24.5,157c-19.7,104.2-3.1,212.6-14.8,317.7
	c-6,54.2-19,107.4-22.8,161.9c-3.8,53.1,0.7,106.9,3.6,159.9c1.9,34.6,3.7,69.1,4.2,103.7c-0.4-0.4-0.7-0.8-1.1-1.2
	c-6.1-6.9-16.2,3.2-10.1,10.1c4,4.5,7.8,9.3,11.3,14.2c0,10.6-0.2,21.2-0.5,31.9c-0.4,9.1,13.9,9.1,14.2-0.1
	c0.1-3.4,0.2-6.8,0.3-10.2c14.4,23.9,27,48.4,50.3,67.4c34.6,28.4,73.6,50.7,114,69.7c39.6,18.7,80.6,34.3,121.4,50
	c44.4,17.1,87.7,37.1,132.1,54.1c53.4,20.4,107.8,36.8,160.2,60c43.5,19.2,87.6,37.7,133.6,50.1c95.3,25.6,196.7,21.2,294.3,16.6
	c36.5-1.7,75.6,1.8,111.5-5.6c23-4.8,36-15.5,43.6-34.4c21.8,35.6,71.5,33.9,112.1,24.6c15.3-3.6,30.4-8.1,45.2-13.4
	c1,8.2,14.2,7.9,14.2-1c0-1.4,0-2.8-0.1-4.2c8.8-3.3,17.6-6.6,26.4-9.9c18.1-6.9,36.4-13.3,54.8-19.5c3.5,3.5,11.4,2.2,12.6-4.2
	c20.6-6.7,41.3-13.1,62-19.3c0.8-0.1,1.6-0.3,2.3-0.7c8.4-2.5,16.7-5,25.1-7.4c25.5-7.5,51-15.1,76.5-22.9
	c16.4,19.4,43.6,1.2,57.8-18.3c55.9-18.2,111.4-37.7,166.1-59.6c46.3-18.5,91.1-39.6,135.6-61.4c52.2-4.4,107.1-31.1,149.8-59.8
	c13.9-9.3,23-19.2,28.8-30c43.3-24.7,83.6-55.9,100.6-101.6c19.7-27.6,36.4-55.2,38.6-92c3.7-66.6-11.4-135.6-26.7-199.9
	c-28.7-120.6-80.3-260.4-43.2-384.4c9.3-31,29.9-53.8,51.3-77c18.5-20,34.5-41.5,51.8-62.5c27-32.8,61.6-67.8,57.1-113.3
	C3245.9,1202.2,3247.2,1199.7,3247,1197.2z M2567,504.2c20.5-5.2,41.4-9.4,62.6-9.1c5.6,0.1,11.1,0.5,16.6,1.4
	c-1.5,2.6-0.9,5.9,1.5,7.8c95.7,88.6,157.1,205.4,207.6,324c25.2,59.2,47.8,119.5,71.3,179.5c26.1,66.8,56.1,132.2,79.7,199.9
	c24.8,71,38.4,142.9,35.2,218.3c-3.3,76.7-20.7,151.3-32.6,226.9c-23.5,149.5-19.3,301.9-6.4,452.2c2.6,30.4,8.2,61.6,7.8,92.1
	c0.1,8.9-1.8,17.8-5.5,25.9c-16.9,9.4-34,17.9-50,25.8c-39.9,19.7-79.3,40.3-119.1,60.1c-0.1-0.1-0.2-0.1-0.3-0.2
	c-9.2-7.1-6.1-39.9-5.7-50c2.6-59.8,25.2-117.1,35-175.8c13-77.9,26.1-155.8,46-232.3c36.9-142.3,84.9-278.1,82.8-427.4
	c-1.9-131.9-35.2-269.6-86.6-390.7c-28.4-67-65-130.4-110.5-187.2c-50.9-63.5-112.6-116.4-174.2-169c-37.7-32.2-65.9-72.8-101-107.6
	c-15-14.9-36.4-35.7-59.2-40.9C2497.1,520.7,2532.2,513,2567,504.2L2567,504.2z M2294.8,560.7c45-9.2,90.1-17.5,135-26.4
	c-1.1,2.2-1,4.8,0.1,7c25.8,54.2,65.1,115.6,112.8,153.2c25.3,20,56.2,30.8,82.5,49.1c33.1,22.9,56.8,56.6,79.6,89.2
	c40.8,58.4,88,112.5,117.7,178c32.6,71.8,33.8,150,56.5,224.4c25,82.1,34.4,161.1,25,246.8c-9.2,84.1-34.9,156.5-72.6,231.9
	c-32.9,65.7-62.8,130.7-81.5,202c-19.3,73.5-30,149-37.3,224.5c-5.9,60.9,13.8,116.1,14.7,176.3c0.4,29.7-17.6,38.1-42.6,50.3
	c-19.5,9.5-44.2,22.6-67,24.7c-13-160.8,24-316.7,72-469.2c23-73.1,46.4-146,74.8-217.1c25.5-63.8,53-127.3,70.2-194
	c35.7-138.3,8.2-277.2-46.1-406.9c-55.4-132.3-133.6-253.9-243.8-346.9c-60.9-51.3-130-90.7-192.9-139.3
	c-24.9-19.2-51.2-41.6-81.4-52.4C2278.7,564.1,2286.8,562.3,2294.8,560.7L2294.8,560.7z M2236.7,573.1c5.5,0.4,10.9,1.2,16.3,2.4
	c37.1,8.3,68.8,37.4,98.1,60.1c54.7,42.4,115.1,76.4,169,120c111.3,90,191,207.3,248.2,337.7c59.6,136.1,89.6,281.7,49,427.3
	c-17.7,63.5-44.1,124.1-68.4,185.2c-26.5,66.5-48.3,134.7-70,202.9c-50.6,159.2-90.3,322.1-75.1,490.3c0.2,2,1,3.9,2.5,5.3
	c-20.7,7.1-41.4,14-62.3,20.7c5-15.6,3.2-30.8-0.6-48.5c-9.7-45-13.5-87-13.7-133.2c-0.4-88.2,11.2-168.2,43.9-250.2
	c14.6-36.7,28.4-74.7,46-110.1c19.3-38.6,43.3-74.8,60.6-114.5c13.6-31.1,22.3-63.8,30.8-96.6c11-42.4,25.4-82.7,39.4-124
	c24.9-73.6,42.5-152.8,39.9-231c-2.8-84.6-43.6-160.2-81.2-233.9c-19-37.2-33.6-76.3-52.7-113.3c-16.5-31.8-38.2-54.9-66.5-76.5
	c-79.1-60.3-152.5-127.6-229.8-190.3c-38.3-31.1-78.8-60.2-115.9-92.6c-13.4-11.7-25.6-22.8-39.3-31.3
	C2215.5,577.3,2226.1,575.3,2236.7,573.1L2236.7,573.1z M2019.3,584.8c48.6-12.4,92.3,0,141-1.4c6.3-0.2,12.7-0.6,19.1-1.2
	c29.9,10,51.8,36.5,76.3,55.8c34.5,27.2,69,54.4,103.1,82.1c62.1,50.6,120.2,106.8,183.6,155.5c31.6,24.3,66.9,45.2,89.1,79.2
	c18.2,27.8,29.2,59.5,42.9,89.6c31.2,68.8,73,133.2,92.2,207.1c20.7,79.8,6.7,166-14.8,244.2c-9.9,35.8-23.6,70-35.4,105.1
	c-12.7,38-20.5,77.5-32.2,115.8c-21.6,70.8-66.7,129.8-94,198.1c-27.5,68.7-59.8,137-68.9,211.1c-4.8,39-5.9,78.5-5.7,117.7
	c0.2,37-0.6,74.7,7.7,110.9c6.1,26.3,15,52.6,3.4,76.1c-14.5,4.6-29.1,9.2-43.6,13.7c-3.8-8.7-5.7-20.6-6.7-30.4
	c-4.3-41.8-1.6-83.9-0.4-125.8c2.2-75.1-2.5-146.6,18.9-219.7c43.7-149.6,122.4-289.2,188.4-429.8c27.7-59.1,50.9-120.2,55.9-185.9
	c5.3-69.5-5.3-142.4-25.4-208.9c-22.5-74.5-62.5-139.4-96.6-208.7c-36.4-74-76.6-134.1-145.5-181.5c-31.6-21.7-65.6-39-98.5-58.6
	c-38.2-22.7-70.9-52.8-105.8-80c-60.3-47.1-137-74.4-189.3-131.3c-6.2-7.2-16.2,2.9-10,9.7c48.8,53.1,118.4,78.8,175.6,120.9
	c28.4,20.9,54.7,44.5,82.9,65.8c33.3,25.1,70.4,43.2,105.8,64.8c32.1,19.6,63.2,41.3,89.8,68c32.3,32.3,54,71,74.1,111.5
	c35.1,70.9,76.9,138.3,101.1,214.2s36.5,161,24.6,240.3c-11.6,77.1-48.4,146.3-81.6,215.9c-36.5,76.6-73.8,153.2-107.7,231
	c-30.8,70.7-61.2,145.5-68.7,222.9c-5.7,58.7-2,118.5-3.6,177.4c-1.1,37.3-6.3,86.4,7.9,122.8l-35.4,11
	c-2.8-36.1-10.6-71.7-11.9-108c-1.5-41.4,2-83,4.2-124.3c4.2-81.7,8.5-164.8,30.4-244c21.7-78.4,60.9-151.7,89.7-227.7
	c29.1-76.9,69-147.2,101.4-222.4c29.2-67.8,31.2-133.6,20.4-206c-10.7-72.1-27.4-137.8-63-201.9c-69-124.9-175-219.1-284.6-307.6
	c-30.1-24.3-61.1-48.2-95.1-66.9c-26.5-14.6-54.6-23.2-82.7-33.8c-55.6-21.1-140.1-53.7-163.9-113.8c-1-2.8-3.7-4.7-6.7-4.8
	C1987.1,594.2,2003.1,589,2019.3,584.8z M1746.3,641.6c15.8-3.9,31.6-7.6,47.5-11.2c-0.3,2,0.4,4,1.7,5.5
	c42.9,51,99.7,82.3,161.2,105.8c74.1,28.3,149.7,51.1,220.1,88.4s125.8,85.1,175.5,146.9c20.4,25.3,40.1,51.2,62,75.3
	c23.6,26,51.3,47.2,76.3,71.7c112.2,110.2,98.1,295.7,22.2,423.2c-17.7,29.8-38.9,57.3-56.9,87c-20.6,33.9-31.6,69.5-44.6,106.7
	c-25.2,72-57.3,141.9-74.6,216.4c-19.2,82.6-19.3,173.4-12.1,257.5c7.7,89.7,38.5,176.2,39.4,266.6c-17.7,5.6-35.3,11.4-52.9,17.2
	c2-70.8-21.7-139.9-32.9-209.2c-14.3-87.8-26.1-173.8-21.7-262.9c3.9-78.8,16.4-157.3,41.7-232.2c26.8-79.7,73.7-148.6,106.7-225.4
	c54-125.8,94.3-296.8,14.9-420.9c-41.6-65-112.8-100.6-171.1-148.5c-59.9-49.2-117.8-100.4-182.9-142.6
	c-74.8-48.5-156.2-87-241.8-111.8c-44.6-13-87.2-23.9-124.2-53.7c-13.5-10.9-26.7-22.9-41.2-32
	C1687.9,654.4,1717.2,648.8,1746.3,641.6z M2034,2530.7c-7.7,25.8-27.4,31.1-52.2,33.4c-36.8,3.4-74.8,2.2-111.8,3.8
	c-48.1,2.1-96.4,3.3-144.5,0.9c-51-2.5-101.1-9.6-149.9-25.1c-46.3-14.7-90.1-35.2-134.7-54.1c-44.1-18.8-90.4-31.8-135.2-48.9
	c-41.5-15.9-82-34.7-123.5-50.8c-84.9-32.8-175.1-64.5-244.8-125.2c-24.6-21.3-36.2-50.6-53.2-76.9c-0.5-89.1-12-177.9-8.7-267
	c2-52.2,13.6-103.3,20.8-155c6.7-47.9,8.1-96.1,8.5-144.3c0.4-51.6-0.6-103.5,3.7-155c4.2-50.3,22-97.9,28.6-147.8
	c12.5-94.8-45.3-169.6-76.1-254.3C832,984.6,832.6,888,910.4,838c53.3-34.3,120.8-43.6,182.8-48.4c37.1-2.9,74.5-4.7,111.7-2
	c53.3,3.8,98.7,20.6,147.4,41.2c37.9,16.1,78.4,19.8,119.1,22c49.6,2.7,96.5,9.3,144.7,21.7c85.3,21.9,160,56.1,233.8,104.1
	c71.1,46.2,151.4,85.1,206,152c30.8,37.7,54.9,81.8,82.5,121.9c26.6,38.6,40.6,80.8,45.4,127.2c3.9,37.4,5.7,82.1-12.2,116.3
	s-51.1,62.1-77.5,89.8c-15.7,16.4-31.9,32.7-37.3,55.5c-8.2,35-3.3,74.6-4.1,110.1c-2.4,101.2-3.7,201.7-0.1,303
	c3.5,100.9,7.9,202.1,2.1,303.1c-2.4,41.9-8.3,83.2-12.6,124.9c-1.1,10.7-2.1,21.6-3.9,32.2c-1.7,1.7-2.4,4.2-1.8,6.5
	c0.1,0.4,0.2,0.8,0.3,1.2C2035.9,2523.8,2035,2527.3,2034,2530.7z M2051.2,2518.9c6.9-33,8.9-68.3,12.4-101.6
	c5.6-52.1,7.5-104.6,7.8-157c0.5-106.1-6.3-212-7.9-318.1c-0.8-53.5,0.7-107,2.3-160.5c0.8-27.1,1.5-54.1,1.6-81.2
	c0.1-19.5-1.6-40.8,3.4-59.9c8.3-31.5,42.2-56,63.6-78.7c24.4-25.9,50.3-52.5,59.2-87.9c17.8-70.8,3-157.1-35.2-218.6
	c-48.1-77.7-96.6-154.2-171.7-208.2c-35.9-25.8-74.2-47.9-111.7-71.4c-38.4-24.1-75.2-49.6-116.4-68.9
	c-79.4-37.3-170.4-63.2-258-68.8c-56.8-3.6-107.6-6.9-160.3-30.4c-38.9-17.3-79.3-28.9-121.7-33.3c-70.9-7.3-148.2-1.7-217.9,13.7
	c-10.4,2.3-20.9,5-31.4,8.2c33.2-20.8,73.2-23.6,111.3-29.8c45.8-7.4,90.5-20.2,135.4-31.4c46.2-11.6,92.8-23.6,140.6-24.6
	c7.3-0.2,14.6-0.4,21.8-0.8c78.4,29.9,159.4,52.4,240.2,74.8c81.5,22.5,167.6,42,243.5,79.9c66,32.9,126.1,78.2,188.6,117.1
	s116.4,93.3,164.8,148.4c48.7,55.3,76.9,123.5,95,194.5c19,74.4,25.9,156.2-15.3,223.7c-75,123.2-122,272.8-135.6,416
	c-8.8,95.7-8.7,192.1,0.4,287.8c9.2,96.3,38.9,188.8,41.9,285.8C2152,2555.8,2068.3,2580.9,2051.2,2518.9z M2217.3,2531.8l-1.2,0.5
	c-3.2-81.2-24-159.2-36.7-239.3c-14.6-92.6-13-190.8-8.7-284.3c7.8-166.7,64.1-324.1,145.6-468.2c33-58.4,26.6-134.1,13.2-197.6
	c-13.7-65.2-37.4-134.2-76.1-189.1c-84.2-119.4-213.1-199.7-335.3-274.6c-78.6-48.1-166.8-72.5-254.9-97.2
	c-84.4-23.7-169.2-45.8-251.8-75.3c19.6-2.3,39-6.1,58-11.1c54.7-14.8,110.5-23.1,166.1-32.3c28.3,10.4,50.4,38,75.2,54.1
	c27.8,18.2,59.2,27.5,90.9,36.3c75.3,21.1,147.1,50.6,214.8,89.8c71.9,41.7,135.2,93.7,198.8,146.9c26.3,22,52.7,43.8,80.3,64.1
	c32.1,23.7,66.1,43.2,92.1,74c107.5,127.7,56.5,324.2-7.4,460.3c-31.9,67.9-71.9,130.2-96,201.8c-22.5,66.8-35,136.6-40.3,206.7
	c-6.6,86.2,0.3,169.8,13.9,254.9c13,81.8,42.8,167.9,38.8,251.3C2270,2512.5,2243.6,2521.9,2217.3,2531.8L2217.3,2531.8z
	 M2378.2,2476.9c-1.8-82.5-28.2-161.3-37.4-242.8c-9-79.1-9.6-165.3,3.8-243.9c13.4-78.9,46.6-152.5,73.9-227.1
	c14.1-38.6,24.3-77.9,45-113.7c20.5-35.5,46.3-67.7,66.6-103.5c61.9-109,85.3-273.5,12-382.9c-38.1-56.8-97.3-95.3-140.8-147.8
	c-44.2-53.5-84.4-110-141.4-151c-69.2-49.7-148.3-82.3-228-110.8c-83.1-29.7-165.8-56.8-224.9-125.9c25.2-5.4,50.6-10.2,76-14
	c22.6-3.4,45.6-4.9,68-9.8c5-1.1,10-2.3,15-3.7c-2.4,1.6-3.2,4.6-2,7.2c18.1,45.6,65.9,73.7,107.6,94.8
	c49.8,25.2,105.5,37.8,153.6,65.9c62.5,36.5,119.3,86.6,173.6,134.2c55.6,48.6,106.9,102.9,149.9,163
	c42.2,58.9,77.7,124.7,92.8,196.1c17.3,81.9,30,168.4-0.5,248.5c-27.8,73.2-70.2,139.9-98.5,213.2c-29.3,75.8-65.2,149.8-91.4,226.7
	c-28,82.3-34.5,170.4-39.1,256.6c-2.3,43.2-5.4,86.6-5.4,130c0,43.1,9.6,85.1,12.3,128C2405.3,2468.4,2391.8,2472.7,2378.2,2476.9
	L2378.2,2476.9z M2497.6,2456.5l7.6-2.4C2502.8,2455.4,2500.2,2456.2,2497.6,2456.5L2497.6,2456.5z M2724.7,2360
	c0.7-0.6,1.4-1.1,2-1.7c29.1-25.1,10.6-81.6,5.3-113.6c-4.1-24.5-9.1-49.3-8.2-74.3c1.8-46.6,9.2-94.2,16.5-140.2
	c13.8-85.9,35.7-170.1,73.1-249c31.7-66.8,70-131.4,88.5-203.6c20.5-79.9,26.9-168.7,14.8-250.3c-5.4-36.2-16.8-70.3-27.1-105.2
	c-12.1-40.9-15.8-82.9-24.6-124.5c-15.7-74.4-50-140.9-96-201.1s-84.6-135.2-151.6-174.6c-38.9-22.8-72.7-40.8-102.3-76
	c-27-32.1-50.9-67.2-69.6-104.7c35-9.2,80.8,53.1,99,73.9c32.3,37.2,64.7,68.5,102.2,100.8c110.5,95.3,199.5,202.5,254.1,339.1
	c51,127.6,83.1,271.8,77.8,409.5c-5.9,153.3-63.4,293.1-95.8,441.1c-17.1,78.1-25.7,158-45.2,235.5c-13.8,54.9-34,118.3-14.9,174.3
	c-27.8,13.6-55.8,26.8-84.3,38.9C2733.8,2356.2,2729.2,2358.1,2724.7,2360z M2962.3,2261.6c-21.5,12.4-44,23.7-67.2,32.6
	c18-9,36-17.9,54.1-26.8c6.2-3.1,12.6-6.2,19.1-9.4C2966.4,2259.2,2964.4,2260.4,2962.3,2261.6L2962.3,2261.6z M3081.3,1884.7
	c2.3-41,2.6-82.1,4.6-123.1c0.3-7,0.8-13.9,1.1-20.9c1.9,7.5,3.7,14.9,5.5,22.2c17.6,71,37.4,141.8,44.1,214.9
	c3.3,36.1,7.2,75.9-9,109.6c-3.9,8-8.5,15.7-13.5,23c-3.5-1.1-7.6,0.1-8.8,4.7c-1.1,4.4-2.5,8.8-4.1,13.1c-3.8,5-7.7,10-11.5,15.1
	C3069.6,2059,3076.6,1970.3,3081.3,1884.7L3081.3,1884.7z M3073.9,1439.3c-26,65.8-20.3,142.5-6.3,215.6c-3.5,1.5-6.2,5.7-4.1,10.2
	c17.8,37.2,8.1,84.1,7.5,124c-0.6,41.5-3.3,82.9-5.5,124.3c-4.4,82.5-8.2,167.4,14.2,247.9c0.2,0.8,0.6,1.5,1,2.2
	c-15.8,19.8-36.8,35.9-59.2,49.8c3.2-16.2,2-34.4-0.1-55.2c-15.4-159.4-24.2-321-2.1-480.2c10.2-73.7,27.7-146.2,34.2-220.4
	c6.4-73.4-0.2-144.6-21.2-215.2c-21-70.8-52.3-137.9-79.6-206.3c-23.9-59.8-46.2-120.2-70.7-179.9
	c-50.6-123.5-110.4-247-204.8-342.8c56.5,22.1,86.9,82.2,119.3,131.8c49.8,76.2,107.5,146.7,155.2,224.5
	c47.1,76.8,81.4,157.9,101.6,245.8c19.4,84.2,27.6,171,62.7,250.8c0.9,2.1,3.4,3.4,5.8,3.6
	C3102.5,1391.1,3084.1,1413.4,3073.9,1439.3L3073.9,1439.3z M3186.3,1264.3c-1.5,36.7-32.1,66.6-60.9,87.3
	c-36.8-88.2-42.5-185.5-67.5-277.2c-23.5-86.2-62.7-164.3-110.8-239.2c-48.6-75.8-105.7-145.7-153.7-221.8
	c-24-38.1-50-78.1-87.3-101.7c36.9,8.9,75.8,9.9,111.7,22.4c41.9,14.5,78.3,44.2,114.3,69.2l5.6,3.9
	c70.8,136.2,122.2,279.6,171.6,424.7c17.8,52.3,42.8,101.8,60.5,154.1C3178.1,1210.6,3187.4,1238,3186.3,1264.3L3186.3,1264.3z
	 M3212.1,1260.7c-5.1,7.6-10.6,14.9-16.2,22.1c4.1-15.5,4.7-31.6,1.9-47.4c-11.1-64.2-42.9-123.8-66.3-184
	c-29.7-76.5-52.4-155.6-82.5-232.1c-26-66.4-54.7-131.6-86.8-195.2c15.2,10.5,30.2,21.2,45,32.3c46.5,54.7,77.1,124,103.5,189.8
	c43.7,108.9,80.8,219.8,113.1,332.5C3232.7,1210.2,3230.1,1233.6,3212.1,1260.7L3212.1,1260.7z M3221.4,1126.4
	c-10.9-35.3-20.1-71-31-106.3c-17.8-57.9-40.6-114.1-63-170.3c-20.8-52.3-43.9-106.8-74.8-155.3c58.4,53.3,106.3,117.1,141.2,188
	c42.5,86.4,37.2,180.8,38,274.3C3228.3,1146.7,3224.5,1136.6,3221.4,1126.4L3221.4,1126.4z M992.8,879.8c-9.4,1.7-26.5-1.5-28-13.5
	c-1.5-11.7,18.2-16.5,26.7-15.6c8.1,0.9,16.9,7,17.6,15.7c0.9,9.9-10.1,10.8-17.4,10.2c-9.1-0.7-9.1,13.6,0,14.3
	c12.5,1,26.7-3.1,30.7-16.4c3.4-11.4-2.4-23.6-11.4-30.7c-12.2-9.5-28.5-8.9-42-2.7c-13.2,6-22.8,19.2-16.4,33.7
	c7.4,16.7,27.4,21.8,44,18.9C1005.6,892,1001.8,878.2,992.8,879.8 M1293,942.1c-4.7-9.8-9.6-19.6-13.3-29.8
	c-1.9-5-10.1-23.6-4.6-28.4c3.4-2.9,12.3,0.9,15.6,2.3c8.7,3.6,15.6,11.4,19.6,19.9c10.7,23-19.8,24.2-34.2,29.7
	c-8.5,3.3-4.8,17.1,3.8,13.7c19.1-7.4,51.6-9.9,46.8-38.9c-3.6-21.9-25.9-42-48.5-41.7c-39.3,0.5-5.1,64.5,2.5,80.3
	C1284.7,957.6,1297,950.4,1293,942.1 M1415,1099.2c-1.3-21.1,16.6-39.7,37-43.3c19.2-3.3,38,15.2,29.5,34.7
	c-9,20.7-65.6,35-72.6,6.7c-2.2-8.9-16-5.1-13.7,3.8c11.3,45.2,96.9,26.4,102.1-14.7c3.4-26.7-19.7-48.5-45.8-44.8
	c-27.6,3.9-52.4,28.9-50.6,57.5C1401.3,1108.3,1415.6,1108.4,1415,1099.2 M1027.2,1089.1c-11,0.8-21.8,6.3-24,18
	c-2.2,11.9,6.2,23.1,16.5,28.1c9.3,4.5,21,2.8,25.2-7.6s-1.9-20.9-11.1-25.7c-8.1-4.3-15.3,8-7.2,12.3c2.4,1.2,7,4.5,5.3,7.9
	c-1.5,3.1-5.7,0.6-7.8-0.8c-9.2-6.1-9.1-17.1,3.2-18C1036.3,1102.7,1036.3,1088.5,1027.2,1089.1 M1778.8,1058.7
	c-6-4.7-13.3-8.8-21.2-6.4c-6.1,1.8-10.3,7.4-11.7,13.5c-3.4,14.7,6.9,27.7,21.7,28.7c2.5,0,4.9-1.3,6.1-3.5c5-8,5.7-17.1,3.9-26.1
	s-15.5-5.2-13.7,3.8c1.2,5.2,0.3,10.6-2.5,15.1c2.1-1.2,4.1-2.3,6.2-3.5c-2.7,0-5.2-1.4-6.7-3.7c-0.8-1.2-0.8-1.3-1.2-3.4
	c-0.2-1-0.2,0.3-0.1-1.5c0-0.3,0.3-3,0-1.4c0.4-2.3,0.1-2,1.3-3.5s-1,0.9,0.4-0.4c0.8-0.7-0.8,0.4,0.9-0.5c-1.2,0.7,1.2,0.3-0.1,0.1
	c1.7,0.3,0.4-0.2,1.6,0.2c1.9,0.6,3.7,1.5,5.2,2.7c3.1,2.4,7.1,2.9,10.1,0C1781.3,1066.4,1781.9,1061.1,1778.8,1058.7 M2017,1317.6
	c0.1-25.7-2.2-42.9-19.4-62.5c-35.7-40.9,12.9-64.6,50.5-55.8c32.4,7.6,38.6,51.2,18.2,74.6c-17.1,19.7-45.4,28-66,43.5
	c-7.2,5.4-0.1,17.8,7.2,12.3c26.8-20.1,69.5-30.9,80.9-66.1c8.8-27.2,2.3-62.2-25.7-74.5c-25.4-11.2-68.5-8.2-86.1,15.9
	c-8.7,11.9-9.9,29.6-3.6,42.9c3.4,7.1,9.3,11.7,14.5,17.3c14.7,16.1,15.3,31.5,15.2,52.5C2002.7,1326.7,2017,1326.8,2017,1317.6
	 M1676.4,1909.5c-22.4-1.5-36.6,8.1-52.2,23.2c-20.6,19.9-33.7,31.3-64.6,23.5c-15.3-3.9-22.4-9.9-21.4-26.2
	c0.8-12.3,4.9-25.3,9.3-36.7c7.7-20.1,17.5-34,40.6-35.9c12.9-1,26,1.1,38.9,0.6c26.1-0.9,49-13.5,69.3-29.3
	c8.3-6.5,16.5-18.5,25.9-23c17.7-8.6,15.4,14.9,15.6,28.6c0.2,16.2-1.4,32.4-0.4,48.6c0.7,10.5,4.8,23.6,2,34
	c-12.2,46.1-66.1,4.5-90.6-4.2c-8.7-3.1-12.4,10.7-3.8,13.8c25.3,9,48.2,31.1,76.8,24.7c20.2-4.5,31.9-18.2,32.4-38.8
	c0.3-14.2-2.9-28.5-3-42.8c-0.1-20.1,2.2-40.1-1-60.1c-1.9-11.9-5.3-28.1-20.6-25.8c-6.6,1-12.9,7.9-17.5,12
	c-17.5,15.5-33.9,31.4-55.7,40.8c-30.3,13.2-67.7-3.4-96,13.9c-25.3,15.4-53.2,85.3-28.2,109.7c13.5,13.2,46.2,15.6,63.4,11.7
	c33.2-7.4,42.4-50.6,80.8-48C1685.6,1924.4,1685.5,1910.1,1676.4,1909.5 M1258.6,1506.5c1.3-31.6-28.6-66.2-19.3-97.6
	c3.2-10.8,10.7-11.3,21.1-9.5c18.9,3.4,31.6,14.9,35.6,33.9c7.9,37.7-34.2,49.2-47.8,78.4c-3.8,8.2,8.4,15.5,12.3,7.2
	c9.4-20.3,30.2-28.5,42.3-46.4c9.2-13.5,10.4-30.2,6.2-45.8c-7.2-26.6-37.3-50.3-66.2-41.3c-45.4,14.2,2.7,93,1.5,121
	C1243.9,1515.6,1258.2,1515.6,1258.6,1506.5 M1024.2,1540.6c-18.8-1.3-42.2,9.2-48.1,28.5c-5.5,18.1,10.2,39.4,28.9,40.8
	c32.3,2.5,48.1-51.3,24.3-70.1c-7.1-5.6-17.3,4.4-10.1,10.1c13.1,10.3,7.6,42-9.8,45.7c-11.1,2.4-23-12.2-19.6-22.6
	c4.4-13.2,21.8-18.9,34.4-18C1033.4,1555.6,1033.3,1541.3,1024.2,1540.6 M1044.9,1809.2c-11.5-1.1-23.9,5-26.7,16.9s5.5,21.9,17,24
	c13,2.4,31.9-2.6,35.9-17c4.3-15.4-11.4-24.9-24.4-26.7c-3.8-0.5-7.6,0.9-8.8,5c-1,3.3,1.2,8.2,5,8.8c4.6,0.6,16.7,3.3,14.3,9.6
	s-13.8,7.5-19.4,6.4c-2.4-0.4-4.5-1.6-5.3-2.9c-0.7-1.3-0.8-2.7-0.4-4.1c0.6-1.8,1.8-3.4,3.5-4.4c2.8-1.7,6-1.7,9.2-1.3
	C1054,1824.3,1053.9,1810.1,1044.9,1809.2 M983.6,2064c-8-3.6-11.5-12.7-13-20.8c-1.2-6.4-2.4-19.4,4.1-23.7
	c14.7-10,33.3,31.6,9.3,37.9c-8.9,2.3-5.1,16.1,3.8,13.7c35.8-9.4,23.8-72.7-12.5-66.8c-31.6,5.1-22.2,61.8,1.1,72
	C984.7,2079.9,991.9,2067.7,983.6,2064 M989.9,2225.6c-7.4,1.4-17.8,4.1-20,12.5c-1.9,7.3,4.5,13.1,10.3,16.2
	c6.1,3.2,12.7,5.2,19.6,5.8c6.5,0.6,14.7-0.9,16.9-8.1c3-9.8-7.5-19-13.9-24.6c-2.8-2.6-7.3-2.6-10.1,0c-2.6,2.6-2.9,7.5,0,10.1
	c1.9,1.7,3.7,3.4,5.4,5.2l2,2.2l0.8,0.9c1.2,1.4-0.5-0.7,0,0c0.6,1.2,1.3,2.4,2.1,3.5c0.1,0.1-0.6-1.9-0.3-0.7l0.2,0.6
	c0,1.7,0-2-0.1-0.4c0,1.2,0.5-2.2,0.1-0.7l0.5-1.1l0.7-0.9c-1,1.1,0.7-0.4,0.6-0.4c-1.3,0.9,0.3-0.1,0.5-0.1l-1.2,0.3l-0.7,0.1
	c-0.8,0.3,2.1-0.1,0.9-0.1s-2.1,0.1-3.2,0l-1.7-0.1c-1.7-0.1,1.9,0.3-0.3-0.1c-1.3-0.2-2.5-0.5-3.8-0.8s-2.5-0.7-3.8-1.1l-1.8-0.6
	c-1.9-0.7,1.4,0.7-0.4-0.2c-1.1-0.5-2.2-1.1-3.2-1.7l-1.4-0.9l-0.6-0.4c-1.2-0.7,1,1,0.5,0.4l-1-0.9c-1.2-1.1-0.1-0.6,0.1,0.3
	l-0.6-1c0.1,0.1,0.6,2,0.3,0.5c-0.2-0.7,0.2,2.3,0.2,1.1s-0.3,1.6-0.2,1.2c0.4-1.5-1,1.8-0.2,0.5c0.4-0.6-1.2,1.8-0.1,0.2l-0.6,0.4
	l0.7-0.5l2.1-1.1c0,0-1.9,0.7-0.3,0.1l1.4-0.5c2.3-0.7,4.6-1.3,7-1.7c3.8-0.7,5.9-5.3,5-8.8S993.7,2224.8,989.9,2225.6 M1220,2222.5
	c4.7-17.4-0.1-29.4-18.8-31.2c-3.1-0.3-14.5,0.3-13.3-5.8s20.7-6.3,24.7-6.4c16-0.5,37.9,4.5,40.2,23.7
	c2.7,22.5-23.3,22.2-37.8,16.8c-8.6-3.2-12.3,10.6-3.8,13.7c17.1,6.3,39.2,6.9,50.5-9.9c9.4-14,5.8-32.6-5.7-44.2
	c-13.7-13.8-33.9-15.8-52.2-13.7c-14.7,1.6-38.9,10.7-27.4,30c4.2,7.2,12.1,8.9,19.7,9.7c10.9,1.1,13.5,1,10.1,13.5
	C1203.8,2227.6,1217.6,2231.4,1220,2222.5 M1783.9,2188.2c-1-12.2-6.6-22.4-19.5-24.6c-3.2-0.5-6.3,0.4-8.1,3.3
	c-3.6,6.1-6.7,13.5-4.2,20.6c2.9,7.9,11.1,10.2,18.7,10.8c9.1,0.7,9.1-13.6,0-14.3c-1.6-0.1-3.1-0.4-4.6-0.9
	c-1.2-0.6-0.5-0.2-1.2-0.9l0.3,0.2v-0.9l0.3-1.4c0.7-2.1,1.6-4.1,2.8-6c-2.7,1.1-5.4,2.2-8,3.3c6.5,1.1,8.5,4.3,9.1,10.8
	C1770.4,2197.2,1784.6,2197.3,1783.9,2188.2 M1853.5,2411.2c-21.4-0.6-77-1.5-74.9,31.8c2,31.8,57.9,30.2,79.9,33
	c4.6,0.6,8.1-5,6.9-9c-5.1-17.1-13.6-33.4-13.6-51.7c0-9.2-14.3-9.2-14.3,0c0,19.7,8.7,36.9,14.1,55.4l6.9-9
	c-11.3-1.5-22.8-2-34-4.1c-8.5-1.5-29.5-4.1-31.5-14.7c-3.8-19.5,49.4-17.9,60.6-17.6C1862.7,2425.7,1862.6,2411.5,1853.5,2411.2
	 M1562.3,2407.6c-4.3-18.2-23.1-31.8-41.3-33.1c-20-1.4-30.9,15.8-25.7,34.5c4.5,16.2,25,24.9,40.4,25.7c20.3,1.1,31-13.6,26.6-32.9
	c-2-8.9-15.8-5.2-13.7,3.8c2.7,12-3.9,16.3-15.3,14.6c-8.6-1.2-21.2-5.9-24.2-14.9c-4.1-12.2,3.9-18.4,15.1-15.9
	c11,2.5,21.8,10.8,24.5,22.1C1550.7,2420.3,1564.4,2416.5,1562.3,2407.6 M1347.8,1726.8c-10.7-2.5-23.7-0.9-29.8,9.4
	c-5.3,9-2.5,20,5.5,26.3c8.3,6.6,21.2,9.4,31.1,5.1c8.2-3.4,13-11.9,11.8-20.7c-1.8-12-13.4-18.5-24.5-20c-3.8-0.5-7.6,0.9-8.8,5
	c-1,3.3,1.2,8.2,5,8.8c4,0.5,8.3,1.3,11.5,4c1.4,1.1,2.4,2.7,2.8,4.4c0.4,1.7-0.3,3.5-1.7,4.5c-1.8,1.4-4,2.1-6.2,2
	c-5.5,0.1-15.1-3.2-15.1-9.1c0-6.2,9-7,14.6-5.7C1352.9,1742.7,1356.7,1728.9,1347.8,1726.8 M1587,1516.2
	c-4.4-4.6-9.5-9.1-15.9-10.3c-6.9-1.2-12.8,1.9-17.7,6.5c-2.3,2.3-2.7,5.8-1.1,8.6c3.8,5.9,8.9,11.5,16.1,12.8s13.8-2.3,18.6-7.6
	c6.2-6.7-3.8-16.8-10.1-10.1c-1.5,1.6-3.4,3.9-5.8,3.7c-2.9-0.2-5.2-4-6.6-6.1c-0.4,2.9-0.7,5.8-1.1,8.6c1.9-1.7,3.6-3.2,6.2-2.3
	c2.9,1.1,5.3,3.9,7.3,6.1C1583.3,1532.9,1593.4,1522.8,1587,1516.2 M1822.9,1360.9c-10.5-2.8-22.8-2.6-30.9,5.5
	c-3.6,3.7-5.9,8.5-6.6,13.7c-0.4,3-0.9,7,0,10c1.1,3.5,4.2,4.9,7.3,6.2c6.1,2.6,12.5,4.1,19.1,4.4c2.6,0.2,6,0.4,8.5-0.4
	c3.8-1.2,5.1-4.8,6.5-8.2c4.7-12.2,1.5-24.9-11-30.4c-8.3-3.7-15.6,8.6-7.2,12.3c7.7,3.4,7.1,8.9,3.6,15.9c2.1-1.2,4.1-2.3,6.2-3.5
	c-7.8,0.9-15.6-0.6-22.5-4.2c1.2,2.1,2.3,4.1,3.5,6.1c-0.4-4.8-0.1-10.2,4.4-13.1s10.5-1.8,15.3-0.5
	C1828,1377,1831.8,1363.3,1822.9,1360.9 M1959.5,1697.6c-4.7,9.3-6.3,22.2,2.4,29.9s20.2,3.2,26.1-5.5c6.4-9.4,8.1-23,0.4-32.1
	s-20.6-7.4-29.3-0.7c-3.1,2.3-4.7,6.1-2.6,9.7c1.8,3,6.7,4.9,9.8,2.6c2.2-1.7,4.7-3.6,7.5-3.8c1.5-0.2,3,0.4,4,1.6
	c2.9,3.5,1.4,9.6-0.7,13.3c-0.9,1.6-2.6,3.9-3.8,4.4l-0.7,0.3h-0.3l-1.1-0.5l-1-1.7l-0.4-1.6c-0.2-3,0.4-6,1.9-8.6
	C1975.9,1696.7,1963.6,1689.4,1959.5,1697.6"/>
</svg>
