<?xml version="1.0" encoding="utf-8"?>
<!-- Generator: Adobe Illustrator 21.1.0, SVG Export Plug-In . SVG Version: 6.00 Build 0)  -->
<svg version="1.1" id="Layer_1" xmlns="http://www.w3.org/2000/svg" xmlns:xlink="http://www.w3.org/1999/xlink" x="0px" y="0px"
	 viewBox="0 0 800 860" style="enable-background:new 0 0 800 860;" xml:space="preserve">
<style type="text/css">
	.st0{fill:#EE6E66;}
	.st1{fill:#231F20;}
</style>
<path class="st0" d="M948.5,1192.4c-2.8-10.1-10.6-21.1-20.1-26.1c-7.2-3.8-15.4-6.2-23.6-6c1-6.1,0.7-12.5-0.9-18.3
	c-2.8-10.1-10.6-21.1-20.1-26.1c-0.4-0.2-0.8-0.4-1.2-0.6c2.4-19.6,4.5-39.3,6.3-58.9c-0.5-3.8-1-7.8-1.6-11.6
	c-1.5-3.5-3-7-4.4-10.4c-4.8-8.2-12.2-14.2-20.9-17.9c-2.4-1-4.8-1.8-7.2-2.4c4.2-12.9,7.9-26,10.5-39.4c3.1-16.5,5.4-33.5,4.8-50.4
	c-0.3-9.9-3.3-18.7-9.3-26.4c-5.6-7.2-13.5-13.5-22.7-15.6c-7.7-1.7-15.5-1.7-23.2,0c-10.7,2.4-20.4,11-26.1,20.1
	c-8.8,14-17.4,28.3-25.7,42.6c-14.8-4-31.9-0.5-43.1,10.9c-13.6,13.8-26.1,28.7-38,44c0.9-7.7-0.2-15.3-3.2-22.5
	c-3.6-8.4-9.6-16.5-17.9-20.9c-6.9-3.7-14.3-5.6-22-5.9c-4.7-0.2-9.4,0.7-13.8,2.3c-0.3-1.7-0.7-3.2-1.1-4.8
	c-3.7-13.2-12.8-23-25.3-28.3c-5.2-2.7-10.8-4-16.8-3.8c-7.9,0-15.2,2-22,5.9c-14.5,11.1-27.9,22.9-40.4,35.7
	c-16.8-18.6-43-18.7-66.2-11.6c0.2-0.3,0.3-0.7,0.4-1c3.8-10,0.8-24.7-4.4-33.6c-5.3-9.1-15.7-17.7-26.1-20.1
	c-11.2-2.5-23.7-2-33.6,4.4c-3,2.3-5.8,4.5-8.8,6.8c-5.4,5.4-9.2,11.9-11.3,19.3c-0.4,1.2-1,2.4-1.5,3.7c-10.3,23-23.3,44.5-36,66.1
	c-15.2,25.8-29.5,52.3-39.4,80.7c-6.1,17.3-9.3,35.3-10.7,53.6l1.6,11.6c1.5,3.5,3,7,4.4,10.4c4.8,8.2,12.2,14.2,20.9,17.9
	c7.4,3.1,14.7,4,22.6,3c4.3-0.6,8.8-1.7,13-3.6c-9.2,21.6-17.1,43.7-23.1,66.3c-7.5,28.1-12,57.3-13.3,86.4
	c-0.9,20.8,15.8,38.7,35.3,42.8c-9.9,19-19.2,38.5-27.8,58.3c0,0.1-0.1,0.1-0.1,0.2c-1.5,3.5-3,6.9-4.5,10.4
	c-1.8,5.8-2.1,11.6-0.8,17.4c0.3,5.8,2,11.3,5.1,16.2c5.2,8.1,12,14,20.9,17.9c20.4,8.6,42.5,0.6,54.5-17.9
	c16.9-26.2,33.9-52.4,50.1-79.1c-0.5,5.4-0.9,10.9-1,16.3c-0.5,16.4,1.3,32.6,3.8,48.7c1.5,3.5,3,7,4.4,10.4c2.3,3,4.5,5.8,6.8,8.8
	c6.8,6.8,15.6,10.7,25,12c7.9,1,15.2,0.2,22.6-3c0.6-0.3,1.1-0.5,1.7-0.8c6.4-0.2,12.7-1.7,18.3-4.8c-2.1,4-4.2,8-6.3,12
	c-7.7,14.8-4.3,35.4,11.5,43.8c14.7,7.8,35.5,4.4,43.8-11.5c9.8-18.9,19.7-37.8,29.5-56.7c1.6-3.2,3.3-6.3,5.1-9.5
	c7.3,3.8,15.5,6,23.6,5.9c0.2,1.4,0.4,2.8,0.8,4.2c2,7.4,7.8,15.5,14.7,19.1c14.3,7.6,36.1,4.6,43.8-11.5c0.4-0.9,0.9-1.8,1.3-2.7
	c4.2,4.5,9.2,8,15.1,10.5c19.2,8.1,44.2,1.4,54.5-17.9c7.4-13.9,14.6-27.8,21.5-41.9c19.2,7.6,43.3,0.7,53.6-18.2
	c32.5-59.6,68.9-116.9,109.1-171.7C950.4,1217.4,951.2,1202.2,948.5,1192.4z"/>
<path class="st0" d="M720,448.5c-2.8-10.1-10.6-21.1-20.1-26.1c-7.2-3.8-15.4-6.2-23.6-6c1-6.1,0.7-12.5-0.9-18.3
	c-2.8-10.1-10.6-21.1-20.1-26.1c-0.4-0.2-0.8-0.4-1.2-0.6c2.4-19.6,4.5-39.3,6.3-58.9c-0.5-3.8-1-7.8-1.6-11.6
	c-1.5-3.5-3-7-4.4-10.4c-4.8-8.2-12.2-14.2-20.9-17.9c-2.4-1-4.8-1.8-7.2-2.4c4.2-12.9,7.9-26,10.5-39.4c3.1-16.5,5.4-33.5,4.8-50.4
	c-0.3-9.9-3.3-18.7-9.3-26.4c-5.6-7.2-13.5-13.5-22.7-15.6c-7.7-1.7-15.5-1.7-23.2,0c-10.7,2.4-20.4,11-26.1,20.1
	c-8.8,14-17.4,28.3-25.7,42.6c-14.8-4-31.9-0.5-43.1,10.9c-13.6,13.8-26.1,28.7-38,44c0.9-7.7-0.2-15.3-3.2-22.5
	c-3.6-8.4-9.6-16.5-17.9-20.9c-6.9-3.7-14.3-5.6-22-5.9c-4.7-0.2-9.4,0.7-13.8,2.3c-0.3-1.7-0.7-3.2-1.1-4.8
	c-3.7-13.2-12.8-23-25.3-28.3c-5.2-2.7-10.8-4-16.8-3.8c-7.9,0-15.2,2-22,5.9c-14.5,11.1-27.9,22.9-40.4,35.7
	c-16.8-18.6-43-18.7-66.2-11.6c0.2-0.3,0.3-0.7,0.4-1c3.8-10,0.8-24.7-4.4-33.6c-5.3-9.1-15.7-17.7-26.1-20.1
	c-11.2-2.5-23.7-2-33.6,4.4c-3,2.3-5.8,4.5-8.8,6.8c-5.4,5.4-9.2,11.9-11.3,19.3c-0.4,1.2-1,2.4-1.5,3.7c-10.3,23-23.3,44.5-36,66.1
	c-15.2,25.8-29.5,52.3-39.4,80.7c-6.1,17.3-9.3,35.3-10.7,53.6l1.6,11.6c1.5,3.5,3,7,4.4,10.4c4.8,8.2,12.2,14.2,20.9,17.9
	c7.4,3.1,14.7,4,22.6,3c4.3-0.6,8.8-1.7,13-3.6c-9.2,21.6-17.1,43.7-23.1,66.3c-7.5,28.1-12,57.3-13.3,86.4
	c-0.9,20.8,15.8,38.7,35.3,42.8c-9.9,19-19.2,38.5-27.8,58.3c0,0.1-0.1,0.1-0.1,0.2c-1.5,3.5-3,6.9-4.5,10.4
	c-1.8,5.8-2.1,11.6-0.8,17.4c0.3,5.8,2,11.3,5.1,16.2c5.2,8.1,12,14,20.9,17.9c20.4,8.6,42.5,0.6,54.5-17.9
	c16.9-26.2,33.9-52.4,50.1-79.1c-0.5,5.4-0.9,10.9-1,16.3c-0.5,16.4,1.3,32.6,3.8,48.7c1.5,3.5,3,7,4.4,10.4c2.3,3,4.5,5.8,6.8,8.8
	c6.8,6.8,15.6,10.7,25,12c7.9,1,15.2,0.2,22.6-3c0.6-0.3,1.1-0.5,1.7-0.8c6.4-0.2,12.7-1.7,18.3-4.8c-2.1,4-4.2,8-6.3,12
	c-7.7,14.8-4.3,35.4,11.5,43.8c14.7,7.8,35.5,4.4,43.8-11.5c9.8-18.9,19.7-37.8,29.5-56.7c1.6-3.2,3.3-6.3,5.1-9.5
	c7.3,3.8,15.5,6,23.6,5.9c0.2,1.4,0.4,2.8,0.8,4.2c2,7.4,7.8,15.5,14.7,19.1c14.3,7.6,36.1,4.6,43.8-11.5c0.4-0.9,0.9-1.8,1.3-2.7
	c4.2,4.5,9.2,8,15.1,10.5c19.2,8.1,44.2,1.4,54.5-17.9c7.4-13.9,14.6-27.8,21.5-41.9c19.2,7.6,43.3,0.7,53.6-18.2
	C638.8,594,675.3,536.7,715.4,482C721.9,473.5,722.7,458.2,720,448.5z"/>
<g>
	<path class="st1" d="M154.5,436.8c0.4-0.2,0.4-0.3-0.1-0.4C154.1,436.6,154.2,436.7,154.5,436.8 M195.5,378.1l0.4-0.5
		c-0.1-0.1-0.2-0.3-0.3-0.3C195.1,377.5,195.1,377.8,195.5,378.1 M160.5,371.1c-0.1-0.5-0.2-0.5-0.5,0
		C160,371.5,160.2,371.5,160.5,371.1 M283.8,251.5c-0.1-0.3-0.2-0.4-0.5-0.2C283.4,251.8,283.6,251.8,283.8,251.5 M286.7,266.9
		c-0.5,0.3-0.6,0.7-0.2,1C287,267.6,287.1,267.3,286.7,266.9 M304,344.9l-0.5-0.4c0.3-0.4-0.8,1.1,0,0.9L304,344.9 M315.2,387.5
		c0.6,0.2,1-0.8,0.4-1L315.2,387.5 M364.6,273.5c0.6-0.3,0.6-0.7,0.2-1.1C364.3,272.6,364.2,273,364.6,273.5 M282,258.1
		c1.2,0.3,0.8-1,0.3-1.5C282.2,257.1,282.1,257.5,282,258.1 M364,275.3c-0.7-0.4-1.3,0.8-0.6,1.2L364,275.3 M361.8,288.5
		c0.9-0.5,0.9-0.5,0.5-1.4C362.1,287.6,362,288.1,361.8,288.5 M279.9,270.9c-0.9,0.9-0.9,0.9-0.6,2.2L279.9,270.9 M615.3,367.6
		c0.7-0.9,0.7-0.9,0.5-2C615.4,366.2,614.9,366.7,615.3,367.6 M285.9,271.8c0.8,0,0.5-1.7,0.5-2.4
		C285.6,270.1,285.2,270.9,285.9,271.8 M312.2,405.6c2,0.5,1-2.2,0.5-2.8C312.5,403.7,312.4,404.6,312.2,405.6 M284.1,254.8
		c1.3-1,1.4-1.5,0.9-3C284,252.4,283.6,253.7,284.1,254.8 M282.1,264.4c-1.1-0.2-1.4,3.2-1.7,4.2C282,268.2,282.8,266.1,282.1,264.4
		 M522.8,271c1.7,1,3.6-4.1,3-5.4C525,267.5,523.5,269.1,522.8,271 M290.7,239.4c0.5-1.3,2.2-4.6,0.7-5.7
		C290.2,235.4,289.9,237.5,290.7,239.4 M287.3,247.8c0.8,0.2,2.8-4.4,3.2-5.3c-1.8,0-2.2,1.3-2.8,2.6c0-1.1,0-2.1,0-3.3
		C286.5,243.9,287.3,245.9,287.3,247.8 M289,247.3c-2.3,4.6-4.8,9.2-5.9,14.3c1.7,0.2,1.4,0.5,1.5,2l2.3-2.2
		c1.3-0.5,1.5-1.3,0.8-2.3c0-1.1-0.2-2.2-0.5-3.3c-0.6-0.4-0.8-1.2-0.4-1.8c0-0.1,0.1-0.1,0.1-0.2c0.4-0.9,0.9-1.7,1.3-2.5
		C289.2,249.8,289.9,249.1,289,247.3 M364.5,298.4c-0.9,0.3-1.5,4.3-1.5,5.2c-0.3,3.2-1,6.4-2,9.5c-1.4,4.1-2,8.5-3.6,12.6
		c-0.4,1-2.2,3.3-1.1,4.5c1,1,6.8,0.3,8.2,0.5c2.8,0.2,5.7,0.2,8.5,0c1.8,0,4,0.6,5-1c1-1.8-0.1-6.5-0.1-8.6
		c-0.1-3.1-0.1-6.2-0.1-9.3c0-6.2-0.4-12.3-0.4-18.5c-0.1-12.9-0.1-26.1-1.1-38.9c-1,0-0.5,1.4-1,2.1c-1.1-0.6-1.6-0.5-1.6,0.4
		c0,0.5-0.2,1.1-0.5,1.5c-0.4,2-0.9,4-1.5,6l-0.9-2c-1.7,0.5-1.7,1.4-2.2,2.7c-0.4,1-1,2.1-1.4,3.1c-0.3,0.3-0.6,0.6-0.8,1
		c-0.5,0.4-0.4,0.8,0.5,1l1.5,1.2c-0.2,0.8-0.5,1.5-0.8,2.3c-0.4,0.7-0.8,1.3-1.4,1.8c-0.3,0.3-1.4,0.3-1.5,0.6
		c-0.5,1.3,1.1,0.5,1.2,1.4s-1.5,2.8-0.7,3.5l1.6-1.1c0.2,0.9,0.1,1.8-0.2,2.7c0.6,0.4,1.2,0.9,1.6,1.5c0.6,1.3,0.2,2.2-0.5,3.4
		l-0.9-1.1c-0.6,4.5-1.3,9-1.9,13.5c-0.1-0.5-0.3-1-0.5-1.4 M362.7,282c-1.1,0.2-1.2,1.1-0.8,2c0.4-0.9,1.4-2.4,0.9-3.2
		C362.8,281.2,362.7,281.6,362.7,282 M314.2,412.2l-1.2,1.5c0-2.1,1.4-7.2-1.5-7.2c0.3-2.3,0-4.6,2.4-5.8c-2.2-1.3-0.7-5.8-0.2-8.1
		c0.1-0.6,0.3-1.3,0.5-1.9c0.6-0.9,0.5-1.5-0.4-1.9c-0.2-1.1-1-0.9-0.4-2.3c0.9-2.1,1.1-0.1,2.3-1.4c0.6-0.8,1.1-1.7,1.4-2.7
		c0.5-1.7,2.2-6,1.6-7.6s-1.8-1.1-2.1-2.4s0.7-3.6,1-4.9c0.5-2.2,1.8-3.9,2.3-6.1c1.5-5.8,3.7-11.6,4.8-17.6c-3-0.7-6.9,0.7-10,0.9
		c-3.5,0.2-7.1,0-10.6-0.7c-0.4,3.2-0.5,6-1.8,8.9c-1,2.3-1.4,4.8-1.4,7.2c0,6.3-1.6,12.8-3.2,18.9c-1.4,5.4-0.4,11.2-1.5,16.7
		c-0.3,1.6-1.1,2.6-1.3,4.1c-0.2,1-0.3,1.9-0.4,2.9c-0.1,2.9-0.1,5.6,0,8.5c0.2,5-0.4,10.3-0.5,15.5c-0.1,3.3,0,6.5,0.1,9.8
		c0.1,1.8,0.8,3.7-0.6,4.8c-0.6,0.5-1.7,0.2-2.4,0.5c-1.1,0.6-1.3,1.4-2.6,1.9c-1.3,0.3-2.6,0.5-4,0.6c-2.5,0.3-5,0.4-7.5,0.5
		c-1,0-2-0.1-3-0.4c-0.9-0.2-1.7-0.5-2.5-0.9c-1.2-0.9-0.3-6.6-2.7-4.8c-0.4-5.8-1.9-11.5-1.3-17.6l0,0c2.1-2.7,3.3-4.3,2.7-7.8
		c-0.5-2.9-1.6-5.7-1.8-8.7c-0.1-2.6,1-4.8,1.6-7.2c0.8-3.2-1.2-5.4-0.9-8.5c0.2-2.6,1.5-5.2,1.8-7.7c0.1-1.3-0.6-2.5-0.6-3.8
		c0.2-1.5,0.5-3,0.8-4.5c0.4-2.8,1.4-5.3,1.5-8.1c0.1-3.5,0.4-6.9,0.9-10.4c1.7-12.1,3.7-24.1,5.4-36.2c0.9-6.6,2.1-13.4,2.7-20.1
		c0.2-1.8,2.6-15.1,1.7-15.5c-2.3,4-1.8,9-3.3,13.3c-0.7,2-2.1,3.7-2.8,5.7s-0.9,4.3-1.4,6.3c-1.2,4.7-2.7,9.3-4.6,13.8
		c-1.8,4.5-1.8,9.3-3.4,13.9c-0.8,2.3-1.7,4.5-2.7,6.7c-0.8,1.9-0.3,3.6-0.9,5.4c-0.5,1.6-2.1,2.3-2.5,3.9c-0.2,1.4-0.6,2.8-1.1,4.1
		c-0.7,1.6-1.6,3.1-2.3,4.6s-0.3,3.3-1.2,4.7c-1,1.7-2.1,1.6-2.5,3.8c-0.2,1.5,0.8,4.8-2,3.9c-0.4,2-0.8,3.8-1.1,5.7
		c-0.4,2.2-2.3,3.2-3.1,5.1c-1.4,3.4-2.8,6.9-4.3,10.4c-1,2.4-1.4,4.3-3,6.4c-1.2,1.6-1.9,3.3-3.1,4.9c-2.4,3.1-5.6,5.5-9.2,6.9
		c-1.8,0.8-3.8,1.1-5.8,0.8c-1.2-0.2-2.2-1-3.5-1c-1.9,0-1.4,0.4-3.1,1.2c-2.3,1-3.5-0.1-5.5-0.6c-1.1-0.2-2.1,0.4-3.2,0.2
		s-2.8-1.8-3.6-2.5c-2.6-2.7-1.9-6.5-4.1-9.4c-2.3-3-2.5-7-3.4-10.8l2.2,2.4c0.1-1.5-0.1-2.9-0.4-4.3c-4,2.9-5.4-15.2-5.9-17.4
		c-0.8-3.3-1.9-6.3-2.4-9.7c-0.6-4-1.1-7.9-1.6-11.9c-1-7.6-2.1-15.1-2.9-22.7c-0.5-3.2-0.7-6.4-0.7-9.7c0.1-2,0-4-0.2-6
		c-0.3-1.7-0.9-2.9-1.3-4.5c-0.7-3.5-0.2-7.7-0.6-11.4c-0.4-3.5-0.8-7-1.1-10.5c-0.5-7-0.4-14.1-0.6-21.1c-0.1-3.7-0.4-7.4-0.5-11.1
		c0-1.9,0.7-8.6-1.1-10c-1.1-0.8-1.1,0.8-1.4,1.5c-0.1,0.7-0.3,1.3-0.7,1.9c-0.4,0.5-0.8,0.9-1.4,1.2c-0.2,1.3-0.3,2.7-0.4,4.1
		c-0.9,0.4-1.1,0.9-0.4,1.6l1,1.9c-4.3-1.4,0.8,3,0.6,5.1c-0.2,1.8-1.7,1.7-2.7,2.8c-1.2,1.4-1,2.3,0.7,0.7c0.6,0.9,0.8,2.1,0.5,3.2
		c-0.3,0.8-0.8,1.6-1.4,2.2l0.6,1.2c0.2,1.6,0.9,1.8,0.7,3.5c-0.1,1.1-0.8,2.6-1,3.8c-1.3,5.4-3.4,10.2-3,15.8
		c0.2,2.5,1.3,4.7,0.2,7.1c-0.5,1.1-1.6,1.7-1.9,2.9c-0.4,1.4,0.3,1.5,0.6,2.6c0.5,2.1,0.3,4.4-0.5,6.4c-0.6,1.3-1.4-0.2-1.8,1.7
		c-0.2,1,0.6,1.6,1.3,2.3c-2.1,1.2-1.6,4.4-2.1,6.5c-0.6,3.2-0.2,6.2-0.6,9.3c-0.2,2-1.2,4.4-1.3,6.4c-0.1,0.9,0.6,1.6,0.6,2.6
		c-0.1,1.1-0.4,2.3-0.7,3.4c-0.2-0.6-0.3-1.6-0.9-1.6c-0.5,4.2-0.2,8.5-0.6,12.7c-0.2,2.1-0.6,4.3-0.7,6.4c0,1.1,0.6,2.8,0.2,3.9
		s-1,0.7-1.7,1.6s0,4.9,0,6.2c-0.1,2.1,0.9,5-1.6,5.9l1.8,0.6c-1.1,1-1.6,2.6-1.1,4.1s2.1,2.2,1.4,4.5c-2.2-1.8-1.5,0.3-1.4,2.2
		c0,1.5,0.2,2.9,0.4,4.4c0.2,1.6,0.2,3.2,0,4.8c-0.1,1.5,0.4,2.2,0.6,3.5c0.4,1.9,0.4,3.9,0,5.9c-0.4,0.7-0.7,1.5-1,2.2
		c0,1,1,1.7,1,2.8s-0.4,2.2-0.4,3.5c0.1,1.5,0.4,2.9,0.7,4.4c0.4,2.8,0.5,5.7,0.3,8.5c-0.2,3.1-0.9,3.2-3.4,4.6
		c-2,1.2-2.9,2.3-5.3,3.2c-0.2-0.7-0.4-1.5-0.6-2.2l-0.7,1.5c-1.6-2.4-5.6-0.4-8.3-0.6c-3.2-0.3-5.6,1.2-6.3-2.9
		c0-0.8-0.1-1.6-0.2-2.5c-0.3-0.9-1-1.2-1.8-2.1c-1.1-1.5-1.6-3.3-1.2-5.1c0.5-1.7,1.9-2.6,2-4.5c0.1-1.1-0.2-4-2-2.7
		c-1-8.5-2-16.8-2.7-25.4c-0.7-8.2-0.8-16.4-1-24.7s0.1-16.4-0.1-24.5c-0.3-8-0.2-16,0.3-24c0.3-4-0.3-8-0.2-12
		c0.2-4.1,0.3-8.2,0.1-12.3c-0.3-3.6,0.5-7.1,0.5-10.7s-0.4-7.5-0.2-11.2c0.6-8.1,1.9-16.4,1.7-24.6c-0.1-3.9-0.3-7.8-0.3-11.6
		c0-3.3-1-7.6,0.8-10.4c1.9-3,5.2-2.2,8.3-2.5s6.1-0.1,9-0.5c3-0.3,6,0.2,8.7,1.6c1.5,0.8,3,2,3.3,3.6c0.3,1.3-1.4,5.5,0.2,6.1
		c3.1-4.9,5.3-11.8,11.8-13.4c3.8-0.9,8.4-0.2,12.3-0.1c3.8,0,7.6,0.5,11.3,1.6c1.3,0.4,2.6,0.2,3.7,1.1s1.3,2.3,2.1,3.3
		c1.1,1.3,1.5,1.3,2,3c0.6,2,0.9,4.2,1.3,6.2c0.7,3.4,2.4,7.6,2,11.1c-0.1,1.4-0.7,2.2-0.3,3.7c0.4,1.2,1.8,1.6,0,2.1
		c2,6.2,1.8,11.9,2.1,18.4s1.3,13,0.9,19.4c-0.2,3,0.6,5.9,0.6,9c0,3.6-0.2,7.3,0.1,10.9c0.2,1,0.1,2-0.1,3c-0.3,1.6,0.1,2,0.4,3.5
		c0.6,2.5,1.1,5.1,1.3,7.7c0.1,3.4-0.2,6.8,0,10.2c0,1.5,0.2,3,0.4,4.4c0.2,0.5,0.4,0.9,0.8,1.2c0.6,0.4,0.6,1,0,1.7
		c0.6,3.1,0.9,6.3,1,9.5c0,3.6-0.9,6.7,0,10.3c0.4,1.4,1.3,2.3,1.6,3.5c-0.3,0.4-0.5,0.9-0.8,1.3c0.6,0.5,1,1.2,1.3,1.9
		c1.1,2.6,0.4,4.8,0.2,7.4c0,1,0.2,1.9,0.6,2.8c0.4,1.1,1.8,2.7,2,3.5c0.2,1.1-2,6.3,0.8,6.7c2.2-7.8,3.9-15.4,7.8-22.7
		c1-1.9,1.8-1.7,2.7-3.8c1-2.3,1.9-4.7,2.7-7.1c0.6-2.1,0.1-3.1,0.1-5.2c0.2-2.1,0.7-4.1,1.5-6.1l1.3,1.2c0.6-1,0.3-1.2,0.5-2.2
		l-0.3-0.5c-0.6-0.5-0.4-0.9,0.4-1.2c0.3-1.6,0.7-3.1,1.3-4.6c0.5-1.4,1.3-2.6,1.5-4c0-1.2,0.3-2.5,0.9-3.6c0.6-1.3,0.1-2.2,0.3-3.5
		c0.4-2.1,0.3-0.3,1-1.8s0.2,0.9,0.8-1.8c0.8-3.4,2.1-6.8,3.3-10.3c2.4-7.1,4.6-14.3,6.8-21.5c2-6.3,5-12.2,6.9-18.6
		c0.8-2.9,1.9-5.8,2.8-8.7s2.5-5.4,3.7-8.3c2.3-5.8,5.7-11.1,8.1-16.9c2.5-6,5.7-11.5,9-17.2c1.5-2.8,3.3-5.5,5.2-8
		c1.8-2.3,3.8-5.9,6.9-6.4c1.6-0.3,2.6,0.6,4,0.8c1.4,0,2.7,0.2,4,0.5c2.5,0.7,5.1,1.1,5.8,3.8c1,4.4-1.6,8.3-1.8,12.5
		c0,1.3,0.8,2,0.8,3.3c0.1,2.4-1.1,4.2-0.6,6.8c0.4-1.2,0.8-2.5,1.2-3.7c1.5,2.4-0.2,6.8-0.7,9.3c-0.2,1.5-0.5,3.1-0.9,4.6
		c0.2,1.4-0.3,1.9-1.5,1.5c-0.9,0.3-1.4,0-1.3-0.9c1.9-0.2,2.1-1.6,1.6-3.1c-0.9,0.2-0.6,1.2-0.9,1.8c-1.4-1.2-1.4,0.1-1.9,1.4
		c-0.4,0.9-0.7,1.8-0.7,2.8c0.1,0.8,0.7,1.4,0.9,2c0.5,1.6,0.3,2,0.5,3.5c0.1,0.8-0.9,2.2,0.7,1.8c1.1-0.3,0.5-0.8,0.6-1.6
		c0.3-1.9,0.6-4.7-1.8-4c0-0.6,0.3-2.5,0.7-2.9c1.1-0.9,1.8,0.4,2.2,1.9c0.2,1.6,0.3,3.3,0.2,4.9c0,1.1-0.6,2.9-0.8,4.3
		c1.3-1.1,0.5-3.6,1.5-4.3c0,1.8,0.8,3.6,0.8,5.4c0,2.5-0.7,4.9-0.1,7.4c0.5,2.3,1.9,4.1,2.1,6.6s-0.5,5.2-0.7,7.7
		c-0.4,4.3-1,8.5-1.5,12.8c-0.2,1.8-0.8,3.8-0.8,5.5c0,1.4,0.4,2.4,0.1,3.9s-0.7,2.7-0.9,4.2c-0.2,2.4,0.5,4.5,0.4,6.8
		s-1.2,4.6-1.4,7s0.3,4.3-0.4,6.5c-0.2,0.8-0.7,2.1-0.9,2.7c0.2,0.4,0.3,0.8,0.1,1.2c-0.4,0.4-0.9,0.9-1.3,1.3
		c0.2,1.4,0.6,2.8,1.1,4.2c1.2,0.7,5.4-1.5,6.5-1.8c4.8-1.5,9.5-2,14.4-3.1c1,0,1.9-0.4,2.6-1c1-1,1.5-4.1,2-5.4
		c2-5,3.7-10.2,5.4-15.4c3.2-9.5,7.1-18.8,10.5-28.2c1.7-4.9,4.1-9.3,6.2-14.1c1.6-3.8,3.4-7.8,5.4-11.5c2.4-4,5-7.7,8-11.2
		c2.6-3.2,5.3-7.6,9.7-8.5c3.8-0.7,6.8,1.7,10.5,1.9s7.1-0.2,9.3,3.5c2.4,3.9,2.1,8.1,3.1,12.5c0.5,2.1,1.5,3.1,2.1,5
		c0.9,2.5,0.7,5.8,1.1,8.5c1.6,9.4,0.7,19,2.1,28.3c0.3,2.3,0,4.4,0.2,6.6c0.2,1.8,0.9,3.1,1.3,4.9c0.5,2.3,0,4.7-0.2,7
		s0.9,4.8,0.6,6.9c0,0.1-0.8,0.8-0.9,1.2c-0.1,0.9-0.2,1.9-0.2,2.8c-0.1,1.9-0.5,4.8,1.4,6c1.1,0.7,4.2,0.1,5.5,0.2
		c2.4,0.3,4.8,0.7,7.3,1c1.4,0.2,4.7,1.6,5.7,0.8s0.5-5.5,0.5-6.6c0.1-5.7,0.4-11.3,0.5-17c0.2-11.2,1.4-22.3,1.5-33.5
		c0-5.5,0.4-10.9,0.4-16.4s0.6-12-0.7-17.4c-0.5-2.3-2-3.4-0.5-5.5c0.5-0.5,1-0.8,1.6-1.1c0.4-0.4,0.9-0.7,1.5-0.9
		c0.7,0,1.3,0.3,1.7,0.8c0,0,2.5-0.3,1.5-0.4c1.3,0.2,2.5,0.5,3.8,0.7c2.4,0.4,4.7,0.3,7.1,0.9c5.5,1.3,5.6,5.5,7,10.5
		c1.5,4.9,2.3,10,2.5,15.1c0.2,11.1-0.4,22.4,0.1,33.5c0.3,5.9-1.3,11.9-0.9,17.7c0.3,5.2-0.7,10.2-0.7,15.4
		c1.7,0.2,5.8-3.8,7.1-4.8c3-2.5,5.5-5.6,8.2-8.4c5.1-5.3,10.2-10.6,15.4-15.8c4.6-4.6,8.5-10.3,12.6-15.3c2.5-3.1,5.4-5.9,7.5-9.3
		c1.6-2.6,2.9-5.5,4.4-8.1c-4.1,0.2-5.1,4.1-8.4,5.7c-1.1,0.6-3.8,1.2-5.1,0.8c-0.9-0.3-1.1-1.7-2.4-1.5c1.5-4.5,5.6-9.3,8.9-12.7
		c3.2-3.2,7.8-7.5,12.5-7.9c2-0.2,4.9,0.7,6.9,1.2c1.1,0.4,2.3,0.7,3.5,0.9c1,0.1,2.1-0.2,3,0.4s3.2,3.2,3.4,4.1
		c0.5,2.6-1.7,6.8-2.8,9c-1.8,3.6-2,6.6-4.5,10.1c-3.4,4.7-6.6,9.5-10.1,14.1c-1,1.1-1.9,2.3-2.7,3.5c-0.8,1.4-0.7,2.7-1.3,4.1
		c-0.9,2.5-3.5,4.2-5.3,6.2c-4.1,4.5-8.3,8.5-12.3,13.1c-4.4,5-9.6,9.4-14.6,13.9c-5.3,4.8-11.5,9.4-18.4,11.5
		c0.9,2.5,3.4,3,5.5,4.3c2.6,1.6,5.2,3.1,7.9,4.6s5.3,2.9,7.9,4.4c3,1.7,6.2,2.4,9.1,4c12.5,6.7,25.8,11.9,39.5,15.5
		c6.6,1.8,13.5,3.5,20.4,3c1.5-0.1,6.6-0.4,7.3-1.8c0.4-0.8-0.3-2.8-0.4-3.6c-0.3-2.1-0.5-4.2-0.8-6.4c-1.8-14.5-1.9-29.2-1.9-43.8
		c0-2.9,0.9-7.2,0-10c-0.5-1.7-1.5-1.7-3.3-1.9c-1.8,0-3.6,0.1-5.3,0.3c-1.9,0.2-3.7,0.2-5.6,0.1c-1.1-0.1-2.6-0.8-3.8-1
		c-1.6-0.4-2.5-0.1-2.3-2.3c0.1-1.7,1.7-3,3.2-3.8c1-0.5,2.1-0.2,3.1-0.9s1.3-1.7,2.6-2.1c3.3-1.1,10.2-0.3,11.4-4.4
		c0.8-2.8,0.1-7,0.1-9.9c0-3.7-0.2-7.4-0.3-11.1c-0.3-6.7,0-15-2.3-21.4c-1.6-4.6-10.2-0.5-13-4.3c-1.4-1.9,0.4-4.3,2.1-5.2
		c2.6-1.4,5.9-0.2,8.7-1c1.3-0.4,1.8-1.2,3.3-1.2c1.4,0.1,2.9,0.4,4.3,0.7c4,0.5,7.9,0.2,11.9,0.3c6.1,0.1,12.3-0.6,18.5-0.7
		c6.6,0,13-0.1,19.6,0c7.1,0.2,13.9,1.2,21,1.8c6.4,0.6,12.6,2.3,18.5,4.8c2,0.9,3.7,2.1,5.6,3c2.3,1.2,0.9,0.8,1.5,2.8
		c0.3,1.2,1.9,2,1.7,3.3c-0.3,1.9-4.5,2.9-6.1,2.6c-2.2-0.7-4.3-1.7-6.2-3.1c-2.1-1.7-3.4-3.1-6-4.1c-3.2-1.1-6.6-1.8-10-2.1
		c-13.6-1.7-27.4-1.9-41.1-0.8c-2.9,0.3-7.3-0.2-10,0.7c-3.2,1.1,0.4,2.6,1.1,4.8c0.9,3,1.1,6.4,1.9,9.5c0.7,3,1.9,6.2,1.7,9.2
		c-0.1,1.7-0.5,2.6-0.2,4.5c0.4,1.3,0.7,2.6,0.8,4c0.1,1.8-0.4,7.6,0.9,9.1s5.5,0.4,7.3,0.2c4-0.3,8.1-0.8,12.1-1
		c14.2-0.8,28,0.4,42.1,1.4c7.2,0.5,14.3,1.2,21.2,3.4c1.7,0.5,8,2.5,8.2,4.5c0.3,2.4-6.2,0.7-7.9,0.5c-13.9-1.4-27.8-1.7-41.8-1
		c-7.2,0.4-14.4,0.5-21.6,1.1c-3.5,0.3-6.9,0.6-10.4,0.9c-1.9,0.2-3.8,0.4-5.6,0.6c-0.7,0-1.3,0.1-2,0.3c-1.6,0.5-1.1,0.1-1.6,1.7
		c-1.5,4.9,0.2,10.8-0.4,15.7c-0.3,2.6-0.2,4.9-0.5,7.6c-0.4,3.3-0.4,6.7,0.2,10.1c0.2,1.1,0.9,2.1,0.8,3.3s-0.7,2.1-0.7,3.3
		c-0.2,2.8-0.7,6.9,0.4,9.5v0.8c-0.2,2-0.3,4-0.2,5.9c0.2,1.7,1.1,2.6,1.6,4.2c1,3.3,0,7.4,0.8,10.9c0.4,1.6,0.6,4,1.3,5.4
		c1.1,2,1.2,1.2,2.6-0.6c2.3-3.1,4.6-6.3,6.6-9.6s4.3-6.5,6.1-10c0.7-1.4,1.2-3.3,2.3-4.5c0.8-0.9,1.8-1.3,2.6-2.1
		c4.5-4.3,4.5-11.3,7.8-16.2c0.5,0.3,1,0.7,1.5,1c-0.9,1.6-1.4,3.4-1.6,5.2c2.3-1.1,2.5-5.7,4.2-1.2c0.5,1.4-0.6,6.8,1.4,4.5
		c0.8,1.8-2.8,9.5,1.4,8.3c-0.2,1.5-1,3.1-1.1,4.4c-0.2,1.6,0.8,1.5,0.9,3c0.1,1.1-1.1,2-1.2,3.1c-0.2,1.9,0.8,3.1,0.3,5.1
		c-1,3.5-3.3,6.2-5.4,9.2c-2.3,3.3-4.3,6.5-7.1,9.4c-4.4,4.6-9.8,11.4-16.3,12c-1.5,0.1-3,0.1-4.5,0.4s-2.9,1.3-4.3,1.1
		c-1-0.1-1.9-0.9-3.1-1c-2.1-0.2-4.6,0.7-6.7,0.3c-3-0.8-5.6-2.8-7.1-5.5c-1.8-2.9-3.3-6-4.5-9.1c-1.1-3.3-1.4-4.2-4.2-1.9
		s-6.7,2-10.3,2.3c-15.7,1.4-30.4-3.2-45.3-7.5c-16.7-4.9-32.1-12.9-48.1-19.6c-0.5,2.2-1.4,4.7-1.1,7c0.1,0.7,0.7,1.1,0.8,1.6
		c0,1.1-0.1,2.2-0.5,3.3c-0.8,5.1,0.2,10.3-0.3,15.5c-0.2,2.2-0.1,4.5,0.5,6.6c0.5,2.9-0.5,5.7-0.4,8.6c0.1,1.4,1.1,3.8,0.2,5
		c-0.4,0.5-1.8,0.5-2.3,0.9c-0.7,0.6-1.2,1.3-1.5,2.1c-1.6-1.7-5.2,0-7.1,0.5c-1.1,0.4-2.2,0.8-3.3,1c-0.2,0-1.2-0.6-1.6-0.7
		c-0.6-0.1-1.5,0.5-2.2,0.5c-2.3,0.2-5.9-1.1-6.9-3.3c-1.4-2.9-0.5-8.6-0.6-11.8c-0.6-14.4,0.1-28.9,0.4-43.3
		c0.1-3.6,0.4-7.2,0.4-10.9c0-1.8,0-3.6,0.1-5.4s0.5-3.3-1.1-3.1c-0.9,0.1-2.3,1.5-3.4,1.8c-1.3,0.3-2.5,0.5-3.8,0.6
		c-2.5,0.4-7.8,0.1-10,1.4c-1.9,1.2-1.8,4.7-1.7,6.7c0.1,3.6,0.4,7,0.3,10.6s0.7,7,0.8,10.6s-1.2,6.5-0.9,10
		c0.8,7.5,0.9,15,1.1,22.6c0,3.7,0.3,7.4,0.8,11.1c0.4,2.2,0.7,7.2-2.7,5c-0.2,0.4-1.5,3-2,3.2c-1.3,0.5-2-1.9-3.4-0.4l-1.3-1.3
		c-0.1,0.5-0.3,1-0.4,1.6c-1.3-1.9-1.8,0.1-3.4,0.7c-0.8,0.3-1.7,0.3-2.5,0c-1.6-0.3-0.1-0.4-2.5-0.4c-3.7,0-7.2-0.2-8.2-4.4
		c-2-8.6-1.1-17.8-1.7-26.5c-0.7-9,0-18-0.2-27c-0.1-4.3-0.4-8.7-0.5-13c0-1.5,0.7-6.9-0.8-8.2s-6.5-0.2-8-0.2
		c-5,0.1-10.1-0.2-15,0.2c-4.2,0.4-4.9,3.6-6,7.3c-1.3,4.1-2.1,8.4-4,12.2c-1.3,2.7-2.2,5.5-3.7,8.1c-0.8,1.2-1.3,2.7-1.3,4.2
		c-0.1,1.4,0.2,1.1-0.4,2.3c-0.4,0.7-0.9,1.4-1.2,2.2c-0.2,0.8,0,1.5-0.3,2.2c-0.2,0.4-1.4,1-1.4,1c-0.4,1.1,0.8,2.4,0.8,3.4
		c0,1.6-1.1,3.6-1.3,5.2c-0.3,1.9-0.8,3.7-1.5,5.5c-0.8,2.2-0.4,4.4-0.9,6.8s-1.1,4.1-1.1,6.4c0,1.8,0.6,4.4-0.2,6
		c-0.3,0.6-1,0.9-1.4,1.5c-0.7,1-0.7,2.3-1.3,3.2c-1.4,2-2.7,1.5-5.2,1.1c-0.9-0.2-1.8-0.3-2.7-0.4c-0.5,0-1.4,0.6-1.8,0.5
		c-3.8-1-3.1-8-3.5-11.1c-0.3,1-2,3.4-2.4,1.3c-0.3,0.1-0.4,0.3-0.3,0.6c0,0,0,0,0,0.1L314.2,412.2 M209.8,479.1
		c-0.3,0.5-0.2,0.8,0.3,1C210,479.8,210,479.6,209.8,479.1 M147.6,526.2c0-0.4-0.1-0.4-0.4-0.2C147.2,526.5,147.4,526.5,147.6,526.2
		 M212.2,528.4c-0.3-0.4-0.4-0.4-0.5,0C212,528.8,212.1,528.8,212.2,528.4 M292,609.4c0.5,0.3-0.9-0.5-0.7,0S291.7,609.9,292,609.4
		 M199.6,581.3c0,0.6,0.4,0.3,0.6,0H199.6 M197.1,576c0.3-0.2,0.3-0.5,0-0.6C196.7,575.6,196.7,575.8,197.1,576 M136.2,528.5
		c0-0.3-0.2-0.4-0.5-0.2C135.8,528.8,135.9,528.9,136.2,528.5 M196,582c0.1-0.4-0.1-0.5-0.5-0.4C195.5,582,195.7,582.1,196,582
		 M144.4,513.3c0.4,0,0.4-0.2,0.2-0.4C144.2,512.9,144.2,513.1,144.4,513.3 M199,583.4c-0.4,0.2-0.4,0.4,0,0.6
		C199.3,583.9,199.3,583.7,199,583.4 M136.7,546.3c-0.3,0,0-0.9-0.4,0.1C136.5,546.7,136.6,546.7,136.7,546.3 M157.4,498.2
		c0.5,0.2,0.6-0.5,0.2-0.7L157.4,498.2 M160.2,497c-0.2-0.4-0.5-0.5-0.7-0.2C159.6,497.4,159.8,497.4,160.2,497 M217.6,556.7
		c-0.5,0.1-0.6,0.3-0.2,0.7L217.6,556.7 M142.7,530c-0.6-0.1-0.7,0.2-0.3,0.9C142.9,531,143,530.7,142.7,530 M213.1,560.6
		c-0.2-0.3-0.3-0.2-0.4,0.1C212.9,561,213.1,560.9,213.1,560.6 M186.7,587.7c0.5-0.1,0.1-0.5-0.1-0.6L186.7,587.7 M213,489.3
		c-0.2-0.4-0.4-0.5-0.7-0.2C212.3,489.6,212.6,489.7,213,489.3 M140.5,508.9c-0.1-0.4-0.3-0.4-0.5,0
		C140.2,509.2,140.3,509.2,140.5,508.9 M326.8,528.3c-0.1-0.3-0.2-0.4-0.4-0.1C326.5,528.6,326.6,528.6,326.8,528.3 M139.7,522.8
		c-0.1-0.4-0.2-0.5-0.5-0.4C139.1,522.9,139.3,523,139.7,522.8 M139.4,531.8c0.2,0,0.3-0.2,0.3-0.4v-0.1
		C139.3,531.3,139.2,531.5,139.4,531.8 M197.2,578.1l-0.5-0.6C196.2,578.1,196.6,578.3,197.2,578.1 M212.2,534.3
		c0.6-0.1,0.5-0.4,0-0.9C211.7,533.5,211.7,533.8,212.2,534.3 M218.6,533.5l-0.5-0.2c-0.1,0.1-0.1,0.2-0.1,0.3
		C218.4,534,218.6,534,218.6,533.5 M210.8,535.5l0.7,0.5C211.9,535.4,211.3,535.3,210.8,535.5 M215.3,562.1c0.6,0,0.6-0.4,0.2-1.1
		C215,561,215,561.4,215.3,562.1 M133.8,535.1c0.2,0.4,0.4,0.4,0.5,0C134.1,534.6,133.9,534.6,133.8,535.1 M159.3,492
		c0.4-0.2,0.4-0.5,0-0.7C159,491.5,159,491.7,159.3,492 M153,504.7c-0.7,0-0.7,0.3-0.1,1C153.4,505.7,153.4,505.4,153,504.7
		 M143.7,617.2c0.4,0,0.4-1.4,0-1.4V617.2 M133.4,526.7c-0.3,0.3-0.3,0.5,0,0.7C133.7,527.2,133.7,526.9,133.4,526.7 M178.9,599.3
		c-0.5,0.1-0.4,1.2,0.2,1.1L178.9,599.3 M191.4,584.9c-0.3,0.3-0.2,0.6,0.1,0.7C192,585.4,191.9,585.2,191.4,584.9 M332.5,518.1
		c-0.3-0.5-0.6-0.5-0.8-0.1C331.9,518.4,332.2,518.4,332.5,518.1 M204.3,502.6c0.7-0.1,0.3-1.1-0.1-1.1L204.3,502.6 M138.2,548.4
		c-0.6-0.2-0.8,0.8-0.3,1L138.2,548.4 M133.2,520.4c-0.2,0.7,0.9,0.9,1.1,0.4L133.2,520.4 M158.9,487c0.3,0,0.5-0.2,0.5-0.4
		c0-0.2-0.1-0.4-0.3-0.5L158.9,487 M131.5,580.6c-0.9,0-0.4,1,0.1,1L131.5,580.6 M183.7,596c0.6,0.5,0.9-0.6,0.6-0.9L183.7,596
		 M174.9,595.3l-0.5-0.3c-0.3,0.3-0.3,0.6,0.2,0.8L174.9,595.3 M205.4,478.8c0.8,0.1,0.8-0.3,0.2-1.2
		C205,477.6,204.9,478,205.4,478.8 M182.4,601.8c-0.7-0.4-0.6,0.8-0.5,1.1C182.4,603,182.6,602.6,182.4,601.8 M202.1,578.9
		c-0.3-0.6-0.7-0.4-0.9,0.5C201.5,579.8,201.9,579.7,202.1,578.9 M175,605.7c-0.6,0.3-0.5,0.7,0.4,1
		C175.9,606.4,175.7,606,175,605.7 M132.9,549.1l-0.3-0.6C131.7,548.9,131.9,549.4,132.9,549.1 M327.9,525.8c0.2-0.8-0.2-1-1.2-0.5
		C326.6,526,327,526.1,327.9,525.8 M220.9,494.2l-0.6-0.5c-0.2,0-0.3,0.2-0.4,0.3C220.2,494.8,220.4,494.5,220.9,494.2 M199.7,511.7
		c-0.5,0.2-0.6,0.5-0.3,0.9C200.1,512.2,200,512.3,199.7,511.7 M136.5,543.3c-0.4,0.4-0.3,0.8,0.1,1.1
		C137.1,544.1,137.1,543.7,136.5,543.3 M218.1,487.5c-0.7-0.3-1.1,1-0.6,1.2L218.1,487.5 M159,614.3c0.4-0.9,0.4-0.7,0-1.1
		C158.5,613.5,158.6,613.9,159,614.3 M130,560.1c-0.7-0.1-0.8,0.3-0.4,1.1c0.2,0,0.3,0,0.5-0.1L130,560.1 M133.6,524.8
		c-0.3-0.5-0.7-0.6-1.1-0.1C132.8,525.2,133.1,525.2,133.6,524.8 M153.6,501.5c-0.9,0.6-0.9,0.6-0.2,1.5
		C153.4,502.4,153.5,502,153.6,501.5 M196.6,510.3c-0.9-0.2-1,1.3-0.3,1.5L196.6,510.3 M135.2,525.9c-0.8,0.5-0.7,1.3,0.1,1.5
		C135.3,526.9,135.2,526.4,135.2,525.9 M137,529.5c0.6,0.1,0.6-1,0.1-1.1L137,529.5 M216.3,567.9c-0.1-0.6-0.2-1.2-0.3-1.8
		C215.2,566.8,215.5,567.3,216.3,567.9 M138.3,517c0.6-0.8,0.3-1.2-0.6-1.5L138.3,517 M137.1,508.6c0.2-0.9,0.2-1-0.7-1.2
		L137.1,508.6 M138.8,505.4c-0.6-0.4-0.9-0.1-0.8,0.9l0.5,0.2L138.8,505.4 M149.3,500.9c0.9,0,0.5-1,0.4-1.6
		C149.1,500,149,499.8,149.3,500.9 M189,489.3c-0.8,0.2-0.4,1.9,0.4,1.6C189.3,490.4,189.2,489.8,189,489.3 M147,515.4
		c-1.1,0.2-1.6,0.3-1,1.4C146.3,516.4,146.7,515.9,147,515.4 M136.9,532.8c0.8,0.9,1.3-0.5,1.3-1.2
		C137.6,532.2,137.2,532.5,136.9,532.8 M180.5,601.9c-1.1-0.3-0.3,1.9,0,2.2C180.5,603.4,180.5,602.7,180.5,601.9 M150.3,615
		c-0.7,0.1-1.1,2.1-0.2,2.2L150.3,615 M140.3,511.5c-0.4,0.3-0.6,0.9-0.4,1.4c0.2,0.1,0.3,0.1,0.5,0.1c0.4-0.4,0.4-1,0-1.4
		C140.4,511.5,140.3,511.5,140.3,511.5 M327.5,527.6c-0.2,0.9,0.4,1.3,1.2,1.4C329.3,527.7,328.9,527.2,327.5,527.6 M133.1,517.6
		c0.3,0.7,0.7,1.3,1,1.9C134.5,518.5,134.3,517.7,133.1,517.6 M152.9,510.2c0.6-0.6-0.8-1.5-1.3-2c-0.2,0.9,0.3,1.8,1.2,2
		C152.8,510.2,152.8,510.2,152.9,510.2 M151.2,499.9c0,0.9,0,1.8,0,3C151.9,502,151.9,500.8,151.2,499.9 M133.6,554.3
		c-0.1-0.8-0.2-1.6-0.3-2.4C132.3,553,132.7,553.3,133.6,554.3 M137.1,558.3c-1.5,0.4-1.5,0.4-0.9,2.1
		C136.6,559.7,136.8,559,137.1,558.3 M128.4,538c0.8-1,1.4-1.5,0.1-2.1C128.5,536.6,128.4,537.3,128.4,538 M173.9,608.7l1.8,0.3
		C175.4,608.1,174.5,606.8,173.9,608.7 M133.5,617.8c-0.3-0.6-0.7-1.3-1-1.9C131.9,617.2,132.2,617.4,133.5,617.8 M214.2,551.3
		c-0.1-1-0.2-1.8-0.3-2.6C212.9,550.2,212.9,550.2,214.2,551.3 M133.6,572.7v-2.3C132.7,571.6,132.7,571.6,133.6,572.7 M188.6,584.7
		c-0.7-1.7-0.7-1.7-2.2-1.5C187.2,583.7,187.8,584.1,188.6,584.7 M228.3,514.7c0.2-1.2,0.5-1.9-0.9-2.2
		C227.7,513.2,228,513.9,228.3,514.7 M142.6,533.8l1.6,1.5c0.1-0.8,0.3-1.5,0.4-2.2L142.6,533.8 M178.7,595.2
		C177.1,597.8,181.3,596.3,178.7,595.2 M184.7,584.6c0.2,0.8,0.4,1.5,0.7,2.2C186.3,585.5,186.1,585.3,184.7,584.6 M139.9,506.8
		c1.1-1.3,1.5-2,0.2-3.2C140,504.7,139.9,505.8,139.9,506.8 M168,605.3c-0.4,1.2-1.1,2.5,0,3.8C168,607.8,168,606.6,168,605.3
		 M151,504.4c-0.4,0.7-1.3,3.2,0.7,2.6C151.5,506.1,151.2,505.3,151,504.4 M144.8,614.4c-0.2,1.4,0.1,2.8,1.1,3.8
		C145.3,616.8,146.2,615.4,144.8,614.4 M157.1,499.8c-1.5,0.7-2.2,1.2-1,2.6C156.5,501.6,156.8,500.7,157.1,499.8 M137.4,512.8
		c1,0.1,1.3-3.4,0.2-3.3C136.4,509.6,137.5,512.3,137.4,512.8 M134.8,565.3l2.4-0.9C136,561.8,135.8,563,134.8,565.3 M129.8,540.6
		l1.8-0.7c-0.3-0.7-0.8-1.3-1.4-1.8C129.5,538.8,129.9,539.8,129.8,540.6 M130.8,536.2C133,538.4,133.2,532.7,130.8,536.2
		 M134.7,538.2c1.6-1.3,1.9-1.9,0.2-3.1L134.7,538.2 M132,532c0.2,1.8,1.5,1.6,2.9,1.7c-0.3-1-0.6-1.9-0.9-2.9
		c-0.2,0.7-0.4,1.4-0.6,2.1C132.9,532.6,132.5,532.3,132,532 M141.2,523.1c-0.4,1.3-1.5,2.3-0.3,3.6c0.4-1.4,0.9-1.5,1.6-0.5
		C143,525.6,141.5,523.7,141.2,523.1 M130.6,524.2c-0.1,1.1,1.4,7.2,2.5,4.4C130.6,527.7,132.3,526,130.6,524.2 M147.7,505.4
		c-0.1-0.3,0.4-2.2-0.2-2.4l-2.7,1.8L147.7,505.4 M135.6,542c0-1.8-0.7-2.4-2.5-2.8v2.9C133.9,542,134.8,542,135.6,542 M135.4,555.7
		c1.8,0.2,1.2-6.8,0-8C134.4,550,135.2,553.3,135.4,555.7 M128.6,527.5c-0.6,1.2-1.2,2.5-1.8,3.7c2.1,0.6,0.1,3,2.4,3.7
		C129,533.7,129.8,527.4,128.6,527.5 M133.4,563.5c0.1,0.9,0.4,1.2,0.9,1c0-1.8,0.9-5.5,0.5-7.1c-0.6-1.8-1.2-1.5-2.2-2.4
		c-0.1-0.4-0.2-0.8-0.3-1.2c-0.7-0.3-1.4-0.5-2.1-0.7c0.5,0.9,0.9,1.8,1.2,2.7c0,0.6-0.9,2-0.8,2.4c0.2,0.7,1.2,0.9,1.8,1.7
		C133.1,560.9,133.2,562.3,133.4,563.5c-2.5-1-3.5,6.1-1.4,7.3C131.7,568.3,132.1,565.8,133.4,563.5 M142.8,504.7
		c-2.8,0.7,0.5,1.7,0.8,2c1.3,1.3,0.8,3.5,0.8,5.2l2.3-1.9l1.1-0.1c0.7-0.7,0.9-2.3,1.2-3.4l-2.4,0.8c-0.2-0.5-0.6-0.8-1-1.1
		C144.6,505.8,143.6,505.3,142.8,504.7c0.5-0.2,1.1-0.3,0.7-1.6C143.2,503.8,143,504.3,142.8,504.7 M140.1,515.6l-0.6-0.8
		c-0.2,1.4,2.7,2.5,4.1,3.1c0.1-1.2,0.3-2.5,0.4-3.7C143.2,515.5,141.3,514.3,140.1,515.6 M330.3,515.3v1.8c0.5-0.6,0.6-4,0.2-4.7
		c-1.9,0.3-2,2.1-1.3,3.5L330.3,515.3 M137.8,523.9c-0.1,0.8-0.2,1.6-0.3,2.6c0.7-0.8,1.4-1.6,2-2.4c-3.1-0.4-1.4-2.3-3.4-4
		c-0.1,1.4-1.1,5,0.5,5.8C136.9,525,136.8,524.4,137.8,523.9 M142.3,518.6c0.1,0.8,0.2,1.6,0.3,2.9c0.4-0.7,0.8-1.3,1.2-1.9
		c-0.8-0.4-2.2-2.1-3-1.7c-1.2,0.5-0.9,2.5-0.9,3.4C140.9,520.2,141.6,519.4,142.3,518.6 M145.1,520.4l-0.7,1.3l1.9,0.8
		C146.4,521.2,146,521.1,145.1,520.4c1.6-0.5,1-1.1,0.2-2.1C145.3,519,145.2,519.7,145.1,520.4 M226,560.4c-0.4,3-3.3,5.7-4.9,8.1
		c-2.1,3.3-4.8,6.1-7,9.4c-1.7,2.6-3.8,4.9-6.3,6.8c-1.4,1.2-2.1,3.2-3.8,4.2c-2.2,1.3-2.3,0.3-4-1.5c-0.5,1.9,0.9,1,1,2.2
		c0,1.2-0.4,2.3-1.1,3.2c-1.7,2.4-3.3,2.7-5.4,4.1s-3.7,3.3-5.9,4.6c-1.7,1-5,1.4-5.1,3.8c-0.6-0.4-1.2-0.8-1.8-1.2
		c0.1,1,0.1,2,0.2,3l-1.6-0.8c-0.5,2.1-1.2,2.8-2.6,1.2l-1,1.9c-0.1,1-0.6,1.2-1.4,0.7c-0.9,0.6-2.7,1.3-3.9,2.1l-0.9-1.9
		c-1.1,0.5-0.4,2.2-1.4,3c-0.8,0.9-2.3,1-3.2,0.2c-0.1-0.1-0.2-0.2-0.3-0.3v2l-2.1-1.3l-0.1,2.1c-2.1-1.4-1.8-0.3-3.6,0.9
		c-0.4,0.1-0.9,0.2-1.3,0.3c-0.3,0.1-0.7,1.3-0.9,1.5c-0.5-0.7-1-1.3-1.5-1.9c-0.8,1.7-2.2,1.3-3.3,3.1c-0.2-1-0.5-1.9-0.7-2.9
		c-1,0.3-0.4,1.5-1.3,2s-2.3-0.3-3.2-0.8c0.8-0.8,0.5-1.7-0.5-2.1c0.5,2,0.7,2-1.1,3.2c-0.9,0.4-2,0.7-3,0.7
		c-0.8,0.1-2.5,0.4-3.3-0.1c-1-0.7-1.4-2.1,0-2.7c-0.8-0.4-1.6-0.8-2.5-1c-0.9-0.4-0.7-1.8-1.8-0.6s0,1.3,0.4,1.9
		c0.7,1.2,1.6-1.6,1.9,1.4c0.2,1.9-0.1,1.3-1.4,1.2c-0.4-0.3-0.9-0.7-1.3-1l-0.7,0.5c-1.4-0.3-1.2-0.1-2.2-1.1
		c-1.5-1.3-1.3-1.2-1-3.4c-0.7,0-1.4,0.1-2.1,0.1c0.6,0.8,1.2,1.6,1.8,2.4c-1.5-0.3-1.7,1.4-2.2,2.5c-0.4-0.8-0.9-1.6-1.3-2.5
		c1.8-0.7,1.6-2.6,2.1-4.4c2,1.8,2.7,0,2.9-2.1c1.6,1,0.3,3.4,1.7,3.5c1.9,0.1,1.4-2.9,1.2-3.8c2.4-0.1,2.2-0.4,1.5-2.5l3.6,3
		c0.2-0.5,0.6-2.1,1.2-2c-0.8,2.1-0.6,4.4,0.5,6.3c0.1-0.9,0.3-1.8,0.7-2.6c0.5-0.5,1-0.3,2-0.4c0.6-0.1,1.8,0,2.3-0.2
		c0,0,1.4-0.8,1.3-0.8c1.4-0.2,3.4,0.9,4.3,0s0.9-5.2,3.2-2.9c0.6-1.2,1.2-2.3,1.8-3.5c1.2,1.6,2.5,3,4,4.3c0.2-0.7,0.5-1.4,0.7-2.1
		c-3.6,0.9-1.5-2.3-2.8-3.4c1.7-1.3,3.4-2.9,5.3-4c0.9-0.6,1.1-0.2,1.9-0.9s1-1.3,1.7-1.6c1.3-0.6,0.4,0.9,2.1-0.3
		c0.6-0.6,1.1-1.4,1.4-2.2c0.9-1.5,1.9-2.5,2.9-4c-0.1,1-0.2,1.9-0.3,2.9c1.9-1,0.7-2.5,1.7-4.4c1.1-2,3.4-3.2,5.1-4.6
		s4.2-7.7,7.1-5.7c-0.2-0.8-0.4-2.1,0.6-2.5c2-0.7,0.4,1.6,1.7,1.6c0.1-0.6,0.2-1.1,0.3-1.7l-0.9-0.8c0-1.1,0.6-2.4,2.1-1.7
		c0.2-0.9-0.1-1.5,0.3-2.4c0.6-1.2,1.4-2.2,2.3-3.2c0.7-1,1.6-2,2.4-3c0.9-0.7,1.5-1.7,1.7-2.8c1.6-4.9,4.3-9.7,6.2-14.7
		c0.9-2.5,2.2-4.6,3-7.1c0.9-3,1.6-6.1,2.1-9.1c0.6-2.8,1.9-6.2,1.7-9c-0.1-2,0.2-1.9-1.9-2c-1.4,0.1-2.8,0.4-4.1,0.9
		c-2.5,0.5-4.9,0.9-7.4,1.1c-2.4,0.3-5.5,1.2-7.8,0.2c-4.6-1.8-1.7-13.1-1.6-17.2c0.1-3.3,0-6.6-0.3-9.9c-0.2-2.6-0.5-6.6-1.4-9
		c-1.1-2.1-2.6-4-4.3-5.5c-2.5-2.1-5.1-1.3-7.5,0.5c-1.6,1.2-3,2.5-4.3,4c-0.6,0.7-1.3,1-1.8,1.5s-1.1,1.4-1.8,2.1
		c-1.3,1.3-1.7,1.1-2.5,2.9c-0.5,1.2-1.3,2.4-1.8,3.6c-0.3,1-0.8,2-1.5,2.7l-1.2,0.1c-1,0.4,1.1,1.1-1.1,0.7c0,1.2-0.4,2.2-1.7,2.4
		c0.3,0.7,1.1,1,1.9,0.9c0,2.9-1.3,0.8-2.1,2.4c-0.6,1.4,0.8,0.7,0.8,1.8c-0.1,1.5-1.6,2.4-2.3,3.4c-2,2.8-3.4,5.9-4.2,9.3l-1.7-0.9
		c0,0.3,0.3,4,0.4,4c-0.4,0.8-0.6,0.9-1.8,1c1,2.2,0.1,3.6-1.5,5c-0.3-0.5-0.5-0.9-0.8-1.3c-0.7,0.6-0.1,2.7,0,3.6
		c-0.5-0.1-1-0.1-1.5-0.2c1.4,1.5,0.5,4.2-0.4,5.9c-1,1.9-1.7,4-2.6,6c-1.5-2.4-1.1,1.6-1.2,2.9c-0.1,0.5-0.3,1-0.5,1.5
		c-0.1,0.4,0.5,0.8,0.3,1.4c-0.5,1.6-1.1,1.7-1.2,3.3s0.1,3.5,0,5.1s-0.8,2.4-1.1,3.7c-0.4,1.7-0.1,3.5-0.5,5.2
		c-0.1,0.5-0.8,0.9-0.8,1.5c0,0.2,0.8,0.5,0.9,0.8c0.2,1.8,0,3.3-2.1,3.4c0.1-0.9,1.6-0.8,0.9-2c-2.6,1-0.2,2.5-0.2,4.7
		s-0.4,4.3-1.1,6.3c-1.1-1.3-1.5-3.3-2.6-4.5c-1.3-1.5-1.7-1.2-1.1,0.5c0.4,1.1,1.8,1.3,2.3,2c-0.1,0.7-0.2,1.3-0.3,2l2.2,1.7
		c-1.3,0.8-1.9-1-2.8-0.7c-1.2,0.4,0.1,2.6,0.1,3.1c0,1.3-0.2,2.5-0.7,3.7c0.2,0.9-0.1,1.3-1,1.1c0,1,0,2.1,0,3.1
		c1.6-0.5,1-2,0.8-3.2c2.1,0.9,0.9,5.4,3.6,5.2l-1.3,2.5c-0.4-0.5-0.7-1-1.1-1.5c-0.5,1.2-0.9,2.2-1.3,3.3c1.1,0.2,2,0.7,2.8,1.4
		c0.4,0.5-0.7,0.9,0.3,1.8c1.9,1.7,1.2-1.4,2,1.5c0.6,2-0.9,2.4,1.6,2.7c-0.1,0.6-0.3,1.2-0.4,1.7c-1.8-0.4-2.1-0.2-2.1-2
		c-2,0.2-0.1-3.1-1.9-2.7c1.9,1.6-1.6,0.9-2.5,1c0.9-2.2,0.3-2.2-0.4-4.3s0-2.8,0.4-4.7c0.2-1.1,0.9-1.2-0.7-1.4
		c-1.1-0.2-3.5,0.4-4.9,0.3l1.1-1.2c-0.6-0.5-1.2-0.5-1.9,0.1c-0.7-2.1-1.9-3.7-2.6-5.7c1.7-0.8,1.8,2,2.5,3c1,1.3,2.5,1.5,3.7,2.6
		c1.9-2.3,1.2-6.7,0.5-9.3s-2.9-3.9-3-7.1l1.8,1.2c-0.1-0.9-0.2-1.8-0.2-2.7c0.1-0.4,0.3-0.8,0.6-1.2c-0.3-1.6-0.1-1.4-2.1-1.3v-2.5
		c0.5-0.1,1-0.4,1.4-0.9c0.4-0.7,1.5-2.4,1.2-3.3c-0.6-1.7-1.3-0.3-1.9-1.1c-1.3-1.6,0.9-1.7,1.4-3.1s-0.7-3-0.7-4.5
		c0.3-0.7,0.4-1.5,0.5-2.3c-0.2-0.5-0.5-0.9-0.9-1.3c0.7-1.1,1.6-0.1,2.5-0.9c1.6-1.3-0.6-2.2,0.4-4l-2,0.6
		c-0.2-1.2,0.6-2.2,0.2-3.2c3.2-1,0.3,1,2.5,1.7c0.3-0.5,0.7-1,1-1.5c0.7,0.7,1.4,1.3,2.1,2c0.4-2,0.1-3.2,0.7-5
		c-0.5,0.5-1.1,0.9-1.7,1.2c-1.3,0.3-0.7,0-1.6-0.8s-0.8-2-1.9-0.3l-0.8-0.5l0.1,0.1c-0.1-1.6-1.8-0.3-1.9-1.9
		c2.6-0.7-0.4-0.8-0.6-1c-0.9-0.8-0.9-0.9-0.4-2.7c0.3-1.1,1.2-2.5,0.6-3.8c-0.4-0.7-1.7-1.1-2.4-1.6c-1.6,3.1-1-0.2-0.6-1.4
		c0.3-1.2,0.9-2.2,1.9-2.9l-0.3,0.9l1.9,0.5c-0.4-1.1-0.5-1.7-1.7-1.3c0.3-2.3,1.2-2.2,3.4-2.4c-0.2-1.7-0.1-1.7-1.8-1.5
		c0.5-1.6,0.1-2.1,1.9-2.2c-1.1-2.4,1.9-5.2,3-7.1c0.5-1,0.2-2.7,1.7-1.3c0.8,0.8,0.2,2.6,0.2,3.6c0.4-0.6,0.8-1.2,1.2-1.8
		s0.5-0.9-0.1-1.4c0.2-0.7,0.3-1.5,0.3-2.2c-0.1-1.8-1-3.1-0.1-4.8c0.8-1.6,2.6-1.7,3.5-3c0.5-0.8-0.1-1.9,0.6-2.8
		c1.1-1.3,0.6,0.5,1.4,0c-1.9-2,11.4-12.9,13.4-14.5c5.9-4.8,13.2-12.1,21.6-11.9c2.4,0,7.1,1.6,8.8-0.8c0.6-0.9,0-2.5,0.8-3.5
		c1-1.3,2.5-1.1,3.9-1.7c7.8-3.1,15.9-5.5,24.2-7c4-0.7,8.1-0.2,12.1-0.8c4.6-0.8,9.2-1,13.9-0.6c3.9,0.4,7.8,1.4,11.5,2.9
		c3.8,1.6,8.2,2.9,11.4,5.5c6.7,5.5,11.9,12.6,15.1,20.7c1.3,3.5,3.8,6.5,4.9,10c1.3,4,2.4,8.1,3.8,12.2c1.9,5.2,3.5,10.5,4.7,15.9
		c0.5,2.5,0.5,4.7,1.4,7.1c0.9,2.4,1.5,4.9,2,7.4c0.3,2.1,0.7,4.2,1.2,6.2c0.5,1.8,1.5,3,2,4.6c1.3,4.5,3,9.3,4.4,14
		c1.8-1,2-6,2.2-7.9c0.4-2.4,0.9-4.8,1.5-7.1c1.2-4.8,2.2-9.3,3.6-14.1c1.5-5.3,2.2-11.2,3.4-16.7c1.5-6.8,3.1-13.6,5-20.3
		c0.7-2.6,2-4.9,2.8-7.5s1.1-5.3,2-7.9c2-5.6,3.8-11.3,5.9-16.9c1.9-4.9,4.4-10.9,8.5-14.4c2.6-2.2,4.4-2.8,7.6-2.1
		c3,0.7,5.8,0.1,8.2,2c-1.3,1.6-3.5,2.6-4.6,4.3c-0.9,1.4-0.7,3-0.7,4.6c-4.6-0.2-1.3,1.6-3.3,4.3c-1.3,1.6-1,0-2.3,1.5
		c-0.6,0.7-1,2.5-1.4,3.3c-1.2,2-2.2,4.3-2.8,6.6c-0.4,2.4-0.7,4.9-0.9,7.3c-0.1,1.5-0.9,2-1.5,3.4s-0.4,2.3-0.6,3.7
		c-0.2,2-0.5,3.9-0.9,5.8c-0.8,3.1-4.7,5.2-2,8.2c0.2-0.5,0.6-1,1.1-1.4c1.7,2,0.7,6.7-1.7,3c-0.1,1.8,0.5,3.6,1.8,5
		c0.1-0.8,0.2-1.5,0.3-2.3c1.1,0.8,0.5,3.6,0.7,4.8c2.1-2.6,1-5.9,2.8-8.3c0.2,1.3-0.6,2.3,0.6,3.4l0.2-1c2.1,3.4,0.2,11.1-0.9,14.7
		c-1.7,5.5-1.3,11.1-2.4,16.7c-1,4.9-1.6,10.2-3.2,14.8c-1.7,5.1-2.3,10-3.5,15.2c-1.1,4.5-1.3,8.9-1.9,13.4
		c-0.3,2.3-1.1,4.5-1.5,6.8c-0.5,3-0.5,6.3-1.5,9.3c-0.5,1.6-1,3.3-1.6,4.9c-0.8,2.3-2.3,3.2-4.1,4.8c-4.1,3.6-8.1,4.1-13.3,5.1
		c-2.5,0.5-4.9,0.2-7.4,0.5c-1.9,0.3-3.9-0.1-5.6-1c-4.1-2.3-6.3-8.5-7.7-12.7c-1.6-4.8-3.4-9.6-4.8-14.5
		c-1.5-5.2-2.4-10.4-4.4-15.6c-3.9-10.5-5.4-21.7-9-32.2c-1.5-4.5-2.7-9.1-3.6-13.8c-1.1-5.2-2.5-10.3-4.2-15.4
		c-3.5-11.3-7.5-24.8-16.5-33.1c-9.6-8.8-23.2-11.8-35.6-7.9c1.1,1.5,2.6,2.2,4.1,3.2c0.5,0.3,0.5,1.3,0.8,1.5
		c1,0.5,2.4-0.8,3.1,1.1c0.1,0.4-1.2,0.8-0.8,1.6c0.4,0.6,1,0.7,1.6,1.2c0.8,0.7,1.5,1.4,2.2,2.3c0.2,0.7-1.1,1.8-0.3,2.2
		c1.2-2,0.4-0.6,1.5,0.1c0.6,0.3,1.1,0.8,1.5,1.3c1,1.5,1.8,3.2,2.3,4.9c0.1,0.5-0.2,1.4-0.1,1.8c0.3,0.7,1.4,1.4,1.8,2.1
		c1,2.2,1.8,4.4,2.6,6.6v-0.1c0,1.4,1.1,1,2,0.9c-0.3,0.8-0.5,1.7-0.5,2.6c0,0.2,1,0.6,1.2,1.2c0.3,1.5,0.7,3.1,1.4,4.5
		c0.3-0.6,0.6-1.3,0.9-1.9c0.1,0.8,0.2,1.7,0.2,2.5c0.3-0.2,0.6-0.5,1-0.7c0.5,3.4,0.1,6.4,0.2,9.7l0.7-0.9c0.8,2,1.5,4,2,6.1
		c0.1,0.8-0.1,1.9,0.1,2.7c0.2,0.7,0.8,1,1,1.5c1,3.2-0.4,8.7-1,12c-0.7,3.7-2.7,7.1-3.8,10.7c-0.6,2-1.2,4-1.8,6
		c-0.5,1.5-1.2,5.1-3,3.6C224.9,560.1,225.1,560.4,226,560.4 M515.7,488.7c-0.4,0.5-0.6,1.1-0.5,1.7
		C515.5,489.9,515.7,489.3,515.7,488.7 M507.7,568.6c-0.8,0-0.5,0.8,0,0.8V568.6 M504.5,548.2c0.6,0.1,0.7-0.3,0.3-1.2
		C504.2,546.9,504.1,547.3,504.5,548.2 M507.4,572.6c-0.4-0.1-0.3,2,0,2V572.6 M511.8,497.9l1.8,1.1
		C513.4,497.8,513,497.5,511.8,497.9 M568.4,503.3c0.6,0.4,1.4-1.4,1.7-1.8C569.4,501.1,568.8,502.7,568.4,503.3 M564.8,506.7
		c1.3-0.4,2.3-1.3,2.8-2.5C566.4,504.7,565.4,505.6,564.8,506.7 M504.4,542.7c-1.5,0.4-0.6,2.5,0.8,2.5
		C504.9,544.4,504.6,543.6,504.4,542.7 M511.8,511.5c-0.6-0.6-1.8,0.1-2.9-0.3c0.3,0.9,0.6,1.9,0.9,2.8
		C510.5,513.2,511.2,512.3,511.8,511.5 M516.7,485.1l-0.4-1.5c-0.6,0.1-0.6,1.6-0.7,2.1c3.6-1.9,2.3,6.1,2.2,8.1
		c-0.8-1.3-0.7-1.8-1.7-0.7c0.1-0.1-0.6,2.8-0.6,2.8c-0.4,0.8-0.7,1.6-0.9,2.5c-0.4,2.1-0.1,3.4-1.2,5.3c-1.3,2.2-1.9,3-1.1,5.8
		c1.3-0.5,0.2-1.2,0.7-2c0.4-0.9,1.1-1.7,2-2.1c-1.1,5.4-2.3,10.8-3.4,16.2c12.9,0.5,24.3-6.1,33.8-14.3c2.2-1.9,4-4.1,6.1-6.1
		s4.8-3.7,6.9-5.9c4.1-4.3,7.3-9.7,11.1-14.2c1.3-1.6,1.9-3.4,2.8-5.3c1.1-2.3,2.6-4.1,3.4-6.5c1.8-5.2,4.5-12,3-17.6
		c-1.6-5.8-7.4-9.8-12.7-11.9c-6.2-2.4-11.5-0.4-17.3,2c-2.1,0.9-3.9,2.5-5.8,3.7c-2.4,1.4-4.4,3.5-5.7,6c-0.7,1.5-1.7,2.8-3,3.8
		s-2.2,0.6-3.3,1.3c-1.7,1-5.1,5.7-4.2,7.8c-2.4-0.1-2,0.1-2.6,2.5c-0.3,1.4-0.8,2.8-1.4,4.2c-0.6,0.9-1,1.9-1.3,2.9
		c-0.1,1.4-0.5,2.9-1.1,4.1c-0.1-0.5-0.1-1-0.2-1.4c-0.8,1.1-2.2,3-2.4,4.4C517.4,482.7,518.4,483.8,516.7,485.1 M590.5,476.2
		c-0.6,1.8-1.8,2.1-2.4,3.9s-0.3,3.7-1.3,5.6c-2.5,4.8-6.3,9.1-10,12.9c-1.7,1.8-3.7,4.4-5.8,5.7c-0.8,0.5-1.5,0.4-2.3,0.8
		c-1.1,0.6-2,2-2.9,2.8c-3.1,2.9-7.3,6.3-11.1,8c0.3-0.5,0.5-1,0.8-1.5c-1.6-0.9-3.1,2.8-4.2,3.3s-2.3-0.7-3.5-0.2s-0.2,2-1.2,2.7
		c-0.1,0-2.6,0.1-2.9,0.2c-1,0.2-2.2,0.6-3.2,0.9c-4.2,1.2-8.6,2.8-12.9,4c-2.8,0.8-10.2,0.7-11.9,3.5c5.2,3.2,11.6,4.1,17.4,5.9
		c6.2,2,12.4,3.5,18.5,5.6c6,2,12.3,3.7,18.4,5.1c6.7,1.6,13,4.8,19.8,6.2c2.6,0.6,4.9,1.8,7.5,2.6c3.1,0.9,6.2,1.7,9.3,2.9
		c6,2.3,12.2,4.3,18.4,5.9c13.2,3.5,25.9,8,39.3,10.2c6.3,1.1,12.7,1.3,18.9,3.1c2.2,0.7,5.7,2.1,3.3,4.7c-0.9,1-2.2,0.9-3.3,1.3
		c-1.5,0.6-2.9,1.2-4.3,2c-5.5,2.5-12,1-17.7,0.2c-7-1.1-14.1-1.9-21-3.4c-27.3-5.7-54.2-14.4-80.7-22.9
		c-15.1-4.9-30.5-8.5-45.6-13.2c-1.5-0.5-2.7-1.2-3.7-0.2s-0.2,1.9-0.6,2.6c-0.2,0.4-1,0.8-1.2,1.2c-0.3,0.8,0,1,0.4,2
		c0.3,0.5,0.5,1.1,0.7,1.7l0.5,1c-0.2,1.3-0.6,1.6-1.3,1c-0.2,0.2-0.8,0.1-1.3,0.8c-0.4,0.6-0.5,1.3-0.5,2c0.3,1.9,2.3,1.7,1.6,3.6
		c-0.4,1-1,0.7-1.2,1.2c-0.6,1.2-0.3,4-0.4,5.3c3.3-0.6,1.3,2.6,1.9,4.5c2.2-0.7,1.5,2.2,1.6,4c-0.1,0.8-0.2,1.6-0.1,2.5
		c0.1,0.5,1.1,0.6,1.2,1c0.6,1.7-0.5,5.1-0.6,6.9c0,2.5,0.5,5.5-0.3,7.8c-0.1,0.8-0.5,1.5-1.1,2c-0.8,0.6-1.2,0-1.9,0.3
		s-1.1,1-1.8,1.4s-1.2,0.1-2,0.2l-1-0.3c-0.6-0.4-1-0.1-1,0.8c-1,0.6-0.3,1.2-1.9,1.5c-2.2,0.4-2.5-1.1-4.5,0.5l-1-1.8
		c-1.5,1.6-5.2,1.3-6.9,0.6c-3.8-1.5-3.8-5.2-4.7-8.8c-1.6-6.9-2.7-14-3.1-21.1c-0.9-14.8-1.4-29.2-1-44c0.4-15.5,1.2-31.2,3.6-46.6
		c1-6.8,2.5-13.4,4.3-20c1.3-4.6,2.5-15.9,9.5-15.2c3.2,0.3,6.9,2.1,9.8,3c1.2,0.3,2.1-0.2,2.6,1.3s-1.5,4.4-1.8,5.8
		c-0.7,3.7-1,7.5-0.7,11.2c0.1,3.6,1.2,6.7,1.4,10.1c1.8-1.3,2.8-4.2,3.9-6c1.7-2.6,3.2-5.5,5-8c2.8-4,6-7.9,9.3-11.5
		c8.4-8.6,19-16.1,31.4-17c12-0.8,22.3,3.3,31.6,10.5c1.3,1,3.2,2.9,3.7,4.5c0.3,1.1-0.1,2,0.4,3.1c0.4,0.9,1.3,1.3,1.7,2.2
		c1,2.6-0.1,4.5-0.6,6.9c-0.3,1.5-0.2,3,0.2,4.4c0.3,1.6,1.7,2.8-0.2,3.3c1.2,1.5-0.7,5.5-1.8,6.7c-0.6-1.5,1.1-2.4,0.9-3.9
		c-1.3,1.9-2.9,3.6-2.1,6c-0.8-0.1-0.7,0.1-0.6,0.8C590.2,476.8,590.4,476.5,590.5,476.2 M427.7,551.8c-1.8,0.9-1.9,2.7-1.6,4.4
		C427.2,555,427.2,553.3,427.7,551.8 M361.7,523.1c-0.5-0.7-3.3-3.1-3.1-4c0.2-0.7,2.3-1.3,2.8-1.8c1.1-1.2,0.9-1.8,1.1-3.4
		c0.7-5.8,0.6-12,2.1-17.6c0.6-2.3,0.9-4.5,1.3-6.9c0.4-2.1,2-5.8,1.5-8c-1.1-3.9-12.8-0.7-15.9-0.3c-2.5,0.4-12.2,0-8.3-4.4
		c1.1-1.2,2.4-1.5,3.8-2c2.9-1.3,5.9-2.3,9-3.2c4.3-1.1,10-1.3,13.7-3.9c0.8-0.5,1.6-1.9,2.6-2.1c1.1,0,2.3,0,3.4,0.1
		c1.4,0,2.9-0.6,4.2-0.6c10,0.1,20-1.5,30-2.3c5.9-0.5,11.8-0.7,17.7-0.6c5.5,0.1,11,0.6,16.5,0.6c5.3,0,11,0.2,16,2.1
		c1.5,0.5,2.9,1.2,4.4,1.8s2.7,0.5,2.7,2.1c0,3.1-3.8,1.8-5.6,1.5c-12-1.4-24.3-0.8-36.2,0.2c-6.8,0.5-13.5,1.3-20.2,2.2
		c-2.8,0.4-6.1,0.4-8.7,1.3s-2.6,3.1-2.9,5.9c-0.2,2.3-0.9,4.3-1,6.5c-0.1,1.1-0.1,2.2,0,3.3c0.2,1.2,1,2.1,0.9,2.8s-1,1.4-1.2,2.1
		c-0.6,1.9-1.1,3.8-1.3,5.8c-0.4,2.7-0.5,5.4-0.8,8.1c6.4-0.4,13.2-3.6,19.2-5.6s11.7-4.5,17.8-5.8c6.4-1.4,12.6-3.9,19.1-5.2
		c1.6-0.2,3.2-0.6,4.8-1c1.3-0.4,2.5-1.4,3.9-1.5c1.2-0.1,2.5,0.4,3.8,0.3c1.7-0.1,3.4-0.6,5-0.8c0,2.3-0.3,2.5,1.9,3.2
		c-0.9,2.4-3.9,3.3-5.9,4.4c-2.4,1.3-4.5,2.7-7.1,3.8c-5.7,2.4-11.5,4.4-17.4,6.6c-10.1,3.8-20.5,6.9-30.9,10
		c-4,1.2-13.6,1.2-14.8,5.7c-1.6,6.1-1.4,14-0.7,20.2c1.2,11,3,23,7.4,33.3c0.8,1.8,2,6.7,4.4,6.6c1.9-0.1,4.6-4.9,5.6-6.3
		c3.9-5.8,6.7-12,10.3-17.9c0,1,0,2,0,3c3.6-2.5,3.7-8.8,6.4-12.2c0.2,1.7,0.4,3.5,0.6,5.2c1.1-1.3,1.4-5.4,3.7-5.6
		c0.3,0,1.1,1.6,2,1.6s1.7-0.5,2.3-1.2c-0.1,3.3-1.5,6.8,0.3,9.9c0.3-0.7,1.3-3.7,2.1-3.7c0.2,3.6-2.1,5.4-2.6,8.6
		c-0.2,1.1,0.3,2.1,0.2,3.2c-0.3,1.2-0.6,2.4-1.1,3.6c-0.5,1.2-1.9,2.9-1.8,4.2s0.8,1.5,0.8,2.9c-0.1,2.5-3.3,4.9-4.7,6.7
		c-2.2,2.8-4.8,5.2-7.9,7.1c-2.5,1.6-4.6,2-7.2,2.9c-0.6,0.3-1.3,0.6-2,0.8c-0.2-0.4-0.4-0.7-0.8-1c-1,0-1.7,0.6-2.6,0.8
		c-1.2,0.2-3.4-0.5-4.3-0.1s-1.8,1.9-2.5,2.7c-1.9-2.5-6.7-0.9-9.6-1.3c-2.1-0.3-3.4-1.5-5.2-2.4c-1-0.5-2.1-0.8-3-1.3
		c-2.6-1.5-4.7-5-5.9-7.5c-1.9-3.8-4.4-7.4-5.7-11.5c-2.3-7.6-4.6-15.8-5.3-23.7C361.6,541.3,361.6,532.2,361.7,523.1 M122.6,542.5
		c-0.1-1.8,0.5-2.5-1.5-1.9c0.9-3.6,4.2-0.4,4.6,1.5c0.2,0.7-0.6,2.8-0.5,3.6c-0.7,0.7-0.6,1.3,0.3,1.7l1.6,1.5
		c-1.4,0.7-0.8,2.7-1,4.1c-2.1-1.8,0-2.5-0.9-4.2c-0.3-0.7-0.5-1-1.4-0.6c-1.3,0.6-0.6,1.8-0.5,3.1c-0.7-0.4-1.4-0.5-1.8,0.4
		c-0.7-1.7,0.6-3,0.1-4.7c-0.4-1.3-1.6-2.2-2.4-3.2c1.6-0.7,3.5,1.2,4.8,1.9c0.6-1.3-3.4-3.9,0-2.8
		C123.6,542.1,123.1,542.3,122.6,542.5 M117.8,602.6c-1.7-1-0.1-1.3-0.8-2.3c-0.8-0.6-1.6-1.2-2.5-1.6c1.7-0.6,0.8-0.5,1-1.8
		c0-1.2,0.2-2.4,0.4-3.5l-1.6,0.6c0.5-2.6,0.9-5.3,1.1-7.9l1.5,0.5c0.1-1,0.5-1.2,1.1-0.7c0.5,0.3,1.3,3,1,3.3
		c-1.2,1.2-2.7-1.5-3.6,1.3c-0.4,1.4,0.3,1.8,1,2.9l1.1,0.3c-0.2,0.7-0.3,1.5-0.4,2.2C117.2,598,119.3,600.6,117.8,602.6
		 M121.6,597.6c-0.3,0.3-0.3,0.6-0.1,0.9C122,598.2,122,598,121.6,597.6 M123.5,601.6c-0.8-0.3-1.4-0.5-2.4-0.8
		C122.4,602.2,122.4,602.2,123.5,601.6 M120,594.6l1.3-0.4c0.2,0.5-0.1,1.4,0.2,1.8c0-0.1,1.3,1.5,1.1,1c0.5,1.3-0.3,4.5,2.3,3.4
		c1,3.3-2.4,3-4.3,1.9c0.3,1.2,0.6,2.3,2.1,2.2c-0.2,1-1,0.8-1.7,0.8l0,0c-1.2-1.8-1.7-2.3-1.3-4.6c0.3-1,0.4-2,0.4-3
		c-0.4-1.2-0.8-0.9-2.4-1.2C118.5,595.9,119.2,595.2,120,594.6L120,594.6z M119.2,584.5c1.8-1.3,0.1-8.7,3.7-3.5
		c0.4-1.5-1.2-4.9,0.8-5.3c0.4,1.3,0.5,2.7,0.2,4c-0.3,1.8-0.7,1.5-1.5,2.9c-1,0-1.2,0.4-0.7,1.2c0.2,0.5,0.2,1,0.1,1.4
		C121.1,586.4,119.9,585.1,119.2,584.5 M429.6,576.3c0.5-1.6,0.2-3.3,1.2-4.8s2.7-2.1,3.2-4.2c-1.5,0-1.6-1.9-0.7-3
		c1.6,2.3,2,4.8,0.3,7.3c-0.7,1-1.4,1.2-2.1,2.3C431.1,574.8,430.9,576.8,429.6,576.3 M130.4,603.5c-1.4-0.2-1.8,0.4-1.1,1.7
		c-2.4-0.4,0.4-4.7-0.7-5.7s-1.1,1.6-2.1,1.9c-0.2-1.8,0.3-3.6,1.3-5.2C130.5,597.7,130,600.5,130.4,603.5 M123.7,564.1l-2.2,0.4
		c1.3,1.7,2,3.8,1.8,6c-1.4-1.4-2.8-2.3-2.9-4.4c-0.1-1.5,1-2.5,0.1-3.9C122.8,561.7,122.7,561.9,123.7,564.1 M118.4,574.4
		c-0.2-0.2-0.3-0.2-0.4-0.1C118,574.7,118.2,574.7,118.4,574.4 M120,572.6c1,1,2.9,6-0.1,5.3c0.3-1,0.9-1.6,0.2-2.2
		s-1.8,0.7-2.5,0.3C114.9,574.6,119.3,572.9,120,572.6 M123.1,590.6c1,1.4,2.3,3.7,2.4,5.4c0,0.5-0.4,3.1-1,3.1
		C124.1,599.2,122.4,590.8,123.1,590.6 M127.1,583.5c-0.3,1-1.7,2.9-2.1,0.8c-0.2-0.9,1.3-1.3,1.5-1.8c0-1-0.1-1.9-0.3-2.8
		c2.2,2.2,2.5,4.9,2.8,7.5C128.7,586.2,128,583.3,127.1,583.5 M114.6,584.6c-0.8-1.5,0-1.8,0-3.2c0-0.4-1.3-0.5-1.4-0.8
		c-0.1-0.5,1-3,1.2-3.4C116.4,578.6,116.2,582.9,114.6,584.6 M119.2,581c-0.1,0.6-0.2,1.2-0.2,1.8c-1.3-0.1-3.1-3.1-2.3-4.4
		c1.2-1.9,1.2,0.4,1.4,0.8C118.5,580.2,117.2,580.4,119.2,581 M128.7,545.7c-0.7,0.1-1.4,0.5-1.7,1.1c-1.4-1.3,0.7-4.3,2.1-4.3
		C129.1,542.3,128.6,545.8,128.7,545.7L128.7,545.7z M269,411.5c-0.3,1.9,0.2,5.1-1.5,6.2C267.1,416.5,267.8,411.2,269,411.5
		 M120.1,551.6c0.2,0.4,1.3,2,1.2,2.4c-0.3,0.7-1.1,1.1-1.8,0.8c0,0,0,0-0.1,0C118.5,554.2,119.3,551.8,120.1,551.6 M120.1,594.6
		c-0.5-0.9-1.1-1.8-1.8-2.6c-0.2-0.2-3.4-0.3-1.9-1.7S120.3,593.3,120.1,594.6 M126.4,557.9c0.1,1.8,0.9,3.8-0.6,5.2
		C124.8,562.5,125.8,558.7,126.4,557.9 M334.5,496.7c0.7,2.1,0.1,4.2-0.7,6.2C332.7,501.1,333.9,498.7,334.5,496.7 M121.7,559.6
		c1.3-0.4,1-1.7,1.4-2.7c1.3,1.1,1,2.5,0.6,3.9L121.7,559.6 M119.7,613.4l2.1-1.8c0.1,1.3,0.3,2.7,0.4,4
		C121.2,614.8,120.5,614.1,119.7,613.4 M124.1,537.7c-2.2,0.4-2.3-1-2.5-2.9C123.3,535.6,122.5,536.6,124.1,537.7 M123.2,607.4
		c0.3-0.7,0.6-1.4,0.8-2.1l2,1.1C125.7,607.1,123.6,607.8,123.2,607.4 M116.4,566.8c0.2,0.3,0.4,0.6,0.9,1.3c-2.2-1.4-1.6-2,0.2-3.8
		C117.8,565.4,117.1,566,116.4,566.8 M126,612.1c0.4-1.1,0.7-2.2,1.1-3.2C128.4,609.6,127.6,612.4,126,612.1 M133.6,586.4l1-2.6
		c0.8,0.1,0.8,1.7,1,2.4L133.6,586.4 M118.4,557c-1.6-0.3-1.7-0.5-1.2-2.5C117.6,555.4,118,556,118.4,557 M115.6,568.8
		c1.2,0.7,1.5,1,1,2.3C115.8,570.7,115.8,569.6,115.6,568.8 M125.1,608.2C127.1,610.6,123.7,610.7,125.1,608.2 M124.2,554.8
		c1-0.7,1.5-1.1,1.9,0.2L124.2,554.8 M121.1,589.3c0.4,1.2,1,1.5-0.3,2C120.7,590.4,120.6,589.9,121.1,589.3L121.1,589.3z
		 M433.1,552c0,0.6-0.1,1.2-0.1,1.8C432.2,553.7,432.3,551.8,433.1,552 M124.4,534.1c0.3,0.5,0.5,0.9,1,1.7
		C124.8,535.5,123.5,534.8,124.4,534.1 M126.1,566c1.1-0.4,1.6-0.1,1.8,1C127.3,566.7,126.7,566.3,126.1,566 M123.7,584.5l0.4,1.3
		c-1,0-0.7,0.2-1-1.2L123.7,584.5 M121.2,589.4c-0.1-0.4-0.3-0.8-0.5-1.7c0.8,0.6,1.2,0.9,2.1,1.6
		C122.5,589.3,121.3,589.3,121.2,589.4 M316,382.6c-0.6-0.5-0.7-1.5-0.2-2.1l0,0C316.1,381.2,316.2,381.9,316,382.6 M131.5,604
		l-0.8,1.8C130.5,604.9,130.7,604.3,131.5,604 M218.6,484.9c0.4-1,0.8-1.4,1.4-0.4C219.6,484.6,219.1,484.8,218.6,484.9
		 M343.1,469.2c-0.1,0.5-0.3,0.5-0.5,0C342.7,468.7,342.9,468.7,343.1,469.2 M115.9,564.6c-0.4,0.5-0.6,0.4-0.7-0.1
		C115.4,564.1,115.6,564.2,115.9,564.6 M120.5,609.2c0.5,0.2,0.6,0.5,0.3,0.9C120.4,609.9,120.3,609.6,120.5,609.2 M116.2,584.2
		c0.4,0.4,0.4,0.7,0,1C115.7,585,115.7,584.6,116.2,584.2 M132.4,597.4L132.4,597.4c0.9,0.3,0.6,0.9,0.3,1.5
		C133.1,598.6,133,598.1,132.4,597.4 M127.5,607.7c-0.5,0.3-0.7,0.2-0.8-0.3S127.9,608,127.5,607.7 M131.1,609.3
		c-0.2,0.5-0.4,0.5-0.5,0C130.7,608.9,130.9,608.9,131.1,609.3 M123.6,615.9c0.3,0.6,0.2,0.8-0.3,0.7
		C123.1,616.1,123.2,615.9,123.6,615.9 M159.6,502.9l0.2-1.2C160.7,502.6,159.9,502.5,159.6,502.9 M122.2,572.6
		c-0.8-0.1-1-0.4-0.7-0.8C122.3,571.8,122.6,572.1,122.2,572.6 M267.5,421.4l-0.2-2.3C267.9,419.1,267.5,420.9,267.5,421.4
		 M152,610.5C151.5,610.9,151.6,610,152,610.5 M123.1,610.9c-0.1-0.7-0.2-1.1-0.4-1.8C123.4,609.8,123.7,610.1,123.1,610.9
		 M125.8,614.1l0.1-1.1C126.3,613,126.6,614.2,125.8,614.1 M128.2,589.7c0.7,0.4,0.8,0.8,0.4,1.2
		C127.6,590.2,127.6,590.5,128.2,589.7L128.2,589.7z M115.6,574.8c0.2,0.9,0,1.3-0.6,1.1C114.7,574.9,114.9,574.5,115.6,574.8
		 M128.2,589.8c-0.1-0.7-0.1-1.3,0.8-1.3C128.1,589,127.8,589.4,128.2,589.8 M142.4,610.7c0.2,0.9,0.1,1.3-0.5,1.1
		C141.5,610.9,141.7,610.5,142.4,610.7 M123.6,613.8v-1.2C124.1,612.6,124.2,613.8,123.6,613.8 M311.5,229.6l-0.4-1.1
		C311.6,228.3,312.1,229.3,311.5,229.6 M134,610.2c-0.5-0.3-0.6-0.9-0.2-1.4c0.1-0.1,0.2-0.2,0.2-0.2
		C134.3,609.1,134.3,609.7,134,610.2 M119.1,558.9l-0.7,1.7C117.7,560.3,118.5,558.7,119.1,558.9 M113,575.9c0.5,1,0.4,1.5-0.3,1.4
		C112.3,576.3,112.4,575.8,113,575.9 M116.4,562.2l0.8-0.4C117.4,562.4,116.8,562.9,116.4,562.2 M114.9,571c1,0.5,1.2,0.9,0.7,1.3
		C114.4,571.9,114.1,571.5,114.9,571 M139.8,608.6l0.1,1.1c-0.1,0-0.2,0.1-0.3,0.1C138.8,608.9,138.9,608.5,139.8,608.6 M129,607.8
		c0.8,0.8,0.8,1.2-0.1,1.3C128.2,608.3,128.2,607.9,129,607.8 M316.4,420c-0.3,0.3-0.5,0.3-0.7-0.2C316,419.6,316.2,419.6,316.4,420
		 M224.4,499.5c0.3-0.8,0.5-0.9,0.8-0.4C224.5,499.1,224.2,499.2,224.4,499.5 M125.5,617.7l-0.3,0.4
		C124.9,617.7,125.1,617.5,125.5,617.7 M125.7,575.7c-0.2,0.3-0.3,0.3-0.4-0.1C125.5,575.4,125.6,575.4,125.7,575.7 M580,356.9
		c0.1-0.4,0.2-0.8,0.4-1.4c0.3,0.4,0.2,1-0.2,1.3C580.1,356.8,580.1,356.8,580,356.9 M135.8,595.7c0.3,0.2,0.3,0.3-0.1,0.5
		C135.5,596,135.5,595.8,135.8,595.7 M113.7,589.1c0.3,0.1,0.4,0.2,0.1,0.5C113.5,589.4,113.5,589.3,113.7,589.1 M127.7,602.3
		c0.2,0.2,0.2,0.3-0.1,0.4C127.4,602.5,127.4,602.4,127.7,602.3 M337,483.3c0.1,0.2,0.1,0.4,0,0.6c0,0,0,0-0.1,0
		C336.6,483.6,336.7,483.4,337,483.3 M119.6,605.4C119.1,605.7,119.3,605,119.6,605.4 M121.1,605.4c0.7,0.7,0.7,1.1,0,1
		C121.5,605.9,121.5,605.5,121.1,605.4 M125.8,567.8l0.5-0.6C126.7,567.6,126.1,568.2,125.8,567.8 M371.2,264.2
		C372,266.6,369.4,265.2,371.2,264.2 M375.4,260v-2.5C375.5,258.1,376.1,259.9,375.4,260 M129.8,542.9l2,0.9
		C131,545.4,130,543.4,129.8,542.9 M146.8,507.1v2.9C145.3,509,144.5,507.9,146.8,507.1 M519.4,484.1c-0.5-1.3-0.7-2,0.7-2.6
		C520.4,482.4,520.1,483.4,519.4,484.1 M516.3,508.4c0.4,0.8,0.3,1.2-0.3,1.2C515.5,508.7,515.6,508.3,516.3,508.4 M517.3,497.8
		L517,499C516.5,498.9,516.8,497.8,517.3,497.8 M515.8,502.5c-0.3-0.1-0.4-0.4-0.1-0.7C516,501.9,516,502.1,515.8,502.5"/>
	<path class="st1" d="M546.8,670.7c-0.6-0.8-0.9-1.3-2-1.6c-0.5-0.2-1.1-0.3-1.7-0.5c-0.7-0.1-1.5-0.1-2.2-0.1
		c-0.5-0.1-1-0.1-1.4-0.1l-0.3,0.2c-0.2-0.1-0.4-0.2-0.6-0.2c-0.3,0-0.7,0.1-1,0.2c-0.5,0.1-1.1,0.2-1.6,0.3
		c-0.7,0.2-1.4,0.4-2.1,0.7c-0.5,0.1-1,0.2-1.5,0.1c-0.6-0.1-0.8-0.6-1.1-1.2c-0.7-1.3-1.5-2.6-2.3-3.9c-0.8-1-1.9-1.9-3-2.5
		c-0.5-0.3-1.1-0.5-1.8-0.7c-0.8-0.2-1.5,0-2.2-0.1s-1-0.5-1.8-0.6c-0.7,0-1.4,0-2.2,0.1c-1.5,0.2-3,0.6-4.3,1.3
		c-1.2,0.5-2.3,1.2-3.2,2c-1.2,1.1-1.6,2.5-2.5,3.9c-0.8,1-1.5,2.1-2,3.2c-0.1,0.4-0.2,0.8-0.4,1.2c-0.3,0.5,0.1,0.3-0.6,0.5
		c-0.4,0.1-0.9,0-1.2-0.2c-0.6-0.3-0.9-0.8-1.7-0.6c-0.5,0.2-1,0.7-1.3,1.2c-1.1,1.4-2,2.8-3,4.3c-0.7,1-1.5,1.9-2.5,2.8
		c-0.4,0.3-0.7,0.7-0.9,1.2c-0.4,0.5-0.9,1-1.5,1.3c-1.1,0.8-2.2,1.5-3.3,2.2s-2.3,1-3.2,1.8c-0.5,0.3-0.6,0.7-1.2,0.8
		c-0.5,0.1-1,0.1-1.5,0.2c-0.2,0.1-0.3,0.4-0.5,0.5s-0.5-0.2-0.6-0.3c-0.8-0.1-1.3,0.4-2.1,0c-0.5-0.2-0.9-0.4-1-1s0.7-0.9,1.2-1.4
		c1.1-1,2.2-2.1,3.1-3.3c1.8-2.3,2.9-5,3.4-7.9c0.2-1.2,0.6-2.6-0.2-3.7c-0.9-0.9-2.1-1.4-3.4-1.3c-1.3,0.2-2.2,1.5-2.9,2.4
		c-1.1,1.2-2,2.6-2.8,4c-1.2,2.4-2.8,4.5-3.2,7.3c-0.2,1.3-0.4,3.2-2.1,2.2c-1.1-0.7-1.8-2-1.8-3.3c-0.2-1.7-0.2-3.3-0.1-5
		c0.1-0.9,0.5-1.6,0.5-2.5s0.1-1.8,0.1-2.6c0-1.6-0.4-1.9-2-2.2c-1.8-0.3-2,0.9-3.2,1.8c-1.1,1-2.1,2.2-2.8,3.5c-1,1.5-2,3-3.1,4.5
		c-0.9-2.4-0.3-4.9-2.2-7c-1.6-1.6-3.7-2.7-6-2.9c-1-0.2-1.8,0-2.8-0.2c-0.4-0.1-1.5-0.1-1.8-0.3s-0.6-1.4-0.9-1.9
		c-1.2-2.1-3.5-2.6-5.7-2.6c-2.8,0-5.6,0.3-8.3,0.8c-0.5,0.1-1.2,0.4-1.7,0.2s-0.1-1.1,0-1.7c0.3-1.3,0.6-2.6,1.1-3.9
		c0.2-0.7,0.5-1.3,0.6-2c0.1-0.5,0.1-0.9,0.1-1.4c0.1-0.4,0.4-0.8,0.5-1.2c0.2-0.6,0.3-1.1,0.3-1.7c-0.1-1.1-1.1-2-2.2-1.9
		c-0.5,0-1,0.3-1.3,0.7c-0.6,0.7-0.7,2.1-1,3c-0.3,0.5-0.5,1-0.6,1.6c-0.1,0.7,0.2,1-0.1,1.7c-1.2,2.2-1.8,4.5-2,7
		c0,0.6,0.2,0.7-0.2,1.2c-0.3,0.4-0.8,0.6-1.3,0.7c-0.6,0.2-1.2,0.2-1.7,0.3c-0.7,0-1.4,0.1-2.1,0.2c-0.6,0.4-1,0.9-1.2,1.5
		c-0.2,1.3,1.7,1.1,2.4,1.2c0.6,0,1.3,0,1.9,0.2c0.5,0.3,0.1,1,0,1.5c-0.5,1.4-0.9,2.8-1.1,4.2c0,0.5,0,1.1,0,1.6
		c-0.1,0.5-0.3,1-0.4,1.5c-0.2,1.5-0.6,3.1-0.8,4.6c-0.1,1.4-0.1,2.9,0.1,4.3c0.1,1.3,0,2.8,0.7,3.9c1.2,1.9,3.4,2,5.5,1.4
		c2.6-0.8,3.6-4.3,4.3-6.6c0.4-1.4,0.7-2.9,0.8-4.4c0.1-1,0.8-3.7,0.1-4.3c-0.5-0.4-1.2-0.6-1.8-0.8c-0.7-0.2-0.2-0.2-0.7,0.2
		c-0.2,0.4-0.4,0.8-0.5,1.2c-0.4,1.3-0.2,2.8-0.5,4.2c-0.2,1.2-0.5,2.4-1,3.6c-0.6,1.1-1,2.5-2.1,3.1c-0.2-0.9-0.2-1.9-0.2-2.8
		c-0.1-1.2-0.1-2.3,0-3.5c0.3-2.2,0.9-4.5,1.4-6.8c0.4-2.1,0.8-4.2,1.4-6.2s3.1-2,4.8-2.4c2.1-0.6,4.2-0.9,6.3-1
		c0.7,0,2-0.2,2.4,0.4c0.6,0.8-0.4,1.4-0.6,2.1s0.2,1.8,0.2,2.7c-0.2,1.2-0.5,2.3-1.1,3.4c-0.4,0.9-0.9,1.9-1.4,2.7
		c-0.3,0.8-0.7,1.7-1.1,2.4c-1.4,2-2.3,4.3-2.8,6.7c-0.3,1.3-1.2,5,0.5,5.7c-1.5,2.2,2.8,2.2,3.9,2.1c1.9,0,3.6-1,4.5-2.7
		c1.1-2,1.3-4.5,1.7-6.7c0.3-2.3,0.4-4.6,0.1-6.9c-0.2-1.2-0.2-2.5,0-3.7c0.1-0.5,0.2-1,0.2-1.5s-0.3-1.2-0.1-1.6s-0.2-0.2,0.3-0.4
		c0.3-0.1,0.7,0,1,0.1c0.5,0,1,0,1.5,0.1c1.1,0,2.2,0.1,3.2,0.4c1.8,0.6,2.5,2.1,3,3.8c0.4,0.9,0.7,1.9,0.8,2.9
		c0,1.2-0.3,2.4-0.4,3.6c-0.3,2.3-0.8,4.6-1.5,6.8c-0.3,1.2-1.1,2.9,0.4,3.5c1.3,0.4,2.8,0.7,3.8-0.5c1.3-1.6,2.1-4,3-5.9
		c1.1-2.2,2.2-4.4,3.4-6.6c0.1-0.4,0.3-0.7,0.6-1c0.5-0.5,0.5-0.4,0.7,0.1c0.4,0.9,0.2,2.3,0.4,3.2c0.3,1,0.7,2,1.2,2.9
		c0.2,1,0.8,1.9,1.7,2.4c0.8,0.5,1.8,0.8,2.8,0.9c0.6,0,1.2,0,1.8,0c0.8-0.1,1-0.1,1.5,0.4c0.8,0.9,1.9,1.6,3.1,1.9
		c1.2,0.3,2.4,0.4,3.6,0.4c2.5-0.2,4.8-1,6.9-2.3c1-0.6,2.1-0.9,3.1-1.5s2-1.3,3-2.1c2.1-1.6,3.6-3.6,5.6-5.3
		c0.9,1.9,0.5,4.7,0.5,6.7c0,1,0,2,0,3c0,0.8-0.3,2.3,0.2,3c0.9,1.3,4.1,1,4.3-0.6c0.2-2.2,0.6-4.4,1-6.6c0.7-4.6,1.9-9.1,3.8-13.3
		c1.8-3.9,3.9-7.2,8.3-8.3c1-0.3,2.1-0.5,3.1-0.4c1,0.2,1.9,0.8,2.5,1.6c1.4,1.6,2.6,3.4,3.7,5.2c0.5,0.8,0.8,1.7,0.8,2.7
		c-0.1,0.6-1.2,1.5-1.6,2.1c-0.5,0.7-1,1.4-1.5,2.1c-0.6,0.7-1,1.6-1.3,2.5c-1,3-1.5,8.6,2.6,9.5c0.9,0.1,1.8,0.2,2.6,0.1
		c1.1,0.1,2.1,0.1,3.2,0c1.8-0.6,3.2-1.8,4-3.5c0.7-2.1-0.5-4.5-1.1-6.5c-0.4-1.2-0.8-2.3-1.2-3.5c-0.3-0.9-0.6-1.3,0.1-2
		c1.8-1.6,4-2.5,6.4-2.8c1.2,0,2.4,0.1,3.5,0.5c1.1,0.1,2.3,0.1,3.4,0C547.4,671.4,547.1,671,546.8,670.7z M482,677.2
		c0.3,1,0.3,1-1.5,2.8C481,679.1,481.5,678.1,482,677.2z M441.7,687.1c-0.2,1.4-0.6,2.7-1.2,4c-0.1,0.3-0.4,1.1-0.9,1.1
		c-0.7,0-0.6-1.2-0.5-1.6c0.6-2.9,1.4-5.7,2.7-8.4C442.5,682.6,441.9,686.3,441.7,687.1L441.7,687.1z M531.8,685.1
		c-0.5,0.6-1.5,1.6-2.4,1.6c-1.1,0-1.2-1.4-1.3-2.2c-0.2-2.2,1.1-4.2,2.1-6.2c0.7,1.1,1.2,2.3,1.5,3.5
		C532.1,682.8,532.7,684.1,531.8,685.1L531.8,685.1z M421.9,659.6c-0.1-0.3,0.6-1.4,0.7-1.8c0.1-0.5,0.2-1.1,0.3-1.6
		c0.3-1.7,0.4-3.4,0.6-5.1c0.3-1.7,0.5-3.3,0.5-5c-0.2-1.2-1.3-2.1-2.6-2.1c-1.1,0-1.9,1-2.6,1.7c-0.5,0.5-1,1-1.4,1.5
		s-0.6,1.1-0.9,1.8c-0.5,1.1-1.4,2-1.9,3c-0.7,1.2-1.3,2.5-1.8,3.9c-0.4,1.5-0.7,3.1-1.2,4.6c-0.2,0.7-0.4,1.5-0.6,2.2
		s-0.2,1.5-0.4,2.2c-0.3,0.6-0.5,1.2-0.7,1.8c-0.1,0.7-0.2,1.5-0.4,2.2c-0.5,1.6-0.9,3.3-1.2,5c-0.4,2.5-0.3,5.8-2.4,7.6
		c-1.1,0.9-2.3,1.6-3.4,2.6c-1.2,1.1-2.6,2-4,2.8c-1.2,0.8-2.6,1.4-4.1,1.8c-0.6,0.1-1.2,0-1.8,0.1c-0.7,0.1-1.4,0-2-0.3
		c-0.9-0.5-1.4-1-1.2-2c0.3-1.6,1.3-3.2,1.8-4.8c1-2.8,2.2-6,2.4-9c0.1-0.9-0.1-1.8-1-2c-0.7-0.1-1.3-0.1-2,0
		c-0.7,0.2-1.3,1.4-1.5,2c-0.2,0.4-0.4,0.8-0.6,1.2s0,1-0.2,1.4c-0.1,0.2-0.4,0.3-0.5,0.5s0,0.3-0.1,0.5l-0.6,1.2
		c-0.3,0.5-0.5,1-0.6,1.6c-0.1,0.5,0.1,1.1-0.1,1.6c-0.1,0.2-0.3,0.3-0.4,0.6s0.2,0.4,0.2,0.5c-0.1,0.4-0.6,0.8-0.8,1.2
		c-0.5,1.4-0.1,3-1,4.3c-0.3,0.4-0.6,0.7-0.9,1.1c-0.3,0.6-0.6,1.2-0.9,1.8c-0.8,1-1.6,1.9-2.6,2.6c-0.7,0.6-0.9,1-1.7,0.3
		c-0.4-0.5-0.7-1.1-0.8-1.8c-0.2-1.6-0.1-3.3,0.1-4.9c0.3-3.7,0.9-7.3,1.5-10.9c1.3-7.1,2.8-14.2,3.2-21.4c-0.5,0.1-1,0.1-1.5,0
		c-0.4-0.2-0.4-0.5-0.9-0.4c-1.1,0.2-1.5,2-1.6,2.9s-0.2,1.3-0.5,2.1c-0.2,0.7-0.2,1.3,0,2c0.1,0.3,0.2,0.7,0.3,1
		c0,0.1-0.5,0.5-0.6,0.6c-0.3,0.7-0.5,1.4-0.4,2.2c-0.1,1.2-0.5,2.3-0.6,3.5c-0.2,1.5-1,3-0.8,4.6c0.1,0.4,0.2,0.7,0.1,1.1
		c0,0.2-0.3,0.5-0.3,0.7c-0.1,0.5,0.1,1,0,1.5c-0.3,1.4-0.6,2.7-1.1,4c-0.3,1.3-0.5,2.6-0.6,3.9c-0.2,1.7,0.2,3.4-0.1,5.1
		c-0.3,2.2-0.9,5.7,1.6,6.8c0.5,0.2,0.9,0.5,1.4,0.7c0.7,0.1,1.5,0.1,2.2,0c1.4-0.1,2.4-0.1,3.5-1.1c0.9-0.7,1.8-1.6,2.6-2.5
		c0.4-0.5,0.8-1.1,1.2-1.6c0.2-0.2,0.4-0.5,0.6-0.7c0.5,0.1,0.9,0.3,1.3,0.5c3.1,1.2,6.7,0.5,9.8-0.6c1.6-0.5,3.1-1.3,4.5-2.2
		c1.1-0.9,2.3-1.6,3.6-2.2c0.1,0.8,0.1,1.6,0,2.4c-0.2,0.9-0.4,1.8-0.5,2.7c-0.2,1.8-0.6,3.5-0.9,5.2c-0.1,0.8-0.1,1.6,0,2.5
		c0,0.7-0.4,1.2-0.2,1.9c0.2,0.9,0.2,0.7,0,1.6c-0.1,0.8-0.1,1.6,0,2.4c0,1.6-0.5,3.2-0.5,4.9c0,0.8,0.3,1.5,0.2,2.2
		c-0.1,0.8-0.3,1.7-0.6,2.5c-0.2,0.6-0.5,1.2-0.6,1.8c-0.1,0.5-0.2,0.9-0.2,1.4c0.4,0.6,0.9,1,1.6,1.1c0.6,0,0.7-0.6,1.1-0.8
		c0.7-0.3,1.2,0.7,1.8-0.2c0.3-0.8,0.4-1.7,0.4-2.6c0-0.7-0.2-1.3-0.2-2c0.2-0.8,0.4-1.7,0.5-2.5c0-3.4,0.5-6.8,0.8-10.2
		c0.3-3.5,0.9-7.1,1.5-10.6c0.6-3.3,0.7-7.1,2.1-10.2c0.7-1.7,2.2-3.1,3.2-4.6s2-3,2.9-4.6c1-1.7,1.8-3.5,2.4-5.3
		C421.4,663.2,422.3,661.4,421.9,659.6L421.9,659.6z M417.5,668.9l-0.4-0.2c0.1-0.3,0.2-0.1,0.5,0L417.5,668.9z M419,656.6
		c-0.2,0.7-0.4,1.3-0.6,2c-0.2,0.6-0.1,1.3-0.2,1.9c-0.3,1.3-0.8,2.7-1.3,3.9c-0.4,1-0.4,2.5-1.1,3.4c-0.4,0.4-0.8,0.6-1,1.2
		c-0.1,0.4,0,1.7-0.4,1.8c-0.7,0.1,0.1-3.1,0.2-3.5c0.3-1.6,0.7-3.1,1.1-4.6c0.7-3.1,1.7-6.2,3.1-9.1
		C419,654.5,419.1,655.6,419,656.6L419,656.6z M344.7,671.1c-1-0.7-2.5-0.5-3.6-0.2c-1.3,0.1-2.5,0.5-3.6,1
		c-1.1,0.6-2.1,1.2-3.1,1.9c-0.9,1-1.8,2.1-2.6,3.2c-0.3-0.9-0.5-2-1.4-2.4c-1.1-0.5-2.2-0.6-2.9,0.4s-1.1,2-1.8,3s-2,1.9-1.4,3.1
		c-0.9,0.2-0.8,0.4-1.1,1.2c-0.3,0.7-0.8,1.3-1.4,1.7c-1.1,1.3-2.2,2.5-3.5,3.5c-1,0.7-2.4,2-3.2,0.6s-0.5-3.4-0.4-5
		c0.1-1.8,0.3-3.6,0.6-5.3c0.2-1.5,1-3.6-0.1-4.8c-3-3.4-5.7,3.2-7.4,4.7c-0.8-3-1.2-6-3.9-7.9c-1.3-0.9-3-0.7-4.5-1
		c-1.8-0.4-3.4-1-5,0.3c-0.6-2.3-6.9,1.3-7.8,2.3c-0.4,0.5-1.5,1.3-1.7,1.8c-0.3,0.8,0.4,1.1,0.7,1.7c0.9,1.8-1.3,2.1-2.3,2.9
		c-1.2,1-2.3,2.1-3.2,3.3c-0.4,0.5-0.9,0.9-1.5,1.3c-0.7,0.7-1.4,1.5-2.1,2.3c-0.6,0.6-1.3,1.2-1.9,1.9s-1,1.5-1.6,2.2
		c-1,1.2-2.1,2.3-3.3,3.2c0.1-2.3,0.3-4.6,0.7-6.9c0.2-1.1,0.1-2.3,0.4-3.4c0.4-1.3,0.7-2.6,0.9-3.9c0.4-2.5,0.6-5.1,0.9-7.6
		c0.1-0.8,0.3-2.2-0.5-2.8c-0.7-0.3-1.5-0.4-2.2-0.2c-1.7,0.3-1.4,2.1-1.7,3.5c-0.5,2.1-1.3,4.1-2.5,6c-0.5,0.7-0.8,1.4-1,2.3
		c-0.1,0.6,0,0.8-0.3,1.3c-0.3,0.4-0.5,0.8-0.7,1.3c-0.1,0.3,0.1,0.2,0,0.5s-0.4,0.4-0.6,0.6c-0.3,0.3-0.6,0.7-0.9,1.1
		c-0.2,0.3-0.4,0.7-0.5,1.1c-0.1,0.3,0,0.6-0.1,0.8v0.5l-0.3,0.2c-0.5,1-1.1,2.1-1.5,3.2c-0.4,1.1-0.8,2.1-1.3,3.2
		c-0.2,0.3-0.5,0.6-0.8,0.9c-0.2,0.2-0.5,0.5-0.7,0.6c-0.5,0.1,0,0.1-0.4-0.1c-0.8-0.5-0.5-2.3-0.5-3.1c0.1-2.5,0.3-4.9,0.7-7.3
		c0.3-2.4,0.6-4.8,1-7.1c0.1-0.8,0.7-2.3,0-3c-0.5-0.6-1.6-0.4-2.2-0.2c-1.8,0.7-1.5,3-1.7,4.6c-0.1,0.9-0.2,1.8-0.2,2.8
		c-0.1,1-0.3,2-0.5,3c-0.3,1.2-0.5,2.4-0.6,3.6c0,0.5,0.2,0.9,0.2,1.4c-0.1,0.5-0.3,0.9-0.5,1.4c-0.1,0.6-0.1,1.2,0,1.9
		c0,0.6-0.1,1.1-0.2,1.7c-0.1,1.3,0.1,2.5,0.6,3.7c0.2,0.8,0.5,1.3,1.4,1.3c1.2-0.1,2.4-0.3,3.5-0.8c2.2-0.8,3.6-3.5,4.6-5.5
		c0.6-1.2,1.2-2.5,1.8-3.8c0.4-0.8,0.9-2.9,2-2.9c-0.1,1.5-0.3,3-0.6,4.5c-0.3,1.4,0.2,2.8-0.1,4.2c-0.4,1.4-0.6,2.8-0.8,4.2
		c0,0.5,0.2,0.5,0.2,0.9s-0.2,0.7-0.5,1c-0.4,0.6-0.9,1.2-1.3,1.8c-0.1,0.2-0.3,0.3-0.4,0.5s0,0.6-0.1,0.7c-0.2,0.4-0.7,0.7-1,1.1
		c-0.3,0.5-0.5,1-0.6,1.6c-0.2,0.4-0.5,0.9-0.8,1.2c-0.2,0.5-0.4,1.1-0.5,1.6c-0.4,0.6-0.7,1.3-1,2c-0.1,0.6-0.1,1.2-0.3,1.8
		c-0.3,0.6-0.2,1.3,0.3,1.8c-0.9,0.5-1.1,1.6-2.2,1.8c0.5,0.8,0,1.1-0.3,1.9c-0.2,0.6-0.3,1.3-0.4,1.9c-0.5,1.9-1.1,3.8-1.6,5.7
		s-0.9,7,2.2,6.8c0.8,0,1.5-0.2,2.3-0.2c0.6,0,1.2-0.2,1.7-0.6c1.2-1,1.9-2.9,2.6-4.3c0.3-0.5,0.5-1,0.6-1.6c0-0.4-0.2-0.2-0.1-0.7
		c0.1-0.2,0.4-0.5,0.6-0.7c0.9-1.4,0.8-3.4,1-5s0.9-3.2,1.1-4.8c0.1-0.7,0.1-1.4,0.1-2.1l-0.1-0.3c0.1-0.2,0.2-0.4,0.3-0.6
		c0.1-0.4,0.2-0.8,0.1-1.2c0.2-0.6,0.3-1.2,0.4-1.9c-0.1-0.8-0.2-0.7-0.1-1.5c0.4-1.8,0.7-3.7,1.2-5.5c1-3.3,3.7-5.7,5.8-8.3
		c2.4-2.9,4.5-6,7.1-8.7c0.7-0.8,1.5-1.5,2.2-2.2c0.4-0.5,1.4-1.8,2-1.8c1.5,0.2-0.1,3.7-0.4,4.5c-0.1,0.9-0.2,1.8-0.2,2.6
		c-0.1,0.7-0.6,1.3-0.7,2c-0.1,0.8-0.1,1.6,0,2.4c0,0.9-0.1,1.3,0.5,2l0.3-0.5c0.4,1,1.4,0.9,2.3,0.9c1.2,0,2.3-0.5,3.1-1.4
		c0.4-0.3,0.7-0.7,1-1.1c0.1-0.2,0-0.5,0.1-0.7s0.4-0.4,0.5-0.6c0.6-1.2,1-2.6,1.2-4c0.7-2.7,0.7-5.5,0-8.2
		c-0.4-1.2-1.2-2.3-1.2-3.5c0-0.6,0.2-0.7-0.2-1.3c-0.5-0.5-1-1-1.5-1.5c3.5-1.8,7.3-3,11-0.6c0.6,0.5,1,1.1,1.3,1.7
		c0.4,0.7,0.6,1.4,0.8,2.1c0.1,0.4,0,0.7,0,1s0.3,0.8,0.4,1.2c0.2,0.9,0.4,1.6-0.2,2.3c-1.2,1.5-0.5,3.7-1.3,5.3
		c-0.3,0.6-0.6,1.3-0.8,1.9c-0.3,0.8-0.6,1.6-0.8,2.4c0,0.4,0.3,0.9,0.3,1.3s-0.3,0.4-0.5,0.8c-0.3,0.8-0.4,1.7-0.2,2.6
		c0.3,0.7,0.9,0.5,1.5,0.4s1.1-0.6,1.8-0.7c1-0.1,1.2-0.3,1.6-1.2s0.9-2.2,1.4-3.2c0.9-2.1,1.7-4.7,3.1-6.5c1,0.9,0.6,1.7,0.4,2.8
		c-0.1,1.2,0.1,2.4,0.6,3.5c1,2,4.1,2.4,6,1.8c2.2-0.7,4.3-1.9,5.9-3.5c0.4-0.4,0.9-0.9,1.2-1.3c0.4-0.5,0.5-1.1,0.9-1.5
		c0.2-0.3,0.6-0.4,0.9-0.7s0.8-1,1.1-1.5c0.7,1.2,0.4,1.7,0.1,2.9c-0.2,1.2-0.3,2.5-0.3,3.7c-0.1,1.2-0.2,2.3-0.3,3.5
		c0,0.7-0.4,2.2,0.1,2.7s2,0.3,2.6,0.3c0.8,0.1,1.5-0.4,1.8-1.1c1-1.9,1.1-4.2,1.5-6.3c0.4-2.2,0.9-4.4,1.7-6.6
		c0.6-2.2,1.6-4.3,2.8-6.2c1.1-1.4,2.6-2.5,4.2-3.2c0.9-0.3,1.9-0.4,2.9-0.8s1.6-0.3,2.1-1C345.7,671.1,345,671.3,344.7,671.1
		L344.7,671.1z M262.1,717.5c-1,1.9-1.1,4.4-1.4,6.5c-0.2,1.1-0.5,2.1-0.9,3.2c-0.3,1-0.9,1.8-1.7,2.5c-0.1-0.9-0.1-1.9-0.1-2.8
		c0.2-1,0.4-1.9,0.8-2.8c0.2-0.4,0.3-0.8,0.3-1.3c0-0.2,0-0.4-0.1-0.5s0-0.3,0.3-0.4c0.3-0.7,0.5-1.4,0.6-2.1
		c0.2-0.8,0.6-1.6,0.8-2.5c0.1-0.9,0.3-1.7,0.8-2.5c0.2-0.4,0.5-0.8,0.7-1.1c0.4,0,0.2,0.3,0.3,0.6
		C262.7,715.4,262.6,716.5,262.1,717.5z"/>
</g>
</svg>
