<svg xmlns="http://www.w3.org/2000/svg" viewBox="0 0 800 860"><path d="M705.36,578.12a25.4,25.4,0,0,0-6.94-10.82c-13.52-12.5-27-25-40.38-37.66-10.92-10.38-22.12-20.66-31.74-32.3A98,98,0,0,1,618,483.6a93.77,93.77,0,0,1-3.86-14.72,179.93,179.93,0,0,1,.84-37.26,352.24,352.24,0,0,1,13.58-55c5.6-17.2,11.76-34.36,18.56-51.12.18-.4.36-.78.56-1.18a50.85,50.85,0,0,0,7.54-1.32,44.1,44.1,0,0,0,5.86-2.32A33.64,33.64,0,0,0,666.7,318a51.08,51.08,0,0,0,7.92-6.32c5-4.92,7.2-9.72,9.54-16.18a31.76,31.76,0,0,0,1.32-7.06,45,45,0,0,0-.64-15.22c-.84-4.64-2.92-9-5.08-13.2-2-3.8-5-7.32-7.72-10.5a44.58,44.58,0,0,0-6.8-5.9,70.23,70.23,0,0,0-30-13.36c-10.82-2-21.9-2.94-32.88-3.88-18.2-1.58-36.56-2.58-54.8-1a208.28,208.28,0,0,0-34.24,5.42A153.56,153.56,0,0,0,481,243.44,127.51,127.51,0,0,0,464.3,254c.08-1.42.16-2.84.28-4.26a25.28,25.28,0,0,0-2.9-12.94A25.4,25.4,0,0,0,454.74,226c-2.26-1.76-4.54-3.5-6.8-5.26a24.94,24.94,0,0,0-12.5-4,17,17,0,0,0-8.94,0,25.13,25.13,0,0,0-12.5,4,40.64,40.64,0,0,0-11.22,10.52,40.34,40.34,0,0,0-16.14-7.82A51.54,51.54,0,0,0,362,224c-11.92,3.16-21.68,9.68-29.8,18,.1-1.58.22-3.14.32-4.72.82-11.14-.72-21.76-5.74-31.84-3.4-6.86-9.18-12.14-15.54-16.2A36.39,36.39,0,0,0,300.68,185a68.65,68.65,0,0,0-10.36-1.3A43.9,43.9,0,0,0,280,185.06c-13.54,3.56-24.18,14.08-30.76,26.08-7.58,13.8-14.88,27.74-22.34,41.6l-1.38,2.56c-.58-4.42-1.26-8.82-2.18-13.18-1.38-6.62-3.8-12.54-6.56-18.76a28.55,28.55,0,0,0-2.44-4.56c-2.4-3.58-5-7.4-8.24-10.32a47.72,47.72,0,0,0-10.26-7.6,46.57,46.57,0,0,0-16.54-5.18,48.45,48.45,0,0,0-17.18.7c-4.34.82-8.54,2.88-12.44,4.76a43.89,43.89,0,0,0-7.44,5.12,38.59,38.59,0,0,0-7,6.32c-2.74,3.4-5.74,6.82-7.7,10.78a87.15,87.15,0,0,0-5.36,13c-2,6.46-2.56,13.44-3.34,20.1-.52,4.56-.92,9.12-1.34,13.7q-1.35,14.43-2.52,28.86-1.59,19.65-2.88,39.34c-1.64,6.7-3,13.48-4.06,20.3-1.72,11.38-3.2,22.82-3.18,34.34a172.76,172.76,0,0,0,4.48,38.18,27.29,27.29,0,0,0,2.62,6.72c-.06,4.32,0,8.64.34,13a228.44,228.44,0,0,0,6.84,43c-.58,1.48-1.16,3-1.76,4.44-6.52,15-13.8,29.68-19.54,45a117.17,117.17,0,0,0-5.38,18.68c-1.64,8.54-3,17.52-2.64,26.26A108.74,108.74,0,0,0,92,605.56c1.16,5.52,3.52,10.7,5.8,15.82A58.47,58.47,0,0,0,113.24,642c8.94,7.48,17.46,12.5,28.68,16.06,8,2.54,16.62,3.42,24.94,4.08,12.6,1,25.28.16,37.86,1.24a66.9,66.9,0,0,1,7.94,2c1.74.92,3.42,1.92,5.08,3a67.37,67.37,0,0,1,5.06,5.08,63.9,63.9,0,0,1,3.86,6.6,61.13,61.13,0,0,1,1.76,6.22c.14,4.94-.46,9.76-.58,14.78a53.39,53.39,0,0,0,2,16.6,47.74,47.74,0,0,0,4.5,10.62,39.79,39.79,0,0,0,10.4,11.36c4.42,3.42,8,5.62,13.9,7.08A37.9,37.9,0,0,0,269,748a51.2,51.2,0,0,0,10.6-1.42c6.42-1.8,11.86-5.18,17.5-8.5A184.36,184.36,0,0,1,314.78,729a188.32,188.32,0,0,1,39.3-10.7,153.84,153.84,0,0,1,28.46-.86,83.33,83.33,0,0,0,7,5.62,17.15,17.15,0,0,0,1.62,1,52.1,52.1,0,0,0,8.72,3.7,38,38,0,0,0,6,1,35.75,35.75,0,0,0,6,.62A39.07,39.07,0,0,0,427,725.92a41.24,41.24,0,0,0,6.86-3.22,109.31,109.31,0,0,0,8.76-6.72c.74-.48,1.48-.92,2.24-1.34,1.36-.42,2.74-.76,4.14-1.08a124.6,124.6,0,0,1,23,1.06c8.88,1.28,17.78,2.72,26.76,3a117.54,117.54,0,0,0,29.92-3c6-1.38,11.66-3.88,17.22-6.4s10.1-6.2,14.78-10,8.26-8.68,11.58-13.5a33,33,0,0,0,2.4-4.16,76.55,76.55,0,0,0,5.58-14.24c3-12,2.78-24.46,4-36.7a169.9,169.9,0,0,1,7.24-28.44c3.14.84,6.24,1.8,9.36,2.74l21.64,6.52q21.63,6.51,43.28,13l8.94,1.2a25.28,25.28,0,0,0,12.94-2.9c6.46-2.72,12.7-7.38,16.06-13.74a39.9,39.9,0,0,0,4.58-17A25.75,25.75,0,0,0,705.36,578.12Z" fill="#fff"/><path d="M154.52,436.8c.4-.2.37-.34-.1-.44-.27.22-.24.37.1.44m41-58.72.4-.48a.5.5,0,0,0-.32-.3c-.45.21-.48.47-.08.78m-35-7c-.07-.48-.25-.49-.54,0,.05.41.23.42.54,0M283.76,251.46c-.07-.34-.22-.39-.46-.16.11.47.26.53.46.16m2.92,15.4c-.49.34-.57.68-.24,1,.54-.22.62-.55.24-1m17.34,78-.5-.42c.28-.36-.81,1.14,0,.88l.54-.46m11.12,42.66c.6.2,1-.75.44-1l-.44,1m49.44-114c.56-.3.62-.68.16-1.14-.51.24-.57.62-.16,1.14M282,258.08c1.17.34.8-1,.28-1.54-.08.52-.17,1-.28,1.54m82,17.24c-.71-.41-1.33.78-.6,1.2l.6-1.2m-2.18,13.14c.92-.52.92-.52.48-1.4-.18.58-.32,1-.48,1.4m-81.9-17.54c-.86.9-.86.9-.64,2.22l.64-2.22m335.34,96.66c.74-.92.74-.92.54-2-.42.66-.86,1.16-.54,2m-329.38-95.8c.84,0,.46-1.73.46-2.36-.71.66-1.12,1.5-.46,2.36m26.3,133.82c2,.49,1-2.21.54-2.84-.19.94-.36,1.89-.54,2.84M284.12,254.76c1.26-1,1.35-1.49.9-3a2.34,2.34,0,0,0-.9,3m-2.06,9.64c-1.09-.24-1.42,3.22-1.66,4.16,1.61-.39,2.35-2.42,1.66-4.16M522.78,271c1.66.95,3.62-4.13,3-5.38-.81,1.9-2.27,3.45-3,5.38M290.7,239.42c.45-1.32,2.23-4.61.68-5.68a5.8,5.8,0,0,0-.68,5.68m-3.44,8.4c.8.23,2.8-4.43,3.24-5.26-1.78,0-2.18,1.28-2.82,2.62,0-1.06,0-2.14,0-3.32-1.18,2-.38,4-.44,6m1.8-.56c-2.26,4.63-4.79,9.21-5.88,14.3,1.69.2,1.36.49,1.54,2l2.31-2.19c1.26-.51,1.51-1.27.76-2.28a15.72,15.72,0,0,0-.47-3.27,1.27,1.27,0,0,1-.24-1.92c.43-.85.86-1.7,1.3-2.54.87-1.64,1.56-2.28.68-4.12m75.42,51.16c-.85.28-1.45,4.31-1.54,5.16a46.43,46.43,0,0,1-2,9.48c-1.4,4.15-2,8.51-3.58,12.6-.41,1-2.22,3.31-1.08,4.55,1,1.05,6.82.34,8.2.48a71.73,71.73,0,0,0,8.55,0c1.76,0,4.05.63,5-1,1-1.84-.06-6.47-.1-8.62-.06-3.1-.07-6.2-.08-9.31,0-6.17-.38-12.31-.4-18.47-.06-12.89-.13-26.07-1.09-38.92-1,0-.45,1.45-1,2.06-1.11-.64-1.64-.49-1.58.42a3.41,3.41,0,0,1-.46,1.52,47.53,47.53,0,0,1-1.54,6l-.86-2c-1.7.47-1.66,1.39-2.24,2.7-.42,1-1,2.15-1.42,3.12q-.44.47-.84,1c-.53.41-.35.75.55,1l1.47,1.23c-.25.76-.52,1.52-.83,2.26a7.51,7.51,0,0,1-1.38,1.84c-.28.29-1.44.27-1.55.58-.45,1.28,1.06.49,1.22,1.42s-1.53,2.78-.66,3.48l1.62-1.1a5.47,5.47,0,0,1-.24,2.72,6.5,6.5,0,0,1,1.64,1.54c.62,1.28.23,2.24-.52,3.4l-.9-1.1q-.94,6.74-1.92,13.48a8.64,8.64,0,0,0-.48-1.42M362.7,282c-1.1.22-1.24,1.08-.82,2,.35-.92,1.43-2.37.94-3.16,0,.38-.08.76-.12,1.16M314.2,412.24,313,413.72c0-2.14,1.43-7.22-1.54-7.18.34-2.26,0-4.58,2.42-5.78-2.19-1.26-.7-5.79-.18-8.06.15-.64.31-1.29.49-1.93.64-.88.5-1.51-.42-1.9-.22-1.11-1-.92-.39-2.33.91-2.13,1.13-.11,2.3-1.4a7.55,7.55,0,0,0,1.4-2.72c.52-1.66,2.21-6,1.63-7.65s-1.82-1.06-2.07-2.36.73-3.6,1.05-4.91c.54-2.24,1.75-3.86,2.33-6.14,1.46-5.79,3.67-11.56,4.82-17.6-3-.7-6.86.67-9.95.94a40.27,40.27,0,0,1-10.57-.66c-.36,3.21-.5,6-1.8,8.88a17.72,17.72,0,0,0-1.36,7.24c-.05,6.34-1.6,12.78-3.18,18.88-1.4,5.39-.38,11.25-1.5,16.67-.33,1.6-1.08,2.65-1.34,4.13a19.18,19.18,0,0,0-.41,2.92c-.1,2.89-.08,5.63,0,8.52.16,5-.35,10.33-.54,15.55-.11,3.26,0,6.55.13,9.81.08,1.82.75,3.72-.64,4.82-.62.5-1.71.17-2.42.55-1.15.63-1.33,1.36-2.65,1.87a18.58,18.58,0,0,1-4,.59,72.82,72.82,0,0,1-7.54.45,9.72,9.72,0,0,1-3-.38,11.34,11.34,0,0,1-2.48-.89c-1.24-.86-.28-6.65-2.74-4.75-.43-5.78-1.88-11.54-1.3-17.56v0c2.08-2.69,3.28-4.31,2.72-7.84-.46-2.9-1.64-5.7-1.76-8.67-.11-2.65,1-4.75,1.63-7.22.79-3.19-1.2-5.38-.9-8.54.25-2.59,1.52-5.16,1.75-7.71.11-1.27-.58-2.5-.57-3.75a41.17,41.17,0,0,1,.82-4.48c.38-2.79,1.37-5.32,1.47-8.13a93,93,0,0,1,.89-10.39c1.74-12.06,3.7-24.11,5.39-36.17.93-6.61,2.11-13.44,2.74-20.08.17-1.81,2.57-15.08,1.74-15.5-2.29,3.95-1.82,9-3.33,13.29-.72,2-2.07,3.74-2.76,5.72s-.87,4.29-1.36,6.33a102,102,0,0,1-4.6,13.84c-1.75,4.46-1.82,9.33-3.44,13.89-.81,2.28-1.71,4.51-2.67,6.69-.82,1.88-.34,3.57-.91,5.4-.5,1.62-2.08,2.31-2.51,3.91a21.36,21.36,0,0,1-1.09,4.11c-.71,1.56-1.64,3.09-2.27,4.59s-.34,3.32-1.2,4.73c-1,1.7-2.12,1.61-2.47,3.79-.25,1.5.75,4.8-2,3.87-.37,1.95-.79,3.81-1.12,5.72-.37,2.22-2.29,3.16-3.12,5.11-1.44,3.39-2.81,6.88-4.26,10.35-1,2.43-1.36,4.27-3,6.4-1.22,1.56-1.95,3.28-3.12,4.89A20.75,20.75,0,0,1,229,412.4a10.38,10.38,0,0,1-5.79.81c-1.18-.22-2.21-1-3.47-1-1.9,0-1.38.43-3.11,1.16-2.34,1-3.49-.15-5.54-.56-1.15-.23-2.12.41-3.23.18s-2.83-1.75-3.58-2.52c-2.6-2.67-1.92-6.55-4.12-9.39-2.33-3-2.46-7-3.4-10.81l2.16,2.42a14.17,14.17,0,0,0-.42-4.32c-4,2.91-5.39-15.24-5.92-17.42-.81-3.34-1.93-6.27-2.42-9.73-.56-4-1.08-7.93-1.62-11.89-1-7.58-2.09-15.1-2.93-22.69a73.23,73.23,0,0,1-.73-9.69,34.62,34.62,0,0,0-.23-6c-.26-1.68-.94-2.89-1.27-4.51-.73-3.55-.17-7.7-.57-11.35-.38-3.46-.84-7-1.07-10.48-.46-7-.45-14.08-.62-21.08-.09-3.7-.38-7.4-.46-11.1,0-1.87.72-8.58-1.12-10-1.12-.84-1.13.81-1.44,1.5a6,6,0,0,1-.68,1.89,4.57,4.57,0,0,1-1.36,1.23,25.63,25.63,0,0,0-.35,4.05c-.92.39-1.06.91-.42,1.55l1,1.88c-4.31-1.44.82,3,.62,5.09-.18,1.84-1.72,1.66-2.72,2.79-1.23,1.41-1,2.33.68.68a3.77,3.77,0,0,1,.5,3.16,6,6,0,0,1-1.44,2.18l.62,1.18c.24,1.6.92,1.75.69,3.46-.14,1.14-.75,2.65-1,3.76-1.26,5.4-3.41,10.2-3,15.79.18,2.45,1.33,4.72.17,7.08-.52,1.07-1.63,1.71-1.94,2.93-.36,1.42.31,1.46.56,2.64a10.72,10.72,0,0,1-.46,6.39c-.62,1.26-1.42-.2-1.77,1.72-.18,1,.6,1.63,1.27,2.27-2.13,1.2-1.63,4.4-2.06,6.53-.65,3.18-.21,6.16-.6,9.26-.25,2-1.16,4.38-1.27,6.36-.05.88.62,1.61.64,2.59a16,16,0,0,1-.71,3.36c-.19-.56-.27-1.58-.92-1.58-.47,4.23-.25,8.46-.6,12.71-.18,2.12-.63,4.28-.68,6.41,0,1.14.65,2.84.19,3.91s-1,.66-1.67,1.61,0,4.91,0,6.17c-.06,2.12.85,5-1.61,5.93l1.78.58a4.14,4.14,0,0,0-1.15,4.1c.48,1.49,2.06,2.24,1.41,4.46-2.25-1.82-1.49.28-1.44,2.23,0,1.47.18,2.9.35,4.36a22,22,0,0,1,0,4.8c-.1,1.48.42,2.25.59,3.53a14.79,14.79,0,0,1,0,5.89,21.89,21.89,0,0,0-1,2.25c0,1,1,1.68,1,2.8s-.39,2.24-.36,3.52a36.17,36.17,0,0,0,.66,4.38,40.35,40.35,0,0,1,.26,8.49c-.16,3.09-.9,3.16-3.36,4.61-2,1.21-2.86,2.31-5.3,3.18-.19-.73-.38-1.45-.56-2.18l-.72,1.54c-1.55-2.44-5.6-.37-8.27-.59-3.21-.26-5.59,1.21-6.28-2.89a14.24,14.24,0,0,0-.24-2.46c-.32-.88-1-1.18-1.76-2.11a6.2,6.2,0,0,1-1.16-5.13c.47-1.69,1.87-2.57,2-4.46.07-1.15-.22-4.05-2-2.72-1-8.48-2-16.83-2.71-25.35-.66-8.22-.77-16.4-1-24.67s.13-16.36-.06-24.55a218.17,218.17,0,0,1,.33-24c.34-4-.3-8-.23-12a114.14,114.14,0,0,0,.06-12.27c-.33-3.58.47-7.1.48-10.74s-.45-7.5-.17-11.22c.63-8.12,1.94-16.4,1.72-24.55-.1-3.89-.27-7.75-.27-11.65,0-3.29-1-7.59.78-10.36,1.92-3,5.2-2.2,8.33-2.5s6.07-.09,9-.46a15.37,15.37,0,0,1,8.73,1.62c1.5.79,3,2,3.33,3.64.27,1.28-1.35,5.47.16,6.12,3.15-4.9,5.28-11.78,11.78-13.37,3.83-.94,8.42-.23,12.33-.11a38.51,38.51,0,0,1,11.28,1.61c1.28.41,2.65.21,3.72,1.14s1.26,2.3,2.09,3.28c1.08,1.28,1.5,1.26,2,3,.61,2,.88,4.18,1.31,6.24.72,3.39,2.39,7.58,2,11.08-.15,1.43-.7,2.21-.29,3.68.36,1.25,1.75,1.63,0,2.06,2,6.21,1.82,11.92,2.13,18.38s1.28,13,.91,19.44c-.18,3,.6,5.9.64,9,0,3.57-.19,7.34.14,10.87a8.39,8.39,0,0,1-.08,3c-.26,1.62.08,2,.35,3.48a49.36,49.36,0,0,1,1.28,7.69c.08,3.44-.17,6.78,0,10.22a43.36,43.36,0,0,0,.35,4.43,2.71,2.71,0,0,0,.83,1.21c.61.42.6,1,0,1.69a61.84,61.84,0,0,1,1,9.52c0,3.6-.94,6.67,0,10.3.36,1.4,1.26,2.31,1.65,3.55q-.4.66-.84,1.32a4.43,4.43,0,0,1,1.27,1.89c1.1,2.59.4,4.8.21,7.36a7.23,7.23,0,0,0,.57,2.8c.35,1.09,1.81,2.69,2,3.51.24,1.1-2,6.31.8,6.7,2.22-7.76,3.87-15.39,7.76-22.69,1-1.86,1.83-1.74,2.71-3.75a73.18,73.18,0,0,0,2.66-7.12c.65-2.07.08-3.13.12-5.23a22.32,22.32,0,0,1,1.53-6.09l1.3,1.24c.59-1,.34-1.19.49-2.16l-.32-.53c-.55-.5-.41-.89.43-1.18a26.27,26.27,0,0,1,1.32-4.6c.51-1.36,1.34-2.56,1.52-4a7.54,7.54,0,0,1,.89-3.56c.57-1.3.06-2.17.31-3.45.42-2.14.28-.32,1-1.75s.2.85.83-1.84c.81-3.41,2.13-6.84,3.31-10.29,2.42-7.08,4.55-14.33,6.78-21.46,2-6.33,5-12.23,6.85-18.58.84-2.94,1.89-5.79,2.78-8.74s2.54-5.43,3.69-8.3c2.31-5.82,5.73-11.14,8.07-16.86,2.48-6,5.73-11.54,9-17.21a64.81,64.81,0,0,1,5.22-8c1.8-2.3,3.84-5.87,6.92-6.39,1.64-.27,2.58.56,4,.76a23,23,0,0,1,4.05.48c2.5.74,5.1,1.06,5.77,3.83,1.05,4.42-1.61,8.27-1.76,12.47-.05,1.34.79,2,.84,3.31.08,2.36-1.06,4.17-.6,6.79.39-1.24.78-2.48,1.16-3.72,1.52,2.36-.2,6.83-.7,9.34a25.57,25.57,0,0,1-.91,4.56c.23,1.43-.28,1.93-1.54,1.47-.93.31-1.36,0-1.27-.95,1.86-.17,2.09-1.55,1.64-3.12-.94.16-.58,1.19-.94,1.76-1.41-1.25-1.39.09-1.9,1.36a6.5,6.5,0,0,0-.72,2.8c.08.75.67,1.38.88,2,.55,1.57.27,2,.46,3.5.09.77-.94,2.16.69,1.77,1.11-.27.49-.82.61-1.63.28-1.9.59-4.73-1.78-4,0-.63.31-2.52.73-2.86,1.1-.93,1.83.37,2.17,1.94a25.31,25.31,0,0,1,.16,4.9c-.05,1.07-.63,2.87-.78,4.34,1.3-1.15.54-3.59,1.48-4.26,0,1.84.8,3.55.78,5.42,0,2.47-.71,4.93-.13,7.4.54,2.3,1.94,4.13,2.09,6.56s-.48,5.19-.74,7.7c-.44,4.27-1,8.53-1.49,12.8-.19,1.8-.76,3.75-.81,5.5,0,1.41.36,2.37.09,3.89s-.74,2.74-.89,4.18c-.24,2.37.47,4.5.43,6.8s-1.21,4.58-1.35,6.95.29,4.28-.38,6.48c-.24.78-.66,2.11-.85,2.69a1.26,1.26,0,0,1,.1,1.18c-.43.44-.85.89-1.26,1.34a22.59,22.59,0,0,0,1.15,4.19c1.23.73,5.39-1.47,6.45-1.8,4.77-1.46,9.52-2,14.37-3.06a4.62,4.62,0,0,0,2.62-.95c1-1,1.45-4.08,2-5.35,2-5,3.67-10.22,5.41-15.38,3.23-9.53,7.13-18.78,10.47-28.24,1.74-4.89,4.15-9.31,6.16-14.07,1.6-3.79,3.39-7.84,5.38-11.47a78.64,78.64,0,0,1,8.05-11.2c2.6-3.23,5.27-7.65,9.67-8.51,3.75-.74,6.76,1.7,10.49,1.9s7.08-.18,9.28,3.47c2.37,3.93,2.14,8.12,3.07,12.52.45,2.1,1.45,3.1,2.12,5,.89,2.53.69,5.83,1.14,8.47,1.6,9.39.68,18.95,2.08,28.34.34,2.27-.05,4.36.16,6.6.16,1.79.88,3.11,1.27,4.85.52,2.34,0,4.7-.2,7s.94,4.78.63,6.94c0,.15-.84.81-.94,1.16a20.67,20.67,0,0,0-.17,2.81c-.14,1.9-.48,4.83,1.4,6.05,1.13.73,4.2.09,5.53.25,2.42.3,4.84.66,7.27,1,1.37.18,4.72,1.61,5.67.81s.47-5.47.49-6.65c.13-5.67.44-11.32.55-17,.23-11.18,1.4-22.3,1.48-33.48,0-5.47.41-10.92.43-16.38s.65-12-.66-17.41c-.55-2.26-2-3.42-.5-5.54a5.82,5.82,0,0,1,1.56-1.1,3.5,3.5,0,0,1,1.52-.89,2.19,2.19,0,0,1,1.69.82c.05,0,2.52-.26,1.52-.39,1.29.16,2.45.51,3.75.71,2.39.36,4.71.3,7.12.87,5.53,1.31,5.63,5.54,7,10.53a60.5,60.5,0,0,1,2.54,15.09c.18,11.14-.44,22.42.14,33.48.31,5.9-1.27,11.85-.9,17.73.33,5.21-.74,10.25-.74,15.42,1.73.17,5.76-3.75,7.06-4.84,3-2.5,5.5-5.58,8.22-8.35,5.15-5.28,10.2-10.61,15.44-15.78,4.63-4.56,8.55-10.26,12.61-15.33,2.46-3.07,5.4-5.93,7.47-9.3,1.6-2.59,2.88-5.47,4.36-8.14-4.06.18-5.11,4.08-8.38,5.71-1.15.58-3.81,1.19-5.06.8-.88-.28-1.1-1.68-2.38-1.55,1.46-4.55,5.6-9.32,8.94-12.72,3.17-3.23,7.81-7.48,12.51-7.92,2-.19,4.87.71,6.87,1.23a18.35,18.35,0,0,0,3.46.91c1,.08,2.13-.17,3,.35s3.25,3.17,3.43,4.11c.48,2.56-1.73,6.75-2.85,9-1.82,3.62-2,6.63-4.49,10.1-3.37,4.66-6.57,9.49-10.1,14.12a38.11,38.11,0,0,0-2.68,3.53c-.83,1.4-.74,2.68-1.28,4.15-.93,2.49-3.55,4.25-5.31,6.17-4.09,4.46-8.26,8.51-12.28,13.07-4.43,5-9.59,9.42-14.58,13.88-5.34,4.77-11.55,9.36-18.43,11.52.94,2.52,3.44,3,5.47,4.31,2.56,1.59,5.19,3.14,7.91,4.58s5.31,2.9,7.94,4.39c3,1.68,6.16,2.35,9.11,4a183.34,183.34,0,0,0,39.5,15.54c6.59,1.77,13.47,3.49,20.36,3.05,1.46-.09,6.59-.39,7.3-1.83.39-.79-.27-2.77-.38-3.6-.26-2.11-.49-4.23-.75-6.35-1.79-14.5-1.9-29.25-1.86-43.84,0-2.9.92-7.25,0-10-.54-1.69-1.49-1.72-3.28-1.88a34.22,34.22,0,0,0-5.35.3,35.87,35.87,0,0,1-5.57.12c-1.07-.13-2.62-.76-3.8-1-1.6-.35-2.46-.12-2.34-2.31.1-1.67,1.65-3,3.2-3.78,1-.5,2.12-.23,3.14-.87s1.28-1.67,2.6-2.12c3.29-1.14,10.18-.33,11.42-4.36.85-2.76.1-7,.07-9.85,0-3.7-.15-7.39-.31-11.09-.3-6.73,0-15-2.3-21.42-1.64-4.58-10.15-.53-13-4.28-1.38-1.85.43-4.34,2.11-5.24,2.61-1.39,5.91-.17,8.66-1,1.27-.37,1.82-1.17,3.33-1.18a33.21,33.21,0,0,1,4.27.67c4,.52,7.91.2,11.94.27,6.12.11,12.32-.65,18.53-.66,6.56,0,13-.14,19.63,0,7.07.18,13.94,1.21,21,1.84a61.28,61.28,0,0,1,18.49,4.82c2,.86,3.65,2.09,5.58,3,2.31,1.16.92.77,1.47,2.8.31,1.19,1.9,2,1.68,3.34-.3,1.87-4.45,2.89-6.1,2.58a19.83,19.83,0,0,1-6.2-3.1c-2.07-1.66-3.43-3.15-6.05-4.1a45.15,45.15,0,0,0-10-2.12A200,200,0,0,0,584,253c-2.93.27-7.3-.19-10,.74-3.17,1.08.38,2.56,1.08,4.8.94,3,1.1,6.44,1.87,9.54.73,2.95,1.92,6.18,1.73,9.25-.11,1.71-.54,2.62-.17,4.47a25.87,25.87,0,0,1,.85,4c.1,1.83-.37,7.59.88,9.12s5.49.37,7.29.22c4-.34,8.06-.78,12.11-1,14.19-.8,28,.41,42.14,1.37,7.24.5,14.28,1.16,21.24,3.38,1.69.53,8,2.46,8.2,4.52.29,2.39-6.21.66-7.93.48a274.62,274.62,0,0,0-41.76-1c-7.19.36-14.39.55-21.58,1.11-3.47.27-6.94.59-10.41.94-1.87.2-3.76.37-5.63.62a10.58,10.58,0,0,0-2,.3c-1.61.54-1.13.07-1.64,1.73-1.51,4.9.2,10.8-.44,15.7-.34,2.57-.2,4.93-.54,7.63a33.58,33.58,0,0,0,.17,10.06c.22,1.15.86,2.14.81,3.33s-.65,2.15-.72,3.31c-.16,2.76-.69,6.93.36,9.45l0-.06a45.35,45.35,0,0,0-.22,5.93c.16,1.7,1.1,2.63,1.56,4.17,1,3.32,0,7.39.82,10.86.36,1.56.56,4,1.34,5.36,1.13,2,1.24,1.2,2.61-.63,2.35-3.12,4.56-6.28,6.63-9.6s4.32-6.54,6.13-10c.72-1.38,1.22-3.34,2.27-4.51.77-.87,1.8-1.29,2.64-2.1,4.5-4.34,4.45-11.32,7.82-16.22.51.33,1,.66,1.54,1a13.16,13.16,0,0,0-1.56,5.18c2.29-1.14,2.47-5.66,4.17-1.18.55,1.44-.62,6.75,1.41,4.48.83,1.8-2.82,9.54,1.4,8.32-.22,1.47-1,3.09-1.14,4.44-.22,1.62.77,1.51.9,3,.1,1.08-1.06,2-1.15,3.09-.15,1.89.84,3.06.28,5.09-1,3.55-3.31,6.2-5.38,9.17-2.29,3.27-4.3,6.54-7.08,9.42-4.43,4.57-9.8,11.4-16.26,12-1.47.15-3,.11-4.46.39s-2.88,1.28-4.3,1.13c-1-.1-1.94-.94-3.1-1-2.08-.17-4.64.69-6.67.29a11.68,11.68,0,0,1-7.09-5.49,51.68,51.68,0,0,1-4.55-9.15c-1.11-3.32-1.38-4.21-4.18-1.91s-6.74,2-10.26,2.27c-15.69,1.36-30.38-3.16-45.34-7.54-16.72-4.9-32.08-12.89-48.1-19.6-.55,2.21-1.37,4.71-1.08,7,.08.67.74,1.09.82,1.65a11.39,11.39,0,0,1-.45,3.33c-.8,5.1.24,10.33-.31,15.5a20.39,20.39,0,0,0,.45,6.65c.5,2.93-.55,5.69-.41,8.63.07,1.41,1.11,3.75.2,5-.38.52-1.79.48-2.31.87a5.45,5.45,0,0,0-1.55,2.09c-1.6-1.73-5.22,0-7.06.54a19.9,19.9,0,0,1-3.34,1.05c-.22,0-1.19-.65-1.59-.69-.57-.06-1.55.49-2.18.54-2.32.19-5.93-1.14-6.93-3.3-1.35-2.92-.5-8.6-.63-11.8-.57-14.43.12-28.88.42-43.29.08-3.64.41-7.24.42-10.88,0-1.81.05-3.62.09-5.43s.53-3.32-1.15-3.07c-.86.13-2.29,1.47-3.38,1.76a32.16,32.16,0,0,1-3.79.61c-2.49.36-7.81.09-9.95,1.44-1.91,1.2-1.79,4.72-1.72,6.72.13,3.56.41,7,.3,10.56s.7,7.05.81,10.62-1.24,6.51-.85,10c.83,7.48.86,15.05,1.06,22.58a79,79,0,0,0,.8,11.09c.37,2.21.66,7.23-2.69,5-.24.38-1.53,3-2,3.16-1.27.51-2-1.93-3.38-.42l-1.26-1.26c-.15.52-.29,1.05-.42,1.58-1.32-1.85-1.77.13-3.36.67a4,4,0,0,1-2.49,0c-1.58-.27-.12-.44-2.46-.42-3.68.05-7.24-.24-8.21-4.42-2-8.59-1.08-17.78-1.73-26.48-.66-9,0-18-.22-27-.12-4.34-.36-8.69-.51-13,0-1.53.69-6.91-.83-8.18s-6.53-.25-8-.23c-5,.06-10.06-.18-15,.24-4.22.35-4.85,3.61-6,7.32-1.3,4.07-2.12,8.39-4,12.24-1.32,2.69-2.17,5.47-3.72,8.06a7.71,7.71,0,0,0-1.33,4.18c-.11,1.36.19,1.1-.38,2.33a18.21,18.21,0,0,0-1.2,2.18c-.22.75.05,1.48-.27,2.22-.17.39-1.43,1-1.43,1-.36,1.13.79,2.4.79,3.4,0,1.58-1.08,3.56-1.31,5.19a28.8,28.8,0,0,1-1.45,5.53c-.75,2.22-.41,4.41-.85,6.75s-1.1,4.07-1.14,6.41c0,1.77.6,4.39-.2,6-.33.65-1,.92-1.36,1.5-.66,1-.73,2.3-1.31,3.19-1.35,2.05-2.68,1.48-5.16,1.12a16.74,16.74,0,0,0-2.71-.41c-.47,0-1.42.61-1.8.51-3.75-1-3.07-8-3.54-11.11-.31,1-2,3.35-2.4,1.34a.48.48,0,0,0-.31.66l.63,0M209.84,479.08c-.33.46-.25.81.26,1-.06-.26-.12-.52-.26-1m-62.22,47.16c0-.37-.15-.42-.38-.16,0,.37.13.42.38.16m64.6,2.12c-.28-.37-.45-.36-.52,0,.26.47.43.46.52,0m79.76,81c.5.28-.92-.54-.66,0s.41.53.66,0M199.6,581.34c0,.58.41.3.64,0l-.64,0M197.1,576c.32-.25.33-.45,0-.62-.4.23-.4.44,0,.62m-60.9-47.46c0-.34-.22-.4-.5-.2.08.51.24.58.5.2M196,582q.12-.59-.48-.36,0,.48.48.36m-51.58-68.68c.37,0,.42-.15.16-.4-.37,0-.43.14-.16.4M199,583.38c-.36.17-.35.39,0,.64.32-.16.31-.37,0-.64M136.7,546.32c-.32,0,0-.94-.44.1.21.3.36.26.44-.1m20.72-48.12c.48.19.65-.45.24-.66l-.24.66M160.2,497c-.24-.43-.47-.48-.7-.16.09.54.32.59.7.16m57.38,59.74q-.77.13-.24.72l.24-.72M142.7,530c-.58-.1-.69.2-.34.92.49.09.6-.21.34-.92m70.4,30.6c-.22-.27-.34-.24-.38.1.2.27.33.24.38-.1m-26.4,27.12c.48-.12.11-.47-.1-.58l.1.58M213,489.28c-.21-.41-.44-.47-.68-.18,0,.55.26.61.68.18m-72.48,19.6c-.1-.39-.27-.41-.52,0,.16.31.33.32.52,0m186.3,19.46c-.08-.35-.21-.37-.4-.08.08.35.21.37.4.08M139.68,522.8c-.05-.42-.23-.54-.54-.38,0,.46.17.59.54.38m-.28,9a.35.35,0,0,0,.3-.48q-.58,0-.3.48m57.78,46.28-.52-.6c-.49.59-.07.87.52.6m15-43.76c.55-.1.54-.39,0-.88-.45.1-.44.4,0,.88m6.46-.82-.5-.16a.56.56,0,0,0-.12.3c.36.38.57.34.62-.14m-7.8,2,.68.5c.38-.64-.18-.67-.68-.5m4.5,26.62c.55,0,.6-.38.16-1.14-.48,0-.53.39-.16,1.14m-81.54-27c.25.41.43.41.52,0-.23-.51-.4-.51-.52,0M159.28,492c.38-.21.38-.46,0-.74-.31.19-.31.44,0,.74M153,504.74q-1,0-.12,1,.76-.06.12-1m-9.32,112.5c.36,0,.36-1.36,0-1.36v1.36m-10.3-90.52c-.3.27-.3.51,0,.72.34-.25.35-.49,0-.72m45.56,72.58c-.52.1-.43,1.18.16,1.08l-.16-1.08m12.46-14.36c-.27.35-.23.6.12.74.44-.27.4-.51-.12-.74m141.14-66.88c-.29-.46-.57-.48-.84-.08.24.43.52.45.84.08m-128.22-15.5c.73-.1.29-1.08-.14-1.08l.14,1.08m-66.1,45.86c-.63-.21-.76.83-.28,1l.28-1m-5-28c-.19.66.94.92,1.14.42l-1.14-.42M158.94,487a.47.47,0,0,0,.16-.92l-.16.92m-27.48,93.6c-.88,0-.44,1,.08,1l-.08-1M183.74,596c.63.52.93-.6.58-.86l-.58.86m-8.86-.66-.46-.3c-.32.35-.27.63.16.82l.3-.52m30.48-116.52q1.14.12.24-1.2-.91,0-.24,1.2m-23,122.94c-.74-.37-.58.78-.5,1.12.56.1.73-.27.5-1.12m19.78-22.86c-.34-.58-.66-.42-.94.48.34.44.66.28.94-.48M175,605.68c-.64.34-.51.69.38,1,.47-.31.34-.66-.38-1m-42.14-56.54-.3-.64c-.85.43-.62.92.3.64m195-23.32c.18-.84-.23-1-1.22-.46,0,.61.37.76,1.22.46m-107-31.66-.56-.52a.6.6,0,0,0-.36.3c.25.9.48.52.92.22m-21.16,17.56c-.48.2-.58.5-.3.92.68-.45.59-.33.3-.92M136.46,543.3c-.35.44-.31.81.14,1.1.5-.31.45-.68-.14-1.1m81.6-55.82c-.66-.33-1.14,1-.56,1.24l.56-1.24M159,614.26c.42-.9.43-.65,0-1.12-.47.39-.45.77,0,1.12m-29-54.18c-.71-.09-.83.26-.36,1.06a2.05,2.05,0,0,0,.48-.1l-.12-1m3.58-35.26c-.3-.55-.66-.59-1.06-.12.24.5.59.54,1.06.12M153.6,501.5c-.88.6-.88.6-.24,1.48.08-.54.16-1,.24-1.48m43,8.76c-.85-.21-1,1.27-.28,1.48l.28-1.48m-61.42,15.66c-.82.48-.71,1.3.08,1.48,0-.49-.07-1-.08-1.48m1.86,3.6c.63.11.64-1,.06-1.06l-.06,1.06m79.24,38.36c-.1-.59-.21-1.17-.32-1.76-.77.7-.49,1.21.32,1.76m-78-50.88c.57-.75.27-1.24-.62-1.46l.62,1.46m-1.14-8.44c.23-.87.2-1-.68-1.22l.68,1.22m1.68-3.16c-.61-.41-.87-.12-.78.86l.46.2.32-1.06m10.44-4.5c.85,0,.54-1,.44-1.6-.62.69-.74.54-.44,1.6M189,489.26c-.78.2-.4,1.85.44,1.64-.13-.55-.28-1.1-.44-1.64m-42,26.18c-1.13.23-1.58.28-1,1.38q.49-.68,1-1.38m-10.14,17.4c.81.94,1.32-.53,1.34-1.24-.62.6-1,.92-1.34,1.24m43.62,69.08c-1.1-.31-.31,1.9,0,2.2,0-.73,0-1.47,0-2.2M150.3,615c-.69.1-1.14,2.11-.16,2.22l.16-2.22m-10-103.54a1.21,1.21,0,0,0-.38,1.44,1,1,0,0,0,.48.08,1,1,0,0,0-.1-1.52m187.2,16.14c-.16.91.39,1.32,1.24,1.4.57-1.33.16-1.79-1.24-1.4m-194.36-10c.34.65.69,1.29,1,1.94.36-1.06.19-1.86-1-1.94m19.72-7.42c.62-.62-.76-1.48-1.26-2a1.62,1.62,0,0,0,1.26,2m-1.66-10.26c0,.88,0,1.76,0,3a2.45,2.45,0,0,0,0-3M133.6,554.3c-.08-.8-.17-1.6-.26-2.4-1,1.07-.68,1.39.26,2.4m3.52,4c-1.5.4-1.5.4-.86,2.1.3-.72.58-1.42.86-2.1M128.38,538c.84-1,1.41-1.45.1-2.14,0,.71-.07,1.43-.1,2.14m45.56,70.68,1.8.28c-.35-.88-1.29-2.14-1.8-.28m-40.44,9.14c-.34-.64-.69-1.27-1-1.9-.64,1.29-.25,1.44,1,1.9m80.68-66.5c-.12-1-.18-1.76-.28-2.6-1,1.5-1,1.5.28,2.6m-80.56,21.34v-2.26c-.94,1.18-.94,1.18,0,2.26m55,12c-.7-1.7-.7-1.7-2.22-1.46.8.54,1.36.9,2.22,1.46m39.7-70c.24-1.25.47-1.89-.88-2.22.29.74.58,1.48.88,2.22m-85.7,19.12,1.58,1.52c.13-.75.27-1.49.4-2.24l-2,.72m36.08,61.42c-1.57,2.61,2.65,1.06,0,0m6-10.62c.22.75.45,1.49.68,2.24.94-1.3.71-1.53-.68-2.24m-44.8-77.74c1.07-1.32,1.5-2,.2-3.2-.06,1.07-.13,2.13-.2,3.2M168,605.28c-.42,1.24-1.12,2.46,0,3.8,0-1.26,0-2.52,0-3.8m-17-100.9c-.4.72-1.32,3.19.72,2.64-.25-.88-.48-1.76-.72-2.64m-6.24,110a4.62,4.62,0,0,0,1.06,3.84c-.52-1.4.34-2.82-1.06-3.84m12.36-114.54c-1.49.7-2.17,1.2-1,2.62.35-.87.7-1.74,1-2.62m-19.72,13c1,.11,1.28-3.4.24-3.32-1.24.09-.17,2.79-.24,3.32m-2.58,52.48,2.44-.88c-1.3-2.68-1.49-1.42-2.44.88m-5-24.72,1.82-.72a4,4,0,0,0-1.44-1.78c-.69.65-.32,1.7-.38,2.5m1-4.4c2.19,2.25,2.35-3.46,0,0m3.9,2c1.56-1.27,1.86-1.89.18-3.14l-.18,3.14M132,532c.18,1.76,1.5,1.58,2.86,1.68-.32-1-.63-1.93-.94-2.9-.19.71-.38,1.43-.56,2.14-.45-.31-.9-.62-1.36-.92m9.16-8.94c-.4,1.29-1.52,2.31-.34,3.58.41-1.36.94-1.53,1.6-.5.53-.53-.93-2.47-1.26-3.08m-10.58,1.12c-.06,1.06,1.37,7.18,2.52,4.38-2.46-.82-.78-2.53-2.52-4.38m17.16-18.82c-.06-.3.35-2.22-.2-2.42l-2.74,1.76,2.94.66M135.62,542c0-1.84-.73-2.41-2.5-2.82v2.92c.83-.05,1.67-.08,2.5-.1m-.24,13.7c1.78.22,1.23-6.83,0-8-1,2.25-.16,5.62,0,8m-6.8-28.24c-.62,1.22-1.23,2.45-1.84,3.68,2.12.56.08,3,2.38,3.66-.07-1.14.68-7.42-.54-7.34m4.78,36.06c.07.89.38,1.23.94,1,0-1.81.95-5.53.49-7.08-.55-1.82-1.24-1.48-2.25-2.44-.11-.4-.22-.79-.34-1.18-.7-.26-1.4-.5-2.1-.74a11,11,0,0,1,1.22,2.74c0,.63-.85,2-.75,2.39.19.67,1.21.9,1.8,1.69.77,1,.79,2.43,1,3.66-2.52-1-3.51,6.05-1.44,7.3a12.69,12.69,0,0,1,1.42-7.36m9.46-58.8c-2.8.7.47,1.67.77,2,1.27,1.34.79,3.47.79,5.19l2.28-1.94,1.15-.12c.67-.72.91-2.27,1.21-3.4l-2.36.78a2.18,2.18,0,0,0-1-1.07,30,30,0,0,1-2.94-1.49c.58-.16,1.22-.28.76-1.6-.3.76-.48,1.22-.68,1.66m-2.7,10.92-.62-.78c-.19,1.38,2.74,2.5,4.1,3.1.15-1.23.29-2.47.42-3.7-.76,1.25-2.67.08-3.9,1.38m190.2-.3v1.76c.51-.58.59-4.05.2-4.66-1.85.29-2,2.1-1.32,3.52l1.12-.62M137.78,523.9c-.1.82-.18,1.64-.3,2.64.68-.79,1.37-1.57,2-2.36-3.13-.44-1.39-2.26-3.36-4-.11,1.39-1.15,5,.52,5.82.23-1.05.16-1.57,1.1-2.08m4.6-5.34c.1.8.18,1.6.32,2.86q.59-1,1.2-1.92c-.8-.44-2.22-2.07-3-1.72-1.16.49-.88,2.45-.88,3.36.94-1,1.66-1.8,2.4-2.58m2.76,1.78-.72,1.34,1.92.78c.07-1.3-.35-1.34-1.26-2.18,1.62-.44,1.08-1,.26-2-.07.68-.13,1.36-.2,2M226,560.44c-.42,3-3.32,5.66-4.87,8.13-2.07,3.32-4.79,6.08-7,9.38a28,28,0,0,1-6.26,6.77c-1.44,1.15-2.14,3.17-3.82,4.16-2.19,1.29-2.28.33-4-1.52-.49,1.88.89,1,1,2.2a4.62,4.62,0,0,1-1.13,3.2c-1.68,2.36-3.26,2.65-5.35,4.14s-3.68,3.3-5.91,4.61c-1.73,1-5,1.36-5.13,3.85-.61-.41-1.22-.81-1.84-1.2.06,1,.13,2,.18,3l-1.58-.76c-.47,2.12-1.16,2.81-2.62,1.16l-1,1.94c-.11,1-.57,1.19-1.39.71-.89.6-2.74,1.33-3.89,2.11l-.9-1.94c-1.08.52-.35,2.18-1.38,3.05a2.27,2.27,0,0,1-3.5-.17v2l-2.1-1.34-.12,2.08c-2.05-1.37-1.83-.34-3.63.89a13.16,13.16,0,0,1-1.34.3c-.34.14-.66,1.29-.89,1.53-.48-.65-1-1.3-1.46-1.94-.83,1.74-2.17,1.27-3.28,3.1-.24-1-.47-1.92-.7-2.88-1,.3-.38,1.46-1.33,2s-2.33-.33-3.21-.79c.79-.85.53-1.65-.52-2.1.52,2,.67,2-1.08,3.16a7.46,7.46,0,0,1-3,.7c-.83.09-2.53.44-3.31-.12-1-.71-1.39-2.11,0-2.7a10.66,10.66,0,0,0-2.52-1c-.94-.39-.66-1.85-1.79-.58s0,1.3.37,1.91c.69,1.15,1.62-1.57,1.88,1.37.16,1.91-.06,1.28-1.39,1.21-.42-.34-.86-.67-1.31-1l-.66.54c-1.42-.26-1.16-.08-2.23-1.08-1.46-1.35-1.34-1.19-1-3.4-.71,0-1.41.06-2.12.1.59.8,1.17,1.62,1.76,2.42-1.52-.35-1.74,1.38-2.18,2.5-.44-.82-.87-1.64-1.32-2.46,1.79-.67,1.64-2.61,2.06-4.36,2,1.8,2.72,0,2.92-2.06,1.56,1,.26,3.42,1.74,3.48,1.94.08,1.4-2.92,1.18-3.76,2.37-.14,2.21-.4,1.54-2.52l3.56,3c.23-.53.55-2.08,1.24-2a7.31,7.31,0,0,0,.5,6.32,10.2,10.2,0,0,1,.67-2.59c.52-.52,1-.3,2-.44.61-.08,1.83,0,2.27-.17,0,0,1.43-.83,1.34-.81,1.4-.17,3.42.87,4.31,0s.87-5.15,3.19-2.92c.61-1.16,1.22-2.33,1.82-3.5a25.34,25.34,0,0,0,4,4.32c.25-.71.5-1.43.74-2.14-3.6.87-1.47-2.33-2.76-3.44,1.73-1.32,3.45-2.87,5.28-4,.88-.56,1.09-.21,1.92-.94s1-1.3,1.74-1.63c1.26-.57.43.94,2.06-.31a6.75,6.75,0,0,0,1.44-2.21c.87-1.55,1.91-2.48,2.88-3.95-.11.95-.22,1.91-.32,2.86,1.85-1,.67-2.52,1.71-4.36,1.14-2,3.36-3.25,5.13-4.58s4.21-7.65,7.08-5.74c-.16-.8-.38-2.12.64-2.49,2-.72.4,1.57,1.7,1.57.11-.57.21-1.13.3-1.7l-.88-.78c0-1.06.57-2.37,2.08-1.7.17-.93-.09-1.47.26-2.4a16.53,16.53,0,0,1,2.34-3.19,31.74,31.74,0,0,1,2.42-3,4.79,4.79,0,0,0,1.7-2.75c1.63-4.89,4.29-9.73,6.19-14.66.95-2.46,2.17-4.63,3-7.13a75.9,75.9,0,0,0,2.07-9.14c.6-2.8,1.88-6.16,1.68-9-.14-2,.2-1.9-1.89-2a13.24,13.24,0,0,0-4.1.87,66.62,66.62,0,0,1-7.42,1.07c-2.36.35-5.46,1.16-7.8.24-4.62-1.81-1.66-13.12-1.61-17.18a92.44,92.44,0,0,0-.32-9.85c-.25-2.62-.5-6.64-1.43-9.05a19.32,19.32,0,0,0-4.33-5.53c-2.46-2.12-5.11-1.33-7.46.49a29.25,29.25,0,0,0-4.32,4c-.57.66-1.3,1-1.82,1.54s-1.06,1.42-1.76,2.1c-1.29,1.27-1.72,1.09-2.5,2.87-.53,1.22-1.33,2.39-1.83,3.6a6.93,6.93,0,0,1-1.5,2.74s-1.22.07-1.21.07c-1,.44,1.08,1.1-1.09.67,0,1.16-.4,2.2-1.7,2.36a1.63,1.63,0,0,0,1.86.86c0,2.87-1.33.77-2.06,2.44-.62,1.42.81.68.76,1.78-.07,1.55-1.6,2.36-2.32,3.4a26.58,26.58,0,0,0-4.16,9.26l-1.74-.88c0,.28.34,4,.35,4-.39.78-.55.9-1.77,1,1,2.21.12,3.64-1.5,5-.26-.45-.53-.9-.8-1.34-.69.59-.1,2.74,0,3.6-.51-.06-1-.12-1.54-.16,1.38,1.54.47,4.21-.36,5.86-1,1.92-1.68,4-2.64,6-1.53-2.36-1.15,1.62-1.21,2.87a9.57,9.57,0,0,1-.46,1.52c-.09.42.46.78.27,1.37-.5,1.56-1.09,1.67-1.24,3.28s.11,3.45,0,5.1-.82,2.4-1.13,3.7c-.42,1.7-.05,3.5-.47,5.17-.13.53-.82.87-.83,1.51,0,.2.84.5.88.84.2,1.78,0,3.32-2.06,3.4.12-.9,1.58-.85.9-2-2.56,1-.25,2.5-.17,4.65a19.61,19.61,0,0,1-1.15,6.33c-1.05-1.35-1.53-3.32-2.61-4.51-1.32-1.46-1.66-1.15-1.09.54.38,1.12,1.84,1.29,2.3,2-.11.65-.22,1.31-.32,2l2.18,1.7c-1.31.75-1.85-1-2.78-.72-1.17.37.09,2.59.12,3.07a11.08,11.08,0,0,1-.68,3.67c.2.91-.12,1.3-1,1.14,0,1,0,2.07,0,3.1,1.59-.51,1-2,.76-3.24,2.09.86.92,5.43,3.64,5.18l-1.3,2.48c-.37-.49-.74-1-1.12-1.46-.49,1.15-.85,2.17-1.32,3.28a5.26,5.26,0,0,1,2.8,1.4c.38.54-.72.92.26,1.78,1.89,1.65,1.16-1.43,2,1.55.59,2-.86,2.41,1.58,2.65-.13.58-.26,1.16-.4,1.74-1.76-.44-2.06-.22-2.06-2-2,.25-.11-3.07-1.9-2.74,1.85,1.61-1.57.92-2.54,1,.89-2.22.31-2.15-.38-4.3s0-2.8.45-4.73c.25-1.06.9-1.15-.69-1.43-1.08-.19-3.54.43-4.92.32l1.14-1.2c-.58-.55-1.2-.51-1.86.14-.68-2.12-1.88-3.68-2.6-5.74,1.73-.84,1.85,2,2.54,3,1,1.34,2.47,1.55,3.72,2.57,1.87-2.3,1.19-6.67.48-9.34s-2.93-3.92-3-7.14l1.8,1.18a22.82,22.82,0,0,1-.22-2.74,2.79,2.79,0,0,1,.56-1.16c-.29-1.62-.14-1.4-2.1-1.34v-2.5a2.74,2.74,0,0,0,1.39-.86c.39-.72,1.49-2.42,1.21-3.3-.56-1.73-1.34-.31-1.94-1.06-1.3-1.64.93-1.72,1.38-3.12s-.72-3-.66-4.49a7.68,7.68,0,0,0,.49-2.27,4.16,4.16,0,0,0-.91-1.32c.67-1.13,1.59-.1,2.49-.86,1.56-1.32-.63-2.18.41-4l-2,.64c-.18-1.16.59-2.24.18-3.2,3.25-.95.28,1,2.54,1.68.33-.49.66-1,1-1.48.72.66,1.43,1.33,2.14,2,.4-2,.14-3.15.72-5a7.36,7.36,0,0,1-1.69,1.18c-1.27.3-.7,0-1.6-.8s-.84-2-1.89-.34l-.8-.48.06.06c-.12-1.58-1.79-.35-1.92-1.88,2.55-.68-.43-.81-.6-1-.89-.76-.94-.86-.43-2.74.3-1.14,1.25-2.54.6-3.75-.36-.68-1.7-1.12-2.39-1.63-1.62,3.1-1-.22-.61-1.42a5,5,0,0,1,1.87-2.92l-.26.86,1.88.52c-.38-1.1-.47-1.72-1.68-1.32.26-2.32,1.23-2.22,3.44-2.36-.24-1.71-.14-1.73-1.82-1.48.46-1.63.09-2.08,1.9-2.22-1.05-2.41,1.95-5.17,3-7.11.54-1,.23-2.73,1.7-1.35.83.77.22,2.63.2,3.56.4-.59.79-1.19,1.18-1.78s.49-.89-.1-1.37a15.79,15.79,0,0,0,.31-2.22c-.05-1.83-1-3.09-.14-4.84.8-1.59,2.55-1.66,3.47-3,.54-.78-.12-1.88.63-2.76,1.15-1.34.59.52,1.37.05-1.85-2,11.36-12.86,13.39-14.5,5.93-4.79,13.2-12.07,21.57-11.92,2.43.05,7.09,1.6,8.8-.8.61-.85,0-2.48.76-3.48,1-1.28,2.5-1.14,3.86-1.66a128.35,128.35,0,0,1,24.19-7c4-.7,8.1-.23,12.07-.78a53.89,53.89,0,0,1,13.86-.61,43.63,43.63,0,0,1,11.47,2.85c3.81,1.56,8.21,2.91,11.41,5.54a49.76,49.76,0,0,1,15.07,20.66c1.28,3.49,3.77,6.52,4.89,10,1.3,4,2.42,8.13,3.79,12.18a129.85,129.85,0,0,1,4.73,15.85c.49,2.47.52,4.73,1.37,7.12a45.42,45.42,0,0,1,2,7.42,59.61,59.61,0,0,0,1.23,6.2c.51,1.78,1.49,3,2,4.64,1.31,4.45,3,9.34,4.42,14,1.8-1,2-6,2.24-7.86a58.81,58.81,0,0,1,1.53-7.13c1.23-4.77,2.25-9.33,3.59-14.06,1.51-5.32,2.16-11.25,3.41-16.72,1.55-6.8,3.1-13.59,5-20.29.74-2.59,2-4.91,2.76-7.52s1.13-5.32,2.05-7.9c2-5.59,3.78-11.26,5.91-16.86,1.85-4.88,4.42-10.89,8.52-14.35,2.63-2.21,4.35-2.78,7.56-2.06,3,.68,5.77.15,8.21,1.95-1.29,1.58-3.47,2.6-4.56,4.28-.88,1.37-.74,3-.74,4.62-4.63-.19-1.26,1.63-3.34,4.26-1.28,1.62-1,0-2.34,1.54-.61.68-.95,2.52-1.38,3.34a25.55,25.55,0,0,0-2.8,6.56,58,58,0,0,0-.88,7.32c-.14,1.52-.87,2-1.51,3.37s-.44,2.3-.63,3.67a47.27,47.27,0,0,1-.9,5.8c-.81,3.06-4.66,5.22-2,8.22a3,3,0,0,1,1.06-1.36c1.68,2,.66,6.72-1.72,3a6.81,6.81,0,0,0,1.8,5c.09-.77.19-1.55.3-2.32,1.14.82.47,3.58.74,4.82,2.15-2.61.95-5.88,2.82-8.3.25,1.33-.6,2.29.62,3.42l.24-1c2.12,3.39.16,11.12-.93,14.74-1.66,5.54-1.29,11.06-2.39,16.66-1,4.86-1.63,10.16-3.18,14.85-1.68,5.07-2.29,10-3.52,15.15-1.07,4.47-1.3,8.89-1.94,13.37-.32,2.27-1.07,4.5-1.45,6.77-.52,3-.55,6.35-1.55,9.3-.55,1.64-1,3.35-1.56,4.92-.8,2.34-2.33,3.22-4.14,4.8-4.09,3.57-8.07,4.06-13.31,5.06-2.53.49-4.89.17-7.37.52a9.06,9.06,0,0,1-5.64-1c-4.06-2.29-6.3-8.53-7.69-12.71-1.61-4.82-3.4-9.6-4.83-14.48-1.55-5.24-2.44-10.41-4.37-15.57-3.9-10.45-5.38-21.71-9-32.23A91.91,91.91,0,0,1,260.74,526a127.33,127.33,0,0,0-4.21-15.35C253,499.31,249,485.82,240,477.52a36.69,36.69,0,0,0-35.65-7.92c1.06,1.53,2.57,2.23,4.12,3.23.46.29.47,1.27.84,1.47,1,.54,2.38-.76,3.08,1.1.14.38-1.24.8-.77,1.58.37.63,1,.71,1.55,1.2a13.43,13.43,0,0,1,2.16,2.28c.16.67-1.15,1.77-.32,2.18,1.19-2,.44-.57,1.47.06a4.5,4.5,0,0,1,1.46,1.34,20.78,20.78,0,0,1,2.33,4.91c.15.49-.23,1.38-.06,1.75.31.67,1.38,1.37,1.8,2.11a59.41,59.41,0,0,1,2.56,6.63l0-.06c0,1.41,1.08,1,2,.86a8.77,8.77,0,0,0-.52,2.56c0,.21,1,.61,1.17,1.16a17.93,17.93,0,0,0,1.39,4.48c.31-.63.62-1.26.92-1.9.09.84.16,1.68.22,2.52.32-.25.65-.49,1-.72.46,3.39.14,6.36.22,9.72l.72-.9a40.19,40.19,0,0,1,2,6.1c.15.85-.06,1.86.15,2.68.18.67.79.95,1,1.46,1,3.24-.35,8.66-1,12-.71,3.72-2.68,7.08-3.76,10.7-.59,2-1.18,4-1.82,6-.51,1.54-1.21,5.09-3,3.58-.38.47-.11.72.82.76m289.6-71.78a2,2,0,0,0-.52,1.72,3,3,0,0,0,.52-1.72m-8,79.9c-.81,0-.53.84,0,.84l0-.84m-3.18-20.34c.6.06.7-.35.3-1.22-.61-.1-.71.31-.3,1.22m2.88,24.4c-.39-.1-.34,2,0,2v-2m4.46-74.74,1.84,1.1c-.32-1.2-.68-1.46-1.84-1.1m56.6,5.44c.59.35,1.37-1.35,1.68-1.8-.76-.43-1.29,1.16-1.68,1.8m-3.66,3.36a4.34,4.34,0,0,0,2.78-2.5,6.26,6.26,0,0,0-2.78,2.5m-60.42,36.06c-1.52.44-.64,2.45.78,2.5-.25-.84-.51-1.67-.78-2.5m7.48-31.22c-.56-.56-1.78.07-2.86-.34.29.94.57,1.88.86,2.82.66-.84,1.32-1.66,2-2.48m4.9-26.46-.42-1.54c-.61.12-.64,1.61-.74,2.14,3.56-1.93,2.32,6.06,2.16,8.1-.75-1.34-.71-1.75-1.68-.67.12-.14-.6,2.83-.58,2.77a13.58,13.58,0,0,0-.9,2.51c-.36,2.08-.06,3.38-1.17,5.29-1.29,2.21-1.87,3-1.09,5.8,1.33-.54.22-1.19.66-2a4.31,4.31,0,0,1,2-2.12q-1.71,8.08-3.42,16.16c12.85.49,24.33-6.09,33.84-14.28,2.22-1.9,4-4.11,6.11-6.14s4.85-3.7,6.91-5.86c4.12-4.32,7.35-9.69,11.1-14.21,1.3-1.56,1.87-3.39,2.81-5.28,1.13-2.26,2.58-4.08,3.4-6.47,1.78-5.21,4.53-12.05,3-17.57-1.61-5.82-7.42-9.78-12.71-11.86-6.22-2.44-11.52-.4-17.35,2.05-2.13.89-3.92,2.47-5.83,3.66a14.61,14.61,0,0,0-5.73,6,9.31,9.31,0,0,1-3,3.76c-1.28,1-2.18.63-3.31,1.34-1.67,1.05-5.1,5.71-4.17,7.83-2.42-.06-2,.15-2.58,2.48a19,19,0,0,1-1.37,4.16,9.6,9.6,0,0,0-1.29,2.88,10.43,10.43,0,0,1-1.14,4.14c-.07-.47-.13-1-.2-1.42-.84,1.13-2.17,3-2.4,4.38-.26,1.61.72,2.69-.9,3.94m73.72-8.82c-.6,1.83-1.85,2.08-2.39,3.92s-.35,3.7-1.35,5.6c-2.53,4.79-6.29,9.08-10.05,12.92-1.74,1.77-3.73,4.38-5.85,5.67-.75.46-1.5.36-2.26.77-1.06.58-2,1.95-2.86,2.77-3.12,2.94-7.26,6.32-11.14,8,.28-.48.54-1,.8-1.46-1.57-.94-3.07,2.81-4.24,3.34s-2.35-.7-3.55-.16-.17,2-1.15,2.72c-.06,0-2.56.09-2.88.15-1,.21-2.16.61-3.16.89-4.15,1.18-8.57,2.81-12.92,4-2.8.79-10.25.74-11.9,3.55,5.2,3.16,11.64,4.06,17.38,5.89,6.17,2,12.42,3.48,18.55,5.56,6,2,12.3,3.68,18.42,5.11,6.73,1.57,13,4.76,19.8,6.19,2.63.56,4.93,1.82,7.52,2.59,3.13.93,6.23,1.71,9.29,2.89a176,176,0,0,0,18.4,5.92c13.17,3.48,25.88,8,39.34,10.23,6.31,1.07,12.74,1.26,18.87,3.09,2.21.67,5.68,2.11,3.27,4.69-.91,1-2.15.91-3.31,1.28a36.48,36.48,0,0,0-4.3,2c-5.45,2.54-11.95,1.05-17.65.17-7-1.08-14.1-1.9-21-3.37-27.26-5.74-54.17-14.39-80.66-22.92-15.06-4.86-30.53-8.47-45.63-13.17-1.55-.48-2.73-1.17-3.74-.15s-.23,1.87-.56,2.63c-.17.37-1,.79-1.18,1.18-.26.77,0,1,.39,2.05a13.57,13.57,0,0,1,.74,1.66l.47,1c-.16,1.29-.58,1.64-1.26,1-.18.15-.78.06-1.31.79a3.08,3.08,0,0,0-.47,2c.3,1.93,2.33,1.68,1.61,3.63-.38,1-1,.7-1.22,1.19-.58,1.23-.33,4-.43,5.31,3.29-.6,1.32,2.62,1.92,4.52,2.18-.66,1.54,2.2,1.56,4a13,13,0,0,0-.11,2.46c.08.47,1.1.59,1.23,1,.58,1.65-.53,5.06-.56,6.91,0,2.48.45,5.45-.33,7.85a3.41,3.41,0,0,1-1.07,2c-.82.58-1.25,0-1.94.32s-1.08,1-1.79,1.36-1.21.12-2,.23l-1-.34c-.63-.41-1-.14-1,.8-1,.63-.31,1.18-1.94,1.46-2.16.37-2.52-1.06-4.55.48l-1-1.76c-1.5,1.61-5.17,1.29-6.94.58-3.8-1.54-3.83-5.21-4.67-8.85a130,130,0,0,1-3.15-21.1c-.88-14.77-1.4-29.2-1-44,.39-15.55,1.2-31.24,3.56-46.64a164.16,164.16,0,0,1,4.32-20c1.31-4.61,2.46-15.85,9.52-15.24,3.18.27,6.87,2.13,9.82,3,1.2.34,2.08-.25,2.56,1.32s-1.45,4.35-1.8,5.84a41,41,0,0,0-.7,11.22c.15,3.65,1.2,6.66,1.38,10.13,1.79-1.27,2.79-4.25,3.93-6,1.67-2.64,3.16-5.51,5-8a108.67,108.67,0,0,1,9.33-11.47c8.39-8.61,19-16.12,31.43-17,12-.81,22.28,3.31,31.57,10.53,1.29,1,3.19,2.86,3.68,4.49.34,1.11-.13,2,.37,3.13.37.87,1.34,1.27,1.71,2.19,1,2.59-.09,4.5-.63,6.92a9.82,9.82,0,0,0,.23,4.41c.34,1.62,1.73,2.76-.22,3.33,1.17,1.53-.73,5.53-1.8,6.74-.56-1.55,1.09-2.44.94-3.88-1.28,1.85-2.86,3.59-2.08,6-.76-.1-.7.12-.58.84.12-.28.3-.6.46-.92M427.68,551.78c-1.75.88-1.93,2.68-1.56,4.42,1.08-1.25,1.09-2.92,1.56-4.42m-66-28.72c-.51-.7-3.34-3.13-3.12-4,.17-.67,2.3-1.34,2.76-1.84,1.07-1.17.92-1.79,1.11-3.39.7-5.81.6-12,2.13-17.63.63-2.33.86-4.46,1.28-6.86.37-2.11,2-5.84,1.45-8-1.08-3.89-12.83-.74-15.91-.28-2.46.37-12.25,0-8.33-4.4,1.07-1.21,2.43-1.46,3.84-2a74.42,74.42,0,0,1,9-3.2c4.28-1.06,10-1.3,13.72-3.88.78-.54,1.64-1.85,2.59-2.08a24.84,24.84,0,0,1,3.43.1c1.42,0,2.86-.63,4.18-.62,9.95.08,20-1.49,30-2.31,5.89-.48,11.77-.72,17.68-.63,5.53.08,11,.61,16.51.6,5.33,0,11,.24,16,2.12,1.48.55,2.92,1.19,4.37,1.81s2.72.55,2.74,2.12c0,3.09-3.8,1.76-5.61,1.55-12-1.41-24.27-.75-36.24.22-6.76.55-13.5,1.26-20.22,2.17-2.77.38-6.1.38-8.73,1.33s-2.59,3.12-2.88,5.89c-.23,2.26-.89,4.26-1.05,6.47a15.55,15.55,0,0,0,0,3.34c.22,1.19,1,2.09.93,2.81s-1,1.43-1.25,2.11a26.71,26.71,0,0,0-1.29,5.76c-.37,2.66-.55,5.44-.77,8.12,6.35-.35,13.19-3.58,19.18-5.63s11.71-4.5,17.76-5.81c6.44-1.39,12.63-3.85,19.1-5.17a40.64,40.64,0,0,0,4.78-1c1.33-.44,2.45-1.38,3.86-1.53,1.22-.13,2.49.42,3.76.32,1.66-.15,3.36-.61,5-.79,0,2.31-.26,2.53,1.94,3.24-.85,2.37-3.92,3.3-5.94,4.35-2.44,1.26-4.55,2.7-7.1,3.76-5.74,2.37-11.55,4.43-17.35,6.63-10.09,3.83-20.52,6.89-30.93,10-4,1.18-13.65,1.24-14.81,5.72-1.58,6.14-1.38,14-.73,20.2,1.16,11,3,23,7.36,33.31.75,1.77,2,6.7,4.4,6.62,1.86-.07,4.64-4.93,5.6-6.35,3.93-5.79,6.72-12,10.26-17.94,0,1,0,2,0,3,3.6-2.55,3.68-8.76,6.4-12.18.21,1.74.42,3.48.64,5.22,1.12-1.27,1.4-5.44,3.72-5.56.26,0,1.11,1.57,2,1.61a3.12,3.12,0,0,0,2.29-1.15c-.08,3.35-1.54,6.79.34,9.92.34-.73,1.29-3.68,2.06-3.68.18,3.63-2.12,5.41-2.6,8.6-.17,1.13.34,2.14.24,3.23A19.64,19.64,0,0,1,430.1,571c-.46,1.21-1.9,2.88-1.8,4.23s.84,1.47.8,2.86c-.07,2.46-3.29,4.91-4.71,6.74a29.85,29.85,0,0,1-7.85,7.14c-2.54,1.59-4.58,2-7.24,2.93a9.44,9.44,0,0,1-2,.8,2.4,2.4,0,0,0-.8-1c-1,0-1.69.56-2.62.75-1.17.23-3.37-.52-4.29-.13s-1.77,1.9-2.47,2.74c-1.88-2.45-6.74-.92-9.59-1.31-2.07-.29-3.44-1.51-5.23-2.36-1-.46-2.1-.75-3-1.27-2.64-1.48-4.66-5-5.94-7.55-1.89-3.79-4.43-7.43-5.67-11.5-2.31-7.62-4.65-15.75-5.34-23.71-.8-9.09-.74-18.18-.7-27.3m-239.08,19.4c-.1-1.75.48-2.46-1.48-1.92.87-3.59,4.23-.44,4.64,1.52.15.71-.57,2.75-.51,3.57-.68.74-.59,1.3.29,1.69l1.6,1.5c-1.41.71-.78,2.74-1,4.12-2.1-1.76,0-2.47-.87-4.21-.31-.65-.5-1-1.41-.61-1.34.59-.64,1.84-.5,3.14-.73-.36-1.44-.45-1.82.42-.66-1.69.55-3,.07-4.71-.36-1.28-1.6-2.24-2.43-3.23,1.61-.71,3.53,1.15,4.78,1.94.64-1.31-3.39-3.89,0-2.8-.32-.76-.78-.62-1.4-.42m-4.7,60.1c-1.69-1-.08-1.35-.84-2.26a10.93,10.93,0,0,0-2.5-1.56c1.74-.64.81-.54,1-1.83a20.1,20.1,0,0,1,.4-3.53l-1.62.64a70.25,70.25,0,0,0,1.14-7.92l1.52.46q.18-1.48,1.08-.72c.49.27,1.3,3,1,3.31-1.15,1.2-2.73-1.52-3.62,1.35-.44,1.41.32,1.76,1,2.86l1.09.34a10.56,10.56,0,0,0-.4,2.22c.08,2.08,2.22,4.66.7,6.64m3.86-4.94c-.32.31-.34.6-.06.86.42-.23.44-.52.06-.86m1.82,4c-.78-.26-1.42-.46-2.38-.76,1.34,1.36,1.34,1.36,2.38.76m-3.44-7,1.32-.42c.16.52-.1,1.43.19,1.84,0-.06,1.33,1.55,1.13,1,.53,1.32-.28,4.49,2.32,3.4,1,3.34-2.41,3-4.28,1.88.31,1.16.6,2.31,2.08,2.22-.25,1-1,.79-1.74.84l0,0c-1.2-1.84-1.65-2.3-1.26-4.59a8.33,8.33,0,0,0,.36-2.95c-.38-1.21-.8-.9-2.4-1.2.76-.71,1.51-1.42,2.28-2.12Zm-.82-10.1c1.75-1.32.13-8.66,3.7-3.5.38-1.51-1.16-4.88.84-5.32a7.34,7.34,0,0,1,.22,4c-.34,1.82-.72,1.51-1.51,2.91-1,0-1.23.43-.7,1.2a2.53,2.53,0,0,1,.12,1.44c-.81,1.12-1.92-.15-2.67-.75m310.44-8.24c.46-1.6.2-3.34,1.2-4.77s2.67-2.14,3.22-4.21c-1.46,0-1.63-1.88-.68-3,1.59,2.28,2,4.83.26,7.3-.67,1-1.43,1.18-2.06,2.31-.52.94-.68,2.89-1.94,2.33M130.38,603.5c-1.41-.16-1.78.4-1.1,1.68-2.37-.43.38-4.68-.68-5.72s-1.06,1.62-2.1,1.86a8.26,8.26,0,0,1,1.26-5.16c2.75,1.49,2.26,4.36,2.62,7.34m-6.66-39.44-2.16.36a8.53,8.53,0,0,1,1.8,6c-1.44-1.41-2.8-2.31-2.94-4.38-.1-1.53,1-2.45.06-3.9,2.34-.45,2.24-.28,3.24,1.88m-5.32,10.36c-.15-.22-.3-.24-.44-.08.09.37.24.4.44.08M120,572.6c1,1,2.92,6-.1,5.34.32-1,.9-1.56.16-2.23s-1.82.7-2.5.33c-2.62-1.43,1.69-3.16,2.44-3.44m3.1,18c1,1.37,2.34,3.71,2.38,5.44,0,.45-.37,3.08-1,3.14-.43,0-2.06-8.37-1.34-8.58m4-7.14c-.26,1-1.74,2.91-2.14.76-.17-.88,1.32-1.26,1.5-1.84a12.33,12.33,0,0,0-.28-2.84c2.24,2.24,2.48,4.86,2.8,7.46-.32-.81-1-3.67-1.88-3.54m-12.5,1.14c-.8-1.48,0-1.76,0-3.21,0-.42-1.32-.54-1.4-.83-.13-.47,1-3,1.18-3.42,1.93,1.48,1.82,5.77.24,7.46m4.5-3.62c-.08.59-.15,1.19-.22,1.78-1.3-.13-3.11-3.09-2.29-4.36,1.21-1.88,1.19.43,1.37.79.5,1-.79,1.19,1.14,1.79m9.52-35.32a2.19,2.19,0,0,0-1.72,1.14c-1.39-1.32.74-4.34,2.12-4.28C129.08,542.3,128.63,545.85,128.64,545.64ZM269,411.5c-.26,1.93.2,5.11-1.54,6.2-.38-1.22.33-6.47,1.54-6.2M120.12,551.62c.21.4,1.34,2,1.24,2.4a1.4,1.4,0,0,1-1.87.77c-1-.64-.22-3,.63-3.17m0,43a11.91,11.91,0,0,0-1.85-2.59c-.24-.2-3.44-.27-1.94-1.65s4,2.93,3.79,4.24m6.26-36.68c.05,1.78.89,3.77-.62,5.2-1-.65,0-4.49.62-5.2M334.46,496.7c.7,2.13.11,4.22-.7,6.22-1.1-1.83.19-4.23.7-6.22M121.74,559.64c1.26-.44,1-1.71,1.36-2.72,1.28,1.1,1,2.45.56,3.92l-1.92-1.2m-2.06,53.78,2.1-1.76c.14,1.33.26,2.67.4,4-1-.84-1.72-1.52-2.5-2.24m4.44-75.72c-2.15.39-2.28-1.05-2.52-2.9,1.71.78.94,1.81,2.52,2.9m-.9,69.7c.28-.69.55-1.37.82-2.06l2,1.06c-.35.67-2.45,1.42-2.78,1m-6.84-40.62c.2.32.42.62.86,1.3-2.19-1.37-1.62-2,.18-3.78.32,1.09-.36,1.65-1,2.48m9.5,45.28c.36-1.08.74-2.16,1.1-3.24,1.39.81.56,3.62-1.1,3.24m7.62-25.7,1-2.58c.8.11.81,1.67,1,2.38l-2,.2M118.38,557c-1.6-.32-1.68-.52-1.16-2.5.42.88.74,1.54,1.16,2.5m-2.76,11.8c1.21.74,1.52,1,1,2.34-.81-.49-.83-1.52-1-2.34m9.5,39.42c1.95,2.39-1.39,2.49,0,0m-.9-53.44c1-.65,1.5-1.11,1.88.22l-1.88-.22m-3.14,34.5c.44,1.18,1,1.45-.28,2C120.67,590.42,120.59,589.91,121.08,589.3Zm312-37.28c0,.61-.08,1.23-.1,1.84-.82-.1-.64-2,.1-1.84m-308.68-17.9c.26.46.52.92,1,1.74-.62-.35-1.85-1-1-1.74M126.14,566c1.06-.43,1.56-.06,1.82,1-.61-.33-1.22-.66-1.82-1m-2.42,18.48.42,1.32c-1,0-.66.18-1-1.18l.6-.14m-2.58,4.88c-.14-.42-.28-.84-.54-1.68.78.58,1.24.94,2.08,1.58-.23,0-1.4.07-1.54.1M316,382.62a1.49,1.49,0,0,1-.2-2.12,3.17,3.17,0,0,1,.2,2.12M131.52,604l-.78,1.82c-.24-.92-.08-1.5.78-1.82m87.1-119.1c.35-1,.79-1.39,1.42-.36-.48.11-.95.23-1.42.36m124.52-15.74c-.12.54-.29.54-.52,0,.09-.44.26-.44.52,0m-227.28,95.4c-.38.46-.62.42-.7-.12.22-.31.45-.27.7.12m4.68,44.66c.5.23.59.53.28.9-.45-.18-.54-.48-.28-.9m-4.32-25c.37.38.36.71,0,1-.5-.24-.48-.58,0-1m16.14,13.22-.08,0c1,.3.64.94.4,1.54.4-.36.29-.86-.32-1.5m-4.84,10.2c-.46.35-.72.25-.76-.3s1.15.66.76.3m3.56,1.62c-.18.47-.36.45-.54,0,.14-.39.32-.38.54,0m-7.44,6.62c.35.57.24.8-.32.7-.18-.52-.07-.76.32-.7m36-113,.22-1.16c.84.86,0,.72-.22,1.16m-37.42,69.64c-.8-.11-1-.39-.74-.82.85.06,1.1.33.74.82M267.46,421.4l-.22-2.28c.64,0,.24,1.81.22,2.28M152,610.54c-.51.38-.41-.55,0,0m-28.94.4c-.14-.66-.22-1.06-.36-1.76.74.58,1,.94.36,1.76m2.7,3.18.08-1.1c.49,0,.77,1.19-.08,1.1m2.44-24.4c.68.41.83.83.44,1.24C127.56,590.23,127.64,590.54,128.22,589.72Zm-12.56-14.88c.22.91,0,1.27-.58,1.08-.33-1-.14-1.37.58-1.08m12.58,14.92c-.13-.71-.06-1.28.84-1.26q-1.43.71-.84,1.26m14.14,20.94c.23.91.06,1.28-.52,1.1-.31-.91-.14-1.28.52-1.1m-18.72,3.08v-1.2c.47,0,.61,1.2,0,1.2M311.52,229.56l-.36-1.14c.43-.11.9.92.36,1.14M134,610.2a1,1,0,0,1,0-1.64,1.76,1.76,0,0,1,0,1.64m-14.86-51.28-.68,1.74c-.8-.4.06-1.95.68-1.74m-6.1,16.94c.48,1,.39,1.53-.26,1.44-.48-1-.39-1.53.26-1.44m3.36-13.64.84-.42c.21.62-.41,1.12-.84.42m-1.54,8.8c1,.46,1.24.91.66,1.34-1.16-.43-1.38-.87-.66-1.34m24.9,37.56.06,1.14a1,1,0,0,1-.34.06c-.7-.86-.61-1.26.28-1.2M129,607.8c.81.75.77,1.19-.1,1.34-.74-.8-.71-1.24.1-1.34M316.44,420c-.27.31-.5.26-.7-.16.25-.26.49-.21.7.16m-92,79.48c.27-.76.53-.88.78-.38-.73,0-1,.1-.78.38m-98.9,118.26-.34.38c-.26-.44-.1-.65.34-.38m.12-42c-.21.29-.34.27-.4-.08.19-.29.32-.27.4.08M580,356.86c.1-.4.22-.8.38-1.42a.93.93,0,0,1-.38,1.42M135.8,595.7c.32.17.29.35-.08.52-.22-.22-.19-.39.08-.52m-22.08-6.64c.35.09.37.25.08.46-.32-.08-.35-.23-.08-.46m13.94,13.22c.21.19.19.34-.08.44-.21-.19-.19-.34.08-.44m209.3-119a.39.39,0,0,1-.1.6c-.23-.26-.2-.46.1-.6M119.6,605.44c-.53.26-.34-.45,0,0m1.52,0c.68.71.68,1.06,0,1,.35-.54.35-.89,0-1m4.68-37.62.5-.56c.39.3-.17.89-.5.56m245.4-303.6c.79,2.38-1.84,1,0,0m4.18-4.18v-2.54c.09.63.73,2.44,0,2.54M129.76,542.88l2,.88c-.73,1.64-1.73-.34-2-.88m17-35.74V510c-1.43-1-2.21-2.14,0-2.86m372.68-23.06c-.48-1.3-.68-2,.66-2.62a2.55,2.55,0,0,1-.66,2.62m-3.16,24.28c.39.84.29,1.23-.28,1.18-.49-.86-.4-1.26.28-1.18m1-10.56-.3,1.22c-.5-.12-.2-1.22.3-1.22m-1.5,4.66c-.33-.14-.37-.37-.1-.68.33.13.36.35.1.68" fill="#231f20"/><path d="M546.8,670.7c-.63-.75-.9-1.31-1.95-1.63-.55-.17-1.14-.33-1.7-.47a13.66,13.66,0,0,0-2.21-.08,9.72,9.72,0,0,0-1.43-.08l-.33.22a.94.94,0,0,0-.62-.2,5.7,5.7,0,0,0-1,.17c-.54.14-1.07.22-1.63.31a20.7,20.7,0,0,0-2.14.73,3.73,3.73,0,0,1-1.45.09c-.6-.13-.77-.64-1.12-1.18a39.77,39.77,0,0,0-2.34-3.87,10.49,10.49,0,0,0-3-2.51,6.51,6.51,0,0,0-1.76-.69c-.75-.17-1.52,0-2.25-.14s-1-.54-1.78-.57a17.11,17.11,0,0,0-2.15.12,13.69,13.69,0,0,0-4.33,1.28,12.45,12.45,0,0,0-3.25,2c-1.17,1.1-1.62,2.54-2.45,3.86a16.53,16.53,0,0,0-2,3.22,6.1,6.1,0,0,1-.4,1.16c-.33.48.08.29-.58.49a1.77,1.77,0,0,1-1.23-.2c-.58-.28-.94-.82-1.67-.63a3,3,0,0,0-1.31,1.16c-1.08,1.36-2,2.85-3,4.28a16.64,16.64,0,0,1-2.47,2.76,6,6,0,0,0-.92,1.15,5,5,0,0,1-1.47,1.29c-1.1.76-2.22,1.47-3.3,2.25s-2.27,1-3.24,1.81c-.45.34-.6.65-1.21.78a11.88,11.88,0,0,0-1.45.25c-.17.06-.32.43-.46.45s-.47-.24-.65-.26c-.79-.09-1.29.36-2.15,0-.46-.18-.93-.44-1-1s.7-.94,1.2-1.39a24.44,24.44,0,0,0,3.08-3.27,17.61,17.61,0,0,0,3.41-7.86c.21-1.24.57-2.6-.25-3.69a4.26,4.26,0,0,0-3.42-1.26c-1.26.16-2.18,1.51-2.94,2.39a20.23,20.23,0,0,0-2.79,4c-1.25,2.44-2.8,4.55-3.24,7.3-.21,1.28-.4,3.19-2.15,2.19a4,4,0,0,1-1.81-3.33,21.62,21.62,0,0,1-.06-5c.12-.92.46-1.6.5-2.54s.07-1.76.08-2.64c0-1.58-.38-1.89-1.95-2.17-1.76-.31-2,.94-3.16,1.81a13.51,13.51,0,0,0-2.81,3.47c-1,1.51-2,3-3.07,4.52-.91-2.43-.3-4.9-2.21-7a10.29,10.29,0,0,0-6-2.94c-1-.2-1.83,0-2.81-.16-.43-.08-1.5-.06-1.81-.32s-.65-1.44-.92-1.92c-1.17-2.12-3.46-2.59-5.74-2.58a55.25,55.25,0,0,0-8.32.78c-.45.07-1.23.37-1.66.16s-.12-1.1,0-1.66c.31-1.33.65-2.64,1.08-3.94.21-.65.47-1.3.64-2a9.32,9.32,0,0,0,.07-1.38c.06-.42.42-.79.52-1.24a8.5,8.5,0,0,0,.29-1.71,2.06,2.06,0,0,0-3.58-1.2c-.65.72-.68,2.06-1,3a7.38,7.38,0,0,0-.6,1.6c-.08.69.23,1-.09,1.67a17,17,0,0,0-2,7c0,.61.25.68-.17,1.22a2.27,2.27,0,0,1-1.28.66c-.56.15-1.16.18-1.74.28a9.84,9.84,0,0,0-2.12.25,3.4,3.4,0,0,0-1.25,1.49c-.19,1.26,1.74,1.14,2.44,1.2a6.5,6.5,0,0,1,1.89.16c.46.26.14,1,0,1.55a30.07,30.07,0,0,0-1.15,4.2,14.48,14.48,0,0,1,0,1.63c-.1.52-.3,1-.39,1.54-.25,1.54-.63,3.08-.83,4.63a24.63,24.63,0,0,0,.1,4.29c.07,1.34,0,2.76.73,3.94,1.22,1.92,3.42,2,5.45,1.36,2.56-.82,3.6-4.3,4.29-6.62a26.05,26.05,0,0,0,.84-4.38c.11-1,.78-3.66.1-4.3A6.14,6.14,0,0,0,431,678c-.72-.15-.24-.23-.66.2a3.26,3.26,0,0,0-.5,1.18c-.37,1.35-.17,2.82-.49,4.19a13.53,13.53,0,0,1-1,3.58c-.56,1.06-1,2.48-2.14,3.08a15.62,15.62,0,0,1-.22-2.82,23.81,23.81,0,0,1-.05-3.48c.34-2.25.89-4.52,1.35-6.76.42-2.07.81-4.22,1.42-6.24s3.07-2,4.75-2.43a28.16,28.16,0,0,1,6.31-1c.67,0,2-.19,2.42.43.59.81-.44,1.37-.65,2.08s.22,1.77.19,2.65a9.92,9.92,0,0,1-1.08,3.37,30.43,30.43,0,0,1-1.37,2.74,19.26,19.26,0,0,1-1.14,2.44,18.2,18.2,0,0,0-2.77,6.66c-.28,1.32-1.25,5,.52,5.71-1.52,2.19,2.8,2.17,3.89,2.13a4.93,4.93,0,0,0,4.46-2.73c1.11-2,1.33-4.54,1.72-6.74a26.56,26.56,0,0,0,.15-6.9,11.23,11.23,0,0,1,.05-3.66,5.64,5.64,0,0,0,.18-1.47c0-.46-.27-1.18-.06-1.63s-.17-.2.28-.38c.26-.11.73,0,1,.06.49,0,1,0,1.46.09a12.1,12.1,0,0,1,3.23.44c1.83.64,2.45,2.1,3,3.81a8.92,8.92,0,0,1,.78,2.9c0,1.18-.32,2.4-.43,3.58a51.33,51.33,0,0,1-1.46,6.79c-.28,1.22-1.15,2.94.41,3.45,1.34.43,2.82.68,3.81-.52,1.33-1.59,2.11-4,3-5.86,1.08-2.24,2.23-4.43,3.38-6.63a4.4,4.4,0,0,1,.56-1c.47-.46.46-.37.7.1.44.86.22,2.28.41,3.24a16.46,16.46,0,0,0,1.19,2.91,3.75,3.75,0,0,0,1.68,2.41,6.42,6.42,0,0,0,2.76.86,10.47,10.47,0,0,0,1.77,0c.75-.06,1-.12,1.54.4a7.25,7.25,0,0,0,3.07,1.94,11.18,11.18,0,0,0,3.64.37,15.41,15.41,0,0,0,6.91-2.3c1-.58,2.1-.91,3.09-1.49a30,30,0,0,0,2.95-2.06c2.09-1.57,3.64-3.56,5.56-5.29.9,1.9.48,4.68.49,6.74,0,1,0,2,0,3,0,.82-.29,2.27.18,3,.86,1.31,4.12,1,4.3-.63.24-2.23.58-4.39.95-6.61a52.4,52.4,0,0,1,3.77-13.3c1.81-3.91,3.9-7.17,8.29-8.26a10.2,10.2,0,0,1,3.1-.44,3.54,3.54,0,0,1,2.47,1.64,40.68,40.68,0,0,1,3.66,5.18,4.79,4.79,0,0,1,.78,2.67c-.11.59-1.2,1.46-1.61,2.07a18.66,18.66,0,0,1-1.5,2.06,6.72,6.72,0,0,0-1.28,2.51c-1.05,3-1.54,8.63,2.59,9.5a12.15,12.15,0,0,0,2.63.13,12.92,12.92,0,0,0,3.17,0,6.61,6.61,0,0,0,4-3.49c.74-2.07-.45-4.52-1.11-6.45-.4-1.18-.82-2.34-1.23-3.52-.31-.9-.6-1.31.12-2a12.19,12.19,0,0,1,6.42-2.83,9.47,9.47,0,0,1,3.5.55,15,15,0,0,0,3.41,0C547.42,671.37,547.12,671,546.8,670.7ZM482,677.2c.32,1,.32,1-1.5,2.78C481,679.06,481.52,678.14,482,677.2Zm-40.26,9.94a14.73,14.73,0,0,1-1.22,4c-.12.26-.43,1.07-.86,1.06-.68,0-.59-1.22-.55-1.57a37.09,37.09,0,0,1,2.67-8.41C442.45,682.58,441.87,686.35,441.78,687.14Zm90.1-2.08c-.55.59-1.48,1.63-2.37,1.61-1.06,0-1.23-1.36-1.3-2.17-.21-2.23,1.13-4.24,2.09-6.16a12.38,12.38,0,0,1,1.47,3.49C532.11,682.83,532.73,684.14,531.88,685.06Zm-109.94-25.5c-.06-.28.64-1.39.71-1.76.11-.54.17-1.1.26-1.64.26-1.7.44-3.41.63-5.11a36.27,36.27,0,0,0,.52-5,2.53,2.53,0,0,0-2.59-2.08c-1.11,0-1.91,1-2.58,1.72-.46.51-1,1-1.43,1.5a7.26,7.26,0,0,0-.85,1.75c-.51,1.06-1.35,1.95-1.89,3a18.84,18.84,0,0,0-1.79,3.9c-.4,1.54-.73,3.1-1.16,4.63-.2.74-.43,1.46-.64,2.19s-.2,1.51-.41,2.23a14.49,14.49,0,0,0-.66,1.78,14.86,14.86,0,0,1-.42,2.21,34.41,34.41,0,0,0-1.17,5c-.38,2.54-.33,5.84-2.44,7.64-1.08.92-2.32,1.64-3.4,2.56a21.56,21.56,0,0,1-4.05,2.75,13.28,13.28,0,0,1-4.06,1.79c-.6.08-1.21,0-1.82.08a2.81,2.81,0,0,1-2-.32c-.88-.49-1.36-1-1.16-2,.29-1.59,1.29-3.22,1.84-4.75,1-2.83,2.22-6,2.41-9,.06-.93-.07-1.77-1-2a5.44,5.44,0,0,0-2,0c-.66.24-1.3,1.43-1.54,2-.17.44-.4.79-.61,1.22s0,1-.2,1.43c-.09.21-.38.28-.5.46s0,.29-.12.53l-.64,1.22a6.82,6.82,0,0,0-.61,1.57c-.12.55.07,1.06-.1,1.57-.07.2-.33.34-.4.61s.21.4.18.55c-.08.39-.63.78-.78,1.2-.5,1.41-.11,3-1,4.34-.26.39-.64.7-.87,1.11a19.17,19.17,0,0,1-.88,1.83,16.58,16.58,0,0,1-2.59,2.64c-.67.6-.94,1-1.7.27a3.25,3.25,0,0,1-.8-1.81,20.61,20.61,0,0,1,.1-4.9c.28-3.65.88-7.28,1.52-10.88,1.27-7.09,2.83-14.17,3.22-21.38a3.5,3.5,0,0,1-1.51,0c-.43-.18-.43-.51-.93-.4-1.08.23-1.45,2-1.6,2.86s-.25,1.33-.45,2.1a4.47,4.47,0,0,0-.05,2,6.9,6.9,0,0,1,.32,1c0,.07-.48.47-.56.61a4.75,4.75,0,0,0-.44,2.17c-.1,1.21-.47,2.32-.6,3.5-.17,1.54-1,3-.75,4.57a3.09,3.09,0,0,1,.12,1.13c-.05.24-.3.46-.34.68-.1.48.08,1,0,1.5a22.72,22.72,0,0,1-1.15,4,31.23,31.23,0,0,0-.57,3.86c-.23,1.68.19,3.39-.07,5.07-.34,2.2-.88,5.67,1.6,6.8.47.21.93.55,1.41.71a5.59,5.59,0,0,0,2.23,0c1.38-.13,2.37-.13,3.5-1.07a20.94,20.94,0,0,0,2.61-2.46c.43-.5.76-1.06,1.17-1.58a5.38,5.38,0,0,1,.58-.69,6.08,6.08,0,0,1,1.34.5c3.15,1.16,6.7.48,9.75-.62a19.84,19.84,0,0,0,4.53-2.16,22.93,22.93,0,0,1,3.6-2.24,12.13,12.13,0,0,1,0,2.41,27.17,27.17,0,0,0-.52,2.69c-.19,1.8-.58,3.46-.89,5.23a18.52,18.52,0,0,0,0,2.47c0,.65-.36,1.22-.22,1.88.18.9.23.68,0,1.56a8.91,8.91,0,0,0,0,2.42c0,1.64-.55,3.22-.51,4.88,0,.75.29,1.49.25,2.24a13.75,13.75,0,0,1-.59,2.5c-.16.6-.49,1.16-.6,1.77a6.56,6.56,0,0,0-.2,1.42,2.37,2.37,0,0,0,1.62,1.1c.56,0,.7-.64,1.15-.82.67-.26,1.17.72,1.75-.25a7.36,7.36,0,0,0,.36-2.62c0-.71-.25-1.31-.17-2a16,16,0,0,0,.46-2.52c0-3.38.47-6.8.76-10.19a103.72,103.72,0,0,1,1.55-10.56c.64-3.3.74-7.06,2.08-10.17.74-1.7,2.17-3.09,3.17-4.64s2-3,2.89-4.6a31.6,31.6,0,0,0,2.38-5.35C421.36,663.19,422.3,661.39,421.94,659.56Zm-4.38,9.3-.42-.22c.1-.31.2-.14.52,0Zm1.44-12.3a14.25,14.25,0,0,1-.61,2c-.16.64-.13,1.29-.25,1.94a25.84,25.84,0,0,1-1.3,3.93c-.36,1-.39,2.54-1.13,3.37-.4.44-.78.6-1,1.2-.13.4,0,1.67-.41,1.75-.67.14.11-3.08.18-3.45.3-1.56.73-3.08,1.13-4.62a43.51,43.51,0,0,1,3.1-9.11A6.92,6.92,0,0,1,419,656.56Zm-74.28,14.52c-1-.73-2.54-.47-3.64-.2a12.28,12.28,0,0,0-3.63,1,28.47,28.47,0,0,0-3.12,1.9A27,27,0,0,0,331.7,677c-.31-.88-.47-2-1.4-2.4-1.12-.48-2.23-.64-2.92.42s-1.06,2-1.76,3-2,1.93-1.44,3.09c-.85.16-.81.43-1.06,1.15a5,5,0,0,1-1.36,1.72,30.88,30.88,0,0,1-3.51,3.54c-1,.74-2.42,2-3.23.59s-.47-3.38-.44-5a49.62,49.62,0,0,1,.63-5.31c.18-1.45,1-3.59-.06-4.81-3-3.39-5.66,3.16-7.41,4.65-.81-3-1.17-6-3.93-7.88-1.34-.91-3-.71-4.52-1-1.8-.38-3.36-1-5,.26-.64-2.34-6.85,1.31-7.79,2.33-.42.45-1.47,1.26-1.68,1.84-.26.76.38,1.11.68,1.74.86,1.82-1.29,2.13-2.31,2.9a20.08,20.08,0,0,0-3.19,3.26,7.12,7.12,0,0,1-1.51,1.29,22.5,22.5,0,0,0-2.08,2.28c-.6.64-1.32,1.21-1.87,1.89s-.95,1.55-1.57,2.23a17.23,17.23,0,0,1-3.3,3.2,42.05,42.05,0,0,1,.72-6.89c.19-1.13.13-2.3.42-3.41a36.29,36.29,0,0,0,.87-3.88c.39-2.53.59-5.08.89-7.62.1-.84.32-2.16-.46-2.8a3,3,0,0,0-2.25-.15c-1.74.34-1.43,2.09-1.71,3.5a19.8,19.8,0,0,1-2.46,6,5.67,5.67,0,0,0-1,2.27c-.06.61,0,.78-.29,1.31a4.18,4.18,0,0,0-.67,1.29c-.07.26.13.22,0,.52s-.41.41-.57.6a6.45,6.45,0,0,0-.86,1.09,3.53,3.53,0,0,0-.45,1.06c-.06.28,0,.56-.08.83l.05.45-.3.21c-.52,1-1.06,2.11-1.52,3.22a27.57,27.57,0,0,1-1.27,3.17,4.12,4.12,0,0,1-.81.86c-.2.18-.46.55-.72.59-.47.09,0,.13-.39-.11-.77-.52-.46-2.32-.48-3.07a51.94,51.94,0,0,1,.7-7.34c.27-2.38.59-4.77,1-7.13.15-.83.67-2.3,0-3-.51-.59-1.57-.44-2.24-.17-1.81.71-1.5,3-1.74,4.59a20,20,0,0,0-.16,2.77,30.57,30.57,0,0,1-.48,3.05,26.5,26.5,0,0,0-.63,3.63c0,.47.22.93.18,1.4a11.16,11.16,0,0,1-.46,1.38,7.79,7.79,0,0,0,0,1.87,11.49,11.49,0,0,1-.23,1.65,10,10,0,0,0,.55,3.72c.23.82.47,1.32,1.4,1.31a12.2,12.2,0,0,0,3.55-.77c2.21-.76,3.61-3.55,4.61-5.52.63-1.24,1.21-2.51,1.79-3.78.36-.78.86-2.9,2-2.86a23.65,23.65,0,0,1-.62,4.52c-.3,1.41.19,2.82-.07,4.25a35.5,35.5,0,0,0-.8,4.21c0,.53.21.5.21.87a1.68,1.68,0,0,1-.45,1c-.43.62-.88,1.23-1.28,1.85-.11.17-.32.32-.39.52s0,.56-.09.74c-.21.41-.74.66-1,1.11a11,11,0,0,0-.65,1.59,6.59,6.59,0,0,1-.82,1.25,14.82,14.82,0,0,0-.54,1.63,12.9,12.9,0,0,0-1,2,17.36,17.36,0,0,1-.26,1.76,1.52,1.52,0,0,0,.28,1.77c-.89.47-1.14,1.62-2.22,1.82.46.85,0,1.13-.32,1.86a10.59,10.59,0,0,0-.38,1.91c-.5,1.89-1.09,3.77-1.57,5.67s-.94,7,2.16,6.84c.77-.05,1.49-.21,2.27-.24a2.78,2.78,0,0,0,1.71-.58c1.24-1,1.9-2.94,2.59-4.33a4.07,4.07,0,0,0,.58-1.61c0-.42-.24-.22-.08-.72.08-.23.42-.46.56-.68.91-1.41.78-3.41,1-5s.88-3.15,1.1-4.77c.1-.71.07-1.43.12-2.14l-.15-.3c.12-.2.23-.4.34-.6a4.32,4.32,0,0,0,.14-1.25,10.92,10.92,0,0,0,.35-1.88c-.07-.81-.24-.71-.06-1.51.4-1.84.69-3.71,1.24-5.52,1-3.3,3.66-5.73,5.79-8.31,2.4-2.9,4.5-6,7.11-8.7.73-.76,1.48-1.51,2.22-2.25.44-.45,1.38-1.83,2.05-1.76,1.51.15-.14,3.72-.35,4.51a19.64,19.64,0,0,0-.16,2.63c-.09.68-.62,1.27-.73,2a15.63,15.63,0,0,0,0,2.37c0,.91-.07,1.29.53,2l.34-.5c.38,1,1.38.91,2.26.88a4,4,0,0,0,3.11-1.37,3.53,3.53,0,0,0,.95-1.12c.08-.21,0-.53.1-.71s.4-.37.53-.57A12.5,12.5,0,0,0,293,687a15.79,15.79,0,0,0,0-8.16c-.36-1.17-1.25-2.29-1.19-3.55,0-.58.16-.74-.22-1.26a12.67,12.67,0,0,0-1.52-1.5c3.54-1.77,7.31-3,11-.62a4.86,4.86,0,0,1,1.33,1.73,10.08,10.08,0,0,1,.82,2.09c.07.39-.05.71,0,1s.29.82.37,1.22c.18.92.39,1.56-.2,2.31-1.19,1.51-.49,3.65-1.27,5.35a10,10,0,0,0-.77,1.93,11.76,11.76,0,0,0-.75,2.43c0,.44.27.89.26,1.3s-.27.44-.49.85a4,4,0,0,0-.18,2.57c.3.66.92.55,1.54.42s1.07-.61,1.79-.67c1-.09,1.21-.3,1.65-1.22s.89-2.18,1.36-3.24c.93-2.07,1.71-4.67,3.1-6.46,1.05.89.59,1.65.44,2.77a6.51,6.51,0,0,0,.64,3.47c1,2,4.09,2.44,6,1.85a14.72,14.72,0,0,0,5.93-3.47,17.26,17.26,0,0,0,1.24-1.32c.4-.47.54-1.08.88-1.51.21-.26.61-.36.9-.69s.75-1,1.14-1.48c.71,1.21.43,1.72.15,2.94a28.41,28.41,0,0,0-.31,3.7c-.1,1.16-.21,2.33-.3,3.49,0,.66-.4,2.16.06,2.73s2,.35,2.64.33a1.7,1.7,0,0,0,1.81-1.13c1-1.9,1.15-4.21,1.46-6.31A37.87,37.87,0,0,1,334,682.3a24.05,24.05,0,0,1,2.79-6.2,9.78,9.78,0,0,1,4.24-3.19c.94-.34,1.94-.44,2.87-.78s1.65-.32,2.08-1C345.67,671.1,345,671.31,344.72,671.08ZM262.1,717.52c-1,1.93-1.09,4.39-1.44,6.49a26.64,26.64,0,0,1-.86,3.18,4.75,4.75,0,0,1-1.7,2.45,26.39,26.39,0,0,1-.1-2.81,12.48,12.48,0,0,1,.82-2.78,4.25,4.25,0,0,0,.32-1.26c0-.18-.05-.37-.07-.55s0-.35.26-.41a9,9,0,0,0,.56-2.07c.18-.85.63-1.58.79-2.45a5.63,5.63,0,0,1,.76-2.45,9.09,9.09,0,0,1,.72-1.1c.4,0,.19.33.26.57A5,5,0,0,1,262.1,717.52Z" fill="#231f20"/></svg>
