<?xml version="1.0" encoding="utf-8"?>
<!-- Generator: Adobe Illustrator 21.1.0, SVG Export Plug-In . SVG Version: 6.00 Build 0)  -->
<svg version="1.1" id="Layer_1" xmlns="http://www.w3.org/2000/svg" xmlns:xlink="http://www.w3.org/1999/xlink" x="0px" y="0px"
	 viewBox="0 0 4000 3733.1" style="enable-background:new 0 0 4000 3733.1;" xml:space="preserve">
<style type="text/css">
	.st0{fill:#A3B7D6;}
	.st1{fill:#E9DD79;}
	.st2{fill:#A6A6A6;}
</style>
<title>applepicking</title>
<rect class="st0" width="4000" height="3733.1"/>
<g>
	<path d="M2279,1654.1c2.9-2,4.2-2.5,5-3.5c11.1-13.6,17.9-13.7,28.3-0.1c1,1.3,2.4,2.9,2.4,4.4c0.3,14-0.4,27.8-12.9,37.5
		c-10.3,8-33.3,6.7-43.8-2.1c-17.2-14.5-26.3-33.6-33.8-54.3c-21.4-58.9-23.9-120.1-23.5-181.7c0.3-51.1,6.1-101.9,10.5-152.7
		c0.1-1.5-0.5-3.1-1.1-6c-94.7,67.6-200,98.7-316.6,99.7c2.6,5.2,4,8.7,5.9,11.8c12.3,19.4,23.5,39.6,29.1,62
		c3.8,15.4,5.3,31.4,7.8,47.2c4.3,27.9-1,54.8-7.1,82c-6.9,30.6-18.2,58.7-38.3,82.5c-11.1,13.2-26.7,20.6-44.3,21.7
		c-18,1.1-33.8-14.6-34.9-34.8c-0.8-15.5-0.7-31.2,0.2-46.7c2.4-41,6-81.9,8.3-122.9c1.6-29.8,1.5-59.7-2-89.4
		c-1.6-13.2-5.1-26.4-9.6-39c-9-25.2-28.6-38.8-54.3-42.2c-34.1-4.5-68.1-1.8-101.2,8.2c-1.1,0.3-2,1.3-3.9,2.5
		c3.2,4.8,6.4,9.3,9.2,14.1c19.4,33.5,32.7,68.9,30.6,108.3c-0.9,17.6-4.3,35-6.6,52.5c-3.2,24.6-11.1,48-20.8,70.5
		c-10.9,25.3-21.1,51.3-38.1,73.5c-12.5,16.3-28.6,28.2-48.6,32.5c-16.8,3.6-26,0.7-32.6-20.6c-2.2,5.2-4.1,9.2-5.5,13.4
		c-9.8,28.5-25.5,53.6-43.3,77.7c-8.9,11.9-19,22.3-29.4,32.6c-13.8,13.7-30.9,21.3-49.1,24.9c-39.5,7.8-70.7-12.3-88-42.9
		c-15.1-26.8-22.7-56-26-86.3c-4.8-43.9-5.8-88-4.9-132c0.7-34.5,3.4-69.1,5.9-103.5c2.6-34.9,6.1-69.8,9.2-104.7
		c0.3-3.3,0-6.7,0-10.7c-2.2,0.2-4-0.2-5.4,0.5c-27.4,11.7-55.1,22.9-82,35.6c-20.2,9.6-39.5,21.1-58.9,32.2
		c-7.9,4.5-15.2,10-22.6,15.2c-3.6,2.5-6.5,5.2-5.4,10.7c1.2,6.3-2.7,10.7-8.1,13.5c-13.9,7.1-28.9,9.2-44.1,7.9
		c-8.9-0.7-15.2-10.3-11.8-18.1c3-6.8,7.6-14.4,13.6-18.3c21.8-14,44.2-27,66.8-39.7c43.4-24.3,87.5-47.3,135.2-62.4
		c4.1-1.3,7.7-4.6,11.8-5.3c15.8-2.7,20-13.6,21.9-27.6c6.4-47.1,13.1-94.2,20.3-141.2c5.3-35,11.5-69.9,17-104.9
		c2-12.8,3.9-25.8,4.3-38.7c0.3-8-1.5-16.3-3.4-24.2c-1.7-7.1-3.6-14.2,2.9-19.1c8.4-6.4,17.6-11,28.9-6.2
		c8.3,3.5,10.3,10.5,10.1,17.9c-0.4,14.7-1.4,29.4-2.8,44c-1.3,13.7-3.9,27.4-4.9,41.1c-2.5,35.5-12.8,69.7-18.2,104.7
		c-5.8,37.6-11.6,75.2-17.4,112.7c-1,6.1-2,12.3-3.5,21.1c7-1.9,11.2-3.5,15.5-4.1c30-4.2,58.5-15,88.9-18.1
		c31.6-3.2,63-5.5,94.3-0.9c23.2,3.4,45.7,10.1,61.2,30.2c7.5,9.8,17.3,10.8,29.1,9c27.3-4,54.7-8.2,82.2-9.3
		c18.3-0.7,37.1,2.2,55.1,6.3c28.5,6.5,49.1,24.1,61.6,51c1.3,2.8,4.3,6.3,6.9,6.6c14.9,1.7,29.9,2.7,45,3.4
		c13.8,0.7,27.6,1.8,41.4,1.2c31.5-1.3,62.5-6,93.3-13.5c26.7-6.5,51.9-16.3,76.9-27c32.7-14.1,62.9-32.5,91-54.4
		c3.1-2.4,6.3-4.5,9.4-6.8c7.6-5.7,11.4-12.4,12.4-22.7c2.5-26.7,6.9-53.1,10.9-79.6c3-20.1,6.3-40.1,10-60.1
		c5.4-28.9,11.7-57.6,16.8-86.6c3.2-18.3,6.2-36.8,7-55.3c0.6-12.8,9.2-21.5,23.1-18.9c11.6,2.2,19.9,8.1,22.5,20.2
		c0.7,3.4,1.7,6.8,1.9,10.2c1,25.8,1.7,51.7,2.5,77.5c0.2,6.4,0.3,12.9,0.6,19.3c0.1,2.6,1,5.2,0.8,7.7c-2,21.5-3.8,42.9-6.4,64.3
		c-3.1,25.2-13.9,47.8-24.4,70.6c-6.8,14.7-16.3,27.3-25.9,39.9c-5.2,6.8-7.5,14.2-8.5,22.6c-2.8,23.2-6.6,46.2-9.1,69.4
		c-1.2,11.5,0.1,23.2-0.5,34.8c-0.9,17.3-3,34.5-3.6,51.8c-0.6,15.9,0.1,31.8,0.3,47.8c0.7,39.5,4,78.7,13.9,117
		c4.3,16.6,11.4,32.6,17.9,48.5C2271.3,1645.7,2275.4,1649.4,2279,1654.1z M1546,1630.6c1-0.1,2-0.3,2.9-0.4
		c3.4-12.9,6.6-25.8,10.2-38.7c6.7-24.1,14-48,20.5-72.2c5.8-21.7,10.8-43.6,16.3-65.4c7.2-28.4,8-57.2,7.9-86.3
		c0-11.3-2.4-20.3-12.4-26.6c-4.7-3-7.2-7.5-5-13.4c3.2-8.4-0.8-14.4-7.2-18.9c-5.2-3.7-10.9-6.9-16.8-9.3c-21-8.6-43.3-9-65.2-7.9
		c-45.9,2.3-90.6,11.7-134.4,25.4c-9.3,2.9-12.7,8-13.7,16.2c-1.6,12.5-3.1,24.9-4.4,37.4c-4,37.4-9,74.8-11.4,112.3
		c-2.2,34.5-2,69.1-1.7,103.7c0.4,46.7,2.9,93.4,17.2,138.4c4.9,15.3,10.9,30.1,21.1,42.7c20.9,25.9,49.1,25.1,69.9,9
		c25.3-19.5,42.3-45.3,57.4-72.8c12.2-22.1,20.6-45.6,26.6-70c1.4-5.6,4.4-10.8,6.3-15.4C1539.9,1618.6,1542.8,1624.8,1546,1630.6z
		 M1855.3,1416.4c0.6,10.9,1.7,20.3,1.6,29.7c-0.3,20.7-0.9,41.3-1.9,62c-1.4,28.5-3.4,56.9-5,85.3c-0.9,15.5-2.1,31-2.1,46.6
		c0,9-0.4,18.9,8.8,26.8c2.8-3.4,5.4-6.1,7.6-9.1c11.4-15.5,19-33.1,24.4-51.1c11.6-38.5,15-77.9,5.8-117.6
		c-4.6-19.9-11.3-39-22.3-56.3C1868.4,1426.8,1865.1,1419.7,1855.3,1416.4z M1640.1,1405.4c-1.4,4.5-2.2,6.9-2.8,9.3
		c-6,28.3-11.3,56.7-18.1,84.9c-10.5,43.7-22,87.2-32.8,130.8c-1,4.1-0.1,8.7-0.1,14.9c3.1-2.4,4.8-3.1,5.6-4.4
		c15.9-24.2,29.4-49.8,39.9-76.7c11.7-30,17.2-61.5,19.5-93.5c1.4-20-2.3-39.6-7-59C1644.1,1410.1,1642.6,1408.9,1640.1,1405.4z
		 M2267.2,1167.7c12.2-33.2,17.5-57,11.5-73.7C2274.6,1120.4,2270.9,1144,2267.2,1167.7z"/>
	<path d="M2382.8,1598c1.2-13.8,4.9-16.9,17.3-18c17.8-1.6,32.9,6.4,48.4,12.5c18.5,7.2,36.4,15.7,54.8,23.1c4.9,2,10.5,2.3,17,3.6
		c-2.5-14.6-9-25.5-15.1-36.2c-7.3-12.7-15.8-24.8-23.9-37c-18-27.4-36.3-54.7-54-82.3c-12.4-19.4-20.4-41-25.9-63.3
		c-1.8-7.5-0.8-16.6,1.6-24.1c6.9-21.2,18.1-40.4,34.8-55.3c17.3-15.6,35-31.1,54.4-43.9c13-8.6,28.9-13.4,44.1-18.1
		c15.4-4.7,30.2-0.6,42.8,9.3c3.9,3,8.1,7.6,8.9,12.1c2.4,12.9,2.2,26.2-5.2,37.7c-6.5,10.1-17.4,14-28.8,15.3
		c-8.6,1-12.3-3.3-10.5-11.7c1.4-6.3,4.6-12.2,6-18.5c0.9-3.8,1.4-9.5-0.7-11.8c-2.1-2.3-8-2.8-11.7-1.9c-16.3,3.9-30,13-41.7,24.7
		c-14.6,14.6-30.4,28.1-42,45.7c-9.8,15-14,30.2-8.9,47.8c6.5,22.3,18.3,41.8,30.9,60.9c16.9,25.6,34.5,50.7,50.9,76.6
		c12.2,19.3,23.1,39.5,34.3,59.5c3.4,6,6.1,12.5,8.3,19c2.8,8.3-0.2,13.3-7.5,18.4c-27,18.7-54.2,12.3-81.2,0.8
		c-15.4-6.6-30.1-15-45.3-22C2418,1613,2400.7,1605.8,2382.8,1598z"/>
</g>
<path class="st1" d="M937.9,3473.8c57.3-0.9,132-43.2,185.6-61.8c71.7-24.8,143.4-49.6,215-74.5c269-93.5,537.2-189.1,801.6-294.7
	c64.7-25.9,64.3-129.3-10.6-141.2c-50.5-8-98.1-4.8-142.8,10.7c-381.5,104.6-763.1,209.2-1144.6,313.8c-31.6,8.7-50.3,44.2-48.7,75
	C797.2,3375.9,851.3,3475.1,937.9,3473.8z"/>
<path class="st2" d="M2221.5,3016.6c90-22.1,180.1-43.9,270.9-61.3c3.6,0.4,7.3,0.5,11.4,0.1c128-13.8,260-20.9,389-38.7
	c115.8-2.1,231.6-3.2,345.5-26.2c251.6-50.8,485.8-232.8,574.5-477.7c21.7-59.9,31.9-118.5,31.7-174.3
	c13.2-51.1,7.1-100.9-27.7-146.5c-18-45.1-44.7-86.3-79.4-121.9c-4.3-67.1-52.5-84-107.8-79.2c-28.6-14.9-59.8-27.4-93.7-37.3
	c-264.3-76.9-577.2-24.5-785.7,158.4c-128.3,112.6-235.6,255.4-341,388.9c-116.2,147.2-221.6,302.3-297.9,474.2
	c-17.3,38.9,20.7,70.7,52.3,65.2c0.5,2.5,1.2,5.1,2.1,7.5C2148.6,2977.2,2176.9,3027.6,2221.5,3016.6z M2902.1,2820.3
	c-18.3,2.2-36.6,4-54.9,6.1c-45.6,0.8-91,2.2-136.4,5.7c111.4-36.4,221.9-75.5,330.7-119.4c128.5-51.9,254.4-110.5,375.5-177.8
	c44.8-24.9,93-50.9,140.1-79.5c-87.5,78.6-184.5,146.5-280.9,213.6C3157.2,2751.7,3047.8,2803,2902.1,2820.3z M3634.7,2039.8
	c1.9,0.6,3.7,1.2,5.6,1.8c-3,8.4-7.1,17.2-12.2,26.2c-40.2,23.1-79.7,53.8-116.8,72.1c-158,77.9-322.7,142.7-481.3,220
	c-145.5,70.9-289.3,145.4-431.1,223.5c-21.2,11.7-42.5,23.4-63.7,35.2c108.4-104.7,227.6-197.7,359-278.4
	c116.7-71.7,238.3-135,360.4-197.1c23.1-11.8,151.7-83.3,255-123.9C3552.1,2021.5,3594,2028.2,3634.7,2039.8z M3395,2292.6
	c-7.7,5.3-15.5,10.7-23.2,15.9c-111.3,74.9-229.6,138.7-347.6,202.2c-194,104.5-390.9,208.8-601.2,274.5
	c162.7-111,351.9-195.7,521.5-281.4c119.1-60.2,239.5-117.8,361.1-172.8C3334.9,2317.7,3364.9,2305.2,3395,2292.6z M3638.6,2282.2
	c-54.6,46.1-118.4,84.8-179.2,122c-129.3,79.1-265.5,145.7-405.2,204.2c-24.5,10.2-49.1,20-73.7,29.7
	c210.9-109.1,436.3-219.6,609.2-382.5c35.4-33.4,70-72.6,96.9-115.9c12.4-6,24.8-9.2,35.7-6.1
	C3722.7,2184.8,3684.5,2243.4,3638.6,2282.2z M2870.9,2247c-61.2,36.7-120,75.9-176.5,117.6c47.2-42.7,96.6-83,148.9-120
	c95.5-67.5,211.1-130.7,333.5-173.2C3071.1,2127.5,2968.5,2188.5,2870.9,2247z M3623.9,2557c-95.9,115.3-222.4,197.2-365.9,235.2
	c49.8-31.6,97.7-66.7,145.8-101.1c59.4-42.4,181.1-125.9,282.7-223.8C3667.7,2499.7,3646.4,2530,3623.9,2557z M2824.9,2068
	c130.7-108.8,297-154.5,465.1-154.6c58.6,0,124.6,4.8,188.2,19c-241.6-0.4-477.8,91.8-674.7,228.1
	c-103.6,71.7-196.6,155.3-282.5,246.2C2613.8,2287.8,2710.4,2163.3,2824.9,2068z"/>
<path d="M794.2,3514.4c39.5-5.9,66.2-36.2,81.4-70.7c6.9,8.3,14.3,15.7,22.3,21c29,19.3,64.1,2.8,94.3-6.9
	c46.3-14.9,89-36.2,133.2-56.1c50.7-22.8,105.2-31.3,158.7-44.8c77.6-19.6,152.8-45.5,227-74.7c4.7,1.9,9.5-0.7,11.6-4.7
	c18.4-7.3,36.7-14.7,55-22.4c39.4-16.6,78.8-33.4,118.8-48.7c1,0.6,2.1,1.1,3.1,1.7c6.6,3.6,12.3-1.8,12.8-7.6
	c11.4-4.2,22.8-8.4,34.3-12.2c40-13.4,81-22.2,121.6-32.7c0.8,0.4,1.5,0.7,2.3,1.1c5.6,2.6,10.4-0.7,12.3-5c7.3-2,14.7-3.8,22-6
	c103.5-30.9,190.6-99.9,295.7-126.6c6.4-1.6,6.9-8.6,4.2-13.4c19.6-10.1,39.5-19.2,59.6-27.4c96.1-17.1,192.7-35.1,284.1-67.4
	c169.5-18.6,344.8-11.4,512.7-28.6c261.7-26.9,575.1-143.6,687.1-403.4c49.5-114.8,86.4-273.9,48.5-397.2
	c-18.2-59.2-65.6-104.1-109.6-145.2c-50.1-46.8-103.3-69-170.8-77.7c-132.3-17.1-269-14.7-398.7,18.2
	c-140.6,35.6-259.7,112.3-367.9,207c-126.7,111-246.1,232.1-357.5,358.3c-58.7,66.5-114.9,135.2-167.7,206.4
	c-47.1,63.4-90.9,128.5-111.2,205.7c-6.7,6.6-13.8,12.6-21.2,18.2c-95.2,40.3-193.1,73.5-293.7,97.5c-56.2,13.4-113,23.9-169.7,35
	c-3.9-1.7-7.9-0.5-10.6,2.1c-43.3,8.6-86.4,17.8-129.1,29.3c-205.1,55.2-409.4,117.1-612.6,179.4c-4.5-3.1-9.6-0.7-11.9,3.7
	c-7.8,2.4-15.5,4.7-23.3,7.1c-21.6,6.6-42.1,9.7-44.2,35.5c-1,12.7,1.5,26.8,5.8,41.1c-83.9-18.6-170.4,58-123.5,146.1
	C701.1,3489.4,747,3521.4,794.2,3514.4z M2387.1,2589.4c94.8-92,202.1-170,311-244.4c110.8-75.7,221.8-156,344-212.5
	c114.2-52.8,236.5-85.2,359.9-107.8c55.7-10.2,111.8-18.8,168-25.7c30-3.7,62-5.3,91.3-0.5c17.8,8.4,34.8,18.2,49.7,30.1
	c-314-16.9-583.9,182.6-867.3,288.9c-144.9,54.3-263.4,134.5-379.2,236.7c-82.7,72.9-165.1,146.7-243.8,224.1
	C2272.2,2711.9,2326.7,2647.9,2387.1,2589.4z M2360.3,2591.2c12.1-15.3,24.3-30.6,36.4-45.9c82.9-104.3,160.7-218,253.4-313.8
	c90.8-93.8,222.4-152,338.6-207.5c55.2-26.4,111.2-50.9,168.2-73c68.9-26.7,139-53.6,214.2-43.8c71.4,9.3,143,35.5,210.3,60.2
	c8.6,3.2,17.6,6.3,26.6,9.6c-5.2,0.2-10.4,0.5-15.7,1c-131.2,12.6-264.5,37.3-390.8,75.1c-135.8,40.6-256.5,105.1-374.3,183
	c-131.9,87.2-265,174.7-385,278.2C2413.9,2538.9,2386.7,2564.6,2360.3,2591.2z M2465,2578c117.6-104.5,236.8-187.7,384.8-243.2
	c286-107.3,561-313.9,880.1-286.5c-12.7,20.8-26.7,40.8-41.6,59.8c-28.3-5.4-61.6-1.8-87.5,7.5c-52.4,19-101.8,49.1-151.4,74.4
	c-63.7,32.5-127.4,65-191.2,97.5c-121.7,62-243.3,124-365,186.1c-258.7,132-517,266.4-754.5,434.4c-1.5,1.1-2.4,2.4-3,3.8
	c-0.5-0.8-1-1.6-1.5-2.3c1.6-4.4,0.3-9.6-4-11.4C2234.3,2784.1,2349.6,2680.5,2465,2578z M2155.7,2931.1c-2.7,0-5.2-0.1-7.8-0.3
	c-1.3-2-2.6-4.1-3.9-6.1c1.6,0,3.3-0.4,4.9-1.5c379.6-268.6,810.1-462.8,1223.1-673.3c50.4-25.7,100.9-51.5,151.3-77.2
	c32.7-16.7,106-58.7,155.1-52.4c-28.3,34.1-60.3,64.9-96.3,91.6c-60.3,44.7-129.1,76-191.3,117.9c-122,82.4-224.5,191.8-353.7,263.8
	c-136.8,76.3-295.5,109.7-441.7,163.7c-146.1,54-289.3,115.7-432.1,177.7C2161.8,2932.8,2159.2,2931.1,2155.7,2931.1z
	 M2179.3,2962.8c1.3-5-0.8-11.2-6.8-11.6c-0.1,0-0.1,0-0.2,0c149.9-65.1,300.2-129.8,453.9-185.5c144.9-52.5,300.8-86,434.8-164.5
	c132-77.3,236.9-191.8,366.2-273.1c67.6-42.5,139.8-76.4,200.5-129.2c25.6-22.3,48.6-47,69.6-73.2c11.1,5.7,19.8,15.5,24.8,31.2
	c15.4,48.3-36.1,111.6-66.8,146.7c-35.2,40.3-77.8,73.6-122.6,102.5c-91.7,59.2-193.8,101.2-293.9,143.6
	c-109.5,46.5-219.4,92.1-329.1,138.2c-121.2,50.9-242.4,101.9-363.7,152.5C2427.2,2890.1,2306.9,2940.9,2179.3,2962.8z
	 M2451.1,2899.1c23-9.2,45.9-18.5,68.8-28c126.7-52.5,253-106,379.4-159.1c117.9-49.5,236.1-98.5,353.7-148.5
	c105.2-44.7,213.2-89.3,307.9-154.2c74.5-51,157.2-125.9,181.8-216.6c11.8-43.5-6.8-68-36-79.4c12.5-16.4,24.5-33.3,35.5-50.9
	c4.2,6.4,8.1,13.1,11.2,20.5c2.9,6.8,5.3,14,7.3,21.3c14.9,113.4-67.2,233.8-132.9,316.5c-79.4,100-166.5,206.6-284,261.8
	c-116.3,54.7-239.1,99-367.1,114c-67,7.8-134.5,11.3-201.1,22.6c-58.9,10-113.9,28.6-169.2,50c-4.1,0.6-8.1,1-12.2,1.6
	C2546.2,2878.3,2498.4,2887.8,2451.1,2899.1z M3722.5,2491.6c-62.3,129.5-188.5,220.3-315.5,280.9
	c-124.2,59.3-258.9,84.8-395.4,95.4c-131.6,10.1-267,8.9-400,19.1c0.5-0.2,1.1-0.4,1.6-0.6c69.7-10.3,140-16.8,210.4-19.2
	c75.1-2.6,150.5,2,225.4-4.1c131.3-10.6,274.6-54.1,392.8-111.8c52.9-25.8,95.4-65.1,137.3-105.5c47.1-45.4,94.7-91.4,131.2-146
	c15.3-22.9,28.2-47.8,39-73.9C3741.6,2448.2,3732.8,2470.3,3722.5,2491.6z M3702.7,2478.1c-34,54.3-80,99.9-125.7,144.3
	c-51.7,50.2-101.7,95.7-168.8,123.8c-118.4,49.7-249.7,92.1-378.2,99.8c-115.1,6.9-228.5,4.2-342.6,13.9
	c26.6-8.6,53.7-15.9,81.8-21.1c69.1-12.6,139.4-15.8,209-24c134.2-15.7,265.3-62.2,386.2-121.9c113.8-56.2,199.7-162.3,277.3-260.1
	c53.7-67.6,108.2-148.4,129.1-235.2c-0.3,26.7-2.5,53.1-4.6,76.9C3759.7,2346.2,3741.2,2416.6,3702.7,2478.1z M2373.6,2491.6
	c92-107.4,190.7-209,293.1-306.6c102.8-97.9,210.7-195.8,342.6-252.5c120.8-52,253.7-69.5,384.5-65.6c68.1,2,150.1,3.1,212.8,32.9
	c60.2,28.6,129.2,97.1,160,156c26.9,51.4,28.3,114.7,23.1,174.1c1-38-1.5-75.6-7.6-111.3c-1-6-2.5-11.5-4-17.1
	c-8.3-68.2-50.8-107.5-110.9-120.2c-40.9-20.3-86.9-34.3-129-48.3c-63.4-21.1-131.2-45.4-198.8-46.6
	c-65.5-1.1-128.3,24.1-188.4,47.4c-129.4,50-254.7,112.2-374.8,181.5c-142.7,82.4-231.8,215-332.5,341.7
	c-102.8,129.3-205.5,258.6-308.3,387.8C2175.2,2711.5,2285.1,2594.9,2373.6,2491.6z M1857.9,2973.1c74.2-20.3,146.9-45.3,218.2-74.5
	c1,0.8,2.2,1.4,3.6,1.6c0.7,0.1,1.4,0.1,2.1,0.2c-0.3,2.9,0.6,5.8,2.7,7.7c-2.3,1.4-4.2,3.6-4.4,6.1c-0.1,0.7-0.1,1.4-0.2,2.2
	c-0.6,5.8,2.9,9.8,8.3,10.6c0,0,0.1,0.1,0.1,0.1l-0.9,5.1c-0.9,5.1,2.4,9.5,7.3,10.7c0.5,0.1,0.9,0.2,1.4,0.3
	c-0.9,4.8,1.4,9.9,7,10.8c0.1-0.1,0.2-0.3,0.3-0.4c-0.7,4.5,2.2,10.3,7.3,10.7c1.5,0.1,2.8,0.2,4,0.2c1.3,1.6,2.5,3,3.8,4
	c-1.5,4.3,0.9,9.7,5.3,11.3c-1.7,4.6,0.7,10.1,5.7,11.8c-1.6,5.5,2.1,10.8,7.7,11.4c0.7,3.2,3.4,5.9,6.6,7.3
	c0.2,2.8,1.7,5.3,4.2,6.8c-31.4,11.7-61.5,25.9-91.3,41.1C1985.8,3041.1,1924.2,3002,1857.9,2973.1z M1796.6,2988.9
	c11-2.6,21.8-5.7,32.7-8.4c0.4,0.3,0.7,0.6,1.2,0.8c68.7,27.2,131.4,67.7,202.1,89.1c-21.1,10.8-42.2,21.5-63.9,31.3
	c-31.8,14.4-64.8,25-98.3,34.3c-75.4-35.1-150.2-71.1-219.6-117.1C1699.5,3009.4,1748.2,3000.2,1796.6,2988.9z M1495.4,3053.4
	c43.1-11.6,86.6-20.8,130.2-29.5c68.5,47.1,142.3,84.2,217.3,119.5c-44.7,11.7-89.7,22.5-133.2,38.3c-3.9,1.4-7.8,3.1-11.7,4.5
	c-81-43.5-163.7-83.5-248-120.2C1465.2,3061.9,1480.2,3057.5,1495.4,3053.4z M1423.2,3073.6c0.7,0.7,1.5,1.3,2.6,1.8
	c84.9,36.4,168,76.4,249.6,119.7c-54.2,21.2-107.4,44.7-161.3,66.6c-68-55.7-139.6-106.5-214.5-152.6
	C1340.8,3097,1382,3085.1,1423.2,3073.6z M1276.9,3115.7c0.5,0.5,1,1.1,1.7,1.5c75.6,45.7,147.4,96.5,215.9,152.1
	c-12.4,4.9-24.9,9.9-37.4,14.6c-46.3,17.2-93.1,31.1-140.2,43.8c-0.4-0.3-0.6-0.6-1-0.8c-84.8-42-164-92.8-237.8-151.9
	C1144.3,3155.1,1210.5,3135.2,1276.9,3115.7z M891.7,3229.2c8.8-1.9,17.2-3.8,24.5-5.9c46.8-13.8,93.5-27.8,140.2-41.9
	c72.8,59.4,151.1,110.2,234.5,153c-33.9,8.8-68,17.3-102.2,25.9c-19.4,4.9-37.6,11.6-55.5,19.1c-0.2-2.7-1.6-5.4-4.7-7
	C1046.4,3330.8,959.6,3292.6,891.7,3229.2z M839,3246.1c8.5-5.2,19.6-8.9,31.3-11.9c69.1,69,159.8,109.1,245.9,152.6
	c-15.1,6.8-30.2,13.8-45.6,20.9c-20,9.1-40.3,17.4-61,24.8c-10.3,3.7-20.7,7.2-31.2,10.4c-25.2,7.8-62.7,5.4-85.2-10.6
	c-30.6-21.9-52-81.2-63.5-114.8C820.8,3291.9,810.7,3263.5,839,3246.1z M701.2,3449.4c-51.1-76.8,30.9-154.3,109.3-125.5
	c6.9,17.3,15.2,33.9,21.9,47.3c8.1,16.2,18.4,36.7,30.6,55.1C836.2,3503,748.5,3520.6,701.2,3449.4z"/>
</svg>
