<?xml version="1.0" encoding="utf-8"?>
<!-- Generator: Adobe Illustrator 21.1.0, SVG Export Plug-In . SVG Version: 6.00 Build 0)  -->
<svg version="1.1" id="Layer_1" xmlns="http://www.w3.org/2000/svg" xmlns:xlink="http://www.w3.org/1999/xlink" x="0px" y="0px"
	 viewBox="0 0 176.1 193.2" style="enable-background:new 0 0 176.1 193.2;" xml:space="preserve">
<style type="text/css">
	.st0{clip-path:url(#SVGID_2_);}
	.st1{fill:#D1D3D4;}
	.st2{fill:#E9DE79;}
	.st3{fill:#626F84;}
	.st4{fill:#C66661;}
	.st5{fill:#231F20;}
</style>
<title>loader</title>
<g>
	<defs>
		<rect id="SVGID_1_" x="-0.5" width="176.6" height="193.2"/>
	</defs>
	<clipPath id="SVGID_2_">
		<use xlink:href="#SVGID_1_"  style="overflow:visible;"/>
	</clipPath>
	<g class="st0">
		<path class="st1" d="M155.3,100c0.5-16.3-17.3-30.3-32.5-21.2c-1.5,0.9-3,2-4.3,3.2c-1.2,0.2-2.4,0.5-3.6,0.7
			c-4.8,0.9-9.7,1.7-14.6,2.4c-18.7,2.3-37.6,3-56.4,2c-10.6-0.5-20.7,9.7-20.2,20.2c0.1,3.6,1.1,7.2,3,10.3
			c-0.6,3.8-0.6,7.7,0,11.5c0.7,6.3,1.6,12.5,2.9,18.7c2.1,10.4,3.7,22.8,11.4,30.6c4.8,4.9,10.5,7.2,16.8,9.8
			c3.8,1.6,7.8,2.9,11.8,3.8c11.4,2.3,22.1,0.7,33.3-1.8c10.3-2.3,20.5-4.2,27.8-12.7c7.8-8.9,14.4-20.1,16.9-31.7
			c1.1-5.8,1.9-11.8,2.4-17.7c0.4-4.1,0.2-8.1,0.2-12.1c0.3-0.6,0.6-1.1,0.9-1.7C153.7,110,155.1,105.1,155.3,100z"/>
		<path class="st1" d="M146.8,75.4c0,0-0.1-0.1-0.1-0.1c-0.1,0-0.1,0-0.2,0.1l0.1,0.1L146.8,75.4z"/>
		<path class="st2" d="M159.9,84l-0.8-2c0.3-0.5,0.6-1,0.8-1.6c0.8-0.9,1.5-1.9,2-3c0.3-0.5,0.6-1,0.8-1.6c0.9-1.1,1.7-2.4,2.2-3.7
			c0.8-1,1.4-2,2-3.1c0.1-0.2,0.2-0.3,0.3-0.5c2-3.4,1.8-7.6-0.4-10.9c0.9-0.9,1.8-2,2.6-3c1.5-1.9,2.7-4.1,3.5-6.4
			c0.1-0.4,0.2-0.7,0.3-1c0.8-1.7,1.1-3.5,1.1-5.4c1.4-5.5,1.1-11.2-0.6-16.6c-2-5.9-4.8-12.2-9.4-16.5c-6.4-5.9-14-6.7-22.3-7.3
			c-9-0.7-18-1-27-1.2C96.1-0.1,76.8-0.6,58.1,2.5C48.8,4.1,41.3,8.6,34,14.1l-0.9,0.3c-0.5,0.2-1.1,0.5-1.6,0.6
			c-2.3,0.8-4.4,1.8-6.4,3.2l-0.3,0.2c-1.2,0.5-2.3,1.1-3.3,2c-0.9,0.5-1.8,1-2.6,1.7l-0.4,0.3c-1,0.5-1.9,1.3-2.7,2.2l-0.2,0.1
			c-1,0.7-1.8,1.5-2.6,2.4c-0.4,0.4-0.7,0.9-1,1.4c-0.4,0.4-0.7,0.8-1,1.1s-0.8,0.9-1.2,1.4c-0.5,0.6-1,1.2-1.4,1.7
			c-0.4,0.4-0.8,0.9-1.1,1.4c-0.9,0.9-1.6,1.9-2.1,3.1c-0.9,1.1-1.6,2.4-2,3.8l-0.6,1.2c-0.5,0.9-0.9,1.9-1.1,3L0,48.2l1.2,2.9
			c0,0.7,0,1.4,0,2.1c0.1,0.6,0.2,1.2,0.3,1.9l-0.6,0.4c0.3,0.8,0.4,1.6,0.4,2.4c0,0.1,0,0.2,0,0.4l3.4,4.1
			c-0.3,0.9-0.6,1.8-0.8,2.7c-2.1,9.4,2.4,21.4,12.3,24.4c0.5,0.4,1,0.9,1.5,1.2l0.3,0.2c1.6,1.2,3.3,2.2,5.1,3
			c2.1,1,4.5,1.5,6.8,1.6c1.1,0.1,2.2,0.2,3.3,0.4c1.3,0.3,2.7,0.5,4,0.5l0.9,0.1c1.8,0.2,3.7,0.1,5.4-0.5l0,0
			c1.3,0.5,2.6,0.7,3.9,0.8c1.1,0.3,2.2,0.3,3.3,0.2c0.4,0,0.8-0.1,1.2-0.2c0.3-0.1,0.6-0.1,0.9-0.1l0,0c0.8,0,1.7,0.1,2.6,0.1
			l1.4,0.1c0.7,0,1.3,0.1,1.9,0.2c0.4,0,0.9,0.1,1.3,0.2c1,0.2,1.9,0.3,2.9,0.3c2.1,0.1,4.3,0.1,6.4,0.1h1.7
			c1.9,0.1,3.8-0.6,5.3-1.9l0.1-0.1c1.6,0.4,3.2,0.7,4.8,0.8c4.5,0.3,9,0.4,13.6,0.2c0.8,0.3,1.7,0.4,2.6,0.4h0.1
			c0.6,0,1.3,0,1.9-0.1s1.2-0.1,1.8-0.1c0.7,0,1.3,0,2-0.1c0.4,0,0.9,0,1.3,0l0.9,0.2l0.9-0.3c0.5-0.1,1-0.1,1.6,0
			c0.7,0.1,1.3,0.1,2,0.1h0.8c0.9,0.1,1.7,0,2.6-0.1l0.7-0.1c1.4-0.3,2.7-0.4,4.1-0.4c2.1,0.1,4.1-0.9,5.4-2.5l2.5-0.4
			c0.1,0.2,0.3,0.2,0.7,0.2s0.5,0,0.8,0c1,0,2-0.3,2.8-1l1.4-0.3c2,2.5,5.1,3.9,8.3,3.9c1.1,0,2.1-0.2,3.2-0.4l0.9-0.2
			c0.5-0.1,0.9-0.2,1.4-0.4c0.9-0.2,1.7-0.5,2.6-0.8l2.5-0.9l0.6-0.2c0.4-0.2,0.9-0.3,1.3-0.5l0.9-0.4l6.4-2.8
			C159.1,87.5,159.3,85.7,159.9,84z"/>
		<path class="st3" d="M121.7,184.3h-1c-5.2-0.3-9.3-4.2-14.3-5.4c-5.5-1.3-11.6-0.1-17.1,0.5c-12.3,1.4-24.9,2.9-36.8-1.4
			c-0.7-0.3-1.6-0.2-2.2,0.4c-3.5-1.5-7.1-2.9-10.7-4c-3-0.9-4.3,3.8-1.3,4.7c2,0.6,4,1.3,6,2.1c-0.1,1.4,0.9,2.5,2.3,2.7
			c0,0,0,0,0.1,0c4.9,0.3,9,3.3,13.4,5.1c4.9,2,10.2,2.4,15.5,2.3c5.9-0.1,11.7-0.3,17.6-0.5c3.7-0.1,7.3-0.2,10.6-1.7
			c5.6,0,11.2,0.1,16.7,0.1c0.4,0,0.8,0,1.2,0C124.8,189.1,124.8,184.4,121.7,184.3z M104.4,183.5l-6-0.4c2.1-0.1,4.2,0,6.2,0.4
			L104.4,183.5z M106,184.1c-0.3-0.2-0.6-0.4-0.9-0.5c0.5,0.1,1,0.2,1.4,0.4l0.3,0.1H106z"/>
		<path class="st4" d="M119.5,160.9c-3.8-1.5-7.7-3.1-11.4-4.8c-1.6-0.8-3.2-1.5-4.8-2.4c4.4-1.3,9.9-0.5,13.7,1
			c3.8,1.5,7.4-2.2,7.5-5.7c0.3-9.2-11-9.6-18.5-12c0.7-1.5,1.3-3,1.8-4.6c0.8-3.2,1.2-6.5,1.1-9.8c-0.5-7.8-9.2-10.3-14.1-4.4
			c-1.8,2.4-2.8,5.3-3,8.2c-0.2,2.4,0.4,5.5-0.7,7.7c-0.8,1.5-2.3,2.5-4,2.8c0.4-1.3,0.4-2.7,0.1-4c-0.7-2.8-3-4.9-5.8-5.5
			c-5.4-1.2-11.6,4.1-15.4,7.3c-0.2,0.2-0.4,0.4-0.6,0.6c-1.7-0.7-3.3-1.5-4.9-2.3c-1.4-5.3-4-10.6-10.3-10.8c-1,0-2,0.3-2.9,0.8
			c-3.8,0.4-7.4,4.4-4.8,8.8c1.5,2.5,3.3,4.7,5.5,6.6c0.9,1.3,2.1,2.7,3.1,4.1l0.1,0.1c0.5,1.1,1.1,2.1,1.8,3
			c0.1,0.4,0.3,0.7,0.4,1.1c0.6,2.3-0.2,2.4-2,3.2c-3.2,1.5-5.2,4.1-5.2,7.7c-0.1,1.5,0.4,2.9,1.4,3.9c1.7,4.4,6.9,8.6,9.7,11.6
			c3.1,3.3,8.8,1.6,9.9-2.6c0.3-1.8,1.7-3.3,3.6-3.6c2.6-0.4,4.2,2.2,6.5,3c6.1,2.3,10.3-3.5,15.3-5.9c4.3-2.1,8.2,3.4,11.4,5.7
			c5,3.6,11.7,5.2,17.3,1.8C125.6,168.9,124.1,162.8,119.5,160.9"/>
		<path class="st5" d="M140,6.2c-7.4,0-14.8-0.7-22.2-0.1c-7.7,0.6-15.3,0.5-23,0.4c-6.9-0.1-13.5,1.4-20.4,1.4
			c-3.7-0.1-7.3,0-11,0.2C59.9,8.5,56.4,8.3,53,8.8c-3.2,0.5-5.8,2.1-8.9,2.9c-3.4,0.9-6.7,1.9-9.9,3.3c-5.9,2.6-11.4,6.2-16.1,10.6
			c-2.6,2.4-5.4,4.7-7.7,7.5c-2,2.5-3.4,5.2-5.2,7.8c-3.1,4.5-4.8,10.4-1.6,15.4c1.4,2.3,3,4.4,4.9,6.3c2.2,2.1,4.1,4.6,7.1,5.5
			c6.7,1.9,13.6,3.2,20.5,3.7c3.4,0.3,6.8,0.9,10.2,0.9c3.8,0,7.7,0.2,11.5,0.3c1.8,0.1,3.4,0.5,5.2,0.6c2,0.2,4.1,0.3,6.1,0.6
			c3.7,0.6,7.4,1.1,11.1,1.4c7.1,0.7,14.2,1.3,21.2-0.4s13.5-4,20.2-6.3c3.5-1.2,7-2.4,10.4-3.7c3.9-1.5,7.5-1.5,11.6-1.5
			c5.6,0,13.4,0.9,18-3.5c1.2-1.2,2.7-2.1,3.9-3.3c1.1-1.3,2.2-2.7,3-4.2c2.1-3,3.9-6.2,5.3-9.6c1.5-3.6,2.2-7.4,2.2-11.2
			c-0.3-3.6-1.3-7.1-3.1-10.2c-3.2-6.1-9.7-11-15.6-13.7c-3.2-1.5-6.7-2.1-10.2-2c-2.1,0-4.2,0-6.3,0c-1.6,0-3.2,0.3-4.8,0.4
			c-0.8,0-0.8,1.3,0,1.3c1.4,0,2.7-0.4,4.1-0.4h4.3c3.6,0,6.9-0.2,10.4,1c6.1,2.3,11.5,6.3,15.4,11.5c2.1,2.9,3.6,6.2,4.3,9.7
			c0.8,4-0.1,8-1.4,11.8c-1.1,3.3-2.6,6.5-4.6,9.4c-0.7,1-1.3,2-1.9,3c-1.2,1.7-2.6,3.1-4.2,4.3c-1,1-2,1.9-3.2,2.7
			c-1.4,0.6-2.8,1.1-4.3,1.4c-3.7,0.8-7.6,0.5-11.3,0.5c-2.9,0-5.9-0.3-8.7,0.4c-3.2,0.8-6.4,2.3-9.6,3.4
			c-6.3,2.2-12.6,4.5-19.1,6.3c-3.3,1.1-6.7,1.8-10.1,2.3c-3.4,0.4-6.8-0.1-10.1-0.2c-6.8-0.3-13.5-1.7-20.3-2.2
			c-6.6-0.5-13.1-1.2-19.8-1.1c-3-0.1-6-0.4-8.9-0.8c-3.8-0.3-7.6-0.7-11.4-1.4c-3-0.6-6-1.6-8.9-2.2c-3.3-0.8-6.1-3.7-8.4-6.2
			c-0.7-0.8-1.2-1.9-1.9-2.8c-0.9-1.2-1.8-2.4-2.5-3.7c-1.7-3.6-0.4-8.1,1.5-11.3c1.5-2.6,3.2-5.2,5-7.6c2.2-2.7,4.6-5.3,7.2-7.6
			c4.6-4.4,9.8-8,15.5-10.9c2.9-1.4,5.9-2.5,9-3.4c1.3-0.4,2.6-0.6,3.9-1.1c1.7-0.6,3.3-1.6,5-2c3.5-0.9,7.1-0.4,10.7-0.8
			c3.9-0.3,7.9-0.5,11.8-0.4c3.3,0,6.7,0.2,9.9-0.5c3.4-0.7,7-1,10.5-0.9c7.7,0.1,15.3,0.3,23-0.3s15.4,0,23.2,0
			c0.4,0,0.6-0.4,0.6-0.7C140.5,6.4,140.3,6.2,140,6.2"/>
		<path class="st5" d="M151.9,85.2c0.8-0.1,1.7-0.2,2.5-0.5c0.4-0.1,1.9-0.9,2.4-0.8c1.7,0.4,0,4.3-0.4,5.6c-0.6,2-1,4-1.2,6.1
			c-0.1,2.8,0.1,5.4-0.6,8.2c-0.6,2.2-1.4,4.3-2.1,6.4c-0.8,2.5-2.2,4.7-2.9,7.3c-1.2,4.7-2,9.6-2.7,14.4c-1.6,9.9-4.3,20.4-9.3,29
			c-2.5,4.2-4.7,8.5-6.6,13c-1.5,3.9-1.6,9.8-5,12.4c-3.8,2.9-9.8,1.1-14.1,1.1c-1.8,0.1-3.6,0.5-5.2,1.2c-2.6,0.7-5.3,0.5-8,0.7
			c-4.7,0.4-9.5,0.2-14.2,0.2c-2.4,0-4.7,0.1-7.1,0s-4.7-0.5-7-0.7c-2.2-0.1-4.3-0.5-6.4-1.2c-2.2-0.9-4.5-1.6-6.8-2.1
			c-4.8-1-9.5-2.6-13.8-4.9c-1.9-1-3.9-1.6-5.8-2.6c-2.2-1.2-3.3-3.6-4.3-5.9c-1.9-4.6-3.3-9.5-4.1-14.4c-0.5-2.6,0-5.3-0.4-7.9
			c-0.5-3.1-0.8-6.3-0.8-9.4c0.1-5.5-0.1-11-0.8-16.5c-0.8-5.7-1.7-11.2-2.2-16.9c-0.2-2.7-0.3-5.4-0.3-8.1c0-1.5,0.2-3,0.6-4.4
			c0.2-0.8,0.2-2.6,0.6-3.3c0.1-0.3,0-0.7-0.4-0.8c-0.2-0.1-0.5,0-0.6,0.1c-0.3,0.6-0.5,1.4-0.5,2.1c-0.1,1.2-0.6,2.3-0.8,3.4
			c-0.3,2.6-0.3,5.2-0.1,7.8c0.3,5,0.8,10,1.6,14.9c0.9,5.9,1.8,11.9,1.7,17.9c-0.1,2.7-0.2,5.4,0,8.1c0.2,3,0.9,5.8,0.8,8.8
			c0,5.1,1.6,10.1,3,14.9c1,3.5,2.5,8.4,5.6,10.4c2,1.3,4.4,1.8,6.5,2.9c2.3,1.2,4.7,2.2,7.1,3c2.3,0.9,4.6,1.5,7,2
			c2.6,0.6,5.1,1.4,7.5,2.4c1.6,0.6,3.3,0.9,5,1c2.8,0.2,5.5,0.7,8.3,0.7c5.4,0.1,10.7-0.1,16.1,0c2.5,0,4.9-0.3,7.4-0.3
			c2.5,0,4.9-0.3,7.2-1.1c4.6-1.6,9.5,0.5,14.2-0.4c4.1-0.8,5.8-3.3,7.4-7.3c0.8-2.1,1-4.4,1.8-6.5c1-2.8,2.3-5.5,3.6-8.1
			c1.2-2.5,2.8-4.8,4.1-7.2c1.2-2.3,2.2-4.6,3.1-7c1.9-5.3,3.5-10.8,4.7-16.3c1.4-5.9,1.9-12.1,3.3-18c0.7-2.8,2.1-5.3,3-8
			c1.1-2.8,1.9-5.6,2.6-8.6c0.5-3.2-0.1-6.3,0.6-9.5c0.5-2.4,1.6-4.6,1.8-7c0.6-5.1-4-1.8-6.8-1.6C151,84,151,85.3,151.9,85.2"/>
		<path class="st5" d="M124.6,187.6c-0.1,0-0.3,0-0.4,0l0.3-1.6c-2.8-0.1-5.5-1.2-8.1-2.3l-1.7-0.7c-3.6-1.5-7.4-2.4-11.3-2.8
			c-4.7-0.3-9.5-0.2-14.2,0.2l-3.5,0.2c-17,1.1-34-0.3-50.6-4.1l0.6-2.4c16.4,3.7,33.2,5.1,49.9,4L89,178c4.9-0.5,9.8-0.6,14.7-0.2
			c4.1,0.4,8.2,1.4,12,2.9l1.7,0.7c2.9,1.2,5.7,2.4,8.5,2l1.1-0.2l0.3,1.1c0.2,0.9-0.1,1.8-0.7,2.4
			C126.1,187.3,125.3,187.6,124.6,187.6z M61.2,174.9H61c-2.1-0.1-3.4-2.1-4.6-4.1c-0.6-1.1-1.4-2.2-2.4-3c-0.7-0.4-1.5-0.9-2.3-1.3
			c-3.8-2.1-8.1-4.4-7.2-10.7l0,0c0.1-1,0.4-1.9,1-2.8c1.1-1.2,2.5-2,4-2.3c0.9-0.2,1.8-0.6,2.5-1.1c0.6-0.5,0.9-1.3,0.9-2.1
			c-0.1-1.9-1-3.7-2.4-5c-0.9-0.8-1.8-1.5-2.7-2.1c-2.1-1.3-3.8-3-5.1-5.1c-2.3-4.5-0.6-10,3.8-12.3c4.5-2.3,10-0.6,12.3,3.8
			c0.2,0.4,0.4,0.8,0.6,1.3c0.4,1.4,0.6,2.8,0.6,4.3c0,0.9,0.1,1.8,0.2,2.7c0.3,1.8,1.5,3.6,3.1,3.6l0,0c1.5,0,2.5-1.5,3.9-3.7
			c0.3-0.4,0.5-0.9,0.8-1.3c3.1-4.6,8.4-7.1,13.9-6.4c1.8,0.1,3.6,1,4.7,2.4c1.2,1.7,1,3.8,0.9,5.2l-0.5,7c1.2,0.5,2.6,0.3,3.5-0.6
			c1.1-1,1.8-2.5,2.2-4.9c0.4-2.2,0.6-4.4,0.5-6.7c0-0.4,0-0.8-0.1-1.2c-0.2-3.3-0.4-7,2.1-9.6c1.4-1.5,3.4-2.2,5.4-2.1
			c2.6,0.1,5,1.3,6.7,3.3c2.9,3.7,2.9,8.6,2.3,12.1c-0.3,1.8-0.7,3.5-1.1,5.2s-0.8,3.3-1.1,4.9c1.7,0.1,3.3,0,5-0.2
			c0.7-0.1,1.5-0.2,2.2-0.2c4.1-0.3,7.1,0.4,9.2,2.2c1.6,1.4,2.5,3.4,2.5,5.5c0,1.6-0.7,3.1-2,4.1c-1.2,0.9-2.7,1.3-4.2,1.2
			c-2.5-0.2-4.9-0.7-7.2-1.7c-2.8-1-5.4-1.9-7.9-1.3c-2.9,0.8-4.9,3.5-4.8,6.5c0,0.1,0,0.3,0.1,0.4l0.5,0.1l13.2,1.5
			c2.3,0.1,4.5,0.7,6.5,1.7c2,1.2,3.9,3.8,3.1,6.6c-0.6,2.1-2.6,4.6-9.2,4.6c-3.2,0-7.3,0-10.5-2.1c-1-0.7-2-1.6-2.9-2.5
			c-0.5-0.5-1-1-1.5-1.4c-2-1.7-4.3-2.7-6.9-3.1c-0.8-0.2-1.7-0.1-2.4,0.3c-0.4,0.4-0.7,0.9-0.9,1.4c-0.2,0.4-0.3,0.7-0.6,1.1
			c-2.4,3.9-7.5,4-11.7,3.7c-0.9,0-1.8-0.3-2.6-0.8c-0.5-0.5-0.9-1.1-1.2-1.8c-0.1-0.2-0.2-0.5-0.3-0.7c-0.3-0.4-0.7-0.7-1.2-0.8
			c-1.1-0.2-2.2,0.1-3,0.8c-1,0.9-1.9,2-2.6,3.3c-0.4,0.6-0.8,1.3-1.3,1.9C63.7,174.1,62.5,174.9,61.2,174.9z M46.9,156.1
			c-0.6,4.3,1.9,5.9,6,8.1c0.8,0.4,1.6,0.9,2.4,1.4c1.3,1,2.4,2.3,3.2,3.8c0.8,1.2,1.9,2.9,2.6,3c0.4,0,1.1-0.5,1.8-1.5
			c0.4-0.6,0.8-1.2,1.2-1.8c0.8-1.5,1.9-2.8,3.2-3.9c1.4-1.1,3.2-1.6,5-1.3c1.2,0.2,2.3,0.9,2.9,1.9c0.2,0.3,0.3,0.7,0.5,1
			c0.1,0.3,0.2,0.6,0.4,0.9c0.4,0.2,0.8,0.3,1.2,0.3c3.5,0.3,7.7,0.2,9.3-2.5c0.2-0.3,0.3-0.6,0.4-0.8c0.3-0.8,0.9-1.6,1.5-2.2
			c1.2-0.9,2.8-1.2,4.3-0.9c3,0.4,5.9,1.7,8.2,3.7c0.6,0.5,1.1,1,1.6,1.5c0.8,0.8,1.6,1.5,2.5,2.2c2.6,1.7,6.2,1.7,9.2,1.7
			c2.8,0,6.1-0.5,6.8-2.8c0.4-1.4-0.8-3-2-3.8c-1.7-0.8-3.6-1.3-5.5-1.4l-13.2-1.5c-0.8,0-1.6-0.3-2.1-0.9c-0.4-0.5-0.7-1.2-0.7-1.9
			c-0.2-4.2,2.6-8,6.7-9.1c3.3-0.8,6.4,0.3,9.4,1.4c2,0.9,4.2,1.4,6.4,1.6c0.9,0.1,1.9-0.2,2.6-0.7c0.6-0.5,1-1.3,1-2.1
			c0-1.3-0.5-2.6-1.6-3.5c-1.6-1.3-4-1.9-7.4-1.6c-0.7,0.1-1.4,0.1-2.1,0.2c-2.3,0.4-4.6,0.4-6.9,0.1l-1.2-0.2l0.1-1.2
			c0.3-2.2,0.7-4.3,1.3-6.5c0.4-1.6,0.8-3.3,1.1-5c0.5-3,0.6-7.2-1.8-10.1c-1.2-1.4-3-2.3-4.8-2.4c-1.3-0.1-2.5,0.4-3.4,1.3
			c-1.7,1.8-1.5,4.8-1.4,7.7c0,0.4,0,0.9,0.1,1.3c0.1,2.4-0.1,4.9-0.5,7.2c-0.3,1.9-1,4.5-3,6.3s-5.4,2.2-7.4,0.1l-0.4-0.4l0.6-8.2
			c0.1-1.4,0.2-2.7-0.4-3.6c-0.8-0.8-1.9-1.3-3-1.4c-4.5-0.5-8.9,1.5-11.5,5.3c-0.2,0.4-0.5,0.8-0.8,1.2c-1.3,2.2-3,4.9-6.1,4.9l0,0
			c-3,0-5-2.9-5.6-5.7c-0.2-1-0.3-2-0.3-3.1c0-1.2-0.2-2.5-0.5-3.6c-1.1-3.5-4.9-5.3-8.3-4.2c-3.5,1.1-5.3,4.9-4.2,8.3
			c0.1,0.4,0.3,0.8,0.5,1.1c1.2,1.7,2.7,3.2,4.4,4.3c1,0.7,2,1.5,2.9,2.3c2,1.8,3.1,4.3,3.2,6.9c0,1.5-0.6,3-1.8,4
			c-1,0.8-2.2,1.3-3.5,1.6c-1,0.2-2,0.7-2.8,1.4C47.2,155,47,155.5,46.9,156.1L46.9,156.1z M124.8,97.7c-1.7,0-3.3-0.1-4.8-0.2
			c-2.6-0.2-5.2-0.4-7.7-0.7c-4.9-0.6-9.8-0.9-14.7-0.8c-1.8,0.1-3.8,0.3-5.6,0.4c-2.8,0.3-5.6,0.5-8.5,0.5
			c-2.5-0.1-4.9-0.3-7.4-0.7c-2.2-0.3-4.5-0.6-6.7-0.6c-2.9,0-5.7,0.1-8.6,0.4l-2.7,0.2c-6.2,0.4-12.3,0.5-18.5,0.2
			c-5.6-0.2-12-0.7-17.7-3.4c-6.9-3.3-12.6-9.9-16.2-18.6c-3.1-7.7-4.2-16-5.2-24l2.5-0.3c1,7.8,2.1,15.9,5.1,23.4
			c3.3,8.1,8.6,14.3,14.9,17.3c5.3,2.5,11.4,3,16.8,3.2c6.1,0.3,12.1,0.2,18.2-0.2l2.7-0.2c2.9-0.3,5.9-0.4,8.9-0.4
			c2.3,0.1,4.7,0.4,6.9,0.7c2.4,0.3,4.7,0.5,7.1,0.6c2.7,0,5.5-0.2,8.2-0.5c1.9-0.2,3.8-0.4,5.7-0.4c5-0.1,10,0.2,15,0.8
			c2.5,0.2,5,0.5,7.6,0.7c9.1,0.6,15.9-0.5,21.3-3.3c8.1-4.3,13.4-13,17.6-20c6.3-10.3,13.4-22,14.3-34.8L176,37
			c-1,13.4-8.3,25.4-14.7,36c-4.4,7.2-9.9,16.3-18.6,20.9C136.9,97,130.3,97.7,124.8,97.7L124.8,97.7z M68.7,60.3h-1.8
			c-6.3-0.1-13.5-0.7-19-4.5c-4.3-3-7.2-7.7-8.1-12.9l1.3-0.2c0-0.3,0-0.7,0-1c0.4-4.1,4-6.8,6.8-8.4c8.1-4.3,17.4-4.8,27.1-5v1.3
			v-1.3h0.2c13.6-0.2,27.6-0.5,41.3,0.1c5,0.2,8.1,2.1,9.8,6.2c1,1.9,1.1,4.2,0.2,6.1c-1.4,4.1-4.2,7.5-7.8,9.8
			c-3.8,2.3-7.9,3.9-12.2,4.9C94.1,58.6,81.5,60.3,68.7,60.3z M45.7,50.3c1,1.3,2.2,2.4,3.6,3.4c5,3.5,11.7,4,17.6,4.1
			c13.1,0.2,26.1-1.5,38.8-4.8c4-0.9,7.9-2.5,11.5-4.6c1.4-0.9,2.6-1.9,3.7-3.1c-1.2,0.5-2.5,0.8-3.8,1.1l-35.5,7.6
			c-3.7,0.9-7.5,1.5-11.3,1.9c-6.8,0.5-13.6-0.5-20-3C48.8,52.2,47.2,51.3,45.7,50.3L45.7,50.3z M96.9,30.5
			c-7.3,0-14.6,0.1-21.7,0.2h-0.2c-9.3,0.2-18.3,0.6-25.9,4.7c-1.9,1-5.2,3.3-5.5,6.4c-0.4,3.9,3.7,7,7.7,8.6
			c6,2.4,12.4,3.4,18.8,2.8c3.7-0.4,7.4-1,11-1.8l35.6-7.6c3.9-0.8,6.5-2.3,7.4-4.1l0,0c0.1-0.2,0.1-0.4,0.2-0.6h0.1
			c0.3-1.2,0.2-2.5-0.4-3.6c-1.4-3.1-3.6-4.5-7.6-4.7C109.9,30.6,103.4,30.5,96.9,30.5z"/>
	</g>
</g>
</svg>
