<?xml version="1.0" encoding="utf-8"?>
<!-- Generator: Adobe Illustrator 21.1.0, SVG Export Plug-In . SVG Version: 6.00 Build 0)  -->
<svg version="1.1" id="Layer_1" xmlns="http://www.w3.org/2000/svg" xmlns:xlink="http://www.w3.org/1999/xlink" x="0px" y="0px"
	 viewBox="0 0 4685 2545.6" style="enable-background:new 0 0 4685 2545.6;" xml:space="preserve">
<style type="text/css">
	.st0{fill:#FFFFFF;}
</style>
<title>breadpudding</title>
<path d="M4235.6,1663.1c4.8-55.1,8.3-109.3,14.7-163.2c9.5-81.2,31.4-159.5,58.9-236.5c33.3-93.3,81-178.9,136.6-260.3
	c16.3-23.8,34.3-44.8,65.7-54.7c42-13.3,78.7,13.3,95.6,41.5c11,18.3,17.5,40.2,22,61.3c13.4,63.3,9.6,126.7-2.8,190
	c-8.4,42.9-14.8,86.3-21,129.6c-8.5,59.6-28.5,115.7-51.1,171.1c-12.2,30-21.8,61.4-36.7,90c-30.3,58.2-61.2,116.2-102.9,167.5
	c-23.7,29.2-45.3,60.2-70.5,88.1c-17.1,19-26.8,35.6-13.7,61.1c8.4,16.3,12.3,34.9,17.8,51.2c6.8,1,9.9,2.2,12.9,1.8
	c26.3-3.7,39.1,7.7,37.9,33.8c-1,20.8-2.1,41.7-2,62.5c0,18-4.7,25.7-22,26.8c-18.5,1.2-42.1-3.3-52.2-26.7
	c-13.6-31.5-27.4-63-41-94.5c-4-9.4-7.7-18.9-13.4-33.2c-19.7,16.3-36.8,29.3-52.5,43.8c-40.1,37.2-81.8,72.2-131.1,96.4
	c-60.8,29.9-114.7,23.8-160-17.1c-14.2-12.8-23-31.6-37-51.6c-16.1,5.3-34.7,11.3-53.2,17.7c-23.7,8.2-46.9,18.3-71.1,24.8
	c-47,12.7-94.7,18.9-141.5-0.3c-32.8-13.4-60.2-33.6-72.7-69.1c-1-2.8-3.7-4.9-8.4-10.9c-9.1,11.1-17.2,20.1-24.2,29.7
	c-27.7,38-56.4,74.7-92.5,105.8c-28.3,24.4-56,30.2-88.8,12.9c-5.4-2.9-11.2-5-15.8-7c-35,25.7-67.2,52.5-102.5,74.4
	c-41.7,25.9-86,49.3-137.1,47.1c-58.6-2.5-107.2-24.5-136.5-79.5c-11-20.6-20.4-40.8-20.2-64.8c0.1-7.4-5.1-14.8-9.6-26.7
	c-24.1,17.5-44.1,33.8-65.6,47.5c-80.4,51.1-161.9,100.5-258.5,115.1c-74.2,11.3-144.3-0.7-205.9-45.1
	c-23.3-16.8-42.5-39.4-66.9-62.5c-16.9,28.4-31.9,55.5-48.7,81.5c-16.5,25.5-33.5,50.8-52.5,74.3c-26.7,33-63.7,41.4-94.8,24.4
	c-23.9-13.1-31.3-29.3-22.3-54.9c7.3-20.7,16.6-40.7,25.5-60.7c14.4-32.5,28.3-65.2,44.1-97.1c10.6-21.3,24-41.2,36.2-61.8
	c2.1-3.6,4.6-7,6.6-10.7c24.1-42.7,48.9-85,71.9-128.3c6.9-13,8.7-28.8,14.2-48c-25.2,5.3-44.7,8.4-63.6,13.6
	c-55.5,15.1-111.8,28.1-166,47.2c-65.1,22.9-128.7,50.4-185.6,90.7c-14.4,10.2-29,20.3-42.6,31.6c-14.8,12.3-16,27.6-7.8,45
	c11.5,24.5,21.4,49.8,32.8,74.4c27.1,58.4,32.9,120.2,32.2,183.7c-0.4,41.8-10.4,80.5-26.5,118.5c-12.1,28.6-32.1,46.4-62.9,50
	c-19.7,2.3-39.8,3.7-59.5,2.8c-22.2-1.1-41.1-13.1-51.6-31.7c-14.2-25.1-28.3-51.6-34.8-79.2c-12.7-54.3-8.4-110.3-4.3-165.5
	c1.4-19.3,9.3-38.7,17.1-56.8c16.1-37.2,24.3-78,52.1-109.8c24.3-27.9,8.4-56.5-3.7-81.9c-39.1-82.6-53.9-167.1-38.4-258.4
	c6.3-37.1,25.3-65,43.5-94.6c19.1-30.8,46.4-53.4,77.7-71.4c19-10.9,37-24.1,57-32.3c49.4-20.2,99.7-18.9,144,11.2
	c40.6,27.5,66.8,68.3,81.6,115.6c16.1,51.1,15.2,103,7.5,155.2c-1,6.9,0.5,14.2,1.1,25.7c23.2-6.1,44-11.2,64.6-16.9
	c49.3-13.7,99-26.2,147.5-42.3c27.6-9.2,53.4-22.6,83.5-24.5c13.9-0.9,27.2-10,40.7-15.6c24.5-10.2,45.9-3.1,55.6,18.6
	c8.2,18.4-0.5,43.7-19.4,54.3c-9,5.1-18.8,8.9-28.1,13.6c-29.9,15.2-42.2,41.4-47.8,73.1c-5.6,31.8-11.9,63.6-20.7,94.6
	c-21.5,76.4,20.2,149.5,95.3,175.3c65.7,22.6,127.9,13,188.7-11.1c44.4-17.6,87.8-39.3,128.6-64.1c39.1-23.7,75-52.8,110.8-81.3
	c8.7-6.9,14.7-20.7,16.4-32.1c6.9-45.4,9.7-91.4,17.6-136.6c7.4-42.1,18.5-83.7,29.5-125.1c16.3-61.5,33.7-122.8,51.3-184
	c4.9-17,12-33.4,18.1-50c24.5-67.8,48.9-135.8,73.6-203.5c7.8-21.4,21.1-38.6,43.2-47c19.9-7.5,37.1-0.3,46.7,18.3
	c25.2,48.9,27.5,102.3,31.3,155.5c5.6,77.4-11.3,152-30.3,226c-26.3,102.4-74,195.3-132.6,282.6c-16.8,25-36.1,48.7-56.6,70.9
	c-17.3,18.7-27.1,38.9-26.9,64.2c0.2,30.8,5.3,60.6,18.5,88.4c17.7,37.4,62.7,57.6,106.2,45.3c23.8-6.8,46.8-17.8,68.7-29.6
	c57.7-31.1,106-74.8,150.8-121.9c13.3-14,22.3-33.1,30.1-51.2c35.6-82.3,87.9-154.3,139.4-226.5c26.6-37.2,57.4-72,90.6-103.5
	c18.1-17.2,44.5-26.3,68.3-36.5c15.6-6.7,36.3,2.2,46.4,17c10.1,14.8,12.2,30.9,4.3,47.6c-0.4,0.9-0.9,2-1.7,2.6
	c-47.8,42.1-52.2,105.2-76.9,158.5c-15,32.3-20,65.5-18.2,100.5c2.1,41.3,14.1,72.6,77.9,71.7c45.6-0.6,88-16.5,130.7-30.6
	c14.8-4.9,28.7-12.8,43.7-17.1c27.4-7.9,45-24.6,54.6-51.4c26.2-73,70.9-134.2,121.9-191.9c28-31.7,59-58.6,96.6-77.2
	c11.6-5.7,26.1-8.6,39-7.9C4189.5,1653.7,4210.9,1659,4235.6,1663.1z M4302.4,1831c10.1-7.5,14.9-9.8,18-13.5
	c21.6-26.8,45.6-52.1,63.7-81.2c34.1-54.9,68.8-110.1,95.6-168.6c26.1-56.8,43.4-117.7,62.9-177.3c7.7-23.6,12-48.5,15.9-73.1
	c7.8-49.5,13.3-99.4,21.4-148.9c6.7-41.1,4.2-81.2-8.1-120.7c-13.9-44.8-27.7-48.7-62.3-15.9c-40.8,38.6-70,86.4-92.6,136.8
	c-27.4,60.9-50.2,124-71.7,187.2c-29.1,85.8-36.8,175.8-44.9,265.3c-3.9,42.6-2.6,85.8-2.4,128.7
	C4297.9,1774.5,4300.5,1799.2,4302.4,1831z M2029.3,1876.2c1.6-42.6,2.1-84.1,4.8-125.5c3.3-49.6-12.3-92.2-43.6-129.7
	c-4.5-5.4-10.1-11.1-16.4-13.7c-32.4-13.4-66.6-15.7-97,1.2c-27.9,15.5-53.7,36.2-77.3,58c-37.2,34.2-52,81.4-57.9,129
	c-5.8,47.8,2.8,95.9,21,141.4c8.7,21.8,16.9,43.7,25.8,66.9c41.5-24.5,78.4-48,116.9-68.4
	C1945.1,1914.3,1986.3,1896.5,2029.3,1876.2z M3155,1358.1c-46.2,53.5-173.8,470.4-168,564.6C3097.7,1805.4,3198,1540.7,3155,1358.1
	z M1775.9,2129.1c-23.9,13.9-30.7,34.8-38.3,53c-34.7,83-27.3,167.7-5.3,252.1c4.3,16.5,17.2,28,33.7,28.9
	c15.5,0.9,31.1-4.7,39.4-20.7c4.3-8.3,9.4-16.6,12-25.5c18.5-63.7,21.8-127.3-3.4-190.4c-3.5-8.6-5.1-18-7.6-27
	C1799.5,2175.7,1791.5,2152.4,1775.9,2129.1z M4230.8,1779.1c-13.3,17.5-24.2,32.4-35.7,47c-8.4,10.6-16.6,21.5-26.3,30.9
	c-55.1,53.3-117.7,96-185.2,132c-16.8,9-21.8,19-18.9,35.4c3.6,20.1,13.7,32.3,32.5,31.6c19.5-0.8,38.9-5.7,58.1-10
	c34.1-7.8,56.7-34.6,83.8-53.7c29.7-20.9,56.6-46.1,83.4-70.8c9.6-8.9,21.3-21.7,21.7-33.1c1.3-30.9-2.7-62-5.2-92.9
	C4238.6,1790.9,4234.7,1786.7,4230.8,1779.1z M4177.5,1723.9c-60.1,4.2-169.8,122.1-171,180.1c9.2-5.3,18-8.8,24.8-14.7
	c36.5-31.2,72.9-62.5,108.5-94.7C4159.8,1776.7,4167.4,1751.9,4177.5,1723.9z M2277.5,2078.1c-2.1-1.1-4.3-2.1-6.4-3.2
	c-28.5,31.8-57.6,90.2-54.7,117.2C2238.4,2151.1,2258,2114.6,2277.5,2078.1z M3497.3,1904.8c-2.1-1.1-4.3-2.1-6.4-3.2
	c-28.5,31.8-57.6,90.2-54.7,117.2C3458.1,1977.8,3477.7,1941.3,3497.3,1904.8z"/>
<path d="M1713.1,942.4c37.5,27.7,77,37.5,119.8,28.2c61.5-13.4,118.4-39.6,174.1-68.3c10.3-5.3,15-12.3,17.9-23.4
	c11.8-44.2,21.1-89.7,38.7-131.6c15.2-36.1,40.5-68,61.1-101.9c13.6-22.3,31.8-36.8,57.5-45.2c69.8-22.8,118.6,37,111.2,94.4
	c-4.5,35.3-22,65.4-43.9,92.5c-40.3,49.9-85.4,95.3-141.4,127.4c-26.7,15.3-36.8,35.3-32.6,64.4c2.1,14.5,3.5,29.2,7.1,43.2
	c10.7,41.2,41.7,64.2,83.4,58c24.3-3.6,48.6-11.9,71.1-22.2c63.8-29.2,115.6-76.4,163.5-125.4c44.9-46,83.9-98.8,109.1-159.6
	c15.6-37.5,33.2-74.1,38.9-115.3c3-21.4,19.9-29.3,46.1-26.8c17.5,1.7,26.4,10.4,27.1,31.7c0.4,13.2-0.8,28-6.4,39.6
	c-27.5,56.5-51.9,114.2-70,174.5c-13.2,43.9-22.9,88.4-23.1,138.3c23.6-11.6,35.1-30.7,49-46.5c44.3-50.4,78.2-107.9,113-165
	c38.9-63.7,66.6-132.4,98.1-199.4c9.3-19.7,13.9-41.6,20.4-62.6c1.9-6,2.3-12.5,4.7-18.2c10.2-24,31.9-35.9,48.8-27.5
	c19.4,9.6,31.3,39.7,21.5,59.2c-37,73.5-48.5,153-53.6,233.3c-4.6,73-4.5,146.3-6.3,219.5c-0.1,5.1,0.7,10.2,1.3,18.8
	c7-4,12.3-5.9,16.4-9.5c37.7-32.9,73.3-67.9,116.5-94.6c58.5-36.2,120.8-61.2,188.4-73c5.1-0.9,10.4-1,15.7-1
	c47.1-0.1,67.3,23.5,56.8,70.1c-10.4,46.2-29.6,89.3-55.1,129.2c-12.8,19.9-21.5,21.5-45.1,11.9c1.8-24.7,4.8-49,20.2-70.6
	c15.4-21.5,16.2-46.1,14.4-76c-16.2,2-30.6,2.1-44.1,5.7c-63.7,17.1-119.9,48.9-169.1,92.4c-36.7,32.5-71.4,67.1-98.7,108.5
	c-11.3,17.2-12.4,34.4-10.5,53.8c11.1,114.6,22.1,229.3,16.6,344.6c-3.5,73.1-5.6,146.5-13.3,219.2c-8.4,80.4-27.8,158.6-67,230.5
	c-7,12.7-14.7,25.9-24.9,35.9c-33.2,32.2-87.3,21.7-106.3-20.8c-15.1-33.7-23.4-69.4-23.4-106.7c0-50.2-1-100.4,0.9-150.6
	c2.3-62.5,0.5-125.2,18.6-186.5c8.2-27.7,8.3-57.6,13-86.4c11.7-71.5,34.2-140.1,61-207c16.3-40.7,38.5-79,57.7-118.5
	c3-6.3,6-13.6,5.8-20.3c-1.3-59.6-3.8-119.2-4.8-178.9c-0.6-37.5,0.7-75,1-112.5c0-4.7-0.4-9.4-0.8-15.7
	c-39.7,60.4-76.4,119.6-116.5,176.3c-25.3,35.7-55.1,68.3-84,101.3c-19.1,21.7-42.7,27.3-64.9,18.4c-20.6-8.2-37.4-34.5-36.8-60.4
	c0.6-24.9,2.9-49.8,4.9-80.6c-10.2,6.8-17.7,9.8-22.4,15.2c-37.8,43.9-82.2,80.7-129.1,113.9c-52,36.8-108.1,64.5-174.9,55.2
	c-31.7-4.4-58.8-16-80.6-42.8c-25.1-30.9-36.9-64.8-39.5-103.3c-0.4-5.9-3.2-11.6-5.8-20.5c-16.1,5.9-30.5,11.1-44.9,16.3
	c-31.3,11.5-62.2,23.9-93.8,34.3c-65.4,21.5-127.9,13.8-186.8-21.8c-11.6-7-22.2-15.7-33.8-23c-12.8-8.1-21.3-4.5-25.6,10.1
	c-0.9,3-0.3,6.3-0.8,9.4c-8.6,49.5-17.5,98.8-25.6,148.4c-1.7,10.1,0.5,20.9-1.1,31.1c-2,13.1-5,26.3-9.6,38.8
	c-4.6,12.6-16.6,18.1-28.1,13.2c-10.5-4.4-21.1-12.8-27.3-22.2c-4.4-6.8-3.5-18.6-1.8-27.6c9.5-52.4,21.5-104.4,29.2-157
	c4.6-31.4,18.5-62,8.4-95.7c-3-10.1,4.8-23.9,8.8-35.5c5.7-16.5,15.4-32.1,18.4-49c14-78.2,27-156.7,39.1-235.2
	c12.2-79.6,22.8-159.4,34.4-239.1c9-61,18.5-122,27.9-183c1.1-7.2,2.2-14.6,4.5-21.5c6-18.5,19.5-27.4,34.9-23.8
	c14.6,3.4,26.8,18.5,24.8,35.2c-3.3,26.9-9.4,53.5-13.5,80.4c-12.1,79.6-23.5,159.3-35.9,238.9c-12.3,78.5-25.7,156.8-38.2,235.3
	c-6.6,41.3-12.2,82.7-18.1,124.1c-0.7,5.2-1.5,10.5-1.1,15.6c1.6,22,15.4,29.5,33.7,17.1c42.6-28.8,80.9-62.5,112-103.9
	c11.3-15,22.9-29.9,35.2-44.1c33.3-38.6,51.7-85.8,74.8-130.2c14.5-27.8,24.3-57.4,25.7-89.7c0.9-20,11.5-31.1,26.8-34.2
	c27.8-5.6,48.7,17.1,38.8,47.1c-13.1,39.5-24.3,79.8-48.7,115.2c-18.8,27.3-30.6,59.4-49,87c-33,49.6-70,96.4-114.4,136.8
	C1764.5,892.9,1740.7,916.2,1713.1,942.4z M2692.1,1960.2c3-0.4,6-0.8,9-1.2c9.5-17.2,21-33.7,28-51.8
	c23.4-60.7,37.4-124.1,44.8-188.3c7-61.2,10.6-123,12.3-184.7c2.5-90.9,1.3-181.9-11.1-272.3c-0.7-5.3-2.6-10.4-3.9-15.7
	c-2.1-0.2-4.2-0.4-6.4-0.6c-16.7,46.9-36.9,92.9-49.2,141c-16.6,64.5-31.7,129.4-39.7,196.1c-8.8,73.9-16.3,147.6-15.7,222
	c0.3,45,3.4,90.1,19.5,132.9C2682.7,1945.5,2687.9,1952.7,2692.1,1960.2z M2095.1,845.8c28.7-7.9,41.7-29.1,60-43.7
	c30.9-24.7,51-57.4,72.3-89.3c5.8-8.7,7.6-21.9,6.9-32.7c-1.7-27.6-16.3-34.2-39.9-18.9c-7.7,5-15.1,11.4-20.6,18.7
	c-30.6,41.1-56.4,85-71.6,134.4C2099.4,823.7,2097.8,833.6,2095.1,845.8z"/>
<path d="M397.9,582.8c24.7,3.4,42-8.2,59.2-16.1c51.5-23.5,104.1-43,159.5-54.9c10.2-2.2,20.4-4.2,30.8-5.3
	c38.2-3.8,58.4,16.3,52.7,53.9c-6.3,41.3-14.1,82.4-21.6,123.6c-18.5,100.8-39.8,201.1-49.3,303.3c-4.8,52.1-9.1,104.2-12.3,156.4
	c-1.6,26-0.2,52.3,0.5,78.4c0.1,4.7,3.3,9.4,5.9,16.6c20.6-15.7,33.1-35.2,41.8-55.7c15.6-36.5,27.9-74.4,41.4-111.7
	c15.7-43.2,31.1-86.5,47-129.6c9.7-26.4,19.5-52.8,30.4-78.8c25.2-60.6,51.2-120.8,76.7-181.3c4.1-9.6,6.8-19.8,11.1-29.3
	c9.2-20.6,31.1-33,47.4-27.5c18.4,6.2,28.4,29.5,21.4,52.8c-11.9,40-23.8,80.2-37.2,119.7c-30.8,90.4-37.1,183.9-37.1,278.3
	c0,13.3,3,27.2,7.3,39.9c8.5,25,27.3,32,52,22.1c35.9-14.5,62.1-42.1,89.9-67.2c15.4-14,28.8-30.3,41.8-46.7
	c57-72.4,99.3-152.2,119.9-242.6c7.9-34.7,14.8-69.6,22.3-104.3c10-46.6,38.6-56.5,77.6-24.1c7.7-10.8,17-20.8,22.7-32.5
	c28.6-59.1,76.5-91.9,139.8-103.3c32.4-5.8,73.7,12.6,93.3,39.3c-2.7,13-11.3,17.9-22.9,12.6c-28.5-12.9-55.5-5.9-82.1,4.7
	c-29.9,11.9-53.2,32-71.8,58.8c-26.1,37.6-39.8,80.4-54.2,122.8c-15.1,44.5-29.8,89.3-40.1,135c-12.1,53.9-20.9,108.7-27.9,163.6
	c-5.2,40.3-5.1,81.3-7.5,121.9c-1.5,26.4-12.8,37.9-36.2,37.1c-23.3-0.8-42-18.8-41.8-41.8c0.5-50.1,1.8-100.3,2.7-150.4
	c0.1-6.2-0.6-12.4-1.2-24.9c-13.1,16.6-22.4,29.5-32.9,41.3c-37.6,42-73.6,85.8-114.3,124.7c-40.1,38.5-88.7,54.5-143.9,30.5
	c-19.1-8.3-34-21.7-39.6-41.8c-10.9-39.3-17.2-79.3-13.9-120.5c1.3-16.4,0.2-33-4.2-51.7c-4.5,10.7-9.3,21.3-13.4,32.1
	c-29.7,77-58.2,154.5-89.5,230.9c-9.3,22.7-25.3,43.2-40.6,62.8c-18.1,23.1-67.6,20.6-82.5-4.8c-9.2-15.7-17.4-34.7-17.7-52.4
	c-1-48.8,1.3-97.9,4.3-146.7c3.4-55,7.7-110,14.2-164.7c4.2-34.9,13.9-69.1,19.9-103.7c5.2-29.8,8.3-59.9,13.2-89.8
	c7.5-45.2,15.7-90.3,23.6-135.4c0.9-5.2,1.8-10.3,2.1-15.6c1.2-20.8-5.3-27.8-25.6-22.2c-31,8.5-61.6,18.9-91.7,30.4
	c-33.2,12.6-65.3,28-98.3,41c-22.9,9.1-33.1,23.8-36.3,49.1c-8.7,69.5-20.7,138.6-31.7,207.9c-5.7,36-12,71.9-18.3,107.8
	c-6.7,38-14.2,75.9-20.5,114.1c-13.8,83.5-25.8,167.3-25.7,252.2c0,19.4,1.1,24.4,12.2,45.6c26-20.6,44.6-46.7,59.5-75
	c20.4-38.6,38.5-78.4,57.5-117.7c2.7-5.6,5.3-11.5,6.8-17.5c4-16.6,9.8-31.1,24.4-42.4c8.3-6.5,12.3-18.5,20.6-31.9
	c3.2,8.5,7.1,13.7,6.4,18.3c-6.3,41.2-13.2,81.9-32.8,119.9c-18.1,35.2-33.9,71.9-47.5,109.1c-10.3,28.4-29,50.6-45,74.9
	c-18.5,28.2-76.8,36.8-107.2,8.3c-8.2-7.7-14.6-21.5-15-32.7c-1.3-40.6-1.7-81.5,1.5-121.9c4.3-53.1,10.5-106.1,19.2-158.7
	c14.2-85.3,31.5-170.1,46.7-255.2c11.7-65.6,22-131.4,34.2-204.3c-15.6,5.3-25.2,7.3-33.8,11.5c-65.7,32.3-131,65.3-196.7,97.6
	C81.4,806.5,64.9,813.8,48,819c-10.6,3.3-22.7,3.8-33.8,2.6c-13-1.3-25.1-7.4-26.3-22.6c-1.2-15.3,6.5-24.5,21.9-29.9
	c31.6-11.1,62.7-23.5,93.4-36.8C143.4,715,183.4,697,222.9,678c30.1-14.5,58.3-32.9,88.9-46.1c18.8-8.1,24.5-20.1,25.8-38.4
	c3.1-43.8,8.7-87.4,10.3-131.3c1.1-32.2-2.7-64.6-4.4-97c-0.2-3.1-2.7-6.4-2-9.1c2-8.5,2.7-21,8.2-24.1c6.3-3.6,18.9-1.2,26.1,3
	c19.9,11.7,32.3,29.3,31.6,53.8c-0.9,32.4-1.4,64.9-3.1,97.3c-1.2,23-4.4,45.9-6.3,68.8C397.3,564,397.9,573.1,397.9,582.8z"/>
<path class="st0" d="M4302.4,1831c-1.9-31.8-4.5-56.6-4.6-81.3c-0.2-42.9-1.4-86,2.4-128.7c8.1-89.5,15.8-179.5,44.9-265.3
	c21.5-63.3,44.3-126.4,71.7-187.2c22.6-50.3,51.8-98.1,92.6-136.8c34.6-32.8,48.4-28.8,62.3,15.9c12.3,39.5,14.8,79.6,8.1,120.7
	c-8.1,49.5-13.6,99.3-21.4,148.9c-3.9,24.6-8.2,49.5-15.9,73.1c-19.5,59.6-36.8,120.5-62.9,177.3c-26.9,58.5-61.5,113.7-95.6,168.6
	c-18.1,29-42.1,54.4-63.7,81.2C4317.3,1821.2,4312.5,1823.5,4302.4,1831z"/>
<path class="st0" d="M2029.3,1876.2c-43,20.4-84.1,38.1-123.7,59c-38.5,20.4-75.4,43.9-116.9,68.4c-8.9-23.2-17-45.1-25.8-66.9
	c-18.2-45.5-26.9-93.6-21-141.4c5.8-47.6,20.7-94.8,57.9-129c23.7-21.7,49.4-42.4,77.3-58c30.4-16.9,64.7-14.6,97-1.2
	c6.3,2.6,11.8,8.3,16.4,13.7c31.3,37.5,46.9,80.1,43.6,129.7C2031.3,1792,2030.8,1833.6,2029.3,1876.2z"/>
<path class="st0" d="M3155,1358.1c42.9,182.6-57.3,447.3-168,564.6C2981.2,1828.5,3108.8,1411.7,3155,1358.1z"/>
<path class="st0" d="M1775.9,2129.1c15.5,23.3,23.6,46.6,30.4,70.4c2.6,9,4.2,18.4,7.6,27c25.2,63.1,21.9,126.7,3.4,190.4
	c-2.6,8.9-7.7,17.1-12,25.5c-8.3,15.9-23.9,21.5-39.4,20.7c-16.5-0.9-29.4-12.4-33.7-28.9c-21.9-84.5-29.4-169.2,5.3-252.1
	C1745.2,2163.9,1752,2143,1775.9,2129.1z"/>
<path class="st0" d="M4230.8,1779.1c3.9,7.6,7.8,11.8,8.2,16.3c2.5,31,6.5,62.1,5.2,92.9c-0.5,11.4-12.1,24.2-21.7,33.1
	c-26.8,24.7-53.7,49.9-83.4,70.8c-27,19-49.6,45.9-83.8,53.7c-19.2,4.4-38.6,9.3-58.1,10c-18.8,0.7-29-11.4-32.5-31.6
	c-2.9-16.4,2.1-26.5,18.9-35.4c67.5-36,130.2-78.7,185.2-132c9.7-9.4,17.9-20.3,26.3-30.9
	C4206.6,1811.5,4217.5,1796.6,4230.8,1779.1z"/>
<path class="st0" d="M4177.5,1723.9c-10.2,28-17.8,52.8-37.7,70.7c-35.7,32.1-72,63.5-108.5,94.7c-6.8,5.9-15.7,9.4-24.8,14.7
	C4007.8,1846.1,4117.4,1728.1,4177.5,1723.9z"/>
<path class="st0" d="M2277.5,2078.1c-19.6,36.5-39.2,73-61.1,114c-2.9-26.9,26.2-85.3,54.7-117.2
	C2273.2,2075.9,2275.4,2077,2277.5,2078.1z"/>
<path class="st0" d="M2692.1,1960.2c-4.2-7.5-9.3-14.7-12.3-22.7c-16.1-42.8-19.2-87.8-19.5-132.9c-0.5-74.4,6.9-148.1,15.7-222
	c8-66.7,23.1-131.6,39.7-196.1c12.3-48,32.5-94,49.2-141c2.1,0.2,4.2,0.4,6.4,0.6c1.3,5.2,3.2,10.4,3.9,15.7
	c12.5,90.4,13.6,181.4,11.1,272.3c-1.7,61.6-5.3,123.4-12.3,184.7c-7.4,64.3-21.4,127.7-44.8,188.3c-7,18.2-18.5,34.6-28,51.8
	C2698.1,1959.4,2695.1,1959.8,2692.1,1960.2z"/>
<path class="st0" d="M2095.1,845.8c2.7-12.3,4.2-22.1,7.1-31.5c15.1-49.4,40.9-93.3,71.6-134.4c5.4-7.3,12.9-13.7,20.6-18.7
	c23.7-15.3,38.2-8.8,39.9,18.9c0.7,10.9-1.1,24-6.9,32.7c-21.3,31.9-41.4,64.6-72.3,89.3C2136.8,816.7,2123.8,837.9,2095.1,845.8z"
	/>
</svg>
