<?xml version="1.0" encoding="utf-8"?>
<!-- Generator: Adobe Illustrator 21.1.0, SVG Export Plug-In . SVG Version: 6.00 Build 0)  -->
<svg version="1.1" id="Layer_1" xmlns="http://www.w3.org/2000/svg" xmlns:xlink="http://www.w3.org/1999/xlink" x="0px" y="0px"
	 viewBox="0 0 4685 2545.6" style="enable-background:new 0 0 4685 2545.6;" xml:space="preserve">
<style type="text/css">
	.st0{fill:#FFFFFF;}
</style>
<title>breadpudding</title>
<path d="M2232.7,482.1c18.4-3.5,33.5-6.6,48.7-9.2c34.9-6.1,69.8-11.8,104.7-17.9c5.5-1,11.2-2,16.4-4c10.9-4.2,21.5-5.2,33.3-3.2
	c25.8,4.5,50.6-4.3,75.6-8.4c20.9-3.4,41.4-9.1,62-14.1c23.8-5.8,39.9,5.1,44.4,28.9c2.3,12.3,4.9,25.3,10.8,36.1
	c17.7,32.6,22.5,68.8,27.3,104c5.2,38.3,4.7,77.8-4.4,116.2c-2.2,9.4,0.5,15.1,7.7,19.7c14.1,9,29.5,15,46.3,11.6
	c20.1-4,40.6-7.9,59.6-15.2c14.2-5.4,27.7-14.6,39.1-24.8c21.6-19.3,42.5-39.6,61.6-61.4c7.3-8.3,11.1-21.4,12.4-32.8
	c3.4-28.8,1.2-58.5,7.3-86.5c6.6-30,7.8-60.1,11.2-90.2c2.7-23.9,4.4-47.9,8.5-71.5c5.3-30.5,12.3-60.8,19.3-91
	c3.2-13.7,8.1-27,12.5-40.5c2.2-6.7,4.1-13.7,7.6-19.7c6.4-11.2,16.8-19.3,29.5-16.9c11.6,2.2,21.1,9.6,25.7,22.8
	c11.7,33.9,17.7,68.8,16.3,104.3c-1.5,38.1-6,76.1-9.8,114.1c-1,9.8-4.8,19.2-6.7,28.9c-1.4,7.4-1.8,15-3.2,26.6
	c7.3-4.1,11.7-5.5,14.7-8.5c14.1-13.8,28.5-27.4,41.3-42.3c8.6-10.1,14.7-22.3,22.2-33.4c11.8-17.4,22.5-35.7,36-51.7
	c27.4-32.3,55.9-63.7,92-87.2c20.7-13.5,39.5-29.9,60.4-43.1c16.7-10.5,35-18.5,52.9-27c23.5-11.3,47.2-21.7,73.6-25.4
	c23.9-3.4,41.2,4.5,52,26.2c15,30.2,15.5,62.9,16.4,95.3c1,38.2,0.4,76.3,0.5,114.5c0.1,48-0.3,96,0.6,144c0.3,17.6,3,35.3,5.9,52.7
	c3.8,22.9,8.2,45.8,13.5,68.4c6.6,28,36.9,52.6,65.7,56.5c27.5,3.7,53.9-0.2,79.2-10.2c51.9-20.4,93.1-55.8,130.4-96.3
	c0.9-1,1-2.6,2-5.5c-7.1-10.2-13.5-22.2-22.5-31.9c-15.7-16.9-27.3-33.8-29.7-58.7c-2.3-23.1-8.5-46.1-2.9-69
	c4.5-18.3,9.7-38.1,20.6-52.6c10.5-13.9,28.5-22.4,43.8-32.3c6.4-4.1,14.3-6,21.7-8.5c14.9-5,29.7-4.1,43,4.2
	c18.7,11.6,32.5,28.2,37.4,49.7c13.6,59.1,0.7,113.7-30.4,164.8c-1.1,1.8-2.8,3.2-3.9,5c-7.4,12.1-6.2,16.8,6.4,23.4
	c21.7,11.3,45.3,16.6,69.2,19.6c53.4,6.6,106,1.5,158-11.3c35.9-8.9,69.2-24.5,102.3-40.8c27.7-13.6,51.9-31.7,74.8-51.8
	c3-2.6,6.4-4.8,9.5-7.1c1.5,1.5,2.4,2.2,2.3,2.5c-5.9,19.8-9.8,40.6-18.7,59c-4.6,9.5-17.4,16.4-28,21.6
	c-28.5,14-58.2,25.4-86.5,39.8c-28.7,14.6-59,23.4-90.3,29.2c-40.7,7.5-81.7,5.7-122.8,3.2c-33.7-2.1-65.5-10.8-95.7-25.8
	c-10.1-5-18.9-4.6-26.9,4.2c-10.5,11.5-20.3,23.8-32.1,33.7c-22.3,18.4-45.5,35.9-69,52.7c-36.4,26.1-78.6,34.9-122.1,37.9
	c-11.6,0.8-24.1-1.6-35.3-5.1c-24.2-7.7-50.1-14.8-65.7-36.4c-12.6-17.4-23.6-37-30.6-57.2c-15-43.3-14.7-89.2-16.7-134.5
	c-1.1-25.5-1.1-51-1.4-76.4c-0.3-29.6-0.4-59.3-0.6-88.9c0-0.7-0.1-1.5,0.1-2.1c13.9-41.3-5.4-82-2.2-123.2c0.1-0.7-0.1-1.4-0.2-2.1
	c-5.5-35.1-15.5-40.7-48.8-28.4c-38.2,14.1-71.5,37.3-106.5,57.4c-46.2,26.5-82.8,63.8-118.5,102.3c-2.4,2.6-4.4,5.6-6,8.7
	c-0.9,1.8-0.7,4.1-1.4,8.9c6.8,1.1,13.4,2.7,20,3c67,3.6,110.2,41.1,133.8,100.3c25.9,65,16.8,128.4-16.9,189.6
	c-28.4,51.6-68.2,92.3-116.1,124.4c-21.7,14.5-48.8,23.7-74.7,28.4c-40.8,7.5-70.7-19.9-73.9-62c-0.9-11.8-1.4-23.7-1.5-35.5
	c0-6,0.4-12.4-6.8-13.4c-8.1-1.1-8,6-8.8,11.6c-5.4,34.8-10.9,69.5-16.6,104.2c-0.9,5.5-2.8,11-5.2,16.1
	c-5.8,12.1-15.2,16.3-27.9,12c-14.3-4.9-26.7-10.9-32.3-27.6c-5.6-16.9-9.4-33.2-10.8-51.2c-2.1-26.4-9.4-52.3-14.7-78.4
	c-0.5-2.7-2.6-5-4.7-9c-21.5,15.5-40.7,28.6-59.1,42.7c-28.6,22-61.8,28.9-96.5,33.4c-27.8,3.6-53.3-2.7-78.8-11.6
	c-3.3-1.1-6.8-1.5-9.6-2.2c-14.8,18.2-27.9,36.6-43.4,52.7c-16.6,17.2-33.5,35.6-53.7,47.7c-44.3,26.5-94.1,34.6-143.5-0.8
	c-12-8.6-18.7-19.8-16.4-35.9c1-6.8-4.1-14.3-4.2-21.4c-0.5-26.4,3.8-52.2,12.7-77.1c12.3-34.6,27-67.6,45.2-99.9
	c16.8-29.8,33-60.6,48.3-91.4c9.5-19.2,20.5-36.9,33.7-53.5c1.6-2,1.9-5,4.1-11.4c-17.8,3.3-32.7,6.2-47.7,8.7
	c-8.9,1.5-18,2.5-27,3.2c-7,0.6-14.3-0.4-21.2,0.7c-51.7,8.4-103.4,16.7-155,25.8c-37.4,6.6-43.5,12.5-49.7,49.3
	c-5,29.7-18.4,56.4-29,83.9c-10.6,27.5-27.2,52.6-40.4,79c-3.3,6.7-6.5,15-5.6,22c4.4,33.6,7.6,67.7,16.2,100.3
	c7.1,27,20.9,52.3,32.2,78.2c1.8,4.2,6.3,7.2,9.9,11.1c10.4-6.6,7.9-16.8,9.6-25.2c1.3-6.4,1.4-13.3,10-13.8
	c7.7-0.5,10.5,4.2,12.8,11.3c3.3,9.9,10.5,18.7,12.8,28.8c2.9,12.9,3.7,26.5,3,39.7c-0.6,10.3-6.4,18.6-19.1,18.8
	c-6.3,0.1-12.5,2.6-18.9,2.9c-14.8,0.6-27.5-2.8-36.6-16.5c-8.6-12.9-19.2-24.4-29.1-36.4c-12.5-15-19.1-32.3-23.9-51.2
	c-6.5-25.6-16.2-50.5-25.8-79.4c-7.5,6.1-12.7,9.2-16.5,13.5c-56.2,63.6-122.6,115.2-192,163c-17.4,12-34.3,25.3-53.1,34.3
	c-20.2,9.7-42.7,14.7-63.8,22.6c-24.6,9.2-50.2,8.2-75.1,5.8c-33.8-3.3-69.2-9.1-91.6-37.5c-22-27.9-43.7-57.9-38.6-97.5
	c0.7-5.3-0.6-10.8-1.2-19.3c-7.7,3.8-13.8,5.6-18.4,9.3c-49,39.6-98.3,78.8-146.4,119.5c-20.4,17.3-38.4,37.5-56.5,57.2
	c-4,4.4-5.9,12.9-5.1,19.1c3,23.8,7.4,47.5,11.3,71.2c6.2,37.6,12.3,75.3,18.7,112.9c8.1,47.2,17.7,94.2,24.5,141.7
	c4.1,28.6,6.8,58.1,4.7,86.8c-1.7,23.5-8,47.9-18.1,69.2c-14,29.5-64,29.9-85.6,4.9c-17.4-20.1-29.3-43-41.6-65.9
	c-8.4-15.5-15.7-31.4-15.2-50.2c0.2-8.8-5-17.5-7-26.5c-6.1-28.3-7.5-57.1-10-85.9c-1.3-14.8-2.6-30.6-6.1-45.4
	c-2.9-11.9,0.1-22.2,2.5-33.2c3-13.8,5.1-27.7,7.9-41.5c3-15.1,6.4-30,9.6-45.1c1.1-5.3,1.8-10.8,3.2-16.1
	c3.1-12.1,3.9-24.9,15.5-33.8c5.1-3.9,7.4-11.7,10.1-18.1c2.5-5.8,2.7-12.8,5.9-18c16.4-26.1,9.9-52.7,4.2-79.9
	c-3.4-16.4-3.2-33.4-5.1-50.2c-1-9.1-6.8-19.5-4-26.8c6.8-17.6-3.7-31.2-5.8-52c-7.1,9.3-12.4,14.7-15.9,21
	c-26.2,47.2-63.4,85.5-104.1,119.5c-31,25.9-68.5,40-110.3,35.9c-22.4-2.2-42.5-10.4-56.6-29.6c-6.2-8.4-13.2-16.3-21.9-26.9
	c-12.6,7.2-25.9,14.7-39,22.4c-9.7,5.6-19.1,11.9-29,17.1c-16.3,8.4-32.8,16.4-49.4,24.2c-32,15.1-64.7,28.1-99.4,35.8
	c-24,5.4-47.6,13.5-71.9,17c-20.8,3-42.4,2-63.5,1c-37.6-1.8-71.3-15.9-102.7-35.9c-15.4-9.8-24.2-25.3-32.9-40.3
	c-8.1-13.9-9.6-16.2-24.1-9.1c-10,4.9-19.4,5.6-30.5,4.9c-18.3-1.1-28-10.9-35.6-25.7c7.5-14.2,22.2-17.4,34.4-23.8
	c8.7-4.6,18-8.4,27.3-11.7c13.4-4.9,21.4-14.2,21.5-28.2c0.3-32.6,15.1-61.4,22.8-92c7.8-30.9,23-57.6,41.1-83.2
	c6.9-9.8,13.1-20.2,18.8-30.8c14.9-27.8,38.6-45.2,67.4-55c18.6-6.4,37.5-0.3,51.4,12.8c14.3,13.6,24,29.9,22.8,52.3
	c-3,57.9-27.4,104.2-69.5,142.8c-31.7,29.1-62.3,59.3-93.8,88.7c-7,6.6-6.2,14.1-4.4,21.6c6.3,26.9,24.9,44.4,48.3,55.8
	c26.1,12.7,54.8,14.4,83.2,10.9c56.4-6.9,110.6-20.7,163.4-43.7c43.7-19,84.7-42.2,126.1-65c13.8-7.6,24.3-16.6,26-33.5
	c0.5-4.7,3.1-9.4,5.2-13.8c13.9-28.4,27.6-56.9,42.1-84.9c5.5-10.6,12.8-20.3,19.3-30.3c25.8-39.5,50-80.2,78-118.1
	c23-31.1,50.4-59.1,76.3-88c8-8.9,17.1-17,26.6-24.2c18.2-13.7,37.8-24.4,61.6-24.1c11.7,0.2,21.8-3.5,31.6-10.3
	c9.4-6.5,19.9-10.8,31.7-3.3c13.1,8.4,15.7,21.1,16.3,34.8c0.2,3.4-2.5,6.9-2.3,10.2c4.2,60.7-22.8,116-30,174.7
	c-0.8,6.3-2.2,12.6-2.4,18.9c-1.1,54.5-1.7,108.9,6.4,163.1c2.4,16,1.8,32.5,2.9,48.7c0.7,9.6-1,20,8.7,28.4
	c5.1-4.1,10.3-7.6,14.6-12c42.6-44.3,91.9-80.6,140.7-117.5c23.7-17.9,48.6-34.1,71.9-52.5c25-19.8,46.4-41.8,53.7-75.7
	c7-32.9,28.1-59.5,48.4-85.9c19.4-25.2,38.7-50,64.3-69.7c15-11.6,30.4-20.8,48.8-23.4c13.7-1.9,26.6-7.8,41.5-4.3
	c35.3,8.4,38.4,40.3,23.4,61.8c-31.1,44.7-69.3,81.8-112.6,114.5c-25.9,19.6-50.6,40.8-75.7,61.6c-3.7,3.1-7.1,7.2-9.1,11.5
	c-15,32.9-21.2,67.1-16.8,103.3c2,16.3,10.6,27.8,22.5,36.9c37.6,29.1,78.2,35.6,123.8,18.6c53-19.8,100.3-48.1,144.3-83.6
	c23.6-19,48.6-36.2,71.1-56.8c36.4-33.5,71.6-68,97.2-110.9c2.1-3.5,4.8-7.8,4.4-11.5c-1.9-17.4-0.1-34.7-2.2-52.3
	c-4.7-38.4-4.6-77.4-6.5-116.1c-0.2-4-0.6-8-1.2-14.5c-8.8,1.6-16.4,2.2-23.6,4.3c-31.2,9.1-62.5,18.3-93.5,28
	c-16.4,5.1-35,1.5-44.7-10c-6.9-8.1-6.5-13.9,1.2-21.9c13-13.5,30.5-17.6,47.4-22.3c27.2-7.5,55-13,82.4-20.1
	c27.7-7.3,38.4-21.6,37-50.2c-1.7-33.5,3.7-66.2,10.1-98.7c7.3-36.7,14.5-73.4,23.6-109.6c4.1-16.1,10.6-32.5,20.1-46
	c14.3-20.2,32.9-20.1,50.9,0.9c38.2,44.8,47.7,99.4,51.6,156.1c1.9,28.4,0.1,56.4-0.6,84.6C2230.7,465.9,2231.8,472,2232.7,482.1z
	 M3037.3,711.1c3.9,22.8,7.2,45.8,11.8,68.4c2.7,13.2,8.3,16.2,21.3,14.5c3.5-0.4,6.8-1.7,10.3-2.5c44.8-10.5,78.9-39.1,107-72.3
	c27.1-32,48.6-68.7,58.1-111.6c11.4-51.1,0.4-95.2-33.2-134.1c-30.4-35.3-78.6-37.7-115.9-8.6c-19.5,15.3-27.8,35.8-33.4,57.3
	C3047.3,584,3037.2,646.6,3037.3,711.1z M2543.8,536.4c-7.8,9.3-13.8,14.8-17.8,21.5c-13.5,22.3-27,44.7-39.2,67.8
	c-19.7,37.4-41.3,74-53.8,114.7c-8.1,26.3-17.3,52.5-15.5,80.7c1,16.6,5.9,22.5,22.3,25.5c20,3.7,39.5,1,57.8-8
	c17.1-8.4,33.3-17.9,44.8-34.2c13.8-19.6,28.9-38.2,43.2-57.3c4.7-6.2,3.4-12.5,1.6-19.9c-5.6-23.1-19.1-43.3-22.1-67.6
	c-4.5-36.3-12.2-72.2-18.6-108.3C2546,548.1,2545.4,544.9,2543.8,536.4z M1292.6,1179.3c-12.2-2.6-14.4,5.9-16.7,11.8
	c-6.7,17.1-15,34.2-17.6,52.1c-6.5,43.8-8.8,88.3-4.3,132.3c5.3,51.5,21.1,100.9,39.9,149c4,10.4,10.4,20.2,17.4,29
	c7.8,9.8,18.2,7.9,22.7-3.8c3.5-9.1,8-19.1,7.5-28.4c-2.1-38.8-4.3-77.8-9.6-116.3c-4.9-35.4-17.3-69.6-17.5-105.8c0-4-2.7-7.9-4-12
	c-6.8-22.7-16-44.8-15.4-69.4C1295.4,1204.9,1293.4,1191.8,1292.6,1179.3z M1025,924.7c1.3,0.8,2.6,1.6,3.9,2.4
	c31.8-25.5,64.5-49.8,95-76.7c29.6-26.1,55.2-56.6,85.5-81.8c36.7-30.5,50.2-70.5,55.6-115c0.9-7.3,2.9-17.7-6.4-20.4
	c-6.3-1.8-16.1-0.1-21.3,3.9c-18.4,14.2-37.6,28.3-52.8,45.8c-25.8,29.7-49.3,61.5-72.6,93.3c-14.1,19.3-26.1,40.2-38.9,60.6
	c-13.5,21.5-27,43.1-39.8,65C1029.4,908.8,1027.7,917.1,1025,924.7z M1240.3,807.4c-24.1,20.2-44.4,37.1-64.6,54.2
	c-20.9,17.8-40.9,36.8-62.6,53.6c-28.4,21.9-58.2,42.1-87.3,63.2c-6.9,5-13.6,10.2-19.8,16c-9.8,9.2-7.8,21-4.7,31.9
	c3.1,10.5,11.8,16.9,22.5,15.9c15.2-1.4,31.9-1.6,45-8.2c37.6-19,67-49.2,92.9-81.7c17.8-22.4,32.6-47.5,46.3-72.7
	C1220,857.8,1228.6,834.1,1240.3,807.4z M3833.3,452.7c-2.7-11.1-5.9-24.1-8.9-37.1c-2-8.5-8.3-11.3-15.9-10.9
	c-5.5,0.3-11.5,1.3-16.4,3.8c-24,11.9-38.9,28.6-43.6,57.7c-6.2,37.7,3,68.3,26.5,96.4c10.6,12.7,17,12,24.7-3
	c2.9-5.7,5.6-11.4,8.3-17.2C3821.2,514.7,3828,485.3,3833.3,452.7z M2123.9,500c16.8-1.9,31.3-3.5,45.8-5.2
	c9.9-1.1,12-7.3,12.2-16.4c0.4-15.4,2.4-30.8,3.9-46.2c0.5-5.6,2.3-11.4,1.7-16.9c-3.2-27.9,0-56.5-7.6-83.9
	c-4.6-16.5-5-34.4-15.6-51.2c-12.2,14.6-13.7,31.4-17.1,46.4C2134.3,382.9,2125.1,439.9,2123.9,500z M511.9,936.4
	c4.9,0.8,5.8,1.2,6.2,0.9c1.8-1.1,3.6-2.2,5.1-3.6c25.2-24.3,55-44.7,67.8-79.5c20.4-17.7,19.3-42.9,22.5-66.4
	c0.6-4.2-2.1-8.8-3.5-14.2c-20.9,4.3-32,19.7-41.1,33.4c-16.2,24.7-29.4,51.6-41.8,78.5C520,901.2,517,918.7,511.9,936.4z
	 M2124.3,657.1c1.7,0.2,3.5,0.4,5.2,0.7c6.1-12.4,13.4-24.5,18.2-37.4c7.2-19.7,12.5-40,18.7-60.1c1.6-5.2,3.5-10.4,5.5-16.2
	c-16.8-5.2-30.4,1.4-43.3,7.8c-4.2,2.1-7.4,10.4-7.5,16c-0.4,20.4,0.4,40.8,1.1,61.2C2122.6,638.3,2123.6,647.7,2124.3,657.1z
	 M1777.1,644c-50.8,27.8-84.2,66-104.1,116.3c25.3-20.2,50.3-40.7,73.1-63.4C1759.5,683.5,1776.2,670.8,1777.1,644z M2974,558.8
	c-1.2-0.6-2.4-1.1-3.6-1.7c-2.9,4.2-6.3,8.2-8.5,12.7c-7.6,15.1-15.1,30.2-22.2,45.6c-3.5,7.6-6.1,15.7-9.1,23.6
	c-10.7,28.4-4.2,57.1-1.6,85.7c0.4,4.3,2.3,8.4,4.5,15.8c3-5.8,4.5-8.1,5.5-10.6c5.9-14.8,4.4-30.3,5.6-45.7
	c2.9-39.3,13.1-77.3,27.6-114C2973.4,566.6,2973.4,562.6,2974,558.8z M2966.2,320.4c-18.5,49.8-20,102.2-21.6,154.7
	C2954.1,423.9,2979.8,375.2,2966.2,320.4z M2990.5,715.1c10.1-9.5,12.8-15.9,4.7-28.9C2993.4,697.4,2992.3,704,2990.5,715.1z
	 M2085.8,662.4c-2.2,1.3-3.3,1.9-4.5,2.6c1.3,2.2,2.5,4.4,4,6.4c0.1,0.2,3.2-1.4,3.2-1.7C2087.9,667.3,2086.8,665,2085.8,662.4z"/>
<path d="M1869.1,1702.3c-0.4,8.2-1,15-0.9,21.9c0.2,13.4-0.1,27,1.4,40.3c1.1,9.6,3,19.9,7.4,28.4c23.8,45.7,50,90.3,72.2,136.7
	c12.4,25.9,18.7,54.7,27.4,82.3c2.3,7.4,3.3,15.3,5.4,22.7c9.1,32,4.5,61.4-16.1,88c-6.1,7.8-10.8,16.8-17.5,24
	c-16.3,17.4-35.9,24.9-60.7,22.2c-16.9-1.9-31.3-7.6-45.7-15.4c-17.2-9.3-26.8-23.4-26.7-42.7c0.1-14-5.2-26-8.9-38.8
	c-4.8-16.7-8.1-34.5-7.8-51.8c0.6-34.6,4.2-69.2,6.2-103.7c1.7-28.9,0.4-58.2,5.1-86.5c7.1-42.3-20.4-68.5-40-98.7
	c-6-9.3-13.7-17.5-21.9-27.8c-20.3,7.3-41.1,17.1-59.3,31.6c-51,40.3-88.2,90.8-111.9,151.4c-4.6,11.9-10.4,23.3-15.7,34.9
	c-14.1,31-24.8,62.9-28.8,96.9c-0.8,7-2.6,13.9-4.6,20.8c-8.8,30.9-11.7,62.4-11.2,94.4c0.1,3.5-0.6,7-1.2,10.5
	c-3.8,20.8-7.8,41.6-11.4,62.4c-2.7,15.7-10.3,23.6-25.4,25.8c-26.3,3.7-40-7-38.7-33.5c1.1-21.8,6.2-43.4,8.7-65.1
	c2.7-23.7,5.8-47.5,6-71.3c0.3-33-1.2-66.1-3.5-99.1c-0.8-12.3-5.2-24.5-9.3-36.3c-6.8-19.8-14.2-39.5-22.4-58.9
	c-2.6-6.2-8.5-11-12.8-16.5c-7-8.9-15.5-11.1-26.4-8c-6,1.8-12.6,1.7-18.9,2.6c-18.9,2.9-22.5,9.6-16.7,27.7
	c3.8,11.9,5.6,24.6,9.7,36.4c9.3,26.3,4.4,53.5,4.7,80.1c0.2,22.1-7.9,44.2-11.2,66.5c-8.5,56-36.9,103.9-63.7,151.8
	c-25.1,45-53.1,88.9-88.6,126.5c-23.2,24.5-48,48.5-75.7,67.5c-25.1,17.3-54.2,24.6-86.3,10.2c-24.2-10.8-33.7-28.2-41.9-51.5
	c-10.6-30.4-8.1-59.7-3.8-89.9c0.9-6.3,1.2-12.7,1-19c-1.9-52.2,7.9-102.8,26.4-151.1c20.1-52.4,52.4-97.5,90.5-139.1
	c25.8-28.2,54.5-52.7,82.4-78.4c21.4-19.7,46.2-33.9,70.1-53.1c-14.7-20.7-32.8-35.3-55.8-40.4c-70.6-15.6-148.6,24.7-187.2,84.3
	c-21.1,32.7-34.9,67.9-48.5,103.1c-11.9,30.6-16.2,64.2-22.9,96.7c-4.7,22.8-8.4,45.8-11.7,68.8c-5.4,38.1-17,75-18.2,114
	c-0.7,20.8-6.9,41.4-10.1,62.2c-1.3,8.3-1,16.9-2.2,25.3c-1.3,8.9-3,17.9-5.2,26.6c-3.4,12.9-7.2,25.8-11.3,38.5
	c-2.1,6.6-5.5,12.8-8,19.3c-4.7,12.6-14.1,15.7-26.8,16.1c-34.1,1.1-44.9-12.5-35.4-45.9c1.2-4,3.5-8.6,2.6-12.2
	c-4.6-18.9,3.2-36.3,5.4-54.4c2.4-19.6,3.5-39-0.3-58.8c-2-10.6,0-22,0.8-33c0.7-9.8,2.3-19.6,3.5-29.3c1.7-13.3,4.1-26.5,5-39.9
	c1.2-18.5,1.2-37.1,1.6-55.6c0.4-22.5-4.5-45.2,2.9-67.4c1.3-3.8,0.2-8.4,0.3-12.7c0.3-35.3,1.1-70.5,0.6-105.8
	c-0.3-26.7-2.4-53.4-3.5-80c-0.3-7.7-2.3-16.5,0.6-22.9c6.7-14.7,4.5-28.8,2.1-43.6c-1.5-8.9-0.6-18.1-1.1-27.2
	c-1-16.8-2.4-33.6-3.4-50.5c-0.5-7.7-1.1-15.4-0.4-23c2.6-27.2,3.7-54.2-2-81.3c-2.1-10.1-0.6-21.1-0.4-31.6
	c0.3-12.2,13.1-23.9,27.8-25.7c11.8-1.5,21.7,6.9,26,20.1c6.8,20.7,3.2,41.9,3.5,62.8c0.5,31.7-2,63.5-2,95.3c0,45.9,1,91.9,2,137.8
	c0.5,24.7,2.4,49.4,2.6,74.1c0.2,27.4-0.8,54.9-1.1,82.3c-0.2,21,0,42.1,0,66.4c7.8-4.2,12.4-6.7,18.4-9.9
	c-8.5-22.6,0.4-42.5,6.8-63.3c8.2-26.6,14.5-53.9,20.3-81.2c1.7-8,5.2-13.7,9.3-20.4c8.8-14.2,15-30,22.8-44.8
	c3.9-7.3,8.9-14,13.6-20.9c1.2-1.7,3.8-2.8,4.3-4.5c11.2-39.3,47.8-53.4,76.4-74.5c13.5-10,32.5-12.6,49-18.6
	c44.5-16.2,88.9-10.5,132.4,2.7c14.8,4.5,27.4,16.8,40.7,25.9c3.4,2.3,5.9,6.1,8.6,9.3c12.1,14.7,25.4,19.1,44.8,12.4
	c17-5.9,36-6.4,54.2-8.9c40-5.5,69.8,26,81.8,52.7c10.4,23.1,16.9,47.9,25.3,71.8c1,3,3.3,5.5,7.5,12.1
	c8.2-16.8,16.3-29.9,21.2-44.2c6.5-18.9,16.3-35.7,27.2-52.3c7.6-11.7,12.2-25.3,20.1-36.8c20.6-30.2,42.6-59.2,74.2-79.3
	c4.7-3,8.2-7.8,12.3-11.7c32.4-30.5,71.5-49.2,113.4-62.1c20.6-6.3,41.8-5.7,61.8,5.1c5.5,3,12.1,4.2,18.3,5.3
	c15.2,2.7,30.5,4.9,45.8,7.3c17,2.7,34,5.3,51,7.9c2.1,0.3,4.8-0.5,6.3,0.6c5.3,4,13.1,7.7,14.5,13c2.3,9.1-6.7,14.5-14,15.4
	c-20.1,2.5-39.2,10.6-60,9.2C1887.5,1699.5,1879.1,1701.4,1869.1,1702.3z M1284.2,1884.1c-5.3,1.3-10.4,1.6-14.5,3.8
	c-11.6,6.4-23.1,13.2-34.1,20.7c-14,9.4-28.4,18.6-41.2,29.6c-38.9,33.4-69.6,74-100.6,114.4c-18,23.6-28.2,51-37.9,77.8
	c-19.2,53.2-22.7,109.3-19.6,165.6c0.8,14,3.7,28.1,7.1,41.7c3.9,15.2,13.5,20.9,28.7,18.2c6.1-1.1,12.3-3.5,17.8-6.4
	c27.8-14.9,50.9-35.8,71-59.7c19.1-22.7,36.7-46.5,54.4-70.3c8-10.7,15.7-21.9,21.6-33.8c12.5-25.3,22.9-51.7,35.9-76.8
	c13.8-26.6,19.3-55.4,26.6-83.8c2.9-11.5,3.9-23.7,4-35.6c0.1-16.2-0.8-32.5-2.4-48.6C1299.2,1921.4,1296.6,1901.7,1284.2,1884.1z
	 M1867.3,1882.6c-1.7,0.8-3.5,1.5-5.2,2.3c-2.3,28.8-5.5,57.6-6.7,86.5c-1,24-1.4,48.3,1.5,72c2.4,20.1,5.8,40.8,19.6,57.6
	c11.2,13.6,20.9,14.1,33.3,1c19.1-20.2,18.3-45.6,15.1-69.6c-3.1-22.8-11.7-45.1-19.4-67c-6.8-19.2-15.5-37.8-23.9-56.4
	C1877.4,1899.9,1872.1,1891.4,1867.3,1882.6z"/>
<path d="M2857.2,2028.4c13.7-20.4,19.8-37.5,22.2-56.9c3.2-25.9,9-51.5,11.7-77.4c1.9-17.8,9.7-35,6.1-53.5c-0.4-2-0.7-4.5,0.1-6.3
	c9.3-21.9,3.4-44.5,4.1-66.9c0.9-24.7-1.1-49.2-0.3-73.7c0.3-8.9,3-18.2,6.7-26.3c7.4-15.8,24.1-21.3,39-12.8
	c7.1,4.1,13.2,10.6,18.5,17c19.8,24,37.8,49.6,59,72.2c23.1,24.4,51.8,41.4,84.9,50c15.1,3.9,29.8,10.2,45.1,12.3
	c23.7,3.3,47.7,5.5,71.6,5.3c42.5-0.4,85-1.9,127.3-5.1c31.6-2.4,62.8-9,94.3-12.4c21.6-2.4,43.4-3,65.1-3.4
	c5.7-0.1,11.4,3.8,20.1,6.9c-5.4,4.6-7.9,8.2-11.2,9.2c-15.5,4.8-31.2,8.8-46.7,13.4c-2.6,0.8-5.5,2.1-7.4,4.1
	c-21.4,22.3-50.8,17.1-77.1,22.3c-8.2,1.6-16.5,3.2-24.7,4.7c-18.7,3.4-37.4,8.5-56.3,9.8c-28.8,2-57.9,1.4-86.8,1.8
	c-3.5,0-7.1-0.8-10.6-0.6c-63.9,4-122.8-13.5-178.8-42.2c-13.6-7-25.6-17.4-37.6-27.1c-13.1-10.5-25.4-21.9-41.2-35.6
	c-1.6,14-3.2,23.4-3.8,32.9c-2.7,40.2-3.9,80.5-8,120.6c-2.3,23-8.9,45.6-13.8,68.3c-3.9,18-9.1,35.7-12,53.8
	c-3,19-12.4,34.7-23.5,49.3c-15.3,20.1-41.9,21.9-58.9,3.1c-32.5-36-53-78.2-59-126.8c-3.9-31.4-7.4-62.9-11.7-94.3
	c-0.9-6.8-5.3-13.1-6.5-20c-3.5-20.1-7.8-40.3-8.8-60.6c-1-21.6-4.2-42.8-2.1-65.2c2.4-25.8-5.1-52.6-8.7-82.3
	c-20.6,9.4-37.4,17.7-54.6,24.8c-14.9,6.1-30.2,11.8-45.7,16.1c-31.3,8.7-62.7,17.8-94.5,23.9c-42.2,8.1-85,13.9-127.6,20
	c-28.6,4.1-57.4,7.1-86.2,10.1c-7.5,0.8-15.2-0.3-22.9-0.4c-11.2,0-15.7,3.8-15.3,15.2c1.6,46.6,3.2,93.2,5.8,139.7
	c2.5,45.2,9.4,89.8,17.5,134.4c8.7,48,15.6,96.3,23.1,144.5c2.2,13.9,5.3,28.5-11.6,37.9c-9-3.2-14.6-9-17.5-18.9
	c-3.2-10.8-8.5-20.9-12.4-31.5c-14.5-39.8-24.9-80.8-32.5-122.5c-1-5.4,0.4-11.3,0.7-16.9c0.7-14.6,0.7-28.3-5.5-43
	c-6-14.1-6-31.4-5.8-47.2c0.2-29.5-1.1-58.4-9-87.3c-5.6-20.8-5.5-43.2-7.7-65c-0.4-4.2,0.2-8.5-0.1-12.7
	c-1.2-18.2-3.6-20.4-22.4-17.7c-24.4,3.5-48.8,7.1-73,11.7c-9.5,1.8-18.7,6.2-27.7,10.3c-19.2,8.9-35.2,7-45.6-7.9
	c-3.4-4.9-5.8-15.2-3-18.9c9.4-12.9,18.3-27.8,34.8-32.8c16.8-5.1,34-9.5,51.4-11.9c21-2.9,42.3-3.1,63.4-5
	c16.2-1.4,19.3-4.9,21.3-20.9c0.3-2.1,0.2-4.2,0.2-6.4c0.4-38.8,0.3-77.7,1.4-116.5c1.2-46.6,2.7-93.3,5.7-139.8
	c1-15.3,6.6-30.4,11-45.3c7.5-25.8,15.4-51.6,23.7-77.1c6-18.4,27.5-31.8,46.3-29.9c10.5,1,17.4,7.1,17.5,17.7
	c0.1,7.6-0.7,16.1-4,22.6c-27.2,53.1-42.1,108.9-42.3,168.8c-0.1,34.6-3.1,69.1-4.1,103.7c-1,33.9-0.7,67.9-1.6,101.9
	c-0.3,11.5,4.7,15.7,15.2,14.9c12.7-1,25.3-2.4,37.9-3.4c15.4-1.2,31-1.3,46.3-3.4c57.4-8,115-15.5,172.1-25.6
	c24.9-4.4,48.8-14.3,72.9-22.4c22.8-7.7,45.2-16.4,67.9-24.3c35.6-12.4,42.7-23,43.4-62.6c0.4-22.4,0.1-44.9,0.6-67.3
	c1-45,1.8-90,3.6-134.9c0.6-14.6,4.3-29,6.2-43.6c2.4-18.6,3.8-37.4,6.6-55.9c3.6-23.7,8.2-47.2,12.3-70.8c1.6-9.1,4-18.1,4.2-27.2
	c0.2-12.6,6.2-19.9,17.4-23.6c10.9-3.6,22.3-7.4,31.6,3.1c8.3,9.4,17.2,18.8,23.5,29.6c30.1,51.3,45.5,108.1,55.6,166
	c5.6,32.3,10.5,65.3,2.4,98.6c-5.1,21.1-6.9,43-11.5,64.3c-4.5,21-14.7,39.7-28.5,56.1c-10.5,12.4-21.2,24.7-32.6,36.3
	c-7.8,8-16.4,15.3-25.3,22c-12,9.1-14.9,21.1-15.7,35.4c-3.3,53.3,4.8,105.9,9.2,158.8c3.4,40.9,12.3,80.8,19.4,121
	c6.4,36.3,15.8,71.3,25.4,106.5C2849.9,2015.1,2852.7,2019.1,2857.2,2028.4z M2826,1205.8c-10.7,35.3-18.2,70.4-21.2,106
	c-3.1,36.6-2.5,73.4-4.7,110.1c-2.1,35.4-6.2,70.7-4.3,107.3c5.1-1.4,7.6-1.4,9-2.6c28.5-24.1,45.4-56.4,55-90.8
	c6.9-24.5,14.5-50.4,11.1-77c-2.5-20.1-5-40.3-8-60.3c-1.1-7.5-5.1-14.9-5-22.3C2858.3,1248,2839.4,1228.8,2826,1205.8z"/>
<path d="M78.3,699.3c-6.5,18.3-3.2,37.5,1,55.7c11.1,48.2,23.6,96.1,36.4,143.8c11,40.9,23.2,81.6,35,122.3
	c9.2,31.9,16.9,64.4,28.5,95.4c8.9,23.9,14.8,48.4,22.4,72.5c1.2,3.8,3.9,7.2,6.5,11.8c9.1-6.1,9.2-15,10.6-22.9
	c7.9-44.5,16.1-89.1,23-133.8c4.8-31.4,7.6-63.2,11.4-94.7c1.1-9.1,1.9-18.5,4.7-27.1c10.6-32.8,4.9-67.4,12-100.5
	c5.9-27.6,12-55.2,17.8-82.8c1.6-7.5,1.3-15.5,3-23c7.6-33,14.3-66.2,23.8-98.6c7.7-26.2,19-51.5,29.1-77c1.7-4.4,5.4-8.2,8.7-11.8
	c12.2-13.3,18.6-15.3,33.1-8.9c13,5.7,22.9,13.9,21,30.6c-0.6,5.4,2.7,11.4,1.6,16.7c-1.7,8.6-3.1,21.1-8.9,24.4
	c-23.1,13.2-29.4,35.9-35.7,57.9c-21.7,74.9-35.4,151.5-45.6,228.8c-9.8,74.3-17.5,148.9-28.6,223c-7.6,50.9-18.4,101.5-30,151.7
	c-4,17.5-13.3,34.3-22.7,49.9c-11.9,19.9-48,15.6-61.1-6.5c-3.9-6.6-6.8-14-9-21.4c-7.8-26.3-15.5-52.7-22.3-79.3
	c-3.1-12.1-2.7-25.2-6.4-37.1c-5.7-18-15.2-34.6-17.1-54.2c-0.7-7.6-9.1-14.2-11.8-22.1c-5.3-15.3-9.2-31.1-13.5-46.8
	c-5.4-19.7-10.6-39.4-16-59c-6.2-22.4-12-44.9-19-67.1c-11.3-35.4-22.2-70.9-30.2-107.3c-4.1-18.5-9.2-36.8-14.8-54.9
	c-1.5-4.7-5.6-10.4-9.9-12.1c-9.1-3.6-10.8-10.5-11.8-18.4c-1.6-12.7,14.8-43.2,25.7-48.1c9.8-4.4,40.1,3.7,47,12.8
	C70.2,686.9,73.9,692.9,78.3,699.3z"/>
<path class="st0" d="M3037.3,711.1c-0.1-64.5,10-127.2,26.1-188.8c5.6-21.6,13.9-42.1,33.4-57.3c37.2-29.1,85.4-26.7,115.9,8.6
	c33.6,38.9,44.6,83,33.2,134.1c-9.6,42.9-31,79.6-58.1,111.6c-28.1,33.2-62.2,61.8-107,72.3c-3.4,0.8-6.8,2.1-10.3,2.5
	c-13,1.7-18.6-1.3-21.3-14.5C3044.4,756.9,3041.2,734,3037.3,711.1z"/>
<path class="st0" d="M2543.8,536.4c1.5,8.4,2.1,11.6,2.7,14.9c6.4,36.1,14.1,72,18.6,108.3c3,24.3,16.5,44.5,22.1,67.6
	c1.8,7.5,3.1,13.7-1.6,19.9c-14.4,19.1-29.5,37.7-43.2,57.3c-11.5,16.3-27.6,25.8-44.8,34.2c-18.3,9-37.8,11.6-57.8,8
	c-16.3-3-21.2-8.9-22.3-25.5c-1.7-28.2,7.5-54.4,15.5-80.7c12.5-40.7,34.1-77.3,53.8-114.7c12.2-23.1,25.7-45.4,39.2-67.8
	C2530,551.3,2536,545.8,2543.8,536.4z"/>
<path class="st0" d="M1292.6,1179.3c0.9,12.5,2.8,25.5,2.5,38.5c-0.6,24.5,8.6,46.6,15.4,69.4c1.2,4,3.9,8,4,12
	c0.2,36.3,12.6,70.5,17.5,105.8c5.3,38.5,7.5,77.4,9.6,116.3c0.5,9.3-4,19.3-7.5,28.4c-4.5,11.7-14.9,13.6-22.7,3.8
	c-7-8.8-13.4-18.6-17.4-29c-18.8-48.2-34.6-97.6-39.9-149c-4.5-44-2.2-88.5,4.3-132.3c2.6-17.9,10.9-35,17.6-52.1
	C1278.2,1185.2,1280.4,1176.8,1292.6,1179.3z"/>
<path class="st0" d="M1025,924.7c2.7-7.6,4.3-15.9,8.3-22.8c12.8-22,26.3-43.5,39.8-65c12.7-20.3,24.7-41.3,38.9-60.6
	c23.3-31.8,46.8-63.6,72.6-93.3c15.1-17.4,34.3-31.6,52.8-45.8c5.2-4,14.9-5.7,21.3-3.9c9.3,2.7,7.3,13,6.4,20.4
	c-5.5,44.5-18.9,84.4-55.6,115c-30.2,25.2-55.9,55.7-85.5,81.8c-30.5,26.9-63.2,51.2-95,76.7C1027.7,926.3,1026.4,925.5,1025,924.7z
	"/>
<path class="st0" d="M1240.3,807.4c-11.8,26.8-20.3,50.4-32.3,72.3c-13.8,25.2-28.5,50.3-46.3,72.7c-25.9,32.5-55.2,62.6-92.9,81.7
	c-13.1,6.6-29.8,6.9-45,8.2c-10.8,1-19.5-5.4-22.5-15.9c-3.2-10.9-5.2-22.7,4.7-31.9c6.2-5.8,13-11,19.8-16
	c29.1-21.1,58.8-41.3,87.3-63.2c21.7-16.8,41.7-35.8,62.6-53.6C1195.9,844.4,1216.3,827.5,1240.3,807.4z"/>
<path class="st0" d="M3833.3,452.7c-5.3,32.6-12.1,62-25.3,89.8c-2.7,5.7-5.4,11.5-8.3,17.2c-7.7,15-14.1,15.7-24.7,3
	c-23.5-28.1-32.7-58.7-26.5-96.4c4.8-29.1,19.6-45.8,43.6-57.7c4.9-2.4,10.8-3.4,16.4-3.8c7.6-0.5,13.9,2.3,15.9,10.9
	C3827.4,428.6,3830.6,441.6,3833.3,452.7z"/>
<path class="st0" d="M2123.9,500c1.2-60.1,10.4-117.1,23.3-173.4c3.4-15,4.8-31.8,17.1-46.4c10.7,16.8,11.1,34.7,15.6,51.2
	c7.6,27.4,4.5,56,7.6,83.9c0.6,5.5-1.2,11.2-1.7,16.9c-1.4,15.4-3.4,30.8-3.9,46.2c-0.3,9.1-2.4,15.3-12.2,16.4
	C2155.2,496.5,2140.7,498.1,2123.9,500z"/>
<path class="st0" d="M511.9,936.4c5.2-17.7,8.2-35.2,15.3-50.8c12.3-26.9,25.5-53.8,41.8-78.5c9.1-13.8,20.1-29.2,41.1-33.4
	c1.4,5.4,4.1,10,3.5,14.2c-3.3,23.5-2.1,48.7-22.5,66.4c-12.8,34.8-42.6,55.2-67.8,79.5c-1.5,1.4-3.3,2.5-5.1,3.6
	C517.7,937.6,516.8,937.2,511.9,936.4z"/>
<path class="st0" d="M2124.3,657.1c-0.7-9.4-1.8-18.7-2.1-28.1c-0.7-20.4-1.6-40.8-1.1-61.2c0.1-5.5,3.3-13.8,7.5-16
	c12.9-6.4,26.5-13,43.3-7.8c-2,5.9-3.9,11-5.5,16.2c-6.2,20-11.5,40.4-18.7,60.1c-4.7,13-12,25-18.2,37.4
	C2127.8,657.5,2126.1,657.3,2124.3,657.1z"/>
<path class="st0" d="M1777.1,644c-0.9,26.8-17.6,39.5-31,52.9c-22.8,22.7-47.8,43.2-73.1,63.4C1692.9,709.9,1726.3,671.7,1777.1,644
	z"/>
<path class="st0" d="M2974,558.8c-0.6,3.8-0.5,7.8-1.9,11.2c-14.5,36.7-24.7,74.7-27.6,114c-1.1,15.4,0.3,30.9-5.6,45.7
	c-1,2.5-2.5,4.8-5.5,10.6c-2.1-7.4-4.1-11.5-4.5-15.8c-2.6-28.6-9.2-57.3,1.6-85.7c3-7.9,5.6-15.9,9.1-23.6
	c7.1-15.3,14.6-30.5,22.2-45.6c2.3-4.5,5.7-8.5,8.5-12.7C2971.5,557.7,2972.7,558.3,2974,558.8z"/>
<path class="st0" d="M2966.2,320.4c13.6,54.9-12.1,103.5-21.6,154.7C2946.2,422.6,2947.7,370.2,2966.2,320.4z"/>
<path class="st0" d="M2990.5,715.1c1.8-11,2.9-17.7,4.7-28.9C3003.4,699.2,3000.6,705.6,2990.5,715.1z"/>
<path class="st0" d="M2085.8,662.4c1,2.5,2.1,4.9,2.7,7.3c0.1,0.3-3,1.8-3.2,1.7c-1.5-2-2.7-4.2-4-6.4
	C2082.5,664.3,2083.6,663.7,2085.8,662.4z"/>
<path class="st0" d="M1284.2,1884.1c12.4,17.6,15,37.2,16.9,56.8c1.6,16.1,2.5,32.4,2.4,48.6c-0.1,11.9-1,24.1-4,35.6
	c-7.3,28.4-12.8,57.3-26.6,83.8c-13,25-23.3,51.5-35.9,76.8c-5.9,11.9-13.6,23.1-21.6,33.8c-17.7,23.8-35.4,47.6-54.4,70.3
	c-20.1,23.9-43.2,44.8-71,59.7c-5.5,3-11.7,5.3-17.8,6.4c-15.3,2.7-24.9-3-28.7-18.2c-3.5-13.6-6.4-27.7-7.1-41.7
	c-3.1-56.3,0.4-112.4,19.6-165.6c9.7-26.8,19.8-54.2,37.9-77.8c31-40.5,61.7-81.1,100.6-114.4c12.8-11,27.2-20.2,41.2-29.6
	c11-7.4,22.5-14.2,34.1-20.7C1273.8,1885.7,1278.9,1885.4,1284.2,1884.1z"/>
<path class="st0" d="M1867.3,1882.6c4.8,8.8,10.2,17.3,14.3,26.4c8.4,18.6,17.1,37.2,23.9,56.4c7.7,22,16.3,44.2,19.4,67
	c3.3,23.9,4,49.4-15.1,69.6c-12.3,13-22,12.6-33.3-1c-13.8-16.8-17.2-37.6-19.6-57.6c-2.8-23.7-2.4-48-1.5-72
	c1.2-28.9,4.4-57.7,6.7-86.5C1863.8,1884.1,1865.5,1883.4,1867.3,1882.6z"/>
<path class="st0" d="M2826,1205.8c13.4,22.9,32.2,42.2,32,70.4c-0.1,7.4,3.9,14.7,5,22.3c3,20.1,5.4,40.2,8,60.3
	c3.4,26.6-4.3,52.5-11.1,77c-9.6,34.4-26.5,66.7-55,90.8c-1.4,1.2-3.9,1.2-9,2.6c-1.9-36.6,2.2-71.9,4.3-107.3
	c2.1-36.7,1.6-73.5,4.7-110.1C2807.8,1276.2,2815.3,1241.1,2826,1205.8z"/>
</svg>
