<?xml version="1.0" encoding="utf-8"?>
<!-- Generator: Adobe Illustrator 21.1.0, SVG Export Plug-In . SVG Version: 6.00 Build 0)  -->
<svg version="1.1" id="Layer_1" xmlns="http://www.w3.org/2000/svg" xmlns:xlink="http://www.w3.org/1999/xlink" x="0px" y="0px"
	 viewBox="0 0 4909.3 2147.3" style="enable-background:new 0 0 4909.3 2147.3;" xml:space="preserve">
<style type="text/css">
	.st0{fill:#FFFFFF;}
	.st1{fill:#231F20;}
	.st2{fill:none;stroke:#231F20;stroke-width:23.3809;stroke-miterlimit:10;}
	.st3{fill:none;stroke:#231F20;stroke-width:23.1195;stroke-miterlimit:10;}
</style>
<polygon class="st0" points="-280.7,-288.3 -280.2,-288.2 -280.2,-288.9 -280.6,-288.9 "/>
<path class="st0" d="M1114,1079.3c13.6,0,27.2-1,40.7,0.3c11.1,1.1,22.5,3.5,32.8,8c21.7,9.2,29.1,25.3,21.5,47.7
	c-4.8,14.1-10.4,29.2-19.7,40.4c-20.3,24.5-43.3,46.5-71.1,62.8c-20.5,12.1-39.9,25.8-59.6,39.3c-31.1,21.2-64.1,38.9-98,54.5
	c-6.1,2.9-11.8,6.7-17.7,10.1c-5.9,3.3-11.6,8.4-17.8,9.1c-17.6,2.2-31.8,10.6-46.8,19.4c-11.6,6.8-24.8,11.5-37.9,14.3
	c-14.1,3-23.1-5.6-25.5-20.8c-1.2-8-3.3-16.4-2.1-24.2c4.4-26.9,0.7-53.3-1.3-79.9c-1.1-15.4-4.4-29.6-8.3-44.3
	c-4.4-15.8-11-27.9-27.2-32.5c-3.2-1-6.2-2.7-9.1-4.6c-8.5-5.6-7.8-17.7,1.5-22.7c4.9-2.7,10.4-4.2,15.7-6.3
	c12.7-4.8,25.2-9.9,38.1-14.3c26.7-9.2,53.1-20.5,80.5-26.6c47.4-10.5,95.5-18.3,143.6-25.8c22.2-3.4,45.1-3.4,67.5-4.9
	C1114,1078.5,1114,1078.9,1114,1079.3"/>
<path class="st0" d="M1671.3,1107.9c6.9,20.2-5.4,39.5-11.5,58.6c-9.9,31.7-21.7,63.3-45.2,88.6c-14.8,15.9-27.1,34.2-40.7,51.2
	c-4.2,5.3-9,10.3-14.1,14.8c-14.4,12.9-29.6,25-43.7,38.3c-12.2,11.4-25.4,19-42.4,18.8c-7.9-0.1-15.7,1.2-23.7,1.2
	c-15.2,0-25.6-10.2-25-26.2c0.5-11.4,2.1-23.4,6.2-34c13.2-34.5,25.6-69.4,50.7-97.7c7.5-8.4,12.9-18.9,19.7-28.3
	c12.3-16.7,25.2-32.6,42.9-43.9c10.4-6.7,18.6-18.1,29.6-23c28.4-12.4,51.8-32.3,77.2-49.2c10.4-6.9,21.3-0.8,21.4,11.7
	C1673,1094.5,1672,1100.3,1671.3,1107.9"/>
<path class="st1" d="M555.1,490.4c-35.5,16.4-42,26.2-42.8,59.8C532.9,533.6,543.9,512.3,555.1,490.4 M1204.7,728.4
	c-1.2-3.2-2.4-6.4-3.6-9.6c-26.6,3.1-53.2,6.1-81.3,9.4c-2,22.3-11.1,41.5,4.7,63C1152.9,769,1178.8,748.7,1204.7,728.4 M1573.5,502
	c-5.8,3.3-12.4,6.1-18,10.3c-62.6,47.3-93,116.5-119.9,187.9c-0.6,1.7-0.6,3.7-0.9,5.6c-1.6,9.8,9,19.8,17.3,15.2
	c11.2-6.1,23.5-12.3,31.7-21.7c19.6-22.6,36.7-47.5,55.4-71c27-33.7,33.8-74.9,41.7-115.7C1581.3,510.3,1577.1,507,1573.5,502
	 M1055.3,561.4c-6-0.6-8.1-1.4-9.5-0.8c-52.2,21.6-93.4,60.9-139.3,92.5c-9.9,6.8-17.2,20-22.1,31.9c-11,27,7.4,51.8,35.4,46.9
	c17.9-3.1,35.1-11.1,52.4-17.7C1034,690.7,1075.2,643.4,1055.3,561.4 M1058.2,1397.6c24.5-83.5,26.6-378.2,3-447.7
	c-5.9,5.6-12.5,9.5-15.7,15.2c-20.2,37.1-33.9,76.4-40.6,118.6c-7.5,47.4-11.9,95.2-6.6,142.8c5.2,45.5,14.8,90.4,24.2,135.2
	C1026.1,1378.1,1033.4,1394.6,1058.2,1397.6 M1679.7,867.3c-11.8,22.6-22.3,38-28.2,55.1c-19.7,57.5-35.7,116.5-57,173.3
	c-42.8,114.5-49.7,234.6-55.3,354.9c-1.5,32.7,7.6,64.4,22.6,93.5c11.3,21.8,31.8,27.7,51.8,15.5c9.5-5.8,17.8-13.8,26-21.5
	c57.7-54.6,81.2-127.4,93.7-202.9c8.3-50.3,5.1-102.8,5.3-154.4C1739,1075,1702.9,976.4,1679.7,867.3 M1016.7,515
	c-5.3,1.1-10.9,1.5-15.6,3.8c-2.1,1-2.3,6.1-3.3,9.3c2.8-0.3,6.8,0.6,8.3-1c3.7-3.9,6.2-8.9,9.3-13.4c6.9-5.4,22.2-0.1,20.8-19.8
	C1028.5,502.2,1022.6,508.6,1016.7,515 M2285.1,598.2c-42.4-3.7-69.2,13.7-90,43.8c-6.5,9.4-14.3,17.7-21.1,26.9
	c-16.5,22.4-38.5,35.6-64.9,41.9c-22.7,5.4-38.6-10-58.6-19.5c-11.8-41.7-18.3-84.6-17.2-128.9c0.7-30.2,1.9-60.7-9.9-90.9
	c-65.3,20.1-121.5,54.6-170.1,99.2c-44.4,40.7-79.9,90.9-108.5,145c-15.1,28.5-34.8,58-37.8,88.5c-3,30.4,12.2,62.7,19.8,94.1
	c3.6,14.9,8.4,29.4,12.5,44.2c21.5,77.7,34.6,156.6,39.5,237.6c4,65.5,4.2,130-9.8,194c-5.3,24-14.4,47.2-23.1,70.2
	c-7.4,19.6-16.1,38.6-25.4,57.3c-5.9,11.8-13.1,23.2-21.1,33.6c-12.6,16.4-25.6,32.6-40.1,47.3c-8.9,9-19.9,17.7-31.6,21.8
	c-61.4,21.9-95.8,6.3-117.5-57.5c-14-41.3-23.4-84.5-17-129.6c18-126.9,37.7-253.6,77-375.7c17.5-54.3,40.7-106.7,61.4-160
	c2.8-7.1,6.8-13.8,8.9-21.1c21.5-71.7,27.4-45.5,1.3-120.2c-11.3-32.2-16.9-66.5-25.4-99.8c-1.8-6.8-4.6-13.3-8.2-23.6
	c-33.5,42-63.6,80.6-94.7,118.5c-20.6,25.1-43.1,48.6-75.5,56.8c-10.3,2.6-22.1,2.9-32.5,0.8c-18.1-3.7-28.8-15.9-31.7-35.5
	c-2.6-17.5-2.3-34.2,4.9-50.7c5.1-11.6,9.1-23.7,16.5-43.2c-13.7,4.7-20.5,5.6-25.7,9.1c-35.9,24-70.5,50.3-107.4,72.6
	c-47.2,28.5-84.5,69.1-127,103.4c-16.3,13.1-20.8,30.7-20.2,51c1.5,42.2,2.9,84.4,3.3,126.5c1,97.7,10.2,195.3,3.9,293
	c-2.6,40-9.3,79.7-15.3,119.3c-2.2,14.6-12.5,22.1-27.2,24.8c-40.4,7.5-65.6-4.6-81.6-42c-17.8-41.9-38.9-83.9-42.9-129.6
	c-8.1-91.6-8.9-183.3,14.2-273.7c14.6-56.8,45.4-104.8,78.6-150.4c12.5-17.2,17.8-32.4,17.9-51.6c0.2-26.2,2.2-52.8-6.7-80.1
	c-26.8,2-43.1,19.1-61.7,30.2c-27.9,16.6-56.2,28.4-89.4,28.7c-38.3,0.4-64.6-14.7-78.4-51.9c-3.8-10.2-7.9-20.3-12.2-31.2
	c-57.6,28.7-112.5,56.7-167.9,83.5c-38.9,18.8-79.4,33.5-122.8,36.1c-39,2.4-73.3-8.7-101.7-38c-10.9-11.2-19.2-22.8-22.7-38.5
	c-3.3-14.7-8.8-29-13.9-45.5c-11.8-1.9-22.5-3.6-33.2-5.5c-14-2.5-24.6-8.9-25.7-25.3c-1.3-19.8,7.9-35.2,24.9-39.8
	c7.1-1.9,14.8-1.1,22.2-2c5.5-0.6,11-1.8,18.6-3.1c19.2-22.5,28.8-51.9,41.9-79c21.7-44.9,48.2-86.3,78.1-125.8
	c15.6-20.6,35-33.6,57.7-43.6c17.2-7.6,33-3.5,48.8,2.7c13.3,5.2,20.5,16.4,21.9,30.8c2.4,23.6-2.6,45.1-14.8,65.8
	c-46,77.6-99.7,147.7-178.1,198.5c0.9,14.9,0.8,30,3,44.8c2.4,16.3,12.8,27.9,27.2,34.2c22.3,9.7,44.6,17.1,70.3,12.7
	c37.2-6.3,73.1-16.2,106.8-32.9c48.7-24,96.9-49.1,144.6-75.3c21.3-11.7,38-28.9,53.9-48.7c42.5-53.1,79.3-111.1,129.8-157.4
	c21.1-19.3,42.6-36.9,68.7-48.6c33.9-15.2,39.8-16.4,86.1-6.7c45.9,79.7,43,120.9-2.9,235.9c8.2,5.3,16.4,14.1,25.8,15.8
	c24.1,4.4,48.9,3,71.1-8.6c61.4-31.9,123.7-62.8,176.9-108.3c27-23.1,58.2-41.1,80.5-70.7c13.3-17.6,23.6-34,20.2-57
	c-0.8-5.6-0.2-11.5,0.4-17.2c4.5-45.5,20.2-58.1,65.7-55.8c16.4,0.8,32.9-2.8,49.4-3.8c19.6-1.3,33.6,9.5,34.2,29.1
	c0.6,20.8,0.3,42.3-3.8,62.6c-10.3,51.5-9.3,103.1-2.1,154.4c6.1,43.5,15.1,86.7,23.3,129.8c1,5.2,5.4,9.7,10.2,18.1
	c5.5-7,10.7-11.7,13.6-17.6c35.6-75,85-139.8,144.2-195.9c27.1-25.7,59.2-47,91.7-65.2c43.3-24.3,71.9-58,84-106.9
	c1.4-5.5,3-11.3,5.8-16.1c6.2-10.9,16.1-15,28.2-15c12.9-0.1,22.6,6,24.9,18.4c3.1,16.6,7.1,34.5,4,50.5
	c-11.9,61-2.8,122.3-5.2,183.4c-1.3,31.9,0.6,32.2,20.6,68.8c14.8,5.5,25.2-3.3,34.4-12.9c18.3-19.1,38.6-37,52.8-59.1
	c16.4-25.4,36.9-35.9,65-35.7c7.2,0,14.4-2.3,21.9-3.5c17.7-25,19.8-54.2,25.7-81.9c7.3-34.2,18.5-66.2,41.8-92.7
	c3.8-4.3,7.3-8.9,11.6-12.4c17.6-14.6,42.7-7.9,50.1,13.8c16.4,47.8,15.8,94.4-13.5,137.4c-11.7,17.2-25.6,32.9-38.6,49.2
	c-22.8,28.7-9.6,66.8,26,74.3c36.2,7.6,70.6-0.1,103.8-14.5c90.1-39.1,170.7-94.4,244.3-159.6c24.7-21.9,41.7-53.7,59.3-82.9
	c6.2-10.2,4.3-25.8,5.1-39.1c0.6-9.4-1.7-19.1-0.7-28.4c1.5-13.5,20.7-19.8,30.8-11.1c12.2,10.4,18.3,23.3,18.9,39.9
	c1,30.3-9.3,56.5-25.8,80.5c-37.9,55.1-81.7,103.1-137.4,141.2c-56,38.3-110.6,77.9-172.9,105c-32.6,14.2-65.3,26-100.9,31.9
	c-42.5,7.1-72.6-6.1-95.9-41.3C2300.4,620.8,2293,609.9,2285.1,598.2"/>
<path class="st2" d="M555.1,490.4c-35.5,16.4-42,26.2-42.8,59.8C532.9,533.6,543.9,512.3,555.1,490.4z M1204.7,728.4
	c-1.2-3.2-2.4-6.4-3.6-9.6c-26.6,3.1-53.2,6.1-81.3,9.4c-2,22.3-11.1,41.5,4.7,63C1152.9,769,1178.8,748.7,1204.7,728.4z
	 M1573.5,502c-5.8,3.3-12.4,6.1-18,10.3c-62.6,47.3-93,116.5-119.9,187.9c-0.6,1.7-0.6,3.7-0.9,5.6c-1.6,9.8,9,19.8,17.3,15.2
	c11.2-6.1,23.5-12.3,31.7-21.7c19.6-22.6,36.7-47.5,55.4-71c27-33.7,33.8-74.9,41.7-115.7C1581.3,510.3,1577.1,507,1573.5,502z
	 M1055.3,561.4c-6-0.6-8.1-1.4-9.5-0.8c-52.2,21.6-93.4,60.9-139.3,92.5c-9.9,6.8-17.2,20-22.1,31.9c-11,27,7.4,51.8,35.4,46.9
	c17.9-3.1,35.1-11.1,52.4-17.7C1034,690.7,1075.2,643.4,1055.3,561.4z M1058.2,1397.6c24.5-83.5,26.6-378.2,3-447.7
	c-5.9,5.6-12.5,9.5-15.7,15.2c-20.2,37.1-33.9,76.4-40.6,118.6c-7.5,47.4-11.9,95.2-6.6,142.8c5.2,45.5,14.8,90.4,24.2,135.2
	C1026.1,1378.1,1033.4,1394.6,1058.2,1397.6z M1679.7,867.3c-11.8,22.6-22.3,38-28.2,55.1c-19.7,57.5-35.7,116.5-57,173.3
	c-42.8,114.5-49.7,234.6-55.3,354.9c-1.5,32.7,7.6,64.4,22.6,93.5c11.3,21.8,31.8,27.7,51.8,15.5c9.5-5.8,17.8-13.8,26-21.5
	c57.7-54.6,81.2-127.4,93.7-202.9c8.3-50.3,5.1-102.8,5.3-154.4C1739,1075,1702.9,976.4,1679.7,867.3z M1016.7,515
	c-5.3,1.1-10.9,1.5-15.6,3.8c-2.1,1-2.3,6.1-3.3,9.3c2.8-0.3,6.8,0.6,8.3-1c3.7-3.9,6.2-8.9,9.3-13.4c6.9-5.4,22.2-0.1,20.8-19.8
	C1028.5,502.2,1022.6,508.6,1016.7,515z M2285.1,598.2c-42.4-3.7-69.2,13.7-90,43.8c-6.5,9.4-14.3,17.7-21.1,26.9
	c-16.5,22.4-38.5,35.6-64.9,41.9c-22.7,5.4-38.6-10-58.6-19.5c-11.8-41.7-18.3-84.6-17.2-128.9c0.7-30.2,1.9-60.7-9.9-90.9
	c-65.3,20.1-121.5,54.6-170.1,99.2c-44.4,40.7-79.9,90.9-108.5,145c-15.1,28.5-34.8,58-37.8,88.5c-3,30.4,12.2,62.7,19.8,94.1
	c3.6,14.9,8.4,29.4,12.5,44.2c21.5,77.7,34.6,156.6,39.5,237.6c4,65.5,4.2,130-9.8,194c-5.3,24-14.4,47.2-23.1,70.2
	c-7.4,19.6-16.1,38.6-25.4,57.3c-5.9,11.8-13.1,23.2-21.1,33.6c-12.6,16.4-25.6,32.6-40.1,47.3c-8.9,9-19.9,17.7-31.6,21.8
	c-61.4,21.9-95.8,6.3-117.5-57.5c-14-41.3-23.4-84.5-17-129.6c18-126.9,37.7-253.6,77-375.7c17.5-54.3,40.7-106.7,61.4-160
	c2.8-7.1,6.8-13.8,8.9-21.1c21.5-71.7,27.4-45.5,1.3-120.2c-11.3-32.2-16.9-66.5-25.4-99.8c-1.8-6.8-4.6-13.3-8.2-23.6
	c-33.5,42-63.6,80.6-94.7,118.5c-20.6,25.1-43.1,48.6-75.5,56.8c-10.3,2.6-22.1,2.9-32.5,0.8c-18.1-3.7-28.8-15.9-31.7-35.5
	c-2.6-17.5-2.3-34.2,4.9-50.7c5.1-11.6,9.1-23.7,16.5-43.2c-13.7,4.7-20.5,5.6-25.7,9.1c-35.9,24-70.5,50.3-107.4,72.6
	c-47.2,28.5-84.5,69.1-127,103.4c-16.3,13.1-20.8,30.7-20.2,51c1.5,42.2,2.9,84.4,3.3,126.5c1,97.7,10.2,195.3,3.9,293
	c-2.6,40-9.3,79.7-15.3,119.3c-2.2,14.6-12.5,22.1-27.2,24.8c-40.4,7.5-65.6-4.6-81.6-42c-17.8-41.9-38.9-83.9-42.9-129.6
	c-8.1-91.6-8.9-183.3,14.2-273.7c14.6-56.8,45.4-104.8,78.6-150.4c12.5-17.2,17.8-32.4,17.9-51.6c0.2-26.2,2.2-52.8-6.7-80.1
	c-26.8,2-43.1,19.1-61.7,30.2c-27.9,16.6-56.2,28.4-89.4,28.7c-38.3,0.4-64.6-14.7-78.4-51.9c-3.8-10.2-7.9-20.3-12.2-31.2
	c-57.6,28.7-112.5,56.7-167.9,83.5c-38.9,18.8-79.4,33.5-122.8,36.1c-39,2.4-73.3-8.7-101.7-38c-10.9-11.2-19.2-22.8-22.7-38.5
	c-3.3-14.7-8.8-29-13.9-45.5c-11.8-1.9-22.5-3.6-33.2-5.5c-14-2.5-24.6-8.9-25.7-25.3c-1.3-19.8,7.9-35.2,24.9-39.8
	c7.1-1.9,14.8-1.1,22.2-2c5.5-0.6,11-1.8,18.6-3.1c19.2-22.5,28.8-51.9,41.9-79c21.7-44.9,48.2-86.3,78.1-125.8
	c15.6-20.6,35-33.6,57.7-43.6c17.2-7.6,33-3.5,48.8,2.7c13.3,5.2,20.5,16.4,21.9,30.8c2.4,23.6-2.6,45.1-14.8,65.8
	c-46,77.6-99.7,147.7-178.1,198.5c0.9,14.9,0.8,30,3,44.8c2.4,16.3,12.8,27.9,27.2,34.2c22.3,9.7,44.6,17.1,70.3,12.7
	c37.2-6.3,73.1-16.2,106.8-32.9c48.7-24,96.9-49.1,144.6-75.3c21.3-11.7,38-28.9,53.9-48.7c42.5-53.1,79.3-111.1,129.8-157.4
	c21.1-19.3,42.6-36.9,68.7-48.6c33.9-15.2,39.8-16.4,86.1-6.7c45.9,79.7,43,120.9-2.9,235.9c8.2,5.3,16.4,14.1,25.8,15.8
	c24.1,4.4,48.9,3,71.1-8.6c61.4-31.9,123.7-62.8,176.9-108.3c27-23.1,58.2-41.1,80.5-70.7c13.3-17.6,23.6-34,20.2-57
	c-0.8-5.6-0.2-11.5,0.4-17.2c4.5-45.5,20.2-58.1,65.7-55.8c16.4,0.8,32.9-2.8,49.4-3.8c19.6-1.3,33.6,9.5,34.2,29.1
	c0.6,20.8,0.3,42.3-3.8,62.6c-10.3,51.5-9.3,103.1-2.1,154.4c6.1,43.5,15.1,86.7,23.3,129.8c1,5.2,5.4,9.7,10.2,18.1
	c5.5-7,10.7-11.7,13.6-17.6c35.6-75,85-139.8,144.2-195.9c27.1-25.7,59.2-47,91.7-65.2c43.3-24.3,71.9-58,84-106.9
	c1.4-5.5,3-11.3,5.8-16.1c6.2-10.9,16.1-15,28.2-15c12.9-0.1,22.6,6,24.9,18.4c3.1,16.6,7.1,34.5,4,50.5
	c-11.9,61-2.8,122.3-5.2,183.4c-1.3,31.9,0.6,32.2,20.6,68.8c14.8,5.5,25.2-3.3,34.4-12.9c18.3-19.1,38.6-37,52.8-59.1
	c16.4-25.4,36.9-35.9,65-35.7c7.2,0,14.4-2.3,21.9-3.5c17.7-25,19.8-54.2,25.7-81.9c7.3-34.2,18.5-66.2,41.8-92.7
	c3.8-4.3,7.3-8.9,11.6-12.4c17.6-14.6,42.7-7.9,50.1,13.8c16.4,47.8,15.8,94.4-13.5,137.4c-11.7,17.2-25.6,32.9-38.6,49.2
	c-22.8,28.7-9.6,66.8,26,74.3c36.2,7.6,70.6-0.1,103.8-14.5c90.1-39.1,170.7-94.4,244.3-159.6c24.7-21.9,41.7-53.7,59.3-82.9
	c6.2-10.2,4.3-25.8,5.1-39.1c0.6-9.4-1.7-19.1-0.7-28.4c1.5-13.5,20.7-19.8,30.8-11.1c12.2,10.4,18.3,23.3,18.9,39.9
	c1,30.3-9.3,56.5-25.8,80.5c-37.9,55.1-81.7,103.1-137.4,141.2c-56,38.3-110.6,77.9-172.9,105c-32.6,14.2-65.3,26-100.9,31.9
	c-42.5,7.1-72.6-6.1-95.9-41.3C2300.4,620.8,2293,609.9,2285.1,598.2z"/>
<path class="st1" d="M3946.7,1096.8c-50.5,8.5-86.3,36.7-126.1,92.8c-19.7,27.8-19.9,28.3-15.9,56.4
	C3850.8,1197.5,3895,1151.1,3946.7,1096.8 M2233.2,1350.4c54.9-49.3,111.2-90.7,161.4-139.8c2.6-2.5,6.3-6.5,5.8-9.1
	c-1.2-6.5-3.2-16.6-7.3-18c-17.8-6.2-36.1-3.9-53.5,3.7C2286,1210.6,2240,1279,2233.2,1350.4 M3525.8,1161
	c-10.1,2.4-14.4,2.1-16.9,4.2c-39.7,33.3-80.5,65.4-118.5,100.7c-42.3,39.4-78.7,84.4-98.8,140.6c-3.3,9.3-1,20.8-1.2,31.7
	c8.5,0.2,14.5,2.2,19,0.2c28.8-12.5,55.1-28.7,78.7-50.6c38.5-35.6,70.4-77,99.3-120.2C3507.3,1237.7,3528.7,1205.5,3525.8,1161
	 M2164.6,1582.9c18.9,13.1,30.3,4.3,41.2-1.5c49.5-26.3,91.9-61,129.4-104.2c54.1-62.4,88.7-133.6,106-214.4
	c1.2-5.5-3.8-13.9-8.3-18.5c-2.4-2.5-10.1-0.3-15.1,1.1c-3.3,0.9-6.3,3.8-9.1,6.2c-30.8,27.1-62.7,52.9-92.1,81.6
	c-65.5,64-133.4,126.8-144.3,227.7C2171.7,1567.8,2167.7,1574.5,2164.6,1582.9 M3527.7,1613.6c-43.1,52.6-78.1,101.1-103.4,155.5
	c-32.7,70.4-53.2,144.7-51.1,223.9c0.3,11.2,0.9,22.8,3.9,33.5c11.7,41.3,45,50.9,75,21.9c5.3-5.2,10.8-10.5,14.9-16.6
	c28.5-42.4,48.6-88.6,57.5-139.4c14.8-84.3,10-169.5,10.7-254.4C3535.3,1632.7,3532.3,1627.7,3527.7,1613.6 M3732.9,1370.5
	c-29.4,27.6-54.2,49.4-74.2,77.2c-19.5,27.3-43.1,51.7-65.4,76.8c-15.8,17.9-22.7,38.5-22,62.4c1.1,39.8,0.5,79.6,3,119.3
	c4.6,72.4,2.8,144.8-13,215.1c-14.8,66.2-34.9,131.5-90.1,178.1c-43.5,36.8-104.6,24.1-127.8-29.4c-21.1-48.7-18.7-99.1-13.3-150.6
	c8-75.7,40.9-140.4,77.9-204.3c28.3-49,59.8-95.5,94.6-139.5c26.1-33.1,35.6-68.2,32-110.7c-3.8-45.2-1.5-90.9-2.1-136.4
	c-0.1-7.5-1-15-1.4-21.7c-12.2-7.7-18.6,0-23,7.9c-34.2,60.3-87.6,102.2-136.9,147.4c-18.5,16.9-44.4,26.5-68.4,35.3
	c-20.1,7.4-39.5,0.6-55.3-16.3c-18.3-19.5-20.2-29.2-8.3-55.7c44.2-97.8,109.4-179.3,185.6-252.1c16.1-15.4,32.6-29.8,39.2-54.3
	c-28-18.9-57.7-15.9-86.5-12.6c-90.3,10.4-156.9,62.3-209.8,134.1c-21,28.5-37.8,60.7-53.6,92.8c-22.5,45.4-41.9,92.4-63.5,138.3
	c-3.7,7.8-11.1,15-18.5,19.4c-13.5,8.1-32-0.5-34.8-15.9c-2-10.9-1.8-22.6-0.6-33.6c4.5-41.5,9.4-82.9,15.1-124.1
	c4.2-30.3,4.6-60.2-1.8-90.1c-13.9-2.6-15,9.5-18.9,16.9c-26,48-51.9,95.9-87.3,137.9c-18.5,21.9-39.5,39.9-62.8,55.2
	c-33.2,21.8-54,17.2-81-14.9c-5.9-7.1-11.8-14.2-20.3-24.4c-8.3,9.5-15.7,16.8-21.5,25.2c-6.4,9.2-11.2,19.6-17.1,29.2
	c-39,63.6-45.3,68.9-119.3,102.1c-20.8-3.3-33.1-17.9-38.4-36.6c-5.5-19.7-9.3-40.7-9.2-61.2c0.4-75.9,5.2-151.5,19.7-226.3
	c4.5-23.3,10.9-48,1.8-74.9c-27.1,5.9-50.2,16.9-67.7,36.9c-6.6,7.5-12,21.1-10.4,30.5c14.7,83.6-15.8,153.6-63.6,216.3
	c-39.7,52-81.4,103.5-135.6,141.2c-25.9,18-52.6,34.6-79.6,50.8c-18.1,10.9-38.3,13.1-59,9.7c-21.3-3.5-32.5-15-35.4-37.4
	c-3.3-25-1.8-50.5,9.5-72.4c30.6-59.5,31.7-123.9,33.3-188.2c1.1-43.6-0.7-87.2-2-130.8c-1.9-64.4-3.4-128.9,7.4-192.7
	c3.4-20.2,11.2-39.8,19.2-58.8c2.1-5,12.2-9.3,18.5-9c10.5,0.4,15.2,10.1,15.5,20c0.3,7.3-0.8,15.5-3.9,22
	c-22.8,47.5-25.4,99-25.9,150.1c-0.5,52.9,3.7,105.9,5.9,158.1c14.8,6.4,17.9-4.8,20.4-12.4c10-31,27.3-57.2,45.4-83.6
	c13-19.1,30-32.7,46.2-48c26.6-25.1,56.6-32.9,91.6-30c17.2,1.4,32.4,3.8,45.8,16c6.7,6,15.3,9.8,23,14.6
	c37.9-22.9,74.3-44.8,110.7-66.8c4.8-2.9,9.3-6.3,14.2-8.7c13.1-6.5,26.4-1,31.7,12.5c7.2,18.4,6.2,36.9,2.1,55.9
	c-5.6,25.9-12.1,51.8-15,78.1c-7,62.2-12.2,124.5-18,186.8c-0.4,3.8-0.7,7.6-0.4,11.4c1.4,18.1-5.6,42.2,15.2,50.1
	c19.9,7.6,34.8-12,45.6-25.9c19.4-25,37.3-51.8,51.4-80.3c21-42.3,33.5-87.8,39.2-135.5c3.9-33.4,3.4-68.4,20.3-102.5
	c11.2-0.9,23.4-1.9,33.9-2.8c4,5.4,7.4,8,8.2,11.2c5.9,24.2,5.4,47.3-1.6,72.2c-11.2,40.2-13.9,82.2-8.1,124.1
	c2.4,17,5.1,34.1,24.6,43.8c35.8-6.1,62-30.1,80.9-61c25.4-41.6,47.9-85.1,70.5-128.4c13.9-26.6,24.3-55.3,39.2-81.3
	c12.3-21.3,38.3-19.2,48,3.8c7.2,17,11.7,36.2,12.7,54.6c1.8,34,0.1,68.3,0,102.4c0,10.6,0.5,21.1,1.1,42.2
	c19.8-27.6,34.3-46.3,47.1-66c43.8-67.5,98.7-122.2,170.2-158c38.6-19.3,78.5-29.7,122.3-25.5c43.7,4.2,88.4-1.4,133.8,17.4
	c4.5-13.9,8.2-26,12.4-38c3.8-10.6,6.1-22.9,13-30.8c6.6-7.5,18.2-13.7,27.7-14c12.3-0.4,18.2,11.8,18.7,23.9
	c0.7,17,3.7,35.2-1,50.7c-29.4,97.5-30.8,197.7-31,298.2c0,29.9-0.2,59.9-0.3,87.5c14.1,8.8,22.3,2.7,28-4.1
	c33.2-40.6,72.3-75.1,109-112.1c14-14.1,22.1-29.3,22.6-49.7c1.3-55.9,26.8-101.4,60.3-143c29.4-36.4,59-72.6,98.8-98.4
	c23.9-15.5,49.1-25.8,77.3-27.5c16.7-1,34.3-1.9,44.4,15.6c9.6,16.7,4.8,47.9-8.8,63.6c-7.4,8.4-15.8,16-23.8,23.7
	c-55.3,53-110.6,105.9-165.9,158.8c-2.7,2.6-5.5,5.1-8,7.8c-30,32.3-24,57.7,17,70.1c35.7,10.8,69.9,3.7,101.5-14.3
	c99-56.4,177.4-134.2,231.8-237.1c10.4-19.6,24.6-37,38.3-57.2c17.5,5.6,32.6,10.5,51,16.3c9-16.2,19.3-31.8,26.8-48.7
	c20.7-46.6,55.7-80.6,94.9-109c32.1-23.3,71.6-30.2,110.8-29.4c36.7,0.7,73.4,4.9,110.1,7.2c14.1,0.9,28.3,0.8,42,1.2
	c1.7,17.2-8,20.7-16.6,21.6c-29.2,3.1-58.5,4.4-87.8,6.9c-49.7,4.2-99.1,9.5-141.3,40.9c-28.9,21.4-51.8,49.2-69.3,80.3
	c-26.8,47.5-50.3,97-62.3,151.3c-12.1,55.4-25.1,110.5-37.8,166.4c-12.9,13.2-29.1,12.4-46.7,10.5c-2.9-4.4-6.7-8.6-8.7-13.6
	c-8.5-22.2-7.5-42.9,2.2-65.8c10.9-25.6,16.9-53.7,22.5-81.3c1.9-9.4-3.8-20.4-6.7-33.8c-7.9,6.6-13.2,9.3-16,13.6
	c-47,74.2-111.3,130.4-179.6,182.2c-38.1,28.9-82.2,43.5-128.7,47.4C3809,1424.5,3766.6,1413.8,3732.9,1370.5"/>
<path class="st3" d="M3946.7,1096.8c-50.5,8.5-86.3,36.7-126.1,92.8c-19.7,27.8-19.9,28.3-15.9,56.4
	C3850.8,1197.5,3895,1151.1,3946.7,1096.8z M2233.2,1350.4c54.9-49.3,111.2-90.7,161.4-139.8c2.6-2.5,6.3-6.5,5.8-9.1
	c-1.2-6.5-3.2-16.6-7.3-18c-17.8-6.2-36.1-3.9-53.5,3.7C2286,1210.6,2240,1279,2233.2,1350.4z M3525.8,1161
	c-10.1,2.4-14.4,2.1-16.9,4.2c-39.7,33.3-80.5,65.4-118.5,100.7c-42.3,39.4-78.7,84.4-98.8,140.6c-3.3,9.3-1,20.8-1.2,31.7
	c8.5,0.2,14.5,2.2,19,0.2c28.8-12.5,55.1-28.7,78.7-50.6c38.5-35.6,70.4-77,99.3-120.2C3507.3,1237.7,3528.7,1205.5,3525.8,1161z
	 M2164.6,1582.9c18.9,13.1,30.3,4.3,41.2-1.5c49.5-26.3,91.9-61,129.4-104.2c54.1-62.4,88.7-133.6,106-214.4
	c1.2-5.5-3.8-13.9-8.3-18.5c-2.4-2.5-10.1-0.3-15.1,1.1c-3.3,0.9-6.3,3.8-9.1,6.2c-30.8,27.1-62.7,52.9-92.1,81.6
	c-65.5,64-133.4,126.8-144.3,227.7C2171.7,1567.8,2167.7,1574.5,2164.6,1582.9z M3527.7,1613.6c-43.1,52.6-78.1,101.1-103.4,155.5
	c-32.7,70.4-53.2,144.7-51.1,223.9c0.3,11.2,0.9,22.8,3.9,33.5c11.7,41.3,45,50.9,75,21.9c5.3-5.2,10.8-10.5,14.9-16.6
	c28.5-42.4,48.6-88.6,57.5-139.4c14.8-84.3,10-169.5,10.7-254.4C3535.3,1632.7,3532.3,1627.7,3527.7,1613.6z M3732.9,1370.5
	c-29.4,27.6-54.2,49.4-74.2,77.2c-19.5,27.3-43.1,51.7-65.4,76.8c-15.8,17.9-22.7,38.5-22,62.4c1.1,39.8,0.5,79.6,3,119.3
	c4.6,72.4,2.8,144.8-13,215.1c-14.8,66.2-34.9,131.5-90.1,178.1c-43.5,36.8-104.6,24.1-127.8-29.4c-21.1-48.7-18.7-99.1-13.3-150.6
	c8-75.7,40.9-140.4,77.9-204.3c28.3-49,59.8-95.5,94.6-139.5c26.1-33.1,35.6-68.2,32-110.7c-3.8-45.2-1.5-90.9-2.1-136.4
	c-0.1-7.5-1-15-1.4-21.7c-12.2-7.7-18.6,0-23,7.9c-34.2,60.3-87.6,102.2-136.9,147.4c-18.5,16.9-44.4,26.5-68.4,35.3
	c-20.1,7.4-39.5,0.6-55.3-16.3c-18.3-19.5-20.2-29.2-8.3-55.7c44.2-97.8,109.4-179.3,185.6-252.1c16.1-15.4,32.6-29.8,39.2-54.3
	c-28-18.9-57.7-15.9-86.5-12.6c-90.3,10.4-156.9,62.3-209.8,134.1c-21,28.5-37.8,60.7-53.6,92.8c-22.5,45.4-41.9,92.4-63.5,138.3
	c-3.7,7.8-11.1,15-18.5,19.4c-13.5,8.1-32-0.5-34.8-15.9c-2-10.9-1.8-22.6-0.6-33.6c4.5-41.5,9.4-82.9,15.1-124.1
	c4.2-30.3,4.6-60.2-1.8-90.1c-13.9-2.6-15,9.5-18.9,16.9c-26,48-51.9,95.9-87.3,137.9c-18.5,21.9-39.5,39.9-62.8,55.2
	c-33.2,21.8-54,17.2-81-14.9c-5.9-7.1-11.8-14.2-20.3-24.4c-8.3,9.5-15.7,16.8-21.5,25.2c-6.4,9.2-11.2,19.6-17.1,29.2
	c-39,63.6-45.3,68.9-119.3,102.1c-20.8-3.3-33.1-17.9-38.4-36.6c-5.5-19.7-9.3-40.7-9.2-61.2c0.4-75.9,5.2-151.5,19.7-226.3
	c4.5-23.3,10.9-48,1.8-74.9c-27.1,5.9-50.2,16.9-67.7,36.9c-6.6,7.5-12,21.1-10.4,30.5c14.7,83.6-15.8,153.6-63.6,216.3
	c-39.7,52-81.4,103.5-135.6,141.2c-25.9,18-52.6,34.6-79.6,50.8c-18.1,10.9-38.3,13.1-59,9.7c-21.3-3.5-32.5-15-35.4-37.4
	c-3.3-25-1.8-50.5,9.5-72.4c30.6-59.5,31.7-123.9,33.3-188.2c1.1-43.6-0.7-87.2-2-130.8c-1.9-64.4-3.4-128.9,7.4-192.7
	c3.4-20.2,11.2-39.8,19.2-58.8c2.1-5,12.2-9.3,18.5-9c10.5,0.4,15.2,10.1,15.5,20c0.3,7.3-0.8,15.5-3.9,22
	c-22.8,47.5-25.4,99-25.9,150.1c-0.5,52.9,3.7,105.9,5.9,158.1c14.8,6.4,17.9-4.8,20.4-12.4c10-31,27.3-57.2,45.4-83.6
	c13-19.1,30-32.7,46.2-48c26.6-25.1,56.6-32.9,91.6-30c17.2,1.4,32.4,3.8,45.8,16c6.7,6,15.3,9.8,23,14.6
	c37.9-22.9,74.3-44.8,110.7-66.8c4.8-2.9,9.3-6.3,14.2-8.7c13.1-6.5,26.4-1,31.7,12.5c7.2,18.4,6.2,36.9,2.1,55.9
	c-5.6,25.9-12.1,51.8-15,78.1c-7,62.2-12.2,124.5-18,186.8c-0.4,3.8-0.7,7.6-0.4,11.4c1.4,18.1-5.6,42.2,15.2,50.1
	c19.9,7.6,34.8-12,45.6-25.9c19.4-25,37.3-51.8,51.4-80.3c21-42.3,33.5-87.8,39.2-135.5c3.9-33.4,3.4-68.4,20.3-102.5
	c11.2-0.9,23.4-1.9,33.9-2.8c4,5.4,7.4,8,8.2,11.2c5.9,24.2,5.4,47.3-1.6,72.2c-11.2,40.2-13.9,82.2-8.1,124.1
	c2.4,17,5.1,34.1,24.6,43.8c35.8-6.1,62-30.1,80.9-61c25.4-41.6,47.9-85.1,70.5-128.4c13.9-26.6,24.3-55.3,39.2-81.3
	c12.3-21.3,38.3-19.2,48,3.8c7.2,17,11.7,36.2,12.7,54.6c1.8,34,0.1,68.3,0,102.4c0,10.6,0.5,21.1,1.1,42.2
	c19.8-27.6,34.3-46.3,47.1-66c43.8-67.5,98.7-122.2,170.2-158c38.6-19.3,78.5-29.7,122.3-25.5c43.7,4.2,88.4-1.4,133.8,17.4
	c4.5-13.9,8.2-26,12.4-38c3.8-10.6,6.1-22.9,13-30.8c6.6-7.5,18.2-13.7,27.7-14c12.3-0.4,18.2,11.8,18.7,23.9
	c0.7,17,3.7,35.2-1,50.7c-29.4,97.5-30.8,197.7-31,298.2c0,29.9-0.2,59.9-0.3,87.5c14.1,8.8,22.3,2.7,28-4.1
	c33.2-40.6,72.3-75.1,109-112.1c14-14.1,22.1-29.3,22.6-49.7c1.3-55.9,26.8-101.4,60.3-143c29.4-36.4,59-72.6,98.8-98.4
	c23.9-15.5,49.1-25.8,77.3-27.5c16.7-1,34.3-1.9,44.4,15.6c9.6,16.7,4.8,47.9-8.8,63.6c-7.4,8.4-15.8,16-23.8,23.7
	c-55.3,53-110.6,105.9-165.9,158.8c-2.7,2.6-5.5,5.1-8,7.8c-30,32.3-24,57.7,17,70.1c35.7,10.8,69.9,3.7,101.5-14.3
	c99-56.4,177.4-134.2,231.8-237.1c10.4-19.6,24.6-37,38.3-57.2c17.5,5.6,32.6,10.5,51,16.3c9-16.2,19.3-31.8,26.8-48.7
	c20.7-46.6,55.7-80.6,94.9-109c32.1-23.3,71.6-30.2,110.8-29.4c36.7,0.7,73.4,4.9,110.1,7.2c14.1,0.9,28.3,0.8,42,1.2
	c1.7,17.2-8,20.7-16.6,21.6c-29.2,3.1-58.5,4.4-87.8,6.9c-49.7,4.2-99.1,9.5-141.3,40.9c-28.9,21.4-51.8,49.2-69.3,80.3
	c-26.8,47.5-50.3,97-62.3,151.3c-12.1,55.4-25.1,110.5-37.8,166.4c-12.9,13.2-29.1,12.4-46.7,10.5c-2.9-4.4-6.7-8.6-8.7-13.6
	c-8.5-22.2-7.5-42.9,2.2-65.8c10.9-25.6,16.9-53.7,22.5-81.3c1.9-9.4-3.8-20.4-6.7-33.8c-7.9,6.6-13.2,9.3-16,13.6
	c-47,74.2-111.3,130.4-179.6,182.2c-38.1,28.9-82.2,43.5-128.7,47.4C3809,1424.5,3766.6,1413.8,3732.9,1370.5z"/>
<path class="st1" d="M188.8,807.6c8-11.5,15.1-18.3,18.1-26.5c15.7-42.9,36.9-83.9,44.2-130c1.8-11.2,6.1-22.1,9.9-32.8
	c28-79.1,51.9-159.6,84.5-237.1c14.6-34.7,16.8-74.3,35.6-108.3c7.6-13.8,12.8-28.5,31.4-27.2c15.6,1.1,26.7,16,27.6,37.7
	c0.6,13.3-0.7,26.8-2,40.2c-1.9,20.3-9.4,37.6-29.8,44.4c-11.7,3.9-19.4,10.9-23.2,22.5c-19,58-39.2,115.6-56.5,174.1
	c-20.6,69.7-39.1,140-57.6,210.3c-11.3,42.9-27.4,83.5-48.4,122.2c-7.7,14.3-17.9,24.1-35.8,21.4c-16.2-2.5-28.2-10.1-33.5-26.2
	c-6-18.1-12-36.4-16.7-54.9c-14.2-55.5-28.5-111-41.2-166.8c-6.3-27.9-9.9-56.5-13.5-85c-6-47.5-11.4-95-16.1-142.7
	c-1-10.5-3.4-23.2,9.1-30.2c8.6-4.8,20.2,7.1,23.7,25.5c3.9,20.7,6.4,41.7,10.3,62.4c3.9,20.6,8.9,40.9,13.6,61.3
	c3,13,6.2,25.9,9.3,38.9c14.2,59.5,28,119.1,42.7,178.5C176.4,787.7,182.3,795.1,188.8,807.6"/>
<path class="st2" d="M188.8,807.6c8-11.5,15.1-18.3,18.1-26.5c15.7-42.9,36.9-83.9,44.2-130c1.8-11.2,6.1-22.1,9.9-32.8
	c28-79.1,51.9-159.6,84.5-237.1c14.6-34.7,16.8-74.3,35.6-108.3c7.6-13.8,12.8-28.5,31.4-27.2c15.6,1.1,26.7,16,27.6,37.7
	c0.6,13.3-0.7,26.8-2,40.2c-1.9,20.3-9.4,37.6-29.8,44.4c-11.7,3.9-19.4,10.9-23.2,22.5c-19,58-39.2,115.6-56.5,174.1
	c-20.6,69.7-39.1,140-57.6,210.3c-11.3,42.9-27.4,83.5-48.4,122.2c-7.7,14.3-17.9,24.1-35.8,21.4c-16.2-2.5-28.2-10.1-33.5-26.2
	c-6-18.1-12-36.4-16.7-54.9c-14.2-55.5-28.5-111-41.2-166.8c-6.3-27.9-9.9-56.5-13.5-85c-6-47.5-11.4-95-16.1-142.7
	c-1-10.5-3.4-23.2,9.1-30.2c8.6-4.8,20.2,7.1,23.7,25.5c3.9,20.7,6.4,41.7,10.3,62.4c3.9,20.6,8.9,40.9,13.6,61.3
	c3,13,6.2,25.9,9.3,38.9c14.2,59.5,28,119.1,42.7,178.5C176.4,787.7,182.3,795.1,188.8,807.6z"/>
<path class="st1" d="M4729.3,1179c-40,2-64.5,29.5-92.1,50.1c-8.1,6-5.9,22.1,1.6,31.2c24.3,29.4,76,34.9,105.3,10.8
	c11.1-9.2,15.5-22,10.3-35.6C4747.1,1216.4,4737.9,1198,4729.3,1179 M4771.2,1115.2c14.5-2.7,25.3-5.3,36.2-6.6
	c19.9-2.3,40.4-23.9,59.6,1.6c-3,30.2-31.7,26.9-48.4,39.1c-8.7,6.4-19.1,10.2-32.1,17c6.3,19.2,9.8,38,18.4,53.7
	c11.1,20.2,8.2,39.9,6,60.7c-2.5,23.1-15.2,36.2-34.1,47.9c-49.8,30.8-125.7,24.7-170.7-15.1c-36.8-32.5-42.2-89.6-9.1-125.9
	c23.4-25.7,53.2-39.9,85.6-49c8.7-2.4,17.7-3.8,30-6.3c-1-26.8-1.4-52.5-2.9-78.2c-2.7-46.7,14.3-89.2,26.8-132.4
	c6.5-22.5,24.4-37.5,45.3-47.4c9.3-4.4,19.5-3.9,24.7,4.9c4.4,7.3,7.2,18.1,5.3,26c-2,8.3-11,14.6-15.8,22.5
	c-30.4,49.7-46.9,102.6-34.4,161.9C4763,1096.6,4766.6,1103.4,4771.2,1115.2"/>
<path class="st3" d="M4729.3,1179c-40,2-64.5,29.5-92.1,50.1c-8.1,6-5.9,22.1,1.6,31.2c24.3,29.4,76,34.9,105.3,10.8
	c11.1-9.2,15.5-22,10.3-35.6C4747.1,1216.4,4737.9,1198,4729.3,1179z M4771.2,1115.2c14.5-2.7,25.3-5.3,36.2-6.6
	c19.9-2.3,40.4-23.9,59.6,1.6c-3,30.2-31.7,26.9-48.4,39.1c-8.7,6.4-19.1,10.2-32.1,17c6.3,19.2,9.8,38,18.4,53.7
	c11.1,20.2,8.2,39.9,6,60.7c-2.5,23.1-15.2,36.2-34.1,47.9c-49.8,30.8-125.7,24.7-170.7-15.1c-36.8-32.5-42.2-89.6-9.1-125.9
	c23.4-25.7,53.2-39.9,85.6-49c8.7-2.4,17.7-3.8,30-6.3c-1-26.8-1.4-52.5-2.9-78.2c-2.7-46.7,14.3-89.2,26.8-132.4
	c6.5-22.5,24.4-37.5,45.3-47.4c9.3-4.4,19.5-3.9,24.7,4.9c4.4,7.3,7.2,18.1,5.3,26c-2,8.3-11,14.6-15.8,22.5
	c-30.4,49.7-46.9,102.6-34.4,161.9C4763,1096.6,4766.6,1103.4,4771.2,1115.2z"/>
<path class="st1" d="M2148.1,104.6c-18-3.8-34.1-6.5-49.9-10.6c-12-3.1-17.7-12.6-16.9-25.1c0.8-12.2,7.2-21.3,18.8-24.7
	c25.1-7.4,67.2,8,83.1,29.7c5.2,7.1,2.6,21.1-5.6,23.9C2167.6,101.1,2156.9,102.6,2148.1,104.6"/>
<path class="st3" d="M2148.1,104.6c-18-3.8-34.1-6.5-49.9-10.6c-12-3.1-17.7-12.6-16.9-25.1c0.8-12.2,7.2-21.3,18.8-24.7
	c25.1-7.4,67.2,8,83.1,29.7c5.2,7.1,2.6,21.1-5.6,23.9C2167.6,101.1,2156.9,102.6,2148.1,104.6z"/>
<path class="st0" d="M1679.7,867.3c23.2,109.1,59.3,207.7,58.9,313.6c-0.2,51.5,3.1,104-5.3,154.4c-12.5,75.4-36.1,148.3-93.7,202.9
	c-8.2,7.7-16.5,15.7-26,21.5c-20,12.2-40.6,6.3-51.8-15.5c-15-29.1-24.1-60.8-22.6-93.5c5.6-120.3,12.4-240.3,55.3-354.9
	c21.3-56.9,37.2-115.8,57-173.3C1657.3,905.3,1667.9,890,1679.7,867.3"/>
<path class="st2" d="M1679.7,867.3c23.2,109.1,59.3,207.7,58.9,313.6c-0.2,51.5,3.1,104-5.3,154.4c-12.5,75.4-36.1,148.3-93.7,202.9
	c-8.2,7.7-16.5,15.7-26,21.5c-20,12.2-40.6,6.3-51.8-15.5c-15-29.1-24.1-60.8-22.6-93.5c5.6-120.3,12.4-240.3,55.3-354.9
	c21.3-56.9,37.2-115.8,57-173.3C1657.3,905.3,1667.9,890,1679.7,867.3z"/>
<path class="st0" d="M1055.3,561.4c19.9,82-21.3,129.3-83.1,152.8c-17.2,6.6-34.4,14.6-52.4,17.7c-28,4.9-46.5-19.9-35.4-46.9
	c4.8-11.9,12.2-25,22.1-31.9c45.9-31.6,87.1-70.9,139.3-92.5C1047.2,560,1049.2,560.9,1055.3,561.4"/>
<path class="st2" d="M1055.3,561.4c19.9,82-21.3,129.3-83.1,152.8c-17.2,6.6-34.4,14.6-52.4,17.7c-28,4.9-46.5-19.9-35.4-46.9
	c4.8-11.9,12.2-25,22.1-31.9c45.9-31.6,87.1-70.9,139.3-92.5C1047.2,560,1049.2,560.9,1055.3,561.4z"/>
<path class="st0" d="M1573.5,502c3.6,5.1,7.7,8.3,7.3,10.7c-7.9,40.8-14.8,82-41.7,115.7c-18.7,23.4-35.8,48.3-55.4,71
	c-8.2,9.5-20.5,15.6-31.7,21.7c-8.4,4.6-19-5.4-17.3-15.3c0.3-1.8,0.3-3.9,0.9-5.6c26.9-71.5,57.3-140.6,119.9-187.9
	C1561.1,508,1567.7,505.2,1573.5,502"/>
<path class="st2" d="M1573.5,502c3.6,5.1,7.7,8.3,7.3,10.7c-7.9,40.8-14.8,82-41.7,115.7c-18.7,23.4-35.8,48.3-55.4,71
	c-8.2,9.5-20.5,15.6-31.7,21.7c-8.4,4.6-19-5.4-17.3-15.3c0.3-1.8,0.3-3.9,0.9-5.6c26.9-71.5,57.3-140.6,119.9-187.9
	C1561.1,508,1567.7,505.2,1573.5,502z"/>
<path class="st0" d="M1204.7,728.4c-25.9,20.3-51.8,40.5-80.1,62.7c-15.8-21.5-6.7-40.6-4.7-63c28-3.2,54.6-6.3,81.3-9.4
	C1202.3,722,1203.5,725.2,1204.7,728.4"/>
<path class="st2" d="M1204.7,728.4c-25.9,20.3-51.8,40.5-80.1,62.7c-15.8-21.5-6.7-40.6-4.7-63c28-3.2,54.6-6.3,81.3-9.4
	C1202.3,722,1203.5,725.2,1204.7,728.4z"/>
<path class="st0" d="M555.1,490.4c-11.2,21.8-22.2,43.2-42.8,59.8C513.1,516.7,519.6,506.8,555.1,490.4"/>
<path class="st2" d="M555.1,490.4c-11.2,21.8-22.2,43.2-42.8,59.8C513.1,516.7,519.6,506.8,555.1,490.4z"/>
<path class="st0" d="M1015.3,513.6c-3,4.6-5.6,9.6-9.2,13.5c-1.5,1.6-5.4,0.7-8.3,1c1-3.2,1.2-8.3,3.3-9.3
	c4.7-2.3,10.3-2.6,15.6-3.8L1015.3,513.6z"/>
<path class="st2" d="M1015.3,513.6c-3,4.6-5.6,9.6-9.2,13.5c-1.5,1.6-5.4,0.7-8.3,1c1-3.2,1.2-8.3,3.3-9.3
	c4.7-2.3,10.3-2.6,15.6-3.8L1015.3,513.6z"/>
<path class="st0" d="M1016.7,515c5.9-6.4,11.8-12.8,19.5-21.1c1.3,19.7-13.9,14.4-20.9,19.8C1015.3,513.6,1016.7,515,1016.7,515"/>
<path class="st2" d="M1016.7,515c5.9-6.4,11.8-12.8,19.5-21.1c1.3,19.7-13.9,14.4-20.9,19.8C1015.3,513.6,1016.7,515,1016.7,515z"/>
<path class="st0" d="M3527.7,1613.6c4.5,14.1,7.6,19.2,7.5,24.2c-0.7,84.9,4,170.2-10.8,254.5c-8.9,50.9-29,97.1-57.5,139.4
	c-4.1,6.1-9.6,11.5-14.9,16.6c-30,28.9-63.3,19.4-75-21.9c-3-10.7-3.6-22.3-3.9-33.5c-2.1-79.2,18.4-153.5,51.1-223.9
	C3449.6,1714.6,3484.7,1666.2,3527.7,1613.6"/>
<path class="st3" d="M3527.7,1613.6c4.5,14.1,7.6,19.2,7.5,24.2c-0.7,84.9,4,170.2-10.8,254.5c-8.9,50.9-29,97.1-57.5,139.4
	c-4.1,6.1-9.6,11.5-14.9,16.6c-30,28.9-63.3,19.4-75-21.9c-3-10.7-3.6-22.3-3.9-33.5c-2.1-79.2,18.4-153.5,51.1-223.9
	C3449.6,1714.6,3484.7,1666.2,3527.7,1613.6z"/>
<path class="st0" d="M2164.6,1582.9c3-8.3,7.1-15,7.8-22.1c10.9-100.9,78.8-163.8,144.3-227.7c29.3-28.6,61.3-54.5,92.1-81.6
	c2.8-2.4,5.8-5.3,9.1-6.2c5-1.3,12.7-3.5,15.1-1.1c4.5,4.6,9.4,13.1,8.3,18.5c-17.3,80.8-51.9,152-106,214.4
	c-37.5,43.2-79.9,77.9-129.4,104.2C2195,1587.2,2183.5,1596,2164.6,1582.9"/>
<path class="st3" d="M2164.6,1582.9c3-8.3,7.1-15,7.8-22.1c10.9-100.9,78.8-163.8,144.3-227.7c29.3-28.6,61.3-54.5,92.1-81.6
	c2.8-2.4,5.8-5.3,9.1-6.2c5-1.3,12.7-3.5,15.1-1.1c4.5,4.6,9.4,13.1,8.3,18.5c-17.3,80.8-51.9,152-106,214.4
	c-37.5,43.2-79.9,77.9-129.4,104.2C2195,1587.2,2183.5,1596,2164.6,1582.9z"/>
<path class="st0" d="M3525.8,1161c2.9,44.5-18.4,76.7-38.4,106.7c-28.8,43.3-60.8,84.6-99.3,120.2c-23.6,21.9-49.9,38.1-78.7,50.6
	c-4.5,1.9-10.6,0-19-0.2c0.3-10.9-2.1-22.4,1.2-31.7c20.1-56.2,56.5-101.2,98.8-140.6c38-35.3,78.7-67.5,118.5-100.7
	C3511.4,1163.1,3515.7,1163.3,3525.8,1161"/>
<path class="st3" d="M3525.8,1161c2.9,44.5-18.4,76.7-38.4,106.7c-28.8,43.3-60.8,84.6-99.3,120.2c-23.6,21.9-49.9,38.1-78.7,50.6
	c-4.5,1.9-10.6,0-19-0.2c0.3-10.9-2.1-22.4,1.2-31.7c20.1-56.2,56.5-101.2,98.8-140.6c38-35.3,78.7-67.5,118.5-100.7
	C3511.4,1163.1,3515.7,1163.3,3525.8,1161z"/>
<path class="st0" d="M2233.2,1350.4c6.8-71.4,52.8-139.8,106.4-163.1c17.4-7.6,35.7-9.9,53.5-3.7c4.1,1.4,6,11.5,7.3,18
	c0.5,2.6-3.3,6.5-5.8,9.1C2344.4,1259.7,2288.1,1301.1,2233.2,1350.4"/>
<path class="st3" d="M2233.2,1350.4c6.8-71.4,52.8-139.8,106.4-163.1c17.4-7.6,35.7-9.9,53.5-3.7c4.1,1.4,6,11.5,7.3,18
	c0.5,2.6-3.3,6.5-5.8,9.1C2344.4,1259.7,2288.1,1301.1,2233.2,1350.4z"/>
<path class="st0" d="M3946.7,1096.8c-51.7,54.3-95.8,100.7-142,149.2c-4-28.1-3.8-28.5,15.9-56.4
	C3860.4,1133.5,3896.1,1105.3,3946.7,1096.8"/>
<path class="st3" d="M3946.7,1096.8c-51.7,54.3-95.8,100.7-142,149.2c-4-28.1-3.8-28.5,15.9-56.4
	C3860.4,1133.5,3896.1,1105.3,3946.7,1096.8z"/>
<path class="st0" d="M4729.3,1179c8.6,19,17.8,37.4,25.1,56.5c5.3,13.6,0.8,26.5-10.3,35.6c-29.3,24.1-81,18.6-105.3-10.8
	c-7.5-9.1-9.7-25.2-1.6-31.2C4664.9,1208.5,4689.3,1181,4729.3,1179"/>
<path class="st3" d="M4729.3,1179c8.6,19,17.8,37.4,25.1,56.5c5.3,13.6,0.8,26.5-10.3,35.6c-29.3,24.1-81,18.6-105.3-10.8
	c-7.5-9.1-9.7-25.2-1.6-31.2C4664.9,1208.5,4689.3,1181,4729.3,1179z"/>
</svg>
