<svg xmlns="http://www.w3.org/2000/svg" viewBox="0 0 4000 3733.1"><title>veggies</title><rect width="4000" height="3733.1" fill="#d65663"/><path d="M1164.2,2585c.5-4.2-.4-6.7-3.6-8.8-4.8-3.3-9.9-6.1-15.9-6.4a33.36,33.36,0,0,1-5.2-.9c-1.2-2.5-2.4-4.8-3.5-7.1-1.7-3.4-3.5-6.7-5.2-10-5-10.2-12.5-18.9-18.2-28.7-2-3.5-3.7-7.3-6.2-10.5-9.5-11.7-17.9-24.2-28.5-35.1-11.2-11.5-24.4-19.5-39.4-25.1-10.1-3.7-20.1-7.6-30.2-11.4-2.7-1-5.5-2-8.3-2.8-5.3-1.5-10.6-3-16-4.2-7.4-1.6-14.7-3.7-22.3-3.1-2.3.2-4.6-.2-7-.2-7.6.1-15.2-.4-22.6.4-14.4,1.6-28.8,3.9-43.2,5.9-19.4,2.7-38.1,8.4-56.7,13.7-17,4.8-34.1,9.6-50,17.8-6.6,3.4-13.2,6.5-19.6,10.2-26.1,24.5-52,48.9-84.1,63.9-15.2,7.1-31.4,11.8-47.7,15.6-7.6,1.7-15.2,3.3-22.9,4.5a.6.6,0,0,0,.1.4c-1.7,2.4-3.9,2-5.8,2.4a337.39,337.39,0,0,1-36.1,5.2c-4,.4-7-.1-9.5-4.2a.22.22,0,0,0-.2-.2c-5.2-.2-10.4-.5-15.5-1-9.9-1.1-19.8-2.8-29.6-4.6,0,.2.1.4.1.6.2,1.6-.3,3.3-.5,5.1-2.5.9-4.8,1.5-6.9,2.3-6.2,2.5-12.7,4.4-17.6,9.3a97.79,97.79,0,0,1-9.8,8.5,130.4,130.4,0,0,0-10.5,9.2,339.5,339.5,0,0,0-32.5,36.3c-15.4,19.5-28.1,40.6-36.4,64.2-1.1,3.3-2.5,6.5-3.9,9.7l-14.4,33.6a46.69,46.69,0,0,0-1.4,5c-3.4,10.5-6.8,21-10.3,31.4-2.4,7.2-5.2,14.2-7.1,21.5-2.6,10.1-4.6,20.4-6.7,30.6-.9,4.2-1.4,8.6-2,12.9-.6,4.9-1.2,9.8-1.6,14.7-.5,6.1-.8,12.1-1,18.2-.3,9.6-.3,19.1-.5,28.7a158.94,158.94,0,0,0,3,36.4c1,5.1,2.7,10.2,3.1,15.3a101.13,101.13,0,0,0,3.7,19.6c1.8,6.4,3.3,12.9,5.1,19.3,2,7.6,4,15.2,6.3,22.7,1.9,6.1,3.6,12.3,6.5,17.9,8.1,15.7,19.6,28.7,33.5,39.6,7.8,6.1,15.4,12.4,23.1,18.5,4.8,3.8,9.7,7.5,14.6,11s10,7,15,10.5c13.6,9.5,27,19.3,42,26.4,3.1,1.5,6.1,3.3,9.2,4.9,8.3,4.2,16.4,8.6,25.5,11.2,7.8,2.2,15.8,3.7,23.2,7.4,2,1,4.5,1.1,6.8,1.4,6.9.8,13.9,1.3,20.8,2.3,9.5,1.3,18.9,3.3,28.5,3.2,2,0,4,.8,6,1,3.2.3,6.6,1.3,9.5.5,9.3-2.5,18.4-1.2,27.6.6a60,60,0,0,0,9.5,1c4.9.2,9.9.3,14.8.2a29.08,29.08,0,0,0,7.8-.7,30.1,30.1,0,0,1,13-.6c6.2.8,12.1-.1,18.1-1.4a128.47,128.47,0,0,1,13.7-1.8c8.3-1,16.8-.9,25-3.3a71.66,71.66,0,0,1,14.5-2.9c10.7-.9,21.5-1.4,32.2-1.7a95,95,0,0,1,13,1.1,6.28,6.28,0,0,1,5.2,4.1c1.5,3.8,3.2,7.5,4.7,11.3,4.4,11.1,9.1,22,15.1,32.3,2.8,4.8,4.9,9.8,4.8,15.6-.1,2.2.7,4.6,1.3,6.8,2.5,10.1,7.5,19.6,8.2,30.2a11.23,11.23,0,0,0,1.8,4.9c4.5,6.7,3.4,14,1.9,21.1-.6,3-1.8,6.4-3.9,8.4-7,6.5-13.6,13.4-21.7,18.7-6.6,4.3-12.3,9.7-16,16.9-1.1,2.1-2.5,3.9-3.7,5.9-3.8,6.2-7.1,12.6-9,19.8-1.7,6.5-3.8,12.8-5.5,19.3-2.1,8.2-3.2,16.4-1.3,25,1.3,5.9,1.5,12.1,2,18.2.6,8.1,1,16.3,3.8,24a18.05,18.05,0,0,1,1.2,5.1c.7,9.9,1.3,19.7,1.9,29.6a18.28,18.28,0,0,1-.4,5.2c-1.4,8-1.5,16.2-4,24-1.3,3.8-1.6,8-2.6,11.9A120.17,120.17,0,0,1,803,3532c-2.6,7.1-5.1,14.2-3.8,22a12.56,12.56,0,0,1-.6,4.2c-.6,2.8-1.4,5.6-2,8.4-.9,4.2,1.8,6.5,4.6,8.7,2.6,2,5.5,2.4,8,.3a13.34,13.34,0,0,1,11.3-3.1,15.6,15.6,0,0,0,4.3-.3c5-.7,8.7-3,10.7-7.7,1.7-4,3.2-8,3.4-12.5.3-4.9,1.2-9.8,1.8-14.7.7-5.5,1.6-10.9,2.2-16.4,1-8.9,1.5-18,2.7-26.9a120.13,120.13,0,0,0,1-26.1c-1-13.3-2.7-26.6-4.5-39.8-1-7.2-2.2-14.3-2-21.6.1-4.3-.7-8.7-.9-13a51.32,51.32,0,0,1,.1-9.6,68,68,0,0,1,11.8-30.6,26.13,26.13,0,0,1,5.4-5.6c5.3-4,10.8-7.9,16.3-11.7,1.9-1.3,3.8-2.9,6.8-1.7,1.3,3.8,2.6,7.9,4,11.9,3.9,10.8,4.3,22.2,6.4,33.3.4,2,0,4.1,0,6.1,0,2.6,0,5.2.1,7.8a91.51,91.51,0,0,0,1.8,17.3c1.9,9.5-1.1,18.4-4.6,27.1-1.9,4.9-3.9,9.7-5.6,14.7a15.37,15.37,0,0,0-.9,6,151,151,0,0,0,1.5,16.5c1.8,10.5,5.5,20.1,13.6,27.6a28.56,28.56,0,0,1,4.9,6c5.8,9,10.8,18.6,19.7,25.2a14.56,14.56,0,0,1,4.6,6.1,45.44,45.44,0,0,1,3,12.6c.6,8.4.5,16.8.5,25.2a15.11,15.11,0,0,1-1.5,5.8,34.45,34.45,0,0,1-3,5.3c-2.6,4-2.7,8.1-.6,12.4,1.6,3.4,3.1,6.8,4.7,10.5,2.8.6,5.6,1.1,9.4,1.9,1.6-1.9,3-4.2,4.9-5.9,1.6-1.5,3.7-3.1,5.8-3.5,5.4-.9,7.7-4.5,9.6-9,2.3-5.5,2.6-11.3,3.3-17.1a138.94,138.94,0,0,0-2.6-50.2,36.69,36.69,0,0,0-10.6-18.7c-3.8-3.6-7.7-7.3-10.4-11.7-5.1-8.2-11-15.7-16.8-23.3a29.28,29.28,0,0,1-4.1-7.6c-2.4-7-1.4-13.6,1.9-20.2,2.7-5.4,5.8-11,6.8-16.9,2.1-12.3,2.9-24.8,4.2-37.2.1-1.1,0-2.3,1.6-2.5,6,4.5,11.6,9.7,18.1,13.5,10.2,6,18.8,13.2,25,23.5,3.5,5.7,7.5,11,8.3,18a12.18,12.18,0,0,0,3.1,7,41.79,41.79,0,0,0,10.6,7.2c2-6.1,6.4-8.3,12-8.9a7,7,0,0,0,3-1.7,17.91,17.91,0,0,0,6.9-14.4c0-6-2.1-11.4-5.1-16.5-3.5-6-7.4-11.8-11.2-17.7-4.4-6.8-8.9-13.6-13.4-20.4a33.32,33.32,0,0,0-10.7-10.1c-13.7-8.5-26.1-18.3-33.9-33a24.93,24.93,0,0,1-3.3-13.2c.2-4.3,1.6-8.5,1.9-12.7a98.5,98.5,0,0,1,7.2-31.2,33.34,33.34,0,0,0,2.5-14.1,73.9,73.9,0,0,1,.8-15.6,269,269,0,0,0,2.5-73.9,16.2,16.2,0,0,1,0-4.4c.1-1.1-.2-2.4.4-3.4a67,67,0,0,1-.5-10c-.1-4.2-.5-8-.3-11.7.3-8.1.4-16.3,1.3-24.3a70.57,70.57,0,0,1,11.4-31.6,192.82,192.82,0,0,0,12.4-21c4.9-9.9,12-17.7,20.3-24.7,6.5-5.4,13-10.7,19.2-16.4,7.3-6.7,14.1-13.8,18.9-22.6,5.9-10.6,12.1-21,19.8-30.5,6.2-7.7,10.5-16.7,13.9-26.1,3.5-9.8,7-19.7,11.9-29,5.6-10.8,10.7-21.9,14.1-33.7a50.4,50.4,0,0,1,2.9-7.3c4.5-10.1,9.2-20.1,13.6-30.2a88.47,88.47,0,0,0,3.1-9.1c1.1-3.3,2.1-6.6,3.1-9.9a47.45,47.45,0,0,0,1.5-5c1.4-9.6,5.3-18.3,8.6-27.3,3-8.1,6.4-16.1,8.3-24.7.9-3.9,2.7-7.6,4.1-11.5.4-1.1.8-2.2,1.1-3.3,2.2-10.2,5.4-20.1,7.3-30.4,1.7-9.1,4.4-18,6.5-27.1.5-2.2.7-4.6,1-6.9a236,236,0,0,0,.8-50.4c-.3-3.8.3-7.8-.8-11.3-3.2-10.5-3-21.9-8.3-32.2,2.1-1.4,4-2.6,5.9-3.9A12.82,12.82,0,0,0,1164.2,2585ZM871.7,3272.6c-1.46-1.87-3.59-3.74-2.77-6.69.2.35.4.7.62,1a45.38,45.38,0,0,0,5.27,6.71A2.83,2.83,0,0,1,871.7,3272.6Z" fill="#fbe6cc"/><path d="M1124.7,2479.8c-66.3-51-155.3-66.9-236.2-48.5-31.38,7.19-61.23,21-88.67,38.19a315,315,0,0,0-36.5,12.69l-.16.06a161.12,161.12,0,0,0-40.9,25.62c-7.84,6.75-15.32,13.6-22.55,20.23q-2.94,2.7-5.89,5.39c-.74.67-1.47,1.35-2.2,2l-1.32,1.22c-11.59,8.88-21.31,16.22-31.37,22.66h0c-.85.21-1.7.4-2.56.6-3.48.8-7.81,1.8-12.65,3.37l-.16.06c-5.62,1.84-13.74,2.78-22.33,3.77-3.88.45-7.9.91-12.1,1.5H609c-2.49.35-5.82.58-9.36.83-4.89.34-10.43.72-16.45,1.57l-.36,0a133.5,133.5,0,0,1-38.3,0l-.27,0c-2.41-.32-4.59-.47-6.38-.55a54.5,54.5,0,0,0-45.47,9.54l-1.39,1a149.79,149.79,0,0,0-16.12,13.27l-.18.18c-7.29,7.17-14.16,14.43-20.44,21.58l-.29.34c-5.33,6.18-10.09,12.06-14.42,17.8C381.78,2679.52,339.48,2743.28,325.3,2816c-8.6,44.3,12.5,90.3,58.4,102.9,16,4.42,33.91,3.26,50.28-2.45a64.21,64.21,0,0,0,29.62-12.24,136.18,136.18,0,0,0,33.82-35.53l.06-.09a27.55,27.55,0,0,1,1.74-2.51,122,122,0,0,0,18.4-20,5.64,5.64,0,0,1,2.29-1.88c4.44-2.14,6.36-2.66,7.12-2.78l.21,0c.75-.11,3-.22,4.56-.31s3.26-.17,5.12-.31a177.5,177.5,0,0,0,19.13,3.82c11.78,1.6,21.71,4.45,30.33,8.71a115.29,115.29,0,0,0,11.88,5.33,60.94,60.94,0,0,0,53.35-4.42l.73-.44c9.27-5.71,20-13.09,29-24.45l.58-.72c8.21-10.37,16.7-21.09,24.81-32.7a129,129,0,0,1,11.67-15l.21-.22c2.22-2.36,5.39-5.72,7.13-7.41,1.38-.59,3.57-1.43,5.74-2.26a106.23,106.23,0,0,0,17.55,2.38,38.68,38.68,0,0,1,6.52,1.49c28.34,8.38,56.12,1.67,76.23-18.44l.16-.17a340.68,340.68,0,0,0,32.69-38.9c1.32-1.8,2.61-3.6,3.91-5.4,2.06-2.88,4-5.61,5.8-7.86l.61-.79,1-1.2a20.43,20.43,0,0,1,1.87-.88l1.54-.56.93-.34,19.15,1.25c4.5,2.87,8.84,5.73,12.87,8.68l.36.26c2.18,1.56,3.19,2.35,3.65,2.75,13.23,15.77,29.2,21.8,40.11,25l.8.23a63.55,63.55,0,0,0,53.37-9c14.49-9.93,24.57-21.95,33.3-33.45l.17-.22c.6-.8,1.19-1.62,1.78-2.45l.14-.18a205.09,205.09,0,0,0,26.12-37.05,59.66,59.66,0,0,1,5.78-8.87,24.08,24.08,0,0,1,2.92-3,60.49,60.49,0,0,0,11.41-6.89l2.27-1.58c28.14-5,54.51-26.56,64.54-51.46C1175.7,2542.4,1158.7,2506,1124.7,2479.8ZM734.9,2769.67h0Z" fill="#a97eb7"/><path d="M999.7,1969.9c-.2-.8-.3-1.7-.5-2.6-2.8-13.9-8.8-25.7-21.9-32.6a16.44,16.44,0,0,1-2.2-1.4,15.66,15.66,0,0,0-9.1-2.7,31.69,31.69,0,0,1-11.9-2,29.48,29.48,0,0,0-16.4-.9c-6,1.3-12,2.5-17.8,4.2-14,3.9-26.3,10.7-35.9,21.9-7,8.2-13.3,16.9-19.5,25.6-4.9,6.9-9.7,13.8-15,20.4-9.2,11.3-18.9,22-26.9,34.2-.5.7-1.6,1.1-3,1.9,0-7.8-.1-14.7,0-21.7.4-20.1.9-40.1,1.4-60.2.1-4.3.9-8.7,1.4-13,.4-3.1,1.7-5.4,4.7-6.8,4.2-2,8.2-4.3,12.3-6.6,3.8-2.1,7.8-4,11.2-6.7,15.7-12.6,30.6-26,42.7-42.1,1.6-2.1,3.5-3.9,5-6,5.3-7.2,10.9-14.3,15.7-21.9,5.2-8.4,9.3-17.4,14.2-26a223,223,0,0,0,21.7-53.1,91.5,91.5,0,0,0,2.9-13.6c1.1-9.5-.5-18.6-5.8-26.7-3.4-5.1-8-8.8-12.9-12.6-8.6-6.5-18-9-28.4-9.4-4.1-.1-8.1-.6-12.2-1.1-4.6-.6-9.1-1.5-13.7.6a6.35,6.35,0,0,1-7.8-1.9c.5-.7.7-1.4,1.1-1.6,3.3-1.5,5-3.8,4.4-7.6a10.28,10.28,0,0,1-.1-1.7c-.2-4.2,1-7.5,5.7-8.5a4.64,4.64,0,0,0,2.3-1.2,12,12,0,0,0,1.4-3c-2-.2-3.3-.4-5.2-.6,2-6.9,3.7-13.6,6.9-19.8,2.1-3.9,4.4-7.5,2.6-12.2a3.22,3.22,0,0,1,.4-2.5c1.3-2.6.8-6.8,5.5-6.6,2.2-2.8,3.9-5.6,4.1-9.4.4-4.8,1-9.6,3-14.2a24.27,24.27,0,0,0,2.2-9.8,61.4,61.4,0,0,1,1.2-10.4,8.75,8.75,0,0,1,3.8-6.5c3.8-2.6,5.9-6.3,3.5-11.2a4.71,4.71,0,0,1-.4-1.7c-.6-3.3.6-4.8,4-5.1,1.3-.1,2.7-.1,4.1-.2-1.6-7-1.5-7,.4-14.8a23,23,0,0,0,.9-6.9,16.19,16.19,0,0,1,2.2-9.1c1-1.9,2.1-4.6,1.6-6.5-.7-2.7-.2-4.9.1-7.5s-.6-5.6-.1-8.5c1.8-10.3-.8-20.2-3.5-30.1a14.4,14.4,0,0,0-2-3.9c-2.2-3.4-4.4-6.8-6.8-10-3.4-4.7-7.2-8.6-12.9-11.1-6.6-2.9-13.2-5.8-20.2-7.7a7.74,7.74,0,0,1-1.6-.7c-6.3-3.4-12.5-1.9-18.4.7a39.06,39.06,0,0,0-10.9,7c-6,5.4-12.6,10.4-16.4,17.9a11.31,11.31,0,0,1-2.3,2.6c-7.6,7.4-12.9,16.4-17.4,25.9-7.1,15.3-13.8,30.7-20.6,46.1-2,4.5-3.7,9.1-5.5,13.7a144.64,144.64,0,0,0-7.4,25.9c-.6,3.1-2.8,5-5.6,4-5.2-1.8-9.7-.6-14.2,1.6a5.51,5.51,0,0,1-5.8-.2c-6-4.3-12.6-3.6-19.2-2.2-4,.9-7.8,2.4-11.7,3.6a19.06,19.06,0,0,1-4.3.4c-.4-2.5-.8-4.4-1-6.4-.7-8.7-1.1-17.4-2.1-26.1a53.85,53.85,0,0,0-3-12.6c-2.4-6.5-5.4-12.8-8.2-19.2-2.1-4.8-4.2-9.5-9.5-12-1.7-.8-2.7-2.9-4-4.4-3.8-4.5-7.7-8.7-14.1-9.2-1.3-.1-2.6-1-3.9-1.5a19,19,0,0,1-9.1,3.3c-9.4.6-17,4.9-23.2,12.2-2.9,3.4-4.3,7.5-6.8,11.1a27.48,27.48,0,0,0-4.9,14.7,58.55,58.55,0,0,1-4.8,20.2c-1.3,3.2-2,6.7-3.6,9.8-2,4,1.5,6.5,1.9,9.9.1.9-.1,1.8,0,2.6,1.8,11.8,2.8,23.7,7,34.9,3.7,9.8,3.1,20,3.7,30.1.2,2.7-2.3,4.2-4.9,2.8-3.5-1.8-7.1-2.1-10.9-2.5-11.3-1.4-22-.3-32,5.6-1.3.8-3.1.9-5.2,1.5v-5.8c.3-6.7.8-13.3.7-20-.1-12.3-4.1-24-6.9-35.9a21.9,21.9,0,0,0-1.2-3.3c-6.6-12.3-18.5-17.8-30.1-23.9a7.08,7.08,0,0,0-2.6-.5,49.5,49.5,0,0,0-21.6,1.9c-21.9,6.9-36,22.5-47.1,41.6-.6,1-.8,2.2-1.3,3.2-.9,2.1-1.8,4.3-2.8,6.4-1.6,3.7-3.3,7.4-4.8,11.1-.8,1.9-1.3,3.9-2.1,5.7-.4.8-1.4,1.4-2.8,2.7-.4-2.7-.7-4.4-.8-6.1-.3-3.5-.3-7-.9-10.4a470.11,470.11,0,0,1-6.7-61.5c-.4-8.1-.6-16.3-1.6-24.3-1-7.8-3-15.4-4.3-23.1-2-12-3.7-24.1-5.8-36.1a129.9,129.9,0,0,0-4.2-18.7,369.1,369.1,0,0,0-13.9-34.7c-2.1-4.6-5.1-8.5-9.8-10.7a83,83,0,0,1-20-13.8c-5.2-4.8-11.6-6.8-18.6-5.2a69.47,69.47,0,0,0-12.3,4.4,55.31,55.31,0,0,1-7.9,3.4c-4.7,1.5-8.8,4.1-11.4,8.8-4.9,8.9-10.5,17.4-15.3,26.4-4.6,8.7-5,18.4-5.3,28-.2,5.5.5,11,.5,16.6a122.2,122.2,0,0,0,4.6,31.8c4.1,15.1,8.4,30.2,12.4,45.3,1.3,5,2.3,10.2,3.2,15.4.2,1.2-.4,2.6-.6,3.7-7.4-2.4-14.3-4.5-21.1-6.7a5.94,5.94,0,0,1-1.6-.6c-5.1-3.3-10.2-1.8-15,.3-4.1,1.8-8.7,3.4-11.1,8a3.08,3.08,0,0,1-4.6.9c-4.3-3.9-10.5-5-14-10.1a6,6,0,0,0-4.5-2.1c-10.3.1-19.3,3.4-26.2,11.2-8.7,9.8-17.1,19.8-22.9,31.7a21.3,21.3,0,0,1-3,3.3,19.41,19.41,0,0,1-4.8-8.7c-4.8-16.5-11.8-32.2-19.3-47.6-2.7-5.5-5-11.1-7.6-16.6a155.56,155.56,0,0,0-7.2-14.8c-7.7-12.7-19.4-21.5-31.2-30a12.8,12.8,0,0,0-9.1-2.5,58.67,58.67,0,0,0-11.1,2c-7.9,2.6-15.7,5.7-23.6,8.6a13.62,13.62,0,0,0-7.9,7.7c-1.6,3.7-2.9,7.7-4.9,11.2-4.8,8.2-6.7,17.3-8.6,26.3a127.26,127.26,0,0,0,.8,54.6c4.3,19,9.3,37.9,18,55.5.9,1.8,1.5,3.8,2.4,5.6,6.7,14.8,13.6,29.5,23.7,42.5,6.4,8.3,12.2,17,18.3,25.5,9.1,12.7,17.5,26.1,29.1,36.8,3.5,3.3,4.9,7.1,2.2,11.7a21.91,21.91,0,0,0-1.7,4.9c-1.2,4.2-2.3,8.4-3.4,12.6-1.8,6.7-4,13.4-5.1,20.2-1.4,8.6-1.4,17.4,1.5,25.9,1,3,2.2,6,3.1,9.1.3,1,0,2.1,0,4.3-3-2.2-5.2-3.6-7.1-5.2-6.7-5.3-13.7-10-21.8-12.5-4.3-1.3-7.9-3.6-11.6-5.9-3.4-2.2-6.6-4.7-10.1-6.9-6.3-4-13.2-5.9-20.8-4.7-6.9,1.1-13.7,2.2-20.6,3.4a16.71,16.71,0,0,0-13.8,11.9c-4.1,12.6-3.2,25.2,2.1,37.4,3,7,7.7,13,12.5,18.9,7.9,9.7,15.9,19.3,26.2,26.7,3.8,2.7,7.1,6,10.6,9.1,9.4,8.7,19.9,16,28.8,25.3a20.44,20.44,0,0,0,2.8,2.1q25.8,19.35,51.6,38.8c.9.7,2.8,1.1,1.7,3.3l-4.2-1.2c-6.6-1.8-13.3-1.6-19.9-.7-4.3.6-8.8,2.2-10.9,6.5-5.6,11.6-9.5,23.9-8.6,37a80.46,80.46,0,0,0,2.9,15.4c1.5,5.3,3.1,10.7,5.7,15.5,8.5,15.6,17.4,30.9,26.3,46.2,7.5,12.8,15.2,25.4,22.8,38.1a3.08,3.08,0,0,1-.5,4.3c-1.4-.5-3-1-4.6-1.6-7.4-2.5-14.8-5.1-22.3-7.6a17.66,17.66,0,0,0-12.8.2c-6.4,2.8-12.8,5.5-18,10.9a160.41,160.41,0,0,1-2.2,20.5,31.34,31.34,0,0,0,1.1,12.9,27.9,27.9,0,0,0,17.2,19.5c11,4.5,22,9.1,33.3,12.9,19.6,6.5,39.3,12.4,59.1,18.4,12,3.6,24.2,6.4,36,10.3,20.4,6.8,40.9,13.2,61.7,18.8a124.79,124.79,0,0,1,20.4,7.5,65.09,65.09,0,0,0,16.6,5.1c8.1,1.4,14.5,5.9,19.8,11.6a69.43,69.43,0,0,1,14.9,26.3,112.36,112.36,0,0,0,7.8,19.4c4.7,9,6.8,19.2,12.2,27.9a157.8,157.8,0,0,1,7.7,14.7c3.1,6.6,6.3,13.1,8.7,19.9,4.3,12.3,8,24.9,11.8,37.4,3.4,10.8,7.4,21.4,9.2,32.7a71.85,71.85,0,0,0,4.3,15.9,126.37,126.37,0,0,1,5.4,14.5c1.5,5.6,3.9,11,5,16.6,1.5,7.2,2.3,14.5,3.3,21.8,9.9,1.8,19.7,3.6,29.6,4.6,6.1.5,11.3.8,16.5,1-1.8-2.7-5.8-4.2-9.6-6.8-3.4-11.6-7-24.1-10.6-36.7-4.3-15.1-8.4-30.2-12.8-45.2-2.8-9.5-6.3-18.7-9.3-28.1-3.3-10.2-6.7-20.5-9.6-30.8-3.4-12.2-8.9-23.3-14.6-34.4-3.3-6.5-6.7-12.9-9.9-19.4-1.4-2.8-2.9-5.7-2.3-8.9.4-.4.5-.7.8-.8,3.4-1.3,7.4-1.4,9.1-5.8,2-5,2.9-10.1,1.2-15.3a36,36,0,0,0-2.9-6.3,23.61,23.61,0,0,1-3.3-11.6c0-3.3-1.5-6-3.3-8.8-2.2-3.4-4.5-7-5.3-10.8-3.6-17.9-12.8-32.9-23.3-47.3a185.88,185.88,0,0,1-14.2-22.9c-5.8-11.4-12.1-22.5-18-33.9-5.2-10.1-10.2-20.2-15.1-30.4a48.51,48.51,0,0,1-3-9.1c-3-12.4-5.7-24.8-8.9-37.2-1.9-7.6-4.5-15-6.7-22.5-1.4-4.7-2.9-9.5-3.9-14.3-2.5-12.3-6.9-23.9-10.5-35.8-1.9-6.3-5-12.3-6-18.9-.4-3-2.6-5.8-4-8.6-1.6-3.4-3.4-6.8-4.9-10.2-.4-.8.1-2,.2-3.9,3.4,2.4,5.8,4.4,7.4,7.2a237,237,0,0,0,26.7,38.6c.9,1.1,1.7,2.4,2.5,3.6,7.1,11,14.7,21.7,21.2,33,11.3,19.6,22.5,39.3,30.6,60.6a589.93,589.93,0,0,0,26,58,522.78,522.78,0,0,1,25.2,57.4c5.9,15.8,11.3,31.7,17.1,47.5,5.2,14.2,10.6,28.3,15.8,42.4,2.3,6.3,4.2,12.7,6.4,19s4.6,12.5,7,18.8c1.7,4.6,4,8.9,5.1,13.8,2.1,9.1,6.3,17.5,10.3,25.8,1.5,3.1,3,6.3,4.2,9.5a323.69,323.69,0,0,0,23.5,47.6c2.9,4.9,5.1,10.2,7.9,16h-4.8c-.6,2,.5,2.8,1.9,3.6,4.4,2.5,4.5,2.5,3.5,7.2-.7,3.4-.6,3.4,1.1,7.2a5.63,5.63,0,0,0,1-3.7c.5.1,1.2.1,1.3.3,1.3,2.9,2.5,5.9,3.6,8.9.4,1,.8,2.6.3,3.3-2.7,4.5-.8,8.4,1.2,12.3,3.8,7.5,4.8,15.7,6.1,23.6,7.7-1.3,15.3-2.8,22.9-4.5,16.3-3.7,32.5-8.5,47.7-15.6,32.1-15,58.1-39.4,84.1-63.9a80.94,80.94,0,0,0-16.5,12.2,42.59,42.59,0,0,1-6.2,4.8c-1,.7-2.4.8-3.9,1.3-.6-3.7.6-6.4,1.3-9.2,3.8-15.2,7.8-30.4,11.4-45.7,4.6-19.8,9.1-39.6,11.7-59.8,2.3-17.9,4.6-35.7,6.7-53.6,1.1-9.6,3.8-18.7,6.5-28,8.8-1.7,12.8-9.1,19-13.6.6-7.4,1.5-14.6,1.8-21.8a13.67,13.67,0,0,1,5.8-11,44,44,0,0,1,5.2-3c1.6-3.2,5.7-1.9,8.1-4.6-.9-2.6-1.8-5.3-2.6-7.7a60.69,60.69,0,0,1,16-15.2c3.9-2.5,7.2-5.8,10.9-8.5a18,18,0,0,1,3.7-1.7c.9,2.4-.3,3-1.5,3.6,2.5.5,5.4,1.2,6.1-2.1.8-3.6,3.1-5.3,5.6-7.3,2.3-1.8,4.5-3.6,6.7-5.5,2.8-2.5,5.1-5.7,9.5-5.3.9.1,2-1.1,2.9-1.8a27.66,27.66,0,0,0,7.2-9.7c3.7-8.6,8.7-16.4,14.1-24,8.7-12.3,10.8-26.1,6.5-40.6-.6-2.2-1.3-4.4-2.2-7a38.37,38.37,0,0,1,5.8-3.8,120.76,120.76,0,0,1,11.3-4.5,54.08,54.08,0,0,0,16-8.7,437.43,437.43,0,0,0,33.8-31.5,155.94,155.94,0,0,0,19.5-25.6c6.7-10.7,10.7-22.5,14.9-34.3S1002.7,1982.1,999.7,1969.9Zm-747.8,82.2c2.6-.3,2.8,2.3,4.3,3.2C253.7,2055.1,253.7,2055.1,251.9,2052.1Zm103.7,98.1c.4.6.2,1.5.4,3.4-2.5-2-4.3-3.3-5.9-4.8-9-9.1-17.8-18.3-26.9-27.4a157.32,157.32,0,0,0-14.1-13c-9-7-16.7-15.3-24.5-23.5-3.6-3.8-7.6-7.2-11.4-10.7-2.7-2.5-5.6-4.7-6.9-8.3a111.65,111.65,0,0,1,16.9,11.9c8,6.8,15.6,14,23.9,20.4,10.7,8.2,20,17.7,29,27.5,3.1,3.4,6.6,6.6,9.5,10.3C349.1,2140.6,352.3,2145.4,355.6,2150.2Zm132.5,13.7a24.06,24.06,0,0,1-2.6-3.9c-2.7-6.4-5.3-12.9-7.9-19.3a10.41,10.41,0,0,0-.6-1.6c-7.2-12.6-11.2-26.8-17.8-39.7-8.8-17.1-17.9-33.9-28.1-50.1-11-17.5-23.8-33.7-35.6-50.7-3-4.3-5.4-8.9-8.3-13.3a85.23,85.23,0,0,0-6.7-9.1c-4.4-5-9.1-9.8-13.6-14.7-6.1-6.6-12.3-13.2-18.3-19.9-7.3-8.3-14.6-16.6-21.6-25.1-2.5-3.1-4-7.1-5.8-10.7-5.1-9.8-5.9-20.5-6.7-31.3a203.36,203.36,0,0,1,.7-33.1c.9-9.3.8-18.6,1.1-27.9a5.63,5.63,0,0,0,0-3.4c-1.7-4.9-1.4-9.3.5-14.3,1.2-3.3.5-7.5.4-11.2-.4-19.8-1.2-39.5,1.1-59.2a46.4,46.4,0,0,1,1.2-4.5c7.1,9.2,10.8,18.4,15.2,27.1,10.5,20.4,21,40.8,33.2,60.3,2,3.2,3.8,6.5,5.7,9.8,15,26.6,31.5,52.3,49,77.3,4,5.7,9.1,10.5,13.5,15.9,2.9,3.6,6.1,7.1,8.2,11.2,6.5,12.4,11.5,25.4,13.6,39.3a61.15,61.15,0,0,0,1.8,8.5c3.4,12.8,2.6,26,3.3,39,.2,4,.9,8,1.5,12.1,1.1,8.3,2.2,16.7,3.4,25,1.3,8.9,2.3,17.9,4.1,26.7,3.4,15.9,5.5,32.1,7.6,48.2a190.54,190.54,0,0,0,8.1,36.5A10.33,10.33,0,0,1,488.1,2163.9Zm94.2,235c-2.1.9-2.9-.7-3.3-1.8-1.6-4.1-2.8-8.2-4.3-12.3-1.7-4.9-3.2-10-5.3-14.7-3.3-7.6-4.1-15.7-4.1-23.8,0-5.9-.5-11.3-3.5-16.6a55.78,55.78,0,0,1-4.9-12.1c-2.6-8.6-4.8-17.3-7.3-26-2.2-7.8-4.8-15.5-6.9-23.3-1.1-4.2-1.4-8.5-2.2-12.8a40.53,40.53,0,0,0-1.6-7.7c-4.6-12.6-6.4-25.9-9.6-38.8-3.4-13.9-5.4-27.9-7.6-42-1.7-10.9-5.2-21.4-8.1-32.1a169.89,169.89,0,0,1-4.8-25.6c-1.8-14.7-4.1-29.4-6.5-44-2.4-14.9-5.5-29.7-6.3-44.9a62.52,62.52,0,0,0-1.5-9.5c-2.3-10-2.1-20.2-2.1-30.4,0-4.6-.4-9.3-.8-13.9a24,24,0,0,1,.7-10.3,44.38,44.38,0,0,0,1.3-16.3,81.79,81.79,0,0,1,8.3-44.8,17.62,17.62,0,0,1,2.3-3.7c6.5-7.4,12.6-15.2,19.9-21.9,9.3-8.4,17.9-17.4,26.8-26.2,3.6-3.2,7.1-6.7,10.8-10,2.4-2.1,4.7-4.4,8.3-5,.5,5.1,1,9.7,1.4,14.2,1.1,12.1,3.7,24.2,2.1,36.5a10.52,10.52,0,0,0,.4,4.3,14.49,14.49,0,0,1-.4,8.5,16.28,16.28,0,0,0-.1,11.1,7.9,7.9,0,0,1,.5,4.3c-2.1,9.8,0,19.6-.5,29.4a31.06,31.06,0,0,1-2.5,11.7c-7,15.9-10.9,32.4-10,49.9.4,8.7.5,17.4,1,26.1.5,7.6,1.7,15,4.7,22.1,1.3,3.1,1.3,6.2,1.1,9.4-.8,13.1-1.6,26.1-2.6,39.2-1,11.9-.3,23.8.3,35.7.5,11.6,1.8,23.2,2.2,34.8.5,12.5.5,25,.4,37.5-.1,17.1,1.1,34.2,1.3,51.4.3,18,.3,36,.7,54.1a384.09,384.09,0,0,0,4.3,47.8c.7,4.6,2.1,9.1,3,13.6,1.7,8.5,3.4,17.1,5,25.6A18.19,18.19,0,0,1,582.3,2398.9Zm64.7-697c1.7,1.8,3,2.6,3.4,3.7,3.2,7.8,6.2,15.6,9.2,23.4.9,2.4,1.5,4.9,2.2,7.1-1.6,1.7-2.9.7-4.1.1a1.72,1.72,0,0,1-.6-.6c-3.7-4.8-8.4-7.6-15.2-6.8C642.2,1719.5,645.4,1711.5,647,1701.9Zm-37.4,168.4c1.1-3.4,3.2-5.6,6.8-5.9,10.2-.9,17.8-6.5,24.5-13.6,2.8-3,5.2-6.3,7.9-9.3a100.73,100.73,0,0,1,9.8-9.8,46.68,46.68,0,0,0,9.7-11.1c2.3-3.6,4.8-7.2,7.3-10.7.3-.4,1-.5,1.6-.7,2.5,1.1,3.2,3.4,3.5,5.7,2.4,16.4,6.4,32.4,7.8,49a222.37,222.37,0,0,1-.3,40.8c-.9,10.5-.1,20.9.9,31.3a61,61,0,0,1,.2,11.3c-.8,9.3-2,18.5-2.9,27.7a23.36,23.36,0,0,1-4,11.3c-3.6,5.3-6.4,11-9.6,16.5-.8,1.4-1.9,2.7-2.8,4-.9-.5-1.7-.7-1.8-1.1-2.1-8.1-7.5-15.1-8.2-23.7a8.09,8.09,0,0,0-.8-2.5c-4.2-7.6-6.6-16.1-11.6-23.3a45.26,45.26,0,0,0-4.3-5.5c-5.9-6-11.7-12.1-17.9-17.9a21,21,0,0,0-8.1-4.8c-5.4-1.5-7.5-4.4-7.5-10,0-10.2-.5-20.3-.8-30.5a31.28,31.28,0,0,0-.4-6.1C607.5,1877.5,608.6,1873.9,609.6,1870.3Zm48.6,669.9c-.4,2.4-2.7,2.7-5.6,3.9-1.8-6.7-3.2-12.6-4.9-18.5-1.9-6.4-4-12.7-6-19.1-5-15.8-10.3-31.4-14.9-47.3-2.9-10-4.5-20.4-6.9-30.6-1.4-5.9-2.9-11.8-4.7-17.5-3-9.8-3.1-20.1-5-30.1s-3.9-19.9-5.9-29.9c-.6-3.1-1.7-6.2-2-9.3-1.7-17.1-3.2-34.1-3.2-51.3,0-25-.6-50-.8-75-.2-15.7.1-31.4-.2-47.1-.2-9.3-1.1-18.6-1.4-27.9-.5-14.5-.8-29.1-1.1-43.6a15.07,15.07,0,0,1,.8-3.8c2.8-.3,3.6,1.5,4.4,2.9,5.6,8.5,11.1,17,16.5,25.6a39.65,39.65,0,0,1,2.9,6.3c3,7.3,6,14.5,8.7,21.8,1.6,4.3,2.7,8.9,4.1,13.3a258.28,258.28,0,0,1,8.5,34.7c1,5.7,2.4,11.4,3.9,17,2.8,10.4,4.8,20.9,4.9,31.8.1,15.1,0,30.2-1.6,45.3-2.2,20.3-.9,40.6.5,60.9.8,12.5,1.4,24.9,1.9,37.4.9,19.5,1.4,38.9.7,58.4-.2,5.5.5,11,.8,16.5.1,2,.5,4.1.4,6.1-.5,7.1,1,13.9,2.2,20.7,1.3,8,3,16,4.1,24C660.4,2524.1,659.5,2532.2,658.2,2540.2Zm130.6-594.3c-1.1,7.4-.9,15.1-1.2,22.6-.3,7-.6,13.9-.7,20.9-.2,12.5-.4,25-.2,37.5.1,12.9-1.9,25.5-4.2,38.1-2.1,11.7-4.8,23.3-7.6,34.8-2.3,9.6-5.3,19-7.8,28.5-2.1,7.8-3.7,15.8-5.7,23.6-2.8,10.6-5.8,21.2-8.8,32.1,1.2-.4,2.3-.7,4-1.2-.5,4.3-.7,8.3-1.4,12.3-.5,2.6-1.6,5-.8,7.7a2.48,2.48,0,0,1,0,1.7c-3,6.8-2.7,14.2-3.9,21.3-.3,1.7-.9,3.5-.7,5.2.7,7.1-1.6,13.7-3.7,20.3a14.1,14.1,0,0,0-.5,7.6c1.5,6.7.5,13.3-1,19.8-1.9.2-3.5.5-5.4.7a52.44,52.44,0,0,1-.9,6.1c-.4,1.3-1.2,3.1-2.2,3.4-4.1,1.2-4.5,4-4,7.5a17.26,17.26,0,0,1-.2,3.8c2.2-.3,4.4-.5,6.3-.7,2.2-1.7,2-3.7,1.7-5.8-.3-1.5-.2-2.9,2.1-3.7,1.8,3,.1,6.1.3,9.1.3,3.5-2.9,4.6-5.5,6.6l3.3,2.2c.1.6.4,1.2.2,1.6a46.62,46.62,0,0,0-4.5,16.7c-.7,6.9-1,13.9-1.8,20.8s-.8,13.9-3.7,20.4a7.46,7.46,0,0,0-.4,2.6c-1,21.2-4.9,42-10,62.6-5.2,21.1-10.6,42.3-15.9,63.4a71.57,71.57,0,0,1-2.3,7.5c-2.4,6.4-3.1,6.9-10.9,7.2v.1a38.37,38.37,0,0,1,3.7,4.5c1.3,2.1.4,4.4-1.9,5.9a1.8,1.8,0,0,1-1.6,0,1.68,1.68,0,0,1-1-1.2,23.48,23.48,0,0,1,.1-2.6c.2-2.2.5-4.4.7-6.7l-.1-.1h.1c-1-2.7-2.3-5.4-2.8-8.1-1.7-10-3.4-20-4.6-30.1a198,198,0,0,1-1.6-21.7c-.3-14.8.1-29.7-.4-44.5-.5-18-.9-36.1-2.6-54a379,379,0,0,1-1.4-42.6c.1-5.8.8-11.6,1.3-17.4.6-6.6,1-13.3,1.9-19.9,1.3-9,.8-17.9-.4-26.8a6.52,6.52,0,0,1,.3-3.4c3-6.9,6.2-13.6,9-20.5a19.11,19.11,0,0,0,1.4-6.7,160.88,160.88,0,0,0-2.5-34.7,50.78,50.78,0,0,1,.7-21.6c1.9-7.9,3.1-16,6.9-23.3a44.75,44.75,0,0,1,3.5-6,315,315,0,0,0,18.9-28.2c5.2-8.7,11.4-16.9,16.7-25.5a247,247,0,0,0,22-45.4c2.3-6.3,4.5-12.6,7.1-18.7a58.67,58.67,0,0,0,4-34.1c-.7-4-1.3-8-1.9-11.9-7-8.2-16.1-10.7-26.4-10.7-7,0-13.9-.6-20.7,1.8a2.45,2.45,0,0,1-3.2-2.2,33.91,33.91,0,0,1,0-7.8c.9-9.2,1.8-18.5,3.1-27.7a37,37,0,0,0-.2-9.4,70.57,70.57,0,0,1,.1-13c.4-5.2,1.1-10.4,1.9-15.6a52.87,52.87,0,0,0,.1-17.3c-1.5-9.3.6-17.9,5.3-25.9a7.46,7.46,0,0,1,.9-1.5c8.1-6.8,10.6-17.9,18.7-24.8,7.3-11.1,16-21.4,19.3-34.8,1.6-6.7,5-13,7.8-19.4a29.13,29.13,0,0,0,2.5-12.7c-.2-5.2.4-10.4.4-15.6,0-2.6.3-5.4-.6-7.7a19.15,19.15,0,0,1-.4-14.3c.2-.5-.1-1.1-.1-1.7-1.8-2.7-4.3-.5-6.8-.9a34.62,34.62,0,0,0-4.9-4.2,35.26,35.26,0,0,0-6.5-2.7,165.71,165.71,0,0,1,6.4-17.2,106.38,106.38,0,0,0,6.4-19.8c1.4-6.2,2.7-12.5,4.3-18.7a34.19,34.19,0,0,0-1.5-22.1c-.9-2.2-1.4-4.4.1-6.6,1.1-1.5,2.4-2.6,4.4-2a3.06,3.06,0,0,1,2.2,3.3v2.6a256.31,256.31,0,0,0,1.4,33.9c.5,5.8-.2,11.6.2,17.4.8,11,2,22,2.9,33,.5,6.7.9,13.3,1.2,20,.6,14.5.9,29,1.5,43.6.6,16.3,1.4,32.5,2.1,48.8.2,6.4.2,12.8.3,19.2.2,12.5,1,25,.5,37.4-.8,16.6,1.1,33.1,1.3,49.6A175.78,175.78,0,0,1,788.8,1945.9Z" fill="#8bc53f"/><path d="M1127.6,2520.5c-22-35.8-64.1-54.8-102.5-67.8-49.1-16.7-102.5-19.3-153.4-10.1a334.36,334.36,0,0,0-82.9,26.6c-17,8-32.22,17.91-47.2,28.38,7.42-32.84,16.88-65.2,22.3-98.38,3-18.4,5.3-37,8.6-55.3,3.7-20.2,7.1-35.8,21.7-50.4,11.8-11.8,12.4-26.6,20.3-40.6,10-17.6,27.6-31.2,43-43.8,10.7-8.7,24.2-17.3,30.9-29.7,6.3-11.7,3.7-23.5,4.7-36,2.7-31.5,43.6-53.4,65.1-72,20.4-17.6,34.9-38.4,42.8-64.2,11.8-38.8,2.1-82.8-46.3-80.8-32.4,1.4-58.5,17.1-80.7,39.8-7.9,8.1-14.2,17.7-20.7,26.9-6.2,8.85-16.57,28.43-28.44,33.09-3.56-28.37-5.58-60,9.24-85.49,8.4-14.5,21.8-23.6,34.1-34.4a382.85,382.85,0,0,0,33.4-32.8c30.4-34.2,80.7-104.9,40-149.5-13-14.3-31.6-10.9-48.7-14-31.4-5.6-2.7-55.5,4.6-71.8,9.4-20.9,14.5-41.9,18.8-64.3s8.3-46.5,3.8-69.3c-3.6-18.6-16.8-39.1-36.9-42.1-19-2.8-34.9,12.6-45.5,26.3-15.5,20-26.2,44.3-39.1,66-15.8,26.7-18.5,55.5-18.2,86,.8,73.1,3.2,146.3,3.3,219.5.1,37.7-.3,75.7-3.9,113.3-3.7,38.7-11.8,76.8-18.4,115.1-14,82-13.4,165.3-16.8,248.3-.8,20.1-.7,40.6-5.8,60.1-4.3,16.6-11.3,32.2-18.3,47.8-12.17,27.14-23.5,54.19-24.71,84.21q-4.37,2.64-8.78,5.11c-10.91-55-10.13-112.11-9-167.92,1.2-57.2,6.1-114.3,16.5-170.6,5-27.2,11.2-54.4,17.8-81.3,6.8-27.5,21.4-46.7,38.1-68.9,17.8-23.7,33-61.7,6.7-86.2-11.13-10.35-23.82-11-36.15-6.49,26.51-46.36-1.74-106.21,22.65-152.81,11.6-22.2,35.2-40,37.9-66.4,1.94-19.39-13.59-27.35-28-35.55,12-20.71,21.74-41.46,16.73-66.25-3.7-18.1-13.8-30-32.5-32.4-3.8-.5-8.6.4-12.2-.7-5.8-1.8-4.6-.7-5.4-7.6-1.1-9.1-1.5-18.3-2.8-27.4-2.1-14.1-6-30.8-18.8-39.2-14.7-9.6-35.8-3.9-49.7,4.4-17.5,10.4-28.2,28.9-30.8,48.9-3.3,25.4,6.2,51.8,14.3,75.5,2.57,7.42,5.28,14.77,8.07,22.1a26.25,26.25,0,0,0-7.17-3.9c-.66-.24-1.32-.46-2-.67-2.88-9.37-7.27-18.2-14.5-23.63-12.9-9.78-29.05-.34-37.8,10.83,2.73-24.69-1.07-51.26-25.2-62.13-41.55-18.76-86,14.38-115.37,42.5-6.63-45.73.45-92.86-5.63-138.9-3.6-27.6-11.5-69.7-43.5-78.1-36.4-9.5-65.7,23.7-68.7,57-3.71,41.91,18.79,80.29,22.72,121.21-13.61-10.43-34.37-18.85-49.22-12.91-18.1,7.2-12.7,32.9-9.4,47.5,6,26.5,17,49.6,32.3,72,21.7,31.8,44.3,61.2,62.4,95.3,17.5,32.9,41.6,61.8,58,95.4,19,38.9,25.8,84.9,35.6,126.8,17.68,75.46,33.38,151.44,50.38,227A1392.14,1392.14,0,0,0,450.1,2099.2c-16.7-29.6-34.3-58.1-55.3-84.8-21.3-27.2-44.3-53.6-61.3-83.9-40.1-71.4-26-156.5-36.3-234.5-4-30.4-11.8-76.2-38.6-95.9-18.69-13.69-36.1,7.63-51.66,17.94-10.79-22.34-16.73-47-27.24-69.54-7.1-15.1-20.4-44.4-41.6-41.2-27.7,4.2-29.2,44.9-28,65.6,2.2,37.9,13.9,74.6,24.9,110.6,6.4,20.9,14.1,41.6,27.4,59.2,9.29,12.33,19.9,23.56,30.25,35-4,2.48-7.61,6.42-10.45,12.19-14.51,29.67,7,65.75,7.37,97.25-23.33-17.67-42.08-41.5-69.57-53.35-9.9-4.3-22.1-6.9-30.9,1.3-11.3,10.6-7.6,26.2-2.2,38.7,7.5,17.3,18.6,33.1,30.4,47.8,21.4,26.7,42.1,54.4,68,77.1,2.35,2.06,4.72,4.07,7.12,6.06-7.62-.21-13.24,5.44-15,20.44-2.8,23.6,5.3,49.5,13.4,71.4,8.52,23,29.31,44.22,31.68,69.07-18.7-4.07-52.53-9.29-60.48,10.23-5.2,12.9,6.8,28.5,14.9,37.2,12.8,13.7,30.2,21.5,48.1,26.1,19.7,5.1,40.2,6.4,60.4,8.4,26.3,2.6,49,8,72.2,21.1,21.2,12,43.8,23.1,64,36.5a89.93,89.93,0,0,1,13.91,11.42,1.09,1.09,0,0,0,0,.18,3.68,3.68,0,0,0,4,4c13.52,15.13,22.64,34,31.29,52.45,14,29.8,25,60.9,36.4,91.8,11,29.8,23.1,60.8,20.3,93.1a3.54,3.54,0,0,0,3.33,3.91c-7.09,16.06-38,19.8-51,30.09-21.1,16.7-37.6,40.4-52.5,62.5-30.1,44.5-58.2,95-65.9,148.8-13.5,94.8,18.5,203.6,93.2,266.2,67.1,56.3,157.1,76.6,242.4,84.2,21.7,1.9,43.6,3,65.4,3.5,20.7.4,43.5-2.1,63.2,5.7,20.3,8.1,29.8,27.9,36.3,47.4,10.2,30.6,14.8,61.8-8.2,87.6-18.2,20.4-33.2,38.2-40,65.5-7.1,28.9-6.1,59.2-5.7,88.8.3,22.4-3.2,43.9-5.4,66.1-1.6,16.3-4.8,38.5,6.7,52.2a4.2,4.2,0,0,0,5.8,0c33.5-37.2,19-92.1,23.7-137.3,2.1-20.1,10.7-38.4,20.4-55.9,3.7-6.6,7.3-13.4,11.5-19.6,1.8-2.7,4.7-8,7.6-9.9,9.7-6.4,11.8-.5,15.4,5.9,18.8,32.8,14.9,75.1,15.6,111.4.5,27.5,6.1,53.7,9.7,80.9,1.7,13,1.1,38.8,13.9,47.2,25.4,16.7,8.1-73.2,7.6-76.7-5.6-38.4-8.4-78.8-3.9-117.5.6-5.5-.7-8.3,4.1-10,4.6-1.6,9.9,1.3,13.6,3.6,5.6,3.5,10.2,8.8,14.7,13.7,7.5,8.2,14.3,17.1,23.9,23a4.08,4.08,0,0,0,4.9-.6c11.1-10.2,7.2-22.6-1-33.5-13.3-17.8-28.4-28.8-36.7-50.4-20.3-52.1-11.9-110.2-15.4-164.7-1.9-29-4.8-60.4,9.4-87s38.8-48.3,57.8-71.6c17.9-22,36.5-43.7,50.5-68.4,14.3-25.2,24.2-53.6,34.1-80.8,22.2-60.8,42.1-124.4,52-188.5C1156.7,2630.5,1156.9,2568.2,1127.6,2520.5ZM750.3,2379.4c8-70.2,4.3-141.9,9.4-212.4,5-69.3,24.2-136.6,29.2-205.8,5.1-70.6,2.5-141.6,1.1-212.2-.7-33.3-.7-66.7-1.4-100-.7-34.3,1.4-65,19.8-94.9,13.3-21.6,23.1-46.6,40-65.8,7.5-8.5,18.1-18.3,30.3-18.1,17.1.3,28.7,17.7,32.6,32.6,6.5,24.8.4,52.6-4.7,77.1a306,306,0,0,1-21,64.5c-7.5,16.6-19.2,38.3-14.7,57.2,3.4,14,16.3,16.2,28.8,17.2s26.8.7,36,10.9c15.4,17.1,13.1,45,6.2,65-11.6,33.4-35.7,63.4-60.4,88-20.4,20.2-47.4,35.6-59,63-11.3,26.9-8.9,57.3-5.2,85.4.3,2,1.7,4.4,4.1,4.1,16.5-2.1,27.9-22.5,36.7-34.8,15.6-22,32.5-43.7,57.3-56.1,21.8-10.9,62.9-18.9,77.5,7.1,11.1,19.8,3.7,47-4.3,66.6-11.7,28.4-34,46.4-57.4,65-17.8,14.2-42.1,32.3-45.7,56.6-2.3,15.7,2.7,29.2-9.1,42.7-11.4,13.1-27.5,22.7-40.5,34.3-10.5,9.4-21.2,19.9-28.4,32.1-.59,1-1.1,2-1.59,3l-.25-.06c0,.13.05.26.09.4-2.35,5-3.76,10.15-5.55,15.52-3.8,11.3-9,17-16.9,24.9-10.5,10.5-13.4,23.6-16.4,37.9-4.3,20.1-6.7,40.5-9.9,60.8-6,38.26-17.29,75.47-25.31,113.38-6.58,4.69-13.16,9.43-19.89,14.12-2.5,1.74-5,3.42-7.54,5.07C708.69,2472.48,744.42,2430.53,750.3,2379.4Zm-7-419.2c24.4,8.8,22.5,44,12.8,62.4-12.4,23.4-33.3,40.8-43.8,65.4-11.5,27.2-16.2,59-22.2,87.8-12.3,59.6-18.3,120.4-20,181.3-1.71,60.14-2.69,121.9,9.39,181.17L678,2539c-3.16-16.82-9-33.13-13-49.93-6.5-27.9-9.5-56.5-11.5-85-3.9-54-3.5-108.1-6.7-162.1-3.2-53.2-22.7-98-48.5-144-1.84-3.31-3.71-6.57-5.55-9.81.2-43.3,1.33-86.7,7.55-129.59,1-7,2-14.34,3.15-21.71,9.77-5.17,20.91-6.14,32.15.61,20.7,12.5,31.4,40.5,34.3,63.3.5,3.8,5.3,5.8,7.6,2.1C689.3,1983.7,717.3,1950.8,743.3,1960.2Zm-115.4,597c-.21-1.09-.44-2.17-.67-3.25,1.08,1.5,2.22,3,3.41,4.36-.94.29-1.87.59-2.82.87A4.21,4.21,0,0,0,627.9,2557.2ZM575,1740c-.71-15.59-2.88-36.54.68-54.51,13.83-4.92,32.58-11.12,47.57-8.58,5,16.78,7.07,38.34,7.35,53.31a250.41,250.41,0,0,1-23.7,33.28c-9.47,11.33-19.8,22-29.92,32.77C576.5,1777.49,575.94,1758.71,575,1740Zm12.7,56.9c15.06-16.09,30.4-32.42,42.39-50.9a4,4,0,0,0,3.91,3.7c11.12.76,25.47-3.65,35.24,2A336.59,336.59,0,0,1,681.38,1803a87,87,0,0,1-5.78,17.33c-13.9,30-46.2,38.3-63.7,64.5-8.85,13.27-13.69,29.62-16.72,46.51a55.88,55.88,0,0,0-14.81,13.19c-.66-34.07-1.35-68.14-2.27-102.2q-.45-17.1-.83-34.22C580.73,1804.32,584.23,1800.6,587.7,1796.9Zm98.7,181a147.56,147.56,0,0,0-10.25,12.33c-6.73-30.44-26.94-69.93-61.65-65.56a50.07,50.07,0,0,0-9.25,2c2.15-10.9,5.11-21.6,9.85-31.13,7.7-15.3,21.8-24.7,35.5-34.2a97.13,97.13,0,0,0,33.3-39.66C689.68,1873.18,686.56,1925.37,686.4,1977.93Zm-101.63,95.82c-.59-1.12-1.17-2.24-1.74-3.37-.94-36.94-1.66-73.9-2.37-110.86a71.17,71.17,0,0,1,12.53-15.31c-1.7,12.9-2.68,25.73-3.89,37.39C586.13,2012.25,585.1,2043,584.77,2073.75ZM574.35,2050a106.61,106.61,0,0,1-3.45-12.93c-4-20.06-4-41.76,2.29-61.27Q573.84,2012.93,574.35,2050Zm-1.51-94c-9.69,18.15-13.43,40.88-12.74,59.16.74,20.36,6.55,38.94,14.56,56.76.93,66.83,1.75,133.65,2.94,200.44.9,48.8,6.8,95.8,19,143.1,6.5,25.1,14,49.9,21.7,74.6,5.55,17.81,18.56,41.92,17.52,61.83a78,78,0,0,1-9.05-14.25,3.36,3.36,0,0,0,0-.78c-1.75-23.63-11.67-45.36-22.45-66.25q-2.9-7.82-5.76-15.65c-2.87-9.73-5.84-19.42-9.19-29q-7.49-21.27-15.39-42.41-5.76-18.06-11-36.29c-10.9-38.3-18-77.3-26.7-116.2-8.2-36.2-17-72.3-23.9-108.8-14.2-75.3-21-154.9,12.4-226.3,8.4-18,14.7-37.3,25.4-54.1a207.46,207.46,0,0,1,19.36-25.26Q571.65,1886.31,572.84,1956ZM637.9,2523.1c-6.2-17.6-11.9-35.3-17.3-53.1-12-39.3-23.7-79.2-29.5-120-6-41.9-5.8-84.3-5.5-126.5.3-41.6-.6-83.1-1.8-124.6-.09-3-.16-5.9-.24-8.85l1.07,2q0,14.57,0,29.13c0,5.2,8.1,5.3,8.1,0v-14.48c8.84,15.7,17.95,31.34,25.2,47.68,27.5,62,20.8,131,24.3,197.2,1.7,33.4,3.3,66.9,7.8,100.1,2.5,18,5.7,35.9,10.6,53.4,3.55,12.69,7.5,25.07,9.67,37.78q-13,6.21-26.51,11.06C644.57,2543.46,641.43,2533.22,637.9,2523.1Zm-12.1-943.6c3.1-24.7,19.5-44.9,44.4-50.4,43.4-9.5,39.2,47.1,43.1,74.8.2,1.7,2.3,3,3.9,3,19.6-.3,37.4.5,43.9,22.4,7.5,25.2-4.5,47.2-16.9,68.2a4.19,4.19,0,0,0,1.5,5.6c8,4.7,20.2,9,25.2,17.2,7.9,12.9-2.7,30.2-10,41-12.4,18.3-27.4,33.7-31.9,56.2-8.6,42.4,7.3,94.5-16.1,133a3.77,3.77,0,0,0,1.28,5.3A94.37,94.37,0,0,0,694.37,1970c.57-52.59,4.25-105.57-2.77-157.92-.45-3.35-1-6.68-1.54-10a77.33,77.33,0,0,0,.44-25.6c-1.66-10.9-6-24.68-15.53-31.48-10.07-29.66-22.52-58.57-33.07-88.22C633.4,1633,622.6,1605.2,625.8,1579.5Zm39.83,161.6c-8.57-1.69-18.27.29-27.07.49.34-3.75.52-7.54.56-11.34q2.67-5.34,4.88-11a70.49,70.49,0,0,0,5.07-21.55C654.75,1712.14,660.44,1726.52,665.63,1741.1Zm-27.1-27c-.54-6.81-1.39-13.57-2.43-20.17-.64-4.08-1.38-8.61-2.37-13.25C644.58,1687.32,643.9,1700.23,638.53,1714.07Zm-50.73-54c15.62-16,26-7.79,32.68,8.77-13.89-1-29,2.9-42.27,7.26A43,43,0,0,1,587.8,1660.1ZM474.2,1993.3c-8.6-35.6-15.3-72.7-32.2-105.4-15.4-30-36.6-56.5-53-85.9a814.74,814.74,0,0,0-55.7-86.8c-18.8-25.9-33.7-51.8-40.8-83.2-3.1-13.9-8.7-37.8,11.9-38.8,13.9-.6,31.5,9,40.7,18.9,2.4,2.6,7,.6,7-2.9-.6-34.7-16.1-67.2-21.7-101.1-3.3-19.8-3.6-42.3,8.5-59.4,12.9-18.3,42.6-28.3,61.1-12.7,23.4,19.7,25.2,61.3,27.2,89.4,3,40.7-2.7,82.1,4.6,122.4.6,3.1,4.8,3.8,6.8,1.8,26.8-26.7,67.6-61.6,108.7-47.6,32.2,11,25.6,54.9,18.6,80.2a4.27,4.27,0,0,0,1.65,4.46c-2.57,15.88-1.46,33.17-.85,47.44q1.41,35.28,2.5,70.59a263.06,263.06,0,0,0-24.5,30.61c-10.5,15.9-16.4,34-24.4,51.2-6.6,14.4-13,28.4-17.4,43.6-19.1,66.6-9.5,138.1,3.7,204.9,6.9,34.5,15.3,68.7,22.9,103.1,4.58,20.52,8.73,41.08,13.28,61.55-15.08-61.23-27.19-123.27-40.78-184.75C493,2074.3,483.9,2033.7,474.2,1993.3ZM443,2103.1c36.29,64.26,66.45,131.45,92.43,200.5,5.72,24.15,11.85,48.39,19.23,72.18-14.45-28.59-30.45-56.4-44.56-85.28-23.1-47.2-43.6-95.6-64.3-143.8-10.6-24.7-21.6-49.2-31.4-74.2-8.1-20.4-17.1-39.3-30.1-57q-5.93-8.07-11.78-16.21c5,6.2,10,12.39,14.88,18.61C408.5,2044.8,426.2,2073.3,443,2103.1ZM157.2,1718.5c-10.7-21.2-16.2-44.5-23-67-9.7-32.1-19-67.2-15.8-101,1.2-12.7,8.5-40.7,26.8-34.9,12.4,3.9,20.1,21.7,25.3,32.2,12.3,25.1,18.5,52.9,31.2,77.7a4.17,4.17,0,0,0,5.6,1.5c9.9-5.3,17.5-13.1,26.8-19.1,18.8-12.1,30.4,9.2,37.8,24.6,16.3,33.8,19.2,73.2,21,110.1,3.29,66.63,1.43,135,35.05,194.46q-9.51-13-19.28-25.82c-12.56-39.21-28-78.15-55.07-109.74-11.17-13-34.17-29.75-52.38-26.91C185.4,1756.87,168,1740,157.2,1718.5Zm136.59,173.81c-15.67-19.46-32-38.53-47.19-58.31-13.21-17.16-25-35.2-38.75-51.75,24.29-.52,45,29.41,56.15,46.85C276.65,1848.79,285.93,1870.31,293.79,1892.31ZM134.4,1929.6c-14.1-17.6-28.5-34.9-38.3-55.4-7.4-15.4-9.5-42.2,15.3-35,32.2,9.4,53.2,40.8,79.9,59.1,2.8,1.9,5.8-.7,6.1-3.5,2.61-22.58-27.15-97.39,1.1-110.55,5,5.66,9.86,11.42,14.4,17.45,16,21.2,31,42.8,47.8,63.4,13.75,16.82,27.78,33.47,41,50.7,16.07,49.38,30.66,99,49.59,147.5,10.6,27.3,24.1,53,35.6,79.9,4.94,11.61,7.51,23.91,10.31,36.11q-3.76-5.32-7.71-10.51c-33.6-44.1-74-87.7-119.9-119-25.2-17.1-51-33.4-74.2-53.2S153.4,1953.4,134.4,1929.6Zm126.3,124c28.3,19.1,52.6,41.6,75.7,66.6,25.29,27.39,50.88,56.59,69.75,88.86a84.19,84.19,0,0,0,4,8,4,4,0,0,0,1.34,1.44c12.5,23.48,21.2,48.58,23.57,75.75-23.17-45.83-52.21-88.3-84.61-128.19-26.7-32.9-58.2-61.6-84.3-94.8-3.73-4.73-14-18.19-26.38-31.78C246.7,2044.24,253.71,2048.91,260.7,2053.6Zm119.2,218.8c-19.5-11.7-39.1-23.7-61.6-28.4-38-8-79.7-3.2-115.2-21.4-11.2-5.7-50.7-39-26.5-49.4,14.3-6.1,34.7-1.8,49.2,1.6a4.18,4.18,0,0,0,5.2-3.9c.2-18.2-9.4-33.9-18.4-49.1a207.9,207.9,0,0,1-23-57.5c-2.4-10-11.5-43.1.6-51.1,7.9-5.2,20.7,7.8,25.7,12.5,18.1,16.7,32.9,36.8,48.1,56,23.2,29.2,51.2,54.6,75.1,83.4,34.61,41.76,65.5,86.61,89.85,135.15C413.59,2289.47,395.91,2282,379.9,2272.4Zm119.8,148.8c-13.55-35.5-28.08-80.3-56-108.53.76-39.3-12-76.61-31.58-110.19-7.84-19.92-9.07-42.05-17.54-61.88-10.6-24.8-23.2-48.5-33.2-73.6-17-43.18-31.23-87.08-45.08-131.35,15.48,21.9,30.71,43.95,46.78,65.45,17.2,23,31.8,44.7,42.4,71.5,19.8,49.9,41.7,99.1,63.3,148.2,13,29.6,26.5,59,41,87.8,13.7,27.3,29.8,53.3,43,80.9,12.8,26.8,22.4,55,34.6,82.1,12.9,28.7,26.7,57.2,32.7,88.2a3.47,3.47,0,0,0,.63,1.4,342.08,342.08,0,0,1-86.62,11.5,26.35,26.35,0,0,0,6.89-15.8c0-2.8-2.56-4.06-4.88-3.76C538.05,2508.09,515.4,2462.23,499.7,2421.2ZM367.4,2837.4c1.3-66.7,32-126.7,69.1-180.8,17.6-25.8,38.4-57.6,68.8-69,8.84-3.31,18-6.21,24.81-11.34a3.89,3.89,0,0,0,3.89,4.64c36.09-.34,71.58-5.2,105.35-16.35a5,5,0,0,0,.85-.28,282.34,282.34,0,0,0,31.24-12.53,95.39,95.39,0,0,1,.36,13.56c-.1,5.3,8.1,5.3,8.3.1a103.69,103.69,0,0,0-.71-17.58c.64-.34,1.29-.67,1.94-1,.06.26.11.52.17.78,1.2,5.1,9,2.9,7.9-2.2-.2-.89-.39-1.78-.59-2.67q5.51-3.14,10.79-6.55a4,4,0,0,0,3.93-2.56c8.87-5.88,17.42-12.17,26-18.44-.11.57-.23,1.14-.34,1.72-1,5.1,6.9,7.3,7.9,2.2.69-3.68,1.44-7.34,2.21-11,4.66-3.34,9.37-6.63,14.19-9.8a320.84,320.84,0,0,1,76-36.6c55.8-18.3,116.7-21.9,173.8-7.1,47,12.2,101.2,35,123.3,81.1q1.07,2.22,2.05,4.47a3.83,3.83,0,0,0-2.05,1.73c-19.5,31.2-51.3,48.1-77.4,72.6-22.1,20.7-37.4,53-67.4,63.4-28.2,9.8-59,4-88.1,8-30.3,4.1-52,23.7-79.7,34.1-23.1,8.7-50.4,4.1-74.5,9.5-27,6.1-56.1,17.9-74.1,39.9a103,103,0,0,0-16.9,30.6c-2.5,7-3.1,17.1-7.2,23.3-4.8,7.3-14,5.9-21.7,5.1-16.6-1.7-32.5-6.4-49.3-6.9-74.45-2.58-146.72,40.56-194.92,94.79A324.27,324.27,0,0,1,367.4,2837.4Zm761.5-98.7c-16.2,65.5-36.7,131.4-64.6,192.9-25.4,55.9-73.4,95.3-108.6,144.2-31.7,44.2-17.6,100-17.7,150.6s-2.2,116,35.6,155.4c7.2,7.5,18.1,15.9,21.7,26,.7,2,2.9,9.4.5,11.6-2.6,2.2-4.9-1.4-7.5-3.9-3.4-3.3-6.5-7-9.6-10.5-12-13.6-26-29.3-45.8-22a4.41,4.41,0,0,0-3,3.9c-3,30.6-3.9,61.3-1.5,92,2,26.5,8.2,52.1,11.1,78.4a99.38,99.38,0,0,1,.3,20.4c-1.4,15.1-6.2,3.5-8.1-4.8-4-17.8-4.6-36.2-8-54.1-6.1-31.7-5.2-62.6-6.4-94.7-.9-25.5-4.1-53.5-17.2-76-23.5-40.3-56.5,40.4-62.6,57.1-17.56,48.52,8.93,113.23-24.56,155.94-8.08-15.18-2-41.71-.14-56.74,2.5-20.2,4-39.2,3.7-59.6-.4-28-.9-56.7,6.8-83.9,7.8-27.5,26-42.5,42.5-64,25.4-33.1,12-87.9-10.1-119.9-20.6-29.7-56.5-27.2-88.7-27.7-89.8-1.5-185.4-12-264.9-57-64.91-36.73-106.71-98.07-124.67-167.56a3.57,3.57,0,0,0,2.67-1.34c48-54.5,122.1-99.5,197.3-93.2,17.4,1.5,48.6,14.9,65.3,3.8,10.6-7.1,10.9-25,15.3-35.8,13.8-33.7,45.3-51.1,79.2-59.7,25.6-6.4,54.3-1.5,79-10.6,28.4-10.5,50.7-31,82-34.4,28.4-3.1,58.2,1.8,85.7-7.7,30.5-10.5,45.4-40.3,67.2-61.9,26.74-26.35,60-43.66,81-75.52C1155.21,2608.59,1143.93,2677.92,1128.9,2738.7Z" fill="#231f20"/><path d="M208.5,2158.8c-37.7,0-37.7,58.5,0,58.5s37.8-58.5,0-58.5" fill="#8bc53f"/><path d="M3795.21,785.75v-.26A110.74,110.74,0,0,0,3785,746.37l-.28-.59c-3.91-8.06-7.91-15.46-11.79-22.62-3.17-5.86-6.16-11.4-8.78-16.71l-.16-.34q-2.11-4.2-4.24-8.4c-5.87-11.56-11.41-22.48-14.94-32.56-7.08-20.2-13.76-38.2-20.43-55a141.52,141.52,0,0,0-16-29c-10.69-15.46-23.86-33.48-40.44-49.95-12.23-12.21-24.89-20.83-35.65-27.65l-.31-.19c-1.8-1.12-4.24-2.87-6.82-4.73l-3.94-2.81h0a89.19,89.19,0,0,0-10.91-7.64c-28.15-16.93-55.87-26.81-84.77-30.21a23.26,23.26,0,0,1-4.48-.91,118,118,0,0,0-63.93-4.41l-.31.06c-5.33,1.09-12.74,1.52-20.59,2l-4.84.28h-.16c-30.66,2-59.24,9.11-84.85,21.2-15.48,7.28-30,15.11-43.94,22.69l-3.36,1.82q-8.61,4.65-17.2,9.36c4.79-90.76-34.17-183.21-109.54-236.65-70.8-50.2-161.1-66.8-243.6-37.5-37.8,13.5-73.4,40.4-94.8,74.4A255.61,255.61,0,0,0,2810,360c-13.1,12.9-19.3,28.8-23.8,47.2-9.3,37.9-10.8,77.6-10.7,117.1-3.3,39.2-5.2,78.6-6.5,117.9-1.6,47.8-5.2,96.7-1.4,144.4,7.3,92,66.3,171.2,111.6,248.2a56.91,56.91,0,0,0,6.2,8.4,20.19,20.19,0,0,0,1.6,13.6c5,9.9,10.4,20.7,13.7,31.8l-.2.2c-9,9.7-9.8,21.9-10.9,34.4-1.3,14.8-8.8,27.4-14.3,41-6.1,14.9-9,29.3-7.9,45.3,1.7,24.6,37.3,27.1,46.3,6.2,12.6-29.1,31.1-60.2,37.5-91.4.1-.4.1-.8.2-1.2a53.24,53.24,0,0,0,22.3-16.4c.4.6.9,1.3,1.3,1.9,23.7,37.3,57.7,9.3,79.6-20.4,17.7-7,32.2-20.2,42.1-37.5,11.83-7,21.89-15.89,29.26-26.73a290.42,290.42,0,0,0,12.71,27.41c1.11,2.16,3.31,6.44,3.83,8a197.12,197.12,0,0,0,10.34,33.54l22.41,54.64,37.57-13.84,82.6,10.33a62,62,0,0,0,41.42-6.51c4.7-2.53,9.2-5,13.55-7.47l6.63-3.69c6.3-3.48,12.68-6.89,19.41-10.48l10.21-3.05c17.28-5.16,35.14-10.5,52.59-15.52,14.69-4.22,29.32-8.22,43.08-12,3-.8,6.46-1.6,10.15-2.45s7.95-1.82,12.34-3l.72-.2c4.27-1.16,8-2.44,11.29-3.63,9.18.59,17.89,1.19,26,2.16l.23,0a107.11,107.11,0,0,0,51.62-6.46l.19-.08,1-.39c20.29-4.21,37.33-12,50.1-18.43l.2-.1a174.4,174.4,0,0,0,25.32-15.37l.58-.44a238.91,238.91,0,0,0,60.24-67.16l.13-.21c3.85-6.47,7.48-12.59,11-17.5l.19-.27c9.92-14,18.83-29.76,28.09-49.57a216.5,216.5,0,0,0,8.08-20.54c1.14-3.26,2.22-6.34,3.13-8.47l.11-.26c6.43-15.25,10.24-31.89,11.64-50.79A259.76,259.76,0,0,0,3795.21,785.75Z" fill="#37b34a"/><path d="M3056.9,863.7a167,167,0,0,0-33.7,14.2c-2.4-14.1.8-31.2,1.6-43.6,1.2-17.9,3-35.9,7-53.5,5.6-24.9,16.5-48.5,34.1-66.5a213.82,213.82,0,0,0,16.4-13.8c12.9-12-1.9-32.2-16.8-22a130.57,130.57,0,0,0-18.4,15.4c-5.5,4.1-11.1,7.9-16.9,11.5a587.4,587.4,0,0,1,107.3-249.2c10.7-14.3-10.5-30.7-21.8-17q-34.2,41.25-68.2,82.4c-4,4.9-8.3,9.7-12.6,14.7,2-40.9,2.3-82,.6-123-.7-17.1-23.9-13.6-27.4,0-4.24,16.59-8.4,33.23-12.14,49.92-.08-.77-.16-1.55-.26-2.32a16.29,16.29,0,0,0-1.8-4.6c-.1-.3-.8-.3-1.4-.5a13.89,13.89,0,0,0-1.8,3.1c-.6,2-.6,4.3-1.2,6.3-7,21.5-7.9,43.8-9.3,66a264.42,264.42,0,0,1-2.8,26.8c-3.62,21.57-2.25,43.14-1.26,64.71a16,16,0,0,0-1.64,5.09l-5.6,38c-1.1,7-.4,26.2-4.7,31.6.7,2.8-.3,3.7-2.9,2.7a41.5,41.5,0,0,1-7.9-.8,70.21,70.21,0,0,1-14.2-4.2,69.33,69.33,0,0,1-26.1-19c-10.1-11.6-30.1-1.3-23.8,13.7a355.89,355.89,0,0,0,80,116.6,8.74,8.74,0,0,1,1,.8c.6,1.6,1.2,3.2,1.9,4.9,3.5,9.8,6,20.1-5.6,24-6.5,2.2-13.4,2.2-20.1,3.5-23.2,4.5-53.7,29.5-32.1,54,5.5,6.2,11.4,9.4,17.6,10.5a174.6,174.6,0,0,0,2.4,20.4c3,17.5,7.2,34.6,9.3,52.3,3.4,28.7,3,57.5,0,86.2-6.3,29.7-14.6,59.1-26.1,88-4.3,11-8.8,21.8-13.3,32.7a10.62,10.62,0,0,0-7.9,5.3c-6,10-12,20.1-18,30.1-9.1,14.4-18.8,28.3-29.1,41.9a13,13,0,0,0-2.7,10c-6,9.41-11.56,19.54-12.21,29.74a20.32,20.32,0,0,0-4.59,10.46c-2.9,19.8-12.5,38.2-17.1,57.8s-6,39.7-7.4,59.7c-1.3,17.2,18.4,31.2,33.1,19.3,12-9.7,16.4-22.3,21.7-36.4,6.3-16.9,13-33.7,20.4-50.1,13-28.8,43.4-47.1,39.2-82a20.61,20.61,0,0,0-3.08-8.86q2.74-7.28,5.48-14.54c24.1-44.8,69.3-78.6,85.7-128.3a19.44,19.44,0,0,0,.8-4.5,11.9,11.9,0,0,0,3.6-8.3A583.28,583.28,0,0,1,3075,881.9C3081,870.1,3067.3,860.6,3056.9,863.7Zm-72-247.72c.09.14.17.29.26.42l-.36.06C2984.88,616.3,2984.91,616.14,2984.94,616ZM2963.7,927.9c1.26,2.06,2.46,4.18,3.61,6.32a13.2,13.2,0,0,0-2.61,2c-.7-3.34-1.41-6.7-2.07-10.05C2963,926.74,2963.34,927.33,2963.7,927.9Zm18.4-65.4c-.39.56-.79,1.09-1.19,1.63a15.4,15.4,0,0,0-2.51-3.13,49.71,49.71,0,0,0,7.09-3.3C2984.33,859.28,2983.2,860.89,2982.1,862.5ZM3039,575c-3,7.3-5.9,14.7-8.6,22.2A61.36,61.36,0,0,1,3039,575Zm560.8,169.9c-56.3,27.8-104.8,79.2-168,89.8,5.1-12,15.8-23.1,22.2-33.1a296.22,296.22,0,0,0,47-136.3c1.5-14.9-22-22.8-26.4-7.3-6.8,24.4-18.7,46-34.1,66.1-7.8,10.2-16.2,19.9-24.9,29.3-4,4.3-8.1,8.6-12.2,12.9a17.11,17.11,0,0,1-2,1.8c-1.1-6-1.8-12.2-3-17.4-2.7-11.4-5.6-22.7-8.8-34a747.48,747.48,0,0,0-24.2-71.8c-5.7-14.3-30.2-8.2-26.5,7.2a509,509,0,0,1,13.5,88c-4.7,1.5-8.5,5.1-8.7,10.9q-1.65,52.65-2.2,105.5c-.3,4.2-.7,8.3-1.4,12.4-1.4,8.6.3,7.8-5.7,4.1-4-2.5-7.6-7.7-10.6-11.2-27.3-31.9-42-71.9-56.5-110.7-6.3-17-30.5-6-25.5,10.7,10.7,36.1,20.7,72.5,29.6,109.1q6.75,27.45,12.8,55.2c.6,2.8,5.4,19.5,7.6,31.5q-42-42.3-81.1-87.4c-10.8-12.4-28.2-1.1-23.8,13.7,15.6,52.7,35,109.6,29.8,165.3a248.32,248.32,0,0,1-6.69,38c-8.89-12.76-30.83-16.5-40.81-.75-8.8,2.5-16.9,11-17.4,20.1-1,17.4-2.4,33.1-10.7,48.8-7,13.3-14.7,25.9-20.5,40-12.1,29.4-20.4,60.1-36.3,87.9-3.78,6.57-2.55,14.69,1.28,21.24-6.77,9.8-13.4,19.69-19.78,29.76-13.1,20.7-27.7,42.7-36.1,65.8-5.3,14.6-6,32.8,8.3,42.4,7.7,5,17,3,21.2-5.5,15.4-31.3,32.1-59.1,56.4-84.5,22.8-23.9,45.8-47.4,66.9-72.8,17.7-21.4,37.2-44.4,53.7-69.1,15.7-13.6,22.1-33.2,28.9-53.8,9.8-29.7,27.6-53.7,52.5-72.5,27.2-20.5,59.6-33,92.2-42.2,31.2-8.8,63.4-13.8,92.7-28.2,14.1-7,8.6-28-7.2-26.5q-60.75,5.7-121.8,8.9c4.4-25.6,29.9-42.7,49.6-57.9,22-17,42.2-35.8,61.9-55.3,40.8-40.5,79.6-83.4,128.5-114.4C3626.8,760.2,3613.7,738,3599.8,744.9Zm-489.12,571.62q.65-.13,1.26-.3c-1.28,1.32-2.56,2.64-3.84,4ZM3231.1,937.3c-.4-1.6-.9-3.2-1.3-4.8.7.8,1.5,1.7,2.3,2.5A6,6,0,0,0,3231.1,937.3Zm75.4-39.9c0,.3-.1.7-.1,1-.7-2.9-1.4-5.7-2.1-8.6-.8-3.2-1.6-6.5-2.3-9.7a110.21,110.21,0,0,0,8.6,9.4A14.76,14.76,0,0,0,3306.5,897.4Zm70,126.2c-3.8,1.3-7.7,2.7-11.5,4.2a11.63,11.63,0,0,0,2.1-3.7C3370.2,1023.9,3373.4,1023.7,3376.5,1023.6Zm4.1-223.2c.1-2.1.2-4.2.3-6.5a23,23,0,0,0,2.6,4A34.67,34.67,0,0,0,3380.6,800.4Z" fill="#8bc53f"/><path d="M2945.8,1228.6c-18.7,34.1-35.7,69.2-57,101.8-11.4,17.4-23.6,33.6-31.5,53a209.32,209.32,0,0,0-11.12,37.59,5.48,5.48,0,0,1,4.72,5.81c-1,14.5-12.6,34.7-29.6,33.5-16.5-1.2-18.7-18.9-17.5-31.8,2.8-30.5,8.8-62.1,13.7-92.4,5.7-35.6,18.4-67.6,32.8-100.5,14.7-33.7,25.3-68.8,33-104.8,8.6-40.9-3.3-75.8-22-112-29.5-57.2-79.2-108.8-92-173.4-6.1-30.7-4.4-62.3-4.3-93.4.1-40.8-3.1-81.5-3.6-122.3-.8-71.6-1.3-150.8,20.3-219.7,10.3-32.8,28.7-62.4,44.2-92.8,11.5-22.7,23.8-44.9,43.9-61.2,44.6-36.2,110.4-44.5,165.5-35.8,67.5,10.7,123.2,44.9,163.7,99.5,20.6,27.8,39.1,57.8,56.3,87.9,16.3,28.6,30.1,60.2,23.4,93.7-1.3,6.8-12.1,5.4-10.7-1.4,6.6-33.2-8.7-64.2-25-92.2-13.4-22.9-27.6-45.7-42.6-67.5-34.1-49.6-76.4-85.1-134.7-102.1-57.5-16.8-125.3-14.4-177.3,18-21.1,13.1-35,32.2-46.6,53.8-14.7,27.4-30.5,55.2-42.5,83.9-25.3,60.5-26.1,134.2-27.1,198.9-.9,60.8,3.7,121.5,3.4,182.4-.2,31.7.2,63.9,11.7,93.9,11,28.6,28,54.6,44.5,80.3,27.6,42.9,65.2,94.3,66.4,147.4.6,28.2-9.1,55.8-15.9,82.8a314.17,314.17,0,0,1-13.52,40.16q4-6.9,8.12-13.76c22.3-37.1,48.6-72.9,64.3-113.6,8.4-21.7,13.1-44.8,11.4-68.1-1.6-20.9-9.3-40.4-14.7-60.4-6-22.2-11-44.9-23.9-64.4-5.9-8.9-15.8-18.2-17.6-29.4-3.2-20.2,19.6-24.9,35-24.8,16.1.1,49.9.6,31.5-25.2-7.2-10.1-16.7-18.3-24.2-28.1-24.4-31.8-70.5-88.5-49.8-131.2,1.6-3.4,6.9-4.8,9.3-1.2,11.89,18.4,36.39,33.59,58.58,38,10.54-56.33,1.88-114.67,16.22-170.48a1562.27,1562.27,0,0,0,33.66-167.47q.42-3.67,1-7.33c.24-1.73.49-3.46.72-5.2l.22,0c1.46-6.72,11.58-5.41,10.68,1.47s-1.89,13.65-2.89,20.45c-2.17,32.53,4.44,65.71,6.09,98.15,1.1,20.9,2.3,42,1.3,63-1.07,23.52-6.14,46.56-4,70,14.33-11,22.12-31.21,29.68-46.68,7.4-15.1,15.3-29.9,23.9-44.3,17.8-29.7,40.3-62.2,73.9-75.1a5.49,5.49,0,0,1,7.1,7.1c-9.3,24.3-27.5,44-40,66.7-13,23.6-27.9,46.4-40.3,70.2-20.6,39.45-38.37,85.55-39.23,130.91,16.32-14.13,36.12-27.83,57.73-26.81,2.7.1,5.3,3.4,4.6,6.1-3.2,12.4-11.9,20.7-21.2,29.1-15.5,14.1-27.5,25.1-34.4,45.4-11.79,34.73-23.06,75.49-18.68,112.93,15.65-10.25,34-19.3,52.58-16a5.4,5.4,0,0,1,4.6,6.1c-2.5,17.7-12.9,31-20.5,46.7-9.4,19.4-14.1,40.5-18.8,61.4-10.3,45.5-17,91.6-23.1,137.8-.6,6.8-11.3,5.4-10.4-1.5,6.1-46.2,12.8-92.3,23.1-137.8,3.9-17.2,7.7-34.7,13.9-51.2,6.73-17.64,19.74-33,24.3-51.25-16.74-.34-33.09,10.2-46.2,19.45a5.44,5.44,0,0,1-8.6-3.6c-6.8-36.6,2.6-75.8,13-110.8,4.6-15.7,8.9-31.7,19.7-44.3,10.44-12.19,29.8-22.54,37.64-37.32-19.31,2.8-37.59,19.45-51,31.92-2.9,2.7-8.5.3-8.6-3.6-2.1-47,14.2-94.8,34.3-136.6,12.3-25.6,28.3-49.2,41.9-74.1,11.2-20.42,26.93-39.55,37.73-60.3-31.69,18.92-52.63,57.06-69.13,88.2-13.5,25.4-24.1,61.5-51.5,75.4-3.2,1.6-6.9-1-7.4-4.3-3.7-21.9-.4-42.8,1.7-64.7,2.7-27.8,1.2-55.8-.5-83.6-.81-13.36-2.37-26.83-3.71-40.33-6.28,34.87-13.81,69.46-23.09,103.93-15.8,58.7-5.8,120.1-18.3,179.3a5.48,5.48,0,0,1-6.1,4.6c-22.76-2.8-48.88-16.63-64.7-34.86-8.31,37.65,32.86,87.58,53.7,114,12.1,15.4,54.2,53.9,15.2,66.3-16.3,5.2-72.8-6.7-50.5,26.9,15.1,22.7,24.3,43.3,31.5,69.9,7.8,29.1,19,57,18,87.6-.9,28.7-10.5,56.2-23.3,81.6-33.4,66.7-81.2,124.4-105.1,196a4.53,4.53,0,0,1-2.91,3.08c-4.7,22.29-7.26,44.92-10.29,67.92-1.6,11.8-4.4,23.4-6.3,35.2-.6,4-3.1,14.1-1.3,17.7,5.94,11.49,12.11,10.27,16.95,5.06a5.54,5.54,0,0,1,0-2c5.7-39.6,17.5-74.1,40.4-107.1,29-41.8,49.8-88.2,75.4-132,21.7-37.1,48.2-67.6,79-97.5,15.6-15.1,30.4-30.7,45.2-46.7,10.2-11.1,20.9-20.6,35.9-23.8,6.8-1.5,8.2,9.3,1.5,10.7-19.4,4.1-31.1,23-43.8,36.5-12,12.9-25,24.8-37.6,37.1C2993.9,1153.2,2968.2,1187.8,2945.8,1228.6Zm823.7-320.8c-16.1,42.4-34.8,88-67.8,120.3-15.1,14.7-31.7,30.4-50,40.9-21.6,12.5-45.8,13-70.2,13.1-59.8.2-117.6,21.4-173.8,40.1-25.6,8.5-50.4,16-76.5,22.5-16.3,4.1-33.6,8.9-46.8,19.7-9.11,7.42-16.23,17.13-23.1,26.75a5.6,5.6,0,0,1-.6,1.75c-22.1,42.3-63.4,68.6-95,103.1-35.5,38.7-62.5,82-93.1,124.3-12.7,17.5-44.3,51.7-51.6,11.4-3.3-18,.9-34.5,10.5-49.8,15.5-24.6,32.3-46.8,44.8-73.4,22.3-47.3,38.3-98.4,55-147.9,9.1-26.8,14.7-53.8,12.2-82.3-2.4-27.2-10.1-54.3-16.9-80.8-12.1-47.1-24.7-94.2-25.1-143.1-.4-54.3,4.4-108.5,16.4-161.5,10.1-44.5,44.6-74,74.2-106.9a358.74,358.74,0,0,1,96.7-75.6c76.6-41.4,174.1-76.3,260.3-43.7,43.5,16.4,79.7,50,116.2,77.9,15,11.4,29.5,24,40.3,39.6,13.4,19.3,20,42.3,30.4,63.2,21.7,43.3,46.4,82.5,52.3,131.6C3793.6,823.3,3785.2,866.4,3769.5,907.8Zm5.5-144.6c-9.4-47-37.5-85.2-56.7-128.2-8.9-19.8-15.7-39.3-30.4-55.8s-33.1-28.6-50.4-41.9c-36.1-28-73.7-61.3-120.7-67.5-22.4-3-46.2-5.2-68.8-3.8-24.8,1.5-47.7,10-70.6,18.8-40.6,15.6-80.2,30.5-116.4,55.3s-62.1,57.4-92.1,88.6c-17.2,17.9-32.2,34.5-38.7,59.2a533,533,0,0,0-12.3,64.1c-6.4,50.2-9,103.6-1.2,153.7,6.6,42.6,19.8,83.8,29.3,125.8,10,44.1,11.3,83.4-2.6,126.7-15.67,49-32.42,99.53-53.47,146.39,5.84-8.43,10.17-18.8,13.87-26.19,6.6-13.3,12.6-26.8,20-39.7,12.9-22.4,25.7-45,36-68.8,10-23.2,17.2-47.2,27.7-70.3,10.7-23.5,19.8-47.4,18.6-73.8-1-21-6.8-41.6-12.1-61.8-9.8-37.2-21.4-77-5.6-114.1,1.9-4.4,8-4.1,10,0,10.1,21,32.5,38.4,48,55.8,8.5,9.6,18.2,18.2,25.6,28.7,5.07,7.18,8.59,14.39,13.68,20.74-8-78.82-61.53-150-45.38-231.34,1.2-5.9,9.7-6.2,10.7,0,5.2,30.9,16.8,57.3,32.8,84,9.55,15.89,23.83,44.83,43,52.47,13.11-92.81,2.18-186.92,14-279.87.9-7,11.1-5.4,10.7,1.4a1.28,1.28,0,0,1,0,.19h.11c-.06.45-.1.9-.16,1.35C3349.91,620.27,3371,655,3381.8,689.3c4.3,13.7,8.6,27.3,9.1,41.8.48,13.58-1.09,26.83.6,40.07,12.18-12.53,20.35-28.82,32.8-41.27,17.2-17.2,31.4-32.3,42.7-54.1,18.4-35.5,31.1-73.9,57.4-104.8a5.4,5.4,0,0,1,9.2,5.4c-4.3,11.5-11.2,20.7-17.3,31.3-9,15.8-12.2,33.2-15.1,51-4.1,24.9-7.7,50.1-13.5,74.6-4.5,19-11,36.2-22.9,51.8C3451,803.18,3431.27,819.33,3423,841c29.32-6.18,55.92-26.1,82.68-38.52,23.6-11,44.8-22.8,65.1-39,10.3-8.2,26.4-23,40.8-22.2,9.3.5,15.4,8.4,13.3,17.7-3.4,14.9-24.8,28-35.7,36.7-24.8,19.6-49.4,39.4-75.1,57.9-30.2,21.8-55.3,46.8-81.6,73.1-21,21.1-51.7,37.8-68.2,62.5-5.4,8.1-13,20,.9,18.3,6-.7,11.9-3.2,17.9-4.3,20.8-4.1,42-5.5,62.7-10.5,25.2-6.1,54.8-18.2,77.4.6,1.7,1.4,2.8,4.3,1.6,6.4-9.2,15.8-25.9,20.4-42.8,24.6a891.86,891.86,0,0,0-87.5,26.8c-30.9,11.1-61.4,27.3-84.1,51.6-13.7,14.7-38.2,38.6-41.2,58.8-.9,7.8-11.6,6.4-10.6-.5,3.7-25.1,31.3-52.4,48.6-69.4,30.3-29.7,69.3-45.4,108.9-58.3,18-5.9,36-11.9,54.3-16.5,8.2-2,16.6-3.4,24.5-6.4,5.3-2,12.8-2.8,13.1-9.6.4-9-16.3-6.1-22.8-5.4-18.1,2-35.5,8.8-53.5,12.1-21.7,4-43.5,7.2-65.1,11.6-22.6,4.6-24.3-11.6-14.8-29.3,7.5-14.1,20.3-24.6,32.6-34.4a538,538,0,0,0,52.4-47.7c31.7-32.6,66.5-58.1,102.5-85.7,14.6-11.2,28.9-22.7,43.3-34.2,6.4-5.1,31.9-21,31.5-29.9-.7-13.9-33.6,12.3-38.2,16.1-10.8,8.7-21.3,16.6-33.5,23.3-21,11.4-43.3,20.1-64.3,31.5-20,10.9-38.9,22.3-62,24.9-3.2.4-6.9-2.5-6.1-6.1,4.6-19.3,16.6-33.8,29.3-48.6,19.9-23.1,32.8-43,39.2-73.4,5.34-25.29,8.7-51,13.43-76.44-7.24,15.8-14.48,31.62-23.43,46.54-11.2,18.7-26.1,30.5-40.6,46.3-13.1,14.3-21.2,32.1-36.6,44.3-3.5,2.8-7.6.1-8.6-3.6-4.8-17.9-1.3-35-2.5-53.2-1.2-18.9-8.6-37.9-14.9-55.6-5.77-16.2-12.74-31.8-17.78-47.82-5,80.59,1.44,161.76-10.82,241.92-.4,2.8-3.2,5.2-6.1,4.6-25.1-4.4-41-34.5-53-54.2-12.19-20-22.43-40.06-29.53-61.61.45,72.12,47.22,138.25,49.23,211.11.1,4.7-4.6,7.8-8.7,5-10.6-7.3-15.2-16.2-22-26.8-8.1-12.6-18.9-22.5-28.8-33.7-13.6-15.27-31.37-30-43.16-47.48-12,43.15,10.07,90.1,18.56,132.28,9.4,47.2-5.7,82.4-24,125.1-10.4,24.2-17.5,49.3-29.3,73-10.6,21.3-23.7,41.3-34.3,62.6s-22,61.3-47,70.2h0a376.29,376.29,0,0,1-25.7,42.6c-8.9,12.6-19.7,24.6-21.9,40.5.2-1.3-1.2,16,.6,19.1,10,17.2,16.8,2.9,23.8-5.4,16-19.1,27.6-41.5,42.1-61.6,15.5-21.5,32.1-42.5,49.5-62.5,30.75-35.22,73.91-63,98.58-103a5,5,0,0,1,.92-4.59c10.8-14.7,21.2-30.7,36.5-41.3,15.7-10.8,35.3-15.3,53.5-19.6,43.9-10.3,86.7-26,129.7-39.6,19.3-6.2,38.8-12.2,58.6-16.4,24-5,47.3-4.3,71.6-5.1,45-1.6,81.3-28.9,109.2-63.2,25.4-31.2,41.1-69.8,55.1-107.1C3777.3,856.6,3784.4,810,3775,763.2Z" fill="#231f20"/><path d="M1925.5,2039.8a10.63,10.63,0,0,0-.9-1.1,10,10,0,0,0-1.1,1c.5.5,1,1,1.6,1.5.1-.5.3-.9.4-1.4m274.4-123a15.46,15.46,0,0,0-.7-2.3c0-.1-1.2,0-1.3.2a11.08,11.08,0,0,0-.5,2.5,18.66,18.66,0,0,0,2.5-.4m-29,.1c-.7.5-2,1-2,1.4,0,.9.8,1.7,1.3,2.6.7-.5,1.9-1,2-1.6s-.8-1.5-1.3-2.4m-304.5-8.4a10.61,10.61,0,0,0-.5,2.3c0,.2,1,.7,1.2.6a15.3,15.3,0,0,0,1.8-1.8c-.8-.3-1.6-.7-2.5-1.1m217.2.7c1-.8,2.7-1.6,3.2-2.8s-.1-2.7-.2-4.2c-1,.1-2.2-.1-2.9.4a16.26,16.26,0,0,0-3,3.4,2,2,0,0,0,0,1.5,14.81,14.81,0,0,0,2.9,1.7m132,166.9c-.3-1-.4-2.5-1.1-2.7-1.2-.5-3-.9-4-.3a17.5,17.5,0,0,0-4.4,4.2c-1.4,1.8-.1,4.2,2.2,4.5,4.5.7,7-1.3,7.3-5.7m-130.4-105.5c-8.1-.2-11.1,1.6-13.1,11.7-3,14.8-5.5,29.8-4.2,45.1.6,7.6,2.8,14.5,8.2,19.8,5.2,5.1,10.9,9.7,16.4,14.4,6,5.1,12.9,6.1,20.6,4.6,11.9-2.3,22.9-6.9,33.9-11.9a67.49,67.49,0,0,0,25.4-20.2c5.5-7,5.3-13.9,2.2-20.4a54.61,54.61,0,0,0-21.6-24.3c-20.2-12.2-42.5-17.2-67.8-18.8m-286.6,153.2c4-2.1,6.9-3.4,9.5-5.1,19-12.8,33.1-30.4,46.5-48.6a14.45,14.45,0,0,0,2.4-5.7c1.5-8.2,3.4-16.5,3.9-24.8.9-14.7,1.6-29.5-10.3-41.2-1.7-1.7-2.3-4.7-3.5-7-5.9-10.6-15.3-17-26.5-20.8-4.6-1.6-9.3-2.1-13.1,1.7-2.7,7.6-4.5,15.5-8.2,22.2-5.4,9.7-9,20-12.5,30.4-1.5,4.4-2.2,9.2-4.1,13.4-6.2,13.4-5.9,27.8-5.1,41.7.7,13.6,7,26.2,14.6,37.7,1.2,2.2,3.5,3.6,6.4,6.1m45.8-260.9c-5.6,3.2-10,7.1-8.2,14.5-6.3-2.6-11-1.1-14.2,5-2.7,5-5.7,9.8-8.2,14.9-.7,1.5-.1,3.5-.1,7.6,10.6-8.9,14.3-20.2,22.4-28,.9-1.8,1.7-3.6,2.7-5.3,1.7-3.1,3.5-6.1,5.3-9.2,4.3-2,6.4-5.3,6.1-10.1,8.4-5.3,15.7-11.6,19-21.6-6.3-1.6-7.2-1.4-9.1-.1-7.8,5.4-8.4,13.9-9.5,22.2-6.2.9-6.6,5.2-6.2,10.1m55.5-65.1c1.2-2,2.4-4,4.1-6.7,3.4,4.7,6,8.3,8.1,11.4-.1,7-4.1,10.3-8.7,13.2-10.2,6.4-14,18.2-22.1,26.3a4.27,4.27,0,0,0-1,2.9c-.4,13.7-10.5,22.5-16.5,33.4-2.5,4.5-5.5,8.7-8.3,12.9,2.3,3.5,3.9,6.1,6.2,9.5,3.2-.7,6.6-1.5,10.5-2.3,0-2.4-.5-4.5.1-6.2,1.3-3.9,6.5-5.9,8.6-2.8,3.2,4.8,6.9,4.1,10.9,3.4,6.7-1.2,13.3-2.7,19.7-4.1,2.2,3,4,5.3,6.5,8.7,4.1-4.2,7.7-7.7,11.2-11.3,1-.2,2.2-.7,3.1-.4,12.9,3.8,12.9,3.8,21.1-7,7.8-1.9,15-2.3,22.6,2.1,6.8,4,14.3,1.3,21-1.7,2.6-2.7-.3-8,4.6-9.3,5.8-1.6,11.4-2.4,15.2,4.1.4.7,1.8.8,3.5,1.6,2-1.7,4.4-3.6,6.7-5.6,2-1.7,3.7-4.2,6-4.9,14.2-4.5,22.9-15.4,32.1-26.2,8.9-10.4,19-19.5,31.6-25.6,3.2-1.5,6.1-4.1,8.7-6.6,5-4.9,10.8-8.5,17.6-9.9,10.1-2.1,18.7-7.1,26.1-13.9a29.61,29.61,0,0,1,22.9-8.3c6.2.4,12.5.1,19.8.1,3.7,3.5,6.3,9.9,13.7,10.5,1.7.1,3.8,2.3,4.6,4,3.5,7.5,9,13.7,14.4,20.4-3.3,3.2-6.1,5.3-8.2,8.1-3.5,4.6-7.8,6-13.5,6.7-15,1.8-30.2,3.3-44.1,10.1-.9.5-2,1.2-2.9,1.1-10.1-.4-16.1,5.7-22.2,13.9,6.6,2.1,12.4-1.4,18.7-1.2,2.9,4.4-2.9,7-2.6,11,.3,3.6-.6,7.2-1.1,11.4,2.9,1,5.7,2,8.3,2.9,1,4.2-.8,5.9-4.3,7.1q-18.45,6.15-36.9,12.9c-1.7.6-2.9,2.6-5,4.4,4.3,4.8,8.5,6.9,14.2,5.2,19.7-5.9,40.1-7.3,60.2-11.1a30.23,30.23,0,0,0,6.1-1.5c13.7-5.8,28.3-6.7,42.9-8.1,10.4-1,20.6-3,31.1-3.9,18.8-1.5,37.6-2.8,56.5-3.1,15.2-.3,30.3-1.1,45.3,1.8,1.5.3,3.1-.2,4.6-.3,4.9-3.7,4.7-9.2,5.1-14.3,2.6-29.8,5-59.6,7.5-89.4.5-6.3.9-12.6,1.5-18.9a29.11,29.11,0,0,1,25-26.1c4.6-.7,9.2-1.3,14.9-2.2,2.2,2.1,5.1,4.9,7.4,7.1,6.9,1.5,8.1-7,14.6-5.9a69,69,0,0,1,18.1,6.1c.3,4.1.6,8.1,1,12.7,7.6-2.5,14.4-4.8,21.4-7.2,7.1,6.7,10.4,15.4,11.5,23.9,2.4,19.2,6.6,38.3,3.3,57.9-.9,5.7-2.2,11.3-2.6,17.1-1.5,18.8-3.1,37.5-4,56.4-.7,14.1.3,28.4-.8,42.5-.8,10.4-2.4,20.7-2,31.2.1,2.1-.3,4.2-.1,6.3,1.9,21.4,4.7,42.7,5.6,64.2.6,13.7,2.5,27.1,3.7,40.6.9,9.8-.2,20-1.7,29.8-.8,5.5-4.1,10.6-6.1,15.9-2.2,5.8-4.3,11.7-6.8,18.4-5.9,4.8-15.7,3-21.9,9.4-7.6-1.5-14.3,1.5-21,4.4a2.05,2.05,0,0,1-1.5.2c-10.6-5-22.7,0-33-4.4-5.4-2.3-9.7-5-15.8-3.6-1.8.4-4.9-1.8-6.5-3.6-5.4-6.1-7.8-13.2-7.9-21.6-.4-18.9-1.1-37.7-2.5-56.6-3.1-42.9-6.4-85.8-5.5-128.9a40.11,40.11,0,0,0-.8-5.5c-3.3-.7-6.8-2.2-10.1-2-32,1.6-64,2.5-95.7,7.9-4.1.7-8.3,1.1-12.5,1.4a369.43,369.43,0,0,0-54.3,8.5c-6.1,1.4-12.4,2.3-18.6,3.5-8.6,1.6-8.6,1.7-17,7.7.5,1.3.6,3.3,1.6,4,6.5,4.5,12.8,9.1,17.3,15.8,16.7,9.5,27.8,27.1,47,33.1,2.2.7,3.8,3.2,5.5,5.1,4.4,5,7.5,11.4,14.7,14.9-.1,10.6.7,22.1-7.3,31.6-3.6,1.2-4.1-2.4-6-3.8-1.7-1.2-5.2.1-4.9,1.8,1.3,8.3-3.6,15.1-5.1,22.6-1.2,6.2-4.5,9.1-9.3,11.5-27.9,13.9-57,24.5-88.4,26.4-12.5.8-25.1-.9-37.7-1.6-5.7-.3-11.4-1-17.2-1a118,118,0,0,1-26.3-3.5c-11.8-2.7-22.9-6.7-34.2-10.9-8.6-3.3-16.1-7.8-22.2-14.5-11.3-12.4-22.5-24.9-25.5-42.3a23.17,23.17,0,0,0-1.6-4.4c-9.2-19.2-7.8-38.7-1.3-58.3a255.77,255.77,0,0,1,27.8-58c3-4.7,7-9.2,5.5-15.5-26.6-.1-114.4,27.7-135.7,43,3.8,5.7,10.8,6.1,17,10.4,4.1,7.5,9,16.1,13.7,24.8,4.2,7.6,4.2,7.7,16.1,7.2,1.8,3.2,4.6,6.5,5.6,10.4,2.7,10.1,9.9,15.5,18.5,19.9,2.2,1.1,5.4,2.6,5.9,4.5,1.7,6.5,6.7,8.9,12.1,10.3-.2,8.2-1.4,11-4.6,10.4-3.4-.6-6.6-2.5-10.9-4.2-.1,4.2.3,8.3-.6,12.1-1,4.1,1.6,7.1,1.9,10.5.5,6.2.1,12.5,0,18.8l.4-.5c-2.4-1-4.8-1.9-6.6-2.7-5.8,1.6-2.2,7.1-5.2,9.3-2.5,1.9-6.2,2.8-7.7,5.2-6.5,10.8-15.3,19.7-22.8,29.6-2.6,3.4-4.3,7.8,1.6,10.9-13.2,16.9-29.2,29.1-48.6,34.2-28.4,7.5-57.4,11.7-87,5.4-14.4-3-28.7-5.9-42.1-12.2a40.57,40.57,0,0,0-8.9-3c-10.5-1.9-18-8.2-23.3-16.8a237.76,237.76,0,0,1-13.1-25,51.16,51.16,0,0,1-4.7-24.5c.4-6.8-.5-13.6-.5-20.4,0-5.7-.3-11.6.8-17.2,5.2-27.3,12.7-54,24.3-79.3,4.1-9,10.3-17,15.3-25.6a209.07,209.07,0,0,0,17.8-38.4c2-5.8,5.7-11,8.8-16.4,7.9-14.1,13.4-29.6,23.6-42.4,6.2-7.7,11.1-16.3,18.9-22.9,5.1-4.3,9.2-10.1,13.1-15.6,6.3-8.9,12.3-18.2,18.1-27.4,12.3-19.4,30.4-26.1,52.5-24.6,11.1.7,21.2,5,31.7,8.4-1,2.9-1.8,5.3-2.6,7.6,1.5,3.8,4.8.1,7.4,2.4l3.9,9.2c-.9-.2-1.9-.5-2.8-.7a4.24,4.24,0,0,1,2.7.3m727.5-11.5-.7.9,1,.2Zm-16.3,149.9c.7.6,1.4,1.1,2,1.7.3-.4.9-.9.8-1.1-.3-.8-.8-1.6-1.2-2.4-.5.6-1.1,1.2-1.6,1.8m4.1,12.8a7.61,7.61,0,0,0-2.1-.8c-.2,0-.8.9-.7,1.1a13.93,13.93,0,0,0,1.5,1.9,25.29,25.29,0,0,0,1.3-2.2m204.5-94.9a31.71,31.71,0,0,0-3.4,5c-.2.5.8,1.6,1.2,2.4a36.84,36.84,0,0,0,3.9-4c.3-.3-.7-1.6-1.7-3.4m98.4-119.3c2.4,2.6,4.8,5.1,7.8,8.3-3.6,3-7.7,2.5-11.6,1.9-13.9-1.8-27.8-3.8-41.7-5.7s-28-4.8-42.1-5.8c-29.9-2-59.8-3-89.6.9-16.7,2.2-33.4,3.5-50.1,5.4-5.2.6-10.3,1.4-16.3,2.2,0,3.8-.5,6.9.1,9.8,2.7,12,2.4,24,.9,36-1.6,13-3.4,26-5,39-.8,6.7-1.1,13.5-1.7,20.3,6.2,3.6,11.8,2.2,17.4,1.4,23.4-3.2,46.8-6.5,70.1-9.6,19.2-2.6,38.5-4.4,57.6-7.6,16.1-2.7,32.3-3.1,48.5-4.2,10.4-.7,20.8-1.2,31.2-.9,11.5.3,22.9,1.5,34.3,2.6,1.3.1,2.5,1.6,3.6,2.4.1,4.5-3.1,6.2-6.1,6.1-8.5-.1-15,3.9-20.2,9.1-4.6.5-7.6-5.5-12.1-.8-3,3.1-7.4,3.1-11.8,3.2-10.9.4-21.9,1.5-32.5,2.2-2.5,3.1-.8,4.9,1,7.1s3.1,5,5.3,8.6a26.54,26.54,0,0,0,19.1-8.6c6.3,4.3,13.5,6.6,21.3,5.5,10.7-1.5,10.7-1.6,17.4-10.3,6.8,8.3,6.8,8.3,21.9,13.2.4,2.9-1.6,3.7-3.7,3.4-5.9-1-10.9.6-16.6,2.8-9.6,3.6-19,9-30.2,6.5-2.8-.6-6.1.9-9.1,1.7-11.7,3-23.1,6.6-35.5,6.4-6.2-.1-12.4,2-18.6,3-8.8,1.4-17.6,2.7-26.4,4.2-9.8,1.7-19.6,3.8-29.4,5.2-31.7,4.6-63.4,9-95,13.4a49.48,49.48,0,0,0-5.3,1.3c-3,5.3-3.8,11.4-3.7,17.7.4,16.8,1.3,33.6,1,50.4-.4,22.8,6.5,44.6,9.2,66.9,1.2,10.6,7.4,20.6,11.7,30.7.7,1.6,3.1,2.4,5.5,4.1,5.6-7.5,12.7-12.6,17.2-20.5,4.9-8.6,11.2-16.4,16.9-24.6,5.4-7.7,10.7-15.5,16.6-24.1,4.9,5.1,5.1,11.7,7.6,17s4.9,10.4,7.3,15.6c-1.6,4.2-3.2,8-4.6,11.6,2.7,3.6,5.9,6.5,7.3,10.1,1.2,3,.2,6.9.2,11.7,5.1-2.1,9.3-3.7,14.5-5.8.4,2.6,1.3,4.6.8,6.2-2.4,7.9-5.2,15.8-8.1,24.2.6.6,1.4,2,2.7,2.7,3.4,1.8,4.4,4.9,3.2,8-2.5,6.3-5.5,12.4-8.6,18.5-.9,1.8-2.5,3.9-4.2,4.5-10.4,3.4-18.1,12.5-29.7,13.3-2.2,10.7-10.1,15.9-19.2,18.5-8.5,2.4-17.6,4-26.4,3.7-11.3-.4-23.2,1.4-34-4.5-2.6-1.4-6.2-.8-9.2-1.6-7.5-2-15.8-1.2-22-7.3a6.67,6.67,0,0,0-2.9-1c-17.3-3.7-22.9-8.5-32.4-23.2-10.6-16.5-19.3-33.7-24.5-52.5-3.1-11.1-5.2-22.5-7.5-33.8-4.2-21.1-5.5-42.5-6.9-64a432.44,432.44,0,0,1,.1-61.3c.4-4.6-.4-9.3-.7-14.7-9.2-2.7-18.1-5.4-26.9-8-3.6-6.9-3.1-13.6-2.6-20,4.8-6.6,9.3-13,14.5-20.2,1.4-.4,3.8-1.6,6.3-2,11.7-1.8,15-9.8,15.4-20.3.7-18.4,3.7-36.5,6.8-54.6,2.1-12.3,2.4-24.8,2.2-38.2-4.6-.7-8.1-1.1-11.5-1.7-13.1-2.2-21.6-13.4-16.7-24.8,3.5-8.2,8.7-16.5,18-20.8,16-7.4,33.1-9.5,50.3-11.5,7.3-.8,14.5-1.7,21.8-2.4,6.8-.6,13.6-1.8,20.4-1.5,8,.4,15.6-.4,23.1-3.4,2.8-1.1,6.1-1.2,9.2-1.5,10.9-.7,21.9-1.7,32.8-1.9,16.2-.3,32.5-.1,48.7.1,6.8.1,13.6.9,20.4,1,16.2.4,32.5-.7,48.4,3.9,2.9.8,6.2.2,9.4.2,6.3-.1,12.5-1,18.4,2.7,2,1.2,5,.7,7.5,1.1,4.1.6,8.3,1.1,12.3,2.1,5.5,1.3,9.3,4.6,10.6,10.4.7,2.8,1.7,5.6,3.1,10-6.2-3.4-10.7-6.1-15.4-8.3-6.6-3.2-13.1-6.9-21-4.7-12.8-3.2-26.1-.2-39-4.1-6.8-2.1-14.6-.5-21.9-.8-6.3-.2-12.6-.1-18.7-1-6.4-.9-12.5-.9-18.4,2.3-1.1,3.5,1.2,5.7,3.7,4.7,7.3-2.7,14.4-1.7,21.7-.3,2.6.5,5.4,1.4,7.8.7,10.2-2.8,19.4,1.2,29.1,2.6,7.4,1.1,11.5,7.3,19.2,8.7,1.9-1.4,4.3-3.2,7.4-5.5,13.5,3.5,27.9,6.5,41.6,11.2,5.9,2,11,2.6,16.6,1,2.4-.7,5-1.1,8.2-1.9,1.7,3.6,3.1,6.8,4.6,10,5.5,4.6,14.3,3.1,18.9,9.7-3.9,3.3-7.4,1.8-10.9.8l-2,.5a21.66,21.66,0,0,0,2.5-.4M1340.5,1866.7l.3,1.1.6-.8Zm-36.1,118.2c.4.2.7.4,1.1.6.2-.4.5-.8.4-1s-.7-.4-1-.6a4.67,4.67,0,0,1-.5,1m-121.9-148.8c-.4-.7-.9-1.3-1.3-2-.3.3-1,.7-.9.8a21.16,21.16,0,0,0,1.2,2,7,7,0,0,0,1-.8m4.9,23.8c-.4-.7-.8-1.4-1.2-2.2-.2.4-.8.9-.7,1.2a8.42,8.42,0,0,0,1.1,2.1,4.44,4.44,0,0,0,.8-1.1m143.2,66.4c.5,0,.9.1,1.4.1l.3-5.4c-.4,0-.9-.1-1.3-.1Zm-1.8,13.6c-5.8.4-7.7,3-3.8,9.3,1.7-4.2,2.7-6.7,3.8-9.3m-170.7-157.7c5.6-2.6,9.4-4.3,12.9-6,.4-2.9.7-5.5,1-7.8,7.3.9,14.5,1.6,21.6,2.8a22.35,22.35,0,0,1,8.6,3.5c11,7.8,18.7,17.9,22.3,31.3,6.4,23.3,10.9,47,15.6,70.6a742.72,742.72,0,0,0,18.1,73.1c2.4,8,4,16.3,6.3,24.3.9,3.2,2.8,6,5.2,11,1.1-4.2,1.9-6.1,2.2-8.1,4.9-31,13.3-61.4,16.9-92.7a64.89,64.89,0,0,1,4.5-16.6c4.8-12.2,9.9-24.3,9.3-37.8a9,9,0,0,1,.9-4.6c5.4-10,6-21.1,7.5-31.9.9-6.3,2-12.3,5.1-18a34.77,34.77,0,0,0,3.9-10.3c2.2-15.1,9.4-27.5,19.7-39.2h12.6c2.6-3.1,5.6-6.6,9.3-11.1,1.6,2.7,2.4,4.4,3.5,6,4.3,6.5,4.6,6.5,12.7,4.5,1.5-.4,3.8-1.2,4.3-.6,9.2,10.1,23.2,3.6,34.1,10.6,2,7.3-4.2,12.9-6.2,19.6-2.1,7-5.2,13.5-12.1,17.1,1.3,2.5,2.2,4.3,3.4,6.6-4.3,7.1-12.3,3.3-19,5.6-.3,6-.8,12.1-6.2,16.6-1.8,1.5-2.7,4.4-3.5,6.8-5.1,15.4-10.1,30.9-15.1,46.3-.6,2-1.2,4-1.7,6.1-2.5,10.4-2.1,11.8,6,21.1-7.9,2.4-11.5,7.8-13,15.8-1.2,6.5-4,12.7-6.8,20.9.2,8.9.5,19.9.8,30.8,0,1.6.2,3.5-.5,4.6-5.4,7.9-5.5,16.3-4.6,25.5.6,5.3-2.7,10.9-4.1,16.5-.9,4-2.2,8.1-2.1,12.1.4,15.2,1.6,30.4,1.8,45.5a123.69,123.69,0,0,1-1.8,21.9c-1.5,8.4-1.8,16.5.8,24.9,1.7,5.5,2,11.3,3,16.9,3.3.5,3.5-1.8,3.8-3.8,1.2-9.9,2.1-19.8,3.2-29.7,1.2-10.4,1.9-20.9,3.8-31.2,1-5.5-1.5-8.7-5.2-12.7,3-1.3,5.7-2.4,9.2-3.8.7-5.8,1.2-11.9,2.3-18a113.73,113.73,0,0,1,4.5-18.3c2-5.6-2.3-12.7,4.4-17.8,1.2,1.7,2.3,2.7,2.8,4s.4,3.1.7,4.7c2.1,11.7-2.4,22.8-3.5,34.2,4.9,10.5,3.1,21.3,1.9,32.3-2.9,27.1-5.5,54.2-7.2,81.4a464.08,464.08,0,0,1-15.9,95.9c-2.6,9.3-9.8,13.9-17,17.3-10.7,5.2-22,9.6-34.2,10.7-2.6.2-5.6,0-7.6,1.3-5.9,3.9-12.2,2.4-18.3,2.4-5.7,0-11.4-.5-18.5-.8-6.9-4.4-12-11.3-16-20.5-11.5-26.5-20.9-53.7-30.3-81-4.6-13.4-9.7-26.6-13.6-40.2-6.7-23.1-12.7-46.5-19.1-69.7-5.7-20.7-11.7-41.4-17.1-62.2-8.7-33.5-17-67.1-25.7-100.6-6.5-24.9-13.4-49.6-19.9-74.5a72,72,0,0,1-2.3-13.9c-.2-5.3.5-10.5,5.4-14a10.75,10.75,0,0,0,2.8-3.8c5.6-11.9,16.1-13.7,27.6-13.4a49,49,0,0,1,7.7.6c1.3.2,3.3,1.1,3.5,2,1.3,6.5,8,4.6,10.6,8.9m479.3,2a5.5,5.5,0,0,0-.9.7c.3.2.6.6.9.6s.6-.4.9-.6a5.5,5.5,0,0,0-.9-.7m80.3,4c-.3-.3-.6-.9-1-.9s-.8.4-1.2.7c.3.3.6.9,1,.9s.9-.5,1.2-.7m-39.3-4.7,1.7,1.4a3,3,0,0,0,.7-1c.1-.4-.2-.8-.4-1.2-.6.3-1.3.5-2,.8m11,1.3c.4-.2,1-.3,1.1-.6s-.2-.8-.3-1.3c-.6.4-1.2.7-1.8,1.1a3.92,3.92,0,0,1,1,.8m-112.7,304.8a46.57,46.57,0,0,0-5.2-3.3c-.2-.1-1.6,1.6-1.4,2.2.3,1.2,1.1,3.1,1.9,3.2,1.1.2,2.5-1,4.7-2.1m41.6-156c5,0,8,.3,11-.2.9-.1,2.1-2.3,2-3.5a3.14,3.14,0,0,0-4.5-2.8c-2.5,1.3-4.7,3.5-8.5,6.5m33-159.5c0,4.7-.9,8.1.1,8.8,4.7,3.3,9.9,3.7,17.2.5-5.9-3.2-10.2-5.5-17.3-9.3m30,.2c9.9-4.4,21.3-5.7,30,5.8,7.9-.3,15.2-.9,22.5-.8,3.1,0,6.2,1.1,9.2,2,3.3,1,3.5,3.7.4,9.2,6.7,1.6,13.4,3.4,14.9,11.3,4.2,1.8,8.4,3.7,12.6,5.5.5,2.8-1.3,3.4-3.5,3.6-21.9,2.1-43.8,4.9-65.8,6.2-16.7,1-33.6.5-50.4.3-35.3-.5-70.2,3.1-105.1,8.1-5.1.7-10.1,2.2-16,3.5.9,8.2,2,15.8,2.6,23.5.5,7.3.6,14.7.5,22-.4,14.7-1.1,29.4-1.6,44.1a69.33,69.33,0,0,0,.7,8.4c3.5,0,6.6.5,9.4-.1,14.8-3.3,29.7-6.4,44.4-10.3,22.5-5.9,45.4-7.8,68.5-9.4,3.6-.2,7.2,0,10.5,0,2.3,3.8-.2,5.3-2,6.9a25.83,25.83,0,0,1-14.3,6c-2,.2-4.4,1-5.5,2.5a10.74,10.74,0,0,0-2.2,6.9c.3,3,3.2,4.1,6,3.4a63.21,63.21,0,0,0,8.6-3.2c5.6,2.3,8.6,8.5,15,8.5h19.6c-3.2,3-4.2,4.8-5.7,5.3-39.9,13-79.8,26.2-119.8,38.7-10.9,3.4-22.4,5.1-34.2,7.6-9.9,20.9-4.4,42.2-4.2,63,4.4,1.7,5.2-1.3,6.2-3.5,8.1-17,16.2-34,20-53.5,3.4-.8,6.7-1.6,10.6-2.5-3.9,10.1-4.2,10.2-1.3,19.5a25.67,25.67,0,0,1,.8,12.3c-.4,2.2.9,4.8,1.6,7.9,4.8-.5,8.9-.9,13-1.3.4.9,1.1,1.9,1,2.7-.7,7.3-2.3,14.4-.3,21.8,1.8,6.8,1.4,13.8-5.9,17.1,1,6.2,4.3,7.2,8.3,5.8,2.8-1,5.3-3.1,8.6-5.1,1.6,5.4-.3,9.6-1.9,13.9-6.2,16.8-8.7,34.3-9.1,52.1-.1,3.4,2.5,7.2,1.7,10.1a200.37,200.37,0,0,1-9.1,24.9c-1.1,2.5-4.2,4.7-6.9,6-8,3.9-16.2,7.5-24.5,10.8a18.18,18.18,0,0,1-9.2,1.1c-8.5-1.4-16.8-.1-25,1.5a32.67,32.67,0,0,1-18.5-1.5,59.93,59.93,0,0,0-18.4-3.4,17.08,17.08,0,0,1-13.4-7c-10.6-13.3-17.9-28.4-23.2-44.4-10.5-31.7-14.9-64.3-14.7-97.6.1-12-.6-24.1-.4-36.1,0-4.4-.6-8.1-3.1-11.8-4.5-6.5-4.9-12.9-1-20.6a75.25,75.25,0,0,0,8.1-31.8c1-27.3,2.4-54.6,3.5-81.8.1-3-.4-6-.7-10.1-10.1,1-19.5,1.1-28.5,3-9.5,2-15.6-2.6-19.9-9.4-3.7-5.9-1.9-13.3.1-19.8,2.3-7.7,6.5-14.3,15-16.7,10.6-3,21.1-6.5,31.8-8.8,16.9-3.6,34.1-5.7,51-9.5,21.5-4.9,43.6-6,65.2-10.2,20.2-3.9,40.7-3,60.9-5.8,19.6-2.7,39.7-1.6,59.5-.7,6.8.5,13.9,2.4,23,3.9m1434.7,203-1-1.2a17.39,17.39,0,0,0-1.1,1.8c.5.2,1,.6,1.4.5s.5-.7.7-1.1m-96.1-155.9c-.3.2-.7.5-1,.7.5.6,1,1.3,1.6,1.9.1.1.6-.4,1-.7a14.62,14.62,0,0,1-1.6-1.9m7.8,66.5c-1.1-.6-2.2-1.3-3.3-1.9-.3.8-1.2,1.9-1,2.2a18.31,18.31,0,0,0,3.1,2.4c.4-.8.7-1.6,1.2-2.7m-36.5-39.5c.9,6.7.9,6.7,7.9,8-3-3-5-5.1-7.9-8m-24.5-48.9c.8.2,1.3.6,1.7.4a1.44,1.44,0,0,0,.9-1.1c-.1-2.5.2-5.2-.5-7.5-.8-2.5-2.7-4.2-6-1.1,1.3,3.1,2.6,6.3,3.9,9.3m114.5-96.3c4.5.6,9,1.2,16.3,2.2-6.4-7.2-11.9-2.2-16.3-2.2m-68.4,105.7c-1.6-5.9-3.2-11.8-4.9-17.8-3.2-.5-5.6-.9-8.9-1.4,1.3,9.7,9.7,13.3,13.8,19.2m-26.2,5.7c-3.8,3.9-7.1,6.6-9.2,10-1.1,1.7-.6,5,.2,7.2.5,1.4,2.9,2.2,4.8,3.5,4-6.4,7.4-12,11.2-18.2-2-3.8-4-7.8-6.1-11.8-.5.2-1,.3-1.5.5.2,2.9.4,5.7.6,8.8m30.7-35c.5,2.3-.3,5.2,5.1,6.7-2.6-3-4-4.7-5.5-6.3.5-6.4.1-12.7-4.7-20.5-1.6,9.3-.8,15.4,5.1,20.1m67.3,175.9a26.05,26.05,0,0,1-14.4-8.7c-3.1-3.5-6.3-6.8-9.9-10.5-3,1.4-5.7,2.7-8.4,3.9a6.71,6.71,0,0,1-1.5-.6,22.84,22.84,0,0,1-2.2-2.2c-.3-.4-.8-1.1-.7-1.3,3.6-5.8-2.2-11.7-.7-17.2,6.6-1.9,6,8,12.9,5.2-1.5-2.6-3.1-5-4.3-7.5-1.3-2.7-2.3-5.6-3.2-7.8-5.1-1.2-8.1.3-10.9,3.1-2.6,2.7-5.7,2-8.7.7l.4.4c-.5-7-8.9-7.2-10.1-12.4-3.9,0-7.2.8-9.8-.2-4.5-1.8-2.1-6.3-2.5-10.6-17.4-6.5-26.7-21.8-36.3-36.8-3.9-6.2-8-12-12.5-17.8-6.7-8.5-11.3-18.8-15.8-28.8-9.6-21.7-10.9-44.7-8.4-67.9.9-8.6,5.6-15.4,14.5-18.9,13.7-5.3,27.1-11.3,40.4-17.4,6.6-3,12.9-5.5,20.6-6,8.7-.7,17.1-2.9,26.2-2.1,8.2.6,16.5-1.9,24.8-2.5a108.1,108.1,0,0,1,50.5,8.5c5.7,2.4,12.1,3.3,18.1,4.9,3.6,1,8.2,2.6,8,6.5-.5,9.8,6.2,14.9,11.9,20.7,2.9,3,3.8,6.1,2.9,11.1-2.6.1-5.5.4-8.4.4-3.1.1-6.2.3-9.3.1-17.2-1.2-34.1-4-51-7-15.1-2.7-34.8,12.2-37.2,27.4-2.6,16.2.7,31.1,11,44.2a51,51,0,0,1,5.3,7.8c11.3,23,30.5,39.8,46.9,58.7,8.6,9.8,18.5,18.6,27.7,27.8,1.1,1.1,2,2.7,3.3,3.3,15.8,6.5,25.1,20.4,36.4,32,12.4,12.7,23.2,26.9,36.7,38.6a22.1,22.1,0,0,1,4.7,6.2c3.2,6,6.4,12,11.7,16.6,1.8,1.6,2.5,4.5,3.8,6.7,1,1.7,2.1,4.6,3.5,4.8,9.9,1.5,12.4,10.4,17.4,16.7,10,12.5,15.5,27,20,42.9-4.5,3.5-8.2,7.2-9.3,13.6-.9,5.7-6.3,9.6-11.8,11.6s-11.1,2.8-16.7,3.9c-9.3,1.7-18.7,2.6-27.8,5-12.3,3.3-24.7,4.9-37.3,3.8-8.2-.7-16.2-3-24.7-1.4a17.41,17.41,0,0,1-9.2-1.5c-6.5-2.8-13.3-2.7-20.1-3.2a75,75,0,0,1-45.4-19c-2.2-1.9-5.4-2.7-8-4.1-3.6-1.9-7.2-3.8-11.8-6.2,2.5-3.2,4.3-5.4,6.1-7.8-3.5-4.4-8.5-6-13.3-7.9-9.3-3.6-18.6-7.2-27.7-11.2a5.82,5.82,0,0,1-2.9-4.8c.2-1.5,2.6-3.5,4.2-3.7,10.6-1.5,20.9.5,31.2,2.8,19.4,4.5,38.7,9.4,58.1,13.9a147.88,147.88,0,0,0,18.6,3.3c7.3.8,14.5.3,21.4-4.9-3.1-7.9-10.6-13.8-8.4-23.1-6.2-4.9-12-9.4-17.7-13.9-3.9-3-6.5-6-5.4-11.9,1.3-6.5-5.2-9.8-8.5-14.4-2-2.8-5.4-2.3-8.6-2.4-8.9-.3-12.1-6.3-7.6-13.6,1.6-2.5,4.1-4.5,6-6.5-1.3-4.2-3.5-3.3-6.4-2.6-8.6,2.3-9.8,1.2-11.2-8.9a23.81,23.81,0,0,1-.5-2.6,5.67,5.67,0,0,1,1.3,2.7" fill="#231f20"/></svg>