<?xml version="1.0" encoding="utf-8"?>
<!-- Generator: Adobe Illustrator 21.1.0, SVG Export Plug-In . SVG Version: 6.00 Build 0)  -->
<svg version="1.1" id="Layer_1" xmlns="http://www.w3.org/2000/svg" xmlns:xlink="http://www.w3.org/1999/xlink" x="0px" y="0px"
	 viewBox="0 0 4000 3733.1" style="enable-background:new 0 0 4000 3733.1;" xml:space="preserve">
<style type="text/css">
	.st0{fill:#FFE78F;}
	.st1{clip-path:url(#SVGID_2_);fill:#231F20;}
	.st2{clip-path:url(#SVGID_4_);fill:#F0B574;}
	.st3{clip-path:url(#SVGID_4_);fill:#F1ECE1;}
	.st4{clip-path:url(#SVGID_4_);fill:#EFA955;}
	.st5{clip-path:url(#SVGID_4_);fill:#FCB415;}
	.st6{clip-path:url(#SVGID_4_);fill:#231F20;}
</style>
<rect class="st0" width="4000" height="3733.1"/>
<g>
	<defs>
		<rect id="SVGID_1_" x="279.7" y="391.1" width="2239.8" height="1166.9"/>
	</defs>
	<clipPath id="SVGID_2_">
		<use xlink:href="#SVGID_1_"  style="overflow:visible;"/>
	</clipPath>
	<path class="st1" d="M1362.7,803.6c-0.2-0.4-0.5-0.8-0.7-1.2c-0.4,0.3-0.9,0.5-1,0.9c-0.1,0.4,0.4,0.8,0.6,1.2
		C1362,804.1,1362.3,803.9,1362.7,803.6 M788.4,538.7c-1.1-0.9-2-1.5-2.9-2.2c-0.4,0.6-1.3,1.4-1.2,1.7c0.6,0.9,1.5,1.7,2.3,2.5
		C787.1,540.2,787.5,539.6,788.4,538.7 M1645,667.8c0.5-0.9,1.1-1.7,1.6-2.6c-1.7-0.9-3.3-1.8-5-2.8c-0.4,0.7-0.8,1.3-1.2,2
		C1641.8,665.6,1643.4,666.7,1645,667.8 M949.2,670.8c0.7-0.1,1.4-0.3,2.1-0.5c0.6-2.7,0.4-5.1-4.5-7.4
		C948,666.6,948.6,668.7,949.2,670.8 M1636.5,646.7c1.2,2.5,2.2,4.4,3.6,7.4c1.5-2.1,3.1-3.4,2.9-4.5
		C1642.7,647,1641,645.3,1636.5,646.7 M1642.5,708.9c0.7,0.1,1.4,0.1,2.1,0.2c2.6-4.1,2.2-8.5,0.9-12.9c-0.2-0.6-1.6-0.9-3-1.6
		V708.9z M1632.5,625.4c-2.8-3.5-6.3-6.3-7.6-10c-1.7-4.9-5.3-7-9-9.6c1.4,5.1,2.8,10.1,5.3,14.6c2.5,4.5,0.3,11.4,6.9,14.1
		C1629.9,630.7,1631.5,627.3,1632.5,625.4 M1520.7,803.2c6.5-5,11.3-10.2,14.4-16.1c7.1-13.5,13.4-27.4,19.8-41.2
		c2.2-4.7,4.6-9.6,5.7-14.6c2.3-10.8,3.6-21.9,5.6-32.8c3.9-21.7-0.3-42.1-9.6-61.6c-10.7-22.4-26.5-41-44.3-58
		c-1.3-1.2-3-1.9-6-3.6c0,4.6-0.2,7.8,0,11c0.8,8.9,1.9,17.7,2.5,26.6c1.3,16.9,2.5,33.8,3.5,50.7c1.2,20.2,2,40.5,3,60.7
		c1.2,23.9,2.4,47.7,3.6,71.6C1519,797.8,1519.9,799.8,1520.7,803.2 M1345.9,697c0.6-19.1-7.1-34.1-19.7-46.8
		c-24.3-24.6-53.9-41.9-83.6-59c-8.1-4.7-10.7-3-11.9,6.3c-0.1,0.6-0.1,1.1-0.2,1.7c-0.6,13-1.4,26-1.6,39
		c-0.4,30-0.6,60.1-0.7,90.1c0,11.1,0.4,22.2,0.5,33.3c0.1,17.2,0,34.5,0,51.7c0,2.8,0.6,5.5,0.5,8.3c-0.1,6.6,0.1,13.3-0.7,19.8
		c-0.7,5.9-2.7,11.7-3.5,17.6c-0.8,6,2.3,8.2,8.1,6.2c0.8-0.3,1.5-0.7,2.3-1.1c9.4-5,17.8-11.1,25.5-18.6
		c6.9-6.7,13.2-13.9,20.7-20.2c7-5.9,13.8-12.8,18.1-21.6c2.2-4.6,6.3-8.4,9.6-12.5c1.2-1.5,2.6-2.9,3.6-4.5c3-4.9,5.9-10,8.9-14.9
		c2.3-3.8,5.3-7.3,7-11.3c3.7-9,6.6-18.2,10-27.3C1343.1,721.2,1345.9,709,1345.9,697 M611.7,800.2c-1.1,2.4-2.6,4.6-3.4,7.1
		c-5.3,17.3-10.4,34.6-15.5,51.9c-6.1,20.8-12.2,41.6-18.3,62.4c-1.6,5.3-3.1,10.7-4.5,16.1c-1.6,6.1-5.1,10.5-11.3,12.3
		c-6.7,1.9-13.3,4.2-20.1,5.2c-17.4,2.4-34.1,7.8-50.9,12.4c-8.1,2.2-15.8,1.6-23.8-0.8c-3.8-1.2-5.3-3.2-6.4-6.7
		c-3.8-12.3-5.3-25-6.2-37.8c-0.3-3.8-1.2-7.6-1.8-11.4c-0.4-2.2-0.9-4.3-0.9-6.5c0-28.4,0.1-56.7,0.3-85.1
		c0.1-14.5,0.9-28.9,0.9-43.4c0.1-18.6-0.1-37.2-0.5-55.8c-0.1-6.6-1.6-13.2-2-19.8c-0.7-12.2-1.4-24.4-1.7-36.7
		c-0.5-26.1-0.8-52.3-0.9-78.4c0-9.4,0.7-18.9,0.9-28.3c0.5-22.1-2.7-43.9-5-65.7c-0.5-4.4-0.7-8.9-1.2-13.3
		c-0.9-7.8,1-14.6,4.8-21.5c2.5-4.6,5.3-7.6,10.3-8.6c7.3-1.6,14.6-3.4,21.9-4.8c6.2-1.2,12.3-3.1,18.8-1.6c1.5,0.3,3.3-0.4,4.8-1.1
		c16-7.1,32.5-6.5,49.1-3.6c6.7,1.2,9.7,5.4,10.1,12.2c0.9,17.5,2.2,35,2.9,52.5c0.4,12,0.1,23.9-0.1,35.9
		c-0.3,17.5-0.9,35-1.1,52.5c-0.2,13,0,26.1,0.3,39.1c0.1,3.4,1.1,6.8,1.7,10.7c5.4-1.2,6.3-5.1,7.8-8.1c1.4-3,2.3-6.3,3.1-9.5
		c1.9-8,6.7-14,12.5-19.3c1.6-1.5,4.7-2.7,6.8-2.3c8.2,1.6,15.1-2.6,22.6-4.3c2.1-0.5,4.3-1.5,6.4-1.5c5.7-0.1,11.5,0.1,17.3,0.1
		c1.4,0,3-0.6,4.1-0.1c8.4,3.7,16.9,0.4,25.3,0.6c7.7,0.1,15.2,1,20,8c1.8,2.7,3.1,5.9,3.9,9c1.8,7,3.2,14,4.5,21.1
		c3.5,19.7,6.8,39.5,10.3,59.2c3.4,18.9,7.2,37.7,10.8,56.5c0.2,1.1,0.7,2.1,1.3,3c0.4,0.6,1.1,1.1,2.1,1.9c4.1-5.2,3-11.3,3.4-16.8
		c1-17.5,0.9-35,2.1-52.4c2-28.6,4.3-57.1,7.2-85.6c1.8-17.7,5.1-35.2,7.6-52.8c1.9-13.5,3.6-27,5.7-40.5
		c1.7-10.7,3.2-21.5,6.1-31.8c1.4-5,6-9.1,9.4-13.3c0.9-1.1,3.6-2.1,4.5-1.5c6.3,3.9,13.4,0.8,20.1,2.9c4,1.3,9-0.6,13.5,0.9
		c0.2,0.1,0.6-0.2,0.8,0c6.1,4.6,11.9,2,17.5-1.1c2.5-1.4,4.7-1.8,6.6,0.8c2,2.7,0.7,4.6-1.3,6.5c-0.6,0.6-1,1.3-2.4,2.9
		c3,0.4,5.3,1.2,7.5,0.8c6.3-0.9,12.5-2.6,18.8-3.5c10.4-1.4,20.9-2.8,31.4-3.4c22.8-1.2,45.6-1.9,68.4-2.6c27.5-0.9,55-3,82.6-0.3
		c19.1,1.9,38.4,1.6,57.3,4.1c12.3,1.6,24.1,6.3,36.1,9.6c1.8,0.5,3.6,2,5.4,2c4.6,0,7.1,2.3,8.9,6.2c0.8,1.6,2.4,3.8,3.8,4
		c9.1,1.4,16.4,7.4,25.9,8.2c13.9,1.2,28.1,3.7,41.3,8.1c12.8,4.2,26,7.4,38.4,12.6c8.1,3.4,16.9,4.4,24.8,8
		c1.3,0.6,3.1,0.8,3.7,1.7c6.5,9.6,17.9,11.6,26.9,17.2c8.5,5.3,17.4,9.8,26,15c2.3,1.4,4.1,3.7,6.2,5.5c3.9,3.1,7.5,6.8,11.9,8.9
		c9,4.4,17.4,9.5,25.4,15.6c10.1,7.8,20.7,15.1,28.4,25.6c0.9,1.2,2.6,1.8,5.2,3.5c0.4-3.7,1-6.3,0.8-8.9
		c-0.9-11.6-3.3-23.2-2.7-34.8c0.6-11.5-3.5-23,0.5-34.7c2.6-7.5,0.2-10-7.9-10.6c-3.3-0.3-6.7-0.2-10-0.5
		c-7.1-0.7-11.5-5.2-10.7-12.1c0.6-5.2,2.4-10.3,4.4-15.1c1.4-3.5,4.8-5.1,8.6-6c12.7-3.1,25.2-6.8,38-9.4
		c13.4-2.7,27.1-3.4,40.6,0.2c1.9,0.5,3.9,1,5.8,0.8c11.1-1.2,20.6,3.7,30.3,7.8c4.1,1.8,8.2,3.7,11.2,1.8
		c8.8,4.2,16.5,8.1,24.3,11.5c9.1,4,18.4,7.7,27.5,11.7c1.7,0.8,3.2,2.2,4.5,3.6c4.6,4.5,9.1,9,13.6,13.5
		c8.4,8.5,17.4,16.5,24.8,25.8c8.5,10.6,15.4,22.4,23.1,33.6c4,5.9,5.5,12.3,6.6,19.3c0.8,5.1,4.1,9.8,6.3,14.7
		c4.5-1.4,3.8-4.2,4-6.5c0.9-19.4,1.8-38.9,2.8-58.3c0.2-4.4,0.6-8.7,1.2-13.1c0.5-3.5,1.6-6.7,4.8-9.2c1.9-1.5,2.4-4.8,3.3-7.4
		c0.8-2.3,1.3-4.7,1.7-6.4c4.5-1.4,8.1-2.9,11.8-3.6c3.1-0.6,6.4-0.3,9.7-0.4c3-0.1,6.5,0.7,8.9-0.6c5.6-3.1,9.8-2.4,13.9,2.4
		c1.2,1.3,3.3,1.8,5.5,2.8c3.1-5.2,7.1-4.7,12.7-4.4c8.3,0.5,12.1,3.5,13.5,10.9c8.5,7.9,8.1,18.3,8.1,28.7
		c0,29.2,0.8,58.4,0.1,87.6c-0.6,25-2.7,50-4.1,75c-1.1,19.7-1.7,39.5-3.1,59.2c-0.7,9.9-2.7,19.8-3.8,29.7c-0.9,8-1.2,16-1.7,24
		c-1.7,2.3-4.1,4.6-5.3,7.4c-3.2,7.2-3,7.3-11.6,6c-2,4.4-4.8,7.4-10.7,5.3c-2-0.7-5.4,0.8-7.3,2.3c-5,3.9-9.2,8.8-14.2,12.7
		c-2.7,2.1-6.3,3.2-9.9,4.8c-2.9-1.1-5.2-4.7-9.5-3.1c-1.2,0.4-4-1.8-5.1-3.4c-4.2-5.8-8-11.7-13.5-16.7c-3.2-2.9-3.6-9.7-3.9-14.8
		c-0.5-9.4-0.1-18.9,0-28.4c0.4-22,0.9-43.9,1.2-65.9c0.1-6.4-0.3-12.8-0.8-19.2c-0.3-4.8-0.8-5.3-4.8-8.8c-0.5,2.7-1.1,5.2-1.3,7.9
		c-0.3,4.2-1.9,6.9-5.8,9.2c-5.6,3.2-5.2,8,0.2,11.6c5.1,3.5,5.1,3.9-0.2,7.9c-5.8,4.4-6.4,5.9-5.1,14c-7,2.1-8.9,8.5-11.5,14.5
		c-1.3,3.1-4,5.9-6.5,8.2c-3.4,3.2-6.3,6-4.9,11.4c1.1,4.4-1.8,7.3-5.2,9.5c-1.4,0.9-4,1.5-4.1,2.5c-0.8,6.9-6.8,8.7-10.9,12.6
		c-10.4,10-20.2,20.7-30.6,30.7c-8.1,7.8-15.6,16.3-27.1,20c-5.1,1.6-9.4,5.9-13.8,9.3c-7.5,5.9-16.8,7.2-25.4,10
		c-15,4.9-30.4,8.8-45.8,12.3c-6.3,1.4-13.1,1.9-18.7-3.8c-2.1-2.2-5.7-3-9.2-4.7c0.5-1.4,1.1-3.1,1.6-4.9c-0.3-0.3-0.5-0.9-0.9-1.1
		c-1.8-0.6-3.8-1-5.6-1.7c-6.4-2.3-7.3-6.4-2.2-11c3.3-3,6.7-6,10.6-8.1c6.3-3.5,8.3-8.6,7.8-15.3c-0.8-10.6-1.3-21.1-2.4-31.6
		c-3.2-31-6.6-62-10-93c-0.2-2-1-4-1.8-7.1c-6.6,5.7-11.6,10.5-10.4,18.8c0.5,3.4-0.1,6.4-2.6,9.2c-1.4,1.6-2.3,4.6-1.9,6.7
		c0.9,4.9-0.8,8.6-3.8,12.2c-3,3.6-5.4,7.7-8.1,11.5c-0.6,0.9-1.1,2-1.9,2.8c-11.9,10.7-20,24.3-29.2,37.1c-1.9,2.7-4.2,5.4-6.8,7.3
		c-7.5,5.6-14.7,11.6-20.2,19.4c-0.8,1.2-2.8,1.6-4.3,2.2c-2,0.8-4.1,1.3-6,2c0.8,11-4.7,16.2-15.2,15.5c-2.5-0.2-5.3,0.7-7.7,1.8
		c-4.8,2.1-9.5,4.6-14,7.2c-5.9,3.4-11.7,7.2-17.6,10.6c-7.8,4.5-14.7,10.5-24.3,12c-6.6,1.1-12.8,5-19.2,7.6
		c-2.1,0.8-4.1,1.7-6.3,2.3c-9.9,2.5-19.8,5.5-29.8,7.2c-6.8,1.1-13.9,0.3-20.8,0.2c-2.2,0-4.4-0.7-6.6-0.4
		c-3.8,0.4-6.5-0.9-8.4-4.1c-0.4-0.7-0.7-1.7-1.3-2.1c-8.7-5.5-9.3-15-10-23.5c-2.4-27.7-4-55.5-5.9-83.2
		c-0.4-6.4-1.4-12.7-1.6-19.1c-1.3-34.2-1.9-68.4-3.8-102.6c-1.4-25.9,0.2-51.7,1.3-77.6c0.8-18,3.7-35.9,6-53.8
		c1.1-8.6,0.1-10.5-8.3-11.9c-12.9-2.2-25.8-4.2-39-6.3c-0.9-2.1-1.5-4.3-2.7-6c-3.1-4.4-2.6-8.4-0.4-13.2
		c5.4-12.2,4.3-13.5-9.2-13.4c-25.9,0.2-51.8,0.1-77.7,0.3c-7.2,0.1-14.5,0.6-21.7,1.1c-7.4,0.6-9.6,3-9.4,10.7
		c0.1,5.5,1.1,11.1,1.6,16.6c0.2,3,0.3,6.1,0.1,9.1c-1.4,19.4-2.9,38.8-4.3,58.2c-0.5,7.2,2.6,9.9,10.1,9.2
		c37.2-3.3,74.5-3.4,111.8-3.3c5.3,0,10.6,0.2,15,4.5c-1.3,3.3-2.7,6.5-4.1,10c5.3,5.7,14.4,6.9,17.3,14.8c-0.6,0.7-0.8,1.4-1.3,1.5
		c-16,4.4-31.8,9.1-48.6,10.1c-20.5,1.2-40.9,4.4-61.4,6.7c-8.9,1-17.7,1.8-26.6,2.7c-2.2,0.2-4.4,0.5-6.6,0.9
		c-9.5,1.9-9.4,1.9-11.2,11.5c-0.4,2.1-0.5,5.2-1.9,6.2c-5.8,4-4.5,8.8-2.8,14.2c1.4-0.4,2.7-0.8,5-1.5c0.2,3.5,0.6,6.7,0.6,9.9
		c0.3,24.8,1.6,49.5,7.4,73.7c2.2,9.2,3.6,18.6,5.8,27.7c1,4.3,2.9,8.4,4.8,12.5c0.8,1.8,2.6,3.1,4.7,5.4c5.4-7,10.1-13.1,14.8-19.2
		c4.2-5.5,8.2-11.2,12.7-16.5c1.9-2.2,4.7-3.7,7-5.5c0.9-0.7,2.3-1.1,2.6-1.9c3-7.8,10.9-8.7,17-12.1c2.6-1.4,6.2-0.9,9.8-1.2
		c0.8,7.7-0.7,14.7,2.4,22.1c3.9-3.7,7.3-6.9,11.1-10.4c4.1,5.5,3.1,10.1,1.3,14.9c-3.6,9.9-3.8,11.9-2.4,19.2
		c2.5-0.6,4.9-1.3,8.3-2.2c-1.8,3.4-3.4,6-4.5,8.7c-0.7,1.7-1.4,4.1-0.7,5.4c2.6,4.5-0.7,6.8-3.1,9.3c-6.5,6.5-12.9,13-19.8,19
		c-3.5,3.1-7.8,5.3-11.8,7.8c-1.6,1-3.7,1.6-5.1,2.9c-11.9,12-28.1,16.5-42.3,24.5c-14.6,8.3-30.8,7.8-46.7,1.2
		c-7.2-3-14.3-5.9-20.9-10.2c-12.7-8.5-20.2-20.6-25.1-34.4c-8.4-23.4-13.5-47.6-16.8-72.2c-1.6-11.6-3.1-23.3-3.2-34.9
		c-0.4-34.2-0.6-68.5,0.3-102.7c0.7-27,3.4-53.9,4.7-80.8c0.4-7.7-0.1-15.7-1.4-23.3c-1.8-10.3-5.8-12.6-16.1-12.9
		c-8.9-0.2-17.7-1.2-26.6-1.8c-3.3-0.2-6.6,0-10.4,0c-0.2-2.3-0.4-4.3-0.6-6.7c-0.8,0.2-1.8,0.2-2.2,0.7c-3.9,4.3-4.5,9.9-3.8,14.9
		c0.6,4.6-0.9,7.2-4.4,8.7c-5,2.1-6,6.1-6.1,10.8c-0.1,2.8-0.7,5.6-0.3,8.3c1,8-1.9,15.5-2.4,23.2c-0.3,4.5-2.4,8.8-3.4,13.3
		c-0.4,1.6-0.1,3.3-0.1,5.7c1.7-0.6,2.8-1,4.3-1.5c0.2,0.7,0.8,1.7,0.5,2.1c-4.3,6.4-1.2,15.2-7.3,21.1c-1.2,1.1-1.2,3.7-1.3,5.6
		c-0.3,4.1-0.7,8.3-0.3,12.4c0.2,2.4,3.3,5,2.7,6.7c-0.6,2-4,3-5.9,4.8c-0.9,0.8-1.2,2.6-1.2,3.9c-0.2,11.3-0.3,22.5-0.4,33.8
		c0,1.4-0.4,3,0.2,4c5.6,9.8,3.5,20.8,5.4,31.2c0.1,0.5-0.4,1-0.7,2c-1.5,0.2-3.3,0.5-5.7,0.8c1.5,2.5,2.7,4.6,4.1,7
		c-8.1,6.3-6.9,13.8-3.6,21.8c3,7.2,5,14.8,4.1,22.6c-0.7,5.4,5.6,10.4,1.9,15c-3.8,4.7-3.1,9.9-4.3,14.9c-0.7,3-0.1,6.3,1.3,9.9
		c0.8-1.2,2.3-2.5,2.1-3.7c-0.7-5.8,2.2-10.7,3.3-16.1c0.8-3.8,1.1-7.6,1.2-11.5c0.2-5.4-1.2-11.1,4.7-15c1.3-0.9,1.2-4,1.6-6.2
		c0.4-2,0.6-4,1.5-6c3.9,7.7-2.5,16.3,3.1,24.4c3.3-5.3,1.7-10.6,2.1-15.6c0.4-4.6,1-8.8,6.5-11.2c0.9,1.8,2.1,3.3,2.5,5.1
		c2.2,8.3,3.1,16.9,5.1,25.2c4.6,20,1.4,39.9,1.7,59.8c0.2,13.5,0.4,27.1-0.5,40.7c-1.2,19.1-2,38.4-6.5,57.2
		c-0.8,3.5-1,7.2-1.3,10.7c-1.2,11-6.2,22.2-23.4,25.3c-14.1,2.5-27.9,7.1-41.9,10.7c-7.5,1.9-15.1,3.9-22.7,5.4
		c-20,4-30.4-3.2-38.8-19.5c-9.5-18.2-19-36.6-26.6-55.6c-3.7-9.4-8.8-17.7-13.2-26.6c-4.4-8.9-6.6-18.8-9.9-28.3
		c-5.9-17.1-11.9-34.1-17.9-51.2c-0.6-1.8-1.7-3.4-2.6-5C613.2,800.4,612.4,800.3,611.7,800.2"/>
	<path class="st1" d="M2032.3,680.4c0.7-2.7,2.3-5.7-1.6-7.6C2027.3,676.4,2030.3,678.3,2032.3,680.4 M2017.1,499.8
		c4.8-4.2,4.6-6.7,0-10V499.8z M2017.8,521.5c4.9-5.3,4.8-5.3-1.7-8.6C2016.8,516.3,2017.3,518.9,2017.8,521.5 M2025,713
		c-0.7,0.1-1.5,0.2-2.2,0.3c0.5,5.6-0.6,11.5,2.3,16.8c0.6-0.1,1.1-0.1,1.7-0.2C2026.2,724.3,2025.6,718.6,2025,713 M2202.4,693.5
		c1.3-8.4-1.1-16.2-4-23.7c-4.5-11.9-11.2-22.3-20.7-30.9c-6.5-5.9-10.8-3.8-14,4.9c-3,8.2-5.1,16.8-7.7,25.2
		c-4.2,13.3-7.3,26.8-7,40.9c0.2,12.7,0.2,25.5,0.9,38.2c0.2,3.7,1.8,7.6,3.5,11c2.1,4.1,4.9,4.8,9.1,2.6c2.9-1.5,5.8-3.5,8.1-5.8
		c5.4-5.6,11-11.1,15.6-17.4C2196,725.2,2204.5,711.1,2202.4,693.5 M2269.8,708.8c1,5.2-1.6,11.2,3.5,15.7c0.5,0.4-0.7,3.6-1.9,4.9
		c-1.6,1.7-3.9,2.8-6.1,4.3c0.5,1.5,0.6,2.6,1.1,3.5c3.3,6.5,3.3,6.3-4,8.2c-1.7,0.4-3.5,1.6-4.7,3c-10.5,11.5-21.5,22.5-29.9,35.8
		c-1.3,2-3.2,4.1-5.3,5.1c-7.7,3.5-15.2,7.7-24,8.6c-4.3,0.4-8.5,2.3-12.5,4.1c-16.5,7.4-33,14.9-51.9,12.5
		c-5.5-0.7-11.1-0.4-16.6-1.2c-7-0.9-13.2-3.8-18.6-8.7c-2.8-2.5-6.6-4.1-10.2-5.5c-4.4-1.7-7.6-4.4-9.9-8.4
		c-2.9-5.1-5.9-10.1-8.8-15.2c-6.8-11.8-9.3-24.9-11.3-38.1c-0.6-3.8-1.1-7.7-2-11.4c-0.7-3-2.4-5-6.6-4c0,2,0,4.1,0,6.2
		c0.2,8.8,0.4,17.7,0.5,26.5c0,1.3-0.2,2.8-0.8,4c-4.3,10.1-3.7,19.8,0.9,29.8c2.8,6,4.6,12.5,6.5,18.9c1.8,6.2-1.3,14.7-6.8,17.4
		c-2.5,1.2-5.8,0.8-8.8,0.7c-2.1-0.1-4.3-1.1-6.4-1.3c-6.9-0.6-7.2-0.6-7.3,6.2c-0.1,3.6-1.5,5.2-4.7,5.7c-5,0.7-9,2.7-11.4,7.3
		c-0.2,0.5-0.7,0.8-1.2,1.2c-5.6,4.2-21.9,4-27.6-0.3c-1.1-0.8-2.1-2.2-3.3-2.5c-7.9-1.7-10.5-8.3-13.7-14.4
		c-17.3-32.7-35.1-65.2-51.9-98.1c-8.1-15.8-14.8-32.4-21.8-48.7c-8.6-19.9-16.8-40-25.3-59.9c-1.1-2.6-2.8-5-4.2-7.4
		c-0.7,0.1-1.3,0.3-2,0.5c-0.3,2.3-1,4.6-0.8,6.9c1.1,16.7,2.8,33.3,3.4,49.9c0.4,9.8,1.9,19.2,4.9,28.6c1.7,5.1,1.4,10.9,2,16.4
		c2.1,18.3,4.1,36.5,6.2,54.7c1.4,12.4,1.3,25,5.6,37c0.8,2.3,1,4.9,1,7.4c-0.2,9.5-0.4,18.9-1,28.4c-0.3,5.3-8.4,12.9-13.8,13.5
		c-7.8,0.8-7.8,0.8-12.7,5.1c-1.7-0.9-3.6-1.9-4.4-2.3c-5.3,2.6-9.8,4.5-14,6.9c-4.3,2.4-8.1,5.7-12.5,7.8
		c-7.3,3.6-14.3,2.5-20.7-2.8c-2.5-2.1-5.5-3.5-8.1-5.5c-1.7-1.3-3.8-2.7-4.4-4.5c-1.5-4.4-3.3-9.1-3.1-13.7
		c1.5-36.2-4.7-71.7-9.6-107.2c-5.4-38.9-10.3-77.7-10.7-117.1c-0.2-23.1-1.7-46.1-2.5-69.2c-0.2-6.7-0.3-13.4,0-20
		c0.1-2.6,0.9-5.9,2.6-7.6c4.3-4.3,5.8-9.5,6.2-15.1c0.4-5.4,3.3-8,8.1-9.1c1.4-0.3,2.7-0.7,4-1c4.2-0.9,6.4-3.5,6.1-7.7
		c-0.6-8.5,4.8-15.3,6.7-23.1c0.5-2,3-4.4,5.1-5.1c6-1.9,11.7-5,18.4-4.2c4.9,0.6,9.9,0.5,14.8,1.1c1.8,0.2,4,0.9,5.1,2.2
		c2,2.4,3.6,4.1,6.9,2.8c3.6-1.4,5.4-3.7,5-7.6c-0.1-0.5,0.4-1,0.8-2c4.6-1.4,9.3-0.2,13.2,2.4c3.5,2.4,6.9,3.3,10.9,3.2
		c6.1-0.2,11,2.4,14.4,7.1c6,8.4,12.4,16.6,17,25.7c10.9,21.6,21.1,43.5,30.9,65.6c4.5,10.1,7,21.1,10.6,31.6
		c1.9,5.7,4.3,11.3,7.2,18.7c3.3-5.5,3.7-9.3,3.6-13.4c-0.4-17.5-1-35-1.1-52.5c0-10.2,1.1-20.4,1.1-30.6c0-6.6-1.4-13.3-1.6-20
		c-0.2-5.8,0.4-11.6,0.6-17.3c0.1-1.7,0.5-3.4,0.1-4.9c-1.7-5.8-2-11.3,0.7-17c1-2-0.1-5.5-1.1-8c-3.4-8-3.2-16.3-2.6-24.7
		c0.4-5.2,0.7-10.3,1.1-16.7c3.2-1.8,7.1-5,8.2-10.8c0.7-3.7,3.9-4.9,7.8-4.6c3.5,0.3,7.1-0.1,12.3-0.2c-0.1-0.1,0.9,1.1,1.7,2.5
		c3.1,5.2,4.1,5.4,8.3,0.8c0.6-0.6,1.1-1.2,2.3-2.6c2.4,1.6,5.3,2.7,7.1,4.8c2.9,3.6,5.8,3.8,9.4,1.6c3.9-2.4,7.2-2.2,10.1,1.8
		c0.8,1,2.3,1.5,3.4,2.3c6.7,4.3,6.3,4.9,4.5,12.8c-1.3,5.8-0.5,12-0.5,18.1c0,5.8,0.1,11.6,0.1,17.5c0,1.3-0.4,3.3-1.3,3.8
		c-5.4,3.1-5,8.4-5,13.3c-0.1,7.4-2.1,14.6-0.4,22.2c1.1,5.1-0.9,11-2.2,16.4c-1.5,6.6-1.5,12.1,5.9,15.2c1.7,0.7,3.5,3.1,4,5
		c2.7,11.6,5.6,23.2,7.2,35c1.2,8.7,0.4,17.6,0.7,26.5c0.1,3.9,0.8,7.7,1,11.6c0.2,3.6,1.3,7.6,0.1,10.7c-2.1,5.5-1.9,10.8-1.5,16.3
		c0.5,7.5-3.3,10.4-10.5,8.6c-5.5,10.3-1.8,20.5,0.3,30.6c0.8,3.9,3.3,4.3,6.9,1.9c2.1-1.3,2.8-5.4,6.6-3.5
		c3.5,22,3.5,23.2-1.9,30.2c-2.8-1.9-5.7-3.9-8.8-6c-2.8,5.3,1.4,8.9,1.6,13.1c2.8-0.9,5.9-3.1,7.7-2.3c2.7,1.1,4.5,4.3,6.1,6.1
		c-1.1,4.6-6.5,5.8-4.5,10.9h9.5c3-12.9,5.6-25.7,9.1-38.3c3.6-13.1,7.8-26,12-38.9c2.3-6.8,4.7-13.7,8-20.1
		c6.2-12,13.3-23.7,19.8-35.6c2.9-5.4,5.6-10.9,8-16.5c7.7-17.6,18.4-33.5,28.3-50c1.9-3.3,4.9-6.1,7.9-8.5
		c3.6-2.8,5.2-6.2,6.1-10.5c1.9-8.8,5.4-16.3,15.7-18c1.9-0.3,3.8-2.2,5.3-3.7c4.1-4.2,7.9-8.5,12.3-13.3c6.9,5.4,15.6,5.8,24.2,6.7
		c4.6,0.5,9.1,1.8,13.5,3c1.2,0.3,3,1.3,3.2,2.3c0.8,4.2,4,5.1,8,5.6c-1,2.2-1.4,3.8-2.3,5.1c-2.4,3.4-3.4,6.9-1.7,11
		c1.2,3,0.1,5.2-2.6,7.1c-3.4,2.3-6.5,5.1-9.8,7.7c-3.6,2.9-7,5.9-4,11.2c0.3,0.6,0.3,1.8-0.1,2.4c-5.7,9.1-6.5,20.3-13.6,29
		c-6.1,7.4-10.5,16.2-12.3,25.9c-1.1,6.1,0.8,8.1,7,7.8c19.4-1,38.9-1.7,58.3-2.9c27.8-1.7,55.5-3.8,83.3-5.3
		c18-1,36.1-1.8,54.2-1.5c20,0.4,39.9,2.2,59.9,3.3c1.9,0.1,3.9,0,5.8-0.4c9-1.6,17,1.7,25,5c1.4,0.6,2.4,2.1,3.3,3.5
		c1.7,2.4,3.2,5,5.1,7.9c-1.3,7.9-1.3,7.9,8.3,12.8c-6.9,5.4-14.6,8-22.9,8.3c-18.6,0.7-37.3,0.7-55.9,1.4
		c-17.5,0.7-35,1.7-52.5,2.8c-16.9,1-33.9,2.4-50.8,3.5c-17.5,1.1-35,2.1-52.5,3.2c-1.6,0.1-3.3,0.4-4.9,0.9
		c-4.3,1.4-8.7,2.8-7,10.6c-5.1-4.6-8.5-9.3-15.1-6.4c0.5,1.7,0.5,3.6,1.5,4.7c4.1,4.9,7.3,10.3,10.2,16c1.1,2.2,4.9,3,8,4.7
		c1.2,5.1-2,11.7,3.7,18c0.6-2.9,1-4.5,1.2-6.2c0.4-2.6,0.8-5.2,4.3-4.8c2.3,0.3,4.5,5.1,2.7,6.8c-4.3,4.1-1.7,8.9-2.4,13.3
		c-1,6.1,0.6,11,5.4,14.9c0.8,0.6,1.2,1.8,2.2,3.5c-2.6,1.5-5,2.8-7.3,4.1c-2.5-4.2-2.5-4.2-4.9-1.8c0.4,0.4,0.6,1.1,1.1,1.1
		C2267.1,708.6,2268.5,708.6,2269.8,708.8"/>
	<path class="st1" d="M592,1136.2c3,7.3,3.3,7.5,11.2,7C601.4,1138.3,597.5,1137.1,592,1136.2 M496.6,1286.7
		c-8.6-6.4-8.9-10.2-2.6-16.2c5.1-4.7,10.3-9.3,15.1-14.3c4.6-4.8,9.4-9.7,12.8-15.3c5.8-9.4,10.5-19.6,15.9-29.3
		c4.3-7.6,5.7-15.5,3.8-24.1c-0.5-2.4-0.5-5-0.5-7.5c0.2-7.5-3.6-12.9-9.4-16.7c-5.6-3.6-11.6-6.5-17.7-9.2
		c-20.5-9-42.5-13.1-64.3-17.6c-4.8-1-10-1.5-14.9-1.1c-6.6,0.5-8.5,3.3-8.5,9.9c0.2,21.7,0.3,43.4,0.4,65c0,6.4,0.2,12.8,0.1,19.1
		c-0.4,16.6-1,33.2-1.2,49.8c0,3,0.7,6.2,1.9,8.8c1,2.1,3,4.4,5.1,5.1c12.3,4,24.4,4.3,36-3c5.1-3.2,10.2-6.6,17.2-5.8
		c1.1,3,2.6,5.7,2.9,8.6c0.8,6.8-7.9,6.2-9.8,12.1c2.9,2.3,5.7,5.1,9,6.9c7.8,4.3,15.7,8.3,23.7,12.2c10.2,5,21,9.1,30.8,14.8
		c11.4,6.7,22.1,14.7,33.1,22.2c1.8,1.2,3.6,2.6,5.5,3.8c10.5,6.7,21,13.4,31.6,19.8c6.4,3.9,12.8,7.9,19.6,10.9
		c6.9,2.9,9.2,0.6,8.1-7c-1.4-9.6-2.4-19.3-4.3-28.9c-3.5-17.9-3.8-36.5-10.3-53.9c-1.7-4.5-2.7-10.2-1.5-14.7
		c2.2-8.8,0.3-17.2-0.6-25.6c-1.8-16.6-4.8-33-7.4-49.5c-0.6-3.8-1.6-7.7-2.8-11.3c-2.1-6.6-4.7-7.3-10.1-2.5c-2.3,2-4,4.6-5.7,6.7
		c-7.5-3.4-9.6-3-14.5,2.4c-1.5,1.6-3,3.3-4.2,5.2c-1.9,3-4.4,5-8.1,5.2c-4.6,0.3-7.1,3.1-8.1,7.2c-1.3,5.1-2.7,9.7-9.3,10.2
		c-1.3,0.1-2.7,1.8-3.8,3c-7.8,8.1-15.5,16.3-23.4,24.4c-1.7,1.8-3.7,3.7-5.9,4.5c-4.6,1.7-10,1.8-14,4.4
		C502.6,1278,500,1282.7,496.6,1286.7 M361.4,1080.8c3.2-3.2,1.9-9.3,7.3-8.9c6.2,0.4,12.3-2.7,18.7,0.3c3.3,1.6,7.5,1.7,11.2,1.6
		c5.6-0.1,11,0.7,14.6,4.9c6,6.9,14.1,9.4,22.2,10.5c18.1,2.6,36.3,5.4,54.8,3.3c6.6-0.7,13-0.1,19.1,4.1c3.9,2.7,9.2,3.5,14,4.9
		c15.7,4.6,31.6,8.7,47.2,13.6c8.2,2.6,16,6.2,23.8,9.7c2.1,1,3.6,3.4,5.2,5.3c4.7,6.2,10.3,8.5,18.2,6.2c5.6-1.6,11.2-3.7,17.7-2.2
		c4.5,1,9.8-1.1,14.5-2.5c11.9-3.5,23.9-6.4,36.4-6.6c15.5-0.2,31.1-0.5,46.6-1.5c18-1.1,36-2.9,54.1-4.4c1.9-0.1,3.9,0,5.8,0.3
		c7.9,1,15.9,1.7,23.9,2c17.1,0.5,34.2,2.9,51.4,4.5c4.4,0.4,8.3,1.4,9.6,6.4c0.2,0.8,0.7,1.5,1.3,2.1c2.3,2.7,5.3,5,7,8
		c1.6,2.8,1.8,6.3,2.8,10.2c-5.9,2-11.7,4.4-17.8,5.7c-4.5,1-9.3,0.8-14,0.9c-3.6,0-7.2-0.7-10.8-0.5c-23.3,1-46.7,1.7-69.9,3.4
		c-15.5,1.1-31,3.5-46.4,5.6c-8.6,1.1-10.4,3.9-6.8,11.8c7.4,16.5,10.1,34,12.3,51.7c0.4,3,0.9,6.1,1.5,9.1
		c1.4,6.8,3.6,8.4,10.4,7.8c5.3-0.5,10.5-1,15.8-1.2c7.9-0.3,9.2,0.9,9.8,8.7c0.1,0.8-0.2,1.7-0.1,2.5c0,0.5,0.3,1.1,0.5,2.1
		c7,2.1,15.5-1.3,22.2,4.7c-0.2,4.5-3,7.6-6.8,9.3c-8.6,3.8-17.4,7.2-26.1,10.8c-4.9,2-9.8,4-14.6,6.1c-4.6,2-6.7,5.7-6.4,10.7
		c0.4,5.3,0.8,10.5,1.3,15.8c1.3,14.4,3.2,28.8,3.9,43.2c0.7,15.5,0.2,31,0.2,46.5c0,4.6-1,9.6,4.5,12.9c1.3-0.9,2.8-1.6,3.9-2.8
		c1.2-1.1,2.1-2.6,3-3.9c3.8,1.4,6.7,2.6,9.9,3.8c0.7,3.4,1.4,7,2.1,10.6c7.1,0.2,8.9-6.2,13.5-9.1c0.6,6,1.1,11,1.7,16.8
		c3.4-0.9,5.6-1.5,7.7-2c0.4,0.7,0.7,1,0.6,1.2c-1.8,9.9-14.2,27.8-22.8,32.5c-3.8,2.1-7,4.2-8.1,8.9c-0.4,1.7-2.6,3.6-4.4,4.4
		c-5.1,2.2-9.5,5-13.6,9.1c-3.2,3.3-8.9,4.1-13.4,6.1c-7.3,3.3-14.8,6.2-21.8,10c-8.5,4.7-18.5,4.5-26.7-1.1
		c-5.5-3.8-11.1-7.3-16.9-10.7c-5.4-3.1-8.4-8-10.8-13.4c-0.5-1-0.7-2.1-1.1-3.2c-3.8-11.6-3.8-11.8-15.6-11.3
		c-29.1,1.2-57.1-5-84.5-13.5c-14.4-4.5-29.1-9.2-42-18c-5.1-3.5-12.4-4.2-17-8.1c-17.4-14.6-38.5-23.4-56.5-36.9
		c-3.1-2.3-7.4-3.2-12.3-5.3c-0.7,4.2-1.6,7-1.6,9.9c0,26.1,0.1,52.3,0.2,78.4c0,6.1,0.5,12.2,0.5,18.4c0,3.8,0.3,7.8-3.9,10.3
		c-1.2,0.7-1.6,3.2-1.9,5c-0.6,3.2-0.7,6.5-1.6,9.6c-3,10.8-3.1,10.8-13.9,11.2c-5.1,8.5-5.4,8.6-17.8,6.3c-0.6,0.5-1.5,0.9-1.8,1.5
		c-2.8,5.8-6.1,9.4-13.6,6.3c-4.4-1.9-6.2,0.1-7.4,5.7c-0.7,3.6-2.4,6.2-6.2,7c-4.9,1.1-9.7,2.4-14.6,3.4c-4.1,0.8-7-0.8-8.7-4.7
		c-2-4.6-3.8-9.2-6-13.6c-1.1-2.3-2.9-4.2-4.7-6.8c-2.2,2-3.5,3.2-4.8,4.4c-0.4-0.6-1-0.9-1-1.4c-0.7-7.7-1.8-15.4-2.1-23.2
		c-0.4-10.3,0-20.5-0.3-30.8c-0.3-10.6-1.3-21.1-1.7-31.6c-0.5-14.2-0.8-28.3-1.1-42.5c-0.1-3.6-0.1-7.2-0.1-10.8
		c-0.1-15.3,0-30.5-0.5-45.8c-0.2-8-1.5-16-2.3-24c-0.1-1.1-0.7-2.3-0.4-3.3c3-11.6,1.5-23.3,1.2-34.9c-0.5-20.9-1.4-41.7-1.7-62.6
		c-0.1-9.4,0.3-18.9,1.2-28.3c1.5-15.3,0.9-30.6-1.1-45.8c-0.5-3.6-2.7-5.1-6.3-5.3c-5.2-0.3-10.5-0.8-15.7-1.7
		c-5.9-1-7.3-3.6-6.5-9.4c1.2-7.9,4.4-14.1,12.1-17.7c4.2-2,8.5-4.6,11.6-7.9c3.3-3.5,6.8-8,7.5-12.4c1.7-10.3,6.9-16.2,16.7-19.1
		c5.2-1.5,9.9-3.9,15,0c1,0.7,2.9,1.3,3.9,0.9C352,1076.9,356.9,1078.1,361.4,1080.8"/>
	<path class="st1" d="M2490.4,1132.7c-0.4-0.3-0.8-0.9-1.1-0.9c-0.4,0-0.8,0.6-1.1,0.9c0.5,0.4,1,0.8,1.4,1.2
		C2489.9,1133.6,2490.1,1133.2,2490.4,1132.7 M2494.2,1126.4c-0.5-0.6-1-1.2-1.6-1.6c-0.1-0.1-0.8,0.5-1.2,0.8
		c0.4,0.6,0.8,1.2,1.3,1.7C2492.9,1127.4,2493.6,1126.8,2494.2,1126.4 M2234.1,1153.6c1-4.9,1-4.9-1.6-8
		C2231.3,1149.7,2231.3,1149.7,2234.1,1153.6 M2208.2,1071.6c0.2-5.3-1.5-8.7-4.8-9.1c-1.2-0.2-2.9,0.4-3.6,1.3
		c-0.6,0.8-0.6,2.8,0,3.7C2201.7,1070.3,2204.6,1071.7,2208.2,1071.6 M2491.6,1161.1c6.2-2.9,7.3-7,6.7-11.5
		c-0.2-1.3-2.2-2.4-3.4-3.7c-1.1,1.3-2.9,2.6-3.1,4.1C2491.3,1153.1,2491.6,1156.5,2491.6,1161.1 M2222.8,1126.5
		c1.4-1.9,2.5-2.7,2.4-3.4c-0.6-5.1-1.4-10.1-2.4-15.2c-0.4-2.3-1.5-4.7-4.2-3.5c-1.1,0.4-1.8,3.2-1.6,4.7c0.7,4.3,1.9,8.5,3,12.7
		C2220.4,1123,2221.4,1124,2222.8,1126.5 M2198.2,1052.4c1.7-8.3-3.6-18.2-12.5-22.3C2189.2,1038.6,2189.8,1047.4,2198.2,1052.4
		 M2168.6,1200.2c-1.1-14.6-1.8-28-3.1-41.3c-0.6-6.3-2.4-12.6-3.9-18.8c-2.5-9.7-5.2-19.3-7.8-28.9c-0.6-2.1-1.2-4.3-2.2-6.2
		c-1.3-2.4-2.6-5.1-6.1-4.8c-3,0.2-6.6,3.8-7.2,7.1c-0.8,4-1.1,8.3-2.7,12.1c-4,9.7-6.5,20.1-13,28.8c-3.1,4.1-6.2,9.3-6.5,14.1
		c-0.4,8.3-5.5,16.5-0.9,25.1c0.7,1.2-0.2,3.3-0.3,4.9c-0.1,3.3-0.4,6.7,0,9.9c1.4,11.4,4.4,21.9,10.9,32c3.5,5.4,6.6,9.9,12.2,12.8
		c5.5,2.8,6.6,2.8,10.7-2.1c8.5-10.1,14.5-21.7,17.9-34.5C2167.6,1206.6,2168.1,1202.8,2168.6,1200.2 M2335.7,1140.8
		c-0.3,3.1-0.8,4.9-0.6,6.6c2.1,14.6,4.5,29.1,6.5,43.7c0.7,5.2,0,10.6,0.7,15.7c1.4,10.1,3.4,20.2,5.2,30.3
		c1.8,9.5-0.6,19.8-14,22.3c-1.8,0.3-3.5,1.6-5.2,2.5c-6,3.2-12,6.5-17.6-1.1c-5,5-9.6,9.5-13.1,13.1c-7.2-0.5-13.1-1.1-19.1-1.3
		c-4-0.1-7.9,0-10.5-3.8c-0.4-0.6-1.3-1.2-2-1.4c-8.9-1.9-11.6-8-12.2-16.5c-0.3-4.1,0.7-9.7-5.2-13.2c-4.7,8.2-9.9,15.8-13.7,23.9
		c-2.7,5.9-6.6,10.5-12,13.4c-9.8,5.2-20,9.5-30,14.3c-3.5,1.7-6.9,3.4-10.2,5.4c-6.7,4.1-13.5,7.7-21.8,7c-1.6-0.1-3.4,0-4.9,0.6
		c-12.8,5.5-25.7,4.9-39.2,2.3c-10.7-2.1-21.1-4.5-31.4-8c-18.3-6.2-30.7-19.5-41.9-34.4c-10.2-13.5-13.3-29.8-16.6-45.8
		c-5.2-25.7-0.1-50.4,7.3-74.8c2.4-7.9,6.7-15.2,10.4-22.7c8.9-17.9,17.8-35.9,27-53.6c3.3-6.4,7.2-12.6,14.8-15.2
		c1.5-0.5,2.7-1.9,3.8-3.2c5.2-5.8,10.5-11.5,15.5-17.4c5.4-6.4,5.1-8.1-1.9-12.2c-2.9-1.7-6-2.9-9-4.4c-2.5-1.2-5-2.4-7.3-3.8
		c-12.6-7.5-8.5-11.1-4-21.2c0.5-1.1,1.9-2.3,3.1-2.6c6.2-1.8,12.5-4.5,18.8-4.5c8.2,0,16.4,2.4,24.6,3.5c2.2,0.3,4.6-0.8,6.9-1.1
		c2.6-0.3,5.8-1.4,7.8-0.4c9.6,4.9,19.3,9.4,27.6,16.8c8.6,7.7,13.5,17.6,19.9,26.6c6.5,9.3,12.1,19.2,18.1,28.9
		c0.7,1.2,1.7,2.5,1.7,3.7c0.2,8.4,5.5,14.3,9.5,21c2.8,4.7,4.8,10,7.1,15c1.3,2.9,2.6,5.8,4,8.7c0.7-0.1,1.4-0.1,2.1-0.2
		c0.5-1.9,1.4-3.8,1.4-5.7c-0.1-10.3-0.1-20.6-0.6-30.9c-1.4-25.6-1.7-51.2,0.8-76.7c0.7-7.3,3.9-14.4,6-21.5c0.2-0.8,0.4-1.8,1-2.2
		c5.8-4,8.5-9.9,10.5-16.3c0.3-0.9,1.3-2,2.2-2.3c6.1-1.8,12.2-3.7,18.4-4.9c4.5-0.8,9.4,0.5,13.7-2.6c1.1-0.8,3.2-0.2,4.8-0.2
		c6-0.2,12.3-1.5,18-0.3c6,1.2,11.7,2.2,17.8,2.9c8.2,0.8,16.9,3,21.3,12.1c6.5,13.3,12.3,26.7,16.8,40.9
		c3.4,10.8,8.4,21.1,12.5,31.7c2,5.2,3.4,10.6,5.6,15.7c6.3,14.8,12.7,29.7,19.4,44.3c4.3,9.3,9.2,18.4,13.8,27.6
		c0.6,1.2,1.1,2.7,2.1,3.6c0.9,0.8,2.4,1.3,3.5,1.2c0.7-0.1,1.8-1.5,1.9-2.3c0.2-2.5,0.3-5,0-7.5c-1.9-17.7-3.3-35.5-6.1-53.1
		c-4.3-27.2-9.4-54.3-14.6-81.3c-3.9-20.5-8.5-40.8-12.4-61.2c-2.3-11.9-1.1-23.8,1.8-35.6c0.5-1.8,1.2-3.9,2.4-5.3
		c4.4-5.2,9.1-10.2,13.7-15.1c7-7.5,15.4-8.9,25-5.8c4,1.3,8,2.4,12.1,3.1c6.9,1.1,11.3,6,16.5,9.8c2,1.5,4.8,2.2,7.4,2.4
		c3,0.3,6.2-0.5,8.4,4.2c-2.9,2.4-5.8,5.2-9.1,7.4c-6.3,4.1-8.5,9.7-8.6,17c-0.2,10.9,0.7,21.5,4.7,31.7c1.3,3.3,1.6,6.4,0,9.6
		c-2.3,4.6-0.8,8.6,2.4,12.2c2.4,2.7,4.6,5.6,6.8,8.4c0.8,1.1,1.9,2.2,2.1,3.5c1.7,9.2,3.2,18.5,4.7,27.7c0.3,1.9,0,4.1,0.8,5.7
		c1.8,3.9,0.7,6.9-1.6,10c-2.7,3.6-3.1,7.5-1,11.8c3,6,3.9,12.6,4.2,19.2c0.1,3.1-1.3,6.3-1.7,9.4c-0.4,3.8-1.2,7.9,4.4,9.2
		c1,0.2,2.1,2.5,2.2,4c1.5,12.1,2.7,24.2,4,36.3c0.1,1.4-0.3,3,0.3,4.1c5.9,11.9,5.7,24.6,5.7,37.4c0,3.3,0,6.9,1,9.9
		c2.9,8.4,2.4,16.7,0.2,26c-2.2-2-4.1-3.7-6.6-6c-1.2,5.6-3.6,10.3-3.2,16c0.4,6.1,0.4,12.2,0.4,18.4c0.1,5.8,0,11.6,0,17.3
		c6,1.6,5.9-5.2,11-5.6c0.2,2.9,0.1,5.8,0.8,8.6c0.6,2.2,1.8,5.6,3.4,5.9c4.5,1.1,5.5,4,6.4,7.7c1.7,7,3.6,14,5.3,21
		c0.5,1.9,0.8,3.9,0.7,5.8c-0.2,5.9-3.5,8.8-10.4,9v8c-8.8,0.6-17.3,1.1-24.1,7.2c-1.1,1-3.1,1-4.6,1.6c-2.5,1.1-5.2,2.1-7.3,3.8
		c-3.2,2.6-5.8,6-10.6,5.8c-6.2-0.3-12-1.3-17.5-4.6c-11-6.8-17.8-17.4-25.1-27.5c-7.6-10.6-15.1-21.2-22.4-32
		c-13.6-20-27.1-40-40.4-60.2c-6.1-9.3-11.7-18.9-17.7-28.3C2338.7,1143.3,2337.6,1142.5,2335.7,1140.8"/>
	<path class="st1" d="M1827.5,1010.8c0.3,0.2,0.7,0.5,1,0.8c0,0,0.5-0.4,0.5-0.5c-0.1-0.4-0.4-0.8-0.6-1.2
		C1828.1,1010.1,1827.8,1010.4,1827.5,1010.8 M1511.6,1115.9c-0.3,2.4-0.6,3.7-0.6,5c0.1,6.4,0.3,12.8,0.3,19.1
		c0,6.7-0.3,13.3-0.2,20c0.2,8.9,0.6,17.8,1,26.6c0.3,6.4,0.5,12.8,1.3,19.1c0.8,5.9,3.3,7,8.6,4.6c9.8-4.4,17.9-11.1,24.4-19.6
		c4.4-5.7,8.4-11.7,12.5-17.6c5.8-8.3,5.9-17.6-0.6-25.3c-10.7-12.6-24.1-22.1-38.6-29.9C1517.5,1116.7,1514.7,1116.6,1511.6,1115.9
		 M1580.3,1067.5c2.8,2,5.6,4,8.5,5.9c4.2,2.7,8.4,5.2,12.6,7.8c1.4,0.9,2.7,2,4,3c10.3,7.6,21,14.6,30.7,22.9
		c11.3,9.8,19,22.6,24,36.6c3.1,8.8,2.5,17.7-6.3,23.9c-1.5,1.1-2.8,2.8-3.5,4.6c-3.6,9.6-11.7,14.5-20.1,19.1
		c-2.8,1.6-5.4,3.6-8,5.5c-1.6,1.1-2.8,2.8-4.5,3.7c-6.6,3.4-11.7,8.3-15.5,14.8c-0.9,1.6-2.5,3.3-4.2,3.8
		c-10.6,3.4-18.5,12.6-30.1,13.9c-1.3,0.1-2.7,1-3.6,2c-5.8,6.4-13.6,6.5-21.3,7.3c-6.4,0.7-12.7,1.7-17.9,6.1
		c-0.9,0.8-2.5,1.2-3.8,1.4c-6.9,0.9-7.4,0.8-8.3,7.5c-0.9,6.9-1.1,13.9-0.9,20.8c0.6,18.1,1.6,36.1,2.4,54.2
		c0.4,8.9,0.9,17.7,1.4,26.6c0.2,3.1-0.2,5.5-3.9,6.2c-1.2,0.2-3,0.9-3.4,1.8c-1.6,3.3-4.2,4.7-7.5,6.1c-1.8,0.7-2.8,3.2-4.2,4.9
		c-4,0.2-8.1,1-12.2,0.6c-5.5-0.6-9,2.3-11.5,6.2c-4.3,6.6-10.5,6.7-17.4,6.9c-8.4,0.2-15.8-0.7-21.1-8c-0.1-0.2-0.5-0.3-0.7-0.4
		c-11.2-1.1-13.5-9.7-14.6-18.5c-2.3-17.7-4.3-35.4-5.8-53.1c-1.1-12.7-1-25.6-1.8-38.4c-0.6-11.4-2.2-22.6-11-31.8
		c9.1-7.7,9.3-17.9,9.1-28.3c-0.7-26.7-1.4-53.4-1.7-80.1c-0.1-10,1.3-20,2-30c0.1-1.9,0.3-3.9,0.4-5.8c0.1-7.5-1.6-9.4-9-10.2
		c-5.3-0.6-10.6-0.8-15.8-1.3c-6.9-0.7-6.9-0.8-8.8-7.5c-0.6-2.1-1.6-4.1-2.1-5.3c1.5-6.6,2.9-12.4,4.6-19.9c2.4-0.9,6.2-2.4,10-3.9
		c1-0.4,2.3-0.4,3.2-0.9c18.5-10.2,38.8-9.3,58.6-8.2c21.3,1.2,42.6,4.3,63.8,6.9c6,0.8,11.9,2.7,17.8,4.4
		c10.1,2.9,20.2,6.1,30.3,9.1c1.3,0.4,2.7,0.3,4.8,0.5c0-2.5,0.1-4.6,0-6.6c-0.2-2.5-1.3-5-1-7.4c1.4-13,1.1-16.2,13.6-19.7
		c0.3-0.1,0.5-0.2,0.8-0.3c16.7-9.6,35.4-10.3,53.9-12c19.7-1.9,39.4-3.6,59-5.4c26.3-2.3,52.6-5.1,78.9-6.7
		c11-0.7,22.2,1.1,33.3,1.7c6.1,0.4,12.1,1,18.2,1.1c4,0.1,7.8,0.4,10.6,3.7c2.7,3.2,6.1,3.3,9.9,2.9c2.1-0.3,5.3-0.4,6.2,0.8
		c4.5,5.6,11.8,6.8,17.6,11.7c-4.9,3.8-9.8,6.8-15.4,7.9c-10.9,2.1-21.9,3.7-32.9,5.5c-6.3,1.1-12.5,2.5-18.9,3.4
		c-8.8,1.3-17.6,2.1-26.4,3.3c-2.8,0.4-5.6,1.3-9.4,2.2c1.4,3.3,2.1,5.7,3.4,7.7c4.7,7.4,5.5,15.6,5.5,24.1c0.1,32,0.3,64,0.4,95.9
		c0.1,33.9,0.1,67.9,0.3,101.8c0.1,12.8,0.6,25.6,0.8,38.4c0.1,7.6,0,7.5-7,9.7c-6.7,2.1-13.5,3.7-19.7,8c-4,2.7-9.8,5-15.6,4
		c-1-0.2-2.5,0-3,0.6c-5,6.6-13.9,5-19.8,9.6c-4.7-1.4-9.4-2.6-14-4.2c-1.4-0.5-2.3-2.7-3.8-3.2c-14.4-4.8-13.8-17.7-14.9-28.9
		c-1.6-16.9-2-33.9-2.5-50.8c-0.6-22.5-0.8-45.1-1.3-67.6c-0.3-12.8-1.1-25.6-1.2-38.4c-0.3-22.5-0.3-45.1-0.5-67.6
		c-0.1-6.1-0.2-12.2-0.7-18.3c-0.6-8.1-2.8-10-11.2-9.3c-12.2,0.9-24.4,2.2-36.6,3c-12.2,0.9-24.4,1.4-36.7,2.3
		c-2.5,0.2-4.9,0.8-7.3,1.2C1580.9,1066.2,1580.6,1066.9,1580.3,1067.5"/>
	<path class="st1" d="M1384.1,1114.4c-2.4,1.2-4.9,2.3-7.3,3.6c-1.9,1-4.2,1.9-5.4,3.5c-3.5,4.7-8,5.1-13.3,5.1
		c-25.3,0-50.6-0.3-75.9,0.8c-15.5,0.7-30.9,3.7-46.4,5.6c-4.6,0.6-7,3-7.6,7.4c-2.3,16.5-4.8,33-6.8,49.6c-0.7,6.1,1.6,7.7,8.1,6.8
		c16.8-2.2,33.6-4.6,50.3-7c6.9-1,13.6-0.6,20.2,0.8c0.2,0.6,0.4,1.2,0.5,1.8c-4.3,3.1-8.6,6.3-14.3,10.5c4.1,1.9,6.9,3.7,9.8,4.3
		c3.5,0.7,7.2,0.1,10.8,0.6c2.3,0.3,5.7,1,6.3,2.5c0.9,2.1,0.6,5.6-0.7,7.6c-1.5,2.4-4.4,4.4-7.1,5.4c-9.4,3.3-19,6.3-28.6,9
		c-14.2,4-28.5,7.7-42.7,11.5c-3,0.8-6,1.1-9,1.9c-5.9,1.5-10,4.8-10.4,11.3c-1.1,16.6-2.4,33.3-3.3,49.9
		c-0.6,10.8-0.8,21.7-0.9,32.5c-0.1,12.2,2.5,23.7,8.9,34.2c3.8,6.3,5.3,6.7,12.2,3.6c4.5-2.1,8.9-4.5,13.4-6.9
		c6.7-3.5,13.6-5.9,21.7-5.8c0.3,3.4,0.5,6,0.8,9.2c2,0.4,4.4,0.4,6,1.5c1.6,1.1,2.4,3.5,3.8,5.6c1.5-0.4,3.1-0.7,4.6-1.4
		c1.5-0.6,2.8-1.6,5.8-3.5c-2.6,6.6-6.2,9.7-10,13.1c-8.1,7.1-18.3,11.8-24.5,21.2c-1.8,2.8-5.4,5.5-8.6,6.1
		c-11.3,2.3-20.3,8.8-29.9,14.4c-4.1,2.4-8,5.7-12.5,6.6c-11.1,2.2-22.9,4.3-33.6,0.1c-22.9-9-39.9-24.1-47.9-48.7
		c-9.2-28.3-11.2-57.2-9.9-86.5c0.6-13.3,1.6-26.6,1.7-40c0.1-7.2-0.9-14.5-2.2-21.5c-0.9-4.8-0.4-8.5,2.7-12.4
		c1.9-2.4,3-5.9,3.4-9.1c2.5-19.9,4.7-39.8,7-59.7c0.2-1.4,0.4-2.8,0.5-4.1c1.1-10.2-0.2-11.7-10.3-12.6c-3.3-0.3-6.7-0.5-9.9-1.2
		c-9.6-1.8-14.3-8.8-12.8-18.7c0.3-2.2,0.2-4.4,0.1-6.6c0-6.1,1.3-7.8,6.7-10c20.6-8.1,42.1-11.9,63.8-14.8c7.9-1,16.1-0.1,24.2-0.3
		c11.1-0.3,22.3-0.2,33.3-1.5c33-4.1,66-4.5,99.2-4.7c10.1-0.1,19.9,2,29.7,3.7c2.4,0.4,5.3,2.3,6.5,4.3c2.1,3.7,4.8,5.8,8.7,7.2
		c1.6,0.6,3.7,2.4,3.9,3.8c0.7,5.5,4.6,5.4,8.6,5.9c2.9,0.4,5.7,1.1,8.5,1.7C1383.9,1112.8,1384,1113.6,1384.1,1114.4"/>
	<path class="st1" d="M852,1399.5c5.9-1.4,5.1-4.9,3.8-8.1c-3.7-8.9-4.8-18-5.2-27.6c-0.2-5.2-0.5-9.9,0.9-15
		c1-3.7,0.1-7.9,0.1-11.8c0-5.1,1.4-8.6,3.4-13c3.6-7.9,7.5-16,5.1-25.5c-0.7-2.7,1.5-7.2,3.7-9.4c3.4-3.3,5.2-6.9,6.2-11.4
		c1.5-6.8,3.3-13.5,8.2-18.9c1.5-1.6,2.4-3.8,3.4-5.7c9.5-18.2,18.6-36.7,28.7-54.6c5.7-10.1,13-19.4,19.9-28.9
		c12.3-16.9,27-31.7,41.4-46.8c3.3-3.5,6.9-5.5,11.9-4c4,1.2,6.7-1.2,9.8-3.3c6.7-4.5,13.4-8.9,20.6-12.4c3.8-1.9,8.7-2.8,12.9-2.6
		c5.2,0.3,9.7,0.7,13.8-3.2c1.2-1.2,4-1.8,5.5-1.3c8.3,3,17.3,4.4,24.1,10.7c3.6,3.3,2.6,9.1-2.2,11.9c-3.4,1.9-7.2,3.1-10.3,5.3
		c-3,2.2-5.6,5.1-7.8,8.1c-4,5.3-7.6,10.9-11.3,16.4c-4.6,6.9-9.6,13.6-13.8,20.8c-10.6,18.2-20.9,36.6-31.3,54.9
		c-4.7,8.2-9.9,16.1-13.9,24.6c-7,14.8-13.7,29.8-19.8,44.9c-6,14.8-8.8,30.5-8.9,46.5c-0.1,14.9,5,28.4,13,40.8
		c0.4,0.7,0.9,1.5,1.5,2c9.4,7.9,19.2,15.2,31.3,18.5c2.6,0.7,6.1,0.2,8.7-1c12.2-5.4,24.3-11.1,36.2-17c4-1.9,7.5-4.8,11.2-7.2
		c6-4,11.9-7.1,19.1-2.1c1.8,1.3,5.3,0.3,8,0.2c6.7-0.3,9.5,3,7.3,9.3c-2.1,6.1-5.3,11.3-11.9,14.1c-9.7,4.1-9.5,4.9-9.1,15.6
		c0.1,2.5-2,5.4-3.7,7.6c-1.3,1.6-3.6,2.6-5.6,3.5c-9.9,4.4-19.8,8.8-29.7,13.1c-14.5,6.4-29.1,12.5-45.3,13.6
		c-1.9,0.1-3.8,1-5.6,1.5c-13.7,4-27.4,4.2-41-0.6c-3.4-1.2-7.1-1.5-10.6-2.2c-9.2-2-18.5-3.9-26.5-9.4c-0.9-0.6-1.9-1.2-3-1.5
		c-15.7-4.3-25.5-16.3-35.8-27.6C856.4,1408.5,854.9,1404.4,852,1399.5"/>
	<path class="st1" d="M1976.7,1003.9c3.8-1.3,6.4-0.2,9.8,1.6c12.9,6.5,10.1,18.6,11.7,29c0.8,5.4-0.3,11.1,0.6,16.5
		c2.8,16.7,1,33.3-0.2,49.9c-1.3,18.9-2.4,37.7-3.7,56.6c-0.5,6.3-1.9,12.6-2.3,19c-0.5,9.1-0.1,18.3-0.8,27.4
		c-0.8,9.9,1,20-2.4,29.8c-0.9,2.7,0.2,6,0.4,9c0.9,14.7,1.8,29.4,2.5,44.1c0.1,2.1-0.7,4.4-1.6,6.4c-2,4.2-4.4,8.3-6.8,12.8
		c-2.8-0.6-5.8-0.9-8.6-1.8c-4.1-1.4-6.8-0.2-7.6,3.8c-0.9,4.8-4.9,6.5-7.9,9.2c-0.4,0.4-1,1-1.4,0.9c-7.3-2.1-11.4,4.2-17.1,6.3
		c-7.9,3-15.7,3.6-23.1-1.5c-1.6-1.1-3.5-1.8-5.2-2.6c-5.7-2.7-9.2-7.1-10.2-13.3c-1.2-7.1-2.8-14.2-3.3-21.4
		c-0.9-13-1.4-26.1-1.7-39.1c-0.3-19.5-0.7-38.9-0.2-58.4c0.4-18.6,1.7-37.2,2.7-55.8c1.1-22.2,1.9-44.5,3.5-66.6
		c0.9-11.9,3.4-23.6,5.1-35.5c0.8-5.5,1.5-11,1.9-16.6c0.3-3.7,1.9-5.7,4.8-8c8.5-6.9,19.2-6.7,28.8-10c1-0.3,2.2,0,3.3,0.2
		c5.4,1.1,10.8,1.8,16.5,1.2C1969.1,996.2,1974.2,997.7,1976.7,1003.9"/>
	<path class="st1" d="M2048.6,647c-2.5,2-3.8,3-5.1,4c-1.3-1.6-2.9-3.1-3.6-4.9c-0.2-0.6,2.1-3.2,2.8-3.1
		C2044.5,643.6,2045.9,645.1,2048.6,647"/>
	<path class="st1" d="M800.2,729v11.9C795.8,736.2,795.3,732.5,800.2,729"/>
	<path class="st1" d="M2263.9,653.7c-0.7-1.5-1.4-2.9-2.1-4.4c0.5-0.3,1-0.5,1.5-0.8c0.8,1.3,1.7,2.7,2.5,4
		C2265.2,652.9,2264.5,653.3,2263.9,653.7"/>
	<path class="st1" d="M2277.7,679.8c-2.3,2.1-2.9,2.6-3.4,3.1c-0.5-0.8-1.3-1.5-1.5-2.3c-0.1-0.4,0.9-1.5,1.4-1.6
		C2275.2,678.9,2276.2,679.4,2277.7,679.8"/>
</g>
<g>
	<defs>
		<rect id="SVGID_3_" x="1462.9" y="1493.2" width="2235.5" height="1955.2"/>
	</defs>
	<clipPath id="SVGID_4_">
		<use xlink:href="#SVGID_3_"  style="overflow:visible;"/>
	</clipPath>
	<path class="st2" d="M3520,3089.4c-23.6-52.3-26.3-116.7-60.2-163.7c-23.8-33-58.1-47.3-95.6-53.5c9.7-5.2,18.7-11.4,26.8-19.2
		c35.7-34.4,43.4-86.8,48.9-133.6c6.3-54.4,3.9-108.6-4.7-162.6c-7.8-49.4-23-101.5-76.7-117.2c-47.6-13.9-106.6-1.4-155.2,2.1
		c-130.5,9.3-260.7,24-390,43.9c-4.8-1.2-10.1-1.7-15.9-1.1c-62.3,6.5-125.1,13.1-186.4,25.9c-4.3-1.3-8.8-2.3-13.5-2.7
		c-2.5-0.2-5.1-0.3-7.6-0.3c-0.5,0-1,0-1.4,0c-3.7-1.7-7.8-3.1-12.4-3.9c-56.9-10.2-113.7-8-168.7,10.7
		c-11.1,3.8-21.5,11.6-28.6,21.4c-2.1,0.5-4.1,1.1-6.2,1.6c-64.4,16.3-127,20.7-193.3,19.7c-83.9-1.3-167.9-3-251.8-4.7
		c-8.2-13.2-22-22-40.5-19.7c-42.6,5.4-85.3,10.8-127.9,16.2c-10.4,1.3-20.2,4.7-28.4,10c-41.3,6.9-82.6,13.6-124,20.2
		c-3.8-22.6-10.8-44.7-20.1-66.6c-10.7-25.1-47.8-30.7-69.2-18.1c-26,15.2-28.9,44-18.1,69.2c10,23.5,10.8,49.1,8.3,74.1
		c-3.5,36.1,35,53.3,64,48.8c73.4-11.4,146.8-23.3,220.1-35.7c129.2,2.6,258.4,5.5,387.6,7.5c66.9,1,132.8-2.6,198.2-17.9
		c13.3-3.1,26.6-6.6,39.8-10.1c16.9,9.3,36.7,13.9,58.1,13c2.7-0.1,5.4-0.3,8-0.6c9.7,3.6,20.6,4.4,31.3,2c18.3-4.1,36.6-8.1,55-12
		c52.6-9.5,105-19.7,157.3-30.6c131.5-23.3,264-41.1,397.2-52.8c51.5-4.5,103.1-8.1,154.7-11.3c12.8-0.8,35.7-6.6,48.8-2
		c-2.8-0.2,1.5,6,2.7,11.1c3.4,13.7,6.1,27.7,8,41.7c6.3,46.3,6.3,95.3-1.4,141.4c-2.4,14.4-4.4,39.5-15.9,50.4
		c-10.8,10.2-31.5,11-45.5,13.1c-100.9,14.8-206.3,7.6-308,9.8c-105.8,2.2-211.7,5.9-317.4,10.4c-209.7,8.9-419.3,21.2-628.8,33.2
		c-116.4,6.7-232.8,13.3-349.2,20c-51.3,3-106.3,6.7-149.5,37.7c-45.1,32.4-69.2,84.9-56.6,139.9c6.7,29.1,36.1,38.9,62.2,35.3
		c148.2-20.1,296.3-42.3,444.8-59.8c149.3-17.7,299.8-9,449.6-19.3c151.7-10.4,302.9-25.5,454.9-31c148.8-5.4,297.9-5.1,446.7,1.3
		c23.9,1,47.3-1.1,58.3,22.3c12.8,27.5,15.1,60.1,25.2,88.6c16.8,47.5,57.1,103.3,56.2,156.6c-3.1,2.1-6.2,4.3-9.6,6.6
		c-45.9,30-115.9,25.8-168.2,30.9c-136.5,13.2-273,26.8-409.5,39.2c-271.8,24.6-545.3,42.8-818.2,27.1
		c-151.2-8.7-301.3-28.7-448.8-63.4c-24.4-5.8-50.1,5.6-59.7,29.3c-10.1,25.2,0,47.5,20.7,63.2c63,47.8,144.5,70.7,223.2,63.3
		c12.6-1.2,24.3-5.9,33.3-13.5c427.6,57.4,863.6,13.6,1291.9-27.8l216.4-20.9c33-3.2,66.6-5.5,99.1-12.3c17.4-3.7,34-9.3,50.2-16.6
		c4.8-2.2,9.5-4.3,14.1-6.9c1.4-0.8,2.6-1.6,4-2.4c5.9,0.6,11.8,0,17.7-2.1c24.3-8.7,40.4-30.1,40.9-53.2
		C3577.6,3212.9,3546.8,3148.9,3520,3089.4"/>
	<path class="st3" d="M3240.5,2711.8c-0.5,1.1-3.4,8.2-5.6,13c-0.6-0.1-1.2-0.2-1.9-0.4c-27.1-2.7-57.9,3.3-85.2,4.7
		c-31.7,1.6-63.5,2.9-95.2,4.1c-123.7,4.6-247.4,6.7-371.2,7.7c-80.7,0.7-161.5,0.9-242.2,1.1c158-29.9,313.6-75.8,474.1-90.5
		c68.3-6.3,136.8-9.2,205.4-10.5c32.7-0.6,65.4-0.9,98.1-1c16.3,0,32.7,0,49,0c1.7,0,3.4,0,5.2,0c-4.3,10.1-8.6,20.3-12.9,30.4
		C3252.2,2684.2,3246.4,2698.1,3240.5,2711.8 M1684.7,2751.1c55.3-8.2,113.8-5,169.5-2.2c2,0.1,4,0.2,6,0.3
		c-42.7,1-85.5,2.6-127.8,6.5c-31.6,3-61.2,9-91,20c-6.9,2.5-14.3,5.7-21.9,8.8l-2.6,0.4C1627.8,2765.3,1668.2,2753.5,1684.7,2751.1
		 M3385.6,2588.6c-8.8-34.2-38.2-47.9-70.8-49.6c-35.7-1.9-72.1-0.2-107.8-0.1c-67,0.3-134,1.4-200.9,4.9
		c-133.6,7-264.5,27.3-395,56.8c-124.6,28.2-249.4,60.4-377.5,66.2c-149.6,6.7-298.1-19.9-447.5-21c-67.6-0.5-147.6-2-206.1,37.2
		c-41.5,27.8-66.7,73.9-64.8,121.1c-29.7,21.8-22.8,83.1,17.9,90.3c32.2,5.7,62.3,3.8,93.6-5.9c5.8-1.8,11.6-3.8,17.3-5.9
		c52.6-7.4,105.3-14.8,157.9-22.2c7.6-1.1,14.1-4.6,19.5-9.5c29.3-0.6,58.6-0.5,87.1-1.3c137.1-4.1,274.3-5.3,411.4-5.9
		c275.9-1.2,552,0.3,827.7-13.2c60.8-3,142.5,7.3,175.2-56.3c14.7-28.5,25.5-59.8,38-89.4
		C3373.7,2654.8,3394.2,2622.1,3385.6,2588.6"/>
	<path class="st3" d="M3289.3,3086.9c-19.2,21.9-50.3,33.4-77.1,43.2c-32.9,12.1-65.1,20.4-99.7,19.4c-2.7-0.6-5.5-1-8.3-1.2
		c-105.4-6.9-210.9-13.7-316.4-17.9c-104.7-4.2-210.9-9.4-314.9,5.3c-49.9,7-98.2,21.4-147.8,29.5c-49.3,8.1-99.5,11.2-149.2,16.1
		c-49.2,4.8-98.2,12.2-147.2,2c-30.4-6.3-60.6-13.5-90.9-20.1c11.8-0.7,23.6-1.5,35.2-2.7c37-3.9,69.6-13.5,103.4-29
		c28.3-13,54.4-27,85-33.4c64.9-13.7,136-1.1,201.4,2.5c144.9,7.9,293,12.6,437.7-2.1c72.2-7.4,142.9-22.5,214-36.6
		c71.3-14.1,142.4-21.8,214.9-25.8c17.2-0.9,55-7.3,68.8,7.9C3309.2,3056.1,3298.2,3076.7,3289.3,3086.9 M3382.3,2988.3
		c-46.8-66-134.6-54.9-204.9-49.8c-85.2,6.2-168.1,21.8-251.7,38.6c-168.8,33.8-341.3,32.2-512.7,25c-81.8-3.5-165.9-16.6-247.6-6.2
		c-41.7,5.3-78.8,18.8-116.5,37.1c-36,17.5-68.3,27.3-108.6,28.7c-98.3,3.4-196.8,1-295.2,2.2c-22.2,0.3-45,2.1-65.9,8.7
		c-0.1-0.1-0.2-0.2-0.3-0.3c-43.5-48.6-114.8,23.1-71.5,71.5c0.5,0.6,1,1.2,1.5,1.8c-6.3,27.7,0.6,57.2,21.4,80.1
		c3.1,3.4,6.4,6.2,9.8,8.5c12.4,32,55.9,47.5,82.9,19.3c23.6-24.6,78.7-16.6,109.2-15.8c49.4,1.3,98.3,7.4,146.8,16.4
		c47.3,8.8,93.8,22.4,141.2,30.4c50.9,8.5,99.8,3.6,150.8-1.4c49.6-4.9,99.4-9,148.8-15.6c49.7-6.6,97.7-19.4,146.9-28.8
		c95.1-18.1,195.2-11.5,291.4-8.2c111.6,3.9,223,11,334.5,18.3c2.6,0.5,5.2,1,7.9,1.2c40.9,3.7,82.4-3.5,121.3-16.3
		c36-11.8,74.2-26,105.5-47.6C3389.1,3143.3,3431.4,3057.4,3382.3,2988.3"/>
	<path class="st3" d="M2497.6,2255.4c45.3-11,90.9-20.9,136.7-29.4c2.9,6.2,6.9,11.8,11.8,16.6
		C2596.5,2246.1,2547,2250.4,2497.6,2255.4 M3673.4,2690c-23.2-178.1-61.5-353.6-115.9-524.9c-19.2-60.5-113.1-36.5-98.6,23
		c-12.6,12.5-25.7,24.1-39.6,34.6c-7.5-4.9-16.9-7.8-28.2-7.5c-152.9,4.4-306,7.7-458.9,13.2c-26.2-7.3-51.2-17.9-76.4-33
		c-14-8.3-28-14.5-42.7-18.7c4-8.4,5.7-18,4.2-28.1c-3.4-22.5-24.4-46.7-49.7-43.9c-328.8,37.3-637.5,155.3-949.7,258
		c-2.7,0.9-5.4,1.8-8.2,2.7c-28.5,7.6-56.7,16.2-84.6,26.2c-2.5,0.9-4.9,2-7.2,3.1c-55.4,15.9-111.9,26.7-170,20.9
		c-27.2-2.7-50.6,25.2-50.6,50.6c0,29.6,23.3,47.9,50.6,50.6c61.5,6.1,122.3-4.6,181.5-20.7c12.3,15,31.3,19.8,52,16.7
		c222.3-34,446-57.7,670.3-71.8c46.2,1.9,92.4,4,138.5,6.2c15.8,0.8,27.7-4.6,35.8-13.3c106.4-2.1,212.8-6.4,319-12.6
		c120.2-7.1,240.3-16.9,360.1-29.3c12.9-1.3,25-6.3,34.1-14.2c38.2-12.7,74.6-30.1,108.4-51.7c8.4,8.3,19.3,14,31.1,15
		c0.7,1.3,1.4,2.9,2.3,5.2c2.3,5.8,4,17,4.6,23.8c4.2,41.9,2.9,85.2,4.3,127.3l8.4,252.5c2.8,84.2,5.6,168.4,8.4,252.5
		c2.6,77.8,11,158.5-0.6,235.8c-5.2,34.7-9.8,67.8,11.3,98.6c22.5,32.9,64.9,42.3,101.4,29.2c81.6-29.4,75.8-129.4,78-200.4
		C3702,3007,3694,2847.7,3673.4,2690"/>
	<path class="st4" d="M3338.4,2146.3c0.6-1.9,1.1-3.8,1.5-5.8c7.4-32.3-0.3-65.4-12-95.6c-9.1-23.6-21.1-47.1-32-70.9
		c-3.8-40.3-13.7-78.3-29.1-115.7c0.7,0.1,1.4,0.3,2.1,0.3c19.6,1.8,39.6,1.6,59.3,2.1c-20.5,37.9-11.4,81.4-4,122.1
		c3.8,20.8,1.6,42.4,6.5,63.2c4.8,20.6,14.6,38.7,28.3,54.7c7,8.2,15,15.3,23.6,21.6c-5.1,2.6-10.2,5.2-15.1,7.8
		C3357.7,2135.2,3347.9,2140.4,3338.4,2146.3 M2846.6,2198.4c-1,0-3.5-0.5-6.4-1c9.9-1.4,20.6-0.8,30.5-0.6
		C2862.7,2197.6,2854.6,2198.4,2846.6,2198.4 M3179.7,1675.8c11.4,6,22.3,11,26.9,23.3c6,16.2-0.5,40.1-1.3,57.1
		c-1,21.8,1.1,44.7,9.3,63.3c-5.8,0.8-11.5,2.6-16.9,5.2c-29.8-26.1-63.7-35.2-99.1-2.7c-2.4,2.2-4.6,4.6-6.7,7.1
		c-10-14.8-26.6-24.2-44.4-23.1c-4.2-29.5-15.6-58.8-31-84.5c17.7-24.2,33.7-49.2,48.3-75.1c3.2,1.1,6.5,2.1,9.9,3
		c17.4,4.2,35.7,2.1,53.1,5.8C3145.6,1658.9,3163.6,1667.3,3179.7,1675.8 M2999.2,2060.2c0.6,15.6,1.8,31.2,4,46.7
		c-4.6-0.7-9.3-1.4-13.9-2.1c1.3-5.8,2.6-11.7,3.9-17.5C2995.2,2078.3,2997.2,2069.2,2999.2,2060.2 M3230.4,2071.8
		c4.2,10.7,12.2,26.1,11.3,37.8c-0.8,11.1-2.6,10-11.7,18.3c-9.9,8.9-18.4,19.9-24.2,31.9c-22.9-1-46.6-6.9-69.2-13.2
		c18.1-3.7,36.5-17.7,39.5-36.1c6.6-41,5.1-79.8,0.4-120.9c-1-8.8-2.1-17.6-3-26.3c10.7,18,20.5,36.4,29.6,55.2
		c2.8,5.8,6.5,10.5,10.8,14.1C3219.6,2045.5,3225.2,2058.5,3230.4,2071.8 M3485.4,2062.4c-24.8-9.5-53.8-19.3-57.4-48.2
		c-3.2-25.4-5-50.1-9.9-75.4c-3.2-16.3-2-24.3,5.1-39.2c20-41.7,26.6-95.5-18.3-124.9c-19.6-12.9-42.1-14-64.8-14.8
		c-11.6-0.4-23.1-0.7-34.7-1.1c0.4-19.4,4.6-39.6,3.2-58.1c-3.1-41.1-22-73.9-55.1-98.1c-27.1-19.8-62.2-34.9-94.4-43.8
		c-16.8-4.6-33.6-5.4-50.7-6.9c-0.1-2.1-0.2-4.4-0.1-6.7c2-24.8-20.7-46.9-43.9-49.7c-26.7-3.2-46,12.1-55.5,36.2
		c-14.6,36.7-33.5,71.8-55.1,104.8c-21.5,32.8-49.1,60.6-71,93c-49.6,73.2-18.3,155.6-28.8,236.3c-0.7,5.6,0,11.1,1.8,16.2
		c-6.9,12.2-13.7,24.5-18.9,37.4c-8.5,21-18,50.6-21.2,79.6c-5.3,1.1-10.5,2.5-15.5,4.1c-47.9,15.7-85.9,63.1-73,115.2
		c28,112.9,168.1,74.9,249.6,67.4c51.9-4.8,103.2-5,155.1-0.3c51.9,4.7,103.8,10.6,155.7,2.1c50-8.2,81.9-44,124.7-67
		c40.3-21.7,79.2-43.3,103.3-83.9C3533.7,2106.4,3515.2,2073.9,3485.4,2062.4"/>
	<path class="st5" d="M2590.9,1748.1c-2.8,1-5.6,2.1-8.3,3.1c-3.4,1.3-6.8,2.8-10.1,4.4c3-2.2,6.3-3.7,9.8-4.8
		C2585.2,1749.9,2588,1749,2590.9,1748.1"/>
	<path class="st6" d="M2622.1,1739.2c-4,1.1-7.9,2.3-11.9,3.4c-6.4,1.8-12.9,3.6-19.3,5.5
		C2601.1,1744.3,2611.3,1740.9,2622.1,1739.2"/>
	<path class="st5" d="M2635.9,1735.7c-3.3,1.2-6.6,2.4-9.9,2.9c-1.3,0.2-2.5,0.3-3.8,0.6c5.4-1.5,10.8-3,16.3-4.3
		C2637.6,1735.2,2636.7,1735.5,2635.9,1735.7"/>
	<path class="st2" d="M2201.7,2629.9c-0.1-1.5-0.1-2.7-0.2-4.1c-1.7,0-3.5-0.6-4.6,0c-6,3.6-11.8,1-17.3-0.7
		c-9.7-3-19.3-2.7-29.2-1.9c-9.3,0.8-18.6,0.2-27.9,0.9c-9.8,0.7-19.5,2.2-29.3,3.1c-8.1,0.7-16.1,1-24.2,1.7
		c-11.8,0.9-23.6,2.2-35.5,2.9c-10.9,0.7-21.7,0.6-32.6,1.1c-4,0.2-8,1.1-12,1.3c-5.8,0.2-11.6-0.1-17.3,0.2
		c-15.4,0.7-30.8,1.6-46.2,2.3c-29.8,1.5-59.6,2.9-89.4,4.2c-16.6,0.7-33.3,1-50,1.7c-6,0.2-12,1.2-18,1.5c-4.8,0.2-9.6-0.1-14.4,0
		c-5.8,0.1-11.6,0.2-17.3,0.3c-9.3,0.2-18.7,0.7-28,0.3c-9.4-0.3-18.6,0-27.9,1.1c-12,1.5-24.2,1.2-36.4,1.8
		c-13.9,0.6-27.7,1.3-41.5,2c-9.4,0.5-18.8,1.9-28,1.3c-9.1-0.6-18,0.8-26.9,1.2c-4.8,0.2-6.4-0.6-7-5.7c-0.9-8-1.6-16.1-1.8-24.2
		c-0.9-26.5-1.5-53-2.4-79.6c-0.5-14.9-1.2-29.7-1.8-44.6c-0.1-1.5,0-3,0.1-4.6c0.3-6.2,1.1-7.1,7.1-7.4c20.7-1,41.4-2,62.1-3
		c22.2-1.1,44.4-2.4,66.7-3.2c21.4-0.8,42.9-1.2,64.4-1.8c23.5-0.6,47-1.4,70.5-1.9c21.2-0.4,42.4-0.2,63.6-1
		c15.4-0.6,30.8-0.3,46.2,0.1c16.4,0.5,32.9-1,49.2-2.4c30.5-2.5,60.9-6,91.4-8c29.3-1.9,58.2-6.7,87.2-10.1
		c8.5-1,17.1-1.2,25.7-2.2c11.1-1.2,22.1-2.5,33.1-4.3c19.9-3.3,40-5.8,60.1-7.4c11.8-1,23.6-1.9,35.4-3.1
		c18.6-1.9,37.2-4.4,55.8-5.9c22.2-1.9,44.4-2.7,66.6-4.5c16.4-1.4,32.7-3.6,49-5.4c21.1-2.3,42.2-3.8,63.4-4.9
		c27.8-1.4,55.5-3.9,83.2-6c19.4-1.4,38.8-2.6,58.1-4.3c13.9-1.2,27.6-3.3,41.5-4.8c14.8-1.7,29.7-3.2,44.5-4.9
		c12-1.4,24.1-3.1,36.1-4.3c22.4-2.2,44.8-4.1,67.2-6.4c4.8-0.5,9.5-1.6,14.2-2.5c15.6-3,31.2-6.2,46.8-8.9c10.4-1.8,21-3,31.5-4
		c18.9-1.8,37.8-2.9,56.6-5c12.5-1.4,24.8-4.6,37.3-6c17.6-2,35.3-3,52.9-4.5c18.9-1.7,37.7-3.6,56.6-5.2c12.1-1,24.3-1.5,36.3-2.6
		c5.5-0.5,10.9-2,16.4-2.7c7.8-1,15.6-1.7,23.4-2.5c14.9-1.4,29.7-3,44.6-4c37.8-2.6,75.7-5,113.6-7.4c7.3-0.5,14.7-0.7,22-1.2
		c7.3-0.5,14.4-0.1,21.8,1.2c6.5,1.2,13.6,0.1,20.2-1.3c10.4-2.1,20.5-2.8,30.4,1.5c1.4,0.6,3,0.6,4.4,1c3.3,0.9,8.1,0.9,9.6,3.1
		c2.6,3.7,3.5,8.8,4.6,13.4c0.8,3.6,0.8,7.4,1.2,11.1c0.7,6.5,1.3,13,2.1,19.4c0.1,1.2,0.5,2.4,0.8,3.6c2.1,8.2,5.2,16.1,3.8,25.1
		c-0.6,4.3,1.4,8.8,1.6,13.3c0.4,10.2-1.6,20.4-2.3,30.5c-0.9,13.7-4.1,27.5-1.5,41.5c0.3,1.9,0,4-0.4,6c-2.2,9.7-2.3,19.4-1.9,29.3
		c0.2,4.3,0.2,8.8-1.2,12.8c-3.8,11.4-2.9,23.1-2.3,34.5c0.7,12.8-1.1,25.1-2.9,37.6c-0.6,4.2-0.6,8.5-0.7,12.7
		c-0.5,12.6-1.1,25.2-1.2,37.8c-0.3,19.1-0.1,38.3-0.4,57.4c-0.2,11.1,1.2,21.9,3.5,32.7c0.8,3.9-0.2,8.1,0.3,12
		c1.2,8.9,2.8,17.8,4.2,26.8c1.6,11,3.1,22,4.8,33c0.8,5,1.7,9.9,2.9,14.8c3.3,12.9,3.8,25.9,3.3,39.1c-0.3,7.5,1.2,15,2,22.5
		c1,10,2,20.1,3.3,30c1.3,10.3,3.2,20.4,4.3,30.7c1,9.8,1.6,19.7,1.9,29.5c0.4,13.6,2.6,27,1.1,40.7c-0.3,3.2,0.6,6.5,0.7,9.8
		c0,2.9-0.3,5.9-0.6,8.9c-0.1,0.7-0.3,1.5-0.3,2.2c0.2,7,0.4,14.1,0.8,21.1c0.6,10.3,1.6,20.6,2,30.8c0.2,5.3-0.2,10.6-1,15.8
		c-2.1,13.4,0.5,26.6,0.5,39.9c0,6-0.8,11.9-1.4,17.8c-1.3,12.3-2.3,24.6-1.5,37c0.5,7.7-0.7,15.6-1,23.4c-0.2,4.7-0.3,9.5-0.2,14.3
		c0.2,7.8-0.6,15.9,1.1,23.3c3.1,13.5-0.1,26.5-0.9,39.6c-0.2,2.8-0.1,5.6,0,8.3c0.2,7.7-0.3,8.7-8.1,10c-7.4,1.3-15,2.4-22.5,2.9
		c-15.9,1-31.8,1.5-47.7,2.4c-35.1,1.9-70.2,2.6-105.2,7.1c-19,2.5-38.3,2.8-57.4,4.7c-13,1.3-26,3.9-39,5.4
		c-8.8,1-17.6,1.1-26.4,1.3c-8.3,0.2-16.7-0.1-25,0c-15.6,0.1-31.3,0.2-46.9,0.6c-7.3,0.2-14.6,1.2-21.9,1.6
		c-16.6,0.9-33.3,1.5-49.9,2.7c-21.4,1.6-42.9,3.1-64.2,5.8c-23.3,3-46.4,7.3-69.6,11.1c-22.2,3.6-44.3,7.2-66.5,11
		c-5.4,0.9-10.7,3.4-16.1,4c-13.5,1.4-27.1,2.1-40.6,3.1c-4,0.3-8.1,0.5-12.1,1c-29.7,3.2-59.4,5.9-89.3,6
		c-16.9,0-33.9-0.4-50.8-0.2c-12.1,0.1-24.2,1.4-36.4,1.3c-18.2-0.2-36.3-1.1-54.5-1.7c-11.1-0.4-22.2-0.6-33.3-1.4
		c-31-2.2-62-4.9-93-6.8c-16.9-1.1-33.8-0.8-50.7-1.5c-17.1-0.7-34.2-1.8-51.3-2.6c-6.3-0.3-12.6,0-19,0c-11.6,0.1-23.2,0-34.8,0.2
		c-5.8,0.1-11.6,0.9-17.3,1.2c-18.1,0.8-36.3,1.3-54.5,2.2c-4.8,0.2-9.5,1.4-14.3,1.8c-12.1,1-24.2,1.5-36.2,2.8
		c-15,1.5-30,3.6-45.1,5.4c-14.8,1.8-29.5,3-44.5,3c-9,0-18,2.1-27.1,2.7c-4.6,0.3-9.4-0.6-14.1-1c-1.4-0.1-2.9-0.6-4.3-0.5
		c-12.1,0.3-24.2,0.9-36.3,1.1c-11.4,0.2-22.7,0.2-34.1-0.2c-11.8-0.3-23.7-0.9-35.5-1.7c-13.6-0.9-27.1-2-40.7-3.2
		c-19.4-1.7-38.7-3.3-57.7-7.8c-15.2-3.6-30.5-7.1-45.8-9.8c-9.1-1.6-18.5-1.6-27.8-2.3c-14.6-1.1-29.1-2.3-43.7-3.2
		c-14.9-0.9-29.8-1.2-44.6-2.1c-9-0.5-18.1-1.2-27-2.8c-9.1-1.6-18.1-4.3-27.1-6.4c-8.1-1.8-15.2-5.6-21.6-10.5
		c-2.6-1.9-5-4.4-6.7-7.1c-10-16.4-17.6-33.9-22.9-52.5c-4.2-14.6-8.2-29.1-11.2-44c-1.4-7.1-0.7-8.1,6.4-7.9
		c6.3,0.2,12.6,0.8,18.8,0.9c2.7,0,5.4-1.4,8.1-1.6c11.9-0.6,23.8-2,35.6-1.3c27,1.6,54-0.1,81,2.3c6.2,0.5,12.5-0.4,18.8-0.5
		c14.9-0.4,29.7-1.1,44.6-1c22.2,0.1,44.5,0.6,66.7,1.3c11.1,0.3,22.1,1.4,33.2,2.2c1.5,0.1,3,0.2,4.5,0.2
		c21.5-0.1,42.9-0.4,64.4-0.3c6,0,12,1.2,18.1,1.1c16.9-0.2,33.9-1.1,50.8-1c12.1,0.1,24.1,1.7,36.2,2.3c9.8,0.5,19.7,0.7,29.5,0.6
		c19.2-0.1,38.4-0.7,57.7-0.6c11.6,0,23.2,0.9,34.8,1.2c4.3,0.1,8.6-0.6,12.9-0.6c10.3,0,20.7,0.6,31,0.1
		c14.1-0.6,28.2-1.6,42.3-2.8c10.1-0.9,20.1-2.2,30.1-3.6c16.5-2.3,33-4.8,49.4-7.1c6.5-0.9,13-1.8,19.6-2.4
		c11.1-1.1,22.1-2.1,33.2-3c16.1-1.4,32.1-2.9,48.2-3.9c19.4-1.2,38.9-2.6,58.3-2.9c26-0.5,52.1,0.3,78.1-0.2
		c16.4-0.3,32.8-2,49.2-2.9c9.8-0.6,19.7-1,29.5-1.2c14.9-0.3,29.7-0.4,44.6-0.5c12.9-0.1,25.8,0.3,38.7,0.1
		c16.7-0.2,33.4-1,50.1-1.3c15.1-0.3,30.3-0.2,45.5-0.3c15.6-0.1,31.3-0.2,46.9-0.4c9.6-0.1,19.2,0.1,28.8-0.3
		c16.4-0.6,32.8-1.4,49.2-2.1c21.2-1,42.5-2,63.7-3.2c34.1-1.9,68.2-3.9,102.2-6.2c9.8-0.6,19.5-2.3,29.2-3.4
		c12.6-1.3,25.1-2.7,37.7-3.6c10.5-0.8,21.1-0.6,31.6-1.3c10.8-0.7,21.6-2,32.5-3c6-0.5,12.1-0.7,18.1-1.5
		c27.5-4.1,55-8.1,82.4-12.8c7.8-1.4,15.3-4.9,22.9-7.4c5-1.7,10-3.6,15.1-5.1c8.2-2.4,12.1-8.2,14.2-16.1
		c4.3-16.1,4.4-32.5,5.1-48.9c0.3-7.3,1.1-14.6,0.7-21.9c-0.7-14.3-2.1-28.7-3-43c-0.7-11.6-0.7-23.2-1.4-34.7
		c-0.5-9-0.2-18.3-5.5-26.3c-0.9-1.4-1.2-3.3-1.7-5c-4.1-11.9-7.5-24.1-12.4-35.7c-4.1-9.7-10.2-18.7-19.4-24.5
		c-3-1.9-7.2-2.7-10.8-2.7c-12.9-0.1-25.8,0.8-38.6,0.6c-18.4-0.2-36.9-1.2-55.3-1.6c-19.9-0.4-39.9-1.6-59.8,0.6
		c-13.8,1.5-27.8,1.5-41.7,2.4c-29.8,2-59.5,4.2-89.3,6.3c-34,2.3-68.1,4.5-102.2,6.8c-13.6,0.9-27.2,2.3-40.8,3.1
		c-12.9,0.8-25.8,0.9-38.7,1.6c-7.8,0.4-15.6,1.2-23.3,2.3c-8,1.1-15.9,2.8-24,3.9c-16,2.1-32.1,4-48.1,6c-18.1,2.2-36.3,3.7-54.2,7
		c-16.4,3-32.8,5.7-49.5,6.8c-14.1,0.9-28.3,1.7-42.4,2.8c-5.3,0.4-10.5,1.3-15.8,2.1c-15.7,2.6-31.6,2.8-47.3,5.9
		c-14,2.8-28.7,2.5-43.1,3.1c-11.6,0.5-23.3,0.3-34.9,0.8c-7.6,0.3-15.1,1.4-22.6,2.1c-17.3,1.6-34.7,3.5-52.1,4.8
		c-11.3,0.9-22.7,0.7-34,1.5c-15.8,1-31.7,2.4-47.5,3.8c-16.1,1.5-32.1,3.6-48.2,4.8c-7.4,0.6-15-0.5-22.5-0.3
		c-10.1,0.2-20.2,0.7-30.3,1.2c-21.2,1-42.4,2.3-63.6,3.3c-13.6,0.6-27.3,1.1-40.9,1.4c-7.1,0.2-14.1-0.2-21.2-0.4
		c-3.5-0.1-7.1-0.4-10.6-0.3c-14.6,0.6-29.3,1-43.9,2c-18.1,1.3-36.2,3.3-54.3,4.6c-12.8,0.9-25.7,1.1-38.6,1.8
		c-16.4,0.8-32.8,1.8-49.1,2.8c-23.2,1.4-46.4,2.8-69.5,4.6c-10.3,0.8-20.5,2.7-30.8,3.7c-12.1,1.2-24.2,1.9-36.2,2.9
		c-13.6,1.1-27.3,1.7-40.8,3.4c-11,1.4-21.8,4.3-32.8,5.9c-8.5,1.3-17.1,1.4-25.6,2.4c-16.3,1.8-32.6,4.1-49,5.7
		c-13.1,1.3-26.2,1.7-39.3,2.7c-9.5,0.7-19,1.9-28.5,2.6c-10.3,0.8-20.6,1.4-30.9,1.8c-5.4,0.2-7.4-1.8-7.6-7.2
		c-0.3-8.8-0.3-17.7-0.5-26.5c-0.3-21-1.3-42-0.9-63c0.3-17.9,2-35.8,3.1-53.6c0.3-4.8,0.5-9.5,0.6-14.3c0.1-6.1,1.8-8,7.7-7.3
		c14.4,1.8,28.7,0.6,43-0.3c13.9-0.8,27.8-0.4,41.6-1.3c17.6-1.1,35.2-3.1,52.8-4.7c15.4-1.4,30.7-2.7,46.1-4.1
		c1.3-0.1,2.6,0.1,3.8-0.2c17.3-4.2,35.2-3,52.7-5.5c12.2-1.8,24.4-3.7,36.6-5.3c15.5-2,31.1-3.8,46.6-5.6
		c24.4-2.7,48.9-1.4,73.4-3.6c9-0.8,18.1,0.5,27.2,0.5c7.5-0.1,15.1-0.8,22.6-1.2c11.8-0.6,23.7-0.7,35.4-2
		c27.2-3.1,54.5-1,81.7-0.9c15.4,0.1,30.9,0.6,46.3,1c7.1,0.2,14.1,1.1,21.2,1.1c15.1,0,30.3-0.5,45.5-0.7c8.3-0.1,16.7,0,25,0.1
		c10.6,0.1,21.2,0.2,31.8,0.3c12.1,0.2,24.2,0.3,36.3,0.8c13.9,0.5,27.7,1.3,41.6,2.1c15.9,0.9,31.8,1.7,47.6,2.9
		c10,0.8,20,2.4,30,3.3c10.8,0.9,21.7,1.2,32.5,1.8c12.1,0.7,24.2,1.6,36.2,2.1c12.9,0.4,25.7,0.4,38.6,0.6
		c8.1,0.1,16.2,0.4,24.2,0.5c8.3,0,16.7,0.4,25-0.3c18.7-1.6,37.4-0.9,56.1-1.4c22.2-0.6,44.3-3.5,66.5-5.7
		c13.6-1.4,27.1-3.2,40.6-5.2c35.3-5.2,70.5-10.8,105.7-15.9c13.3-1.9,26.6-3.2,40-4.5c17.4-1.7,34.7-3.4,52.1-4.8
		c24.9-2.1,49.8-4.7,74.7-5.8c27-1.1,54-0.4,81.1-0.8c17.9-0.2,35.8-0.5,53.7-3c10.9-1.6,22.2-1.2,33.3-1.7
		c22.9-1.1,45.9,0.5,68.7-4c18.6-3.6,37.2-7.1,55.5-12.2c12.1-3.4,21.9-10.7,29.9-19.8c5.2-5.9,8.2-13.8,11.9-20.9
		c2.8-5.3,5.5-10.8,7.7-16.4c3-7.4,5.7-15,8.3-22.6c3.1-8.9,3-18.2,3.4-27.5c0.1-2.8,0.6-5.5,1.3-8.2c2.8-10.6,3.2-21.3,3.3-32.2
		c0-3,0.2-6.1,1-9c2-7,0.9-14,0.9-21.1c0-4.7,0.5-9.5,1-14.2c1.3-10.8,2.9-21.5-4.1-31.3c-1-1.4-1.3-3.2-1.7-4.9
		c-1.4-5.9-2.7-11.8-4.1-17.6c-0.3-1.2-0.6-2.6-1.4-3.5c-6.1-7-11.9-14.4-18.8-20.7c-5.3-5-12.9-5.6-19.9-5.8
		c-6.3-0.2-12.6,0.7-18.9,1.6c-13.3,1.8-26.4,4.3-39.7,5.8c-18,2-36.2,3.2-54.3,5.2c-14,1.6-28,3.9-42,5.9c-10,1.4-20,2.9-30,4.2
		c-12.3,1.6-24.5,3.2-36.8,4.6c-25.1,2.8-50.3,5.6-75.4,8.2c-18.6,1.9-37.3,3.6-55.9,5.3c-27.4,2.5-54.9,4.8-82.3,7.4
		c-15.8,1.5-31.8,2.7-47.4,5.8c-18.6,3.7-37.6,4.6-56.3,7.4c-25.2,3.7-50.6,6.5-76,9.3c-11,1.2-22.1,1.3-33.2,2.2
		c-22.2,1.9-44.3,4-66.5,5.9c-21.6,1.9-43.3,3.4-64.9,5.5c-12.6,1.2-25,3.6-37.6,5.2c-18.3,2.3-36.5,4.7-54.9,6.4
		c-10.5,1-21.1,0.4-31.7,1c-8.1,0.5-16,2.1-24.1,2.7c-8.3,0.7-16.6,0.8-24.9,1.2c-0.5,0-1-0.1-1.5,0c-13.9,3.1-28.1,2.3-42.2,3.4
		c-9.6,0.7-19.2,1.5-28.7,2c-3.7,0.2-7,0.7-9.1,4.2c-2.3,3.9-6,4.1-10,3.9c-5.3-0.3-10.6-0.6-15.9-0.9c-1-0.1-2.4,0.1-2.9-0.5
		c-7.5-7.7-15.9-4.6-23.9-1.7c-14.6,5.4-29.7,5-44.8,5.6C2204,2630.6,2202.8,2630.1,2201.7,2629.9"/>
	<path class="st3" d="M1563.7,3234c-0.2-3-0.2-5.5-0.4-8c-0.7-6.5-2.6-7.7-9-6.4c-1,0.2-1.9,0.5-3.6,1.1
		c-1.5-10.1-3.1-19.7-4.5-29.4c-1.6-11.7-3.2-23.5-4.5-35.3c-0.6-5.3-0.7-10.6-0.8-15.9c-0.2-10.1,0.3-20.2-0.5-30.3
		c-0.7-9.1-2.7-18-3.9-27c-0.5-3.7-0.7-7.6-0.6-11.3c0.2-5.9,1.4-7.3,6.9-7.9c14.3-1.5,28.6-3.1,42.9-4.1
		c19.9-1.5,39.9-2.2,59.8-3.9c10-0.8,19.9-3.1,29.9-4.5c12.3-1.6,24.6-2.6,36.8-4.4c16.2-2.4,32.4-5.2,48.6-7.8c1-0.2,2-0.4,3-0.5
		c22.9-1.7,45.9-3.3,68.8-5.2c7.8-0.6,15.5-2.1,23.2-2.7c8.3-0.5,16.6-0.1,24.9-0.6c14.6-0.9,29.2-2.5,43.8-3.3
		c23.5-1.4,47-2.4,70.5-3.7c9.6-0.5,19.2-1.5,28.7-2.2c27.7-2.2,55.2-6.7,83.1-6.7c15.2,0,30.3,1.2,45.4,0.7
		c24-0.7,47.9-2.6,71.9-3.6c14.1-0.6,28.2-0.5,42.3-0.6c19.2-0.2,38.4-0.7,57.5-3.4c14.8-2.1,29.7-3,44.5-4.4
		c8.3-0.8,16.6-1.6,24.9-2.3c22.7-1.9,45.3-4.1,68-5.6c27.2-1.7,54.5-2.5,81.7-4.1c12.3-0.7,24.6-2.3,36.9-3.7
		c20.8-2.4,41.7-4.8,62.5-7.5c15.8-2.1,31.6-2.4,47.5-2.8c1.5,0,3.1-0.1,4.5-0.4c27-5.3,54.4-8.2,81.6-12.1c16.2-2.3,32.7-3.3,49-5
		c6-0.6,12.1-1.2,18-2.8c20.3-5.3,41.2-4.4,61.8-6c10.1-0.8,20.1-2.1,30.1-3c8.3-0.7,16.6-1.2,24.9-1.8c22.1-1.8,44.2-3.7,66.4-5.3
		c13.6-1,27.2-1.2,40.8-1.9c5.8-0.3,11.7-0.6,17.3-1.7c17.7-3.7,35.8-2.6,53.6-3.9c22.7-1.7,45.3-3.8,68-5
		c12.1-0.6,24.3-0.3,36.4,0.8c29.8,2.9,59.6,1.9,89.4,2.8c26.1,0.8,25.7,3.4,35.9,25.1c3.9,8.4,5.6,17.8,8.3,26.8
		c0.5,1.7,1.3,3.7,0.9,5.2c-2.2,7.8,2,14.1,4.5,20.9c0.9,2.6,1.6,5.3,1.9,8c1.2,13.8,2.6,27.6,3.1,41.4c0.5,13.8,0.2,27.7,0,41.5
		c-0.1,8.3,0,16.7-0.7,24.9c-0.6,7.3-2.4,14.4-3.1,21.7c-0.9,10.3-6.5,15.3-16.5,17.5c-15.2,3.5-29.8,9.3-45.6,10.8
		c-11.8,1.1-23.7,2.6-35.2,5.3c-18.3,4.3-37,4.9-55.5,6.8c-12.8,1.3-25.7,1.5-38.5,2.3c-11.8,0.7-23.7,1.6-35.5,2.3
		c-5.5,0.4-11.1,0.2-16.6,1.1c-8.4,1.4-16.7,3.5-25.1,5.1c-2.4,0.4-4.9,0-7.4-0.1c-1,0-2.3-0.5-2.9-0.1c-3.4,3.1-7.8,2-11.6,2.2
		c-32.9,2.4-65.8,4.5-98.7,6.5c-9.3,0.6-18.7,0.8-28.1,0.9c-6.5,0.1-13-0.8-19.5-0.5c-28,1.1-56,2.6-84,3.5
		c-14.1,0.5-28.3-0.3-42.5,0c-21.2,0.5-42.4,1.7-63.7,2.2c-13.4,0.3-26.8-0.5-40.1-0.2c-39.4,0.8-78.7,2-118.1,2.8
		c-19.7,0.4-39.4,0.3-59.1,0.6c-21.5,0.3-42.9,0.7-64.4,1.4c-12.6,0.4-25.1,1.4-37.7,2.3c-23.7,1.7-47.4,3.1-71,5.4
		c-16.1,1.6-32,4.6-48,6.8c-9.5,1.3-19.1,2.3-28.6,3.4c-18.6,2.1-37.1,4.2-55.7,6c-8.7,0.9-17.5,1.1-26.2,1.4
		c-12.6,0.4-25.3,1-37.9,1c-14.7,0-29.3-0.7-44-0.9c-6-0.1-12.1,0.7-18.1,0.6c-17.7-0.4-35.3-1.2-53-1.7c-17.7-0.5-35.3-1.5-53-1
		c-19.5,0.6-38.9,0.2-58.3-1.5c-9-0.8-18.2-0.1-27.3-0.2c-16.6-0.2-33.3-0.3-49.9-0.6c-16.1-0.4-32.3-1.2-48.4-1.5
		c-22.2-0.4-44.5-0.7-66.7-0.8c-8.3,0-16.7,0.8-25,0.8c-8.1,0-16.1-0.5-24.2-0.8c-4.3-0.2-8.6-0.5-12.9-0.5
		c-20.4-0.3-40.8-0.5-61.2-0.8c-7.3-0.1-14.6-0.2-22-0.3C1591.4,3234.5,1577.8,3234.2,1563.7,3234"/>
	<path class="st3" d="M2530,2842.1c-21.3,2.4-40.4-0.9-59.6-2.1c-19.2-1.2-38.3-2.7-57.4-4.2c-27.7-2.2-55.3-5-83.1-5.4
		c-12.6-0.2-25.3-1-37.9-1c-35.9,0-71.8,0.5-107.6,0.2c-17.9-0.1-35.8-1.4-53.7-2.1c-1,0-2-0.2-3-0.2c-28.3,0.4-56.6,0.3-84.9,1.2
		c-28.8,0.9-57.6,2.8-86.4,3.9c-9.3,0.4-18.7-0.7-28-0.4c-26.8,0.8-53.5,2.3-80.3,2.8c-11,0.2-21.5,2.3-32.1,4.3
		c-12.2,2.3-24.4,4.5-36.7,5.8c-26.6,2.8-53.3,4.9-79.9,7.4c-19.6,1.8-39.1,4.2-58.8,5.6c-12.3,0.9-24.7,0.4-37.1,0.4
		c-11.4,0.1-22.7,0.2-34.1,0.2c-8.8,0-17.7-0.4-26.5-0.6c-4.3-0.1-5.6-1.1-5.7-6.1c-0.1-7.3,0.3-14.6,0.5-22
		c0.5-20.2,0.9-40.4,1.5-60.6c0.3-12.4,0.8-24.7,1.3-37.1c0.3-7,0.7-14.1,0.8-21.1c0.1-11.4,0-22.8,0-34.1c0-6.9,0.8-7.5,7.6-8.4
		c18.3-2.4,36.8-1.4,55.2-2.8c11.1-0.9,22.3-0.7,33.2-2.4c12.7-1.9,25.4-3.4,38.2-4c7.8-0.4,15.6,0.1,23.4,0
		c9.1-0.1,18.2-0.1,27.2-0.6c6.8-0.3,13.5-1.5,20.3-1.8c8.6-0.5,17.1-0.6,25.7-0.6c21.4-0.1,42.8,3,64.3,1c25.9-2.4,52-3,78-5
		c22.1-1.6,44.1-4.4,66.3-5.9c14.8-1,29.8-1,44.7-1.3c16.7-0.3,33.4-0.5,50-0.7c14.9-0.2,29.8-0.3,44.7-0.7
		c16.2-0.4,32.3-0.9,48.5-1.4c13.4-0.4,26.8-1.2,40.2-1.4c31.8-0.5,63.6-0.5,95.4-2.8c35.1-2.6,70.2-3.7,105.3-6
		c19.9-1.3,39.8-3.1,59.5-6c15.2-2.2,29.9-7.1,45-9.9c13.6-2.5,27.4-4.3,41.2-5.7c31.2-3,62.5-5.7,93.7-8.2
		c22.2-1.8,44.4-2.6,66.6-4.7c16.3-1.5,32.5-4.4,48.8-6.6c7.3-1,14.6-1.5,21.8-2.5c30.1-3.8,60.2-7.9,90.3-11.3
		c19.3-2.2,38.8-3.4,58.2-4.9c18.4-1.4,36.8-2.5,55.2-4.1c18.4-1.5,36.7-4.2,55.1-4.7c9.9-0.3,19.3-2.4,29-3.7
		c13.8-1.8,27.6-2.5,41.5-3.8c4.8-0.4,9.5-1.1,14.2-1.9c14.7-2.5,29.4-5,44-7.5c4-0.7,8-1.3,12-1.8c17.7-2.3,35.5-4.6,53.3-6.6
		c7.3-0.8,14.6-0.5,21.9-1.2c20.9-2.1,41.8-3.8,62.6-6.8c19.2-2.8,32.9,10.7,38.1,26.5c2.5,7.6,4.2,15.5,5.5,23.4
		c3.1,17.7,0.3,35.3-1.3,52.9c-0.7,8.5-1.5,17-2.7,25.4c-1.3,9.7-2.8,19.4-4.6,29.1c-2,10.6-4.5,21.2-6.9,31.7
		c-2.2,9.4-5.9,18.1-11.9,25.8c-3.1,3.9-5,8.8-8,12.8c-8.9,12.1-21,19.4-35.5,22.9c-11.3,2.7-22.6,5.6-34,7.3
		c-20.2,3-40.4,6.3-61.1,5.2c-12.3-0.7-24.8-0.1-37.1,0.9c-26.5,2.2-52.9,3.2-79.5,3.3c-12.6,0.1-25.2,0.9-37.8,1.4
		c-7.8,0.3-15.7,0.2-23.5,0.6c-13.6,0.6-27.2,1.4-40.8,2.3c-11.8,0.7-23.7,1.4-35.5,2.5c-20.6,2-41.2,4.3-61.8,6.5
		c-5.3,0.6-10.6,0.9-15.8,1.6c-17.2,2.5-34.5,5.2-51.7,7.7c-10.5,1.5-21,2.9-31.6,4.2c-22.1,2.9-44.1,5.7-66.2,8.7
		c-9.5,1.3-18.9,3.3-28.4,4.6c-12.3,1.6-24.5,3.5-36.9,3.9c-27,0.9-54,1.2-81,1.4C2558.2,2842.8,2543.1,2842.3,2530,2842.1"/>
	<path class="st4" d="M3040.6,1546c4.4,3,7.6,4.8,10.3,7.1c14.6,12.8,30.4,23.3,49.9,27.1c5.6,1.1,11,3.6,16.5,5.4
		c7.9,2.6,15.7,5.4,23.7,7.8c16.9,5.1,33.8,10.1,50.7,14.9c8.2,2.3,16.6,4.2,24.9,6.3c13.4,3.3,25.3,10.1,37.2,16.7
		c1.9,1,3.3,3.1,4.6,5c5.6,8.3,13,16,16.2,25.2c6.2,17.6,8.8,35.9,2.1,54.7c-3,8.5-5.4,17.3-8.7,25.7c-2.9,7.4-0.1,10.8,7.9,9.3
		c18-3.4,35.6-1.2,53.4,1.7c15.6,2.5,30.4,7.3,44.9,13c12.3,4.8,23.5,11.8,32.6,21.6c3.8,4.1,6.8,8.7,8.3,14.3
		c1,3.6,2.3,7.3,4.2,10.5c3.9,6.6,4.7,13.6,3.9,21.1c-0.3,2.9,1.1,6,0.7,8.9c-1.7,10.6-2.7,21.5-9.6,30.6c-0.7,1-1.2,2.2-1.7,3.4
		c-5.4,11.9-13.2,21.9-23.8,29.7c-8.7,6.5-9.6,16.6-2.2,24.7c9,9.9,16.9,20.6,25.1,31.1c8.8,11.3,19,21.5,28.7,32.1
		c1,1.1,2.2,2.1,3.1,3.3c9.9,14,19.8,28,29.7,42c3.5,5,6.4,10.1,7.5,16.3c0.7,4.1,3.2,7.9,5.1,11.8c2.4,4.9,5,9.8,7.4,14.7
		c0.7,1.3,1.1,2.9,1.3,4.3c1.9,13.2,5.2,26,5.5,39.6c0.3,17.4-7.8,29.6-18.8,41.7c-10.7,11.7-23.5,20.6-36.1,29.9
		c-10.3,7.6-21.8,13.4-34.1,17.7c-9.7,3.4-19.1,8-28.9,11.1c-16.9,5.3-33.9,9.9-51,14.7c-9,2.5-18,5.2-27.1,7
		c-8.1,1.6-16.5,2.4-24.7,3c-14.6,1.2-29.2,0.6-43.9-0.8c-11.2-1.1-22.7,0.2-34.1,0.5c-19.2,0.5-38.4,0.8-57.6,1.7
		c-11.6,0.6-23.1,2.3-34.7,3.6c-10.3,1.2-20.6,2.5-30.9,3.6c-23.1,2.4-46.2,4.9-69.3,7c-16.9,1.5-33.8,2.3-50.7,3.2
		c-7.8,0.4-15.6,0.5-23.4,0.9c-16.8,0.9-33.3-1-49.8-3.6c-11.5-1.8-23.1-2.7-34.6-4.4c-11.7-1.7-23.5-3.5-35-6.2
		c-14.3-3.3-27.6-9.5-40.5-16.4c-8.4-4.5-16.9-9.1-24.9-14.3c-9.8-6.3-16.1-15.9-22-25.6c-1.4-2.4-2.8-4.9-3.7-7.5
		c-1.1-3.5-1.8-7.2-2.4-10.8c-0.3-2,0.1-4.1-0.2-6c-2.3-12.1,1.7-22.8,6.8-33.5c8.6-18.2,20.8-34,31.3-50.9c0.5-0.9,1.1-1.7,1.9-2.3
		c13.3-10.3,26.7-20.6,40.1-30.8c6.6-5,13.8-9.1,21.9-11.4c5.5-1.6,7-4.9,6.5-10.5c-0.7-6.7-3.8-11.8-9.9-15
		c-9.4-4.9-18.6-10-27.9-15.1c-6.9-3.8-10-9.8-12.1-17.3c-4.5-16.2-0.9-31.5,3.6-46.9c2-7,4.5-13.9,6.9-20.8
		c5.5-16.3,16.3-28.9,28.2-40.7c1.8-1.8,3.6-3.6,5.3-5.4c9.3-9.7,20.9-14.8,33.9-16.8c2.9-0.4,6,0.5,8.9,1.1
		c7.7,1.5,13.5-3.3,14.4-11.2c0.8-6.5-2.2-11.6-6.2-15.7c-5.2-5.3-8.1-11.6-10.4-18.2c-3.2-9.3-6.4-18.7-8.4-28.3
		c-3.7-17.7-5.3-35.3,5.6-51.8c8.9-13.4,15.5-28.2,25.8-40.9c6.5-8,15.5-11.9,23.4-17.7c14.3-10.4,31.5-11.5,48-14.3
		c13.6-2.2,24.6-8.6,34-18c10-10.1,17-22.5,23.9-34.8c7.1-12.6,11.4-26.4,17-39.6C3037.1,1562,3039.4,1555.1,3040.6,1546
		 M2990.2,2205.1c0-0.4,0-0.8,0-1.2c5.3-0.3,10.6-0.3,15.9-0.9c14.6-1.5,29.2-2.5,43.2-7.7c4.9-1.8,10.1-3.9,15.2-3.9
		c8.5,0,13.2-5.2,17.8-10.8c1.7-2.1,2.7-4.8,3.7-7.4c0.9-2.3,0.3-4.5-2-5.9c-2.1-1.3-4-1.9-6.3-0.3c-10.1,7.2-22.1,9.9-33.8,12.5
		c-9.8,2.2-20,3-30,4.5c-9,1.4-17.9,3.4-26.9,4.3c-20,1.8-39.7,0.6-59.2-4.9c-17.1-4.8-31.6-12.9-43.4-25.9
		c-10.9-12.1-16.4-25.9-11.4-42.5c3-9.9,4.9-20.1,9.5-29.5c4.4-9.1,8.3-18.4,12.6-27.5c2.9-6.2,7.5-11.9,8.7-18.4
		c1.4-7.8,5.2-14.2,8.5-20.8c4.3-8.8,9-17.5,14.7-25.4c8.7-12.1,19-22.9,30-32.9c6.3-5.8,11.9-12.5,18.7-17.6
		c13.8-10.5,28.6-19.6,40.8-32.3c13.9-14.5,26.1-30,34.1-48.6c5.9-13.7,3.1-29.5-7.5-39.8c-2.4-2.3-6.7-2.9-9.1-1.2
		c-2.7,2-2.8,4.8-1.8,7.5c0.6,1.9,1.7,3.7,3.1,5.1c4.9,5.4,5.8,12.4,5.5,18.9c-0.3,6.4-2.9,12.8-7.2,18c-8.7,10.4-17.2,21-26.2,31.2
		c-4.5,5.1-9.9,9.3-15,13.8c-11.2,10.1-24.9,16.7-34.4,29.2c-8.4,11.1-19.4,20.3-29.2,30.5c-4.4,4.5-9.5,8.8-12.5,14.1
		c-8.9,16.1-17.3,32.4-25,49.1c-6.5,14.1-15.2,27.4-18.7,42.8c-0.1,0.5-0.6,0.8-0.8,1.3c-1.9,4.6-4.2,9.1-5.6,13.9
		c-2.2,7.5-3.9,15.2-5.5,22.9c-2.5,11.9-2.1,23.4,2.9,34.8c7.6,17.3,20.7,29.1,37,37.5c7.6,3.9,15.9,6.4,24.1,9
		c7.2,2.3,14.6,5,22,5.3C2961,2206.4,2975.6,2205.4,2990.2,2205.1 M3301.5,2115.4c-0.8,8.2-1.2,18.1-2.9,27.7
		c-1.5,8.9-4.3,17.6-6.8,26.3c-0.8,2.6-2.6,4.9-4.3,7.1c-4.1,5.2-7.2,5.9-13.6,3.4c-5.4-2-7.5-0.6-7.5,5.3c0,1.8,0.2,3.6,0.6,5.3
		c1.8,7.6,7.4,10.7,14.8,8.4c9.2-2.8,14.9-9.6,18.6-17.8c4.2-9.4,7.7-19.2,10.7-29c3.1-10.4,5.5-21,3.9-32.1
		c-0.3-2.1,0.6-4.4,0.8-6.7c0.2-1.5,0.5-3,0.3-4.5c-2-11.5-5.3-22.6-11.2-32.7c-6-10.1-11.8-20.3-19.8-29.3
		c-10.5-11.8-19.7-24.8-29-37.7c-7.8-10.9-19-19.9-21.5-34.2c-0.1-0.5-0.5-0.9-0.6-1.4c-2.2-8.5-7.8-15.9-7.6-25.2
		c0-1-0.4-2-0.9-2.9c-3.3-7.2-3.5-14.8-2.1-22.3c2.3-12.7,5.4-25.2,7.8-37.9c0.9-4.6,0.8-9.5,0.9-14.2c0.1-2.9-1.5-5.4-4.2-5.4
		c-2.5,0-5.9,0.9-7.2,2.7c-2,2.7-2.8,6.4-3.5,9.8c-0.7,2.9-0.4,6.1-0.8,9c-2.2,13.7-4.9,27.3-6.5,41.1c-0.8,6.7-0.4,13.7,0.9,20.3
		c2.7,13.6,6.5,26.9,13,39.3c5,9.6,9.5,19.6,15.7,28.4c6.5,9.2,14.8,17.2,22.1,25.8c12.6,14.8,23.9,30.6,32.8,48
		C3298,2097.4,3300.7,2105.4,3301.5,2115.4 M3385.1,2154.9c2.2,2.5,3.5,5.3,5.6,6.1c2.2,0.8,6.1,0.4,7.6-1.1c3.9-4.1,8.5-7.8,9.8-14
		c1.1-5.4,3.6-10.4,7.9-14.4c1.7-1.6,2.6-4.3,3.3-6.7c0.9-3.1,1.6-6.4,1.9-9.6c0.8-9,3.4-18.5,1.6-27c-2.2-10.9-7.1-21.5-12.4-31.5
		c-6.2-11.8-14-22.7-21.2-33.9c-9.9-15.5-19.3-31.4-27.1-48.1c-5.5-11.9-10.7-23.8-11.4-37.2c-0.5-8.9-0.2-17.5,1.1-26.4
		c1.6-10.2,4.1-19.6,9.8-28.3c5.1-7.8,10.2-15.6,14.9-23.7c3.4-5.9,6.1-12.1,8.8-18.3c1.1-2.4,0-4.4-2.5-5.6c-2.6-1.3-4.9-1.2-6.9,1
		c-0.7,0.7-1.3,1.6-1.8,2.5c-2.9,6-5.8,12-8.8,18c-0.9,1.8-1.8,3.6-3.1,5.2c-4.7,6.2-10.5,11.7-11.3,20.1
		c-7.2,8.9-7.5,20.6-12.7,30.4c-0.6,1.1-0.6,2.4-0.7,3.7c-0.4,7-0.9,14.1-1.2,21.1c-0.1,2-0.1,4,0.3,6c2.9,15.7,9.3,30.2,15.6,44.6
		c2.4,5.5,5.3,10.8,8.2,16c5.4,9.6,11,19.2,16.6,28.7c6.3,10.5,12.8,20.9,19.2,31.4c0.4,0.6,0.4,1.5,0.7,2.1
		c2.1,4.8,3.9,9.9,6.6,14.4c3.5,5.8,4.3,11.8,3.2,18.2c-1.1,6.7-2.8,13.3-3.7,20c-1.4,10.7-7.9,18.8-13.6,27.3
		C3388,2148.5,3386.9,2151.5,3385.1,2154.9 M3147.9,2100.1c0.3,5.4,1,7.4,3.7,7.9c1.9,0.3,5.1-0.1,6-1.3c2.7-3.9,5.9-8.2,6.3-12.6
		c0.7-8-0.3-16.1-1-24.1c-0.2-1.9-1.1-4-2.2-5.5c-4.3-5.6-8.6-11.3-13.4-16.4c-7.6-8-15.7-15.7-23.5-23.5
		c-4.3-4.3-8.7-8.4-12.7-12.9c-8.4-9.4-16.3-19.2-25-28.3c-11.8-12.3-16.5-27.3-18.5-43.6c-0.1-0.7,0.2-1.5,0.3-2.2
		c3.1-14,10.7-25.4,20-35.9c0.3-0.4,0.8-0.6,1.2-0.9c11.1-6.4,21.4-14.2,34.6-16.3c4.6-0.7,7.3-4.1,7.7-8.1c0.4-3.3-2-8.7-4.5-9.9
		c-4-2-7.2-0.2-10.5,2c-8.7,5.6-17.5,11-26.2,16.5c-7.1,4.4-13.7,9.1-17.5,17.1c-2.3,4.9-6.4,9-9.4,13.7c-3.5,5.5-7.9,10.9-9.6,16.9
		c-3.1,11.1-0.8,22.3,2.5,33.3c1.8,5.8,6.1,9.8,8.4,15c4.1,9.2,10.6,16.5,17.1,23.7c8.8,9.6,17,19.7,26.9,28.5
		c11,9.8,20.4,21.5,30.5,32.4c7.9,8.4,11.9,18,9.2,29.7C3147.9,2097.2,3147.9,2099.2,3147.9,2100.1 M2894.6,1932
		c3.6-9.3,8-16.5,13.3-23.4c9.1-11.8,17.6-24,26.8-35.7c8.7-11.1,18-21.8,26.9-32.7c1.9-2.3,3.3-5.1,5.5-7.2
		c7.8-7.4,13.7-16.1,18.6-25.6c3.8-7.4,8-14.5,11.7-22c5.4-10.9,8.4-22.1,4.9-34.3c-1.6-5.6-2.1-11.4-3.7-17
		c-3.1-11.5-8.2-21.6-18.9-28.2c-3.6-2.2-6.5-5.5-9.9-8.1c-6.2-4.7-12.2-9.9-18.9-13.7c-6.2-3.5-12.8,1.2-11.9,8.3
		c0.3,2.7,2.9,5.8,5.3,7.6c7,5.3,14,11,21.8,14.9c9.9,4.9,15.2,13.2,19.4,22.4c4,8.7,5.9,17.9,4.6,27.9c-1.2,9.6-5.3,17.8-9,26.3
		c-5.4,12.5-12.6,23.9-21.5,34.3c-1.6,1.9-3.3,3.7-5,5.5c-2.2,2.3-4.7,4.5-6.7,7c-3.5,4.5-6.3,9.6-10,14c-5.6,6.8-11.9,13-17.5,19.8
		c-13.7,16.8-27.3,33.7-38.4,52.4c-3.1,5.3-3.5,10.6-2.1,16c0.6,2.3,2.8,5.4,4.9,6c6.4,1.9,13.1,1.8,18.6-3c3.7-3.2,3-6.7-1.6-8.6
		C2899.6,1934.1,2897.4,1933.2,2894.6,1932"/>
	<path class="st3" d="M3548.5,3299.6c-5.5-7.2-3.4-15.6-1.4-24.1c0.8-3.3,1-7.1,0.2-10.3c-1.3-5.4-2-10.3,1.1-15.5
		c4.5-7.5,4-16,3.3-24.4c-0.2-3-0.6-6.3,0.4-8.9c2.2-5.9,1.7-11.9,1.8-18c0-9.7,0.7-19.5,0.9-29.2c0.1-8.5,0.3-17-0.2-25.4
		c-0.5-9.3-2.6-18.5-2.5-27.8c0.1-6.6,0.5-13.2-1-19.5c-2.8-11.2-0.3-22.5-2.2-33.8c-1.8-11.1-1-22.7,0-34
		c0.5-6.2-1.4-11.9-1.1-17.9c0.1-3.5-0.6-7-0.3-10.5c0.7-8.1-1.1-16-1.8-24c-0.6-7-0.4-14.1-0.9-21.2c-0.4-6-1.1-12-2.2-18
		c-1.5-7.9-3.4-15.7-5.2-23.6c-0.9-4.2-1.8-8.4,0.2-12.6c0.3-0.6,0.3-1.5,0.2-2.2c-1.1-15.1-1.9-30.2-3.3-45.2
		c-0.8-8.8-1.6-17.6-3.8-26.1c-4.4-16.9-5.1-34.3-7.4-51.5c-1.3-9.4-3.1-18.9-2.1-28.5c0.1-0.5,0.2-1.1,0-1.5
		c-4.9-11.1-2.1-22.8-2.5-34.2c-0.6-14.9-1.5-29.7-1.6-44.6c-0.1-15.9-0.4-31.9,1.1-47.7c1-10.8,1.6-21.4,1.5-32.3
		c-0.2-13.8,1.4-27.6,2.2-41.5c0.7-11.9,0.5-23.8,2.1-35.5c1.5-11.1,1.1-22.1,1.9-33.2c1-14.1,3.1-28.1,4.6-42.2
		c0.3-2.5-0.2-5-0.4-7.5c-1-12.1-1.9-24.2-3.1-36.2c-0.3-3-1.8-5.8-2.2-8.8c-1.1-8.7-2-17.5-2.9-26.3c-0.2-1.8,0.1-3.6-0.5-5.3
		c-2-5.9-1.8-11.4,3.7-16.5c-2.6-2-4.6-3.9-6.8-5.3c-5.8-3.5-11.7-6.9-17.7-10.2c-4.2-2.3-8.5-4.3-13.6-3.9
		c-7.8,0.6-15.6,0.9-23.4,0.9c-25.8-0.2-51.5,2.9-77.2,4.5c-44.4,2.7-88.7,6.6-133.1,9.7c-23.5,1.7-46.7,4.8-70,8.7
		c-13.4,2.2-27.2,1.8-40.8,2.9c-19.4,1.5-38.8,3.6-58.2,4.8c-13.6,0.9-27.2,0.8-40.8,1.3c-5.3,0.2-10.5,1-15.8,1.6
		c-13.6,1.6-27.1,3.3-40.7,4.8c-25.6,3-51.2,5.6-76.8,8.9c-8.5,1.1-16.8,3.8-25.2,5.2c-10.5,1.7-21,2.6-31.6,3.9
		c-6.3,0.8-12.5,1.6-18.8,2.3c-8.5,0.9-17.1,1.7-25.6,2.7c-17.6,2-35.1,4.2-52.7,6.3c-25.8,3.1-51.7,6.4-77.5,9.3
		c-13.6,1.5-27.3,1.9-40.8,3.2c-15.6,1.4-31.2,3.3-46.7,4.8c-7.8,0.8-15.6,1.1-23.5,1.7c-24.2,1.8-48.4,3.4-72.5,5.3
		c-14.4,1.2-28.8,2.1-43,4.4c-29.5,4.9-59.3,5.3-89,8c-20.1,1.9-40.1,4.1-60.1,7.3c-11.7,1.9-23.7,1.3-35.5,2.5
		c-20.1,1.9-40.3,3.7-60.3,6.6c-18,2.6-36.1,4-54.2,5.8c-14.5,1.4-28.9,4.4-43.5,6.2c-15.5,1.9-31.1,3.6-46.7,4.8
		c-21.9,1.6-43.9,2.8-65.8,3.9c-15.1,0.8-30.2,1.3-45.3,1.9c-22,0.8-44,1.5-66,2.1c-20.4,0.6-40.8,0.9-61.2,1.6
		c-16.9,0.6-33.8,1.6-50.8,2.1c-10.1,0.3-20.2-0.1-30.3-0.2c-5.8,0-11.6-0.3-17.4,0c-19.9,1.1-39.9,2.6-59.8,3.6
		c-22.5,1.1-45,1.8-67.5,2.8c-6.3,0.3-12.6,1.2-18.9,1c-12.4-0.3-24.7-0.9-37.1-1.7c-5.9-0.4-10.8-3.2-13-9
		c-3.2-8.3-5.4-16.9-4.7-25.9c0.5-7.7,1.9-8.9,9.6-9.8c16.8-1.9,33.6-4.3,50.4-5.7c14.3-1.2,28.7-1.2,43.1-1.8
		c11.1-0.5,22.2-1,33.3-1.7c19.9-1.1,39.9-2.4,59.8-3.6c5.5-0.3,11.1-0.9,16.6-0.8c17.7,0.2,35.4,0.9,53,0.8c14.7,0,29.3-0.5,44-1.4
		c25.7-1.6,51.4-3.5,77.1-5.6c12.8-1,25.6-3,38.4-4.1c14.6-1.3,29.2-1.9,43.8-3c15.6-1.2,31.3-2.4,46.8-3.9
		c23.4-2.2,46.8-4.6,70.2-6.8c14.8-1.4,29.7-2,44.5-3.7c30.7-3.5,61.6-2.7,92.3-5.4c9.8-0.9,19.4-3.2,29.2-4.2
		c22.4-2.4,44.8-4.3,67.1-6.8c17.1-1.9,34.1-4.4,51.2-6.3c18.1-2,36.2-3.7,54.3-5.6c13.1-1.4,26.1-3,39.2-4.3
		c21.1-2.2,42.3-4,63.3-6.4c16.8-2,33.5-4.7,50.3-7.1c5.2-0.7,10.5-1.3,15.8-1.9c23.1-2.5,46.3-4.7,69.4-7.6
		c24.3-3.1,48.4-7,72.7-10.2c14-1.8,28.1-3.4,42.3-4.1c25.6-1.2,50.8-5.1,76.1-8.1c22.5-2.7,45-6.3,67.6-8.7
		c16.1-1.8,32.3-2.2,48.4-3.5c12.6-1,25.1-2.6,37.7-3.5c19.4-1.4,38.8-2.5,58.2-3.6c15.4-0.9,30.8-1.4,46.2-2.6
		c15.4-1.1,30.7-2.9,46.1-4.3c15.4-1.3,30.8-2.3,46.1-3.7c15.4-1.4,30.7-1.7,46.1-3.9c19.7-2.8,39.7-3.3,59.6-4.9
		c21.9-1.8,43.8-4.1,65.7-5.6c26.7-1.8,53.5-3.2,80.3-4.4c10.1-0.4,20.2,0.5,30.3,0.8c2.5,0.1,5.1,0.2,7.6-0.2
		c7.4-1.4,14.5,0,21.7,1.6c2.4,0.5,4.9,0.8,7.4,0.7c6-0.2,10.1,3.6,9.7,9.6c-0.5,9.6-1.6,19.1-1.8,28.7c-0.2,8.3,1.2,16.7,0.4,25
		c-1.2,11.3-1.3,22.5-1.2,33.8c0.3,18.4,1.7,36.7,4,55c0.2,2,0.7,4.1,0.3,6c-1.7,6.9,0.4,13.5,1.2,20.2c0.2,1.2,0.7,2.5,0.6,3.7
		c-0.9,10.7,1.1,21.1,3.1,31.5c2.3,12.3,4.9,24.6,7.2,37c1.2,6.9,2,14,2.8,21c1.1,8.9,0.3,17.9,3.4,26.7c3.1,8.8,2.6,18.3,2.7,27.6
		c0.1,6.9,1.6,13.8,2.5,20.8c0.1,0.7,0.5,1.5,0.4,2.2c-0.3,12.4,3.7,24.6,1.6,37.2c-0.5,3.2,1.6,6.8,2.2,10.3
		c0.6,3.4,0.7,6.9,1,10.3c0.1,1.7,0.1,3.5,0.4,5.2c0.1,1,1.1,2,0.9,2.8c-2.2,13.5,3.5,26.3,3.3,39.7c-0.2,9,0.4,18.1,1.5,27
		c1.3,10.7,3.7,21.3,5.5,31.9c1.6,9.9,3.2,19.8,4.6,29.7c1.2,8.2,1.3,16.7,3.3,24.8c3.2,12.5,3.2,25.3,5.3,37.9
		c1.3,7.8,0.8,16,1.2,24c0.1,1.5,0,3.1,0.3,4.5c4.7,18.2,4.3,37,5.7,55.6c0.8,11.1,2.8,22,4,33c1,8.8,1.9,17.6,2.8,26.4
		c1,9.7,2.1,19.5,2.9,29.2c0.9,11.1,1.7,22.2,2.5,33.3c0.1,1.5-0.3,3-0.5,4.5c-0.2,1.5-0.8,3-0.7,4.5c0.7,8.2,1.2,16.4,2.6,24.5
		c1.1,6.2,2.7,12.2,2,18.7c-0.5,5,0.2,10.1,0.3,15.1c0.2,11,0.9,22-0.1,33c-0.2,2.5,0.8,5,0.9,7.5c0,11.5-0.1,22.9-1.5,34.4
		c-1.2,9.9,0.1,20,0,30.1c-0.1,9.3,0.3,18.6-1.1,27.7c-1.1,7.4-1.2,14.3-0.2,21.7c0.6,4.8-1,9.9-2.3,14.8c-1,3.9-4.1,6.5-8,7.5
		c-12,3-24,6-36.1,8.6c-3.9,0.9-8,0.9-12.1,0.9c-5.3,0.1-10.4,0.6-15.4,3.2c-7.6,3.8-15.3-1.9-15-10.6c0.1-3.2,0.6-6.4,1.2-9.5
		C3546.9,3306,3547.7,3303.2,3548.5,3299.6"/>
	<path class="st3" d="M1563.4,2407.8c2.9-1.3,5.6-2.9,8.6-3.9c6.3-1.9,12.6-3.9,19-5.1c16.6-3.2,33.3-5.8,49.9-9
		c7.9-1.5,15.7-3.9,23.4-6c16.3-4.4,32.6-8.8,48.9-13.2c9.3-2.5,18.5-5.1,27.8-7.6c9-2.4,18.1-4.5,27.1-6.9c17-4.6,34-9.3,51.1-13.9
		c20.5-5.5,41-10.9,61.4-16.4c16.1-4.3,32.2-8.7,48.3-12.8c14.4-3.7,28.9-7.1,43.4-10.6c15.7-3.8,31.5-7.2,47.1-11.5
		c14.8-4,29.3-9.3,44.1-13.3c30.5-8.2,61.1-15.9,91.6-24c10.7-2.8,21.3-6.3,32-9.3c11.9-3.3,23.9-6.4,35.8-9.6
		c14.6-4,29.2-8.1,43.9-12c9.8-2.6,19.8-4.3,29.5-7c17.3-4.7,34.5-9.5,51.6-14.9c12.7-4,25.1-8.9,37.7-13.3c3.8-1.3,7.8-2,11.7-3.2
		c14.9-4.7,29.8-9.4,44.7-14.3c18.7-6.2,37.3-12.7,56-18.8c20.8-6.8,41.7-13.5,62.7-20c8.2-2.5,16.7-4,24.9-6.5
		c17.6-5.3,35.2-10.9,52.8-16.3c7.7-2.3,15.6-4.2,23.3-6.4c11.6-3.3,23.1-7.2,34.9-10c11-2.6,22-6.1,33.6-4.9c2.4,0.2,5-0.7,7.5-0.7
		c1.8,0,3.6,0.5,6.8,1c-3.2,4-5.7,6.7-7.8,9.7c-8.2,11.5-14.9,23.9-21.5,36.4c-4.4,8.4-7.8,16.8-8.7,26.4c-0.4,4.9-2.3,9.7-3.4,14.6
		c-0.3,1.5-0.5,3-0.4,4.5c0.6,8,1.1,16.1,2,24.1c0.4,3.9,2.7,6.5,6.8,7.1c3.3,0.5,5.4,2.4,6.9,5.2c7.9,14.3,20.2,23.6,34.6,30.7
		c7,3.4,13.9,7.2,20.8,10.9c15.8,8.4,32.6,13.5,50.3,16c17.7,2.5,35.5,4.6,53.3,7.1c9,1.2,17.9,3.8,26.9,3.9
		c17.1,0.3,34.3-0.6,51.5-1.2c11.8-0.4,23.7-1.2,35.6-0.8c-16.7,2-33.4,3.8-50.1,6c-11.3,1.5-22.4,3.8-33.7,5.1
		c-22.8,2.6-45.7,4.7-68.6,7c-13,1.4-26.1,3-39.1,4.3c-6.5,0.7-13.2,0.4-19.7,1.2c-12.5,1.5-25,3.3-37.5,5.4
		c-7.7,1.3-15.4,2.2-23.2,2.7c-18.6,1.3-37.1,4-55.7,6.2c-7.8,0.9-15.6,2-23.3,3.1c-16.5,2.3-33,4.6-49.5,6.9
		c-17.5,2.3-35,4.9-52.6,6.7c-32.7,3.5-65.4,6.5-98.1,9.8c-14.8,1.5-29.7,3-44.5,4.5c-21.9,2.2-43.8,4-65.6,6.6
		c-19.8,2.3-39.5,5.7-59.3,8c-13.6,1.5-27.2,2-40.9,2.8c-17.6,1-35.3,1.5-52.9,2.9c-25.4,1.9-50.8,4.3-76.2,6.7
		c-15.1,1.4-30.1,3.6-45.2,5c-10.3,1-20.7,1.2-31.1,1.9c-17.6,1.1-35.3,1.8-52.9,3.4c-20.8,1.8-41.6,4.5-62.4,6.6
		c-14.3,1.5-28.6,3.2-43,3.8c-23.7,1-47.4,2.1-71.1,1.5c-36.2-0.9-72.3-0.4-108.3,2.6c-27.2,2.3-54.5,2.1-81.7,4.1
		c-10.6,0.8-21.1,2-31.7,3c-3.1,0.3-6.3,0.3-9.5,0.5C1563.9,2409.6,1563.6,2408.7,1563.4,2407.8"/>
	<path class="st3" d="M3341.8,2253.1c10.7-2.8,21.3-5.7,32-8.5c4.6-1.2,9.4-2,13.8-3.8c13.8-5.6,27.6-11.1,41-17.6
		c12.3-5.9,23.5-13.6,34.8-21.4c11.8-8.2,22.9-17.4,33.3-27.2c5.8-5.6,11.3-12,13.4-20.6c1.5-6.3,4.5-12.2,7.1-18.7
		c1.8,0.5,3.4,1.1,5,1.4c10.1,2,14.6,8.7,16.5,18.3c2,9.9,4.6,19.7,6.8,29.5c0.4,1.7,0.6,3.5,0.6,5.3c-0.1,10.2,0.5,20.5-0.7,30.7
		c-0.7,6.3-3.6,12.5-6.3,18.4c-0.8,1.7-4.1,2.8-6.4,3.1c-21.1,2.2-42.2,4.4-63.3,6c-10.8,0.8-21.8-0.1-32.6,0.7
		c-29.5,2.2-59,4.8-88.5,7.2c-2.1,0.2-4.2-0.3-6.4-0.4C3341.8,2254.7,3341.8,2253.9,3341.8,2253.1"/>
	<path class="st6" d="M1510.1,2440.1c43.4-2.6,85.1-16.3,126.9-27.1c19.5-5,39.3-14.5,57.5-23c23.8-11.2,44.6-17.2,70.7-21.4
		c46.4-7.6,91.9-20.6,135.7-37.6c43.9-17.1,90.3-20.1,135.3-33.8c46.5-14.2,94.1-23.5,140.5-38c45.7-14.3,88.6-38.4,134.7-50.5
		c24.6-6.5,49.1-5.3,74-8.9c22.5-3.2,43.7-11.3,64.8-19.4c46.3-17.8,95.3-26.6,143.4-38.4c27.6-6.8,55.3-8.1,83-13.7
		c7.8-1.6,15-4.1,22.2-7.5c13.4-6.2,24.3-6.5,38.2-9.6c39.5-8.6,75-38,97.4-70.7c3.9-5.7-5.7-10.6-9.6-4.9
		c-13.2,19.3-30.4,35.3-50.2,47.7c-21.5,13.5-40.3,14.7-63.9,20.8c-6.2,1.6-11.6,4.8-17.4,7.4c-13,5.7-25.9,7.6-40,9
		c-21.7,2.1-42.1,6.2-63.3,11.3c-45.5,11.2-92.6,19.1-136.5,35.7c-20.4,7.8-40.7,16.2-62.3,20.3c-22.5,4.3-45.6,2.7-68.1,7
		c-47.1,9.1-89.8,35.1-135.4,49.7c-42.6,13.6-85.8,23.1-128.9,34.8c-21.5,5.8-42.6,13.5-64.3,18.5c-22.3,5.1-45.2,5.1-67.1,12
		c-45.4,14.1-88.3,32.6-135,42.9c-24,5.3-49.1,7-72.7,14.2c-21,6.4-42.2,17.5-62.3,26.5c-44.2,19.8-99.6,33.2-147.9,36.2
		C1502.6,2429.8,1503.2,2440.5,1510.1,2440.1"/>
	<path class="st6" d="M1505.8,2440.3c113.7-6,227.5-11.5,341.2-17.9c53.4-3,105.4-9.3,157.7-19.8c26.1-5.3,51.6-9.1,78.2-9.8
		c26.4-0.6,52.8-0.1,78.7-6.5c27.5-6.8,50.8-14.8,79.6-12.9c25.8,1.7,51.4,0,77.3-1.5c23.4-1.3,43.8-6.3,66.3-12.1
		c28.7-7.5,58.5-7,87.9-4.8c109.3,8,217.1-2.6,326.4-8.5c24.4-1.3,49.5-0.7,73.5-5.4c26.6-5.2,50.9-18.8,77.5-23.2
		c53.6-9,109.9-4,164-9.3c23.9-2.4,46.8-7.4,71-8.3c27.4-0.9,52.6-4.9,79.2-11.4c54.7-13.6,110.2-16.6,166.4-18.3
		c22.6-0.7,42.3-4.9,64.5-8.3c11.8-1.9,24.8-3.6,36.7-1.4c21.7,4.1,26.4,16.5,26.3,35.5c-0.1,22.1,0.4,42.7-1.5,64.7
		c-1.9,22.5-2.9,45.8,2.7,67.9c5.9,23,13.2,46.2,23.7,67.5c4.7,9.6,11.2,18.3,14.9,28.3c5.6,14.5,3.7,30.7,4.2,46
		c0.8,26.1,1.5,52.6,6.6,78.2c5.3,26.4,9.6,50.4,10.5,77.5c1.8,56.6,5.6,113.2,8.6,169.8c1.5,28.2,3.2,55.9,6.9,83.9
		c3.3,24.8,1.7,50.4,7.2,74.8c5,22.3,2.7,44.8,7,67.1c2.6,13.3,8.1,25.6,10.2,39.1c2.7,18,1.2,36.1-0.7,54.1
		c-2.3,21.3-4.7,42-4.7,63.5c0,11.8,3.6,29.9-2,41c-5.4,10.8-19.4,15.1-30.1,17.8c-18.1,4.5-39.5,9.4-57.8,10.3
		c-7.3,0.4-23.9,4.4-30.7,0.9c-12.8-6.7-4.3-38.1-1.8-48.6c4.9-20.5,11.3-37.2,19.8-56.3c8.1-18.1,11.9-39,12-58.7
		c0.2-27.7-2.8-55.8-4.2-83.5c-1.3-25.2,0.1-51.1-3.8-76.1c-4.1-25.8-6.5-50.1-7.5-76.2c-0.9-24.9-7.3-48.4-9.1-73.1
		c-1.9-25.8-3.5-49.4-9.1-74.6c-6.4-28.5-6.3-57.9-7.9-87c-1.5-25.8-4.7-51.7-4.7-77.5c0.1-26,6.1-51.4,6.5-77.6
		c0.3-24.3,2.4-48.5,2.8-72.7c0.2-9.9,3.3-18.9,3.5-28.8c0.2-15.6-1.7-31.5-2.5-47.1c-1.4-29.7,0.5-74-34.6-85.6
		c-14.2-4.7-30.3-2.8-45-2c-30,1.7-59.9,3.1-89.9,4.7c-54.2,2.9-108.9,3.7-163,8.7c-25.8,2.4-50.8,9.6-76.6,12
		c-23.1,2.2-48.7-0.9-71.1,5.6c-25,7.2-49.2,14.2-75,19c-27.9,5.2-56.2,1.7-84.1,6.1c-26.5,4.2-52,13.4-78.7,16
		c-27,2.6-54.3,1.6-81.3,3.8c-52.9,4.4-104,23.4-156.8,26c-112.5,5.5-225,11.8-337.5,17.7c-53.7,2.8-109.9,1.4-163.1,9.9
		c-25.3,4-50,10.7-75.7,12.4c-27.4,1.9-54.9,1.4-82.3,2.7c-25.9,1.2-49.7,10.7-75.4,13.5c-27.9,3-56.2,3.7-84.3,4.8
		c-55.4,2.1-110.8,4.9-166.2,7.8c-13.7,0.7-27.4,1-41,2.2c-7.4,0.6-18.4,4-25.7,2.4c-23.6-5.3-16.9-55.8-17.8-72.3
		c-0.4-6.9-11.1-6.4-10.7,0.6c1.1,19.7-1.3,43.6,3.3,63c2.8,11.6,8.9,17.7,20.7,19.3c19.7,2.7,43.9-2.8,63.7-3.9
		c30.1-1.6,60.2-3.2,90.3-4.7c58.7-3,118.4-1.7,176.7-9.1c25.3-3.2,48.4-12,74.2-13c28.9-1.1,58.3-0.4,87.1-3.5
		c26.8-2.9,52.8-11,79.7-13.5c29.2-2.7,58.7-3.2,88-4.7c59.1-3.1,118.2-6.2,177.4-9.3c58.3-3.1,116.5-6.1,174.8-9.2
		c26-1.4,53.9,0.1,79.4-5.5c25.1-5.4,50.2-10.4,75.3-16c55.7-12.6,113.2-5.1,168.8-18.2c54.5-12.8,109.7-10.5,164.4-22.4
		c12.4-2.7,23.4-8.2,35.4-11.6c14.3-4.1,30-2.6,44.8-3.4c29.1-1.6,56.4-7.5,84.9-11.9c55.4-8.7,113.9-7.1,169.8-10
		c27.3-1.4,54.6-2.9,81.8-4.3c25.4-1.3,60.8-9.5,75.8,17.1c11.9,21,8.4,51.8,9.5,75.2c1.3,27,0.1,53.8-2.1,80.7
		c-1.9,24-1.5,47.9-2.7,71.9c-1.4,27.7-7.1,52.9-5.4,80.9c3.3,53.7,4.9,106.9,15.9,159.5c5.5,26.5,2.6,53.7,7.5,80.2
		c5.5,29.6,5.5,58.1,7.9,88c2,25.2,8,49.3,8.5,74.7c0.6,29.9,2.4,59.7,4,89.6c1.4,26.9,2.6,53-6.4,78.9
		c-3.7,10.7-10.5,19.7-14.5,30.2c-3.8,9.9-5.2,20.4-7.7,30.6c-5.3,21.8-16.5,67.5,18,67.2c22.7-0.2,43.1-4.5,65.1-8.3
		c14.5-2.5,29.9-4.6,42.6-12.7c9.2-5.9,15.2-14.3,16.7-25.1c1.6-11.5-0.1-23.9-0.1-35.5c0-17.7,1.4-35.1,3.5-52.7
		c2.9-24.3,5.5-48.8,0.5-73.1c-1.9-9.3-5.5-18-7.7-27.2c-4-16.5-2.5-33.1-4.1-49.9c-0.9-9.2-3.5-17.7-5.2-26.8
		c-2.8-14.6-1.7-29.5-2.9-44.3c-2.6-30.6-7.3-60.6-9-91.3c-3.2-59.7-7.1-119.4-9.3-179.1c-2.1-55.4-15.6-108.1-17.3-163.6
		c-0.6-19.5,1.3-38.5-7.9-56.3c-13.7-26.5-25.4-51.7-33.2-80.7c-7.7-28.4-5.7-55.1-2.9-84c2-20.9,1.5-43.2,0-64.3
		c-2.7-39-48.7-37.8-77.9-32.9c-23,3.9-44.3,7.1-67.7,8c-30.6,1.2-61.6,2.3-92.1,5.3c-24,2.4-47.1,7.5-70.4,13.3
		c-31.6,7.8-60.9,9.8-93.2,11.5c-25.1,1.4-49.2,7.5-74.3,8.7c-29.2,1.4-58.3,3-87.4,4.6c-24.2,1.3-49.5,0.1-72.9,7.2
		c-27.2,8.2-51.4,20.1-80.3,22.4c-57.8,4.7-116,5.8-173.8,9.9c-57.9,4.2-116,8.5-174,4.1c-25.2-1.9-50.3-4.9-75.7-4
		c-29.7,1-55.3,11.5-84.3,15.8c-24.8,3.7-51.1,4.3-76.2,5c-27,0.8-51.3-4-77.9,3c-27.4,7.2-52.3,14-80.9,14.9
		c-28,0.8-55.2,0.9-82.9,5.8c-56.4,9.9-111.2,20.1-168.5,23.6c-58.4,3.5-116.9,6.2-175.3,9.2c-59.3,3.1-118.6,6.2-178,9.3
		C1498.3,2429.9,1498.9,2440.7,1505.8,2440.3"/>
	<path class="st6" d="M1494.9,2500.2c2.4,40.8,9.4,82.2,18.4,121.5c4.3,18.9,4,39.3,7.4,58.6c4.6,26,4.3,52.1,5.2,78.4
		c0.9,25.2-0.5,49-3.8,74c-2.9,22.4-2.1,44.1-2.9,66.6c-1.9,50.2-17.8,97.7-26,146.8c-7.1,42.8,8.2,74.8,24.4,113.4
		c8.4,20,16.7,40.1,24.9,60.1c10.5,25.4,13.5,48.7,15.1,76c1.8,32,10.5,67.2,39.5,85.4c16.1,10.2,37.6,10,55.4,16.5
		c21.5,8,43,15.4,64.3,23.7c17.3,6.7,33.3,7,51.7,5.8c26.6-1.8,52.5-3.8,79.2-2c27.2,1.8,54.3,5.8,81.4,8.8
		c25.4,2.8,50,1.5,75.4,2.6c20.8,0.9,41.1,6.3,61.9,8.1c26,2.3,52.1,2.3,78.2,1.1c51.5-2.4,102.9-5.2,154.4-8
		c51.4-2.8,103-7.2,154.6-4.8c21.9,1,43.6,6.2,65.4,6.4c24.2,0.2,48.7-2.9,72.8-4.2c53-2.8,105.9-5.7,158.9-8.4
		c23.7-1.2,47.8-1.2,71.3-5.6c25.7-4.8,49.8-9.7,76.1-11.2c57.4-3.2,114.7-4.9,171.9-10.7c56-5.6,111.9-12.2,168.2-15.3
		c28.6-1.5,57.1-3.2,85.7-4.6c24.9-1.2,50.4,0,74.3-8.1c26.6-9.1,51.6-11.2,79.4-14.6c28.6-3.4,55.7-10.2,84.5-11.2
		c6.9-0.2,6.4-11-0.6-10.8c-24.2,0.8-45.4,5.5-69.2,9.2c-22.8,3.5-46.2,3.3-68.8,7.9c-20.5,4.2-38.3,13.7-59.7,14.9
		c-25.7,1.5-51.5,2.4-77.3,3.8c-97.3,5.3-193.9,18.5-291.1,24c-47.2,2.7-97.4-0.3-143.9,8.6c-24,4.6-46.7,10.1-71.3,11.4
		c-25.8,1.4-51.5,2.5-77.3,3.8c-50.6,2.6-101.3,4.5-151.8,8.3c-46,3.4-91.5-5.6-137.7-5.2c-99,0.9-197.8,13.4-296.8,14.2
		c-47.6,0.4-93.5-10.5-140.9-9.4c-48.4,1.1-96.6-11.4-145-12.9c-25.3-0.8-50.1,3.2-75.3,3.5c-24,0.3-41-9.8-62.7-17.7
		c-20.2-7.3-41.7-16.1-62.8-20.3c-12.1-2.3-21.5-2.5-31.7-10.7c-10.9-8.8-18.8-20.8-23-34c-6.8-21.3-5.7-42.8-7.6-64.7
		c-1.8-21.2-9.4-40.9-17.6-60.3c-7.6-17.7-14.6-35.6-22-53.3c-9.3-22-21.3-43.3-25.1-67.2c-4.3-27.2,3.6-54.1,9.9-80.3
		c6-25.1,10.7-50.7,14.2-76.3c3.5-25.3,1.7-50.2,3.4-75.6c1.7-24,7.2-47.6,7.4-71.7c0.2-26.2-0.8-53.1-2.8-79.2
		c-1.8-23.4-7.8-46-8.8-69.5c-0.5-11.2-4.3-20.7-5.9-31.6c-1.6-10.9-1.1-20.1-4.3-30.7c-6.9-22.4-8.9-51-10.2-74.6
		C1505.3,2492.7,1494.5,2493.2,1494.9,2500.2"/>
	<path class="st6" d="M2903.1,2287.4c-13.3,0.7-26.6,1.3-39.9,2c-13.2,0.7-29.9,3.8-42.8,0.5c-12.8-3.3-19.4-13.3-29.6-20.7
		c-8.3-6.1-18-10.4-26-17c-22.2-18.2-27-45.9-26.4-73.2c0.3-15.8,3.2-28.4,13.5-40.7c7.3-8.7,12.1-16.1,17.4-26.4
		c11.8-22.8,26.2-36.1,45.1-52.4c9.1-7.9,24-19.2,21.8-32.8c-1-6.3-8.3-12-10.8-17.6c-4.7-10.6-6.5-24.3-7.8-35.8
		c-3.5-30.5,9.1-54.2,27.3-77.8c8.7-11.3,21.2-22.1,26-35.8c6.1-17.2,1.9-37.5-0.1-55c-6.6-56.5,19.5-93.8,66-123
		c34.5-21.6,62.4-49.7,72.9-90c4.5-17.2,14.8-31.6,18.9-48.7c1.6-6.7,2.4-13.7,3.9-20.4c0.4-1.8,3-15.3,4.8-15.4
		c-0.4,0,2,12.7,2.1,12.8c3.1,9.5,10.5,17.6,14.7,26.6c3.1,6.5,5.5,13.4,10,19.2c9.5,12.2,25.2,13.8,39.7,15
		c14.1,1.2,26.3,1.9,39.9,6.9c10.1,3.8,19.8,7.2,30.4,9.7c11.1,2.5,22.5,3.8,33.4,6.9c14.7,4.1,27.7,12.2,41.5,18.3
		c14,6.2,29.5,10.6,35.2,26.7c3.7,10.3,3.4,21.9,4,32.7c0.7,12.4,1,23.8-2.3,36c-3,11-7,22.4-7.7,33.9c-0.7,11.3,3.2,18.2,14.6,20.7
		c21.4,4.8,44.5-4.6,66.5-0.4c50.6,9.8,103.7,68.7,57.9,114.6c-10,10-20.1,17.3-22.1,32.2c-2.3,16.7,1.6,36.6,11.3,50.4
		c4.9,7,12,12,17.6,18.4c7.1,8.1,11.1,18.1,17.7,26.5c16.5,20.8,38.4,35.7,51.9,59.2c15.3,26.6,14.6,53.7-0.5,80.3
		c-7,12.3-17.2,16-27.2,24.6c-10.5,8.9-18.2,16.5-30.9,23c-23,11.7-46.8,23.2-67.9,37.9c-20.5,14.3-50.1,22.7-74,30.9
		c-29.3,10.1-61.8,18.4-93,13.3c-14-2.3-27-7.9-41.2-9.1c-10.7-0.9-21.4,0.5-32.1,1.4c-12.9,1.1-26.3,2.7-39.2,2.5
		c-14.7-0.3-28.4-3.6-43.2-3.1c-27.7,0.9-55,4.7-82.8,3.9c-28.3-0.8-55-1.1-83.3,1.4c-19.8,1.7-50.6,10.6-67.1-3.5
		c-5.3-4.5-12.5,3.5-7.2,8c14.9,12.7,35.7,10.4,53.9,8.5c29.8-3.2,59.4-6.3,89.4-4.4c34.2,2.2,67.4-3,101.5-3.2
		c15.8-0.1,30.9,3.5,46.7,2.9c16.4-0.6,32.7-2.9,49-3.6c17.7-0.7,32.9,4.6,49.8,8.1c15.3,3.2,31.3,2.5,46.8,0.9
		c31-3.1,58.6-16.5,87.5-26.7c12.1-4.3,25-6.9,36.2-13.5c14.4-8.6,27.5-17.5,42.7-24.9c13.2-6.4,25.9-14.3,38.9-21.1
		c13.7-7.2,22.3-19.2,35-27.6c44.3-29.4,41.1-88.3,11.2-127.2c-8.1-10.5-17.6-20-27-29.4c-12.1-12-19.9-25.6-30.2-38.9
		c-9.8-12.7-22.4-20.7-27.4-36.8c-2.2-7.2-3.3-16-2.7-23.5c1-13.3,7.3-18.6,15.9-26.9c15.8-15.2,25.9-29.6,24.1-52.2
		c-1.9-24.2-13.7-44.4-32.6-59.5c-19.5-15.6-44.4-25.6-69.5-26c-8.4-0.2-16.7,0.8-25,1.4c-4.3,0.3-15.9,3.3-19.7,1.1
		c-4.5-2.6-7.7-16.2-7.7-20.6c0-3.3,1.6-7.5,2.5-10.7c2.4-9.3,5.7-18,6.4-27.7c1.5-21.3,1.6-55.3-14-72.3
		c-9.2-10.1-23.1-13.9-35.2-19.4c-14.8-6.7-28.3-14.8-44.2-18.7c-22.1-5.4-42.9-10.8-64.7-17.4c-14.2-4.3-28.2-4.1-42.9-5.9
		c-9.9-1.2-20.4-3.5-27.2-11.8c-4.8-5.8-6.6-14.3-10.1-21c-4.4-8.3-9.8-15.5-12.4-24.6c-1.9-6.7-1.7-10.5-5.9-16.3
		c-1.3-1.7-4-3.2-6.2-2.2c-19.4,9.2-14.9,42.1-23.1,59c-8.1,16.7-12.1,32-18.3,49.5c-8.1,22.7-25.8,43.2-44.9,57.7
		c-29,22-61.8,35.8-79.3,70c-16.6,32.4-11.1,63.3-8.7,97.7c1.6,23.2-5.1,35.2-19.4,52.9c-12,14.9-23.9,30.4-31.1,48.3
		c-12,29.8-3.4,60.7,5.4,90c2.7,8.9,8.3,11.4,0.6,22.3c-5,7.1-13.7,12.2-20.3,17.5c-13.5,10.8-24,24-32.8,38.9
		c-6.3,10.7-10.8,21.5-18.8,31.2c-4.6,5.5-8.9,9.8-12,16.3c-6.9,14.4-7,32-6.1,47.6c1,18.9,4.4,36.6,15.6,52.3
		c11.8,16.8,29.6,23.4,45.1,35.9c13,10.5,19.7,18.8,37.3,20.6c25.2,2.5,52.6-2.1,77.8-3.4C2910.5,2297.7,2910,2287,2903.1,2287.4"/>
	<path class="st6" d="M3078.9,2187.6c-50,2.8-110.1,16.7-157.6-1.9c-55.6-21.8-25.1-101.7-2.4-138.5c12.7-20.7,25.8-52,45.6-66.6
		c6.6-4.8,12.8-7.3,18.4-13.6c7.4-8.3,13-17.6,21-25.5c14.6-14.4,24.1-24.5,30.2-44.1c5.5-17.7,11.4-33,10.7-51.7
		c-0.3-6.9-11-6.4-10.7,0.6c0.9,23.8-9.5,58.6-25.4,75.9c-9.4,10.2-19.4,18.9-27.8,30c-8,10.4-17.6,14.5-27.1,22.7
		c-16.2,13.9-27.3,40-38.5,58c-13.5,21.6-28.9,44.8-33.4,70.4c-3.3,18.6-3,44,2.1,62.2c5.2,18.5,18.3,24.2,35,30.9
		c22,8.8,41.3,8.9,64.9,7.9c31.9-1.4,63.7-4.1,95.6-5.9C3086.3,2198,3085.8,2187.2,3078.9,2187.6"/>
	<path class="st6" d="M2899.7,1956.7c-1-17.1,4.7-23.3,14-36.8c7.8-11.3,13.8-23.8,23.5-33.7c19.7-20.3,39.6-37.4,54.3-62.2
		c22.8-38.4,2.9-94.7-25-124.5c-4.7-5.1-11.9,3-7.2,8c21.9,23.4,29.4,50.5,29.7,82c0.2,27.6-21.1,54.4-40.7,72.7
		c-8.4,7.9-17.9,14.5-25.1,23.6c-6,7.5-10.3,16.3-15.7,24.3c-11.4,17.1-19.9,25.9-18.7,47.4
		C2889.4,1964.2,2900.1,1963.6,2899.7,1956.7"/>
	<path class="st6" d="M3064.6,1607.5c1.5,35.8-1.8,74.2,13.3,107.8c13.5,29.8,39.7,47.6,68.8,60.1c32.6,14,76,25.3,98.3,55
		c5.6,7.4,9,16.3,14.1,24.1c5.1,7.9,12,14.5,17.3,22.3c12.7,18.8,15.9,41.5,16.9,63.7c0.3,6.9,11.1,6.4,10.7-0.6
		c-0.7-16-2.5-32.4-7.9-47.6c-5.7-16.3-16.7-27.3-26.3-41.2c-9.5-13.8-15.3-28.5-28.2-39.7c-12.5-10.9-27.3-18.7-42.3-25.4
		c-32.7-14.6-71-24.3-95.9-51.4c-31.7-34.4-26.2-84.4-28.1-127.6C3075.1,1600,3064.3,1600.6,3064.6,1607.5"/>
	<path class="st6" d="M3126.2,1883.6c-21.3,4.1-34.6,20.5-45.7,38.1c-11,17.5-26.3,40.5-22.8,62.3c3.7,23.1,32.4,35.6,49.2,48
		c11.1,8.1,23.1,16.6,30.4,28.5c6.6,10.7,16.3,32.1,6.6,43.4c-4.5,5.3,3.5,12.5,8,7.2c23.2-27.1-11.6-67.1-32.1-82.8
		c-11.4-8.8-23.5-16.6-34.9-25.3c-19.3-14.7-19.3-29.5-10-49.5c10.9-23.5,27.1-54.4,54.6-59.7
		C3136.3,1892.5,3132.9,1882.3,3126.2,1883.6"/>
	<path class="st6" d="M3217.5,1892.6c1.5,30-2.9,66.9,7.9,95.3c7.7,20.5,25.5,35,41.4,49.1c10.8,9.6,22.4,19.2,28.8,32.4
		c6.5,13.5,6.6,30.3,7.6,45.1c1.2,18.4-3.6,36.1-11.6,52.7c-5.7,11.9-13,22-14.4,35.5c-0.7,6.8,9.8,9.2,10.5,2.3
		c1.7-15.9,12.4-29,17.9-43.8c3.9-10.5,7.9-21.4,8.8-32.6c1.9-23.1-1-54.8-15.1-74.1c-15.8-21.7-41.3-34.5-56.3-56.8
		c-18.9-28-12.9-73.1-14.6-105.6C3227.9,1885.1,3217.2,1885.7,3217.5,1892.6"/>
	<path class="st6" d="M3402.3,2173.2c2.3-24.7,15.8-46.7,17.6-71.5c1.6-22.5,0.1-49.7-9.3-70.4c-11.1-24.6-29.1-46.7-35.4-73.2
		c-3.4-14.3-5.1-32.1-5.3-46.8c-0.2-17,7.7-29.3,19.5-41.1c4.9-4.9-3.1-12.1-8-7.2c-16.2,16.2-23.6,32.9-21.8,55.9
		c2,26.4,5.8,50,18.1,73.7c7.8,15.1,17.5,29.4,24.1,45.1c5.9,14.1,6,29,6.8,44c1.8,32.4-13.9,57.9-16.8,89.3
		C3391.2,2177.7,3401.7,2180.1,3402.3,2173.2"/>
	<path class="st6" d="M1527.5,2689.2c64.6-3.4,132.1-1.5,195.8-13.1c29.8-5.4,57.9-12.9,88.3-14.7c33.5-2,66.4,0.2,99.9,1.5
		c66.4,2.5,132.7-8.2,199.1-7.5c62.1,0.7,122.8,10.9,185,6.8c29.7-2,58.1-11.6,87.9-14c34.9-2.8,69.8,3.1,104.4-0.1
		c27-2.5,53-11,79.3-17c37.1-8.4,74-7.6,111.7-10.8c60.9-5.2,116.2-32.1,177.1-35.5c28-1.6,55-7.4,82.8-9.2
		c34.2-2.2,68.4-2,102.5-6.5c27.4-3.6,52.3-12.6,79-18.8c33.8-7.8,72.7-4.4,107.3-6.3c26.7-1.5,53.7-6.7,80.5-5.7
		c10.8,0.4,24.6,1.2,35.1,4.4c22.8,7.1,19.7,31.4,19.8,50.9c0.1,29.9,2.2,59.4-1.7,89.2c-2.2,16.9-6,32.7-12.2,48.5
		c-5.9,14.9-9.6,31.4-19.9,43.9c-20.4,24.9-38.6,36-71.4,37.7c-35.1,1.9-70.5,2.9-105.6,3.1c-65,0.5-129.2,3.7-194.2,7.1
		c-29.2,1.5-59.2,5.1-88.4,4.5c-15-0.3-29.3-4.3-44.2-5.3c-17.9-1.3-36.2,1.1-54.1,2c-63.6,3.3-127.5,5.3-191,10
		c-14.4,1.1-28.9,3.3-43.4,3c-13.5-0.3-24-4.8-37-6.7c-30.1-4.4-64.7,2.7-95,4.5c-32.5,1.9-64.5-1.2-97,0.5
		c-38.6,2-77.3,3.9-115.9,6c-75.8,4-151.6,7.9-227.4,11.9c-149.7,7.9-298.7,20-448.4,27.8c-6.9,0.4-6.4,11.1,0.6,10.7
		c139.8-7.3,278.9-18.9,418.8-26.3c70.4-3.7,140.9-7.4,211.3-11.1c69.7-3.7,142.4-13.5,212-8.2c29.8,2.3,60.3-1.5,90.1-3.4
		c16.1-1,33.1-3.8,49.2-1.6c13.4,1.8,25.7,6.2,39.4,6.4c31.9,0.5,64.6-4.2,96.5-5.9c34.2-1.8,68.4-3.6,102.6-5.4
		c33.6-1.7,68.8-6.9,102.2-2.1c30.7,4.4,60,2.2,90.9,0.6c68.9-3.6,137.4-9.1,206.4-8.6c34.3,0.3,68.5-1.9,102.7-2.6
		c25-0.5,51.9,0.3,72.6-15.6c39.7-30.5,56.2-83.2,61.4-131.3c3.3-30.4,1.4-61,1-91.4c-0.2-17.2,0.5-39.4-16.2-49.2
		c-15.5-9.1-39.7-9.4-57.2-9.3c-31.1,0.3-62.3,5.2-93.4,6.8c-29.3,1.5-61.5-1.4-90,5.8c-35.9,9-69.5,18.5-106.8,21.5
		c-31.9,2.6-64.6,0.6-96.1,6c-31.8,5.5-63.8,5.1-95.8,10c-29.1,4.5-56.1,16.8-84.8,23.3c-35.7,8.1-71.4,9.2-107.9,11.2
		c-31.9,1.7-61.9,8.8-92.9,16.5c-36.3,8.9-68,7.8-104.7,7.3c-32.4-0.5-63.4,3.1-95,9.8c-32.9,6.9-67.5,8.5-101.1,7
		c-34.2-1.6-68.1-6.2-102.3-7.6c-33.4-1.3-66.6,0.9-99.9,2.7c-34.1,1.8-68.5,4.9-102.7,4.7c-33.3-0.2-66.3-4.2-99.6-2.7
		c-32.8,1.4-62.8,6.5-94.7,13.6c-34.1,7.7-69.4,7.9-104.2,9.7c-33.8,1.8-67.7,3.5-101.5,5.3
		C1520,2678.8,1520.5,2689.6,1527.5,2689.2"/>
	<path class="st6" d="M1526.3,3077.2c14.3-0.3,28.1,3.1,42.5,2.4c17.8-0.8,35.6-2.2,53.4-3.1c35.4-1.9,70.9-3.7,106.3-5.8
		c38.6-2.3,77.1-4.9,115.7-7c37.2-2,77.1,0.7,113.9-5.2c28.4-4.6,53.9-22.6,81.2-31.5c35.4-11.5,72.2-19.1,109.1-23.5
		c71-8.4,144.1-12.2,215.5-7.8c33.8,2.1,68.5,5.3,102.4,3.2c33-2.1,65.9-8.6,99-11.3c70.8-5.9,142.4-9.4,212-24.2
		c36.1-7.7,71.8-7.2,108.5-9.1c37.2-2,74.5-4.2,111.7-5.8c37.7-1.6,75.5,0.1,113.3-1.6c34.5-1.5,68.4-5,102.9-3.2
		c36.7,1.9,72.6-2.1,109.4,1.8c14.7,1.6,35.6,2.2,48,10.9c15.5,10.9,11.9,33.6,12.7,50c1.7,34.4,3.6,68.9,5.4,103.3
		c0.7,14.4,2.8,30.1-2,44c-7.9,22.5-29.1,26.8-50.2,30.4c-29.6,5.1-56.5,17.3-85.3,25.4c-32,9-67,14.7-97.9,27.1
		c-14.8,6-27,14-43.7,13.6c-17.5-0.5-34.6-4.8-51.7-7.9c-33.6-6-67.8-10.8-101.8-13.9c-33.2-3-65.5,1.2-98.6,0.8
		c-35.6-0.4-70.9-6.3-106.6-6.6c-35.1-0.2-70.1,2.5-105.1,4.7c-36.5,2.3-73.3,2.6-109.5,8c-34.5,5.1-68.4,10.7-103.4,11.9
		c-37.4,1.2-73.8,3.7-110.8,10.1c-36.1,6.3-71.9,8.9-108.5,10.4c-34.8,1.4-69.6,4.4-104.4,1.4c-31.2-2.7-63.5-4.4-94.8-4
		c-34.9,0.4-69.2-8.9-104-11.8c-13.8-1.2-27.5-1.1-41.3-1.9c-19.6-1.2-38.6-6.8-57.5-12c-33.7-9.2-63.7,0.2-97.8,2.5
		c-27.3,1.9-59.5-4.4-85.7,5.5c-11.3,4.3-23.2,9.7-34,15c-12.7,6.2-28.8,20.6-32.7-1.4c-3.5-20.1,0.8-39.6-5.3-59.6
		c-3.1-10.1-7.8-19.9-14.6-28.1c-4.2-4.9-9.4-8.8-13.8-13.4c-8.5-8.8-13-19.4-17.5-30.5c-3-7.2-7.8-15-9.8-22.6
		c-2.9-11.1,3.3-30.9,14.3-33.8c10.2-2.7,34.1-3.9,42.8,1.7c5.8,3.8,10.7-5.8,4.9-9.6c-8.9-5.7-18-5-28.2-4.1
		c-10.4,0.9-23.3-0.7-33.1,3c-22.1,8.3-15.2,35.9-8.1,52.5c5.7,13.3,10.3,28.3,18.3,40.4c10.7,16.2,26.9,25.1,33.7,44.6
		c7.8,22.3,0.9,45.3,7.2,67.5c4,13.9,13.4,20.3,27.5,14.7c7-2.8,12.8-8.2,19.5-11.5c6.5-3.2,13.5-4.7,20.1-7.8
		c18.3-8.6,33.1-11.2,53.5-11.2c16.7,0,33.1-0.1,49.8-1.5c19.5-1.6,39.4-7.7,59-7.3c18.7,0.4,37.6,8.2,55.8,12.5
		c17.8,4.2,34.4,4.8,52.7,5.5c36.1,1.4,71,11.7,106.8,13.5c37.9,1.8,76,0.6,113.9,3.8c34.5,2.9,69.1,0,103.6-1.4
		c40.8-1.7,80.3-5.7,120.6-12.5c39.6-6.7,79.1-6.4,119-8.8c38.8-2.3,76.7-11.7,115.4-14.6c79.6-6,160.4-12.4,240-5.6
		c35.9,3.1,70.3,1.1,106.2,0.6c40.4-0.6,81,6.2,120.8,12.2c28.7,4.3,61.5,16.2,90.7,10c15.4-3.3,28.3-13.2,43.6-17.3
		c18.1-4.9,36.1-10.1,54.3-14.9c36.3-9.7,71.9-25.9,108.9-32.2c22.8-3.9,47.7-7.4,59.7-29.9c12.4-23,6-54.5,4.7-79.3
		c-1.9-35.5-2.3-71.5-5.2-106.9c-2-23.9-15-33.8-37.6-39.5c-32.5-8.2-68.3-8.9-101.5-7c-37.2,2-74.1-1.2-111.4,1.4
		c-41.8,2.9-83.4,2.2-125.2,3c-40.1,0.7-80.2,3.7-120.3,5.8c-35.5,1.9-73.1-0.7-107.9,6.7c-79.4,16.9-160,22-240.8,28.5
		c-36.5,2.9-72.4,11.1-109.1,10.4c-37.5-0.7-74.8-4.1-112.2-5.4c-40.9-1.4-81.9,2.2-122.7,4.7c-35.9,2.2-71.8,5.6-107.2,12.8
		c-36.7,7.5-72.6,17.9-106.4,34.1c-37.6,17.9-76.8,14.8-117.7,16.7c-81.4,3.9-162.7,9.6-244.1,13.9c-18,0.9-36.1,1.8-54.1,3
		c-16.8,1.1-32.9-2.2-49.6-1.9C1518.8,3066.6,1519.3,3077.3,1526.3,3077.2"/>
</g>
</svg>
