<?xml version="1.0" encoding="utf-8"?>
<!-- Generator: Adobe Illustrator 21.1.0, SVG Export Plug-In . SVG Version: 6.00 Build 0)  -->
<svg version="1.1" id="Layer_1" xmlns="http://www.w3.org/2000/svg" xmlns:xlink="http://www.w3.org/1999/xlink" x="0px" y="0px"
	 viewBox="0 0 4685 2545.6" style="enable-background:new 0 0 4685 2545.6;" xml:space="preserve">
<style type="text/css">
	.st0{fill:#FFFFFF;}
	.st1{clip-path:url(#SVGID_2_);fill:#231F20;}
	.st2{clip-path:url(#SVGID_2_);fill:#FFFFFF;}
</style>
<title>breadpudding</title>
<path class="st0" d="M1345.5,1509.5c8.8-31.3,15.4-57.9,23.8-83.9c15.7-48.4,33.4-96.2,61-139.2c38.8-60.7,87.9-111.2,152.1-145.6
	c5.9-3.2,11.9-6.5,18.1-8.8c33.7-12.6,49.4-0.8,47.1,35.7c-3.9,64-20.4,124.5-50.8,181.3c-21.8,40.8-46.8,79.1-79.8,111.7
	c-18.3,18.1-39.5,29.9-65.4,33.4C1418.5,1498.5,1385.4,1503.6,1345.5,1509.5z"/>
<path class="st0" d="M3569.4,873.6c16.8,31.7,11.9,59.1,10.1,85.1c-4.5,63.8-27.2,123.1-50.4,182c-6.7,16.9-13.3,33.9-20.8,50.5
	c-24.6,54.5-58.2,103.6-92.9,152c-5.3,7.4-12.3,13.6-23,25.3c-6.9-34-4.4-60.3,9.7-85.1c7.1-12.5,16.6-23.6,23.6-36.1
	c9.8-17.6,13.6-35.3,0.4-54.1c-4.1-5.8-5-16.7-2.7-23.8c30.2-93.3,67.4-183.6,121.5-266C3550.9,894.2,3558.8,886.4,3569.4,873.6z"/>
<path class="st0" d="M3914.3,1146.7c-21.7,50.6-40.3,97.8-62.1,143.6c-24.8,52.1-61.8,94.9-110.1,126.6
	c-25.6,16.8-52.9,31.2-80.2,45.2c-16.7,8.6-22.6,3.6-21.8-15.2c1-23,11.7-42.7,23.1-61.3c42.4-69.3,94.5-130.9,156.6-183.2
	c24-20.2,52.5-34.9,79.2-51.7C3902.6,1148.4,3907.7,1148.4,3914.3,1146.7z"/>
<path class="st0" d="M3331.6,1349.2c4.6,24.8,8.9,46.1,12.3,67.6c0.6,4-1.4,10-4.4,12.8c-52.1,48.5-105.6,95-178,110.5
	c-12.7,2.7-26.8,1.2-39.8-0.9c-18.9-3.1-30.2-16.1-32.8-35c-1-7.6-1.3-15.3-0.9-23c1.1-21.9,7-31.9,29.9-35.9
	c37.5-6.7,70.8-23.5,104.3-39.5c31.8-15.2,62.3-33.3,93.4-50C3319.8,1353.5,3324.4,1352.2,3331.6,1349.2z"/>
<path class="st0" d="M1821.4,1399.3c12.4-47.3,90.1-137.4,188-219.8c19.9-16.7,38-37.8,71.5-41.1c-1.3,12.2-0.2,22.9-3.8,31.5
	c-13.7,32.7-27.8,65.3-44,96.8c-6.8,13.2-17.4,25.6-29.1,35c-43.5,35.2-91.9,62.4-144,82.9
	C1848.7,1389.2,1837.1,1393.4,1821.4,1399.3z"/>
<path class="st0" d="M2001.3,1371.5c2.5,21.3-4,38.3-16.2,54.2c-39,50.9-87,92-141,125.7c-15.5,9.6-35.8,12.3-54.3,15.7
	c-5,0.9-14.6-5.7-17.1-11.1c-13.2-29-9.7-58,5-85.6c2.9-5.4,9.1-10.9,14.9-12.6c70.9-21.6,137-54.2,203.1-87
	C1996.4,1370.5,1997.6,1371,2001.3,1371.5z"/>
<path class="st0" d="M4578.1,1365.4c-5,11.4-7.2,19.8-11.8,26.6c-42.6,63.5-100.5,107.2-173.3,130.4c-11.5,3.7-24.8,3.6-37,2.5
	c-16.7-1.5-23.3-11.6-20.7-27.8c0.6-3.8,1.6-7.6,3.3-11c19.9-39.3,46-71.5,87-91.9c38.8-19.3,79.1-27.9,121.5-30.1
	C4556.4,1363.5,4565.6,1364.7,4578.1,1365.4z"/>
<path class="st0" d="M2927.5,1143.2c-6.9,14.3-13.8,28.7-20.8,42.9c-9.3,18.9-20.2,37.3-28,56.8c-14.4,36.2-38.9,62.3-70,85.4
	c-24,17.8-48.3,34.3-74.3,48.6c-5.7,3.1-11.8,5.3-24.3,10.9c5.3-15.6,6.7-27.1,12.5-35.7c23.4-35,46.5-70.5,72.8-103.4
	c31.9-39.8,70-73.8,111.7-103.5c4.3-3.1,9.6-4.8,14.5-7.2C2923.6,1139.8,2925.6,1141.5,2927.5,1143.2z"/>
<path class="st0" d="M3119.7,1390.5c28.6-75.3,171.4-179.6,227.1-168.8c3,23.2-3.7,43-21.6,58.7c-34.9,30.7-75,53.5-116.3,74.1
	c-18.9,9.4-38.2,17.9-57.7,26.1C3142.6,1384.2,3133.4,1386.3,3119.7,1390.5z"/>
<path class="st0" d="M332.9,1449.8c25.9-73.8,49.9-148.4,92.5-215.2c9.2-14.5,16.8-30.1,24.7-45.4c6.4-12.5,15.2-21.4,31.1-24.6
	c8.1,20.9,2.7,40-3.4,58.8c-22.8,70.2-61.4,131.7-105.3,190.3c-10.6,14.2-22,27.8-33.1,41.7C337.2,1453.6,335,1451.7,332.9,1449.8z"
	/>
<path class="st0" d="M2484.6,1163.2c-29.6,72.4-59.3,144.8-88.9,217.2c-1.5,3.6-2.3,7.4-7.4,7.9c23.8-79.8,48.7-157.6,90.4-228.4
	C2480.7,1161,2482.6,1162.1,2484.6,1163.2z"/>
<path class="st0" d="M1274,1482.7c-11.7,32.4-11.7,32.4-38.2,30.5C1242.4,1496.8,1254.6,1489.2,1274,1482.7z"/>
<path class="st0" d="M2716.3,1451.5c9.4-19,29.4-15.4,42-24.9C2749.1,1448.6,2746.6,1450,2716.3,1451.5z"/>
<g>
	<defs>
		<rect id="SVGID_1_" x="10" y="524.1" width="4517.7" height="1693.3"/>
	</defs>
	<clipPath id="SVGID_2_">
		<use xlink:href="#SVGID_1_"  style="overflow:visible;"/>
	</clipPath>
	<path class="st1" d="M1751.9,1450c-2.5-2.6-8.2-12.2-12.1-11.5c-10.4,1.9-21.6,6.4-29.1,13.4c-4.6,4.3-4.8,15.6-3.3,23
		c0.9,4.4,8.7,9.6,13.9,10.4C1733.4,1487.1,1752.6,1466.7,1751.9,1450 M2175.8,1157.9c-29.9,33.4-43.4,74.6-51.4,117.9
		c-0.9,4.9,2.9,13.4,7.1,15.8c7.7,4.5,14.2-0.7,17.4-8.7c12.7-30.9,25.4-61.7,37.9-92.7c1.7-4.2,2.2-9.1,2.9-13.7
		C2191.2,1166.8,2187.5,1160.4,2175.8,1157.9 M533,634c-3.4-0.1-6.7-0.1-10.1-0.1c-7.1,17.9-15.7,35.4-21.1,53.8
		c-20.3,69.6-28.7,140.7-24.6,213.3c1.1,19.6-0.7,39.3-0.2,58.9c0.3,10.9,0.7,22.8,16,25.9c11.5-9.6,11.2-22.9,13.8-35.6
		c5.1-25.4,1.9-52.6,15.5-76.2c15.9-27.5,23.9-56.2,17.1-88.1c-0.9-4.4-0.1-9.2,0.1-13.8c2.1-34.4,5.4-68.7,5.6-103.1
		C545.1,657.5,537.3,645.7,533,634 M2787.4,1075.9c-1-0.4-2-0.8-3-1.2c0-2.8-0.1-5.6,0-8.4c0.5-13-2.5-24.6-14.9-30.8
		c-8.9-4.4-22,3.8-31.8,17.1c-6,8.1-13.4,15.2-20.2,22.7c-9.3,10.3-20.8,19.3-27.6,31c-21.3,36.2-39,74.3-48.7,115.5
		c-2.1,8.7-3,18.8-0.8,27.3c3.8,15.1,16,19.6,27.5,9.4c18.7-16.5,39.9-29.7,54.6-51.4c20.1-29.6,37.5-60.1,51-92.9
		C2778.6,1101.6,2782.8,1088.6,2787.4,1075.9 M2865.1,1101.5c-10.8,17.4-11.7,35.5-10.8,52.7c2,41,6.8,81.9,9.6,122.8
		c6.3,93.2,13.4,186.5,17.3,279.8c2.8,67.2,3.5,134.7,0.1,201.8c-2.2,43.5-12,86.9-21.2,129.8c-7.9,37.3-17.2,74.7-30.4,110.3
		c-12.2,33-29.8,64.1-46.5,95.2c-9.1,17-20.5,33.1-32.6,48.2c-17.8,22.3-33.5,46.9-64.3,54.9c-14.9,3.9-28.2,13.9-43.1,17.7
		c-34.1,8.5-65-5.4-93.9-20.2c-38.6-19.9-72.5-46.3-93.5-86.2c-7-13.2-16-25.3-23.1-38.4c-7.1-13-14.2-26.2-19.1-40.2
		c-14.4-41.4-27.6-83.3-41.4-124.8c-6.8-20.5-10.9-41.2-8.7-63.1c26.4,4,27.5,7,32.9,29.1c9.1,36.9,19.1,73.8,31.9,109.5
		c5.1,14.1,18.9,25,28.3,37.7c15.6,20.9,30.4,42.5,46.3,63.1c18.8,24.3,44.5,39.1,72.7,50.6c27.4,11.2,52.6,6.7,73.6-11.2
		c18.2-15.6,34.6-34.3,48.4-54c30.8-43.7,56-91.3,72-142c13.4-42.6,19.2-87.6,27.9-131.6c3.5-17.4,7.6-34.9,8.4-52.5
		c1.7-39.1,1.8-78.3,1.9-117.4c0-35.4,0-70.8-1.7-106.2c-2.7-54.2-6.8-108.3-10.3-162.5c-1.7-26.9-2.6-53.9-5.3-80.7
		c-0.8-8-6.4-15.6-11.3-26.7c-17.9,19.1-34,33.3-46.4,50.3c-14.5,19.9-34.7,30.7-55.1,41.5c-15.2,8-31,11.1-48.8,6.8
		c-22.1-5.4-41.3,1-59.9,15.5c-46.5,36.2-101,47.5-158.1,39.2c-22.1-3.2-45.3-13.9-63.3-27.4c-34.7-26.1-62.2-59.5-76.4-101.8
		c-4.3-12.8-10.3-23.7-23.3-31.7c-2.9,3.1-6.3,5.2-7.5,8.1c-15.3,37.1-29.9,74.5-45.6,111.4c-12.2,28.8-26.6,55.8-60.1,66.1
		c-30.4,9.4-43.7,5.9-63.4-19c-24.1-30.4-29-65.9-27.1-102.9c0.9-18.6,5-37.2,4.8-55.7c-0.1-7.8-7.6-15.5-11.7-23.3
		c-22.6,15.4-42.2,29-62,42.2c-15.5,10.3-33.1,18.2-46.7,30.7c-23,21.2-54.3,31-73.2,58.4c-12.5,18.2-15.9,36.8-18,57.5
		c-2.5,25-5.1,50.6-12.9,74.2c-13.6,41.7-46.8,68-87.9,73.9c-26,3.8-59.4,7-81.1-18.4c-22.7-26.4-37.4-57.9-28.7-92.6
		c5-19.7,18.6-38.8,32.6-54.4c14.7-16.3,34.1-28.7,52.2-41.6c11.4-8.1,24.4-13.9,36.5-20.9c16.1-9.4,23.2-21,18.1-41.6
		c-7.4-29.9-10.5-60.8-15.7-91.3c-2.7-15.7-6.7-31-21.7-44.7c-5.4,4-11.6,7.4-16.1,12.4c-10.6,11.8-20.1,24.6-30.5,36.6
		c-43.1,49.6-95.9,88.2-145.9,130c-5,4.1-11.1,6.8-16.7,10.2c-20.9,12.2-41.2,25.9-63,36.3c-31.9,15.2-64.5,29-97.6,41.4
		c-19.1,7.2-39.4,12.4-59.7,15.2c-59.9,8.3-112.6-6.3-153.5-53.7c-3-3.5-6.5-6.8-10.2-9.6c-3.6-2.7-7.8-4.8-13.4-8.1
		c-12.8,27.3-26.3,52.7-36.8,79.3c-17,43.1-46.1,76.4-82,103.9c-22.7,17.5-55.4,11.4-75.5-10.6c-5.6-6.1-11.6-11.8-18.2-18.3
		c-5.4,3.5-10.6,5.8-14.5,9.5c-35,33.5-68.8,68.4-105,100.7c-41.2,36.7-91.2,58.2-144.2,71.5c-32.3,8.1-68-13.5-89-46.5
		c-36-56.7-59.2-118.1-73-183.5c-4-19.2-9.4-38.2-15.9-56.7c-2.9-8.2-9.8-15-16.9-25.3c-6.9,7.8-12.6,12.4-16,18.4
		c-21.6,38.1-42.3,76.8-64.1,114.7c-6,10.4-14.7,19.2-22.6,28.4c-27.9,32.6-54.9,65.9-84,97.4c-48.7,52.6-107.7,88.5-177,108.5
		c-27.3,7.9-63-10.4-74.2-36.4c-10.1-23.6,2.8-44.1,28.7-42.9c7.4,0.4,14.8,2.5,22.2,3.4c17.2,2.1,33.6,1.1,47.5-11.3
		c4.1-3.6,9.4-6.3,14.6-7.9c25.9-8.3,45.6-25.3,64.1-44.1c15.1-15.2,29.8-30.9,44.4-46.5c51.5-54.8,96.7-114.2,132.4-180.4
		c16.8-31.1,33.2-62.5,47.6-94.8c14.8-33.2,15.9-68.4,10-104.4c-8-48-14.4-96.2-20.7-144.5c-4.2-32.3-8.5-64.8-10.1-97.3
		c-1.5-29.8,0.6-59.7,1-89.6c0.7-53.8,16.7-105,26.1-157.3c6.8-37.8,11.9-76.7,32.4-109.7c14.1-22.6,32.3-43.3,51.6-61.8
		c12.1-11.6,28.9-9.7,44.6-0.7c39.1,22.5,44.5,60.9,45.5,99.6c1.1,41.7-2.3,83.5-3.4,125.2c-1.8,70.2-4.8,140.2-20.3,209
		c-17.9,79.2-35.7,158.4-53.5,237.6c-5.4,23.9-6.4,47-1.8,72c16.4,88.3,34.2,176.2,62.1,261.7c6.9,21.2,16,42.2,27.6,61.1
		c19.3,31.3,44.8,37.3,76.8,18.5c24.1-14.1,47.4-30.1,68.9-47.9c43.3-35.7,81.8-76.5,115.8-121.2c13.6-17.8,27-35.8,39.8-54.1
		c3.6-5.1,6.5-11.7,7.1-17.8c4.5-46.9,17.3-91.6,34.5-135.2c11.6-29.4,21.8-59.6,35.9-87.8c10.3-20.6,24.3-39.9,39.4-57.4
		c19.2-22.3,37.1-20.7,56.3,1.8c3.6,4.3,6.6,9.1,9.9,13.7c7.3,10.1,15.6,11.5,26.6,5c10.7-6.3,21.8-18.1,35.3-6.4
		c15,13,28.1,27.8,26.4,49.9c-1.6,19.6-3.4,39.2-5.8,58.6c-4.1,33.1-1.4,65.1,11.7,96.2c14.9,35.5,63.1,60.4,101.3,53.8
		c49-8.5,98.3-20.1,141.5-42.6c46.2-24.1,98.7-41,132.9-85.3c7.2-9.4,18.6-15.5,28.1-23.1c4.4-3.5,9.8-6,13.1-10.3
		c33.1-44.1,77.9-77.9,107.5-125.4c12.5-20,16.2-38.9,13.1-61.1c-1.4-9.9-1.8-20.4-0.1-30.2c1.8-10,5.7-21.1,18.2-22.2
		c12.2-1.2,24,0.3,32.3,12.2c17.1,24.5,25.5,51.6,28.3,81.1c3.8,39,6.9,78.3,13.4,116.8c3.8,22.7,12.2,45,21.1,66.4
		c7.8,18.7,16.5,20.7,32,10c38.9-26.7,77.3-54.2,116.2-81.1c15.3-10.6,31.1-20.6,46.7-30.8c20.9-13.7,41-28.9,63-40.5
		c26.2-13.8,40.7-38,58.8-59.1c24.7-28.7,47.5-59.2,72.6-87.4c20.6-23.1,41.1-18.4,53.9,10.3c3.1,6.8,6.6,13.7,7.8,21
		c5.7,34,10.6,68.1,15.7,102.2c0.4,2.8,1,5.6,1,8.3c-0.5,13.8-5.7,29.5-0.9,41.1c18.7,44.8,24.7,94.3,53.2,135.5
		c26.2,38,62.9,54.6,106.9,57c24.7,1.4,49.8,4.4,73.9-8c21.3-11.1,33.5-25.1,28.9-48.2c-7.6-38.4,6.4-71.6,19.7-105.4
		c8.1-20.8,18-40.9,25.4-61.9c21.3-61.1,68-102.1,114.1-142.8c11.7-10.4,30-15.2,46.1-18.2c19.1-3.5,35.1-7.1,47.3-25.1
		c14.3-21.1,36.9-23.7,45.8,4.3c3.9,12.2,9.9,24.4,10.6,36.8c2,36.3,15.8,68.9,27.5,102.4c4,11.4,7.1,23.3,8.6,35.3
		c0.7,5.4-2,14.6-5.8,16.4c-5.7,2.8-14.5,2.3-20.8,0C2877.1,1113.1,2872,1106.9,2865.1,1101.5"/>
	<path class="st1" d="M3718.9,1250.4c31.8-3.2,75.1-43.4,84.6-78.4c-8.2,1.6-16.1,1.2-21.7,4.6c-14.2,8.5-26.5,20.3-41.1,27.9
		C3721.7,1214.3,3718,1229.5,3718.9,1250.4 M3810.2,1059.5c16.8-10.2,83.6-74.3,92.2-88.6c1.9-3.1,4.5-7,4-10.1
		c-1.4-8.5-1.8-21-7.1-24c-5.6-3.2-19-0.1-24.5,5c-29.3,27.6-54.9,58.2-72,95.3C3798,1047.6,3799.3,1054.9,3810.2,1059.5
		 M3081.3,1052.8c16.5-12.9,21.9-28.5,25.9-43.2c18.5-68.4,57.1-125.6,98.6-181.2c10.9-14.6,28.2-18.5,43.7-21.7
		c13.1-2.7,20.6,10.4,24.2,22.9c9.1,30.8,11.1,62.2,10.3,94.1c-1.4,52.3-7.6,105.1-2.2,156.6c5.8,55.2,15.6,112.1,62,152.3
		c24,20.8,50,31.7,83.8,31.1c57.3-1.2,103.5-29.3,152.1-52.6c5.1-2.4,9.6-5.9,14.7-8.1c28.9-12.4,45.9-33.1,59.9-62.4
		c24.9-52,57.2-100.4,86.3-150.3c2.8-4.8,5.4-9.8,7.7-14.9c21.8-49.3,57.7-87.8,97.2-122.9c9.5-8.5,22.2-14.5,34.4-18.4
		c26.8-8.5,44,9.9,61.1,25.7c9.5,8.8,18.2,19,25.3,29.9c14.4,22.3,19.9,47.8,22.2,73.9c1.3,14.8,0.1,30.2,3.7,44.5
		c10.4,40.7,34,73.3,70,94.6c16.4,9.6,36.5,14.6,55.5,17.8c68.2,11.7,136.3,7,203.7-7c52-10.8,102.8-26,151.5-47.6
		c25.1-11.1,37.7-8.9,48.5,8.1c11.5,18.2,6.7,44.5-12.2,57.3c-17.7,12.1-36.2,23.2-55.4,32.9c-30.9,15.7-65.2,21-98.6,29.1
		c-21.7,5.2-43.1,12.6-65.1,15.7c-58,8.2-116.3,17.2-174.9,6.1c-59.4-11.3-115.2-29.9-157.1-77.5c-12.9-14.7-20.9-13-33.1,3.6
		c-8.8,12-16.8,24.6-25.1,37c-16.1,24-29.1,50.2-52.1,69.2c-6.2,5.1-9.9,13.4-14.1,20.7c-30.4,52.8-75.4,83.9-136,91.2
		c-45.1,5.5-63.3-7.9-71.3-44c-5.2-23.5-13.3-27.8-36.2-20.4c-20.2,6.5-40.1,15.3-58.3,26.1c-39.4,23.2-82.4,28.4-126.5,27.2
		c-64.5-1.8-110.4-36.8-145.8-87.4c-7.8-11.1-11.8-25.1-16.2-38.2c-9.1-27.4-19.9-54.7-25.1-82.9c-6.4-34.6-9.1-70-10.6-105.2
		c-0.8-17.9-3.1-33-19.9-47.2c-4.1,7.3-8.3,13-10.6,19.3c-10.2,28.1-20.9,56.1-29.5,84.7c-19,63.5-36.9,127.3-55.1,191.1
		c-6.1,21.4-11.1,43.2-17.9,64.4c-5,15.7-47,33.4-60.5,24.4c-15.6-10.3-20.9-28.4-22.9-46c-1.6-14.7-2.2-30.6,1.6-44.6
		c9.5-35.1,5.3-70.4,5.8-105.7c0.8-54.8,3.8-109.6,6.2-164.4c1.2-26-0.1-52.5,12.1-76.9c2.1-4.2,3.3-8.9,5.7-12.8
		c14.2-22.8,36.8-22.8,51.8-0.8c14.5,21.2,16,43.3,7,66.8C3073.6,1007.2,3071,1027.9,3081.3,1052.8"/>
	<path class="st2" d="M2787.4,1075.9c-4.6,12.8-8.8,25.7-13.9,38.3c-13.5,32.9-30.9,63.4-51,92.9c-14.8,21.8-36,34.9-54.6,51.4
		c-11.6,10.2-23.7,5.7-27.5-9.4c-2.1-8.5-1.2-18.5,0.8-27.3c9.7-41.2,27.4-79.2,48.7-115.5c6.9-11.7,18.3-20.7,27.6-31
		c6.8-7.5,14.3-14.5,20.3-22.7c9.7-13.3,22.9-21.5,31.7-17.1c12.4,6.2,15.4,17.8,14.9,30.8c-0.1,2.8,0,5.6,0,8.4
		C2785.4,1075.1,2786.4,1075.5,2787.4,1075.9"/>
	<path class="st2" d="M533,634c4.2,11.7,12.1,23.5,12,35.2c-0.2,34.4-3.6,68.7-5.6,103.1c-0.3,4.6-1.1,9.4-0.1,13.8
		c6.8,31.9-1.2,60.6-17.1,88.1c-13.6,23.5-10.4,50.8-15.5,76.2c-2.5,12.7-2.3,26-13.8,35.6c-15.3-3.1-15.7-15.1-16-25.9
		c-0.5-19.6,1.3-39.4,0.2-58.9c-4.1-72.6,4.3-143.7,24.7-213.3c5.4-18.4,14-35.9,21.1-53.8C526.3,633.9,529.7,633.9,533,634"/>
	<path class="st2" d="M2175.8,1157.9c11.7,2.5,15.4,8.9,13.9,18.7c-0.7,4.6-1.2,9.4-2.9,13.7c-12.4,31-25.1,61.9-37.9,92.7
		c-3.3,7.9-9.7,13.1-17.4,8.6c-4.2-2.4-8-11-7.1-15.8C2132.4,1232.5,2145.8,1191.3,2175.8,1157.9"/>
	<path class="st2" d="M1751.9,1450c0.7,16.7-18.5,37.1-30.5,35.3c-5.3-0.8-13-6-13.9-10.4c-1.5-7.4-1.3-18.7,3.3-23
		c7.5-7,18.8-11.5,29.1-13.4C1743.7,1437.8,1749.4,1447.4,1751.9,1450"/>
	<path class="st2" d="M3810.2,1059.5c-10.9-4.6-12.2-11.9-7.4-22.4c17.1-37,42.7-67.7,72-95.3c5.5-5.1,18.9-8.2,24.5-5
		c5.3,3.1,5.7,15.5,7.1,24c0.5,3.1-2.1,7-4,10.1C3893.8,985.2,3827,1049.3,3810.2,1059.5"/>
	<path class="st2" d="M3718.9,1250.4c-0.8-21,2.8-36.1,21.8-45.9c14.6-7.6,26.9-19.4,41.1-27.9c5.6-3.4,13.5-3,21.7-4.6
		C3793.9,1207,3750.6,1247.2,3718.9,1250.4"/>
</g>
</svg>
