<svg xmlns="http://www.w3.org/2000/svg" viewBox="0 0 165.99 147.32"><title>hoverimg</title><path d="M18.83,127.89c0-.32,166-.44,166,0,0,25.28-37.16,45.77-83,45.77S18.83,153.17,18.83,127.89Z" transform="translate(-18.83 -26.34)" fill="#f3ac75"/><path d="M184.81,72.11c0,.32-166,.44-166,0,0-25.28,37.16-45.77,83-45.77S184.81,46.83,184.81,72.11Z" transform="translate(-18.83 -26.34)" fill="#f3ac75"/><rect y="56.25" width="165.99" height="34.82" rx="5.29" ry="5.29" fill="#a56942"/><path d="M179.52,82.59H24.12a5.31,5.31,0,0,0-5.29,5.29v6.82c2.37,3.31,5.4,5.71,9.56,5.58a9.51,9.51,0,0,0,7.54-4.48c.25-.39,1-1.73,1.74-3.18l.33.56A21.77,21.77,0,0,0,41.69,98a13.67,13.67,0,0,0,12.88,3.47c3.25-.93,4.79-4.45,7.66-5.32,2.62-.8,6.78,1.15,9.32,1.71a26,26,0,0,0,10.58.62c4.49-.88,8-5.2,12.55-4.8,4.17.36,8.11,2.79,12.3,3.41s8.22.22,11.78-2.05c1.57-1,5-6,5.85-6.11,2.2-.23,5.92,3.28,7.85,4.25a16.37,16.37,0,0,0,9.06,2.11,12.6,12.6,0,0,0,5.19-1.7c1.42-.84,3-3.18,4.56-3.62,3.24-.92,8.89,4.24,11.95,5.46a21.9,21.9,0,0,0,11.7,1.17,23,23,0,0,0,9.89-4.08V87.88A5.31,5.31,0,0,0,179.52,82.59Z" transform="translate(-18.83 -26.34)" fill="#8dc63f"/><rect x="0.04" y="48.18" width="165.95" height="5.07" fill="#ffe78f"/><rect x="0.02" y="93.63" width="165.95" height="5.07" fill="#ee4036"/></svg>