<svg xmlns="http://www.w3.org/2000/svg" viewBox="0 0 4825.69 1898.03"><title>veggieburgers</title><path d="M2852.18,314.08c-.72-20-8.24-35.8-22.95-48.34-8.27-7.12-20.28-8.84-31.35-4.49-10.56,4.15-17.55,12.81-18.7,23.2a90.6,90.6,0,0,0,.24,17.25,84.53,84.53,0,0,1,.41,11.7c-.22,3.63-.25,7.32-.28,10.89-.08,8.82-.16,17.94-3.16,22.88q-3.63,6-7.23,12.12c-14.67,24.76-29.85,50.36-49.81,68.06C2640.5,497.2,2561.6,548.76,2478.15,585c-36.14,15.67-66.88,20-96.74,13.78-12.71-2.68-22.25-10.44-26.16-21.31-4-11.18-1.52-23.68,6.89-34.26,3.7-4.64,7.56-9.34,11.3-13.89,9.44-11.48,19.21-23.35,27.82-36,15.19-22.29,23.9-46.72,25.88-72.59,1.8-23.41-1.9-48.71-11-75.16-4.75-13.91-15.27-24.09-28.87-27.92-13.76-3.88-28.24-.65-39.73,8.86a81.53,81.53,0,0,0-10.34,10.69c-.86,1-1.72,2-2.61,3-27.55,31.34-38.23,68.82-44.45,98-1.21,5.69-2.27,11.45-3.3,17-3.74,20.38-7.29,39.71-17.95,56.72-1,.2-2,.4-2.91.61-4.35.92-8.45,1.79-11.93,1.79h-.86c-32.42,0-56,13.06-74.06,41.07-10.15,15.81-23.67,29.36-38,43.71-4.42,4.43-9,9-13.41,13.62-8,8.34-12.87,11.45-18.14,10.94q-1.17-2.13-2.26-4.1c-15.25-27.69-15.54-28.22-14.48-54.19.87-22,.26-44.21-.33-65.69-1-38.24-2.12-77.78,5.33-115.95,3.25-16.79-.15-34.68-3.16-50.48-.28-1.47-.56-2.93-.82-4.37-3.21-17.28-17-28-36-28h-.4c-21.84,0-32.9,11.33-38.33,20.86-3.53,6.07-5.39,12.73-7,19.12-10.88,44-35.79,75.62-78.36,99.51-38.57,21.6-69.33,43.49-94,66.91-62.79,59.51-112.14,126.55-146.68,199.28a19.24,19.24,0,0,1-1.7,2.75,1.77,1.77,0,0,1-.09-.32q-2.58-13.53-5.22-27.07c-6.5-33.46-13.21-68.06-18-102.17-7.8-55.58-7.15-104.8,2-150.47,4.56-22.56,4.59-45.64,4-65.27-.38-12.24-4.84-22.59-12.92-29.91-8.43-7.65-20.41-11.38-33.68-10.5-6.47.39-12.89,1.16-19.09,1.9-10.13,1.21-19.71,2.35-29,1.89-27.25-1.38-44.1,2.42-56.34,12.71s-18.94,26.85-21.58,53.55c-.64,6.07-1.36,12.95-.33,20.13,2.55,17.3-4.05,29.82-18,48.26-14.39,19.09-32.76,33.06-52.21,47.84-8.8,6.69-17.89,13.6-26.55,21-48.42,41.41-106,71.22-161.67,100.06l-13,6.76c-18,9.38-39.34,11.89-63.61,7.46-3.72-.68-8.55-4.42-13.21-8l-.47-.36c42.55-108.22,46.88-154.2-1.17-237.63l-2.61-4.54-5.12-1.07c-49-10.27-57.38-8.63-93.28,7.47-28.34,12.71-51.26,31.85-71.82,50.65-36.44,33.41-66.07,73-94.72,111.28-11.76,15.71-23.92,31.95-36.29,47.42-18.22,22.68-33.29,36.37-50.42,45.77-47.33,26-95.82,51.26-144.16,75.08-29.52,14.62-63.39,25-103.58,31.85-21.63,3.7-41.09-2.08-63.64-11.89-8.1-3.54-18.2-10.79-20.33-25.21-1.44-9.68-1.83-19.52-2.24-29.93-.1-2.33-.19-4.69-.3-7.07,66.85-44.71,121.4-106.27,176.15-198.64,13.65-23.15,19-47,16.37-72.87-1.9-19.51-12.3-33.92-29.27-40.55-17.46-6.85-36.55-11.9-57.78-2.52-27.17,12-47,27-62.31,47.24-32.67,43.17-58.61,85-79.3,127.77-3.54,7.32-6.84,14.83-10,22.09-8.25,18.76-16.07,36.55-27.64,51.24l-2.56.47c-4.31.78-7.71,1.41-11,1.77l-.14,0c-2.34.28-4.91.36-7.62.45-4.94.16-10.53.34-16.22,1.87-22,6-35.19,26.31-33.51,51.86.92,13.73,7.79,31.11,35.32,36,8.59,1.53,17.23,2.93,26.27,4.39q1.47,4.5,2.9,8.81c3.33,10,6.47,19.51,8.56,28.83,4.53,20.32,16.13,34.25,25.72,44.1,29.34,30.27,66.62,44.25,110.79,41.53,39-2.34,79.45-14.17,127.19-37.25,38.26-18.5,75.55-37.22,115-57,13.6-6.82,27.55-13.82,41.61-20.84,2.59,6.53,5.06,12.81,7.41,19.12,14.86,40,43.61,59.53,87.87,59.53h1.6C948,806,980,790,1003.39,776c5.08-3,9.92-6.42,14.61-9.71,10.42-7.3,20.38-14.27,32.64-17.36,4.27,18.32,4,36.51,3.63,55.61-.07,3.75-.13,7.5-.16,11.26-.09,16.62-4.63,29.59-15.66,44.78-32.75,45-65.16,94.81-80.48,154.39-25.72,100.67-21.27,201.24-14.52,277.61,3.58,40.83,19.94,78.33,35.77,114.6,2.66,6.1,5.4,12.39,8,18.58,18,42,48,57.53,94.46,48.9,20.85-3.83,33.87-16.1,36.65-34.55q1.28-8.4,2.58-16.82c5.19-33.74,10.56-68.63,12.83-103.48,4.16-64.49,1.59-129.73-.89-192.81-1.3-33.15-2.65-67.42-3-101-.4-42.54-1.85-86-3.3-126.74-.59-19.72,4.15-32.15,15.85-41.55,14.82-12,29.14-24.79,43-37.19,25.89-23.18,52.65-47.15,82.72-65.3C1292,740.82,1315,724.63,1337.36,709c12.51-8.77,25.44-17.84,38.31-26.45-2.72,7.35-5.08,13.55-7.68,19.48-7.25,16.6-9.07,34.75-5.75,57.09,3.62,24.52,18.16,40.59,41,45.25a88.07,88.07,0,0,0,37.68-.93c37.08-9.38,61.6-36.26,81.67-60.71,21.45-26.15,42.26-52.42,64.3-80.23l17.43-22c.3,1,.57,1.9.82,2.84,2.81,11,5.35,22.38,7.82,33.39,5,22.27,10.13,45.3,17.85,67.31l4.81,13.67c7.19,20.38,11.15,31.61,11.75,39,.5,6-1,10.56-5.88,24-3,8.42-7.22,20-12.14,36.36l0,.13a79.29,79.29,0,0,1-4.62,11.2c-1.33,2.82-2.7,5.73-4,8.9-6.32,16.28-13,32.78-19.46,48.74-14.7,36.31-29.91,73.86-42.17,111.91-39.43,122.5-59.13,248.53-77.44,377.64-5.77,40.64-.37,82.27,17.5,135,12.1,35.57,27.91,57,49.76,67.61a74.75,74.75,0,0,0,33.11,7.21c14.45,0,30.77-3.34,49.57-10.05,11.88-4.16,24-12.44,36-24.62,15.39-15.6,28.82-32.48,41.05-48.38a219.78,219.78,0,0,0,22.3-35.52,625.75,625.75,0,0,0,25.86-58.37l1.92-5c8.14-21.48,16.57-43.7,21.67-66.79,15.22-69.57,13.62-138.73,10-197.21a1165.8,1165.8,0,0,0-39.9-240c-1.57-5.65-3.24-11.29-4.86-16.75-2.76-9.28-5.37-18-7.55-27.08-2.32-9.58-5.31-19.22-8.2-28.54-6.8-21.88-13.21-42.54-11.33-61.67,2.2-22.29,15-45.33,27.43-67.61,3-5.43,6.15-11,9.07-16.57,30.37-57.44,66.06-105.17,106.07-141.85,46.69-42.84,98.74-74.14,154.84-93.15,6.82,23.55,6.25,47.49,5.65,72.65l-.08,3.3c-1.07,43.33,4.7,86.63,17.64,132.37l1.44,5.1,4.79,2.28c4.59,2.18,9.17,4.83,13.6,7.39,14.62,8.46,31.18,18,52.73,12.92,30.17-7.2,54.26-22.79,71.59-46.32,2.82-3.82,5.83-7.47,9-11.35,4.13-5,8.4-10.2,12.31-15.85,19.5-28.22,42.45-40.45,73.9-39.16,6.7,9.92,13,19.29,19.23,28.76,13.08,19.76,28.08,33.1,45.86,40.79s38,9.55,61.7,5.59c31.88-5.28,63.84-15.37,103.65-32.71,56.31-24.49,107-59.37,156-93.1q9.42-6.48,18.88-13c52.4-35.84,98.33-83,140.43-144.23C2844.07,372.92,2853.18,344.29,2852.18,314.08Zm-1125,902.26c.43,38.91.88,79.14-5.36,117-15.07,91-42.89,151.54-90.17,196.29l-1.44,1.35c-7.58,7.13-14.74,13.86-22.65,18.69-6.83,4.17-13.57,5.5-19.48,3.85-6.28-1.75-11.76-6.85-15.84-14.73-15.43-29.94-22.6-59.42-21.31-87.6,5.12-109.94,10.92-234.56,54.57-351.34,12.67-33.78,23.61-68.77,34.2-102.6,7.31-23.38,14.87-47.56,22.9-71,2.93-8.49,7.33-16.92,12.5-26.23,5,21.25,10.28,42.12,15.46,62.53,18.86,74.3,36.68,144.49,36.4,218.24C1726.86,1192.61,1727,1204.67,1727.13,1216.34ZM1446.25,707.62c.14-.93.23-1.77.31-2.51,0-.4.09-.92.14-1.21,25.29-67.1,55.11-136.38,115.81-182.25a47.87,47.87,0,0,1,5.29-3.36c-7.26,37.76-14.35,73.41-37.85,102.73-7.3,9.18-14.44,18.67-21.34,27.84-10.8,14.36-22,29.2-33.72,42.75-6.12,7-16,12.39-25.62,17.57l-1.78,1A3.52,3.52,0,0,1,1446.25,707.62ZM1179.84,733c-16.7,13.09-33.63,26.35-51.46,40.3-2.49-8.58-1-17.29.81-28.12.36-2.12.72-4.27,1.06-6.46,12.57-1.47,24.87-2.88,37-4.28Zm-130.09,650.51c-7.34-3.2-12.65-9.89-15.82-24.3l-1.06-5.06c-8.86-42.17-18-85.78-22.95-129-4.45-40-2.44-83,6.53-139.68a351.22,351.22,0,0,1,38.39-113.13C1071.7,1059.5,1069.28,1297.31,1049.75,1383.54Zm-15.29-730c-13.2,21.24-35.54,38-66.43,49.71-3.85,1.47-7.71,3-11.45,4.51-13.36,5.33-26,10.37-38.79,12.59-8.54,1.5-16-.86-20.58-6.48-5-6.18-5.72-15.33-2-24.45,5.34-13,11.7-22.45,17.92-26.72,14.09-9.7,27.86-20.21,41.18-30.36,30-22.9,58.46-44.59,91.6-59.11C1051.88,604.72,1048,631.7,1034.46,653.57ZM449.74,324.73c-2.68,28.6-15.38,46.91-37.74,54.36-8.55,2.85-13.27,7.35-15.79,15.05-5.6,17.09-11.39,34.42-17,51.17-13.39,40.07-27.25,81.51-39.4,122.61-20.55,69.52-39.33,140.91-57.5,209.94a562.17,562.17,0,0,1-49.43,124.82c-3.89,7.21-15.07,28-40.31,28a49.86,49.86,0,0,1-7.51-.58c-22.13-3.41-36.54-14.89-42.86-34.1-6.51-19.64-12.29-37.41-16.93-55.68L122.88,831C109.68,779.37,96,726,84,673.19c-6.4-28.34-10.08-57.52-13.65-85.74l0-.39c-6.16-48.8-11.59-96.92-16.13-143-.08-.8-.16-1.58-.24-2.36-1.13-10.83-3-29,15.26-39.19a20.4,20.4,0,0,1,19-.44C98.64,406.94,107,420,110.08,436c2,10.56,3.64,21.26,5.23,31.61,1.55,10.15,3.17,20.65,5.08,30.81,3,15.88,6.77,32,10.41,47.56q1.56,6.64,3.09,13.27c1.92,8.3,4,16.72,5.92,24.87,1.13,4.65,2.25,9.29,3.36,14q6.59,27.6,13.1,55.22c9.56,40.41,19.44,82.2,29.58,123.18l.05.23c.64,2.81,2.16,5.85,4.3,9.61,2.66-3.51,4.72-6.5,5.72-9.25,4.5-12.29,9.49-24.54,14.31-36.38C222.72,710,234.52,681,239.55,649.27c1.73-10.73,5.34-20.73,8.82-30.4q.81-2.25,1.61-4.48c8.93-25.22,17.6-51.06,26-76,17.91-53.38,36.43-108.58,58.76-161.67,5.95-14.13,9.73-29.16,13.73-45.06,5.4-21.48,11-43.69,22.42-64.37.84-1.52,1.66-3.07,2.47-4.61,6.72-12.78,15.94-30.27,40-28.59,21.86,1.54,37.31,21.18,38.46,48.88C452.42,297.07,451.06,311.13,449.74,324.73Zm4426.5,778.52c-18.92-25.12-41-16.42-55.63-10.67-5.28,2.08-10.26,4-14.58,4.54-7.79.93-15.26,2.43-23.92,4.17l-3.78.76c-.21-.49-.41-1-.6-1.43-2.37-5.63-4.08-9.7-4.8-13.29l0-.12c-10.65-50.54-.18-99.31,33-153.51a54.45,54.45,0,0,1,5.65-7.07c4.51-5.09,9.61-10.86,11.51-18.73,3-12.46-1.69-26.43-6.62-34.63-7.8-13.14-23.69-16.93-39.57-9.42-27.42,13-44.73,31.38-51.45,54.64-2.27,7.82-4.74,15.8-7.13,23.52-11,35.66-22.44,72.54-20.11,112.76,1,16.8,1.48,33.35,2,50.86.17,5.64.34,11.41.53,17.22l-.75.15c-7.48,1.43-13.95,2.67-20.48,4.47-39.74,11.16-68.66,27.8-91,52.34a96.08,96.08,0,0,0-24.82,70.54,104,104,0,0,0,34.8,71.81c23.52,20.8,55.56,33.9,90.22,36.88q7.53.64,15,.65c29.1,0,56.8-7.37,79.27-21.26,17.69-11,36.23-26.24,39.51-56.51l.36-3.4c2.22-20.56,4.51-41.81-7.72-64.07-5.31-9.7-8.63-21.34-12.14-33.66-.79-2.8-1.61-5.65-2.46-8.53l3.44-1.65c7.69-3.66,14.95-7.13,21.54-12,3.93-2.87,9.47-4.84,15.34-6.92,14.76-5.25,35-12.44,37.74-40.37l.45-4.49ZM4647.72,1253c-4.28-5.2-4.7-13-3.55-14.63,5.65-4.22,11.17-8.72,16.52-13.07,19.08-15.53,37.21-30.28,61.53-33.94,1.34,2.89,2.67,5.76,4,8.58,6.33,13.59,12.3,26.42,17.39,39.74,4,10.59-1.5,18.12-6.84,22.54-11.57,9.52-28.34,13.93-46,12.09S4657.4,1264.66,4647.72,1253Zm-4.52-360.59-1-10.12L4632,882c-4.69-.14-9.5-.22-14.14-.3-9-.15-18.39-.31-27.48-.89-12.81-.8-25.89-1.86-38.54-2.88-23.56-1.91-47.92-3.88-72.05-4.34-47.9-1-87.58,9.66-117.81,31.6-48.48,35.12-79.84,71.24-98.69,113.67-4.86,11-10.94,21.3-17.38,32.26-1.41,2.4-2.84,4.83-4.27,7.29-9.11-2.89-17.54-5.6-26.35-8.43l-15.71-5-8.23-2.63-4.86,7.15c-4.27,6.3-8.66,12.42-12.91,18.34-9.55,13.31-18.58,25.88-26,40A567.84,567.84,0,0,1,4050.39,1241c-37.32,37.88-81.1,71.25-130.11,99.18-31.38,17.87-62.48,22.34-92.43,13.28-15.48-4.69-25.12-11.39-27.15-18.88-2.14-7.92,3.28-19.39,15.28-32.31,1.52-1.63,3.27-3.28,5.11-5l2.4-2.28,1.53-1.46c53.87-51.54,109.58-104.83,164.4-157.36,1.69-1.64,3.41-3.27,5.13-4.9,6.48-6.15,13.17-12.51,19.39-19.56,17.08-19.72,21.89-56.39,10.07-77-13.76-23.83-37.65-22.41-55.11-21.36-27.93,1.69-55,11.28-82.89,29.34-42.1,27.29-73.66,66.37-101.51,100.85-19.38,24.06-33.69,46.5-43.75,68.6-12.21,26.82-18.46,53.44-19.11,81.37-.39,16.14-6.15,28.65-19.25,41.84-10.56,10.65-21.54,21.3-32.16,31.6-26.33,25.54-53.55,51.94-77.53,81.27-2.51,3-4.28,4.8-7.51,4.15q0-9.29.08-18.87c.09-20,.19-40.64.19-61.29.22-110.48,2.61-202.35,30.5-294.87,4.25-14,3.2-28.8,2.19-43.11-.28-4-.55-7.71-.7-11.42-.86-20.75-13-35-29.66-35l-1,0c-12.26.38-27.07,7.75-36,17.95-6.76,7.74-9.88,17.8-12.63,26.68-.86,2.76-1.66,5.37-2.57,7.9-3,8.57-5.75,17.18-8.66,26.3,0,.15-.09.31-.14.46-30.19-10.06-59.63-11-88.21-11.89-12.85-.4-25-.79-37.18-2-42.48-4.07-84.53,4.65-128.58,26.67-69.34,34.72-126.49,87.73-174.71,162-7.92,12.18-16.74,24.3-26.86,38.14-.06-2.79-.09-5.39-.09-8,0-10.61.22-21.46.41-32,.41-23.27.83-47.34-.43-71.1a178.67,178.67,0,0,0-13.59-58.46c-6.37-15.12-18.84-24.68-33.36-25.59-14.18-.88-27.38,6.78-35.32,20.53-8.66,15.12-15.85,31.12-22.81,46.59-5.25,11.69-10.68,23.77-16.61,35.11l-3.37,6.46c-21,40.35-42.81,82.07-66.74,121.26-18.69,30.55-41.92,49-69.09,54.88-10.84-6.88-12.86-17.4-15.1-33.23a292.82,292.82,0,0,1,7.78-119.39c7.57-27,8.11-51.76,1.68-78.13-1.17-4.7-3.92-7.88-6.59-11-1.14-1.32-2.32-2.68-3.53-4.32l-3.84-5.19-6.44.55c-11.74,1-24.88,2.08-33.84,2.8l-6.52.52-2.91,5.87c-14.38,29-16.94,57.86-19.41,85.76-.63,7.1-1.23,13.8-2,20.5-5.75,48.09-18.56,92.41-38.08,131.74-12.57,25.41-29,51-50.17,78.34l-.4.52c-11.5,14.8-21.15,25.8-32,21.66-7.16-2.72-8.15-8.51-7.67-25.71a137.44,137.44,0,0,0-.11-14.49,51.78,51.78,0,0,1,.38-9.28v-.14q2.17-23.28,4.26-46.55c4.17-45.94,8.47-93.44,13.72-140,2.26-20.52,6.92-41.42,11.43-61.62,1.14-5.11,2.28-10.21,3.38-15.31,3.33-15.45,6.68-38.73-2.64-62.56-3.81-9.72-10.83-17-19.76-20.41s-18.69-2.76-27.78,1.75a94.59,94.59,0,0,0-10.42,6.2c-1.62,1.06-3.16,2.07-4.68,3-18.52,11.19-37,22.36-55.75,33.64Q2479,1130,2454.21,1145l-1.72-1c-5.06-2.84-9.84-5.53-13.41-8.73-16.35-14.88-35-17.53-52.63-19-41-3.4-72.94,7.12-100.49,33.12-3.33,3.14-6.78,6.29-10.11,9.34-13.11,12-26.67,24.34-37.68,40.52-18.8,27.42-35.26,52.69-45.61,82.8-.45-9.11-.93-18.22-1.41-27.14-1.94-36.45-3.94-74.14-3.59-111.11.47-48.35,2.77-99.4,24.77-145.23,4.9-10.27,5.26-21.52,5-27.37-.56-18-11.22-30.54-26.55-31.16-9.21-.41-25,5.05-29.65,16.06-8.11,19.26-16.33,39.86-20,61.36-11.33,67-9.33,135-7.55,195q.29,9.61.59,19.23c1.15,36.41,2.33,74.06,1.4,110.93l-.08,3.22c-1.57,63.68-3.06,123.83-31.93,180-11.17,21.65-14.77,48.3-10.69,79.18,3.5,27.08,18.64,43,45,47.33,25.14,4.13,47.63.36,66.82-11.2,22.31-13.39,51.6-31.31,80.25-51.22,56.07-39,99-92.36,138.19-143.68,27.14-35.59,45.79-69.52,57-103.71A244.68,244.68,0,0,0,2489,1221c-.9-5.25,2.83-15.42,7.7-21,12.64-14.44,28.93-24.28,50.73-30.53,3.3,17.66-.06,34.5-3.59,52.17-.43,2.2-.87,4.38-1.29,6.55-13.12,67.68-19.45,140.27-19.91,228.44-.1,19.5,3.14,41.15,9.64,64.41,7.14,25.19,24.08,41.12,47.71,44.87l3.4.54,3.14-1.41c76.14-34.16,84.28-41.13,124.42-106.6,2.54-4.13,4.85-8.34,7.09-12.42a182.72,182.72,0,0,1,9.67-16.26,140.46,140.46,0,0,1,11.66-14.1c4.11,4.94,7.65,9.19,11.15,13.41l.63.76c15.94,19,29.77,28.69,44.85,31.58,15.49,3,31.81-1.63,51.34-14.46a298.32,298.32,0,0,0,65.3-57.41c36-42.75,62.62-91.84,88.34-139.32l.35-.64.48-.95c2.41,20.63,1.92,42.79-1.46,67.18-5.13,37.08-10.09,77.79-15.14,124.43-1.5,13.73-1.26,26.16.72,36.92a35.3,35.3,0,0,0,52.08,23.77c10-6,18.61-15.07,23-24.42,9-19.09,17.71-38.64,26.15-57.55,11.88-26.61,24.16-54.13,37.26-80.56,17.58-35.71,33.24-64.86,52.54-91.05,57.54-78.11,123.56-120.46,201.81-129.48,23.81-2.72,48.35-5.54,71.24,6.27-6.29,15.15-17.43,25.74-30,37.73l-3.22,3.06c-85.95,82.13-147.5,165.76-188.15,255.73-13.66,30.39-11.42,45.08,10.4,68.33,19.82,21.19,43.87,28,67.72,19.25,24.3-8.91,51.85-19,72.23-37.63,8-7.35,16.32-14.77,24.34-21.94,41.92-37.46,85.27-76.2,114.85-128.35a31.09,31.09,0,0,1,2.09-3.33c.31,3.88.6,7.83.65,11.65.19,14.54.08,29.41,0,43.79-.23,30.61-.46,62.27,2.16,93.44,3.44,40.64-5.67,72.27-29.55,102.55A1175.74,1175.74,0,0,0,3398,1709.31c-33.93,58.58-70.84,127.87-79.4,208.89-5.28,50.37-8.53,103.94,14.19,156.4,12.33,28.43,35.47,48.49,63.49,55a87.75,87.75,0,0,0,20.09,2.32c22,0,44-8.21,62.29-23.73,59.93-50.6,79.91-121.72,93.92-184.4,14.43-64.21,18.64-133.6,13.26-218.36-1.6-25.34-1.92-51.31-2.24-76.43-.17-13.9-.35-28.28-.75-42.48-.62-21.33,5.63-39.13,19.09-54.38,4.94-5.57,10.06-11.21,15-16.67,17.52-19.34,35.63-39.34,51.14-61.06,16.82-23.37,37.67-42.81,61.81-65.32l2-1.86c31.46,34.78,72.17,49.3,124,44.34,51.59-4.33,96.89-21.06,134.65-49.7,61.85-46.9,131.85-105.55,182.22-185,1.34,4.65,2.31,8.8,1.77,11.45-5.91,29.11-11.63,55.16-21.82,79.09-11.05,26.1-11.8,49.76-2.35,74.44l.07.16a55,55,0,0,0,7.27,12.13c.91,1.25,1.78,2.43,2.51,3.54l3,4.55,5.42.58c15.35,1.66,38.54,4.16,56.21-13.91l2.28-2.34.72-3.18c4.24-18.63,8.57-37.48,12.76-55.7,8.35-36.29,17-73.81,25.06-110.77,12.83-58.07,39.38-109.65,61.08-148.12,17.75-31.54,40-57.34,66.13-76.7,38.22-28.44,82.05-34.15,135.38-38.65,11.6-1,23.44-1.81,34.89-2.6,17.4-1.2,35.39-2.44,53.13-4.32C4635.35,924.6,4645.16,912.13,4643.2,892.36Zm-826.72,324.48c2.23-4.5,6.4-10.46,13.55-20.55,26.58-37.47,50.33-60.9,77-74.58C3876,1154.33,3846.2,1185.58,3816.48,1216.84Zm-302.19-41.08c-2.08,33.7-19.55,60-36.5,85.41-33.44,50-64.44,87.53-97.55,118.16-21.38,19.83-46,35.66-75.24,48.38a23.72,23.72,0,0,1-3.34-.17v-.18c-.34-6.55-.66-12.75.83-17,17.13-47.89,47.57-91.11,95.79-136,27.23-25.3,56.53-49.45,84.87-72.8C3493.37,1193.14,3503.92,1184.44,3514.29,1175.76Zm-69.61,863.73-.61.6c-11.24,10.86-22.86,15.39-32.7,12.74-10.33-2.79-18.55-13.26-23.14-29.45-2.71-9.65-3.21-20.9-3.47-30.69-1.88-70.67,14.49-142.21,50-218.72,14.17-30.46,35.88-70.4,88.8-136.87a3.61,3.61,0,0,1,.06.68v.12c-.15,18.69,0,37.66.07,56,.38,64.75.78,131.7-10.6,196.51-8.18,46.73-26.93,92.13-55.7,134.94C3454.14,2030.21,3449.54,2034.72,3444.68,2039.49ZM2421,1256.51l.11,0c1.29-.37,3.76-1.06,5.71-1.46a18.1,18.1,0,0,1,3,5.85c-17.24,80.16-51,148.45-103.32,208.75-37.48,43.18-78.73,76.4-126.1,101.58q-1.63.87-3.3,1.8c-6.85,3.81-11.48,6.38-17.76,4.57,2.06-4.86,4-9.92,4.49-15.53,4.57-42.13,19.42-79.68,46.73-118.15,24.47-34.47,56.24-65.46,87-95.42l7.16-7c20.09-19.6,41.85-38.26,62.9-56.31,9.44-8.1,19.2-16.46,28.72-24.84l1.08-.93A27.7,27.7,0,0,1,2421,1256.51ZM2250.42,1320a215.77,215.77,0,0,1,28.09-62.8c18.26-27.74,41.6-48.83,65.72-59.36,9.58-4.18,18.83-6.28,27.66-6.28a53,53,0,0,1,14.77,2.07,51.51,51.51,0,0,1,1.75,6.81c-.45.5-1.06,1.15-1.89,1.95-29,28.37-59.67,53.8-92.12,80.71C2280,1295,2265.19,1307.28,2250.42,1320Z" transform="translate(-53.26 -233.93)" fill="#231f20"/></svg>