<?xml version="1.0" encoding="utf-8"?>
<!-- Generator: Adobe Illustrator 21.1.0, SVG Export Plug-In . SVG Version: 6.00 Build 0)  -->
<svg version="1.1" id="Layer_1" xmlns="http://www.w3.org/2000/svg" xmlns:xlink="http://www.w3.org/1999/xlink" x="0px" y="0px"
	 viewBox="0 0 4000 3733.1" style="enable-background:new 0 0 4000 3733.1;" xml:space="preserve">
<style type="text/css">
	.st0{fill:#EE6E66;}
	.st1{fill:#FBE6CC;}
	.st2{fill:#A97EB7;}
	.st3{fill:#8BC53F;}
	.st4{fill:#231F20;}
	.st5{fill:#37B34A;}
</style>
<title>veggies</title>
<rect class="st0" width="4000" height="3733.1"/>
<path class="st1" d="M1164.2,2585c0.5-4.2-0.4-6.7-3.6-8.8c-4.8-3.3-9.9-6.1-15.9-6.4c-1.8-0.2-3.5-0.5-5.2-0.9
	c-1.2-2.5-2.4-4.8-3.5-7.1c-1.7-3.4-3.5-6.7-5.2-10c-5-10.2-12.5-18.9-18.2-28.7c-2-3.5-3.7-7.3-6.2-10.5
	c-9.5-11.7-17.9-24.2-28.5-35.1c-11.2-11.5-24.4-19.5-39.4-25.1c-10.1-3.7-20.1-7.6-30.2-11.4c-2.7-1-5.5-2-8.3-2.8
	c-5.3-1.5-10.6-3-16-4.2c-7.4-1.6-14.7-3.7-22.3-3.1c-2.3,0.2-4.6-0.2-7-0.2c-7.6,0.1-15.2-0.4-22.6,0.4
	c-14.4,1.6-28.8,3.9-43.2,5.9c-19.4,2.7-38.1,8.4-56.7,13.7c-17,4.8-34.1,9.6-50,17.8c-6.6,3.4-13.2,6.5-19.6,10.2
	c-26.1,24.5-52,48.9-84.1,63.9c-15.2,7.1-31.4,11.8-47.7,15.6c-7.6,1.7-15.2,3.3-22.9,4.5c0,0.1,0,0.3,0.1,0.4
	c-1.7,2.4-3.9,2-5.8,2.4c-11.9,2.4-24,4.1-36.1,5.2c-4,0.4-7-0.1-9.5-4.2c0-0.1-0.1-0.2-0.2-0.2c-5.2-0.2-10.4-0.5-15.5-1
	c-9.9-1.1-19.8-2.8-29.6-4.6c0,0.2,0.1,0.4,0.1,0.6c0.2,1.6-0.3,3.3-0.5,5.1c-2.5,0.9-4.8,1.5-6.9,2.3c-6.2,2.5-12.7,4.4-17.6,9.3
	c-3.1,3-6.3,5.9-9.8,8.5c-3.7,2.9-7.2,5.9-10.5,9.2c-11.7,11.3-22.6,23.4-32.5,36.3c-15.4,19.5-28.1,40.6-36.4,64.2
	c-1.1,3.3-2.5,6.5-3.9,9.7l-14.4,33.6c-0.6,1.6-1,3.3-1.4,5c-3.4,10.5-6.8,21-10.3,31.4c-2.4,7.2-5.2,14.2-7.1,21.5
	c-2.6,10.1-4.6,20.4-6.7,30.6c-0.9,4.2-1.4,8.6-2,12.9c-0.6,4.9-1.2,9.8-1.6,14.7c-0.5,6.1-0.8,12.1-1,18.2
	c-0.3,9.6-0.3,19.1-0.5,28.7c-0.4,12.2,0.6,24.4,3,36.4c1,5.1,2.7,10.2,3.1,15.3c0.6,6.6,1.8,13.2,3.7,19.6
	c1.8,6.4,3.3,12.9,5.1,19.3c2,7.6,4,15.2,6.3,22.7c1.9,6.1,3.6,12.3,6.5,17.9c8.1,15.7,19.6,28.7,33.5,39.6
	c7.8,6.1,15.4,12.4,23.1,18.5c4.8,3.8,9.7,7.5,14.6,11s10,7,15,10.5c13.6,9.5,27,19.3,42,26.4c3.1,1.5,6.1,3.3,9.2,4.9
	c8.3,4.2,16.4,8.6,25.5,11.2c7.8,2.2,15.8,3.7,23.2,7.4c2,1,4.5,1.1,6.8,1.4c6.9,0.8,13.9,1.3,20.8,2.3c9.5,1.3,18.9,3.3,28.5,3.2
	c2,0,4,0.8,6,1c3.2,0.3,6.6,1.3,9.5,0.5c9.3-2.5,18.4-1.2,27.6,0.6c3.1,0.6,6.3,0.9,9.5,1c4.9,0.2,9.9,0.3,14.8,0.2
	c2.6,0.1,5.2-0.1,7.8-0.7c4.2-1.1,8.7-1.4,13-0.6c6.2,0.8,12.1-0.1,18.1-1.4c4.5-0.8,9.1-1.4,13.7-1.8c8.3-1,16.8-0.9,25-3.3
	c4.7-1.5,9.6-2.4,14.5-2.9c10.7-0.9,21.5-1.4,32.2-1.7c4.4,0.1,8.7,0.4,13,1.1c2.4,0.3,4.4,1.9,5.2,4.1c1.5,3.8,3.2,7.5,4.7,11.3
	c4.4,11.1,9.1,22,15.1,32.3c2.8,4.8,4.9,9.8,4.8,15.6c-0.1,2.2,0.7,4.6,1.3,6.8c2.5,10.1,7.5,19.6,8.2,30.2c0.2,1.8,0.8,3.4,1.8,4.9
	c4.5,6.7,3.4,14,1.9,21.1c-0.6,3-1.8,6.4-3.9,8.4c-7,6.5-13.6,13.4-21.7,18.7c-6.6,4.3-12.3,9.7-16,16.9c-1.1,2.1-2.5,3.9-3.7,5.9
	c-3.8,6.2-7.1,12.6-9,19.8c-1.7,6.5-3.8,12.8-5.5,19.3c-2.1,8.2-3.2,16.4-1.3,25c1.3,5.9,1.5,12.1,2,18.2c0.6,8.1,1,16.3,3.8,24
	c0.6,1.6,1.1,3.4,1.2,5.1c0.7,9.9,1.3,19.7,1.9,29.6c0.1,1.7,0,3.5-0.4,5.2c-1.4,8-1.5,16.2-4,24c-1.3,3.8-1.6,8-2.6,11.9
	c-1,3.9-2.3,7.8-3.7,11.6c-2.6,7.1-5.1,14.2-3.8,22c0,1.4-0.2,2.8-0.6,4.2c-0.6,2.8-1.4,5.6-2,8.4c-0.9,4.2,1.8,6.5,4.6,8.7
	c2.6,2,5.5,2.4,8,0.3c3.1-2.7,7.3-3.9,11.3-3.1c1.4,0.1,2.9,0,4.3-0.3c5-0.7,8.7-3,10.7-7.7c1.7-4,3.2-8,3.4-12.5
	c0.3-4.9,1.2-9.8,1.8-14.7c0.7-5.5,1.6-10.9,2.2-16.4c1-8.9,1.5-18,2.7-26.9c1.3-8.6,1.6-17.4,1-26.1c-1-13.3-2.7-26.6-4.5-39.8
	c-1-7.2-2.2-14.3-2-21.6c0.1-4.3-0.7-8.7-0.9-13c-0.3-3.2-0.2-6.4,0.1-9.6c1.4-11,5.4-21.5,11.8-30.6c1.5-2.1,3.3-4,5.4-5.6
	c5.3-4,10.8-7.9,16.3-11.7c1.9-1.3,3.8-2.9,6.8-1.7c1.3,3.8,2.6,7.9,4,11.9c3.9,10.8,4.3,22.2,6.4,33.3c0.4,2,0,4.1,0,6.1
	c0,2.6,0,5.2,0.1,7.8c0,5.8,0.7,11.6,1.8,17.3c1.9,9.5-1.1,18.4-4.6,27.1c-1.9,4.9-3.9,9.7-5.6,14.7c-0.7,1.9-1,4-0.9,6
	c0.2,5.5,0.7,11,1.5,16.5c1.8,10.5,5.5,20.1,13.6,27.6c1.9,1.8,3.5,3.8,4.9,6c5.8,9,10.8,18.6,19.7,25.2c2,1.6,3.6,3.7,4.6,6.1
	c1.6,4,2.6,8.3,3,12.6c0.6,8.4,0.5,16.8,0.5,25.2c-0.1,2-0.6,4-1.5,5.8c-0.8,1.9-1.8,3.6-3,5.3c-2.6,4-2.7,8.1-0.6,12.4
	c1.6,3.4,3.1,6.8,4.7,10.5c2.8,0.6,5.6,1.1,9.4,1.9c1.6-1.9,3-4.2,4.9-5.9c1.6-1.5,3.7-3.1,5.8-3.5c5.4-0.9,7.7-4.5,9.6-9
	c2.3-5.5,2.6-11.3,3.3-17.1c2.2-16.8,1.3-33.8-2.6-50.2c-1.6-7.2-5.3-13.7-10.6-18.7c-3.8-3.6-7.7-7.3-10.4-11.7
	c-5.1-8.2-11-15.7-16.8-23.3c-1.7-2.3-3.1-4.9-4.1-7.6c-2.4-7-1.4-13.6,1.9-20.2c2.7-5.4,5.8-11,6.8-16.9
	c2.1-12.3,2.9-24.8,4.2-37.2c0.1-1.1,0-2.3,1.6-2.5c6,4.5,11.6,9.7,18.1,13.5c10.2,6,18.8,13.2,25,23.5c3.5,5.7,7.5,11,8.3,18
	c0.3,2.6,1.3,5.1,3.1,7c3.1,2.9,6.7,5.4,10.6,7.2c2-6.1,6.4-8.3,12-8.9c1.1-0.3,2.2-0.9,3-1.7c4.4-3.5,7-8.8,6.9-14.4
	c0-6-2.1-11.4-5.1-16.5c-3.5-6-7.4-11.8-11.2-17.7c-4.4-6.8-8.9-13.6-13.4-20.4c-2.8-4.1-6.4-7.6-10.7-10.1
	c-13.7-8.5-26.1-18.3-33.9-33c-2.3-4-3.4-8.6-3.3-13.2c0.2-4.3,1.6-8.5,1.9-12.7c0.7-10.7,3.1-21.3,7.2-31.2
	c1.8-4.5,2.7-9.3,2.5-14.1c-0.3-5.2,0-10.4,0.8-15.6c4.2-24.4,5.1-49.3,2.5-73.9c-0.2-1.5-0.2-2.9,0-4.4c0.1-1.1-0.2-2.4,0.4-3.4
	c-0.4-3.3-0.6-6.7-0.5-10c-0.1-4.2-0.5-8-0.3-11.7c0.3-8.1,0.4-16.3,1.3-24.3c1.2-11.3,5.1-22.1,11.4-31.6c4.6-6.7,8.7-13.7,12.4-21
	c4.9-9.9,12-17.7,20.3-24.7c6.5-5.4,13-10.7,19.2-16.4c7.3-6.7,14.1-13.8,18.9-22.6c5.9-10.6,12.1-21,19.8-30.5
	c6.2-7.7,10.5-16.7,13.9-26.1c3.5-9.8,7-19.7,11.9-29c5.6-10.8,10.7-21.9,14.1-33.7c0.8-2.5,1.7-4.9,2.9-7.3
	c4.5-10.1,9.2-20.1,13.6-30.2c1.2-3,2.2-6,3.1-9.1c1.1-3.3,2.1-6.6,3.1-9.9c0.6-1.6,1.1-3.3,1.5-5c1.4-9.6,5.3-18.3,8.6-27.3
	c3-8.1,6.4-16.1,8.3-24.7c0.9-3.9,2.7-7.6,4.1-11.5c0.4-1.1,0.8-2.2,1.1-3.3c2.2-10.2,5.4-20.1,7.3-30.4c1.7-9.1,4.4-18,6.5-27.1
	c0.5-2.2,0.7-4.6,1-6.9c2.1-16.7,2.3-33.6,0.8-50.4c-0.3-3.8,0.3-7.8-0.8-11.3c-3.2-10.5-3-21.9-8.3-32.2c2.1-1.4,4-2.6,5.9-3.9
	C1161.2,2593.7,1163.9,2589.6,1164.2,2585z M871.7,3272.6c-1.5-1.9-3.6-3.7-2.8-6.7c0.2,0.4,0.4,0.7,0.6,1c1.5,2.4,3.3,4.6,5.3,6.7
	C873.7,3274,872.4,3273.6,871.7,3272.6z"/>
<path class="st2" d="M1124.7,2479.8c-66.3-51-155.3-66.9-236.2-48.5c-31.4,7.2-61.2,21-88.7,38.2c-12.4,3.5-24.6,7.7-36.5,12.7
	l-0.2,0.1c-14.8,6.4-28.6,15.1-40.9,25.6c-7.8,6.8-15.3,13.6-22.5,20.2c-2,1.8-3.9,3.6-5.9,5.4c-0.7,0.7-1.5,1.4-2.2,2l-1.3,1.2
	c-11.6,8.9-21.3,16.2-31.4,22.7l0,0c-0.8,0.2-1.7,0.4-2.6,0.6c-3.5,0.8-7.8,1.8-12.7,3.4l-0.2,0.1c-5.6,1.8-13.7,2.8-22.3,3.8
	c-3.9,0.4-7.9,0.9-12.1,1.5H609c-2.5,0.4-5.8,0.6-9.4,0.8c-4.9,0.3-10.4,0.7-16.5,1.6h-0.4c-12.7,1.8-25.6,1.8-38.3,0h-0.3
	c-2.4-0.3-4.6-0.5-6.4-0.6c-15.8-3.8-32.5-0.3-45.5,9.5l-1.4,1c-5.7,4-11.1,8.5-16.1,13.3l-0.2,0.2c-7.3,7.2-14.2,14.4-20.4,21.6
	l-0.3,0.3c-5.3,6.2-10.1,12.1-14.4,17.8c-57.8,45.3-100.1,109.1-114.3,181.8c-8.6,44.3,12.5,90.3,58.4,102.9
	c16,4.4,33.9,3.3,50.3-2.4c10.7-1.5,20.9-5.7,29.6-12.2c13.3-9.7,24.8-21.7,33.8-35.5l0.1-0.1c0.5-0.9,1.1-1.7,1.7-2.5
	c6.9-6,13-12.7,18.4-20c0.6-0.8,1.4-1.5,2.3-1.9c4.4-2.1,6.4-2.7,7.1-2.8h0.2c0.8-0.1,3-0.2,4.6-0.3s3.3-0.2,5.1-0.3
	c6.3,1.6,12.7,2.9,19.1,3.8c11.8,1.6,21.7,4.4,30.3,8.7c3.9,2,7.8,3.8,11.9,5.3c17.5,6.8,37.2,5.2,53.3-4.4l0.7-0.4
	c9.3-5.7,20-13.1,29-24.4l0.6-0.7c8.2-10.4,16.7-21.1,24.8-32.7c3.5-5.3,7.4-10.3,11.7-15l0.2-0.2c2.2-2.4,5.4-5.7,7.1-7.4
	c1.4-0.6,3.6-1.4,5.7-2.3c5.8,1.3,11.6,2.1,17.5,2.4c2.2,0.3,4.4,0.8,6.5,1.5c28.3,8.4,56.1,1.7,76.2-18.4l0.2-0.2
	c11.8-12.1,22.8-25.1,32.7-38.9c1.3-1.8,2.6-3.6,3.9-5.4c2.1-2.9,4-5.6,5.8-7.9l0.6-0.8l1-1.2c0.6-0.3,1.2-0.6,1.9-0.9l1.5-0.6
	l0.9-0.3l19.2,1.2c4.5,2.9,8.8,5.7,12.9,8.7l0.4,0.3c2.2,1.6,3.2,2.4,3.7,2.8c13.2,15.8,29.2,21.8,40.1,25l0.8,0.2
	c18.2,5.1,37.8,1.8,53.4-9c14.5-9.9,24.6-21.9,33.3-33.4l0.2-0.2c0.6-0.8,1.2-1.6,1.8-2.4l0.1-0.2c10-11.3,18.8-23.8,26.1-37.1
	c1.7-3.1,3.6-6.1,5.8-8.9c0.9-1.1,1.9-2.1,2.9-3c4-1.9,7.9-4.2,11.4-6.9l2.3-1.6c28.1-5,54.5-26.6,64.5-51.5
	C1175.7,2542.4,1158.7,2506,1124.7,2479.8z M734.9,2769.7L734.9,2769.7z"/>
<path class="st3" d="M999.7,1969.9c-0.2-0.8-0.3-1.7-0.5-2.6c-2.8-13.9-8.8-25.7-21.9-32.6c-0.8-0.4-1.5-0.9-2.2-1.4
	c-2.7-1.8-5.9-2.8-9.1-2.7c-4.1,0.1-8.1-0.6-11.9-2c-5.3-1.8-11-2.2-16.4-0.9c-6,1.3-12,2.5-17.8,4.2c-14,3.9-26.3,10.7-35.9,21.9
	c-7,8.2-13.3,16.9-19.5,25.6c-4.9,6.9-9.7,13.8-15,20.4c-9.2,11.3-18.9,22-26.9,34.2c-0.5,0.7-1.6,1.1-3,1.9c0-7.8-0.1-14.7,0-21.7
	c0.4-20.1,0.9-40.1,1.4-60.2c0.1-4.3,0.9-8.7,1.4-13c0.4-3.1,1.7-5.4,4.7-6.8c4.2-2,8.2-4.3,12.3-6.6c3.8-2.1,7.8-4,11.2-6.7
	c15.7-12.6,30.6-26,42.7-42.1c1.6-2.1,3.5-3.9,5-6c5.3-7.2,10.9-14.3,15.7-21.9c5.2-8.4,9.3-17.4,14.2-26
	c9.5-16.7,16.8-34.5,21.7-53.1c1.3-4.5,2.3-9,2.9-13.6c1.1-9.5-0.5-18.6-5.8-26.7c-3.4-5.1-8-8.8-12.9-12.6c-8.6-6.5-18-9-28.4-9.4
	c-4.1-0.1-8.1-0.6-12.2-1.1c-4.6-0.6-9.1-1.5-13.7,0.6c-2.7,1.3-6,0.5-7.8-1.9c0.5-0.7,0.7-1.4,1.1-1.6c3.3-1.5,5-3.8,4.4-7.6
	c-0.1-0.6-0.1-1.1-0.1-1.7c-0.2-4.2,1-7.5,5.7-8.5c0.9-0.2,1.7-0.6,2.3-1.2c0.6-0.9,1.1-1.9,1.4-3c-2-0.2-3.3-0.4-5.2-0.6
	c2-6.9,3.7-13.6,6.9-19.8c2.1-3.9,4.4-7.5,2.6-12.2c-0.2-0.9-0.1-1.8,0.4-2.5c1.3-2.6,0.8-6.8,5.5-6.6c2.2-2.8,3.9-5.6,4.1-9.4
	c0.4-4.8,1-9.6,3-14.2c1.4-3.1,2.2-6.4,2.2-9.8c0.1-3.5,0.5-7,1.2-10.4c0.2-2.6,1.6-5,3.8-6.5c3.8-2.6,5.9-6.3,3.5-11.2
	c-0.2-0.5-0.4-1.1-0.4-1.7c-0.6-3.3,0.6-4.8,4-5.1c1.3-0.1,2.7-0.1,4.1-0.2c-1.6-7-1.5-7,0.4-14.8c0.6-2.2,1-4.6,0.9-6.9
	c-0.2-3.2,0.6-6.3,2.2-9.1c1-1.9,2.1-4.6,1.6-6.5c-0.7-2.7-0.2-4.9,0.1-7.5s-0.6-5.6-0.1-8.5c1.8-10.3-0.8-20.2-3.5-30.1
	c-0.5-1.4-1.1-2.7-2-3.9c-2.2-3.4-4.4-6.8-6.8-10c-3.4-4.7-7.2-8.6-12.9-11.1c-6.6-2.9-13.2-5.8-20.2-7.7c-0.6-0.2-1.1-0.4-1.6-0.7
	c-6.3-3.4-12.5-1.9-18.4,0.7c-4,1.7-7.7,4.1-10.9,7c-6,5.4-12.6,10.4-16.4,17.9c-0.6,1-1.4,1.9-2.3,2.6
	c-7.6,7.4-12.9,16.4-17.4,25.9c-7.1,15.3-13.8,30.7-20.6,46.1c-2,4.5-3.7,9.1-5.5,13.7c-3.3,8.4-5.7,17.1-7.4,25.9
	c-0.6,3.1-2.8,5-5.6,4c-5.2-1.8-9.7-0.6-14.2,1.6c-1.8,1-4.1,1-5.8-0.2c-6-4.3-12.6-3.6-19.2-2.2c-4,0.9-7.8,2.4-11.7,3.6
	c-1.4,0.3-2.9,0.4-4.3,0.4c-0.4-2.5-0.8-4.4-1-6.4c-0.7-8.7-1.1-17.4-2.1-26.1c-0.5-4.3-1.5-8.5-3-12.6c-2.4-6.5-5.4-12.8-8.2-19.2
	c-2.1-4.8-4.2-9.5-9.5-12c-1.7-0.8-2.7-2.9-4-4.4c-3.8-4.5-7.7-8.7-14.1-9.2c-1.3-0.1-2.6-1-3.9-1.5c-2.7,1.9-5.8,3-9.1,3.3
	c-9.4,0.6-17,4.9-23.2,12.2c-2.9,3.4-4.3,7.5-6.8,11.1c-3,4.3-4.7,9.4-4.9,14.7c-0.4,7-2,13.8-4.8,20.2c-1.3,3.2-2,6.7-3.6,9.8
	c-2,4,1.5,6.5,1.9,9.9c0.1,0.9-0.1,1.8,0,2.6c1.8,11.8,2.8,23.7,7,34.9c3.7,9.8,3.1,20,3.7,30.1c0.2,2.7-2.3,4.2-4.9,2.8
	c-3.5-1.8-7.1-2.1-10.9-2.5c-11.3-1.4-22-0.3-32,5.6c-1.3,0.8-3.1,0.9-5.2,1.5v-5.8c0.3-6.7,0.8-13.3,0.7-20
	c-0.1-12.3-4.1-24-6.9-35.9c-0.3-1.1-0.7-2.2-1.2-3.3c-6.6-12.3-18.5-17.8-30.1-23.9c-0.8-0.3-1.7-0.5-2.6-0.5
	c-7.3-1-14.6-0.3-21.6,1.9c-21.9,6.9-36,22.5-47.1,41.6c-0.6,1-0.8,2.2-1.3,3.2c-0.9,2.1-1.8,4.3-2.8,6.4c-1.6,3.7-3.3,7.4-4.8,11.1
	c-0.8,1.9-1.3,3.9-2.1,5.7c-0.4,0.8-1.4,1.4-2.8,2.7c-0.4-2.7-0.7-4.4-0.8-6.1c-0.3-3.5-0.3-7-0.9-10.4c-3.6-20.3-5.8-40.9-6.7-61.5
	c-0.4-8.1-0.6-16.3-1.6-24.3c-1-7.8-3-15.4-4.3-23.1c-2-12-3.7-24.1-5.8-36.1c-0.9-6.3-2.3-12.6-4.2-18.7
	c-4-11.8-8.7-23.4-13.9-34.7c-2.1-4.6-5.1-8.5-9.8-10.7c-7.3-3.6-14-8.2-20-13.8c-5.2-4.8-11.6-6.8-18.6-5.2
	c-4.2,1.1-8.3,2.6-12.3,4.4c-2.5,1.3-5.2,2.5-7.9,3.4c-4.7,1.5-8.8,4.1-11.4,8.8c-4.9,8.9-10.5,17.4-15.3,26.4
	c-4.6,8.7-5,18.4-5.3,28c-0.2,5.5,0.5,11,0.5,16.6c0.1,10.8,1.7,21.4,4.6,31.8c4.1,15.1,8.4,30.2,12.4,45.3c1.3,5,2.3,10.2,3.2,15.4
	c0.2,1.2-0.4,2.6-0.6,3.7c-7.4-2.4-14.3-4.5-21.1-6.7c-0.6-0.1-1.1-0.3-1.6-0.6c-5.1-3.3-10.2-1.8-15,0.3c-4.1,1.8-8.7,3.4-11.1,8
	c-0.8,1.5-2.7,2-4.2,1.2c-0.1-0.1-0.3-0.2-0.4-0.3c-4.3-3.9-10.5-5-14-10.1c-1.1-1.3-2.8-2.1-4.5-2.1c-10.3,0.1-19.3,3.4-26.2,11.2
	c-8.7,9.8-17.1,19.8-22.9,31.7c-0.9,1.2-1.9,2.3-3,3.3c-2.3-2.4-4-5.4-4.8-8.7c-4.8-16.5-11.8-32.2-19.3-47.6
	c-2.7-5.5-5-11.1-7.6-16.6c-2.1-5.1-4.5-10-7.2-14.8c-7.7-12.7-19.4-21.5-31.2-30c-2.6-2-5.9-2.9-9.1-2.5c-3.8,0.3-7.5,1-11.1,2
	c-7.9,2.6-15.7,5.7-23.6,8.6c-3.6,1.3-6.5,4.1-7.9,7.7c-1.6,3.7-2.9,7.7-4.9,11.2c-4.8,8.2-6.7,17.3-8.6,26.3
	c-3.7,18-3.4,36.7,0.8,54.6c4.3,19,9.3,37.9,18,55.5c0.9,1.8,1.5,3.8,2.4,5.6c6.7,14.8,13.6,29.5,23.7,42.5
	c6.4,8.3,12.2,17,18.3,25.5c9.1,12.7,17.5,26.1,29.1,36.8c3.5,3.3,4.9,7.1,2.2,11.7c-0.8,1.6-1.3,3.2-1.7,4.9
	c-1.2,4.2-2.3,8.4-3.4,12.6c-1.8,6.7-4,13.4-5.1,20.2c-1.4,8.6-1.4,17.4,1.5,25.9c1,3,2.2,6,3.1,9.1c0.3,1,0,2.1,0,4.3
	c-3-2.2-5.2-3.6-7.1-5.2c-6.7-5.3-13.7-10-21.8-12.5c-4.3-1.3-7.9-3.6-11.6-5.9c-3.4-2.2-6.6-4.7-10.1-6.9c-6.3-4-13.2-5.9-20.8-4.7
	c-6.9,1.1-13.7,2.2-20.6,3.4c-6.5,0.9-12,5.6-13.8,11.9c-4.1,12.6-3.2,25.2,2.1,37.4c3,7,7.7,13,12.5,18.9
	c7.9,9.7,15.9,19.3,26.2,26.7c3.8,2.7,7.1,6,10.6,9.1c9.4,8.7,19.9,16,28.8,25.3c0.9,0.8,1.8,1.5,2.8,2.1
	c17.2,12.9,34.4,25.8,51.6,38.8c0.9,0.7,2.8,1.1,1.7,3.3l-4.2-1.2c-6.6-1.8-13.3-1.6-19.9-0.7c-4.3,0.6-8.8,2.2-10.9,6.5
	c-5.6,11.6-9.5,23.9-8.6,37c0.5,5.2,1.4,10.4,2.9,15.4c1.5,5.3,3.1,10.7,5.7,15.5c8.5,15.6,17.4,30.9,26.3,46.2
	c7.5,12.8,15.2,25.4,22.8,38.1c1,1.3,0.8,3.2-0.5,4.3c-1.4-0.5-3-1-4.6-1.6c-7.4-2.5-14.8-5.1-22.3-7.6c-4.1-1.5-8.7-1.5-12.8,0.2
	c-6.4,2.8-12.8,5.5-18,10.9c-0.3,6.9-1,13.7-2.2,20.5c-0.5,4.3-0.2,8.7,1.1,12.9c2.2,8.9,8.6,16.2,17.2,19.5
	c11,4.5,22,9.1,33.3,12.9c19.6,6.5,39.3,12.4,59.1,18.4c12,3.6,24.2,6.4,36,10.3c20.4,6.8,40.9,13.2,61.7,18.8
	c7,1.9,13.8,4.4,20.4,7.5c5.3,2.4,10.9,4.1,16.6,5.1c8.1,1.4,14.5,5.9,19.8,11.6c6.8,7.6,11.9,16.5,14.9,26.3
	c2,6.7,4.6,13.2,7.8,19.4c4.7,9,6.8,19.2,12.2,27.9c2.8,4.8,5.4,9.7,7.7,14.7c3.1,6.6,6.3,13.1,8.7,19.9c4.3,12.3,8,24.9,11.8,37.4
	c3.4,10.8,7.4,21.4,9.2,32.7c0.8,5.4,2.3,10.8,4.3,15.9c2.1,4.7,3.9,9.6,5.4,14.5c1.5,5.6,3.9,11,5,16.6c1.5,7.2,2.3,14.5,3.3,21.8
	c9.9,1.8,19.7,3.6,29.6,4.6c6.1,0.5,11.3,0.8,16.5,1c-1.8-2.7-5.8-4.2-9.6-6.8c-3.4-11.6-7-24.1-10.6-36.7
	c-4.3-15.1-8.4-30.2-12.8-45.2c-2.8-9.5-6.3-18.7-9.3-28.1c-3.3-10.2-6.7-20.5-9.6-30.8c-3.4-12.2-8.9-23.3-14.6-34.4
	c-3.3-6.5-6.7-12.9-9.9-19.4c-1.4-2.8-2.9-5.7-2.3-8.9c0.4-0.4,0.5-0.7,0.8-0.8c3.4-1.3,7.4-1.4,9.1-5.8c2-5,2.9-10.1,1.2-15.3
	c-0.8-2.2-1.7-4.3-2.9-6.3c-2.1-3.5-3.2-7.5-3.3-11.6c0-3.3-1.5-6-3.3-8.8c-2.2-3.4-4.5-7-5.3-10.8c-3.6-17.9-12.8-32.9-23.3-47.3
	c-5.3-7.3-10-14.9-14.2-22.9c-5.8-11.4-12.1-22.5-18-33.9c-5.2-10.1-10.2-20.2-15.1-30.4c-1.3-2.9-2.3-6-3-9.1
	c-3-12.4-5.7-24.8-8.9-37.2c-1.9-7.6-4.5-15-6.7-22.5c-1.4-4.7-2.9-9.5-3.9-14.3c-2.5-12.3-6.9-23.9-10.5-35.8
	c-1.9-6.3-5-12.3-6-18.9c-0.4-3-2.6-5.8-4-8.6c-1.6-3.4-3.4-6.8-4.9-10.2c-0.4-0.8,0.1-2,0.2-3.9c3.4,2.4,5.8,4.4,7.4,7.2
	c7.6,13.7,16.5,26.6,26.7,38.6c0.9,1.1,1.7,2.4,2.5,3.6c7.1,11,14.7,21.7,21.2,33c11.3,19.6,22.5,39.3,30.6,60.6
	c7.6,19.8,16.3,39.1,26,58c9.5,18.6,18,37.8,25.2,57.4c5.9,15.8,11.3,31.7,17.1,47.5c5.2,14.2,10.6,28.3,15.8,42.4
	c2.3,6.3,4.2,12.7,6.4,19s4.6,12.5,7,18.8c1.7,4.6,4,8.9,5.1,13.8c2.1,9.1,6.3,17.5,10.3,25.8c1.5,3.1,3,6.3,4.2,9.5
	c6.5,16.5,14.4,32.4,23.5,47.6c2.9,4.9,5.1,10.2,7.9,16h-4.8c-0.6,2,0.5,2.8,1.9,3.6c4.4,2.5,4.5,2.5,3.5,7.2
	c-0.7,3.4-0.6,3.4,1.1,7.2c0.8-1.1,1.1-2.4,1-3.7c0.5,0.1,1.2,0.1,1.3,0.3c1.3,2.9,2.5,5.9,3.6,8.9c0.4,1,0.8,2.6,0.3,3.3
	c-2.7,4.5-0.8,8.4,1.2,12.3c3.8,7.5,4.8,15.7,6.1,23.6c7.7-1.3,15.3-2.8,22.9-4.5c16.3-3.7,32.5-8.5,47.7-15.6
	c32.1-15,58.1-39.4,84.1-63.9c-6,3.4-11.5,7.4-16.5,12.2c-1.9,1.8-4,3.4-6.2,4.8c-1,0.7-2.4,0.8-3.9,1.3c-0.6-3.7,0.6-6.4,1.3-9.2
	c3.8-15.2,7.8-30.4,11.4-45.7c4.6-19.8,9.1-39.6,11.7-59.8c2.3-17.9,4.6-35.7,6.7-53.6c1.1-9.6,3.8-18.7,6.5-28
	c8.8-1.7,12.8-9.1,19-13.6c0.6-7.4,1.5-14.6,1.8-21.8c0.1-4.4,2.2-8.5,5.8-11c1.7-1.1,3.4-2.1,5.2-3c1.6-3.2,5.7-1.9,8.1-4.6
	c-0.9-2.6-1.8-5.3-2.6-7.7c4.4-6,9.8-11.2,16-15.2c3.9-2.5,7.2-5.8,10.9-8.5c1.2-0.7,2.4-1.3,3.7-1.7c0.9,2.4-0.3,3-1.5,3.6
	c2.5,0.5,5.4,1.2,6.1-2.1c0.8-3.6,3.1-5.3,5.6-7.3c2.3-1.8,4.5-3.6,6.7-5.5c2.8-2.5,5.1-5.7,9.5-5.3c0.9,0.1,2-1.1,2.9-1.8
	c3.1-2.7,5.5-6,7.2-9.7c3.7-8.6,8.7-16.4,14.1-24c8.7-12.3,10.8-26.1,6.5-40.6c-0.6-2.2-1.3-4.4-2.2-7c1.8-1.4,3.8-2.7,5.8-3.8
	c3.7-1.7,7.5-3.2,11.3-4.5c5.8-2,11.2-4.9,16-8.7c11.8-9.9,23.1-20.4,33.8-31.5c7.4-7.8,13.9-16.4,19.5-25.6
	c6.7-10.7,10.7-22.5,14.9-34.3S1002.7,1982.1,999.7,1969.9z M251.9,2052.1c2.6-0.3,2.8,2.3,4.3,3.2
	C253.7,2055.1,253.7,2055.1,251.9,2052.1L251.9,2052.1z M355.6,2150.2c0.4,0.6,0.2,1.5,0.4,3.4c-2.5-2-4.3-3.3-5.9-4.8
	c-9-9.1-17.8-18.3-26.9-27.4c-4.4-4.6-9.1-9-14.1-13c-9-7-16.7-15.3-24.5-23.5c-3.6-3.8-7.6-7.2-11.4-10.7c-2.7-2.5-5.6-4.7-6.9-8.3
	c6,3.4,11.6,7.4,16.9,11.9c8,6.8,15.6,14,23.9,20.4c10.7,8.2,20,17.7,29,27.5c3.1,3.4,6.6,6.6,9.5,10.3
	C349.1,2140.6,352.3,2145.4,355.6,2150.2L355.6,2150.2z M488.1,2163.9c-1-1.2-1.9-2.5-2.6-3.9c-2.7-6.4-5.3-12.9-7.9-19.3
	c-0.2-0.5-0.4-1.1-0.6-1.6c-7.2-12.6-11.2-26.8-17.8-39.7c-8.8-17.1-17.9-33.9-28.1-50.1c-11-17.5-23.8-33.7-35.6-50.7
	c-3-4.3-5.4-8.9-8.3-13.3c-2-3.2-4.3-6.2-6.7-9.1c-4.4-5-9.1-9.8-13.6-14.7c-6.1-6.6-12.3-13.2-18.3-19.9
	c-7.3-8.3-14.6-16.6-21.6-25.1c-2.5-3.1-4-7.1-5.8-10.7c-5.1-9.8-5.9-20.5-6.7-31.3c-0.7-11-0.4-22.1,0.7-33.1
	c0.9-9.3,0.8-18.6,1.1-27.9c0.4-1.1,0.4-2.3,0-3.4c-1.7-4.9-1.4-9.3,0.5-14.3c1.2-3.3,0.5-7.5,0.4-11.2c-0.4-19.8-1.2-39.5,1.1-59.2
	c0.3-1.5,0.7-3,1.2-4.5c7.1,9.2,10.8,18.4,15.2,27.1c10.5,20.4,21,40.8,33.2,60.3c2,3.2,3.8,6.5,5.7,9.8c15,26.6,31.5,52.3,49,77.3
	c4,5.7,9.1,10.5,13.5,15.9c2.9,3.6,6.1,7.1,8.2,11.2c6.5,12.4,11.5,25.4,13.6,39.3c0.4,2.9,1,5.7,1.8,8.5c3.4,12.8,2.6,26,3.3,39
	c0.2,4,0.9,8,1.5,12.1c1.1,8.3,2.2,16.7,3.4,25c1.3,8.9,2.3,17.9,4.1,26.7c3.4,15.9,5.5,32.1,7.6,48.2c1.5,12.4,4.2,24.6,8.1,36.5
	C488.4,2159.7,488.6,2161.9,488.1,2163.9L488.1,2163.9z M582.3,2398.9c-2.1,0.9-2.9-0.7-3.3-1.8c-1.6-4.1-2.8-8.2-4.3-12.3
	c-1.7-4.9-3.2-10-5.3-14.7c-3.3-7.6-4.1-15.7-4.1-23.8c0-5.9-0.5-11.3-3.5-16.6c-2.1-3.8-3.7-7.9-4.9-12.1c-2.6-8.6-4.8-17.3-7.3-26
	c-2.2-7.8-4.8-15.5-6.9-23.3c-1.1-4.2-1.4-8.5-2.2-12.8c-0.3-2.6-0.8-5.2-1.6-7.7c-4.6-12.6-6.4-25.9-9.6-38.8
	c-3.4-13.9-5.4-27.9-7.6-42c-1.7-10.9-5.2-21.4-8.1-32.1c-2.3-8.4-3.9-17-4.8-25.6c-1.8-14.7-4.1-29.4-6.5-44
	c-2.4-14.9-5.5-29.7-6.3-44.9c-0.3-3.2-0.8-6.4-1.5-9.5c-2.3-10-2.1-20.2-2.1-30.4c0-4.6-0.4-9.3-0.8-13.9c-0.5-3.4-0.3-7,0.7-10.3
	c1.4-5.3,1.9-10.8,1.3-16.3c-1.5-15.4,1.3-31,8.3-44.8c0.6-1.3,1.4-2.6,2.3-3.7c6.5-7.4,12.6-15.2,19.9-21.9
	c9.3-8.4,17.9-17.4,26.8-26.2c3.6-3.2,7.1-6.7,10.8-10c2.4-2.1,4.7-4.4,8.3-5c0.5,5.1,1,9.7,1.4,14.2c1.1,12.1,3.7,24.2,2.1,36.5
	c-0.2,1.4,0,2.9,0.4,4.3c0.7,2.8,0.6,5.8-0.4,8.5c-1.3,3.6-1.4,7.5-0.1,11.1c0.6,1.4,0.7,2.8,0.5,4.3c-2.1,9.8,0,19.6-0.5,29.4
	c-0.1,4-0.9,8-2.5,11.7c-7,15.9-10.9,32.4-10,49.9c0.4,8.7,0.5,17.4,1,26.1c0.5,7.6,1.7,15,4.7,22.1c1.3,3.1,1.3,6.2,1.1,9.4
	c-0.8,13.1-1.6,26.1-2.6,39.2c-1,11.9-0.3,23.8,0.3,35.7c0.5,11.6,1.8,23.2,2.2,34.8c0.5,12.5,0.5,25,0.4,37.5
	c-0.1,17.1,1.1,34.2,1.3,51.4c0.3,18,0.3,36,0.7,54.1c0.4,16,1.9,32,4.3,47.8c0.7,4.6,2.1,9.1,3,13.6c1.7,8.5,3.4,17.1,5,25.6
	C582.4,2396.7,582.4,2397.8,582.3,2398.9L582.3,2398.9z M647,1701.9c1.7,1.8,3,2.6,3.4,3.7c3.2,7.8,6.2,15.6,9.2,23.4
	c0.9,2.4,1.5,4.9,2.2,7.1c-1.6,1.7-2.9,0.7-4.1,0.1c-0.2-0.1-0.5-0.4-0.6-0.6c-3.7-4.8-8.4-7.6-15.2-6.8
	C642.2,1719.5,645.4,1711.5,647,1701.9L647,1701.9z M609.6,1870.3c1.1-3.4,3.2-5.6,6.8-5.9c10.2-0.9,17.8-6.5,24.5-13.6
	c2.8-3,5.2-6.3,7.9-9.3c3-3.5,6.3-6.8,9.8-9.8c3.8-3.2,7.1-6.9,9.7-11.1c2.3-3.6,4.8-7.2,7.3-10.7c0.3-0.4,1-0.5,1.6-0.7
	c2.5,1.1,3.2,3.4,3.5,5.7c2.4,16.4,6.4,32.4,7.8,49c1.2,13.6,1.1,27.2-0.3,40.8c-0.9,10.5-0.1,20.9,0.9,31.3
	c0.4,3.8,0.5,7.5,0.2,11.3c-0.8,9.3-2,18.5-2.9,27.7c-0.3,4.1-1.7,7.9-4,11.3c-3.6,5.3-6.4,11-9.6,16.5c-0.8,1.4-1.9,2.7-2.8,4
	c-0.9-0.5-1.7-0.7-1.8-1.1c-2.1-8.1-7.5-15.1-8.2-23.7c-0.1-0.9-0.4-1.7-0.8-2.5c-4.2-7.6-6.6-16.1-11.6-23.3
	c-1.3-1.9-2.7-3.8-4.3-5.5c-5.9-6-11.7-12.1-17.9-17.9c-2.3-2.2-5.1-3.8-8.1-4.8c-5.4-1.5-7.5-4.4-7.5-10c0-10.2-0.5-20.3-0.8-30.5
	c0.1-2-0.1-4.1-0.4-6.1C607.5,1877.5,608.6,1873.9,609.6,1870.3L609.6,1870.3z M658.2,2540.2c-0.4,2.4-2.7,2.7-5.6,3.9
	c-1.8-6.7-3.2-12.6-4.9-18.5c-1.9-6.4-4-12.7-6-19.1c-5-15.8-10.3-31.4-14.9-47.3c-2.9-10-4.5-20.4-6.9-30.6
	c-1.4-5.9-2.9-11.8-4.7-17.5c-3-9.8-3.1-20.1-5-30.1s-3.9-19.9-5.9-29.9c-0.6-3.1-1.7-6.2-2-9.3c-1.7-17.1-3.2-34.1-3.2-51.3
	c0-25-0.6-50-0.8-75c-0.2-15.7,0.1-31.4-0.2-47.1c-0.2-9.3-1.1-18.6-1.4-27.9c-0.5-14.5-0.8-29.1-1.1-43.6c0.1-1.3,0.4-2.6,0.8-3.8
	c2.8-0.3,3.6,1.5,4.4,2.9c5.6,8.5,11.1,17,16.5,25.6c1.1,2,2.1,4.1,2.9,6.3c3,7.3,6,14.5,8.7,21.8c1.6,4.3,2.7,8.9,4.1,13.3
	c3.6,11.4,6.5,23,8.5,34.7c1,5.7,2.4,11.4,3.9,17c2.8,10.4,4.8,20.9,4.9,31.8c0.1,15.1,0,30.2-1.6,45.3c-2.2,20.3-0.9,40.6,0.5,60.9
	c0.8,12.5,1.4,24.9,1.9,37.4c0.9,19.5,1.4,38.9,0.7,58.4c-0.2,5.5,0.5,11,0.8,16.5c0.1,2,0.5,4.1,0.4,6.1c-0.5,7.1,1,13.9,2.2,20.7
	c1.3,8,3,16,4.1,24C660.4,2524.1,659.5,2532.2,658.2,2540.2L658.2,2540.2z M788.8,1945.9c-1.1,7.4-0.9,15.1-1.2,22.6
	c-0.3,7-0.6,13.9-0.7,20.9c-0.2,12.5-0.4,25-0.2,37.5c0.1,12.9-1.9,25.5-4.2,38.1c-2.1,11.7-4.8,23.3-7.6,34.8
	c-2.3,9.6-5.3,19-7.8,28.5c-2.1,7.8-3.7,15.8-5.7,23.6c-2.8,10.6-5.8,21.2-8.8,32.1c1.2-0.4,2.3-0.7,4-1.2
	c-0.5,4.3-0.7,8.3-1.4,12.3c-0.5,2.6-1.6,5-0.8,7.7c0.2,0.5,0.2,1.2,0,1.7c-3,6.8-2.7,14.2-3.9,21.3c-0.3,1.7-0.9,3.5-0.7,5.2
	c0.7,7.1-1.6,13.7-3.7,20.3c-0.9,2.4-1,5.1-0.5,7.6c1.5,6.7,0.5,13.3-1,19.8c-1.9,0.2-3.5,0.5-5.4,0.7c-0.2,2-0.5,4.1-0.9,6.1
	c-0.4,1.3-1.2,3.1-2.2,3.4c-4.1,1.2-4.5,4-4,7.5c0.1,1.3,0,2.5-0.2,3.8c2.2-0.3,4.4-0.5,6.3-0.7c2.2-1.7,2-3.7,1.7-5.8
	c-0.3-1.5-0.2-2.9,2.1-3.7c1.8,3,0.1,6.1,0.3,9.1c0.3,3.5-2.9,4.6-5.5,6.6l3.3,2.2c0.1,0.6,0.4,1.2,0.2,1.6
	c-2.5,5.2-4.1,10.9-4.5,16.7c-0.7,6.9-1,13.9-1.8,20.8s-0.8,13.9-3.7,20.4c-0.3,0.8-0.4,1.7-0.4,2.6c-1,21.2-4.9,42-10,62.6
	c-5.2,21.1-10.6,42.3-15.9,63.4c-0.6,2.5-1.4,5-2.3,7.5c-2.4,6.4-3.1,6.9-10.9,7.2v0.1c1.3,1.4,2.6,2.9,3.7,4.5
	c1.3,2.1,0.4,4.4-1.9,5.9c-0.5,0.2-1.1,0.2-1.6,0c-0.5-0.2-0.9-0.7-1-1.2c0-0.9,0-1.7,0.1-2.6c0.2-2.2,0.5-4.4,0.7-6.7l-0.1-0.1h0.1
	c-1-2.7-2.3-5.4-2.8-8.1c-1.7-10-3.4-20-4.6-30.1c-0.9-7.2-1.5-14.4-1.6-21.7c-0.3-14.8,0.1-29.7-0.4-44.5c-0.5-18-0.9-36.1-2.6-54
	c-1.3-14.2-1.7-28.4-1.4-42.6c0.1-5.8,0.8-11.6,1.3-17.4c0.6-6.6,1-13.3,1.9-19.9c1.3-9,0.8-17.9-0.4-26.8c-0.2-1.1-0.1-2.3,0.3-3.4
	c3-6.9,6.2-13.6,9-20.5c0.9-2.1,1.3-4.4,1.4-6.7c0.4-11.6-0.4-23.3-2.5-34.7c-1.3-7.2-1.1-14.5,0.7-21.6c1.9-7.9,3.1-16,6.9-23.3
	c1-2.1,2.2-4.1,3.5-6c6.8-9.1,13.1-18.5,18.9-28.2c5.2-8.7,11.4-16.9,16.7-25.5c8.9-14.3,16.2-29.6,22-45.4
	c2.3-6.3,4.5-12.6,7.1-18.7c4.7-10.7,6.1-22.6,4-34.1c-0.7-4-1.3-8-1.9-11.9c-7-8.2-16.1-10.7-26.4-10.7c-7,0-13.9-0.6-20.7,1.8
	c-1.3,0.4-2.7-0.3-3.1-1.6c-0.1-0.2-0.1-0.4-0.1-0.6c-0.3-2.6-0.3-5.2,0-7.8c0.9-9.2,1.8-18.5,3.1-27.7c0.3-3.1,0.3-6.3-0.2-9.4
	c-0.4-4.3-0.3-8.7,0.1-13c0.4-5.2,1.1-10.4,1.9-15.6c1-5.7,1-11.6,0.1-17.3c-1.5-9.3,0.6-17.9,5.3-25.9c0.2-0.5,0.5-1,0.9-1.5
	c8.1-6.8,10.6-17.9,18.7-24.8c7.3-11.1,16-21.4,19.3-34.8c1.6-6.7,5-13,7.8-19.4c1.8-4,2.6-8.3,2.5-12.7c-0.2-5.2,0.4-10.4,0.4-15.6
	c0-2.6,0.3-5.4-0.6-7.7c-2-4.5-2.1-9.7-0.4-14.3c0.2-0.5-0.1-1.1-0.1-1.7c-1.8-2.7-4.3-0.5-6.8-0.9c-1.5-1.5-3.1-3-4.9-4.2
	c-2.1-1.1-4.2-2-6.5-2.7c1.8-5.8,4-11.6,6.4-17.2c2.8-6.4,4.9-13,6.4-19.8c1.4-6.2,2.7-12.5,4.3-18.7c2-7.3,1.4-15.1-1.5-22.1
	c-0.9-2.2-1.4-4.4,0.1-6.6c1.1-1.5,2.4-2.6,4.4-2c1.4,0.4,2.4,1.8,2.2,3.3v2.6c-0.3,11.3,0.2,22.6,1.4,33.9
	c0.5,5.8-0.2,11.6,0.2,17.4c0.8,11,2,22,2.9,33c0.5,6.7,0.9,13.3,1.2,20c0.6,14.5,0.9,29,1.5,43.6c0.6,16.3,1.4,32.5,2.1,48.8
	c0.2,6.4,0.2,12.8,0.3,19.2c0.2,12.5,1,25,0.5,37.4c-0.8,16.6,1.1,33.1,1.3,49.6C790.4,1928.5,789.9,1937.2,788.8,1945.9
	L788.8,1945.9z"/>
<path class="st4" d="M1127.6,2520.5c-22-35.8-64.1-54.8-102.5-67.8c-49.1-16.7-102.5-19.3-153.4-10.1c-28.7,5.2-56.5,14.2-82.9,26.6
	c-17,8-32.2,17.9-47.2,28.4c7.4-32.8,16.9-65.2,22.3-98.4c3-18.4,5.3-37,8.6-55.3c3.7-20.2,7.1-35.8,21.7-50.4
	c11.8-11.8,12.4-26.6,20.3-40.6c10-17.6,27.6-31.2,43-43.8c10.7-8.7,24.2-17.3,30.9-29.7c6.3-11.7,3.7-23.5,4.7-36
	c2.7-31.5,43.6-53.4,65.1-72c20.4-17.6,34.9-38.4,42.8-64.2c11.8-38.8,2.1-82.8-46.3-80.8c-32.4,1.4-58.5,17.1-80.7,39.8
	c-7.9,8.1-14.2,17.7-20.7,26.9c-6.2,8.8-16.6,28.4-28.4,33.1c-3.6-28.4-5.6-60,9.2-85.5c8.4-14.5,21.8-23.6,34.1-34.4
	c11.8-10.2,22.9-21.2,33.4-32.8c30.4-34.2,80.7-104.9,40-149.5c-13-14.3-31.6-10.9-48.7-14c-31.4-5.6-2.7-55.5,4.6-71.8
	c9.4-20.9,14.5-41.9,18.8-64.3s8.3-46.5,3.8-69.3c-3.6-18.6-16.8-39.1-36.9-42.1c-19-2.8-34.9,12.6-45.5,26.3
	c-15.5,20-26.2,44.3-39.1,66c-15.8,26.7-18.5,55.5-18.2,86c0.8,73.1,3.2,146.3,3.3,219.5c0.1,37.7-0.3,75.7-3.9,113.3
	c-3.7,38.7-11.8,76.8-18.4,115.1c-14,82-13.4,165.3-16.8,248.3c-0.8,20.1-0.7,40.6-5.8,60.1c-4.3,16.6-11.3,32.2-18.3,47.8
	c-12.2,27.1-23.5,54.2-24.7,84.2c-2.9,1.8-5.8,3.5-8.8,5.1c-10.9-55-10.1-112.1-9-167.9c1.2-57.2,6.1-114.3,16.5-170.6
	c5-27.2,11.2-54.4,17.8-81.3c6.8-27.5,21.4-46.7,38.1-68.9c17.8-23.7,33-61.7,6.7-86.2c-11.1-10.3-23.8-11-36.2-6.5
	c26.5-46.4-1.7-106.2,22.7-152.8c11.6-22.2,35.2-40,37.9-66.4c1.9-19.4-13.6-27.3-28-35.6c12-20.7,21.7-41.5,16.7-66.2
	c-3.7-18.1-13.8-30-32.5-32.4c-3.8-0.5-8.6,0.4-12.2-0.7c-5.8-1.8-4.6-0.7-5.4-7.6c-1.1-9.1-1.5-18.3-2.8-27.4
	c-2.1-14.1-6-30.8-18.8-39.2c-14.7-9.6-35.8-3.9-49.7,4.4c-17.5,10.4-28.2,28.9-30.8,48.9c-3.3,25.4,6.2,51.8,14.3,75.5
	c2.6,7.4,5.3,14.8,8.1,22.1c-2.2-1.7-4.6-3-7.2-3.9c-0.7-0.2-1.3-0.5-2-0.7c-2.9-9.4-7.3-18.2-14.5-23.6c-12.9-9.8-29-0.3-37.8,10.8
	c2.7-24.7-1.1-51.3-25.2-62.1c-41.5-18.8-86,14.4-115.4,42.5c-6.6-45.7,0.5-92.9-5.6-138.9c-3.6-27.6-11.5-69.7-43.5-78.1
	c-36.4-9.5-65.7,23.7-68.7,57c-3.7,41.9,18.8,80.3,22.7,121.2c-13.6-10.4-34.4-18.8-49.2-12.9c-18.1,7.2-12.7,32.9-9.4,47.5
	c6,26.5,17,49.6,32.3,72c21.7,31.8,44.3,61.2,62.4,95.3c17.5,32.9,41.6,61.8,58,95.4c19,38.9,25.8,84.9,35.6,126.8
	c17.7,75.5,33.4,151.4,50.4,227c-21.3-51.9-45.8-102.5-73.2-151.5c-16.7-29.6-34.3-58.1-55.3-84.8c-21.3-27.2-44.3-53.6-61.3-83.9
	c-40.1-71.4-26-156.5-36.3-234.5c-4-30.4-11.8-76.2-38.6-95.9c-18.7-13.7-36.1,7.6-51.7,17.9c-10.8-22.3-16.7-47-27.2-69.5
	c-7.1-15.1-20.4-44.4-41.6-41.2c-27.7,4.2-29.2,44.9-28,65.6c2.2,37.9,13.9,74.6,24.9,110.6c6.4,20.9,14.1,41.6,27.4,59.2
	c9.3,12.3,19.9,23.6,30.2,35c-4,2.5-7.6,6.4-10.4,12.2c-14.5,29.7,7,65.8,7.4,97.2c-23.3-17.7-42.1-41.5-69.6-53.3
	c-9.9-4.3-22.1-6.9-30.9,1.3c-11.3,10.6-7.6,26.2-2.2,38.7c7.5,17.3,18.6,33.1,30.4,47.8c21.4,26.7,42.1,54.4,68,77.1
	c2.4,2.1,4.7,4.1,7.1,6.1c-7.6-0.2-13.2,5.4-15,20.4c-2.8,23.6,5.3,49.5,13.4,71.4c8.5,23,29.3,44.2,31.7,69.1
	c-18.7-4.1-52.5-9.3-60.5,10.2c-5.2,12.9,6.8,28.5,14.9,37.2c12.8,13.7,30.2,21.5,48.1,26.1c19.7,5.1,40.2,6.4,60.4,8.4
	c26.3,2.6,49,8,72.2,21.1c21.2,12,43.8,23.1,64,36.5c5,3.3,9.7,7.2,13.9,11.4c0,0.1,0,0.1,0,0.2c-0.2,2,1.3,3.8,3.3,4
	c0.2,0,0.4,0,0.7,0c13.5,15.1,22.6,34,31.3,52.4c14,29.8,25,60.9,36.4,91.8c11,29.8,23.1,60.8,20.3,93.1c-0.2,1.9,1.2,3.7,3.1,3.9
	c0.1,0,0.1,0,0.2,0c-7.1,16.1-38,19.8-51,30.1c-21.1,16.7-37.6,40.4-52.5,62.5c-30.1,44.5-58.2,95-65.9,148.8
	c-13.5,94.8,18.5,203.6,93.2,266.2c67.1,56.3,157.1,76.6,242.4,84.2c21.7,1.9,43.6,3,65.4,3.5c20.7,0.4,43.5-2.1,63.2,5.7
	c20.3,8.1,29.8,27.9,36.3,47.4c10.2,30.6,14.8,61.8-8.2,87.6c-18.2,20.4-33.2,38.2-40,65.5c-7.1,28.9-6.1,59.2-5.7,88.8
	c0.3,22.4-3.2,43.9-5.4,66.1c-1.6,16.3-4.8,38.5,6.7,52.2c1.6,1.5,4.2,1.5,5.8,0c33.5-37.2,19-92.1,23.7-137.3
	c2.1-20.1,10.7-38.4,20.4-55.9c3.7-6.6,7.3-13.4,11.5-19.6c1.8-2.7,4.7-8,7.6-9.9c9.7-6.4,11.8-0.5,15.4,5.9
	c18.8,32.8,14.9,75.1,15.6,111.4c0.5,27.5,6.1,53.7,9.7,80.9c1.7,13,1.1,38.8,13.9,47.2c25.4,16.7,8.1-73.2,7.6-76.7
	c-5.6-38.4-8.4-78.8-3.9-117.5c0.6-5.5-0.7-8.3,4.1-10c4.6-1.6,9.9,1.3,13.6,3.6c5.6,3.5,10.2,8.8,14.7,13.7
	c7.5,8.2,14.3,17.1,23.9,23c1.6,0.9,3.6,0.7,4.9-0.6c11.1-10.2,7.2-22.6-1-33.5c-13.3-17.8-28.4-28.8-36.7-50.4
	c-20.3-52.1-11.9-110.2-15.4-164.7c-1.9-29-4.8-60.4,9.4-87s38.8-48.3,57.8-71.6c17.9-22,36.5-43.7,50.5-68.4
	c14.3-25.2,24.2-53.6,34.1-80.8c22.2-60.8,42.1-124.4,52-188.5C1156.7,2630.5,1156.9,2568.2,1127.6,2520.5z M750.3,2379.4
	c8-70.2,4.3-141.9,9.4-212.4c5-69.3,24.2-136.6,29.2-205.8c5.1-70.6,2.5-141.6,1.1-212.2c-0.7-33.3-0.7-66.7-1.4-100
	c-0.7-34.3,1.4-65,19.8-94.9c13.3-21.6,23.1-46.6,40-65.8c7.5-8.5,18.1-18.3,30.3-18.1c17.1,0.3,28.7,17.7,32.6,32.6
	c6.5,24.8,0.4,52.6-4.7,77.1c-4.6,22.2-11.6,43.8-21,64.5c-7.5,16.6-19.2,38.3-14.7,57.2c3.4,14,16.3,16.2,28.8,17.2
	s26.8,0.7,36,10.9c15.4,17.1,13.1,45,6.2,65c-11.6,33.4-35.7,63.4-60.4,88c-20.4,20.2-47.4,35.6-59,63c-11.3,26.9-8.9,57.3-5.2,85.4
	c0.3,2,1.7,4.4,4.1,4.1c16.5-2.1,27.9-22.5,36.7-34.8c15.6-22,32.5-43.7,57.3-56.1c21.8-10.9,62.9-18.9,77.5,7.1
	c11.1,19.8,3.7,47-4.3,66.6c-11.7,28.4-34,46.4-57.4,65c-17.8,14.2-42.1,32.3-45.7,56.6c-2.3,15.7,2.7,29.2-9.1,42.7
	c-11.4,13.1-27.5,22.7-40.5,34.3c-10.5,9.4-21.2,19.9-28.4,32.1c-0.6,1-1.1,2-1.6,3l-0.2-0.1c0,0.1,0,0.3,0.1,0.4
	c-2.3,5-3.8,10.1-5.5,15.5c-3.8,11.3-9,17-16.9,24.9c-10.5,10.5-13.4,23.6-16.4,37.9c-4.3,20.1-6.7,40.5-9.9,60.8
	c-6,38.3-17.3,75.5-25.3,113.4c-6.6,4.7-13.2,9.4-19.9,14.1c-2.5,1.7-5,3.4-7.5,5.1C708.7,2472.5,744.4,2430.5,750.3,2379.4z
	 M743.3,1960.2c24.4,8.8,22.5,44,12.8,62.4c-12.4,23.4-33.3,40.8-43.8,65.4c-11.5,27.2-16.2,59-22.2,87.8
	c-12.3,59.6-18.3,120.4-20,181.3c-1.7,60.1-2.7,121.9,9.4,181.2l-1.5,0.7c-3.2-16.8-9-33.1-13-49.9c-6.5-27.9-9.5-56.5-11.5-85
	c-3.9-54-3.5-108.1-6.7-162.1c-3.2-53.2-22.7-98-48.5-144c-1.8-3.3-3.7-6.6-5.5-9.8c0.2-43.3,1.3-86.7,7.5-129.6
	c1-7,2-14.3,3.2-21.7c9.8-5.2,20.9-6.1,32.2,0.6c20.7,12.5,31.4,40.5,34.3,63.3c0.5,3.8,5.3,5.8,7.6,2.1
	C689.3,1983.7,717.3,1950.8,743.3,1960.2z M627.9,2557.2c-0.2-1.1-0.4-2.2-0.7-3.2c1.1,1.5,2.2,3,3.4,4.4c-0.9,0.3-1.9,0.6-2.8,0.9
	C628,2558.5,628,2557.9,627.9,2557.2L627.9,2557.2z M575,1740c-0.7-15.6-2.9-36.5,0.7-54.5c13.8-4.9,32.6-11.1,47.6-8.6
	c5,16.8,7.1,38.3,7.3,53.3c-7,11.7-14.9,22.9-23.7,33.3c-9.5,11.3-19.8,22-29.9,32.8C576.5,1777.5,575.9,1758.7,575,1740z
	 M587.7,1796.9c15.1-16.1,30.4-32.4,42.4-50.9c0.2,2.1,1.8,3.7,3.9,3.7c11.1,0.8,25.5-3.7,35.2,2c5.4,16.8,9.4,33.9,12.1,51.3
	c-1.3,6-3.3,11.8-5.8,17.3c-13.9,30-46.2,38.3-63.7,64.5c-8.8,13.3-13.7,29.6-16.7,46.5c-5.7,3.5-10.7,7.9-14.8,13.2
	c-0.7-34.1-1.3-68.1-2.3-102.2c-0.3-11.4-0.6-22.8-0.8-34.2C580.7,1804.3,584.2,1800.6,587.7,1796.9z M686.4,1977.9
	c-3.6,3.9-7.1,8-10.2,12.3c-6.7-30.4-26.9-69.9-61.7-65.6c-3.1,0.4-6.2,1-9.2,2c2.2-10.9,5.1-21.6,9.8-31.1
	c7.7-15.3,21.8-24.7,35.5-34.2c14.5-10,26-23.7,33.3-39.7C689.7,1873.2,686.6,1925.4,686.4,1977.9L686.4,1977.9z M584.8,2073.7
	c-0.6-1.1-1.2-2.2-1.7-3.4c-0.9-36.9-1.7-73.9-2.4-110.9c3.4-5.7,7.7-10.8,12.5-15.3c-1.7,12.9-2.7,25.7-3.9,37.4
	C586.1,2012.2,585.1,2043,584.8,2073.7L584.8,2073.7z M574.3,2050c-1.4-4.2-2.6-8.6-3.5-12.9c-4-20.1-4-41.8,2.3-61.3
	C573.6,2000.6,574,2025.3,574.3,2050z M572.8,1956c-9.7,18.2-13.4,40.9-12.7,59.2c0.7,20.4,6.5,38.9,14.6,56.8
	c0.9,66.8,1.8,133.6,2.9,200.4c0.9,48.8,6.8,95.8,19,143.1c6.5,25.1,14,49.9,21.7,74.6c5.5,17.8,18.6,41.9,17.5,61.8
	c-3.5-4.4-6.6-9.2-9-14.2c0-0.3,0-0.5,0-0.8c-1.8-23.6-11.7-45.4-22.5-66.2c-1.9-5.2-3.9-10.4-5.8-15.6c-2.9-9.7-5.8-19.4-9.2-29
	c-5-14.2-10.1-28.3-15.4-42.4c-3.8-12-7.5-24.1-11-36.3c-10.9-38.3-18-77.3-26.7-116.2c-8.2-36.2-17-72.3-23.9-108.8
	c-14.2-75.3-21-154.9,12.4-226.3c8.4-18,14.7-37.3,25.4-54.1c5.8-8.9,12.3-17.3,19.4-25.3C570.9,1863.1,572,1909.5,572.8,1956
	L572.8,1956z M637.9,2523.1c-6.2-17.6-11.9-35.3-17.3-53.1c-12-39.3-23.7-79.2-29.5-120c-6-41.9-5.8-84.3-5.5-126.5
	c0.3-41.6-0.6-83.1-1.8-124.6c-0.1-3-0.2-5.9-0.2-8.9l1.1,2c0,9.7,0,19.4,0,29.1c0,5.2,8.1,5.3,8.1,0v-14.5
	c8.8,15.7,18,31.3,25.2,47.7c27.5,62,20.8,131,24.3,197.2c1.7,33.4,3.3,66.9,7.8,100.1c2.5,18,5.7,35.9,10.6,53.4
	c3.5,12.7,7.5,25.1,9.7,37.8c-8.7,4.1-17.5,7.8-26.5,11.1C644.6,2543.5,641.4,2533.2,637.9,2523.1z M625.8,1579.5
	c3.1-24.7,19.5-44.9,44.4-50.4c43.4-9.5,39.2,47.1,43.1,74.8c0.2,1.7,2.3,3,3.9,3c19.6-0.3,37.4,0.5,43.9,22.4
	c7.5,25.2-4.5,47.2-16.9,68.2c-1.1,2-0.4,4.4,1.5,5.6c8,4.7,20.2,9,25.2,17.2c7.9,12.9-2.7,30.2-10,41
	c-12.4,18.3-27.4,33.7-31.9,56.2c-8.6,42.4,7.3,94.5-16.1,133c-1.1,1.8-0.6,4.1,1.1,5.2c0,0,0.1,0.1,0.1,0.1
	c-7.2,3.9-13.8,8.6-19.8,14.2c0.6-52.6,4.2-105.6-2.8-157.9c-0.5-3.3-1-6.7-1.5-10c1.6-8.4,1.7-17.1,0.4-25.6
	c-1.7-10.9-6-24.7-15.5-31.5c-10.1-29.7-22.5-58.6-33.1-88.2C633.4,1633,622.6,1605.2,625.8,1579.5L625.8,1579.5z M665.6,1741.1
	c-8.6-1.7-18.3,0.3-27.1,0.5c0.3-3.8,0.5-7.5,0.6-11.3c1.8-3.6,3.4-7.2,4.9-11c2.8-6.9,4.5-14.1,5.1-21.6
	C654.8,1712.1,660.4,1726.5,665.6,1741.1L665.6,1741.1z M638.5,1714.1c-0.5-6.8-1.4-13.6-2.4-20.2c-0.6-4.1-1.4-8.6-2.4-13.2
	C644.6,1687.3,643.9,1700.2,638.5,1714.1L638.5,1714.1z M587.8,1660.1c15.6-16,26-7.8,32.7,8.8c-13.9-1-29,2.9-42.3,7.3
	C580.2,1670.1,583.5,1664.7,587.8,1660.1L587.8,1660.1z M474.2,1993.3c-8.6-35.6-15.3-72.7-32.2-105.4c-15.4-30-36.6-56.5-53-85.9
	c-16.7-30.1-35.3-59.1-55.7-86.8c-18.8-25.9-33.7-51.8-40.8-83.2c-3.1-13.9-8.7-37.8,11.9-38.8c13.9-0.6,31.5,9,40.7,18.9
	c2.4,2.6,7,0.6,7-2.9c-0.6-34.7-16.1-67.2-21.7-101.1c-3.3-19.8-3.6-42.3,8.5-59.4c12.9-18.3,42.6-28.3,61.1-12.7
	c23.4,19.7,25.2,61.3,27.2,89.4c3,40.7-2.7,82.1,4.6,122.4c0.6,3.1,4.8,3.8,6.8,1.8c26.8-26.7,67.6-61.6,108.7-47.6
	c32.2,11,25.6,54.9,18.6,80.2c-0.4,1.7,0.2,3.4,1.7,4.5c-2.6,15.9-1.5,33.2-0.8,47.4c0.9,23.5,1.8,47.1,2.5,70.6
	c-8.9,9.6-17.1,19.8-24.5,30.6c-10.5,15.9-16.4,34-24.4,51.2c-6.6,14.4-13,28.4-17.4,43.6c-19.1,66.6-9.5,138.1,3.7,204.9
	c6.9,34.5,15.3,68.7,22.9,103.1c4.6,20.5,8.7,41.1,13.3,61.6c-15.1-61.2-27.2-123.3-40.8-184.8
	C493,2074.3,483.9,2033.7,474.2,1993.3z M443,2103.1c36.3,64.3,66.5,131.4,92.4,200.5c5.7,24.1,11.8,48.4,19.2,72.2
	c-14.5-28.6-30.5-56.4-44.6-85.3c-23.1-47.2-43.6-95.6-64.3-143.8c-10.6-24.7-21.6-49.2-31.4-74.2c-8.1-20.4-17.1-39.3-30.1-57
	c-4-5.4-7.9-10.8-11.8-16.2c5,6.2,10,12.4,14.9,18.6C408.5,2044.8,426.2,2073.3,443,2103.1z M157.2,1718.5
	c-10.7-21.2-16.2-44.5-23-67c-9.7-32.1-19-67.2-15.8-101c1.2-12.7,8.5-40.7,26.8-34.9c12.4,3.9,20.1,21.7,25.3,32.2
	c12.3,25.1,18.5,52.9,31.2,77.7c1.2,1.9,3.6,2.6,5.6,1.5c9.9-5.3,17.5-13.1,26.8-19.1c18.8-12.1,30.4,9.2,37.8,24.6
	c16.3,33.8,19.2,73.2,21,110.1c3.3,66.6,1.4,135,35,194.5c-6.3-8.7-12.8-17.3-19.3-25.8c-12.6-39.2-28-78.2-55.1-109.7
	c-11.2-13-34.2-29.8-52.4-26.9C185.4,1756.9,168,1740,157.2,1718.5z M293.8,1892.3c-15.7-19.5-32-38.5-47.2-58.3
	c-13.2-17.2-25-35.2-38.8-51.8c24.3-0.5,45,29.4,56.1,46.8C276.6,1848.8,285.9,1870.3,293.8,1892.3L293.8,1892.3z M134.4,1929.6
	c-14.1-17.6-28.5-34.9-38.3-55.4c-7.4-15.4-9.5-42.2,15.3-35c32.2,9.4,53.2,40.8,79.9,59.1c2.8,1.9,5.8-0.7,6.1-3.5
	c2.6-22.6-27.1-97.4,1.1-110.6c5,5.7,9.9,11.4,14.4,17.4c16,21.2,31,42.8,47.8,63.4c13.8,16.8,27.8,33.5,41,50.7
	c16.1,49.4,30.7,99,49.6,147.5c10.6,27.3,24.1,53,35.6,79.9c4.9,11.6,7.5,23.9,10.3,36.1c-2.5-3.5-5.1-7.1-7.7-10.5
	c-33.6-44.1-74-87.7-119.9-119c-25.2-17.1-51-33.4-74.2-53.2S153.4,1953.4,134.4,1929.6z M260.7,2053.6
	c28.3,19.1,52.6,41.6,75.7,66.6c25.3,27.4,50.9,56.6,69.8,88.9c1.2,2.7,2.5,5.4,4,8c0.3,0.6,0.8,1.1,1.3,1.4
	c12.5,23.5,21.2,48.6,23.6,75.8c-23.2-45.8-52.2-88.3-84.6-128.2c-26.7-32.9-58.2-61.6-84.3-94.8c-3.7-4.7-14-18.2-26.4-31.8
	C246.7,2044.2,253.7,2048.9,260.7,2053.6z M379.9,2272.4c-19.5-11.7-39.1-23.7-61.6-28.4c-38-8-79.7-3.2-115.2-21.4
	c-11.2-5.7-50.7-39-26.5-49.4c14.3-6.1,34.7-1.8,49.2,1.6c2.2,0.6,4.5-0.8,5.1-3c0.1-0.3,0.1-0.6,0.1-0.9
	c0.2-18.2-9.4-33.9-18.4-49.1c-10.5-17.9-18.2-37.3-23-57.5c-2.4-10-11.5-43.1,0.6-51.1c7.9-5.2,20.7,7.8,25.7,12.5
	c18.1,16.7,32.9,36.8,48.1,56c23.2,29.2,51.2,54.6,75.1,83.4c34.6,41.8,65.5,86.6,89.9,135.1C413.6,2289.5,395.9,2282,379.9,2272.4
	L379.9,2272.4z M499.7,2421.2c-13.5-35.5-28.1-80.3-56-108.5c0.8-39.3-12-76.6-31.6-110.2c-7.8-19.9-9.1-42.1-17.5-61.9
	c-10.6-24.8-23.2-48.5-33.2-73.6c-17-43.2-31.2-87.1-45.1-131.3c15.5,21.9,30.7,43.9,46.8,65.4c17.2,23,31.8,44.7,42.4,71.5
	c19.8,49.9,41.7,99.1,63.3,148.2c13,29.6,26.5,59,41,87.8c13.7,27.3,29.8,53.3,43,80.9c12.8,26.8,22.4,55,34.6,82.1
	c12.9,28.7,26.7,57.2,32.7,88.2c0.1,0.5,0.3,1,0.6,1.4c-28.3,7.5-57.4,11.4-86.6,11.5c4-4.3,6.4-9.9,6.9-15.8c0-2.8-2.6-4.1-4.9-3.8
	C538,2508.1,515.4,2462.2,499.7,2421.2L499.7,2421.2z M367.4,2837.4c1.3-66.7,32-126.7,69.1-180.8c17.6-25.8,38.4-57.6,68.8-69
	c8.8-3.3,18-6.2,24.8-11.3c-0.4,2.1,1,4.2,3.1,4.6c0.3,0.1,0.5,0.1,0.8,0.1c36.1-0.3,71.6-5.2,105.3-16.4c0.3-0.1,0.6-0.2,0.8-0.3
	c10.7-3.6,21.1-7.7,31.2-12.5c0.4,4.5,0.6,9,0.4,13.6c-0.1,5.3,8.1,5.3,8.3,0.1c0.3-5.9,0-11.8-0.7-17.6c0.6-0.3,1.3-0.7,1.9-1
	c0.1,0.3,0.1,0.5,0.2,0.8c1.2,5.1,9,2.9,7.9-2.2c-0.2-0.9-0.4-1.8-0.6-2.7c3.7-2.1,7.3-4.3,10.8-6.6c1.7,0.1,3.3-0.9,3.9-2.6
	c8.9-5.9,17.4-12.2,26-18.4c-0.1,0.6-0.2,1.1-0.3,1.7c-1,5.1,6.9,7.3,7.9,2.2c0.7-3.7,1.4-7.3,2.2-11c4.7-3.3,9.4-6.6,14.2-9.8
	c23.6-15.5,49.2-27.8,76-36.6c55.8-18.3,116.7-21.9,173.8-7.1c47,12.2,101.2,35,123.3,81.1c0.7,1.5,1.4,3,2.1,4.5
	c-0.9,0.3-1.6,0.9-2.1,1.7c-19.5,31.2-51.3,48.1-77.4,72.6c-22.1,20.7-37.4,53-67.4,63.4c-28.2,9.8-59,4-88.1,8
	c-30.3,4.1-52,23.7-79.7,34.1c-23.1,8.7-50.4,4.1-74.5,9.5c-27,6.1-56.1,17.9-74.1,39.9c-7.3,9.2-13.1,19.5-16.9,30.6
	c-2.5,7-3.1,17.1-7.2,23.3c-4.8,7.3-14,5.9-21.7,5.1c-16.6-1.7-32.5-6.4-49.3-6.9c-74.5-2.6-146.7,40.6-194.9,94.8
	C369.5,2890.4,366.8,2863.9,367.4,2837.4z M1128.9,2738.7c-16.2,65.5-36.7,131.4-64.6,192.9c-25.4,55.9-73.4,95.3-108.6,144.2
	c-31.7,44.2-17.6,100-17.7,150.6s-2.2,116,35.6,155.4c7.2,7.5,18.1,15.9,21.7,26c0.7,2,2.9,9.4,0.5,11.6c-2.6,2.2-4.9-1.4-7.5-3.9
	c-3.4-3.3-6.5-7-9.6-10.5c-12-13.6-26-29.3-45.8-22c-1.7,0.6-2.9,2.1-3,3.9c-3,30.6-3.9,61.3-1.5,92c2,26.5,8.2,52.1,11.1,78.4
	c0.8,6.8,0.9,13.6,0.3,20.4c-1.4,15.1-6.2,3.5-8.1-4.8c-4-17.8-4.6-36.2-8-54.1c-6.1-31.7-5.2-62.6-6.4-94.7
	c-0.9-25.5-4.1-53.5-17.2-76c-23.5-40.3-56.5,40.4-62.6,57.1c-17.6,48.5,8.9,113.2-24.6,155.9c-8.1-15.2-2-41.7-0.1-56.7
	c2.5-20.2,4-39.2,3.7-59.6c-0.4-28-0.9-56.7,6.8-83.9c7.8-27.5,26-42.5,42.5-64c25.4-33.1,12-87.9-10.1-119.9
	c-20.6-29.7-56.5-27.2-88.7-27.7c-89.8-1.5-185.4-12-264.9-57c-64.9-36.7-106.7-98.1-124.7-167.6c1,0,2-0.5,2.7-1.3
	c48-54.5,122.1-99.5,197.3-93.2c17.4,1.5,48.6,14.9,65.3,3.8c10.6-7.1,10.9-25,15.3-35.8c13.8-33.7,45.3-51.1,79.2-59.7
	c25.6-6.4,54.3-1.5,79-10.6c28.4-10.5,50.7-31,82-34.4c28.4-3.1,58.2,1.8,85.7-7.7c30.5-10.5,45.4-40.3,67.2-61.9
	c26.7-26.4,60-43.7,81-75.5C1155.2,2608.6,1143.9,2677.9,1128.9,2738.7z"/>
<path class="st3" d="M208.5,2158.8c-37.7,0-37.7,58.5,0,58.5S246.3,2158.8,208.5,2158.8"/>
<path class="st5" d="M3795.2,785.8v-0.3c-1-13.6-4.4-26.8-10.2-39.1l-0.3-0.6c-3.9-8.1-7.9-15.5-11.8-22.6
	c-3.2-5.9-6.2-11.4-8.8-16.7l-0.2-0.3c-1.4-2.8-2.8-5.6-4.2-8.4c-5.9-11.6-11.4-22.5-14.9-32.6c-7.1-20.2-13.8-38.2-20.4-55
	c-4.2-10.3-9.6-20-16-29c-10.7-15.5-23.9-33.5-40.4-50c-12.2-12.2-24.9-20.8-35.6-27.6l-0.3-0.2c-1.8-1.1-4.2-2.9-6.8-4.7l-3.9-2.8
	l0,0c-3.4-2.8-7.1-5.4-10.9-7.6c-28.1-16.9-55.9-26.8-84.8-30.2c-1.5-0.2-3-0.5-4.5-0.9c-20.5-7.3-42.6-8.9-63.9-4.4l-0.3,0.1
	c-5.3,1.1-12.7,1.5-20.6,2l-4.8,0.3h-0.2c-30.7,2-59.2,9.1-84.9,21.2c-15.5,7.3-30,15.1-43.9,22.7l-3.4,1.8
	c-5.7,3.1-11.5,6.2-17.2,9.4c4.8-90.8-34.2-183.2-109.5-236.6c-70.8-50.2-161.1-66.8-243.6-37.5c-37.8,13.5-73.4,40.4-94.8,74.4
	c-9.7,15.7-17.8,32.3-23.9,49.7c-13.1,12.9-19.3,28.8-23.8,47.2c-9.3,37.9-10.8,77.6-10.7,117.1c-3.3,39.2-5.2,78.6-6.5,117.9
	c-1.6,47.8-5.2,96.7-1.4,144.4c7.3,92,66.3,171.2,111.6,248.2c1.8,3,3.9,5.8,6.2,8.4c-1.1,4.6-0.5,9.4,1.6,13.6
	c5,9.9,10.4,20.7,13.7,31.8l-0.2,0.2c-9,9.7-9.8,21.9-10.9,34.4c-1.3,14.8-8.8,27.4-14.3,41c-6.1,14.9-9,29.3-7.9,45.3
	c1.7,24.6,37.3,27.1,46.3,6.2c12.6-29.1,31.1-60.2,37.5-91.4c0.1-0.4,0.1-0.8,0.2-1.2c8.7-3.4,16.4-9.1,22.3-16.4
	c0.4,0.6,0.9,1.3,1.3,1.9c23.7,37.3,57.7,9.3,79.6-20.4c17.7-7,32.2-20.2,42.1-37.5c11.8-7,21.9-15.9,29.3-26.7
	c3.8,9.4,8,18.5,12.7,27.4c1.1,2.2,3.3,6.4,3.8,8c2.4,11.5,5.9,22.7,10.3,33.5l22.4,54.6l37.6-13.8l82.6,10.3
	c14.1,2.7,28.8,0.4,41.4-6.5c4.7-2.5,9.2-5,13.6-7.5l6.6-3.7c6.3-3.5,12.7-6.9,19.4-10.5l10.2-3.1c17.3-5.2,35.1-10.5,52.6-15.5
	c14.7-4.2,29.3-8.2,43.1-12c3-0.8,6.5-1.6,10.1-2.4s7.9-1.8,12.3-3l0.7-0.2c4.3-1.2,8-2.4,11.3-3.6c9.2,0.6,17.9,1.2,26,2.2h0.2
	c17.5,2.1,35.2-0.1,51.6-6.5l0.2-0.1l1-0.4c20.3-4.2,37.3-12,50.1-18.4l0.2-0.1c8.9-4.4,17.3-9.5,25.3-15.4l0.6-0.4
	c24.2-18.4,44.6-41.2,60.2-67.2l0.1-0.2c3.9-6.5,7.5-12.6,11-17.5l0.2-0.3c9.9-14,18.8-29.8,28.1-49.6c3-6.7,5.7-13.6,8.1-20.5
	c1.1-3.3,2.2-6.3,3.1-8.5l0.1-0.3c6.4-15.2,10.2-31.9,11.6-50.8C3795.7,810.1,3795.9,797.9,3795.2,785.8z"/>
<path class="st3" d="M3056.9,863.7c-11.7,3.5-23,8.2-33.7,14.2c-2.4-14.1,0.8-31.2,1.6-43.6c1.2-17.9,3-35.9,7-53.5
	c5.6-24.9,16.5-48.5,34.1-66.5c5.7-4.3,11.2-8.9,16.4-13.8c12.9-12-1.9-32.2-16.8-22c-6.6,4.6-12.8,9.7-18.4,15.4
	c-5.5,4.1-11.1,7.9-16.9,11.5c15.8-90.3,52.6-175.6,107.3-249.2c10.7-14.3-10.5-30.7-21.8-17c-22.8,27.5-45.5,55-68.2,82.4
	c-4,4.9-8.3,9.7-12.6,14.7c2-40.9,2.3-82,0.6-123c-0.7-17.1-23.9-13.6-27.4,0c-4.2,16.6-8.4,33.2-12.1,49.9
	c-0.1-0.8-0.2-1.5-0.3-2.3c-0.4-1.6-1-3.2-1.8-4.6c-0.1-0.3-0.8-0.3-1.4-0.5c-0.7,1-1.3,2-1.8,3.1c-0.6,2-0.6,4.3-1.2,6.3
	c-7,21.5-7.9,43.8-9.3,66c-0.5,9-1.4,17.9-2.8,26.8c-3.6,21.6-2.2,43.1-1.3,64.7c-0.8,1.6-1.4,3.3-1.6,5.1l-5.6,38
	c-1.1,7-0.4,26.2-4.7,31.6c0.7,2.8-0.3,3.7-2.9,2.7c-2.7,0-5.3-0.3-7.9-0.8c-4.9-0.9-9.6-2.3-14.2-4.2c-10.1-4.2-19-10.7-26.1-19
	c-10.1-11.6-30.1-1.3-23.8,13.7c18.6,43.8,45.8,83.5,80,116.6c0.4,0.2,0.7,0.5,1,0.8c0.6,1.6,1.2,3.2,1.9,4.9c3.5,9.8,6,20.1-5.6,24
	c-6.5,2.2-13.4,2.2-20.1,3.5c-23.2,4.5-53.7,29.5-32.1,54c5.5,6.2,11.4,9.4,17.6,10.5c0.4,6.8,1.2,13.7,2.4,20.4
	c3,17.5,7.2,34.6,9.3,52.3c3.4,28.7,3,57.5,0,86.2c-6.3,29.7-14.6,59.1-26.1,88c-4.3,11-8.8,21.8-13.3,32.7
	c-3.3,0.4-6.2,2.4-7.9,5.3c-6,10-12,20.1-18,30.1c-9.1,14.4-18.8,28.3-29.1,41.9c-2.2,2.8-3.2,6.4-2.7,10
	c-6,9.4-11.6,19.5-12.2,29.7c-2.5,3-4.1,6.6-4.6,10.5c-2.9,19.8-12.5,38.2-17.1,57.8s-6,39.7-7.4,59.7
	c-1.3,17.2,18.4,31.2,33.1,19.3c12-9.7,16.4-22.3,21.7-36.4c6.3-16.9,13-33.7,20.4-50.1c13-28.8,43.4-47.1,39.2-82
	c-0.3-3.2-1.4-6.2-3.1-8.9c1.8-4.9,3.7-9.7,5.5-14.5c24.1-44.8,69.3-78.6,85.7-128.3c0.4-1.5,0.7-3,0.8-4.5c2.2-2.2,3.5-5.2,3.6-8.3
	c4.4-81.2,25.8-160.6,62.8-233.1C3081,870.1,3067.3,860.6,3056.9,863.7z M2984.9,616c0.1,0.1,0.2,0.3,0.3,0.4l-0.4,0.1
	C2984.9,616.3,2984.9,616.1,2984.9,616L2984.9,616z M2963.7,927.9c1.3,2.1,2.5,4.2,3.6,6.3c-0.9,0.6-1.8,1.2-2.6,2
	c-0.7-3.3-1.4-6.7-2.1-10C2963,926.7,2963.3,927.3,2963.7,927.9z M2982.1,862.5c-0.4,0.6-0.8,1.1-1.2,1.6c-0.7-1.1-1.5-2.2-2.5-3.1
	c2.4-0.9,4.8-2,7.1-3.3C2984.3,859.3,2983.2,860.9,2982.1,862.5L2982.1,862.5z M3039,575c-3,7.3-5.9,14.7-8.6,22.2
	C3031.8,589.3,3034.7,581.8,3039,575z M3599.8,744.9c-56.3,27.8-104.8,79.2-168,89.8c5.1-12,15.8-23.1,22.2-33.1
	c26.7-40.9,42.8-87.7,47-136.3c1.5-14.9-22-22.8-26.4-7.3c-6.8,24.4-18.7,46-34.1,66.1c-7.8,10.2-16.2,19.9-24.9,29.3
	c-4,4.3-8.1,8.6-12.2,12.9c-0.6,0.7-1.3,1.3-2,1.8c-1.1-6-1.8-12.2-3-17.4c-2.7-11.4-5.6-22.7-8.8-34c-6.8-24.3-14.9-48.3-24.2-71.8
	c-5.7-14.3-30.2-8.2-26.5,7.2c7.1,28.9,11.6,58.3,13.5,88c-4.7,1.5-8.5,5.1-8.7,10.9c-1.1,35.1-1.8,70.3-2.2,105.5
	c-0.3,4.2-0.7,8.3-1.4,12.4c-1.4,8.6,0.3,7.8-5.7,4.1c-4-2.5-7.6-7.7-10.6-11.2c-27.3-31.9-42-71.9-56.5-110.7
	c-6.3-17-30.5-6-25.5,10.7c10.7,36.1,20.7,72.5,29.6,109.1c4.5,18.3,8.8,36.7,12.8,55.2c0.6,2.8,5.4,19.5,7.6,31.5
	c-28-28.2-55-57.3-81.1-87.4c-10.8-12.4-28.2-1.1-23.8,13.7c15.6,52.7,35,109.6,29.8,165.3c-1.2,12.8-3.5,25.5-6.7,38
	c-8.9-12.8-30.8-16.5-40.8-0.8c-8.8,2.5-16.9,11-17.4,20.1c-1,17.4-2.4,33.1-10.7,48.8c-7,13.3-14.7,25.9-20.5,40
	c-12.1,29.4-20.4,60.1-36.3,87.9c-3.8,6.6-2.6,14.7,1.3,21.2c-6.8,9.8-13.4,19.7-19.8,29.8c-13.1,20.7-27.7,42.7-36.1,65.8
	c-5.3,14.6-6,32.8,8.3,42.4c7.7,5,17,3,21.2-5.5c15.4-31.3,32.1-59.1,56.4-84.5c22.8-23.9,45.8-47.4,66.9-72.8
	c17.7-21.4,37.2-44.4,53.7-69.1c15.7-13.6,22.1-33.2,28.9-53.8c9.8-29.7,27.6-53.7,52.5-72.5c27.2-20.5,59.6-33,92.2-42.2
	c31.2-8.8,63.4-13.8,92.7-28.2c14.1-7,8.6-28-7.2-26.5c-40.5,3.8-81.1,6.8-121.8,8.9c4.4-25.6,29.9-42.7,49.6-57.9
	c22-17,42.2-35.8,61.9-55.3c40.8-40.5,79.6-83.4,128.5-114.4C3626.8,760.2,3613.7,738,3599.8,744.9z M3110.7,1316.5
	c0.4-0.1,0.9-0.2,1.3-0.3c-1.3,1.3-2.6,2.6-3.8,4L3110.7,1316.5z M3231.1,937.3c-0.4-1.6-0.9-3.2-1.3-4.8c0.7,0.8,1.5,1.7,2.3,2.5
	C3231.6,935.7,3231.3,936.5,3231.1,937.3z M3306.5,897.4c0,0.3-0.1,0.7-0.1,1c-0.7-2.9-1.4-5.7-2.1-8.6c-0.8-3.2-1.6-6.5-2.3-9.7
	c2.7,3.3,5.6,6.4,8.6,9.4C3308.5,891.6,3307,894.4,3306.5,897.4L3306.5,897.4z M3376.5,1023.6c-3.8,1.3-7.7,2.7-11.5,4.2
	c0.9-1.1,1.6-2.3,2.1-3.7C3370.2,1023.9,3373.4,1023.7,3376.5,1023.6z M3380.6,800.4c0.1-2.1,0.2-4.2,0.3-6.5c0.7,1.4,1.6,2.8,2.6,4
	C3382.5,798.7,3381.5,799.5,3380.6,800.4L3380.6,800.4z"/>
<path class="st4" d="M2945.8,1228.6c-18.7,34.1-35.7,69.2-57,101.8c-11.4,17.4-23.6,33.6-31.5,53c-4.9,12.2-8.6,24.7-11.1,37.6
	c2.9,0.4,4.9,2.9,4.7,5.8c-1,14.5-12.6,34.7-29.6,33.5c-16.5-1.2-18.7-18.9-17.5-31.8c2.8-30.5,8.8-62.1,13.7-92.4
	c5.7-35.6,18.4-67.6,32.8-100.5c14.7-33.7,25.3-68.8,33-104.8c8.6-40.9-3.3-75.8-22-112c-29.5-57.2-79.2-108.8-92-173.4
	c-6.1-30.7-4.4-62.3-4.3-93.4c0.1-40.8-3.1-81.5-3.6-122.3c-0.8-71.6-1.3-150.8,20.3-219.7c10.3-32.8,28.7-62.4,44.2-92.8
	c11.5-22.7,23.8-44.9,43.9-61.2c44.6-36.2,110.4-44.5,165.5-35.8c67.5,10.7,123.2,44.9,163.7,99.5c20.6,27.8,39.1,57.8,56.3,87.9
	c16.3,28.6,30.1,60.2,23.4,93.7c-1.3,6.8-12.1,5.4-10.7-1.4c6.6-33.2-8.7-64.2-25-92.2c-13.4-22.9-27.6-45.7-42.6-67.5
	c-34.1-49.6-76.4-85.1-134.7-102.1c-57.5-16.8-125.3-14.4-177.3,18c-21.1,13.1-35,32.2-46.6,53.8c-14.7,27.4-30.5,55.2-42.5,83.9
	c-25.3,60.5-26.1,134.2-27.1,198.9c-0.9,60.8,3.7,121.5,3.4,182.4c-0.2,31.7,0.2,63.9,11.7,93.9c11,28.6,28,54.6,44.5,80.3
	c27.6,42.9,65.2,94.3,66.4,147.4c0.6,28.2-9.1,55.8-15.9,82.8c-3.6,13.7-8.1,27.1-13.5,40.2c2.7-4.6,5.4-9.2,8.1-13.8
	c22.3-37.1,48.6-72.9,64.3-113.6c8.4-21.7,13.1-44.8,11.4-68.1c-1.6-20.9-9.3-40.4-14.7-60.4c-6-22.2-11-44.9-23.9-64.4
	c-5.9-8.9-15.8-18.2-17.6-29.4c-3.2-20.2,19.6-24.9,35-24.8c16.1,0.1,49.9,0.6,31.5-25.2c-7.2-10.1-16.7-18.3-24.2-28.1
	c-24.4-31.8-70.5-88.5-49.8-131.2c1.6-3.4,6.9-4.8,9.3-1.2c11.9,18.4,36.4,33.6,58.6,38c10.5-56.3,1.9-114.7,16.2-170.5
	c14.3-55.2,25.5-111.1,33.7-167.5c0.3-2.4,0.6-4.9,1-7.3c0.2-1.7,0.5-3.5,0.7-5.2h0.2c1.5-6.7,11.6-5.4,10.7,1.5s-1.9,13.6-2.9,20.5
	c-2.2,32.5,4.4,65.7,6.1,98.1c1.1,20.9,2.3,42,1.3,63c-1.1,23.5-6.1,46.6-4,70c14.3-11,22.1-31.2,29.7-46.7
	c7.4-15.1,15.3-29.9,23.9-44.3c17.8-29.7,40.3-62.2,73.9-75.1c2.8-1.1,6,0.3,7.1,3.1c0.5,1.3,0.5,2.7,0,4c-9.3,24.3-27.5,44-40,66.7
	c-13,23.6-27.9,46.4-40.3,70.2c-20.6,39.5-38.4,85.5-39.2,130.9c16.3-14.1,36.1-27.8,57.7-26.8c2.7,0.1,5.3,3.4,4.6,6.1
	c-3.2,12.4-11.9,20.7-21.2,29.1c-15.5,14.1-27.5,25.1-34.4,45.4c-11.8,34.7-23.1,75.5-18.7,112.9c15.6-10.2,34-19.3,52.6-16
	c3,0.4,5,3.1,4.6,6.1c0,0,0,0,0,0c-2.5,17.7-12.9,31-20.5,46.7c-9.4,19.4-14.1,40.5-18.8,61.4c-10.3,45.5-17,91.6-23.1,137.8
	c-0.6,6.8-11.3,5.4-10.4-1.5c6.1-46.2,12.8-92.3,23.1-137.8c3.9-17.2,7.7-34.7,13.9-51.2c6.7-17.6,19.7-33,24.3-51.2
	c-16.7-0.3-33.1,10.2-46.2,19.5c-2.4,1.8-5.8,1.3-7.6-1.2c-0.5-0.7-0.9-1.6-1-2.4c-6.8-36.6,2.6-75.8,13-110.8
	c4.6-15.7,8.9-31.7,19.7-44.3c10.4-12.2,29.8-22.5,37.6-37.3c-19.3,2.8-37.6,19.5-51,31.9c-2.9,2.7-8.5,0.3-8.6-3.6
	c-2.1-47,14.2-94.8,34.3-136.6c12.3-25.6,28.3-49.2,41.9-74.1c11.2-20.4,26.9-39.5,37.7-60.3c-31.7,18.9-52.6,57.1-69.1,88.2
	c-13.5,25.4-24.1,61.5-51.5,75.4c-3.2,1.6-6.9-1-7.4-4.3c-3.7-21.9-0.4-42.8,1.7-64.7c2.7-27.8,1.2-55.8-0.5-83.6
	c-0.8-13.4-2.4-26.8-3.7-40.3c-6.3,34.9-13.8,69.5-23.1,103.9c-15.8,58.7-5.8,120.1-18.3,179.3c-0.5,2.9-3.2,5-6.1,4.6
	c-22.8-2.8-48.9-16.6-64.7-34.9c-8.3,37.7,32.9,87.6,53.7,114c12.1,15.4,54.2,53.9,15.2,66.3c-16.3,5.2-72.8-6.7-50.5,26.9
	c15.1,22.7,24.3,43.3,31.5,69.9c7.8,29.1,19,57,18,87.6c-0.9,28.7-10.5,56.2-23.3,81.6c-33.4,66.7-81.2,124.4-105.1,196
	c-0.4,1.4-1.5,2.6-2.9,3.1c-4.7,22.3-7.3,44.9-10.3,67.9c-1.6,11.8-4.4,23.4-6.3,35.2c-0.6,4-3.1,14.1-1.3,17.7
	c5.9,11.5,12.1,10.3,16.9,5.1c-0.1-0.7-0.1-1.3,0-2c5.7-39.6,17.5-74.1,40.4-107.1c29-41.8,49.8-88.2,75.4-132
	c21.7-37.1,48.2-67.6,79-97.5c15.6-15.1,30.4-30.7,45.2-46.7c10.2-11.1,20.9-20.6,35.9-23.8c6.8-1.5,8.2,9.3,1.5,10.7
	c-19.4,4.1-31.1,23-43.8,36.5c-12,12.9-25,24.8-37.6,37.1C2993.9,1153.2,2968.2,1187.8,2945.8,1228.6z M3769.5,907.8
	c-16.1,42.4-34.8,88-67.8,120.3c-15.1,14.7-31.7,30.4-50,40.9c-21.6,12.5-45.8,13-70.2,13.1c-59.8,0.2-117.6,21.4-173.8,40.1
	c-25.6,8.5-50.4,16-76.5,22.5c-16.3,4.1-33.6,8.9-46.8,19.7c-9.1,7.4-16.2,17.1-23.1,26.8c-0.1,0.6-0.3,1.2-0.6,1.8
	c-22.1,42.3-63.4,68.6-95,103.1c-35.5,38.7-62.5,82-93.1,124.3c-12.7,17.5-44.3,51.7-51.6,11.4c-3.3-18,0.9-34.5,10.5-49.8
	c15.5-24.6,32.3-46.8,44.8-73.4c22.3-47.3,38.3-98.4,55-147.9c9.1-26.8,14.7-53.8,12.2-82.3c-2.4-27.2-10.1-54.3-16.9-80.8
	c-12.1-47.1-24.7-94.2-25.1-143.1c-0.4-54.3,4.4-108.5,16.4-161.5c10.1-44.5,44.6-74,74.2-106.9c27.7-30.6,60.4-56.1,96.7-75.6
	c76.6-41.4,174.1-76.3,260.3-43.7c43.5,16.4,79.7,50,116.2,77.9c15,11.4,29.5,24,40.3,39.6c13.4,19.3,20,42.3,30.4,63.2
	c21.7,43.3,46.4,82.5,52.3,131.6C3793.6,823.3,3785.2,866.4,3769.5,907.8z M3775,763.2c-9.4-47-37.5-85.2-56.7-128.2
	c-8.9-19.8-15.7-39.3-30.4-55.8s-33.1-28.6-50.4-41.9c-36.1-28-73.7-61.3-120.7-67.5c-22.4-3-46.2-5.2-68.8-3.8
	c-24.8,1.5-47.7,10-70.6,18.8c-40.6,15.6-80.2,30.5-116.4,55.3s-62.1,57.4-92.1,88.6c-17.2,17.9-32.2,34.5-38.7,59.2
	c-5.4,21.1-9.5,42.5-12.3,64.1c-6.4,50.2-9,103.6-1.2,153.7c6.6,42.6,19.8,83.8,29.3,125.8c10,44.1,11.3,83.4-2.6,126.7
	c-15.7,49-32.4,99.5-53.5,146.4c5.8-8.4,10.2-18.8,13.9-26.2c6.6-13.3,12.6-26.8,20-39.7c12.9-22.4,25.7-45,36-68.8
	c10-23.2,17.2-47.2,27.7-70.3c10.7-23.5,19.8-47.4,18.6-73.8c-1-21-6.8-41.6-12.1-61.8c-9.8-37.2-21.4-77-5.6-114.1
	c1.9-4.4,8-4.1,10,0c10.1,21,32.5,38.4,48,55.8c8.5,9.6,18.2,18.2,25.6,28.7c5.1,7.2,8.6,14.4,13.7,20.7
	c-8-78.8-61.5-150-45.4-231.3c1.2-5.9,9.7-6.2,10.7,0c5.2,30.9,16.8,57.3,32.8,84c9.6,15.9,23.8,44.8,43,52.5
	c13.1-92.8,2.2-186.9,14-279.9c0.9-7,11.1-5.4,10.7,1.4c0,0.1,0,0.1,0,0.2h0.1c-0.1,0.5-0.1,0.9-0.2,1.3
	c-1.5,36.9,19.5,71.7,30.3,106c4.3,13.7,8.6,27.3,9.1,41.8c0.5,13.6-1.1,26.8,0.6,40.1c12.2-12.5,20.4-28.8,32.8-41.3
	c17.2-17.2,31.4-32.3,42.7-54.1c18.4-35.5,31.1-73.9,57.4-104.8c1.9-2.3,5.3-2.6,7.6-0.7c1.8,1.5,2.5,4,1.6,6.1
	c-4.3,11.5-11.2,20.7-17.3,31.3c-9,15.8-12.2,33.2-15.1,51c-4.1,24.9-7.7,50.1-13.5,74.6c-4.5,19-11,36.2-22.9,51.8
	c-13.8,18.1-33.5,34.2-41.8,55.9c29.3-6.2,55.9-26.1,82.7-38.5c23.6-11,44.8-22.8,65.1-39c10.3-8.2,26.4-23,40.8-22.2
	c9.3,0.5,15.4,8.4,13.3,17.7c-3.4,14.9-24.8,28-35.7,36.7c-24.8,19.6-49.4,39.4-75.1,57.9c-30.2,21.8-55.3,46.8-81.6,73.1
	c-21,21.1-51.7,37.8-68.2,62.5c-5.4,8.1-13,20,0.9,18.3c6-0.7,11.9-3.2,17.9-4.3c20.8-4.1,42-5.5,62.7-10.5
	c25.2-6.1,54.8-18.2,77.4,0.6c1.7,1.4,2.8,4.3,1.6,6.4c-9.2,15.8-25.9,20.4-42.8,24.6c-29.6,7.4-58.8,16.4-87.5,26.8
	c-30.9,11.1-61.4,27.3-84.1,51.6c-13.7,14.7-38.2,38.6-41.2,58.8c-0.9,7.8-11.6,6.4-10.6-0.5c3.7-25.1,31.3-52.4,48.6-69.4
	c30.3-29.7,69.3-45.4,108.9-58.3c18-5.9,36-11.9,54.3-16.5c8.2-2,16.6-3.4,24.5-6.4c5.3-2,12.8-2.8,13.1-9.6
	c0.4-9-16.3-6.1-22.8-5.4c-18.1,2-35.5,8.8-53.5,12.1c-21.7,4-43.5,7.2-65.1,11.6c-22.6,4.6-24.3-11.6-14.8-29.3
	c7.5-14.1,20.3-24.6,32.6-34.4c18.5-14.7,36-30.7,52.4-47.7c31.7-32.6,66.5-58.1,102.5-85.7c14.6-11.2,28.9-22.7,43.3-34.2
	c6.4-5.1,31.9-21,31.5-29.9c-0.7-13.9-33.6,12.3-38.2,16.1c-10.8,8.7-21.3,16.6-33.5,23.3c-21,11.4-43.3,20.1-64.3,31.5
	c-20,10.9-38.9,22.3-62,24.9c-3.2,0.4-6.9-2.5-6.1-6.1c4.6-19.3,16.6-33.8,29.3-48.6c19.9-23.1,32.8-43,39.2-73.4
	c5.3-25.3,8.7-51,13.4-76.4c-7.2,15.8-14.5,31.6-23.4,46.5c-11.2,18.7-26.1,30.5-40.6,46.3c-13.1,14.3-21.2,32.1-36.6,44.3
	c-3.5,2.8-7.6,0.1-8.6-3.6c-4.8-17.9-1.3-35-2.5-53.2c-1.2-18.9-8.6-37.9-14.9-55.6c-5.8-16.2-12.7-31.8-17.8-47.8
	c-5,80.6,1.4,161.8-10.8,241.9c-0.4,2.8-3.2,5.2-6.1,4.6c-25.1-4.4-41-34.5-53-54.2c-12.2-20-22.4-40.1-29.5-61.6
	c0.4,72.1,47.2,138.2,49.2,211.1c0.1,4.7-4.6,7.8-8.7,5c-10.6-7.3-15.2-16.2-22-26.8c-8.1-12.6-18.9-22.5-28.8-33.7
	c-13.6-15.3-31.4-30-43.2-47.5c-12,43.2,10.1,90.1,18.6,132.3c9.4,47.2-5.7,82.4-24,125.1c-10.4,24.2-17.5,49.3-29.3,73
	c-10.6,21.3-23.7,41.3-34.3,62.6s-22,61.3-47,70.2l0,0c-7.6,14.8-16.2,29-25.7,42.6c-8.9,12.6-19.7,24.6-21.9,40.5
	c0.2-1.3-1.2,16,0.6,19.1c10,17.2,16.8,2.9,23.8-5.4c16-19.1,27.6-41.5,42.1-61.6c15.5-21.5,32.1-42.5,49.5-62.5
	c30.8-35.2,73.9-63,98.6-103c-0.5-1.6-0.1-3.3,0.9-4.6c10.8-14.7,21.2-30.7,36.5-41.3c15.7-10.8,35.3-15.3,53.5-19.6
	c43.9-10.3,86.7-26,129.7-39.6c19.3-6.2,38.8-12.2,58.6-16.4c24-5,47.3-4.3,71.6-5.1c45-1.6,81.3-28.9,109.2-63.2
	c25.4-31.2,41.1-69.8,55.1-107.1C3777.3,856.6,3784.4,810,3775,763.2L3775,763.2z"/>
<path class="st4" d="M1925.5,2039.8c-0.3-0.4-0.6-0.8-0.9-1.1c-0.4,0.3-0.8,0.6-1.1,1c0.5,0.5,1,1,1.6,1.5
	C1925.2,2040.7,1925.4,2040.3,1925.5,2039.8 M2199.9,1916.8c-0.2-0.8-0.4-1.6-0.7-2.3c0-0.1-1.2,0-1.3,0.2c-0.3,0.8-0.4,1.7-0.5,2.5
	C2198.2,1917.1,2199.1,1917,2199.9,1916.8 M2170.9,1916.9c-0.7,0.5-2,1-2,1.4c0,0.9,0.8,1.7,1.3,2.6c0.7-0.5,1.9-1,2-1.6
	S2171.4,1917.8,2170.9,1916.9 M1866.4,1908.5c-0.3,0.7-0.4,1.5-0.5,2.3c0,0.2,1,0.7,1.2,0.6c0.6-0.5,1.3-1.2,1.8-1.8
	C1868.1,1909.3,1867.3,1908.9,1866.4,1908.5 M2083.6,1909.2c1-0.8,2.7-1.6,3.2-2.8s-0.1-2.7-0.2-4.2c-1,0.1-2.2-0.1-2.9,0.4
	c-1.2,1-2.2,2.1-3,3.4c-0.2,0.5-0.2,1,0,1.5C2081.6,1908.2,2082.6,1908.7,2083.6,1909.2 M2215.6,2076.1c-0.3-1-0.4-2.5-1.1-2.7
	c-1.2-0.5-3-0.9-4-0.3c-1.7,1.1-3.2,2.6-4.4,4.2c-1.4,1.8-0.1,4.2,2.2,4.5C2212.8,2082.5,2215.3,2080.5,2215.6,2076.1
	 M2085.2,1970.6c-8.1-0.2-11.1,1.6-13.1,11.7c-3,14.8-5.5,29.8-4.2,45.1c0.6,7.6,2.8,14.5,8.2,19.8c5.2,5.1,10.9,9.7,16.4,14.4
	c6,5.1,12.9,6.1,20.6,4.6c11.9-2.3,22.9-6.9,33.9-11.9c10-4.6,18.7-11.5,25.4-20.2c5.5-7,5.3-13.9,2.2-20.4
	c-4.6-10.1-12.1-18.6-21.6-24.3C2132.8,1977.2,2110.5,1972.2,2085.2,1970.6 M1798.6,2123.8c4-2.1,6.9-3.4,9.5-5.1
	c19-12.8,33.1-30.4,46.5-48.6c1.2-1.7,2-3.6,2.4-5.7c1.5-8.2,3.4-16.5,3.9-24.8c0.9-14.7,1.6-29.5-10.3-41.2c-1.7-1.7-2.3-4.7-3.5-7
	c-5.9-10.6-15.3-17-26.5-20.8c-4.6-1.6-9.3-2.1-13.1,1.7c-2.7,7.6-4.5,15.5-8.2,22.2c-5.4,9.7-9,20-12.5,30.4
	c-1.5,4.4-2.2,9.2-4.1,13.4c-6.2,13.4-5.9,27.8-5.1,41.7c0.7,13.6,7,26.2,14.6,37.7C1793.4,2119.9,1795.7,2121.3,1798.6,2123.8
	 M1844.4,1862.9c-5.6,3.2-10,7.1-8.2,14.5c-6.3-2.6-11-1.1-14.2,5c-2.7,5-5.7,9.8-8.2,14.9c-0.7,1.5-0.1,3.5-0.1,7.6
	c10.6-8.9,14.3-20.2,22.4-28c0.9-1.8,1.7-3.6,2.7-5.3c1.7-3.1,3.5-6.1,5.3-9.2c4.3-2,6.4-5.3,6.1-10.1c8.4-5.3,15.7-11.6,19-21.6
	c-6.3-1.6-7.2-1.4-9.1-0.1c-7.8,5.4-8.4,13.9-9.5,22.2C1844.4,1853.7,1844,1858,1844.4,1862.9 M1899.9,1797.8c1.2-2,2.4-4,4.1-6.7
	c3.4,4.7,6,8.3,8.1,11.4c-0.1,7-4.1,10.3-8.7,13.2c-10.2,6.4-14,18.2-22.1,26.3c-0.7,0.8-1,1.8-1,2.9c-0.4,13.7-10.5,22.5-16.5,33.4
	c-2.5,4.5-5.5,8.7-8.3,12.9c2.3,3.5,3.9,6.1,6.2,9.5c3.2-0.7,6.6-1.5,10.5-2.3c0-2.4-0.5-4.5,0.1-6.2c1.3-3.9,6.5-5.9,8.6-2.8
	c3.2,4.8,6.9,4.1,10.9,3.4c6.7-1.2,13.3-2.7,19.7-4.1c2.2,3,4,5.3,6.5,8.7c4.1-4.2,7.7-7.7,11.2-11.3c1-0.2,2.2-0.7,3.1-0.4
	c12.9,3.8,12.9,3.8,21.1-7c7.8-1.9,15-2.3,22.6,2.1c6.8,4,14.3,1.3,21-1.7c2.6-2.7-0.3-8,4.6-9.3c5.8-1.6,11.4-2.4,15.2,4.1
	c0.4,0.7,1.8,0.8,3.5,1.6c2-1.7,4.4-3.6,6.7-5.6c2-1.7,3.7-4.2,6-4.9c14.2-4.5,22.9-15.4,32.1-26.2c8.9-10.4,19-19.5,31.6-25.6
	c3.2-1.5,6.1-4.1,8.7-6.6c5-4.9,10.8-8.5,17.6-9.9c10.1-2.1,18.7-7.1,26.1-13.9c6.1-5.9,14.4-8.9,22.9-8.3
	c6.2,0.4,12.5,0.1,19.8,0.1c3.7,3.5,6.3,9.9,13.7,10.5c1.7,0.1,3.8,2.3,4.6,4c3.5,7.5,9,13.7,14.4,20.4c-3.3,3.2-6.1,5.3-8.2,8.1
	c-3.5,4.6-7.8,6-13.5,6.7c-15,1.8-30.2,3.3-44.1,10.1c-0.9,0.5-2,1.2-2.9,1.1c-10.1-0.4-16.1,5.7-22.2,13.9
	c6.6,2.1,12.4-1.4,18.7-1.2c2.9,4.4-2.9,7-2.6,11c0.3,3.6-0.6,7.2-1.1,11.4c2.9,1,5.7,2,8.3,2.9c1,4.2-0.8,5.9-4.3,7.1
	c-12.3,4.1-24.6,8.4-36.9,12.9c-1.7,0.6-2.9,2.6-5,4.4c4.3,4.8,8.5,6.9,14.2,5.2c19.7-5.9,40.1-7.3,60.2-11.1
	c2.1-0.3,4.1-0.8,6.1-1.5c13.7-5.8,28.3-6.7,42.9-8.1c10.4-1,20.6-3,31.1-3.9c18.8-1.5,37.6-2.8,56.5-3.1
	c15.2-0.3,30.3-1.1,45.3,1.8c1.5,0.3,3.1-0.2,4.6-0.3c4.9-3.7,4.7-9.2,5.1-14.3c2.6-29.8,5-59.6,7.5-89.4c0.5-6.3,0.9-12.6,1.5-18.9
	c1.3-13.4,11.6-24.3,25-26.1c4.6-0.7,9.2-1.3,14.9-2.2c2.2,2.1,5.1,4.9,7.4,7.1c6.9,1.5,8.1-7,14.6-5.9c6.3,1.2,12.4,3.2,18.1,6.1
	c0.3,4.1,0.6,8.1,1,12.7c7.6-2.5,14.4-4.8,21.4-7.2c7.1,6.7,10.4,15.4,11.5,23.9c2.4,19.2,6.6,38.3,3.3,57.9
	c-0.9,5.7-2.2,11.3-2.6,17.1c-1.5,18.8-3.1,37.5-4,56.4c-0.7,14.1,0.3,28.4-0.8,42.5c-0.8,10.4-2.4,20.7-2,31.2
	c0.1,2.1-0.3,4.2-0.1,6.3c1.9,21.4,4.7,42.7,5.6,64.2c0.6,13.7,2.5,27.1,3.7,40.6c0.9,9.8-0.2,20-1.7,29.8
	c-0.8,5.5-4.1,10.6-6.1,15.9c-2.2,5.8-4.3,11.7-6.8,18.4c-5.9,4.8-15.7,3-21.9,9.4c-7.6-1.5-14.3,1.5-21,4.4c-0.5,0.3-1,0.3-1.5,0.2
	c-10.6-5-22.7,0-33-4.4c-5.4-2.3-9.7-5-15.8-3.6c-1.8,0.4-4.9-1.8-6.5-3.6c-5.4-6.1-7.8-13.2-7.9-21.6c-0.4-18.9-1.1-37.7-2.5-56.6
	c-3.1-42.9-6.4-85.8-5.5-128.9c-0.1-1.8-0.4-3.7-0.8-5.5c-3.3-0.7-6.8-2.2-10.1-2c-32,1.6-64,2.5-95.7,7.9
	c-4.1,0.7-8.3,1.1-12.5,1.4c-18.3,1.5-36.4,4.3-54.3,8.5c-6.1,1.4-12.4,2.3-18.6,3.5c-8.6,1.6-8.6,1.7-17,7.7c0.5,1.3,0.6,3.3,1.6,4
	c6.5,4.5,12.8,9.1,17.3,15.8c16.7,9.5,27.8,27.1,47,33.1c2.2,0.7,3.8,3.2,5.5,5.1c4.4,5,7.5,11.4,14.7,14.9
	c-0.1,10.6,0.7,22.1-7.3,31.6c-3.6,1.2-4.1-2.4-6-3.8c-1.7-1.2-5.2,0.1-4.9,1.8c1.3,8.3-3.6,15.1-5.1,22.6
	c-1.2,6.2-4.5,9.1-9.3,11.5c-27.9,13.9-57,24.5-88.4,26.4c-12.5,0.8-25.1-0.9-37.7-1.6c-5.7-0.3-11.4-1-17.2-1
	c-8.9-0.2-17.7-1.3-26.3-3.5c-11.8-2.7-22.9-6.7-34.2-10.9c-8.6-3.3-16.1-7.8-22.2-14.5c-11.3-12.4-22.5-24.9-25.5-42.3
	c-0.4-1.5-0.9-3-1.6-4.4c-9.2-19.2-7.8-38.7-1.3-58.3c6.8-20.4,16.1-39.9,27.8-58c3-4.7,7-9.2,5.5-15.5
	c-26.6-0.1-114.4,27.7-135.7,43c3.8,5.7,10.8,6.1,17,10.4c4.1,7.5,9,16.1,13.7,24.8c4.2,7.6,4.2,7.7,16.1,7.2
	c1.8,3.2,4.6,6.5,5.6,10.4c2.7,10.1,9.9,15.5,18.5,19.9c2.2,1.1,5.4,2.6,5.9,4.5c1.7,6.5,6.7,8.9,12.1,10.3
	c-0.2,8.2-1.4,11-4.6,10.4c-3.4-0.6-6.6-2.5-10.9-4.2c-0.1,4.2,0.3,8.3-0.6,12.1c-1,4.1,1.6,7.1,1.9,10.5c0.5,6.2,0.1,12.5,0,18.8
	l0.4-0.5c-2.4-1-4.8-1.9-6.6-2.7c-5.8,1.6-2.2,7.1-5.2,9.3c-2.5,1.9-6.2,2.8-7.7,5.2c-6.5,10.8-15.3,19.7-22.8,29.6
	c-2.6,3.4-4.3,7.8,1.6,10.9c-13.2,16.9-29.2,29.1-48.6,34.2c-28.4,7.5-57.4,11.7-87,5.4c-14.4-3-28.7-5.9-42.1-12.2
	c-2.8-1.3-5.8-2.3-8.9-3c-10.5-1.9-18-8.2-23.3-16.8c-4.9-8.1-9.2-16.4-13.1-25c-3.6-7.7-5.2-16.1-4.7-24.5
	c0.4-6.8-0.5-13.6-0.5-20.4c0-5.7-0.3-11.6,0.8-17.2c5.2-27.3,12.7-54,24.3-79.3c4.1-9,10.3-17,15.3-25.6
	c7.2-12.2,13.2-25,17.8-38.4c2-5.8,5.7-11,8.8-16.4c7.9-14.1,13.4-29.6,23.6-42.4c6.2-7.7,11.1-16.3,18.9-22.9
	c5.1-4.3,9.2-10.1,13.1-15.6c6.3-8.9,12.3-18.2,18.1-27.4c12.3-19.4,30.4-26.1,52.5-24.6c11.1,0.7,21.2,5,31.7,8.4
	c-1,2.9-1.8,5.3-2.6,7.6c1.5,3.8,4.8,0.1,7.4,2.4l3.9,9.2c-0.9-0.2-1.9-0.5-2.8-0.7C1898.1,1797.3,1899.1,1797.4,1899.9,1797.8
	 M2627.4,1786.3l-0.7,0.9l1,0.2L2627.4,1786.3z M2611.1,1936.2c0.7,0.6,1.4,1.1,2,1.7c0.3-0.4,0.9-0.9,0.8-1.1
	c-0.3-0.8-0.8-1.6-1.2-2.4C2612.2,1935,2611.6,1935.6,2611.1,1936.2 M2615.2,1949c-0.7-0.4-1.4-0.6-2.1-0.8c-0.2,0-0.8,0.9-0.7,1.1
	c0.4,0.7,0.9,1.3,1.5,1.9C2614.4,1950.5,2614.8,1949.8,2615.2,1949 M2819.7,1854.1c-1.3,1.6-2.4,3.2-3.4,5c-0.2,0.5,0.8,1.6,1.2,2.4
	c1.4-1.2,2.7-2.6,3.9-4C2821.7,1857.2,2820.7,1855.9,2819.7,1854.1 M2918.1,1734.8c2.4,2.6,4.8,5.1,7.8,8.3c-3.6,3-7.7,2.5-11.6,1.9
	c-13.9-1.8-27.8-3.8-41.7-5.7s-28-4.8-42.1-5.8c-29.9-2-59.8-3-89.6,0.9c-16.7,2.2-33.4,3.5-50.1,5.4c-5.2,0.6-10.3,1.4-16.3,2.2
	c0,3.8-0.5,6.9,0.1,9.8c2.7,12,2.4,24,0.9,36c-1.6,13-3.4,26-5,39c-0.8,6.7-1.1,13.5-1.7,20.3c6.2,3.6,11.8,2.2,17.4,1.4
	c23.4-3.2,46.8-6.5,70.1-9.6c19.2-2.6,38.5-4.4,57.6-7.6c16.1-2.7,32.3-3.1,48.5-4.2c10.4-0.7,20.8-1.2,31.2-0.9
	c11.5,0.3,22.9,1.5,34.3,2.6c1.3,0.1,2.5,1.6,3.6,2.4c0.1,4.5-3.1,6.2-6.1,6.1c-8.5-0.1-15,3.9-20.2,9.1c-4.6,0.5-7.6-5.5-12.1-0.8
	c-3,3.1-7.4,3.1-11.8,3.2c-10.9,0.4-21.9,1.5-32.5,2.2c-2.5,3.1-0.8,4.9,1,7.1s3.1,5,5.3,8.6c7.3-0.1,14.2-3.2,19.1-8.6
	c6.3,4.3,13.5,6.6,21.3,5.5c10.7-1.5,10.7-1.6,17.4-10.3c6.8,8.3,6.8,8.3,21.9,13.2c0.4,2.9-1.6,3.7-3.7,3.4
	c-5.9-1-10.9,0.6-16.6,2.8c-9.6,3.6-19,9-30.2,6.5c-2.8-0.6-6.1,0.9-9.1,1.7c-11.7,3-23.1,6.6-35.5,6.4c-6.2-0.1-12.4,2-18.6,3
	c-8.8,1.4-17.6,2.7-26.4,4.2c-9.8,1.7-19.6,3.8-29.4,5.2c-31.7,4.6-63.4,9-95,13.4c-1.8,0.3-3.6,0.8-5.3,1.3
	c-3,5.3-3.8,11.4-3.7,17.7c0.4,16.8,1.3,33.6,1,50.4c-0.4,22.8,6.5,44.6,9.2,66.9c1.2,10.6,7.4,20.6,11.7,30.7
	c0.7,1.6,3.1,2.4,5.5,4.1c5.6-7.5,12.7-12.6,17.2-20.5c4.9-8.6,11.2-16.4,16.9-24.6c5.4-7.7,10.7-15.5,16.6-24.1
	c4.9,5.1,5.1,11.7,7.6,17s4.9,10.4,7.3,15.6c-1.6,4.2-3.2,8-4.6,11.6c2.7,3.6,5.9,6.5,7.3,10.1c1.2,3,0.2,6.9,0.2,11.7
	c5.1-2.1,9.3-3.7,14.5-5.8c0.4,2.6,1.3,4.6,0.8,6.2c-2.4,7.9-5.2,15.8-8.1,24.2c0.6,0.6,1.4,2,2.7,2.7c3.4,1.8,4.4,4.9,3.2,8
	c-2.5,6.3-5.5,12.4-8.6,18.5c-0.9,1.8-2.5,3.9-4.2,4.5c-10.4,3.4-18.1,12.5-29.7,13.3c-2.2,10.7-10.1,15.9-19.2,18.5
	c-8.5,2.4-17.6,4-26.4,3.7c-11.3-0.4-23.2,1.4-34-4.5c-2.6-1.4-6.2-0.8-9.2-1.6c-7.5-2-15.8-1.2-22-7.3c-0.9-0.6-1.9-0.9-2.9-1
	c-17.3-3.7-22.9-8.5-32.4-23.2c-10.6-16.5-19.3-33.7-24.5-52.5c-3.1-11.1-5.2-22.5-7.5-33.8c-4.2-21.1-5.5-42.5-6.9-64
	c-1.4-20.4-1.4-40.9,0.1-61.3c0.4-4.6-0.4-9.3-0.7-14.7c-9.2-2.7-18.1-5.4-26.9-8c-3.6-6.9-3.1-13.6-2.6-20
	c4.8-6.6,9.3-13,14.5-20.2c1.4-0.4,3.8-1.6,6.3-2c11.7-1.8,15-9.8,15.4-20.3c0.7-18.4,3.7-36.5,6.8-54.6c2.1-12.3,2.4-24.8,2.2-38.2
	c-4.6-0.7-8.1-1.1-11.5-1.7c-13.1-2.2-21.6-13.4-16.7-24.8c3.5-8.2,8.7-16.5,18-20.8c16-7.4,33.1-9.5,50.3-11.5
	c7.3-0.8,14.5-1.7,21.8-2.4c6.8-0.6,13.6-1.8,20.4-1.5c8,0.4,15.6-0.4,23.1-3.4c2.8-1.1,6.1-1.2,9.2-1.5c10.9-0.7,21.9-1.7,32.8-1.9
	c16.2-0.3,32.5-0.1,48.7,0.1c6.8,0.1,13.6,0.9,20.4,1c16.2,0.4,32.5-0.7,48.4,3.9c2.9,0.8,6.2,0.2,9.4,0.2c6.3-0.1,12.5-1,18.4,2.7
	c2,1.2,5,0.7,7.5,1.1c4.1,0.6,8.3,1.1,12.3,2.1c5.5,1.3,9.3,4.6,10.6,10.4c0.7,2.8,1.7,5.6,3.1,10c-6.2-3.4-10.7-6.1-15.4-8.3
	c-6.6-3.2-13.1-6.9-21-4.7c-12.8-3.2-26.1-0.2-39-4.1c-6.8-2.1-14.6-0.5-21.9-0.8c-6.3-0.2-12.6-0.1-18.7-1
	c-6.4-0.9-12.5-0.9-18.4,2.3c-1.1,3.5,1.2,5.7,3.7,4.7c7.3-2.7,14.4-1.7,21.7-0.3c2.6,0.5,5.4,1.4,7.8,0.7
	c10.2-2.8,19.4,1.2,29.1,2.6c7.4,1.1,11.5,7.3,19.2,8.7c1.9-1.4,4.3-3.2,7.4-5.5c13.5,3.5,27.9,6.5,41.6,11.2c5.9,2,11,2.6,16.6,1
	c2.4-0.7,5-1.1,8.2-1.9c1.7,3.6,3.1,6.8,4.6,10c5.5,4.6,14.3,3.1,18.9,9.7c-3.9,3.3-7.4,1.8-10.9,0.8l-2,0.5
	C2916.4,1735.1,2917.3,1735,2918.1,1734.8 M1340.5,1866.7l0.3,1.1l0.6-0.8L1340.5,1866.7z M1304.4,1984.9c0.4,0.2,0.7,0.4,1.1,0.6
	c0.2-0.4,0.5-0.8,0.4-1s-0.7-0.4-1-0.6C1304.8,1984.3,1304.6,1984.6,1304.4,1984.9 M1182.5,1836.1c-0.4-0.7-0.9-1.3-1.3-2
	c-0.3,0.3-1,0.7-0.9,0.8c0.4,0.7,0.8,1.4,1.2,2C1181.9,1836.7,1182.2,1836.4,1182.5,1836.1 M1187.4,1859.9c-0.4-0.7-0.8-1.4-1.2-2.2
	c-0.2,0.4-0.8,0.9-0.7,1.2c0.3,0.7,0.6,1.5,1.1,2.1C1186.9,1860.7,1187.2,1860.3,1187.4,1859.9 M1330.6,1926.3
	c0.5,0,0.9,0.1,1.4,0.1l0.3-5.4c-0.4,0-0.9-0.1-1.3-0.1L1330.6,1926.3z M1328.8,1939.9c-5.8,0.4-7.7,3-3.8,9.3
	C1326.7,1945,1327.7,1942.5,1328.8,1939.9 M1158.1,1782.2c5.6-2.6,9.4-4.3,12.9-6c0.4-2.9,0.7-5.5,1-7.8c7.3,0.9,14.5,1.6,21.6,2.8
	c3.1,0.6,6,1.7,8.6,3.5c11,7.8,18.7,17.9,22.3,31.3c6.4,23.3,10.9,47,15.6,70.6c4.8,24.7,10.8,49.1,18.1,73.1c2.4,8,4,16.3,6.3,24.3
	c0.9,3.2,2.8,6,5.2,11c1.1-4.2,1.9-6.1,2.2-8.1c4.9-31,13.3-61.4,16.9-92.7c0.8-5.7,2.3-11.3,4.5-16.6c4.8-12.2,9.9-24.3,9.3-37.8
	c-0.1-1.6,0.2-3.2,0.9-4.6c5.4-10,6-21.1,7.5-31.9c0.9-6.3,2-12.3,5.1-18c1.8-3.2,3.2-6.7,3.9-10.3c2.2-15.1,9.4-27.5,19.7-39.2
	h12.6c2.6-3.1,5.6-6.6,9.3-11.1c1.6,2.7,2.4,4.4,3.5,6c4.3,6.5,4.6,6.5,12.7,4.5c1.5-0.4,3.8-1.2,4.3-0.6
	c9.2,10.1,23.2,3.6,34.1,10.6c2,7.3-4.2,12.9-6.2,19.6c-2.1,7-5.2,13.5-12.1,17.1c1.3,2.5,2.2,4.3,3.4,6.6c-4.3,7.1-12.3,3.3-19,5.6
	c-0.3,6-0.8,12.1-6.2,16.6c-1.8,1.5-2.7,4.4-3.5,6.8c-5.1,15.4-10.1,30.9-15.1,46.3c-0.6,2-1.2,4-1.7,6.1c-2.5,10.4-2.1,11.8,6,21.1
	c-7.9,2.4-11.5,7.8-13,15.8c-1.2,6.5-4,12.7-6.8,20.9c0.2,8.9,0.5,19.9,0.8,30.8c0,1.6,0.2,3.5-0.5,4.6c-5.4,7.9-5.5,16.3-4.6,25.5
	c0.6,5.3-2.7,10.9-4.1,16.5c-0.9,4-2.2,8.1-2.1,12.1c0.4,15.2,1.6,30.4,1.8,45.5c0.1,7.3-0.6,14.7-1.8,21.9
	c-1.5,8.4-1.8,16.5,0.8,24.9c1.7,5.5,2,11.3,3,16.9c3.3,0.5,3.5-1.8,3.8-3.8c1.2-9.9,2.1-19.8,3.2-29.7c1.2-10.4,1.9-20.9,3.8-31.2
	c1-5.5-1.5-8.7-5.2-12.7c3-1.3,5.7-2.4,9.2-3.8c0.7-5.8,1.2-11.9,2.3-18c1-6.2,2.5-12.3,4.5-18.3c2-5.6-2.3-12.7,4.4-17.8
	c1.2,1.7,2.3,2.7,2.8,4s0.4,3.1,0.7,4.7c2.1,11.7-2.4,22.8-3.5,34.2c4.9,10.5,3.1,21.3,1.9,32.3c-2.9,27.1-5.5,54.2-7.2,81.4
	c-1.9,32.4-7.3,64.6-15.9,95.9c-2.6,9.3-9.8,13.9-17,17.3c-10.7,5.2-22,9.6-34.2,10.7c-2.6,0.2-5.6,0-7.6,1.3
	c-5.9,3.9-12.2,2.4-18.3,2.4c-5.7,0-11.4-0.5-18.5-0.8c-6.9-4.4-12-11.3-16-20.5c-11.5-26.5-20.9-53.7-30.3-81
	c-4.6-13.4-9.7-26.6-13.6-40.2c-6.7-23.1-12.7-46.5-19.1-69.7c-5.7-20.7-11.7-41.4-17.1-62.2c-8.7-33.5-17-67.1-25.7-100.6
	c-6.5-24.9-13.4-49.6-19.9-74.5c-1.2-4.5-2-9.2-2.3-13.9c-0.2-5.3,0.5-10.5,5.4-14c1.2-1,2.2-2.3,2.8-3.8
	c5.6-11.9,16.1-13.7,27.6-13.4c2.6,0,5.2,0.2,7.7,0.6c1.3,0.2,3.3,1.1,3.5,2C1148.8,1779.8,1155.5,1777.9,1158.1,1782.2
	 M1637.4,1784.2c-0.3,0.2-0.6,0.4-0.9,0.7c0.3,0.2,0.6,0.6,0.9,0.6s0.6-0.4,0.9-0.6C1638,1784.6,1637.7,1784.4,1637.4,1784.2
	 M1717.7,1788.2c-0.3-0.3-0.6-0.9-1-0.9s-0.8,0.4-1.2,0.7c0.3,0.3,0.6,0.9,1,0.9S1717.4,1788.4,1717.7,1788.2 M1678.4,1783.5
	l1.7,1.4c0.3-0.3,0.5-0.6,0.7-1c0.1-0.4-0.2-0.8-0.4-1.2C1679.8,1783,1679.1,1783.2,1678.4,1783.5 M1689.4,1784.8
	c0.4-0.2,1-0.3,1.1-0.6s-0.2-0.8-0.3-1.3c-0.6,0.4-1.2,0.7-1.8,1.1C1688.8,1784.2,1689.1,1784.5,1689.4,1784.8 M1576.7,2089.6
	c-1.7-1.2-3.4-2.3-5.2-3.3c-0.2-0.1-1.6,1.6-1.4,2.2c0.3,1.2,1.1,3.1,1.9,3.2C1573.1,2091.9,1574.5,2090.7,1576.7,2089.6
	 M1618.3,1933.6c5,0,8,0.3,11-0.2c0.9-0.1,2.1-2.3,2-3.5c0-1.7-1.4-3.1-3.2-3.1c-0.5,0-0.9,0.1-1.3,0.3
	C1624.3,1928.4,1622.1,1930.6,1618.3,1933.6 M1651.3,1774.1c0,4.7-0.9,8.1,0.1,8.8c4.7,3.3,9.9,3.7,17.2,0.5
	C1662.7,1780.2,1658.4,1777.9,1651.3,1774.1 M1681.3,1774.3c9.9-4.4,21.3-5.7,30,5.8c7.9-0.3,15.2-0.9,22.5-0.8c3.1,0,6.2,1.1,9.2,2
	c3.3,1,3.5,3.7,0.4,9.2c6.7,1.6,13.4,3.4,14.9,11.3c4.2,1.8,8.4,3.7,12.6,5.5c0.5,2.8-1.3,3.4-3.5,3.6c-21.9,2.1-43.8,4.9-65.8,6.2
	c-16.7,1-33.6,0.5-50.4,0.3c-35.3-0.5-70.2,3.1-105.1,8.1c-5.1,0.7-10.1,2.2-16,3.5c0.9,8.2,2,15.8,2.6,23.5
	c0.5,7.3,0.6,14.7,0.5,22c-0.4,14.7-1.1,29.4-1.6,44.1c0.1,2.8,0.3,5.6,0.7,8.4c3.5,0,6.6,0.5,9.4-0.1c14.8-3.3,29.7-6.4,44.4-10.3
	c22.5-5.9,45.4-7.8,68.5-9.4c3.6-0.2,7.2,0,10.5,0c2.3,3.8-0.2,5.3-2,6.9c-4,3.4-9,5.5-14.3,6c-2,0.2-4.4,1-5.5,2.5
	c-1.5,2-2.3,4.4-2.2,6.9c0.3,3,3.2,4.1,6,3.4c2.9-0.9,5.8-1.9,8.6-3.2c5.6,2.3,8.6,8.5,15,8.5h19.6c-3.2,3-4.2,4.8-5.7,5.3
	c-39.9,13-79.8,26.2-119.8,38.7c-10.9,3.4-22.4,5.1-34.2,7.6c-9.9,20.9-4.4,42.2-4.2,63c4.4,1.7,5.2-1.3,6.2-3.5
	c8.1-17,16.2-34,20-53.5c3.4-0.8,6.7-1.6,10.6-2.5c-3.9,10.1-4.2,10.2-1.3,19.5c1.3,4,1.5,8.2,0.8,12.3c-0.4,2.2,0.9,4.8,1.6,7.9
	c4.8-0.5,8.9-0.9,13-1.3c0.4,0.9,1.1,1.9,1,2.7c-0.7,7.3-2.3,14.4-0.3,21.8c1.8,6.8,1.4,13.8-5.9,17.1c1,6.2,4.3,7.2,8.3,5.8
	c2.8-1,5.3-3.1,8.6-5.1c1.6,5.4-0.3,9.6-1.9,13.9c-6.2,16.8-8.7,34.3-9.1,52.1c-0.1,3.4,2.5,7.2,1.7,10.1
	c-2.5,8.5-5.5,16.8-9.1,24.9c-1.1,2.5-4.2,4.7-6.9,6c-8,3.9-16.2,7.5-24.5,10.8c-2.9,1.2-6.1,1.5-9.2,1.1c-8.5-1.4-16.8-0.1-25,1.5
	c-6.2,1.3-12.6,0.8-18.5-1.5c-5.9-2.1-12.1-3.2-18.4-3.4c-5.3-0.1-10.3-2.7-13.4-7c-10.6-13.3-17.9-28.4-23.2-44.4
	c-10.5-31.7-14.9-64.3-14.7-97.6c0.1-12-0.6-24.1-0.4-36.1c0-4.4-0.6-8.1-3.1-11.8c-4.5-6.5-4.9-12.9-1-20.6
	c5-9.9,7.8-20.7,8.1-31.8c1-27.3,2.4-54.6,3.5-81.8c0.1-3-0.4-6-0.7-10.1c-10.1,1-19.5,1.1-28.5,3c-9.5,2-15.6-2.6-19.9-9.4
	c-3.7-5.9-1.9-13.3,0.1-19.8c2.3-7.7,6.5-14.3,15-16.7c10.6-3,21.1-6.5,31.8-8.8c16.9-3.6,34.1-5.7,51-9.5
	c21.5-4.9,43.6-6,65.2-10.2c20.2-3.9,40.7-3,60.9-5.8c19.6-2.7,39.7-1.6,59.5-0.7C1665.1,1770.9,1672.2,1772.8,1681.3,1774.3
	 M3116,1977.3l-1-1.2c-0.4,0.6-0.8,1.2-1.1,1.8c0.5,0.2,1,0.6,1.4,0.5S3115.8,1977.7,3116,1977.3 M3019.9,1821.4
	c-0.3,0.2-0.7,0.5-1,0.7c0.5,0.6,1,1.3,1.6,1.9c0.1,0.1,0.6-0.4,1-0.7C3020.9,1822.7,3020.4,1822.1,3019.9,1821.4 M3027.7,1887.9
	c-1.1-0.6-2.2-1.3-3.3-1.9c-0.3,0.8-1.2,1.9-1,2.2c0.9,0.9,2,1.7,3.1,2.4C3026.9,1889.8,3027.2,1889,3027.7,1887.9 M2991.2,1848.4
	c0.9,6.7,0.9,6.7,7.9,8C2996.1,1853.4,2994.1,1851.3,2991.2,1848.4 M2966.7,1799.5c0.8,0.2,1.3,0.6,1.7,0.4c0.5-0.2,0.8-0.6,0.9-1.1
	c-0.1-2.5,0.2-5.2-0.5-7.5c-0.8-2.5-2.7-4.2-6-1.1C2964.1,1793.3,2965.4,1796.5,2966.7,1799.5 M3081.2,1703.2
	c4.5,0.6,9,1.2,16.3,2.2C3091.1,1698.2,3085.6,1703.2,3081.2,1703.2 M3012.8,1808.9c-1.6-5.9-3.2-11.8-4.9-17.8
	c-3.2-0.5-5.6-0.9-8.9-1.4C3000.3,1799.4,3008.7,1803,3012.8,1808.9 M2986.6,1814.6c-3.8,3.9-7.1,6.6-9.2,10c-1.1,1.7-0.6,5,0.2,7.2
	c0.5,1.4,2.9,2.2,4.8,3.5c4-6.4,7.4-12,11.2-18.2c-2-3.8-4-7.8-6.1-11.8c-0.5,0.2-1,0.3-1.5,0.5
	C2986.2,1808.7,2986.4,1811.5,2986.6,1814.6 M3017.3,1779.6c0.5,2.3-0.3,5.2,5.1,6.7c-2.6-3-4-4.7-5.5-6.3
	c0.5-6.4,0.1-12.7-4.7-20.5C3010.6,1768.8,3011.4,1774.9,3017.3,1779.6 M3084.6,1955.5c-5.6-1.2-10.7-4.3-14.4-8.7
	c-3.1-3.5-6.3-6.8-9.9-10.5c-3,1.4-5.7,2.7-8.4,3.9c-0.5-0.1-1-0.3-1.5-0.6c-0.8-0.7-1.5-1.4-2.2-2.2c-0.3-0.4-0.8-1.1-0.7-1.3
	c3.6-5.8-2.2-11.7-0.7-17.2c6.6-1.9,6,8,12.9,5.2c-1.5-2.6-3.1-5-4.3-7.5c-1.3-2.7-2.3-5.6-3.2-7.8c-5.1-1.2-8.1,0.3-10.9,3.1
	c-2.6,2.7-5.7,2-8.7,0.7l0.4,0.4c-0.5-7-8.9-7.2-10.1-12.4c-3.9,0-7.2,0.8-9.8-0.2c-4.5-1.8-2.1-6.3-2.5-10.6
	c-17.4-6.5-26.7-21.8-36.3-36.8c-3.9-6.2-8-12-12.5-17.8c-6.7-8.5-11.3-18.8-15.8-28.8c-9.6-21.7-10.9-44.7-8.4-67.9
	c0.9-8.6,5.6-15.4,14.5-18.9c13.7-5.3,27.1-11.3,40.4-17.4c6.6-3,12.9-5.5,20.6-6c8.7-0.7,17.1-2.9,26.2-2.1
	c8.2,0.6,16.5-1.9,24.8-2.5c17.3-1.3,34.6,1.7,50.5,8.5c5.7,2.4,12.1,3.3,18.1,4.9c3.6,1,8.2,2.6,8,6.5c-0.5,9.8,6.2,14.9,11.9,20.7
	c2.9,3,3.8,6.1,2.9,11.1c-2.6,0.1-5.5,0.4-8.4,0.4c-3.1,0.1-6.2,0.3-9.3,0.1c-17.2-1.2-34.1-4-51-7c-15.1-2.7-34.8,12.2-37.2,27.4
	c-2.6,16.2,0.7,31.1,11,44.2c2,2.4,3.8,5,5.3,7.8c11.3,23,30.5,39.8,46.9,58.7c8.6,9.8,18.5,18.6,27.7,27.8c1.1,1.1,2,2.7,3.3,3.3
	c15.8,6.5,25.1,20.4,36.4,32c12.4,12.7,23.2,26.9,36.7,38.6c1.9,1.8,3.5,3.9,4.7,6.2c3.2,6,6.4,12,11.7,16.6
	c1.8,1.6,2.5,4.5,3.8,6.7c1,1.7,2.1,4.6,3.5,4.8c9.9,1.5,12.4,10.4,17.4,16.7c10,12.5,15.5,27,20,42.9c-4.5,3.5-8.2,7.2-9.3,13.6
	c-0.9,5.7-6.3,9.6-11.8,11.6s-11.1,2.8-16.7,3.9c-9.3,1.7-18.7,2.6-27.8,5c-12.3,3.3-24.7,4.9-37.3,3.8c-8.2-0.7-16.2-3-24.7-1.4
	c-3.1,0.3-6.3-0.2-9.2-1.5c-6.5-2.8-13.3-2.7-20.1-3.2c-16.8-1-32.8-7.7-45.4-19c-2.2-1.9-5.4-2.7-8-4.1c-3.6-1.9-7.2-3.8-11.8-6.2
	c2.5-3.2,4.3-5.4,6.1-7.8c-3.5-4.4-8.5-6-13.3-7.9c-9.3-3.6-18.6-7.2-27.7-11.2c-1.7-1-2.8-2.8-2.9-4.8c0.2-1.5,2.6-3.5,4.2-3.7
	c10.6-1.5,20.9,0.5,31.2,2.8c19.4,4.5,38.7,9.4,58.1,13.9c6.1,1.5,12.3,2.6,18.6,3.3c7.3,0.8,14.5,0.3,21.4-4.9
	c-3.1-7.9-10.6-13.8-8.4-23.1c-6.2-4.9-12-9.4-17.7-13.9c-3.9-3-6.5-6-5.4-11.9c1.3-6.5-5.2-9.8-8.5-14.4c-2-2.8-5.4-2.3-8.6-2.4
	c-8.9-0.3-12.1-6.3-7.6-13.6c1.6-2.5,4.1-4.5,6-6.5c-1.3-4.2-3.5-3.3-6.4-2.6c-8.6,2.3-9.8,1.2-11.2-8.9c-0.2-0.9-0.4-1.7-0.5-2.6
	C3084,1953.6,3084.4,1954.5,3084.6,1955.5"/>
</svg>
