<?xml version="1.0" encoding="utf-8"?>
<!-- Generator: Adobe Illustrator 21.1.0, SVG Export Plug-In . SVG Version: 6.00 Build 0)  -->
<svg version="1.1" id="Layer_1" xmlns="http://www.w3.org/2000/svg" xmlns:xlink="http://www.w3.org/1999/xlink" x="0px" y="0px"
	 viewBox="0 0 4000 1684.5" style="enable-background:new 0 0 4000 1684.5;" xml:space="preserve">
<style type="text/css">
	.st0{fill:#E9DD79;}
	.st1{clip-path:url(#SVGID_2_);fill:#A4B8D6;}
	.st2{clip-path:url(#SVGID_4_);fill:#BCBEC0;}
	.st3{clip-path:url(#SVGID_6_);fill:#8DC63F;}
	.st4{clip-path:url(#SVGID_8_);fill:#8DC63F;}
	.st5{clip-path:url(#SVGID_10_);fill:#8DC63F;}
	.st6{clip-path:url(#SVGID_12_);fill:#8DC63F;}
	.st7{clip-path:url(#SVGID_14_);fill:#8DC63F;}
	.st8{clip-path:url(#SVGID_16_);fill:#8DC63F;}
	.st9{clip-path:url(#SVGID_18_);fill:#A4B8D6;}
	.st10{clip-path:url(#SVGID_20_);}
	.st11{clip-path:url(#SVGID_22_);}
	.st12{clip-path:url(#SVGID_24_);fill:#8DC63F;}
	.st13{clip-path:url(#SVGID_26_);fill:#8DC63F;}
	.st14{clip-path:url(#SVGID_28_);fill:#8DC63F;}
	.st15{clip-path:url(#SVGID_30_);}
	.st16{clip-path:url(#SVGID_32_);}
	.st17{clip-path:url(#SVGID_34_);fill:#A4B8D6;}
	.st18{clip-path:url(#SVGID_36_);}
</style>
<rect class="st0" width="4000" height="1684.5"/>
<g>
	<path d="M2869.6,1094.5c-1.7-21.2-1.7-42.6-3.1-63.8c-1.6-25-1.8-50.1-0.1-75c1.1-16.1-1.6-32.2,0.8-48.2c0.3-1.4-0.4-3-0.6-4.4
		c-0.6-12.8-0.4-25.8,2.3-38.4c2-9.2,2.3-18.3,2.1-27.4c-0.1-8-2.4-15.5-12.4-18.2c-8.5-2.1-15.9-7.3-23.6-11.6
		c-13.5-7.6-28.1-10.9-42.9-13.3c-6.2-1-13.3-1.7-18.6,4.1c-3.5,3.9-8.9,3.2-12.1,0.6c-6.5-5.6-14.4-5.5-21.9-6.3
		c-8-1-16.1-4.1-24-2.5c-6.6,1.3-13.1,1.3-19.7,1.3c-14.4-0.1-28.6,1-42.9,2.4c-28.2,2.8-56.4,6.2-84.6,8.7
		c-10.6,1-21.2,2.4-31.7,3.9c-18.1,2.8-36.3,5.2-54.3,8.3c-17.8,3.1-35.4,6.6-53,10.2c-5.5,1.1-10.2,3.9-13,9.5
		c-5.6,10.9-16.9,15.4-26.9,17.2c-10.6,1.8-18.2,7.3-26.2,12.6c-17.8,11.7-29.8,29.3-44.1,44.7c-6.3,6.8-12,14-16.5,22
		c-4.8,8.5-9.9,16.6-15.2,25.4c0-8.5,0-15.8,0-23.1c0-10,2.3-19.7,4.1-29.5c1.4-7.8-0.6-13.5-7.2-17.9c-6.2-4.1-12.7-7.3-20-8.7
		c-3-0.6-6.6-0.3-7.8-3.2c-3.7-9.6-15.1-4.2-20-10.9c-8.5,2.7-16.6-1.6-25.1-1c-11.7,0.7-12.7,1.1-15.2,12.7
		c-5.4,23.4-6.9,47.3-9,71.1c-1.4,16.8-1.4,33.9-3.1,50.6c-4.2,39.9-8.6,79.7-16.8,119c-4.9,24-13.1,46.7-20.7,69.7
		c-2.1,6.3-6.2,12-9.2,17.5c-9.6-8.6-0.1-22.3-10.6-30c-0.6-0.4,0.7-3.4,1.6-5.1c2.3-4.7,2.3-9.3,0-13.8c-2.1-4.2-6.1-8.5,2.3-10.3
		c0.6-0.1,1.1-2,1.1-2.8c-1.7-14.2,0.4-28.6-2.3-42.7c-2.8-15.2-1.1-30.7-3.1-46c-0.1-1.1-0.1-2.3,0.1-3.2c2.5-10.4,2-21.2,2.1-31.6
		c0.4-18.3-0.6-36.7-0.1-55.2c0.4-19.9-0.1-39.6-1-59.5c-0.6-14.2-2.5-27.8-7.1-41c-3.1-8.9-8.9-15.1-18.2-19.3
		c-10.2-4.5-20.9-6.3-31.2-9.7c-10.4-3.4-21.3-4.8-32.4-4.4c-7.8,0.3-13.4,5.4-20.2,7.9c-2.1,0.7-2.4,3.8-2.3,5.9
		c0.6,9.9,0.8,19.7,2.3,29.5c3.7,24.4,5.8,48.9,5.6,73.8c0,2,0.6,4.5-2.7,5.6c-35.3-21.7-73.3-38.1-112.7-51.3
		c-10.7-3.7-21.6-7.2-32.2-11.1c-2.3-0.8-6.5-0.8-6.2-3.5c0.6-7.6-6.6-9-9.9-13.5c-1.7-2.4-5.1-4.8-8.6-3c-5.5,2.7-10.9,1-16.1-0.4
		c-4.1-1.1-8.2-1.3-12,0c-10.2,3.1-20.3,2.7-30.6,1.7c-14.7-1.4-29.2-3.5-43.9-3.4c-11,0.1-22,0.7-32.4,4.1c-2.5,0.8-5.6,1-7.2,4.2
		c-3.8,8.2,0.6,26,8.7,29.5c7.6,3.2,15.2,7.2,23.8,8.3c12.7,1.7,25.4,4.2,37.9,6.9c9.6,2,11.1,4.7,10,14.2
		c-3.4,28.8-7.8,57.3-7.6,86.3c0.6,2.3,0.7,4.5-1,6.3c-0.6,8.9-1,17.6-1.6,26.5c3,12.1-1.8,24.1-1.3,36.3c0.1,2.7-1.1,5.5-4.5,4.8
		c-3.4-0.6-7.8,0.3-8.7-4.9c-1.4-7.6-3-15.1-4.4-22.7c-0.3-1.8,0.1-4.1-0.7-5.4c-7.8-11.7-10.2-25.8-18.1-37.5
		c-8.2-12.1-14.8-25.2-24-36.7c-3.8-4.7-8.3-8.2-12.3-12.6c-2.3-2.5-4.7-4.7-4.4-8.3c-4.5-2-6.2-6.9-10-9.6c-4.1-1.7-5.2-5.2-5.9-9
		c-2.3-2.7-1.8-8.5-6.2-8.2c-7.8,0.4-11.6-8.6-19.5-6.9c-4.8-6.5-12.4-7.1-19.3-9.2c-25.1-7.5-49.2-18.8-75.9-20.7
		c-6.6-0.4-12.1,1.3-17.5,4.7c-5.1,3.2,0.3,7.5-1,11.1c-0.4,1.3-0.3,3,0,4.4c1.1,8,4.4,15,12.6,18.1c12.8,4.8,10.4,4.7,4.5,16.5
		c-0.8,1.6-2.5,2.7-3.7,4.1c-7.8,9.7-15.2,19.7-20.9,31c-7.6,15.5-13,32-19.5,48c-7.5,18.3-15.4,36.5-21,55.6
		c-2.5,8.5-7.8,14-15.7,17.2c-1.7,0.7-3.7,1-5.2,1.8c-25,13.4-51.5,22.9-77.7,33.4c-23.3,9.5-47.8,14.5-72.2,19.5
		c-4.2,0.8-8.9,0.8-13.1,0.3c-6.6-0.8-7.9-4.1-4.5-9.9s7.2-11.1,11.7-15.9c13.8-14.8,25.1-31.6,36.4-48.4
		c12.4-18.5,24.5-37.4,35.8-56.7c8.6-14.5,17.5-28.8,25.4-43.9c8.9-16.8,14.7-35.3,27.1-50.1c0.1-0.8,0.4-1.8,0.7-2.7l0,0
		c0-1.7,0.1-3.2,0.1-4.9c0-1.3,0-2.5-0.1-3.9c-0.3-3.5-0.3-3,0.1,0.1c-0.3-1.6-0.4-3.1-0.6-4.5c-8-10.7-20.2-16.1-32.3-18.8
		c-15.7-3.4-31.7-5.2-48.1-5.8c-15.8-0.6-29.9,3.5-43,10.7c-17.1,9.5-32.3,21.7-43.9,37.9c-2.4,3.2-4.8,9.5-9.3,7.6
		c-4.4-1.7-2-7.9-2.3-12.1c-0.8-16.5,1.8-33-0.3-49.5c-1.3-9.9-4.7-18.1-13.5-24c-6.9-4.7-14.2-7.3-22.4-8.7
		c-6.9-1.1-14-1.6-20.5-4.2c-14.1-5.8-29.3-7.5-44.1-8.6c-35.4-2.5-70.4,2.7-105.2,8c-35.3,5.5-69.7,15.5-104.5,22.7
		c-20.9,4.4-41.6,8.3-62.9,10c-7.8,0.6-15.4-0.3-21.2-3.8c-14.1-8.3-29.9-8.6-45.1-11.4c-7.8-1.4-16.1-0.8-23.3,4.2
		c-1.8,1.3-3.8,1.8-6.1,2.3c-7.9,1.3-12.1,6.2-13.1,14c-1,7.3-0.4,14.5-0.1,21.9c0.6,23.1,3.8,46.1,5.8,69.1
		c1.6,18.2,4.4,36.3,7.1,54.3c5.2,36,10.9,71.9,14.8,108.2c1.4,12.4,2.7,24.8,3.1,37.2c0.1,3,0.8,6.6-2.8,8.6
		c-2.7-0.7-3.7-3-5.5-4.1c-3.9-2.8-4.5-7.5-6.9-11c-19.5-29.2-40.9-57.3-54.9-89.9c-12-28.1-24.7-55.7-36.8-83.6
		c-5.2-12.1-10.3-24.4-17.3-35.7c-3.9-6.5-9-11.8-17.6-10.6c-3,0.4-4.9-1-7.1-2.5c-4.4-3-7.6-6.3-7.3-12.6
		c0.3-5.5-0.4-12.6-6.8-13.7c-15.1-2.8-28.8-9.7-44-12.1c-13.3-2.1-26.1,0.7-39.2-0.3c-2.7-0.1-4.8,1.8-7.1,3
		c-3,1.6-5.4,4.1-8.7,4.5c-6.1,0.7-7.3,4.7-8,9.9c-2.1,15.2-3.2,30.6-3.2,46c0,21-2.8,41.8-2.8,62.8c0,30.2-0.8,60.4-1.8,90.4
		c-1,32.3-2.1,64.6-1,96.9c0.6,14.4-0.1,28.6,0.6,43c0.4,9.2,1.6,18.2,3,27.2c1.3,8.3,1.3,16.8,3.1,25.1c0.8,3.8,2.5,6.2,5.2,9.2
		c14.1,15.1,31,5.2,46.7,5.9c0.8,0,1.8-1.1,2.7-1.8c9-7.6,18.3-14.4,31.2-12.8c2,0.3,3.5-1,4.8-2.4c2.7-2.8,6.1-3.9,9.7-4.8
		c4.1-1,7.2-3.7,10.3-6.2c4.1-3.4,7.3-8.2,5.8-13.4c-4.5-15.2-3.9-31.2-5.2-46.7c-1.1-14.2,1.7-28.8-3.8-42.6
		c-0.6-1.3-0.6-3-0.6-4.4c0.1-21.6,0.3-43.3,0.4-64.9c0-0.6,0.8-1,1.3-1.6c1.8-0.4,2.8,1,3.4,2.1c7.3,14.5,16.5,27.8,25.5,41.2
		c9,13.4,17.2,27.4,28.2,39.4c13.7,15,25.1,31.6,39.2,46.3c10.2,10.4,19.6,21.7,29.6,32.3c11,11.7,24,21.7,35,33.4
		c11.8,12.7,41.8,11.1,51.3,3c10.6-8.9,22.6-13.4,36-15.4c1.7-0.3,3.4-1.3,5.1-2c0.1-2.3,1.1-3.9,3.5-4.2c2.4-3.8,8.7-3.7,9-9.5
		c-2.1-2.8-1.7-4.9,1.8-6.2c1.4-2.1,3.1-4.1,1.4-6.8c-0.7-0.8-2.1-1.7-2-2.4c2.1-9.3,0-19.2,3.4-28.2c-0.7-1.6-1.4-3.2-2.1-4.8
		c-5.8-10-9.5-20.7-8.7-32.4c0.4-5.6-1.4-10.9-2.1-16.4c-2.1-18.5-1.3-37.1-2.1-55.7c-1.4-28.2-1.7-56.6-7.1-84.3
		c-1.7-9-2.1-18.6-4.9-26.8c-3.2-9.3-3.5-18.6-4.5-27.8c-0.7-6.8-3.5-13.5-1.7-21c1.6-6.2,0.4-13-3.4-19c-2.1-3.5-4.4-7.9-1.6-12.4
		c-0.3-1.7-0.6-3.4-0.8-5.1c-4.2-6.6-3.8-9.2,1.7-12.4c16.2,0.4,32.3-0.7,48.4-1.7c10.6-0.7,12.6,1,12.4,11.6
		c-0.1,8.5-0.3,16.8,0.4,25.2c1.3,13.8,1.1,27.9,1.8,41.8c1.1,22.7,2.8,45.4,3.9,68.3c1.1,22,2.5,44,4.8,65.9
		c2,20,2.8,40.1,5.2,60.1c2.3,18.9,5.8,37.7,9.3,56.4c1.3,6.8,2.4,14.1,7.9,19c12.1,10.9,34.4,20,54,3.7c1.7-1.4,3.7-2.3,5.8-3
		c5.4-1.8,10.3-7.5,16.4-4.5c8.5,4.1,7.8-7.9,14.1-7.2c1.6,0.1,3.4-1.3,4.9-2.1c4.5-2.5,7.8-8.2,6.2-11.6
		c-4.4-9.3-2.3-18.9-3.9-28.2c-3.1-17.3-5.6-34.8-7.8-52.2c-4.9-40.8-5.5-82-8.3-123c-0.4-7.3-3-14.5-1.8-21.7
		c1.7-10.6-2.8-17.1-12.6-20.6c-4.7-3.7-6.1-10.3-3.2-16.6c1.3-3,3.1-5.6,4.8-8.5c-2-4.2-1-8.6-1.3-13c-0.3-6.2,0.4-13-4.1-17.9
		c-3.1-3.4-3.5-7.1-3.8-11c-0.1-4.4-0.3-8.9-0.7-13.3c-1.4-13.4-0.8-14.4,12-17.3c15-3.4,30-6.6,45.1-10c17.3-3.9,35-5.2,52.6-6.2
		c7.8-0.4,9,0.6,10.3,8c1.4,7.9,3,15.8,2.5,24.1c-0.6,15-0.1,29.9-0.7,44.7c-1.4,38.2-1.1,76.3-1.1,114.5c0,20.6,2.1,41,3,61.5
		c0.8,20,4.7,40.1,7.8,60.1c4.2,26.9,11.8,53,19.3,79.1c2,6.9,7.2,14.8,17.1,16.4c5.9,1,11.6,1.4,17.2,0.3
		c6.6-1.4,12.4-4.5,18.3-8.5c8.2-5.4,18.5-7.9,29.2-7.9c13.1,0,21.4-8.9,21.9-21.7c0.1-4.4-0.4-8.9-0.1-13.3
		c0.7-14.7-4.7-28.9-3.2-43.7c1-11,0.4-11.3,11-11.3c29.5-0.3,58.5-1.4,87.6-7.9c20.7-4.7,41.6-8.9,61.9-15.2c8-2.5,15.9-5.6,24-8.2
		c6.8-2.1,7.5-1.7,8.6,5.2c0.7,3.7,1,7.3,1.3,11c1.6,16.4,5.6,31.7,15.4,45.4c6.9,9.6,13.7,19.7,23.7,25.8c12.6,7.6,27.1,12,42,10.4
		c8-0.8,16.2,0.1,24.1-1.4c4.5-0.8,8.5,2.7,13,1.3c16.9-4.9,34-8.5,51.1-12.7c7.3-1.8,14.5-4.9,21.2-9c12.4-7.6,24.1-16.2,35.5-25.4
		c11.1-8.9,21.3-18.8,30.2-29.9c2.1-2.5,3.5-5.8,5.8-7.9c6.5-6.2,11.4-13.4,15.4-21.3c3.7-7.2,10.7-12,14.5-19.6
		c2.8,38.8,4.5,77.2,14.4,116.5c-6.8-3.5-11.4-2.8-15.5-0.1c-3,2-6.1,2-9.5,1.4c-3.7-0.6-8-3.1-10,3c-1.1,3.8-6.5,6.1-5.1,10.6
		c2.4,8.3,3.2,17.3,11.6,23c6.2,4.2,12.6,7.8,20.2,8.3c22,1.4,43-3.9,63.8-10.4c4.8-1.6,9.3-3.9,14.4-5.5
		c20.9-6.1,40.3-15.2,58-27.9c3.4-2.4,9-4.2,7.2-10.6l-0.3-0.4l0.4,0.3c0.6,0.4,1.4,1.1,1.7,1c10.4-4.5,17.2-13.4,24.1-21.7
		c2.4-3,3.5-6.6,7.9-7.8c1.8-0.6,3.5-2.5,4.9-4.2c14.1-17.9,27.2-36.5,39.4-55.9c1-1.6,2.8-3.5,1.7-4.9c-4.8-6.2,1-9.6,3.5-13.3
		c2.7-3.9,5.8-7.5,7.3-12.1c0.8-2.5,0.7-8.5,4.7-1.3c1,1.8,2.8-1,3.7-2.5c2.1-3.7,3-8.3,7.5-10.2c3.5,2.4,2.8,6.1,3.2,9.2
		c2,17.9,4.2,36,9.7,53.2c5.6,17.5,6.8,36,17.2,52.5c12.8,20.3,28.1,35.8,52.3,40.1c11.6,2,23.1,2.8,33.9-4.5
		c3.5-2.4,7.3-4.8,12.1-4.9c16.2-0.3,28.6-8.2,38.6-20.3c3-3.5,5.6-7.3,9-11.6c2.8,5.4,4.7,10.2,7.8,14.1
		c11.8,15.7,18.3,22.6,39.2,13.7c1-0.4,2.3-0.7,3.2-0.4c5.6,1.4,9.7-1.1,14.2-4.1c3.2-2.1,6.9-3.8,11.3-4.1
		c4.5-0.3,9.6-6.2,7.9-10.2c-2.3-5.4-1.4-10.9-2.1-16.2c-1.4-10-5.5-19.6-6.1-29.9c2.8,0,3,2.4,3.9,3.8c14.5,20,18.3,26.1,48.5,39.8
		c6.1,2.8,12.4,4.4,19,4.7c22.7,1.1,45.4,0,68.1-1.3c23.8-1.4,44.7-10.3,63.3-23.1c14.4-10,29.2-20.2,40.8-34.7
		c3.7,5.4,3.8,10.6,4.1,15.7c0.4,6.3,2.8,12.1,4.8,18.1c1.7,4.9,5.2,7.5,10,9.5c8.5,3.8,17.8,3.8,26.5,6.2c2.8,0.7,4.8-0.1,7.2-1.4
		c5.2-2.7,10.9-7.1,15.9-6.5c6.8,0.8,11.4-0.6,16.2-4.8c0.7-0.6,2.8,0.6,4.2,0.7c2.7,0.3,5.1,0,6.8-3c-8.6-10.2-6.1-20.9-0.1-31
		c1.7-3,3-5.8,2.8-9.2c-0.8-20.6-2.1-41-1.4-61.6c0.4-13.5-2-27.2,0.1-40.8c1.1-7.6,1.1-15.4,0.6-22.6c-0.7-9.5-0.8-19-0.8-28.2
		c0-16.1,0.4-32.3,0-48.4c-0.6-25,0.8-50.1-1.1-75c-0.7-9.6-1.7-19-0.6-28.6c0.6-4.2-0.6-7.6-3.5-11c-5.5-6.2-4.5-8,4.1-9.3
		c11-1.6,22-2.8,33-3.7c25.4-2,50.6-3.8,76-5.2c10.6-0.6,21.2,1.4,31.6,2.7c2.7,0.3,3.5,2.3,4.2,4.4c0.8,2.5,0.4,5.1,0.3,7.6
		c-1.1,33.1-2.1,66.2-1.7,99.3c0.4,39.4,3.5,78.6,5.5,117.9c1.4,28.9,4.8,57.8,6.8,86.9c0.8,12,4.4,21.3,16.5,25.7
		c0.7,0.3,1.3,0.7,2,1c8.6,4.4,17.2,6.1,26,0.3c3.4-2.3,6.8-2.3,10.6-0.8c1.7,0.7,4.2,1.7,5.2,1c6.3-4.4,13.5-2,20.2-2.3
		c5.2-0.1,8.2-2.5,9.3-5.9c2.1-6.1,4.7-12,4.7-19C2871.3,1146,2871.6,1120.3,2869.6,1094.5z M1663.1,1169.9
		c-18.8,26.1-41.5,47.7-71.4,60.8c-9.7,4.2-11.4,3.5-16.6-5.5c-7.8-13.5-9.2-28.5-11.3-43.4c-1.3-9.6,0.6-19-0.4-28.6
		c-0.7-6.3,1.6-13,8.2-16.8c2.8-1.7,5.2-4.1,8.2-5.6c19.3-9.3,35.8-23.1,52.9-35.8c7.2-5.4,12.6-13.3,19.2-19.6
		c7.2-6.8,13.8-14,24.3-19.9c4.1,13.3,8.6,26.1,9.3,39.8C1686.8,1122.8,1679,1147.7,1663.1,1169.9z M1970,1030
		c-0.6,20.2-6.5,39.1-13.3,57.7c-10.6,29.1-25,56.4-41.2,82.7c-9.9,15.9-21.7,30.6-32.7,45.7c-1.4,2-3.1,4.9-6.1,3.7
		c-2.5-1.1-2.5-4.1-2.5-6.8c0.7-34.6-4.9-68.8-2.8-103.4c0.3-3.5-0.1-7.2,1.7-11.7c4.8,4.7,0.1,10.6,5.9,15.4
		c1.7-49.5,3.7-97.6,7.9-145.6c-5.1,5.4-3.9,12.4-6.9,18.5c-1-9-7.5-17.8-1.6-27.2c12.7,3.8,24.7,8.6,36,14.2c21,10.4,42,21.3,53,44
		C1969.6,1021.6,1970.1,1025.5,1970,1030z M2384.4,957.9c0,0.1-0.1,0.3-0.3,0.4c-0.1,0.1-0.4,0.1-0.6,0.1
		C2384,958.4,2384.3,958.1,2384.4,957.9z M2518,1123.8c-22.3,20.3-45.3,39.5-68.8,58.3c-10.2,8-21.2,14.2-31.9,21.2
		c-9.3,5.9-19.6,9.7-30.5,12.3c-4.9,1.1-8.5-0.4-12.8-3.7c-11-8-16.8-18.6-20.2-31c-3.5-4.8-1.1-9.7-0.1-14.5
		c1.1-3.4,1.1-6.5-1.1-9.5c-7.2-2.5-7.8-3.9-4.8-10.2c1.6-2,1.4-4.5,0.3-6.2c-6.6-9.6-5.2-19.9-3.7-30.3c0.8-5.8,1.6-11.7,3-17.3
		c3.2-12.4,1.1-24.8,1.6-37.2c0.3-8.6,3.5-15.2,9.5-21.7c4.1-4.5,7.6-10.3,10.4-15.9c3.4-6.8,6.3-14.5,6.8-22
		c0.8-12.6,5.4-23.4,11.7-33.9c1.7-2.8,0.1-3.8-2.4-4.2c0.3-4.1,2.3-7.6,4.4-11c7.2-11.4,14.1-23,24.7-31.9c2.4-2,4.5-4.1,4.1-7.3
		c-0.6-3.9,1.6-6.5,4.1-8.6c9.6-8.3,20-15.4,31-21.7c8.7-5.1,17.8-3.2,26.7-3.4c12-0.3,24.1,1.6,36.3,0.6c6.6-0.6,8.6,1,7.8,7.3
		c-2,15-0.7,30-1.4,45c-0.4,9.2-0.3,18.3-0.1,27.5c0.3,31.6,0.3,63.2,1.3,94.8c0.6,19-0.1,38.1,1.7,57.1
		C2525.3,1113,2523.6,1118.6,2518,1123.8z"/>
	<path d="M3262.9,1008.2c2.1,26.1-1.3,52-2.5,78.1c-1,20.2-2.5,40.5-3.8,60.7c-0.6,8.7-1,9.6-10,10.9c-2.5,0.3-3.9,1.6-5.6,2.8
		c-2.4,1.7-5.2,1.7-7.1-0.4c-7.8-8-16.8-5.1-25.7-3.5c-6.6,1.1-13.4,4.2-19.3-2.4c-1.6-1.7-4.9-0.3-7.5,0.3c-5.4,1.1-8-0.1-10.4-6.2
		c-3-7.5-2.8-15-3.4-22.4c-1.7-0.7-3,0-3.8,1.3c-8.9,13.7-23.7,19.9-36,29.5c-22.1,5.9-42.9,16.8-67.1,14c-11.4-1.4-23.4,0.3-35,1.1
		c-3.9,0.3-8,0.1-10.6-1.8c-8.5-6.5-19-7.5-28.4-11.4c-9.9-4.4-18.6-11.1-25.4-19c-9.9-11.7-19.6-23.8-24.8-38.8
		c-3.9-11.1-6.3-22.7-8.2-34.3c-3.8-25.2-3-50.5,1-75.7c6.6-42.6,16.9-84.5,30.6-125.3c6.9-20.5,13.5-41.2,24.1-60.2
		c2.3-4.1,3.4-8.9,5.5-13.3c2.3-4.7,5.6-7.8,11.4-6.3c3.5,0.8,7.2-0.3,10.9,1c3.2,1.1,7.5,0.7,8.9-2.7c4.7-10.7,14.5-9.3,21.7-7.5
		c21.2,5.4,41.9,11.6,60.2,25.5c14.8,11.3,30.5,21.6,45.4,32.7c1.7,1.3,4.5,2.5,4.9,4.2c2.3,10.2,13.1,14.7,15.8,24.4
		c0.4,1.6,1.7,2.5,3.2,2.4c2.4-0.1,2.8-2.3,3-3.9c0.7-6.9,0.8-14,1.6-20.9c1.8-19,3-38.1,6.8-56.8c1-4.8,2.7-9,4.7-13.4
		c2.4-5.2,5.6-7.8,12-6.8c4.2,0.7,8.7,0,13-1.6c9.7-3.5,19.5-2.8,29.2,0.4c9.7,3.2,20.3,4.5,27.5,12.8c8-0.3,14.5,4.2,21.3,7.5
		c20.6,9.7,42,18.6,55.2,39.1c2,3.1,3.5,6.5,5.5,9.6c10,15.9,18.2,32.7,23.6,50.8c1.1,3.5,2.3,7.1,4.7,9.9c9.7,11,13.8,25,20.2,37.8
		c0.7,1.3,1.4,2.7,1.4,4.1c1,19.3,12.3,34.3,21.2,50.2c9.2,16.4,19.3,32,30.6,47c5.8,7.6,9.6,16.5,15.1,24.3
		c13,18.2,27.4,35.3,44.7,49.1c2.7-1.3,2.8-3,2.7-4.9c-3.2-38.1-6.9-76.3-9.6-114.5c-3-40.1-4.9-80.1-7.5-120.2
		c-0.8-12.1-1.6-24.3-3.2-36.3c-3-21.4,0.4-41.9,9-61.4c6.8-15.5,19.2-25.7,35.3-30.9c3.9-1.3,9-0.3,13,0.7
		c11.1,2.7,23.6,0.1,33.6,7.8c5.8,4.4,15.4,3.5,18.2,12.4c10.7,0.8,14,12.4,23,15.8c2.5,1,7.1,1,6.3,4.8c-0.8,4.4-1.4,9.6-6.8,11.7
		c-4.1,1.6-7.9,3.7-12.1,4.9c-9.9,3.1-17.3,9.3-24.4,16.5c-4.1,4.1-3.9,9.3-4.7,14.4c-1,6.5,2.1,14.4-5.9,18.8
		c-0.6,0.3-0.8,2.1-0.6,3.1c2.8,12,0.3,24.1,2,36.3c1.6,11.3,3.7,23.1-0.4,34.4c-1,3-0.4,5.8-0.3,8.7c0.8,13.5,3.2,26.9,1.4,40.5
		c-0.6,4.7,1.7,8.6,2.8,12.8c3,11.1,3.7,22.4,3.4,33.7c-0.4,17.2,2.3,34.4,2.7,51.5c0.1,6.2,0,12.4,1.3,18.6
		c3.7,18.6,2.3,37.4,3.2,56.1c0.1,3,0.1,5.9,0.4,8.7c0.6,4.5,1.7,8.6-5.8,5.4c-3.4-1.6-5.6,2.3-2.7,6.3c5.6,7.8,5.9,17.2,8.9,25.8
		c0.3,0.7,0.3,1.4,0.4,2.1c1,3.9,2.5,10.7,0,11.1c-5.1,0.7-9.2,5.5-15.1,3.4c-4.5-1.6-9.3-2-14-3c-2.5-0.6-5.1-0.8-7.5,0.7
		c-8.5,5.5-16.5,2.8-24.1-1.8c-15.7-9.2-28.1-22.1-41.2-34.4c-13.4-12.6-26.2-25.7-39.2-38.5c-17.6-17.2-35-34.7-50.9-53.3
		c-6.6-7.8-13.3-15.5-17.6-25c-2-4.4-4.8-8.3-8.3-11.6c-14.1-12.8-23.7-28.9-34-44.6c-12.4-19.2-24.3-38.6-35.1-58.7
		c-8.9-16.5-17.2-33.3-25.7-50.1c-3.8-4.7-2.7-12.6-10.6-16.2c1.4,8.9-1.6,15.5-4.8,22.1c-3,5.8-3.5,11.7-3.7,18.1
		c-0.1,14.2-0.1,28.5-1.6,42.6c-1.6,14.4-3.8,28.9,0.3,43.3c0.4,2-0.1,3.7-1,5.2C3259.8,1001.1,3260.5,1004.6,3262.9,1008.2z
		 M3071.6,845.7c-4.1,3.5-5.4,7.2-6.6,10.4c-10.4,27.1-20.2,54.3-27.5,82.5c-9.7,37.8-17.5,75.7-18.3,115
		c-0.4,21.2,0.4,41.8,10.6,61.1c3.8,7.2,3.5,8,11.4,5.2c29.5-10.6,51.2-29.8,63.2-59c7.5-18.2,10.3-37.4,10.3-57.1
		c0-25.5-3.9-50.4-9.2-75.3c-4.2-19.9-9.6-39.2-17.5-57.8C3084,861.6,3078.9,853.3,3071.6,845.7z M3579.1,1079.7
		c3.8-11.6,3.1-19.9-2.3-26.9C3578.3,1062.6,3575.9,1071.2,3579.1,1079.7z"/>
	<path d="M487.4,1052.5c0.3,17.3-3.8,39.1-2.1,61.2c0.7,10.6-3.4,20.6-3.4,31.2c0,19.5,0,38.9-0.3,58.4c-0.3,18.3-1,36.7-0.8,55.2
		c0.1,24.3,0.8,48.5,1.3,72.6c0,2.3-0.1,4.4-0.3,6.6c-0.3,5.1-1.7,8.2-8,7.3c-5.1-0.7-10.3,0.6-14.2,4.5c-1.7,1.7-3.5,2.5-5.9,2.7
		c-12.1,0.6-22.3,5.6-31.7,13c-6.3,5.1-28.8,5.4-36.1,0.8c-4.1-2.5-8-5.2-11.7-8.2c-3-2.3-5.8-5.2-5.2-9.3
		c2.3-13.3-0.8-26.4-0.8-39.6c0-16.5-0.1-33-1.4-49.5c-1-12.7,1-25.5,0.7-38.5c-0.6-19.7-0.4-39.6-0.3-59.4
		c0.3-26.8,1.3-53.6,1.4-80.4c0.3-32.4,5.9-64.3,8.6-96.6c1.8-20.9,4.4-41.6,6.9-62.3c1.3-9.9,4.9-16.9,15.9-21.4
		c13.5-5.4,26.7-3.8,40.1-3.4c7.2,0.1,14.5,2,21.6,3.7c6.1,1.4,11.8,3.5,16.8,8c2.5,2.3,5.5,3.9,9.6,4.4c7.1,0.6,8.9,3.7,8.2,11.4
		c-1.3,15.4-1.7,30.7-2.5,46.1c-1,16.1-3,32.2-4.7,48.2C488,1028.6,488.1,1038.2,487.4,1052.5z"/>
	<path d="M883,959.8c-4.2-6.6-3.8-9.2,1.7-12.4C882.3,951.3,882.8,955.5,883,959.8z"/>
	<path d="M1691.1,955.4c-4.1-1.7-5.2-5.2-5.9-9C1690.1,947.5,1690.1,951.7,1691.1,955.4z"/>
	<path d="M3262.9,1008.2c-2.4-3.5-3.1-7.1,0.1-10.4C3265.3,1001.2,3264.8,1004.8,3262.9,1008.2z"/>
	<path d="M1782,1019.4c0.6,2.3,0.7,4.5-1,6.3C1779.7,1023.4,1779.4,1021.1,1782,1019.4z"/>
	<path d="M2384.5,957.7c-0.1,0.3-0.1,0.6-0.3,0.7c-0.1,0.1-0.4,0.1-0.6,0.1C2384,958.2,2384.4,958.1,2384.5,957.7
		C2384.7,957.8,2384.5,957.7,2384.5,957.7z"/>
	<path d="M3579.1,1079.7c-3.4-8.5-0.8-17.2-2.3-26.9C3582.4,1059.8,3582.9,1068.1,3579.1,1079.7z"/>
</g>
</svg>
