<svg xmlns="http://www.w3.org/2000/svg" xmlns:xlink="http://www.w3.org/1999/xlink" viewBox="0 0 176.13 193.2"><defs><clipPath id="a" transform="translate(-11.06 -3)"><rect x="10.59" y="3" width="176.6" height="193.2" fill="none"/></clipPath></defs><title>loader</title><g clip-path="url(#a)"><path d="M166.4,103c.53-16.33-17.29-30.34-32.46-21.22A28.26,28.26,0,0,0,129.62,85c-1.2.25-2.41.49-3.62.72-4.83.92-9.69,1.72-14.55,2.42a324,324,0,0,1-56.44,2c-10.57-.54-20.66,9.68-20.19,20.19a21.7,21.7,0,0,0,3,10.33,40.26,40.26,0,0,0,0,11.51c.71,6.26,1.63,12.49,2.89,18.66,2.1,10.35,3.69,22.8,11.43,30.64,4.85,4.91,10.48,7.22,16.77,9.76a66.46,66.46,0,0,0,11.82,3.84c11.42,2.27,22.09.66,33.33-1.82,10.32-2.27,20.49-4.24,27.84-12.68,7.77-8.92,14.44-20.07,16.95-31.7a152.94,152.94,0,0,0,2.4-17.69c.39-4.08.24-8.06.24-12.09.3-.55.6-1.11.88-1.65A33.33,33.33,0,0,0,166.4,103Z" transform="translate(-11.06 -3)" fill="#d1d3d4"/><path d="M157.88,78.4s-.07-.14-.09-.14a.63.63,0,0,0-.19.08l.13.11Z" transform="translate(-11.06 -3)" fill="#d1d3d4"/><path d="M171,87l-.8-2a10.07,10.07,0,0,0,.77-1.59,10.67,10.67,0,0,0,2-3,12.49,12.49,0,0,0,.82-1.6,16,16,0,0,0,2.24-3.7,20,20,0,0,0,2-3.14c.09-.17.17-.33.29-.53a10,10,0,0,0-.43-10.86,33.72,33.72,0,0,0,2.59-3,25,25,0,0,0,3.5-6.39c.14-.36.24-.68.31-1a12.07,12.07,0,0,0,1.06-5.38,30,30,0,0,0-.65-16.61c-2-5.92-4.79-12.18-9.44-16.47-6.4-5.92-14-6.67-22.3-7.28-9-.66-18-1-27-1.21-18.79-.35-38.15-.8-56.76,2.27-9.38,1.55-16.88,6.12-24.11,11.56l-.86.34c-.55.22-1.09.45-1.64.64a26.13,26.13,0,0,0-6.41,3.18l-.27.19a11.29,11.29,0,0,0-3.33,2A16.29,16.29,0,0,0,30,25.09l-.38.27a7.86,7.86,0,0,0-2.66,2.22l-.18.13a14.86,14.86,0,0,0-2.58,2.39,10.13,10.13,0,0,0-1,1.36c-.36.37-.72.75-1,1.14S21.37,33.53,21,34c-.49.63-1,1.23-1.37,1.7a11.22,11.22,0,0,0-1.09,1.44,8.66,8.66,0,0,0-2.1,3.09,10.38,10.38,0,0,0-2,3.85l-.63,1.18a8.83,8.83,0,0,0-1.06,3L11.06,51.2l1.17,2.88c0,.69,0,1.37,0,2.06A16,16,0,0,0,12.51,58l-.64.36a6.47,6.47,0,0,1,.42,2.38c0,.12,0,.24,0,.36l3.4,4.06a24.86,24.86,0,0,0-.76,2.69c-2.07,9.39,2.4,21.38,12.34,24.4a13.21,13.21,0,0,0,1.51,1.22l.27.19a25.87,25.87,0,0,0,5.12,3A18.09,18.09,0,0,0,41,98.28a21,21,0,0,1,3.27.43,29.45,29.45,0,0,0,4,.54l.89.06a11.92,11.92,0,0,0,5.38-.52h0a11.75,11.75,0,0,0,3.94.78,8.55,8.55,0,0,0,3.28.2c.4,0,.79-.1,1.19-.16a7.66,7.66,0,0,1,.92-.11h0c.8,0,1.65.07,2.55.14l1.43.1c.65,0,1.29.08,1.94.16.43,0,.86.11,1.29.18a26.09,26.09,0,0,0,2.88.31c2.14.08,4.27.09,6.35.09H82a7.14,7.14,0,0,0,5.27-1.9l.14-.13a25.9,25.9,0,0,0,4.79.83,113.74,113.74,0,0,0,13.57.21,8.74,8.74,0,0,0,2.61.41h.07c.64,0,1.29,0,1.93-.07s1.2-.07,1.78-.05a17,17,0,0,0,2-.1,6.75,6.75,0,0,1,1.32,0l.89.15.86-.26a5.61,5.61,0,0,1,1.56,0,15.65,15.65,0,0,0,2,.11l.76,0a12.79,12.79,0,0,0,2.57-.08l.73-.12a23.38,23.38,0,0,1,4.11-.43,6.4,6.4,0,0,0,5.39-2.54l2.46-.4c.1.17.32.24.67.22s.53,0,.79,0a3.93,3.93,0,0,0,2.78-1l1.42-.32a10.63,10.63,0,0,0,8.27,3.93,11.45,11.45,0,0,0,3.16-.45l.9-.23c.47-.12.95-.23,1.43-.37q1.3-.37,2.6-.81l2.46-.87.55-.2c.44-.16.87-.32,1.33-.51l.9-.39,6.38-2.78A10.21,10.21,0,0,1,171,87Z" transform="translate(-11.06 -3)" fill="#e9de79"/><path d="M132.71,187.3h-1c-5.16-.31-9.33-4.23-14.31-5.43-5.53-1.33-11.55-.14-17.09.48C88,183.72,75.44,185.28,63.56,181a2,2,0,0,0-2.17.36,105,105,0,0,0-10.73-4c-3-.86-4.31,3.84-1.29,4.7,2,.57,4,1.3,6,2.07a2.47,2.47,0,0,0,2.34,2.66c4.9.29,9,3.34,13.41,5.11,4.91,2,10.22,2.35,15.46,2.3,5.86-.05,11.73-.31,17.59-.48,3.67-.11,7.31-.21,10.64-1.66,5.58,0,11.16.08,16.74.15.39,0,.79,0,1.2,0C135.84,192.06,135.86,187.35,132.71,187.3Zm-17.27-.83-6-.35a24.21,24.21,0,0,1,6.22.37Zm1.6.68a2.42,2.42,0,0,0-.88-.53c.48.12,1,.25,1.43.41l.33.12Z" transform="translate(-11.06 -3)" fill="#626f84"/><path d="M130.6,163.95c-3.85-1.49-7.65-3.1-11.4-4.84q-2.44-1.14-4.85-2.35c4.44-1.28,9.88-.47,13.66,1s7.38-2.25,7.49-5.71c.29-9.23-11-9.63-18.54-12a28.52,28.52,0,0,0,1.77-4.55,33,33,0,0,0,1.08-9.81c-.47-7.8-9.16-10.31-14.08-4.37a15,15,0,0,0-3,8.24c-.25,2.35.36,5.5-.74,7.66A5.52,5.52,0,0,1,98,140a7.42,7.42,0,0,0,.1-4,7.58,7.58,0,0,0-5.81-5.53c-5.44-1.16-11.58,4.06-15.36,7.34-.2.18-.4.36-.59.55a45.53,45.53,0,0,1-4.89-2.32c-1.43-5.29-4-10.59-10.3-10.75a5.61,5.61,0,0,0-2.92.81c-3.85.39-7.42,4.45-4.84,8.78a28.34,28.34,0,0,0,5.51,6.64c.91,1.34,2.06,2.67,3.09,4.06l.06.15a15.82,15.82,0,0,0,1.81,3,8.83,8.83,0,0,1,.38,1.08c.63,2.27-.2,2.35-2.05,3.25-3.16,1.54-5.17,4.09-5.23,7.7a5.42,5.42,0,0,0,1.43,3.95c1.67,4.42,6.88,8.65,9.68,11.64,3.06,3.27,8.77,1.6,9.89-2.61a4.35,4.35,0,0,1,3.56-3.57c2.64-.35,4.24,2.19,6.48,3,6.11,2.27,10.33-3.49,15.31-5.88,4.32-2.07,8.23,3.38,11.39,5.66,5,3.65,11.71,5.19,17.28,1.81,4.66-2.83,3.2-9-1.41-10.82" transform="translate(-11.06 -3)" fill="#c66661"/><path d="M151.05,9.17c-7.43,0-14.8-.66-22.24-.09-7.69.58-15.28.5-23,.39-6.89-.1-13.5,1.41-20.37,1.42a103.31,103.31,0,0,0-11,.22c-3.43.37-6.93.18-10.33.68-3.19.47-5.82,2.05-8.92,2.89a72.61,72.61,0,0,0-9.89,3.27A56.27,56.27,0,0,0,29.23,28.54c-2.58,2.43-5.43,4.72-7.68,7.51-2,2.47-3.38,5.18-5.16,7.8-3.08,4.53-4.77,10.4-1.61,15.37a32.89,32.89,0,0,0,4.89,6.29c2.23,2.11,4.14,4.6,7.13,5.47a109,109,0,0,0,20.52,3.74c3.42.32,6.76.88,10.2.88,3.81,0,7.66.21,11.46.33,1.75.05,3.45.48,5.19.64,2,.2,4.07.27,6.12.58,3.69.55,7.37,1.09,11.08,1.44,7.05.66,14.22,1.3,21.17-.39s13.52-4,20.22-6.32c3.49-1.19,7-2.38,10.44-3.7,3.88-1.49,7.51-1.49,11.58-1.49,5.63,0,13.4.89,18-3.47,1.24-1.18,2.68-2.09,3.9-3.29a24.73,24.73,0,0,0,3-4.24,46.51,46.51,0,0,0,5.27-9.64,29.49,29.49,0,0,0,2.24-11.22,24.87,24.87,0,0,0-3.06-10.25c-3.21-6.15-9.66-11-15.58-13.74a22.44,22.44,0,0,0-10.2-2c-2.1,0-4.2,0-6.31,0-1.63,0-3.21.34-4.81.35-.77,0-.77,1.29,0,1.29,1.36,0,2.68-.36,4.06-.35h4.28c3.59,0,6.92-.21,10.38,1A34.78,34.78,0,0,1,181.4,22.63a24.84,24.84,0,0,1,4.32,9.73c.75,4-.14,8-1.39,11.76a35.59,35.59,0,0,1-4.65,9.4c-.68,1-1.29,2-1.94,3a18.16,18.16,0,0,1-4.25,4.3,20.49,20.49,0,0,1-3.16,2.67A17.56,17.56,0,0,1,166,64.88c-3.67.82-7.55.53-11.28.53-2.89,0-5.91-.27-8.74.43-3.24.8-6.43,2.31-9.59,3.42-6.32,2.23-12.64,4.48-19.06,6.33a62.42,62.42,0,0,1-10.12,2.32c-3.36.38-6.77-.06-10.14-.22-6.82-.32-13.48-1.69-20.26-2.24-6.57-.53-13.14-1.15-19.75-1.13a89,89,0,0,1-8.91-.8,110.63,110.63,0,0,1-11.4-1.36c-3-.61-6-1.56-8.93-2.24-3.32-.76-6.11-3.68-8.41-6.23-.74-.81-1.25-1.88-1.92-2.77A23.66,23.66,0,0,1,15,57.2c-1.73-3.56-.42-8.08,1.46-11.27a75.91,75.91,0,0,1,5-7.64,61.06,61.06,0,0,1,7.22-7.57A64.35,64.35,0,0,1,44.16,19.85a58.4,58.4,0,0,1,9-3.36c1.29-.38,2.59-.63,3.87-1.06,1.7-.56,3.28-1.55,5-2,3.47-.93,7.14-.45,10.68-.83a112.1,112.1,0,0,1,11.79-.42c3.28,0,6.7.18,9.93-.49a48.38,48.38,0,0,1,10.47-.94c7.68.08,15.28.33,22.95-.3s15.43,0,23.18,0a.65.65,0,0,0,0-1.29" transform="translate(-11.06 -3)" fill="#231f20"/><path d="M162.91,88.25a10.74,10.74,0,0,0,2.46-.47c.43-.13,1.93-.92,2.42-.81,1.73.39,0,4.31-.42,5.63a28.17,28.17,0,0,0-1.22,6.08c-.15,2.81.1,5.43-.59,8.21-.55,2.2-1.42,4.26-2.1,6.4-.8,2.51-2.18,4.7-2.86,7.26-1.24,4.72-2,9.59-2.72,14.42-1.57,9.91-4.29,20.37-9.31,29A92.1,92.1,0,0,0,142,177c-1.51,3.89-1.57,9.75-5,12.41-3.79,2.93-9.81,1.08-14.11,1.1a18.33,18.33,0,0,0-5.24,1.2c-2.58.74-5.34.48-8,.68-4.73.36-9.5.17-14.24.17-2.36,0-4.73.11-7.09,0s-4.66-.53-7-.69a22,22,0,0,1-6.38-1.25,46.08,46.08,0,0,0-6.76-2.14,50.5,50.5,0,0,1-13.83-4.9c-1.9-1-3.94-1.62-5.82-2.63-2.24-1.19-3.28-3.6-4.3-5.93a67.47,67.47,0,0,1-4.08-14.38c-.48-2.64,0-5.3-.44-7.94a59.12,59.12,0,0,1-.78-9.43,118.83,118.83,0,0,0-.76-16.53c-.76-5.67-1.68-11.21-2.15-16.9-.23-2.72-.28-5.36-.29-8.09a17.22,17.22,0,0,1,.58-4.45c.2-.84.19-2.57.62-3.28a.61.61,0,0,0-1-.65,4,4,0,0,0-.47,2.08c-.14,1.2-.61,2.28-.82,3.45a37.92,37.92,0,0,0-.06,7.81,138.15,138.15,0,0,0,1.57,14.91c.91,5.91,1.85,11.86,1.69,17.87-.07,2.72-.15,5.43,0,8.15.18,3,.86,5.81.84,8.8,0,5.07,1.61,10.08,3,14.88,1,3.51,2.52,8.37,5.6,10.4,2,1.29,4.41,1.84,6.47,2.94a58.74,58.74,0,0,0,7.12,3,44.06,44.06,0,0,0,7,2,54.44,54.44,0,0,1,7.54,2.42,17.45,17.45,0,0,0,5,1c2.78.16,5.53.68,8.31.74,5.36.1,10.72-.06,16.08,0,2.48,0,4.93-.28,7.4-.34a21.89,21.89,0,0,0,7.24-1.1c4.58-1.65,9.54.46,14.24-.39,4.15-.75,5.84-3.29,7.35-7.29.8-2.11,1-4.39,1.75-6.52a71.51,71.51,0,0,1,3.64-8.08c1.21-2.48,2.75-4.75,4.06-7.16a59.9,59.9,0,0,0,3.05-7,118.8,118.8,0,0,0,4.69-16.3c1.38-5.93,1.93-12.05,3.31-18,.66-2.83,2.15-5.29,3-8a55.32,55.32,0,0,0,2.55-8.55c.49-3.18-.07-6.35.64-9.53.53-2.36,1.58-4.55,1.84-7,.57-5.14-4-1.83-6.75-1.64-.77.05-.77,1.34,0,1.29" transform="translate(-11.06 -3)" fill="#231f20"/><path d="M135.65,190.59a2.47,2.47,0,0,1-.41,0l.28-1.59c-2.84-.06-5.51-1.19-8.1-2.3l-1.69-.7a40.78,40.78,0,0,0-11.27-2.76,83.87,83.87,0,0,0-14.22.25l-3.46.25a176.27,176.27,0,0,1-50.64-4.07l.56-2.45a173.9,173.9,0,0,0,49.92,4l3.44-.24a85.7,85.7,0,0,1,14.65-.24,43.24,43.24,0,0,1,12,2.93l1.73.72c2.92,1.24,5.67,2.41,8.48,2l1.13-.16.26,1.11a2.62,2.62,0,0,1-.69,2.39A2.67,2.67,0,0,1,135.65,190.59ZM72.24,177.9h-.13c-2.07-.08-3.38-2.15-4.64-4.14a10.37,10.37,0,0,0-2.42-3c-.73-.45-1.51-.87-2.27-1.29-3.81-2.07-8.13-4.42-7.24-10.7h0a5.85,5.85,0,0,1,1-2.77,7.31,7.31,0,0,1,4-2.29,7.13,7.13,0,0,0,2.55-1.13,2.73,2.73,0,0,0,.92-2.12,7.34,7.34,0,0,0-2.38-5,30.13,30.13,0,0,0-2.7-2.13,16.7,16.7,0,0,1-5.14-5.06,9.1,9.1,0,1,1,16.67-7.17,16.65,16.65,0,0,1,.58,4.28,20.93,20.93,0,0,0,.24,2.73c.32,1.77,1.51,3.65,3.07,3.65h0c1.52,0,2.54-1.48,3.92-3.74.27-.44.53-.87.8-1.27A14.78,14.78,0,0,1,93,130.31a6.4,6.4,0,0,1,4.71,2.42c1.16,1.66,1,3.78.89,5.19l-.54,7a3.26,3.26,0,0,0,3.51-.59c1.07-1,1.75-2.47,2.2-4.88a29.9,29.9,0,0,0,.49-6.69c0-.41,0-.82-.06-1.24-.18-3.26-.37-7,2.07-9.56a6.8,6.8,0,0,1,5.38-2.07,9.24,9.24,0,0,1,6.7,3.32c2.93,3.66,2.88,8.58,2.32,12.07-.28,1.76-.72,3.49-1.14,5.17s-.82,3.28-1.08,4.9a27.07,27.07,0,0,0,5-.23c.73-.08,1.46-.16,2.19-.21,4.09-.31,7.09.4,9.22,2.16a7,7,0,0,1,2.46,5.46,5.14,5.14,0,0,1-2,4.1,6.59,6.59,0,0,1-4.19,1.21,21.89,21.89,0,0,1-7.21-1.72c-2.76-1-5.37-1.94-7.9-1.32a6.56,6.56,0,0,0-4.8,6.49,1.15,1.15,0,0,0,.06.39l.52.05,13.19,1.47a15.64,15.64,0,0,1,6.49,1.72c2,1.22,3.88,3.8,3.14,6.6-.55,2.09-2.59,4.59-9.17,4.63-3.25,0-7.28,0-10.54-2.07a18.49,18.49,0,0,1-2.88-2.48c-.48-.48-1-1-1.49-1.41a13.43,13.43,0,0,0-6.89-3.08,3.15,3.15,0,0,0-2.4.34,4.06,4.06,0,0,0-.87,1.37c-.17.36-.35.72-.56,1.05-2.37,3.87-7.48,4-11.67,3.66a4.43,4.43,0,0,1-2.6-.84,4.35,4.35,0,0,1-1.17-1.84,4.71,4.71,0,0,0-.31-.67,1.7,1.7,0,0,0-1.22-.77,3.92,3.92,0,0,0-3,.79,12.94,12.94,0,0,0-2.61,3.26c-.41.64-.83,1.3-1.31,1.93C74.79,177.08,73.54,177.9,72.24,177.9ZM58,159.08c-.61,4.34,1.86,5.92,5.95,8.14.81.44,1.62.88,2.39,1.36a11.77,11.77,0,0,1,3.22,3.82c.79,1.24,1.87,2.95,2.62,3,.43,0,1.11-.54,1.83-1.49.43-.57.81-1.17,1.2-1.77a15,15,0,0,1,3.17-3.88,6.42,6.42,0,0,1,5-1.29,4.22,4.22,0,0,1,2.93,1.95,7.14,7.14,0,0,1,.48,1,2.48,2.48,0,0,0,.45.85,2.6,2.6,0,0,0,1.18.26c3.47.27,7.67.24,9.33-2.47.16-.27.3-.55.44-.84a6.1,6.1,0,0,1,1.54-2.21,5.41,5.41,0,0,1,4.32-.89,16,16,0,0,1,8.19,3.66c.56.48,1.1,1,1.62,1.53a16.36,16.36,0,0,0,2.48,2.16c2.62,1.71,6.25,1.69,9.15,1.67,2.75,0,6.15-.51,6.75-2.76.38-1.45-.75-3-2-3.8a13.74,13.74,0,0,0-5.47-1.38l-13.19-1.47a3.23,3.23,0,0,1-2.13-.89,3,3,0,0,1-.69-1.91,9.05,9.05,0,0,1,6.7-9.07c3.28-.81,6.37.32,9.36,1.4a19.75,19.75,0,0,0,6.37,1.57,4.38,4.38,0,0,0,2.65-.69,2.68,2.68,0,0,0,1-2.15,4.53,4.53,0,0,0-1.55-3.47c-1.6-1.33-4-1.85-7.42-1.59-.7.05-1.41.13-2.11.2a23.49,23.49,0,0,1-6.93.05l-1.15-.21.13-1.16a48.72,48.72,0,0,1,1.31-6.46c.41-1.62.83-3.31,1.09-5,.48-3,.55-7.16-1.8-10.1a6.67,6.67,0,0,0-4.83-2.38,4.44,4.44,0,0,0-3.45,1.27c-1.71,1.82-1.54,4.81-1.39,7.71,0,.43,0,.85.06,1.27a32.52,32.52,0,0,1-.53,7.25c-.35,1.85-1,4.52-3,6.28s-5.42,2.25-7.41.13l-.38-.4.63-8.22c.11-1.39.15-2.7-.44-3.55a4.28,4.28,0,0,0-3-1.37,12.22,12.22,0,0,0-11.48,5.27c-.25.38-.5.79-.75,1.2-1.35,2.2-3,4.94-6.06,4.94h0c-3,0-5-2.88-5.55-5.71a23,23,0,0,1-.28-3.06,14.59,14.59,0,0,0-.47-3.65A6.59,6.59,0,1,0,56.06,137a14.62,14.62,0,0,0,4.43,4.26,32.59,32.59,0,0,1,2.92,2.31,9.74,9.74,0,0,1,3.19,6.9,5.22,5.22,0,0,1-1.79,4,9.19,9.19,0,0,1-3.46,1.63,5.24,5.24,0,0,0-2.75,1.4,3.46,3.46,0,0,0-.56,1.61Zm77.88-58.41c-1.72,0-3.33-.07-4.78-.16-2.56-.16-5.15-.42-7.66-.67a104.44,104.44,0,0,0-14.67-.77c-1.85.08-3.75.26-5.58.44a73,73,0,0,1-8.48.49,72.05,72.05,0,0,1-7.38-.66c-2.2-.27-4.48-.56-6.7-.63a75,75,0,0,0-8.58.38l-2.68.21a162.44,162.44,0,0,1-18.49.18c-5.6-.23-12.05-.7-17.72-3.37C26.28,92.85,20.54,86.24,17,77.51c-3.09-7.71-4.18-16-5.24-24l2.49-.33c1,7.84,2.11,15.95,5.08,23.36,3.26,8.14,8.56,14.27,14.9,17.27C39.51,96.32,45.67,96.76,51,97a160.3,160.3,0,0,0,18.2-.17l2.66-.21a76.07,76.07,0,0,1,8.87-.39c2.34.08,4.67.37,6.93.65a69.91,69.91,0,0,0,7.12.64A69,69,0,0,0,103,97c1.87-.18,3.8-.37,5.72-.45a106.42,106.42,0,0,1,15,.78c2.48.25,5,.5,7.57.66,9.14.57,15.91-.49,21.3-3.34,8.08-4.27,13.38-13,17.64-20,6.29-10.32,13.42-22,14.34-34.84l2.51.18c-1,13.44-8.26,25.41-14.7,36-4.42,7.25-9.93,16.28-18.62,20.87C148,100,141.39,100.67,135.92,100.67ZM79.79,63.26H78c-6.28-.07-13.45-.67-19-4.53a19.75,19.75,0,0,1-8.13-12.86l1.26-.2a7.71,7.71,0,0,1,0-1c.4-4.12,3.95-6.84,6.85-8.4,8.08-4.34,17.41-4.84,27.06-5l0,1.26,0-1.26h.15c13.56-.22,27.58-.45,41.28.14,5,.21,8.07,2.12,9.82,6.19a7.32,7.32,0,0,1,.23,6.14,18.29,18.29,0,0,1-7.84,9.76,42,42,0,0,1-12.2,4.87A147.09,147.09,0,0,1,79.79,63.26Zm-23-10a16.69,16.69,0,0,0,3.6,3.39c5,3.47,11.74,4,17.63,4.08a144.35,144.35,0,0,0,38.8-4.82,39.82,39.82,0,0,0,11.48-4.56,18.9,18.9,0,0,0,3.72-3.13,23.87,23.87,0,0,1-3.78,1.11L92.71,56.93a87.52,87.52,0,0,1-11.3,1.89,44.61,44.61,0,0,1-19.95-3A21,21,0,0,1,56.83,53.26ZM108,33.53c-7.28,0-14.55.12-21.7.24h-.15c-9.33.15-18.33.63-25.91,4.7-1.94,1-5.23,3.26-5.54,6.43-.38,3.89,3.74,7,7.72,8.57a42,42,0,0,0,18.82,2.85,85.46,85.46,0,0,0,11-1.85l35.59-7.59c3.86-.82,6.5-2.27,7.42-4.06v0q.09-.3.16-.61l.08,0a5.22,5.22,0,0,0-.42-3.64c-1.36-3.14-3.56-4.5-7.62-4.67C121,33.62,114.46,33.53,108,33.53Z" transform="translate(-11.06 -3)" fill="#231f20"/></g></svg>