<?xml version="1.0" encoding="utf-8"?>
<!-- Generator: Adobe Illustrator 21.1.0, SVG Export Plug-In . SVG Version: 6.00 Build 0)  -->
<svg version="1.1" id="Layer_1" xmlns="http://www.w3.org/2000/svg" xmlns:xlink="http://www.w3.org/1999/xlink" x="0px" y="0px"
	 viewBox="0 0 4000 3733.1" style="enable-background:new 0 0 4000 3733.1;" xml:space="preserve">
<style type="text/css">
	.st0{fill:#F6921E;}
	.st1{fill:#3B2314;}
	.st2{fill:#FFE78F;}
	.st3{fill:#EE6E66;}
	.st4{fill:#EE9D98;}
	.st5{fill:none;stroke:#000000;stroke-width:6;stroke-miterlimit:10;}
</style>
<rect class="st0" width="4000" height="3733.1"/>
<g>
	<path class="st1" d="M3815.9,2527.2c-43.4-260-116.3-597-326-778.6c-113.7-98.5-237.8-91.1-361.6-16.6
		c-129.5,78-247.8,174.9-360.7,274.9c-236.5,209.6-457.7,451.8-751,583.5c-133.1,59.8-292.9,69.8-405.7,169.8
		c-124.5,110.3-128.1,277.2-108.3,430.3c0.6,4.5,1.4,9,2.3,13.3c-1.1,111.6,72.2,218.3,150.1,295.3
		c114.5,113.2,257.8,75.6,399.8,48.1c153.8-29.8,296.9-77.6,435.8-150.4c280-146.7,580-229.1,881.2-321.3
		c132.8-40.7,312-64.6,399.8-183.7C3850,2785.4,3836.4,2649.9,3815.9,2527.2z"/>
	<path class="st2" d="M3636,2157.8c-43.8-101.5-83.6-219.3-182.3-281.6c-94.3-59.5-210-54.2-308.8-8.6
		c-108.3,50-199,142.1-291,216.4c-105.9,85.6-212.7,170.1-320.8,253c-99.3,76.2-199.5,151.3-300.5,225.2
		c-100.6,73.7-203.3,155.5-319.9,202.8c-101,40.9-220.8,36.8-304.1,116.5c-31,29.7-50.5,63.6-62.2,99.9
		c-53.3,71-43.1,164.5-13.9,248.4c66,190.1,217,324,422.2,248.4c443.1-163.4,911.8-223.5,1362.5-359.7
		c189.7-57.3,381.2-134.7,444.7-341.3C3828.1,2562.2,3719.2,2350.5,3636,2157.8z"/>
	<path class="st3" d="M3609,2314.5c-46.4-103.1-83.6-238.9-185.1-301.9c-91.8-56.9-208.5-42.3-304.2-4.6
		c-200.6,79.1-375.9,215.6-540.9,351.5c-186.4,153.4-364,320.3-573.6,442.6c-52.1,30.4-106,58.7-162,81.4
		c-54.5,22.1-112.2,38.2-156.9,78.4c-19.7,17.7-35.4,37.5-48.1,58.7c-74.3,44.4-115,130-103.9,218.8c13.6,108,93.8,190.9,195,222.1
		c23.4,25.6,59,41.8,91,44c20.9,1.4,41.8,0.6,62.5-2c91.2,18.3,167.8-23.7,245.6-73c75.4-47.8,155.2-84.4,240-111.9
		c170.5-55.3,348.7-80.9,524.5-113.2c177.2-32.6,351.7-73.8,515.7-150.4c65-30.4,136-67.5,173-130.8
		c74.4-70.9,126.3-168.5,131.8-271.9C3719.7,2532.1,3656.8,2420.7,3609,2314.5z"/>
	<path class="st4" d="M3530.4,2540.9c-4.9-90.7-11.7-183.9-28.6-273.3c-25.7-136.4-150-241.3-286.3-158.3
		c-143.2,87.2-273.5,210-406.4,312.4c-141.2,108.9-281.9,218.3-423.5,326.5c-147,112.3-291.7,194-468.2,249.3
		c-134,41.9-277.3,179-197.7,323.7c13.1,49.9,57.1,89.5,111.8,88.7c310.2-4.7,586.3-189.2,878.9-272.9
		c148.7-42.5,299.6-78.1,445.5-129.7c129.3-45.6,323.1-101.2,367-249.3C3543.2,2689.7,3534.2,2610.9,3530.4,2540.9z"/>
	<path class="st2" d="M1894.8,3093.5c-16.2-8.7-33.1-7.8-47.7,4.3c-8.5,7.1-9.9,17.6-16.7,25.2c-8.2,9.3-13.5,9.4-25.4,10
		c-33.4,1.8-70.5,8.3-80,46c-7.8,31,40.1,44.2,47.9,13.2c3.7-14.6,48.6-10,60.6-13.1c13-3.4,57.3-31.4,36.3-42.8
		C1897.9,3151.5,1923,3108.6,1894.8,3093.5z"/>
	<path class="st2" d="M2337.1,2846.8c-31.9,0-32,49.7,0,49.7C2369,2896.5,2369.1,2846.8,2337.1,2846.8z"/>
	<path class="st2" d="M2542.3,2828.7c-31.9,0-32,49.7,0,49.7C2574.3,2878.4,2574.3,2828.7,2542.3,2828.7z"/>
	<path class="st2" d="M3278.8,2321.6c-31.9,0-32,49.7,0,49.7C3310.7,2371.3,3310.8,2321.6,3278.8,2321.6z"/>
	<path class="st2" d="M3278.8,2225.1c-31.9,0-32,49.7,0,49.7C3310.7,2274.7,3310.8,2225.1,3278.8,2225.1z"/>
	<path class="st2" d="M3357.2,2273.3c-31.9,0-32,49.7,0,49.7C3389.2,2323,3389.2,2273.3,3357.2,2273.3z"/>
	<path class="st2" d="M3387.4,2363.9c-31.9,0-32,49.7,0,49.7C3419.4,2413.5,3419.4,2363.9,3387.4,2363.9z"/>
	<path class="st2" d="M2983,2973.6c-31.9,0-32,49.7,0,49.7C3014.9,3023.2,3015,2973.6,2983,2973.6z"/>
	<path class="st2" d="M3341.1,2683.8c-7.8,38.2-20.6,55-62,58.3c-22.8,1.8-44.9,1.7-65.6,13.1c-34.5,19-44.5,83.3-80.1,91.4
		c-31.1,7.1-18,55,13.2,47.9c22.3-5.1,37.6-18.3,50.3-37.1c23.3-34.5,27.2-62.2,76-65.4c67.3-4.5,102-26.4,116.1-95
		C3395.3,2665.8,3347.5,2652.5,3341.1,2683.8z"/>
	<path class="st2" d="M3295.3,2833.9c-9.3,19.6-16.7,19.4-36.8,23c-14.4,2.7-24.2,7.4-36.6,15.6c-30.5,20.1-60.4,41.2-90.5,61.8
		c-26.2,17.9-1.4,61,25.1,42.9c34.5-23.5,76-63.7,117.1-69.2c33.5-4.5,49.7-17.8,64.6-49.1C3351.9,2830.2,3309.1,2805,3295.3,2833.9
		z"/>
	<path class="st2" d="M3201.8,2371.3c-83.3,46-166.6,92-249.9,138c-65.9,36.4-150.3,67-204.1,121.1c-31.3,31.5-45.8,70.1-91.3,89.1
		c-32,13.3-71.9,9.8-105.3,22.1c-58.9,21.7-103.1,62.4-136.9,114.5c-17.5,26.9,25.5,51.8,42.9,25.1
		c55.1-84.9,124.6-90.1,212.6-113.8c65.8-17.7,68.5-56.4,113.2-101.9c55.5-56.5,153-90.7,221.8-128.7
		c74.1-40.9,148.1-81.8,222.2-122.7C3254.9,2398.7,3229.9,2355.8,3201.8,2371.3z"/>
	<path class="st2" d="M3284.7,2471.9c-51.2,1.1-99.6,13.9-142,43.3c-17.3,12-30.2,27.5-45.6,41.5c-38.1,34.5-73.5,33.9-119.7,28.7
		c-31.7-3.6-31.4,46.1,0,49.7c45.6,5.2,93.1,7.4,131.7-21.2c18.2-13.5,31-32.8,48.3-47.4c36.5-30.8,80.7-43.8,127.4-44.8
		C3316.6,2520.8,3316.7,2471.2,3284.7,2471.9z"/>
	<path class="st2" d="M1781.7,3281.4c-31.9,0-32,49.7,0,49.7C1813.7,3331.1,1813.7,3281.4,1781.7,3281.4z"/>
	<path class="st2" d="M2734.8,2942.3c-69.5-6.2-113,19-165.3,60.9c-63.4,50.7-151.2,16.3-219.7,68.4c-38.1,29-68.7,60.2-116.4,73.7
		c-37.1,10.5-76.6,11.4-114.7,15.5c-62.4,6.9-116.3,19.2-165.2,60.1c-24.6,20.5,10.7,55.4,35.1,35.1
		c96.6-80.6,243.4-28.8,346.2-106.6c37.7-28.5,65.2-61.7,116.2-67.2c30.1-3.3,59.5,6.1,89.6-3.1c75-23,103.7-95.4,194.3-87.3
		C2766.6,2994.8,2766.4,2945.1,2734.8,2942.3z"/>
	<path class="st2" d="M2142.1,3233.6c-44.5-9.8-69.7,13.4-109.6,28.6c-19.8,7.5-41.2,6.2-60.9,13.4c-42.1,15.4-65.7,43-115.4,27.5
		c-30.6-9.5-43.7,38.4-13.2,47.9c50.6,15.8,83.8,3.8,129.1-18.5c24.1-11.8,51.5-13.2,76.8-23c25-9.7,51-34.5,80.1-28
		C2160.1,3288.4,2173.4,3240.5,2142.1,3233.6z"/>
</g>
<path class="st5" d="M1762.9,2726c112.6-57,235.3-92,348.4-148.1c312.8-155,525.2-455,801.2-668.8
	c105.7-81.9,224.8-152.7,356.8-173.9c58.7-9.4,121.1-8.3,174.5,17.6c86,41.8,130.2,136.7,168,224.5c28.8,67.1,57.7,134.2,86.5,201.3
	c40.6,94.4,81.4,189.5,102.1,290.1c24.8,120,20,245.9-13.8,363.7c-6.8,23.7-15.2,47.9-32.4,65.5c-17.4,17.8-41.6,26.9-65,35.2
	c-259.6,92.1-528.3,157.5-785.2,257c-188.6,73.1-370,164.3-560,233.8c-190,69.5-392.3,117.2-593.8,98.3
	c-16.3-1.5-33.2-3.7-47.2-12.3c-13.9-8.5-23.4-22.4-32.5-35.9c-52.6-78-105.6-157-137.7-245.4c-29.6-81.7-52.6-207.6-12-290.1
	C1567.9,2843.3,1671.2,2772.4,1762.9,2726z"/>
<path class="st5" d="M3709.2,2357.8c-29.9-113.1-75.8-222-135.8-322.4c-51.5-86.2-118.8-194.5-229.2-204.4
	c-58.8-5.3-116.8,15.5-169.1,40.3c-54.6,25.9-105.9,58.2-155,93.5c-97,69.8-187.2,149.2-279.5,225
	c-185.6,152.2-374.5,301.7-578.3,429c-101.3,63.3-206.1,121-315,170.1c-100.2,45.2-218.3,74.1-286.1,167.4
	c-17.2,23.7-31.3,49.4-45,75.2c-0.9,1.7,1.7,3.2,2.6,1.5c28.3-53.1,59.4-103.8,109.6-138.9c45.3-31.6,97.6-50.8,148.3-71.6
	c105.9-43.4,208.3-95.1,307.1-152.8c199.2-116.1,383.7-255.4,563-399.8c90.2-72.7,178.9-147.2,268.8-220.4
	c92-74.9,189.3-149.7,300.9-192.9c56-21.7,119.2-33.8,176.9-11.1c51.6,20.4,90.5,63.4,122.4,107.3c67.8,93,121,197.6,159.6,305.9
	c38.3,107.4,63.9,221.7,68.8,335.8c2.5,58.5-1.3,117.8-15.7,174.7c-13.4,52.6-35.7,106.3-72.6,146.9c-17.8,19.6-39.3,35.4-64.3,44.6
	c-1.8,0.7-1,3.6,0.8,2.9c46.4-17,79.5-55.9,102.4-98.3c26.5-49.2,41.6-104,48.5-159.3C3757.6,2590.1,3738.9,2469.9,3709.2,2357.8z"
	/>
<path class="st5" d="M2735,3243.6c-78.9,5.2-156.1,23.6-231.3,47.4c-75.6,24-149.2,53.5-223.5,81.1
	c-74.1,27.6-149.2,53.6-226.6,70.2c-71,15.2-143.9,22.1-216.3,15.1c-69.6-6.7-138.6-26.3-198.6-62.8c-7.3-4.5-14.5-9.2-21.5-14.1
	c-1.6-1.1-3.1,1.5-1.5,2.6c56.7,39.6,122.9,63.2,191,73.5c69.6,10.5,140.5,7.7,209.7-4.1c78.7-13.4,155.1-37.7,230.1-64.8
	c75.1-27.2,149.2-57.3,224.9-82.9c76.1-25.8,154.2-47.2,234.2-55.7c9.8-1,19.6-1.9,29.4-2.5
	C2736.9,3246.4,2736.9,3243.4,2735,3243.6z"/>
<path class="st5" d="M3666.2,2449.4c-10.1-51-30.5-99.9-60.4-142.5c-16.8-23.8-36-45.7-54.2-68.4c-19.3-24-36.1-49.1-51.2-75.8
	c-26.2-46.3-51.2-94.2-95.8-125.6c-40.6-28.5-90.7-41.8-139.9-42.9c-116.5-2.7-226.2,60.9-320.3,123.1
	c-94.8,62.7-182,135.8-270.4,207.1c-90.9,73.4-183.7,144.5-286.1,201.5c-55.2,30.7-111.9,58.6-166.3,90.6
	c-53.6,31.5-103.4,68.5-154.3,104.2c-51.2,35.9-104.4,67.7-159.9,96.7c-53.4,27.9-107.6,54.5-159.1,85.8
	c-87.5,53.2-170.8,125.3-208.8,223c-8.6,22.1-14.4,45.1-17.3,68.6c-0.2,1.9,2.8,1.9,3,0c13.2-104.5,85.2-190.1,167.3-250.9
	c94-69.6,204.3-112.1,303.8-172.7c51.9-31.6,100.3-68.4,150.2-102.9c49.4-34.2,101.1-64,154.2-92.2c51.9-27.6,104-54.7,153.8-86.1
	c46.9-29.6,91.9-62.1,135.9-95.8c88.2-67.7,172.4-140.5,261.2-207.4c44.2-33.3,89.6-65.2,136.9-94c50-30.5,102.4-58.6,158.3-76.7
	c101.7-32.8,225.4-26.2,297.5,62.3c35.1,43.1,55.4,96,88.5,140.6c33.7,45.5,73.6,85.9,99,137.2c46.5,94.1,52,207.9,14.1,305.9
	c-19.2,49.6-50.9,92.6-76.6,138.8c-11.8,21.3-22.5,43.4-29.3,66.9c-6.4,22-7,43.1-8.1,65.7c-0.9,18.2-3.8,48.7-27.6,49.8
	c-1.9,0.1-1.9,3.1,0,3c16.2-0.7,23.9-13.9,27.4-28.2c5.4-22,2.2-45,6-67.2c9.3-54.1,41.2-100.8,69.1-146.8
	c27-44.6,49.2-90.2,59.5-141.6C3676.3,2552.1,3676.2,2499.8,3666.2,2449.4z"/>
<path class="st5" d="M3555.6,2527.6c-6.1-76.8-25.1-152.5-56-223c-15.8-36-34.7-70.7-56.6-103.3c-21.2-31.7-44.9-63.6-74.3-88.2
	c-26.6-22.2-59.4-37.4-94.7-31.7c-36.6,5.9-66.7,30.9-93.3,55.1c-30.6,27.9-61.1,55.6-93.6,81.4c-33.2,26.3-67.6,51-102.7,74.7
	c-139.9,94.5-290.3,172.4-429.3,268.2c-136.9,94.3-257,209.8-389.1,310.3c-65,49.4-133.1,95.1-206.4,131.3
	c-72.1,35.6-153.6,59.2-213.7,115c-47.7,44.3-81.3,119.2-54.2,183c26.6,62.6,98.1,84.2,160,91.4c43.4,5.1,88.2,6,131.6,1.1
	c43.3-4.9,84.3-18.3,124.1-35.7c41.3-18,81.4-38.8,122.3-57.6c42.5-19.6,85.5-38.2,128.9-55.7c168.8-68.3,343.8-121.1,522.2-157.9
	c152-31.4,311.4-53.9,448.7-130.8c17.6-9.9,34.7-20.7,51.1-32.4c-1.3,1.2-2.6,2.5-3.9,3.7c-1.4,1.3,0.7,3.5,2.1,2.1
	c27.9-27,61.1-47.6,90.3-73c29.8-25.9,50.7-56.7,62.9-94.3C3556.4,2687.2,3561.8,2604.9,3555.6,2527.6z M3552,2642.5
	c-3.6,39.2-10.2,78.9-22.1,116.5c-12.7,39.9-35.2,71.4-67,98.2c-13.6,11.4-27.9,22-42,32.7c-0.4-0.8-1.6-1.2-2.4-0.5
	c-118,102.2-273.5,140.1-422.8,170.5c-81.2,16.5-162.4,32-242.8,52.2c-85.5,21.5-170.1,46.8-253.4,75.7
	c-83.4,29-165.6,61.6-246.1,97.8c-39.8,17.9-78.9,37.2-118.4,55.8c-39.7,18.7-80.6,35.8-123.9,44.2c-45.5,8.8-92.5,8.5-138.5,5.1
	c-34.4-2.6-69.4-8.1-101.4-21.3c-31.8-13.1-60.2-34.9-75-66.6c-15.4-32.9-13-70.9-0.8-104.4c28.1-77.1,100.1-118.8,171.1-150.8
	c36.3-16.3,73.1-31.4,108.5-49.6c35.1-18.1,69.1-38.3,102.2-60c133.4-87.7,249.6-198,374.5-296.8c129.1-102.1,271.6-182.6,411.8-268
	c70-42.6,139.2-86.9,204.4-136.6c31.4-23.9,61.9-49.1,91-75.8c28.4-26.1,56.6-55.8,93.2-70.2c83.2-32.7,147.9,51.9,188.3,112.2
	c42.7,63.6,74,134.7,92.9,208.9C3552.5,2486.9,3559.1,2565.3,3552,2642.5z"/>
<path class="st5" d="M1883.6,3092.4c-13.4-6.5-26.1-0.2-35.2,10.2c-5.3,6.1-9.6,12.9-14.9,18.9c-6,6.8-12.9,12.8-20.6,17.7
	c-7.7,4.9-16,8.7-24.8,11.4c-8.6,2.6-17.4,4.5-25.8,7.8c-14.2,5.5-28.5,17.7-27.6,34.5c0.7,11.9,10.7,19.5,21.5,20
	c-0.8,1.3-1.6,2.7-2.2,4.3c-0.7,1.8,2.2,2.6,2.9,0.8c0.8-2,1.8-3.7,2.9-5.2c2-0.2,4-0.7,6-1.4c1.8-0.7,1-3.6-0.8-2.9
	c-0.4,0.1-0.8,0.3-1.2,0.4c9.2-6.9,23.9-6.8,34.7-7.1c14.6-0.3,29.3-2.7,37.5-16.2c4-6.5,6.2-13.9,9.8-20.6
	c4.6-8.3,11.4-12.4,20.3-15c7-2.1,14.2-3.6,20.2-8.1c5.4-4.1,9.5-9.9,11.4-16.4C1901.9,3112.3,1896,3098.5,1883.6,3092.4z
	 M1888.5,3136c-10.1,11-26.8,8.7-37.8,18.1c-10.2,8.7-11.4,23.3-19.6,33.4c-11.5,14.2-31.6,9.9-47.5,11.6c-9.2,1-18.8,3.9-24.9,10.6
	c-5.3,0.4-10.8-1.1-14.9-4.7c-6.1-5.3-7.1-13.6-4.8-20.9c5.3-16.4,21.7-22.8,36.9-27c14.7-4.1,28.6-8.4,41.2-17.1
	c12.2-8.4,20.8-19.3,29.8-30.8c9.3-12,23.1-22.4,38.1-12.5C1898.8,3105.7,1899.2,3124.3,1888.5,3136z"/>
<path class="st5" d="M1787.2,3295.8c-0.1-0.5-0.6-0.9-1-1c-7.8-1.9-15.6-3.9-23.4-5.8c-1.9-0.5-2.7,2.4-0.8,2.9
	c1.3,0.3,2.7,0.6,4.1,1c-5.5,1.7-10.4,6.5-12.6,12c-2.8,7.1-2.6,15.5-2,23c0.5,5.5,1.8,11.3,6.5,14.8c8.2,6.1,20.5,1.9,26.6-5.2
	C1794.4,3326,1790.4,3308.7,1787.2,3295.8z M1771.8,3341.8c-4.5,1.2-9.8,0.8-13.3-2.7c-4.8-4.9-4.4-13.2-4.4-19.5
	c0-6.7,0.8-14.5,5.6-19.7c4.3-4.6,12-6.9,17.2-2.5c1.2,1,2.8-0.2,2.6-1.3c0.7,0.2,1.4,0.4,2.1,0.7c3.6,1.3,3.5,3.8,4.3,7.3
	c0.7,3.5,1.3,7,1.5,10.6C1788.3,3326.3,1784.3,3338.6,1771.8,3341.8z"/>
<path class="st5" d="M2689.7,2966.3c-24.6,0.6-48.2,9.1-70.4,19.1c-24.6,11.1-48.2,24.5-72.8,35.5c-12.5,5.6-25.2,10.6-38.4,14.2
	c-15.4,4.2-31.2,6.1-47.1,7.6c-15.4,1.5-30.8,2.8-45.9,5.9c-14.4,3-28.1,8.1-41.2,14.9c-26.5,13.6-50,32.3-76.3,46.2
	c-55.6,29.2-119.1,38-181.2,40.1c-30.3,1-61.7,1.2-90.5,12c-22.8,8.6-43.7,25.3-53.8,48c-3.1,7-5,14.5-5.5,22
	c-2.7-8.1-2.2-16.9,3.7-23.8c1.2-1.5-0.9-3.6-2.1-2.1c-8.4,10-7.3,22.6-1.6,33.2c0.1,1.4,0.2,2.7,0.4,4.1c0.2,1.5,2.2,1.8,2.8,0.9
	c3,4,6.6,7.6,10.6,10.2c24.1,16.3,56,1,79-9.9c31.2-14.8,62.5-29.6,93.7-44.4c29.7-14.1,59.2-28.5,89.4-41.5
	c29.5-12.6,59.9-23.7,91.5-29.9c15.9-3.2,32.1-5,48.4-5.4c15.9-0.3,31.9,0.5,47.8-0.2c15-0.7,29.9-2.9,43.9-8.5
	c12.4-5,23.8-12.3,34.6-20.1c23.4-17,44.8-35.4,71.9-46.5c27.1-11.1,56-16.6,84.4-23.5c14.5-3.5,29-7.4,43-12.5
	c10.8-3.9,23.2-8.7,28.8-19.6C2748.7,2968.9,2702.8,2965.9,2689.7,2966.3z M2733.1,2992.5c-7.5,11.9-23.9,16-36.5,20
	c-26.4,8.4-53.7,13.3-80.4,20.5c-26,6.9-50.9,16.3-73.1,31.7c-21.9,15.1-41.5,34-66,45.1c-28.2,12.8-59.3,10.1-89.4,10.3
	c-29.4,0.2-58.3,5.1-86.4,13.4c-59,17.5-114.3,46.9-169.7,73.2c-29.1,13.8-57.9,28.4-87.4,41.2c-24.6,10.7-58.8,18.1-74.7-9.7
	c-1-24.3,13.6-46.3,32.8-60.4c23.2-17.1,52.6-21.9,80.7-23.7c29.8-1.9,59.5-1.9,89.2-5.4c28.3-3.3,56.4-8.9,83.4-18
	c26.8-9.1,51.4-22.1,75.1-37.5c24.3-15.7,48.7-32.4,77.1-39.8c29.1-7.6,59.6-6.6,89-12.6c24.6-5,47.8-15.4,70.2-26.4
	c43.2-21.3,90.9-51.9,141.3-44C2719,2972.1,2743,2976.9,2733.1,2992.5z"/>
<path class="st5" d="M2376.7,2864.2c-3-6.3-10.7-9.4-16.8-12c-18.1-7.7-38-10.4-57.5-8.1c-1.9,0.2-1.9,3.2,0,3
	c15.6-1.9,31.5-0.6,46.5,4.2c7.3,2.3,16.1,5.1,21.9,10.2c6.4,5.6,4.7,14.6-0.9,20.1c-5.7,5.6-14.4,6.8-22.1,7.4
	c-7.7,0.6-16.3,0.7-23.3-3.2c-6.6-3.6-13-12.6-8.9-20.3c3-5.6,11.5-8,16.1-3c1.3,1.4,3.4-0.7,2.1-2.1c-6.8-7.4-19.7-2.5-22,6.7
	c-3.4,13.8,10.9,23.3,22.8,24.8c13.1,1.6,33,0.4,40.6-12.2C2378,2875.1,2379,2869.2,2376.7,2864.2z"/>
<path class="st5" d="M3238.6,2387.5c-0.3-5.8-2.1-11.3-5.2-16.2c-0.4-0.6-1-0.8-1.7-0.7c-67.6,15.1-132.5,41.9-191,78.9
	c-29.7,18.8-56.8,42.1-88.2,58.2c-30.8,15.8-65.3,22.5-96.7,37c-55.5,25.7-89,78.6-132.3,119.3c-24.1,22.7-51.7,39.1-82.7,50.8
	c-31.4,11.9-64.1,19.8-95.8,30.7c-39.1,13.4-81.4,35.2-106.8,69.3c-0.6-0.3-1.4-0.2-1.9,0.5c-4.9,6.6-8.6,13.9-11.1,21.5
	c-1.9,4.2-3.6,8.6-5,13.1c-2,6.3-3.2,12.7-4,19.3c-0.2,1.9,2.8,1.9,3,0c0.5-4.1,1.2-8.1,2.2-12c-0.9,15,2.5,30.3,10.2,43.5
	c0.5,0.8,1.7,1,2.4,0.3c38.4-44.2,93.3-67.2,145.6-90.2c27.2-11.9,54.4-24.1,79.8-39.4c28.5-17.2,54.7-37.9,80.4-58.9
	c26.9-22,53.6-44.2,81.7-64.7c28.5-20.7,57.9-40,87.7-58.6c29.9-18.6,60.3-36.5,90.7-54.2c30.6-17.8,61.1-35.9,92.6-52.1
	c15.9-8.2,32-15.9,48.5-22.7c15.6-6.5,31.7-11.5,47.6-17.3C3212.6,2434.1,3240.1,2417,3238.6,2387.5z M3227.7,2413.4
	c-9,13.2-23.9,20.6-38.5,26.1c-15.5,5.8-31.2,10.5-46.6,16.8c-15.3,6.2-30.4,13.2-45.1,20.7c-31.1,15.7-61.1,33.3-91.2,50.8
	c-29.9,17.4-59.8,34.8-89.3,53c-29.4,18.1-58.5,36.9-86.7,56.9c-27.3,19.3-53.3,40.2-79.1,61.4c-26.2,21.5-52.4,43.1-80.8,61.7
	c-24.8,16.2-51.4,29.2-78.5,41.3c-50.7,22.6-104.6,43-145.8,81.6c-4.7,4.4-9.1,9-13.3,13.8c-9.9-18.2-11.5-39.9-5.1-59.3
	c19.5-42.4,65.7-70.6,108.3-86.3c59.7-21.9,124.7-31.7,175.2-73.1c45.5-37.3,76.8-90.6,127.7-121.7c29.2-17.8,63-25.1,94.5-37.6
	c32.4-12.9,59.5-34,88-53.7c56.5-39.1,119.7-68.4,186.1-86.2c7.9-2.1,15.8-4.1,23.8-5.9C3238.7,2386.3,3235.6,2401.8,3227.7,2413.4z
	"/>
<path class="st5" d="M3306.2,2247.5c-3.6-15-20.6-17.6-33.9-17.8c0.7-1.4-1.2-3.1-2.4-1.8c-0.5,0.6-1,1.2-1.6,1.8
	c-13.3,0.2-32.3,3.6-34.6,19.3c-0.3,1.9,2.6,2.7,2.9,0.8c1.8-12.4,15.6-15.9,26.3-16.8c0.9-0.1,1.9-0.2,2.8-0.2
	c-9.4,11.2-18.2,24.5-13.9,39.6c1.8,6.3,6,12.2,12.2,14.8c7.4,3.1,15.6,0.8,22.3-3C3298.4,2277.2,3309.7,2262.1,3306.2,2247.5z
	 M3291.8,2276.5c-11,9.9-29.7,13.9-36.2-2.8c-6.1-15.6,4.4-29.8,14.3-41.2c10.5-0.4,22.9,0.9,29.6,8.4
	C3309.2,2251.9,3301,2268.2,3291.8,2276.5z"/>
<path class="st5" d="M3387.8,2309.8c-1.1-13.5-13.9-20-25.5-23.1c-4.4-1.2-10.3-2.6-15.8-2.8c0.3-0.7,0.7-1.4,1-2.1
	c0.8-1.7-1.8-3.3-2.6-1.5c-0.6,1.2-1.2,2.5-1.7,3.7c-5.5,0.5-10.3,2.7-12.6,8.4c-0.7,1.8,2.2,2.6,2.9,0.8c1.5-3.7,4.5-5.5,8.3-6.2
	c-2.9,6.2-5.8,12.4-8.7,18.6c-1.9,4-4,8-5.7,12.2c-0.9,2.3-1.6,4.6-0.5,7c2.2,4.4,8.4,4.2,12.5,4.2c8.5-0.1,17,0.1,25.5-0.4
	C3375.9,2327.8,3388.9,2323,3387.8,2309.8z M3377,2322.9c-5.8,2.7-12.6,2.7-18.8,2.8c-7.2,0.1-14.6,0.6-21.8,0.2
	c-1.4-0.1-3.9-0.1-5.1-1.1c-3.4-2.9-0.6-7.2,0.7-9.9c1.6-3.5,3.3-7,4.9-10.4c2.8-5.9,5.6-11.9,8.3-17.8c7.6-0.2,16.7,2.8,21.6,4.5
	c7.2,2.5,14.2,6.8,17,14.3C3386.4,2312.5,3383.9,2319.7,3377,2322.9z"/>
<path class="st5" d="M3280.5,2322.6c-10.9-2.4-27.4,4.5-24.3,17.8c0.2,0.8,0.7,1.1,1.3,1.1c-3.8,5.5-5,12.8-3.4,19.5
	c2.8,11.9,14.6,17.9,26.2,15.8c12.4-2.3,21.9-12.7,21.7-25.5C3301.8,2339,3293,2325.5,3280.5,2322.6z M3293.9,2366
	c-8,9.2-24.8,12.1-33.2,1.9c-7.7-9.3-4.8-26.2,6.8-30.9c1.8-0.7,1-3.6-0.8-2.9c-3.1,1.2-5.6,3.1-7.6,5.5c-1.5-6.8,4-11.5,10-13.4
	c6.3-2,12.8-1,18.1,2.9C3298.5,2337,3303.6,2354.8,3293.9,2366z"/>
<path class="st5" d="M3400.3,2363.9c-9-7.9-23.2-6.6-31.5,1.6c-1.4,1.4,0.8,3.5,2.1,2.1c7.8-7.7,21.7-8.3,29.1,0.3
	c5.8,6.7,7.9,23.4-2.7,26.4c-8.8,2.5-20.8,1.1-25.7-7.6c-4.7-8.2,3.8-23.5,14-18.8c1.7,0.8,3.3-1.8,1.5-2.6
	c-8.2-3.8-16.1,2.2-18.9,10c-3.3,9.2,2,17.7,10.7,21.2c7.8,3.1,22.1,3.7,26.4-4.9C3409.9,2382.6,3408,2370.5,3400.3,2363.9z"/>
<path class="st5" d="M3377.9,2691.4c-7.5-6.2-19.4-5.4-27.9-2c-9.2,3.6-16.8,10.3-23.9,17.1c-8.3,7.8-16.1,16.4-25.5,22.9
	c-10.5,7.3-22.2,9.8-34.7,11c-11.5,1.1-23.5,1.3-34.5,5.3c-10.8,3.9-18.3,11.6-23,22.1c-5.5,12.4-8.9,25-17,36.2
	c-8,11.2-18.7,20.5-30.8,27c-19.5,10.5-54.9,11.2-58.2,39.2c-0.6,5.1,0.6,9.9,3.7,14c0.8,1.1,2.4,0.6,2.8-0.3
	c0.9,9.7,3,19.3,6.2,28.6c0.3,0.8,1,1.2,1.8,1c48.9-10.8,74.7-59.8,110.8-89.8c39-32.4,90.5-44.8,128.9-78
	c8.8-7.6,18-16.6,23.2-27.2C3384,2710.1,3386.2,2698.3,3377.9,2691.4z M3378.5,2714.2c-4.3,11.1-13.7,20.3-22.4,28.1
	c-35.8,31.9-83.9,44.7-122.2,72.9c-20.7,15.3-37,35.3-54.7,53.8c-17.3,18.2-36.7,35.4-61.7,41.3c-5.1-15.4-7-31.4-5.8-47.6
	c0.1-1.9-2.9-1.9-3,0c-0.5,6.7-0.4,13.5,0.1,20.1c0-0.1-0.1-0.1-0.1-0.2c-8.9-11.8,0.9-26.9,11.8-33c11.3-6.4,24.5-8.1,36.2-13.4
	c20.9-9.5,38.1-27,47.1-48.1c5.2-12.1,7.7-26.4,19-34.7c9.3-6.8,21.3-8.1,32.4-9.2c10.9-1,22-1.5,32.4-5c9.2-3.1,17-8.8,24.2-15.2
	c14.2-12.6,28.5-32.9,49-34.2c6.4-0.4,14.1,0.8,17.8,6.7C3381.9,2701.9,3380.6,2708.7,3378.5,2714.2z"/>
<path class="st5" d="M2998.1,2985.7c-6.8-6.7-15.8-9.1-25-9c0.9-0.8,1.9-1.6,2.9-2.3c1.6-1.1,0.1-3.7-1.5-2.6
	c-2.1,1.5-4,3.2-5.8,5.1c-5.2,0.5-10.3,1.6-15.1,3.1c-1.8,0.6-1,3.5,0.8,2.9c3.7-1.2,7.6-2.1,11.6-2.7c-4.5,6.2-7,13.8-6.6,21.5
	c0.6,11,7.6,20,18.3,22.8c9.1,2.3,20.1,0.1,25.6-8C3010,3006.7,3006,2993.5,2998.1,2985.7z M2992.5,3021c-11,4.1-24.5-0.9-28.7-12.1
	c-3.8-10-0.6-21.2,6.2-29.2c9.9-0.7,19.8,1.4,26.9,9C3005.9,2998.5,3006.7,3015.8,2992.5,3021z"/>
<path class="st5" d="M3324.2,2840.4c-0.2-2.2-0.5-6.1-2.1-7.8c-1.6-1.6-6.1-1.3-8.2-1.4c-15.7-0.7-30.5,6.4-42.7,15.8
	c-26.3,20.2-40,52.6-67.1,72c-16,11.4-36.4,14.3-52.3,25.8c-10.8,7.8-19.6,20.8-17.9,34.2c-2.8,1.9-5.5,3.8-8.3,5.7
	c-1.6,1.1-0.1,3.7,1.5,2.6l7.4-5.1c0.2,0.8,0.4,1.6,0.7,2.4c0.6,1.8,3.5,1,2.9-0.8c-0.4-1.1-0.7-2.3-0.9-3.4
	c30.4-21.1,60.9-42.2,91.3-63.3c16.1-11.2,31.9-23.4,49.3-32.5c14-7.4,31.3-11.9,40.8-25.5C3322.2,2853.6,3324.7,2847,3324.2,2840.4
	z M3313.3,2860.6c-10.6,11.8-27.8,15.8-41.2,23.5c-15.5,8.8-29.8,19.6-44.4,29.8c-30.3,21-60.7,42-91,63.1
	c-0.8-13.3,9.4-25.6,20.5-32.2c13.4-8,29-11.4,42.4-19.4c25.7-15.1,39.5-42.4,59.5-63.4c10.8-11.4,23.9-21.7,39.2-25.9
	c3.6-1,7.2-1.6,11-1.8c1.8-0.1,3.6-0.1,5.4,0c3.2,0.2,5.2,0.4,6.2,3.8C3323.1,2845.8,3318.4,2855,3313.3,2860.6z"/>
<path class="st5" d="M2128.9,3259.1c-5.3-0.7-10.9,0.3-16.2,0.8c-7.1,0.7-14.2,1.3-21.3,2.2c-13.1,1.5-26.1,3.3-39,6
	c-25.6,5.4-48.9,14.8-71.1,28.5c-12.7,7.8-25.5,16.1-40,20.3c-12.8,3.6-26.3,3.5-39.4,2.9c-18.8-0.9-39.2-3.2-57.1,2.9
	c-3.6-4.5-10.1-5.2-15.5-3c-7.9,3.2-10.5,11.7-7.8,19.4c3.4,10,13,15.5,23,17.4c12.8,2.4,26.7,1.7,39.6,1.6
	c13.2-0.1,26.5-0.8,39.5-3.3c13.1-2.5,25.5-7,37.6-12.5c25.2-11.3,48.9-24.7,75.8-31.9c25.3-6.8,51.5-10.6,76-20.3
	c8.6-3.4,22.6-7.8,26.6-17.1C2143,3265.1,2135.9,3259.9,2128.9,3259.1z M2134.9,3274.7c-3.7,4.3-9.5,6.7-14.5,9
	c-5.6,2.6-11.4,4.8-17.2,6.8c-10.9,3.7-22.1,6.4-33.4,9c-22.2,5.1-44.5,9.8-65.5,18.9c-21.8,9.4-42.3,21.9-65,29.2
	c-26.6,8.6-55.4,8.2-83,7.1c-12.6-0.5-28.8-3.4-32.5-17.7c-1.5-5.8,0.3-11.7,5.9-14.3c4-1.8,8.9-1.8,11.9,1.2c-4.3,1.7-8.4,4-12.3,7
	c-1.5,1.2,0,3.8,1.5,2.6c4-3,8.2-5.3,12.7-7.1c0.8,1.1,2.5,0.3,2.6-0.9c13.6-4.6,28.8-4.1,43.3-3.3c20.4,1.1,41.1,2.6,60.6-5.1
	c20.5-8.1,37.7-22.4,57.6-31.6c21.6-9.9,45-15.1,68.4-18.5c12.2-1.8,24.5-3,36.8-4.1c4.9-0.5,10-1.3,15-0.9
	C2134.6,3262.5,2140.7,3267.9,2134.9,3274.7z"/>
<path class="st5" d="M2557.2,2848.6c-9.2-9.7-25.6-10.3-35.5-1.6c-1.2,1,0,2.6,1.2,2.5c-1.2,1.1-2.3,2.4-3.3,3.8
	c-7.4,10.4-3.4,24,6.6,31.1c10.3,7.4,23.9,5.8,31.5-4.4C2564.6,2870.8,2565.4,2857.2,2557.2,2848.6z M2546.6,2884.9
	c-13.2,5.1-29.3-7.4-27.9-21.4c1.3-13.2,17.3-21.7,29-16.2c0.9,0.4,1.7,0,2-0.7c2.9,1.6,5.5,3.8,7.4,6.6
	C2564.1,2864,2558.3,2880.3,2546.6,2884.9z"/>
<path class="st5" d="M3276,2483.4c-6.8-1.3-13.9-1.5-20.8-1.3c-57.6,2.3-102.4,45.2-147.5,75.8c-25.9,17.6-54.8,33.7-86.6,36.2
	c-8,0.6-15.8-0.1-23.8-0.3c-6.7-0.2-14.2,0.2-20,4c-1.3,0.8-2.4,1.9-3.5,3c-3.9-0.8-8.2,0.5-11.6,3c-8.2,6.3-6.1,17.3-0.4,24.5
	c15.2,19.3,44.9,20.7,66.9,15.7c26.8-6.2,49.1-22.7,70.5-39.3c11.4-8.8,22.7-17.7,34.8-25.4c13.3-8.4,27.5-15.4,41.7-22.3
	c14.8-7.2,29.7-14.4,44.5-21.5c14.2-6.9,29.4-13,43-21c7.8-4.6,18-12.7,17.9-22.7C3281.1,2488.2,3279.8,2484.1,3276,2483.4z
	 M3275.1,2500.2c-6.9,10.1-19.1,14.7-29.6,19.8c-12.8,6.2-25.6,12.4-38.4,18.6c-24.5,11.9-49.8,22.8-73,37.2
	c-21.3,13.2-39.8,30.2-60.4,44.2c-21.9,14.9-48,26.4-75.1,23.2c-13-1.5-28.5-7.1-35.9-18.7c-3.4-5.4-4.7-12.7,0.4-17.4
	c2.2-2.1,5.6-3.5,8.6-3.5c-3.6,5.7-4.4,13.1,0.7,18.3c1.3,1.4,3.5-0.7,2.1-2.1c-4.3-4.4-3-10.8,0.3-15.4c1.1,0.5,2.1,1.4,2.9,2.6
	c1,1.6,3.6,0.1,2.6-1.5c-0.9-1.5-2.1-2.6-3.4-3.4c4.5-4.2,10.9-5.2,16.9-5.3c11.5-0.2,22.7,1.2,34.2-0.4c23-3.2,44.5-13,64.2-24.9
	c42.3-25.4,78.2-61.7,125.4-78.6c11.8-4.2,24.2-7.1,36.8-7.7c6.2-0.3,13-0.4,19.1,0.9c3.3,0.7,4.6,2.3,4.7,5.8
	C3278.2,2494.9,3276.8,2497.7,3275.1,2500.2z"/>
<g>
	<path d="M2268.5,663.2c15.1-15.5,43.9-16.3,59.8-7.7c11.4,6.2,23.1,11.9,34.5,18.1c2.2,1.2,4.8,4,5.1,6.4
		c2.9,22.9,5.9,45.8,7.8,68.9c2.3,28.2,3.6,56.6,7.8,85.5c1.8-2.5,3.8-4.9,5.3-7.6c21.8-38.9,49.3-73.3,83.8-101.4
		c16.1-13,34-24.4,52.6-33.5c13.5-6.6,29.4-8.4,44.3-12.1c5.1-1.3,10.5-2,15.7-2.7c3.3-0.4,7-1.4,9.9-0.3
		c10.2,3.6,20.3,7.9,30.3,12.2c1.7,0.8,3.9,3.1,3.9,4.8c0.1,4.6,2.9,5.3,6.3,6.5c3,1,6.6,2.7,7.9,5.2c2.1,3.8,6.7,7.8,2.5,13.2
		c-3.8,4.9-7.9,1.4-11.9,0.5c-1.4-0.3-2.9,0-5.5,0c-0.9,3.1-2,6.5-3.1,10.2c-10.5,3.7-21.5,6.4-32.4,3.2
		c-12.7-3.8-20.4,4.1-27.5,11.1c-9.8,9.6-18.4,20.3-29.2,29.2c-7.7,6.3-14.1,14.8-19.1,23.5c-7.6,13.4-13.5,27.8-20.2,41.7
		c-4.5,9.2-9.4,18.1-13.9,27.3c-8.6,17.6-16,35.9-11.2,55.9c3.4,13.9,8.2,27.6,13.6,41c2.3,5.6,8.3,7,15,6.2
		c32.1-3.7,62.5-13.2,92.1-25.9c11.9-5.1,25.1-8.8,35.2-16.4c7.5-5.7,17.5-7.9,23.2-16.9c3.2-5.1,11.4-6.8,17-10.6
		c7.1-4.9,14.2-9.8,20.6-15.6c11.4-10.4,22.2-21.3,33.4-32.2c3.1,2.2,5,3.5,7.7,5.4c0.5-2.1,1.1-3.8,1.2-5.6
		c2.1-50.9,4.2-101.9,6-152.8c0.6-15.5,0.4-31.1,0-46.7c-0.3-10.6-0.6-21.4-2.6-31.8c-4.3-22.7,9.8-35.8,32-36.3
		c18.7-0.4,33.4,9.2,46.9,20.5c3.6,3,4.6,9.1,7.2,14.7c2.7-0.3,6.3-0.7,9.5-1c1.1,1.5,2.2,2.2,2.2,3c-0.2,17.3-0.8,34.6-0.8,51.8
		c0,6,1,11.7,3.6,17.8c3.2,7.8,1.7,17.8,1.8,26.8c0.2,10.5,0,21,0,32.4c3.1-0.5,5.3-0.3,6.7-1.3c18.1-12.9,36.6-25.4,54.1-39.1
		c36.2-28.2,77.6-47.3,117.3-69.4c5.9-3.3,12.2-6.4,17.3-10.7c6.1-5.2,12.9-6.3,20.3-6.3c26.7-0.1,46.2,15.1,51.5,41.2
		c-4.2,0.4-8.2,0.7-9.1,0.8c-6.4,5.6-10.1,10.5-15.1,13.1c-15.1,7.7-31,13.8-45.9,21.7c-8.8,4.7-16.2,12-24.8,17.2
		c-14,8.6-28.7,16-42.7,24.7c-12.7,8-24.5,17.5-37.2,25.5c-28.2,17.9-47.2,45.5-71.5,67.6c-7,6.3-13.6,15-16.1,23.8
		c-2.5,8.6-1.4,19.3,1.6,27.9c2.4,7.1,8.8,14.4,15.3,18.3c10.3,6.1,21.9,10.8,33.5,13.6c36.9,9,74.6,12.7,112.3,16.4
		c24.6,2.4,49.2,5.7,73.8,8.6c18.8,2.2,37.6,4.4,56.4,6.6c16.4,1.9,32.6,4.9,48.2,12.9c0.4,3.5,0.7,7.2,1.2,11.1
		c-1.5,0.7-2.7,1.5-4,1.9c-3.2,1.1-7.5,1-9.5,3.1c-12.2,13.1-27.8,13.1-43.2,10.8c-8-1.2-15.4,1.4-22.8,0.7
		c-29.3-3-58.6-7.1-87.9-10.5c-4.6-0.5-9.4,0.9-14,0.6c-9.6-0.6-19.1-1.8-28.7-2.8c-1.9-0.2-4.3-1.2-5.7-0.4
		c-11.9,6.3-23.9,0.9-35.6-0.2c-12.6-1.3-24.7-6.3-37.2-9.3c-5-1.2-10.4-1-15.3-2.4c-13-3.7-25.8-7.8-38.6-12
		c-3.6-1.2-6.8-3.4-10.9-5.6c-3.2,2.8-6.8,6-10,8.8c0,5.1,0.2,9.7,0,14.3c-0.2,4.3-0.9,8.5-1.2,12.8c-0.1,1.4,1,3.2,0.5,4.3
		c-8,18.1-3.7,37.8-7.6,56.4c-2.2,10.4-7.6,18.5-14,24.4c-6.1,1-10.9,2-15.8,2.5c-3.8,0.4-7.7,0-11.5,0c-3.7,0-7.7-0.6-11.2,0.4
		c-5.7,1.6-10.4,1.3-14.4-3.4c-0.3-0.4-0.7-0.8-1.1-0.9c-15.8-3.4-15.8-15.8-15.7-28c0.2-42.2,0.5-84.5,0.6-126.7
		c0-7.2-0.6-14.4-3.6-22.8c-3.4,5.8-6.6,11.7-10.1,17.5c-2.5,4.1-4.9,8.4-8.1,12c-10.1,11.7-21.4,22.4-30.1,34.9
		c-2.8,4.1-4.4,10.5-7.2,15.6c-1.5,2.9-3.5,7.2-5.9,7.8c-15.3,3.4-25.7,17.9-42.2,18.5c-2.8,0.1-5.6,1.5-8.3,2.6
		c-23.2,9.5-47.4,12.5-72.2,13.3c-14.5,0.5-28.9,2.5-43.4,3.6c-4.3,0.3-9.5,1.2-12.8-0.6c-13.1-7.4-27.7-8.6-42-10.5
		c-9.5-1.3-13.6-11.3-24.5-10.8c-8.4,0.4-17.2-5.5-25.6-9c-2-0.8-3.5-3.2-5-5c-4.3-5.1-8.5-10.3-14.4-17.6
		c-2,17.7-3.6,32.8-5.2,46.7c-5.1,5-9.7,9.6-14.4,14c-4.2,3.9-8.5,6.7-15,7.6c-9.5,1.3-19,0.9-28.2,2.3
		c-11.4,1.8-18.2-1.6-24.5-10.1c-2.8-3.8-6.9-6.6-10.3-9.7c-16.5,4.2-32.2,8.9-48.3,12c-9.7,1.9-20,1.4-30,1.7
		c-16.9,0.6-33.7,1.4-50.6,1.4c-6.2,0-12.4-2.2-18.7-2.7c-6.7-0.5-13.4-0.1-20.5-0.1c-3.2,8-5.8,14.7-8.5,21.4
		c-2.6,6.3-1.5,13.8-10.4,17.5c-6.7,2.8-12.1,5.9-20.1,5.8c-9.7-0.1-20.1,0.2-28.3,8.6c-4.4,4.4-11,6.2-16.7-0.1
		c-1.4-1.6-4.5-3.2-6.3-2.7c-13.1,3.1-17.1-5.9-21-15.1c-9.5-22-15.5-45-18.8-68.6c-7.2-51.7-7.7-103.4-4.1-155.5
		c2.7-39.8,8-79.2,14.6-118.5c0.3-1.8,0-3.8,0-7.2c-38.5,0.1-76.1,7-113.5,8.5c-2.3,5.3-4.3,9.8-6.1,14.4c-0.6,1.7-1.1,3.9-0.6,5.6
		c13.3,41.2,10,84.2,13.6,126.5c1.5,17.9,2.9,35.8,4.3,53.7c1.4,17.4,2.6,34.9,4.1,52.3c0.5,5.7,1.2,11.6,2.7,17.1
		c2.6,9.4,4.5,18.6,1,28.5c-2-1.3-3.9-2.5-4.8-3.1c-10.3,9.5-20.3,18.7-31.4,28.9c-10.4-4.6-23.2-0.8-35.9-6.2
		c-9.2-3.9-13.7-9.1-15.6-16.6c-5.3-20.7-10.6-41.5-13.4-62.6c-4.4-33.7-6.9-67.6-9.8-101.5c-1.1-12.5-0.9-25-1.3-40.8
		c-9.6,7.3-18.1,11.9-24.2,18.6c-7.9,8.8-17.8,13.1-28.2,17.1c-16.8,6.4-16.8,7.2-17,25.6c-0.4,39.8-1.2,79.6-1.9,119.4
		c0,2.4,0.5,5.9-0.9,7c-11.1,9.6-7.8,23.3-8.7,34.9c-1.4,19.2-9.7,31.3-27.5,37.3c-10.8,3.7-21.6,7.5-32.6,10.4
		c-6.7,1.7-13.8,3-20.6-1.2c-9.3-5.7-11.6-10.8-10.7-21.5c2.7-30.4,5.8-60.8,7-91.3c1-25.2-0.4-50.5-0.7-75.7c0-2.8-0.6-5.7-1-8.8
		c-10.9-4.7-20.3,1.6-29.9,3.1c-22,3.3-43.8,8.3-65.6,13.1c-11,2.4-13.4,1.4-16.4,16.3c-2.2,11,0.9,22.8-5.3,33.1
		c-0.9,1.6,0.6,4.6,0.9,7c0.5,4.7,2.4,9.7,1.2,13.9c-2.9,10.2-2.3,20.4,0.3,29.9c4.8,17.3-6.8,26.5-16.3,36.5
		c-2.4,2.5-8.9,1.3-14.3,1.8c-2,3-4.4,6.6-5.6,8.5c-8.7,2.4-15.5,4.4-22.4,6.1c-1.6,0.4-4.2,0.4-5.2-0.6c-3.6-3.8-7-1.7-10.7-0.5
		c-12.8,4.3-15,3-17.3-10.3c-1.5-8.7-1.2-16.9,2.7-25.5c3.7-8.2,5.1-17.6,6.5-26.7c3.1-20.2,5.6-40.4,8.2-60.6
		c0.4-2.9,0.3-5.8,0.5-8.9c-6.6-4-13-8-19.5-11.8c-14-8.2-15-27.6-1.4-36.1c7.4-4.5,15.5-8,23.6-11.2c11.6-4.6,11.7-4.3,11.1-18.7
		c-3,1.2-5.8,2.3-8.7,3.3c-1.5,0.5-4.4,0.4-4.4,0.8c-1.5,13.6-15,13.6-22.9,17.1c-20.7,9.1-42.7,15.4-64.5,21.7
		c-16,4.6-16.5,4-15.7,21.7c0.5,11.6,1.5,23.1,2.1,34.7c0.2,3.4,0.5,7-0.4,10.1c-5.5,18.2-2.3,36.4-0.8,54.6
		c0.7,9.2-0.7,18.5,0.1,27.6c0.8,9.6,2.8,19.1,5,28.5c2.3,10.2,1.7,12-6.8,18.2c-8,5.9-15.1,12.8-26.8,10.3c-3.1-0.7-7.6,3.4-10.9,6
		c-10.7,8.1-18.2,8.5-29.1,1.5c-11.9-7.6-20.7-16.5-22.2-31.9c-3.1-31.4-7.9-62.6-11.2-93.9c-2.2-20.3-2.8-40.7-4.7-61
		c-1.1-12.3-2-12.9-14-13.1c-15-0.1-30.1-0.9-44.9,0.8c-11.7,1.3-18.1-5.9-25.1-11.9c-5.1-4.4-2.5-15.1,5-18.4
		c9.2-4,19.2-6.9,29.1-8.3c13.9-2,28-2.1,42.1-3.1c1.3-0.1,2.6-1.2,4.4-2.2c0-5.6,0.4-11.3-0.1-17c-3-41.1-6.2-82.2-9.2-123.3
		c-1.1-15-2.1-16.1-16.5-19.1c-28.1-5.9-56.3-10.5-85.2-9.6c-8.2,0.2-16.5-1-24.6-2.4c-15.4-2.7-17.8-10.5-13.8-25.9
		c4.8-18.4,17.1-23.9,33.5-25.7c35.1-4,69.9-0.6,104.4,5.7c29.1,5.3,57.9,12.3,86.4,20c18.2,4.9,35.8,12.2,53.5,18.9
		c21.3,8.1,42.4,16.6,63.5,25c2.7,1.1,5.6,2,7.7,3.8c17,14.2,37.1,24.8,51.1,42.8c0.3,0.3,0.9,0.4,4.1,3.5c0.8-2.3,1.6-4.6,2.6-6.8
		c7.6-18.3,16.3-35.8,27.9-52c14.5-20.3,32.6-36.4,52.6-51.2c24.1-17.8,50.2-19.9,77.2-12.8c17.9,4.7,35.9,11.1,50.7,23.6
		c10.8,9.1,22.6,14.2,37.9,13.2c47.9-2.9,96-3.6,144-6.2c40.7-2.2,81.3-5.6,121.9-9.1c7.5-0.6,14.8-3.9,22-6.5
		c22.1-8.1,43.2-4,63,6.5c8.6,4.6,14.9,6.6,23.7,0.2c12.2-8.9,25.4-16.5,38.7-23.9c4.8-2.7,10.9-4.3,16.5-4.4
		c30-0.8,58.7,5.1,86.7,16.2C2247.3,645.9,2259.1,651.6,2268.5,663.2z M2262.4,769c1-4.2,7.6-7.4,1.7-13.4
		c-3.4,0.7-7.3,1.5-13.2,2.6c2.7,3.2,4.1,5.1,5.8,6.6c1.9,1.7,4,3,6,4.5c-7.7-0.3-9.2,5.2-11.1,11c-2.6,7.7-4.7,16.2-16.1,15.1
		c-1.3-0.1-4.7,6.4-4.4,6.6c6.3,5.4,1.3,9.8-1.2,13.9c-4.3,6.9-8.8,13.8-14.1,20c-3.5,4.1-8.4,9.9-12.7,10
		c-7.2,0.1-10.8,3.7-14.2,8.2c-5.6,7.2-11.3,14.2-13.1,23.9c-1,5.3-4.9,10.5-8.8,14.7c-10.2,11-21.3,21.1-31.5,32
		c-4.1,4.4-6.5,10.2-10,15.2c-1.6,2.3-3.5,4.5-5.7,6.3c-3.5,3-7.7,5.2-10.8,8.6c-5.9,6.4-5.7,6.6-16,3.1c0.7,5.3,1.3,10.2,2,15.9
		c5,1.1,9.6,2.9,14.3,3.1c19.4,0.9,38.8,2.5,58.1,1.5c30-1.6,60-4.9,88.5-16c17-6.6,18.4-8.6,18-26.8c-1.1-45.6-2.5-91.2-3.7-136.8
		c-0.2-8.1,0-16.2,0-25.6c-4.4,2.7-6.8,4.1-10.6,6.4C2261,774.7,2261.8,771.9,2262.4,769z M1612.4,824.2c0.3-3.6,0.8-6.5,0.6-9.3
		c-1.4-26.1-2.6-52.2-4.7-78.3c-1-12.5-3.5-24.9-6.5-37.1c-1.2-5-5.4-9.4-9.5-16.1c-44.7,45.3-68.7,97.7-80,156.8
		C1523,843.4,1579.6,834.1,1612.4,824.2z M2090.5,865.7c1.5,0.9,2.9,1.8,4.4,2.7c1.4-2.6,2.5-5.5,4.4-7.7
		c18.8-21.6,37.5-43.2,52.7-67.6c15.9-25.6,31.2-51.5,37-81.6c1.2-6.3,0.7-13.5-1-19.7c-0.9-3.1-6.6-7.4-9.4-6.9
		c-7.4,1.3-16.1,3.1-21.2,8c-12.3,11.8-26.5,22.4-32.6,39.7c-1.2,3.4-5.6,7.7-8.9,8c-6.6,0.6-7.4,5-9.7,9.2
		c-8.2,15.3-12,44.7-13.3,61.2c-0.8,10.2-1.8,20.3-2.2,30.5C2090.3,849.4,2090.5,857.5,2090.5,865.7z M1321.4,847
		c28-4.6,52.4-20.1,69.5-43.9c9.9-13.7,10.4-15.6-2.6-26.2c-11.5-9.4-24.3-17.6-37.3-24.9c-11.2-6.3-23.6-10.6-38.1-16.9
		C1315.9,774.1,1318.6,810.5,1321.4,847z M1781.7,789.8c0-14.6,0-24.6,0-34.6c0-10,0-19.9,0-29.7c-20.6-3.3-71.2-1.8-80.9,2.6
		c0.4,4.9-1.2,11.9,1.6,14.9c8,8.7,2.8,18.3,5.1,26.8c-3.3,1.4-5.6,2.3-10.4,4.3c12.7,4.6,10.7,12.9,8.6,20.6
		c9.1,5.1,16.2,2.5,24.4-0.4C1745.9,788.8,1760.5,774,1781.7,789.8z M2095.1,1037.7c1.1-3.4,2.3-5.2,2.1-6.8c-0.3-2-1.6-4-3-5.5
		c-0.4-0.5-3.5,0.2-3.6,0.9c-0.6,1.9-0.8,4.3-0.2,6.1C2090.9,1034.1,2092.8,1035.3,2095.1,1037.7z M1778.4,808.5
		c2.2-4.9,4.6-9.8,0-14.4C1778.4,798.9,1778.4,803.7,1778.4,808.5z"/>
	<path d="M1015.8,1301.6c-20.7-3.2-40.6-1.4-59.5,4.8c-20.2,6.6-40.5,9.5-61.5,7.8c-14.5-1.2-19.7-10.2-16.5-24.2
		c3-13.2,11.5-21.4,22.5-26.8c9.9-4.9,20.7-8.9,31.5-10.7c22.4-3.8,45.2-5.8,67.8-8.6c4.3-0.5,8.6-0.9,14.5-1.5
		c0.2-12,0.5-23.5,0.5-34.9c0.1-18.7,8-32.4,25.7-37.4c9.8-2.8,21.1-0.4,29,7.8c3.3,3.4,5.5,6.7,10.7,3.4c0.9-0.6,2.8,0.2,4.2,0.5
		c3.7,0.8,22.4,22.5,22.7,26.4c0.8,11.5,2.3,23.1,2.1,34.6c-0.2,9.6,4.2,14.3,12.5,16.9c13.4,4.3,26.7,8.9,40.1,13.1
		c27.8,8.7,55.5,17.6,81.1,32.2c6.3,3.6,13.6,5.3,20.1,8.5c36.1,17.8,70.6,38.2,101.9,63.8c5.6,4.6,10.9,9.7,15.8,15.1
		c4.8,5.3,9.8,6.8,16.8,5.2c13.7-3.2,27.5-6.1,41.4-8.1c7.4-1.1,11.3-4.6,13.5-11.2c0.7-2.3,2-4.6,2.3-6.9
		c4.5-34.6,22.5-64,39.2-93.2c13.6-23.8,33.7-43.4,58.2-57.4c6.2-3.6,11.9-8.8,18.5-10.9c17.2-5.5,35.1-6.8,52.8-2.2
		c13,3.4,25.8,7.7,38.5,12.2c16.2,5.6,25.1,18.3,28.3,34.2c5.9,28.4,10.7,56.9,15.5,85.5c2.1,12.4,3,24.9,4.4,37.4
		c0.2,1.8,0.8,3.6,1.3,5.9c2.6,0.6,4.9,1.5,7.3,1.7c26.7,1.6,53.3,3,80,4.6c13.1,0.8,26.2,1.6,39.2,3.2c7.2,0.9,13.7,4,18.7,10
		c2.8,3.4,7,5.6,10.9,8.6c-5.3,7.5-16.9,9.8-17.9,21c-8.6,2.9-17.1,7.8-25.9,8.3c-22.7,1.4-45.6,1-68.4,0.9
		c-13.1-0.1-26.1-1.1-40.7-1.7c-1.3,5.3-3.1,10.2-3.6,15.2c-2.2,26.1-3.9,52.1-6.1,78.2c-1,11.5-1.7,22.8-9.7,32.9
		c-3,3.8-0.5,11.8-0.5,18.4c-4,2.1-9.1-4-12.3,2.5c-1.4,2.7-6.3,4-9.9,5.2c-7,2.5-15.9,1.4-19.1,10.8c-0.3,0.9-2.5,1.8-3.7,1.8
		c-14.2-1-28.9,2-42.2-5.1c-2.5-1.4-5.1-4.8-5.5-7.6c-0.9-6.2-1.8-12.9-0.4-18.8c6.7-28.1,6.3-56.7,6.7-85.2
		c0.2-14.1,1-28.1,1.3-42.2c0.1-2.3-0.7-4.7-1.4-8.2c-28.2-0.6-56-2.2-84.3,3.7c0,5.8,0,10.4,0,16.1c-3.7-1.1-6.3-1.9-8.8-2.6
		c-0.5,0.8-1.5,1.5-1.5,2.2c0.3,9.5-2.2,19.2,3.3,28.3c1.8,3-0.9,24.2-0.4,29c1.1,9,1.6,19.5,6.5,26.4c6.9,9.6,5.8,16.6-0.2,24.9
		c-0.8,1.1-1,2.7-1.6,4.3c2,3.6,4,7.2,6.7,12.1c-11.5,1.1-18.6,11.4-30.4,9.2c-1.9-0.4-4.4,3.3-6.9,4.8c-6.2,3.7-12.4,8-20.2,4.3
		c-0.8-0.4-2.4-1-2.6-0.8c-7.1,9.2-15.6-1.5-23.6,1.8c-5.6,2.4-8.5-3.6-9.8-8.3c-1-3.6-0.5-7.5-0.5-11.3c-0.1-15.5-0.5-31-0.2-46.5
		c0.5-21.3,1.4-42.6,2.3-63.9c0.3-6.6,0.9-13.2,1.6-22.1c-9.8,1.6-17.8,2.3-25.5,4.4c-2.4,0.7-5.4,4.7-5.6,7.4
		c-0.9,11.8-4,22.7-10.4,32.7c-1.5,2.3-2.3,5.5-2.4,8.3c-0.7,12.3-5.5,21.9-14.8,30.4c-6.6,6.1-10.9,14.7-16.3,22.1
		c-6.5,8.9-12.6,18.2-19.7,26.5c-4,4.7-10.3,7.3-14.7,11.7c-18.9,18.9-41.3,33.3-64.7,45.4c-34.8,18-69.8,36.1-108.3,45.4
		c-5.7,1.4-11.2,3.4-16.6,5.4c-2.3,0.8-6,1.9-6.2,3.3c-1.9,11-14.2,10.4-19.2,17.8c-1,1.4-3.1,2.9-4.8,2.9c-8,0.1-13.6,4.4-18.8,9.8
		c-5.9,6-12.9,6.9-19.9,2.4c-5.7-3.6-11.2-7.7-16.1-12.3c-6.5-6-13.2-11.2-22.4-12.6c-12.9-1.9-21.6-10-28.8-20.6
		c4.3-15.5,18.1-19,30.8-24.2c0.2-3.1,0.9-6,0.6-8.7c-2.6-27.5-6.3-55-7.8-82.6c-2.6-48-4-96-5.6-144.1
		c-1.3-37.4-2.2-74.7-3.3-112.1C1017.2,1306,1016.6,1304.6,1015.8,1301.6z M1131,1640.5c8-2.8,13.5-4.4,18.8-6.6
		c36.3-14.6,69.1-34.8,99.5-59.5c28.1-22.8,49.6-50.4,66.1-82.2c11.6-22.5,8.8-42.9-8.8-61.2c-7.7-8-16.3-15.4-25.2-22.1
		c-41.4-31-86.9-54.4-135-73.3c-7.2-2.8-14.3-6.2-21.7-8.5c-9.9-3.1-12.6-0.2-10.7,9.7c1.5,7.9,4.8,16.2,3.5,23.7
		c-1.8,10.3-2.4,19.7,1.8,29.5c1.3,3,1.6,6.7,1.2,10c-2,18.4,0.6,36.5,2,54.7c0.6,7.1,1.9,14.2,2.1,21.3c0.3,13.5-0.2,27.1,0.1,40.6
		c0.3,14.5,1.5,29,1.9,43.5c0.4,15.9-0.3,31.7,0.3,47.6C1127.3,1617.9,1129.3,1627.9,1131,1640.5z M1591.4,1267.9
		c-4.1,1.6-6.9,1.9-8.3,3.5c-12.2,13.6-24.7,27.1-36.1,41.4c-4.2,5.3-6.5,12.7-8.1,19.5c-1,4.2,0.6,8.6-5.3,10.3c-1,0.3-1,3.9-1.4,6
		c-0.5,2.6,0,5.9-1.4,7.8c-4.8,6.7-5.1,14.1-5.2,22.9c27.4,3.5,54.1,1.2,82.2,0.8C1605.5,1341.3,1604.7,1304.7,1591.4,1267.9z"/>
	<path d="M407.5,1051.4c3.7,4.5,7.2,9.7,11.5,14c8.6,8.5,17.3,17,26.5,24.7c17.9,15,39.3,18,61.8,16.3c7.1-0.5,11.2-5,13.8-11.4
		c6.9-17.3,3.1-33-8.9-46c-16.7-18.1-34.8-34.9-52.2-52.4c-20.5-20.7-41.3-41.1-61.2-62.3c-13.5-14.3-21.3-32.4-28.3-50.5
		c-8-20.8-14-42.4-15.5-64.9c-2.1-32.2,1.5-63.2,21.2-90.1c5.6-7.6,13.3-14.2,21.3-19.3c13.9-8.8,28.4-16.8,43.3-23.8
		c10.4-4.9,21.6-8.8,32.9-11.3c25.7-5.6,51.7-8.9,78.1-6.2c0.5,0,1,0.1,1.4,0.2c22.7,8.1,45,17.1,66.6,27.7
		c12.3,6.1,17.5,18.5,26,27.9c3.5,3.8,5.3,9.1,8.4,14.6c4.8-0.2,9.7,0.1,14.3-0.8c46.8-8.8,94-14.1,141.7-15.5
		c50-1.5,100.1-2.5,149.9,2.7c23.5,2.4,47.4,4.2,69.8,13.4c12.3,5,13.4,6.6,13.8,18.8c0.2,6.3,2.2,12.6,3.7,20.2
		c-1.3,0.6-3.6,2.3-6.2,2.9c-17.1,4.1-34.3,4.6-52,2.7c-21.2-2.3-42.6-3.6-64-3.9c-29.2-0.4-58.3,0.6-87.5,1.1
		c-13.7,0.3-15.5,1.8-14.6,15.3c1,15.9,5.1,31.7,4.5,47.4c-0.8,18.2,4.2,35.5,4.9,53.4c0.6,16.8,4.2,33.5,6.4,50.3
		c3.4,26.3,6.6,52.7,10.3,79c1.8,12.8,4.1,25.6,6.8,38.2c2.6,12.3,1.8,11.8-10.4,14.8c-7.9,2-18.6,0.6-23.3,11.5
		c-1.3,2.9-7.5,5-11.5,5.1c-27,0.8-48.2-4.2-58-36.7c-11.8-38.9-15.8-78.8-21-118.6c-5.8-44.5-5.9-89.1-5.5-133.8
		c0-4.2-0.4-8.5-0.8-14.8c-16,2.5-30.7,4.6-45.2,7.2c-22.5,4.1-45.1,7.2-67.9,4.9c-10.9-1.1-21.7-4.7-32.1-8.3
		c-2.8-1-5.2-5.7-6.1-9.2c-1.7-6.5-2.8-13.4-3-20.1c-0.7-35.4-33.4-65.7-74.3-50.3c-20.5,7.8-36.1,20.8-52,35.5
		c-16,14.8-20.5,34.7-31.2,51.6c-0.8,1.2-1.6,2.7-1.5,4.1c1.7,22.4,0.9,45.5,18.6,63.4c4,4.1,6.7,9.5,9.9,14.4
		c9.4,14.7,22.5,25,37.8,33.2c11,5.9,21.9,12.3,32.1,19.6c10.4,7.5,18.8,18.3,30,24.2c10.9,5.8,19.9,13.3,29.5,20.5
		c16.3,12.1,29.1,27.3,39.5,44.3c11,18,14.6,37.9,10.1,58.9c-3,13.9-9.4,25.4-22.8,32c-3.8,1.9-7.1,4.9-10.3,7.7
		c-14.1,12.4-30.3,19.9-48.9,23.9c-33.2,7.2-66.5,5-99.7,2.7c-23.9-1.6-43.9-12.9-53.7-36.4c-3.7-8.8-5.6-18.6-7.2-28.1
		c-1.1-6.5-2-13.9,8.3-15.4c2.5-0.4,5.1-4.3,6.4-7.2C394.6,1058.3,399.3,1054.1,407.5,1051.4z"/>
	<path d="M2006,1632.8c-4.3-1.1-6.5-1.6-10.5-2.7c-0.8,16.8-1.6,33-2.5,50.2c-2.3,0.9-5.4,2.3-8.5,3.2c-5.9,1.8-11.8,4-17.8,4.8
		c-14.7,2-29.4,3.8-42.6-6c-5-3.7-6-8.4-6.2-13.9c-0.8-20.4,0.8-40.7,6.1-60.5c12.6-46.8,25.8-93.4,38.7-140.1c0.2-0.9,0-1.9,0-4.6
		c-4.6-1.1-9.6-3.1-14.6-3.4c-23.9-1.4-42.1-12-56.2-31.3c-31.4-43.1-63-86.2-95.4-128.5c-15.3-20-32.5-38.6-49.5-57.2
		c-5.5-6-13.7-9.3-19.5-15c-4.6-4.6-10.3-10.8-10.5-16.5c-0.3-7.5,2.3-17.2,7.3-22.3c5.1-5.2,14.5-7.8,22.2-8.3
		c9.4-0.6,19.5,0.9,28.6,3.7c14.3,4.4,28.1,10.5,42.1,16.2c2.6,1.1,4.9,3.1,7,5c8.6,7.7,17.6,15.2,25.5,23.5
		c8.1,8.6,15,18.2,22.8,27.2c15.8,18.1,31.9,36,47.5,54.2c4,4.7,6.7,10.6,10.2,15.8c16.3,24.1,32.6,48.2,48.9,72.3
		c0.8,1.2,1.5,2.5,3.2,5.1c2.3-3.9,4.1-6,4.9-8.4c20.2-55.1,40.4-110.2,60.4-165.4c1.8-5,2.6-10.4,4.4-15.4
		c4-10.8,8.3-21.5,12.8-32.1c1.7-4,4.3-7.6,6.7-11.3c3.6-5.6,6.2-14.2,11.3-16c7.5-2.7,16.8-1.5,25.1-0.2c7,1.1,14,4.2,20.4,7.4
		c14.1,7.1,18.4,18.3,15.2,34.2c-5.3,26.1-15.5,50.3-26.3,74.6c-9.8,22-17.8,44.8-26.3,67.3c-3,7.8-2,16.2-2.8,24.3
		c-0.4,3.8-0.8,7.7-2.2,11.2c-3.4,8.4-9.4,16.2-5.1,26c-7.1,6.1-1.8,14.4-3.9,21.3c-1.4,4.8-0.8,11.3-9.4,12.7
		c-6.1,1-6.3,8.9-5.8,14.8c1.6,16.5-4.8,31-11,45.6c-3.4,7.9-6.6,15.9-9.7,24c-0.7,1.7,0.2,4.2-0.7,5.7
		c-14.9,24.7-11.9,55.1-26,80.2C2009.6,1612.4,2008.8,1622.7,2006,1632.8z"/>
	<path d="M3294.7,925.4c16.3,1.5,31.2,4.9,46,9.2c21.4,6.3,42.7,13.6,65.6,10.6c1.9-0.3,3.9-0.4,5.8-0.7
		c19.1-3.4,21.6-7.3,14.5-25.1c-7.4-18.4-16-36.4-23.3-54.9c-11.9-30.3-23.2-61.1-22.8-94.2c0.3-31.5,7.7-61.6,25.8-88.1
		c9.1-13.3,21.2-21.8,38.1-19c23.3,3.9,47.7,3.4,68.8,16.5c3.3,2,6.7,3.8,9.7,6.1c13.2,10.1,14.5,24,11.7,40.6
		c-4.1,0.7-8.9,2.7-13.3,1.9c-14.2-2.7-28.8-2.4-42.4-9.2c-16.4-8.2-27.8-3.2-34.6,14.1c-5.9,15.1-5,30.8-0.2,45.8
		c5.5,17,12.2,33.6,19,50.1c9.7,23.8,19.8,47.4,30,71c4,9.2,9.8,17.8,12.7,27.3c2.4,8.1,1.8,17.1,2.3,25.8
		c0.6,10.1-5.8,15.8-13.2,21.1c-2.2,1.6-3.2,4.7-5.2,6.8c-1.9,2-4.2,4.7-6.6,4.9c-30.2,3.3-60.3,10.7-90.8,2.1
		c-20.5-5.8-41.7-9.1-60.5-19.6c-3.7-2.1-7.9-4.2-10.4-7.5C3312.5,949.7,3304.1,938,3294.7,925.4z"/>
	<path d="M3217.5,766.3c-23.8-10.2-26.3-13.9-25.5-38.8c0.9-26.6,3.1-53.3-2.7-79.7c-1.6-7.1-3.5-14.1-5.5-21.1
		c-4.4-15.2,2-27.5,10.5-39.1c1.3-1.7,4.1-3.2,6.2-3.2c8.1,0.2,16.8-0.7,24.3,1.9c25.7,8.8,40.3,27.3,43.7,54.4
		c1.1,9.1,2.4,18.3,3.3,27.4c0.6,5.9-0.3,11-5.8,15.4c-10.5,8.4-8.5,22.1-12.2,33.4c-2.1,6.3-2.3,13.3-3,20.1
		c-1.3,13.1-7.9,18.7-21.9,20.5C3225.1,757.9,3221.9,762.7,3217.5,766.3z"/>
	<path d="M976.3,1059.6c-5-4.7-10.7-9.2-15.4-14.5c-10.5-12.1-5.9-26.3,9.6-31.1c20.6-6.4,40-4.6,58.3,7.2c2.8,1.8,5.5,3.9,10.1,7.2
		c-5.8,3.3-8.7,5.7-12.1,6.6c-12.3,3.4-22.6,9.7-32.1,18.3C990.4,1057.1,983.1,1057.4,976.3,1059.6z"/>
	<path d="M2106,785.2c-0.7-1.1-1.7-2-1.5-2.5c0.4-1,1.4-1.8,2.1-2.7c0.5,0.7,1.5,1.5,1.4,2C2107.7,783.1,2106.8,784,2106,785.2z"/>
</g>
</svg>
