<svg xmlns="http://www.w3.org/2000/svg" viewBox="0 0 4000 3733.1"><title>weddingreception</title><rect width="4000" height="3733.1" fill="#ffe78f"/><path d="M1362.7,803.6c-.2-.4-.5-.8-.7-1.2-.4.3-.9.5-1,.9s.4.8.6,1.2a8.7,8.7,0,0,1,1.1-.9M788.4,538.7c-1.1-.9-2-1.5-2.9-2.2-.4.6-1.3,1.4-1.2,1.7a17.94,17.94,0,0,0,2.3,2.5c.5-.5.9-1.1,1.8-2M1645,667.8c.5-.9,1.1-1.7,1.6-2.6-1.7-.9-3.3-1.8-5-2.8-.4.7-.8,1.3-1.2,2a54.75,54.75,0,0,0,4.6,3.4m-695.8,3a16,16,0,0,0,2.1-.5c.6-2.7.4-5.1-4.5-7.4,1.2,3.7,1.8,5.8,2.4,7.9m687.3-24.1c1.2,2.5,2.2,4.4,3.6,7.4,1.5-2.1,3.1-3.4,2.9-4.5-.3-2.6-2-4.3-6.5-2.9m6,62.2c.7.1,1.4.1,2.1.2,2.6-4.1,2.2-8.5.9-12.9-.2-.6-1.6-.9-3-1.6Zm-10-83.5c-2.8-3.5-6.3-6.3-7.6-10-1.7-4.9-5.3-7-9-9.6,1.4,5.1,2.8,10.1,5.3,14.6s.3,11.4,6.9,14.1c1.8-3.8,3.4-7.2,4.4-9.1M1520.7,803.2c6.5-5,11.3-10.2,14.4-16.1,7.1-13.5,13.4-27.4,19.8-41.2,2.2-4.7,4.6-9.6,5.7-14.6,2.3-10.8,3.6-21.9,5.6-32.8,3.9-21.7-.3-42.1-9.6-61.6-10.7-22.4-26.5-41-44.3-58-1.3-1.2-3-1.9-6-3.6,0,4.6-.2,7.8,0,11,.8,8.9,1.9,17.7,2.5,26.6,1.3,16.9,2.5,33.8,3.5,50.7,1.2,20.2,2,40.5,3,60.7,1.2,23.9,2.4,47.7,3.6,71.6.1,1.9,1,3.9,1.8,7.3M1345.9,697c.6-19.1-7.1-34.1-19.7-46.8-24.3-24.6-53.9-41.9-83.6-59-8.1-4.7-10.7-3-11.9,6.3-.1.6-.1,1.1-.2,1.7-.6,13-1.4,26-1.6,39-.4,30-.6,60.1-.7,90.1,0,11.1.4,22.2.5,33.3.1,17.2,0,34.5,0,51.7,0,2.8.6,5.5.5,8.3-.1,6.6.1,13.3-.7,19.8-.7,5.9-2.7,11.7-3.5,17.6s2.3,8.2,8.1,6.2a24,24,0,0,0,2.3-1.1,110.46,110.46,0,0,0,25.5-18.6c6.9-6.7,13.2-13.9,20.7-20.2,7-5.9,13.8-12.8,18.1-21.6,2.2-4.6,6.3-8.4,9.6-12.5a50.67,50.67,0,0,0,3.6-4.5c3-4.9,5.9-10,8.9-14.9,2.3-3.8,5.3-7.3,7-11.3,3.7-9,6.6-18.2,10-27.3,4.3-12,7.1-24.2,7.1-36.2M611.7,800.2c-1.1,2.4-2.6,4.6-3.4,7.1-5.3,17.3-10.4,34.6-15.5,51.9l-18.3,62.4c-1.6,5.3-3.1,10.7-4.5,16.1-1.6,6.1-5.1,10.5-11.3,12.3-6.7,1.9-13.3,4.2-20.1,5.2-17.4,2.4-34.1,7.8-50.9,12.4-8.1,2.2-15.8,1.6-23.8-.8-3.8-1.2-5.3-3.2-6.4-6.7-3.8-12.3-5.3-25-6.2-37.8-.3-3.8-1.2-7.6-1.8-11.4a36.3,36.3,0,0,1-.9-6.5c0-28.4.1-56.7.3-85.1.1-14.5.9-28.9.9-43.4.1-18.6-.1-37.2-.5-55.8-.1-6.6-1.6-13.2-2-19.8-.7-12.2-1.4-24.4-1.7-36.7-.5-26.1-.8-52.3-.9-78.4,0-9.4.7-18.9.9-28.3.5-22.1-2.7-43.9-5-65.7-.5-4.4-.7-8.9-1.2-13.3-.9-7.8,1-14.6,4.8-21.5,2.5-4.6,5.3-7.6,10.3-8.6,7.3-1.6,14.6-3.4,21.9-4.8,6.2-1.2,12.3-3.1,18.8-1.6,1.5.3,3.3-.4,4.8-1.1,16-7.1,32.5-6.5,49.1-3.6,6.7,1.2,9.7,5.4,10.1,12.2.9,17.5,2.2,35,2.9,52.5.4,12,.1,23.9-.1,35.9-.3,17.5-.9,35-1.1,52.5-.2,13,0,26.1.3,39.1.1,3.4,1.1,6.8,1.7,10.7,5.4-1.2,6.3-5.1,7.8-8.1a52.75,52.75,0,0,0,3.1-9.5c1.9-8,6.7-14,12.5-19.3,1.6-1.5,4.7-2.7,6.8-2.3,8.2,1.6,15.1-2.6,22.6-4.3,2.1-.5,4.3-1.5,6.4-1.5,5.7-.1,11.5.1,17.3.1,1.4,0,3-.6,4.1-.1,8.4,3.7,16.9.4,25.3.6,7.7.1,15.2,1,20,8a30,30,0,0,1,3.9,9c1.8,7,3.2,14,4.5,21.1,3.5,19.7,6.8,39.5,10.3,59.2,3.4,18.9,7.2,37.7,10.8,56.5a8.06,8.06,0,0,0,1.3,3,10.32,10.32,0,0,0,2.1,1.9c4.1-5.2,3-11.3,3.4-16.8,1-17.5.9-35,2.1-52.4,2-28.6,4.3-57.1,7.2-85.6,1.8-17.7,5.1-35.2,7.6-52.8,1.9-13.5,3.6-27,5.7-40.5,1.7-10.7,3.2-21.5,6.1-31.8,1.4-5,6-9.1,9.4-13.3.9-1.1,3.6-2.1,4.5-1.5,6.3,3.9,13.4.8,20.1,2.9,4,1.3,9-.6,13.5.9.2.1.6-.2.8,0,6.1,4.6,11.9,2,17.5-1.1,2.5-1.4,4.7-1.8,6.6.8s.7,4.6-1.3,6.5c-.6.6-1,1.3-2.4,2.9,3,.4,5.3,1.2,7.5.8,6.3-.9,12.5-2.6,18.8-3.5,10.4-1.4,20.9-2.8,31.4-3.4,22.8-1.2,45.6-1.9,68.4-2.6,27.5-.9,55-3,82.6-.3,19.1,1.9,38.4,1.6,57.3,4.1,12.3,1.6,24.1,6.3,36.1,9.6,1.8.5,3.6,2,5.4,2,4.6,0,7.1,2.3,8.9,6.2.8,1.6,2.4,3.8,3.8,4,9.1,1.4,16.4,7.4,25.9,8.2a180.9,180.9,0,0,1,41.3,8.1c12.8,4.2,26,7.4,38.4,12.6,8.1,3.4,16.9,4.4,24.8,8,1.3.6,3.1.8,3.7,1.7,6.5,9.6,17.9,11.6,26.9,17.2,8.5,5.3,17.4,9.8,26,15,2.3,1.4,4.1,3.7,6.2,5.5,3.9,3.1,7.5,6.8,11.9,8.9a150.56,150.56,0,0,1,25.4,15.6c10.1,7.8,20.7,15.1,28.4,25.6.9,1.2,2.6,1.8,5.2,3.5.4-3.7,1-6.3.8-8.9-.9-11.6-3.3-23.2-2.7-34.8s-3.5-23,.5-34.7c2.6-7.5.2-10-7.9-10.6-3.3-.3-6.7-.2-10-.5-7.1-.7-11.5-5.2-10.7-12.1a56.91,56.91,0,0,1,4.4-15.1c1.4-3.5,4.8-5.1,8.6-6,12.7-3.1,25.2-6.8,38-9.4,13.4-2.7,27.1-3.4,40.6.2a16.61,16.61,0,0,0,5.8.8c11.1-1.2,20.6,3.7,30.3,7.8,4.1,1.8,8.2,3.7,11.2,1.8,8.8,4.2,16.5,8.1,24.3,11.5,9.1,4,18.4,7.7,27.5,11.7a15.54,15.54,0,0,1,4.5,3.6c4.6,4.5,9.1,9,13.6,13.5,8.4,8.5,17.4,16.5,24.8,25.8,8.5,10.6,15.4,22.4,23.1,33.6,4,5.9,5.5,12.3,6.6,19.3.8,5.1,4.1,9.8,6.3,14.7,4.5-1.4,3.8-4.2,4-6.5.9-19.4,1.8-38.9,2.8-58.3.2-4.4.6-8.7,1.2-13.1.5-3.5,1.6-6.7,4.8-9.2,1.9-1.5,2.4-4.8,3.3-7.4a62.52,62.52,0,0,0,1.7-6.4c4.5-1.4,8.1-2.9,11.8-3.6,3.1-.6,6.4-.3,9.7-.4,3-.1,6.5.7,8.9-.6,5.6-3.1,9.8-2.4,13.9,2.4,1.2,1.3,3.3,1.8,5.5,2.8,3.1-5.2,7.1-4.7,12.7-4.4,8.3.5,12.1,3.5,13.5,10.9,8.5,7.9,8.1,18.3,8.1,28.7,0,29.2.8,58.4.1,87.6-.6,25-2.7,50-4.1,75-1.1,19.7-1.7,39.5-3.1,59.2-.7,9.9-2.7,19.8-3.8,29.7-.9,8-1.2,16-1.7,24-1.7,2.3-4.1,4.6-5.3,7.4-3.2,7.2-3,7.3-11.6,6-2,4.4-4.8,7.4-10.7,5.3-2-.7-5.4.8-7.3,2.3-5,3.9-9.2,8.8-14.2,12.7-2.7,2.1-6.3,3.2-9.9,4.8-2.9-1.1-5.2-4.7-9.5-3.1-1.2.4-4-1.8-5.1-3.4-4.2-5.8-8-11.7-13.5-16.7-3.2-2.9-3.6-9.7-3.9-14.8-.5-9.4-.1-18.9,0-28.4.4-22,.9-43.9,1.2-65.9.1-6.4-.3-12.8-.8-19.2-.3-4.8-.8-5.3-4.8-8.8a72.23,72.23,0,0,0-1.3,7.9c-.3,4.2-1.9,6.9-5.8,9.2-5.6,3.2-5.2,8,.2,11.6,5.1,3.5,5.1,3.9-.2,7.9-5.8,4.4-6.4,5.9-5.1,14-7,2.1-8.9,8.5-11.5,14.5-1.3,3.1-4,5.9-6.5,8.2-3.4,3.2-6.3,6-4.9,11.4,1.1,4.4-1.8,7.3-5.2,9.5-1.4.9-4,1.5-4.1,2.5-.8,6.9-6.8,8.7-10.9,12.6-10.4,10-20.2,20.7-30.6,30.7-8.1,7.8-15.6,16.3-27.1,20-5.1,1.6-9.4,5.9-13.8,9.3-7.5,5.9-16.8,7.2-25.4,10-15,4.9-30.4,8.8-45.8,12.3-6.3,1.4-13.1,1.9-18.7-3.8-2.1-2.2-5.7-3-9.2-4.7.5-1.4,1.1-3.1,1.6-4.9-.3-.3-.5-.9-.9-1.1-1.8-.6-3.8-1-5.6-1.7-6.4-2.3-7.3-6.4-2.2-11a55.16,55.16,0,0,1,10.6-8.1c6.3-3.5,8.3-8.6,7.8-15.3-.8-10.6-1.3-21.1-2.4-31.6-3.2-31-6.6-62-10-93-.2-2-1-4-1.8-7.1-6.6,5.7-11.6,10.5-10.4,18.8a10.56,10.56,0,0,1-2.6,9.2,9,9,0,0,0-1.9,6.7c.9,4.9-.8,8.6-3.8,12.2s-5.4,7.7-8.1,11.5a17.26,17.26,0,0,1-1.9,2.8c-11.9,10.7-20,24.3-29.2,37.1a31.57,31.57,0,0,1-6.8,7.3c-7.5,5.6-14.7,11.6-20.2,19.4-.8,1.2-2.8,1.6-4.3,2.2-2,.8-4.1,1.3-6,2,.8,11-4.7,16.2-15.2,15.5a16.41,16.41,0,0,0-7.7,1.8,142.09,142.09,0,0,0-14,7.2c-5.9,3.4-11.7,7.2-17.6,10.6-7.8,4.5-14.7,10.5-24.3,12-6.6,1.1-12.8,5-19.2,7.6-2.1.8-4.1,1.7-6.3,2.3-9.9,2.5-19.8,5.5-29.8,7.2-6.8,1.1-13.9.3-20.8.2-2.2,0-4.4-.7-6.6-.4-3.8.4-6.5-.9-8.4-4.1-.4-.7-.7-1.7-1.3-2.1-8.7-5.5-9.3-15-10-23.5-2.4-27.7-4-55.5-5.9-83.2-.4-6.4-1.4-12.7-1.6-19.1-1.3-34.2-1.9-68.4-3.8-102.6-1.4-25.9.2-51.7,1.3-77.6.8-18,3.7-35.9,6-53.8,1.1-8.6.1-10.5-8.3-11.9-12.9-2.2-25.8-4.2-39-6.3-.9-2.1-1.5-4.3-2.7-6-3.1-4.4-2.6-8.4-.4-13.2,5.4-12.2,4.3-13.5-9.2-13.4-25.9.2-51.8.1-77.7.3-7.2.1-14.5.6-21.7,1.1-7.4.6-9.6,3-9.4,10.7.1,5.5,1.1,11.1,1.6,16.6a69.1,69.1,0,0,1,.1,9.1c-1.4,19.4-2.9,38.8-4.3,58.2-.5,7.2,2.6,9.9,10.1,9.2,37.2-3.3,74.5-3.4,111.8-3.3,5.3,0,10.6.2,15,4.5-1.3,3.3-2.7,6.5-4.1,10,5.3,5.7,14.4,6.9,17.3,14.8-.6.7-.8,1.4-1.3,1.5-16,4.4-31.8,9.1-48.6,10.1-20.5,1.2-40.9,4.4-61.4,6.7-8.9,1-17.7,1.8-26.6,2.7q-3.3.3-6.6.9c-9.5,1.9-9.4,1.9-11.2,11.5-.4,2.1-.5,5.2-1.9,6.2-5.8,4-4.5,8.8-2.8,14.2,1.4-.4,2.7-.8,5-1.5.2,3.5.6,6.7.6,9.9.3,24.8,1.6,49.5,7.4,73.7,2.2,9.2,3.6,18.6,5.8,27.7a65.71,65.71,0,0,0,4.8,12.5c.8,1.8,2.6,3.1,4.7,5.4l14.8-19.2c4.2-5.5,8.2-11.2,12.7-16.5,1.9-2.2,4.7-3.7,7-5.5.9-.7,2.3-1.1,2.6-1.9,3-7.8,10.9-8.7,17-12.1,2.6-1.4,6.2-.9,9.8-1.2.8,7.7-.7,14.7,2.4,22.1,3.9-3.7,7.3-6.9,11.1-10.4,4.1,5.5,3.1,10.1,1.3,14.9-3.6,9.9-3.8,11.9-2.4,19.2,2.5-.6,4.9-1.3,8.3-2.2-1.8,3.4-3.4,6-4.5,8.7-.7,1.7-1.4,4.1-.7,5.4,2.6,4.5-.7,6.8-3.1,9.3-6.5,6.5-12.9,13-19.8,19-3.5,3.1-7.8,5.3-11.8,7.8-1.6,1-3.7,1.6-5.1,2.9-11.9,12-28.1,16.5-42.3,24.5-14.6,8.3-30.8,7.8-46.7,1.2-7.2-3-14.3-5.9-20.9-10.2-12.7-8.5-20.2-20.6-25.1-34.4-8.4-23.4-13.5-47.6-16.8-72.2-1.6-11.6-3.1-23.3-3.2-34.9-.4-34.2-.6-68.5.3-102.7.7-27,3.4-53.9,4.7-80.8a107,107,0,0,0-1.4-23.3c-1.8-10.3-5.8-12.6-16.1-12.9-8.9-.2-17.7-1.2-26.6-1.8-3.3-.2-6.6,0-10.4,0-.2-2.3-.4-4.3-.6-6.7-.8.2-1.8.2-2.2.7-3.9,4.3-4.5,9.9-3.8,14.9.6,4.6-.9,7.2-4.4,8.7-5,2.1-6,6.1-6.1,10.8-.1,2.8-.7,5.6-.3,8.3,1,8-1.9,15.5-2.4,23.2-.3,4.5-2.4,8.8-3.4,13.3-.4,1.6-.1,3.3-.1,5.7,1.7-.6,2.8-1,4.3-1.5.2.7.8,1.7.5,2.1-4.3,6.4-1.2,15.2-7.3,21.1-1.2,1.1-1.2,3.7-1.3,5.6a73.41,73.41,0,0,0-.3,12.4c.2,2.4,3.3,5,2.7,6.7-.6,2-4,3-5.9,4.8-.9.8-1.2,2.6-1.2,3.9-.2,11.3-.3,22.5-.4,33.8,0,1.4-.4,3,.2,4,5.6,9.8,3.5,20.8,5.4,31.2.1.5-.4,1-.7,2-1.5.2-3.3.5-5.7.8,1.5,2.5,2.7,4.6,4.1,7-8.1,6.3-6.9,13.8-3.6,21.8,3,7.2,5,14.8,4.1,22.6-.7,5.4,5.6,10.4,1.9,15s-3.1,9.9-4.3,14.9c-.7,3-.1,6.3,1.3,9.9.8-1.2,2.3-2.5,2.1-3.7-.7-5.8,2.2-10.7,3.3-16.1a63.2,63.2,0,0,0,1.2-11.5c.2-5.4-1.2-11.1,4.7-15,1.3-.9,1.2-4,1.6-6.2a26.37,26.37,0,0,1,1.5-6c3.9,7.7-2.5,16.3,3.1,24.4,3.3-5.3,1.7-10.6,2.1-15.6.4-4.6,1-8.8,6.5-11.2.9,1.8,2.1,3.3,2.5,5.1,2.2,8.3,3.1,16.9,5.1,25.2,4.6,20,1.4,39.9,1.7,59.8.2,13.5.4,27.1-.5,40.7-1.2,19.1-2,38.4-6.5,57.2a78.11,78.11,0,0,0-1.3,10.7c-1.2,11-6.2,22.2-23.4,25.3-14.1,2.5-27.9,7.1-41.9,10.7-7.5,1.9-15.1,3.9-22.7,5.4-20,4-30.4-3.2-38.8-19.5-9.5-18.2-19-36.6-26.6-55.6-3.7-9.4-8.8-17.7-13.2-26.6s-6.6-18.8-9.9-28.3c-5.9-17.1-11.9-34.1-17.9-51.2a29.6,29.6,0,0,0-2.6-5,4,4,0,0,0-2.1-.7M2032.3,680.4c.7-2.7,2.3-5.7-1.6-7.6-3.4,3.6-.4,5.5,1.6,7.6m-15.2-180.6c4.8-4.2,4.6-6.7,0-10Zm.7,21.7c4.9-5.3,4.8-5.3-1.7-8.6.7,3.4,1.2,6,1.7,8.6M2025,713l-2.2.3c.5,5.6-.6,11.5,2.3,16.8.6-.1,1.1-.1,1.7-.2-.6-5.6-1.2-11.3-1.8-16.9m177.4-19.5c1.3-8.4-1.1-16.2-4-23.7a78.09,78.09,0,0,0-20.7-30.9c-6.5-5.9-10.8-3.8-14,4.9-3,8.2-5.1,16.8-7.7,25.2-4.2,13.3-7.3,26.8-7,40.9.2,12.7.2,25.5.9,38.2.2,3.7,1.8,7.6,3.5,11,2.1,4.1,4.9,4.8,9.1,2.6a33.28,33.28,0,0,0,8.1-5.8c5.4-5.6,11-11.1,15.6-17.4,9.8-13.3,18.3-27.4,16.2-45m67.4,15.3c1,5.2-1.6,11.2,3.5,15.7.5.4-.7,3.6-1.9,4.9-1.6,1.7-3.9,2.8-6.1,4.3a24.63,24.63,0,0,0,1.1,3.5c3.3,6.5,3.3,6.3-4,8.2a9.53,9.53,0,0,0-4.7,3c-10.5,11.5-21.5,22.5-29.9,35.8a14.38,14.38,0,0,1-5.3,5.1c-7.7,3.5-15.2,7.7-24,8.6-4.3.4-8.5,2.3-12.5,4.1-16.5,7.4-33,14.9-51.9,12.5-5.5-.7-11.1-.4-16.6-1.2a33.48,33.48,0,0,1-18.6-8.7c-2.8-2.5-6.6-4.1-10.2-5.5a18.64,18.64,0,0,1-9.9-8.4c-2.9-5.1-5.9-10.1-8.8-15.2-6.8-11.8-9.3-24.9-11.3-38.1-.6-3.8-1.1-7.7-2-11.4-.7-3-2.4-5-6.6-4v6.2c.2,8.8.4,17.7.5,26.5a9.24,9.24,0,0,1-.8,4c-4.3,10.1-3.7,19.8.9,29.8,2.8,6,4.6,12.5,6.5,18.9,1.8,6.2-1.3,14.7-6.8,17.4-2.5,1.2-5.8.8-8.8.7-2.1-.1-4.3-1.1-6.4-1.3-6.9-.6-7.2-.6-7.3,6.2-.1,3.6-1.5,5.2-4.7,5.7-5,.7-9,2.7-11.4,7.3-.2.5-.7.8-1.2,1.2-5.6,4.2-21.9,4-27.6-.3-1.1-.8-2.1-2.2-3.3-2.5-7.9-1.7-10.5-8.3-13.7-14.4-17.3-32.7-35.1-65.2-51.9-98.1-8.1-15.8-14.8-32.4-21.8-48.7-8.6-19.9-16.8-40-25.3-59.9a67.17,67.17,0,0,0-4.2-7.4,14.62,14.62,0,0,0-2,.5c-.3,2.3-1,4.6-.8,6.9,1.1,16.7,2.8,33.3,3.4,49.9a107.2,107.2,0,0,0,4.9,28.6c1.7,5.1,1.4,10.9,2,16.4,2.1,18.3,4.1,36.5,6.2,54.7,1.4,12.4,1.3,25,5.6,37a22.83,22.83,0,0,1,1,7.4c-.2,9.5-.4,18.9-1,28.4-.3,5.3-8.4,12.9-13.8,13.5-7.8.8-7.8.8-12.7,5.1-1.7-.9-3.6-1.9-4.4-2.3-5.3,2.6-9.8,4.5-14,6.9s-8.1,5.7-12.5,7.8c-7.3,3.6-14.3,2.5-20.7-2.8-2.5-2.1-5.5-3.5-8.1-5.5-1.7-1.3-3.8-2.7-4.4-4.5-1.5-4.4-3.3-9.1-3.1-13.7,1.5-36.2-4.7-71.7-9.6-107.2-5.4-38.9-10.3-77.7-10.7-117.1-.2-23.1-1.7-46.1-2.5-69.2-.2-6.7-.3-13.4,0-20,.1-2.6.9-5.9,2.6-7.6,4.3-4.3,5.8-9.5,6.2-15.1.4-5.4,3.3-8,8.1-9.1,1.4-.3,2.7-.7,4-1,4.2-.9,6.4-3.5,6.1-7.7-.6-8.5,4.8-15.3,6.7-23.1.5-2,3-4.4,5.1-5.1,6-1.9,11.7-5,18.4-4.2,4.9.6,9.9.5,14.8,1.1,1.8.2,4,.9,5.1,2.2,2,2.4,3.6,4.1,6.9,2.8,3.6-1.4,5.4-3.7,5-7.6-.1-.5.4-1,.8-2,4.6-1.4,9.3-.2,13.2,2.4a17.41,17.41,0,0,0,10.9,3.2,16.42,16.42,0,0,1,14.4,7.1c6,8.4,12.4,16.6,17,25.7,10.9,21.6,21.1,43.5,30.9,65.6,4.5,10.1,7,21.1,10.6,31.6,1.9,5.7,4.3,11.3,7.2,18.7a22.22,22.22,0,0,0,3.6-13.4c-.4-17.5-1-35-1.1-52.5,0-10.2,1.1-20.4,1.1-30.6,0-6.6-1.4-13.3-1.6-20-.2-5.8.4-11.6.6-17.3.1-1.7.5-3.4.1-4.9-1.7-5.8-2-11.3.7-17,1-2-.1-5.5-1.1-8-3.4-8-3.2-16.3-2.6-24.7.4-5.2.7-10.3,1.1-16.7a15.6,15.6,0,0,0,8.2-10.8c.7-3.7,3.9-4.9,7.8-4.6,3.5.3,7.1-.1,12.3-.2a25,25,0,0,1,1.7,2.5c3.1,5.2,4.1,5.4,8.3.8.6-.6,1.1-1.2,2.3-2.6,2.4,1.6,5.3,2.7,7.1,4.8,2.9,3.6,5.8,3.8,9.4,1.6,3.9-2.4,7.2-2.2,10.1,1.8.8,1,2.3,1.5,3.4,2.3,6.7,4.3,6.3,4.9,4.5,12.8-1.3,5.8-.5,12-.5,18.1,0,5.8.1,11.6.1,17.5,0,1.3-.4,3.3-1.3,3.8-5.4,3.1-5,8.4-5,13.3-.1,7.4-2.1,14.6-.4,22.2,1.1,5.1-.9,11-2.2,16.4-1.5,6.6-1.5,12.1,5.9,15.2a8.42,8.42,0,0,1,4,5c2.7,11.6,5.6,23.2,7.2,35,1.2,8.7.4,17.6.7,26.5.1,3.9.8,7.7,1,11.6.2,3.6,1.3,7.6.1,10.7-2.1,5.5-1.9,10.8-1.5,16.3.5,7.5-3.3,10.4-10.5,8.6-5.5,10.3-1.8,20.5.3,30.6.8,3.9,3.3,4.3,6.9,1.9,2.1-1.3,2.8-5.4,6.6-3.5,3.5,22,3.5,23.2-1.9,30.2-2.8-1.9-5.7-3.9-8.8-6-2.8,5.3,1.4,8.9,1.6,13.1,2.8-.9,5.9-3.1,7.7-2.3,2.7,1.1,4.5,4.3,6.1,6.1-1.1,4.6-6.5,5.8-4.5,10.9h9.5c3-12.9,5.6-25.7,9.1-38.3,3.6-13.1,7.8-26,12-38.9a145,145,0,0,1,8-20.1c6.2-12,13.3-23.7,19.8-35.6,2.9-5.4,5.6-10.9,8-16.5,7.7-17.6,18.4-33.5,28.3-50a31.91,31.91,0,0,1,7.9-8.5c3.6-2.8,5.2-6.2,6.1-10.5,1.9-8.8,5.4-16.3,15.7-18,1.9-.3,3.8-2.2,5.3-3.7,4.1-4.2,7.9-8.5,12.3-13.3,6.9,5.4,15.6,5.8,24.2,6.7a87.86,87.86,0,0,1,13.5,3c1.2.3,3,1.3,3.2,2.3.8,4.2,4,5.1,8,5.6-1,2.2-1.4,3.8-2.3,5.1-2.4,3.4-3.4,6.9-1.7,11,1.2,3,.1,5.2-2.6,7.1-3.4,2.3-6.5,5.1-9.8,7.7-3.6,2.9-7,5.9-4,11.2a2.88,2.88,0,0,1-.1,2.4c-5.7,9.1-6.5,20.3-13.6,29a57.17,57.17,0,0,0-12.3,25.9c-1.1,6.1.8,8.1,7,7.8,19.4-1,38.9-1.7,58.3-2.9,27.8-1.7,55.5-3.8,83.3-5.3,18-1,36.1-1.8,54.2-1.5,20,.4,39.9,2.2,59.9,3.3a22.68,22.68,0,0,0,5.8-.4c9-1.6,17,1.7,25,5,1.4.6,2.4,2.1,3.3,3.5,1.7,2.4,3.2,5,5.1,7.9-1.3,7.9-1.3,7.9,8.3,12.8a38.5,38.5,0,0,1-22.9,8.3c-18.6.7-37.3.7-55.9,1.4-17.5.7-35,1.7-52.5,2.8-16.9,1-33.9,2.4-50.8,3.5-17.5,1.1-35,2.1-52.5,3.2a21.1,21.1,0,0,0-4.9.9c-4.3,1.4-8.7,2.8-7,10.6-5.1-4.6-8.5-9.3-15.1-6.4.5,1.7.5,3.6,1.5,4.7a83.5,83.5,0,0,1,10.2,16c1.1,2.2,4.9,3,8,4.7,1.2,5.1-2,11.7,3.7,18,.6-2.9,1-4.5,1.2-6.2.4-2.6.8-5.2,4.3-4.8,2.3.3,4.5,5.1,2.7,6.8-4.3,4.1-1.7,8.9-2.4,13.3-1,6.1.6,11,5.4,14.9.8.6,1.2,1.8,2.2,3.5-2.6,1.5-5,2.8-7.3,4.1-2.5-4.2-2.5-4.2-4.9-1.8.4.4.6,1.1,1.1,1.1a10.19,10.19,0,0,1,3.9-.1M592,1136.2c3,7.3,3.3,7.5,11.2,7-1.8-4.9-5.7-6.1-11.2-7m-95.4,150.5c-8.6-6.4-8.9-10.2-2.6-16.2,5.1-4.7,10.3-9.3,15.1-14.3,4.6-4.8,9.4-9.7,12.8-15.3,5.8-9.4,10.5-19.6,15.9-29.3a32.77,32.77,0,0,0,3.8-24.1,37.35,37.35,0,0,1-.5-7.5c.2-7.5-3.6-12.9-9.4-16.7a129.08,129.08,0,0,0-17.7-9.2c-20.5-9-42.5-13.1-64.3-17.6a53.28,53.28,0,0,0-14.9-1.1c-6.6.5-8.5,3.3-8.5,9.9q.3,32.55.4,65c0,6.4.2,12.8.1,19.1-.4,16.6-1,33.2-1.2,49.8a21.72,21.72,0,0,0,1.9,8.8c1,2.1,3,4.4,5.1,5.1,12.3,4,24.4,4.3,36-3,5.1-3.2,10.2-6.6,17.2-5.8,1.1,3,2.6,5.7,2.9,8.6.8,6.8-7.9,6.2-9.8,12.1,2.9,2.3,5.7,5.1,9,6.9,7.8,4.3,15.7,8.3,23.7,12.2,10.2,5,21,9.1,30.8,14.8,11.4,6.7,22.1,14.7,33.1,22.2,1.8,1.2,3.6,2.6,5.5,3.8,10.5,6.7,21,13.4,31.6,19.8,6.4,3.9,12.8,7.9,19.6,10.9s9.2.6,8.1-7c-1.4-9.6-2.4-19.3-4.3-28.9-3.5-17.9-3.8-36.5-10.3-53.9-1.7-4.5-2.7-10.2-1.5-14.7,2.2-8.8.3-17.2-.6-25.6-1.8-16.6-4.8-33-7.4-49.5a71.77,71.77,0,0,0-2.8-11.3c-2.1-6.6-4.7-7.3-10.1-2.5-2.3,2-4,4.6-5.7,6.7-7.5-3.4-9.6-3-14.5,2.4a35.38,35.38,0,0,0-4.2,5.2c-1.9,3-4.4,5-8.1,5.2-4.6.3-7.1,3.1-8.1,7.2-1.3,5.1-2.7,9.7-9.3,10.2-1.3.1-2.7,1.8-3.8,3-7.8,8.1-15.5,16.3-23.4,24.4-1.7,1.8-3.7,3.7-5.9,4.5-4.6,1.7-10,1.8-14,4.4-3.7,2.6-6.3,7.3-9.7,11.3M361.4,1080.8c3.2-3.2,1.9-9.3,7.3-8.9,6.2.4,12.3-2.7,18.7.3,3.3,1.6,7.5,1.7,11.2,1.6,5.6-.1,11,.7,14.6,4.9,6,6.9,14.1,9.4,22.2,10.5,18.1,2.6,36.3,5.4,54.8,3.3,6.6-.7,13-.1,19.1,4.1,3.9,2.7,9.2,3.5,14,4.9,15.7,4.6,31.6,8.7,47.2,13.6,8.2,2.6,16,6.2,23.8,9.7,2.1,1,3.6,3.4,5.2,5.3,4.7,6.2,10.3,8.5,18.2,6.2,5.6-1.6,11.2-3.7,17.7-2.2,4.5,1,9.8-1.1,14.5-2.5,11.9-3.5,23.9-6.4,36.4-6.6,15.5-.2,31.1-.5,46.6-1.5,18-1.1,36-2.9,54.1-4.4a28.22,28.22,0,0,1,5.8.3c7.9,1,15.9,1.7,23.9,2,17.1.5,34.2,2.9,51.4,4.5,4.4.4,8.3,1.4,9.6,6.4a4.65,4.65,0,0,0,1.3,2.1c2.3,2.7,5.3,5,7,8,1.6,2.8,1.8,6.3,2.8,10.2-5.9,2-11.7,4.4-17.8,5.7-4.5,1-9.3.8-14,.9-3.6,0-7.2-.7-10.8-.5-23.3,1-46.7,1.7-69.9,3.4-15.5,1.1-31,3.5-46.4,5.6-8.6,1.1-10.4,3.9-6.8,11.8,7.4,16.5,10.1,34,12.3,51.7.4,3,.9,6.1,1.5,9.1,1.4,6.8,3.6,8.4,10.4,7.8,5.3-.5,10.5-1,15.8-1.2,7.9-.3,9.2.9,9.8,8.7.1.8-.2,1.7-.1,2.5a19.06,19.06,0,0,0,.5,2.1c7,2.1,15.5-1.3,22.2,4.7-.2,4.5-3,7.6-6.8,9.3-8.6,3.8-17.4,7.2-26.1,10.8-4.9,2-9.8,4-14.6,6.1-4.6,2-6.7,5.7-6.4,10.7.4,5.3.8,10.5,1.3,15.8,1.3,14.4,3.2,28.8,3.9,43.2.7,15.5.2,31,.2,46.5,0,4.6-1,9.6,4.5,12.9a21.39,21.39,0,0,0,3.9-2.8,22.5,22.5,0,0,0,3-3.9c3.8,1.4,6.7,2.6,9.9,3.8.7,3.4,1.4,7,2.1,10.6,7.1.2,8.9-6.2,13.5-9.1.6,6,1.1,11,1.7,16.8,3.4-.9,5.6-1.5,7.7-2,.4.7.7,1,.6,1.2-1.8,9.9-14.2,27.8-22.8,32.5-3.8,2.1-7,4.2-8.1,8.9-.4,1.7-2.6,3.6-4.4,4.4a42.2,42.2,0,0,0-13.6,9.1c-3.2,3.3-8.9,4.1-13.4,6.1-7.3,3.3-14.8,6.2-21.8,10a25,25,0,0,1-26.7-1.1c-5.5-3.8-11.1-7.3-16.9-10.7-5.4-3.1-8.4-8-10.8-13.4a30.05,30.05,0,0,1-1.1-3.2c-3.8-11.6-3.8-11.8-15.6-11.3-29.1,1.2-57.1-5-84.5-13.5-14.4-4.5-29.1-9.2-42-18-5.1-3.5-12.4-4.2-17-8.1-17.4-14.6-38.5-23.4-56.5-36.9-3.1-2.3-7.4-3.2-12.3-5.3-.7,4.2-1.6,7-1.6,9.9,0,26.1.1,52.3.2,78.4,0,6.1.5,12.2.5,18.4,0,3.8.3,7.8-3.9,10.3-1.2.7-1.6,3.2-1.9,5-.6,3.2-.7,6.5-1.6,9.6-3,10.8-3.1,10.8-13.9,11.2-5.1,8.5-5.4,8.6-17.8,6.3-.6.5-1.5.9-1.8,1.5-2.8,5.8-6.1,9.4-13.6,6.3-4.4-1.9-6.2.1-7.4,5.7-.7,3.6-2.4,6.2-6.2,7-4.9,1.1-9.7,2.4-14.6,3.4-4.1.8-7-.8-8.7-4.7-2-4.6-3.8-9.2-6-13.6-1.1-2.3-2.9-4.2-4.7-6.8-2.2,2-3.5,3.2-4.8,4.4-.4-.6-1-.9-1-1.4-.7-7.7-1.8-15.4-2.1-23.2-.4-10.3,0-20.5-.3-30.8-.3-10.6-1.3-21.1-1.7-31.6-.5-14.2-.8-28.3-1.1-42.5-.1-3.6-.1-7.2-.1-10.8-.1-15.3,0-30.5-.5-45.8-.2-8-1.5-16-2.3-24-.1-1.1-.7-2.3-.4-3.3,3-11.6,1.5-23.3,1.2-34.9-.5-20.9-1.4-41.7-1.7-62.6a267.87,267.87,0,0,1,1.2-28.3,200.47,200.47,0,0,0-1.1-45.8c-.5-3.6-2.7-5.1-6.3-5.3a139.46,139.46,0,0,1-15.7-1.7c-5.9-1-7.3-3.6-6.5-9.4,1.2-7.9,4.4-14.1,12.1-17.7a39.08,39.08,0,0,0,11.6-7.9c3.3-3.5,6.8-8,7.5-12.4,1.7-10.3,6.9-16.2,16.7-19.1,5.2-1.5,9.9-3.9,15,0,1,.7,2.9,1.3,3.9.9,5-2.1,9.9-.9,14.4,1.8m2129,51.9c-.4-.3-.8-.9-1.1-.9s-.8.6-1.1.9a17.41,17.41,0,0,1,1.4,1.2,6.22,6.22,0,0,0,.8-1.2m3.8-6.3a8.08,8.08,0,0,0-1.6-1.6c-.1-.1-.8.5-1.2.8a10.92,10.92,0,0,0,1.3,1.7c.2.1.9-.5,1.5-.9m-260.1,27.2c1-4.9,1-4.9-1.6-8-1.2,4.1-1.2,4.1,1.6,8m-25.9-82c.2-5.3-1.5-8.7-4.8-9.1a4.28,4.28,0,0,0-3.6,1.3,4,4,0,0,0,0,3.7,9.31,9.31,0,0,0,8.4,4.1m283.4,89.5c6.2-2.9,7.3-7,6.7-11.5-.2-1.3-2.2-2.4-3.4-3.7-1.1,1.3-2.9,2.6-3.1,4.1-.5,3.1-.2,6.5-.2,11.1m-268.8-34.6c1.4-1.9,2.5-2.7,2.4-3.4-.6-5.1-1.4-10.1-2.4-15.2-.4-2.3-1.5-4.7-4.2-3.5-1.1.4-1.8,3.2-1.6,4.7.7,4.3,1.9,8.5,3,12.7.4,1.2,1.4,2.2,2.8,4.7m-24.6-74.1c1.7-8.3-3.6-18.2-12.5-22.3,3.5,8.5,4.1,17.3,12.5,22.3m-29.6,147.8c-1.1-14.6-1.8-28-3.1-41.3-.6-6.3-2.4-12.6-3.9-18.8-2.5-9.7-5.2-19.3-7.8-28.9a32.59,32.59,0,0,0-2.2-6.2c-1.3-2.4-2.6-5.1-6.1-4.8-3,.2-6.6,3.8-7.2,7.1-.8,4-1.1,8.3-2.7,12.1-4,9.7-6.5,20.1-13,28.8-3.1,4.1-6.2,9.3-6.5,14.1-.4,8.3-5.5,16.5-.9,25.1.7,1.2-.2,3.3-.3,4.9a65.43,65.43,0,0,0,0,9.9c1.4,11.4,4.4,21.9,10.9,32,3.5,5.4,6.6,9.9,12.2,12.8s6.6,2.8,10.7-2.1a88.35,88.35,0,0,0,17.9-34.5c1-3.8,1.5-7.6,2-10.2m167.1-59.4c-.3,3.1-.8,4.9-.6,6.6,2.1,14.6,4.5,29.1,6.5,43.7.7,5.2,0,10.6.7,15.7,1.4,10.1,3.4,20.2,5.2,30.3,1.8,9.5-.6,19.8-14,22.3-1.8.3-3.5,1.6-5.2,2.5-6,3.2-12,6.5-17.6-1.1-5,5-9.6,9.5-13.1,13.1-7.2-.5-13.1-1.1-19.1-1.3-4-.1-7.9,0-10.5-3.8a4.07,4.07,0,0,0-2-1.4c-8.9-1.9-11.6-8-12.2-16.5-.3-4.1.7-9.7-5.2-13.2-4.7,8.2-9.9,15.8-13.7,23.9-2.7,5.9-6.6,10.5-12,13.4-9.8,5.2-20,9.5-30,14.3-3.5,1.7-6.9,3.4-10.2,5.4-6.7,4.1-13.5,7.7-21.8,7a11.62,11.62,0,0,0-4.9.6c-12.8,5.5-25.7,4.9-39.2,2.3a240.74,240.74,0,0,1-31.4-8c-18.3-6.2-30.7-19.5-41.9-34.4-10.2-13.5-13.3-29.8-16.6-45.8-5.2-25.7-.1-50.4,7.3-74.8,2.4-7.9,6.7-15.2,10.4-22.7,8.9-17.9,17.8-35.9,27-53.6,3.3-6.4,7.2-12.6,14.8-15.2,1.5-.5,2.7-1.9,3.8-3.2,5.2-5.8,10.5-11.5,15.5-17.4,5.4-6.4,5.1-8.1-1.9-12.2-2.9-1.7-6-2.9-9-4.4-2.5-1.2-5-2.4-7.3-3.8-12.6-7.5-8.5-11.1-4-21.2a5.33,5.33,0,0,1,3.1-2.6c6.2-1.8,12.5-4.5,18.8-4.5,8.2,0,16.4,2.4,24.6,3.5,2.2.3,4.6-.8,6.9-1.1,2.6-.3,5.8-1.4,7.8-.4,9.6,4.9,19.3,9.4,27.6,16.8,8.6,7.7,13.5,17.6,19.9,26.6,6.5,9.3,12.1,19.2,18.1,28.9.7,1.2,1.7,2.5,1.7,3.7.2,8.4,5.5,14.3,9.5,21,2.8,4.7,4.8,10,7.1,15,1.3,2.9,2.6,5.8,4,8.7.7-.1,1.4-.1,2.1-.2.5-1.9,1.4-3.8,1.4-5.7-.1-10.3-.1-20.6-.6-30.9-1.4-25.6-1.7-51.2.8-76.7.7-7.3,3.9-14.4,6-21.5.2-.8.4-1.8,1-2.2,5.8-4,8.5-9.9,10.5-16.3a4.14,4.14,0,0,1,2.2-2.3c6.1-1.8,12.2-3.7,18.4-4.9,4.5-.8,9.4.5,13.7-2.6,1.1-.8,3.2-.2,4.8-.2,6-.2,12.3-1.5,18-.3,6,1.2,11.7,2.2,17.8,2.9,8.2.8,16.9,3,21.3,12.1a297.72,297.72,0,0,1,16.8,40.9c3.4,10.8,8.4,21.1,12.5,31.7,2,5.2,3.4,10.6,5.6,15.7,6.3,14.8,12.7,29.7,19.4,44.3,4.3,9.3,9.2,18.4,13.8,27.6a11.75,11.75,0,0,0,2.1,3.6,5.15,5.15,0,0,0,3.5,1.2,3.43,3.43,0,0,0,1.9-2.3,37.59,37.59,0,0,0,0-7.5c-1.9-17.7-3.3-35.5-6.1-53.1-4.3-27.2-9.4-54.3-14.6-81.3-3.9-20.5-8.5-40.8-12.4-61.2-2.3-11.9-1.1-23.8,1.8-35.6a14.21,14.21,0,0,1,2.4-5.3c4.4-5.2,9.1-10.2,13.7-15.1,7-7.5,15.4-8.9,25-5.8a85.93,85.93,0,0,0,12.1,3.1c6.9,1.1,11.3,6,16.5,9.8a14.45,14.45,0,0,0,7.4,2.4c3,.3,6.2-.5,8.4,4.2a112.58,112.58,0,0,1-9.1,7.4c-6.3,4.1-8.5,9.7-8.6,17-.2,10.9.7,21.5,4.7,31.7,1.3,3.3,1.6,6.4,0,9.6-2.3,4.6-.8,8.6,2.4,12.2,2.4,2.7,4.6,5.6,6.8,8.4.8,1.1,1.9,2.2,2.1,3.5,1.7,9.2,3.2,18.5,4.7,27.7.3,1.9,0,4.1.8,5.7,1.8,3.9.7,6.9-1.6,10-2.7,3.6-3.1,7.5-1,11.8,3,6,3.9,12.6,4.2,19.2.1,3.1-1.3,6.3-1.7,9.4-.4,3.8-1.2,7.9,4.4,9.2,1,.2,2.1,2.5,2.2,4,1.5,12.1,2.7,24.2,4,36.3.1,1.4-.3,3,.3,4.1,5.9,11.9,5.7,24.6,5.7,37.4,0,3.3,0,6.9,1,9.9,2.9,8.4,2.4,16.7.2,26-2.2-2-4.1-3.7-6.6-6-1.2,5.6-3.6,10.3-3.2,16,.4,6.1.4,12.2.4,18.4.1,5.8,0,11.6,0,17.3,6,1.6,5.9-5.2,11-5.6.2,2.9.1,5.8.8,8.6.6,2.2,1.8,5.6,3.4,5.9,4.5,1.1,5.5,4,6.4,7.7,1.7,7,3.6,14,5.3,21a19.21,19.21,0,0,1,.7,5.8c-.2,5.9-3.5,8.8-10.4,9v8c-8.8.6-17.3,1.1-24.1,7.2-1.1,1-3.1,1-4.6,1.6-2.5,1.1-5.2,2.1-7.3,3.8-3.2,2.6-5.8,6-10.6,5.8-6.2-.3-12-1.3-17.5-4.6-11-6.8-17.8-17.4-25.1-27.5-7.6-10.6-15.1-21.2-22.4-32-13.6-20-27.1-40-40.4-60.2-6.1-9.3-11.7-18.9-17.7-28.3-.7-1.1-1.8-1.9-3.7-3.6m-508.2-130a7,7,0,0,1,1,.8s.5-.4.5-.5a6.72,6.72,0,0,0-.6-1.2,3.82,3.82,0,0,0-.9.9m-315.9,105.1a49.28,49.28,0,0,0-.6,5c.1,6.4.3,12.8.3,19.1,0,6.7-.3,13.3-.2,20,.2,8.9.6,17.8,1,26.6.3,6.4.5,12.8,1.3,19.1.8,5.9,3.3,7,8.6,4.6a63,63,0,0,0,24.4-19.6c4.4-5.7,8.4-11.7,12.5-17.6,5.8-8.3,5.9-17.6-.6-25.3-10.7-12.6-24.1-22.1-38.6-29.9-2.2-1.2-5-1.3-8.1-2m68.7-48.4c2.8,2,5.6,4,8.5,5.9,4.2,2.7,8.4,5.2,12.6,7.8,1.4.9,2.7,2,4,3,10.3,7.6,21,14.6,30.7,22.9,11.3,9.8,19,22.6,24,36.6,3.1,8.8,2.5,17.7-6.3,23.9a10.7,10.7,0,0,0-3.5,4.6c-3.6,9.6-11.7,14.5-20.1,19.1a87.21,87.21,0,0,0-8,5.5c-1.6,1.1-2.8,2.8-4.5,3.7a37.45,37.45,0,0,0-15.5,14.8,8.16,8.16,0,0,1-4.2,3.8c-10.6,3.4-18.5,12.6-30.1,13.9a6,6,0,0,0-3.6,2c-5.8,6.4-13.6,6.5-21.3,7.3-6.4.7-12.7,1.7-17.9,6.1a7.92,7.92,0,0,1-3.8,1.4c-6.9.9-7.4.8-8.3,7.5a131.68,131.68,0,0,0-.9,20.8c.6,18.1,1.6,36.1,2.4,54.2.4,8.9.9,17.7,1.4,26.6.2,3.1-.2,5.5-3.9,6.2-1.2.2-3,.9-3.4,1.8-1.6,3.3-4.2,4.7-7.5,6.1-1.8.7-2.8,3.2-4.2,4.9-4,.2-8.1,1-12.2.6-5.5-.6-9,2.3-11.5,6.2-4.3,6.6-10.5,6.7-17.4,6.9-8.4.2-15.8-.7-21.1-8-.1-.2-.5-.3-.7-.4-11.2-1.1-13.5-9.7-14.6-18.5-2.3-17.7-4.3-35.4-5.8-53.1-1.1-12.7-1-25.6-1.8-38.4-.6-11.4-2.2-22.6-11-31.8,9.1-7.7,9.3-17.9,9.1-28.3-.7-26.7-1.4-53.4-1.7-80.1-.1-10,1.3-20,2-30,.1-1.9.3-3.9.4-5.8.1-7.5-1.6-9.4-9-10.2-5.3-.6-10.6-.8-15.8-1.3-6.9-.7-6.9-.8-8.8-7.5a44.86,44.86,0,0,0-2.1-5.3c1.5-6.6,2.9-12.4,4.6-19.9,2.4-.9,6.2-2.4,10-3.9,1-.4,2.3-.4,3.2-.9,18.5-10.2,38.8-9.3,58.6-8.2,21.3,1.2,42.6,4.3,63.8,6.9,6,.8,11.9,2.7,17.8,4.4,10.1,2.9,20.2,6.1,30.3,9.1a27.2,27.2,0,0,0,4.8.5c0-2.5.1-4.6,0-6.6-.2-2.5-1.3-5-1-7.4,1.4-13,1.1-16.2,13.6-19.7.3-.1.5-.2.8-.3,16.7-9.6,35.4-10.3,53.9-12,19.7-1.9,39.4-3.6,59-5.4,26.3-2.3,52.6-5.1,78.9-6.7,11-.7,22.2,1.1,33.3,1.7,6.1.4,12.1,1,18.2,1.1,4,.1,7.8.4,10.6,3.7s6.1,3.3,9.9,2.9c2.1-.3,5.3-.4,6.2.8,4.5,5.6,11.8,6.8,17.6,11.7-4.9,3.8-9.8,6.8-15.4,7.9-10.9,2.1-21.9,3.7-32.9,5.5-6.3,1.1-12.5,2.5-18.9,3.4-8.8,1.3-17.6,2.1-26.4,3.3-2.8.4-5.6,1.3-9.4,2.2,1.4,3.3,2.1,5.7,3.4,7.7,4.7,7.4,5.5,15.6,5.5,24.1.1,32,.3,64,.4,95.9.1,33.9.1,67.9.3,101.8.1,12.8.6,25.6.8,38.4.1,7.6,0,7.5-7,9.7-6.7,2.1-13.5,3.7-19.7,8-4,2.7-9.8,5-15.6,4a3.68,3.68,0,0,0-3,.6c-5,6.6-13.9,5-19.8,9.6-4.7-1.4-9.4-2.6-14-4.2-1.4-.5-2.3-2.7-3.8-3.2-14.4-4.8-13.8-17.7-14.9-28.9-1.6-16.9-2-33.9-2.5-50.8-.6-22.5-.8-45.1-1.3-67.6-.3-12.8-1.1-25.6-1.2-38.4-.3-22.5-.3-45.1-.5-67.6-.1-6.1-.2-12.2-.7-18.3-.6-8.1-2.8-10-11.2-9.3-12.2.9-24.4,2.2-36.6,3s-24.4,1.4-36.7,2.3c-2.5.2-4.9.8-7.3,1.2a3.22,3.22,0,0,1-.3,2.5m-196.2,46.9c-2.4,1.2-4.9,2.3-7.3,3.6-1.9,1-4.2,1.9-5.4,3.5-3.5,4.7-8,5.1-13.3,5.1-25.3,0-50.6-.3-75.9.8-15.5.7-30.9,3.7-46.4,5.6-4.6.6-7,3-7.6,7.4-2.3,16.5-4.8,33-6.8,49.6-.7,6.1,1.6,7.7,8.1,6.8,16.8-2.2,33.6-4.6,50.3-7a57,57,0,0,1,20.2.8,12.09,12.09,0,0,1,.5,1.8c-4.3,3.1-8.6,6.3-14.3,10.5,4.1,1.9,6.9,3.7,9.8,4.3,3.5.7,7.2.1,10.8.6,2.3.3,5.7,1,6.3,2.5a9.24,9.24,0,0,1-.7,7.6,14.75,14.75,0,0,1-7.1,5.4c-9.4,3.3-19,6.3-28.6,9-14.2,4-28.5,7.7-42.7,11.5-3,.8-6,1.1-9,1.9-5.9,1.5-10,4.8-10.4,11.3-1.1,16.6-2.4,33.3-3.3,49.9-.6,10.8-.8,21.7-.9,32.5-.1,12.2,2.5,23.7,8.9,34.2,3.8,6.3,5.3,6.7,12.2,3.6,4.5-2.1,8.9-4.5,13.4-6.9,6.7-3.5,13.6-5.9,21.7-5.8.3,3.4.5,6,.8,9.2,2,.4,4.4.4,6,1.5s2.4,3.5,3.8,5.6a26.9,26.9,0,0,0,4.6-1.4c1.5-.6,2.8-1.6,5.8-3.5-2.6,6.6-6.2,9.7-10,13.1-8.1,7.1-18.3,11.8-24.5,21.2a14.72,14.72,0,0,1-8.6,6.1c-11.3,2.3-20.3,8.8-29.9,14.4-4.1,2.4-8,5.7-12.5,6.6-11.1,2.2-22.9,4.3-33.6.1-22.9-9-39.9-24.1-47.9-48.7-9.2-28.3-11.2-57.2-9.9-86.5.6-13.3,1.6-26.6,1.7-40a110.45,110.45,0,0,0-2.2-21.5c-.9-4.8-.4-8.5,2.7-12.4a19,19,0,0,0,3.4-9.1c2.5-19.9,4.7-39.8,7-59.7.2-1.4.4-2.8.5-4.1,1.1-10.2-.2-11.7-10.3-12.6a81.1,81.1,0,0,1-9.9-1.2c-9.6-1.8-14.3-8.8-12.8-18.7a36.39,36.39,0,0,0,.1-6.6c0-6.1,1.3-7.8,6.7-10,20.6-8.1,42.1-11.9,63.8-14.8,7.9-1,16.1-.1,24.2-.3,11.1-.3,22.3-.2,33.3-1.5,33-4.1,66-4.5,99.2-4.7,10.1-.1,19.9,2,29.7,3.7a10.51,10.51,0,0,1,6.5,4.3,15.11,15.11,0,0,0,8.7,7.2c1.6.6,3.7,2.4,3.9,3.8.7,5.5,4.6,5.4,8.6,5.9,2.9.4,5.7,1.1,8.5,1.7a12.12,12.12,0,0,0,.1,2.8M852,1399.5c5.9-1.4,5.1-4.9,3.8-8.1-3.7-8.9-4.8-18-5.2-27.6-.2-5.2-.5-9.9.9-15,1-3.7.1-7.9.1-11.8,0-5.1,1.4-8.6,3.4-13,3.6-7.9,7.5-16,5.1-25.5-.7-2.7,1.5-7.2,3.7-9.4a21.43,21.43,0,0,0,6.2-11.4c1.5-6.8,3.3-13.5,8.2-18.9,1.5-1.6,2.4-3.8,3.4-5.7,9.5-18.2,18.6-36.7,28.7-54.6,5.7-10.1,13-19.4,19.9-28.9,12.3-16.9,27-31.7,41.4-46.8,3.3-3.5,6.9-5.5,11.9-4,4,1.2,6.7-1.2,9.8-3.3a173.1,173.1,0,0,1,20.6-12.4,27.4,27.4,0,0,1,12.9-2.6c5.2.3,9.7.7,13.8-3.2a6.5,6.5,0,0,1,5.5-1.3c8.3,3,17.3,4.4,24.1,10.7,3.6,3.3,2.6,9.1-2.2,11.9-3.4,1.9-7.2,3.1-10.3,5.3a37.47,37.47,0,0,0-7.8,8.1c-4,5.3-7.6,10.9-11.3,16.4-4.6,6.9-9.6,13.6-13.8,20.8-10.6,18.2-20.9,36.6-31.3,54.9-4.7,8.2-9.9,16.1-13.9,24.6-7,14.8-13.7,29.8-19.8,44.9a125.23,125.23,0,0,0-8.9,46.5c-.1,14.9,5,28.4,13,40.8a7.49,7.49,0,0,0,1.5,2c9.4,7.9,19.2,15.2,31.3,18.5a13.89,13.89,0,0,0,8.7-1c12.2-5.4,24.3-11.1,36.2-17,4-1.9,7.5-4.8,11.2-7.2,6-4,11.9-7.1,19.1-2.1,1.8,1.3,5.3.3,8,.2,6.7-.3,9.5,3,7.3,9.3-2.1,6.1-5.3,11.3-11.9,14.1-9.7,4.1-9.5,4.9-9.1,15.6.1,2.5-2,5.4-3.7,7.6-1.3,1.6-3.6,2.6-5.6,3.5-9.9,4.4-19.8,8.8-29.7,13.1-14.5,6.4-29.1,12.5-45.3,13.6-1.9.1-3.8,1-5.6,1.5-13.7,4-27.4,4.2-41-.6-3.4-1.2-7.1-1.5-10.6-2.2-9.2-2-18.5-3.9-26.5-9.4a10.55,10.55,0,0,0-3-1.5c-15.7-4.3-25.5-16.3-35.8-27.6-3-2.8-4.5-6.9-7.4-11.8M2048.6,647c-2.5,2-3.8,3-5.1,4-1.3-1.6-2.9-3.1-3.6-4.9-.2-.6,2.1-3.2,2.8-3.1,1.8.6,3.2,2.1,5.9,4m229.1,32.8c-2.3,2.1-2.9,2.6-3.4,3.1a10,10,0,0,1-1.5-2.3c-.1-.4.9-1.5,1.4-1.6,1-.1,2,.4,3.5.8M800.2,729v11.9c-4.4-4.7-4.9-8.4,0-11.9m1463.7-75.3c-.7-1.5-1.4-2.9-2.1-4.4.5-.3,1-.5,1.5-.8.8,1.3,1.7,2.7,2.5,4-.6.4-1.3.8-1.9,1.2m-287.2,350.2c3.8-1.3,6.4-.2,9.8,1.6,12.9,6.5,10.1,18.6,11.7,29,.8,5.4-.3,11.1.6,16.5,2.8,16.7,1,33.3-.2,49.9-1.3,18.9-2.4,37.7-3.7,56.6-.5,6.3-1.9,12.6-2.3,19-.5,9.1-.1,18.3-.8,27.4-.8,9.9,1,20-2.4,29.8-.9,2.7.2,6,.4,9,.9,14.7,1.8,29.4,2.5,44.1a14.77,14.77,0,0,1-1.6,6.4c-2,4.2-4.4,8.3-6.8,12.8a87.69,87.69,0,0,1-8.6-1.8c-4.1-1.4-6.8-.2-7.6,3.8-.9,4.8-4.9,6.5-7.9,9.2-.4.4-1,1-1.4.9-7.3-2.1-11.4,4.2-17.1,6.3-7.9,3-15.7,3.6-23.1-1.5a36,36,0,0,0-5.2-2.6c-5.7-2.7-9.2-7.1-10.2-13.3-1.2-7.1-2.8-14.2-3.3-21.4-.9-13-1.4-26.1-1.7-39.1-.3-19.5-.7-38.9-.2-58.4.4-18.6,1.7-37.2,2.7-55.8,1.1-22.2,1.9-44.5,3.5-66.6.9-11.9,3.4-23.6,5.1-35.5.8-5.5,1.5-11,1.9-16.6.3-3.7,1.9-5.7,4.8-8,8.5-6.9,19.2-6.7,28.8-10a7.48,7.48,0,0,1,3.3.2,53.44,53.44,0,0,0,16.5,1.2c4.9-.8,10,.7,12.5,6.9" fill="#231f20"/><path d="M3523.35,2146.32c-9.44-11-24.7-15.77-39-9.8a34.67,34.67,0,0,0-17.09,16.17c-10.6,8-17.69,20.19-17.31,35.46-4.08,3.95-8,8.08-11.89,12.19-2.47,2.61-4.89,5.27-7.33,7.91.1-.11-4.62,4.87-4.68,5a114.64,114.64,0,0,1-14,11.81c-1,.73-3.81,2.51-4.11,2.78q-.81.45-1.65.87a48.79,48.79,0,0,0-22.81-5.11c-151.62,1.25-303.53,1.23-455.14,3.62-25.79-7.68-50.3-18.89-75.18-34.33a171.43,171.43,0,0,0-42-19.37,48,48,0,0,0,4.77-27.81c-2.86-22.32-23.21-46.79-48.35-44.6-13,1.2-25.89,2.57-38.8,4,2.53-4,5.14-7.87,7.95-11.67,2.21-3,4.78-5.68,8-9.56-3.21-.51-4.88-1.19-6.69-1.13-2.29,0-4.93.91-7.38.55-11.44-1.45-22.26,1.91-33.29,4.2-11.62,2.54-23,6.15-34.67,9.16-7.76,1.86-15.51,3.71-23.19,5.76-17.7,5.08-35.13,10.28-52.72,15.08-8.07,2.21-16.46,3.64-24.72,5.93-21,6-41.75,12.12-62.59,18.51-3.16.93-6.32,1.9-9.47,2.86-130.46,28.1-258.89,65.08-386.77,104.39-12.45,3-24.89,6-37.25,9.05-14.84,3.66-29.19,8.49-44,12.15-15.44,3.9-31.28,6.82-46.87,10.33-14.33,3.22-28.95,6.32-43.2,9.73-15.9,3.87-32,7.82-48.11,11.77-20.47,5.08-40.82,9.88-61.29,15-17,4.08-34,8.64-50.94,12.72-8.74,2.26-17.84,4.21-26.85,6.36-9.22,2.23-18.54,4.74-27.76,7-16.1,3.95-32.4,8-48.69,12-7.76,1.85-15.43,3.9-23.35,5.36-8.87,1.48-17.72,2.83-26.58,4.18-21.5,2.11-42.65,6.76-63.12,15.78-3.73.91-7.44,1.92-11.15,3a17.64,17.64,0,0,0-2,.73c-22.51,3.45-40.62,26.92-41.13,48.86-.56,24.61,15.37,41.68,36.44,48.47-4.69,15.16-8.91,30.65-11.17,46.3-2.87,19.81-2.37,40.36-1.53,60.25a155.19,155.19,0,0,0,4.11,29.17c3.12,13.25,6.35,26.74,10.64,39.83-.09,6.58-.22,13.14-.44,19.67-.14,3.25-.33,6.47-.53,9.69-17.74,23.87-27.68,52.52-27,81.78-30,21-24.31,82.07,15.87,90l.4.08c-1.92,20-2.11,40.3-3.2,60.17q-.69,12.29-1.36,24.58c-18.26,19.39-28.77,41.46-33.55,68.32a113.87,113.87,0,0,0,.14,38.5c-8.36,16.66-8.44,37.5,7,55.54.52.71,1,1.21,1.49,1.92-6.83,27.28-.55,56.7,19.51,79.92a54.16,54.16,0,0,0,9.61,8.67c11.73,32,54.48,48.26,81.82,20.95,14.28-14.37,39.55-16.89,64-16.28l.91,0c4.19.09,8.46.39,12.73.68,4.12.28,8.23.56,12.33.79,6.75.53,13,1.05,18.52,1.32,49,2.4,97.29,9.43,145.17,19.2,46.72,9.78,92.57,24.08,139.36,32.91,50.28,9.45,98.9,5.54,149.41,1.75,49.37-3.77,98.8-6.87,147.9-12.37,49.39-5.39,97.22-17.28,146.13-25.47,94.55-15.93,193.81-7.32,289.11-2.12,110.48,6.23,220.85,15.51,331.11,25.06a66.93,66.93,0,0,0,7.72,1.39c40.41,4.58,81.76-1.83,120.62-13.67,27.22-8.2,55.79-17.91,81.84-31.23a1175.06,1175.06,0,0,0,72.79,107.92L3372,3329.7a94.91,94.91,0,0,0,43.4,20.05c24.55,6.6,52.7,7.24,76.8-2.77,22.85,26.25,60.36,33.62,93.33,22.38,81.42-27.52,77.83-126.75,81.49-197a2939.77,2939.77,0,0,0-13.71-472.14c-18.35-167-49.85-332.11-95.67-493.91a57.27,57.27,0,0,0-1.89-6.53c-2.12-7.44-4.24-14.89-6.43-22.32C3544.68,2161.82,3535,2151.7,3523.35,2146.32Z" fill="#f1ece1"/><path d="M3494.44,2358.73c.81,3.58.55,7.38,1,11.13.61,6.43,1,12.94,1.63,19.37a17.34,17.34,0,0,0,.8,3.58c1.82,8.24,4.9,16.17,3.25,24.93-.77,4.24,1.12,8.75,1.38,13.25.07,10.12-1.95,20.18-2.83,30.23-1.22,13.65-4.54,27.25-2.44,41.13a14.13,14.13,0,0,1-.5,6c-2.47,9.56-2.65,19.08-2.46,28.92.1,4.11,0,8.77-1.44,12.58-4.1,11.17-3.37,22.85-3,34.22.47,12.72-1.61,24.88-3.6,37.24-.57,4.15-.67,8.34-1,12.61-.76,12.54-1.61,24.88-1.9,37.45-.63,18.93-1,38-1.61,56.92-.47,11,.8,21.79,2.73,32.51.69,3.86-.35,8,.14,11.93.92,8.84,2.32,17.71,3.51,26.66l4,32.89q1.05,7.52,2.7,14.78c3,12.79,3.11,25.67,2.39,38.88-.4,7.32.89,14.84,1.52,22.42.94,10,1.6,19.85,2.53,29.83,1,10.18,2.71,20.31,3.53,30.57q1.29,14.68,1.15,29.26c.12,13.55,2,26.84.2,40.26-.51,3.21.41,6.51.38,9.75.08,3-.51,6-.7,8.82-.15.76-.3,1.51-.44,2.26.1,6.87.08,14,.46,21,.35,10.23,1.17,20.49,1.24,30.61a83.37,83.37,0,0,1-.92,13.38c20.86,50.57,38.41,103.57,23.82,156.41-.86,19.68-13,37.79-31.7,47.67v.13c-.05,7.63-.59,8.54-8.11,9.84a210.45,210.45,0,0,1-22.49,2.46c-3.31.13-6.6.22-9.9.32-1.65.75-3.31,1.51-5,2.19a252.11,252.11,0,0,1-50.07,15.36c-32.47,6.17-65.67,7.8-98.55,10.22l-214.93,16.37c-425.44,32.26-858.36,66.5-1281.1.82-8.9,7.4-20.65,11.84-33.2,12.7-78.11,5.61-158.36-18.77-219.88-67.33-20.07-16.06-29.8-38.28-19.14-63a47.58,47.58,0,0,1,15.08-19.18c-2.31-9.31-4.49-18.65-6.22-28.08-1.33-7.06-.59-8.06,6.44-7.76,6.17.42,12.43,1,18.71,1.18,2.57.08,5.43-1.34,8.2-1.34,11.85-.34,23.56-1.54,35.31-.45,26.74,2.22,53.52,1.19,80.23,3.88,6,.7,12.4-.1,18.6-.16,14.7-.13,29.51-.55,44.25,0,22.1.47,44,1.49,66.1,2.63,11,.47,22,1.88,32.8,2.91,1.42.1,2.93.39,4.55.41,21.34.31,42.6.44,63.82,1,6,0,11.92,1.49,17.92,1.52,16.68.18,33.5-.38,50.34.2,11.9.34,24,2.22,35.84,3,9.77.76,19.58,1.06,29.3,1.15,19.05.35,38.13.23,57.18.58,11.42.3,22.89,1.28,34.48,2,4.19.1,8.61-.36,12.8-.27,10.19.13,20.44.93,30.75.77,13.94-.28,27.92-1,42.09-1.88q15.09-1.11,29.94-2.81c16.45-2,32.7-4,49.15-6,6.35-.81,13-1.5,19.4-2.11,10.94-.87,21.95-1.54,33-2.22,15.91-1.1,31.81-2.21,47.88-2.92,19.23-.87,38.46-1.75,57.82-1.76,25.84.05,51.5,1.34,77.34,1.39,16.4.07,32.62-1.39,48.77-1.9,9.75-.38,19.59-.57,29.23-.67,14.78.06,29.55.12,44.22.45,12.76.21,25.49.89,38.37.82,16.6,0,33.11-.21,49.7-.22,15,0,30.12.35,45,.6l46.59.62c9.52.18,19,.35,28.49.33,16.31-.12,32.66-.72,48.9-1,21-.46,42.14-1.21,63.07-1.87,33.84-1.21,67.68-2.42,101.36-4,9.75-.38,19.29-1.82,29.08-2.68,12.47-1.05,24.94-2.1,37.57-2.76,10.43-.43,20.9-.19,31.32-.62,10.82-.6,21.47-1.58,32.29-2.18,6-.44,12.05-.41,17.92-1.25,27.33-3.56,54.74-6.93,81.82-11.08,7.81-1.18,15.19-4.49,23-6.82,5.08-1.66,9.95-3.23,15.11-4.69,8.26-2.29,12.17-7.84,14.42-15.7,4.51-15.71,5.06-32.08,6.09-48.41.4-7.31,1.36-14.4,1.1-21.67-.07-2.49-.18-5-.28-7.51-9.34-28.3-11-60.27-23-87.44-10.3-23.6-33.59-21.95-57.24-23.38q-220.9-14-442.82-10.5c-150.94,2.34-301.18,14.08-451.68,21.31-148.78,7-297.7-4.66-446.13,9.78-147.55,14.3-294.76,33.3-442.21,50.09-25.95,3-54.9-7.29-61-36.32-11.32-54.75,13.68-106.44,59-137.57a147,147,0,0,1,13.43-8.2c0-.14,0-.27,0-.41.32-4.75.65-9.49.77-14.16.23-6.09,2-8,7.92-7,14.26,2.12,28.35,1.08,42.68.64,5.71-.2,11.38-.18,17-.15,22.24-3.23,45-4.16,67-5l51.71-1.86,3.64-.26a22.89,22.89,0,0,0,3.83-.21c17.33-3.77,35.06-2.18,52.37-4.33,12-1.56,24.25-3.2,36.44-4.37,15.47-1.61,30.93-3.22,46.28-4.55,24.19-2.25,48.47-.4,72.71-2,9-.53,17.87.84,26.92,1,7.43.12,15-.5,22.55-.65,11.85-.34,23.47-.11,35.19-1.31,27.06-2.53,54,.07,81,.78,9.35.17,18.64.64,27.94,1.14,170-6.14,339.9-12.09,510-15.79q157.59-3.51,315-3.69c100.71-.06,205.07,9.19,305.4-3.4,14-1.7,34.58-2.2,45.46-12,11.7-10.65,14.25-35.46,16.85-49.68,8.46-45.48,9.6-94.14,4.26-140.09a337.5,337.5,0,0,0-7-41.58c-1.18-5-5.14-11.22-2.49-10.94-12.83-4.79-35.71.6-48.42,1.07-51.18,2.21-102.46,4.71-153.62,8.07Q2913.52,2562,2717.1,2592.9q-78,14.55-156.54,27c-18.36,3.51-36.52,6.94-54.8,10.65a54.06,54.06,0,0,1-31-2.51c-2.49.12-5.17.31-7.94.32-21.29.35-40.8-4.42-57.3-14.13-13.19,3.19-26.38,6.39-39.73,9.19-65,13.76-130.5,15.95-196.72,13.61-128-4.67-256-10.29-384-15.44q-109.11,16.13-218.78,30.88c-28.79,3.94-66.67-13.91-62.41-49.57,2.92-24.5,2.66-50-6.69-73.51-10.1-25.3-6.72-53.67,19.46-68.28a47.82,47.82,0,0,1,17.86-5.48c1-1.26,2.64-1.58,5.89-1.67,20.54-.5,41.08-1,61.54-1.7,22.07-.68,44.15-1.36,66.11-1.76,21.29-.35,42.55-.23,63.92-.39,23.27,0,46.66-.33,69.93-.36,21,0,42,.69,63.1.42,15.37-.19,30.59.37,45.81.94,16.25.83,32.55-.44,48.81-1.23,30.36-1.83,60.5-4.73,90.83-6.08,29-1.26,57.88-5.48,86.68-8.27,8.44-.76,16.94-.85,25.58-1.68,10.93-.88,22-2,32.86-3.57,19.75-2.94,39.71-4.81,59.73-6,11.68-.72,23.36-1.45,35.16-2.45,18.51-1.5,37-3.67,55.45-4.69,22-1.35,44-1.75,66-3.11,16.19-1,32.44-2.92,48.65-4.39q31.38-2.72,62.89-3.41c27.53-.88,55.12-2.71,82.59-4.26,19.15-1.08,38.46-1.75,57.72-3.11,13.7-.87,27.46-2.69,41.19-4,14.68-1.28,29.36-2.57,44.23-3.93,12-1.09,23.83-2.56,35.91-3.45,22.33-1.72,44.56-3.15,66.62-5,4.69-.34,9.34-1.36,14.07-2.18,15.53-2.56,31.09-5.59,46.51-7.88,10.4-1.57,20.86-2.48,31.32-3.38,18.78-1.38,37.62-2.1,56.24-3.87,12.47-1.06,24.79-4.12,37.26-5.17,17.56-1.57,35.06-2.18,52.58-3.27,18.79-1.38,37.58-2.76,56.17-4.07,12.07-.88,24-1,36.16-1.71,5.37-.4,10.8-1.74,16.28-2.42,7.69-.9,15.55-1.41,23.21-1.84,14.76-1.09,29.44-2.37,44.36-3.06q56.26-2.73,112.77-4.87c7.27-.26,14.62-.33,21.8-.79a96.79,96.79,0,0,1,21.64,1.58c6.3,1.29,13.51.35,20.17-.81,10.25-2,20.39-2.52,30.18,2.16,1.39.57,3,.59,4.4,1.16,3.18,1,8,1,9.41,3.22C3492.72,2349.07,3493.43,2354.08,3494.44,2358.73Zm-72.64-447.1c20.73-40.92,28.28-94.09-15.62-124.18-13.35-9.24-28.26-12.77-43.67-14.48a187.12,187.12,0,0,0-31.23-8.68c-7.6-1.43-15.17-2.66-22.77-3.41,1.44-16.43,4.61-33.14,3.75-48.82-2.26-40.78-20.41-73.78-52.58-98.39-26.37-20.12-61.06-35.85-92.65-45.26-16.54-4.85-33.16-6-50.09-7.91a46.32,46.32,0,0,1,0-6.68c2.44-24.53-19.58-46.93-42.35-50.11-26.44-3.72-45.86,11.07-55.79,34.8-15.15,36.06-34.67,70.49-56.92,102.82-6.8,9.92-14.18,19.36-21.79,28.63-8,1.74-15.65,4.43-22.77,9.32-8.09,5.45-16.93,9.14-23.57,17-10.48,12.45-17.38,26.85-26.4,40.06-11.21,16.21-9.93,33.65-6.75,51.23.56,3.2,1.31,6.4,2.12,9.58-3.83,20.48-4.51,41.44-4.3,62.64-11.92,2-22.66,6.72-31.49,15.59-1.83,1.69-3.58,3.57-5.41,5.26-12,11.47-23.08,23.69-28.85,39.69-2.47,6.8-4.94,13.59-7.13,20.5-4.76,15.12-8.84,30.19-4.61,46.41,2,7.48,5,13.6,11.68,17.49,9.08,5.2,18.17,10.4,27.45,15.52a17.81,17.81,0,0,1,9.54,15.15c.56,5.76-1.09,9-6.52,10.32-8.15,2-15.28,5.92-22,10.8-13.44,9.76-27,19.8-40.37,29.75a7.27,7.27,0,0,0-1.87,2.16c-10.66,16.44-23.07,32-32,49.78-5.29,10.51-9.45,21-7.41,33.07.34,1.93-.18,4,.17,5.92a96.14,96.14,0,0,0,2.21,10.83,30,30,0,0,0,1.36,3.37,85.07,85.07,0,0,0,2.05,21.95c25.48,112.46,165.19,77.69,246.07,72.07a837.62,837.62,0,0,1,153.81,2.91c51.29,5.8,102.8,12.67,154.33,5.23,49.79-7.17,82.12-41.86,125-63.91,40.43-20.78,79.41-41.19,104.26-81.07,18.25-29.74.74-62.32-28.67-74.25l-3.16-1.27a21.36,21.36,0,0,1-1.88-5.85c-1-6.26-3.61-11.4-7.08-16.41-9.53-14-19.14-28.2-28.67-42.21-.77-1.29-2.05-2.14-3-3.35-5.15-6-10.49-11.73-15.67-17.61-1.18-12.38-2.56-24.76-4.69-37.29C3412.92,1934,3414.31,1926.28,3421.8,1911.63Z" fill="#f0b574"/><path d="M3074.29,2189.85c-49.52,1.76-109.5,14.34-156.14-5.17-54.7-22.82-22.71-101.4.55-137.38,13-20.19,26.67-51,46.61-65.09,6.61-4.6,12.78-6.94,18.53-13,7.51-8,13.38-17.11,21.45-24.86,14.88-14,24.42-23.79,30.89-43.08,5.87-17.43,12.05-32.46,11.7-51-.11-6.87-10.81-6.55-10.71.32.39,23.58-10.64,57.92-26.67,74.75-9.46,9.94-19.57,18.31-28.14,29.26-8.22,10.12-17.65,14.05-27.25,22-16.28,13.48-28,39.09-39.27,56.73-13.75,21.18-29.61,43.93-34.58,69-3.64,18.35-3.74,43.52.83,61.67,4.74,18.54,17.51,24.28,34.09,31.42,21.59,9.2,40.72,9.75,64.22,9.17,31.71-.79,63.22-2.63,95-3.89,6.32-.33,5.81-10.95-1.07-10.85m-172.6-232.5c-.65-17,5.19-22.92,14.59-36.29,8.1-11,14.2-23.44,24-33.07,19.94-19.61,40-36.26,55.17-60.59,23.47-37.68,4.9-93.79-22.21-124-4.7-5.19-11.81,2.62-7.31,7.89,21.17,23.67,28.09,50.75,27.68,81.81-.35,27.35-22,53.43-41.79,71.14-8.53,7.72-18.12,14-25.3,22.78-6.14,7.4-10.63,16-15.93,23.7-11.73,16.65-20.33,25.31-19.5,46.64,0,7.15,10.69,6.83,10.59,0m170.53-342.7c.8,35.63-3.42,73.58,11,107,12.65,29.76,38.2,47.92,67,61,32.1,14.5,74.75,26.67,96.45,56.58,5.4,7.42,8.61,16.23,13.51,24.1s11.59,14.52,16.77,22.51c12.25,18.86,15,41.46,15.39,63.42.1,6.87,10.81,6.56,10.71-.32-.44-16-1.9-32.17-6.87-47.39-5.37-16.2-16-27.42-25.1-41.39s-14.65-28.47-27.1-40.1c-12.22-11-26.64-19.08-41.52-26-32.15-15.18-69.87-25.49-94-53-30.62-34.72-24.28-84.16-25.15-127.13-.41-6.52-11.11-6.2-11,.67m55.45,274.93c-21.32,3.59-34.72,19.55-46.2,36.79-11.28,17.15-26.83,39.55-23.83,61.12,3.19,23.1,31.39,36,47.7,48.56,10.87,8.38,22.49,16.9,29.58,28.92,6.32,10.74,15.53,32.25,5.62,43.3-4.55,5.13,3.14,12.52,7.89,7.31,23.55-26.42-10.11-66.78-30.1-82.64-11.12-9-23-16.93-34-25.7-18.91-14.93-18.57-29.59-8.83-49.33,11.31-23.16,28-53.4,55.29-58.11,6.66-1.16,3.54-11.39-3.12-10.22m90.24,10.76c.92,29.81-4.16,66.28,5.82,94.62,7.18,20.52,24.58,35.15,40,49.47,10.49,9.68,21.74,19.51,27.9,32.62,6.12,13.58,5.85,30.06,6.55,45,.74,18.36-4.26,35.66-12.63,52.06-5.95,11.71-13.39,21.5-15,34.83-.85,6.81,9.46,9.43,10.31,2.62,2-15.6,12.81-28.4,18.68-43.07,4-10.21,8.31-21,9.36-32.26,2.43-22.91.19-54.25-13.45-73.68-15.1-21.83-40.22-35.09-54.62-57.43-18.19-28.14-11.22-72.77-12.25-105.08-.3-6.79-10.81-6.56-10.71.32m177.33,281.94c2.72-24.42,16.59-45.88,18.76-70.53,2-22.27,1.09-49.32-7.79-70.06-10.52-24.65-27.88-46.92-33.6-73.34-3.13-14.14-4.38-32.06-4.36-46.36.11-16.88,8.27-28.81,20.23-40.48,4.91-4.82-2.71-12-7.89-7.32-16.44,15.85-24,32.12-22.74,54.9,1.45,26.14,4.8,49.64,16.33,73.41,7.45,15.1,16.67,29.46,23,45.06,5.62,14,5.36,28.88,5.78,43.69,1.22,32.22-14.88,57.15-18.54,88.18-.29,7,10,9.65,10.87,2.85M2898,2285.06c-13.19.43-26.46.67-39.65,1.1-13,.35-29.78,3.2-42.32-.33-12.73-3.44-19-13.51-28.88-21.14-8.15-6.29-17.58-10.65-25.5-17.49-21.61-18.64-25.73-46.2-24.75-73.12.6-15.7,3.74-28.07,14.19-40,7.54-8.44,12.33-15.75,17.87-25.66,12.12-22.35,26.83-35.17,45.84-50.94,9.29-7.56,24.06-18.57,22.32-32.13-.8-6.35-8-12.09-10.33-17.59-4.43-10.6-6-24.25-7-35.57-2.78-30.43,10.16-53.57,28.7-76.52,8.77-11,21.5-21.42,26.43-35,6.31-16.93,2.74-37.1,1-54.58-5.22-56.15,21.31-92.57,68-120.56,34.7-20.7,63-48,74.09-87.62,4.89-17,15.19-31,19.68-47.86,1.8-6.74,2.65-13.55,4.25-20.21.41-1.79,3.33-15.22,5-15.21-.47,0,1.81,12.62,1.89,12.81,2.87,9.64,9.94,17.76,14.1,26.62,3,6.6,5.18,13.52,9.45,19.34,9.07,12.36,24.59,14.18,39.07,15.75,14,1.53,26.15,2.45,39.43,7.75,9.93,3.92,19.51,7.54,29.82,10.15,10.87,2.84,22.31,4.29,32.87,7.5,14.48,4.33,27.17,12.63,40.65,19,13.77,6.48,29.09,11.15,34.38,27.16,3.4,10.34,2.89,21.84,3.41,32.46.49,12.24.38,23.58-3.11,35.65-3.13,10.75-7.42,22-8.4,33.47-.86,11.19,2.87,17.93,14,20.89,21.09,5.26,44.12-3.65,65.92,1.08,49.9,10.76,101.23,70.26,55,114.68-10.21,9.79-20.22,16.73-22.66,31.35-2.56,16.51.86,36.3,10.11,50.19,4.76,7,11.75,12.15,17.14,18.43,6.88,8.2,10.58,18.18,17.06,26.54,15.92,21,37.48,36.23,50.27,59.71,14.58,26.65,13.32,53.46-2.11,79.48-7.21,12-17.47,15.59-27.38,23.88-10.5,8.53-18.45,16-31.08,22.18-23.07,11-46.81,22.07-68.1,36.25-20.58,13.66-50.1,21.36-73.89,29-29.26,9.44-61.62,16.95-92.33,11.32-13.74-2.56-26.59-8.5-40.52-9.83-10.61-1.11-21.18.07-31.72.78-12.83.74-26.08,2.12-38.93,1.72-14.55-.61-28-4.21-42.73-4.07-27.49.4-54.59,3.41-82.07,2.2-28-1.45-54.4-2.21-82.66-.33-19.73,1.32-50.43,9.52-66.52-4.75-5.13-4.54-12.52,3.15-7.32,7.9,14.38,12.9,35.29,11.09,53.33,9.56,29.63-2.45,59-5,88.66-2.41,33.94,2.9,66.87-1.62,100.69-1.21,15.53.21,30.53,4.1,46.29,3.74,16.23-.31,32.48-2.25,48.71-2.57,17.58-.42,32.36,5.17,49.17,9,15,3.42,31.06,3.18,46.41,1.85,30.78-2.47,58.45-15.16,87.23-24.64,12.19-3.93,24.84-6.21,36.24-12.58,14.58-8.16,27.57-16.8,42.84-23.86,13.38-6.05,25.91-13.58,39.05-20.22,13.73-6.88,22.45-18.58,35.21-26.67,44.46-28.23,42.65-86.72,13.67-125.81-7.86-10.55-16.93-20.13-26.2-29.64-11.75-12.15-19.3-25.83-29.06-39.28-9.52-12.85-21.84-20.85-26.55-37.1a63.71,63.71,0,0,1-2.12-23.32c1.19-13.17,7.55-18.36,16.21-26.35,16-14.74,26.2-28.92,25-51.22-1.5-24-12.7-44.26-31.1-59.64-19-15.8-43.49-26.34-68.32-27.28-8.18-.28-16.63.48-24.76.88-4.3.18-15.84,2.92-19.51.76-4.38-2.78-7.27-16.33-7.26-20.72,0-3.24,1.75-7.41,2.73-10.59,2.63-9.16,6-17.7,6.83-27.28,2-21.13,2.71-54.84-12.32-72.08-8.84-10.14-22.58-14.33-34.39-20-14.61-6.82-27.77-15.16-43.4-19.47-21.81-5.88-42.4-11.58-63.76-18.58-14.1-4.49-27.92-4.49-42.46-6.72-9.82-1.44-20.33-4-26.81-12.33-4.55-5.94-6.18-14.25-9.71-21.07-4.2-8.4-9.52-15.63-11.86-24.56-1.84-6.61-1.38-10.49-5.46-16.4-1.21-1.8-3.88-3.22-6-2.32-19.47,8.59-15.62,41.56-24.19,58-8.37,16.4-12.65,31.56-19.08,48.76-8.48,22.21-26.56,42.43-45.71,56.19-29.21,21.17-62,34.18-80.08,67.75-17.15,31.82-12.39,62.57-10.63,96.64,1.09,23.06-5.81,34.7-20.25,52-12.15,14.52-24.25,29.71-31.94,47.21-12.49,29.19-4.68,60,3.61,89.32,2.54,8.85,8,11.42,0,22.13-5.15,7-14,11.82-20.61,16.89-13.6,10.52-24.39,23.32-33.31,37.87-6.44,10.53-11.26,21.07-19.34,30.43-4.66,5.4-9,9.5-12.25,16-7.07,14-7.6,31.52-7.13,47,.71,18.84,3.61,36.3,14.36,52.1,11.43,16.9,28.88,23.91,43.84,36.57,12.72,10.6,19.2,19,36.5,21.2,25,2.95,52.14-1,77.18-1.77,7.2.68,6.88-10,0-9.92m-1384,122.8c43-1.81,84.82-14.4,126.4-24.14,19.48-4.67,39.27-13.62,57.36-21.63,23.91-10.66,44.69-16.11,70.59-19.77,46.13-6.56,91.59-18.61,135.21-34.51,43.82-16,89.93-18.15,134.75-30.63,46.39-13.13,93.68-21.33,140.19-34.74,45.63-13.27,88.6-36.27,134.46-47.34,24.53-5.85,48.73-4.19,73.46-7.36,22.4-2.66,43.43-10.28,64.65-18,46.26-16.77,94.94-24.4,142.79-35.14,27.6-6.21,55-6.81,82.63-11.88a94.26,94.26,0,0,0,22.23-7c13.46-5.85,24.25-6,38.07-8.74,39.44-7.69,75-36.15,97.93-68.06,3.91-5.55-5.37-10.66-9.47-5a171.33,171.33,0,0,1-50.76,46.3c-21.58,12.92-40.34,13.83-63.69,19.19-6.1,1.4-11.47,4.56-17.36,7-13,5.4-25.85,7.09-39.75,8.05-21.47,1.58-41.84,5.24-62.95,9.89-45.32,10.16-92.24,17.05-136,32.55-20.44,7.37-40.71,15.14-62.23,18.82-22.39,3.8-45.33,1.85-67.72,5.66-46.9,8-89.71,33-135.27,46.52-42.44,12.63-85.46,21.13-128.53,31.72-21.53,5.3-42.45,12.64-64.11,17.07-22.25,4.67-44.82,4.17-66.81,10.58-45.25,13.11-88.21,30.58-134.82,39.88-24.07,4.74-48.94,5.9-72.47,12.49-21,6-42.23,16.46-62.46,24.9-44.09,18.63-99.38,30.86-147.48,32.71-5.92.17-5.69,10.68,1.18,10.57m-4.38,0c112.86-3.52,225.62-6.76,338.6-10.56A1101.46,1101.46,0,0,0,2005.12,2381c26-4.61,51.29-8,77.8-8,26.23-.11,52.28,1,78.16-4.94,27.4-6.14,50.61-13.51,79.25-11.17,25.59,2.23,50.94,1.11,76.57.1,23.14-.9,43.66-5.31,65.86-10.65,28.7-6.9,58.28-5.64,87.28-3,108.21,10.18,215.39,1.89,323.6-1.76,24.09-.83,49,.3,73.11-3.77,26.45-4.58,51-17.58,77.29-21.4,53.46-7.79,109-1.69,162.81-5.92,23.68-1.81,46.69-6.34,70.55-6.61,27.1-.24,52.13-3.77,78.67-9.77,54.54-12.38,109.59-14.14,165.33-14.81,22.52-.17,41.94-3.89,64.18-6.95,11.75-1.67,24.53-3.09,36.38-.65,21.44,4.42,25.93,16.84,25.3,35.78-.54,21.89-.52,42.4-2.77,64.08-2.47,22.24-3.87,45.42,1.31,67.23,5.39,22.88,12.1,46.13,22.09,67.32,4.49,9.65,10.66,18.37,14.17,28.43,5.11,14.47,3.06,30.54,3.16,45.71.23,25.95.34,52.19,5,77.68,4.77,26.36,8.48,50.17,8.84,77,.63,56.22,3.27,112.28,5.05,168.48.85,28,1.92,55.44,5.06,83.41,2.89,24.61.58,50,5.6,74.2,4.39,22.14,1.72,44.46,5.64,66.57,2.33,13.32,7.41,25.49,9.35,39,2.39,17.91.41,35.79-1.86,53.57-2.69,21.18-5.51,41.49-6,62.91-.14,11.81,2.93,29.67-2.88,40.62-5.49,10.59-19.5,14.59-30.25,17-18.11,4.1-39.3,8.56-57.55,9-7.26.27-23.73,3.91-30.34.21-12.59-7-3.52-37.72-.71-48.11,5.2-20.15,12-36.56,20.87-55.5,8.28-17.75,12.56-38.43,13.14-58,.74-27.51-1.65-55.33-2.53-82.85-.76-25,1.19-50.75-2.26-75.59a608.51,608.51,0,0,1-5.78-75.74c-.4-24.72-6.24-48.11-7.51-72.7-1.21-25.55-2.46-49-7.41-74.13-5.87-28.44-5.12-57.57-6.1-86.44-1-25.63-3.64-51.27-3-76.88.53-25.81,7.12-50.92,8.12-76.69.79-24.08,3.48-48,4.27-72.09.29-9.81,3.75-18.63,4-28.43.49-15.42-1.09-31.36-1.47-46.64-.75-29.42,2.16-73.28-32.48-85.57-14.06-5-30-3.39-44.53-2.86-29.73,1.11-59.35,1.94-89.17,2.85-53.71,1.66-108,1.28-161.72,5.23-25.69,2-50.64,8.45-76.14,10.33-22.81,1.68-48.23-1.78-70.46,4-24.88,6.69-49,13-74.82,17.38-27.59,4.59-55.74.66-83.46,4.39-26.38,3.63-51.85,12.18-78.41,14.27-26.84,2-53.81.32-80.73,2.1-52.58,3.26-103.48,21-155.93,22.41-111.69,3-223.17,7.12-334.89,10.62-53.24,1.7-108.94-.88-161.9,6.46-25.23,3.61-49.76,9.46-75.3,10.67-27.17,1.19-54.48.37-81.62,1.08-25.79.62-49.48,9.58-75,11.94-27.82,2.38-55.87,2.56-83.56,3q-82.35,1.52-164.89,4.25c-13.66.4-27.21.52-40.71,1.31-7.38.55-18.36,3.51-25.5,1.88-23.36-5.7-15.64-55.72-16.23-72.06-.3-6.8-10.81-6.56-10.71.31.57,19.59-2.2,43.34,1.91,62.6,2.55,11.62,8.52,17.65,20.13,19.5,19.52,3.15,43.51-1.79,63.21-2.63,29.82-.92,59.83-1.91,89.65-2.83,58.29-1.73,117.43.8,175.46-5.43,25.17-2.66,48.24-10.9,73.92-11.24,28.64-.42,57.73.81,86.42-1.71,26.67-2.37,52.64-9.74,79.28-11.64,28.85-2.12,58.21-1.92,87.36-2.79l176.05-5.67c57.82-1.76,115.55-3.72,173.57-5.56,25.71-.82,53.31,1.27,78.84-3.85,24.94-4.87,50-9.35,74.9-14.42,55.42-11.37,112.24-2.8,167.7-14.64,54.2-11.55,108.89-8.09,163.41-18.85,12.37-2.39,23.32-7.65,35.36-10.83,14.29-3.88,29.88-1.86,44.42-2.39,28.86-1,55.93-6.28,84.52-10.14,55.16-7.57,113-4.75,168.57-6.47,27.05-.91,54.1-1.83,81.24-2.54,25.23-.85,60.44-8.16,74.82,18.57,11.34,21.09,7.24,51.61,7.94,74.83.83,26.86-1.07,53.24-3.76,80-2.3,23.78-2.5,47.61-4.12,71.34-2,27.33-8.16,52.27-6.92,80.11,2.17,53.26,2.75,106,12.61,158.4,5,26.28,1.49,53.32,5.79,79.65,4.86,29.32,4.25,57.7,6,87.39,1.44,25,6.85,49,6.94,74.09-.12,29.56,1.19,59.21,2,88.83.75,26.66,1.45,52.65-8,78-3.87,10.61-10.85,19.29-15.09,29.58-4,9.74-5.67,20.12-8.17,30.15-5.57,21.46-17.62,66.6,16.4,66.93,22.49.3,42.78-3.56,64.65-6.92,14.36-2.07,29.74-3.88,42.38-11.69,9.17-5.67,15.45-13.82,17-24.59,1.92-11.41.48-23.71.59-35,.25-17.63,2.09-34.76,4.52-52.14,3.36-24,6.56-48.38,2-72.53-1.76-9.18-5.17-17.9-7.2-27.2-3.64-16.46-1.75-32.92-2.9-49.5-.61-9.2-3.19-17.58-4.66-26.64-2.43-14.66-1.14-29.26-1.95-43.91-1.83-30.36-6-60.2-7-90.69-1.86-59.16-4.47-118.47-5.46-177.76-1-54.9-13.24-107.43-13.86-162.49-.2-19.28,2-38.2-6.75-56-13-26.64-24.11-51.72-31.29-80.53-6.94-28.23-4.45-54.86-1.15-83.43,2.46-20.62,2.45-42.75,1.31-63.71-1.91-38.85-47.43-38.54-76.52-34.24-23,3.39-44,6.14-67.11,6.56-30.46.49-61.11,1.06-91.5,3.37-23.87,1.89-46.88,6.42-70,11.7-31.39,7.1-60.57,8.44-92.59,9.58-25,1-49,6.37-73.82,7.05-28.95.79-57.82,1.77-86.69,2.74-24.09.83-49-1-72.38,5.53-27.11,7.4-51.36,18.9-80.18,20.55-57.35,3.41-115,3.27-172.56,6.29s-115,6-172.46.49c-25-2.48-49.67-5.79-74.95-5.61-29.59.35-55,10.25-83.83,14-24.73,3.17-50.77,3.2-75.57,3.41-26.83.36-50.77-5.1-77.34,1.38-27.25,6.52-52.09,12.74-80.53,13.08-27.77.29-54.73-.22-82.28,3.9-56.1,8.65-110.69,17.59-167.59,19.89-58,2.32-116,3.68-174,5.53-59,1.77-117.64,3.67-176.52,5.64-7.89,1-7.57,11.69-.78,11.39m-12,59.17c1.42,40.43,7.56,81.67,15.65,120.94,4,18.87,3.14,39,6.11,58.31,4.14,25.93,3.14,51.71,3.44,77.86a439.7,439.7,0,0,1-5.4,73.25c-3.43,22.18-3,43.67-4.24,66.09-2.94,49.86-19.68,96.49-28.92,145.07-7.95,42.28,6.55,74.26,22,113,7.88,20,15.76,40,23.44,60.07,9.9,25.37,12.41,48.53,13.32,75.58,1.07,31.83,9,66.8,37.34,85.62,15.88,10.44,37.14,10.56,54.58,17.57,21.18,8.22,42.28,16.25,63.15,24.83,17,7,33,7.69,51.23,6.75,26.41-1.34,52.15-2.62,78.5-.25,27,2.33,53.6,6.92,80.44,10.47,25.14,3.35,49.42,2.44,74.58,4.16,20.6,1.32,40.72,7,61.25,9.25,25.85,2.82,51.65,3.35,77.44,2.73,51.11-1.27,102.25-3,153.2-4.67,51.14-1.74,102.29-5.1,153.35-1.51,21.64,1.58,43.09,7.15,64.79,7.78,24,.6,48.3-1.94,72.19-2.68,52.56-1.65,105.05-3.49,157.69-4.93,23.5-.59,47.41-.19,70.66-4.13,25.66-4.25,49.62-8.71,75.8-9.49,57.07-1.91,113.75-2.51,170.62-7.1,55.61-4.29,111.2-9.74,167.12-11.63,28.39-1,56.58-1.94,85.06-2.75,24.84-.68,50,1,73.79-6.58,26.62-8.57,51.33-10.12,79.07-12.7,28.32-2.83,55.45-9.08,84-9.22,6.87-.1,6.56-10.81-.32-10.71-24.05.36-45.13,4.54-68.71,7.69-22.71,3-45.84,2.3-68.34,6.39-20.57,3.74-38.25,12.73-59.38,13.47-25.63,1-51.11,1.27-76.74,2.28-96.63,3.2-192.47,14.37-289,17.77-46.83,1.56-96.63-2.33-142.86,5.66-23.93,4-46.49,9-70.86,9.74-25.51.73-51,1.46-76.73,2.28-50.27,1.61-100.4,2.46-150.74,5-45.56,2.41-90.47-7.43-136.39-8.1-98.24-1.2-196.23,9.25-294.55,7.86-47.06-.65-92.52-12.35-139.45-12.13-47.88.15-95.5-13.41-143.5-15.75-25-1.33-49.63,2-74.8,1.94-23.83-.21-40.38-10.59-61.75-18.73-19.79-7.65-40.91-16.82-62-21.41-11.94-2.63-21.26-2.89-31.18-11.2a70.52,70.52,0,0,1-22.08-34.13c-6.36-21.32-4.81-42.48-6.08-64.31-1.42-21.07-8.47-40.73-16.3-60-7.17-17.75-13.68-35.55-20.85-53.31-8.7-22-20.2-43.44-23.63-67.13-3.68-27.05,4.62-53.57,11.55-79.51,6.47-24.83,11.63-50,15.64-75.22,4.1-25,2.74-49.78,4.94-74.9,2.1-23.7,8.08-46.94,8.68-70.93.72-25.89.36-52.72-1.2-78.57-1.17-23.26-6.88-45.77-7.18-69.16-.21-11-3.74-20.57-5.29-31.45-1.26-10.77-.73-20-3.73-30.49-6.37-22.46-7.78-50.69-8.56-74.11.72-7.67-10-7.36-9.88-.48m28.41,188c64.13-2.09,131,1.15,194.3-8.91,29.6-4.74,57.63-11.59,87.84-12.67,33.37-1.24,65.89,1.56,99,3.64,65.72,3.93,131.68-5.38,197.54-3.35,61.47,2,121.53,13.38,183.32,10.65,29.66-1.3,57.93-10.33,87.42-12,34.66-2,69.21,4.55,103.43,2,26.84-2,52.84-9.83,79-15.19,36.95-7.58,73.56-6,110.82-8.43,60.44-3.77,115.89-29.44,176.31-31.6,27.72-1,54.59-6.18,82.23-7.33,33.95-1.49,67.75-.61,101.67-4.39,27.1-3,52.18-11.39,78.69-16.92,33.68-7.13,72.11-2.88,106.42-4.06,26.58-.94,53.41-5.68,79.91-4.06,10.64.63,24.4,1.58,34.65,5.14,22.47,7.45,18.91,31.53,18.45,50.85-.51,29.72.91,59.1-3.48,88.36a194.53,194.53,0,0,1-13.2,47.92c-6.07,14.75-10.13,31-20.5,43.13-20.74,24.33-39,34.72-71.5,35.83-34.79,1.14-70,1.31-104.77.83-64.42-.79-128.24.94-192.65,2.92-28.87,1-58.81,3.79-87.63,2.67-14.75-.53-29-4.94-43.64-6.23-17.72-1.6-35.79.41-53.56.91-63.07,1.88-126.43,2.49-189.52,6-14.45.73-28.6,2.71-43.15,2.1-13.32-.44-23.86-5.26-36.5-7.36-29.79-5.1-64.18,1.42-94.2,2.41-32.22,1.23-64-2.57-96.3-1.54-38.43,1.27-76.74,2.27-115,3.47-75.31,2.37-150.42,4.67-225.73,7-148.61,4.6-296.56,13.54-445.09,18.33-6.79.3-6.56,10.81.31,10.71,138.78-4.42,277-13,415.75-17.39q104.79-3.27,209.78-6.61c69.19-2.13,141.37-10.34,210.34-3.61,29.56,2.88,59.81-.29,89.27-1.52,16.07-.71,32.83-3.09,48.86-.56,13.31,2.06,25.39,6.7,39,7.25,31.58,1.12,64.08-2.76,95.72-3.74,33.92-1,67.76-2.22,101.69-3.24,33.25-1,68.27-5.43,101.46.09,30.46,5,59.28,3.39,90,2.54,68.24-2.19,136.42-6.2,204.76-4.28,34.07,1,67.83-.41,101.89-.55,24.69.07,51.5,1.33,72.29-14,40.07-29.39,57.36-81.33,63.57-128.87,3.87-30,2.71-60.37,3-90.68.22-17.15,1.24-39-14.95-49.09-15.19-9.33-39.26-10.13-56.41-10.35-30.78-.29-61.78,3.88-92.74,4.81-29.14.86-61-2.66-89.43,3.88-35.76,8.24-69.25,16.91-106.4,19-31.7,1.92-63.94-.76-95.44,3.85-31.7,4.7-63.48,3.66-95.14,7.88-29.06,3.83-56,15.53-84.43,21.4-35.69,7.28-71,7.72-107.22,8.77-31.64,1-61.65,7.51-92.44,14.36-36.23,8.2-67.47,6.25-103.92,5.09-32.06-1.15-62.87,1.79-94.28,7.75-32.66,6.25-67.14,7-100.36,4.76-33.89-2.23-67.48-7.58-101.29-9.61-33.14-2.08-66.06-.33-99.12.55-33.92,1-68,3.45-101.94,2.65-32.84-.82-65.7-5.55-98.57-4.75-32.66.71-62.43,5.06-94.06,11.58-34,6.82-69,6.43-103.4,7.41-33.65,1.12-67.1,2.17-100.83,3.1-7,.86-6.7,11.56.09,11.26m-9.19,384.65c14.11.11,27.79,3.62,42.13,3.17,17.57-.42,35.38-1.39,52.87-2,35.27-1.12,70.34-2.15,105.52-3.45,38.35-1.48,76.52-3.35,114.75-4.54,36.81-1.29,76.33,2.27,112.92-2.85,28.31-4,53.81-21.3,81.08-29.44a565.27,565.27,0,0,1,108.54-21.08c70.66-6.89,143-9.18,213.74-3.19,33.47,2.86,67.82,6.74,101.3,5.22,32.81-1.47,65.52-7.05,98.28-9.19,70.31-4.43,141.39-6.43,210.78-19.7,35.85-6.89,71.43-5.6,107.84-6.73,36.88-1.09,73.8-2.66,110.85-3.37,37.45-.87,74.94,1.7,112.38.83,34.21-.9,67.95-3.45,102.12-1.11,36.35,2.59,72.14-.58,108.44,4.1,14.56,1.76,35.28,2.79,47.35,11.82,15.17,11,11.16,33.38,11.56,49.81,1.09,34.12,2.19,68.24,3.36,102.56.45,14.34,2.15,30-3,43.66-8.28,22.13-29.52,25.92-50.34,29.07-29.49,4.47-56.3,15.89-85.15,23.54-32,8.3-66.7,13.08-97.54,24.79-14.7,5.67-26.95,13.32-43.68,12.46-17.39-.81-34.14-5.58-51.17-8.85-33.21-6.66-67.07-12.13-100.67-15.86-32.85-3.59-64.84-.15-97.77-1.17-35.3-1.18-70.12-7.85-105.54-8.75-34.74-1-69.6,1.14-104.31,2.48-36.25,1.52-72.64,1-108.73,5.71-34.34,4.42-68.05,9.26-102.7,9.66-37.13.5-73.1,2.14-110,7.62-35.95,5.55-71.36,7.42-107.74,8.07-34.48.78-69.06,3-103.61-.8-30.87-3.26-62.94-5.56-94-6-34.5-.36-68.35-10.21-102.82-13.81-13.53-1.5-27.16-1.58-41-2.72-19.34-1.61-38.2-7.57-56.61-13-33.18-9.9-63.15-1.08-97.11.4-27.08,1.39-59-5.57-85.13,3.71-11.24,4-23.14,9.19-34,14.17-12.71,6-29,19.94-32.38-1.93-3-19.95,1.63-39.18-4-59.21-2.83-10.11-7.21-20.05-13.81-28.13-3.94-5-9-8.91-13.47-13.51-8.27-8.77-12.5-19.45-16.69-30.61-2.84-7.35-7.45-15.1-9.22-22.66-2.58-11.14,3.89-30.44,15-33.21,10.28-2.45,33.89-3.31,42.36,2.61,5.74,3.83,10.78-5.65,5.12-9.28-8.66-5.84-17.66-5.31-28-4.68s-23.09-1.2-33,2.22c-22.09,7.83-15.68,35.36-9.19,52,5.29,13.24,9.7,28.23,17.34,40.48,10.24,16.25,26.1,25.54,32.59,45,7.24,22.34-.13,45,5.81,67,3.72,13.9,12.9,20.44,26.89,15.29,7-2.67,12.85-7.89,19.64-10.95,6.59-3,13.36-4.43,20-7.21,18.29-8.1,33-10.33,53.23-10,16.56.46,32.76.62,49.42-.34,19.35-1.15,39.09-6.86,58.59-6,18.54.8,37.15,8.94,55,13.5,17.61,4.64,34,5.38,52.09,6.62,35.71,2.16,70.24,13.11,105.56,15.43,37.49,2.57,75.38,2.21,112.77,6.2,34.27,3.68,68.57,1.36,102.66.74a932.6,932.6,0,0,0,119.89-9.91c39.3-5.79,78.52-4.63,118.2-6.2,38.54-1.56,76.22-10.13,114.79-12.16,79.08-4.41,159.22-9,238.08-.67,35.5,3.86,69.74,2.49,105.3,2.64,39.94.16,80.24,7.78,119.53,14.67,28.28,4.8,60.71,17.32,89.79,11.88,15.36-3,28.42-12.55,43.54-16.09,18-4.5,36-9.27,54.24-13.64,36.18-8.87,71.75-24.18,108.65-29.66,22.75-3.49,47.36-6.39,59.84-28.42,12.7-22.59,7-53.88,6.23-78.44-1.11-35.26-.77-70.91-3-106.16-1.33-23.64-14.09-33.77-36.46-39.88-32-8.77-67.68-10.26-100.57-9-36.8,1.3-73.53-2.75-110.36-1-41.62,1.92-82.73.63-124.1.37-39.75-.24-79.58,2.08-119.43,3.26-35.27,1.11-72.42-2.29-107,4.3-78.95,15.19-159.19,18.47-239.25,23.28-36.19,2.2-72.08,9.56-108.41,8.12-37-1.39-74-5.55-111.06-7.61-40.57-2.2-81.18.45-121.74,2.15-35.57,1.47-71.41,4-106.48,10.54-36.6,6.74-72.26,16.32-106.21,31.63-37.6,17.07-76.42,13-117,14-80.73,2.09-161.58,6.09-242.35,8.66-18,.58-35.74,1.08-53.62,1.86-16.74.76-32.52-2.8-49.2-3-6.53-.73-6.29,9.77.66,9.87" fill="#231f20"/></svg>