<?xml version="1.0" encoding="utf-8"?>
<!-- Generator: Adobe Illustrator 21.1.0, SVG Export Plug-In . SVG Version: 6.00 Build 0)  -->
<svg version="1.1" id="Layer_1" xmlns="http://www.w3.org/2000/svg" xmlns:xlink="http://www.w3.org/1999/xlink" x="0px" y="0px"
	 viewBox="0 0 4000 981" style="enable-background:new 0 0 4000 981;" xml:space="preserve">
<style type="text/css">
	.st0{fill:#D7DF23;}
	.st1{clip-path:url(#SVGID_2_);}
	.st2{clip-path:url(#SVGID_2_);fill:#FFFFFF;}
	.st3{clip-path:url(#SVGID_4_);fill:#A4B8D6;}
	.st4{clip-path:url(#SVGID_4_);fill:#BCBEC0;}
	.st5{clip-path:url(#SVGID_4_);fill:#8DC63F;}
	.st6{clip-path:url(#SVGID_4_);}
	.st7{fill:#009444;}
	.st8{fill:#D19565;}
	.st9{fill:#FFFFFF;}
	.st10{fill:none;stroke:#000000;stroke-width:0.1308;stroke-miterlimit:10;}
	.st11{fill:none;}
	.st12{clip-path:url(#SVGID_6_);}
	.st13{clip-path:url(#SVGID_6_);fill:#FFFFFF;}
</style>
<g>
	<defs>
		<rect id="SVGID_5_" x="209.8" y="281.6" width="3580.4" height="417.9"/>
	</defs>
	<clipPath id="SVGID_2_">
		<use xlink:href="#SVGID_5_"  style="overflow:visible;"/>
	</clipPath>
	<path class="st1" d="M401.6,489.6c0.8-9.7-3.5-14.2-13.1-11.2c-9.9,3.2-19.9,7.7-28.4,13.6c-45.9,32-84,71.3-108.5,122.3
		c-4.7,9.8-6.6,20.9-9.4,31.5c-1.3,5-1.5,10.4,3.6,13.7c5.7,3.7,11.6,2.6,16.7-1.3c17.9-13.5,37.3-25.7,53.3-41.3
		c22-21.5,41.1-45.8,61.9-68.5C393,531.7,400.2,511.9,401.6,489.6 M613.3,607.4c-2.8,4-3.9,7.5-6.3,8.7
		c-10.6,5.3-21.1,11.6-32.4,14.6c-21.7,5.8-43.8,10.9-66,13.8c-17.6,2.3-36.2,3.5-53.5,0.5c-25.9-4.5-44.4-20.7-54.5-45.8
		c-6.9-17.3-8.9-17.8-21.7-4.7c-10.9,11.1-21.6,22.6-31.6,34.6c-17.6,20.9-37.4,39.3-60,54.5c-7.6,5.1-15.6,9.9-24,13.2
		c-21.2,8.5-45.2-4.4-50.8-26.5c-3.4-13.6-3.5-27,0.1-40.8c10.2-39.1,30.6-72.2,57-102.4c17.9-20.5,35.8-40.8,58.2-56.4
		c16.6-11.6,34-22,53.5-27.9c19-5.7,31.9,1.5,43.2,17.6c12.2,17.4,13,35.1,9.7,55c-2.8,16.7-3.2,33.8-3.8,50.8
		c-0.2,5.7,1.7,11.8,3.6,17.3c7.2,20.9,22.3,30.8,44.3,29.7c16-0.8,32.1-1.6,48.1-3.2c17.3-1.7,34.6-5.5,51.9-6.2
		C589.2,603.3,600.8,603,613.3,607.4"/>
	<path class="st1" d="M3366.5,422.1c-10.8,4.6-14.7,12.7-19.3,20c-7.9,12.4-15.1,25.1-22.8,37.6c-6.9,11.4-14,22.7-21.1,34
		c-6.9,11.1-15.2,13.4-27,8.2c-6.7-3-10.2-7.8-10.3-14.9c0-4.6,0.4-9.2,1.5-13.7c8.4-35.8,17-71.6,25.7-107.3
		c1.2-4.8,2.9-9.8,5.6-13.9c7-10.6,18.3-10,23.8,1.5c2.2,4.6,1.9,10.6,1.7,15.9c-0.2,7.1-1.4,14.3-2.5,24.2
		c12.6-7.9,19.5-17.6,27.3-26.1c5.9-6.5,12.1-10.6,21.1-11.2c7.7-0.6,13.8,1.4,18.3,7.2c4.7,6.2,8.8,12.9,13.2,19.3
		c11.8,17.2,23.7,34.2,44.7,41.4c7.4,2.5,14.9,5.3,22.5,6.2c20,2.4,40,5.5,60.3,2.8c4.1-0.6,8.2-0.7,12.4-0.8
		c34.9-1.2,69.9-0.9,104.6-4c35.8-3.2,71.6-5,107.5-4.6c8.7,0.1,17.4,1.2,26,2.7c5,0.9,9.8,3.7,10.3,9.7c0.6,6.8-4.2,9.5-9.7,11.7
		c-5.9,2.4-11.6,5.5-17.6,7.9c-3.8,1.5-7.8,3-11.8,3.3c-59.9,5.4-119.9,11.3-179.9,15.7c-28.9,2.1-58,2.6-86.9,1.3
		c-17.2-0.8-35.2-3.8-51-10.3c-24.9-10.4-45.1-28-59.2-51.8C3372,430.2,3369.4,426.5,3366.5,422.1"/>
	<path class="st1" d="M848.8,587.3c2.2-10.5,4.2-21.7,6.8-32.8c5.5-23.7,11.3-47.4,17.1-71.1c4.2-17.4,8.4-34.8,12.8-52.2
		c2.8-11.1,7.6-15.3,15.4-14.3c7.1,0.9,12.1,7.3,13.2,17.1c1.9,16.9-1.2,33-7.3,48.6c-12.5,32.3-18.6,66.3-24.9,100.2
		c-1.2,6.6-0.8,13.9,0.4,20.6c1.5,8,7.8,10.2,14.5,5.7c4.2-2.8,7.9-6.4,11.5-9.9c17.6-17,32.7-35.9,44.3-57.6
		c2.8-5.3,5.3-11.1,9.3-15.3c12.3-13,17.2-29.1,21.3-45.7c1.1-4.5,2.3-9,4.3-13.1c3.6-7.3,10.2-10.6,16.8-9.2
		c6.3,1.4,11.8,7.7,11.5,15.4c-0.4,8.2-1.9,16.5-4,24.4c-5.3,20.2-7.8,40.6-6.4,61.5c0.2,2.8,0.2,5.6,0.9,8.2
		c2.6,10.7,9.5,16,20.2,13.6c9.3-2.1,18.6-5.5,27.1-9.9c22.5-11.7,43.3-26.1,61.3-44.3c10.7-10.7,18.6-22.4,18.5-38.6
		c-0.1-9.4,4.8-15,11.7-16.6c7.1-1.6,15.2,2.3,19.5,10.1c5.1,9.3,9.9,18.6,14.4,28.2c5.1,10.8-2.6,24.2-14.4,23.3
		c-10.2-0.7-17,3.7-22.5,10.7c-19.2,24.2-43.6,41.9-69.9,57.6c-13.6,8.1-28.1,13.6-43.4,17.3c-12.6,3-24.1,1-32.9-8.9
		c-6.7-7.4-12.7-15.6-18.5-23.8c-5.5-7.8-8.4-8.5-14.6-1.2c-5.6,6.7-10.3,14.2-16.1,20.7c-9.7,11.1-19.8,21.7-29.8,32.4
		c-1.5,1.7-3.5,3-5.3,4.4c-24,17.3-48.4,9.5-56.9-19.2C851.3,612.5,850.8,600.3,848.8,587.3"/>
	<path class="st1" d="M2246.3,487.5c3-3.7,6.3-7.2,8.8-11.2c11-17.6,20.4-21.9,40.4-16.1c16.3,4.7,32.3,10.6,48.3,16.5
		c21.9,8,44.9,9.3,67.8,11.1c26.6,2.1,53.2,4,79.8,5.3c30.8,1.6,61.6,1.8,92.3,4c38.6,2.8,77.1,1.6,115.7,0.4
		c12.3-0.4,24.8,1,37.1,2.6c3.8,0.5,8.6,3.9,10.2,7.3c1,2.2-2.4,7.5-5.1,9.9c-3.2,3-7.7,5.6-11.9,6.2c-10.4,1.5-21.3,3.5-31.5,2
		c-14.1-2.1-27.5,0.5-41.1,1.9c-3.2,0.3-6.4,1.3-9.6,1.3c-28.9-0.2-57.8-0.5-86.7-0.8c-8.2-0.1-16.5,0.3-24.7,0.2
		c-11.9-0.2-23.8-0.9-35.8-0.9c-22.5-0.2-45.1,0.9-67.6-0.3c-19.2-1-38.3-4-57.4-6.6c-11.8-1.7-23.6-3.8-35.2-6.8
		c-13.7-3.5-27.2-8.2-40.8-12.4c-2.6-0.8-5.1-2.1-7.8-2.8c-11.5-3.3-15-1.9-21.9,8.1c-9.7,14-19.3,28-29.2,41.8
		c-3.5,4.8-7.9,8.9-11.8,13.5c-5.4,6.4-12.1,5.7-19,3.7c-6.7-2-9.2-7.7-9.6-13.8c-0.4-6.4-0.1-12.9,1.1-19.2
		c5.4-28,11.8-55.8,11.3-84.6c-0.1-6.4,2.2-12.2,9.2-13.6c6.8-1.4,11.3,2.9,14.5,8.3c4.9,8.2,6.8,16.9,5.6,26.5
		c-0.7,5.6-0.1,11.3-0.1,17C2243.2,486.5,2244.8,487,2246.3,487.5"/>
	<path class="st1" d="M1359.5,511.7c4.2-3.5,6.1-4.6,7.5-6.2c8.8-10.6,17.5-21.3,26.3-31.9c1.4-1.7,3.2-3.3,5.1-4.6
		c10.3-7.2,18.2-5.7,23.5,5.6c3.3,7,5.1,14.8,6.6,22.4c2.4,12.4,6.5,23.8,14.1,34.1c8.2,11,19.1,17.2,32.2,19.7
		c29.2,5.4,58.6,5.1,88,2.2c6.4-0.6,12.9-0.8,19.3-1.3c11-0.9,21.9-1.8,32.9-2.7c6.9-0.6,13.8-1.3,20.6-1.5
		c5.2-0.2,10.2,0.5,13.1,8.2c-8.6,7.9-18.5,15-30.3,18.5c-9.7,2.9-19.7,4.7-29.7,6.2c-32.2,4.9-64,11.8-97,10.1
		c-31-1.6-75.5-20.2-89.1-57.2c-1.3-3.7-3.7-7-5.8-10.9c-10.9,4-15.4,11.8-18.5,20.5c-9.1,25.8-22.5,49.3-37.2,72.2
		c-3,4.6-6.3,9.3-10.5,12.5c-9,7-20.4,3-22.3-8.1c-1.6-9.9-1-20.1-0.8-30.2c0.1-4.5,1.2-9.1,2.2-13.6c9-38.5,18-77,27.2-115.4
		c1.8-7.6,4.7-14.9,7.5-22.2c2-5.1,6.2-7.8,11.9-7.8c5.9,0.1,10,3.6,11.1,8.7c1.3,6.1,1.9,12.8,1,18.9c-1.7,11.8-5,23.4-7.2,35.2
		C1360.3,498.2,1360.2,503.6,1359.5,511.7"/>
	<path class="st1" d="M2978,519.6c-10.6,8.2-21.1,17-32.4,24.7c-9.5,6.4-19.6,12-30,16.7c-23.3,10.6-50.1-4.2-52.6-32.9
		c-1-11.2,0.3-23.1,2.8-34.1c6.6-30,14.3-59.9,21.9-89.7c1.2-4.7,3.9-9.4,7.2-12.9c6.3-6.7,14.6-6.1,20.3,1.3
		c6.9,8.8,9.3,18.6,5.9,29.8c-7.3,24.2-14.4,48.4-21.3,72.7c-1.6,5.7-3.1,11.7-3.4,17.6c-0.6,9.6,5.4,13.9,14.1,10
		c7.5-3.4,14.6-7.8,21.4-12.6c17-11.9,33.6-24.4,46.3-41c4.4-5.8,7.9-12.3,11.7-18.5c1.4-2.4,2.5-5,4-7.3c5.8-8.8,11.2-11.5,18-9
		c8.2,3,13.2,11.7,11.6,21.1c-1.2,7.3-2.9,14.4-4.4,21.6c-0.3,1.3-0.8,2.7-1.1,4c-2.2,8.8-3.3,18.3,4.8,24.2
		c8.1,6,16.2,0.2,22.7-4.5c11.5-8.3,22.8-17,33.3-26.6c10.1-9.3,13.5-21.3,11.1-35.2c-1.4-8.1-1.5-16.5-0.9-24.7
		c0.4-6.2,3.8-11.3,10.9-12.5c6.5-1.1,12.4,1.8,15.8,8.5c2,4.1,3.8,8.5,4.7,13c5.2,26.5,1.6,51.8-15.3,73.3
		c-17,21.6-38.1,38.6-64.2,48.5c-20.2,7.6-39.6,1.7-52.2-15.9c-1.9-2.6-3.9-5.1-6.1-7.4C2981.6,520.8,2980.1,520.5,2978,519.6"/>
	<path class="st1" d="M2036.7,489.6c1.9-7,3.2-14.1,5.8-20.8c2.1-5.5,7.3-9.7,13-7.9c4.7,1.4,9.4,5.6,12,9.8
		c2.1,3.5,1.7,8.9,1.5,13.3c-2,32-13.7,60-36.3,82.7c-10.6,10.7-22.7,20.2-35.2,28.6c-16.9,11.2-36,8-50-6.6c-2.9-3-5.4-6.2-8.1-9.4
		c-6.9-8.3-10-8.9-18-1.9c-11.4,10-22.7,20.2-33.7,30.6c-8.5,8-17.9,14.4-29.1,17.9c-14.5,4.6-29.5-2.4-34.5-16.7
		c-2.1-6-3.6-12.7-3.1-18.8c1.1-12.8,2.8-25.6,5.9-38c7.5-29.8,16-59.4,24.1-89c1.1-4,2-8,3.5-11.9c2.1-5.4,5.4-10,12-9.6
		c6.7,0.4,11.6,4.8,12.6,11c1.2,8,2.1,16.7,0.4,24.5c-5.1,24.3-11.4,48.3-17.4,72.4c-1.9,7.6-4.4,15.1-5.7,22.7
		c-0.6,3.6,1,7.5,1.7,11.3c3.4-0.6,7.3-0.3,10.2-1.9c4.8-2.6,9.3-6,13.3-9.7c12.2-11.2,24.8-22,35.8-34.3c8.2-9.1,14.5-20,21.3-30.2
		c2.5-3.8,4-8.3,6.4-12.2c3-4.8,6.6-9.4,13.1-8.1c6.9,1.4,11.6,6,12.9,12.9c0.8,3.9,0.2,8.2-0.5,12.2c-1.4,8.2-3.7,16.2-4.9,24.3
		c-0.8,5.4-1.3,11.1-0.2,16.4c2.2,10.9,9.7,14.2,19.4,9c22.1-11.9,38.8-29.4,49.8-51.9c2.9-5.9,3.2-13.2,4.7-19.8
		C2038.5,490,2037.6,489.8,2036.7,489.6"/>
	<path class="st1" d="M1194.6,589.5c1.9-27.2,10.6-52.4,18.7-77.8c7.1-21.8,14.7-43.5,22-65.2c3.7-10.9,10.7-16.8,18.3-15.2
		c7.8,1.6,13.9,13.5,11.1,23.9c-4.5,16.9-9.8,33.5-14.7,50.2c-6.7,22.4-13.3,44.9-19.9,67.3c-0.1,0.4-0.2,0.9-0.3,1.3
		c-0.1,6.2-3.5,13.9,3.6,17.5c6.6,3.3,10.3-3.5,14.8-7.3c4.2-3.5,8.5-7.2,13.4-9.5c6.8-3.2,12,0.3,12.2,7.7c0.1,3.1-0.3,6.6-1.6,9.4
		c-7.3,15.6-16.4,29.7-31.7,38.8c-14.2,8.5-37,0.3-41.5-15.6C1196.7,606.9,1196,598.1,1194.6,589.5"/>
	<path class="st1" d="M3169.9,518.9c3.9-18.4,7.7-36.7,11.8-55.1c4.1-18.4,8.3-36.7,12.5-55.1c2-8.5,4.1-17,6.6-25.4
		c2-6.7,6.6-11.1,13.9-11.5c7.3-0.5,11.9,3.7,15.1,9.9c6.1,11.9,4.3,24.4,1.3,36.4c-8,33-17.1,65.8-25.2,98.8
		c-1.5,6.1-1.4,12.8-1,19.1c0.5,7.9-2.3,13.4-9.4,16.7c-6.2,2.9-11.9,0.5-18.1-6.2C3170,538.6,3171.2,528.9,3169.9,518.9"/>
	<path class="st1" d="M2135.8,457.9c-3.3,21.7-6.1,43.6-10,65.3c-2.8,15.3-7.4,30.3-10.8,45.5c-1.2,5.3-1.2,10.9-1.7,16.4
		c-0.1,1.8,0.2,3.7,0.1,5.5c-0.2,13-6.2,22-14.4,21.6c-8.7-0.4-19.1-11.8-18.4-22.6c0.9-14.2,2.7-28.3,5.4-42.3
		c5.3-27,11.6-53.8,17.2-80.8c1.3-6.3,1.2-12.8,1.9-19.2c1-9.3,5.4-15,12.3-16.1c6.5-1,11.5,2.5,14.9,11.6
		C2134.2,447.6,2134.7,452.7,2135.8,457.9"/>
	<path class="st1" d="M2217.4,367.6c-0.9,1.6-2,6.2-4.9,8.4c-6.1,4.7-12.7,8.9-19.8,12c-6.9,3-13.6-0.2-17.6-6.7
		c-7.8-12.8,0.9-34.3,15.2-37.9C2203.2,340.2,2217.7,351.9,2217.4,367.6"/>
	<path class="st1" d="M1264.4,320c-13.9-0.7-22.1-8.8-21.7-21.3c0.3-9.9,10.6-17.7,22.6-17.1c10.3,0.5,19.7,11.8,19.1,22.9
		C1283.9,314.9,1276.5,320.6,1264.4,320"/>
	<path class="st1" d="M3256.5,315.8c0,9.5-3.6,15.3-9.8,15.7c-8.4,0.5-17.7-9.8-17.5-19.3c0.2-8,5-13.5,12.2-13.9
		C3249.7,297.9,3256.4,305.7,3256.5,315.8"/>
	<path class="st2" d="M401.6,489.6c-1.4,22.3-8.6,42.1-23.9,58.9c-20.8,22.7-39.9,47.1-61.9,68.5c-16,15.6-35.3,27.7-53.3,41.3
		c-5.2,3.9-11,4.9-16.7,1.3c-5.1-3.3-4.9-8.8-3.6-13.7c2.7-10.6,4.7-21.7,9.4-31.5c24.4-51,62.6-90.3,108.5-122.3
		c8.5-6,18.5-10.4,28.4-13.6C398,475.3,402.4,479.9,401.6,489.6"/>
</g>
</svg>
