<svg xmlns="http://www.w3.org/2000/svg" viewBox="0 0 2785.4 1315.81"><title>chili</title><path d="M853,174.4c40.3,10.1,50,36,50,68.4-.2,61.8-.8,123.6-.8,185.4,0,58.2,2.5,116.4.5,174.5-2.4,68.9-1.8,137.8-4.4,206.7-3.3,85.9-17.4,172.3-2.5,258.6.6,3.6.3,7.5,1.1,11.1,4.2,17.2,21.5,37.8,32.7,36.8,16.9-1.5,25.2-14.1,31.4-28.2,15.9-36,32.3-71.7,47.5-108,17.5-42,18.5-86,17.4-131-.7-29.3,5.2-58.9,9.4-88.2,3.6-24.4,18.6-42.7,35.7-59.4,13.2-12.9,26-11.2,39.7-.8,23.8,18,34.7,43.6,32.9,71.4-3,45.4-7.8,91.2-17.2,135.7-14.2,67.5,9.3,121.6,53.2,168.9,9.5,10.2,28.5,11.6,43.1,16.9,50,18.2,95.8,4.7,138-21.8,96.5-60.5,170.2-141.8,214-247.8,8.3-20,7.8-43.4,13-64.8,3.9-16.4,8.2-33.4,16.4-47.9,7.5-13.3,21.7-14.9,35.8-6.9,28.5,16.2,41.5,40.4,41.5,73.2.2,71.5.5,143.1,2.6,214.6.7,23.3,8,46.3,11.1,69.5,3.2,23.7-4.3,37.7-22,46.1-18.5,8.7-31.5-1.5-42.4-13.6a123.91,123.91,0,0,1-21.5-33.4c-12.9-30.5-33.7-39.5-60.9-20.7-20.2,14-37.5,32.2-55.4,49.2-64.3,61.5-136.9,105.7-228.4,110.8-41.3,2.3-77.5-14.9-111.8-34.7-16.7-9.6-30.9-24.5-44.3-38.7-27.2-28.9-54.6-26.3-72.9,9.6-20.5,40.2-46.2,76-79.9,106.1-26.6,23.8-55.8,29-84,11.1-9.6-6.1-16.9-17.2-22.6-27.6-37.1-67.8-37.4-141.8-35.2-216.1.2-7.4,3.5-15.8,1-22-4.9-12-10.7-26.6-20.6-32.4-6-3.5-22.1,5.6-30.9,12.5-19.5,15.4-31.5,36.4-43.9,58.4-20.4,36.3-46,70.3-72.9,102.4-61.1,73.2-126.7,142.6-206,196.1-77.3,52.1-163.9,67.2-250.8,29.6-69.1-29.9-114.7-84-121.4-164.1a472.82,472.82,0,0,1,18.6-176.6c29.8-97.9,70.8-192.4,132.8-275.6,23-30.9,53.9-50.3,92.4-57.4,19.3-3.6,36.5-3,52,11.1,13.7,12.4,29.6,22.3,42.6,35.3,7.5,7.5,13.1,18.3,16.3,28.7,7.1,23.5-2.7,35.8-27.2,35.5-8.5-.1-17.7-1-25.5-4.1-50-20.1-59.8-2.2-90.2,33.4-63.5,74.3-90,166.3-118.2,257.2-13.2,42.6-8.7,86.2-5.1,129,2.7,32.6,24,53.9,57.2,65.3,56.1,19.2,106.9,5.6,157.2-17.9,6.7-3.1,12.6-8.3,19.5-10.8,46.1-16.3,76.4-52.8,109.4-85.7,20.2-20,39.6-40.8,60.1-60.6,13.1-12.7,28.7-22.9,40.9-36.3,17.3-18.9,37.9-37.3,47.8-59.9,27.6-63,78.5-107.5,118.4-160.6,5.8-7.7,13.7-16.2,14.5-24.9,4-46.2,19.4-88.9,35.3-131.8,5.5-14.9,9.6-31.3,9.9-47.1,1.5-82.7.9-165.4,2.4-248.1,1-56.9,3.1-113.8,7-170.5,1.4-14.4,10.9-28.5,16.6-43.1M2012.6,893.2c10.8-103.2,22.1-206.3,32-309.5,5.7-59,9.9-118.1,13-177.3,2.6-50.5,2.8-101.1,3.7-151.6.2-7.3-2-14.7-2.5-22.1-1.4-21.9-2.6-43.8-3.8-65.8-.9-16-1.9-32-2.2-48-.2-11-1.7-22.9,1.8-32.8,10.9-31.1,33-35.6,56.4-12.2,12.2,12.2,22.8,24.8,23.5,44.5,2.5,64.1,15.6,127.5,10,192.2-2.1,24.3.5,49,1.9,73.5,3.8,67.7-7.6,134.4-14.4,201.3-11.8,115.6-31.2,230.7-24,347.4,1.6,25.6,7.5,51.4,14.7,76.1,7.7,25.9,27.7,35,55.2,30.4s51.6-15.3,72.2-35c23.2-22.1,47.8-42.9,72.3-63.7,57-48.2,101.7-107.4,147.8-165.4,17.7-22.2,35.2-45,49-69.7,9.3-16.7,13.8-36.7,17.2-55.9,4.1-23,4.7-46.7,6.9-70,.4-3.7.9-7.4,1.6-11.1,4.5-25.9,15.3-41.1,30.1-42.1,15-1.1,48.5,20.9,51.6,36.9,5.9,30,15.8,58.5,11.7,91.2-7.1,56.3-9.2,113.5-10,170.4-.7,49.9,9.1,98.7,32,143.7,20,39.5,53.1,44.8,87.9,16.2,26.1-21.4,50.9-43.1,59.5-78.2,1.5-6.1,13.6-15.4,17.6-14,9.2,3.2,21.6,10.8,23.4,18.8a135.13,135.13,0,0,1,1.6,51.5c-9.6,60-32.3,113.2-94.7,135.6-69.9,25.1-137.1,2.4-171.2-68.5-14.3-29.7-21.4-62.9-32-94.4-2.8-8.2-5.5-16.6-9.7-24.1-11.7-20.6-27.7-24.9-45.7-9.8-21.8,18.2-43.4,37.3-61.3,59.2-42.5,52-91.5,97-143.3,139-38.1,30.9-80.3,51.5-131.9,51.7-52.3.2-90.2-31.1-113.6-80.6-26.6-56.6-34.2-115.8-34.3-177.8m731-747.2c-3.8,18.3-7,32.6-26.2,38.9-19.5,6.4-31.6-2.6-39.5-17.7-6.7-12.7-11.3-27-14.2-41.1-3.3-15.7,1.2-29.5,18.6-35.3,16.9-5.6,33.2-2.5,42.9,11.9,8.7,12.9,12.5,28.8,18.4,43.3M1622.8,455.7c26.4,18.3,43.6,39,37.8,71.6-3.9,22.3-17.8,28.9-36.1,15.2a104.57,104.57,0,0,1-24.2-26.7c-20.6-32.6-16.5-43.3,22.5-60.1" transform="translate(-66.63 -59.08)" fill="#231f20"/></svg>