<?xml version="1.0" encoding="utf-8"?>
<!-- Generator: Adobe Illustrator 21.1.0, SVG Export Plug-In . SVG Version: 6.00 Build 0)  -->
<svg version="1.1" id="Layer_1" xmlns="http://www.w3.org/2000/svg" xmlns:xlink="http://www.w3.org/1999/xlink" x="0px" y="0px"
	 viewBox="0 0 4685 2545.6" style="enable-background:new 0 0 4685 2545.6;" xml:space="preserve">
<style type="text/css">
	.st0{fill:#FFFFFF;}
</style>
<title>breadpudding</title>
<path d="M1897.3,1703.7c-27.8,20.2-49.2,36.3-71.1,51.7c-66,46.5-137.3,83.6-212.4,112.5c-23.6,9.1-50.5,10.2-76.1,13.3
	c-21.2,2.6-36.2-11-48.9-25.3c-10.3-11.6-8.4-25.6,2.2-37.1c12.2-13.1,27.2-28.8,45.1-16.8c27.5,18.5,53.7,9.6,77.9-0.4
	c104.9-43.7,202.9-98.9,286.1-178.3c29.9-28.5,28.8-65.9,38.1-100.6c22.4-84,42.5-168.7,66.8-252.1c10.1-34.7,38.3-52.2,66-51.2
	c28.9,1.1,61.9,28.1,73.4,56.9c26.6,66.9,4.6,126.6-29.4,182.4c-21.8,35.8-48.8,69.2-77.6,99.7c-38.9,41.1-73,80.8-78,142.6
	c-5.4,67.4-22.1,133.8-33.9,200.7c2.8,1.1,5.6,2.1,8.4,3.2c18.6-39.2,35.9-79.2,56.1-117.5c45.1-85.4,90.3-171,161.7-238.7
	c3.9-3.7,7.2-9.7,11.8-11c16.4-4.7,34.6-13.6,49.6-10c19,4.5,22.1,26.3,20.8,44.5c-3,42.1-5.7,84.3-11.5,126
	c-12.9,93-28.7,185.6-41,278.7c-3.9,29.4-2.4,60,0.7,89.6c3.9,37.2,21.9,47.3,52.3,26.8c46.1-31.1,88.2-68.2,133.8-100.1
	c62.9-43.9,94.9-110.5,133.8-172.7c23-36.7,50.6-70.5,77.4-104.6c8.2-10.5,19.7-18.9,30.9-26.6c26.9-18.6,53.1-21.6,68-9.2
	c21.1,17.5,31.8,49.9,21.5,76.3c-16.3,41.8-21,84.6-14.2,128.4c6.4,40.8,22.6,50.3,59,30.6c33.3-18.1,65.1-39.8,94.9-63.3
	c36.3-28.7,70.3-60.4,104.5-91.6c43.5-39.7,89.3-75.6,143.1-100.5c87.9-40.7,195.9-10.4,239.8,62.2c2.6,4.4,7.7,7.2,14.1,13
	c49.1-25.6,99.5-49,147-77.4c53.7-32.1,106.6-66.2,156.2-104.1c48.3-36.9,99-73.3,123.5-133c5.2-12.6,8.2-26.1,14.2-38.3
	c9.3-19,27-26.3,43.8-19.9c16.8,6.4,25.9,23.3,18.7,43.7c-11.6,33.1-26.3,65.2-39.5,97.8c-36.3,89.6-59.9,182.8-74,280.4
	c5.1-6.3,10.8-12.3,15.2-19.1c21.1-33.3,41.8-66.9,62.9-100.2c3.6-5.7,8.4-10.8,13.2-15.5c46.9-46.7,89.1-34.7,106.9,29.3
	c6.9,24.7,14.9,49.5,25.6,72.7c36.7,79.7,101.1,122.5,186.9,133.7c84.7,11.1,168.8,2.1,251.9-14.3c45.4-9,90.1-21.6,134.7-33.8
	c14.2-3.9,28.1-10.4,40.7-18c13.7-8.2,27.5-14.9,41.6-4.9c15.9,11.3,20.4,29.5,15.9,47.4c-2.8,11.2-10.9,21.5-18.4,30.9
	c-9.9,12.5-21.4,4.1-33.3,1.8c-11.3-2.2-24,0.6-35.7,3.1c-62.7,13-124.7,30.2-187.9,39.1c-78,11-156.6,18.2-235.9,4.5
	c-116.6-20.1-188.8-89.3-228.1-197.6c-5.4-15-11.1-29.8-17.7-47.8c-29.3,20.2-43.2,46.9-59.9,70.9c-44.6,64.2-72,136.9-102.5,208.2
	c-11.2,26.2-23.1,52.2-37,77c-11.7,20.9-26.3,25.5-44.1,17.4c-18.7-8.5-24.4-21.6-19.1-43c23.9-96.4,46.2-193.2,69.1-289.8
	c12.4-52.4,24.9-104.8,37.5-157.9c-116.2,72.9-229.9,144.3-348.7,218.9c0,6.9,0,20.4,0,33.9c0.2,102.4-77,209-186.6,235.7
	c-34.8,8.5-68,1.2-98.5-16c-40.2-22.7-51.7-79.4-25.9-122c29.3-48.3,74.4-78.8,121.8-106.2c22.4-13,46-23.6,68.8-36
	c11.5-6.2,22.2-14,35.3-22.3c-32.1-48-75.9-63.2-125.6-57.6c-27.4,3.1-57.4,12.2-79.6,27.9c-49.8,35.3-94.9,77.2-143.1,114.9
	c-52.4,41-105.9,80.6-159.5,120c-9.7,7.1-21.6,11.6-33,16.1c-34.3,13.5-55.8,8.4-80.8-18.2c-9.1-9.7-17.9-19.7-30.9-34
	c-11.8,17.6-21,32-30.7,45.9c-31.9,45.8-62.8,92.3-96.8,136.5c-10.9,14.1-28.7,26.2-45.8,31.5c-34.7,10.8-62.2-11.4-64.2-47.7
	c-0.7-13.4-0.1-26.9-0.1-48.9c-19.3,14.2-33.1,24-46.7,34.2c-23.9,18.1-46.7,37.7-71.7,54.2c-14.5,9.6-31.6,16.7-48.5,20.9
	c-52.3,12.7-91.5-15.2-98.9-68.7c-8.5-61.4-1.8-122.4,7-183c12.1-83.4,27.2-166.3,40.6-249.5c1.9-11.8,1.4-23.9,2.3-41
	c-25.2,10.9-37.4,28.8-49.3,45.9c-63.4,91-112,189.7-154.5,292c-40.1,96.4-61.2,197.4-80.8,299.1c-2.8,14.6-6.7,29.3-12.4,43
	c-8.5,20.6-22,25.8-42.6,19c-20.1-6.6-25.4-17.7-21.8-40.7c14.7-92.7,28.3-185.7,43.6-278.3c6-36.1,17-71.4,22.8-107.5
	c7.6-48.3,12.6-97,18.1-145.7C1898.3,1733.9,1897.3,1723,1897.3,1703.7z M3301.9,1825.7c-31.2,10.3-55.4,27.6-81.7,40.4
	c-37.5,18.2-69,43.7-96.8,73.9c-11.7,12.7-25.7,26.1-17,46.7c9.8,23.3,30.8,19,49.4,18.3C3230.1,2001.6,3311.3,1921.3,3301.9,1825.7
	z M1999,1503.6c3.7,1.2,7.4,2.3,11.1,3.5c41.7-39.8,72.4-87.4,90.3-142.3c5.1-15.6,2.5-35.3-1.9-51.7c-2.6-9.6-15.6-22.3-24.3-22.6
	c-8-0.3-20.8,12.7-24.1,22.4c-13.8,41.2-25.2,83.2-36.6,125.1C2007.6,1459.5,2003.8,1481.7,1999,1503.6z M2461.7,2054.7
	c58.6-50.9,97.3-115.4,127.2-185.9C2523.3,1914.6,2473.5,1971.3,2461.7,2054.7z"/>
<path d="M4425.1,817.2c-19.6,29.5-49.1,21.2-72.4,23.2c-64.7,5.5-129.8,5.3-194.8,7.2c-10.9,0.3-21.8,0-32.7-0.3
	c-51.4-1.5-55.2,1-58.5,53.7c-3.9,62.5-6.1,125.2-8.9,187.7c-0.1,2.7,0.3,5.5,0.2,8.2c-0.9,25.5-10.9,41.1-28,43.8
	c-15.1,2.5-31.8-13-37.7-36.4c-1.9-7.6-1.6-16-1.3-24c2.3-76.2,4.9-152.4,7-228.6c0.1-3.5-3.1-7.2-4.9-10.9
	c-17.4-6.8-26.2,6.1-33.9,16c-55.2,71.3-128.2,121.2-202.1,170c-15.6,10.3-33.5,18-51.4,23.8c-62.5,20.5-114-8.4-130.6-72.6
	c-4.1-15.7-6.1-31.9-10-53.3c-14.1,4.1-27.8,7.4-41,12c-34.6,11.8-68.2,27.9-103.6,35.5c-67,14.2-105.1-7.3-134.8-69.4
	c-3.4-7.1-6.3-14.5-10-23.2c-33.6,8-59.9,20.3-80,50.7c-35.4,53.5-77,102.3-137,131.3c-20.1,9.7-40,13.6-56.8-2.8
	c-16.1-15.7-25.6-35.5-16.5-59.4c1.9-5.1,2.9-10.7,5.8-15.3c47.8-76.5,51.7-165.3,69-250.1c14.9-73.3,27.1-147.2,38.5-221.1
	c4.3-28.1,2.7-57,4.9-85.5c1.2-16.2,2.3-33.2,8.1-48c3-7.6,16.6-15.8,24.9-15.2c7.9,0.5,19.5,10.7,21.8,18.7
	c3.5,12.5,1.6,26.9-0.2,40.3c-3.5,27-9,53.8-12.6,80.8c-1.9,14.3-1.7,28.9-2.9,51.3c16.1-13.8,25.5-23,36.1-30.6
	c14.3-10.2,28.5-21.3,44.4-28.4c47.3-21.2,81-7.4,92.8,43.4c7.2,30.9,6.8,65.2,1.9,96.8c-6.4,41.4-20.6,81.6-31.6,122.3
	c-3.4,12.7-7.1,25.4-11.5,41.3c20.8-3.5,28.4-16,34.5-29.1c31-67,80.4-119.5,135.8-166.1c16.7-14.1,41-21.8,63.1-26.2
	c37.8-7.5,62.9,27,45.6,61.9c-11.4,23-26.3,44.7-42.3,64.8c-39.3,49.5-86.8,89.9-142.3,120.7c-28.2,15.6-38.8,36.9-30.9,59.1
	c7.4,21,33.2,35.9,60.6,31.1c63.7-11.2,122.5-37.2,177.5-69.7c17.8-10.5,28.6-36,38.1-56.7c25.1-54.3,60.3-100.7,107.3-136.5
	c20.9-15.9,47.7-24.8,72.8-34.2c24.2-9,45.9-2.3,60.7,20c15,22.5,17.5,47.3,1.6,69.1c-19.9,27.3-40.1,55.9-65.9,77
	c-38.9,31.7-82.2,58-124.5,85.2c-33.3,21.3-49.6,62.5-36.2,98.3c8.6,23,31.5,35.9,56.3,27.2c22.9-8,45.2-19.3,65.7-32.4
	c56.4-35.9,109.1-76.8,151.7-128.9c8.7-10.7,10.8-26.7,16.6-39.9c4.1-9.5,7.1-24.1,14.3-26.9c50.3-19.8,60.3-66.5,77-109.1
	c2.5-6.3,3.3-13.9,7.4-18.9c5.7-7,13.9-17.3,20.7-17c31,1.2,39.7-23.1,55.4-41.5c23.6-27.6,47.2-57.2,76.7-77.3
	c48.3-33,105.1-36.3,161.6-25.3c62.9,12.2,125,100.1,117.8,163.6c-1.8,15.5-3.1,17.4-25.2,32.5c-4.7-16.5-9.8-31.4-13.2-46.6
	c-12.1-53.4-45-86.3-98.9-93.5c-60.3-8-112.7,8.2-155.3,54.2c-41,44.3-65.8,115.1-74.4,195.2c16.6,2.3,33.4,6,50.3,6.8
	c74.8,3.7,149.6,6.6,224.4,9.6C4382,801.6,4403.6,806.8,4425.1,817.2z M3091.8,872.3c28.1-10,49.1-19.2,71-24.8
	c23.4-6,37.7-19.6,46.5-41.4c14.3-35.2,33.3-69,42.8-105.4c9.9-37.6,12-77.5,14.8-116.6c0.7-10.1-6.6-26.3-14.6-30
	c-8.1-3.7-24.3,1.7-32.5,8.4c-15.5,12.7-30.1,27.8-41,44.6c-33.6,51.6-57,107.8-69.1,168.4C3103.8,805.7,3098.5,836,3091.8,872.3z
	 M3806.4,682.6c-52.3,8-98.8,51.2-108.7,96.5C3740.6,755.4,3775.5,727.6,3806.4,682.6z M3069.5,983.6c26-7.1,38.8-22,52.5-50.6
	C3095.6,947.5,3075.2,954.1,3069.5,983.6z"/>
<path d="M1565.2,1027.2c-11.9,2.2-22.5,3.5-32.7,6.2c-96.9,25.5-153.7-21.2-186-79.2c-32.8-59.1-39.9-123.8-45.2-189.1
	c-4-49.8-6.3-99.8-9.8-156.3c-10.5,8.5-17.4,12-21.2,17.6c-39.3,58.9-59,125.4-72.5,193.9c-17.1,86.8-32.6,173.9-48.7,260.9
	c-1,5.4-1.4,10.9-3,16.1c-6.5,21.2-22,33-37.9,29.5c-14.9-3.3-29.5-21.9-27.4-40.6c5.8-50,12.6-100,20.7-149.7
	c14.4-88.6,29.9-177.1,45.5-265.5c2.8-16.1,7.4-31.9,12.3-47.5c11.6-36.8,22.9-41.8,54-29.2c17.3-14.4,32.4-28,48.5-40.2
	c31.9-24.1,65.5-14.8,77.1,23.4c6.6,21.9,8.1,45.5,9.8,68.5c4.7,61.1,4.7,122.8,13.6,183.2c5.4,36.7,19.5,74,37.7,106.6
	c27,48.5,107.1,61.7,151.9,29c6.3-4.6,9.8-15.7,11.1-24.3c12-77.3,36-150.6,71.7-220.1c20.8-40.5,47-78.4,84.3-103.5
	c46.1-31.1,95-36.6,131.9,7.3c22.3,26.4,26,58.2,20.9,92c-13.5,89.5-68.4,152.5-133.8,207.8c-27.8,23.6-60.4,41.7-91.3,61.5
	c-22.4,14.3-27.8,23.6-21.2,42c7.6,21.2,24.8,24.1,43.3,20.9c11.8-2,23.6-6.6,34.1-12.3c86.4-46.6,168.6-99.5,244.1-162.4
	c18.8-15.7,37.8-31.2,57.3-46c46.3-35.2,76.4-84.6,113.3-128c11.5-13.5,22.8-27.1,34.2-40.7c27.9-33.1,61.1-53.9,108.5-44.6
	c5.3-11.9,10.8-22.6,15-33.8c24.6-65.7,59-125.4,107.3-176.6c6.5-6.9,13.7-13.3,21.1-19.1c13.1-10.2,27.8-12.4,41.9-3.2
	c13.6,8.9,20.1,22.6,16.4,39c-8.8,39.8-14.6,80.8-28.4,118.8c-31.6,87.1-70.1,171.4-122.3,248.7c-20.6,30.5-24,61.4-10.7,96.8
	c27.9,74.2,81.2,115.2,160.8,115.2c43.4,0,86.8-5.3,130.3-7.3c12.3-0.6,24.7,2,37,3.1c0.8,3.4,1.5,6.7,2.3,10.1
	c-10.4,7.7-19.7,18.5-31.4,22.5c-69.5,23.4-140.9,33.9-212.7,13.8c-56.9-16-94.8-56.7-121.9-107.9c-6.3-11.9-11.6-24.4-18-37.9
	c-20.8,5.6-27.4,23.5-38,36.4c-48.3,59.2-100,115.1-160.5,162.1c-11.7,9.1-24.4,17.7-37.8,23.8c-23.9,11-49.3,20.7-72.3-1.6
	c-23.5-22.8-31.1-50.2-19.7-81.9c9.1-25.2,18-50.6,29.5-82.9c-14.3,5.6-23,7.4-29.8,12c-52.1,34.6-103.1,70.9-156,104.1
	c-23.9,15-50.6,27.3-77.6,35.3c-50.8,14.9-83.6-1.8-106.9-49.2C1574.3,1046,1570.2,1037.6,1565.2,1027.2z M2240.7,694
	c-88.8,31.7-261.2,274-262.6,372c19.4-11.5,37.7-19.8,53-32c71.6-57.1,131-126,187.6-197.4c6.5-8.2,12.3-19,13.4-29.1
	C2236.1,770.2,2237.9,732.5,2240.7,694z M1623.7,930c12.7-5.5,23.2-8.4,31.9-14.1c51.5-33.7,98.5-72.8,132.4-124.8
	c19.4-29.7,33.7-62,33.4-99c-0.3-34.3-15.6-46.4-49.1-38.5c-28.6,6.7-47.7,26-63.1,48.6c-41.6,61.3-71.1,128.1-85.3,201.1
	C1622.4,910.7,1623.7,918.7,1623.7,930z M2305.4,692.7c37.5-65.5,74.2-132.2,89.4-208.3C2342.4,543.5,2316,614.2,2305.4,692.7z"/>
<path d="M327.6,514.5c-15.7,12.6-27.9,18.9-35.2,28.9c-30.4,41.6-61.5,82.9-88.3,126.8C148.3,761.5,108.5,860,87.4,965
	c-6.6,32.7-7,67.7-4,101.1c4.7,53.1,34.9,71.2,88.4,61.5c46.3-8.4,81.3-37.1,117.7-62.8c72.8-51.5,133.1-116.3,190.7-183.7
	c40.6-47.6,80.7-95.7,120.8-143.7c17.1-20.4,36.6-28.4,48.3-19c13,10.5,14.1,36.5,1.8,56.2c-43.7,70.3-72.9,145.9-82.3,228.5
	c-1.6,14-0.2,28.4-0.2,42c23.8,7.3,37.4-3.4,48.7-14.4c64.9-63.5,108.1-138.6,99.6-231.8c-5.4-59.1-24.8-115.5-89.5-139.6
	c-5-1.9-9.6-5.2-13.7-8.6c-11.7-9.6-24.3-19.2-18.6-37.3c6.2-19.4,21.5-22.5,39.3-21.2c37.8,2.8,76.3,1,111.3,20
	c50.1,27.2,75.6,72.6,92.9,124.3c3.8,11.3,7.2,22.6,17.2,34.5c6.3-19.9,14.6-39.3,18.6-59.6c12.2-62.2,43.1-115.5,85.4-160
	c31.9-33.6,74.4-55.1,123.6-55.3c29.5-0.1,64,23.3,69.2,48.5c1.9,9.1-1.2,23.4-7.5,28.8c-5.3,4.6-21,3.1-28.2-1.6
	c-36.9-24.2-54.7-24.2-91.1,1.3c-63.1,44.3-96.6,107.1-107.6,181c-15.2,102.2-26,205.1-38.7,307.7c-1.3,10.8-2.8,21.6-4.7,32.3
	c-3,16.7-13.2,27-30,28.7c-13,1.4-28.7-16-30.5-33.5c-0.8-7.9,1.6-16.2,1.9-24.3c3-102.3,7-204.6-23.6-304.3
	c-10-32.5-22.3-63.8-61.3-86.5c4.9,14,6.6,21.3,9.8,27.9c40.9,84.8,38.2,169.2-6.7,250.9c-21.5,39.1-48.2,75.4-74.3,111.6
	c-15.5,21.6-38.9,33.2-64.6,40.4c-42,11.7-78.9-11.4-79.9-54.9c-0.8-33.7,4.7-67.6,7.9-101.4c0.9-9.1,3.4-18-0.9-31.4
	c-19,18.1-39.2,35.1-56.6,54.6c-66.7,74.9-143.1,137.9-229.8,188c-46.2,26.7-97.2,34.3-144.5,8.9c-46.2-24.8-67.2-68.8-67.2-122.8
	c0-69.3,18.2-134.6,40.9-199c40.1-113.6,92.3-221.4,165.8-317.1c21-27.4,50.1-50,79.3-69.1c29.4-19.3,59.5-3.2,68.4,31.5
	c2.3,9.2,4.9,19,3.9,28.2c-4.6,43.3-9.8,86.6-16.2,129.7c-2.3,15.8-5.7,34.5-27.1,35.2c-15.7,0.5-23.7-22.4-18.2-45.5
	C330.2,601.3,332.3,562.4,327.6,514.5z"/>
<path class="st0" d="M3301.9,1825.7c9.4,95.6-71.8,176-146.2,179.2c-18.6,0.8-39.5,5.1-49.4-18.3c-8.7-20.5,5.3-34,17-46.7
	c27.9-30.2,59.4-55.7,96.8-73.9C3246.5,1853.3,3270.7,1835.9,3301.9,1825.7z"/>
<path class="st0" d="M1999,1503.6c4.8-21.9,8.6-44,14.5-65.7c11.4-41.9,22.8-83.9,36.6-125.1c3.2-9.7,16.1-22.7,24.1-22.4
	c8.7,0.3,21.7,13,24.3,22.6c4.4,16.4,7,36.1,1.9,51.7c-17.8,54.9-48.5,102.5-90.3,142.3C2006.4,1505.9,2002.7,1504.7,1999,1503.6z"
	/>
<path class="st0" d="M2461.7,2054.7c11.8-83.4,61.6-140.2,127.2-185.9C2559.1,1939.3,2520.4,2003.8,2461.7,2054.7z"/>
<path class="st0" d="M3091.8,872.3c6.7-36.3,12-66.6,17.9-96.7c12-60.6,35.5-116.8,69.1-168.4c10.9-16.8,25.5-31.9,41-44.6
	c8.2-6.8,24.3-12.1,32.5-8.4c8,3.7,15.3,19.9,14.6,30c-2.7,39.1-4.9,79-14.8,116.6c-9.5,36.4-28.6,70.2-42.8,105.4
	c-8.8,21.7-23.1,35.3-46.5,41.4C3140.9,853.1,3119.9,862.3,3091.8,872.3z"/>
<path class="st0" d="M3806.4,682.6c-30.9,45-65.8,72.8-108.7,96.5C3707.5,733.8,3754.1,690.7,3806.4,682.6z"/>
<path class="st0" d="M3069.5,983.6c5.8-29.5,26.1-36.1,52.5-50.6C3108.3,961.6,3095.5,976.5,3069.5,983.6z"/>
<path class="st0" d="M2240.7,694c-2.7,38.5-4.6,76.2-8.5,113.6c-1.1,10.1-6.9,20.9-13.4,29.1c-56.6,71.4-116.1,140.3-187.6,197.4
	c-15.3,12.2-33.7,20.5-53,32C1979.4,968,2151.8,725.7,2240.7,694z"/>
<path class="st0" d="M1623.7,930c0-11.2-1.3-19.3,0.2-26.8c14.2-73,43.6-139.8,85.3-201.1c15.4-22.6,34.5-41.9,63.1-48.6
	c33.5-7.9,48.8,4.2,49.1,38.5c0.3,37-14,69.3-33.4,99c-33.9,52-80.9,91.1-132.4,124.8C1646.9,921.6,1636.4,924.5,1623.7,930z"/>
<path class="st0" d="M2305.4,692.7c10.6-78.5,37-149.2,89.4-208.3C2379.6,560.4,2342.9,627.1,2305.4,692.7z"/>
</svg>
