<?xml version="1.0" encoding="utf-8"?>
<!-- Generator: Adobe Illustrator 21.1.0, SVG Export Plug-In . SVG Version: 6.00 Build 0)  -->
<svg version="1.1" id="Layer_1" xmlns="http://www.w3.org/2000/svg" xmlns:xlink="http://www.w3.org/1999/xlink" x="0px" y="0px"
	 viewBox="0 0 4685 2545.6" style="enable-background:new 0 0 4685 2545.6;" xml:space="preserve">
<style type="text/css">
	.st0{fill:#FFFFFF;}
</style>
<title>breadpudding</title>
<path d="M962.7,1402.2c20.5-19.5,29.1-39.8,40.1-58.4c20.5-34.7,35.6-72.1,60.9-104.5c17.5-22.5,26.3-51.6,42.9-75
	c27.3-38.5,52.8-78.5,87.8-111.2c13.8-12.9,27.2-22.3,46.1-15.9c14.2,4.8,25.3,29.5,22.1,50c-4.4,27.7-11,55-15.8,82.6
	c-12.4,71.3-30.9,141.6-37.1,214c-2.2,25.9-6.9,51.6-8.8,77.5c-2,27.3,7.5,31.8,33.3,21.5c41.3-16.3,74.7-44.2,108.9-71
	c32.7-25.6,65.4-51.4,96-79.4c34.1-31.1,65.9-64.8,98.7-97.4c18.5-18.4,38.5-35.5,55.2-55.4c32.3-38.2,70.8-71.3,95.3-116.2
	c6.7-12.3,18.9-21.6,27.4-30.9c31.4-5.4,52.6,5.1,62.5,36.1c7.7-2.1,14.1-3.6,20.2-5.7c21.7-7.4,43-17.1,65.2-22.1
	c51.7-11.7,103.8-21.9,156-31.5c19.9-3.7,40.3-4.6,60.6-5.8c64.7-3.8,129.3-7.1,194-10.8c16.4-0.9,32.8-3.4,49.1-3.5
	c19.8-0.1,24.2,4.5,31.5,27.1c7.1,22.2,4.9,28.4-8.9,41c-19.9,18.2-39.6,36.7-57.6,56.7c-41.9,46.4-83.6,93-123.6,141.1
	c-18.4,22.1-33.6,47.2-48.5,72c-19.8,33.1-38.7,66.8-56.1,101.2c-7.7,15.2-12.1,32.4-15.5,49.2c-6,29.6,8.9,46.1,37.9,41.6
	c16.9-2.7,34.8-6.7,49.6-15c60.7-34,121.5-68,179.9-105.6c43.8-28.2,84.6-61.1,125.6-93.3c32.6-25.6,65.4-51.5,94.5-80.9
	c29.7-29.9,59.5-59.9,82.4-96.4c13.1-20.9,33-37.8,50.2-56.1c22.3-23.8,45.3-47.1,67.5-71c18.2-19.7,44.9-18.2,67.7,4.6
	c15.4,15.5,11.7,38-6.9,55.6c-53.4,50.3-106.9,100.7-159,152.4c-29,28.8-40.6,67.3-48.9,106.2c-2.1,9.8,0.4,21.3,3.2,31.3
	c3.3,11.8,11.6,19.7,25.2,20.4c30,1.6,59.2,1.5,88.9-7.9c98.1-30.9,186.4-80.8,269.6-139.3c62.3-43.8,120.7-92.8,173.5-148.8
	c29.9-31.6,56-66.2,85.9-97.7c5.5-5.8,10.4-15,10.3-22.6c-0.1-14.3,5.9-23.6,16-32.2c33.9-29,49.3-66.5,58.1-110
	c8.4-41.4,24.8-81.4,39.7-121.3c20.9-55.9,42.6-111.5,65.9-166.4c11.6-27.4,27.3-53.1,41.8-79.2c14.5-26.1,30.7-51.3,44.6-77.7
	c8.5-16.1,15-33.4,20.6-50.7c3.4-10.4,9-16.5,18.9-19.9c29.6-10.1,60.2,15.1,54.3,45.4c-3.1,16-5.7,32.7-12.6,47.2
	c-18.1,38.4-24,79.6-30.5,120.6c-8.4,53.3-27.3,102.7-49.7,151c-22.4,48.2-44.6,96.5-70.5,142.8c-21.1,37.7-47.6,72.4-71.4,108.6
	c-5.3,8-10.9,16.1-14.2,24.9c-9.8,27-16.3,54.9-26.8,81.9c-12.4,31.9-15.4,67.7-20.8,102.1c-3.7,23.4-4.4,47.3-3.9,71.9
	c17.5-12.2,28-28.8,38.2-45.7c14.8-24.6,28.4-50.1,44.9-73.6c26-37,53.6-72.9,81-108.9c37-48.7,77.9-93.8,127-130.5
	c21-15.7,43.9-28.4,72.1-24.9c25.8,3.1,37.8,13.9,37.4,38.9c-0.4,22.1-3.2,44.2-6.8,66.1c-10.9,67.4-12.8,134.3,7.4,200.5
	c11.3,36.9,54.5,67,91.9,69.7c51.8,3.7,102.9-0.7,151.4-19.2c52.2-20,103.2-43.3,154.6-65.6c74.7-32.4,142.6-77.3,213.7-116.3
	c55.9-30.7,112.6-59.9,168.9-89.6c15.3-8.1,30.3-15.3,39.2-32.4c7.6-14.5,42.9-23,56.7-16.9c32.8,14.3,39.9,50.3,12.4,78.9
	c-22,22.9-37.1,49.5-49.1,77.7c-13.2,30.9-23.2,63.2-32.9,95.4c-2.9,9.6-2.4,21.3,0,31.2c7.3,31.4-7.9,56.6-20.9,82.3
	c-5.3,10.6-16.6,8.8-26,6.1c-20.9-5.9-35-27.1-33.3-49c0.3-3.8,0.8-7.8,2-11.4c17.7-57.1,21.9-118.1,49.8-172.2
	c2-4,1.4-9.3,2.4-17.2c-6.9,1.5-12.6,1.5-16.9,4c-70.4,40.2-145.3,71.7-214.1,115.4c-51.9,33-109.4,57.5-165.7,83.2
	c-46.5,21.2-94,40.9-142.4,57.1c-51.6,17.2-105.5,22.5-160.2,19.1c-72.8-4.5-113-48-136.2-112c-25.1-69.1-23.5-140.2-13.6-211.7
	c1.7-12,2-24.1,3-37.7c-27.4,1.5-41.8,18.4-55.4,33.6c-36.1,40.3-71.4,81.3-104.9,123.8c-19.6,24.9-35.6,52.7-52.3,79.8
	c-28.8,46.8-56,94.5-85.4,140.9c-20.4,32.2-30.7,68.3-44.2,103.3c-10,26-19.4,32.8-42.2,26.4c-22.9-6.5-35.5-23.7-28-46.1
	c14.2-42.4,9.6-86.1,13-129.2c3.9-50.1,8.7-100.1,13-150.1c0.3-3.6,0.5-7.3,0.9-12.7c-19,5.3-27.4,20.3-38.5,31.8
	c-24.1,24.9-46.1,52.2-72.1,75c-64.5,56.9-131.8,111-205.4,155.5c-65.2,39.4-132.3,76.1-204.4,102.4
	c-36.7,13.4-74.4,20.5-112.8,16.5c-67-6.9-94.4-37.7-98.5-105c-0.2-2.6-2-5-4-9.9c-7.2,4.1-14,7.1-19.8,11.4
	c-51.9,38.3-102.3,78.7-155.7,114.6c-50.4,33.9-103.5,63.8-156.2,94.3c-20.7,12-43,21.4-65.1,31c-38.8,16.9-76,12.6-108.9-13.9
	c-28.4-23-32.4-54.9-29-89.3c4.4-44.3,29.5-78.9,52.1-114.5c20-31.6,42.6-61.5,62.6-93.1c37.3-58.9,78.7-114.2,129.2-162.6
	c12.2-11.7,26.1-23.4,25.8-46.5c-20-1.5-40.1-5.7-59.8-4c-65.4,5.6-131.3,9.4-195.7,21.4c-64.1,11.9-129.3,23.8-187.6,56.7
	c-1.7,0.9-3.8,1.1-5.4,2c-37.2,20.5-37.4,20.6-28.5,62.8c6.1,29.2,14.1,57.6,12.9,88.3c-2.5,63.5-27,118-62.4,168.8
	c-29,41.8-67.6,73.3-107.5,104.3c-51.9,40.3-116.4,10.5-126.8-51.5c-3.4-20.3-0.4-38.2,4.5-56.5c6.2-23.2,14.9-45.8,22-68.8
	c3-9.9,4.6-20.3,2.3-34.1c-6.9,5.5-14.3,10.5-20.6,16.6c-61.8,60.3-131.1,111.3-201.4,161.1c-11,7.8-21.6,16.5-33.4,22.8
	c-27.9,14.8-57.9,17-86.5,4.3c-28.2-12.6-40.4-37-40.6-68c-0.2-36.7,0-73,14.2-108c4.1-10.1,0.8-22.9,2.8-34.1
	c8.5-46.4,17.9-92.6,26.6-139c1.4-7.2,0.8-14.8,1.2-22.2c-1.8-1-3.7-2-5.5-3c-13.7,16.3-30.3,30.9-40.4,49.2
	c-45.1,80.9-90.2,161.9-131.7,244.6c-29.4,58.6-53.2,120.1-79.5,180.4c-2.7,6.2-5,12.7-8.5,18.4c-11.6,19.1-27.8,24.4-46.8,16.1
	c-25-11.1-32.8-24.8-27.4-47.3c18.8-77.9,37.6-155.9,55.9-233.9c6.8-29.1,11.6-58.7,18.6-87.7c9.7-40,20.8-79.7,30.8-119.7
	c8.2-32.7,16.1-65.5,23.5-98.4c1.1-5-0.7-10.7-1.7-21.9c-13.3,8.9-24.5,14.1-32.6,22.4c-49.3,50.4-99.3,100.3-146.4,152.7
	c-51.6,57.4-100.7,117.2-150.3,176.4c-21.7,25.9-41.8,53.1-62.7,79.6c-15.7,19.9-21.3,42.9-22.1,67.8c-1.2,36.6-0.7,73.5-4.8,109.9
	c-6.1,53.6-13.5,107.3-24.3,160.1c-11,53.9-19.9,108.6-42.8,159.4c-14.2,31.6-28.4,63.3-43.8,94.4c-11.2,22.4-22.3,45.4-37.3,65.3
	c-22.7,30-47.2,58.9-73.8,85.4c-17.3,17.3-65.4-0.4-73.2-24.6c-2.7-8.2-3.9-17-4.6-25.7c-4.3-58.2,3.4-115.5,12.8-172.8
	c7.6-46,18.2-90.7,37.7-133.6c14.3-31.5,21.9-66.1,36.7-97.3c17.7-37.2,40.2-72.2,60.3-108.3c8.9-15.9,16.1-32.8,25.8-48.2
	c21.6-34.2,47.6-65.7,64.4-102.9c3.9-8.6,8.2-17.8,8.7-27c2.8-51.2,4.5-102.4,6.4-153.6c0.1-3.7-0.7-7.5-1.4-14.4
	c-6.3,4.5-12.8,6.6-14.3,10.6c-9.3,24.8-24,40.3-51,49.8c-19.5,6.8-33.6,28.1-50.8,42.2c-63.5,52-123.9,108.5-200,142.9
	c-44.8,20.2-90,17.7-134.8-0.5c-31.4-12.8-60.8-61.9-46.4-101.8c16.4-45.8,39.1-88,67.7-127.3c10.7-14.7,18.3-31.8,29.4-46.2
	c16.4-21.3,33.2-42.7,52.4-61.2c40.9-39.4,85.2-75.4,125-115.9c34.3-34.8,78.7-47.7,121.5-63.7c32.1-12,81.9,8.6,103.1,36.7
	c4.6,6.1,9.3,12.2,13.3,17.4c3.3,0.7,5.3,1.7,7,1.3c46.8-9.6,63.1,4.1,61.5,51.8c-0.2,4.8-0.9,9.6-1.3,14.5
	c-6.4,63.4-13.1,126.8-19,190.2c-1.3,13.9-0.2,28.1-0.2,46.7c19.6-14.2,30.2-30,42.2-44.5c11-13.2,23.1-25.5,34.1-38.7
	c14.2-17,26.9-35.1,41.7-51.5c38.8-42.8,78.6-84.8,117.6-127.5c14.2-15.6,26.3-33.2,41.3-47.9c49.5-48.6,99.9-96.3,150.1-144.2
	c13.4-12.8,29.6-14.3,45.8-7.2c14,6.2,21.5,26.5,17.1,45.6c-4.9,21.6-12.3,42.6-17.4,64.1c-22.2,93.9-44.1,188-65.8,282
	C967.8,1368.5,966.1,1382.6,962.7,1402.2z M468.4,1193c-2-11.7-3.1-25.4-6.9-38.2c-7.6-25.1-28.7-38.7-53.1-33.3
	c-15.8,3.5-32.3,8.6-45.6,17.3c-50.3,32.9-96,71.6-137.8,114.9c-51.3,53.2-92.7,113.5-128.8,177.8c-11.9,21.2-20.8,43.5-23,68.1
	c-2.4,27.2,19.7,48.8,47,43.4c42.1-8.2,77.8-30.9,113.1-53.8c11.2-7.3,21.5-16,32.2-24.1c18.4-13.9,39.1-25.5,54.5-42.1
	c34-36.6,73.7-66.8,104.3-107.8C452.4,1277.8,461.5,1237.9,468.4,1193z M314,2174c19.7-18.8,34.6-38.5,46.8-60.2
	c29.6-53,59.5-105.9,76.5-164.7c9.3-32.2,17.4-64.8,25.8-97.3c5.5-21.2,12.5-42.3,15.2-63.8c5.2-41,8-82.4,11.2-123.6
	c0.6-8-1.6-16.2-3.1-30.4c-13.2,19.8-23.8,33.4-32,48.4c-24,44-47.2,88.5-70.5,132.9c-46.5,88.6-69.6,183.8-75.7,283.1
	C306.7,2122.3,301.9,2147.8,314,2174z M1559,1505.5c24.7-10.4,47.5-17.3,63.1-34.7c24.4-27.3,48.2-55.4,68.7-85.6
	c30.4-44.8,40.6-95.7,32.4-149.1c-3.4-22.1-10.9-44-30.6-65.5c-11.2,16.9-19.4,30.6-29,43.3c-34.6,45.9-58.7,97.4-79.3,150.6
	c-9.4,24.2-17.4,49-24.3,74C1554.6,1458.6,1551.8,1479.5,1559,1505.5z M3408.2,727.1c18.6-33.1,40.2-63.9,54.2-99.8
	c28.2-72.7,34.5-89.3,29.2-111.4C3451.9,582.5,3427.8,653.8,3408.2,727.1z"/>
<path d="M4646,400.5c20.5,1.4,38,17.6,39,31.4c0.8,11-16.6,36.7-27.5,37.2c-7.5,0.4-18.6-2.3-22.4-7.6
	c-10.6-14.9-10.5-33.2-4.4-49.8C4632.9,405.6,4643,402.5,4646,400.5z"/>
<path class="st0" d="M468.4,1193c-6.9,44.9-16,84.7-44,122.2c-30.6,40.9-70.3,71.2-104.3,107.8c-15.4,16.6-36.2,28.2-54.5,42.1
	c-10.7,8.1-21,16.8-32.2,24.1c-35.3,22.9-71,45.6-113.1,53.8c-27.3,5.3-49.4-16.3-47-43.4c2.2-24.6,11.1-46.9,23-68.1
	c36-64.2,77.5-124.6,128.8-177.8c41.7-43.3,87.5-82,137.8-114.9c13.3-8.7,29.8-13.8,45.6-17.3c24.4-5.4,45.5,8.3,53.1,33.3
	C465.3,1167.7,466.3,1181.3,468.4,1193z"/>
<path class="st0" d="M1559,1505.5c-7.2-26-4.4-46.9,1.1-67.1c6.9-25,14.9-49.8,24.3-74c20.6-53.2,44.7-104.6,79.3-150.6
	c9.6-12.7,17.7-26.4,29-43.3c19.7,21.6,27.2,43.4,30.6,65.5c8.2,53.4-2,104.4-32.4,149.1c-20.5,30.2-44.4,58.3-68.7,85.6
	C1606.5,1488.2,1583.7,1495.1,1559,1505.5z"/>
<path class="st0" d="M3408.2,727.1c19.6-73.4,43.7-144.7,83.4-211.3c5.3,22.1-0.9,38.8-29.2,111.4
	C3448.4,663.3,3426.8,694.1,3408.2,727.1z"/>
</svg>
