<svg id="Layer_1" data-name="Layer 1" xmlns="http://www.w3.org/2000/svg" xmlns:xlink="http://www.w3.org/1999/xlink" viewBox="0 0 4000 3733.06"><defs><style>.cls-1{fill:none;}.cls-2{fill:#e9dd79;}.cls-3{clip-path:url(#clip-path);}.cls-4{fill:#a4b8d6;}.cls-5{fill:#bcbec0;}.cls-6{fill:#8dc63f;}</style><clipPath id="clip-path"><rect class="cls-1" x="906.68" y="1178.52" width="2186.63" height="2170.45"/></clipPath></defs><title>intro</title><rect class="cls-2" width="4000" height="3733.06"/><g class="cls-3"><path class="cls-4" d="M2388.82,1981.37q-75.92-31.71-154.32-56.37c-.2-2.08-.5-4.17-.69-6.25,48.63-.89,97.35-.89,145.88,4,15.28,2.58,30.57,5.76,45.65,9.73,8.34,2.28,16.57,4.66,24.81,7.24,2.38.79,4.86,1.69,7.24,2.48,14.29,9.23,31.46,16.47,46.15,25.31,1.39,1.29,2.78,2.28,4.17,3.57,7.44,6.85,14.39,14,21.14,21.53,1,1.09,1.79,2.08,2.58,2.88,5.56,8.34,11.11,16.57,16.08,25.21,4.37,7.54,8.53,15.18,12.4,22.92,1.39,2.68,2.58,5.36,3.87,8,1.19,3.37,2.38,6.85,3.57,10.22-58.45-30.17-119.48-55.87-178.53-80.48m95.57,402c-7.74,9.33-15.38,18.56-23.42,27.59-35,39.4-73.73,74.53-114.32,108.07-3.27,2.38-6.55,4.86-9.82,7.24-11.11,7.94-22.33,15.78-33.64,23.32-5.66,3.77-11.41,7.44-17.07,11a260.24,260.24,0,0,0-26.79-67.78c-28.08-49.72-64.41-96.46-103.21-138.34a682.26,682.26,0,0,0-75.92-69.57c-2.48-25.9-6.15-51.8-10.82-77.31-.5-2.88-1.19-5.86-1.79-8.73a712,712,0,0,1,262.78,243.33c3.77,5.86,13.2.5,9.43-5.46a722.9,722.9,0,0,0-233.61-228.25c19.85,5.76,39.6,11.91,59.25,18.26-.1,2.78,1.59,5.56,5.16,5.56a4.72,4.72,0,0,0,4.27-2.38q53.29,17.57,105,38.21c5.36,2.18,31.06,14.59,8.34,3.27s3,1.29,8.14,3.57q24.26,10.57,48.23,22,45.7,21.58,90.21,45.95c18.86,10.32,37.41,20.94,55.87,32.05q-3,4.32-6.25,8.34M1891.73,1650.2a149.49,149.49,0,0,0-15.18,18c-16.08-4-32.15-7.34-48.43-9.82-27.19-4.27-54.48-8.24-81.57-9.33,19.55-10.72,39.3-20.74,59.34-30.66,20.44-10,41-19.85,61.63-29.08,4-1.79,7.84-3.47,11.81-5.16,8.24-3.27,16.47-6.65,24.71-9.73,39.1-14.49,78.89-25.9,119.88-33.25a607.71,607.71,0,0,1,109.16.5,704.37,704.37,0,0,1,109.56,28.18c10.32,3.57,20.54,7.54,30.76,11.41,2.38,1.09,5,2.18,7.34,3.27,18.56,8.63,36.72,17.86,54.78,27.59-111.25-3.47-222.89,7-334.34-7.24-36.52-4.66-84.85,20.74-109.46,45.35m-359.34,1014c.69.4,1.39.69,2.08,1.09,2.38,1.89,5,3.77,7.24,5.76.3.2.5.5.79.6,3.08,3.37,1.79,4-10.12-7.44m1495.93-723.55c-79.69-213.76-234.8-383.76-416-517.83-105.79-78.3-228.05-139.63-356.47-170.39-27.69-31.76-67.18-52.3-113-50.81a418.34,418.34,0,0,1-52.4-1.89c-57.06-9.23-114.42-21.63-172.28-21.14-58.55.5-119.58,10.82-174.66,31.16-115.22,42.67-211.58,110.75-305.36,189.15-160.57,134.27-322.53,288.88-408.27,483.39C982,1991,953,2102.73,932.59,2219.34c-11,63-29.47,131.59-25.11,195.5,5.16,74,33.54,138.24,71.15,201.06,102.41,171,245.91,314.39,412,423.65,156.2,102.81,338.6,174.56,523.88,201.55,220.91,32.25,461.26,23.12,658.95-91.9,98.54-57.36,178.13-136.85,245.81-227.46,67.48-90.31,110.25-195.1,147.87-300.69,37.21-104.4,75.62-209.79,91.5-319.95,17.47-121.57,13-244.13-30.37-360.44"/></g><g class="cls-3"><path class="cls-5" d="M1259.18,3343.42c-3.47,0-3.47,5.46,0,5.46s3.57-5.46,0-5.46"/></g><g class="cls-3"><path class="cls-6" d="M1109.73,2258.94c34.83,0,34.93-54.18,0-54.18s-34.93,54.18,0,54.18"/></g><g class="cls-3"><path class="cls-6" d="M1307.71,2323.44c-3.47,0-3.47,5.46,0,5.46s3.47-5.46,0-5.46"/></g><g class="cls-3"><path class="cls-6" d="M1539.23,2789c-27.19-32.05-53-65.3-83.66-94.18-32.25-30.37-68.67-55.87-104.7-81.48-63.12-44.86-118.09-96.06-163.55-159-38.5-53.59-71.45-110.85-103.31-168.61a65,65,0,0,0,2-11.51c9.13-131,40.59-261.59,93.48-382a1214.85,1214.85,0,0,1,96.26-177.34c16.08-24.41,32.85-48.43,50.91-71.55.5-.5,1.19-1.39,2-2.28a119.14,119.14,0,0,0,26.1,19.35c26.5,14.59,56.47,17.17,86.14,18.46,23.22,1,44.16.69,62.62,16.57,20.24,17.47,29.57,43.07,37.12,67.88,9.92,32.85,21.63,64.7,45.75,89.91,40.69,42.47,104.6,57.16,161.56,52.1,26.3-2.28,51.31-8.73,75.92-16.87-39.79,29-71.45,66.19-90.7,114-3.57,8.93-4.17,17.47-2.28,25.31a310.88,310.88,0,0,0-36.42,97.06c-10.62,55.47-8.63,111.64,4.27,166.52,5.76,24.41,14.59,47.44,23.72,70.56.5,1.39,2.08,6.75,3.67,12.4-34.83-20.34-65.4-49.72-107.77-54.09-46.94-4.86-88.82,21.14-109.76,62.92-22.43,44.66-18.36,93.58,2.78,137.84,20.94,43.76,58,77.51,84.35,117.8,50.31,76.91,75.52,165.23,76,255.74-54.09-16-96.36-62.72-132.48-105.59M2326,2883.45c-43.27-24.91-90.11-45.65-125.64-81.57-32.65-32.85-46.74-72.25-63.51-114.12-18-45.25-43.47-87.43-91.7-104.6-47.83-17-118.89-9.23-165.43,8.63-65.89,25.31-102.71,80.88-116,144.09a49.32,49.32,0,0,0-9,1.59c-.69.2-1.39.5-2.08.69a607,607,0,0,0-25.6-71.85c-19.65-45.65-45.65-87-76.51-126-20.54-25.9-57.86-61.53-54.38-95.57.69-7,5.06-19.05,9-21.63-3.67,2.38-1.39-2.38,6.35.1,8.34,2.68,17.07,10,24.12,15,36.72,26,72.84,50.12,120.28,43.47,57.86-8,86.73-62.22,75.42-116.8-9.43-45.65-33.74-85.94-39.3-133.18-11.21-96.56,28.58-193.12,119.48-234.9,23.32-10.72,29.08-33.44,23.72-54.18,10.62-4.76,21.14-8.93,31.06-12.8,28.78-11.11,57.56-23.22,78.6-46.94,28.18-31.76,33.94-80.09,3.77-113-53.09-58.15-141.81-20.94-202.55,2.28-50.51,19.35-124,52.4-176,17.66-21.63-14.39-25.31-38.9-32.75-62.32-11.51-36.52-28.68-71.25-55.47-99-23.82-24.81-55.08-42.37-89.12-47.93-17.17-2.88-34.44-3.57-51.8-4.27-10.42-.5-27.59.79-37-5.16-6.75-4.27-12.31-16-18.06-21.93-13.89-14.19-31.56-23.92-51.51-25.11-48-3-74.13,38.11-99.74,71.95a1225.06,1225.06,0,0,0-116.51,186.57,1290,1290,0,0,0-132,457.49c-16,14.59-23.82,37.81-10.52,62.22,40.19,73.73,80.78,147.87,131,215.45,54.78,73.73,117.9,132.09,192.52,185.18,35.63,25.41,70.56,50.71,101,82.47,31.36,32.75,58.45,69.17,88.82,102.71,59.25,65.6,139.23,121.67,231.52,115.91,30.17-1.89,48.33-22.23,51.51-51.5.4-3.18.6-6.55.89-9.73q49.72,130.25,99.44,260.3c20.15,52.8,99.14,47.24,101.12-13.7,3.18-97.15-40.89-183.1-78.7-269.63-27.29-62.62-60.54-153.82-6.75-212.37,25.6-27.89,71.45-29.28,106.88-28.28,31.66.89,39.6,27.49,49.42,54.09,15.38,41.68,32.45,80.19,60,115.32,27.09,34.44,60.83,61.53,98.15,84.25,57.36,34.83,192.52,85.25,167.12,175.36-18,63.91,81.38,91.2,99.34,27.39,31-111.15-54.68-201.16-142.9-252"/></g><g class="cls-3"><path class="cls-6" d="M3067.31,2209.52c-80-40.79-178.63-68.28-258.22-10.62-36.42,26.3-58.35,62.92-63.51,107.48-1.29,10.52-2.28,33.25-5.16,37.31-6.55,9.73-18.36,14-31,19.85-28,13-60.64,23.92-86.64,44.76-32.45,26.1-50.81,66.79-48.13,108.57,3.18,48.33,25.5,88.62,56.27,124.84,25.11,29.67,55.67,54.48,73.93,89.22,34.34,65.2,22.53,152.53-27.09,206.52-44.66,48.83,28,121.87,72.84,72.84,50.61-55.18,78.4-128.22,76.31-203.24-2.28-81.48-37.71-147-92.59-205-22.92-24.21-53.09-51.11-57-86.44-2.78-26.1,16.37-33.44,37.31-43.17,23.72-11,52.4-19.85,75.42-36.32,34-24.41,50.71-56.37,55.47-97.85,3.87-34.24,10.62-56.76,47.24-67,41.58-11.51,86.14,8.63,122.46,27.19,59,30.07,111.15-58.75,52-88.92"/></g><g class="cls-3"><path class="cls-6" d="M2305.46,1361.92c-.1-.3-.2-.6-.3-1,11.61,5.06,23.22,10.22,34.73,15.38-15,.69-29.37-1.19-34.44-14.39m492.52,200c-37.41-44.46-81.08-82.86-127.32-117.9-110.45-83.56-237.88-139.53-364.31-194-21.83-20.94-61-25.31-80.78,8.53-26.3,45-33.25,101.42-11.51,149.55,25.7,57.26,82.86,73.24,141.32,70.06,50-2.78,106.38-7.84,151.34,18.76,41.48,24.41,64,72,87.43,111.94,28.08,47.83,61.23,93.38,108.87,123.55,42.47,27.09,130.9,50.21,163-4.66,32.45-55.87-34.44-125.93-68.08-165.83"/></g><g class="cls-3"><path class="cls-6" d="M1812.14,1484.18c-3.47,0-3.47,5.46,0,5.46s3.57-5.46,0-5.46"/></g><g class="cls-3"><path class="cls-4" d="M2555.54,1881.63a583.38,583.38,0,0,0-36.32-147.47c-26.6-67.48-61.23-127.13-108.17-182.6-25.11-29.67-57.16-54.88-94.87-66.39-58.65-18-124.54,4.37-157.39,57-28.48,45.55-26.7,101.62-3.57,148.86,15.48,31.76,42.67,55,67.28,79.39a180.43,180.43,0,0,0-32.75,4.17c-54.88,12.7-96.36,53.79-128.42,97.75-54.09,74.43-64.11,171.88-49.32,260.11,8,48.43,26.79,94,51.21,136.45a101.5,101.5,0,0,0,25,40.49c.6.6,1.29,1.19,1.89,1.79,5.66,8.24,11.51,16.28,17.57,24.31,8,70.66,28.88,141.12,65,197.88,34.73,54.78,88.92,96.36,156.3,96.26,65.6,0,120.18-40.39,153.52-94.38,30-48.43,38.6-103.7,45.65-159,1.69-13.7,3.18-27.39,4.17-41.18,48-46,69.07-114.62,74.63-181.81,7.54-92-13.6-186-51.41-271.62"/></g><g class="cls-3"><path d="M2216.94,1284.11c-.5,47.54-15.78,115.61,34.44,144.49,69.57,40.09,157.1-19.65,224.48,30,55.77,40.89,73.24,115.81,106.58,172.87,32.85,56.17,80.48,96.46,144.49,111.45s145.39,23.62,197-25.9c5.06-4.86-2.58-12.5-7.74-7.74-33.25,32-80.28,36.42-124.35,33-41.88-3.18-87-11.81-123.25-33.74-70.46-42.77-92.59-121.67-130.4-189.45-15.68-28.08-35-55.87-62.42-73.64-30.66-19.85-66.29-20.64-101.72-18-44.66,3.37-115.22,17.17-140.32-32.45-16.47-32.75-6.65-75.92-6.15-111,.3-6.85-10.52-6.85-10.62.1"/></g><g class="cls-3"><path d="M3042.8,2217.06c-81.18-5.06-169-71.25-237.28,5.76-21.24,23.82-31.76,54.88-42.08,84.45-11.21,32-23.32,75.42-59.74,86.93-33,10.42-72.84-6.15-101.92,17.66-25.11,20.74-30.17,56.67-32.15,87.13-5.66,88.32,63.41,137.74,107.18,205.52,68.18,105.79-18.16,209.59-21.14,319.45-.2,6.95,10.62,6.95,10.82,0,2.28-87.23,60.93-167.32,47.34-255.74-12.4-81-87.63-126.53-121.07-196.69-17.47-36.82-17.07-84.75-3.08-122.86,18.76-51.11,64.6-34.54,106-41.58,59.34-10.12,70.36-79.59,88.92-126.23,19.85-49.82,57.46-89.81,115.61-85.44,49,3.67,93.38,29.37,142.8,32.55,6.75.4,6.75-10.62-.2-10.92"/></g><g class="cls-3"><path class="cls-6" d="M1315.75,2034c17.47,0,17.47-27.19,0-27.19-17.47.2-17.47,27.19,0,27.19"/></g><g class="cls-3"><path class="cls-6" d="M1303.14,1907.43c2.28,3.77,4.37,7.54,6.65,11.31a58.85,58.85,0,0,0-10-2.38c1-3.08,2.18-6,3.37-8.93m65.2,333.94a108.42,108.42,0,0,0-9.63,8.44c.1-5.06.3-10.32.4-15.38,3.08,2.28,6.05,4.66,9.23,6.95m-51.21,130c.89-.5,1.69-1,2.48-1.49a261.58,261.58,0,0,0,3.87,27.49c-2.08-2.18-4.17-4.27-6.25-6.45,0-1.19.1-2.28.1-3.37Zm314.19-386.83c1.69.3,3.47.5,5.16.89-.69,4.27-1.39,8.63-2.18,12.9-2.38-3.27-5-6.65-7.74-9.82-1.69-2-3.47-4-5.26-6,3.47.69,6.65,1.39,10,2m751.73,1099.87c-13.2-58.35-48.63-109-91.1-150-39.3-38.11-85.84-68-123.65-107.77-18.86-19.75-19-22.43-37.91-47-16-20.84-31.66-40.89-52.1-57.46-49.62-40.09-117.1-53-174.36-19.65-41.58,24.21-68.38,65-89.81,106.78-5.76-1.59-11.41-3.27-16.67-5.06-18.36-6.25-37.21-12.11-55.77-18.46-30.17-24.12-59.15-49.62-86.14-78-1.19-1.29-2.28-2.58-3.57-3.87-3.37-3.67-6.85-7.34-10.12-11.11-29.87-33.44-50.21-61-75.12-100.93-12.11-19.35-23.42-39.2-33.74-59.44-7.84-15.18-21.24-43.86-24.41-51.8-4.17-9.92-7.84-20-11.51-30.17,23.52-7.84,43.67-26.4,49.52-51.5,4.17-18,7.15-37.31,7.34-56.57,29.77,28.68,74.33,42.18,114.82,31,23.92-6.65,47.44-22.73,60-44.46,10.52-18,11.31-40.39,14.59-60.44q11.31-68.77,22.53-137.64,10.42-63.56,20.74-127c9-54.88,22.13-114.22-34.63-149-30.17-18.46-70.56-14.39-92-19.15-33-7.34-53.09-15.28-81.57-37.91,5,3.77-11.51-10.82-10.82-10.22-5.86-5.56-11.21-11.51-16.67-17.37-2.18-2.28-3.47-3.77-4.37-4.66-.6-1.19-1.59-2.88-3.18-5.46-4.17-6.95-8.53-13.6-12.4-20.74-19-34.93-35.83-69.57-70.46-91.8-82.47-53.09-182.3-7.54-233.51,65.6-24.71,35.43-39.6,77.21-55.67,117-17.57,43.67-34,87.73-47.93,132.58-28.38,92.09-45.85,189-42.47,285.61a80.61,80.61,0,0,0,19.65,50.21c-2.68,57.26,26.2,107.67,64.7,151.84,39.79,45.65,83.66,88.22,126.43,131.09,43.57,43.76,88.12,86.44,134.77,126.83,35.33,30.66,74.73,58.55,108.27,91.7,3.87,4.27,7.74,8.53,11.51,12.6s7.64,8,11.51,12c14.09,16.87,27.09,40.59,45.15,57.56s39.6,27.59,62.22,36.22c42.67,32.65,87.13,63.12,131.29,93.58,27.29,18.86,56.27,37,86.24,52.6a756,756,0,0,0,23.32,98.25c8.93,28.88,40,59.54,73.24,55.77q165.38-19.2,331-38.31c49.62-5.46,84.55-43.47,72.84-95.77"/></g><g class="cls-3"><path class="cls-6" d="M3041.61,2315.3c-5.76-64.11-63.41-111.15-127.82-90.41-53.49,17.17-81.77,70.66-100,119.78-13.89,37.21-25.6,72.44-43.17,107.48a6.93,6.93,0,0,0-1.19-.3c-34.83-6.65-67.88-.89-93.68,24.91-24.41,24.41-35.73,61-28.08,94.77,13.3,58.75,73.73,90.41,131.09,79.49q-31,89.32-61.92,178.73c-13.4,38.7,15.28,83.06,53,93.38,41.78,11.51,79.89-14.19,93.38-53l98.25-283.72q24.56-71,49.12-141.91c14.09-41.28,35.13-84.55,31.06-129.21"/></g><g class="cls-3"><path d="M1030.24,2024.43c-3.87-101.62,53.69-191.63,112.54-269.63,59.44-78.8,120.48-163,198-225,41.18-32.85,88.52-56.37,130.7-87.83,38.11-28.38,74.73-59.15,117.4-80.68,22.33-11.31,46.34-18.56,68.67-29.77,23.82-11.91,46.15-26.5,69.07-40,46.94-27.59,91.9-42.28,146.58-43.76,48.43-1.39,96.86,3.67,145.09,7,53.09,3.77,106,7.15,158.78,14.79,106.88,15.38,213.26,43,311.11,88.92,173.37,81.48,331.26,198.78,422.86,369.86,51.6,96.26,99,196.2,125.34,302.68,13.3,53.79,20.74,109.16,18.16,164.44-2.68,57.66-17.17,114.42-33,169.7-32,111.74-64.9,223.59-106.28,332.15-21.44,56.17-44.56,111.84-69.17,166.62-18.16,40.39-40.09,62.32-76.91,86.93-47,31.36-96.26,59.44-142.61,91.9-44.56,31.26-86.73,69.07-137.84,89.41-91.8,36.52-200.66,25-297.32,22.73-118.89-2.68-237.18-8.93-356.17-9-112.54-.2-228-8.63-328.08-64.9-90.11-50.71-162.45-127-236.59-197.68-67.78-64.6-144.89-123.35-194.71-204-26.1-42.08-41.78-89.22-59.44-135.26-18.06-46.94-35.83-94.38-47.73-143.3-13-53.39-16-104.5-3-158.09,12.4-51.11,26.89-102.32,40.49-153.22,13.89-51.8,35.53-101,47.54-153.42,1.49-6.85-8.83-9.73-10.52-2.88-13.1,57-37.71,110.45-51.11,167.32-13,55.38-33,110-42.67,166-17.07,99.93,25.7,201.06,61,292.36,17.66,45.65,33.64,91.3,60.24,132.58,24.31,37.71,54.68,70.86,86.83,101.82,75.12,72.44,151.14,146.38,230.23,214.55,81.67,70.46,170.59,120.28,278.07,137.84,118,19.35,239.17,8.14,358.15,13.2,113.43,4.76,228.35,13.89,341.88,7.24,47.24-2.78,95.57-9.33,138.93-29.37,52.1-24.12,95.37-63.61,142.51-95.37,49.32-33.15,101.72-62.12,150-97,29.67-21.44,44.86-45.85,59.64-78.89,49.42-110.55,93.68-223.78,128-340.09,32.75-111.35,78.8-226.36,80.68-343.86,1.79-108.27-31.76-214.55-74.13-313-41.48-96.26-89.32-194.41-157.39-274.79-60.34-71.15-135.76-126.53-214.85-175-92.59-56.67-188-102.12-293.15-130.2-105.39-28.08-211.88-37.71-320.24-45.85-52.4-4-105.49-9.23-158-5-46.84,3.87-86.83,20.34-127.13,44-22.92,13.4-45.25,28.08-69.07,40-24.91,12.4-51.6,20.44-76.22,33.64-45.75,24.61-84.75,59.44-127,89.32-41.48,29.37-86.54,52.1-125.74,85-40.39,33.94-74.63,73.73-107.38,115-62.42,78.89-131.69,156.2-171.09,250.08-17.27,41.08-27,84.35-25.31,129,.79,7.44,11.71,7.54,11.41.6"/></g><g class="cls-3"><path d="M1864.74,3156.06c3.67-70.56-35.23-150-107.18-170.69-19.05-5.46-39.2-5-58.55-9.13a255.73,255.73,0,0,1-68.77-26.2c-41.68-22.73-77.7-54.48-111-87.93-63.51-63.51-119.09-130.7-192.13-184-83-60.54-164.54-113.83-222.39-201.06a1113.24,1113.24,0,0,1-86.14-156.3C989,2255.26,992,2189,992.23,2118.71c0-6.95-10.82-6.95-10.82,0-.2,51.11-4.07,103.51,7.94,153.62,11.81,49.62,39.5,97.35,64.21,141.51,23.72,42.47,49.52,85.15,81.08,122.26,29.87,35.23,66.29,64.21,103.41,91.5,40.79,30,83.26,57.76,122.76,89.61,35.33,28.48,65.6,61.63,96.26,94.87,56.07,60.93,115.12,125.84,192.72,159.28a255.17,255.17,0,0,0,66.79,18.66c25.9,3.37,48.73,6.05,71.06,21.14,46.64,31.56,69.27,89.81,66.39,144.79-.5,6.95,10.42,6.95,10.72.1"/></g><g class="cls-3"><path class="cls-4" d="M2366.69,2122.78c-7.94,1.89-7-3.37-4.17-9.23.3.6.6,1.39.89,2,4.76,9.63,5.86,12.11,3.27,7.24m119.88-125.93q-29.77-61.48-62.12-121.87c-43-80-88.42-159.68-139.63-234.8-53-78.1-118.79-140.52-216.54-150.55-45.55-4.66-92.59,7.34-136,20.34-21.93,6.55-43.76,13.79-66.09,19.05-25.31,6-25.21,6.35-53.39,5.06-42.57-2.08-83.26,38.9-81.38,81.38,2.08,45.85,35.73,79.09,81.38,81.38,50,2.38,98.94-10.52,146.28-24.91,21.73-6.65,43.76-12.21,65.7-18a46.8,46.8,0,0,0,5.56-1.69c1.09,0,2.78,0,5.46-.2,2.28-.1,21.14.2,22.83-.5,6.55,1.69,18.26,5.16,18.56,4.66,6,3.27,18.16,10.62,17,9.23,7.84,6.05,15,13.4,21.63,20.64,1.89,2.08,17.17,20.34,15.08,17.17,28.08,36.92,51.5,77.9,75.32,117.5q81,134.57,148.56,276.68c2.28,5,4.66,9.82,6.95,14.79-15.88,19.85-29.37,42.47-44,63.12l-98.25,139.33c-25.31,35.92-6.45,90.51,29.18,111.25,40.69,23.82,85.94,6.85,111.25-29.18q41.53-58.8,83-117.5c27.29-38.7,66.89-80.09,80.48-126.33,16.37-56.57-13.1-107-36.82-156.1"/></g><g class="cls-3"><path d="M1335.5,1521.39c11.61,41.88,54.38,43.57,90.7,50.71,60.54,12,92.89,59.15,123.06,108.27,55.77,90.9,157.79,118.59,260,113.53,41.68-2.08,82.37-14.29,123.95-17.27,19.15-1.39,41.48-2.38,59.25,6.25,30,14.59,26.7,54.09,8.34,76.81-14.19,17.47-34.54,29.18-53,41.28a344.43,344.43,0,0,0-57.16,46.15c-43.07,43.37-77.31,96.46-97.75,154.22-21.53,60.64-40.19,125.84-45.85,190.14-2.38,27.19-.6,52,4,78.7,2.28,12.8,7.24,29.18,2.88,42.18-7.74,22.92-34.34,25.41-54.88,20.84-32.95-7.34-78.8-39.4-110.45-11.41-26.6,23.62-14.89,70.76-6.15,99.64,13.7,45.45,36.62,84.45,65.4,122.06,19.55,25.5,38.7,51,57.16,77.31,5.86,8.34,12.9,21,24.41,21.83,11.71.79,21.14-11.31,28-19.05,16.77-19.25,30.86-38.6,50.61-55,41.58-34.44,92.79-61.53,145.48-73.83,27.09-6.25,57.26-9,83.76,1.29,30.86,12,51.5,39.79,66.89,67.88,25.7,46.94,36.82,110.45,78.8,146.38,20.64,17.66,46.74,26.7,69,41.88,31.76,21.63,56.07,56.57,75.12,89.32,38.8,66.79,54.58,142.61,55.18,219.22.1,6.95,10.92,6.95,10.82,0-.89-110.16-36.42-243.83-129.41-313.4-19.55-14.59-42.57-23.32-62.72-36.92-26.4-18-39.5-44.66-51.9-73.24-19.55-44.86-36.12-96-73.64-129.61-69.47-62.22-178.53-13.5-244.43,30.37-18.16,12.11-35.73,25.6-51.11,41.18-11,11.31-36.82,58.35-54.78,50-7.34-3.37-14.19-18.76-18.46-25-8.34-12.21-17.07-24.12-26-35.83-21.83-28.38-45.25-56.17-62.42-87.83-19.35-35.53-42.28-87.93-33.64-129.21,13.4-64.21,99.54-.89,138.64-5.36,39.3-4.57,45.35-35.53,39.89-68.87-12-72.35.3-139.13,20.54-209,20.74-71.45,46.54-136.75,96.16-193.52,18.66-21.44,39.3-41.38,62.92-57.36,17.86-12.11,36.82-22.82,53.09-37.21,25.11-22.13,42.57-60.63,20.54-91.5-18.66-25.9-57.86-24.81-86-22.53-48,3.87-94.77,18.06-143.2,17.07-65.8-1.39-136.85-11.71-187.86-57.06-43.67-38.7-59.64-99.14-106.48-135.26-20.74-16-43.86-25.6-69.47-30.17-30-5.36-67.48-7-77.11-42.08-2.08-6.75-12.5-3.87-10.62,3"/></g><path d="M2699.05,692.32c-1.36-17-1.36-34.24-2.49-51.25a465.57,465.57,0,0,1-.11-60.32c.91-12.93-1.25-25.85.68-38.78.23-1.13-.34-2.38-.45-3.51-.45-10.32-.34-20.75,1.81-30.84a96.49,96.49,0,0,0,1.7-22c-.11-6.46-1.93-12.47-10-14.63-6.8-1.7-12.81-5.9-18.94-9.3-10.89-6.12-22.56-8.73-34.47-10.66-5-.79-10.66-1.36-15,3.29-2.83,3.17-7.14,2.61-9.75.45-5.22-4.54-11.57-4.42-17.57-5.1-6.46-.79-12.93-3.29-19.28-2a83,83,0,0,1-15.87,1,317.65,317.65,0,0,0-34.47,1.93c-22.68,2.27-45.35,5-68,7-8.5.79-17,1.93-25.51,3.17-14.51,2.27-29.14,4.2-43.65,6.69-14.29,2.49-28.46,5.33-42.63,8.16a14.27,14.27,0,0,0-10.43,7.6c-4.54,8.73-13.61,12.36-21.66,13.83-8.5,1.47-14.63,5.9-21.09,10.09-14.29,9.41-23.92,23.58-35.49,35.94a91.29,91.29,0,0,0-13.27,17.69c-3.86,6.8-7.94,13.38-12.25,20.41V562.6c0-8.05,1.81-15.87,3.29-23.7,1.13-6.24-.45-10.89-5.78-14.4a44.46,44.46,0,0,0-16.1-7c-2.38-.45-5.33-.23-6.24-2.61-2.95-7.71-12.13-3.4-16.1-8.73-6.8,2.15-13.38-1.25-20.18-.79-9.41.57-10.2.91-12.25,10.2-4.31,18.82-5.56,38-7.26,57.15-1.13,13.49-1.13,27.21-2.49,40.71-3.4,32.09-6.92,64.06-13.49,95.7-4,19.28-10.54,37.53-16.67,56-1.7,5.1-5,9.64-7.37,14.06-7.71-6.92-.11-17.92-8.5-24.15-.45-.34.57-2.72,1.25-4.08a12,12,0,0,0,0-11.11c-1.7-3.4-4.88-6.8,1.81-8.28.45-.11.91-1.59.91-2.27-1.36-11.45.34-23-1.81-34.36-2.27-12.25-.91-24.72-2.49-37a6.65,6.65,0,0,1,.11-2.61c2-8.39,1.59-17,1.7-25.4.34-14.74-.45-29.48-.11-44.33.34-16-.11-31.86-.79-47.85a115.1,115.1,0,0,0-5.67-33c-2.49-7.14-7.14-12.13-14.63-15.53-8.16-3.63-16.78-5.1-25.06-7.82a74.81,74.81,0,0,0-26.08-3.51c-6.24.23-10.77,4.31-16.21,6.35-1.7.57-1.93,3.06-1.81,4.76.45,7.94.68,15.87,1.81,23.7a383.59,383.59,0,0,1,4.54,59.3c0,1.59.45,3.63-2.15,4.54-28.35-17.46-59-30.61-90.6-41.27-8.62-2.95-17.35-5.78-25.85-9-1.81-.68-5.22-.68-5-2.83.45-6.12-5.33-7.26-7.94-10.89-1.36-1.93-4.08-3.86-6.92-2.38-4.42,2.15-8.73.79-12.93-.34a16.42,16.42,0,0,0-9.64,0c-8.16,2.49-16.33,2.15-24.6,1.36-11.79-1.13-23.47-2.83-35.26-2.72-8.84.11-17.69.57-26.08,3.29-2,.68-4.54.79-5.78,3.4-3.06,6.58.45,20.86,7,23.7,6.12,2.61,12.25,5.78,19.16,6.69,10.2,1.36,20.41,3.4,30.5,5.56,7.71,1.59,9,3.74,8.05,11.45-2.72,23.13-6.24,46-6.12,69.39.45,1.81.57,3.63-.79,5.1-.45,7.14-.79,14.17-1.25,21.32,2.38,9.75-1.47,19.39-1,29.14.11,2.15-.91,4.42-3.63,3.86s-6.24.23-7-4c-1.13-6.12-2.38-12.13-3.51-18.26-.23-1.47.11-3.29-.57-4.31-6.24-9.41-8.16-20.75-14.51-30.16-6.58-9.75-11.91-20.3-19.28-29.48-3.06-3.74-6.69-6.58-9.86-10.09-1.81-2-3.74-3.74-3.51-6.69-3.63-1.59-5-5.56-8.05-7.71-3.29-1.36-4.2-4.2-4.76-7.26-1.81-2.15-1.47-6.8-5-6.58-6.24.34-9.3-6.92-15.65-5.56-3.86-5.22-10-5.67-15.53-7.37-20.18-6-39.57-15.08-61-16.67a22.51,22.51,0,0,0-14.06,3.74c-4.08,2.61.23,6-.79,9a7.37,7.37,0,0,0,0,3.51c.91,6.46,3.51,12,10.09,14.51,10.32,3.86,8.39,3.74,3.63,13.27-.68,1.25-2,2.15-2.95,3.29-6.24,7.82-12.25,15.87-16.78,24.95-6.12,12.47-10.43,25.74-15.65,38.55-6,14.74-12.36,29.37-16.89,44.67a20.52,20.52,0,0,1-12.59,13.83c-1.36.57-2.95.79-4.2,1.47-20.07,10.77-41.39,18.37-62.48,26.87-18.71,7.6-38.44,11.68-58.05,15.65a32.93,32.93,0,0,1-10.54.23c-5.33-.68-6.35-3.29-3.63-7.94a70.37,70.37,0,0,1,9.41-12.81c11.11-11.91,20.18-25.4,29.25-38.89,10-14.85,19.73-30,28.8-45.58,6.92-11.68,14.06-23.13,20.41-35.26,7.14-13.49,11.79-28.35,21.77-40.25a15.11,15.11,0,0,1,.57-2.15h0c0-1.36.11-2.61.11-4a30.79,30.79,0,0,0-.11-3.17c-.23-2.83-.23-2.38.11.11-.23-1.25-.34-2.49-.45-3.63-6.46-8.62-16.21-12.93-26-15.08a218.4,218.4,0,0,0-38.66-4.65c-12.7-.45-24,2.83-34.58,8.62-13.72,7.6-26,17.46-35.26,30.5-1.93,2.61-3.86,7.6-7.48,6.12s-1.59-6.35-1.81-9.75c-.68-13.27,1.47-26.53-.23-39.8-1-7.94-3.74-14.51-10.89-19.28a45.1,45.1,0,0,0-18-7c-5.56-.91-11.23-1.25-16.44-3.4-11.34-4.65-23.58-6-35.49-6.92-28.46-2-56.58,2.15-84.59,6.46-28.35,4.42-56,12.47-84,18.26-16.78,3.51-33.45,6.69-50.57,8.05-6.24.45-12.36-.23-17-3.06-11.34-6.69-24-6.92-36.28-9.18-6.24-1.13-12.93-.68-18.71,3.4a12.07,12.07,0,0,1-4.88,1.81c-6.35,1-9.75,5-10.54,11.23-.79,5.9-.34,11.68-.11,17.57.45,18.6,3.06,37.08,4.65,55.56,1.25,14.63,3.51,29.14,5.67,43.65,4.2,28.91,8.73,57.83,11.91,87,1.13,10,2.15,20,2.49,29.93.11,2.38.68,5.33-2.27,6.92-2.15-.57-2.95-2.38-4.42-3.29-3.17-2.27-3.63-6-5.56-8.84-15.65-23.47-32.88-46-44.11-72.23-9.64-22.56-19.84-44.79-29.59-67.24-4.2-9.75-8.28-19.62-13.95-28.69-3.17-5.22-7.26-9.52-14.17-8.5-2.38.34-4-.79-5.67-2-3.51-2.38-6.12-5.1-5.9-10.09.23-4.42-.34-10.09-5.44-11-12.13-2.27-23.13-7.82-35.38-9.75-10.66-1.7-21,.57-31.52-.23-2.15-.11-3.86,1.47-5.67,2.38-2.38,1.25-4.31,3.29-7,3.63-4.88.57-5.9,3.74-6.46,7.94a268.84,268.84,0,0,0-2.61,37c0,16.89-2.27,33.56-2.27,50.46,0,24.26-.68,48.53-1.47,72.68-.79,26-1.7,51.93-.79,77.9.45,11.57-.11,23,.45,34.58a201.71,201.71,0,0,0,2.38,21.88c1,6.69,1,13.49,2.49,20.18.68,3.06,2,5,4.2,7.37,11.34,12.13,24.95,4.2,37.53,4.76.68,0,1.47-.91,2.15-1.47,7.26-6.12,14.74-11.57,25.06-10.32,1.59.23,2.83-.79,3.86-1.93,2.15-2.27,4.88-3.17,7.82-3.86,3.29-.79,5.78-2.95,8.28-5,3.29-2.72,5.9-6.58,4.65-10.77-3.63-12.25-3.17-25.06-4.2-37.53-.91-11.45,1.36-23.13-3.06-34.24a9.1,9.1,0,0,1-.45-3.51c.11-17.35.23-34.81.34-52.16,0-.45.68-.79,1-1.25,1.47-.34,2.27.79,2.72,1.7,5.9,11.68,13.27,22.34,20.52,33.11s13.83,22,22.68,31.63c11,12,20.18,25.4,31.52,37.19,8.16,8.39,15.76,17.46,23.81,26,8.84,9.41,19.28,17.46,28.12,26.87,9.52,10.2,33.56,9,41.27,2.38,8.5-7.14,18.14-10.77,28.91-12.36a20.22,20.22,0,0,0,4.08-1.59c.11-1.81.91-3.17,2.83-3.4,1.93-3.06,7-2.95,7.26-7.6-1.7-2.27-1.36-4,1.47-5,1.13-1.7,2.49-3.29,1.13-5.44-.57-.68-1.7-1.36-1.59-1.93,1.7-7.48,0-15.42,2.72-22.68-.57-1.25-1.13-2.61-1.7-3.86-4.65-8.05-7.6-16.67-7-26.08.34-4.54-1.13-8.73-1.7-13.15-1.7-14.85-1-29.82-1.7-44.79-1.13-22.68-1.36-45.47-5.67-67.81-1.36-7.26-1.7-15-4-21.54-2.61-7.48-2.83-15-3.63-22.34-.57-5.44-2.83-10.89-1.36-16.89a19.69,19.69,0,0,0-2.72-15.31c-1.7-2.83-3.51-6.35-1.25-10l-.68-4.08c-3.4-5.33-3.06-7.37,1.36-10,13,.34,26-.57,38.89-1.36,8.5-.57,10.09.79,10,9.3a202.06,202.06,0,0,0,.34,20.3c1,11.11.91,22.45,1.47,33.56.91,18.26,2.27,36.51,3.17,54.88.91,17.69,2,35.38,3.86,53,1.59,16.1,2.27,32.2,4.2,48.3,1.81,15.19,4.65,30.27,7.48,45.35,1,5.44,1.93,11.34,6.35,15.31,9.75,8.73,27.67,16.1,43.43,2.95a13.91,13.91,0,0,1,4.65-2.38c4.31-1.47,8.28-6,13.15-3.63,6.8,3.29,6.24-6.35,11.34-5.78,1.25.11,2.72-1,4-1.7,3.63-2,6.24-6.58,5-9.3-3.51-7.48-1.81-15.19-3.17-22.68-2.49-13.95-4.54-28-6.24-42-4-32.77-4.42-65.88-6.69-98.87-.34-5.9-2.38-11.68-1.47-17.46,1.36-8.5-2.27-13.72-10.09-16.55-3.74-2.95-4.88-8.28-2.61-13.38a58,58,0,0,1,3.86-6.8c-1.59-3.4-.79-6.92-1-10.43-.23-5,.34-10.43-3.29-14.4-2.49-2.72-2.83-5.67-3.06-8.84-.11-3.51-.23-7.14-.57-10.66-1.13-10.77-.68-11.57,9.64-13.95,12-2.72,24.15-5.33,36.28-8.05,13.95-3.17,28.12-4.2,42.29-5,6.24-.34,7.26.45,8.28,6.46,1.13,6.35,2.38,12.7,2,19.39-.45,12-.11,24-.57,35.94-1.13,30.73-.91,61.34-.91,92.07,0,16.55,1.7,33,2.38,49.44.68,16.1,3.74,32.2,6.24,48.3C1335.92,817,1342,838,1348.05,859c1.59,5.56,5.78,11.91,13.72,13.15a37.91,37.91,0,0,0,13.83.23c5.33-1.13,10-3.63,14.74-6.8,6.58-4.31,14.85-6.35,23.47-6.35,10.54,0,17.23-7.14,17.57-17.46.11-3.51-.34-7.14-.11-10.66.57-11.79-3.74-23.24-2.61-35.15.79-8.84.34-9.07,8.84-9.07,23.7-.23,47.06-1.13,70.41-6.35,16.67-3.74,33.45-7.14,49.78-12.25,6.46-2,12.81-4.54,19.28-6.58,5.44-1.7,6-1.36,6.92,4.2a78.27,78.27,0,0,1,1,8.84c1.25,13.15,4.54,25.51,12.36,36.51,5.56,7.71,11,15.87,19,20.75,10.09,6.12,21.77,9.64,33.79,8.39,6.46-.68,13,.11,19.39-1.13,3.63-.68,6.8,2.15,10.43,1,13.61-4,27.33-6.8,41-10.2a60.62,60.62,0,0,0,17-7.26,278.67,278.67,0,0,0,28.57-20.41,152,152,0,0,0,24.26-24c1.7-2,2.83-4.65,4.65-6.35a61.1,61.1,0,0,0,12.36-17.12c2.95-5.78,8.62-9.64,11.68-15.76,2.27,31.18,3.63,62,11.57,93.66-5.44-2.83-9.18-2.27-12.47-.11-2.38,1.59-4.88,1.59-7.6,1.13-2.95-.45-6.46-2.49-8.05,2.38-.91,3.06-5.22,4.88-4.08,8.5,1.93,6.69,2.61,13.95,9.3,18.48,5,3.4,10.09,6.24,16.21,6.69,17.69,1.13,34.58-3.17,51.25-8.39,3.86-1.25,7.48-3.17,11.57-4.42a151.44,151.44,0,0,0,46.6-22.45c2.72-1.93,7.26-3.4,5.78-8.5l-.23-.34.34.23c.45.34,1.13.91,1.36.79,8.39-3.63,13.83-10.77,19.39-17.46,1.93-2.38,2.83-5.33,6.35-6.24,1.47-.45,2.83-2,4-3.4a515.88,515.88,0,0,0,31.63-44.9c.79-1.25,2.27-2.83,1.36-4-3.86-5,.79-7.71,2.83-10.66,2.15-3.17,4.65-6,5.9-9.75.68-2,.57-6.8,3.74-1,.79,1.47,2.27-.79,2.95-2,1.7-2.95,2.38-6.69,6-8.16,2.83,1.93,2.27,4.88,2.61,7.37,1.59,14.4,3.4,28.91,7.82,42.75,4.54,14.06,5.44,28.91,13.83,42.18,10.32,16.33,22.56,28.8,42.07,32.2,9.3,1.59,18.6,2.27,27.21-3.63,2.83-1.93,5.9-3.86,9.75-4,13-.23,23-6.58,31.07-16.33,2.38-2.83,4.54-5.9,7.26-9.3,2.27,4.31,3.74,8.16,6.24,11.34,9.52,12.59,14.74,18.14,31.52,11a4.2,4.2,0,0,1,2.61-.34c4.54,1.13,7.82-.91,11.45-3.29a18.61,18.61,0,0,1,9.07-3.29c3.63-.23,7.71-5,6.35-8.16-1.81-4.31-1.13-8.73-1.7-13-1.13-8.05-4.42-15.76-4.88-24,2.27,0,2.38,1.93,3.17,3.06,11.68,16.1,14.74,21,39,32a40,40,0,0,0,15.31,3.74c18.26.91,36.51,0,54.77-1,19.16-1.13,35.94-8.28,50.91-18.6,11.57-8.05,23.47-16.21,32.77-27.89,2.95,4.31,3.06,8.5,3.29,12.59.34,5.1,2.27,9.75,3.86,14.51,1.36,4,4.2,6,8.05,7.6,6.8,3.06,14.29,3.06,21.32,5,2.27.57,3.86-.11,5.78-1.13,4.2-2.15,8.73-5.67,12.81-5.22,5.44.68,9.18-.45,13-3.86.57-.45,2.27.45,3.4.57,2.15.23,4.08,0,5.44-2.38-6.92-8.16-4.88-16.78-.11-24.95,1.36-2.38,2.38-4.65,2.27-7.37-.68-16.55-1.7-33-1.13-49.55.34-10.89-1.59-21.88.11-32.77a81.44,81.44,0,0,0,.45-18.14c-.57-7.6-.68-15.31-.68-22.68,0-12.93.34-26,0-38.89-.45-20.07.68-40.25-.91-60.32-.57-7.71-1.36-15.31-.45-23a10.43,10.43,0,0,0-2.83-8.84c-4.42-5-3.63-6.46,3.29-7.48,8.84-1.25,17.69-2.27,26.53-2.95,20.41-1.59,40.71-3.06,61.12-4.2,8.5-.45,17,1.13,25.4,2.15,2.15.23,2.83,1.81,3.4,3.51.68,2,.34,4.08.23,6.12-.91,26.65-1.7,53.18-1.36,79.82.34,31.63,2.83,63.16,4.42,94.79,1.13,23.24,3.86,46.49,5.44,69.85.68,9.64,3.52,17.12,13.27,20.64.57.23,1,.57,1.59.79,6.92,3.51,13.83,4.88,20.86.23,2.72-1.81,5.44-1.81,8.5-.68,1.36.57,3.4,1.36,4.2.79,5.1-3.51,10.89-1.59,16.21-1.81,4.2-.11,6.58-2,7.48-4.76,1.7-4.88,3.74-9.64,3.74-15.31C2700.41,733.7,2700.64,713.07,2699.05,692.32ZM1729.15,753c-15.08,21-33.34,38.32-57.37,48.87-7.82,3.4-9.18,2.83-13.38-4.42-6.24-10.89-7.37-22.9-9.07-34.92-1-7.71.45-15.31-.34-23-.57-5.1,1.25-10.43,6.58-13.49,2.27-1.36,4.2-3.29,6.58-4.54,15.53-7.48,28.8-18.6,42.52-28.8,5.78-4.31,10.09-10.66,15.42-15.76,5.78-5.44,11.11-11.23,19.5-16,3.29,10.66,6.92,21,7.48,32C1748.19,715.11,1742,735.06,1729.15,753ZM1975.87,640.5c-.45,16.21-5.22,31.41-10.66,46.38-8.5,23.36-20.07,45.35-33.11,66.44-7.94,12.81-17.46,24.6-26.31,36.74-1.13,1.59-2.49,4-4.88,2.95-2-.91-2-3.29-2-5.44.57-27.78-4-55.33-2.27-83.11.23-2.83-.11-5.78,1.36-9.41,3.86,3.74.11,8.5,4.76,12.36,1.36-39.8,2.95-78.46,6.35-117-4.08,4.31-3.17,10-5.56,14.85-.79-7.26-6-14.29-1.25-21.88a180.61,180.61,0,0,1,28.91,11.45c16.89,8.39,33.79,17.12,42.63,35.38A20.8,20.8,0,0,1,1975.87,640.5ZM2309,582.56c0,.11-.11.23-.23.34a.68.68,0,0,1-.45.11A1.74,1.74,0,0,0,2309,582.56ZM2416.38,715.9c-17.92,16.33-36.4,31.75-55.33,46.83-8.16,6.46-17,11.45-25.63,17a78.27,78.27,0,0,1-24.49,9.86c-4,.91-6.8-.34-10.32-2.95-8.84-6.46-13.49-15-16.21-24.95-2.83-3.86-.91-7.82-.11-11.68.91-2.72.91-5.22-.91-7.6-5.78-2-6.24-3.17-3.86-8.16a4.28,4.28,0,0,0,.23-5c-5.33-7.71-4.2-16-2.95-24.38.68-4.65,1.25-9.41,2.38-13.95,2.61-10,.91-20,1.25-29.93.23-6.92,2.83-12.25,7.6-17.46a58.14,58.14,0,0,0,8.39-12.81c2.72-5.44,5.1-11.68,5.44-17.69.68-10.09,4.31-18.82,9.41-27.21,1.36-2.27.11-3.06-1.93-3.4.23-3.29,1.81-6.12,3.51-8.84,5.78-9.18,11.34-18.48,19.84-25.63,1.93-1.59,3.63-3.29,3.29-5.9-.45-3.17,1.25-5.22,3.29-6.92a158.8,158.8,0,0,1,24.95-17.46c7-4.08,14.29-2.61,21.43-2.72,9.64-.23,19.39,1.25,29.14.45,5.33-.45,6.92.79,6.24,5.9-1.59,12-.57,24.15-1.13,36.17-.34,7.37-.23,14.74-.11,22.11.23,25.4.23,50.8,1,76.2.45,15.31-.11,30.61,1.36,45.92C2422.28,707.17,2420.92,711.71,2416.38,715.9Z"/><path d="M3015.17,622.92c1.7,21-1,41.84-2,62.82-.79,16.21-2,32.54-3.06,48.76-.45,7-.79,7.71-8.05,8.73-2,.23-3.17,1.25-4.54,2.27-1.93,1.36-4.2,1.36-5.67-.34-6.24-6.46-13.49-4.08-20.64-2.83-5.33.91-10.77,3.4-15.53-1.93-1.25-1.36-4-.23-6,.23-4.31.91-6.46-.11-8.39-5-2.38-6-2.27-12-2.72-18a2.34,2.34,0,0,0-3.06,1c-7.14,11-19,16-28.91,23.7-17.8,4.76-34.47,13.49-54,11.23-9.18-1.13-18.82.23-28.12.91-3.17.23-6.46.11-8.5-1.47-6.8-5.22-15.31-6-22.79-9.18a58.33,58.33,0,0,1-20.41-15.31c-7.94-9.41-15.76-19.16-20-31.18a154.64,154.64,0,0,1-6.58-27.55c-3.06-20.3-2.38-40.59.79-60.89a612.5,612.5,0,0,1,24.6-100.69c5.56-16.44,10.89-33.11,19.39-48.42,1.81-3.29,2.72-7.14,4.42-10.66,1.81-3.74,4.54-6.24,9.18-5.1,2.83.68,5.78-.23,8.73.79,2.61.91,6,.57,7.14-2.15,3.74-8.62,11.68-7.48,17.46-6,17,4.31,33.68,9.3,48.42,20.52,11.91,9.07,24.49,17.35,36.51,26.31,1.36,1,3.63,2,4,3.4,1.81,8.16,10.54,11.79,12.7,19.62a2.45,2.45,0,0,0,2.61,1.93c1.93-.11,2.27-1.81,2.38-3.17.57-5.56.68-11.23,1.25-16.78,1.47-15.31,2.38-30.61,5.44-45.69A50.47,50.47,0,0,1,2955,432c1.93-4.2,4.54-6.24,9.64-5.44a20.76,20.76,0,0,0,10.43-1.25c7.82-2.83,15.65-2.27,23.47.34s16.33,3.63,22.11,10.32c6.46-.23,11.68,3.4,17.12,6,16.55,7.82,33.79,15,44.33,31.41,1.59,2.49,2.83,5.22,4.42,7.71a165,165,0,0,1,18.94,40.82c.91,2.83,1.81,5.67,3.74,7.94,7.82,8.84,11.11,20.07,16.21,30.39a7.14,7.14,0,0,1,1.13,3.29c.79,15.53,9.86,27.55,17,40.37a331.6,331.6,0,0,0,24.6,37.76c4.65,6.12,7.71,13.27,12.13,19.5,10.43,14.63,22,28.35,35.94,39.46,2.15-1,2.27-2.38,2.15-4-2.61-30.61-5.56-61.34-7.71-92.07-2.38-32.2-4-64.4-6-96.61-.68-9.75-1.25-19.5-2.61-29.14a89.63,89.63,0,0,1,7.26-49.32c5.44-12.47,15.42-20.64,28.35-24.83,3.17-1,7.26-.23,10.43.57,9,2.15,18.94.11,27,6.24,4.65,3.51,12.36,2.83,14.63,10,8.62.68,11.23,10,18.48,12.7,2,.79,5.67.79,5.1,3.86-.68,3.51-1.13,7.71-5.44,9.41-3.29,1.25-6.35,2.95-9.75,4-7.94,2.49-13.95,7.48-19.62,13.27-3.29,3.29-3.17,7.48-3.74,11.57-.79,5.22,1.7,11.57-4.76,15.08-.45.23-.68,1.7-.45,2.49,2.27,9.64.23,19.39,1.59,29.14,1.25,9.07,2.95,18.6-.34,27.67-.79,2.38-.34,4.65-.23,7,.68,10.89,2.61,21.66,1.13,32.54-.45,3.74,1.36,6.92,2.27,10.32a95.35,95.35,0,0,1,2.72,27.1c-.34,13.83,1.81,27.67,2.15,41.39.11,5,0,10,1,15,2.95,15,1.81,30,2.61,45.13.11,2.38.11,4.76.34,7,.45,3.63,1.36,6.92-4.65,4.31-2.72-1.25-4.54,1.81-2.15,5.1,4.54,6.24,4.76,13.83,7.14,20.75a9.05,9.05,0,0,1,.34,1.7c.79,3.17,2,8.62,0,9-4.08.57-7.37,4.42-12.13,2.72-3.63-1.25-7.48-1.59-11.23-2.38-2-.45-4.08-.68-6,.57-6.8,4.42-13.27,2.27-19.39-1.47-12.59-7.37-22.56-17.8-33.11-27.67-10.77-10.09-21.09-20.64-31.52-31-14.17-13.83-28.12-27.89-40.93-42.86-5.33-6.24-10.66-12.47-14.17-20.07a28.65,28.65,0,0,0-6.69-9.3c-11.34-10.32-19-23.24-27.33-35.83-10-15.42-19.5-31.07-28.23-47.17-7.14-13.27-13.83-26.76-20.64-40.25-3.06-3.74-2.15-10.09-8.5-13,1.13,7.14-1.25,12.47-3.86,17.8-2.38,4.65-2.83,9.41-2.95,14.51-.11,11.45-.11,22.9-1.25,34.24-1.25,11.57-3.06,23.24.23,34.81a5.9,5.9,0,0,1-.79,4.2C3012.68,617.25,3013.25,620.09,3015.17,622.92ZM2861.42,492.3c-3.29,2.83-4.31,5.78-5.33,8.39-8.39,21.77-16.21,43.65-22.11,66.33-7.82,30.39-14.06,60.89-14.74,92.41-.34,17,.34,33.56,8.5,49.1,3.06,5.78,2.83,6.46,9.18,4.2,23.7-8.5,41.16-23.92,50.8-47.4,6-14.63,8.28-30,8.28-45.92,0-20.52-3.17-40.48-7.37-60.55-3.4-16-7.71-31.52-14.06-46.49A66.77,66.77,0,0,0,2861.42,492.3Zm408,188.11c3.06-9.3,2.49-16-1.81-21.66C3268.71,666.69,3266.78,673.61,3269.39,680.41Z"/><path d="M784.07,658.53c.23,13.95-3.06,31.41-1.7,49.21.57,8.5-2.72,16.55-2.72,25.06,0,15.65,0,31.29-.23,46.94-.23,14.74-.79,29.48-.68,44.33.11,19.5.68,39,1,58.39,0,1.81-.11,3.51-.23,5.33-.23,4.08-1.36,6.58-6.46,5.9a13.24,13.24,0,0,0-11.45,3.63,6.9,6.9,0,0,1-4.76,2.15c-9.75.45-17.92,4.54-25.51,10.43-5.1,4.08-23.13,4.31-29,.68a92.85,92.85,0,0,1-9.41-6.58c-2.38-1.81-4.65-4.2-4.2-7.48,1.81-10.66-.68-21.2-.68-31.86,0-13.27-.11-26.53-1.13-39.8-.79-10.2.79-20.52.57-31-.45-15.87-.34-31.86-.23-47.74.23-21.54,1-43.09,1.13-64.63.23-26.08,4.76-51.7,6.92-77.67,1.47-16.78,3.51-33.45,5.56-50.12,1-7.94,4-13.61,12.81-17.23,10.89-4.31,21.43-3.06,32.2-2.72,5.78.11,11.68,1.59,17.35,2.95,4.88,1.13,9.52,2.83,13.49,6.46a13.2,13.2,0,0,0,7.71,3.51c5.67.45,7.14,2.95,6.58,9.18-1,12.36-1.36,24.72-2,37.08-.79,12.93-2.38,25.85-3.74,38.78C784.52,639.37,784.64,647.08,784.07,658.53Z"/><path d="M1102.12,584c-3.4-5.33-3.06-7.37,1.36-10C1101.55,577.23,1101.89,580.63,1102.12,584Z"/><path d="M1751.71,580.52c-3.29-1.36-4.2-4.2-4.76-7.26C1750.92,574.17,1750.92,577.57,1751.71,580.52Z"/><path d="M3015.17,622.92c-1.93-2.83-2.49-5.67.11-8.39C3017.1,617.37,3016.76,620.2,3015.17,622.92Z"/><path d="M1824.73,632c.45,1.81.57,3.63-.79,5.1C1822.92,635.17,1822.69,633.36,1824.73,632Z"/><path d="M2309.12,582.33c-.11.23-.11.45-.23.57a.68.68,0,0,1-.45.11c.23-.23.57-.34.68-.68Z"/><path d="M3269.39,680.41c-2.72-6.8-.68-13.83-1.81-21.66C3272,664.42,3272.45,671.11,3269.39,680.41Z"/></svg>