<svg xmlns="http://www.w3.org/2000/svg" viewBox="0 0 800 700"><path d="M720.29,328.8c-31.42-51.86-61.63-105.26-105.49-147.89C574,141.24,522.68,113.26,465,110.51c-32.87-1.56-66,2.84-98.58,6.9s-65.12,9.8-96.08,21.12c-29.23,10.69-56.79,25.5-83,42.23-12.75,8.14-25.19,16.76-37.43,25.63q-9.44,6.84-18.73,13.86c-2.29,1.73-5.79,5.69-8.54,6.49-1.75.52-6.46-.85-8.41-.84-27,.09-45.45,27.17-37,52.51C82,292.43,92.5,302.27,91,318c-1.62,16.62-4,32.51-1.64,49.23,8.74,62.67,50.3,111.1,97.69,150,46.85,38.47,100.31,73.81,160.73,85.65,32.47,6.37,64.53,4.13,96.71-2.74,33.76-7.2,67.36-15.3,101-22.91,32.25-7.3,65.64-18.4,98.85-19.56,14.61-.51,28.81.69,43.06-3.39a84.5,84.5,0,0,0,34.67-19.91c21.28-20.14,31.58-53,35.83-81.21,4.73-31.34-1.06-59.1-15.7-87C735.5,353.38,727.78,341.15,720.29,328.8Z" fill="#e9dd79"/><path d="M480.52,132.16c-.47.93-17.41-2.32-19.15-2.46-7.53-.61-15.18-.78-22.74-.87a298.65,298.65,0,0,0-42.36,2.62c-31.09,4.05-59.94,13-89.25,23.57-28.17,10.18-55.21,23.63-82.44,36.23-14.82,6.85-29.42,13.94-43.47,22.27-12.82,7.61-25.27,16.18-38.31,23.29-5.54,3-11.27,6.31-17.2,8.5-8.06,3-15.21,3.82-21.42,10.39-7.62,8.06-16.48,22-15.8,33.54.82,13.9,6,29.72,10.56,42.91,3.6,10.52,9.9,20.35,14,30.55,10.9,27.34,21.12,56.48,39,80,8.39,11,17.36,21.44,24.93,32.94,5.15,7.81,11.18,16.64,18.78,22,4.28,3,7.27,7.42,11.31,10.88,5,4.29,9.34,9.34,14.33,13.56,10.43,8.83,23.38,15.23,35.26,21.92,5.08,2.86,9.68,6.37,14.77,8.85,6.26,3,12.66,5.89,18.83,9.16,11.89,6.31,23.09,13.56,35.74,18s24.83,9.53,38.2,11.88a371.88,371.88,0,0,0,39.25,4.25c7.67.53,15.62.1,23.33.39s15.41.39,23.19.07c13.07-.54,24.94-1.87,37.36-6.22,26.63-9.31,52.72-20.29,79.14-29.91,13.28-4.84,28.63-9.17,42.67-10.74,12.2-1.36,24.46-1.43,36.59-3.48,14.33-2.43,28.41-3.46,42.58-6.92C701.9,536,714.62,533,723,521c17.49-25.17,26.8-55.91,16.54-85.64s-38.84-48.4-53.47-75.52c-7.41-13.74-11-29.62-16.22-44.27-5.46-15.25-9.8-30.85-15.22-46.12C649.49,255,642.7,239,633.06,227a374.72,374.72,0,0,0-32.87-35.77c-10.74-10.24-20.5-19.82-33.89-26.58-13.59-6.86-27.66-12.59-41.5-18.87-14.12-6.41-29.43-9.35-44.28-13.65m-311.6,80.73c3.31-4.59,10.4-7.5,15.5-10.29,6.81-3.72,13-8,20.15-11.23,6.79-3.12,14.05-5.12,20.79-8.35s13.47-7.69,20.48-10.43c5.61-2.18,11.39-4.52,16.9-6.93,7.44-3.26,14.24-8,21.67-11.14,13.82-5.86,28.47-10.22,42.47-15.43,25.8-9.59,52.49-13.42,79.33-17.69,6.32-1,12.69.13,19-.94,8.29-1.42,17.08-.15,25.63.12,16.89.53,32.06,4,48.54,7.41,7.06,1.44,12.66,4.73,19.43,6.64a129.05,129.05,0,0,1,21.43,7.81c13.17,6.26,26.24,12.29,39,19.51s22.45,18.74,32.47,29.24,21.15,20.12,29.23,32.18c15.08,22.53,25.19,47.81,32.24,74a354.16,354.16,0,0,0,13.42,39.65c4.85,12.13,8.79,24.22,17.44,34.27,17.48,20.32,37,39,45.76,65.05,10.26,30.47-1.22,67-19.88,92.11-9.81,13.2-24.49,18.26-40.23,21.19-16.81,3.13-33.56,5.4-50.59,7.05-17.31,1.67-34.29,3.25-51.24,7.33-16.29,3.92-32.55,11.36-48.09,17.61-14.28,5.75-28.77,10.88-43.18,16.39-14,5.36-29.07,7.3-44,8-17.91.82-35.8-1-53.69-1.64A202.27,202.27,0,0,1,353.19,598c-15.7-4.23-30.75-10.55-45.63-17-11.92-5.15-23.78-12.74-35.57-18.66-6.27-3.14-11.76-7.57-17.78-11.13-6.21-3.66-12.74-6.79-18.87-10.71-6-3.81-12.33-7-17.8-11.59s-10.25-10.22-15.46-15c-9.89-9.1-20.45-18.31-28.62-29.2-4.13-5.49-8.29-11.12-12.76-16.36-4.23-4.95-7-10.56-11.26-15.52C140.5,442.54,131.6,428.92,126.6,416c-2.68-6.94-6.6-13.3-9.17-20.34-2.46-6.75-3.93-13.87-7.12-20.27C103.64,362.05,96.8,348.89,91.18,335a123.44,123.44,0,0,1-6.73-22.66c-1.51-7.9-4.1-15.36-4.47-23.6-.57-13,7.85-28.12,16.37-37.84,3.74-4.25,9.67-10.21,15.26-12,3.24-1.06,5.54.82,8.74.75,4-.08,8.38-3,11.8-4.89,6.61-3.76,12.47-8.48,18.8-12.61,3.9-2.54,13.4-9.75,18-9.19" fill="#231f20"/><path d="M132.6,284.4c-5.81,2.11-9.16,4.83-14.54,1.3.11,1.9,1.42,5.81,0,7.24-2.43,2.49-6.84-.2-9.08-1.29-5.66-2.74-11-2.82-12.85-9.34-1-3.57-1.79-5.47,2-7.44,2.46-1.27,7.44.94,9.09-1,2.84-3.4-6.86-19.57,2.75-17.95,4.19.7,4.28,4.48,9.2,3.91,1-.12,2-1.07,3.11-1.12,1.68-.07,2.43.82,4.13.86,3.32.06,7.07-2.42,10.3-1.74,4.13.86,1,1.72,1.9,4s4.75-.15,1.41,3.66c-2.11,2.39-6.86,3.2-9.37,5.43-3.82,3.39-1.61,2.44,0,6.68.4,1.09.14,2.24.4,3.19.41,1.5,2.13,1.25,1.54,3.6" fill="#231f20"/></svg>
