<?xml version="1.0" encoding="utf-8"?>
<!-- Generator: Adobe Illustrator 21.1.0, SVG Export Plug-In . SVG Version: 6.00 Build 0)  -->
<svg version="1.1" id="Layer_1" xmlns="http://www.w3.org/2000/svg" xmlns:xlink="http://www.w3.org/1999/xlink" x="0px" y="0px"
	 viewBox="0 0 4000 4086" style="enable-background:new 0 0 4000 4086;" xml:space="preserve">
<style type="text/css">
	.st0{fill:#9FDD26;}
	.st1{fill:#FFFDF2;}
	.st2{fill:#231F20;}
	.st3{fill:#FFFFFF;}
</style>
<rect class="st0" width="4000" height="4086"/>
<path class="st1" d="M907.8,2750.1c15.2-99,71.6-186.4,162.6-220.4c12.8-14.6,27.9-27.1,44.7-36.8c38.6-22.4,75.8,18.6,59.3,56.5
	c-43.7,100.1-114.3,184.1-203.3,246.9C938.4,2819.3,902.7,2783.5,907.8,2750.1z M1858.5,2037.5c89.9,61.4,193.4,98.3,302.7,104.5
	c41.3,2.3,66.8-46.5,32.4-74.7c-15-12.3-31.9-22.1-50.1-29c-63.6-73.1-165.3-95.6-263.6-75.7
	C1846.7,1969.3,1825.4,2014.9,1858.5,2037.5L1858.5,2037.5z M1056.5,2334.6c89.9,61.4,193.4,98.3,302.7,104.5
	c41.3,2.4,66.9-46.4,32.4-74.7c-15-12.3-31.9-22.1-50.1-29c-63.6-73.1-165.3-95.6-263.6-75.7
	C1044.7,2266.4,1023.4,2312,1056.5,2334.6z M1763.6,3093.7c-18.3-18.1-38.7-40.5-64.8-46.4c-25-5.7-52.5,5.3-61.7,30.9
	c-9.5,26.6,8.3,53.7,19.2,77c1.1,2.3,2.3,4.4,3.7,6.5c21.3,40.3,53.4,85.5,94.9,100.3c24.9,8.9,53.1,1.2,68.4-20.5
	c18.1-25.5,10.7-56.3-4.8-80.9C1802.8,3136.3,1784.4,3113.8,1763.6,3093.7L1763.6,3093.7z M1400.7,2563
	c9.5,24.7,33.5,41.2,59.8,38.7c30.9-2.9,49.3-28.7,57.6-56.6c8.3-27.7,12.8-56.7,14.7-85.5c1.5-25.7,5.1-55.9-7.4-79.6
	c-12-22.8-38.1-36.5-63.2-26.7c-26.1,10.1-34.9,41.4-45.3,64.9c-1,2.3-1.9,4.7-2.5,7.1C1398,2467.8,1384.8,2521.8,1400.7,2563z
	 M3198.3,3094.8c-16.5,20.8-45,27-69.4,16.8c-13.9-5.8-26.5-15.1-37.9-26.5c-6.3,4.2-13.8,6.4-21.3,6.2
	c-24.8-0.8-94.8,1.2-154.5-8.7c13.8,13.1,27,26.9,39.7,41.3c26.4,30.1-5.5,69.3-39.3,67.7c-100.1-4.7-193-51.6-236.4-138.4
	c-15.9-11.2-29.8-24.9-41.3-40.6c-1.1-1.4-2-2.9-2.8-4.3c-17.7-0.1-43.8-0.1-72.3-1.6c10.8,20,3,48.3-22,60
	c-67.4,31.3-140.2,49.5-214.4,53.7c-0.6,13.3-6.9,26.2-19.3,33.1c-44.3,24.6-245.6,156-259,41.9c-0.1-1-0.2-2-0.3-2.9
	c-10,20.3-26.5,36.5-50.6,38.7c-26.3,2.5-50.3-14-59.8-38.7c-8.2-21.2-8.7-45.9-4.9-70.6c-83.8-4.9-183.9-23.1-151.5-93.9
	c1.9-4.1,4.3-8,7.1-11.6c-8.8,2.8-17.6,5.4-26.6,7.8c-18.5,5-33-2.9-41.4-15.6c-66.3,38.8-209.4,119.1-231.7,38.9
	c-86.7-1.9-226.9-13.3-189.3-95.3c5.1-11.2,13.5-20.2,23.8-27.2c0-13.6,5.7-27.6,16.6-36.6c44-36.5,95.8-61.4,149.1-69.6
	c-86.8-3-209.5-17.6-174.1-94.9c13.9-30.4,51.2-43.9,85.3-47.2c1.2-11.9,6.8-23.7,16.3-31.6c60.5-50.1,135.4-78.3,209.1-71.5
	c-8.7-14.8-16.2-30.2-22.7-46.1c-1.2-2.2-2.2-4.5-3.1-6.9c-8.5-24.2-23.6-52.9-11.6-78.5c11.6-24.6,40-32.9,64.3-24.8
	c25.3,8.4,43.4,32.7,60,52.5c18.5,22.1,35.1,46.2,48.1,72c9.8,19.3,14.7,41.7,8,61.7c0.9,1.1,1.7,2.3,2.5,3.5
	c5.7-35.2,40.8-66,70.4-81.3c41-21.3,86.5-23.6,131.7-21.9c-5.8-5.8-10.4-12.6-13.6-20.1c-15.8-37.4-7.5-86.4,5.6-127.5
	c-36.9-0.8-73.6-4.9-109.8-12.2c7.2,10.4,13.5,21.4,18.8,32.9c15.5,11.7,29.1,25.7,40.1,41.7c25.4,36.6-12.6,76.9-51.6,63.4
	c-103.3-35.8-192.5-99.7-262-183.5c-10.7-12.9-11.1-27.2-5.4-39.2c-93.2,24.9-190.6,26.1-285.5,5.5c-39.2-8.6-36.8-58.4-8.6-76.9
	c83.5-54.7,186.4-71.7,273.1-28c19.5-0.4,38.9,2.3,57.5,8.1c32.2,10,37.1,43.4,20.8,64.9c61.6,6.5,119.5,29.2,163.4,67.3
	c1.4-13.7,8.7-27.3,20.8-35.2c17.8-11.7,36.6-21.7,56.3-29.9c-105.6-7.8-205.5-44.3-292.6-103.8c-33.1-22.6-11.8-68.2,21.4-74.9
	c98.3-19.9,200,2.6,263.6,75.7c18.2,6.9,35.1,16.7,50.1,29c21,17.2,19.7,42.1,6.2,58.4c56.7-13.1,115.4-9,168.1,17.6
	c19.5-0.4,38.9,2.3,57.5,8.1c20,6.2,29.5,21.5,29.9,37.4c47.1-9.4,94.9-9.1,138.9,1.9c-3.8-17.5,3.9-38.5,20.1-49.1
	c16.2-10.6,33.2-19.9,51-27.6c-60.1,4.6-120.6,0.3-179.5-12.6c-39.2-8.6-36.8-58.4-8.6-76.9c83.5-54.7,186.4-71.7,273.1-28
	c19.5-0.4,38.9,2.3,57.5,8.1c42.6,13.3,37.5,67.7-1.7,80.8c-3.9,1.3-7.8,2.6-11.6,3.8c32.3,1.6,64,9.9,92.9,24.4
	c19.5-0.4,38.9,2.3,57.5,8.1c42.6,13.2,37.5,67.6-1.7,80.8l-3.6,1.2c68.8,11.4,135.1,35,196.7,69.2c17.1,9.6,21.8,25.8,18.3,41
	c7.2,0.5,14.3,1.5,21.3,2.8c43.9,8.5,45.1,63.1,7.7,80.5c-43.8,20.4-90,35.2-137.5,44.2c29.2,10,56.3,26.1,82.3,43.2
	c10.7,5,20.7,11.4,29.7,19.1c27.7,23.3,5.6,72.4-29.3,71.5c-16.9-0.5-54.7,0.2-96-2.4c80,17.8,149.2,64.4,183.3,137.8
	c15.5,11.7,29.1,25.7,40.1,41.7c25.3,36.7-12.7,76.9-51.7,63.4c-31.3-10.9-61.6-24.4-90.6-40.5c8.7,5.2,17.2,10.6,25.7,16.2
	c10.7,5,20.7,11.4,29.7,19.1c13.4,11.2,15.1,28.6,9.4,43.3c5.7-0.3,11.5-0.3,17.2,0.1c31.6,1.8,60.6,12.4,87.8,26.7
	c-6.8-17.1-11.5-35.2-4.3-52.4c10.5-25,38.5-34.6,63.2-27.6c25.7,7.3,44.9,30.8,62.2,49.7c19.5,21.3,37.2,44.6,51.3,69.8
	C3212,3039.1,3217.7,3070.3,3198.3,3094.8L3198.3,3094.8z M2749.4,2831.8c33.7,1.9,64.2,13.8,93,29.5
	c-38.1-22.5-73.5-49.1-105.6-79.4c1.5,16.1-0.2,33-1.1,48.4l-0.1,1.3C2740.4,2831.5,2745,2831.6,2749.4,2831.8z M2418.6,2321.4
	c15.1,10.6,28.9,22.9,41,36.9c18.2,6.9,35.1,16.7,50.1,29c34.4,28.2,8.9,77.1-32.4,74.7c-41.5-2.4-82.7-9.2-122.8-20.4
	c4.7,2.9,9.3,5.9,13.9,8.9c10.7,5,20.7,11.4,29.7,19.1c27.7,23.3,5.6,72.4-29.3,71.5c-28.4-0.9-116.3,1.9-179.9-13.8
	c-8.7,12.5-17.8,24.5-27.4,36.2c30.7-13.9,72.9-6.9,101.6,5.1c45.4,18.9,77.5,55.7,106.4,94c8.4,8.3,15.6,17.7,21.5,27.9
	c0.6,1.1,1.2,2.3,1.8,3.4c52.8,41.5,89.6,98.7,97.4,166c1.1,1.7,2.3,3.3,3.3,5c7.8-0.6,15.6-0.7,23.4-0.3
	c28.4,1.6,54.7,10.3,79.5,22.5c0.8-30.8,10.1-63.4,20.8-91.2c0.6-2.4,1.5-4.8,2.5-7.1c10.4-23.5,19.2-54.8,45.3-64.9
	c4.9-1.9,10.1-3,15.4-3.2c-16.2-26.3,6.2-56,33.6-61c-61.8-10.5-111.8-34-87.5-87c5.3-11.5,13.9-20.6,24.5-27.6
	c-14.1-0.5-28.3-1.5-42.4-3c-6.6-0.6-13-2.8-18.5-6.6c2.1,25-10.2,50.6-19.7,73c-11.2,26.6-25,52.4-41.9,75.8
	c-17.1,23.6-42.9,41.8-73.2,34.3c-25.7-6.4-43.2-29.8-44.1-56.3c-1.5-44.2,28.6-90.7,58.1-125.4c1.4-2.1,3-4.1,4.7-5.9
	c17.6-18.7,36.2-45.3,64.3-46.2c13.8-0.4,27,5.2,36.4,15.3c0.8-12.6,6.4-25.2,16.5-33.6c17.2-14.3,35.9-26.9,55.6-37.6
	c-19.4-10-37.2-22.7-53-37.8c-18.7-5.2-36.5-13.5-52.6-24.4c-16-10.8-21.1-26.5-18.4-40.9
	C2488.1,2327.4,2453.2,2325.9,2418.6,2321.4L2418.6,2321.4z M2088.3,2345.9c0.1,10.1-0.4,20.3-0.6,29.8c-0.9,28.9-4.5,58-11.8,86
	c-2.2,8.5-5.4,16.7-9.5,24.4c10.5-3.7,21.3-6.6,32.2-8.7c6.6-5.3,13.5-10.1,20.8-14.5c1.1-6.1,3-12.1,5.6-17.7
	c17.6-38.5,73-50,111.6-47.8c2,0.1,4,0.3,5.9,0.4c-23.5-12-46.1-25.5-67.9-40.4c-11.5-7.9-16.4-18.5-16.6-29.3
	C2135.2,2335.5,2111.9,2341.5,2088.3,2345.9L2088.3,2345.9z M1546.8,2722c3.7,2.4,7.4,4.8,11.1,7.2c10.7,5,20.7,11.4,29.7,19.1
	c25.5,21.4,8.8,64.7-21.2,70.8c14.1,2.4,27.9,6.1,41.3,11.1c19.3-2.6,38.9-2,58,1.7c7,1.2,13.5,4.1,19.2,8.3
	c-4.9-42,36.6-80.2,70.8-97.9c43.7-22.6,92.6-23.8,140.7-21.5c7.4-0.8,14.8-0.9,22.2-0.3c-15.5-11.1-23.7-33.9-17.3-53.3
	c2.4-7.1,5-14.2,7.8-21.1c-57.8,25.2-116.9,38.3-134.3-4.6c-3.9,12.3-12.9,22.3-24.7,27.6C1686.1,2698.8,1617.2,2716.7,1546.8,2722z
	 M1779.7,2879c-32.9,9.5-62.4,10.9-79.7-5c-0.9,15.2-9.9,30.5-26.6,38.3c-2.3,1.1-4.7,2.1-7,3.2c10.4,0,20.9,0.3,31.3,0.8
	c11.8-1.1,23.7-0.7,35.4,1.3c3.3,0.5,6.5,1.6,9.6,3C1753.7,2905.7,1766.1,2891.8,1779.7,2879L1779.7,2879z M2415.8,2971
	c-14.9-12.5-21.1-29.3-13.1-51.8c-59.2-55.7-105.6-123.2-138-198.3c-68.1-27.3-151.2-69.7-138-118.6
	c-49,49.7-106.7,90.3-170.5,120.8c-3.6,1.8-7.5,3-11.5,3.6c24.2,14.9,25.6,56.9-0.7,71.5c-5,2.8-12,6.9-20.6,11.9
	c7.8-0.8,15.5-1.3,23.3-1.4c17.1-9.3,35.6-15.7,54.7-19.1c44-7.7,65,43.3,36.5,73c-46.2,48-100.2,87.6-159.8,117.2
	c5-0.1,9.9-0.1,14.5,0.2c29.3,1.7,56.2,10.9,81.7,23.6c6.2-9.2,13.9-16.9,24.6-21c25.1-9.8,51.2,3.9,63.2,26.7
	c12.4,23.6,8.8,53.8,7.4,79.6c-1.2,19.4-3.8,38.6-7.7,57.6c14.2-21.2,36.9-38.8,57.1-49.2c22.7-11.8,46.8-17.7,71.4-20.4
	c0.6-12.9,6.3-25.9,16.6-34.5c14.9-12.4,30.8-23.5,47.6-33.2c-82.9-0.9-248.9-7.3-208.4-95.6c13.4-29.3,48.8-43,81.9-46.9
	c-6.7-11.2-12.7-22.7-18.1-34.6c-1.3-2.1-2.4-4.4-3.4-6.7c-9.6-23.8-26-51.8-15.1-77.9c10.5-25,38.5-34.6,63.2-27.6
	c25.7,7.2,44.9,30.7,62.2,49.7c19.5,21.3,37.2,44.6,51.3,69.8c12.3,21.8,18.2,48,7.3,70.4c4.7,3,9.4,6,14.1,9.1
	c10.7,5,20.7,11.4,29.7,19.1c12.4,10.4,14.9,26.1,10.6,40.1C2357.8,2971,2386.9,2968.5,2415.8,2971L2415.8,2971z M2821,3009.4
	c1.2-4.9,2.8-9.6,4.9-14.2c3.6-7.6,8.6-14.5,14.9-20.1c-27.1-0.4-61.7-1.4-95-5.5C2771.8,2981,2796.9,2994.3,2821,3009.4
	L2821,3009.4z M1449.5,3160c-14.5-15.9-30.3-34.9-50.1-44.9c20.4-22.9,13.5-62.1-23.1-69.1c-19.1-3.7-38.7-4.3-58-1.7
	c-91.2-33.9-191.4-5.6-268.2,58.1c-25.9,21.5-22.6,71.3,17.4,75.5c85.9,8.9,172,0.4,253.2-26.4c-2.1,22,10.5,44.6,18.5,64.3
	c1,2.3,2.1,4.6,3.4,6.7c19.1,41.3,48.8,88.2,89.4,105.2c24.4,10.2,52.9,4,69.4-16.8c19.4-24.5,13.7-55.7-0.6-81.1
	C1486.7,3204.6,1469,3181.3,1449.5,3160z M1269.5,2473.7c-25.6,11.3-33,43-42.4,66.9c-0.9,2.4-1.6,4.8-2.2,7.2
	c-14.5,43.2-25.3,97.7-7.7,138.2c10.6,24.3,35.2,39.6,61.3,36c30.7-4.3,47.9-30.8,55-59.1c7-28,10.3-57.2,10.9-86.1
	c0.6-25.8,2.9-56.1-10.6-79.2C1320.8,2475.4,1294.2,2462.8,1269.5,2473.7z M1249,2986.1c34.9,0.9,57-48.2,29.3-71.5
	c-4-3.3-8.1-6.4-12.4-9.3c10.2-4,19-10.9,25.3-19.9c18.1-25.5,10.7-56.3-4.8-80.9c-15.7-24.3-34.1-46.8-54.9-66.9
	c-18.4-18.1-38.8-40.5-64.8-46.4c-25-5.7-52.5,5.3-61.7,30.9c-9.5,26.6,8.3,53.7,19.1,77c1.1,2.3,2.3,4.5,3.8,6.5
	c7.8,15,16.7,29.3,26.6,43c-12.3-3.4-24.9-5.6-37.7-6.3c-18.1-1-39.9,0.9-59.8,7.3c-9.2-9.3-21.9-14.3-35-13.9
	c-28.1,0.9-46.7,27.5-64.3,46.2c-1.7,1.8-3.3,3.8-4.7,5.9c-29.5,34.7-59.6,81.2-58.1,125.4c0.9,26.5,18.4,50,44.1,56.3
	c30.3,7.5,56.1-10.7,73.2-34.3c15.2-21.3,28.1-44.2,38.6-68.2C1114.5,2988.6,1217.8,2985.1,1249,2986.1z"/>
<path class="st2" d="M3202.5,3011c-23-41.1-63.2-100.6-108.8-119.3c-49.1-20.1-93,21.6-78,71.6c-27.5-13-57.3-21.6-88-21.6
	c2.8-12.6,0.3-26.5-8-36.6c31.1,12.4,73,21.3,88.4-18.6c13.4-34.7-18.7-58.6-39.4-80.6c-21.7-23-34.3-53.5-58.5-76.2
	c-26.4-24.8-58.2-43.6-92-56.2c37.9,0.7,97.7,8,99.4-47.2c0.7-22.8-15.8-35.9-33.4-46.8c-25-15.4-50.4-31.5-77.4-43.1
	c40-8.9,103.2-21.1,134.3-49.8c30.2-27.8,15.2-72.5-22.5-81.8c-8.5-2.1-12.1-0.6-16-6c-3.4-4.8-2.1-16.5-6.3-22.9
	c-10.7-16.5-35.4-25.1-52.6-33.2c-46-21.8-94.6-37.9-144.6-47.8c35.3-23.5,26.2-71.1-11-85c-21.6-8-45.1-5.7-66.3-12.3
	c-21-6.6-40.3-14.8-62.4-18.1c32.9-19.1,33.4-66.5-1-83.8c-17.1-8.6-36.9-8.2-55.2-11.1c-18.8-2.9-35.7-11.8-54.5-16.8
	c-76.2-20.1-175.6-2.4-237.2,48.8c14.3-33.8-15.6-57.8-41.9-72.4c-10.2-5.7-19.4-9.2-28.2-16.5c-6-5-11.1-11.2-17.1-16.3
	c-12-10.3-25-19.4-38.8-27.1c-30.9-17.4-65.4-27.8-100.6-32c-34.9-4.2-84.5-6.8-117,8.6c-31,14.7-42.8,54.7-15.4,78.7
	c30.1,26.3,73,45.2,109.4,60.8c38.2,16.3,78,28.7,118.8,36.8c33.1,6.6,87.2,22.5,116.5-1.3c-39.3,87.7,137.7,80.1,183.1,78.6
	c-25.5,13.6-52.1,29.9-50.7,62.7c-35.1-7.8-71.5-8.7-107.1-4.4c-8.5,1-16.2,4.1-21.4-0.4c-3.1-2.6-4.5-12-7.6-16
	c-9.5-12.3-24.1-17-38.7-20.3c-15.8-3.6-33.1-2.2-48.1-6.6c-16.6-4.9-31.7-12.9-48.8-16.8c-34.4-7.8-70.4-7.7-104.9-1.3
	c13.8-31-10.2-54.1-34.4-69.1c-15-9.2-28.3-14-40.9-26.4c-11.2-11.1-23.6-21-36.8-29.6c-58-37.8-129.7-48.4-197.5-39.2
	c-30.9,4.2-67.1,18.1-64.9,56.2c2,33.6,47.1,51.4,72.5,65.2c68.3,37.2,143.5,61.4,220.8,70c-23.3,11.5-51.8,24.3-59.6,51.4
	c-42.9-34.6-96.3-54.6-150.6-61.6c15.4-30.3-3.8-57.8-33-67c-17.5-5.5-36-2.9-53.2-7c-16.4-4-31.9-13.6-48.7-17.8
	c-67-16.4-138-2.7-198.5,29c-27.2,14.2-57.1,32-53.3,67.3c4.1,37.8,44.5,40.2,74.6,44.8c78.8,11.9,159.9,8.6,237.2-10.6
	c-8.1,40.4,57.2,87.7,83.8,110.6c38.9,33.4,81.9,61.6,128,83.9c35.3,17,99.2,52.2,124.4,1.5c11.2-22.4,0.1-43.3-14.5-60.8
	c-7.2-8.6-15.9-15.4-23.5-23.5c-8-8.5-12.2-16.9-18.4-27c30.1,5.4,60.5,8.6,91,9.6c-12.3,41.5-23.2,98.2,3.4,136.7
	c-68.4-1.3-146.7,15.1-184.5,78.8c-3.3-37.7-30.8-73.9-53.6-102.6c-20.9-26.3-45.2-60.3-81.2-64.8c-33.1-4.1-62.8,18.7-63.6,52.8
	c-0.7,34.3,21.3,76,37.4,105.2c-39.2-1.9-78.7,5.7-115,20.4c36.1-37.1,38.5-108.1,39.2-156.7c0.4-26.6-3.4-54.9-25.1-72.9
	c-20.5-17.1-49.8-17.8-70.1-0.1c-52.6,45.6-101.5,260.3,16.4,249.2c-16.5,9.5-34.4,20.4-48.2,33.7c-5.3,5.1-10,10.4-13.2,17
	c-5.9,12.1-2.8,10.1-13.5,15.1c-15.6,7.3-32.5,7.5-47.8,17.2c-14,8.9-24.5,20.8-30.6,36.2c-30.7,78.6,92.5,91.8,141.7,95.6
	c-33.8,10.2-65.5,26.6-94.1,47.2c-13.6,9.8-27.8,19.7-34.1,35.9c-3.7,9.5-4.3,14.1-10.2,22.3c-4.7,6.5-10.8,11.2-14.8,18.5
	c1.5-17-6.8-29.9-19.7-39.8c88.4-51.7-31.2-176.2-81.6-208.2c-31.9-20.2-80.4-18.5-95,22.3c-13.7,38.4,21.9,89.4,42,119.8
	c-21.3-4.3-43.2-4.6-64.6-0.9c-14.3,2.5-13.2,3.4-25.4-0.5c-9.3-3-15.8-7.8-26.1-8.2c-36.7-1.6-63.7,36.7-84.1,62.4
	c-34.3,43.1-93.3,148.1-11.4,179.6c34.2,13.2,66-7.4,86.2-34.1c12.5-16.5,19.5-41.1,33-55.9c8.5-9.3,4.4-8.3,19.4-4.6
	c8.1,2,16.2,3.6,24.4,4.9c35.7,6,72.1,7.6,108.2,8.2c29.8,0.5,67.6,7.9,86.4-21.7c-6.2,40,34.5,59.4,66.4,68.4
	c-15-1-29.1,1.1-43.5-1.7c-12.3-2.4-24.2-6.7-36.7-8.7c-26.6-4-53.7-3.7-80.2,0.8c-51.4,8.7-118.2,34.5-152.9,75.4
	c-14.4,17-18.5,44.4-4.7,63.1c16.8,22.9,54.6,19.2,79.5,19.8c67.4,1.9,134.7-7.4,199.1-27.5c2.6,63.8,95.4,227.7,178.8,166.7
	c55.3-40.5,7.9-111.2-23.6-149.9c-9.8-12.1-20.4-23.8-31.1-35.1c-6.3-6.6-29.2-19.8-31.6-27.2c-0.9-2.6,7.2-16.5,7.8-20.3
	c1.2-6.9,0.8-13.9-1.1-20.6c-3.6-11.6-11.7-21.3-22.6-26.9c27,4.2,56.7,1.3,83,7c14.9,3.2,8,2.3,16.7,14.2c5.9,8,14.1,13.9,23.5,17
	c41.9,14.6,95.3-11.8,132-29.4c-46.8,40.8,11.4,123.1,39.4,159.1c23.3,30,59.2,63.6,100.6,56.5c68.6-11.8,55.3-86.2,25.5-127.9
	c-28.4-39.9-84.1-113.3-141-100.1c11-5.8,21.9-11.8,32.7-18c4.8-2.8,9.7-5.5,14.5-8.4c2.3,3,5.1,5.6,8.2,7.6
	c19.4,6.8,28.7,8.4,49.2,2.4c-39.3,85.3,98.6,98,150.3,101.3c-4.4,35.7-0.5,79.5,33.1,100.3c29.5,18.3,65.8,8.3,85.5-19.3
	c27.1,100.5,204.3-14.6,251.1-41.8c9.1-5.3,19.2-9.9,25.9-18.3c4-5,4.8-14.6,8.5-18.4c5.7-5.8,10.5-4.7,21.1-5.8
	c31.6-3.2,62.9-8.8,93.6-16.9c41.5-10.9,144.5-31.4,126-94.3c16.3,0.7,48.8-4.4,62.5,3.3c9,5.1,17,20.4,25.1,27.7
	c9.9,8.9,16.7,14.8,23.6,26.4c23.2,39.2,58,70.5,98.2,91.7c39.9,21.1,90.6,36.8,136.2,35.4c21.9-0.7,43-13,50.8-34.3
	c11.1-30.5-16.8-52.9-36.2-72.2c35.5,4.6,71.4,5.5,107.2,5.9c10.6,0.1,21.7,1.1,32.3,0.3c3.6-0.3,17-5.4,19.7-5
	c3.2,0.5,16,13.4,19.5,15.6c24.6,16.1,56,20.4,81,2.1C3223.2,3085.8,3220.4,3042.9,3202.5,3011z M1132.7,2803
	c-20.6-32.2-45-98,12.6-107.4c47.1-7.7,92.9,53.2,117.9,85.4c15.7,20.2,33.2,43.5,33.2,70.2c0,14.9-8.9,41.6-26,45.6
	s-55.2-29-72.4-37.3c-11.4-5.5-30.8-8.2-40.1-15.6C1147,2835.3,1139.1,2815.2,1132.7,2803L1132.7,2803z M1007.8,3032
	c-17,23.5-45.5,42.1-74.8,29.8c-36.8-15.4-36.7-57.9-25.5-90c13.9-40,83.2-158.6,138.5-124c-26.8,10.9-50.2,33.2-52.2,63.6
	c-2,30.9,23.6,48.9,49.6,58.7C1033.6,2991.8,1021.7,3012.6,1007.8,3032z M1282.8,2955.7c-11.2,29.4-40.3,24.9-65.9,24.6
	c-31.5-0.3-63-1.2-94.3-4.6c-38.6-4.2-137.7-17.1-114.2-78.5c24.5-64.1,113.9-50.1,161.7-37.6c24.8,6.4,51.1,24.9,73.5,38.1
	C1263.7,2909.6,1294.2,2925.4,1282.8,2955.7L1282.8,2955.7z M2952.8,2806.5c20.4,19.7,65.2,51.5,40.7,84.5
	c-23.1,31.1-66.4,6.2-93.1-5.9c-36.5-16.5-71.1-36.7-103.4-60.4c-15.4-11.2-36-24.2-48-39.1c-10.5-13-10-30.2-20.3-44.7
	c-4.8-6.8-10.8-12.5-17.7-17c-5.2-3.2-24.4-5.8-27.3-8.6c-10.9-10.7,1.8-32.4,9.9-39.7c16.9-15,35.2-7.8,55.4-5.8
	c20.6,2,38.3,4.5,58,11.3C2869.5,2702.7,2924.6,2745.9,2952.8,2806.5L2952.8,2806.5z M2747.1,2964.3c-12-5.2-24.1-10.1-36.4-14.5
	c14.8-20.3,20.2-46.6,24.6-70.9c1.7-9.4,0.2-29.3,4.9-37.1c3.9-6.5,9.9-4.7,18.8-3.7c35.3,3.9,67.9,20,98,38.1
	c14.9,9,33.8,17.9,46.8,29.3c7.4,6.5,13.7,13.4,13.8,23.9c0.2,18.3-13.9,13.4-28.7,16.8c-20.9,4.7-38.9,20.5-58.2,23.4
	C2805,2973.4,2772.7,2967.4,2747.1,2964.3L2747.1,2964.3z M2828.6,2980.4c-4.7,6.3-8.4,13.2-10.9,20.7c-13.4-8.2-27.2-15.9-41.3-23
	C2793.8,2979.4,2811.2,2980.1,2828.6,2980.4L2828.6,2980.4z M2741.5,2826.1c0.7-10.4,1.4-20.9,1.4-31.3c15.2,13.7,31,26.5,47.5,38.6
	C2774.4,2828.7,2758,2826.3,2741.5,2826.1L2741.5,2826.1z M2672.3,2716.3c-30.7,5.9-43.4,36.1-53.8,62
	c-13.1,32.2-24.4,65.7-26.9,100.6c-25-11.4-51.8-19-79.4-19.7c-16.8-0.4-15.4,2.4-18.5-13.7c-2.3-12.5-5.6-24.8-9.7-36.9
	c-8.2-22.9-19.7-44.4-34.1-63.9c-15.4-20.9-35.7-35.3-52.6-54.2c-28.7-32.1-49.8-69.4-83.9-97.4c-36.8-30.1-88.2-50.5-136.2-40.2
	c2.2-2.9,11-18,14.2-19.3c4.4-1.8,17.8,3.6,22.4,4.4c17.1,2.9,34.3,4.6,51.6,5.9c29,2.1,58,2.3,87.1,2.6
	c23.5,0.2,44.5-1.8,57.3-24.9c15-27.1,1.8-50.7-21.4-66.1c40.3,8.6,124.9,33.2,141.1-24c6.8-24.2-7.5-42.5-26.1-56
	c-10.3-7.4-21.7-12.1-32.5-18.5c-12.6-7.5-21.7-18.4-33.2-27.9c21.4,2.1,43,3,64.5,2.8c17.6-0.1,12.1,0,16.9,14.8
	c2.6,7.5,7,14.2,12.7,19.6c13.8,13.5,33.1,18.8,50,27c19.2,9.3,35,25.1,54,36c-23.9,13.8-57.3,31.9-64.7,60.6
	c-48.3-35.1-93.5,26.9-119.3,60.7c-27.5,36-61.1,92.1-39.4,138.5c22.6,48.3,80.2,44.1,112.3,9.1c33-35.9,69.2-103.6,71.3-153.3
	c12.4,4.8,27.6,4.4,40.6,5.2c-20.7,19.9-29.9,54-10.8,77.9c16,19.9,45,28.4,68.8,33.8C2676.2,2672.7,2664.1,2695.1,2672.3,2716.3
	L2672.3,2716.3z M2322.7,2934.1c-7.2-5.9-14.8-11.1-22.8-15.8c-4.5-1.9-8.7-4.3-12.7-7.1c-6.2-1.8-7.1-5.5-2.5-11.1
	c-1.4-23.7,0.2-40.3-11.9-63c-19.9-37.6-50.9-76.3-83.7-103.3c-29.2-24-77.3-32.5-99.6,5.7c-21.8,37.3,11.4,90.9,29.7,123.3
	c-30.9,5.1-64,19-78.1,48.9c-13.9,29.4-3.9,56.4,22.8,72.6c48.6,29.6,116.6,29.3,171.7,30.5c-14.9,9.7-32.7,20.3-42.4,35.6
	c-3.3,5.1-3.8,14.1-7.1,18.2c-5,6.1-13.7,5.6-22.8,7.7c-34.9,7.7-67.5,24.6-92.3,50.8c6.7-44.2,19.2-115.6-26.1-144
	c-23.2-14.5-43.4-7.4-64.4,5.5c-10.8,6.7-4.5,6.9-16.5,4.5c-5.9-1.1-12.1-5.1-17.8-7.1c-15.2-5.4-31-9-47.1-10.6
	c29.3-15.9,57.1-34.2,83.3-54.8c22.7-17.8,56-40.7,68.9-67.2c11.4-23.4,3-54.1-21.2-65.4c-24.8-11.5-58.5,2.5-80.8,13.6
	c23.5-15.5,25.6-52.3,6.9-72.3c60.4-25.2,117.1-67.4,163.9-112.5c3.1,34.4,40.1,58,66.9,73.6c18.3,10.7,37.6,19.7,57.1,28.1
	c10.7,4.6,13.7,5.9,20.4,15.4c6,8.5,9.5,20.1,14.3,29.4c19.1,36.9,42,71.8,68.2,104c13.1,16.1,31.4,30.4,43,47.2
	c8.3,12,3.5,9.5,3.8,24.2c0.2,9.4,3.2,18.5,8.8,26.1c-22-0.7-44.1,1.4-65.6,6.2C2338.5,2957.3,2333.4,2943.1,2322.7,2934.1
	L2322.7,2934.1z M2136.6,2889.8c15.7,21.6,35.6,42.3,60.6,52.8c15.9,6.6,33.7,6.9,49.7,0.7c7.6-3,14.5-7.4,20.5-13
	c11.5-11.1,3.7-12.6,19.1-6.6s56.5,34.3,34.3,51.5c-12.6,9.7-39.6,14-54.5,21.6c-14.3,7.3-22.2,7.1-38.1,6.7
	c-28.9-0.8-57.9-2.5-86.5-6.9c-41.2-6.3-125.7-27.2-87-87.1c8.6-13.4,22.7-22.2,37.2-28.1c6.3-2.6,17.8-7.2,24.8-7.1
	C2130,2874.4,2128.1,2878.2,2136.6,2889.8L2136.6,2889.8z M2114.6,2829.6c-10.5-22.1-27-50.3-19.4-75.4
	c7.4-24.6,34.1-35.4,57.9-28.8s41.3,27.8,57.2,45.4c25.1,27.8,93.4,101.5,56.8,142.8c-35.4,53.8-102,3.9-124.7-34.5
	C2134.1,2865.3,2123.9,2849.2,2114.6,2829.6L2114.6,2829.6z M2065.6,3057.4c-16.1-24.9-57.9-42.3-83.2-55.5
	c13.8-17.1,37.1-21.5,56-10.2C2061.1,3005.3,2065.9,3033,2065.6,3057.4L2065.6,3057.4z M1893.5,2821.2c-15.6,8.8-30,19.1-45.6,27.7
	c-13.7,7.6-29.5,9.1-42.9,15.7c-7.4,3.7-10.6,6.6-21.2,9c-2.4,0.5-7.5,1.1-12.3,2c-10,1.9-19.5,4.5-29.7,4.9
	c-8.2,0.3-18.6,0.8-26-3.4c-10.3-5.9-7-6.2-11.4-15.6c-6.3-13.4-16-24.8-13.1-39.6c6.6-33.5,38.3-59.8,67-74.8
	c43.6-22.8,100.5-26,148.5-21.5c27.7,2.6,62.6,14.4,48.6,51C1945.4,2802.6,1890.6,2822,1893.5,2821.2L1893.5,2821.2z M1761.9,2889
	c-4.8,5.1-10.5,14.4-16,18.5c-8.8,6.5,0,3-11.9,4.8c-13.3,2-33.7-1.4-47.3-1.8c8.5-6.8,14.5-16.2,17.3-26.7
	C1721.3,2894,1743,2892.6,1761.9,2889z M2053.4,2537.1c-0.8-4.9-2.4-9.6-4.5-14c-5.5-4.7-4.8-8,2.2-10c3-4.9,14.7-19.1,19.1-22.5
	c8.2-6.2,22.2-3.4,30.8-8.1c5.7-3.1,8-7.9,13-11.3c3-2,5.8-3.7,9-5.5c28.7-16,83.7-23.1,77.1,28c-1.8,13.4-14,28.7-20.1,36.9
	c-6.7,9.1-13.4,21-21.9,28.6c-7.3,6.5-16.1,9.7-22.8,17.4c-6.2,7.1-8.4,15.5-13.5,22.9c-6.5,9.4-18.3,17.8-26.8,25.4
	c-18.7,16.6-38.4,31.9-59,46c-26.7,18.3-83.1,65.2-116.2,43.5c-14.5-9.5-16.8-30.5-13.3-45.6c6.2-27.2,39.9-34,62.7-46.5
	C2002.1,2604.5,2061.5,2584,2053.4,2537.1L2053.4,2537.1z M2103.8,2348.3c7.4-4.1,31.2-10.2,39.7-10c14.3,0.4,6.8-1.9,15.9,11.8
	c12.5,18.8,41.2,31.1,60.4,41.8c-16.6,0.6-33,3.6-48.7,9.1c-19.1,6.8-37.3,18.2-47.9,36c-6.1,10.1-6.9,18.6-14.9,26.6
	c-9.1,9.1-19.9,10.2-31.7,13.6c8.8-22.2,12.2-47.2,14.6-70.8c1-10.1,1.6-20.3,2-30.5l0.5-16.8
	C2091,2350.4,2094.3,2346.9,2103.8,2348.3L2103.8,2348.3z M2211.2,2490.3c-1.2-10.1-8.5-19.2-9-30.5c-0.3-8.2-19.9-16.4-25.7-17.9
	c-16.9-4.5-33.4,2.5-48.4,10.1c18.5-47.5,76.5-48.4,117.8-46.3c24.6,1.3,52.4,4.9,73.5,20.2c10.9,7.9,15.2,14.3,28,19.4
	c7.8,3.1,15.1,7.8,22.4,12.2c20.5,12.3,43,25.8,32.8,53.4c-7.4,20-23.8,24.6-42.8,24.8c-53.7,0.4-109.1-0.3-161.8-11.7
	C2204.2,2514.6,2212.6,2502.2,2211.2,2490.3L2211.2,2490.3z M2254.5,2710.9c-28.8-12-143-56.5-123-105.7
	c4.2-10.4,28.2-33.7,37.6-38.6c14.1-7.3,34.8-6,50-4.1c26,3.4,50.7,12.9,72.4,27.6c25.5,17.2,44.4,40.3,64.2,63.4
	c4.6,5.4,10.8,10.7,14.5,16.6c3.4,5.4,3.4,14,6.6,18.6c8.8,12.4,18.2,12.9,11.1,31.6c-11.9,31.3-40.6,25.2-64.8,16.6
	c-12.3-4.4-24.7-8.8-36.9-13.4C2280.2,2721.2,2252.9,2706.8,2254.5,2710.9L2254.5,2710.9z M2400.7,2909.8
	c-52.6-51-95.1-112.2-125.6-178.8c22.1,8.5,49.6,23.2,73.5,25.2c26.5,2.2,52.9-21,52.8-48.1c36.2,31.7,64.4,73,77.1,119.7
	c1.5,5.4,9.5,28,6.3,32.6c-2.4,3.4-28,5.8-33.4,7.7C2430.6,2875.7,2410.4,2889,2400.7,2909.8L2400.7,2909.8z M2571.3,2518
	c5.3,17.6,15.7,18.6,12.1,38.5c-2.5,13.8-8.1,26.9-13.5,39.7c-11.4,27-24,53.6-40.6,77.9c-24,34.9-76.5,63.7-105,14.6
	c-27.3-47.4,17.9-109.6,46.7-144.9c13.1-16.1,27.5-35.7,45.7-46.3c9.5-5.5,19.9-8.2,30.7-6.2
	C2565.5,2494.5,2566.8,2502.9,2571.3,2518z M2867,2582.8c14.6,7,33.7,16.7,38.6,33.4c6.5,22.1-11.2,43.9-32.4,47
	c-50.9,7.5-108.7-4.1-159.1-8.9c-42.5-4.1-114.2-32.2-78.6-86.3c7.9-12.1,18.8-16.8,29.5-22.5c11.2-5.9,18.9-9.7,32.1-12.2
	c21.7-4.2,43.9-4.1,65.6,0.3c-4,0.2-2.4,1.6,4.9,4.1c2.8,5.6,7,7,12.6,4.1c9.4,1.7,15.6,1.7,25.3,6
	C2826.9,2557.5,2847.3,2569.8,2867,2582.8z M2916.5,2415.6c33.1,6.4,39.1,46.2,13.6,66c-29,22.5-77.3,32.5-112.4,41.1
	c-23.9,5.9-35.3,3.2-59-0.9c-21.1-3.6-42.6-3.4-63.6,0.7c-19.2,3.7-36.5,15.2-55,16.6c-12.8,1-33.2,0.2-44.8-6.7
	c-28.8-17.2-13.1-51.2,6.6-67.4c11.6-9.6,34.8-29.6,49.2-27.9c18.4,2.2,39.4,15.6,58.3,19.5c38.2,8,77.9,7.5,116.3,0.7
	c16.9-3,37.7-6,52.4-15.5c7.9-5.1,11.1-12.5,17.4-18.6C2905.1,2414.1,2900.1,2412.5,2916.5,2415.6z M2725,2312
	c30.7,7.6,60.7,17.6,89.8,29.9c12.3,1.1,21,7.2,31.2,13.2c11,6.5,27,11.8,36,21c5.2,5.4,10.5,13.4,9.7,21.4c0,0.4-18.9,14.6-3,15.1
	c-9.9,24.1-40.2,30.8-62.5,37.6c-21.5,6.6-50.1,2.3-72.6,1.2c-28.1-1.3-55.9-7.1-82.1-17.2c-12.9-5-8.2-8.4-20-13.7
	c-2.9,3.2-5.8,3.3-8.6,0.3c-2.6-1.4-5.1-2.8-7.5-4.4c-6.6-2.9-11.8-8.8-18.1-12.2c-10.1-5.4-19.8-11.4-29.2-17.9
	c-10.9-7.5-24.6-11.6-36.2-18.8c-8.1-5-16-10.3-20.5-19c-2.6-5.2-4.7-11.2-3.9-17.2c0.1-1,4.3,1.1,4.6-1.7
	c1.1-11.1-3.1-13.8,8.6-24.2c8.9-7.9,19.3-9.4,30.7-10.2c28.3-1.9,56.8,0.8,84.5,4.2c-6.6,1.8,3.9,5.5,6.7,6.4
	c6.3,1.9,8.1-1.2,14.7-1.4C2693.1,2303.7,2709.6,2308.2,2725,2312z M2161.5,2136.6c-80.7-4.6-160-26.7-232-63.3
	c-23.1-11.7-78.9-33-82-63c-4-37.7,40.4-44.8,67.3-47.5c71-7.2,145.7,8.9,201,55.8c8.9,7.5,16.5,18.4,25.8,24.8
	c15.6,10.7,34.3,14.5,48.6,28.1C2216.6,2096.6,2199,2138.6,2161.5,2136.6L2161.5,2136.6z M2359,2203.8
	c-43.9-0.1-87.6-4.8-130.4-14.2c-29.7-6.5-31.4-42.4-12.9-61.9c24.4-25.8,72.2-40.9,105.6-49c36.9-9,75.8-10.7,113-2.9
	c19.5,4.1,36.5,13.9,55.2,19.2c12.2,3.5,27.4,1.3,40.3,3.8c27.4,5.3,56.4,24.4,39.3,56.1c-17.2,31.8-63.9,21.1-93.4,26.2
	c-20.9,3.6-39.9,11-60.1,17C2396.9,2203.6,2378.8,2203.9,2359,2203.8L2359,2203.8z M2484.6,2190.6c-8.4,1.8-16.9,3.5-25.4,4.9
	C2467.8,2193.5,2476.2,2191.9,2484.6,2190.6L2484.6,2190.6z M2358.8,2239.8c35.7-23.4,69.6-36.1,112-41.3c33.4-4.1,65.2-12.6,98.4-6
	c20.2,4,37.8,15,57.3,19.6c12.6,3,27.2,1.3,40.3,3.8c27.3,5.4,56.4,24.3,39.3,56c-18.1,33.7-67.8,13.7-98,12.5
	c-18-0.7-38.6-3.2-56.1,2.3c-16.5,5.2-20.2,15.8-31,27.1c-0.5,7.8-5,10.2-13.4,7l-10.9,0.1c-10.9,0-21.8-0.3-32.7-0.9
	c-23.2-1.3-40-2.7-60-14.2c-9.9-5.7-20.1-10.7-30.6-14.9c-7.8-3.2-21.8-4.6-28.1-9.7C2333.3,2271.5,2346.6,2247.8,2358.8,2239.8
	L2358.8,2239.8z M2201.7,2291.4c3.4-19.9,103.5-8.7,120.4-4.6c22.3,5.4,47.3,12.6,70.7,25.3c-12.5-2.1,11.5,11.7,14.9,13.4
	c15,7.3,26.1,14,38.7,26.8c17.1,17.3,40.8,23.4,59.8,39.3c16,13.1,18.5,35.1,5,51c-16.2,19.2-42.2,13.9-64.2,11.5
	c-26.6-3-55.1-6.4-80.6-14.9c-22.1-7.3-41.5-21.9-63.3-31c-22-9.1-46.1-10.9-67.4-20c-19.3-8.3-50.3-23.9-64-40.1
	C2151.6,2324.2,2174.3,2288.1,2201.7,2291.4L2201.7,2291.4z M1834.8,2222.2c-82.9-14.9-162.1-48-231.6-95.5
	c-29.5-20.1-7.8-57.2,19.4-65.1c36.1-10.4,79.7-8.9,116.4-2.7c35,5.9,69,18.5,98.6,38.4c15.3,10.3,26.3,24.4,40.7,35.2
	c11.5,8.7,26,13.4,38.4,21.6c25.2,16.6,41.7,45.4,14.2,68.6c-13,11-24.5,8.6-39.1,6.7C1872.8,2227,1853.8,2225.6,1834.8,2222.2
	L1834.8,2222.2z M1342.1,2265.4c-27.6-4.6-63.8-9.9-55.8-46.8c7.4-34.4,60.3-51.8,89.4-62c35.6-12.5,73.8-18.4,111.4-15.3
	c34.3,2.8,64,19.4,96.6,24.1c25.5,3.6,67.3,2.7,71.7,36.7c0.8,6.1,0.7,16.7-4.1,21.5c-5.3,5.3-12.6,2.1-20.8,3.5
	c-16.4,2.7-31.4,12.7-39.4,27.5C1510.2,2275.8,1424.8,2279,1342.1,2265.4L1342.1,2265.4z M1869,2379.1c20.7,22,78.4,67.6,28.3,94.9
	c-21.6,11.7-45.4-1.2-65.8-9.8c-26.2-10.9-51.6-23.8-75.9-38.5c-43.7-26.5-83.7-58.6-119.2-95.3c-13.2-13.7-43.4-37.5-39.2-58.9
	c0.7-3.5,12.9-22.3,11.3-21.8c27.1-26.1,78.8-7.5,109.4,2.3c49.6,16,91.9,42.7,124,83.2c-17.1-5.8,2.2,8.7,6,12.7
	C1856.7,2357,1863.8,2367.6,1869,2379.1z M1858.2,2339c-8-11.3-16.9-21.8-26.7-31.5c-10.7-10.6-11.2-16.3-1.3-29.1
	c15.7-20.3,50.4-34,73.9-37.1c13.8-1.8,21.9-4.1,34.1-11.1c11.7-6.8,21.3-9.2,35.6-10.8c29.3-3.4,59-1.6,87.6,5.5
	c22.1,5.6,40.1,16.6,62.7,18c18.5,1.1,45.5,3.2,58.9,18.2c11.1,12.5,7.8,14.2-1.9,21.5c-9.1,6.9-17.2,12.1-22.8,22.8
	c-6.7,12.9-2.8,15.3-15.4,21.9c-13.6,7.2-34.3,9.1-49.4,12.1c-1.1-26.8-9.4-54.6-34-68.9c-24.4-14.2-53.6-7.4-70.4,14.6
	c-7.4,9.7-12,21.3-16.4,32.5c-2.8,7.2-5.3,24.9-10.6,29.7C1946.9,2360.8,1879.3,2343.1,1858.2,2339z M1960.2,2469.3
	c-8.6-30.6-3.1-64.5,4.9-94.6c-0.7-11.9,4.9-26.8,8.3-38.1c4.8-16,14.1-32,24.5-45.2c25.7-32.4,67.7-15.5,80,19.5
	c11.1,31.8,5.4,71.4,1.3,104c-2.4,19.3-5.1,41-13.1,58.9c-2.4,5.2-5.3,10.1-8.7,14.7c-1.9,2.6-14.3,13.1-6.2,9.6
	c-12.5,13.6-46.2,19.6-62,11c17.6-0.8,1.3-4.6-7.5-10.4c-8.1-5.3-7.6-1.2-14.4-11C1963.7,2482.3,1962,2475.4,1960.2,2469.3
	L1960.2,2469.3z M2025.2,2513.8l-4.8,0.9C2022,2512.6,2023.5,2512.3,2025.2,2513.8L2025.2,2513.8z M1783.4,2587
	c12.4-24.6,36.2-44,60.3-56.5c22.7-11.8,47.2-17.6,72.6-20c21-2,42.5-4.2,60.9,3.9c15.8,7,15.1,11.7,32,11.4
	c18.5-0.2,29.4-9.7,33.5,13.1c3.1,17.2-4.8,29.6-18.3,39.3c-31.6,22.6-69.7,40.8-104.7,57.2c2-4.5-12.7,4.3-14,4.9
	c-12.2,5.7-25.6,12.1-39.5,16.2c-22.5,6.7-55.5,15-75.7-1.9c-12.2-10.3-6.9-18.4-8.5-32.1C1780,2606.5,1775.7,2602.4,1783.4,2587z
	 M1775.2,2653.8c4.4,6.4,10.4,11.5,17.3,15c32.4,16.1,76-0.1,106.9-12.6c-7.3,20.2-8.2,40.6,5.6,58.6c-49,1.6-96.7-2.3-142.7,18.4
	c-37.9,17-81.1,52.6-83.1,97.4c-14-6.4-31.3-7.1-46.3-7.2c-18.5-0.1-30.8-1.6-48.8-6c42.3-29.8,15.3-73.7-20.3-91.3
	c39.3-4.1,78-12.1,115.8-23.7C1709,2693,1758,2682.3,1775.2,2653.8L1775.2,2653.8z M1607.6,2525.4c-17.6-35.9-34.5-110.2,29.9-105.5
	c48.5,3.6,90.5,74.7,111.5,112.4c22.5,40.3,26,112.4-41.9,104.3C1654.8,2630.3,1624.7,2566.9,1607.6,2525.4L1607.6,2525.4z
	 M1460,2596.3c-68.9,6.6-64.4-86.1-53.4-129.1c9.2-36.2,27.7-114.6,75.7-111.3c61,4.1,47.4,93.7,42.1,133.2
	C1519.3,2527.4,1509.3,2591.6,1460,2596.3z M1419.7,2649.2c52.6-43.6,119.2-72.5,188.4-71.1c20,0.4,23.2,16.2,35.6,30.5
	c10.6,12.2,23,23.4,37.5,30.9c28.4,14.6,64.3,9.3,83.6-17.4c1.3,15.9,6.8,22.5-6.5,35c-12,11.2-31.6,16.7-46.7,22.5
	c-33.8,12.9-68.7,22.7-104.3,29.1c-15.7,2.9-33.2,7.1-49.2,6.9c-18.5-0.2-33.5-13.8-50.5-22.1c-31.6-15.3-65.8-24.9-101.1-22.8
	C1408.6,2662.3,1413.2,2654.8,1419.7,2649.2L1419.7,2649.2z M1319.1,2767.8c-19.3-30.3,11.8-63.6,38.1-75.2
	c23.5-10.3,49-12.9,73.4-10.9c50.4,4.1,95.2,32.5,135.8,58.1c23.7,15,44.1,46.9,11.6,68.2c-14.2,9.3-34.2,2.4-50.5,2.3
	c-17-0.1-33.7,2.7-50.7,2.4C1432.9,2811.9,1346.3,2810.5,1319.1,2767.8L1319.1,2767.8z M1343,2892.5c28.9-24,61.8-43.4,97.2-55.9
	s68.4-11.9,105.5-11.5c26.7,0.3,50.7,10.7,76.9,9.3c13.5-0.7,29-0.7,42.1,2.9c16.6,4.5,20,18.2,25.4,33.8
	c11.4,33.1-28.8,38.3-53.2,40.2c-18.9,1.5-37.7,4.7-55.7,10.6c-9.2,3-18.1,6.8-26.7,11.2c-5.3,2.8-15.3,12.3-20.4,12.5
	c-9.4,0.4-36.3-21.2-45.2-25.4c-15.7-7.4-32.1-13.6-49.1-17.3c-36-7.8-77-5.6-110.1,11.7C1331.6,2906.4,1336.4,2898,1343,2892.5z
	 M1407.8,3126.7c11.8,4.5,24.2,22.1,32.5,31.4c27.8,30.7,72.5,76.4,67.6,122.2c-6.7,63.1-76.6,49.9-109.3,17.7
	c-30.6-30.1-53.3-74-67.1-114.5c-2.8-8.1-5.3-14.4-5.2-19.5c-1.4-2.5-1.8-5.4-1.3-8.2c0.2-1.1,0.5-2.3,0.8-3.4
	c-0.2-1.5-0.2-3,0.2-4.4c0.5-1.9,1.5-3.6,2.9-4.9l-1.1,0.4c7.8-24.4,34.8-34.1,57.9-27.7c2.8,0,5.4,1.1,7.5,2.9
	c1.9,1.7,5.4,3.8,7.8,5.8C1402.1,3124.4,1403.6,3125.1,1407.8,3126.7L1407.8,3126.7z M1405,3081.1c0.7,5.8,0.4,20.1-5.2,23.9
	c-6,4.1-14.4-1.3-23.3-2c-16.7-1.3-33.6,3.7-45.7,15.6c-5.2,5.1-8,11.1-11.7,17.2c-7.8,12.9,2.9,6-13.1,14.6
	c-16.4,8.8-41.8,11.3-59.9,14.7c-44.5,8.4-89.8,11.9-135.1,10.3c-28.4-1-71.9,2.1-71.8-36.8c0.1-36.5,50.6-60.2,78.8-74
	c33.2-16.4,69.4-26.9,106.5-28.8c36.3-1.9,69.5,13.4,104.1,13C1354.7,3048.4,1400.5,3045,1405,3081.1L1405,3081.1z M1492.5,3041.9
	c-48.7-1.9-136.6,0.9-178.7-34.7c-10.4-8.8-16.3-20.3-15.2-34.3c0.8-9.7,10.5-28.9,18-35.6c2.6-2.3,13-9.8,11.9-9.4
	c7.5-2.5,14.6-7.8,22.3-10.4c17.6-6.1,36.6-8.4,55.1-7.9c47.8,1.3,100.4,27,134,52.7c22.3,17.1,58.8,35,29.3,68.2
	C1560.1,3040.6,1516.7,3046.6,1492.5,3041.9L1492.5,3041.9z M1685.2,3051.2c48.5,0,96.4,65.4,121.1,101
	c25,35.9,35.9,102.8-26.2,107.9c-51.5,4.1-90-56-111.7-94.3c-11.5-20.3-27.1-44.4-28.4-68.1
	C1638.6,3071.7,1659.6,3051.2,1685.2,3051.2L1685.2,3051.2z M1496.2,3053c28.2,0.4,64,7.4,83.5-18.3c23.3-30.8,4.4-59.9-23.8-76.5
	c-0.2-0.1,0-0.2,0.1-0.4c0.1-1.7-4.4-5.6-5.8-9.9c13.1-7.9,27.6-17.5,42.2-21.5c8.3-2.3,46.4-7.9,50.9-7.9
	c28.4,0.1,62.2-1.4,90.7,4.8l-0.2,0.4c0.3,0,0.6,0,0.8,0c4.8,0,12,6.2,12.4,6.5c9.4,6.2,13.7,21.3,11.8,31.5
	C1752.1,2998.9,1529.3,3128.7,1496.2,3053L1496.2,3053z M1760.1,3018.8c-11.6,3.1-23.8,0.2-31.9-8.8c26.1-15.3,49-32.8,39.1-68.2
	c-3.2-11.4-22.7-22.5-10.7-30.4l6.1-7.3c14.6-16.7,24.6-20.2,44.9-27.9c34-13,66.3-29.4,97.8-47.4c6-3.5,12.8-9.1,19.5-11.3
	c7.2-2.4,15.9-1.1,23-3.2c17.1-4.9,31.4-15.3,49.6-18.2c32.2-5.2,58.7,20.7,43.2,52.9c-14.1,29.2-54.9,55.5-80.4,74.2
	c-28.9,21.2-63.6,48.2-99.4,52.6c-18.9,2.4-38.2,7.4-54.6,17.4c-7,4.3-12.4,11.3-19,15.4C1779.2,3013.8,1769.9,3016.2,1760.1,3018.8
	L1760.1,3018.8z M1820.3,3096.8c-29.9-20.9-49.9-38.6-30.3-73.6c17.5-31.2,40.7-30.4,74.1-36.2c55.4-9.6,150.3,44.7,158.1,51.3
	c21.1,17.9,44.5,23.4,37.5,51.2c-5.6,22.2-23.3,28.8-43.9,28.9c-12,0-24.3-1.4-36.2-0.3C1966.9,3119.1,1839.5,3110.3,1820.3,3096.8
	L1820.3,3096.8z M2042.3,3191.2c-11.7,22.6-34.3,39.4-60.8,33.7c-30.6-6.6-43.3-36.3-45.4-64.7c-0.5-6.8-1.7-16.8,0.1-23.2
	c3.4-11.9,3-9.2,17-8.7c15.7,0.6,31.4,0.7,47.1,0.9c23.6,0.2,46.3,2.2,61.8-19.5c-1.8,15.7-4.3,28.4-10.1,42.7
	C2046.9,3165.2,2041.8,3176.9,2042.3,3191.2L2042.3,3191.2z M2316.8,3121.7c-1.7,4.3-0.6,5.8,3.4,4.4c-3,15.1-14.2,21.4-26.4,28.7
	c-12.9,7.8-20.6,19.3-33.2,26.9c-11.6,7-25.1,7.9-37.4,12.7c-16.1,6.3-31.2,15.5-47.2,22.1c-42.5,17.5-141.6,39.2-115.9-40.5
	c5.9-18.3,7.1-30,21.3-44.4c11.8-11.8,25.3-21.8,40.1-29.5c22-11.5,47.4-17.4,70.5-19.8c23.4-2.4,45-1.2,68.2-1.1
	c14.2,0,32-2.8,44.8,5.3c6.6,4.2,23.9,28.1,11,28.7L2316.8,3121.7z M2565.1,3044.6c-9.5,17.5-24.6,18.6-41.5,23.9
	c-18.7,5.8-36.6,14.6-55.4,20.5c-37.9,11.8-76.9,19.8-116.5,23.9l-10,0.9c-8.1,4-11.7,2.4-10.7-4.8c-3.8-5-3.8-13.9-7.9-19.7
	c-6.2-8.8-16.4-16.2-27.4-17.3c-10.6-1.1-22.2-0.4-33.2-1.6c-21.2-2.3-44.9-1.1-66.1,0.7c4.3-22.3,26.4-35,43.9-46.5
	c9.5-6.3,17.9-9.2,27.8-13.7c2.6-1.2,24-6.5,7.8-6.6c29.9-14.7,51.4-21.5,83.1-26c18.8-2.7,40.2-4.8,58,0.6c9,2.8,14.8,7.1,25.1,8.2
	c11.2,1.3,22.4,2.6,33.7,3.6c-10.9-2.4-21.7-5.6-32.1-9.7c12.7,2.8,24.1,8.1,36.8,8.5c17.4,0.6,34.1-1.9,51.5,2.1
	C2556.5,2997.2,2580,3017.2,2565.1,3044.6L2565.1,3044.6z M2585.3,3002.1c-5-0.1-14.8,1.3-19.4-0.8c-3.8-1.7-9-10.3-13.3-13.1
	c-27.2-17.8-56.3-3.2-85.3-8.3c-19.9-3.4-53.9-10.3-61-30.9c-8.6-25.2,6.2-45.5,26.1-59.3c21.3-14.7,45.4-16.7,67.6-17.5
	c5.3-0.2,8.9-2.8,19.5-2c11.1,0.8,22.1,2.7,32.9,5.6c8.6,2.4,33.5,7.1,38.6,14.8c5.8,8.8,2.9,33.6,7.4,44.9
	c5.4,13.4,15.2,18.9,22.6,29.9c5.5,8.1,2.3,2.4,3.5,12.1s-1.8,15.3,1.8,25.1C2612.7,3002.7,2599,3002.5,2585.3,3002.1L2585.3,3002.1
	z M2625.3,2957.4c-45.9-55.5-17.6-139.3,12.9-197.3c14.5-27.5,45-46.3,73.4-25.7c18.6,13.5,18.3,27.6,18.5,48.6
	c0.1,8.9,7.3,40.7-3.4,43.5c2.3,1.3,7.8,8.1,8,9.7c0.7,5.7-5.8,16.5-7.3,21.6c-6.5,23.3-6.5,47.7-16.9,70.1
	c-8.8,19.1-18.7,36.5-41.1,39.1C2656.1,2968.6,2634.9,2968.9,2625.3,2957.4L2625.3,2957.4z M2950.8,3127.5
	c15.4,17.6,7.1,41.2-11.5,52.4c-19,11.4-45.6,5.2-66.1,1.6c-39.2-6.8-77.4-20.9-110.6-43.1c-32.8-21.9-53.2-49.2-75-81.1
	c-18.7-27.5-67.4-43.1-50.4-83.1c6.4,2.4,14.2,4.4,21.1,3.8c11.8-1,7-1.6,17-7.6c16.5-9.9,24.3-10.6,42-3.2
	c12.8,5.3,27.3,7.7,40.7,14c13.7,6.5,43.1,16.5,52.7,28.4c7.7,9.5,4.2,28,14.4,40.7c9.1,11.3,22.8,18.4,35.9,23.8
	c15.7,6.4,37.4,6.1,51.7,13.7C2926.4,3095.1,2940.8,3116.1,2950.8,3127.5z M3081.8,3083.2c0.4,0.5-29.7,2.6-32.4,2.4
	c-16.9-0.9-33.8-0.3-50.7-0.9c-19.1-0.7-38.1-1.9-57.1-4c-12.5-1.4-35.2-2.1-46.3-8.7c6.3,5.6-8.8-0.9-11.4-1.6
	c-6.9-1.8-13.7-4.1-20.3-6.8c-9.8-4.1-19.9-9.3-27.3-17.1c-15.8-16.6-14.7-40.3-0.2-57.8c5.9-7.1,15.9-13.7,21.8-18.8
	s19.4-11.2,29.1-13.6c15.1-3.8,31.6-3,45.5-3.4c19.7-0.6,40.1,5,58.3,11.9c6.9,2.6,14.5,5.2,20.9,9c4.7,2.8,8.6,9,11.9,10.8
	c11.2,6.4,15.3,3.5,27.2,10.8c15.3,9.5,38.1,18.2,48.7,32.8C3113.5,3047.4,3105.6,3076.6,3081.8,3083.2L3081.8,3083.2z M3194,3091.4
	c-26.1,32.9-68.7,18.1-94.6-5.9c45.3-39.8-2.3-75-35.7-95c-24-14.4-46.4-24.8-40.3-57.6c3.7-19.9,20.4-33.4,40.1-35.3
	c43.6-4.1,81.1,49.8,104.1,80.3C3190.2,3007.9,3223,3054.9,3194,3091.4L3194,3091.4z M927.3,2802.5c6.6,4.2,14.3,6.5,22.1,6.6
	c8.9-0.1,17.6-3,24.8-8.3c44.6-31.4,84.9-68.5,119.7-110.4c34.8-42,63.6-88.7,85.5-138.7c9-20.7,4.1-44.4-12.3-59
	c-15.2-13.5-36.1-15.2-54.7-4.4l0,0c-16.9,9.8-32.2,22.2-45.1,36.9c-86.7,33-148.3,116.7-164.8,224.2
	C899.3,2769.6,909.5,2791.5,927.3,2802.5z M913.2,2750.9c16-104.1,75.5-184.9,159.1-216.1l1.3-0.5l0.9-1
	c12.4-14.2,27-26.2,43.3-35.7l0,0c14.6-8.5,30.3-7.3,42,3.1c12.9,11.8,16.8,30.5,9.6,46.5c-21.5,49.1-49.7,94.9-83.9,136.1
	c-34.2,41.2-73.7,77.7-117.6,108.5c-15.2,10.7-28.4,5.4-34.9,1.4C919.1,2784.6,910.8,2766.8,913.2,2750.9z M1053.4,2339.1
	c92,62.9,197.7,99.3,305.5,105.4c1.1,0.1,2.1,0.1,3.2,0.1c21.3,0,40.4-12.6,48-32c7.3-18.8,1.6-38.9-15-52.5l0,0
	c-15.1-12.4-32.1-22.3-50.3-29.4c-61.2-69.5-161.2-98.1-267.9-76.4c-20.3,4.1-37.3,21.2-41.5,41.6
	C1031.9,2313.2,1038.5,2328.9,1053.4,2339.1L1053.4,2339.1z M1046.1,2298.1c3.2-16,17.1-29.9,32.9-33.1c22-4.5,44.4-6.8,66.8-6.9
	c77.1,0,145.9,28.4,191.6,80.8l0.9,1l1.3,0.5c17.6,6.7,34,16.2,48.6,28.1c13,10.6,17.3,25.6,11.7,40.1c-5.2,13.3-19.7,26.2-40.3,25
	c-105.8-6-209.5-41.8-299.9-103.6C1044.3,2319.7,1044.5,2305.6,1046.1,2298.1L1046.1,2298.1z M1308.1,2468.1
	c-13.1-5.4-27.8-5.2-40.8,0.5c-23.7,10.4-32.8,35.8-40.9,58.2c-1.5,4.1-2.9,8-4.3,11.7c-0.9,2.4-1.7,4.9-2.3,7.4l-0.1,0.3
	c-20,59.6-22.5,107.4-7.5,141.9c10.6,24.3,34.1,39.8,58.9,39.8c2.7,0,5.4-0.2,8.2-0.6c28.8-4,50.5-27.1,59.5-63.2
	c6.7-26.8,10.4-56.1,11.1-87.3c0.1-2.4,0.1-4.7,0.2-7.2c0.7-24.6,1.5-52.6-11.5-74.9l0,0C1331.6,2482.8,1320.9,2473.5,1308.1,2468.1
	L1308.1,2468.1z M1339.1,2569.4c-0.1,2.4-0.1,4.8-0.2,7.2c-0.6,30.3-4.2,58.9-10.7,84.9c-3.8,14.9-16.2,50.2-50.4,55
	c-22.9,3.2-45.8-10.3-55.6-32.8c-17.3-39.9-5.3-95.1,7.9-134.3l0.2-0.8c0.5-2.1,1.1-4.1,1.9-6.1c1.5-3.9,2.9-7.8,4.5-12
	c7.7-21.3,15.7-43.4,35.1-51.9c5.2-2.3,10.8-3.4,16.5-3.4c14.7,0,30.6,7.5,40.9,25.1C1340.6,2520,1339.8,2546.3,1339.1,2569.4
	L1339.1,2569.4z"/>
<path class="st3" d="M1475.1,2412c-20.7,49.6-63.3,112.9-114.9,128.1c-6.2,1.8-12.7,2.8-19.1,2.8c-17,0.1-33.4-6.4-45.7-18.1
	c-3.2,3-6.7,5.6-10.4,7.8c-28,16.8-60.7,9.3-89.5,2.6c-5.5-1.3-10.6-2.4-15.6-3.4l-66.6-13.2l-63.3-12.5c-15.9-3.1-34.2-7.6-49.4-17
	c-17.7-10.9-27.8-26.7-30.1-46.8c-1.9-16.7,2.6-32,12.9-44.2c13-15.3,34.3-24.9,58.4-26.2c30.5-1.6,61.7-0.5,91.9,0.5
	c14.8,0.5,30,1.1,44.9,1.3c14.6,0.2,27.2,5.3,36.7,14.8c28.8,8.2,53,21.1,72.1,38.4c1-2.5,2-5,2.9-7.5l0.8-2.1
	c22.3-56.4,58.3-106.4,104.8-145.4c14.9-12.8,35.6-16.6,54.1-10c18.9,6.5,33.6,22,37.6,39.6c2.4,7.4,3.9,15,4.4,22.8
	c6.6-10.9,14.5-21,23.3-30.1c12.6-12.9,26.9-23.9,42.6-32.8v-0.1c28.2-31.5,61.4-55,104.6-74.1c16.5-7.4,36.3-3.2,51.5,10.9
	c15.6,14.4,21.8,35,15.7,52.4c-21,58.8-47.7,105.4-81.7,142.5c-18,19.7-40.9,36.2-62.7,45.4c-29,12.2-56.5,11.9-79.5-0.7
	c-13.8-7.6-23.7-18.1-28.9-30.9C1476.2,2409.3,1475.4,2411.1,1475.1,2412z M1437.3,2634.9c-9.5-12.7-24.1-19.9-41-20.2
	c-2.9-0.1-6.3-0.2-10.2-0.3c-25.2-0.8-72.1-2.2-116.1,2.6c-56.7,6.2-92,20.5-108,43.8c-11.5,16.7-12.3,37.1-2.5,60.4
	c17.8,42.3,74.3,52,121.5,55.6c7,0.5,14,0.8,21,0.8c42.4,0,85-9.8,129.6-29.7c14.6-6.6,24.2-17.7,26.8-31.4
	c2.6-13.3-1.5-27.9-10.9-40C1449.8,2661.9,1446.1,2646.9,1437.3,2634.9L1437.3,2634.9z M1823.2,2350.1
	c-86.8,33.7-148.3,117.7-164.7,225.3c-3.4,22.2,7.7,46.2,27.1,58.2c7.4,4.7,15.9,7.2,24.7,7.3c9.5,0,19-3.1,27.8-9.3
	c90.8-64.1,161.4-150,204.2-248.5c9.8-22.6,4.3-48.5-13.7-64.5c-16.8-14.9-39.9-16.8-60.4-4.9
	C1851.3,2323.4,1836.2,2335.8,1823.2,2350.1L1823.2,2350.1z M1142,2115.7c7.3,5,16,7.6,24.8,7.4c7.8,0,15.4-1.7,22.5-4.9
	c16.6-7.4,27.7-21,29.6-36.5c5.2-42.4-1.4-84.2-19-120.8c-18.1-37.6-47.5-68.6-84.2-88.6c-12.8-7-26.3-8.6-39.1-4.6
	c-9.9,3.3-18.6,9.4-24.9,17.6c-15.6,3.1-30.4,13.9-38.8,28.5c-9.1,15.9-9.7,33.9-1.7,50.7C1039.9,2023.9,1083.8,2074.8,1142,2115.7z
	 M1371.6,2177.1c4.2,0.3,8.3,0.7,12.2,1l0,0c12.3,1.1,24.2,1.6,35.7,1.6c50.4,0,93.6-10.5,131-31.8c16.6-9.4,25.7-24.8,25.3-42.1
	c16.6-11.8,24.7-34,19.5-55.6c-5.8-24-25.9-39-51.2-38.3c-24.1,0.7-48.6,1.2-72.3,1.8c-44,1.1-89.5,2.2-134.3,3.8
	c-16,0.6-70.2,5.1-93.1,39.3c-7.6,11.4-14.5,30.8-4,58.9C1259.9,2168.1,1324.4,2173.3,1371.6,2177.1L1371.6,2177.1z M1049,2237.6
	c11.4,2.5,22.2,4.9,31.7,7.6l0,0c7.7,2.2,16.7,5.2,26.2,8.5c25.9,8.9,57.1,19.5,85.7,19.5c21.9,0,42.2-6.3,57.2-24.4
	c1.3-1.6,2.6-3.3,3.7-5c15.4-12.5,23.7-31.5,21.3-48.9c-2.2-15.7-12.5-27.9-29.2-34.5c-88.6-34.9-177.2-54.6-270.9-60.2
	c-16.1-1-32,7.2-42.6,21.9c-10.3,14.4-13,31.5-7.2,45.8C943.8,2214.4,1002.1,2227.2,1049,2237.6z M1625.3,2032.4
	c9,4.5,19.7,6.7,32.2,6.7c22.2,0,50-7.1,84.1-21.3c41.7-17.4,83.7-41.8,108.8-56.4c6.7-3.9,12.4-7.2,16.6-9.5l0,0
	c18-9.9,27.6-31.5,23.8-53.8c-3.7-21.6-19.1-37.7-39.3-40.9c-12.2-2.1-24.6-2.6-36.9-1.5c-47.9-2.2-98.3-0.9-143.5,22.2
	c-41.5,21.2-80.9,62.4-75.7,106.7C1598.1,2007.7,1608.2,2023.8,1625.3,2032.4L1625.3,2032.4z M2624,2303.4
	c14,7.8,29.7,11.8,45.7,11.8c31.3,0,61.4-14.5,89-27.8l4.6-2.2c48.3-23.3,94.5-50.7,138-82c17.7-12.5,26.7-36.3,22-57.9
	c-4.2-19.2-18.5-32.9-38.2-36.6c-84.2-15.7-164.7,5-232.8,59.8c-5,4-9,9.1-11.6,15c-15.9,13.9-28.8,30.8-38,49.8
	C2590.1,2259.7,2599.2,2289.9,2624,2303.4L2624,2303.4z M2891.4,2510.9c-19.6,4.9-36.1,20.3-41.4,39.2c-5.1,18.1,1.1,35.7,17.1,48.4
	c43.9,34.6,88.7,68.1,133.2,99.7l1.1,0.8c24,17.1,55.7,39.5,85.6,39.5c4.9,0,9.7-0.6,14.4-1.9c16.6-4.6,29.5-17.3,38.5-37.8
	c10.7-24.5,8.4-50.9-6.7-78.6c-10.1-18.5-26.1-37.6-48.7-58.4c-36.8-33.7-80.5-59.1-133.8-77.6c-13.4-4.6-26.4-4-37.5,1.8
	C2903.6,2491,2895.9,2499.9,2891.4,2510.9L2891.4,2510.9z M1995.9,2221.7c24,6,48.2-1.6,68.6-21c-2.5,4.5-4.5,9.3-5.7,14.3
	c-13.1,6.9-22.8,18.3-26.6,31.3c-3.9,13.6-1.1,28,8,40.8c29.1,40.8,65.3,91.6,107.4,129.3l0,0c15.8,14.1,34.3,21.6,52.2,21.6
	c7,0,14-1.2,20.7-3.5c22.3-7.9,37.6-28,42-55.2c9-56.1-7.6-118.5-41.6-159.1c23.6,21,50.6,38.1,76.2,53.4
	c11.9,7.1,27.7,8.6,42.4,3.8c13.6-4.4,24.3-13.6,29.3-25.3c17.4-41,12.6-82.2-13.9-119.3c-12-16.8-27.6-29.2-42.8-41.2
	c-8.2-6.5-16.1-12.8-23.2-19.5c-0.9-15.6-9.3-26.7-16.6-33.5c-27.4-25.3-67.1-25.7-94.5-0.9c-13.2,12-21.2,28.6-23.1,48.2
	c-2,20.3,2.7,38.9,7,51c8.8,24.5,22.6,45.4,39.1,63.6c-27.2-21.9-60.1-31-96.1-26.5c-9.5,1.1-18.5,4.8-26.1,10.5
	c0.2-0.2,0.4-0.5,0.5-0.7c16.1-22.3,30.3-48.1,42.2-76.8c0.9-2.3,1.9-4.6,2.9-7c9.6-22.8,20.6-48.7,16.5-75.2
	c-2.2-14.7-9.2-28.3-19.9-38.6c-11.1-10.7-26.1-16.5-41.5-16c-27.8,0.9-47,22.5-62.4,39.8c-2.8,3.2-5.5,6.2-8.1,9
	c-2,2.1-3.8,4.3-5.4,6.8c-40.5,48-60.4,91.8-59,130.3C1945.5,2187.5,1966.7,2214.5,1995.9,2221.7z M2464,2154.6L2464,2154.6
	c16.5,28.6,47.5,47.6,77.4,47.6h1.4c24.4-0.5,44.6-13.5,56.7-36.6c23.8-45.3,26.3-96.3,7.1-143.6c-10-24.4-25.2-46.4-44.4-64.5
	c-19.9-18.6-43.5-32.7-69.4-41.2c-20.9-6.8-40.7-0.6-52.8,16.7c-13.3,19-13.7,45.1-1.5,63.9C2435.1,2067.3,2443.4,2119,2464,2154.6z
	 M2337.6,2341.9c-10.9,19.9-9.7,42.4,3.2,61.7l0,0c21.3,31.8,70.3,46.5,109.6,58.3c6.5,2,12.7,3.8,18.2,5.6
	c48.5,15.8,100.8,27,155.3,33.4c2.3,0.3,4.6,0.4,6.9,0.4c22.4,0,43.4-12.4,52.6-31.7s4.9-40.7-11.6-57
	c-35.5-35.1-75.8-64.9-119.7-88.6c-17.9-9.7-37.3-8.9-53.1,2.1c-7-1.7-14.1-3.4-21.1-5.1c-6.1-1.5-12.4-3.2-19-5.1
	c-18.3-5.2-37.3-10.5-56.2-10.8C2375.6,2304.3,2350.1,2318.9,2337.6,2341.9L2337.6,2341.9z M2432.2,2472.6
	c-4.9-1.7-10.1-2.6-15.3-2.8c-9.3-0.2-18.7-0.5-28.1-0.8c-9.4-0.3-18.8-0.6-28.1-0.8c-9.1-0.4-18.2,1.6-26.3,5.9
	c-41.2,0.8-85.2,1.8-128.7,3.9c-14.4,0.7-88.1,6.2-120.2,45.7c-12,14.7-16.5,32-13.5,51.4c2.6,17,10.8,30.4,24.4,39.9
	c17,11.9,40.5,15.9,65.3,15.9c26.3,0,54-4.5,76.7-9c31.2-6.1,61.7-15.5,91.2-24.6c25.2-7.8,51.3-15.8,77.4-21.6
	c3-0.1,6.1-0.1,9.1-0.2c3.5-0.1,6.9-0.1,10.3-0.2c33.4-0.8,49.4-26.2,50.2-49.5C2477.3,2501.6,2462.3,2476,2432.2,2472.6
	L2432.2,2472.6z M2330.8,2809.1c-0.4-17-7.9-32.8-21-44.5c-9.1-14.8-24.5-25.1-40.8-26.8c-15.4-1.7-30,4.2-41.2,16.7
	c-0.4,0.4-0.7,0.8-1.1,1.2l-0.1,0.1c-2.4,1.2-4.6,2.6-6.8,4.1c-7,4.8-12,11-16.4,16.5c-3.6,4.4-7,8.6-10.9,11.4
	c-11.8,8.6-19.2,20.3-21.4,34c-5.2,6.7-10.5,13.6-15.6,20.4c-4.1,5.6-8.7,11.3-13.5,17.4c-16,20.3-34.2,43.2-42.6,67.3
	c-6.5,18.5-4.3,38.2,6,53.9s27.2,25.4,46.5,26.8c1.7,0.1,3.4,0.2,5.1,0.2c31.5,0,59.2-20.6,80.2-38.9c19.4-17,36.7-38.6,54.7-68
	c1.8-2.9,3.6-5.9,5.6-9.1C2312.8,2867.6,2331.8,2837.3,2330.8,2809.1z M2679.9,3022.3L2679.9,3022.3c-64.8-7.1-130.1,1.8-189,25.7
	c-60.7,24.6-112.9,64.6-151,115.8c-11.5,15.4-17.4,31.2-17.7,46.8c-0.3,14.5,4.8,28.5,14.2,39.4c10.8,12.6,26.6,21.1,44.5,23.9
	c4.3,0.7,8.6,1,13,1c15.3-0.1,30.3-3.9,43.8-11.1c49.4-25.8,96.5-59.6,142.1-92.3c20.7-14.8,42-30.2,63-44.3
	c1.6-1.1,3.1-2.3,4.6-3.5c3.7,0.2,6.8,0.5,9.8,0.8h0.1c31.1,3.4,55.6-11.6,62.6-38.4c3.6-13.9,0.3-30.8-8.8-43.9
	C2703.3,3030.7,2692.2,3023.6,2679.9,3022.3L2679.9,3022.3z M2931.2,2953.1L2931.2,2953.1c37.7-16.1,75.1-34.4,111.3-52.1
	c18.2-8.9,37-18.1,55.6-26.9c2-1,3.9-2,5.8-3.2c19.5-4.6,33.4-17.8,38.4-36.7c3.6-13.7,0.3-30.2-8.7-43.2
	c-7.9-11.4-18.9-18.5-31.3-19.9c-55.1-6.1-103.6-0.2-148.3,18.1c-34.1,13.9-94.5,44.2-116,90.1c-14.6,31.3-2,51.3,6.9,60.4
	c12.6,13,32.4,20,52.8,20C2909.2,2959.8,2920.6,2957.6,2931.2,2953.1L2931.2,2953.1z M2744.7,2627.4L2744.7,2627.4
	c-64.6-10.4-128.6,3.1-180.1,38c-39.3,26.6-104.4,89.7-99,157c1.6,17.5,9.1,34,21.4,46.5c12.1,12.5,27.6,21,44.6,24.4
	c5.6,1.1,11.3,1.6,16.9,1.6c32.1,0,59.8-17.7,83.1-35.9c3.8-3,8.4-6.4,13.2-10.1c37.1-28,97.9-73.9,105.2-122.3
	c23.5-9.3,35.5-34,34.9-54.8C2784.3,2648.4,2768.9,2631.3,2744.7,2627.4L2744.7,2627.4z M3508.3,3029.1c-7-6-13.9-11.8-22.1-18.3
	c-11.4-20.1-26.5-37.8-44.5-52.3c-0.1-20.4-11.4-42.4-38.1-49.8c-37.9-10.6-93.6-23.4-139.2-13.1c-22.4,5.1-39.6,19.4-47.3,39.2
	c-7.9,20.4-4.5,44.1,9.1,63.5c23.1,33.1,70.8,57.5,102.3,73.6c41.6,21.1,85.9,36.7,131.6,46.3c3.6,0.8,7.2,1.1,10.8,1.1
	c20.3,0,39.6-11.9,49.2-31.3C3530.5,3067,3526,3044.4,3508.3,3029.1L3508.3,3029.1z M607.3,2986.6L607.3,2986.6
	c-38.5,2.1-75.2,14.3-112.1,37.3c-33.7,20.9-63,47.8-89.8,73.8c-13.3,12.9-17.9,33.9-11.5,53.3c5.9,18.4,20,30.8,37.7,33.4
	c10.9,1.6,21.9,2.4,32.9,2.4c77.6,0,147.8-40,184.5-107.5c3.2-5.9,5.4-12.3,6.3-18.9c7.6-17.2,6.1-37.8-4.1-53
	C641.6,2993,626,2985.6,607.3,2986.6L607.3,2986.6z M3153.6,3042.2L3153.6,3042.2c-25.9-4.3-52.2-5.6-78.5-4
	c-6.3-2.8-13-4.4-19.9-4.8c-39-2.6-77.8,8.2-109.9,30.6c-31,21.5-54.8,52.3-68.8,89c-4.4,11.5-3.1,24.5,3.5,36.8
	c7.6,13.9,20.9,24.4,34.9,27.4c16.2,3.5,32.7,5.2,49.2,5.2c31,0,62.4-6.1,93.8-18.2c39.7-15.3,79.3-39.8,121.1-74.9
	c13.6-11.4,18.8-30.3,13.6-49.3C3187.1,3060,3171.8,3045.2,3153.6,3042.2L3153.6,3042.2z M1062.4,3143.5
	c-4.6-11.7-12.9-20.6-23.9-25.3c-62-26.8-120-48-177.4-64.8c-20-5.8-69.7-16.9-100.5,6.2c-15,11.2-22.6,28.3-22.6,50.7
	c0,25.1,11.6,47.6,33.4,65c21.2,16.9,46.9,25.6,64.7,29.9c42.5,10.3,86.4,18,128.9,25.4c21.2,3.7,43,7.6,64.3,11.7
	c3.7,0.7,7.4,1.1,11.2,1.1c11.3,0.1,22.3-3.6,31.2-10.6c10.6-8.3,17.9-20,20.6-33.2C1096.8,3178.5,1089.1,3152.9,1062.4,3143.5z
	 M863.3,2856.6c29-1.3,58.9-2.7,88.7-0.8c18.7,1.1,34-5.9,43-19.8c9.3-14.3,10.2-33.8,2.5-50.4c-0.4-13.1-5.6-25.5-14.7-34.9
	c-9.6-9.7-22.6-14.8-37.7-14.6c-77.2,0.5-155.9,3.2-234,8c-27.5,1.7-47.5,25.9-50.8,48.4c-3.2,21.4,7.7,39.6,28.5,47.4l0,0
	c39.5,14.9,79.1,18.5,118.1,18.5C825.8,2858.3,844.7,2857.4,863.3,2856.6z M1755.5,3020.9c-75.5-4-143.3-5.6-208.9,14.6
	c-36.1,11-121.1,42.8-132.3,99.7c-5.7,29.2,5.3,46.3,15.6,55.5c14.4,12.9,35.7,18,56.9,18c13.9,0,27.7-2.1,40.9-6.2
	c44.8-14.1,89.9-29.4,133.6-44.2c22.9-7.8,46.6-15.8,69.9-23.6c6.8-2.3,13.1-5.8,18.5-10.5l7,0.4c33,1.7,49.3-22.3,50.5-45.4
	c0.7-13.8-3.5-27.3-11.9-38.2C1785.8,3028.9,1771.7,3021.8,1755.5,3020.9L1755.5,3020.9z M1958,2914.8c17.6,0,36.1-5.2,55.2-15.7
	c19.9-10.9,40.4-27.2,62.8-50l0,0c36.1-36.7,63.2-82.9,80.6-137.1c4.1-13,1.5-28.8-7.1-42.2c-8-12.5-19.8-20.6-32.4-22.1
	c-32.9-4.1-63.9-1-92.4,9.1c-30.8,0.5-57.6,19.5-81.9,57.9c-4.1,4.8-7.6,9.3-10.8,13.8c-4.9,6.6-8,14.2-9.2,22.3
	c-1.8,3.5-3.5,6.8-5.1,10.1l-0.9,1.8c-15.9,31.4-39.9,78.8-25.3,114.2c6.5,15.8,19.8,27.1,39.4,33.6
	C1939.7,2913.3,1948.8,2914.8,1958,2914.8z M2119.5,3031.2c-22.9-21.2-51.2-39.9-88.7-58.4c-5.2-11-14.3-19.6-25.6-24.1
	c-14.2-5.8-30-5.8-44.2,0c-27.5,2-47.8,23.5-48.6,52.1c-1.3,43,33.6,73.2,61.7,97.5c3.7,3.2,7.2,6.2,10.6,9.2
	c31.8,28.5,67.7,56.6,109.6,85.8c9.4,6.6,18.8,9.4,27.5,9.4c14.3,0,27-7.6,35.5-18.3c20.1-11.7,28.6-34.1,21.9-57.9
	C2168.7,3089.9,2149.2,3058.8,2119.5,3031.2L2119.5,3031.2z M1846.8,2689.9c-9.4-8.3-21.8-12.4-35.7-12l-195.8,5.4
	c-25.7,0.7-55,3-78.6,15c-25.3,12.9-39.9,35.4-43.2,66.9c-1,8.8,2,18.4,7.5,26.7c-7.9-3.9-16.6-5.7-25.4-5.4
	c-11.8,0.3-24.2-0.1-37.5-0.4c-32.2-0.9-65.4-1.9-94.4,6.2c-17.3,4.8-30.8,15.9-38.1,31.4c-4.2,9-6.1,19-5.6,28.9
	c-26.9-6.4-58.5,3-79.5,25.7c-32.3,34.9-59.5,76.7-85.8,117.1c-8.6,13.2-16.8,25.7-25.1,38c-9.9,14.6-11.8,30.7-5.2,45.2
	c6.8,14.9,21.9,26.3,39.4,30.1c4.7,7.7,11.7,13.8,20,17.5c10.4,4.4,21.5,6.7,32.7,6.7c21.5,0,43.3-8.5,64.5-25.2
	c26.9-21.3,52.1-56.2,69.1-95.9c14.7-34.1,21.8-67.7,20.2-94c21.6,11.1,46.8,17.9,69.9,23.6c44.5,10.8,90.6,13.7,136.1,8.4l0,0
	c27.9-3.1,47.8-28.9,50.8-52c2.8-21.5-7.9-39.2-28.8-47.4c-15.4-6-31.9-12.3-50.3-18.9c-1-7.4-3.5-14.6-7.3-21
	c4.4,2.4,9.1,4,14.1,4.7c103.1,12.8,205,6.6,302.7-18.2c17.9-4.5,30.4-15.8,35.2-31.8c4.9-16.3,0.8-35.2-10.5-49
	C1860,2706,1854.5,2696.9,1846.8,2689.9L1846.8,2689.9z"/>
<path class="st2" d="M1200.7,2099.9c42.8-37.3,21.4-118.7-10.1-159.4c-35.1-48.9-102.8-102.5-156.8-52.8
	c-48.8,45-2.3,113.4,30.2,152.3C1092,2073.5,1153.1,2141.3,1200.7,2099.9z M1050.8,1896.6c42.4-31.1,90.9,9.1,119.7,46.5
	c0.4,1.3,1.1,2.4,2,3.4c1.2,1.3,2.3,2.6,3.4,4c3.6,5.1,6.8,10,9.5,14.6c0.4,0.7,0.9,1.4,1.5,2c19.3,34.5,30.9,87.8,6.3,115
	c-35.3,39-89.5-23.1-111.9-49.2C1053.3,2000.4,1000.7,1933.2,1050.8,1896.6L1050.8,1896.6z M1713.6,2021.1
	c33.2-12,65.9-26.8,98.3-40.7c27.8-12,80-30,84.6-65.8c4-30.6-30.5-51.7-54.6-60.7c-44.8-16.9-88.6,2-133.4,8.3
	c-3.6,0.5-6.6,3-7.7,6.5c-55.4,13.1-114,59.3-108.4,119.1C1598.4,2051.7,1671.8,2036.2,1713.6,2021.1L1713.6,2021.1z M1726.3,1883.1
	c4.4-0.2,8-3.6,8.3-7.9c18.5-4.1,37-8.9,55.7-10.4c32.6-2.7,122.3,25.2,62.4,75.4c-23.1,19.4-58.5,28.1-86,39.6
	c-15.1,6.3-29.9,13.2-45,19.2c-30.6,12.2-104.4,41.4-111.5-11.5C1602.3,1928.7,1676.5,1885.3,1726.3,1883.1L1726.3,1883.1z
	 M2531.5,2193.5c62-1.7,87.1-114.1,76.9-161.2c-10.8-49.8-61.7-106.1-114-113.9c-1.2-0.5-2.5-0.8-3.9-0.8h-3.2h-0.2
	c-0.5,0-1,0-1.5,0c-19,0.2-41.2,1.4-51.1,20c-11.7,22-2.7,59.6-0.1,82.6C2440,2071.1,2457.8,2195.5,2531.5,2193.5L2531.5,2193.5z
	 M2448.2,1962.4c0.8-25.3,17-26.9,38.2-27.2c0.4,0.1,0.8,0.1,1.2,0.2c43.3,2.7,85.3,50.3,99.6,88.6c13.3,35.7-3,150.4-56.1,151.5
	c-59.2,1.3-74.2-115.4-78.8-155.9C2450.2,2000.9,2447.6,1981.3,2448.2,1962.4L2448.2,1962.4z M2599.6,2258.3
	c2.3,84.2,129.1,47.1,172.9,30c43-16.8,161.5-71.1,145.5-136.3c-7.6-31-47.7-37.6-74.1-40.9c-29.3-3.6-59.8-2.4-86.8,8.9
	c-1.6-1.4-3.7-2.1-5.8-2C2678.8,2118.4,2597.5,2179.7,2599.6,2258.3L2599.6,2258.3z M2618.1,2251.1c4.2-58.6,56.6-103.5,112.1-113.2
	c-2.5,7.2,5.1,16.4,12.6,10.8c24.8-18.4,54.7-22.9,84.9-21.2c24.3,1.3,77.2,5.7,72.6,39.8c-6.7,50.5-94.1,88.8-133,104
	C2731.4,2285.4,2612.9,2323.9,2618.1,2251.1L2618.1,2251.1z M1977.7,2218.9c33.5,7.5,65.1-15.1,90.5-42.3c0.2,0.4,0.5,0.9,0.8,1.2
	c-38.3,34.1-25.3,99.5,3,141.4c29.8,44.1,101.1,137.6,163.2,93.4c47.1-33.5,22.4-114.5,5-157.3c-2.9-7-5.9-14.1-9.3-21.1
	c51.5,36.6,127.4,58.2,155.2-18.2c26.6-72.8-30.6-134.1-99.5-143.4c-14.1-46.1-59.7-56-99-19.7c-39.7,36.7-36.5,81.4-14.1,120
	c-23.4-10.3-49.2-11-75.3-10.4c-0.8-0.1-1.6-0.1-2.3,0.1c-5.2,0.1-10.4,0.4-15.7,0.5c10.6-12.7,19.8-25.4,27.2-35.9
	c37.3-52.9,46.5-101,1.3-143.3c4-5.1,1.6-15-6.9-14.8c-31.8,0.9-60.2,2-86.5,21.9c-29.3,22.1-54.5,54.6-67.9,88.7
	C1930.9,2121.2,1917.5,2205.4,1977.7,2218.9L1977.7,2218.9z M2184.7,2083.9c22.2-35.7,71-52.6,84.6-8c-1.6,3.9-0.6,8.5,2.5,11.3
	c0,0.1,0,0.2,0.1,0.3c1.4,9.9,15.3,10.9,17.6,3.4c57.1,10.1,105.3,64.4,77.6,124.5c-29.4,64.1-99.6,27-138.1-5.1
	C2192.4,2179.9,2155.1,2131.4,2184.7,2083.9L2184.7,2083.9z M2176.8,2194.6c18.6,11.7,29.7,30.5,39,49.7c18.1,37.2,39,93.4,23,134.4
	c-29.5,75.8-116.7-22.5-140.4-53.6c-29.5-38.7-64.4-120.5,0.8-144.8l0.1-0.1C2126.2,2179.3,2153.4,2179.9,2176.8,2194.6
	L2176.8,2194.6z M1968.5,2075.3c13.2-27.5,37.3-58.3,63.7-74.6c16.4-10.2,34.5-12.4,53-13.2c22.9,17.4,42.1,37.8,37.8,69
	c-3.2,22.5-18.6,44.1-31.4,62.1c-21.5,30.2-54.2,75.6-93.3,82.6C1930.5,2213.3,1952.4,2108.9,1968.5,2075.3L1968.5,2075.3z
	 M1261.5,2145.9c44.7,30.5,107.2,24.6,158,17.8c37.6-5,124.1-11.4,147-52.7c2.7-1,4.6-3.3,5-6.1c11.4-55.9,7.4-99-58.1-105.8
	c-74.2-7.8-162.2,4.8-230,37C1237.1,2058.1,1210,2110.7,1261.5,2145.9L1261.5,2145.9z M1409.9,2020.2c36.6-4.8,79.9-10.2,116.2-1.5
	c38.8,9.2,36.3,39.4,30.3,70.3c-1.3,1.2-2.1,2.9-2.4,4.6c-8.4,42.9-112.4,49.6-145.1,53.5c-44.7,5.3-114.4,13-147.6-24.6
	C1203.1,2056.5,1373.7,2025,1409.9,2020.2L1409.9,2020.2z M931.6,2189.5c46.3,39.3,123.6,34.6,180.1,47.3
	c34.7,7.8,147.9,38.3,158-23.1c8-48.1-85.7-79.2-120.5-81.4c-7.8-0.5-10,7.5-7.1,12.9c-38.6-3.7-69.5-19.5-106.8-38.8
	c-22.9-11.8-48.4-18-74.2-15.1C908.2,2097.2,890.1,2154.2,931.6,2189.5z M992.6,2110c31.4,5.3,56.9,26.4,85.6,38.8
	c31.1,13.6,62.2,16.8,95.9,14.3c3.7-0.1,6.9-2.5,7.9-6c13.6,5,26.7,11.3,39.1,19c9.8,6,31.7,18.7,31.2,32.6
	c-0.6,18.5-32.9,23.2-45.8,23.8c-36,1.9-72.6-9.5-107.5-17.1c-26.4-5.8-53.3-7.9-79.9-12.4c-29.7-5.1-72.5-12.3-87.9-41.7
	C907.8,2116.5,960,2104.5,992.6,2110z M1455.8,2285.7c5.2-4.3,3-15.6-6-16.2c-48.3-3.5-95.4,40.8-124.8,74
	c-19.3,21.9-42.4,52.4-52.1,84.3c-4.1-0.9-8.2-1.3-12.4-1.3c-1.5,0-2.9,0.3-4.2,1c-42.5-13.1-80.1-40.3-125.3-44.9
	c-32.4-3.3-72.5-3.3-102.6,10.3c-58.8,26.5-36.1,96.6,13.7,117.4c59,24.7,135.4,17.6,197.6,9.5c14.4-1.9,34.3-4.8,50.2-12.5
	c21.3,18.3,54.5,21,80.8,8.6c47.1-22.2,80-75.2,96.5-122.7C1479.4,2357.9,1484.5,2309.7,1455.8,2285.7z M1291.9,2474.4
	c-0.6,2.1-1.1,3.9-1.7,5.5c-4.3-8.3-5.6-18-4.6-28.5C1291.8,2456.4,1294.7,2464,1291.9,2474.4z M1232.4,2502.9
	c-18.2,2-36.6,3.2-54.9,4.1c-44.3,2.1-99.4,5-139.2-18c-23.3-13.5-40-46.7-17.6-70c18.2-18.9,53-18.9,77.3-19.2
	c64-1,110.8,38.2,170.6,49.6c-1,10.4,0.1,20.9,3.3,30.8c1.4,4.3,3.3,8.5,5.7,12.4c-1.5,0.6-3.2,1.2-5.1,2
	C1259.7,2499.3,1245.9,2501.3,1232.4,2502.9z M1318.5,2503c-4.6-1.7-8.9-3.8-13-6.5c4.3-4.2,7.5-9.5,9.3-15.2
	c6.5-21.3-7.3-38.6-25.4-47.7c17.3-56.4,86.8-126.1,137.3-142.7l0.5,0.1C1516.9,2313.9,1406.6,2535.9,1318.5,2503z M1520.8,2310.2
	c-29.9,39.4-60.8,106.2,3.8,129.6c69,25,124.1-51.8,157.8-99.7c36.4-51.7,74.3-117.4,4.5-158.5c-9.9-5.8-18.5,9.8-8.6,15.6
	c2.7,1.6,5.2,3.3,7.7,5.1C1616.6,2211.5,1563.5,2254.1,1520.8,2310.2z M1701.6,2218.5c23.1,36.6-14.8,85.1-39.6,119.7
	c-27.8,38.9-82.9,113.7-139.5,81.1c-50.3-28.9,10.5-98.4,34.5-124.5C1597.2,2251.2,1641.3,2222.1,1701.6,2218.5z M1796.5,2356.5
	c-35.6,18.3-70.1,36.2-94.6,69c-29.4,39.4-71.4,135.2-38.8,182.2c38.7,55.9,115.6-7.2,146.3-38.1c39.6-40,80-84.7,111.3-131.7
	c27-40.6,64.4-115.8-4.8-135.3c-7.9-2.2-12.3,5.9-10.2,11.9C1866.3,2320.7,1832.6,2337.9,1796.5,2356.5L1796.5,2356.5z
	 M1759.5,2589.8c-33.1,23.7-87.7,34.8-88.2-22.5c-0.3-33.8,13.3-73.4,28.1-103.2c17.9-36.1,45.9-60.7,81.1-79.5
	c45.8-24.4,91.3-51,144.1-54.3c1.3-0.1,2.6-0.4,3.8-1.1C1976.6,2379,1792.4,2566.2,1759.5,2589.8L1759.5,2589.8z M2334.1,2374.2
	c3.4,31.6,25,56.1,53.9,73.9c-72.1-3.7-142.6,33.4-214.4,30.3c-5.8-0.2-8.5,4.3-8.3,8.8c-34.7,8.7-70.4,16.7-84.6,54.4
	c-11.2,29.5-4.6,67.2,25.5,82.5c19.6,10,45.2,7.7,66.3,6.4c32.8-1.9,65.5-6.7,97.8-12.9c59.3-11.3,136.5-26.3,181.7-70.1
	c24.1-23.3,22.8-51.3,6.4-71.3c24.1,5.8,48.1,8.4,68,7.8c1.1,1.3,2.5,2.2,4.1,2.7c40.6,14,134.8,21.5,161-23.3
	c26.6-45.5-26.4-89.5-61.5-107.2C2580.7,2331.3,2320.7,2251.4,2334.1,2374.2L2334.1,2374.2z M2453.6,2512.5
	c-4,25-37.9,40.4-57.8,49.6c-62.6,28.8-134.8,42.5-203,49c-21.3,2-48.5,6.5-69.6,0.3c-37.3-10.9-37.3-59.2-13.5-82.9
	c20.2-20.2,54.6-21.6,80.6-29.5c1.7-0.5,3.2-1.5,4.3-2.8c60.3-3,120.2-28,180.9-29.5C2402.5,2466,2460.2,2471.5,2453.6,2512.5
	L2453.6,2512.5z M2359.2,2344.3c29-37.4,127.1-12.1,164.5-4.3c48,10.1,124.8,26.8,149.6,75.1c35.1,68.2-81,68-128.8,57
	c-0.5-4.1-4.3-7.1-8.5-6.5c-0.1,0-0.1,0-0.2,0c-43.4,3.9-92-11.3-130.5-30.6C2376.4,2420.4,2331.6,2379.9,2359.2,2344.3
	L2359.2,2344.3z M2865,2527.3c-3,1.4-4.8,4.6-4.5,7.9c2.1,76.9,68.5,137.9,132.6,172.7c37.9,20.6,111.1,50.7,142,2.9
	c37.5-58-12.1-131.3-58.7-164.4c-56.9-40.4-146.3-66.9-208.3-22.6C2866.8,2524.6,2865.7,2525.9,2865,2527.3L2865,2527.3z
	 M3050,2550.3c25.9,15.2,51,36.2,65.5,63c12.9,23.9,21,66.1,3.1,89.7c-28,36.8-96.3,1.3-125.8-16c-53.9-31.5-110.6-83.8-114.4-148.9
	C2929.4,2502.8,3000.3,2521.2,3050,2550.3L3050,2550.3z M3478.8,2999.5c-39.4-68.4-118.5-125.1-201.3-114.6
	c-61.9,7.9-78.8,82.5-40.1,126.5c25.1,28.5,63.3,41.7,97,56.8c43.7,19.5,88.2,45.8,137.2,47.8c23.5,1,41.2-5.7,45.3-30.7
	C3522.8,3049.4,3501.1,3023.9,3478.8,2999.5L3478.8,2999.5z M3499.7,3078.2c-9.4,41.9-77.2,10.1-101.6-0.3
	c-44.6-19-107.8-38.5-142.7-73.6c-21.9-22-31.4-64.4-6.7-88.6c18.4-18.1,49.6-15.1,72.6-10.7c52.2,9.9,94.4,37.6,125.3,78.1
	c-1.1,3.1-0.4,6.5,1.7,9c4.2,5,9.4,10.3,14.9,15.9c0.5,0.9,1,1.7,1.5,2.6c1,2,2.8,3.4,4.9,4
	C3487.3,3033.2,3505.1,3054.6,3499.7,3078.2L3499.7,3078.2z M2958.5,2949c42.8-15.5,81.4-38.8,119.4-63.5
	c21.5-14,55.3-32.5,64.1-58.8c24.8-73.8-139.3-55.9-169.8-54.8c-6.1,0.2-8.9,5.4-8.3,10.1c-61.5,11.6-133.6,47.7-139.9,112.2
	c-2.3,23.3,5.5,47.2,25.5,60.7C2881.2,2976.2,2926.4,2960.6,2958.5,2949z M2842.9,2889c12.8-62,99.5-90.4,154.2-93
	c4.2-0.1,7.6-3.2,8.1-7.4c57.4-1,155.7,3.1,103.1,52.9c-35.6,33.7-87.9,62-131.9,81.2C2934.9,2940.7,2825.1,2974.6,2842.9,2889z
	 M2749.6,2631.1c-29.1-12.7-73.9-15.6-103,0.9c-72.3,7.8-145.3,62.8-174.8,126.4c-12.9,27.8-24.5,65.4-7.5,94
	c19.4,32.6,66.9,34.4,100.2,30c92.4-12.2,175.7-90.5,207.6-176.1C2783.6,2675.4,2782.8,2645.7,2749.6,2631.1L2749.6,2631.1z
	 M2730,2749.1c-40.2,61.2-110.2,116.1-186.3,116.9c-39,0.4-73.7-13.4-69-57.5c2.8-26.3,16.1-52.7,31.4-74
	c28.5-39.5,81.4-73.9,132.7-83.2c2.5,2.5,6.3,3.4,10.1,0.5c1.1-0.9,2.4-1.7,3.6-2.4c6.4-0.6,12.9-0.8,19.3-0.5
	c6.1,0.4,8.8-4.3,8.4-9c23.8-3.9,51.9-0.6,68,10.2C2780.5,2671.8,2745.3,2725.9,2730,2749.1L2730,2749.1z M2022.8,2903.6
	c64.2-33.5,129.9-126.8,128.4-201.6c-1.4-65.8-90.2-61-140.5-49.5c-67.1,10.4-115.2,115.8-126.2,172.9
	C1868.6,2907.5,1960.5,2936.1,2022.8,2903.6L2022.8,2903.6z M1946.6,2897.7c-46.9-11.5-51.8-49.3-38.9-89.1
	c13.6-41.9,47.2-118.7,95.4-135.6c2.8-0.8,5.7-1.6,8.9-2.4c3.7-0.7,7.6-1.1,11.4-1c2.4,0.1,4.8-0.9,6.3-2.8
	c45.8-8,109.6-7,102.4,47.8c-7.8,58.9-48.3,122.4-94.7,158.3C2011.4,2893,1979.7,2905.8,1946.6,2897.7L1946.6,2897.7z M554.4,2987.4
	c-2.4,0.3-4.4,1.8-5.5,3.9c-54.7,8.2-115.3,54.6-149.8,90.3c-45.7,47.2-28.3,102.9,36.8,114.7c82.2,14.9,154.9-50.3,196.4-113.9
	c15.4-23.6,36.9-56.2,15.6-82.8C625.9,2972.1,583.8,2981.6,554.4,2987.4z M626.7,3057.7c-13.6,24.2-30.4,46.4-50.1,66
	c-40.3,39.6-109.4,77.5-165.3,45.6C327.5,3121.6,520,3005,571.2,3008c5.5,0.3,8.2-3.6,8.3-7.9c9.1-1.8,18.5-2.9,26.4-1.1
	C654.8,3010,638.4,3036.8,626.7,3057.7z M642.3,2801.5c2.1-89.2,151.2-56.5,201.7-56.8c11.5,0,12,17.8,0.4,17.9
	c-41.2,0.2-171.5-28.9-183.3,32.3c-11.9,62,145,49.7,172,48.3c35-1.8,118.4,7.6,145-24.3c26.8-32.1-30.4-72.1-56.3-81
	c-31.4-10.8-64.9-7.9-96.3,0.7c-11.1,3-16.3-14.1-5.2-17.1c38.4-10.5,80-12.9,117.3,3.4c27.8,12.2,63,41.5,65.4,74.5
	c4.9,67.1-118.1,58.8-156.9,60.9C802.9,2862.6,640.4,2879.8,642.3,2801.5z M1059.6,3166.6c3.9-2.3,6.3-7.2,3.2-12.1
	c-23.3-37.5-56.8-59.3-97.5-74.5c-44.1-16.5-93.4-37.7-139.6-46.1c-34-6.2-80.5,2.5-94.5,39.1c-10.4,27.2,8.7,53.9,27.3,72.1
	c29.5,28.8,66.8,43.5,105.3,56.3c50.6,16.7,104.9,31,157.9,36.6c25.5,2.7,59.7-3.5,61.3-35.7
	C1083.9,3184.9,1072.3,3175.4,1059.6,3166.6z M1038.2,3150.4c-1.8-1.8-3.5-3.8-5-5.9C1034.9,3146.5,1036.6,3148.4,1038.2,3150.4
	L1038.2,3150.4z M1040.6,3221c-7,2.1-18-1-24.9-2c-13.5-2-26.9-4.8-40.2-7.4c-63-12.4-137.3-26.8-189.3-66.6
	c-25.9-19.8-60.6-57.5-21.7-84.6c35.1-24.5,80.5-3.2,115.5,9.8c51.6,19.2,107.4,29.4,146.4,67.2c-6.4-1.6-14.5,5.8-10.2,13.5
	c8.4,15.2,22.8,19.8,34.8,31C1060.5,3190.9,1093.8,3205.6,1040.6,3221z M1363.5,2610.2c-50.6-4.3-107.4,7.8-155.1,24.1
	c-25.3,8.6-58,22.9-70.1,48.7c-32.2,68.5,85.7,84.4,125.4,86.8c34.9,2.1,70.3,4.7,105.2,5.5c30.6,0.7,66.1-1.3,85.9-27.9
	c6.8-9.1-6.1-21.5-12.9-12.3c-1.8,2.4-3.9,4.7-6.1,6.8c0.5-1.2,0.7-2.5,0.7-3.8C1435.5,2677,1439.4,2616.6,1363.5,2610.2z
	 M1300.3,2753.3c-26-0.9-52-1.4-77.8-5.7c-28-4.7-94.3-26.2-62.2-65.5c14.8-18.1,41.4-27.4,63.1-33.9
	c36.7-10.9,75.6-19.5,113.9-20.7c34.8-1.1,70.8,2.6,78.9,41.8c4.6,22.3,2,46.5,2.4,69.1c0.1,6.7,6.1,9.4,11.1,8.3
	C1396.2,2769.4,1336.4,2754.5,1300.3,2753.3z M1734.2,2680.9c-1.4-0.6-2.8-0.9-4.3-0.8l-1.6,0.1c-10.2-1.2-18.6-2-23.7-2.6
	c-2.2-0.3-4.5,0.2-6.3,1.4c-79-7.6-189.3-43.8-217.2,55c-5.9,20.7-3.8,42.4,5.8,60.4c-22.7-6.2-47-9.2-71.4-9.8
	c-43.3-1-135.7,11.9-133.7,68.1c-37.3-3.8-79,17-96,49.7c-1.3,2.4-1.4,5.2-0.3,7.6c-15.5,15.6-27.9,36.6-39.5,52.5
	c-24.8,34-41,68.9-22.4,110.3c30.3,67.7,113.3,66.6,160.1,17c32.3-34.3,70.5-108.2,64.8-166.1c54.1,12.9,127-2.7,170,2.3
	c24.5,2.9,66.2,18.3,83.7-8.5c15.3-23.4-11.2-56.2-22.4-78.8c19.8,0,39.7-2.8,57.8-5.7c47.6-7.6,95.6-15.9,142.9-24.7
	c27.6-5.1,69.3-15.6,84.9-42C1900.3,2707.3,1792.8,2688.1,1734.2,2680.9L1734.2,2680.9z M1276.6,3070.8
	c-39,46.7-116.3,55.7-139.6-12c-13-37.7,8.4-65.3,29.1-93.8c13.4-18.5,31-49.7,54-57.2c9.7-3.1,6.9-16.7-1.4-17.5
	c18.3-15,44.5-22.9,66.9-18.7c0.5,1.4,1,2.9,1.7,4.4c8.4,20.5,23.1,33.4,41.3,41.3C1338.7,2967.9,1306.3,3035.2,1276.6,3070.8z
	 M1567.6,2914.9c-18.1,4.5-46.7-7.1-66.2-7.7c-44.8-1.5-110.1,13.7-157.2-3.9c-3.1-9.7-8.1-18.7-14.7-26.4
	c-7.7-8.9-17.6-15.7-28.6-19.8c-0.4-23.4,26-43.3,50.9-49.3c26.9-6.5,55.8-6.3,83.2-4.3c28.2,2.1,55.8,8.2,79.8,20
	c2.7,1.6,5.6,3.1,8.5,4.5c25.7,14.6,46.6,36.4,58.6,67.6c0.6,1.5,1.5,2.9,2.8,3.9C1583.5,2906.6,1578.6,2912.2,1567.6,2914.9
	L1567.6,2914.9z M1831.7,2772.3c-22.7,13.5-49.9,18.2-75.7,21.3c-31.2,3.8-61.8,10.6-92.7,16.7c-36.1,7.1-77,15.7-113.7,7.3
	c-43.3-9.9-67.6-50.8-46.2-92c41.9-80.6,155-25.1,224.5-27.7c19.8,2.2,39.6,4.6,59,8.9C1817.3,2713.5,1883.1,2741.8,1831.7,2772.3z
	 M2332.1,2770c-32.8-68.9-113.1-12.7-149.7,21.7c-5.5,5.2-1.8,12.3,3.9,14.3c-41.5,59-149.4,194.8-31.4,213.6
	c58.3,9.3,103.2-37.8,134-81.6C2319.3,2894.7,2357.7,2823.6,2332.1,2770L2332.1,2770z M2318.7,2832.8
	c-13,59.8-56.2,130.3-110.8,160.5c-22.2,12.3-63.2,17-81.9-5.1c-17.6-20.7-0.5-55,9.8-75.1c20.7-40.1,50.6-73.6,74.7-111.4
	c2.3-3.2,1.7-7.7-1.4-10.2c18.5-16,40.6-31.5,63.6-35.3C2319.4,2748.3,2326.2,2798.6,2318.7,2832.8z M3058.5,3032.1
	c-6.1,0.8-8.8,6.4-8.2,11.1c-49.3,3.1-102.9,11.9-140.3,43.3c-32.4,27-51.1,94.2-11.3,123.7c40.6,30,111.5,7.9,153.6-6.5
	c43.3-14.7,117.8-40.3,132-90.5C3202.1,3049.9,3102.9,3026.1,3058.5,3032.1z M3135.6,3144.5c-46.3,32.1-107.6,54-163.6,59.8
	c-21.5,2.2-53.9,4.6-69-14.7c-18.7-23.9-5.7-66.3,13.6-85.2c40.2-39.4,110.5-43.1,163.5-44.7c6.2-0.2,8.9-5.6,8.1-10.4
	c21.4,1.8,43.1,8.6,59.8,20.4C3181.9,3093.9,3163.9,3124.9,3135.6,3144.5z M2611.5,3016.5c-5.7-1.1-9.7,2.9-10.7,7.3
	c-44.7,2.5-89,9-129.8,28.9c-42.3,20.6-83.4,54.1-116.7,87.3c-24,24-55.2,62-40.3,98.6c13,31.9,55.7,37.3,85.4,31.1
	c48.7-10.3,92.1-53.5,131.2-82.2c29.3-21.5,57.6-42.9,92.5-54.4c22.3-7.3,45.7-10.8,65.2-24.5c22.1-15.5,49-51.7,24-77.1
	C2688.5,3007.4,2641.2,3021.9,2611.5,3016.5z M2660.6,3103.2c-17.2,7.1-36,9.8-53.4,16.2c-67.6,24.8-117.2,83.6-178.5,119.1
	c-32,18.5-116.7,28.3-97.6-35.7c11.1-37.1,52.1-66.5,81-89.3c65-51.2,129.1-70.4,211.4-73.1c3.5,0.1,6.7-2,7.8-5.3
	c17.3-0.5,35.2-2.7,50.7,2.3C2730.7,3053.3,2678.9,3095.7,2660.6,3103.2z M2077.8,3000.4c-2.2-1.1-4.7-1.3-7-0.4
	c-37.7-39.2-79.2-77.7-135.3-49c-82.1,41.9,20.7,138,58,166.9c41.4,32.1,124.5,117.3,172.4,48.9
	C2216.7,3094.2,2137.8,3029.2,2077.8,3000.4z M2146.5,3163c-42.6,42.6-125-45.1-157.1-70.9c-24.2-19.4-50.8-41.7-60.6-72.2
	c-14.6-45.6,23.7-65,63.2-55.7c52.7,12.4,78.4,69.1,119.9,99.1c7.9,5.6,15.2-4.9,11.6-12.3C2159.6,3081.4,2186.1,3123.4,2146.5,3163
	z M1751.5,3010.6c-48.8-19.9-107.4-4.4-158.1-2.3c-8.7,0.4-10.5,10.9-5.8,15.6c-55.9,20.6-150.5,32.1-171.7,96.7
	c-14.8,45,14.7,71,57.6,74.6c60.4,5.1,124.5-14.1,181.6-31.6c45.3-13.9,101-28.3,129.4-69.5
	C1808.9,3058.7,1788.2,3025.5,1751.5,3010.6z M1711.6,3125.5c-44,17.9-91.1,31-137.4,41.2c-30.7,6.8-128.7,32.3-143.5-12.8
	c-24-72.8,123-97.7,166-114.4c6.2-2.4,7-9.4,4.5-13.8c44.4-2.9,93.6-14.4,136.6-1.1C1817.6,3049.3,1754.5,3108,1711.6,3125.5z"/>
<path class="st2" d="M1536.2,1091.7c3.3-1.1,5-1.3,6.3-2.1c11.7-7.2,23.1-14.7,34.9-21.7c9.2-5.3,17.5-12,24.6-19.8
	c2.1-2.4,4.4-4.6,6.9-6.6c20.6-15.7,35-36.5,48.4-58.2c11.5-18.7,8.3-22.8-11-30c-13.9-5.1-28.2-9-42.8-11.7
	c-15.5-3-31.4-4.5-47.1-6.3c-4.6-0.5-9.7-0.8-13.5,3.9c-3.1,12.1-1.8,24.8-2.1,37.5s-2,25.3-2.7,38s-1.7,25.4-1.4,38.1
	C1536.9,1065.3,1532.7,1077.8,1536.2,1091.7 M1768.1,997.2c-5,7.3-9.8,12.1-11.8,17.8c-2.7,7.6-11.5,7.5-14.6,13.9
	c-0.5,0.9-1.1,1.8-1.7,2.7c-9.3,16.1-21.8,30.1-36.7,41.1c-3,2.2-5.1,5.3-8,7.6c-11.9,9.6-23.3,20.1-36.1,28.4
	c-14.6,9.4-30.5,17-46,25.1c-7.7,4.1-14.6,9.5-20.5,15.9c-0.8,5.6,2.1,8.6,5,11.8c5,5.4,10.8,10.4,14.3,16.7
	c8.2,14.6,19.7,26.2,32,37c14.6,13,29.9,25.1,45.1,37.3c2.8,2.3,6.1,4.7,9.6,5.4c14.1,3.1,26.9,9.6,39.1,16.8c16,9.4,31.8,9,48,3.9
	C1792.4,1257.2,1775.1,1023.8,1768.1,997.2 M2197.5,1067.5c-5.8-2.5-9.7-4.1-13.6-5.8c-5.3-2.4-8.8-6.8-9.4-12.1
	c-0.8-7.3-0.2-14.7,0.3-22.1c0.4-2.1,1.7-3.9,3.5-5c6.6-3,12.8-7.6,20.4-7.7c6.1-0.1,11.1-2.8,16.7-4.1c5.1-12.9,3.1-25.7,3.5-38.2
	c0.1-4.3-0.3-8.5-1.2-12.7c-2.6-12.1-3.9-23.9,0.2-36.1c1-3-0.3-7.3-1.6-10.6c-6.4-16,2-28.8,14.5-33.2c13.7-4.8,27.9-7.2,42.2-5.4
	c16.9,2.2,33.8,2,50.8,1.5c29.6-0.8,59.3-1.7,88.9-2c16.3-0.2,32.7,0.8,49,1.4c4.2,0.2,8.6,0.5,12.5,1.9c5.6,2,10.4,4.3,16.3,0.3
	c2.1-1.5,6.2-0.5,9.3-0.2c14.2,1.4,28.4,3.1,42.7,4.4c19.8,1.7,46.3,6.8,63.8,11.6c11.4,3.2,16.2,12.9,23.2,20.6
	c0.4,8.2,6.7,12.5,13.4,18.2c-3.7,1.6-5.8,3-8.1,3.4c-14.3,2.3-28.6,1.1-42.7-1.4c-30.4-5.4-61-6.1-91.8-4.5
	c-21.7,1.1-43.4,1.1-65.2,1.6c-4.8,0.1-9.6-0.2-14.3,0.3c-21.7,1.9-43.3,1.3-65.1,0.5c-14.7-0.6-29.5-0.1-45.1-0.1
	c0.4,2.1,0.1,5.1,1.3,5.8c18.3,11.5,18.9,30.6,20.9,48.9c0.7,6.8,0.1,13.8,0.3,20.7c0.2,2.3,0.5,4.7,0.9,7
	c5.5,4.3,10.9,3.2,16.1,3.2c23.9-0.3,47.7-0.7,71.5-1.4c29.1-0.9,58.2-2.5,87.3-3.4c18-0.5,36-0.4,54-0.5c1.6,0.2,3.2,0.2,4.8,0.2
	c22.5-2.7,44.2,2.5,66.2,5.5c2.6,0.5,5.2,0.8,7.9,0.7c18.2-1.5,24.5,6.5,27.9,26.8c-2.8,5.5,2.7,8.4,3.9,12.6
	c-1.4,4.4-5.1,5.4-8.8,5.8c-23.1,3-46.1,7.7-69.3,8.3c-17.4,0.5-34.5,4.2-52.1,2.8c-12.5-1-25.3,1.8-38,2.3c-27,1.1-54,2.5-80.9,2.7
	c-26.5,0.2-53,1.2-79.4-1.8c-5.2-0.6-10.5-0.1-16.3-0.1c-1,3.6-2.3,6.4-2.5,9.4c-1.1,15.8-1.5,31.7-2.8,47.6c-1.5,19-3,38.2-1,57.1
	c2.3,22.5,5.2,45.3,17.4,65.4c0.5,0.9,1.4,1.5,2.8,3c5.4-1.4,9.4-6,14.2-8.8c4.6-2.6,9-5.6,13.1-8.9c8.5-7.2,16.6-14.8,24.8-22.2
	c1.2-1.1,2.8-1.8,3.6-3.1c7.8-13.5,20.4-22.9,30.1-34.8c2.6-3.3,5.5-6.4,8.7-9.2c7.6-6.6,14.5-13.9,20.7-21.8
	c4.9-6.1,10-12.5,19-14.8c7.8,3.6,12.6,8.4,13.4,18.7s5.1,20.2,8.4,32c-1.1,2.1-2.8,5.9-4.8,9.7c-2.5,4.8-4.3,9.6-2.6,15.2
	c1.8,5.8-0.6,10.6-4.7,14.3c-9.2,8.5-14.6,19.4-20.5,30c-3.2,5.7-6.2,10.8-4,17.8c0.7,2.3-1.1,6.2-2.9,8.5
	c-3.6,4.6-7.7,8.8-12.1,12.6c-14,12.1-28.1,24.2-43.9,33.9s-33.1,13.9-51.6,13.3c-11.7-0.4-23.4-0.1-34.9-1.3
	c-13.1-1.4-26.7-2.6-39-6.8c-17.2-5.8-32.3-15.7-41.9-32.2c-14.9-25.6-23.9-52.9-25.2-82.6c-0.1-2.4-0.9-4.7-1.7-9
	c-4.1,3.6-7.1,5.5-9.3,8.2c-11.6,14.5-26.1,26.4-42.4,35.2c-8.3,4.5-15.5,11-25.4,11.9c-7.7,7.3-18,8.5-27.3,12.2
	c-12.9,4.9-26.3,8.2-40,9.6c-9.5,1-19,1.9-28.4,3.3c-24.5,3.5-48.7,1.2-72.7-3.3c-11.4-2.1-22.8-4.8-34.1-7.6
	c-5.5-1.4-10.6-4-16.3-6.1c-10.1,15.9-10.3,33.8-14.9,50.2c-5.4,1.7-9.8,3.7-14.4,4.5c-22.4,3.5-44.7,8.4-67.7,4.4
	c-7.1-1.2-14.8,0-22.1,0.9c-15.3,2-30.4,4.1-45.9,3.4c-7.9-0.3-15.9,0.3-23.9,0.4c-29.9,0.4-59.1-3.8-87-15
	c-13.3-5.3-26.9-9.9-39.7-16.1c-22.5-10.8-43.1-25.1-61.1-42.3c-1.5-1.2-3.1-2.4-4.7-3.4c-0.9,2.2-2.1,3.8-2.1,5.5
	c-0.7,24.9-2.9,49.8,0.3,74.6c0.9,5.9-1.1,11.8-5.4,15.9c-3.6,3.7-6.5,8.1-10.5,13.2c-6.4,2.5-14.1,4.6-22,4.4
	c-5.1-0.1-9.4,0.3-12.8,4.5c-1.2,1-2.6,1.6-4.2,1.7c-16.3,1.3-32.6,2.3-48.9,3.6c-9,0.7-15.3-3.1-19.3-11
	c-4.8-9.5-9.2-18.9-7.2-30.2c0.8-4.6-0.2-9.5-0.4-14.3c-0.2-4.2-1-8.5-0.9-12.7c0.4-27,0.9-54,1.4-81c0.2-10.1,0.6-20.1,0.6-30.2
	c0-2.5-0.9-5.1-1.5-8.3c-5.5-0.8-10.7-1.3-15.8-2.2c-12.3-2.1-17.4-7.1-20.1-19.3c-3.1-14.2-0.9-19.9,11.1-28.5
	c6.5-4.7,13.1-8.9,21.1-10.8c2.5-0.6,4.7-2.3,7.8-3.9c0.9-11.9,2-24,2.7-36.1c1.1-17.4,1.9-34.9,3-52.3c1.3-21.1,2.8-42.3,4.1-63.4
	c0.2-2.6,0.1-5.3-0.2-7.9c-0.5-4.2-3.7-6.7-7.8-6.1c-16.7,2.4-33.5,4.4-50.1,7.4c-6.7,1.2-12.2,0.7-18.1-2.7
	c-6.3-3.5-8.6-8.9-10.2-15.6c0.4-1.2,0.8-2.7,1.3-4.1c6.2-17.6,6.2-17.5,22.3-26.4c19.5-10.7,40.2-18.9,61.8-24.4
	c7.7-1.9,15.1-4.9,22-8.8c9.5-5.4,19.8-9.6,31.4-6.8c3.5,0.8,7.4,0.4,11-0.2c34.6-5.9,69.5-7.7,104.5-7.6c18.5,0,36.9,2.2,55.2,5.1
	c14.1,2.2,28,5.7,42,7.9c11.1,1.7,22.5,4.1,31.6,9.9c11.6,7.3,26.2,8.7,36,19.1c12.4,2.5,17.7,13.7,25.6,21.8
	c4.2-3,7.6-6.7,11.7-8.2c7-2.3,14.3-4,21.6-4.9c3.4-0.4,7.1,1.6,10.7,2c6.3,0.7,12.6,1.2,19,1.5c6,0.3,11.4,1.6,16.5,5
	c3.5,2.4,7.3,4.3,11.4,5.5c4.1,1,7.7,3.4,10.2,6.8c1.9,2.4,4.9,3.9,7.4,5.8c7.3,5.4,12.2,13.3,14,22.2c3.9,18.2,4.7,36.8,6.5,55.2
	c0.9,8.7,0.5,17.8,5.8,27.2c3.7-5.1,6.7-9.3,9.7-13.4c2.8-3.8,6.1-7.4,8.6-11.4c2.9-4.6,6.2-8.4,11.2-10.9c2.9-1.4,5.2-3.6,6.9-6.3
	c7-11.6,17.8-19.5,27.2-28.7c1.9-1.8,3.9-3.8,6.3-4.8c22.4-9.5,42.8-23.2,66.3-30.3c8.4-2.5,16.4-3.8,25-1.5
	c4.1,1.1,8.3,1.9,12.5,2.2c13.5,0.9,25.5,6.9,37.7,11.7c1.9,0.8,3.5,3,5.4,3.2c12.7,1.5,15.2,12.3,18.1,21.3
	c2.2,7.4-0.8,15.4-7.3,19.6c-9.3,6-19.2,11.3-30.3,13.3c-3.6,0.6-7.3,0.8-10.9,0.5c-8.4-0.5-16.8-1.3-25.2-2.2c-3.8-0.5-7.5,1-9.9,4
	c-3.4,4.1-6.4,8.5-9.4,12.8c-6,8.7-11.5,17.7-17.8,26.2c-7.6,10.2-14.2,21.2-19.5,32.7c-5.3,11.5-13.1,21.7-16.6,34.1
	c-3,10.6-7.9,20.9-5,32.5c0.4,2.1,0,4.3-1.1,6.1c-4.5,6.8-3.4,13.6-2.2,21.2c2.2,13.3,9.3,23.4,17.5,33.1c3.4,4.1,7.3,4.6,12.7,3.3
	c20.5-4.8,38.5-14.8,56.1-25.6c20.8-12.8,40.8-27,58.4-43.8c11.7-11.1,25.1-21.2,32.4-36.5c1.6-3.3,3.6-6.8,6.4-9
	c11.4-9.3,17.3-22.5,24.8-34.5C2195.7,1075.4,2196.2,1071.6,2197.5,1067.5"/>
</svg>
